<?xml version="1.0" encoding="UTF-8" standalone="no"?>
<!-- Created with Inkscape (http://www.inkscape.org/) -->
<svg xmlns:dc="http://purl.org/dc/elements/1.1/" xmlns:cc="http://creativecommons.org/ns#" xmlns:rdf="http://www.w3.org/1999/02/22-rdf-syntax-ns#" xmlns:svg="http://www.w3.org/2000/svg" xmlns="http://www.w3.org/2000/svg" xmlns:sodipodi="http://sodipodi.sourceforge.net/DTD/sodipodi-0.dtd" xmlns:inkscape="http://www.inkscape.org/namespaces/inkscape" width="18" height="18" id="svg13094" version="1.1" inkscape:version="0.48.3.1 r9886" sodipodi:docname="document-new.svg">
  <sodipodi:namedview id="base" pagecolor="#ffffff" bordercolor="#666666" borderopacity="1.0" inkscape:pageopacity="0.0" inkscape:pageshadow="2" inkscape:zoom="16" inkscape:cx="15.7019" inkscape:cy="7.5795244" inkscape:document-units="px" inkscape:current-layer="layer1" showgrid="true" inkscape:snap-bbox="true" inkscape:bbox-paths="true" inkscape:bbox-nodes="true" inkscape:snap-bbox-edge-midpoints="true" inkscape:snap-bbox-midpoints="true" inkscape:object-paths="true" inkscape:snap-intersection-paths="true" inkscape:object-nodes="true" inkscape:snap-smooth-nodes="true" inkscape:snap-midpoints="true" inkscape:snap-object-midpoints="true" inkscape:snap-center="true" showguides="false" inkscape:guide-bbox="true" inkscape:window-width="1920" inkscape:window-height="1033" inkscape:window-x="-10" inkscape:window-y="25" inkscape:window-maximized="1" inkscape:snap-global="true" fit-margin-top="0" fit-margin-left="0" fit-margin-right="0" fit-margin-bottom="0" showborder="true" inkscape:showpageshadow="false">
    <sodipodi:guide orientation="0,1" position="-20.000165,933.61275" id="guide4700"/>
    <sodipodi:guide orientation="0,1" position="581.7187,331.89377" id="guide4702"/>
    <sodipodi:guide orientation="1,0" position="581.71882,492.70384" id="guide4706"/>
    <sodipodi:guide orientation="1,0" position="59.999836,933.61275" id="guide4708"/>
    <sodipodi:guide orientation="0,1" position="-20.000165,853.61285" id="guide4710"/>
    <sodipodi:guide orientation="0,1" position="541.7187,411.89369" id="guide4712"/>
    <sodipodi:guide orientation="1,0" position="501.7187,411.89369" id="guide4714"/>
    <inkscape:grid type="xygrid" id="grid3216" empspacing="5" visible="true" enabled="true" snapvisiblegridlinesonly="true" originx="-20.000111px" originy="-216.00016px"/>
    <sodipodi:guide orientation="-0.70710664,0.70710692" position="8.9998902,-243.00016" id="guide3847"/>
    <sodipodi:guide orientation="0.70710594,0.70710762" position="9.9998902,-242.00016" id="guide3849"/>
    <sodipodi:guide orientation="-0.70710681,0.70710676" position="11.99989,-209.00016" id="guide3851"/>
  </sodipodi:namedview>
  <defs id="defs13096"/>
  <metadata id="metadata13099">
    <rdf:RDF>
      <cc:Work rdf:about="">
        <dc:format>image/svg+xml</dc:format>
        <dc:type rdf:resource="http://purl.org/dc/dcmitype/StillImage"/>
        <dc:title/>
      </cc:Work>
    </rdf:RDF>
  </metadata>
  <g transform="translate(9384.3076,-4846.1987)" id="layer1" inkscape:groupmode="layer" inkscape:label="Camada 1">
    <path style="fill:#434a54;fill-opacity:0.6745098;fill-rule:nonzero" d="m 1,1 0,14 9,0 5,-5 0,-9 z M 3,3 4,3 4,4 3,4 z M 5,3 6,3 6,4 5,4 z M 3,5 4,5 4,6 3,6 z M 5,5 6,5 6,6 5,6 z m 4,4 5,0 -5,5 z" transform="translate(-9383.3076,4847.1987)" id="path3789-4" inkscape:connector-curvature="0" sodipodi:nodetypes="cccccccccccccccccccccccccccccc"/>
    <path sodipodi:nodetypes="ccccc" inkscape:connector-curvature="0" id="path2998" d="m -9345.3077,4855.1989 0,14 12,-1e-4 0,-13.9999 z" style="font-size:medium;font-style:normal;font-variant:normal;font-weight:normal;font-stretch:normal;text-indent:0;text-align:start;text-decoration:none;line-height:normal;letter-spacing:normal;word-spacing:normal;text-transform:none;direction:ltr;block-progression:tb;writing-mode:lr-tb;text-anchor:start;baseline-shift:baseline;color:#000000;fill:#434a54;fill-opacity:0.6745098;stroke:none;stroke-width:57.8928833;marker:none;visibility:visible;display:inline;overflow:visible;enable-background:accumulate;font-family:Sans;-inkscape-font-specification:Sans" transform="translate(1,1)"/>
    <path style="font-size:medium;font-style:normal;font-variant:normal;font-weight:normal;font-stretch:normal;text-indent:0;text-align:start;text-decoration:none;line-height:normal;letter-spacing:normal;word-spacing:normal;text-transform:none;direction:ltr;block-progression:tb;writing-mode:lr-tb;text-anchor:start;baseline-shift:baseline;color:#000000;fill:#434a54;fill-opacity:0.6745098;stroke:none;stroke-width:57.8928833;marker:none;visibility:visible;display:inline;overflow:visible;enable-background:accumulate;font-family:Sans;-inkscape-font-specification:Sans" d="m -9399.3077,4846.1989 0,2 -1,0 0,2 -2,0 0,1 2,0 0,1 4,0 0,-4 -2,0 0,-2 z m 5,1 1,2 3,0 0,10 -7,0 0,-4.0001 -2,0 0,6.0001 11,0 0,-14 z" id="path3019" inkscape:connector-curvature="0" sodipodi:nodetypes="cccccccccccccccccccccccc" transform="translate(1,1)"/>
    <path style="fill:#434a54;fill-opacity:0.6745098;fill-rule:nonzero" d="m -9366.3077,4847.1989 0,14 8,0 5,-5 0,-9 z m 3,1 2,0 0,2 2,0 0,2 -2,0 0,2 -2,0 0,-2 -2,0 0,-2 2,0 z m 5,8 5,0 -5,5 z" id="path3789" inkscape:connector-curvature="0" sodipodi:nodetypes="ccccccccccccccccccccccc" transform="translate(1,1)"/>
    <path style="fill:#434a55;fill-opacity:0.6745098;stroke:none" d="m -9358.3078,4861.199 5,0 0,-5 z" id="path2995" inkscape:connector-curvature="0" sodipodi:nodetypes="cccc" transform="translate(1,1)"/>
    <rect style="fill:#434a55;fill-opacity:0.6745098;fill-rule:nonzero;stroke:none" id="rect3001" width="8.0000935" height="1.9998704" x="-9392.3076" y="4841.1992" transform="translate(1,1)"/>
    <rect y="4864.1987" x="-9344.3076" height="1.9998704" width="5.9998789" id="rect3777" style="fill:#c7c7c7;fill-opacity:1;fill-rule:nonzero;stroke:none" transform="translate(1,1)"/>
    <rect style="fill:#c7c7c7;fill-opacity:1;fill-rule:nonzero;stroke:none" id="rect3773" width="6.0000167" height="1.9998704" x="4862.1987" y="9340.3076" transform="matrix(0,1,-1,0,0,0) translate(1,1)"/>
    <rect y="4839.1992" x="-9382.3076" height="1.9998704" width="8.0000935" id="rect3000" style="fill:#c7c7c7;fill-opacity:1;fill-rule:nonzero;stroke:none" transform="translate(1,1)"/>
    <rect style="fill:#434a55;fill-opacity:0.6745098;fill-rule:nonzero;stroke:none" id="rect3779" width="2.0000937" height="7.9998703" x="-9389.3076" y="4838.1992" transform="translate(1,1)"/>
    <rect style="fill:#c7c7c7;fill-opacity:1;fill-rule:nonzero;stroke:none" id="rect2998" width="2.0000937" height="7.9998703" x="-9379.3076" y="4836.1992" transform="translate(1,1)"/>
    <path style="fill:#c7c7c7;fill-opacity:1;stroke:none" d="m -9372.3077,4864.1989 -4,4 4,0 z" id="path2999" inkscape:connector-curvature="0" sodipodi:nodetypes="cccc" transform="translate(1,1)"/>
  </g>
</svg>
