<svg xmlns="http://www.w3.org/2000/svg" viewBox="0 0 64 64"><g color="#000"><path d="m0 4v30 28l2 2h30 30l2-2v-28-30h-32-32" fill="#c13434"/><path d="m2 0l-2 1v3h32 32v-3l-2-1h-30-30" fill="#ff5858"/></g><path d="m0 3v3l2-2" fill="#f88"/><path d="m64 6l-2-2 2-1z" fill="#e14747"/><g color="#000"><path d="m52.26 42.16l1.364-2.928c.036-.082.06-.165.061-.25.009-.252-.127-.495-.37-.608l-9.704-4.5c-.325-.151-.703-.001-.854.324l-1.364 2.928c-.151.324-.001.703.324.854l9.694 4.494c.324.151.697.011.848-.313zm1.599-4.466c.407-.826.683-1.812.682-2.831-.001-.866-.196-1.752-.674-2.58-1.959-3.394-10.523-9.254-21.874-9.254-11.351 0-19.907 5.864-21.866 9.258-1.041 1.803-.745 3.878.008 5.407.06-.04.119-.079.186-.11l9.64-4.464c-.131-2.152 4.213-6.115 12.04-6.115 7.823 0 12.167 3.967 12.04 6.119l9.643 4.465c.067.03.125.065.184.106m-31.29.033c.062-.107.09-.233.085-.359l.01.006c-.003-.084-.021-.171-.059-.252l-1.371-2.928c-.15-.325-.527-.466-.852-.315l-9.7 4.497c-.325.15-.456.533-.305.858l1.351 2.917c.151.325.538.472.862.321l9.694-4.487c.122-.057.221-.151.285-.258" fill="#fff" fill-opacity=".866"/><path d="m32 27c-7.823 0-12.163 3.973-12.03 6.125l-9.281 4.313c.074.276.146.557.25.813l9.438-4.375c.207-.096.448-.082.625.031.144-2.189 4.422-5.906 12-5.906 4.809 0 8.302 1.501 10.25 3.156-1.577-2-5.465-4.156-11.25-4.156m20.938 4.03c.392.441.713.861.938 1.25.478.828.656 1.697.656 2.563.001 1.02-.249 2.02-.656 2.844-.059-.041-.121-.063-.188-.094l-8.719-4.03c.047.193.073.39.063.563l9.656 4.469c.067.03.129.053.188.094.407-.826.657-1.824.656-2.844-.001-.866-.178-1.735-.656-2.563-.389-.673-1.059-1.448-1.938-2.25m-31.31 3.781c-.032.001-.062.025-.094.031l1.063 2.281c.038.081.059.166.063.25.005.126-.032.236-.094.344-.064.106-.16.193-.281.25l-9.688 4.5c-.05.023-.104.022-.156.031l.281.656c.151.325.55.463.875.313l9.688-4.5c.122-.057.217-.144.281-.25.062-.107.099-.218.094-.344-.003-.084-.025-.169-.063-.25l-1.344-2.938c-.113-.244-.375-.384-.625-.375m20.75 3.469c-.052.283.069.56.344.688l9.688 4.5c.324.151.693.012.844-.313l1.375-2.938c.036-.082.061-.165.063-.25.009-.252-.131-.481-.375-.594l-.656-.313c-.011.052-.009.105-.031.156l-1.375 2.938c-.151.325-.519.463-.844.313l-9.03-4.188" fill-opacity=".184" fill="#481000"/></g></svg>