<svg xmlns="http://www.w3.org/2000/svg" viewBox="0 0 64 64"><g color="#000"><path d="m0 4v30 28l2 2h30 30l2-2v-28-30h-32-32" fill="#c13434"/><path d="m2 0l-2 1v3h32 32v-3l-2-1h-30-30" fill="#ff5858"/></g><path d="m0 3v3l2-2" fill="#f88"/><path d="m64 6l-2-2 2-1" fill="#e14747"/><path d="m30 18v18h4v-18h-4m-4 1.188c-5.867 2.372-10 8.095-10 14.813 0 8.837 7.163 16 16 16 8.837 0 16-7.163 16-16 0-6.717-4.133-12.441-10-14.813v4.438c3.587 2.075 6 5.933 6 10.375 0 6.627-5.373 12-12 12-6.627 0-12-5.373-12-12 0-4.442 2.413-8.3 6-10.375v-4.438" fill="#fff" fill-opacity=".866"/></svg>