<svg xmlns="http://www.w3.org/2000/svg" viewBox="0 0 64 64"><g color="#000"><path d="m0 2v32 28l2 2h30 30l2-2v-28-32h-32z" fill="#9e6e31"/><path d="m2 0l-2 1v1h32 32v-1l-2-1h-30" fill="#ffbc35"/></g><path d="m64 4l-2-2 2-1" fill="#1f0700" fill-opacity=".138"/><g fill="#fc0" color="#000"><g fill-opacity=".036"><path d="m2 0l-2 1v3 18.5h2v-22.5m2 0v3.5h2v-3.5h-2m4 0v17.5h2v-17.5h-2m4 0v32.5h2v-32.5h-2m8 0v27.5h2v-27.5h-2m16 0v.5h2v-.5h-2zm12 0v19.5h2v-19.5h-2m4 0v33.5h2v-33.5h-2m4 0v14.5h2v-14.5h-2m4 0v30.5h2v-30.5h-2m-20 .5v37h2v-37h-2zm-36 5v37h2v-37h-2m28 0v37h2v-37h-2m-8 1v37h2v-37h-2m-8 3v37h2v-37h-2m12 2v37h2v-37h-2m16 5v37h2v-37h-2m-36 3v37h2v-37h-2m28 0v37h2v-37h-2m12 2v37h2v-37h-2m-48 3v9.5 27.5h2v-37h-2m60 8v31.5h2v-31.5h-2m-8 5v26.5h2v-26.5h-2m4 14v12.5h2v-12.5h-2"/><path d="m2 0l-2 1v3 26h2v-30m2 0v14h2v-14h-2m4 0v33h2v-33h-2zm4 0v19h2v-19h-2m8 0v37h2v-37h-2m20 0v27h2v-27h-2m8 0v32h2v-32h-2m4 0v17h2v-17h-2m4 0v3h2v-3h-2m4 0v22h2v-22h-2m-32 5v37h2v-37h-2m28 0v37h2v-37h-2m-20 1v37h2v-37h-2m8 3v37h2v-37h-2m-12 2v37h2v-37h-2m-16 5v37h2v-37h-2m8 3v37h2v-37h-2m28 0v37h2v-37h-2m-40 2v37h2v-37h-2m48 3v37h2v-37h-2m-60 8v2 28l2 2v-32h-2m8 5v27h2v-27h-2m-4 14v13h2v-13h-2"/><path d="m2 0l-2 1v3 24.5h2v-28.5m2 0v12.5h2v-12.5h-2m4 0v31.5h2v-31.5h-2m4 0v17.5h2v-17.5h-2m8 0v35.5h2v-35.5h-2m20 0v25.5h2v-25.5h-2m8 0v30.5h2v-30.5h-2m4 0v15.5h2v-15.5h-2m4 0v1.5h2v-1.5h-2zm4 0v20.5h2v-20.5h-2m-32 3.5v37h2v-37h-2zm28 0v37h2v-37h-2m-20 1v37h2v-37h-2m8 3v37h2v-37h-2m-12 2v37h2v-37h-2m-16 5v37h2v-37h-2m8 3v37h2v-37h-2m28 0v37h2v-37h-2m-40 2v37h2v-37h-2m48 3v37h2v-37h-2m-60 8v3.5 28l2 2v-33.5h-2m8 5v28.5h2v-28.5h-2m-4 14v14.5h2v-14.5h-2"/><path d="m2 0l-2 1v19h2v-20m2 0v1h2v-1h-2m4 0v15h2v-15h-2zm4 0v30h2v-30h-2m8 0v25h2v-25h-2m20 0v35h2v-35h-2m8 0v17h2v-17h-2m4 0v31h2v-31h-2m4 0v12h2v-12h-2m4 0v28h2v-28h-2m-56 3v37h2v-37h-2m28 0v37h2v-37h-2zm-8 1v37h2v-37h-2m-8 3v37h2v-37h-2m12 2v37h2v-37h-2m16 5v37h2v-37h-2m-36 3v37h2v-37h-2m28 0v37h2v-37h-2m12 2v37h2v-37h-2m-48 3v12 25h2v-37h-2m60 8v34h2v-34h-2zm-8 5v29h2v-29h-2m4 14v15h2v-15h-2"/><path d="m2 0l-2 1v3 29.5h2v-33.5m2 0v14.5h2v-14.5h-2m4 0v28.5h2v-28.5h-2m16 0v9.5h2v-9.5h-2zm8 0v6.5h2v-6.5h-2m4 0v11.5h2v-11.5h-2m12 0v30.5h2v-30.5h-2m8 0v25.5h2v-25.5h-2m-36 1.5v37h2v-37h-2zm40 3v37h2v-37h-2m-48 2v37h2v-37h-2m40 1v37h2v-37h-2m-12 4v37h2v-37h-2m-36 5v37h2v-37h-2m28 0v37h2v-37h-2m-8 1v37h2v-37h-2m-8 3v37h2v-37h-2m12 2v37h2v-37h-2m16 5v36.5h2v-36.5h-2m-36 3v33.5h2v-33.5h-2m28 0v33.5h2v-33.5h-2m12 2v31.5h2v-31.5h-2m-48 3v26.5l2 2v-28.5h-2m60 8v20.5h2v-20.5h-2m-8 5v15.5h2v-15.5h-2m4 14v1.5h2v-1.5h-2"/><path d="m4 0v25h2v-25h-2m8 0v30h2v-30h-2zm12 0v11h2v-11h-2m4 0v6h2v-6h-2m8 0v9h2v-9h-2m16 0v28h2v-28h-2m4 0v14h2v-14h-2m4 0v33h2v-33h-2m-20 1v37h2v-37h-2m-40 3v30 7h2v-37h-2m48 2v37h2v-37h-2zm-40 1v37h2v-37h-2m12 4v37h2v-37h-2zm8 5v37h2v-37h-2m28 0v37h2v-37h-2m-20 1v37h2v-37h-2m8 3v37h2v-37h-2m-12 2v37h2v-37h-2m-16 5v37h2v-37h-2m8 3v34h2v-34h-2m28 0v34h2v-34h-2m-40 2v32h2v-32h-2m48 3v29h2v-29h-2m-60 8v19l2 2v-21h-2m8 5v16h2v-16h-2zm-4 14v2h2v-2h-2"/></g><g transform="translate(2)" fill-opacity=".015"><path d="m2 0l-2 1v3 18.5h2v-22.5m2 0v3.5h2v-3.5h-2m4 0v17.5h2v-17.5h-2m4 0v32.5h2v-32.5h-2m8 0v27.5h2v-27.5h-2m16 0v.5h2v-.5h-2zm12 0v19.5h2v-19.5h-2m4 0v33.5h2v-33.5h-2m4 0v14.5h2v-14.5h-2m4 0v30.5h2v-30.5h-2m-20 .5v37h2v-37h-2zm-36 5v37h2v-37h-2m28 0v37h2v-37h-2m-8 1v37h2v-37h-2m-8 3v37h2v-37h-2m12 2v37h2v-37h-2m16 5v37h2v-37h-2m-36 3v37h2v-37h-2m28 0v37h2v-37h-2m12 2v37h2v-37h-2m-48 3v9.5 27.5h2v-37h-2m60 8v31.5h2v-31.5h-2m-8 5v26.5h2v-26.5h-2m4 14v12.5h2v-12.5h-2"/><path d="m2 0l-2 1v3 26h2v-30m2 0v14h2v-14h-2m4 0v33h2v-33h-2zm4 0v19h2v-19h-2m8 0v37h2v-37h-2m20 0v27h2v-27h-2m8 0v32h2v-32h-2m4 0v17h2v-17h-2m4 0v3h2v-3h-2m4 0v22h2v-22h-2m-32 5v37h2v-37h-2m28 0v37h2v-37h-2m-20 1v37h2v-37h-2m8 3v37h2v-37h-2m-12 2v37h2v-37h-2m-16 5v37h2v-37h-2m8 3v37h2v-37h-2m28 0v37h2v-37h-2m-40 2v37h2v-37h-2m48 3v37h2v-37h-2m-60 8v2 28l2 2v-32h-2m8 5v27h2v-27h-2m-4 14v13h2v-13h-2"/><path d="m2 0l-2 1v3 24.5h2v-28.5m2 0v12.5h2v-12.5h-2m4 0v31.5h2v-31.5h-2m4 0v17.5h2v-17.5h-2m8 0v35.5h2v-35.5h-2m20 0v25.5h2v-25.5h-2m8 0v30.5h2v-30.5h-2m4 0v15.5h2v-15.5h-2m4 0v1.5h2v-1.5h-2zm4 0v20.5h2v-20.5h-2m-32 3.5v37h2v-37h-2zm28 0v37h2v-37h-2m-20 1v37h2v-37h-2m8 3v37h2v-37h-2m-12 2v37h2v-37h-2m-16 5v37h2v-37h-2m8 3v37h2v-37h-2m28 0v37h2v-37h-2m-40 2v37h2v-37h-2m48 3v37h2v-37h-2m-60 8v3.5 28l2 2v-33.5h-2m8 5v28.5h2v-28.5h-2m-4 14v14.5h2v-14.5h-2"/><path d="m2 0l-2 1v19h2v-20m2 0v1h2v-1h-2m4 0v15h2v-15h-2zm4 0v30h2v-30h-2m8 0v25h2v-25h-2m20 0v35h2v-35h-2m8 0v17h2v-17h-2m4 0v31h2v-31h-2m4 0v12h2v-12h-2m4 0v28h2v-28h-2m-56 3v37h2v-37h-2m28 0v37h2v-37h-2zm-8 1v37h2v-37h-2m-8 3v37h2v-37h-2m12 2v37h2v-37h-2m16 5v37h2v-37h-2m-36 3v37h2v-37h-2m28 0v37h2v-37h-2m12 2v37h2v-37h-2m-48 3v12 25h2v-37h-2m60 8v34h2v-34h-2zm-8 5v29h2v-29h-2m4 14v15h2v-15h-2"/><path d="m2 0l-2 1v3 29.5h2v-33.5m2 0v14.5h2v-14.5h-2m4 0v28.5h2v-28.5h-2m16 0v9.5h2v-9.5h-2zm8 0v6.5h2v-6.5h-2m4 0v11.5h2v-11.5h-2m12 0v30.5h2v-30.5h-2m8 0v25.5h2v-25.5h-2m-36 1.5v37h2v-37h-2zm40 3v37h2v-37h-2m-48 2v37h2v-37h-2m40 1v37h2v-37h-2m-12 4v37h2v-37h-2m-36 5v37h2v-37h-2m28 0v37h2v-37h-2m-8 1v37h2v-37h-2m-8 3v37h2v-37h-2m12 2v37h2v-37h-2m16 5v36.5h2v-36.5h-2m-36 3v33.5h2v-33.5h-2m28 0v33.5h2v-33.5h-2m12 2v31.5h2v-31.5h-2m-48 3v26.5l2 2v-28.5h-2m60 8v20.5h2v-20.5h-2m-8 5v15.5h2v-15.5h-2m4 14v1.5h2v-1.5h-2"/><path d="m4 0v25h2v-25h-2m8 0v30h2v-30h-2zm12 0v11h2v-11h-2m4 0v6h2v-6h-2m8 0v9h2v-9h-2m16 0v28h2v-28h-2m4 0v14h2v-14h-2m4 0v33h2v-33h-2m-20 1v37h2v-37h-2m-40 3v30 7h2v-37h-2m48 2v37h2v-37h-2zm-40 1v37h2v-37h-2m12 4v37h2v-37h-2zm8 5v37h2v-37h-2m28 0v37h2v-37h-2m-20 1v37h2v-37h-2m8 3v37h2v-37h-2m-12 2v37h2v-37h-2m-16 5v37h2v-37h-2m8 3v34h2v-34h-2m28 0v34h2v-34h-2m-40 2v32h2v-32h-2m48 3v29h2v-29h-2m-60 8v19l2 2v-21h-2m8 5v16h2v-16h-2zm-4 14v2h2v-2h-2"/></g></g><path d="m0 1v3l2-2" fill="#fff38e" fill-opacity=".552"/><g transform="matrix(.96593-.25882.25882.96593-7.078 9.74)" color="#000"><path d="m54.31 6.156l-49.28 13.219 11.656 43.47 47.31-12.688v-7.875l-9.688-36.12" transform="matrix(.96593.25882-.25882.96593 9.26-7.338)" fill-opacity=".164" fill="#421300"/><path fill="#eaeaea" d="m7 9h51v45h-51z"/><path fill="#47bdee" d="m11 13h43v37h-43z"/><path d="m53.999 15.01l-16.968 16.968-5.573-1.493-11.606 11.606-8.852-2.372v10.284h42.998v-34.993" fill="#e9d452"/><path d="m53.999 22.08l-16.968 13.536-5.573-1.191-11.606 9.259-8.852-1.892v8.204h42.998v-27.915" fill="#b0d221"/><path d="m53.999 34.08l-16.968 7.717-5.573-.679-11.606 5.279-8.852-1.079v4.677h42.998v-15.916" fill="#87b33f"/><circle cx="19.5" cy="31.542" r="5.458" fill="#ffdd58"/><path d="m50.593 18.08h-29l20 5.359z" fill="#ffcba5"/><path d="m50.593 18.08h-29l20 3z" fill="#eaeaea"/></g></svg>