<?xml version="1.0" encoding="UTF-8" standalone="no"?>
<!-- Created with Inkscape (http://www.inkscape.org/) -->

<svg
   xmlns:dc="http://purl.org/dc/elements/1.1/"
   xmlns:cc="http://creativecommons.org/ns#"
   xmlns:rdf="http://www.w3.org/1999/02/22-rdf-syntax-ns#"
   xmlns:svg="http://www.w3.org/2000/svg"
   xmlns="http://www.w3.org/2000/svg"
   xmlns:sodipodi="http://sodipodi.sourceforge.net/DTD/sodipodi-0.dtd"
   xmlns:inkscape="http://www.inkscape.org/namespaces/inkscape"
   version="1.0"
   width="22"
   height="22"
   id="svg2"
   inkscape:version="0.48.3.1 r9886"
   sodipodi:docname="create-link.svg">
  <sodipodi:namedview
     pagecolor="#ffffff"
     bordercolor="#666666"
     borderopacity="1"
     objecttolerance="10"
     gridtolerance="10"
     guidetolerance="10"
     inkscape:pageopacity="0"
     inkscape:pageshadow="2"
     inkscape:window-width="1920"
     inkscape:window-height="1023"
     id="namedview32"
     showgrid="true"
     inkscape:zoom="32.000001"
     inkscape:cx="14.709396"
     inkscape:cy="12.590183"
     inkscape:window-x="-10"
     inkscape:window-y="35"
     inkscape:window-maximized="1"
     inkscape:current-layer="svg2"
     inkscape:snap-bbox="true"
     inkscape:bbox-paths="true"
     inkscape:bbox-nodes="true"
     inkscape:snap-bbox-edge-midpoints="true"
     inkscape:snap-bbox-midpoints="true"
     inkscape:object-paths="true"
     inkscape:snap-intersection-paths="true"
     inkscape:object-nodes="true"
     inkscape:snap-smooth-nodes="true"
     inkscape:snap-midpoints="true"
     inkscape:snap-object-midpoints="true"
     inkscape:snap-center="true"
     fit-margin-top="0"
     fit-margin-left="0"
     fit-margin-right="0"
     fit-margin-bottom="0">
    <inkscape:grid
       type="xygrid"
       id="grid3218"
       empspacing="5"
       visible="true"
       enabled="true"
       snapvisiblegridlinesonly="true"
       originx="-11px"
       originy="18px" />
  </sodipodi:namedview>
  <metadata
     id="metadata11">
    <rdf:RDF>
      <cc:Work
         rdf:about="">
        <dc:format>image/svg+xml</dc:format>
        <dc:type
           rdf:resource="http://purl.org/dc/dcmitype/StillImage" />
        <dc:title />
      </cc:Work>
    </rdf:RDF>
  </metadata>
  <defs
     id="defs4" />
  <path
     id="path2996"
     d="m 11,3 c -4.4182787,10e-8 -7.9999995,3.5817217 -8,8 -2e-7,4.418277 3.5817213,8.000002 8,8 4.418277,1e-6 8,-3.581722 8,-8 0,-4.4182771 -3.581722,-8 -8,-8 z m 4.40625,2.53125 1.0625,1.0625 c -1.181455,1.1735785 -3.054241,3.059614 -4.21875,4.25 L 11.15625,9.75 c 1.19983,-1.1546012 3.072676,-3.041425 4.25,-4.21875 z m -4.21875,0.75 c 0.255619,0 0.491632,0.085381 0.6875,0.28125 L 12.25,6.9375 6.9375,12.25 6.5625,11.875 c -0.3917371,-0.391737 -0.3917371,-1.014513 0,-1.40625 L 10.46875,6.5625 C 10.664619,6.3666311 10.931881,6.2812503 11.1875,6.28125 z m 3.875,3.46875 0.375,0.375 c 0.391737,0.391737 0.391737,1.014513 0,1.40625 l -3.90625,3.90625 c -0.391737,0.391737 -1.014513,0.391737 -1.40625,0 L 9.75,15.0625 15.0625,9.75 z M 9.75,11.15625 10.84375,12.25 c -1.199831,1.154602 -3.0726757,3.041425 -4.25,4.21875 l -1.0625,-1.0625 c 1.1814553,-1.173578 3.0542418,-3.059614 4.21875,-4.25 z"
     style="color:#000000;fill:#434a54;fill-opacity:0.6745098;fill-rule:nonzero;stroke:none;stroke-width:2;marker:none;visibility:visible;display:inline;overflow:visible;enable-background:accumulate"
     inkscape:connector-curvature="0" />
</svg>
