<?xml version="1.0" encoding="UTF-8" standalone="no"?>
<!-- Created with Inkscape (http://www.inkscape.org/) -->

<svg
   xmlns:dc="http://purl.org/dc/elements/1.1/"
   xmlns:cc="http://creativecommons.org/ns#"
   xmlns:rdf="http://www.w3.org/1999/02/22-rdf-syntax-ns#"
   xmlns:svg="http://www.w3.org/2000/svg"
   xmlns="http://www.w3.org/2000/svg"
   xmlns:sodipodi="http://sodipodi.sourceforge.net/DTD/sodipodi-0.dtd"
   xmlns:inkscape="http://www.inkscape.org/namespaces/inkscape"
   width="22"
   height="22"
   id="svg27665"
   version="1.1"
   inkscape:version="0.48.3.1 r9886"
   sodipodi:docname="skype.svg">
  <sodipodi:namedview
     id="base"
     pagecolor="#ffffff"
     bordercolor="#666666"
     borderopacity="1.0"
     inkscape:pageopacity="0.0"
     inkscape:pageshadow="2"
     inkscape:zoom="31.678384"
     inkscape:cx="9.9130105"
     inkscape:cy="12.46122"
     inkscape:document-units="px"
     inkscape:current-layer="layer1"
     showgrid="true"
     inkscape:window-width="1920"
     inkscape:window-height="1033"
     inkscape:window-x="-10"
     inkscape:window-y="25"
     inkscape:window-maximized="1"
     inkscape:snap-bbox="true"
     inkscape:bbox-paths="true"
     inkscape:bbox-nodes="true"
     inkscape:snap-bbox-edge-midpoints="true"
     inkscape:snap-bbox-midpoints="true"
     inkscape:object-paths="true"
     inkscape:snap-intersection-paths="true"
     inkscape:object-nodes="true"
     inkscape:snap-smooth-nodes="true"
     inkscape:snap-midpoints="true"
     inkscape:snap-object-midpoints="true"
     inkscape:snap-center="true"
     inkscape:snap-global="true"
     showguides="false"
     inkscape:guide-bbox="true"
     fit-margin-top="0"
     fit-margin-left="0"
     fit-margin-right="0"
     fit-margin-bottom="0"
     inkscape:showpageshadow="false"
     showborder="true">
    <sodipodi:guide
       id="guide5860"
       position="2902.4207,-124.76944"
       orientation="0,1" />
    <sodipodi:guide
       id="guide5336"
       position="495.60896,-1689.0523"
       orientation="1,0" />
    <sodipodi:guide
       id="guide5338"
       position="2098.2108,-1188.4745"
       orientation="-0.018372295,-0.99983122" />
    <sodipodi:guide
       id="guide5340"
       position="-2218.4504,-1109.1541"
       orientation="-0.20785868,-0.97815887" />
    <sodipodi:guide
       id="guide5344"
       position="-2218.4504,-1109.1541"
       orientation="0,1" />
    <sodipodi:guide
       id="guide5346"
       position="847.06176,-1148.6765"
       orientation="0.0343789,-0.99940887" />
    <sodipodi:guide
       id="guide5348"
       position="2098.2108,-1188.4745"
       orientation="0.29680507,-0.95493809" />
    <sodipodi:guide
       id="guide5352"
       position="-2218.4525,-1109.1541"
       orientation="0,1" />
    <sodipodi:guide
       id="guide5356"
       position="117.21736,-1604.9328"
       orientation="-0.21375549,0.97688719" />
    <sodipodi:guide
       id="guide5358"
       position="2397.9002,-1095.3278"
       orientation="0.024955064,-0.99968857" />
    <sodipodi:guide
       id="guide5360"
       position="847.03626,-1577.3412"
       orientation="-0.15306023,-0.98821686" />
    <sodipodi:guide
       id="guide5362"
       position="-2333.206,-1084.7685"
       orientation="0.020091114,0.99979815" />
    <sodipodi:guide
       id="guide5364"
       position="-2333.2063,-1084.7685"
       orientation="0.023270079,0.99972922" />
    <sodipodi:guide
       id="guide5377"
       position="2398.0107,-1095.325"
       orientation="0.099774025,-0.99501012" />
    <sodipodi:guide
       id="guide3635"
       position="-2333.206,-1084.7685"
       orientation="0.087251949,0.99618628" />
    <sodipodi:guide
       id="guide4415"
       position="104.84696,-1280.766"
       orientation="1,0" />
    <sodipodi:guide
       id="guide4449"
       position="179.04966,-1382.4094"
       orientation="1,0" />
    <sodipodi:guide
       id="guide4451"
       position="400.27306,-1404.1277"
       orientation="1,0" />
    <sodipodi:guide
       id="guide4453"
       position="-2333.206,-1084.7685"
       orientation="0.14497558,0.98943523" />
    <sodipodi:guide
       orientation="0,1"
       position="2398.0107,-1095.325"
       id="guide5902" />
    <sodipodi:guide
       orientation="0.2076968,-0.97819325"
       position="2398.0124,-1095.325"
       id="guide5904" />
    <sodipodi:guide
       orientation="0.12373622,-0.99231515"
       position="2397.9002,-1095.3278"
       id="guide5906" />
    <sodipodi:guide
       orientation="0.11313726,-0.99357937"
       position="2398.0124,-1095.325"
       id="guide5908" />
    <sodipodi:guide
       orientation="1,0"
       position="864.18036,-1391.1951"
       id="guide5910" />
    <sodipodi:guide
       orientation="1,0"
       position="586.14106,-1398.0669"
       id="guide3414" />
    <sodipodi:guide
       orientation="1,0"
       position="792.71726,-1359.6811"
       id="guide3416" />
    <sodipodi:guide
       orientation="0.19843333,0.98011439"
       position="-2333.206,-1084.7685"
       id="guide4997" />
    <sodipodi:guide
       orientation="0.17159307,0.98516791"
       position="-2333.206,-1084.7685"
       id="guide4999" />
    <sodipodi:guide
       orientation="0.071855873,0.99741503"
       position="-2333.206,-1084.7685"
       id="guide5001" />
    <sodipodi:guide
       orientation="0.034911724,0.9993904"
       position="-2333.206,-1084.7685"
       id="guide5003" />
    <sodipodi:guide
       orientation="0.18141079,0.98340741"
       position="-2333.2082,-1084.7685"
       id="guide5009" />
    <sodipodi:guide
       orientation="0.17811625,0.98400945"
       position="-2333.206,-1084.7685"
       id="guide5011" />
    <sodipodi:guide
       orientation="1,0"
       position="133.46606,-1222.2666"
       id="guide5020" />
    <sodipodi:guide
       orientation="1,0"
       position="466.32316,-1215.4809"
       id="guide5022" />
    <sodipodi:guide
       orientation="1,0"
       position="234.89466,-1210.4809"
       id="guide5024" />
    <inkscape:grid
       type="xygrid"
       id="grid3098"
       empspacing="5"
       visible="true"
       enabled="true"
       snapvisiblegridlinesonly="true"
       originx="-14.999967px"
       originy="147.00004px" />
  </sodipodi:namedview>
  <defs
     id="defs27667" />
  <metadata
     id="metadata27670">
    <rdf:RDF>
      <cc:Work
         rdf:about="">
        <dc:format>image/svg+xml</dc:format>
        <dc:type
           rdf:resource="http://purl.org/dc/dcmitype/StillImage" />
        <dc:title />
      </cc:Work>
    </rdf:RDF>
  </metadata>
  <g
     transform="translate(4148.083,-1180.0099)"
     id="layer1"
     inkscape:groupmode="layer"
     inkscape:label="Camada 1">
    <path
       inkscape:connector-curvature="0"
       id="path3019"
       d="m -4141.583,1182.0099 c -2.4853,0 -4.5,2.0147 -4.5,4.5 0,1.1439 0.4532,2.1748 1.1563,2.9688 -0.095,0.4933 -0.1563,1.01 -0.1563,1.5312 0,4.4183 3.5817,8 8,8 0.5212,0 1.0379,-0.061 1.5313,-0.1562 0.7939,0.703 1.8248,1.1562 2.9687,1.1562 2.4853,0 4.5,-2.0147 4.5,-4.5 0,-1.1439 -0.4532,-2.1748 -1.1562,-2.9687 0.095,-0.4934 0.1562,-1.0101 0.1562,-1.5313 0,-4.4183 -3.5817,-8 -8,-8 -0.5212,0 -1.0379,0.061 -1.5312,0.1563 -0.794,-0.7031 -1.8249,-1.1563 -2.9688,-1.1563 z"
       style="color:#000000;fill:#434a55;fill-opacity:0.6745119;fill-rule:nonzero;stroke:none;stroke-width:1;marker:none;visibility:visible;display:inline;overflow:visible;enable-background:accumulate" />
    <path
       style="font-size:medium;font-style:normal;font-variant:normal;font-weight:normal;font-stretch:normal;text-indent:0;text-align:start;text-decoration:none;line-height:normal;letter-spacing:normal;word-spacing:normal;text-transform:none;direction:ltr;block-progression:tb;writing-mode:lr-tb;text-anchor:start;baseline-shift:baseline;color:#000000;fill:#d1d4d6;fill-opacity:0.74329164;fill-rule:nonzero;stroke:none;stroke-width:2;marker:none;visibility:visible;display:inline;overflow:visible;enable-background:accumulate;font-family:Sans;-inkscape-font-specification:Sans"
       d="M 5.0625,3 C 3.0780083,3.5182543 1.5182543,5.0780083 1,7.0625 L 1,9.78125 C 1.1930817,10.503993 1.5188641,11.164421 1.9375,11.75 1.925544,11.8315 1.9180492,11.918719 1.90625,12 L 2,12 2,14.84375 C 2.7266738,18.391635 5.5063897,21.218862 9.03125,22 L 12,22 l 0,0.125 c 0.09369,-0.01314 0.189101,-0.01783 0.28125,-0.03125 0.554303,0.395022 1.173311,0.708022 1.84375,0.90625 l 2.9375,0 C 18.949746,22.45524 20.455257,20.94972 21,19.0625 L 21,16.125 C 20.801792,15.454588 20.488833,14.835614 20.09375,14.28125 20.107173,14.189168 20.11186,14.093663 20.125,14 L 20,14 20,11.03125 C 19.218878,7.5063897 16.391676,4.7266738 12.84375,4 L 10,4 10,3.90625 C 9.918671,3.9180492 9.8315797,3.925544 9.75,3.9375 9.1644849,3.5188641 8.5040138,3.1930817 7.78125,3 L 5.0625,3 z M 6.5,4 C 7.6439,4 8.67475,4.45315 9.46875,5.15625 9.96205,5.06095 10.4788,5 11,5 c 4.4183,0 8,3.5817 8,8 0,0.5212 -0.06125,1.03785 -0.15625,1.53125 C 19.54675,15.32515 20,16.3561 20,17.5 20,19.9853 17.9853,22 15.5,22 14.3561,22 13.32515,21.54675 12.53125,20.84375 12.03785,20.93895 11.5212,21 11,21 6.5817,21 3,17.4183 3,13 3,12.4788 3.06125,11.96205 3.15625,11.46875 2.45315,10.67475 2,9.6439 2,8.5 2,6.0147 4.0147,4 6.5,4 z"
       transform="translate(-4148.083,1178.0099)"
       id="path3022"
       inkscape:connector-curvature="0" />
  </g>
</svg>
