<?xml version="1.0" encoding="UTF-8" standalone="no"?>
<!-- Created with Inkscape (http://www.inkscape.org/) -->

<svg
   xmlns:dc="http://purl.org/dc/elements/1.1/"
   xmlns:cc="http://creativecommons.org/ns#"
   xmlns:rdf="http://www.w3.org/1999/02/22-rdf-syntax-ns#"
   xmlns:svg="http://www.w3.org/2000/svg"
   xmlns="http://www.w3.org/2000/svg"
   xmlns:sodipodi="http://sodipodi.sourceforge.net/DTD/sodipodi-0.dtd"
   xmlns:inkscape="http://www.inkscape.org/namespaces/inkscape"
   sodipodi:docname="distributor-logo-opensuse.svg"
   inkscape:version="0.48.3.1 r9886"
   version="1.1"
   id="svg13094"
   height="22"
   width="22">
  <sodipodi:namedview
     id="base"
     pagecolor="#ffffff"
     bordercolor="#666666"
     borderopacity="1.0"
     inkscape:pageopacity="0.0"
     inkscape:pageshadow="2"
     inkscape:zoom="33.131501"
     inkscape:cx="9.8991071"
     inkscape:cy="9.8352085"
     inkscape:document-units="px"
     inkscape:current-layer="layer1"
     showgrid="true"
     inkscape:snap-bbox="true"
     inkscape:bbox-paths="true"
     inkscape:bbox-nodes="true"
     inkscape:snap-bbox-edge-midpoints="true"
     inkscape:snap-bbox-midpoints="true"
     inkscape:object-paths="true"
     inkscape:snap-intersection-paths="true"
     inkscape:object-nodes="true"
     inkscape:snap-smooth-nodes="true"
     inkscape:snap-midpoints="true"
     inkscape:snap-object-midpoints="true"
     inkscape:snap-center="true"
     showguides="false"
     inkscape:guide-bbox="true"
     inkscape:window-width="1920"
     inkscape:window-height="1033"
     inkscape:window-x="-10"
     inkscape:window-y="25"
     inkscape:window-maximized="1"
     inkscape:snap-global="false"
     fit-margin-top="0"
     fit-margin-left="0"
     fit-margin-right="0"
     fit-margin-bottom="0"
     showborder="true"
     inkscape:showpageshadow="false">
    <sodipodi:guide
       orientation="0,1"
       position="7904.3893,1688.6364"
       id="guide16149" />
    <sodipodi:guide
       orientation="0,1"
       position="7677.2464,1639.6277"
       id="guide16151" />
    <sodipodi:guide
       orientation="0,1"
       position="7742.9606,1664.132"
       id="guide16153" />
    <sodipodi:guide
       orientation="0,1"
       position="7736.5321,1583.9848"
       id="guide17725" />
    <sodipodi:guide
       orientation="1,0"
       position="8234.0303,1192.115"
       id="guide9456" />
    <sodipodi:guide
       orientation="0,1"
       position="8058.2804,1557.1639"
       id="guide9458" />
    <sodipodi:guide
       orientation="0,1"
       position="7829.5106,1502.2585"
       id="guide9468" />
    <sodipodi:guide
       orientation="0,1"
       position="7854.0304,1523.6285"
       id="guide9470" />
    <sodipodi:guide
       orientation="1,0"
       position="7722.0304,1237.629"
       id="guide11159" />
    <sodipodi:guide
       orientation="1,0"
       position="8035.0616,1501.6635"
       id="guide13980" />
    <sodipodi:guide
       id="guide3972"
       position="6181.0305,126.62899"
       orientation="0,1" />
    <sodipodi:guide
       id="guide3974"
       position="6361.0305,-1.3710498"
       orientation="1,0" />
    <sodipodi:guide
       id="guide3976"
       position="6055.0305,-236.37095"
       orientation="0,1" />
    <sodipodi:guide
       id="guide3978"
       position="6028.0305,-95.37105"
       orientation="1,0" />
    <sodipodi:guide
       id="guide4287"
       position="1377.8013,1369.629"
       orientation="1,0" />
    <sodipodi:guide
       id="guide4289"
       position="1377.8013,1369.629"
       orientation="0,1" />
    <inkscape:grid
       type="xygrid"
       id="grid3918"
       empspacing="5"
       visible="true"
       enabled="true"
       snapvisiblegridlinesonly="true"
       originx="0.00017297285px"
       originy="71.999982px" />
  </sodipodi:namedview>
  <defs
     id="defs13096" />
  <metadata
     id="metadata13099">
    <rdf:RDF>
      <cc:Work
         rdf:about="">
        <dc:format>image/svg+xml</dc:format>
        <dc:type
           rdf:resource="http://purl.org/dc/dcmitype/StillImage" />
        <dc:title />
      </cc:Work>
    </rdf:RDF>
  </metadata>
  <g
     inkscape:label="Camada 1"
     inkscape:groupmode="layer"
     id="layer1"
     transform="translate(9368.675,-1538.5613)">
    <path
       inkscape:connector-curvature="0"
       id="path3000"
       d="m -9357.7033,1540.5836 c -4.9672,0 -8.9807,4.013 -8.9807,8.9806 0,4.9676 4.0135,9.0061 8.9807,9.0061 4.9671,0 9.0061,-4.0385 9.0061,-9.0061 0,-4.9676 -4.039,-8.9806 -9.0061,-8.9806 z m 0.051,1.2501 c 4.2797,0 7.756,3.4511 7.756,7.7305 0,4.2797 -3.4768,7.756 -7.756,7.756 -2.3109,0 -4.3719,-0.9981 -5.7915,-2.6024 0.5836,-0.453 1.5526,-0.3666 2.7554,-0.2296 0.5763,0.065 1.1333,0.3675 1.8115,0.3827 1.8945,0.011 3.232,0.3457 4.4903,-0.2041 1.0029,-0.5646 2.327,-0.7224 2.5767,-1.8624 0.1872,-0.2729 0.275,-0.9933 0.3062,-1.2246 l -0.1785,0.2295 c -0.5521,0.3311 -2.1013,1.2755 -3.3933,1.3012 -2.582,0.3604 -4.6885,-2.1142 -5.0006,-2.2961 l -0.025,-0.051 c -0.081,-0.1926 -0.5611,-1.3405 -0.6634,-1.5818 2.2417,1.5837 3.311,2.7492 4.9751,2.7554 1.641,0.1459 3.6622,-0.9694 4.2097,-1.3522 0.1068,-0.073 0.1961,-0.1407 0.2295,-0.1531 l 0.025,-0.077 c -0.091,-0.5769 -0.6275,-3.4374 -1.2757,-4.1077 -0.1798,-0.1838 -0.7304,-0.8499 -1.0205,-1.0205 -2.3468,-1.3678 -7.8269,-1.6203 -8.0877,-1.6583 l -0.025,0.025 -0.025,0.025 -0.025,1.3011 c -0.1912,-0.063 -0.7836,-0.2773 -1.6328,-0.5102 1.1079,-1.371 2.7943,-2.5768 5.766,-2.5768 z m 2.041,4.1332 0.1276,0 c 1.3048,0.047 2.3152,1.1196 2.2707,2.4237 -0.024,0.6309 -0.2793,1.2022 -0.74,1.6328 -0.4619,0.4329 -1.0494,0.6839 -1.6838,0.6634 -1.3028,-0.048 -2.3386,-1.147 -2.2962,-2.4493 0.021,-0.6317 0.2764,-1.229 0.7399,-1.6583 0.4327,-0.4058 0.993,-0.6036 1.5818,-0.6123 z m -0.025,0.8929 c -0.3309,0.02 -0.674,0.1536 -0.9184,0.3827 -0.2787,0.2615 -0.4214,0.6114 -0.4337,0.995 -0.026,0.7926 0.5858,1.4505 1.3777,1.4798 0.3848,0.011 0.7395,-0.1219 1.0205,-0.3827 0.2801,-0.2628 0.4474,-0.6131 0.4592,-0.9951 0.026,-0.7937 -0.5857,-1.452 -1.3777,-1.4797 l -0.1276,0 z m 0.3828,0.5358 0.051,0 c 0.2929,0.011 0.5447,0.2421 0.5357,0.5357 -0.01,0.1414 -0.075,0.2855 -0.1785,0.3828 -0.104,0.097 -0.2404,0.1612 -0.3828,0.153 -0.2929,-0.011 -0.52,-0.268 -0.5102,-0.5612 0.01,-0.1419 0.05,-0.2605 0.153,-0.3572 0.091,-0.084 0.2093,-0.1449 0.3318,-0.1531 z"
       style="font-size:20.48839951px;color:#000000;fill:#434a55;fill-opacity:0.6745098;fill-rule:nonzero;stroke:none;stroke-width:2;marker:none;visibility:visible;display:inline;overflow:visible;enable-background:accumulate;font-family:TrebuchetMS-Bold" />
    <path
       style="font-size:20.48839951000000070px;font-style:normal;font-variant:normal;font-weight:normal;font-stretch:normal;text-indent:0;text-align:start;text-decoration:none;line-height:normal;letter-spacing:normal;word-spacing:normal;text-transform:none;direction:ltr;block-progression:tb;writing-mode:lr-tb;text-anchor:start;baseline-shift:baseline;color:#000000;fill:#d1d4d6;fill-opacity:0.74329164000000003;fill-rule:nonzero;stroke:none;stroke-width:2;marker:none;visibility:visible;display:inline;overflow:visible;enable-background:accumulate;font-family:TrebuchetMS-Bold;-inkscape-font-specification:Sans"
       d="M 10.96875 0.8125 C 5.35525 0.8125 0.8125 5.3861 0.8125 11 C 0.8125 16.6139 5.35115 21.21885 10.96875 21.21875 C 16.58635 21.21875 21.1875 16.6181 21.1875 11 C 21.1875 5.3819 16.58225 0.8125 10.96875 0.8125 z M 10.96875 2.03125 C 15.93585 2.03125 19.96875 6.0324 19.96875 11 C 19.96875 15.9676 15.93585 20 10.96875 20 C 6.00155 20 2 15.9676 2 11 C 2 6.0324 6.00155 2.03125 10.96875 2.03125 z M 11.03125 3.28125 C 8.05955 3.28125 6.3579 4.47275 5.25 5.84375 C 6.0992 6.07665 6.71505 6.28075 6.90625 6.34375 L 6.90625 5.0625 L 6.9375 5.03125 L 6.96875 5 C 7.22955 5.038 12.7157 5.28845 15.0625 6.65625 C 15.3526 6.82685 15.8827 7.5037 16.0625 7.6875 C 16.7107 8.3578 17.25275 11.20435 17.34375 11.78125 L 17.3125 11.875 C 17.2791 11.8874 17.20055 11.95825 17.09375 12.03125 C 16.54625 12.41405 14.516 13.5209 12.875 13.375 C 11.2109 13.3688 10.14795 12.2087 7.90625 10.625 C 8.00855 10.8663 8.4815 11.9949 8.5625 12.1875 L 8.59375 12.25 C 8.90585 12.4319 11.01175 14.9229 13.59375 14.5625 C 14.88575 14.5368 16.4479 13.5811 17 13.25 L 17.15625 13.03125 C 17.12505 13.26255 17.0622 13.9771 16.875 14.25 C 16.6253 15.39 15.28415 15.52915 14.28125 16.09375 C 13.02295 16.64355 11.707 16.3235 9.8125 16.3125 C 9.1343 16.2973 8.5763 16.0025 8 15.9375 C 6.7972 15.8005 5.80235 15.70325 5.21875 16.15625 C 6.63835 17.76055 8.72035 18.75 11.03125 18.75 C 15.31045 18.75 18.78125 15.2797 18.78125 11 C 18.78125 6.7206 15.31095 3.28125 11.03125 3.28125 z M 13.0625 7.40625 C 12.4737 7.41495 11.90145 7.62545 11.46875 8.03125 C 11.00525 8.46055 10.771 9.0558 10.75 9.6875 C 10.7076 10.9898 11.72845 12.077 13.03125 12.125 C 13.66565 12.1455 14.25685 11.90165 14.71875 11.46875 C 15.17945 11.03815 15.44475 10.47465 15.46875 9.84375 C 15.51325 8.53965 14.4923 7.45325 13.1875 7.40625 L 13.0625 7.40625 z M 13.03125 8.3125 L 13.15625 8.3125 C 13.94825 8.3402 14.55725 8.98755 14.53125 9.78125 C 14.51945 10.16325 14.37385 10.51845 14.09375 10.78125 C 13.81275 11.04205 13.4473 11.16725 13.0625 11.15625 C 12.2706 11.12695 11.6615 10.4801 11.6875 9.6875 C 11.6998 9.3039 11.8463 8.949 12.125 8.6875 C 12.3694 8.4584 12.70035 8.3325 13.03125 8.3125 z M 13.40625 8.84375 C 13.28375 8.85195 13.18475 8.916 13.09375 9 C 12.99075 9.0967 12.9475 9.20185 12.9375 9.34375 C 12.933437 9.4653207 12.997304 9.5620819 13.0625 9.65625 C 13.041757 9.623107 13.019413 9.60058 13 9.5625 C 13.029 9.5475 13.076 9.502 13.125 9.5 C 13.2748 9.51 13.34895 9.594 13.34375 9.75 C 13.34375 9.786 13.307362 9.810054 13.28125 9.84375 C 13.274722 9.852174 13.28925 9.8658 13.28125 9.875 C 13.333197 9.8952016 13.37892 9.90405 13.4375 9.90625 C 13.5799 9.91445 13.73975 9.847 13.84375 9.75 C 13.94725 9.6527 13.99 9.5164 14 9.375 C 14.009 9.0814 13.76165 8.85475 13.46875 8.84375 L 13.40625 8.84375 z "
       transform="translate(-9368.675,1538.5613)"
       id="path3061" />
  </g>
</svg>
