<?xml version="1.0" encoding="UTF-8" standalone="no"?>
<!-- Created with Inkscape (http://www.inkscape.org/) -->

<svg
   xmlns:dc="http://purl.org/dc/elements/1.1/"
   xmlns:cc="http://creativecommons.org/ns#"
   xmlns:rdf="http://www.w3.org/1999/02/22-rdf-syntax-ns#"
   xmlns:svg="http://www.w3.org/2000/svg"
   xmlns="http://www.w3.org/2000/svg"
   xmlns:sodipodi="http://sodipodi.sourceforge.net/DTD/sodipodi-0.dtd"
   xmlns:inkscape="http://www.inkscape.org/namespaces/inkscape"
   version="1.0"
   width="16"
   height="16"
   id="svg2"
   inkscape:version="0.48.3.1 r9886"
   sodipodi:docname="create-link.svg">
  <sodipodi:namedview
     pagecolor="#ffffff"
     bordercolor="#666666"
     borderopacity="1"
     objecttolerance="10"
     gridtolerance="10"
     guidetolerance="10"
     inkscape:pageopacity="0"
     inkscape:pageshadow="2"
     inkscape:window-width="1920"
     inkscape:window-height="1023"
     id="namedview32"
     showgrid="true"
     inkscape:zoom="32.000001"
     inkscape:cx="15.155227"
     inkscape:cy="8.5661615"
     inkscape:window-x="-10"
     inkscape:window-y="35"
     inkscape:window-maximized="1"
     inkscape:current-layer="svg2"
     inkscape:snap-bbox="true"
     inkscape:bbox-paths="true"
     inkscape:bbox-nodes="true"
     inkscape:snap-bbox-edge-midpoints="true"
     inkscape:snap-bbox-midpoints="true"
     inkscape:object-paths="true"
     inkscape:snap-intersection-paths="true"
     inkscape:object-nodes="true"
     inkscape:snap-smooth-nodes="true"
     inkscape:snap-midpoints="true"
     inkscape:snap-object-midpoints="true"
     inkscape:snap-center="true"
     fit-margin-top="0"
     fit-margin-left="0"
     fit-margin-right="0"
     fit-margin-bottom="0">
    <inkscape:grid
       type="xygrid"
       id="grid3218"
       empspacing="5"
       visible="true"
       enabled="true"
       snapvisiblegridlinesonly="true"
       originx="-11px"
       originy="18px" />
  </sodipodi:namedview>
  <metadata
     id="metadata11">
    <rdf:RDF>
      <cc:Work
         rdf:about="">
        <dc:format>image/svg+xml</dc:format>
        <dc:type
           rdf:resource="http://purl.org/dc/dcmitype/StillImage" />
        <dc:title />
      </cc:Work>
    </rdf:RDF>
  </metadata>
  <defs
     id="defs4" />
  <path
     inkscape:connector-curvature="0"
     style="fill:#ffffff;fill-opacity:1;fill-rule:nonzero;stroke:none"
     d="m -11.968749,5.8125006 c -0.766549,0 -1.40346,0.5739639 -1.510742,1.3124998 l 0.888671,0 c 0.08704,-0.2589138 0.328038,-0.4374999 0.622071,-0.4375 l 3.9374992,0 c 0.2940329,2e-7 0.5350269,0.1785862 0.6220699,0.4375001 l 0.8886719,-10e-8 C -6.62779,6.3864645 -7.2647009,5.8125006 -8.0312498,5.8125006 l -3.9374992,0 z m -4.361328,1.7499999 c -0.0098,0.144201 -0.01367,0.2908129 -0.01367,0.4374994 0,0.1466875 0.0039,0.2932987 0.01367,0.4375002 l 4.908202,0 a 0.43754368,0.43754368 0 1 0 0,-0.8749998 l -4.908202,2e-7 z m 7.7109367,-10e-8 a 0.43798033,0.43798033 0 1 0 0.041016,0.8749998 l 4.9082013,-1e-7 c 0.0098,-0.1442009 0.01367,-0.2908128 0.01367,-0.4374995 -1e-6,-0.1466873 -0.0039,-0.2932987 -0.01367,-0.4375002 l -4.9082023,0 a 0.43754368,0.43754368 0 0 0 -0.041015,0 z m -4.8603507,1.3124998 c 0.107282,0.7385355 0.744192,1.3125008 1.510741,1.3125008 l 3.9375004,-10e-7 c 0.7665487,0 1.4034596,-0.5739637 1.5107416,-1.3124998 l -0.8886719,-2e-7 c -0.08704,0.2589142 -0.328038,0.4374987 -0.6220702,0.4374999 l -3.9374989,10e-8 c -0.294033,2e-7 -0.535027,-0.1785857 -0.622071,-0.4375 l -0.888671,2e-7 z"
     id="path3970" />
  <path
     sodipodi:nodetypes="ssssscccccccccssccccccsssscssssccccccccccccccc"
     inkscape:connector-curvature="0"
     id="path3937"
     d="m 8.0000001,1 c -3.865993,1e-7 -7.00000018,3.1340074 -6.9999996,6.9999997 C 1.0000004,11.865993 4.1340077,15 8.0000001,14.999999 11.865993,15 15,11.865993 15,7.9999997 15,4.1340074 11.865993,1 8.0000001,1 z m 3.6982229,2.2294733 1.072304,1.0723034 -1.40625,1.4062501 -0.71875,0.6875 -1.4062502,1.4374999 -1.0723034,-1.0723033 1.4375,-1.4062501 0.6874996,-0.7187499 z m -3.1562496,0.0625 c 0.2556191,0 0.4916314,0.085381 0.6875,0.28125 l 0.375,0.375 -0.7187499,0.6875 0.0098,0.0098 -4.2500001,4.2500001 -0.0098,-0.0098 -0.6875001,0.71875 -0.375,-0.375 c -0.3917371,-0.391737 -0.3917371,-1.0145129 0,-1.40625 L 7.8232234,3.5732234 c 0.1958687,-0.1958687 0.4631309,-0.28125 0.71875,-0.28125 z m 3.5098036,3.1035533 0.375,0.3750001 c 0.391737,0.3917372 0.391737,1.0145129 0,1.4062501 L 8.1767768,12.426777 c -0.3917371,0.391737 -1.0145129,0.391737 -1.4062501,0 l -0.3750001,-0.375 0.71875,-0.6875 -0.0098,-0.0098 4.2499997,-4.2499997 0.0098,0.0098 z m -5.2910536,1.7714467 1.0723034,1.0723034 -1.4375,1.4062502 -0.6875002,0.71875 -1.4062501,1.40625 -1.0723034,-1.072303 1.4062502,-1.40625 0.71875,-0.6875006 z"
     style="color:#000000;fill:#434a54;fill-opacity:0.6745098;fill-rule:nonzero;stroke:none;stroke-width:2;marker:none;visibility:visible;display:inline;overflow:visible;enable-background:accumulate" />
</svg>
