<?xml version="1.0" encoding="UTF-8" standalone="no"?>
<!-- Created with Inkscape (http://www.inkscape.org/) -->

<svg
   xmlns:dc="http://purl.org/dc/elements/1.1/"
   xmlns:cc="http://creativecommons.org/ns#"
   xmlns:rdf="http://www.w3.org/1999/02/22-rdf-syntax-ns#"
   xmlns:svg="http://www.w3.org/2000/svg"
   xmlns="http://www.w3.org/2000/svg"
   xmlns:sodipodi="http://sodipodi.sourceforge.net/DTD/sodipodi-0.dtd"
   xmlns:inkscape="http://www.inkscape.org/namespaces/inkscape"
   width="22"
   height="22"
   id="svg13094"
   version="1.1"
   inkscape:version="0.48.3.1 r9886"
   sodipodi:docname="tools-check-spelling.svg">
  <sodipodi:namedview
     id="base"
     pagecolor="#ffffff"
     bordercolor="#666666"
     borderopacity="1.0"
     inkscape:pageopacity="0.0"
     inkscape:pageshadow="2"
     inkscape:zoom="32"
     inkscape:cx="14.844222"
     inkscape:cy="12.469993"
     inkscape:document-units="px"
     inkscape:current-layer="layer1"
     showgrid="true"
     inkscape:snap-bbox="true"
     inkscape:bbox-paths="true"
     inkscape:bbox-nodes="true"
     inkscape:snap-bbox-edge-midpoints="true"
     inkscape:snap-bbox-midpoints="true"
     inkscape:object-paths="true"
     inkscape:snap-intersection-paths="true"
     inkscape:object-nodes="true"
     inkscape:snap-smooth-nodes="true"
     inkscape:snap-midpoints="true"
     inkscape:snap-object-midpoints="true"
     inkscape:snap-center="true"
     showguides="false"
     inkscape:guide-bbox="true"
     inkscape:window-width="1920"
     inkscape:window-height="1023"
     inkscape:window-x="-10"
     inkscape:window-y="35"
     inkscape:window-maximized="1"
     inkscape:snap-global="true"
     fit-margin-top="0"
     fit-margin-left="0"
     fit-margin-right="0"
     fit-margin-bottom="0"
     showborder="true"
     inkscape:showpageshadow="false">
    <sodipodi:guide
       orientation="0,1"
       position="-25.000005,930.61286"
       id="guide4700" />
    <sodipodi:guide
       orientation="0,1"
       position="576.71887,328.89388"
       id="guide4702" />
    <sodipodi:guide
       orientation="1,0"
       position="576.71899,489.70395"
       id="guide4706" />
    <sodipodi:guide
       orientation="1,0"
       position="54.999996,930.61286"
       id="guide4708" />
    <sodipodi:guide
       orientation="0,1"
       position="-25.000005,850.61296"
       id="guide4710" />
    <sodipodi:guide
       orientation="0,1"
       position="536.71887,408.8938"
       id="guide4712" />
    <sodipodi:guide
       orientation="1,0"
       position="496.71887,408.8938"
       id="guide4714" />
    <inkscape:grid
       type="xygrid"
       id="grid3216"
       empspacing="5"
       visible="true"
       enabled="true"
       snapvisiblegridlinesonly="true"
       originx="-24.999951px"
       originy="-219.00005px" />
    <sodipodi:guide
       orientation="-0.70710664,0.70710692"
       position="4.0000502,-246.00005"
       id="guide3847" />
    <sodipodi:guide
       orientation="0.70710594,0.70710762"
       position="5.0000502,-245.00005"
       id="guide3849" />
    <sodipodi:guide
       orientation="-0.70710681,0.70710676"
       position="7.0000502,-212.00005"
       id="guide3851" />
  </sodipodi:namedview>
  <defs
     id="defs13096" />
  <metadata
     id="metadata13099">
    <rdf:RDF>
      <cc:Work
         rdf:about="">
        <dc:format>image/svg+xml</dc:format>
        <dc:type
           rdf:resource="http://purl.org/dc/dcmitype/StillImage" />
        <dc:title />
      </cc:Work>
    </rdf:RDF>
  </metadata>
  <g
     transform="translate(9379.308,-4837.1988)"
     id="layer1"
     inkscape:groupmode="layer"
     inkscape:label="Camada 1">
    <path
       sodipodi:nodetypes="ccccccc"
       inkscape:connector-curvature="0"
       id="path3842"
       d="m -9360.308,4854.1988 -2,-2 -2,2 -2,-2 -2,2 -2,-2 -2,2 -2,-2 -2,2"
       style="color:#000000;fill:none;stroke:#434a55;stroke-width:1.20000005;stroke-linecap:square;stroke-miterlimit:4;stroke-opacity:0.6745098;stroke-dasharray:none;marker:none;visibility:visible;display:inline;overflow:visible;enable-background:accumulate" />
    <path
       style="color:#000000;fill:none;stroke:#d1d4d5;stroke-width:1.20000005;stroke-linecap:square;stroke-miterlimit:4;stroke-opacity:0.74509804;stroke-dasharray:none;marker:none;visibility:visible;display:inline;overflow:visible;enable-background:accumulate"
       d="m -9360.308,4855.9488 -2,-2 -2,2 -2,-2 -2,2 -2,-2 -2,2 -2,-2 -2,2"
       id="path3029"
       inkscape:connector-curvature="0"
       sodipodi:nodetypes="ccccccc" />
    <path
       style="color:#000000;fill:#434a55;fill-opacity:0.6745098;fill-rule:nonzero;stroke:none;stroke-width:1.20000005;marker:none;visibility:visible;display:inline;overflow:visible;enable-background:accumulate"
       d="m -9375.308,4842.1988 0,8 2,0 0,-2 3,0 0,2 2,0 0,-8 -2,-2 -3,0 z m 8,-2 0,10 2,0 3,0 2,-2 0,-3 -2,-2 -3,0 0,-3 z m -6,3 1,-1 1,0 1,1 0,3 -3,0 z m 8,2 2,0 1,1 0,1 -1,1 -2,0 z"
       id="path3008"
       inkscape:connector-curvature="0"
       sodipodi:nodetypes="ccccccccccccccccccccccccccccccccccc" />
    <path
       style="font-size:medium;font-style:normal;font-variant:normal;font-weight:normal;font-stretch:normal;text-indent:0;text-align:start;text-decoration:none;line-height:normal;letter-spacing:normal;word-spacing:normal;text-transform:none;direction:ltr;block-progression:tb;writing-mode:lr-tb;text-anchor:start;baseline-shift:baseline;color:#000000;fill:#d1d4d6;fill-opacity:0.74329164;fill-rule:nonzero;stroke:none;stroke-width:2;marker:none;visibility:visible;display:inline;overflow:visible;enable-background:accumulate;font-family:Sans;-inkscape-font-specification:Sans"
       d="m -9373.7143,4839.1988 -0.2812,0.3125 -2,2 -0.3125,0.2812 0,0.4063 0,8 0,1 1,0 2,0 1,0 0,-1 0,-1 1,0 0,1 0,1 1,0 2,0 1,0 2,0 3,0 0.4062,0 0.3125,-0.2813 2,-2 0.2813,-0.2812 0,-0.4375 0,-3 0,-0.4063 -0.2813,-0.2812 -2,-2 -0.3125,-0.3125 -0.4062,0 -2,0 0,-2 0,-1 -1,0 -2,0 -1,0 0,1 0,0.5937 -1.2813,-1.2812 -0.3125,-0.3125 -0.4062,0 -3,0 -0.4063,0 z m 0.4063,1 3,0 2,2 0,8 -2,0 0,-2 -3,0 0,2 -2,0 0,-8 2,-2 z m 6,0 2,0 0,3 3,0 2,2 0,3 -2,2 -3,0 -2,0 0,-10 z m -5,2 -1,1 0,3 3,0 0,-3 -1,-1 -1,0 z m 0.4375,1 0.1562,0 0.4063,0.4062 0,1.5938 -1,0 0,-1.5625 0.4375,-0.4375 z m 6.5625,2 0,3 2,0 1,-1 0,-1 -1,-1 -2,0 z m 1,1 0.5937,0 0.4063,0.4062 0,0.2188 -0.375,0.375 -0.625,0 0,-1 z"
       id="path3816"
       inkscape:connector-curvature="0" />
  </g>
</svg>
