<svg xmlns="http://www.w3.org/2000/svg" viewBox="0 0 64 64"><g color="#000"><path d="m0 4v30 28l2 2h30 30l2-2v-28-30h-32-32" fill="#aeb4c3"/><path d="m2 0l-2 1v3h19.563 19.563 24.875v-3l-2-1h-22.875-19.563-17.563" fill="#e7ecf0"/></g><path d="m64 6l-2-2 2-1z" fill="#ccd1db"/><path d="m0 3v3l2-2" fill="#f2f5f7"/><g color="#000"><path d="M10.624497 17.00278A1.999922 1.999922 0 0 0 9.562145 17.5652L7.562 19.565A1.999922 1.999922 0 0 0 7 21.00222v9.686a1.999922 1.999922 0 0 0 0 .312456V37h3.999v-3.999h5.999v3.999h3.999v-15.998A1.999922 1.999922 0 0 0 20.435634 19.564922L18.436 17.565a1.999922 1.999922 0 0 0 -1.4373 -.562422h-5.999a1.999922 1.999922 0 0 0 -.187474 0 1.999922 1.999922 0 0 0 -.187474 0m12.373 0v17.997A1.999922 1.999922 0 0 0 24.685044 37h8.686a1.999922 1.999922 0 0 0 1.062353 -.562422l2-2a1.999922 1.999922 0 0 0 .562422 -1.437301v-5.999a1.999922 1.999922 0 0 0 -.562422 -1.437302l-2-2a1.999922 1.999922 0 0 0 -1.4373 -.562422h-5.999v-5.999h-3.999m-11.123 3.999h4.249l.875.875v7.124h-5.999v-7.124l.875-.875m30.745728 1.999722A1.999922 1.999922 0 0 0 41.5577 23.564367l-2 2a1.999922 1.999922 0 0 0 -.562421 1.437302v5.999a1.999922 1.999922 0 0 0 .562421 1.437301L41.558 36.438A1.999922 1.999922 0 0 0 42.620052 37h8.374v-3.999h-7.124l-.875-.875v-4.249l.875-.875h7.124v-3.999h-7.999a1.999922 1.999922 0 0 0 -.187474 0 1.999922 1.999922 0 0 0 -.187474 0m-15.623 3.999h5.124l.875.875v4.249l-.875.875h-5.124v-5.999" fill-opacity=".744" fill="#00122b"/><g transform="translate(0-1)"><g fill="none" stroke-linejoin="round" stroke-width="4"><path d="m58.03 28.875l-21.03 21.06-9.5-9.531-4.094 4.094 11.563 11.531 2.031 2.063 2.031-2.063 23.09-23.06-4.094-4.094z" stroke-opacity=".073" stroke="#162f4d"/><path d="m57.03 27.875l-21.03 21.06-9.5-9.531-4.094 4.094 11.563 11.531 2.031 2.063 2.031-2.063 23.09-23.06-4.094-4.094z" stroke="#e4eaee"/></g><path d="m57.03 27.875l-21.03 21.06-9.5-9.531-4.094 4.094 11.563 11.531 2.031 2.063 2.031-2.063 23.09-23.06-4.094-4.094" fill="#63b01a"/></g></g></svg>