<?xml version="1.0" encoding="UTF-8" standalone="no"?>
<!-- Created with Inkscape (http://www.inkscape.org/) -->

<svg
   xmlns:dc="http://purl.org/dc/elements/1.1/"
   xmlns:cc="http://creativecommons.org/ns#"
   xmlns:rdf="http://www.w3.org/1999/02/22-rdf-syntax-ns#"
   xmlns:svg="http://www.w3.org/2000/svg"
   xmlns="http://www.w3.org/2000/svg"
   xmlns:sodipodi="http://sodipodi.sourceforge.net/DTD/sodipodi-0.dtd"
   xmlns:inkscape="http://www.inkscape.org/namespaces/inkscape"
   width="64"
   height="64"
   id="svg13094"
   version="1.1"
   inkscape:version="0.91+devel r"
   sodipodi:docname="drive-harddisk-ieee1394.svg">
  <sodipodi:namedview
     id="base"
     pagecolor="#ffffff"
     bordercolor="#666666"
     borderopacity="1.0"
     inkscape:pageopacity="0"
     inkscape:pageshadow="2"
     inkscape:zoom="8.0000004"
     inkscape:cx="42.406511"
     inkscape:cy="32.068685"
     inkscape:document-units="px"
     inkscape:current-layer="svg13094"
     showgrid="true"
     inkscape:snap-bbox="true"
     inkscape:bbox-paths="true"
     inkscape:bbox-nodes="true"
     inkscape:snap-bbox-edge-midpoints="true"
     inkscape:snap-bbox-midpoints="true"
     inkscape:object-paths="true"
     inkscape:snap-intersection-paths="true"
     inkscape:object-nodes="true"
     inkscape:snap-smooth-nodes="true"
     inkscape:snap-midpoints="true"
     inkscape:snap-object-midpoints="true"
     inkscape:snap-center="true"
     showguides="true"
     inkscape:guide-bbox="true"
     inkscape:window-width="1920"
     inkscape:window-height="1023"
     inkscape:window-x="-10"
     inkscape:window-y="35"
     inkscape:window-maximized="1"
     inkscape:snap-global="true"
     fit-margin-top="0"
     fit-margin-left="0"
     fit-margin-right="0"
     fit-margin-bottom="0"
     showborder="true"
     inkscape:showpageshadow="false"
     inkscape:snap-page="true">
    <inkscape:grid
       type="xygrid"
       id="grid3075"
       empspacing="5"
       visible="true"
       enabled="true"
       snapvisiblegridlinesonly="true"
       originx="1.6362304e-08px"
       originy="18px" />
  </sodipodi:namedview>
  <defs
     id="defs13096" />
  <metadata
     id="metadata13099">
    <rdf:RDF>
      <cc:Work
         rdf:about="">
        <dc:format>image/svg+xml</dc:format>
        <dc:type
           rdf:resource="http://purl.org/dc/dcmitype/StillImage" />
        <dc:title></dc:title>
      </cc:Work>
    </rdf:RDF>
  </metadata>
  <path
     id="path3989"
     d="M 0,5.90625 0,57.5 0.09375,57.59375 C 0.0402232,57.753417 0,57.92673 0,58.09375 l 0,2.8125 C 0,62.611986 2.899,64 6.5,64 l 51,0 c 3.601,0 6.5,-1.388014 6.5,-3.09375 l 0,-2.8125 c 0,-0.16702 -0.04022,-0.340333 -0.09375,-0.5 L 64,57.5 64,5.90625 l -64,0 z"
     style="color:#000000;fill:#43556a;fill-opacity:1;fill-rule:nonzero;stroke:none;stroke-width:2.28571415;marker:none;visibility:visible;display:inline;overflow:visible;enable-background:accumulate"
     inkscape:connector-curvature="0" />
  <path
     style="fill:#1f0700;fill-opacity:0.06978802;fill-rule:nonzero"
     d="M 6.5 0 C 4.5972927 3.128656e-16 2.9053782 0.38675065 1.71875 1 L 32 1 L 62.28125 1 C 61.094622 0.38675065 59.402707 0 57.5 0 L 32 0 L 6.5 0 z "
     id="path4444" />
  <g
     id="g3043"
     inkscape:export-filename="folder.png"
     inkscape:export-xdpi="90"
     inkscape:export-ydpi="90"
     transform="translate(-0.62500009,0.082283)" />
  <g
     id="scalable"
     transform="matrix(1.0385892,0,0,1.0385892,1214.7222,1878.8121)"
     inkscape:label="#g3701"
     style="fill:#ffffff" />
  <path
     inkscape:connector-curvature="0"
     id="path4019"
     d="m 6.5,0 51,0 C 61.101,0 64,1.3732106 64,3.0789476 l 0,2.842105 C 64,7.6267895 61.101,9 57.5,9 L 6.5,9 C 2.899,9 1.6362304e-8,7.6267895 1.6362304e-8,5.9210526 l 0,-2.842105 C 1.6362304e-8,1.3732106 2.899,0 6.5,0 z"
     style="color:#000000;fill:#94a7bc;fill-opacity:1;fill-rule:nonzero;stroke:none;stroke-width:0.62299293;marker:none;visibility:visible;display:inline;overflow:visible;enable-background:accumulate" />
  <path
     inkscape:connector-curvature="0"
     id="path3919"
     d="m 7,2.3684211 50,0 c 1.108,0 2,0.4225263 2,0.9473684 l 0,2.368421 c 0,0.5248421 -0.892,0.9473684 -2,0.9473684 l -50,0 c -1.108,0 -2,-0.4225263 -2,-0.9473684 L 5,3.3157895 C 5,2.7909474 5.892,2.3684211 7,2.3684211 z"
     style="color:#000000;fill:#43556a;fill-opacity:1;fill-rule:nonzero;stroke:none;stroke-width:2.28571415;marker:none;visibility:visible;display:inline;overflow:visible;enable-background:accumulate;opacity:1;stroke-linecap:butt;stroke-linejoin:miter;stroke-miterlimit:4;stroke-dasharray:none;stroke-dashoffset:0;stroke-opacity:1" />
  <path
     style="color:#000000;display:inline;overflow:visible;visibility:visible;fill:#ffcc00;fill-opacity:1;fill-rule:nonzero;stroke:none;stroke-width:0.76123381;marker:none;enable-background:accumulate"
     d="M 23 5 L 22 6 L 22 6.6308594 L 42 6.6308594 L 42 6 L 41 5 L 23 5 z "
     id="path4321" />
  <rect
     ry="0"
     rx="0"
     y="9"
     x="52"
     height="55"
     width="2"
     id="rect3950"
     style="color:#000000;fill:#162f4d;fill-opacity:0.35241503;fill-rule:nonzero;stroke:none;stroke-width:0.62299293;marker:none;visibility:visible;display:inline;overflow:visible;enable-background:accumulate" />
  <rect
     ry="0"
     rx="0"
     y="9"
     x="10"
     height="55"
     width="2"
     id="rect3985"
     style="color:#000000;fill:#779dc9;fill-opacity:0.23076923;fill-rule:nonzero;stroke:none;stroke-width:0.62299293;marker:none;visibility:visible;display:inline;overflow:visible;enable-background:accumulate" />
  <path
     inkscape:connector-curvature="0"
     id="path3078"
     d="m 43.05501,16.784166 -7.347741,7.314342 5.94499,5.978389 L 49,22.795954 43.05501,16.784166 z M 21.612967,17.218351 15,23.931514 l 2.404715,2.337917 6.579568,-6.713163 -2.371316,-2.337917 z m 4.341846,4.24165 -6.579567,6.746562 2.371316,2.337918 6.612966,-6.746562 -2.404715,-2.337918 z m 5.944991,5.510806 c -3.882385,0 -7.080551,3.124976 -7.080551,6.946955 0,3.821979 3.198166,6.980353 7.080551,6.980353 3.882383,0 7.047151,-3.158374 7.047151,-6.980353 0,-3.821979 -3.164768,-6.946955 -7.047151,-6.946955 z m 0,3.406679 c 2.015452,0 3.607072,1.556181 3.607072,3.540276 0,1.984094 -1.59162,3.573673 -3.607072,3.573673 -2.015453,0 -3.640472,-1.589579 -3.640472,-3.573673 0,-1.984095 1.625019,-3.540276 3.640472,-3.540276 z m -4.84283,13.292731 0,3.339882 9.418468,0 0,-3.339882 -9.418468,0 z m 0,6.111985 0,3.339882 9.418468,0 0,-3.339882 -9.418468,0 z"
     style="color:#000000;fill:#b6cfed;fill-opacity:0.60107332;fill-rule:nonzero;stroke:none;stroke-width:0.62299293;marker:none;visibility:visible;display:inline;overflow:visible;enable-background:accumulate;opacity:1;stroke-linecap:butt;stroke-linejoin:miter;stroke-miterlimit:4;stroke-dasharray:none;stroke-dashoffset:0;stroke-opacity:1" />
</svg>
