<?xml version="1.0" encoding="UTF-8" standalone="no"?>
<!-- Created with Inkscape (http://www.inkscape.org/) -->
<svg xmlns:dc="http://purl.org/dc/elements/1.1/" xmlns:cc="http://creativecommons.org/ns#" xmlns:rdf="http://www.w3.org/1999/02/22-rdf-syntax-ns#" xmlns:svg="http://www.w3.org/2000/svg" xmlns="http://www.w3.org/2000/svg" xmlns:sodipodi="http://sodipodi.sourceforge.net/DTD/sodipodi-0.dtd" xmlns:inkscape="http://www.inkscape.org/namespaces/inkscape" width="18" height="18" id="svg27665" version="1.1" inkscape:version="0.48.4 r9939" sodipodi:docname="audio-volume-low-panel.svg">
  <defs id="defs27667"/>
  <sodipodi:namedview id="base" pagecolor="#cbcdd6" bordercolor="#666666" borderopacity="1.0" inkscape:pageopacity="1" inkscape:pageshadow="2" inkscape:zoom="32.000002" inkscape:cx="11.173117" inkscape:cy="6.309818" inkscape:document-units="px" inkscape:current-layer="layer1" showgrid="true" inkscape:window-width="1920" inkscape:window-height="1016" inkscape:window-x="-5" inkscape:window-y="27" inkscape:window-maximized="1" inkscape:snap-bbox="true" inkscape:bbox-paths="true" inkscape:bbox-nodes="true" inkscape:snap-bbox-edge-midpoints="true" inkscape:snap-bbox-midpoints="true" inkscape:object-paths="true" inkscape:snap-intersection-paths="true" inkscape:object-nodes="true" inkscape:snap-smooth-nodes="true" inkscape:snap-midpoints="true" inkscape:snap-object-midpoints="true" inkscape:snap-center="true" inkscape:snap-global="true" showguides="true" inkscape:guide-bbox="true" fit-margin-top="0" fit-margin-left="0" fit-margin-right="0" fit-margin-bottom="0" inkscape:showpageshadow="false">
    <inkscape:grid type="xygrid" id="grid3070" empspacing="5" visible="true" enabled="true" snapvisiblegridlinesonly="true" originx="-47.999653px" originy="-0.00031276823px"/>
  </sodipodi:namedview>
  <metadata id="metadata27670">
    <rdf:RDF>
      <cc:Work rdf:about="">
        <dc:format>image/svg+xml</dc:format>
        <dc:type rdf:resource="http://purl.org/dc/dcmitype/StillImage"/>
        <dc:title/>
      </cc:Work>
    </rdf:RDF>
  </metadata>
  <g inkscape:label="Camada 1" inkscape:groupmode="layer" id="layer1" transform="translate(3316.4171,-2100.7186)">
    <path style="font-size:medium;font-style:normal;font-variant:normal;font-weight:normal;font-stretch:normal;text-indent:0;text-align:start;text-decoration:none;line-height:normal;letter-spacing:normal;word-spacing:normal;text-transform:none;direction:ltr;block-progression:tb;writing-mode:lr-tb;text-anchor:start;baseline-shift:baseline;color:#000000;fill:#d1d4d6;fill-opacity:0.74329164;fill-rule:nonzero;stroke:none;stroke-width:2;marker:none;visibility:visible;display:inline;overflow:visible;enable-background:accumulate;font-family:Sans;-inkscape-font-specification:Sans" d="M 8.125 0 L 7.84375 0.28125 L 7.5625 0.5625 L 5.9375 1.84375 L 2.5 2.8125 L 1.75 3.25 L 1 3.4375 L 1 4.21875 L 1 5 L 1 11 L 1 11.78125 L 1 12.5625 L 1.75 12.75 L 2.5 13.1875 L 5.9375 14.15625 L 7.5625 15.4375 L 7.84375 15.71875 L 8.125 16 L 8.5625 16 L 9 16 L 12 16 L 13 16 L 14 16 L 14 15 L 14 14 L 14 2 L 14 1 L 14 0 L 13 0 L 12 0 L 9 0 L 8.5625 0 L 8.125 0 z M 8.5625 1 L 9 1 L 12 1 L 13 1 L 13 2 L 13 14 L 13 15 L 12 15 L 9 15 L 8.5625 15 L 8.28125 14.71875 L 6.46875 12.90625 L 2.75 11.96875 L 2 11.78125 L 2 11 L 2 5 L 2 4.21875 L 2.75 4.03125 L 6.46875 3.09375 L 8.28125 1.28125 L 8.5625 1 z M 7 5.03125 L 6 5.28125 L 6 6.375 L 6 9.625 L 6 10.71875 L 7 10.96875 L 7 9.78125 L 7 6.21875 L 7 5.03125 z " transform="translate(-3315.4171,2101.7186)" id="path2991"/>
    <path style="font-size:medium;font-style:normal;font-variant:normal;font-weight:normal;font-stretch:normal;text-indent:0;text-align:start;text-decoration:none;line-height:normal;letter-spacing:normal;word-spacing:normal;text-transform:none;direction:ltr;block-progression:tb;writing-mode:lr-tb;text-anchor:start;baseline-shift:baseline;color:#000000;fill:#434a54;fill-opacity:0.6745098;stroke:none;stroke-width:2;marker:none;visibility:visible;display:inline;overflow:visible;enable-background:accumulate;font-family:Sans;-inkscape-font-specification:Sans" d="M 8.5625 1 L 8.28125 1.28125 L 6.46875 3.09375 L 2.75 4.03125 L 2 4.21875 L 2 5 L 2 11 L 2 11.78125 L 2.75 11.96875 L 6.46875 12.90625 L 8.28125 14.71875 L 8.5625 15 L 9 15 L 12 15 L 13 15 L 13 14 L 13 2 L 13 1 L 12 1 L 9 1 L 8.5625 1 z M 9.40625 3 L 11 3 L 11 13 L 9.40625 13 L 7.6875 11.28125 L 7.5 11.09375 L 7.21875 11.03125 L 6 10.71875 L 6 5.28125 L 7.21875 4.96875 L 7.5 4.90625 L 7.6875 4.71875 L 9.40625 3 z " transform="translate(-3315.4171,2101.7186)" id="path3000"/>
  </g>
</svg>
