<?xml version="1.0" encoding="UTF-8" standalone="no"?>
<!-- Created with Inkscape (http://www.inkscape.org/) -->

<svg
   xmlns:dc="http://purl.org/dc/elements/1.1/"
   xmlns:cc="http://creativecommons.org/ns#"
   xmlns:rdf="http://www.w3.org/1999/02/22-rdf-syntax-ns#"
   xmlns:svg="http://www.w3.org/2000/svg"
   xmlns="http://www.w3.org/2000/svg"
   xmlns:sodipodi="http://sodipodi.sourceforge.net/DTD/sodipodi-0.dtd"
   xmlns:inkscape="http://www.inkscape.org/namespaces/inkscape"
   width="16"
   height="16"
   id="svg27665"
   version="1.1"
   inkscape:version="0.48.3.1 r9886"
   sodipodi:docname="alarm.svg">
  <defs
     id="defs27667" />
  <sodipodi:namedview
     id="base"
     pagecolor="#ffffff"
     bordercolor="#666666"
     borderopacity="1.0"
     inkscape:pageopacity="0.0"
     inkscape:pageshadow="2"
     inkscape:zoom="45.254834"
     inkscape:cx="10.163715"
     inkscape:cy="10.12249"
     inkscape:document-units="px"
     inkscape:current-layer="layer1"
     showgrid="true"
     inkscape:window-width="1920"
     inkscape:window-height="1033"
     inkscape:window-x="-10"
     inkscape:window-y="25"
     inkscape:window-maximized="1"
     inkscape:snap-bbox="true"
     inkscape:bbox-paths="true"
     inkscape:bbox-nodes="true"
     inkscape:snap-bbox-edge-midpoints="true"
     inkscape:snap-bbox-midpoints="true"
     inkscape:object-paths="true"
     inkscape:snap-intersection-paths="true"
     inkscape:object-nodes="true"
     inkscape:snap-smooth-nodes="true"
     inkscape:snap-midpoints="true"
     inkscape:snap-object-midpoints="true"
     inkscape:snap-center="true"
     inkscape:snap-global="true"
     showguides="false"
     inkscape:guide-bbox="true"
     fit-margin-top="0"
     fit-margin-left="0"
     fit-margin-right="0"
     fit-margin-bottom="0"
     inkscape:showpageshadow="false">
    <sodipodi:guide
       orientation="0,1"
       position="599.99999,299.99993"
       id="guide3572" />
    <sodipodi:guide
       orientation="1,0"
       position="294.41949,12.121716"
       id="guide3574" />
    <sodipodi:guide
       orientation="0,1"
       position="456.04389,599.99992"
       id="guide3576" />
    <sodipodi:guide
       orientation="0,1"
       position="-2.8882813e-06,-8.4406273e-05"
       id="guide3578" />
    <sodipodi:guide
       orientation="1,0"
       position="-2.8882813e-06,157.58366"
       id="guide3580" />
    <sodipodi:guide
       orientation="1,0"
       position="599.99999,121.21821"
       id="guide3582" />
    <sodipodi:guide
       orientation="0,1"
       position="599.99999,-714.34359"
       id="guide5928" />
    <sodipodi:guide
       orientation="0,1"
       position="599.99999,-414.34359"
       id="guide5930" />
    <sodipodi:guide
       orientation="0,1"
       position="599.99999,-1014.3435"
       id="guide5932" />
    <sodipodi:guide
       orientation="0,1"
       position="451.57029,524.99606"
       id="guide5294" />
    <sodipodi:guide
       orientation="0,1"
       position="451.57029,75.013516"
       id="guide5296" />
    <sodipodi:guide
       orientation="0,1"
       position="496.01499,-931.36409"
       id="guide5413" />
    <sodipodi:guide
       orientation="0,1"
       position="457.34859,-489.34389"
       id="guide5415" />
    <inkscape:grid
       type="xygrid"
       id="grid3070"
       empspacing="5"
       visible="true"
       enabled="true"
       snapvisiblegridlinesonly="true"
       originx="4.3243213e-05px"
       originy="-2.6947047e-05px" />
  </sodipodi:namedview>
  <metadata
     id="metadata27670">
    <rdf:RDF>
      <cc:Work
         rdf:about="">
        <dc:format>image/svg+xml</dc:format>
        <dc:type
           rdf:resource="http://purl.org/dc/dcmitype/StillImage" />
        <dc:title />
      </cc:Work>
    </rdf:RDF>
  </metadata>
  <g
     inkscape:label="Camada 1"
     inkscape:groupmode="layer"
     id="layer1"
     transform="translate(3364.4171,-2100.7186)">
    <path
       sodipodi:nodetypes="ssccssccsssssssccccccc"
       inkscape:connector-curvature="0"
       style="font-size:medium;font-style:normal;font-variant:normal;font-weight:normal;font-stretch:normal;text-indent:0;text-align:start;text-decoration:none;line-height:normal;letter-spacing:normal;word-spacing:normal;text-transform:none;direction:ltr;block-progression:tb;writing-mode:lr-tb;text-anchor:start;baseline-shift:baseline;color:#000000;fill:#434a55;fill-opacity:0.6745098;stroke:none;stroke-width:2.28571415;marker:none;visibility:visible;display:inline;overflow:visible;enable-background:accumulate;font-family:Sans;-inkscape-font-specification:Sans"
       d="m -3360.5779,2101.8632 c -1.5827,0 -2.8736,1.2908 -2.8736,2.8735 0,0.6662 0.2329,1.2821 0.6158,1.7704 0.8373,-1.7999 2.4692,-3.1727 4.4385,-3.6432 -0.5276,-0.6144 -1.3106,-1.0007 -2.1807,-1.0007 z m 8.3217,0 c -0.8701,0 -1.6531,0.3863 -2.1809,1.0007 1.9694,0.4705 3.6013,1.8433 4.4386,3.6432 0.3829,-0.4883 0.6158,-1.1042 0.6158,-1.7704 0,-1.5827 -1.2908,-2.8735 -2.8735,-2.8735 z m -4.1609,1.8671 c -3.2983,0 -5.9883,2.69 -5.9883,5.9883 0,3.2983 2.69,5.9883 5.9883,5.9883 3.2983,0 5.9883,-2.69 5.9883,-5.9883 0,-3.2983 -2.69,-5.9883 -5.9883,-5.9883 z m -1,1.9883 2,0 0,3 3,0 0,2 -5,0 z"
       id="path2999" />
    <path
       style="font-size:medium;font-style:normal;font-variant:normal;font-weight:normal;font-stretch:normal;text-indent:0;text-align:start;text-decoration:none;line-height:normal;letter-spacing:normal;word-spacing:normal;text-transform:none;direction:ltr;block-progression:tb;writing-mode:lr-tb;text-anchor:start;baseline-shift:baseline;color:#000000;fill:#d1d4d6;fill-opacity:0.74329164;fill-rule:nonzero;stroke:none;stroke-width:2;marker:none;visibility:visible;display:inline;overflow:visible;enable-background:accumulate;font-family:Sans;-inkscape-font-specification:Sans"
       d="m 3.84375,-0.0625 c -2.2352,0 -4.09375,1.85855 -4.09375,4.09375 0,0.9459 0.3355,1.8121 0.875,2.5 l 0.5625,0.6875 C 1.0314,7.80525 0.8125,8.3664 0.8125,9 0.8126,12.9507 4.0492,16.1875 8,16.1875 c 3.9507,0 7.1875,-3.2368 7.1875,-7.1875 0,-0.6443 -0.2137,-1.2171 -0.375,-1.8125 l 0.53125,-0.65625 c 0.5394,-0.6879 0.875,-1.5541 0.875,-2.5 0,-2.2352 -1.8273,-4.09365 -4.0625,-4.09375 -1.2253,0 -2.34565,0.5667 -3.09375,1.4375 L 8.59375,1.9375 C 8.38705,1.9195 8.2111,1.8125 8,1.8125 c -0.209,0 -0.38915,0.1073 -0.59375,0.125 l -0.5,-0.5625 C 6.15835,0.504 5.06905,-0.0625 3.84375,-0.0625 z m 0,1.21875 c 0.8701,0 1.6599,0.3856 2.1875,1 -1.9693,0.4705 -3.6002,1.8251 -4.4375,3.625 -0.3829,-0.4883 -0.625,-1.0838 -0.625,-1.75 0,-1.5827 1.2923,-2.875 2.875,-2.875 z m 8.3125,0 c 1.5827,0 2.875,1.2923 2.875,2.875 0,0.6662 -0.2421,1.2617 -0.625,1.75 -0.8373,-1.7999 -2.4681,-3.1545 -4.4375,-3.625 0.5278,-0.6144 1.3174,-1 2.1875,-1 z M 8,3 c 3.2983,0 6,2.7017 6,6 0,3.2983 -2.7017,6 -6,6 C 4.7017,15 2,12.2983 2,9 2,5.7017 4.7017,3 8,3 z M 7,5 7,8 8,8 8,5 z m 0,4 0,1 5,0 0,-1 z"
       transform="translate(-3364.4171,2100.7186)"
       id="path2997"
       inkscape:connector-curvature="0"
       sodipodi:nodetypes="sscccssccscccsccssccssssccsssssscccccccccc" />
  </g>
</svg>
