<?xml version="1.0" encoding="UTF-8" standalone="no"?>
<!-- Created with Inkscape (http://www.inkscape.org/) -->

<svg
   xmlns:dc="http://purl.org/dc/elements/1.1/"
   xmlns:cc="http://creativecommons.org/ns#"
   xmlns:rdf="http://www.w3.org/1999/02/22-rdf-syntax-ns#"
   xmlns:svg="http://www.w3.org/2000/svg"
   xmlns="http://www.w3.org/2000/svg"
   xmlns:sodipodi="http://sodipodi.sourceforge.net/DTD/sodipodi-0.dtd"
   xmlns:inkscape="http://www.inkscape.org/namespaces/inkscape"
   width="22"
   height="22"
   id="svg27665"
   version="1.1"
   inkscape:version="0.48.3.1 r9886"
   sodipodi:docname="btsync-gui-paused.svg">
  <defs
     id="defs27667" />
  <sodipodi:namedview
     id="base"
     pagecolor="#ffffff"
     bordercolor="#666666"
     borderopacity="1.0"
     inkscape:pageopacity="0"
     inkscape:pageshadow="2"
     inkscape:zoom="45.254835"
     inkscape:cx="14.490334"
     inkscape:cy="7.2681832"
     inkscape:document-units="px"
     inkscape:current-layer="layer1"
     showgrid="true"
     inkscape:window-width="1920"
     inkscape:window-height="1023"
     inkscape:window-x="-10"
     inkscape:window-y="35"
     inkscape:window-maximized="1"
     inkscape:snap-bbox="true"
     inkscape:bbox-paths="true"
     inkscape:bbox-nodes="true"
     inkscape:snap-bbox-edge-midpoints="true"
     inkscape:snap-bbox-midpoints="true"
     inkscape:object-paths="true"
     inkscape:snap-intersection-paths="true"
     inkscape:object-nodes="true"
     inkscape:snap-smooth-nodes="true"
     inkscape:snap-midpoints="true"
     inkscape:snap-object-midpoints="true"
     inkscape:snap-center="true"
     inkscape:snap-global="true"
     showguides="true"
     inkscape:guide-bbox="true"
     fit-margin-top="0"
     fit-margin-left="0"
     fit-margin-right="0"
     fit-margin-bottom="0"
     inkscape:showpageshadow="false">
    <inkscape:grid
       type="xygrid"
       id="grid3070"
       empspacing="5"
       visible="true"
       enabled="true"
       snapvisiblegridlinesonly="true"
       originx="-47.999653px"
       originy="-0.00031276823px" />
  </sodipodi:namedview>
  <metadata
     id="metadata27670">
    <rdf:RDF>
      <cc:Work
         rdf:about="">
        <dc:format>image/svg+xml</dc:format>
        <dc:type
           rdf:resource="http://purl.org/dc/dcmitype/StillImage" />
        <dc:title />
      </cc:Work>
    </rdf:RDF>
  </metadata>
  <g
     inkscape:label="Camada 1"
     inkscape:groupmode="layer"
     id="layer1"
     transform="translate(3316.4171,-2094.7186)">
    <path
       style="font-size:medium;font-style:normal;font-variant:normal;font-weight:normal;font-stretch:normal;text-indent:0;text-align:start;text-decoration:none;line-height:normal;letter-spacing:normal;word-spacing:normal;text-transform:none;direction:ltr;block-progression:tb;writing-mode:lr-tb;text-anchor:start;baseline-shift:baseline;color:#000000;fill:#f1f3f5;fill-opacity:0.90288714000000003;fill-rule:nonzero;stroke:none;stroke-width:2;marker:none;visibility:visible;display:inline;overflow:visible;enable-background:accumulate;font-family:Sans;-inkscape-font-specification:Sans"
       d="M 10.78125,3.78125 A 1.20012,1.20012 0 0 0 10.6875,3.8125 C 7.6104,3.9159 4.6465,5.5261 3,8.375 a 1.20012,1.20012 0 0 0 0.4375,1.65625 l 1.28125,0.75 c -0.2302,-0.09 -0.4348,-0.2419 -0.6875,-0.25 -1.2467,-0.039 -2.23475,0.8785 -2.28125,2.125 -0.1293,3.4104 1.6702,6.6048 4.625,8.3125 2.476858,1.431558 5.352548,1.588355 7.84375,0.65625 C 14.401718,21.853355 14.683302,22 15,22 l 5,0 c 0.554,0 1,-0.446 1,-1 l 0,-6 c 0,-0.543137 -0.429892,-0.98298 -0.96875,-1 0.08112,-0.201805 0.147039,-0.416438 0.15625,-0.65625 0.1295,-3.4102 -1.63895,-6.6048 -4.59375,-8.3125 -1.4611,-0.8444 -3.07515,-1.2597 -4.65625,-1.25 a 1.20012,1.20012 0 0 0 -0.125,0 1.20012,1.20012 0 0 0 -0.03125,0 z M 10.8125,5 c 0.0445,0 0.081,3e-4 0.125,0 1.3757,-0.0084 2.7895,0.3268 4.0625,1.0625 2.571,1.4859 4.1126,4.2826 4,7.25 a 1.0020851,1.0020851 0 0 1 -0.21875,0.53125 1.0020851,1.0020851 0 0 1 0,0.03125 1.0020851,1.0020851 0 0 1 -0.125,0.125 l -1.34375,0 -3.125,-2.28125 1.1875,-1.59375 1.28125,0.9375 C 16.19435,9.7089 15.2814,8.52185 14,7.78125 11.655937,6.4265688 8.7906498,6.8460806 6.90625,8.59375 6.7612962,8.7281861 6.632731,8.8498868 6.5,9 6.2345381,9.3002264 5.989675,9.6393625 5.78125,10 l -1.75,-1 C 5.48115,6.4914 8.1043,5.062 10.8125,5 z m 0.0625,3.1875 c 0.231455,-0.00417 0.454912,0.0012 0.6875,0.03125 0.6203,0.08 1.2304,0.2886 1.8125,0.625 0.3421,0.1978 0.5985,0.4835 0.875,0.75 l -1.03125,1.4375 a 1.20012,1.20012 0 0 0 0.25,1.65625 L 15.28125,14 15,14 c -0.554,0 -1,0.446 -1,1 l 0,1.71875 c -1.498095,1.233046 -3.636042,1.478588 -5.4375,0.4375 -0.3421,-0.1977 -0.5985,-0.4835 -0.875,-0.75 l 1.03125,-1.4375 a 1.20012,1.20012 0 0 0 -0.25,-1.65625 L 5.5,11.15625 a 1.20012,1.20012 0 0 0 1.3125,-0.5625 C 7.69555,9.0659125 9.2548158,8.2167127 10.875,8.1875 z m -7.0625,3.53125 a 1.0020851,1.0020851 0 0 1 0.09375,0 1.0020851,1.0020851 0 0 1 0.09375,0 1.0020851,1.0020851 0 0 1 0.125,0 1.0020851,1.0020851 0 0 1 0.0625,0.03125 1.0020851,1.0020851 0 0 1 0.03125,0 1.0020851,1.0020851 0 0 1 0.0625,0.03125 1.0020851,1.0020851 0 0 1 0.03125,0 1.0020851,1.0020851 0 0 1 0.0625,0.03125 1.0020851,1.0020851 0 0 1 0.1875,0.125 L 7.78125,14.28125 6.59375,15.875 5.3125,14.9375 c 0.4619,1.3537 1.37485,2.54075 2.65625,3.28125 0.3982039,0.230136 0.797391,0.402706 1.21875,0.53125 0.00902,0.0028 0.022223,-0.0027 0.03125,0 0.6230574,0.186635 1.274347,0.269428 1.90625,0.25 0.640887,-0.02509 1.273572,-0.156431 1.875,-0.375 l 0,0.03125 0,2.0625 0,0.03125 c -0.73792,0.191418 -1.511551,0.27321 -2.28125,0.25 -1.2828318,-0.03868 -2.5673632,-0.378986 -3.75,-1.0625 -2.571,-1.4859 -4.1125,-4.2826 -4,-7.25 a 1.0020851,1.0020851 0 0 1 0.125,-0.46875 1.0020851,1.0020851 0 0 1 0.0625,-0.09375 1.0020851,1.0020851 0 0 1 0.375,-0.3125 1.0020851,1.0020851 0 0 1 0.09375,-0.03125 1.0020851,1.0020851 0 0 1 0.1875,-0.0625 z M 15,15 l 2,0 0,6 -2,0 0,-6 z m 3,0 2,0 0,6 -2,0 0,-6 z"
       transform="translate(-3316.4171,2092.7186)"
       id="path2989"
       inkscape:connector-curvature="0" />
    <path
       id="path2999"
       d="m -3305.6046,2097.7186 c -2.7082,0.062 -5.3314,1.4914 -6.7813,4 l 1.75,1 c 1.6674,-2.8851 5.3338,-3.886 8.2188,-2.2187 1.2814,0.7406 2.1943,1.9276 2.6562,3.2812 l -1.2812,-0.9375 -1.1875,1.5938 3.125,2.2812 1.3437,0 a 1.0020851,1.0020851 0 0 0 0.3438,-0.6875 c 0.1126,-2.9674 -1.429,-5.7641 -4,-7.25 -1.273,-0.7357 -2.6868,-1.0709 -4.0625,-1.0625 -0.044,3e-4 -0.081,0 -0.125,0 z m -7,6.7188 a 1.0020851,1.0020851 0 0 0 -0.8438,0.9687 c -0.1125,2.9674 1.429,5.7641 4,7.25 1.8923,1.0936 4.0635,1.3229 6.0313,0.8125 l 0,-2.0937 c -1.5998,0.568 -3.4384,0.483 -5.0313,-0.4375 -1.2814,-0.7405 -2.1943,-1.9276 -2.6562,-3.2813 l 1.2812,0.9375 1.1875,-1.5937 -3.2187,-2.3438 a 1.0020851,1.0020851 0 0 0 -0.5625,-0.2187 1.0020851,1.0020851 0 0 0 -0.094,0 1.0020851,1.0020851 0 0 0 -0.094,0 z m 11.1875,3.2812 0,6 2,0 0,-6 -2,0 z m 3,0 0,6 2,0 0,-6 -2,0 z"
       style="font-size:medium;font-style:normal;font-variant:normal;font-weight:normal;font-stretch:normal;text-indent:0;text-align:start;text-decoration:none;line-height:normal;letter-spacing:normal;word-spacing:normal;text-transform:none;direction:ltr;block-progression:tb;writing-mode:lr-tb;text-anchor:start;baseline-shift:baseline;color:#000000;fill:#27303a;fill-opacity:0.75328081999999996;fill-rule:nonzero;stroke:none;stroke-width:1;marker:none;visibility:visible;display:inline;overflow:visible;enable-background:accumulate;font-family:Sans;-inkscape-font-specification:Sans"
       inkscape:connector-curvature="0" />
  </g>
</svg>
