<?xml version="1.0" encoding="UTF-8" standalone="no"?>
<!-- Created with Inkscape (http://www.inkscape.org/) -->

<svg
   xmlns:a="http://ns.adobe.com/AdobeSVGViewerExtensions/3.0/"
   xmlns:i="http://ns.adobe.com/AdobeIllustrator/10.0/"
   xmlns:dc="http://purl.org/dc/elements/1.1/"
   xmlns:cc="http://creativecommons.org/ns#"
   xmlns:rdf="http://www.w3.org/1999/02/22-rdf-syntax-ns#"
   xmlns:svg="http://www.w3.org/2000/svg"
   xmlns="http://www.w3.org/2000/svg"
   xmlns:sodipodi="http://sodipodi.sourceforge.net/DTD/sodipodi-0.dtd"
   xmlns:inkscape="http://www.inkscape.org/namespaces/inkscape"
   width="24"
   height="24"
   id="svg2"
   version="1.1"
   inkscape:version="0.48.3.1 r9886"
   sodipodi:docname="easystroke.svg"
   inkscape:export-filename="/home/anton/.kde4/share/apps/desktoptheme/appo/icons/nepomuk.png"
   inkscape:export-xdpi="90"
   inkscape:export-ydpi="90">
  <sodipodi:namedview
     id="base"
     pagecolor="#ffffff"
     bordercolor="#666666"
     borderopacity="1.0"
     inkscape:pageopacity="0.0"
     inkscape:pageshadow="2"
     inkscape:zoom="32"
     inkscape:cx="11.884568"
     inkscape:cy="11.138564"
     inkscape:document-units="px"
     inkscape:current-layer="klipper"
     showgrid="true"
     inkscape:window-width="1920"
     inkscape:window-height="1033"
     inkscape:window-x="-10"
     inkscape:window-y="25"
     inkscape:window-maximized="1"
     inkscape:snap-grids="true"
     showguides="true"
     inkscape:guide-bbox="true"
     inkscape:snap-bbox="true"
     inkscape:object-paths="true"
     inkscape:snap-global="false"
     inkscape:bbox-paths="true"
     inkscape:bbox-nodes="true"
     inkscape:snap-bbox-edge-midpoints="true"
     inkscape:snap-bbox-midpoints="true"
     inkscape:snap-intersection-paths="true"
     inkscape:object-nodes="true"
     inkscape:snap-smooth-nodes="true"
     inkscape:snap-midpoints="true"
     inkscape:snap-object-midpoints="true"
     inkscape:snap-center="true">
    <inkscape:grid
       snapvisiblegridlinesonly="true"
       enabled="true"
       visible="true"
       empspacing="5"
       id="grid2818"
       type="xygrid" />
  </sodipodi:namedview>
  <defs
     id="defs4">
    <mask
       maskUnits="userSpaceOnUse"
       x="122.963"
       y="97.149"
       width="576.609"
       height="587.491"
       id="XMLID_23_"
       i:invertMask="false"
       i:clipMask="true">
      <g
         style="filter:url(#Adobe_OpacityMaskFilter)"
         id="g37">
        <radialGradient
           id="XMLID_24_"
           cx="88.977501"
           cy="-20.899401"
           r="673.11609"
           fx="88.977501"
           fy="-20.899401"
           gradientUnits="userSpaceOnUse">
          <stop
             offset="0.309"
             style="stop-color:#FFFFFF"
             id="stop40" />
          <stop
             offset="1"
             style="stop-color:#000000"
             id="stop42" />
          <a:midPointStop
             offset="0.309"
             style="stop-color:#FFFFFF" />
          <a:midPointStop
             offset="0.5"
             style="stop-color:#FFFFFF" />
          <a:midPointStop
             offset="1"
             style="stop-color:#000000" />
        </radialGradient>
        <ellipse
           style="fill:url(#XMLID_24_)"
           sodipodi:ry="349.10599"
           sodipodi:rx="512.93402"
           sodipodi:cy="286.172"
           sodipodi:cx="295.89499"
           i:knockout="Off"
           cx="295.89499"
           cy="286.172"
           rx="512.93402"
           ry="349.10599"
           id="ellipse44" />
      </g>
    </mask>
    <filter
       color-interpolation-filters="sRGB"
       id="Adobe_OpacityMaskFilter"
       filterUnits="userSpaceOnUse"
       x="122.963"
       y="97.149002"
       width="576.60901"
       height="587.49103">
      <feColorMatrix
         type="matrix"
         values="1 0 0 0 0  0 1 0 0 0  0 0 1 0 0  0 0 0 1 0"
         id="feColorMatrix34" />
    </filter>
    <mask
       maskUnits="userSpaceOnUse"
       x="155.705"
       y="461.543"
       width="93.126"
       height="44.813"
       id="XMLID_26_"
       i:invertMask="false"
       i:clipMask="true">
      <g
         style="filter:url(#Adobe_OpacityMaskFilter_1_)"
         id="g75">
        <linearGradient
           id="XMLID_1_"
           gradientUnits="userSpaceOnUse"
           x1="211.7222"
           y1="562.85791"
           x2="200.0733"
           y2="466.75449">
          <stop
             offset="0"
             style="stop-color:#FFFFFF"
             id="stop78" />
          <stop
             offset="1"
             style="stop-color:#000000"
             id="stop80" />
          <a:midPointStop
             offset="0"
             style="stop-color:#FFFFFF" />
          <a:midPointStop
             offset="0.5"
             style="stop-color:#FFFFFF" />
          <a:midPointStop
             offset="1"
             style="stop-color:#000000" />
        </linearGradient>
        <ellipse
           style="fill:url(#XMLID_1_)"
           sodipodi:ry="59.682999"
           sodipodi:rx="80.542"
           sodipodi:cy="495.98801"
           sodipodi:cx="203.617"
           i:knockout="Off"
           cx="203.617"
           cy="495.98801"
           rx="80.542"
           ry="59.682999"
           id="ellipse82" />
      </g>
    </mask>
    <filter
       color-interpolation-filters="sRGB"
       id="Adobe_OpacityMaskFilter_1_"
       filterUnits="userSpaceOnUse"
       x="155.705"
       y="461.543"
       width="93.125999"
       height="44.813">
      <feColorMatrix
         type="matrix"
         values="1 0 0 0 0  0 1 0 0 0  0 0 1 0 0  0 0 0 1 0"
         id="feColorMatrix72" />
    </filter>
    <mask
       maskUnits="userSpaceOnUse"
       x="101.57"
       y="425.034"
       width="156.907"
       height="127.553"
       id="XMLID_2_"
       i:invertMask="false"
       i:clipMask="true">
      <g
         style="filter:url(#Adobe_OpacityMaskFilter_2_)"
         id="g92">
        <linearGradient
           id="XMLID_3_"
           gradientUnits="userSpaceOnUse"
           x1="206.09081"
           y1="397.62061"
           x2="186.92191"
           y2="563.47321">
          <stop
             offset="0"
             style="stop-color:#FFFFFF"
             id="stop95" />
          <stop
             offset="0.1111"
             style="stop-color:#CBCBCB"
             id="stop97" />
          <stop
             offset="0.2396"
             style="stop-color:#969696"
             id="stop99" />
          <stop
             offset="0.3698"
             style="stop-color:#686868"
             id="stop101" />
          <stop
             offset="0.4991"
             style="stop-color:#424242"
             id="stop103" />
          <stop
             offset="0.6273"
             style="stop-color:#252525"
             id="stop105" />
          <stop
             offset="0.7542"
             style="stop-color:#111111"
             id="stop107" />
          <stop
             offset="0.8792"
             style="stop-color:#040404"
             id="stop109" />
          <stop
             offset="1"
             style="stop-color:#000000"
             id="stop111" />
          <a:midPointStop
             offset="0"
             style="stop-color:#FFFFFF" />
          <a:midPointStop
             offset="0.2994"
             style="stop-color:#FFFFFF" />
          <a:midPointStop
             offset="1"
             style="stop-color:#000000" />
        </linearGradient>
        <ellipse
           style="fill:url(#XMLID_3_)"
           sodipodi:ry="123.604"
           sodipodi:rx="160.94"
           sodipodi:cy="495.62299"
           sodipodi:cx="194.76401"
           i:knockout="Off"
           cx="194.76401"
           cy="495.62299"
           rx="160.94"
           ry="123.604"
           id="ellipse113" />
      </g>
    </mask>
    <filter
       color-interpolation-filters="sRGB"
       id="Adobe_OpacityMaskFilter_2_"
       filterUnits="userSpaceOnUse"
       x="101.57"
       y="425.034"
       width="156.907"
       height="127.553">
      <feColorMatrix
         type="matrix"
         values="1 0 0 0 0  0 1 0 0 0  0 0 1 0 0  0 0 0 1 0"
         id="feColorMatrix89" />
    </filter>
    <mask
       maskUnits="userSpaceOnUse"
       x="191.541"
       y="217.631"
       width="447.197"
       height="527.73"
       id="XMLID_10_"
       i:invertMask="false"
       i:clipMask="true">
      <g
         style="filter:url(#Adobe_OpacityMaskFilter_3_)"
         id="g165">
        <radialGradient
           id="XMLID_11_"
           cx="657.2124"
           cy="155.23289"
           r="606.95343"
           fx="657.2124"
           fy="155.23289"
           gradientTransform="matrix(0.931,0,0,0.9299,28.7459,21.6629)"
           gradientUnits="userSpaceOnUse">
          <stop
             offset="0"
             style="stop-color:#C9C9C8"
             id="stop168" />
          <stop
             offset="0.0881"
             style="stop-color:#C4C4C4"
             id="stop170" />
          <stop
             offset="0.2192"
             style="stop-color:#B8B8B7"
             id="stop172" />
          <stop
             offset="0.3769"
             style="stop-color:#A1A0A0"
             id="stop174" />
          <stop
             offset="0.5556"
             style="stop-color:#7F7F7E"
             id="stop176" />
          <stop
             offset="0.7517"
             style="stop-color:#4F4F4E"
             id="stop178" />
          <stop
             offset="0.9595"
             style="stop-color:#121212"
             id="stop180" />
          <stop
             offset="1"
             style="stop-color:#000000"
             id="stop182" />
          <a:midPointStop
             offset="0"
             style="stop-color:#C9C9C8" />
          <a:midPointStop
             offset="0.6215"
             style="stop-color:#C9C9C8" />
          <a:midPointStop
             offset="1"
             style="stop-color:#000000" />
        </radialGradient>
        <circle
           style="fill:url(#XMLID_11_)"
           sodipodi:ry="302.95401"
           sodipodi:rx="302.95401"
           sodipodi:cy="444.22601"
           sodipodi:cx="408.427"
           i:knockout="Off"
           cx="408.427"
           cy="444.22601"
           r="302.95401"
           id="circle184" />
      </g>
    </mask>
    <filter
       color-interpolation-filters="sRGB"
       id="Adobe_OpacityMaskFilter_3_"
       filterUnits="userSpaceOnUse"
       x="191.541"
       y="217.631"
       width="447.19699"
       height="527.72998">
      <feColorMatrix
         type="matrix"
         values="1 0 0 0 0  0 1 0 0 0  0 0 1 0 0  0 0 0 1 0"
         id="feColorMatrix162" />
    </filter>
    <mask
       maskUnits="userSpaceOnUse"
       x="243.061"
       y="279.317"
       width="252.506"
       height="187.183"
       id="XMLID_13_"
       i:invertMask="false"
       i:clipMask="true">
      <g
         style="filter:url(#Adobe_OpacityMaskFilter_4_)"
         id="g199">
        <linearGradient
           id="XMLID_14_"
           gradientUnits="userSpaceOnUse"
           x1="340.0488"
           y1="266.93359"
           x2="372.38071"
           y2="417.81519">
          <stop
             offset="0"
             style="stop-color:#FFFFFF"
             id="stop202" />
          <stop
             offset="0.0867"
             style="stop-color:#F8F8F8"
             id="stop204" />
          <stop
             offset="0.2156"
             style="stop-color:#E4E4E4"
             id="stop206" />
          <stop
             offset="0.3708"
             style="stop-color:#C2C2C2"
             id="stop208" />
          <stop
             offset="0.5465"
             style="stop-color:#949494"
             id="stop210" />
          <stop
             offset="0.7394"
             style="stop-color:#595959"
             id="stop212" />
          <stop
             offset="0.9438"
             style="stop-color:#151515"
             id="stop214" />
          <stop
             offset="0.9944"
             style="stop-color:#000000"
             id="stop216" />
          <a:midPointStop
             offset="0"
             style="stop-color:#FFFFFF" />
          <a:midPointStop
             offset="0.6215"
             style="stop-color:#FFFFFF" />
          <a:midPointStop
             offset="0.9944"
             style="stop-color:#000000" />
        </linearGradient>
        <ellipse
           style="fill:url(#XMLID_14_)"
           sodipodi:ry="183.32201"
           sodipodi:rx="215.32401"
           sodipodi:cy="374.28201"
           sodipodi:cx="363.052"
           i:knockout="Off"
           cx="363.052"
           cy="374.28201"
           rx="215.32401"
           ry="183.32201"
           id="ellipse218" />
      </g>
    </mask>
    <filter
       color-interpolation-filters="sRGB"
       id="Adobe_OpacityMaskFilter_4_"
       filterUnits="userSpaceOnUse"
       x="243.061"
       y="279.31699"
       width="252.506"
       height="187.183">
      <feColorMatrix
         type="matrix"
         values="1 0 0 0 0  0 1 0 0 0  0 0 1 0 0  0 0 0 1 0"
         id="feColorMatrix196" />
    </filter>
  </defs>
  <metadata
     id="metadata7">
    <rdf:RDF>
      <cc:Work
         rdf:about="">
        <dc:format>image/svg+xml</dc:format>
        <dc:type
           rdf:resource="http://purl.org/dc/dcmitype/StillImage" />
        <dc:title />
      </cc:Work>
    </rdf:RDF>
  </metadata>
  <g
     transform="translate(8.4852817,-1016.6949)"
     id="klipper"
     inkscape:groupmode="layer"
     inkscape:label="Layer 1">
    <path
       inkscape:connector-curvature="0"
       style="fill:#ffffff;fill-opacity:0.4;fill-rule:nonzero;stroke:none"
       d="m 23.514718,1025.1011 0,0.7813 c 2.192996,0.3709 4.196591,1.3306 5.8125,2.7187 -1.540535,-1.6772 -3.538209,-2.9124 -5.8125,-3.5 z m 7.34375,2.25 c 1.819679,2.013 3.095648,4.5259 3.5,7.3438 l -1.25,0 c 0.08438,0.3266 0.161788,0.6632 0.21875,1 l 2.03125,0 c -0.474742,-3.3085 -2.136643,-6.2073 -4.5,-8.3438 z m -7.34375,1.9375 0,0.6563 c 1.168043,0.2998 2.227907,0.8757 3.125,1.625 -0.837111,-1.0022 -1.894171,-1.7845 -3.125,-2.2813 z m 4.53125,0.8751 c 1.100108,1.27 1.900326,2.8224 2.25,4.5312 l -1.375,0 c 0.130316,0.3229 0.255882,0.6577 0.34375,1 l 2.03125,0 c -0.44958,-2.197 -1.617143,-4.1168 -3.25,-5.5312 z m -2.78125,2.8437 c 0.389353,0.5014 0.690407,1.0763 0.90625,1.6875 l -2.0625,0 c 0.330833,0.2847 0.618854,0.6121 0.84375,1 l 2.21875,0 c -0.376553,-1.0662 -1.041941,-1.9956 -1.90625,-2.6875 z m -1.75,1.0938 0,0.1562 c 0.09333,0.054 0.193793,0.096 0.28125,0.1563 -0.07982,-0.1157 -0.190647,-0.2073 -0.28125,-0.3125 z"
       id="path3071" />
    <path
       style="fill:none;stroke:#434a55;stroke-width:2;stroke-linecap:round;stroke-linejoin:round;stroke-miterlimit:4;stroke-opacity:0.6745098;stroke-dasharray:none"
       d="m 2.8256688,1027.195 c -0.2746414,0.033 -0.5633073,0.081 -0.843955,0.1246 -0.2786505,0.044 -0.5492829,0.084 -1.00634309,0.2248 -0.45706036,0.1384 -1.10054871,0.3772 -1.33509951,0.4636 -0.2806478,0.1404 -1.0424102,0.5257 -1.6879102,1.0494 -0.6455,0.5217 -1.1727229,1.18 -1.4914638,1.9806 -0.3187395,0.8006 -0.4289957,1.7438 -0.1663856,2.5484 0.2626099,0.8047 0.8960798,1.4709 1.6839155,1.816 0.7898257,0.3452 1.7320096,0.3694 2.56794656,0.1867 0.83595144,-0.1826 1.56564134,-0.5699 2.13696684,-0.9772 0.573337,-0.4074 0.9882951,-0.8329 1.3150541,-1.2121 0.3247473,-0.3773 0.5612956,-0.7083 0.7577534,-1.0074 0.1984695,-0.2969 0.3588314,-0.5598 0.5011599,-0.8106 0.1423427,-0.2508 0.2666232,-0.4917 0.3828999,-0.7344 0.1142649,-0.245 0.2205122,-0.4937 0.3247474,-0.7626 0.1022384,-0.2709 0.2044759,-0.5599 0.3087112,-0.903 0.1022384,-0.3412 0.2104966,-0.7344 0.2946866,-1.2261 0.086201,-0.4916 0.1503466,-1.0835 0.1022384,-1.7838 -0.050121,-0.7003 -0.2124942,-1.511 -0.603398,-2.2736 -0.3889066,-0.7645 -1.0063286,-1.479 -1.7721146,-1.8683 -0.7677831,-0.3911 -1.6819037,-0.4535 -2.4717294,-0.1505 -0.7898401,0.3032 -1.45137631,0.9733 -1.8623254,1.746 -0.4109634,0.7704 -0.5673163,1.6433 -0.5833525,2.4099 -0.016036,0.7685 0.1122532,1.4287 0.2625999,1.9726 0.1503609,0.5438 0.3247617,0.9671 0.48914708,1.3283 0.16437104,0.3593 0.31672921,0.6542 0.4650784,0.9191 0.14833477,0.2669 0.29267486,0.5056 0.44102402,0.7325 0.1483349,0.2286 0.3026905,0.4454 0.4730966,0.6661 0.1703918,0.2208 0.3548224,0.4435 0.5713253,0.6884 0.2165031,0.2447 0.4670758,0.5116 0.7898258,0.8126 0.3247617,0.3009 0.7256953,0.6361 1.2649339,0.9672 0.5372557,0.3311 1.2168254,0.6563 2.0186927,0.8248 0.8018528,0.1685 1.728015,0.1785 2.5519248,-0.113 0.8218981,-0.2886 1.541572,-0.8786 1.900404,-1.6371 0.358831,-0.7605 0.356834,-1.6895 0.05814,-2.5103 -0.298695,-0.8208 -0.8940749,-1.5311 -1.5335542,-2.0448 -0.6374817,-0.5138 -1.3190632,-0.8328 -1.9164546,-1.0395 -0.5993887,-0.2067 -1.1125757,-0.3029 -1.5495908,-0.3611 -0.4390268,-0.06 -0.8018673,-0.084 -1.1286263,-0.097 -0.3287563,-0.014 -0.6194339,-0.014 -0.8940753,-0.011 -0.2766388,0.014 -0.539253,0.028 -0.8158918,0.059 z"
       inkscape:connector-curvature="0"
       sodipodi:nodetypes="ccccccccccccccccccccccccccccccccccccccccc"
       id="path3816" />
    <path
       style="font-size:medium;font-style:normal;font-variant:normal;font-weight:normal;font-stretch:normal;text-indent:0;text-align:start;text-decoration:none;line-height:normal;letter-spacing:normal;word-spacing:normal;text-transform:none;direction:ltr;block-progression:tb;writing-mode:lr-tb;text-anchor:start;baseline-shift:baseline;color:#000000;fill:#d1d4d6;fill-opacity:0.74329164;fill-rule:nonzero;stroke:none;stroke-width:2;marker:none;visibility:visible;display:inline;overflow:visible;enable-background:accumulate;font-family:Sans;-inkscape-font-specification:Sans"
       d="m 2.6397183,1019.5074 c -0.54354,0.018 -1.0676618,0.1104 -1.59375,0.3125 -1.4000001,0.5374 -2.4103016,1.6137 -3.03125,2.7812 a 1.20012,1.20012 0 0 0 -0.125,0.5625 1.20012,1.20012 0 0 0 0,0.1251 c -0.369861,0.9251 -0.6701512,1.858 -0.6875,2.6875 -0.00856,0.4101 0.069243,0.6072 0.125,0.9062 -0.253122,0.1428 -0.4285686,0.208 -0.75,0.4688 -0.8934641,0.7221 -1.6830524,1.6865 -2.15625,2.875 -0.4696621,1.1796 -0.6883789,2.6237 -0.21875,4.0625 0.4696043,1.4391 1.5755661,2.5422 2.90625,3.125 1.3268694,0.5799 2.703784,0.6065 3.90625,0.3437 1.1946633,-0.2609 2.176886,-0.8014 2.9375,-1.3437 0.52539,0.272 1.009164,0.563 1.75,0.7187 1.11428,0.2341 2.43933,0.2451 3.75,-0.2187 1.3191257,-0.463 2.5091167,-1.4134 3.1562497,-2.7813 0.648161,-1.3737 0.601529,-2.878 0.125,-4.1875 -0.476241,-1.3087 -1.340967,-2.2948 -2.21875,-3 -0.5752027,-0.4636 -1.1102997,-0.6586 -1.6562497,-0.9062 -9.21e-4,-0.017 0.0012,-0.014 0,-0.031 -0.063142,-0.8823 -0.253017,-1.9881 -0.8125,-3.0938 -0.00373,-0.01 0.00376,-0.024 0,-0.031 l -0.03125,0 c -0.560916,-1.0876 -1.439854,-2.1623 -2.71875,-2.8125 -0.663941,-0.3381 -1.3793,-0.5177 -2.09375,-0.5625 -0.18044,-0.011 -0.38132,-0.01 -0.5625,0 z m 0.5,1.1875 c 0.559813,0.035 1.117251,0.1789 1.625,0.4375 1.012839,0.5149 1.750077,1.3912 2.21875,2.3125 0.470859,0.9186 0.630324,1.8574 0.6875,2.6563 0.0169,0.246 -0.02679,0.4016 -0.03125,0.625 0.655166,0.2348 1.407134,0.5776 2.125,1.1562 0.7540957,0.6058 1.4624237,1.4209 1.8437497,2.4688 0.381122,1.0473 0.399803,2.2352 -0.09375,3.2812 -0.494139,1.0445 -1.417048,1.787 -2.4687497,2.1563 -1.052839,0.3725 -2.148034,0.3549 -3.09375,0.1562 -0.906893,-0.1906 -1.620507,-0.577 -2.21875,-0.9375 -0.173293,0.1489 -0.262168,0.2907 -0.46875,0.4375 -0.655048,0.467 -1.4945642,0.9054 -2.5,1.125 -1.0070544,0.2201 -2.1459815,0.2052 -3.1875,-0.25 -1.0406265,-0.4558 -1.8594952,-1.3054 -2.21875,-2.4062 -0.3597506,-1.1022 -0.2017628,-2.2723 0.1875,-3.25 0.3892323,-0.9776 1.0229338,-1.7621 1.78125,-2.375 0.5164096,-0.4189 0.8937964,-0.5724 1.28125,-0.7813 -0.090681,-0.4672 -0.230999,-0.913 -0.21875,-1.5 0.018547,-0.8866 0.2097222,-1.8894 0.71875,-2.8438 l -0.03125,0 c 0.5073165,-0.9538 1.3306031,-1.8058 2.40625,-2.2187 0.5367998,-0.206 1.096437,-0.285 1.65625,-0.25 z m -0.5625,2 c -0.1383643,0.021 -0.2484871,0.077 -0.375,0.125 -0.5040333,0.1935 -1.0291683,0.6897 -1.34375,1.2813 -0.312899,0.5864 -0.4552243,1.3221 -0.46875,1.9687 -0.004755,0.2279 0.0727055,0.3875 0.09375,0.5938 0.0830156,-0.027 0.1400502,-0.039 0.21875,-0.062 0.5122759,-0.158 0.8526531,-0.2071 1.125,-0.25 a 1.0001,1.0001 0 0 1 0.03125,0 c 0.2433387,-0.038 0.5103823,-0.09 0.78125,-0.125 a 1.0001,1.0001 0 0 1 0.09375,-0.031 c 0.31313,-0.035 0.596657,-0.048 0.875,-0.062 a 1.0001,1.0001 0 0 1 0.03125,0 c 0.273249,0 0.597741,0.017 0.9375,0.031 0.011313,5e-4 0.019849,-4e-4 0.03125,0 0.305597,0.013 0.689186,0.043 1.09375,0.094 -0.043065,-0.6017 -0.189052,-1.2996 -0.5,-1.9062 -0.30914,-0.6077 -0.825017,-1.1738 -1.34375,-1.4376 -0.390051,-0.1989 -0.866157,-0.2817 -1.28125,-0.2187 z m 0.375,1.1875 c 0.126736,0 0.277244,0.044 0.375,0.094 0.186973,0.095 0.611425,0.5109 0.8125,0.9062 a 1.20012,1.20012 0 0 0 0,0.031 c 0.00855,0.017 -0.00827,0.044 0,0.062 -0.156467,-0.01 -0.308407,-0.032 -0.46875,-0.031 -0.00764,-10e-5 -0.023611,0 -0.03125,0 -0.015277,-10e-5 -0.047224,-2e-4 -0.0625,0 a 1.20012,1.20012 0 0 0 -0.03125,0 c -0.274733,0.014 -0.577498,0.023 -0.9375,0.062 a 1.20012,1.20012 0 0 0 -0.1875,0.031 c -0.021085,0.01 -0.04161,0.025 -0.0625,0.031 -0.2117786,0.031 -0.4030448,0.036 -0.5625,0.062 0.046946,-0.1544 0.06335,-0.3531 0.125,-0.4687 0.1852631,-0.3485 0.595169,-0.6714 0.71875,-0.7188 0.082799,-0.032 0.185764,-0.066 0.3125,-0.062 z m 0.71875,4.25 c -0.192349,0.01 -0.359974,0.016 -0.53125,0.031 -0.060991,0 -0.127049,0.021 -0.1875,0.031 -0.243008,0.029 -0.5246226,0.08 -0.8125,0.125 -0.2849541,0.045 -0.4419055,0.064 -0.84375,0.1875 a 1.0001,1.0001 0 0 1 -0.03125,0 c -0.1107055,0.034 -0.2100895,0.08 -0.34375,0.125 0.036452,0.087 0.087948,0.1992 0.125,0.2813 0.00354,0.01 -0.00354,0.021 0,0.031 0.1480535,0.3217 0.3050215,0.6073 0.4375,0.8438 0.1375086,0.2475 0.2711063,0.4495 0.40625,0.6562 0.133056,0.2051 0.2821747,0.3927 0.4375,0.5938 0.1558564,0.202 0.327344,0.4255 0.53125,0.6562 0.184719,0.2088 0.396213,0.4405 0.65625,0.6875 0.139372,-0.1824 0.298641,-0.3674 0.40625,-0.5312 a 1.0001,1.0001 0 0 1 0.03125,0 c 0.185205,-0.2771 0.306253,-0.5188 0.4375,-0.75 0.122956,-0.2167 0.241286,-0.4442 0.34375,-0.6563 0.00551,-0.011 0.02578,-0.019 0.03125,-0.031 0.098767,-0.2136 0.189748,-0.4515 0.28125,-0.6875 0.097042,-0.2572 0.184481,-0.4939 0.28125,-0.8125 0.05979,-0.1995 0.133673,-0.4559 0.1875,-0.6875 -0.384677,-0.052 -0.701986,-0.051 -1,-0.062 -0.292489,-0.012 -0.555182,-0.031 -0.8125,-0.031 -0.00988,10e-5 -0.02138,-1e-4 -0.03125,0 z m 3.71875,0.6875 c -0.054115,0.2159 -0.104139,0.4823 -0.15625,0.6563 -0.111701,0.3676 -0.205065,0.684 -0.3125,0.9687 -0.111902,0.2887 -0.251531,0.5791 -0.375,0.8438 -0.124835,0.2606 -0.251559,0.5086 -0.40625,0.7812 -0.15341,0.2703 -0.319516,0.5583 -0.53125,0.875 -0.10499,0.1598 -0.270841,0.3799 -0.40625,0.5625 0.364162,0.1819 0.704523,0.3738 1.15625,0.4688 0.65799,0.1378 1.436269,0.148 2.03125,-0.062 a 1.0001,1.0001 0 0 1 0,-0.031 c 0.592094,-0.2079 1.088975,-0.6212 1.3125,-1.0937 0.224109,-0.4749 0.247516,-1.1557 0.03125,-1.75 -0.216064,-0.5937 -0.693887,-1.2033 -1.21875,-1.625 -0.363888,-0.2933 -0.748176,-0.4263 -1.125,-0.5938 z m -3.71875,0.5 c -0.015778,2e-4 -0.00424,4e-4 0.03125,0 l 0.15625,0 a 1.20012,1.20012 0 0 0 0.03125,0 c -0.086264,0.2223 -0.149035,0.4431 -0.21875,0.5938 a 1.20012,1.20012 0 0 0 -0.03125,0 c -0.08155,0.1688 -0.153635,0.3582 -0.25,0.5312 -0.035492,-0.046 -0.089279,-0.079 -0.125,-0.125 -0.161871,-0.2096 -0.283001,-0.3893 -0.375,-0.5312 -0.078342,-0.1198 -0.120835,-0.2365 -0.1875,-0.3438 0.136946,-0.022 0.309128,-0.052 0.40625,-0.062 a 1.20012,1.20012 0 0 0 0.03125,0 c 0.124915,-0.021 0.170206,-0.037 0.09375,-0.031 0.114858,-0.01 0.269692,-0.023 0.4375,-0.031 z m -4.53125,0.1875 c -0.2060162,0.1296 -0.3406298,0.1891 -0.53125,0.3438 -0.5326838,0.4305 -0.9705005,0.939 -1.21875,1.5625 -0.2482162,0.6234 -0.2904696,1.368 -0.125,1.875 0.165965,0.5086 0.5899551,0.9843 1.125,1.2187 0.5381329,0.2352 1.3039305,0.2703 1.96875,0.125 0.6664671,-0.1456 1.2623972,-0.4649 1.75,-0.8125 a 1.0001,1.0001 0 0 1 0,-0.031 c -0.2974704,-0.2842 -0.5440911,-0.5486 -0.75,-0.7813 -0.2290994,-0.2591 -0.4400728,-0.5104 -0.625,-0.75 -0.1854869,-0.2402 -0.3676362,-0.4666 -0.53125,-0.7187 -0.1615546,-0.2471 -0.3095891,-0.4949 -0.46875,-0.7813 -0.1603235,-0.2863 -0.3244915,-0.6164 -0.5,-1 -0.030075,-0.066 -0.062594,-0.178 -0.09375,-0.25 z m 8.9375,1.25 c 0.208032,0.2462 0.460867,0.4941 0.53125,0.6875 0.106045,0.2914 0.048967,0.7401 0,0.8438 -0.045258,0.096 -0.304072,0.356 -0.625,0.4687 a 1.20012,1.20012 0 0 0 -0.09375,0.031 c -0.181607,0.049 -0.484371,0.01 -0.78125,0 0.020865,-0.036 0.042574,-0.09 0.0625,-0.125 0.170101,-0.2997 0.335419,-0.5655 0.46875,-0.8438 a 1.20012,1.20012 0 0 0 0,-0.031 c 0.119043,-0.2552 0.270747,-0.5567 0.40625,-0.9063 0.01497,-0.04 0.017067,-0.085 0.03125,-0.125 z m -9.3125,0.75 c 0.1377785,0.2417 0.2912118,0.4638 0.4375,0.6875 0.2064717,0.3183 0.4175961,0.5531 0.59375,0.7813 0.1139801,0.1476 0.2494692,0.2882 0.375,0.4375 -0.0220635,0.01 -0.0404556,0.027 -0.0625,0.031 -0.4376507,0.096 -1.0545295,0.054 -1.25,-0.031 -0.2017704,-0.088 -0.3900437,-0.3545 -0.4375,-0.5 -0.039191,-0.12 -0.050345,-0.7006 0.09375,-1.0625 0.047517,-0.1194 0.1765127,-0.2299 0.25,-0.3438 z"
       id="path3044"
       inkscape:connector-curvature="0" />
  </g>
</svg>
