<?xml version="1.0" encoding="UTF-8" standalone="no"?>
<!-- Created with Inkscape (http://www.inkscape.org/) -->

<svg
   xmlns:dc="http://purl.org/dc/elements/1.1/"
   xmlns:cc="http://creativecommons.org/ns#"
   xmlns:rdf="http://www.w3.org/1999/02/22-rdf-syntax-ns#"
   xmlns:svg="http://www.w3.org/2000/svg"
   xmlns="http://www.w3.org/2000/svg"
   xmlns:sodipodi="http://sodipodi.sourceforge.net/DTD/sodipodi-0.dtd"
   xmlns:inkscape="http://www.inkscape.org/namespaces/inkscape"
   version="1.1"
   width="16"
   height="16"
   viewBox="0 0 16 16"
   id="svg2"
   inkscape:version="0.48.3.1 r9886"
   sodipodi:docname="edittrash.svg">
  <sodipodi:namedview
     pagecolor="#ffffff"
     bordercolor="#666666"
     borderopacity="1"
     objecttolerance="10"
     gridtolerance="10"
     guidetolerance="10"
     inkscape:pageopacity="0"
     inkscape:pageshadow="2"
     inkscape:window-width="1920"
     inkscape:window-height="1032"
     id="namedview6"
     showgrid="true"
     inkscape:zoom="41.7193"
     inkscape:cx="12.712693"
     inkscape:cy="10.223633"
     inkscape:window-x="-7"
     inkscape:window-y="25"
     inkscape:window-maximized="1"
     inkscape:current-layer="svg2"
     inkscape:snap-bbox="true"
     inkscape:bbox-paths="true"
     inkscape:bbox-nodes="true"
     inkscape:snap-bbox-edge-midpoints="true"
     inkscape:snap-bbox-midpoints="true"
     inkscape:object-paths="true"
     inkscape:snap-intersection-paths="true"
     inkscape:object-nodes="true"
     inkscape:snap-smooth-nodes="true"
     inkscape:snap-midpoints="true"
     inkscape:snap-object-midpoints="true"
     inkscape:snap-center="true">
    <inkscape:grid
       type="xygrid"
       id="grid3751" />
  </sodipodi:namedview>
  <metadata
     id="metadata10">
    <rdf:RDF>
      <cc:Work
         rdf:about="">
        <dc:format>image/svg+xml</dc:format>
        <dc:type
           rdf:resource="http://purl.org/dc/dcmitype/StillImage" />
        <dc:title />
      </cc:Work>
    </rdf:RDF>
  </metadata>
  <defs
     id="defs8" />
  <path
     sodipodi:nodetypes="cccccccccccccccscccscccsccccscccsccccscccscccscc"
     inkscape:connector-curvature="0"
     id="path2983"
     d="M 6,1 5.96875,2 1,2 1,5 15,5 15,2 9.96875,2 10,1 z M 7,3 9,3 9,4 7,4 z M 2,6 C 2,6 1.1275611,8.7050785 1,10.5 0.87243886,12.294922 2,15 2,15 l 3,0 0,-1 C 5,14 3.5,11.990712 3.5,10.5 3.5,9.009288 5,6 5,6 z M 6,6 C 6,6 4.75,9.0446459 4.75,10.5 4.75,11.955354 6,14 6,14 l 0,1 1,0 0,-1 C 7,14 6,11.924001 6,10.5 6,9.0759994 7,6 7,6 z m 3,0 c 0,0 1,3.0759994 1,4.5 0,1.424001 -1,3.5 -1,3.5 l 0,1 1,0 0,-1 c 0,0 1.25,-2.044646 1.25,-3.5 C 11.25,9.0446459 10,6 10,6 z m 2,0 c 0,0 1.5,3.009288 1.5,4.5 0,1.490712 -1.5,3.5 -1.5,3.5 l 0,1 3,0 c 0,0 1.127561,-2.705078 1,-4.5 C 14.872439,8.7050785 14,6 14,6 z"
     style="fill:#434a54;fill-opacity:0.6745098" />
  <path
     style="font-size:medium;font-style:normal;font-variant:normal;font-weight:normal;font-stretch:normal;text-indent:0;text-align:start;text-decoration:none;line-height:normal;letter-spacing:normal;word-spacing:normal;text-transform:none;direction:ltr;block-progression:tb;writing-mode:lr-tb;text-anchor:start;baseline-shift:baseline;color:#000000;fill:#d1d4d6;fill-opacity:0.74329164;fill-rule:nonzero;stroke:none;stroke-width:2;marker:none;visibility:visible;display:inline;overflow:visible;enable-background:accumulate;font-family:Sans;-inkscape-font-specification:Sans"
     d="M 6,0 6,1 1,1 0,1 0,2 0,5 0,6 1,6 C 0.8964711,6.3158047 0.13586404,8.5257472 0,10.4375 -0.08106814,11.578216 0.21820594,12.764442 0.5,13.71875 0.78179406,14.673058 1.0625,15.375 1.0625,15.375 L 1.34375,16 2,16 l 3,0 1,0 1,0 1,0 1,0 1,0 1,0 3,0 0.65625,0 0.28125,-0.625 c 0,0 0.280706,-0.701942 0.5625,-1.65625 C 15.781794,12.764442 16.081068,11.578216 16,10.4375 15.864136,8.5257472 15.103529,6.3158047 15,6 l 1,0 0,-1 0,-3 0,-1 -1,0 -5,0 0,-1 z m -1,1 6,0 0,1 4,0 0,3 L 1,5 1,2 5,2 z m -3,5 2,0 1,0 1,0 4,0 1,0 2,0 1,0 c 0,0 0.872439,2.7050785 1,4.5 0.127561,1.794922 -1,4.5 -1,4.5 l -1,0 -2,0 -1,0 -4,0 -1,0 -1,0 -2,0 C 2,15 0.87243886,12.294922 1,10.5 1.1275611,8.7050785 2,6 2,6 z M 4.15625,8 C 3.8243566,8.8694864 3.5,9.8329593 3.5,10.5 c 0,0.830864 0.4624812,1.78463 0.875,2.5 L 5.5,13 C 5.1531514,12.276745 4.75,11.321235 4.75,10.5 4.75,9.8426701 5.0015987,8.8787928 5.28125,8 z m 6.5625,0 c 0.279651,0.8787928 0.53125,1.8426701 0.53125,2.5 0,0.821235 -0.403151,1.776745 -0.75,2.5 l 1.125,0 C 12.037519,12.28463 12.5,11.330864 12.5,10.5 12.5,9.8329593 12.175643,8.8694864 11.84375,8 z"
     id="path3001"
     inkscape:connector-curvature="0"
     sodipodi:nodetypes="ccccccccsscccccccccccccssccccccccccccccccccccccccccsccccccccsccsccscccsccscc" />
</svg>
