<?xml version="1.0" encoding="UTF-8" standalone="no"?>
<!-- Created with Inkscape (http://www.inkscape.org/) -->
<svg xmlns:dc="http://purl.org/dc/elements/1.1/" xmlns:cc="http://creativecommons.org/ns#" xmlns:rdf="http://www.w3.org/1999/02/22-rdf-syntax-ns#" xmlns:svg="http://www.w3.org/2000/svg" xmlns="http://www.w3.org/2000/svg" xmlns:sodipodi="http://sodipodi.sourceforge.net/DTD/sodipodi-0.dtd" xmlns:inkscape="http://www.inkscape.org/namespaces/inkscape" sodipodi:docname="distributor-logo-ubuntu-studio.svg" inkscape:version="0.48.4 r9939" version="1.1" id="svg13094" height="18" width="18">
  <sodipodi:namedview id="base" pagecolor="#ffffff" bordercolor="#666666" borderopacity="1.0" inkscape:pageopacity="0.0" inkscape:pageshadow="2" inkscape:zoom="33.1315" inkscape:cx="12.82055" inkscape:cy="8.356015" inkscape:document-units="px" inkscape:current-layer="layer1" showgrid="true" inkscape:snap-bbox="true" inkscape:bbox-paths="true" inkscape:bbox-nodes="true" inkscape:snap-bbox-edge-midpoints="true" inkscape:snap-bbox-midpoints="true" inkscape:object-paths="true" inkscape:snap-intersection-paths="true" inkscape:object-nodes="true" inkscape:snap-smooth-nodes="true" inkscape:snap-midpoints="true" inkscape:snap-object-midpoints="true" inkscape:snap-center="true" showguides="false" inkscape:guide-bbox="true" inkscape:window-width="1920" inkscape:window-height="1022" inkscape:window-x="-5" inkscape:window-y="23" inkscape:window-maximized="1" inkscape:snap-global="true" fit-margin-top="0" fit-margin-left="0" fit-margin-right="0" fit-margin-bottom="0" showborder="true" inkscape:showpageshadow="false">
    <sodipodi:guide orientation="0,1" position="7904.3893,1688.6364" id="guide16149"/>
    <sodipodi:guide orientation="0,1" position="7677.2464,1639.6277" id="guide16151"/>
    <sodipodi:guide orientation="0,1" position="7742.9606,1664.132" id="guide16153"/>
    <sodipodi:guide orientation="0,1" position="7736.5321,1583.9848" id="guide17725"/>
    <sodipodi:guide orientation="1,0" position="8234.0303,1192.115" id="guide9456"/>
    <sodipodi:guide orientation="0,1" position="8058.2804,1557.1639" id="guide9458"/>
    <sodipodi:guide orientation="0,1" position="7829.5106,1502.2585" id="guide9468"/>
    <sodipodi:guide orientation="0,1" position="7854.0304,1523.6285" id="guide9470"/>
    <sodipodi:guide orientation="1,0" position="7722.0304,1237.629" id="guide11159"/>
    <sodipodi:guide orientation="1,0" position="8035.0616,1501.6635" id="guide13980"/>
    <sodipodi:guide id="guide3972" position="6181.0305,126.62899" orientation="0,1"/>
    <sodipodi:guide id="guide3974" position="6361.0305,-1.3710498" orientation="1,0"/>
    <sodipodi:guide id="guide3976" position="6055.0305,-236.37095" orientation="0,1"/>
    <sodipodi:guide id="guide3978" position="6028.0305,-95.37105" orientation="1,0"/>
    <sodipodi:guide id="guide4287" position="1377.8013,1369.629" orientation="1,0"/>
    <sodipodi:guide id="guide4289" position="1377.8013,1369.629" orientation="0,1"/>
    <inkscape:grid type="xygrid" id="grid3918" empspacing="5" visible="true" enabled="true" snapvisiblegridlinesonly="true" originx="0.00017297285px" originy="71.999982px"/>
  </sodipodi:namedview>
  <defs id="defs13096"/>
  <metadata id="metadata13099">
    <rdf:RDF>
      <cc:Work rdf:about="">
        <dc:format>image/svg+xml</dc:format>
        <dc:type rdf:resource="http://purl.org/dc/dcmitype/StillImage"/>
        <dc:title/>
      </cc:Work>
    </rdf:RDF>
  </metadata>
  <g inkscape:label="Camada 1" inkscape:groupmode="layer" id="layer1" transform="translate(9368.675,-1544.5613)">
    <path style="opacity:1;color:#000000;fill:#434a54;fill-opacity:0.67450982;fill-rule:nonzero;stroke:none;stroke-width:0.45882547000000001;stroke-linecap:round;stroke-linejoin:round;stroke-miterlimit:4;stroke-opacity:1;stroke-dasharray:none;stroke-dashoffset:0;marker:none;visibility:visible;display:inline;overflow:visible;enable-background:accumulate" d="M 8 0 C 3.581722 2.3684758e-15 0 3.581722 0 8 C 0 12.418278 3.581722 16 8 16 C 12.418278 16 16 12.418278 16 8 C 16 3.581722 12.418278 -1.7763568e-15 8 0 z M 9.5 1.21875 A 0.50004999 0.50004999 0 0 1 9.6875 1.21875 A 0.50004999 0.50004999 0 0 1 9.84375 1.21875 C 11.03065 1.53675 12.0686 2.1936 12.9375 3.0625 A 0.50004999 0.50004999 0 0 1 13 3.125 A 0.50004999 0.50004999 0 0 1 13.09375 3.34375 A 0.50004999 0.50004999 0 0 1 13.09375 3.46875 A 0.50004999 0.50004999 0 0 1 12.46875 3.875 A 0.50004999 0.50004999 0 0 1 12.28125 3.75 C 11.53645 3.0053 10.5798 2.4601 9.5625 2.1875 A 0.50004999 0.50004999 0 0 1 9.5 2.1875 A 0.50004999 0.50004999 0 0 1 9.34375 2.125 A 0.50004999 0.50004999 0 0 1 9.28125 2.03125 A 0.50004999 0.50004999 0 0 1 9.21875 1.90625 A 0.50004999 0.50004999 0 0 1 9.15625 1.78125 A 0.50004999 0.50004999 0 0 1 9.21875 1.5625 A 0.50004999 0.50004999 0 0 1 9.5 1.21875 z M 8 3 C 9.2806 3 10.5258 3.5258 11.5 4.5 C 13.4484 6.4484 13.4484 9.5516 11.5 11.5 C 9.5516 13.4484 6.4484 13.4484 4.5 11.5 A 0.50005 0.50005 0 1 1 5.1875 10.8125 C 6.7538 12.3787 9.2462 12.3787 10.8125 10.8125 C 12.3787 9.2462 12.3787 6.7538 10.8125 5.1875 C 9.2462 3.6213 6.7538 3.6213 5.1875 5.1875 A 0.50005 0.50005 0 1 1 4.5 4.5 C 5.4742 3.5258 6.7193 3 8 3 z M 8 5 C 9.6509 5 11 6.349 11 8 C 11 9.6509 9.6509 11 8 11 C 6.349 11 5 9.6509 5 8 C 5 6.349 6.349 5 8 5 z M 1.625 5.8125 A 0.50004999 0.50004999 0 0 1 1.78125 5.84375 A 0.50004999 0.50004999 0 0 1 1.90625 5.84375 A 0.50004999 0.50004999 0 0 1 2.25 6.375 A 0.50004999 0.50004999 0 0 1 2.1875 6.4375 C 1.9149 7.4549 1.9149 8.5451 2.1875 9.5625 A 0.50004999 0.50004999 0 0 1 2.25 9.75 A 0.50004999 0.50004999 0 0 1 2.1875 9.90625 A 0.50004999 0.50004999 0 0 1 1.84375 10.15625 A 0.50004999 0.50004999 0 0 1 1.625 10.15625 A 0.50004999 0.50004999 0 0 1 1.375 10.03125 A 0.50004999 0.50004999 0 0 1 1.28125 9.96875 A 0.50004999 0.50004999 0 0 1 1.21875 9.84375 C 0.90065 8.65695 0.90065 7.3744 1.21875 6.1875 A 0.50004999 0.50004999 0 0 1 1.28125 6.03125 A 0.50004999 0.50004999 0 0 1 1.375 5.96875 A 0.50004999 0.50004999 0 0 1 1.4375 5.90625 A 0.50004999 0.50004999 0 0 1 1.5 5.84375 A 0.50004999 0.50004999 0 0 1 1.5625 5.84375 A 0.50004999 0.50004999 0 0 1 1.625 5.8125 z M 8 6 C 6.8895 6 6 6.8895 6 8 C 6 9.1105 6.8895 10 8 10 C 9.1105 10 10 9.1105 10 8 C 10 6.8895 9.1105 6 8 6 z M 3.53125 6.3125 A 0.50005 0.50005 0 0 1 3.59375 6.3125 A 0.50005 0.50005 0 0 1 4.15625 6.96875 C 3.97445 7.64695 3.97445 8.35305 4.15625 9.03125 A 0.51190161 0.51190161 0 0 1 3.1875 9.3125 C 2.9604 8.4647 2.9604 7.5353 3.1875 6.6875 A 0.50005 0.50005 0 0 1 3.53125 6.3125 z M 12.53125 12.0625 A 0.50004999 0.50004999 0 0 1 12.59375 12.0625 A 0.50004999 0.50004999 0 0 1 12.8125 12.125 A 0.50004999 0.50004999 0 0 1 13 12.34375 A 0.50004999 0.50004999 0 0 1 13.0625 12.46875 A 0.50004999 0.50004999 0 0 1 13.0625 12.6875 A 0.50004999 0.50004999 0 0 1 12.9375 12.9375 C 12.0686 13.8063 10.9994 14.46315 9.8125 14.78125 A 0.50004999 0.50004999 0 0 1 9.75 14.78125 A 0.50004999 0.50004999 0 0 1 9.5625 14.78125 A 0.50004999 0.50004999 0 0 1 9.40625 14.71875 A 0.50004999 0.50004999 0 0 1 9.28125 14.5625 A 0.50004999 0.50004999 0 0 1 9.21875 14.4375 A 0.50004999 0.50004999 0 0 1 9.15625 14.3125 A 0.50004999 0.50004999 0 0 1 9.21875 14.09375 A 0.50004999 0.50004999 0 0 1 9.28125 13.96875 A 0.50004999 0.50004999 0 0 1 9.34375 13.90625 A 0.50004999 0.50004999 0 0 1 9.5 13.8125 A 0.50004999 0.50004999 0 0 1 9.5625 13.8125 C 10.5798 13.5399 11.5052 13.02595 12.25 12.28125 A 0.50004999 0.50004999 0 0 1 12.46875 12.125 A 0.50004999 0.50004999 0 0 1 12.53125 12.0625 z " transform="translate(-9367.675,1545.5613)" id="path3013"/>
  </g>
</svg>
