<?xml version="1.0" encoding="UTF-8" standalone="no"?>
<!-- Created with Inkscape (http://www.inkscape.org/) -->
<svg xmlns:dc="http://purl.org/dc/elements/1.1/" xmlns:cc="http://creativecommons.org/ns#" xmlns:rdf="http://www.w3.org/1999/02/22-rdf-syntax-ns#" xmlns:svg="http://www.w3.org/2000/svg" xmlns="http://www.w3.org/2000/svg" xmlns:sodipodi="http://sodipodi.sourceforge.net/DTD/sodipodi-0.dtd" xmlns:inkscape="http://www.inkscape.org/namespaces/inkscape" width="18" height="18" id="svg27665" version="1.1" inkscape:version="0.48.4 r9939" sodipodi:docname="acroread.svg">
  <defs id="defs27667">
    <inkscape:path-effect effect="skeletal" id="path-effect3037" is_visible="true" pattern="M 2.5,0 C 1.91075,5e-5 1.2901875,0.2499875 0.8125,0.5 L 0,0.5 0,1 0,1.5 0.8125,1.5 C 1.290175,1.7499625 1.9108,1.99995 2.5,2 3.08935,1.99995 3.7098125,1.7499625 4.1875,1.5 L 5,1.5 5,1 5,0.5 4.1875,0.5 C 3.7098125,0.2499875 3.08925,5e-5 2.5,0 z" copytype="single_stretched" prop_scale="1" scale_y_rel="false" spacing="0" normal_offset="0" tang_offset="0" prop_units="false" vertical_pattern="false" fuse_tolerance="0"/>
    <inkscape:path-effect effect="skeletal" id="path-effect3005" is_visible="true" pattern="m -3361.9171,2100.7186 c -0.5893,10e-5 -1.2098,0.25 -1.6875,0.5 l -0.8125,0 0,0.5 0,0.5 0.8125,0 c 0.4777,0.25 1.0983,0.5 1.6875,0.5 0.5893,0 1.2098,-0.25 1.6875,-0.5 l 0.8125,0 0,-0.5 0,-0.5 -0.8125,0 c -0.4777,-0.25 -1.0983,-0.4999 -1.6875,-0.5 z" copytype="single_stretched" prop_scale="1" scale_y_rel="false" spacing="0" normal_offset="0" tang_offset="0" prop_units="false" vertical_pattern="false" fuse_tolerance="0"/>
  </defs>
  <sodipodi:namedview id="base" pagecolor="#ffffff" bordercolor="#666666" borderopacity="1.0" inkscape:pageopacity="0.0" inkscape:pageshadow="2" inkscape:zoom="32" inkscape:cx="11.955546" inkscape:cy="6.8982665" inkscape:document-units="px" inkscape:current-layer="layer1" showgrid="true" inkscape:window-width="1920" inkscape:window-height="1025" inkscape:window-x="-2" inkscape:window-y="32" inkscape:window-maximized="1" inkscape:snap-bbox="true" inkscape:bbox-paths="true" inkscape:bbox-nodes="true" inkscape:snap-bbox-edge-midpoints="true" inkscape:snap-bbox-midpoints="true" inkscape:object-paths="true" inkscape:snap-intersection-paths="true" inkscape:object-nodes="true" inkscape:snap-smooth-nodes="true" inkscape:snap-midpoints="true" inkscape:snap-object-midpoints="true" inkscape:snap-center="true" inkscape:snap-global="false" showguides="false" inkscape:guide-bbox="true" fit-margin-top="0" fit-margin-left="0" fit-margin-right="0" fit-margin-bottom="0" inkscape:showpageshadow="false">
    <sodipodi:guide orientation="0,1" position="599.99999,299.99993" id="guide3572"/>
    <sodipodi:guide orientation="1,0" position="294.41949,12.121716" id="guide3574"/>
    <sodipodi:guide orientation="0,1" position="456.04389,599.99992" id="guide3576"/>
    <sodipodi:guide orientation="0,1" position="-2.8882813e-06,-8.4406273e-05" id="guide3578"/>
    <sodipodi:guide orientation="1,0" position="-2.8882813e-06,157.58366" id="guide3580"/>
    <sodipodi:guide orientation="1,0" position="599.99999,121.21821" id="guide3582"/>
    <sodipodi:guide orientation="0,1" position="599.99999,-714.34359" id="guide5928"/>
    <sodipodi:guide orientation="0,1" position="599.99999,-414.34359" id="guide5930"/>
    <sodipodi:guide orientation="0,1" position="599.99999,-1014.3435" id="guide5932"/>
    <sodipodi:guide orientation="0,1" position="451.57029,524.99606" id="guide5294"/>
    <sodipodi:guide orientation="0,1" position="451.57029,75.013516" id="guide5296"/>
    <sodipodi:guide orientation="0,1" position="496.01499,-931.36409" id="guide5413"/>
    <sodipodi:guide orientation="0,1" position="457.34859,-489.34389" id="guide5415"/>
    <inkscape:grid type="xygrid" id="grid3070" empspacing="5" visible="true" enabled="true" snapvisiblegridlinesonly="true" originx="4.3243213e-05px" originy="-2.6947047e-05px"/>
  </sodipodi:namedview>
  <metadata id="metadata27670">
    <rdf:RDF>
      <cc:Work rdf:about="">
        <dc:format>image/svg+xml</dc:format>
        <dc:type rdf:resource="http://purl.org/dc/dcmitype/StillImage"/>
        <dc:title/>
      </cc:Work>
    </rdf:RDF>
  </metadata>
  <g inkscape:label="Camada 1" inkscape:groupmode="layer" id="layer1" transform="translate(3364.4171,-2100.7186)">
    <path style="color:#000000;fill:#434a55;fill-opacity:0.6745098;fill-rule:nonzero;stroke:none;stroke-width:1;marker:none;visibility:visible;display:inline;overflow:visible;enable-background:accumulate" d="m -3356.0814,2108.4674 c -0.4112,-0.3836 -0.7907,-0.8064 -1.1282,-1.2605 0,0 0,0 0,0 -0.8956,-1.2681 -1.5615,-2.7599 -1.3276,-4.1138 -0.1173,0.1612 -0.092,0.185 -0.1039,0.1493 0.1022,-0.054 0.2932,-0.021 0.5007,0.037 0.4709,0.084 0.8057,0.7813 0.7502,1.3557 -0.2026,1.7088 -0.4464,3.3211 -0.7893,4.7564 -0.2665,0.8971 -0.5836,1.7731 -0.9707,2.6175 0,0 0,0 0,0 -0.4021,0.8599 -0.8422,1.6839 -1.4898,2.2485 0,0 0,0 0,0 -0.4512,0.3886 -1.0612,0.6316 -1.561,0.4765 l -0.1224,0.4848 -0.1224,0.4848 c 0.9185,0.2031 1.8321,-0.1145 2.4719,-0.7003 0,0 0,0 0,0 0.8052,-0.7328 1.3265,-1.6669 1.7334,-2.579 0,0 0,0 0,0 0.4068,-0.8945 0.7399,-1.8139 1.0187,-2.7475 0.5156,-1.4471 0.9347,-3.0894 1.2778,-4.8117 0.2248,-1.1877 -0.3092,-2.5038 -1.5593,-3.1302 -0.4348,-0.2077 -0.9712,-0.2943 -1.5515,-0.1807 -0.5489,0.096 -1.0278,0.5179 -1.2423,1.2277 -0.3619,2.0132 0.3415,4.0554 1.4832,5.5909 0,0 0,0 0,0 0.4032,0.5655 0.8629,1.0886 1.3669,1.5587 1.0884,1.0154 2.4124,1.8057 3.8502,2.2627 1.1104,0.4635 2.6493,0.3661 3.7313,-0.7472 0.6958,-0.9543 0.6607,-2.1588 0.039,-3.0374 -0.6469,-0.6586 -1.326,-0.7764 -1.7565,-0.6542 -0.7727,0.052 -1.4601,0.2495 -2.0776,0.4621 -1.5059,0.5065 -2.85,1.1629 -4.04,1.828 -0.3006,0.1479 -0.5986,0.2998 -0.8941,0.4549 0,0 0,0 0,0 -1.4033,0.7288 -2.8425,1.5303 -4.0421,2.6805 -0.3315,0.2655 -0.7246,0.6986 -0.8369,1.3609 -0.022,0.2887 0.076,0.5634 0.2794,0.7766 0.2558,0.2316 0.5246,0.3438 0.7481,0.3852 l 0.1224,-0.4848 0.1224,-0.4848 c -0.1523,-0.053 -0.2664,-0.077 -0.2839,-0.1208 0.01,0.016 0,0.01 0.01,0.018 -0.036,-0.1834 0.2563,-0.4065 0.5356,-0.7309 1.0643,-1.0364 2.4265,-1.7823 3.8114,-2.514 0,0 0,0 0,0 0.289,-0.1511 0.5796,-0.2989 0.8718,-0.4425 1.219,-0.5196 2.5589,-1.0195 3.9928,-1.3653 0.6017,-0.141 1.1843,-0.2668 1.7262,-0.2503 0.327,0.1015 0.5579,0.034 0.3439,0.012 0.1749,0.2926 0.1582,0.8087 -0.059,0.9771 -0.144,0.3945 -0.9748,0.2108 -1.7331,0.051 -1.1462,-0.4052 -2.2056,-1.0721 -3.0938,-1.9008 z" id="path3003" inkscape:connector-curvature="0" inkscape:path-effect="#path-effect3005" inkscape:original-d="m -3362.3234,2115.2186 c 2.9607,0.7476 4.8286,-5.2637 5.6563,-10.4687 0.3853,-2.4226 -2.5479,-2.9544 -2.75,-1.8125 -0.5497,3.1059 2.2556,7.0525 6.1249,8.3437 2.7415,0.9148 3.6172,-1.1766 2.7813,-2.4062 -1.3402,-1.9716 -15.6594,5.3723 -11.8125,6.3437 z" sodipodi:nodetypes="ssssss" transform="translate(1,1)"/>
  </g>
</svg>
