<?xml version="1.0" encoding="UTF-8" standalone="no"?>
<!-- Created with Inkscape (http://www.inkscape.org/) -->

<svg
   xmlns:dc="http://purl.org/dc/elements/1.1/"
   xmlns:cc="http://creativecommons.org/ns#"
   xmlns:rdf="http://www.w3.org/1999/02/22-rdf-syntax-ns#"
   xmlns:svg="http://www.w3.org/2000/svg"
   xmlns="http://www.w3.org/2000/svg"
   xmlns:sodipodi="http://sodipodi.sourceforge.net/DTD/sodipodi-0.dtd"
   xmlns:inkscape="http://www.inkscape.org/namespaces/inkscape"
   version="1.1"
   width="22"
   height="22"
   id="svg13094"
   inkscape:version="0.48.3.1 r9886"
   sodipodi:docname="folder-copy-cloud.svg"
   inkscape:export-filename="folder.png"
   inkscape:export-xdpi="90"
   inkscape:export-ydpi="90">
  <sodipodi:namedview
     pagecolor="#ffffff"
     bordercolor="#666666"
     borderopacity="1"
     objecttolerance="10"
     gridtolerance="10"
     guidetolerance="10"
     inkscape:pageopacity="0"
     inkscape:pageshadow="2"
     inkscape:window-width="1920"
     inkscape:window-height="1023"
     id="namedview6"
     showgrid="true"
     inkscape:snap-bbox="true"
     inkscape:bbox-paths="true"
     inkscape:bbox-nodes="true"
     inkscape:snap-bbox-edge-midpoints="true"
     inkscape:snap-bbox-midpoints="true"
     inkscape:object-paths="true"
     inkscape:snap-intersection-paths="true"
     inkscape:object-nodes="true"
     inkscape:snap-smooth-nodes="true"
     inkscape:snap-midpoints="true"
     inkscape:snap-object-midpoints="true"
     inkscape:snap-center="true"
     inkscape:zoom="29.5"
     inkscape:cx="10.501239"
     inkscape:cy="11.049657"
     inkscape:window-x="-10"
     inkscape:window-y="35"
     inkscape:window-maximized="1"
     inkscape:current-layer="svg13094"
     inkscape:snap-global="true">
    <inkscape:grid
       type="xygrid"
       id="grid2983"
       empspacing="5"
       visible="true"
       enabled="true"
       snapvisiblegridlinesonly="true" />
  </sodipodi:namedview>
  <defs
     id="defs7" />
  <metadata
     id="metadata13099">
    <rdf:RDF>
      <cc:Work
         rdf:about="">
        <dc:format>image/svg+xml</dc:format>
        <dc:type
           rdf:resource="http://purl.org/dc/dcmitype/StillImage" />
        <dc:title />
      </cc:Work>
    </rdf:RDF>
  </metadata>
  <path
     style="color:#000000;fill:#434a54;fill-opacity:0.6745098;fill-rule:nonzero;stroke:none;stroke-width:1;marker:none;visibility:visible;display:inline;overflow:visible;enable-background:accumulate"
     d="m 18.728533,2.0635744 -4.972212,7.3970736 2.451005,1.06186 z M 4.8360511,6.9721064 1.4902759,10.337753 1.6883936,10.701985 5.1279612,9.66637 7.3290416,19.360601 10.390716,17.24559 20.024704,19.0328 20.017035,18.498653 17,12 14.989996,11.234188 9.185596,15.391478 9.145326,15.310948 5.949479,6.9964699 z M 12.07106,9.895022 8.5853891,11.081688 9.81286,13.543578 13.853303,10.758879 z"
     id="path2995"
     inkscape:connector-curvature="0"
     sodipodi:nodetypes="ccccccccccccccccccccccc" />
  <path
     style="font-size:medium;font-style:normal;font-variant:normal;font-weight:normal;font-stretch:normal;text-indent:0;text-align:start;text-decoration:none;line-height:normal;letter-spacing:normal;word-spacing:normal;text-transform:none;direction:ltr;block-progression:tb;writing-mode:lr-tb;text-anchor:start;baseline-shift:baseline;color:#000000;fill:#d1d4d6;fill-opacity:0.74329164;fill-rule:nonzero;stroke:none;stroke-width:2;marker:none;visibility:visible;display:inline;overflow:visible;enable-background:accumulate;font-family:Sans;-inkscape-font-specification:Sans"
     d="M 19.625,0.03125 17.78125,1.4375 12.8125,8.8125 12.71875,8.9375 12.5625,8.875 12.15625,8.65625 11.6875,8.8125 8.3125,9.96875 7.03125,6.59375 6.8125,6 4.1875,6 4.03125,6.15625 0.6875,9.53125 0.0625,10.125 l 0.40625,0.75 0.21875,0.375 0.4375,0.8125 0.90625,-0.25 2.25,-0.6875 1.9375,8.5 0.375,1.65625 1.375,-0.96875 2.65625,-1.84375 9.1875,1.6875 L 21,20.375 l 0,-2.5 -2.96875,-6.34375 -0.1875,-0.4375 -0.4375,-0.15625 -0.09375,-0.03125 0,-0.0625 2.53125,-8.4375 -0.21875,-2.375 z m -0.90625,2.03125 -2.5,8.46875 L 13.75,9.46875 18.71875,2.0625 z M 4.84375,6.96875 5.9375,7 9.15625,15.3125 9.1875,15.40625 15,11.21875 17,12 l 3.03125,6.5 0,0.53125 L 10.40625,17.25 7.34375,19.375 5.125,9.65625 1.6875,10.6875 1.5,10.34375 4.84375,6.96875 z M 12.0625,9.90625 13.84375,10.75 9.8125,13.53125 8.59375,11.09375 12.0625,9.90625 z"
     id="path3040"
     inkscape:connector-curvature="0" />
</svg>
