<?xml version="1.0" encoding="UTF-8" standalone="no"?>
<!-- Created with Inkscape (http://www.inkscape.org/) -->

<svg
   xmlns:dc="http://purl.org/dc/elements/1.1/"
   xmlns:cc="http://creativecommons.org/ns#"
   xmlns:rdf="http://www.w3.org/1999/02/22-rdf-syntax-ns#"
   xmlns:svg="http://www.w3.org/2000/svg"
   xmlns="http://www.w3.org/2000/svg"
   xmlns:sodipodi="http://sodipodi.sourceforge.net/DTD/sodipodi-0.dtd"
   xmlns:inkscape="http://www.inkscape.org/namespaces/inkscape"
   version="1.1"
   width="22"
   height="22"
   viewBox="0 0 22 22"
   id="svg2"
   inkscape:version="0.48.3.1 r9886"
   sodipodi:docname="user-trash-full.svg">
  <sodipodi:namedview
     pagecolor="#ffffff"
     bordercolor="#666666"
     borderopacity="1"
     objecttolerance="10"
     gridtolerance="10"
     guidetolerance="10"
     inkscape:pageopacity="0"
     inkscape:pageshadow="2"
     inkscape:window-width="1920"
     inkscape:window-height="1033"
     id="namedview6"
     showgrid="true"
     inkscape:zoom="29.5"
     inkscape:cx="10.495454"
     inkscape:cy="12.60371"
     inkscape:window-x="-10"
     inkscape:window-y="25"
     inkscape:window-maximized="1"
     inkscape:current-layer="svg2"
     inkscape:snap-bbox="true"
     inkscape:bbox-paths="true"
     inkscape:bbox-nodes="true"
     inkscape:snap-bbox-edge-midpoints="true"
     inkscape:snap-bbox-midpoints="true"
     inkscape:object-paths="true"
     inkscape:snap-intersection-paths="true"
     inkscape:object-nodes="true"
     inkscape:snap-smooth-nodes="true"
     inkscape:snap-midpoints="true"
     inkscape:snap-object-midpoints="true"
     inkscape:snap-center="true">
    <inkscape:grid
       type="xygrid"
       id="grid3751"
       empspacing="5"
       visible="true"
       enabled="true"
       snapvisiblegridlinesonly="true" />
  </sodipodi:namedview>
  <metadata
     id="metadata10">
    <rdf:RDF>
      <cc:Work
         rdf:about="">
        <dc:format>image/svg+xml</dc:format>
        <dc:type
           rdf:resource="http://purl.org/dc/dcmitype/StillImage" />
        <dc:title />
      </cc:Work>
    </rdf:RDF>
  </metadata>
  <defs
     id="defs8" />
  <path
     style="font-size:medium;font-style:normal;font-variant:normal;font-weight:normal;font-stretch:normal;text-indent:0;text-align:start;text-decoration:none;line-height:normal;letter-spacing:normal;word-spacing:normal;text-transform:none;direction:ltr;block-progression:tb;writing-mode:lr-tb;text-anchor:start;baseline-shift:baseline;color:#000000;fill:#d1d4d6;fill-opacity:0.74329164;fill-rule:nonzero;stroke:none;stroke-width:2;marker:none;visibility:visible;display:inline;overflow:visible;enable-background:accumulate;font-family:Sans;-inkscape-font-specification:Sans"
     d="M 2.375,8 C 2.2685244,8.215039 2.157885,8.457468 2.0625,8.75 1.6755868,9.936605 1.25,11.322413 1.25,12.5 c 0,1.460773 0.4600703,2.546968 0.84375,3.375 C 2.4774297,16.703032 3,17.25 3,18 l 0,1 0,1 16,0 0,-1 0,-1 c 0,-0.756319 0.5293,-1.329071 0.90625,-2.15625 C 20.2832,15.016571 20.728118,13.942856 20.75,12.5 20.768091,11.307132 20.359815,9.938555 19.96875,8.75 19.872239,8.456677 19.766569,8.215149 19.65625,8 L 18.375,8 c 0.449958,1.219221 1.143597,3.273742 1.125,4.5 C 19.46208,15 18,16 18,18 l 0,1 -14,0 0,-1 C 4,16 2.5,15.025601 2.5,12.5 2.5,11.273601 3.1812292,9.219174 3.625,8 L 2.375,8 z M 6.3125,9 C 5.9084242,10.249207 5.5,11.690943 5.5,12.5 5.5,13.990712 7,17 7,17 l 1,0 C 8,17 6.75,13.955354 6.75,12.5 6.75,11.700505 7.0975022,10.262504 7.4375,9 l -1.125,0 z m 8.25,0 C 14.902498,10.262504 15.25,11.700505 15.25,12.5 15.25,13.955354 14,17 14,17 l 1,0 c 0,0 1.5,-3.009288 1.5,-4.5 0,-0.809057 -0.408424,-2.250793 -0.8125,-3.5 l -1.125,0 z"
     id="path3001"
     inkscape:connector-curvature="0" />
  <path
     style="fill:#434a54;fill-opacity:0.6745098"
     d="M 8,2 7.96875,3 2,3 2,6 20,6 20,3 13.96875,3 14,2 z m 1,2 4,0 0,1 -4,0 z M 4,7 C 4,7 2.5,10.700551 2.5,12.5 2.5,15.025601 4,16 4,18 l 0,1 3,0 0,-2 C 7,17 5.5,13.990712 5.5,12.5 5.5,11.009288 7,7 7,7 z M 8,7 C 8,7 6.75,11.044646 6.75,12.5 6.75,13.955354 8,17 8,17 l 0,2 1,0 0,-2 C 9,17 8,13.924001 8,12.5 8,11.075999 9,7 9,7 z m 5,0 c 0,0 1,4.075999 1,5.5 0,1.424001 -1,4.5 -1,4.5 l 0,2 1,0 0,-2 c 0,0 1.25,-3.044646 1.25,-4.5 C 15.25,11.044646 14,7 14,7 z m 2,0 c 0,0 1.5,4.009288 1.5,5.5 0,1.490712 -1.5,4.5 -1.5,4.5 l 0,2 3,0 0,-1 c 0,-2 1.462085,-3 1.5,-5.5 C 19.52729,10.700758 18,7 18,7 z"
     id="path3771"
     inkscape:connector-curvature="0"
     sodipodi:nodetypes="cccccccccccccccsscccscccsccccscccsccccscccscccsscc" />
  <path
     inkscape:connector-curvature="0"
     style="color:#000000;fill:#d1d4d6;fill-opacity:0.74329164;fill-rule:nonzero;stroke:none;stroke-width:2;marker:none;visibility:visible;display:inline;overflow:visible;enable-background:accumulate"
     d="M 8,1 8,2 14,2 14,1 8,1 z M 14,2 13.96875,3 20,3 20,6 2,6 2,3 7.96875,3 8,2 1,2 l 0,5 3,0 3,0 1,0 1,0 4,0 1,0 1,0 3,0 3,0 0,-5 -7,0 z M 9,4 9,5 13,5 13,4 9,4 z"
     id="rect2983" />
</svg>
