<?xml version="1.0" encoding="UTF-8" standalone="no"?>
<!-- Created with Inkscape (http://www.inkscape.org/) -->

<svg
   xmlns:dc="http://purl.org/dc/elements/1.1/"
   xmlns:cc="http://creativecommons.org/ns#"
   xmlns:rdf="http://www.w3.org/1999/02/22-rdf-syntax-ns#"
   xmlns:svg="http://www.w3.org/2000/svg"
   xmlns="http://www.w3.org/2000/svg"
   xmlns:sodipodi="http://sodipodi.sourceforge.net/DTD/sodipodi-0.dtd"
   xmlns:inkscape="http://www.inkscape.org/namespaces/inkscape"
   width="22"
   height="22"
   id="svg13094"
   version="1.1"
   inkscape:version="0.48.3.1 r9886"
   sodipodi:docname="applications-system.svg">
  <sodipodi:namedview
     id="base"
     pagecolor="#ffffff"
     bordercolor="#666666"
     borderopacity="1.0"
     inkscape:pageopacity="0.0"
     inkscape:pageshadow="2"
     inkscape:zoom="22.627418"
     inkscape:cx="0.77728013"
     inkscape:cy="10.757909"
     inkscape:document-units="px"
     inkscape:current-layer="layer1"
     showgrid="true"
     inkscape:snap-bbox="true"
     inkscape:bbox-paths="true"
     inkscape:bbox-nodes="true"
     inkscape:snap-bbox-edge-midpoints="true"
     inkscape:snap-bbox-midpoints="true"
     inkscape:object-paths="true"
     inkscape:snap-intersection-paths="true"
     inkscape:object-nodes="true"
     inkscape:snap-smooth-nodes="true"
     inkscape:snap-midpoints="true"
     inkscape:snap-object-midpoints="true"
     inkscape:snap-center="true"
     showguides="false"
     inkscape:guide-bbox="true"
     inkscape:window-width="1920"
     inkscape:window-height="1027"
     inkscape:window-x="-10"
     inkscape:window-y="31"
     inkscape:window-maximized="1"
     inkscape:snap-global="true"
     fit-margin-top="0"
     fit-margin-left="0"
     fit-margin-right="0"
     fit-margin-bottom="0"
     showborder="true"
     inkscape:showpageshadow="false">
    <sodipodi:guide
       id="guide16149"
       position="6601.5878,647.00745"
       orientation="0,1" />
    <sodipodi:guide
       id="guide16151"
       position="6374.4449,597.99875"
       orientation="0,1" />
    <sodipodi:guide
       id="guide16153"
       position="6440.1591,622.50305"
       orientation="0,1" />
    <sodipodi:guide
       id="guide17725"
       position="6433.7306,542.35585"
       orientation="0,1" />
    <sodipodi:guide
       id="guide9456"
       position="6931.2289,150.48606"
       orientation="1,0" />
    <sodipodi:guide
       id="guide9458"
       position="6755.4789,515.53501"
       orientation="0,1" />
    <sodipodi:guide
       id="guide9468"
       position="6526.7092,460.6296"
       orientation="0,1" />
    <sodipodi:guide
       id="guide9470"
       position="6551.2289,481.99958"
       orientation="0,1" />
    <sodipodi:guide
       id="guide11159"
       position="6419.2289,196.00006"
       orientation="1,0" />
    <sodipodi:guide
       id="guide13980"
       position="6732.2601,460.03461"
       orientation="1,0" />
    <sodipodi:guide
       orientation="0,1"
       position="4878.229,-914.9999"
       id="guide3972" />
    <sodipodi:guide
       orientation="1,0"
       position="5058.229,-1042.9999"
       id="guide3974" />
    <sodipodi:guide
       orientation="0,1"
       position="4752.229,-1277.9998"
       id="guide3976" />
    <sodipodi:guide
       orientation="1,0"
       position="4725.229,-1136.9999"
       id="guide3978" />
    <sodipodi:guide
       orientation="1,0"
       position="74.999929,328.00006"
       id="guide4287" />
    <sodipodi:guide
       orientation="0,1"
       position="74.999929,328.00006"
       id="guide4289" />
    <inkscape:grid
       type="xygrid"
       id="grid3248"
       empspacing="5"
       visible="true"
       enabled="true"
       snapvisiblegridlinesonly="true"
       originx="9.7771128e-05px"
       originy="11.000061px" />
  </sodipodi:namedview>
  <defs
     id="defs13096" />
  <metadata
     id="metadata13099">
    <rdf:RDF>
      <cc:Work
         rdf:about="">
        <dc:format>image/svg+xml</dc:format>
        <dc:type
           rdf:resource="http://purl.org/dc/dcmitype/StillImage" />
        <dc:title />
      </cc:Work>
    </rdf:RDF>
  </metadata>
  <g
     transform="translate(8065.8735,-496.93235)"
     id="layer1"
     inkscape:groupmode="layer"
     inkscape:label="Camada 1">
    <path
       id="path3000"
       d="m -8061.8735,499.93235 c -0.554,0 -1,0.446 -1,1 l 0,14 c 0,0.554 0.446,1 1,1 l 14,0 c 0.554,0 1,-0.446 1,-1 l 0,-14 c 0,-0.554 -0.446,-1 -1,-1 l -14,0 z m 6,2 2,0 0,2.15625 c 0.3554,0.0916 0.6901,0.2266 1,0.40625 l 1.5313,-1.5 1.4062,1.40625 -1.5,1.53125 c 0.1797,0.30989 0.3146,0.64464 0.4063,1 l 2.1562,0 0,2 -2.1562,0 c -0.092,0.35536 -0.2266,0.69011 -0.4063,1 l 1.5,1.53125 -1.4062,1.40625 -1.5313,-1.5 c -0.3099,0.17965 -0.6446,0.31461 -1,0.40625 l 0,2.15625 -2,0 0,-2.15625 c -0.3554,-0.0916 -0.6901,-0.2266 -1,-0.40625 l -1.5312,1.5 -1.4063,-1.40625 1.5,-1.53125 c -0.1797,-0.30989 -0.3146,-0.64464 -0.4062,-1 l -2.1563,0 0,-2 2.1563,0 c 0.092,-0.35536 0.2265,-0.69011 0.4062,-1 l -1.5,-1.53125 1.4063,-1.40625 1.5312,1.5 c 0.3099,-0.17965 0.6446,-0.31461 1,-0.40625 l 0,-2.15625 z"
       style="color:#000000;fill:#434a54;fill-opacity:0.6745098;fill-rule:nonzero;stroke:none;stroke-width:2;marker:none;visibility:visible;display:inline;overflow:visible;enable-background:accumulate"
       inkscape:connector-curvature="0" />
    <path
       style="font-size:medium;font-style:normal;font-variant:normal;font-weight:normal;font-stretch:normal;text-indent:0;text-align:start;text-decoration:none;line-height:normal;letter-spacing:normal;word-spacing:normal;text-transform:none;direction:ltr;block-progression:tb;writing-mode:lr-tb;text-anchor:start;baseline-shift:baseline;color:#000000;fill:#d1d4d6;fill-opacity:0.74329164;fill-rule:nonzero;stroke:none;stroke-width:0;marker:none;visibility:visible;display:inline;overflow:visible;enable-background:accumulate;font-family:Sans;-inkscape-font-specification:Sans"
       d="m -8061.8735,498.93235 c -1.0907,0 -2,0.9093 -2,2 l 0,14 c 0,1.0907 0.9093,2 2,2 l 14,0 c 1.0907,0 2,-0.9093 2,-2 l 0,-14 c 0,-1.0907 -0.9093,-2 -2,-2 l -14,0 z m 0,1 14,0 c 0.554,0 1,0.446 1,1 l 0,14 c 0,0.554 -0.446,1 -1,1 l -14,0 c -0.554,0 -1,-0.446 -1,-1 l 0,-14 c 0,-0.554 0.446,-1 1,-1 z m 6,2 0,2.15625 c -0.3554,0.0916 -0.6901,0.2266 -1,0.40625 l -1.5312,-1.5 -1.4063,1.40625 1.5,1.53125 c -0.1797,0.30989 -0.3142,0.64464 -0.4062,1 l -2.1563,0 0,2 2.1563,0 c 0.092,0.35536 0.2265,0.69011 0.4062,1 l -1.5,1.53125 1.4063,1.40625 1.5312,-1.5 c 0.3099,0.17965 0.6446,0.31465 1,0.40625 l 0,2.15625 2,0 0,-2.15625 c 0.3554,-0.0916 0.6901,-0.2266 1,-0.40625 l 1.5313,1.5 1.4062,-1.40625 -1.5,-1.53125 c 0.1797,-0.30989 0.3143,-0.64464 0.4063,-1 l 2.1562,0 0,-2 -2.1562,0 c -0.092,-0.35536 -0.2266,-0.69011 -0.4063,-1 l 1.5,-1.53125 -1.4062,-1.40625 -1.5313,1.5 c -0.3099,-0.17965 -0.6446,-0.31465 -1,-0.40625 l 0,-2.15625 -2,0 z m -2.5,2.46875 0.8125,0.8125 0.5313,0.53125 0.6562,-0.375 c 0.2275,-0.13192 0.4775,-0.24222 0.75,-0.3125 l 0.75,-0.1875 0.75,0.1875 c 0.2725,0.0703 0.5225,0.18058 0.75,0.3125 l 0.6563,0.375 0.5312,-0.53125 0.8125,-0.8125 0.031,0.0312 -0.8125,0.8125 -0.5313,0.53125 0.375,0.65625 c 0.1319,0.22754 0.2422,0.47747 0.3125,0.75 l 0.1875,0.75 -0.1875,0.75 c -0.07,0.27253 -0.1806,0.52245 -0.3125,0.75 l -0.375,0.65625 0.5313,0.53125 0.8125,0.8125 -0.031,0.0312 -0.8125,-0.8125 -0.5312,-0.53125 -0.6563,0.375 c -0.2275,0.13192 -0.4775,0.24222 -0.75,0.3125 l -0.75,0.1875 -0.75,-0.1875 c -0.2725,-0.0703 -0.5225,-0.18058 -0.75,-0.3125 l -0.6562,-0.375 -0.5313,0.53125 -0.8125,0.8125 -0.031,-0.0312 0.8125,-0.8125 0.5312,-0.53125 -0.375,-0.65625 c -0.1319,-0.22754 -0.2422,-0.47747 -0.3125,-0.75 l -0.1875,-0.75 0.1875,-0.75 c 0.07,-0.27253 0.1806,-0.52246 0.3125,-0.75 l 0.375,-0.65625 -0.5312,-0.53125 -0.8125,-0.8125 0.031,-0.0312 z"
       id="rect3006"
       inkscape:connector-curvature="0" />
  </g>
</svg>
