<?xml version="1.0" encoding="UTF-8" standalone="no"?>
<!-- Created with Inkscape (http://www.inkscape.org/) -->

<svg
   xmlns:dc="http://purl.org/dc/elements/1.1/"
   xmlns:cc="http://creativecommons.org/ns#"
   xmlns:rdf="http://www.w3.org/1999/02/22-rdf-syntax-ns#"
   xmlns:svg="http://www.w3.org/2000/svg"
   xmlns="http://www.w3.org/2000/svg"
   xmlns:sodipodi="http://sodipodi.sourceforge.net/DTD/sodipodi-0.dtd"
   xmlns:inkscape="http://www.inkscape.org/namespaces/inkscape"
   width="16"
   height="16"
   id="svg27665"
   version="1.1"
   inkscape:version="0.48.4 r9939"
   sodipodi:docname="audio-volume-medium-panel.svg">
  <defs
     id="defs27667" />
  <sodipodi:namedview
     id="base"
     pagecolor="#cbcdd6"
     bordercolor="#666666"
     borderopacity="1.0"
     inkscape:pageopacity="1"
     inkscape:pageshadow="2"
     inkscape:zoom="32.000002"
     inkscape:cx="9.3843556"
     inkscape:cy="8.6850331"
     inkscape:document-units="px"
     inkscape:current-layer="layer1"
     showgrid="true"
     inkscape:window-width="1920"
     inkscape:window-height="1018"
     inkscape:window-x="-5"
     inkscape:window-y="25"
     inkscape:window-maximized="1"
     inkscape:snap-bbox="true"
     inkscape:bbox-paths="true"
     inkscape:bbox-nodes="true"
     inkscape:snap-bbox-edge-midpoints="true"
     inkscape:snap-bbox-midpoints="true"
     inkscape:object-paths="true"
     inkscape:snap-intersection-paths="true"
     inkscape:object-nodes="true"
     inkscape:snap-smooth-nodes="true"
     inkscape:snap-midpoints="true"
     inkscape:snap-object-midpoints="true"
     inkscape:snap-center="true"
     inkscape:snap-global="true"
     showguides="true"
     inkscape:guide-bbox="true"
     fit-margin-top="0"
     fit-margin-left="0"
     fit-margin-right="0"
     fit-margin-bottom="0"
     inkscape:showpageshadow="false">
    <inkscape:grid
       type="xygrid"
       id="grid3070"
       empspacing="5"
       visible="true"
       enabled="true"
       snapvisiblegridlinesonly="true"
       originx="-47.999653px"
       originy="-0.00031276823px" />
  </sodipodi:namedview>
  <metadata
     id="metadata27670">
    <rdf:RDF>
      <cc:Work
         rdf:about="">
        <dc:format>image/svg+xml</dc:format>
        <dc:type
           rdf:resource="http://purl.org/dc/dcmitype/StillImage" />
        <dc:title />
      </cc:Work>
    </rdf:RDF>
  </metadata>
  <g
     inkscape:label="Camada 1"
     inkscape:groupmode="layer"
     id="layer1"
     transform="translate(3316.4171,-2100.7186)">
    <path
       id="path3008"
       d="m -3308.6984,2101.7186 a 1.0000999,1.0000999 0 0 0 -0.6875,0.4688 l -1.4687,2.4375 -2.9375,1.0937 a 1.0000999,1.0000999 0 0 0 -0.625,0.9375 l 0,4.125 a 1.0000999,1.0000999 0 0 0 0.625,0.9375 l 2.9375,1.0938 1.4687,2.4375 a 1.0000999,1.0000999 0 0 0 0.875,0.4687 l 3.25,0 a 1.0000999,1.0000999 0 0 0 0.9688,-0.7187 c 0,0 0.875,-2.8189 0.875,-6.2813 0,-3.4624 -0.8751,-6.2812 -0.875,-6.2812 a 1.0000999,1.0000999 0 0 0 -0.9688,-0.7188 l -3.25,0 a 1.0000999,1.0000999 0 0 0 -0.094,0 1.0000999,1.0000999 0 0 0 -0.094,0 z m 0.75,2 1.9063,0 c 0.2044,0.7915 0.625,2.5347 0.625,5 0,2.4653 -0.4206,4.2083 -0.625,5 l -1.9063,0 -0.4062,-0.6875 c 0.07,-0.708 0.1875,-2.0781 0.1875,-4.3125 0,-2.2344 -0.1172,-3.6045 -0.1875,-4.3125 l 0.4062,-0.6875 z"
       style="font-size:medium;font-style:normal;font-variant:normal;font-weight:normal;font-stretch:normal;text-indent:0;text-align:start;text-decoration:none;line-height:normal;letter-spacing:normal;word-spacing:normal;text-transform:none;direction:ltr;block-progression:tb;writing-mode:lr-tb;text-anchor:start;baseline-shift:baseline;color:#000000;fill:#f3f4f7;fill-opacity:0.92;fill-rule:nonzero;stroke:none;stroke-width:2;marker:none;visibility:visible;display:inline;overflow:visible;enable-background:accumulate;font-family:Sans;-inkscape-font-specification:Sans"
       inkscape:connector-curvature="0" />
    <path
       style="font-size:medium;font-style:normal;font-variant:normal;font-weight:normal;font-stretch:normal;text-indent:0;text-align:start;text-decoration:none;line-height:normal;letter-spacing:normal;word-spacing:normal;text-transform:none;direction:ltr;block-progression:tb;writing-mode:lr-tb;text-anchor:start;baseline-shift:baseline;color:#000000;fill:#2f3741;fill-opacity:0.7;fill-rule:nonzero;stroke:none;stroke-width:2;marker:none;visibility:visible;display:inline;overflow:visible;enable-background:accumulate;font-family:Sans;-inkscape-font-specification:Sans"
       d="M 7.75,0 C 7.0994,0.044 6.5325,0.3843 6.1875,0.9375 L 5.375,3.09375 2.28125,4.0625 2.25,4.0625 C 1.4723,4.3771 0.9913,5.0987 1,5.9375 l 0,4.125 c -0.01,0.839 0.4721,1.5604 1.25,1.875 l 0.03125,0 3.09375,0.96875 0.8125,2.15625 c 0.3767,0.6014 1.01165,0.9462 1.71875,0.9375 0.011,-2e-4 0.02125,2e-4 0.03125,0 l 2.71875,0 c 0.9139,0.01 1.6805,-0.5604 1.9375,-1.4375 C 12.59375,14.5625 14,11.6308 14,8 14,4.4169 12.59375,1.4375 12.59375,1.4375 12.33665,0.5606 11.57005,-0.0084 10.65625,0 L 7.96875,0 C 7.95075,-9e-4 7.92225,3e-4 7.90625,0 7.87925,-6e-4 7.8395,-6e-4 7.8125,0 7.7945,3e-4 7.767,-9e-4 7.75,0 z m -0.03125,1 0.09375,0 0.09375,0 3.25,0 C 11.58785,1 12.0035,1.30455 12.125,1.71875 12.1249,1.71875 13,4.5376 13,8 13,11.4624 12.125,14.28125 12.125,14.28125 12.0035,14.69545 11.58785,15.0038 11.15625,15 l -3.25,0 c -0.3461,0.01 -0.6912,-0.17535 -0.875,-0.46875 L 5.5625,12.09375 2.625,11 C 2.2551,10.8503 1.9958,10.4614 2,10.0625 L 2,5.9375 C 2,5.5385 2.2551,5.1496 2.625,5 L 5.5625,3.90625 7.03125,1.46875 C 7.17915,1.22385 7.43675,1.0482 7.71875,1 z m 0.75,2 L 8.0625,3.6875 C 8.1328125,4.3955079 8.25,5.765625 8.25,8 c 0,2.234375 -0.1171875,3.604492 -0.1875,4.3125 L 8.46875,13 C 8.46875,13 9.25,11.112358 9.25,8 9.25,4.8876416 8.46875,3 8.46875,3 z"
       transform="translate(-3316.4171,2100.7186)"
       id="path3856-4"
       inkscape:connector-curvature="0"
       sodipodi:nodetypes="cccccccccccccccscccccccccscscccccccsccccccsccsc" />
  </g>
</svg>
