<?xml version="1.0" encoding="UTF-8" standalone="no"?>
<!-- Created with Inkscape (http://www.inkscape.org/) -->

<svg
   xmlns:dc="http://purl.org/dc/elements/1.1/"
   xmlns:cc="http://creativecommons.org/ns#"
   xmlns:rdf="http://www.w3.org/1999/02/22-rdf-syntax-ns#"
   xmlns:svg="http://www.w3.org/2000/svg"
   xmlns="http://www.w3.org/2000/svg"
   xmlns:sodipodi="http://sodipodi.sourceforge.net/DTD/sodipodi-0.dtd"
   xmlns:inkscape="http://www.inkscape.org/namespaces/inkscape"
   width="24"
   height="24"
   id="svg27665"
   version="1.1"
   inkscape:version="0.48.3.1 r9886"
   sodipodi:docname="counter-strike.svg">
  <defs
     id="defs27667" />
  <sodipodi:namedview
     id="base"
     pagecolor="#ffffff"
     bordercolor="#666666"
     borderopacity="1.0"
     inkscape:pageopacity="0.0"
     inkscape:pageshadow="2"
     inkscape:zoom="22.627417"
     inkscape:cx="9.027412"
     inkscape:cy="9.1893993"
     inkscape:document-units="px"
     inkscape:current-layer="layer1"
     showgrid="true"
     inkscape:window-width="1920"
     inkscape:window-height="1023"
     inkscape:window-x="-10"
     inkscape:window-y="35"
     inkscape:window-maximized="1"
     inkscape:snap-bbox="true"
     inkscape:bbox-paths="true"
     inkscape:bbox-nodes="true"
     inkscape:snap-bbox-edge-midpoints="true"
     inkscape:snap-bbox-midpoints="true"
     inkscape:object-paths="true"
     inkscape:snap-intersection-paths="true"
     inkscape:object-nodes="true"
     inkscape:snap-smooth-nodes="true"
     inkscape:snap-midpoints="true"
     inkscape:snap-object-midpoints="true"
     inkscape:snap-center="true"
     inkscape:snap-global="true"
     showguides="false"
     inkscape:guide-bbox="true"
     fit-margin-top="0"
     fit-margin-left="0"
     fit-margin-right="0"
     fit-margin-bottom="0"
     inkscape:showpageshadow="false">
    <sodipodi:guide
       orientation="0,1"
       position="-1440.7664,2520.4813"
       id="guide4179" />
    <sodipodi:guide
       orientation="1,0"
       position="-1438.6235,2517.6242"
       id="guide4181" />
    <inkscape:grid
       type="xygrid"
       id="grid3296"
       empspacing="5"
       visible="true"
       enabled="true"
       snapvisiblegridlinesonly="true"
       originx="-92.000057px"
       originy="1268px" />
    <sodipodi:guide
       orientation="1,0"
       position="419.99991,1778"
       id="guide3432" />
    <sodipodi:guide
       orientation="0,1"
       position="363.99989,-118.00003"
       id="guide3434" />
    <sodipodi:guide
       orientation="1,0"
       position="-92.000057,1778"
       id="guide4416" />
    <sodipodi:guide
       orientation="1,0"
       position="598.99993,-118.00003"
       id="guide4418" />
    <sodipodi:guide
       orientation="0,1"
       position="363.9999,116.99997"
       id="guide4420" />
    <sodipodi:guide
       orientation="0,1"
       position="-92.000057,1778"
       id="guide3391" />
    <sodipodi:guide
       orientation="0,1"
       position="197.99991,1763"
       id="guide3393" />
    <sodipodi:guide
       orientation="0,1"
       position="232.99991,1281"
       id="guide3395" />
    <sodipodi:guide
       orientation="1,0"
       position="404.99991,1521"
       id="guide3397" />
    <sodipodi:guide
       orientation="1,0"
       position="-77.000069,1521"
       id="guide3399" />
    <sodipodi:guide
       orientation="1,0"
       position="-67.000069,1521"
       id="guide3401" />
    <sodipodi:guide
       orientation="1,0"
       position="394.99991,1537"
       id="guide3403" />
    <sodipodi:guide
       orientation="0,1"
       position="192.99991,1753"
       id="guide3405" />
    <sodipodi:guide
       orientation="0,1"
       position="162.99991,1291"
       id="guide3407" />
  </sodipodi:namedview>
  <metadata
     id="metadata27670">
    <rdf:RDF>
      <cc:Work
         rdf:about="">
        <dc:format>image/svg+xml</dc:format>
        <dc:type
           rdf:resource="http://purl.org/dc/dcmitype/StillImage" />
        <dc:title />
      </cc:Work>
    </rdf:RDF>
  </metadata>
  <g
     inkscape:label="Camada 1"
     inkscape:groupmode="layer"
     id="layer1"
     transform="translate(3446.7078,-3639.6863)">
    <path
       id="path3080"
       d="m -3435.342,3642.7562 c -0.2272,0 -0.4564,0.05 -0.6612,0.163 -0.72,0.3518 -0.7936,1.1643 -0.7289,1.8603 -0.04,0.073 -0.1309,0.027 -0.1995,0.04 -0.5788,0.4168 -0.9609,1.062 -1.3777,1.6206 -0.05,1.412 -0.3336,2.7168 -0.6856,4.0035 0.06,0.048 0.1512,0.013 0.1999,0.083 -0.3358,0.3925 0.1153,0.7549 0.083,1.1716 -0.4531,1.3633 -0.9038,2.7262 -1.1747,4.1664 -0.1454,0.3438 -0.5138,0.324 -0.7687,0.4857 -0.3519,0.5382 -0.9139,0.9933 -1.0517,1.6205 0.2308,0.4572 0.1548,1.1479 0.6889,1.3745 0.2751,0.5139 0.7551,0.052 1.1315,0.079 0.2145,-0.3641 -0.052,-0.7274 -0.08,-1.0916 0.3719,-0.1536 0.8618,-0.027 1.2544,-0.123 0.2953,-0.6472 0.5325,-1.3171 0.8885,-1.9401 0.243,-1.0357 0.6061,-2.0205 1.0916,-2.955 0.096,-0.072 -0.03,-0.2344 0.1231,-0.2829 0.6636,0.1658 0.9856,0.9001 1.4142,1.3775 0.1782,0.5018 0.7919,0.8293 1.0547,1.2945 0.255,0.9588 0.4501,1.9415 0.7658,2.872 0.064,0.5058 -0.1753,0.9906 0.2859,1.3344 0.5705,0.3723 1.1917,0.9825 1.94,0.5657 l 0,-0.5255 c -0.2142,-0.6393 -0.8575,-1.0998 -0.7685,-1.8604 0.1496,-1.0316 -0.4325,-1.7603 -0.2829,-2.792 -0.3923,-0.3925 -0.5243,-0.8901 -0.8886,-1.2945 -0.1175,-0.2872 -0.494,-0.4688 -0.4857,-0.8087 0.08,-0.068 0.1459,-0.1787 0.2427,-0.203 0,-0.4732 -0.4256,-0.8037 -0.6887,-1.1315 -0.2386,-0.3803 -0.6502,-0.6911 -0.8486,-1.0917 l -0.3261,0.08 c -0.028,-0.2548 -0.1121,-0.4853 -0.078,-0.7687 0.026,-0.1781 0.2158,-0.2953 0.4058,-0.2429 0.096,-0.368 0.05,-0.7943 0.1201,-1.1745 0.1005,-0.1982 0.3199,-0.1195 0.4857,-0.1599 0.3237,0.1293 0.6135,-0.054 0.8887,-0.1629 l 0.041,0.04 c 0.1004,0.044 0.1311,-0.078 0.2,-0.1197 0.5582,0.1779 0.702,-0.5587 1.0946,-0.7689 l 0.7687,0.1599 c 0.1214,0 0.1923,-0.062 0.16,-0.1998 0.073,-0.2142 -0.1545,-0.4393 0.04,-0.5688 0.2629,0.6312 0.431,1.301 0.8516,1.8634 0.1254,-0.024 0.2339,-0.094 0.3231,-0.203 -0.3359,-0.5705 -0.6773,-1.1885 -0.6489,-1.8603 0.1537,0.025 0.2519,0.1756 0.406,0.1999 0.076,-0.094 0.1567,-0.2954 0.3228,-0.2429 0.2347,-1.0437 1.4062,-0.5108 2.1063,-0.7657 -0.021,-0.025 -0.057,-0.046 -0.042,-0.083 l -0.2427,0 c -0.1174,-0.06 -0.3192,-0.08 -0.323,-0.2427 0.04,-0.068 0.1146,-0.066 0.1629,-0.1199 -0.1779,-0.1134 -0.078,-0.3362 -0.163,-0.486 -0.2954,-0.089 -0.053,0.2582 -0.2429,0.3229 -0.3074,-0.04 -0.5381,0.1027 -0.7688,-0.12 l 0.083,-0.083 c -0.028,-0.032 -0.114,-0.099 -0.203,-0.08 -0.048,0.3724 -0.4097,0.1342 -0.6887,0.2029 -0.2469,-0.058 -0.084,-0.236 -0.12,-0.4058 -0.077,0.011 -0.1383,-0.02 -0.2028,-0.04 -0.028,0.5017 -0.5764,0.2582 -0.8918,0.3228 -0.3237,-0.1498 -1.0171,0.1803 -0.9686,-0.4427 -0.2266,-0.052 -0.3761,0.07 -0.5258,0.1998 -0.6473,-0.376 -0.7914,0.7021 -1.3377,0.3259 -0.036,-0.2387 0.045,-0.4308 0.1632,-0.6088 0.3114,-0.3317 -0.052,-0.6879 -0.12,-1.0116 -0.2087,-0.4867 -0.7024,-0.7618 -1.2023,-0.7688 z m 1.651,3.2717 c 0.2948,-0.011 0.5625,0.061 0.8457,0.087 -0.2267,0.4692 -0.9718,0.046 -1.2145,0.6488 -0.1537,-0.025 -0.3332,-0.074 -0.4059,-0.2031 l 0.6488,-0.5256 c 0.044,0 0.084,-0.011 0.1259,-0.011 z"
       style="color:#000000;fill:#434a55;fill-opacity:0.6745098;fill-rule:evenodd;stroke:none;marker:none;visibility:visible;display:inline;overflow:visible;enable-background:accumulate"
       inkscape:connector-curvature="0" />
    <path
       style="font-size:medium;font-style:normal;font-variant:normal;font-weight:normal;font-stretch:normal;text-indent:0;text-align:start;text-decoration:none;line-height:normal;letter-spacing:normal;word-spacing:normal;text-transform:none;direction:ltr;block-progression:tb;writing-mode:lr-tb;text-anchor:start;baseline-shift:baseline;color:#000000;fill:#d1d4d6;fill-opacity:0.74329164000000003;fill-rule:nonzero;stroke:none;stroke-width:2;marker:none;visibility:visible;display:inline;overflow:visible;enable-background:accumulate;font-family:Sans;-inkscape-font-specification:Sans"
       d="M 10.9375 1.875 L 10.75 2.03125 C 10.563 2.07625 10.3698 2.06225 10.1875 2.15625 C 10.1725 2.16625 10.17025 2.1805 10.15625 2.1875 C 10.14625 2.1975 10.134 2.1775 10.125 2.1875 L 10.125 2.21875 C 9.5017 2.55845 9.06915 3.1449 8.90625 3.6875 C 8.82125 3.9713 8.85575 4.1837 8.84375 4.4375 C 8.22215 4.992 7.7451 5.61885 7.4375 6.03125 L 7.21875 6.34375 L 7.21875 6.71875 C 7.17375 7.99655 6.9033 9.1917 6.5625 10.4375 L 6.34375 11.1875 L 6.65625 11.4375 C 6.68125 11.5623 6.69175 11.7322 6.71875 11.8125 C 6.7747 11.9732 6.7741125 12.048262 6.78125 12.0625 C 6.4224502 13.146329 6.0401013 14.277268 5.78125 15.46875 C 5.67675 15.50075 5.63055 15.51365 5.40625 15.65625 L 5.1875 15.78125 L 5.0625 16 C 4.8612 16.3077 4.10215 16.85495 3.84375 18.03125 L 3.75 18.4375 L 3.9375 18.8125 C 3.9195 18.7765 3.97955 19.02115 4.09375 19.40625 C 4.20805 19.79125 4.52935 20.4575 5.21875 20.75 C 5.34525 20.843 5.4161 20.98315 5.5625 21.03125 C 5.964 21.16295 6.2935 21.1115 6.5 21.0625 C 6.9131 20.9645 7.0853 20.9615 6.75 20.9375 L 7.5 21 L 7.875 20.34375 C 8.0085 20.11725 7.94275 19.94655 7.96875 19.71875 C 8.08735 19.70775 8.13395 19.7185 8.28125 19.6875 L 8.84375 19.5625 L 9.09375 19.03125 C 9.41815 18.32025 9.6514 17.6881 9.9375 17.1875 L 10.03125 17.03125 L 10.0625 16.84375 C 10.1772 16.35485 10.42065 15.93065 10.59375 15.46875 C 10.61275 15.49075 10.605 15.50825 10.625 15.53125 L 10.65625 15.5 C 10.84015 15.7853 11.0334 16.1003 11.1875 16.25 C 11.3753 16.4326 11.43485 16.49425 11.46875 16.53125 C 11.66775 17.30895 11.88175 18.16595 12.15625 19.03125 L 12.15625 19.0625 C 12.15595 19.0975 12.115 19.27265 12.125 19.65625 C 12.135 20.05995 12.37925 20.7946 12.90625 21.1875 L 12.9375 21.21875 L 12.96875 21.21875 C 13.16965 21.34995 13.50695 21.66545 14.03125 21.90625 C 14.55555 22.14695 15.44125 22.24245 16.15625 21.84375 L 16.78125 21.5 L 16.78125 20.78125 L 16.78125 20.25 L 16.78125 20.0625 L 16.71875 19.875 C 16.52425 19.2945 16.22095 18.9591 16.09375 18.75 C 15.98195 18.5662 15.996 18.5762 16 18.5625 L 16 18.53125 C 16.1013 17.77435 15.9189 17.15145 15.8125 16.71875 C 15.7043 16.27875 15.68165 16.03855 15.71875 15.78125 L 15.78125 15.1875 L 15.375 14.75 C 15.2557 14.6306 15.08165 14.17685 14.59375 13.59375 L 14.59375 13.3125 C 14.59375 12.2394 13.93805 11.73455 13.71875 11.53125 C 13.66675 11.44925 13.675 11.47725 13.625 11.40625 C 13.2934 10.92885 13.00165 10.63525 12.96875 10.59375 L 13 10.4375 C 13.066 10.1831 13.0455 10.15445 13.0625 9.96875 C 13.1145 9.95775 13.2053 9.98175 13.25 9.96875 C 13.4596 9.90775 13.5356 9.88575 13.625 9.84375 C 13.692 9.83375 13.7508 9.86375 13.8125 9.84375 C 13.978 9.78975 14.0338 9.72575 14.125 9.65625 C 14.2391 9.63125 14.37265 9.671 14.46875 9.625 C 14.81795 9.4566 14.9988 9.24725 15.125 9.09375 L 15.21875 9.125 C 15.33775 9.3644 15.34485 9.53185 15.53125 9.78125 L 16 10.375 L 16.71875 10.25 C 17.14175 10.169 17.5183 9.9082 17.75 9.625 L 18.28125 8.96875 L 17.84375 8.25 L 18 7.46875 C 18.2414 7.47875 18.6963 7.5823 19.4375 7.3125 L 21.03125 6.71875 L 20.34375 5.90625 L 20.75 4.90625 L 19.5 4.90625 C 19.47 4.79485 19.5255 4.81225 19.4375 4.65625 L 19.21875 4.25 L 18.75 4.09375 C 18.6317 4.05775 18.4798 4.01925 18.25 4.03125 C 18.1279 4.04125 17.9684 4.15365 17.8125 4.21875 C 17.7335 4.18475 17.605 4.2085 17.5 4.1875 L 17.40625 3.75 L 16.53125 3.875 L 15.15625 3.4375 L 15.125 3.875 L 14.65625 3.75 C 14.38505 3.688 14.1272 3.77575 13.875 3.84375 C 13.806 3.66075 13.7233 3.46625 13.75 3.59375 L 13.71875 3.46875 L 13.6875 3.375 C 13.2732 2.4088 12.33525 1.888 11.40625 1.875 L 11.375 1.875 L 10.9375 1.875 z M 11.375 3.0625 C 11.8749 3.0695 12.3538 3.35705 12.5625 3.84375 C 12.6305 4.16745 12.9989 4.51205 12.6875 4.84375 C 12.5693 5.02175 12.49525 5.23005 12.53125 5.46875 C 13.07755 5.84495 13.2277 4.749 13.875 5.125 C 14.0247 4.9952 14.1484 4.8855 14.375 4.9375 C 14.3265 5.5605 15.02005 5.2252 15.34375 5.375 C 15.65915 5.3104 16.222 5.5642 16.25 5.0625 C 16.3145 5.0825 16.3605 5.10475 16.4375 5.09375 C 16.4735 5.26355 16.3156 5.442 16.5625 5.5 C 16.8415 5.4313 17.202 5.65365 17.25 5.28125 C 17.339 5.26225 17.44075 5.343 17.46875 5.375 L 17.375 5.46875 C 17.6057 5.69145 17.84885 5.55375 18.15625 5.59375 C 18.34615 5.52905 18.11085 5.161 18.40625 5.25 C 18.49125 5.3998 18.3846 5.6366 18.5625 5.75 C 18.5142 5.8039 18.44625 5.807 18.40625 5.875 C 18.41005 6.0377 18.60135 6.03375 18.71875 6.09375 L 18.96875 6.09375 C 18.95375 6.13075 18.979 6.1625 19 6.1875 C 18.2999 6.4424 17.14095 5.8938 16.90625 6.9375 C 16.74015 6.885 16.6385 7.0935 16.5625 7.1875 C 16.4084 7.1632 16.30995 7.025 16.15625 7 C 16.12785 7.6718 16.4766 8.27325 16.8125 8.84375 C 16.7233 8.95275 16.6254 9.0385 16.5 9.0625 C 16.0794 8.5001 15.8879 7.8187 15.625 7.1875 C 15.4305 7.317 15.66675 7.5358 15.59375 7.75 C 15.62605 7.8878 15.5589 7.96875 15.4375 7.96875 L 14.65625 7.8125 C 14.26365 8.0227 14.1207 8.7404 13.5625 8.5625 C 13.4936 8.6042 13.4754 8.7315 13.375 8.6875 L 13.34375 8.65625 C 13.06855 8.76515 12.7612 8.9418 12.4375 8.8125 C 12.2717 8.8529 12.06925 8.77055 11.96875 8.96875 C 11.89865 9.34895 11.93975 9.78825 11.84375 10.15625 C 11.65375 10.10385 11.4635 10.22815 11.4375 10.40625 C 11.4034 10.68965 11.472 10.90145 11.5 11.15625 L 11.84375 11.09375 C 12.04215 11.49435 12.4489 11.8072 12.6875 12.1875 C 12.9506 12.5153 13.375 12.8393 13.375 13.3125 C 13.2782 13.3368 13.205 13.432 13.125 13.5 C 13.1167 13.8399 13.5075 14.0253 13.625 14.3125 C 13.9893 14.7169 14.1077 15.2325 14.5 15.625 C 14.3504 16.6567 14.93085 17.37465 14.78125 18.40625 C 14.69225 19.16685 15.3483 19.6107 15.5625 20.25 L 15.5625 20.78125 C 14.8142 21.19805 14.1955 20.59105 13.625 20.21875 C 13.1638 19.87495 13.40775 19.3808 13.34375 18.875 C 13.02805 17.9445 12.8175 16.99005 12.5625 16.03125 C 12.2997 15.56605 11.6782 15.22055 11.5 14.71875 C 11.0714 14.24135 10.75735 13.50955 10.09375 13.34375 C 9.94065 13.39225 10.06475 13.553 9.96875 13.625 C 9.48325 14.5595 9.118 15.55805 8.875 16.59375 C 8.519 17.21675 8.2953 17.88405 8 18.53125 C 7.6074 18.62725 7.1219 18.50265 6.75 18.65625 C 6.778 19.02045 7.027 19.3859 6.8125 19.75 C 6.4361 19.723 5.9626 20.17015 5.6875 19.65625 C 5.1534 19.42965 5.2308 18.73845 5 18.28125 C 5.1378 17.65405 5.7106 17.19445 6.0625 16.65625 C 6.3174 16.49455 6.6671 16.5313 6.8125 16.1875 C 7.0834 14.7473 7.5469 13.3633 8 12 C 8.0323 11.5833 7.57045 11.23625 7.90625 10.84375 C 7.85755 10.77375 7.77875 10.798 7.71875 10.75 C 8.07075 9.4633 8.35625 8.162 8.40625 6.75 C 8.82305 6.1914 9.20245 5.5418 9.78125 5.125 C 9.84985 5.112 9.92875 5.16675 9.96875 5.09375 C 9.90405 4.39775 9.99875 3.57055 10.71875 3.21875 C 10.92355 3.10575 11.1478 3.0625 11.375 3.0625 z M 12.90625 6.34375 L 12.25 6.875 C 12.3227 7.0041 12.50255 7.0375 12.65625 7.0625 C 12.89895 6.4597 13.6483 6.9067 13.875 6.4375 C 13.5918 6.4115 13.32605 6.33275 13.03125 6.34375 C 12.98935 6.34375 12.95025 6.34375 12.90625 6.34375 z "
       transform="translate(-3446.7078,3639.6863)"
       id="path9489" />
  </g>
</svg>
