<?xml version="1.0" encoding="UTF-8" standalone="no"?>
<!-- Created with Inkscape (http://www.inkscape.org/) -->
<svg xmlns:dc="http://purl.org/dc/elements/1.1/" xmlns:cc="http://creativecommons.org/ns#" xmlns:rdf="http://www.w3.org/1999/02/22-rdf-syntax-ns#" xmlns:svg="http://www.w3.org/2000/svg" xmlns="http://www.w3.org/2000/svg" xmlns:sodipodi="http://sodipodi.sourceforge.net/DTD/sodipodi-0.dtd" xmlns:inkscape="http://www.inkscape.org/namespaces/inkscape" width="18" height="18" id="svg27665" version="1.1" inkscape:version="0.48.3.1 r9886" sodipodi:docname="virtualbox.svg">
  <defs id="defs27667"/>
  <sodipodi:namedview id="base" pagecolor="#ffffff" bordercolor="#666666" borderopacity="1.0" inkscape:pageopacity="0.0" inkscape:pageshadow="2" inkscape:zoom="45.254834" inkscape:cx="7.9152058" inkscape:cy="7.2791784" inkscape:document-units="px" inkscape:current-layer="layer1" showgrid="true" inkscape:window-width="1920" inkscape:window-height="1033" inkscape:window-x="-2" inkscape:window-y="25" inkscape:window-maximized="1" inkscape:snap-bbox="true" inkscape:bbox-paths="true" inkscape:bbox-nodes="true" inkscape:snap-bbox-edge-midpoints="true" inkscape:snap-bbox-midpoints="true" inkscape:object-paths="true" inkscape:snap-intersection-paths="true" inkscape:object-nodes="true" inkscape:snap-smooth-nodes="true" inkscape:snap-midpoints="true" inkscape:snap-object-midpoints="true" inkscape:snap-center="true" inkscape:snap-global="true" showguides="false" inkscape:guide-bbox="true" fit-margin-top="0" fit-margin-left="0" fit-margin-right="0" fit-margin-bottom="0" inkscape:showpageshadow="false">
    <sodipodi:guide orientation="0,1" position="599.99999,299.99993" id="guide3572"/>
    <sodipodi:guide orientation="1,0" position="294.41949,12.121716" id="guide3574"/>
    <sodipodi:guide orientation="0,1" position="456.04389,599.99992" id="guide3576"/>
    <sodipodi:guide orientation="0,1" position="-2.8882813e-06,-8.4406273e-05" id="guide3578"/>
    <sodipodi:guide orientation="1,0" position="-2.8882813e-06,157.58366" id="guide3580"/>
    <sodipodi:guide orientation="1,0" position="599.99999,121.21821" id="guide3582"/>
    <sodipodi:guide orientation="0,1" position="599.99999,-714.34359" id="guide5928"/>
    <sodipodi:guide orientation="0,1" position="599.99999,-414.34359" id="guide5930"/>
    <sodipodi:guide orientation="0,1" position="599.99999,-1014.3435" id="guide5932"/>
    <sodipodi:guide orientation="0,1" position="451.57029,524.99606" id="guide5294"/>
    <sodipodi:guide orientation="0,1" position="451.57029,75.013516" id="guide5296"/>
    <sodipodi:guide orientation="0,1" position="496.01499,-931.36409" id="guide5413"/>
    <sodipodi:guide orientation="0,1" position="457.34859,-489.34389" id="guide5415"/>
    <inkscape:grid type="xygrid" id="grid3070" empspacing="5" visible="true" enabled="true" snapvisiblegridlinesonly="true" originx="4.3243213e-05px" originy="-2.6947047e-05px"/>
  </sodipodi:namedview>
  <metadata id="metadata27670">
    <rdf:RDF>
      <cc:Work rdf:about="">
        <dc:format>image/svg+xml</dc:format>
        <dc:type rdf:resource="http://purl.org/dc/dcmitype/StillImage"/>
        <dc:title/>
      </cc:Work>
    </rdf:RDF>
  </metadata>
  <g inkscape:label="Camada 1" inkscape:groupmode="layer" id="layer1" transform="translate(3364.4171,-2100.7186)">
    <path style="fill:#434a55;fill-opacity:0.6745098;fill-rule:nonzero;stroke:none" d="m -3344.4171,2100.7186 0,16 16,0 0,-16 -16,0 z m 2,2 5.4063,0 -0.7188,2.5 -1.3125,4.4688 -1.0937,-2.5625 -0.2188,-0.5 -0.5625,0 -1.5,0 0,-3.9063 z m 5.4688,0 6.5312,0 0,6.9063 -0.9062,0 -1.5625,-4.4375 -0.75,-2.1875 -0.8438,2.1562 -0.9062,2.3125 -0.75,-2.2812 -0.8125,-2.4688 z m 3.2187,5.2188 1,2.8125 0.1875,0.5625 0.625,0 1.5,0 0,3.4062 -8.375,0 -3.625,0 0,-6.4062 0.9375,0 1.7813,4.25 0.9062,2.1562 0.6875,-2.25 1.2188,-4.1562 0.6562,1.9375 0.75,2.2187 0.8438,-2.1875 0.9062,-2.3437 z" id="rect3771" inkscape:connector-curvature="0" transform="translate(1,1)"/>
    <path style="color:#000000;fill:#434a55;fill-opacity:0.67450982;fill-rule:nonzero;stroke:none;stroke-width:2.28571415000000000;marker:none;visibility:visible;display:inline;overflow:visible;enable-background:accumulate" d="M 0 1 L 0 15 L 16 15 L 16 1 L 0 1 z M 7 2 L 8 2 L 8 3 L 10 3 L 10 2 L 11 2 L 11 3 L 10.5 3 L 9.9375 4.4375 L 9.03125 6.75 L 8.28125 4.46875 L 7.8125 3 L 7.125 3 L 6.6875 4.5 L 5.375 8.96875 L 4.28125 6.40625 L 4.0625 5.90625 L 3.5 5.90625 L 2 5.90625 L 2 3 L 7 3 L 7 2 z M 11.03125 3 L 14 3 L 14 8.90625 L 13.09375 8.90625 L 11.53125 4.46875 L 11.03125 3 z M 10.6875 7.21875 L 11.6875 10.03125 L 11.875 10.59375 L 12.5 10.59375 L 14 10.59375 L 14 13 L 6 13 L 6 14 L 5 14 L 5 13 L 2 13 L 2 7.59375 L 2.9375 7.59375 L 4.71875 11.84375 L 5.21875 13 L 5.9375 13 L 6.3125 11.75 L 7.53125 7.59375 L 8.1875 9.53125 L 8.9375 11.75 L 9.78125 9.5625 L 10.6875 7.21875 z " transform="translate(-3363.4171,2101.7186)" id="rect3794"/>
  </g>
</svg>
