<svg xmlns="http://www.w3.org/2000/svg" viewBox="0 0 64 64"><defs><linearGradient x1="48.918" y1="46.21" x2="32.67" y2="24" id="0" gradientUnits="userSpaceOnUse"><stop stop-color="#fff" stop-opacity=".53"/><stop offset="1" stop-color="#fff" stop-opacity="0"/></linearGradient></defs><path d="m4 0h60v62h-60z" fill="#268991"/><path d="m60 2v31l-24.322 29h28.322v-25-31l-4-4" fill="#002a2e" fill-opacity=".139"/><path d="m0 2h60v31l-26 31h-34z" fill="url(#0)"/><path d="m0 2h60v31l-26 31h-34z" fill="#40b9bd" color="#000"/><path d="m34 64l26-31c-2.329 2.776-4.361 3-11 3h-12v15c0 6.644.044 9.37-3 13" fill="#2a9da3"/><path d="m14.759 7c-.475.009-.812.412-.937.891l-.516 2.625c-1.094.38-2.097.943-2.953 1.687l-2.484-.844c-.381-.121-1-.131-1.266.328l-1.5 2.625c-.229.416-.024.871.328 1.219l2.02 1.734c-.108.558-.188 1.145-.188 1.734 0 .589.079 1.177.188 1.734l-2.02 1.734c-.295.269-.593.759-.328 1.219l1.5 2.625c.246.407.789.459 1.266.328l2.484-.844c.856.744 1.859 1.307 2.953 1.688l.516 2.625c.085.39.407.891.937.891h3c.475-.009.813-.412.938-.891l.516-2.625c1.094-.38 2.097-.943 2.953-1.688l2.484.844c.381.121 1 .131 1.266-.328l1.5-2.625c.23-.416.024-.871-.328-1.219l-2.02-1.734c.108-.558.188-1.145.188-1.734 0-.589-.079-1.177-.188-1.734l2.02-1.734c.295-.269.593-.759.328-1.219l-1.5-2.625c-.246-.407-.789-.459-1.266-.328l-2.484.844c-.856-.744-1.859-1.307-2.953-1.687l-.516-2.625c-.085-.39-.407-.891-.938-.891zm1.5 6.75c2.899 0 5.25 2.351 5.25 5.25 0 2.899-2.351 5.25-5.25 5.25-2.899 0-5.25-2.351-5.25-5.25 0-2.899 2.351-5.25 5.25-5.25m0 2.25c-1.657 0-3 1.343-3 3 0 1.657 1.343 3 3 3 1.657 0 3-1.343 3-3 0-1.657-1.343-3-3-3" fill="#f2f2f2" color="#000"/></svg>