<?xml version="1.0" encoding="UTF-8" standalone="no"?>
<!-- Created with Inkscape (http://www.inkscape.org/) -->

<svg
   xmlns:dc="http://purl.org/dc/elements/1.1/"
   xmlns:cc="http://creativecommons.org/ns#"
   xmlns:rdf="http://www.w3.org/1999/02/22-rdf-syntax-ns#"
   xmlns:svg="http://www.w3.org/2000/svg"
   xmlns="http://www.w3.org/2000/svg"
   xmlns:xlink="http://www.w3.org/1999/xlink"
   xmlns:sodipodi="http://sodipodi.sourceforge.net/DTD/sodipodi-0.dtd"
   xmlns:inkscape="http://www.inkscape.org/namespaces/inkscape"
   width="64"
   height="64"
   id="svg13094"
   version="1.1"
   inkscape:version="0.48.3.1 r9886"
   sodipodi:docname="subtitles.svg">
  <sodipodi:namedview
     id="base"
     pagecolor="#cbcdd6"
     bordercolor="#666666"
     borderopacity="1.0"
     inkscape:pageopacity="1"
     inkscape:pageshadow="2"
     inkscape:zoom="8.0000005"
     inkscape:cx="36.784343"
     inkscape:cy="37.593766"
     inkscape:document-units="px"
     inkscape:current-layer="svg13094"
     showgrid="true"
     inkscape:snap-bbox="true"
     inkscape:bbox-paths="true"
     inkscape:bbox-nodes="true"
     inkscape:snap-bbox-edge-midpoints="true"
     inkscape:snap-bbox-midpoints="true"
     inkscape:object-paths="true"
     inkscape:snap-intersection-paths="true"
     inkscape:object-nodes="true"
     inkscape:snap-smooth-nodes="true"
     inkscape:snap-midpoints="true"
     inkscape:snap-object-midpoints="true"
     inkscape:snap-center="true"
     showguides="true"
     inkscape:guide-bbox="true"
     inkscape:window-width="1920"
     inkscape:window-height="1023"
     inkscape:window-x="-10"
     inkscape:window-y="35"
     inkscape:window-maximized="1"
     inkscape:snap-global="true"
     fit-margin-top="0"
     fit-margin-left="0"
     fit-margin-right="0"
     fit-margin-bottom="0"
     showborder="true"
     inkscape:showpageshadow="false"
     inkscape:snap-page="true">
    <inkscape:grid
       type="xygrid"
       id="grid3075"
       empspacing="5"
       visible="true"
       enabled="true"
       snapvisiblegridlinesonly="true"
       originx="1.6362304e-08px"
       originy="18px" />
  </sodipodi:namedview>
  <defs
     id="defs13096">
    <linearGradient
       id="linearGradient3886">
      <stop
         id="stop3888"
         offset="0"
         style="stop-color:#ffffff;stop-opacity:0.6738351" />
      <stop
         id="stop3890"
         offset="1"
         style="stop-color:#ffffff;stop-opacity:0.49191985;" />
    </linearGradient>
    <linearGradient
       id="linearGradient3090">
      <stop
         style="stop-color:#ffffff;stop-opacity:0.76405948;"
         offset="0"
         id="stop3092" />
      <stop
         style="stop-color:#ffffff;stop-opacity:0.49191985;"
         offset="1"
         id="stop3094" />
    </linearGradient>
    <linearGradient
       id="linearGradient5602">
      <stop
         id="stop5604"
         style="stop-color:#475970;stop-opacity:1;"
         offset="0" />
      <stop
         id="stop5606"
         style="stop-color:#343f4f;stop-opacity:1;"
         offset="1" />
    </linearGradient>
    <radialGradient
       inkscape:collect="always"
       xlink:href="#linearGradient5602"
       id="radialGradient4097"
       gradientUnits="userSpaceOnUse"
       gradientTransform="matrix(-2.5142724e-8,1.46875,-1.3769531,-2.3571303e-8,56.785157,-28)"
       cx="32"
       cy="18.000002"
       fx="32"
       fy="18.000004"
       r="32" />
    <radialGradient
       inkscape:collect="always"
       xlink:href="#linearGradient3090"
       id="radialGradient3096"
       cx="32"
       cy="17.653847"
       fx="32"
       fy="17.653847"
       r="21"
       gradientTransform="matrix(2.0317463e-8,2.2380952,-2.0982143,1.9047622e-8,68.041552,-53.619046)"
       gradientUnits="userSpaceOnUse" />
    <radialGradient
       inkscape:collect="always"
       xlink:href="#linearGradient3090"
       id="radialGradient3868"
       gradientUnits="userSpaceOnUse"
       gradientTransform="matrix(2.0317463e-8,2.2380952,-2.0982143,1.9047622e-8,70.041552,-51.619046)"
       cx="32"
       cy="17.653847"
       fx="32"
       fy="17.653847"
       r="21" />
    <radialGradient
       inkscape:collect="always"
       xlink:href="#linearGradient3090"
       id="radialGradient3872"
       gradientUnits="userSpaceOnUse"
       gradientTransform="matrix(2.0317463e-8,2.2380952,-2.0982143,1.9047622e-8,69.041552,-52.619046)"
       cx="32"
       cy="17.653847"
       fx="32"
       fy="17.653847"
       r="21" />
    <radialGradient
       inkscape:collect="always"
       xlink:href="#linearGradient3886"
       id="radialGradient3879"
       gradientUnits="userSpaceOnUse"
       gradientTransform="matrix(2.0317463e-8,2.2380952,-2.0982143,1.9047622e-8,69.041552,-52.619046)"
       cx="32"
       cy="17.653847"
       fx="32"
       fy="17.653847"
       r="21" />
    <radialGradient
       inkscape:collect="always"
       xlink:href="#linearGradient3090"
       id="radialGradient3883"
       gradientUnits="userSpaceOnUse"
       gradientTransform="matrix(2.0317463e-8,2.2380952,-2.0982143,1.9047622e-8,69.041552,-52.619046)"
       cx="32"
       cy="17.653847"
       fx="32"
       fy="17.653847"
       r="21" />
  </defs>
  <metadata
     id="metadata13099">
    <rdf:RDF>
      <cc:Work
         rdf:about="">
        <dc:format>image/svg+xml</dc:format>
        <dc:type
           rdf:resource="http://purl.org/dc/dcmitype/StillImage" />
        <dc:title />
      </cc:Work>
    </rdf:RDF>
  </metadata>
  <path
     inkscape:connector-curvature="0"
     style="color:#000000;fill:url(#radialGradient4097);fill-opacity:1;fill-rule:nonzero;stroke:none;stroke-width:2.28571415000000000;marker:none;visibility:visible;display:inline;overflow:visible;enable-background:accumulate"
     d="m 0,4 0,30 0,28 2,2 30,0 30,0 2,-2 L 64,34 64,4 32,4 0,4 z"
     id="path4095" />
  <path
     inkscape:connector-curvature="0"
     style="color:#000000;fill:#607d98;fill-opacity:1;fill-rule:nonzero;stroke:none;stroke-width:2.28571415000000000;marker:none;visibility:visible;display:inline;overflow:visible;enable-background:accumulate"
     d="M 2,0 0,1 0,4 32,4 64,4 64,1 62,0 32,0 2,0 z"
     id="path4090" />
  <path
     style="fill:#ffffff;fill-opacity:0.14487633;fill-rule:nonzero"
     d="M 0 3 L 0 6 L 2 4 L 32 4 L 62 4 L 64 3 L 32 3 L 0 3 z "
     id="path4298" />
  <path
     style="fill:#1f0700;fill-opacity:0.06978802;fill-rule:nonzero"
     d="M 2 0 L 0 1 L 32 1 L 64 1 L 62 0 L 32 0 L 2 0 z "
     id="path4444" />
  <path
     d="M 64,6 62,4 64,3 z"
     id="path3028"
     style="fill:#1f0700;fill-opacity:0.13759861"
     inkscape:connector-curvature="0" />
  <path
     style="fill:#000000;fill-opacity:0.11130587;fill-rule:nonzero"
     d="M 63 0.5 L 63 34 L 63 63 L 64 62 L 64 34 L 64 1 L 63 0.5 z M 63 63 L 32 63 L 1 63 L 2 64 L 32 64 L 62 64 L 63 63 z "
     id="path4366" />
  <g
     id="g3043"
     inkscape:export-filename="folder.png"
     inkscape:export-xdpi="90"
     inkscape:export-ydpi="90"
     transform="translate(-0.62500009,0.082283)" />
  <path
     style="fill:#ffffff;fill-opacity:0.35070675;fill-rule:nonzero"
     d="M 0 1 L 0 34 L 0 62 L 1 63 L 1 34 L 1 5 L 2 4 L 1 3.46875 L 1 1 L 0 1 z "
     id="path3864" />
  <g
     id="scalable"
     transform="matrix(1.0385892,0,0,1.0385892,1214.7222,1878.8121)"
     inkscape:label="#g3701"
     style="fill:#ffffff" />
  <path
     inkscape:connector-curvature="0"
     d="m 11,17 0,30 16,0 -3,9 13,-9 16,0 0,-30 z m 3,3 9,0 0,6 -9,0 z m 27,0 9,0 0,6 -9,0 z m -27,9 9,0 0,6 -9,0 z m 27,0 9,0 0,6 -9,0 z m -27,9 9,0 0,6 -9,0 z m 27,0 9,0 0,6 -9,0 z"
     id="path3877"
     style="color:#000000;fill:url(#radialGradient3879);fill-opacity:1;fill-rule:nonzero;stroke:none;stroke-width:1;marker:none;visibility:visible;display:inline;overflow:visible;enable-background:accumulate"
     sodipodi:nodetypes="cccccccccccccccccccccccccccccccccccccc" />
  <path
     style="color:#000000;fill:#000000;fill-opacity:0.13082437;fill-rule:nonzero;stroke:none;stroke-width:1;marker:none;visibility:visible;display:inline;overflow:visible;enable-background:accumulate"
     d="M 53 18 L 53 47 L 37 47 L 25.71875 54.8125 L 25 57 L 38 48 L 54 48 L 54 18 L 53 18 z M 14 20 L 14 26 L 15 26 L 15 21 L 23 21 L 23 20 L 14 20 z M 41 20 L 41 26 L 42 26 L 42 21 L 50 21 L 50 20 L 41 20 z M 14 29 L 14 35 L 15 35 L 15 30 L 23 30 L 23 29 L 14 29 z M 41 29 L 41 35 L 42 35 L 42 30 L 50 30 L 50 29 L 41 29 z M 14 38 L 14 44 L 15 44 L 15 39 L 23 39 L 23 38 L 14 38 z M 41 38 L 41 44 L 42 44 L 42 39 L 50 39 L 50 38 L 41 38 z M 12 47 L 12 48 L 26.65625 48 L 27 47 L 12 47 z "
     id="path3866" />
  <path
     style="color:#000000;fill:#ffffff;fill-opacity:0.24910395;fill-rule:nonzero;stroke:none;stroke-width:1;marker:none;visibility:visible;display:inline;overflow:visible;enable-background:accumulate"
     d="m 11,17 0,30 1,0 0,-29 41,0 0,-1 -42,0 z m 12,4 0,5 -8,0 0,1 9,0 0,-6 -1,0 z m 27,0 0,5 -8,0 0,1 9,0 0,-6 -1,0 z m -27,9 0,5 -8,0 0,1 9,0 0,-6 -1,0 z m 27,0 0,5 -8,0 0,1 9,0 0,-6 -1,0 z m -27,9 0,5 -8,0 0,1 9,0 0,-6 -1,0 z m 27,0 0,5 -8,0 0,1 9,0 0,-6 -1,0 z M 26.65625,48 24,56 25.71875,54.8125 28,48 26.65625,48 z"
     id="rect3826"
     inkscape:connector-curvature="0" />
</svg>
