<?xml version="1.0" encoding="UTF-8" standalone="no"?>
<!-- Created with Inkscape (http://www.inkscape.org/) -->
<svg id="svg13094" xmlns:rdf="http://www.w3.org/1999/02/22-rdf-syntax-ns#" xmlns="http://www.w3.org/2000/svg" height="16" width="16" version="1.1" xmlns:cc="http://creativecommons.org/ns#" xmlns:xlink="http://www.w3.org/1999/xlink" xmlns:dc="http://purl.org/dc/elements/1.1/">
	<defs id="defs13096"></defs>
	<metadata id="metadata13099">
		<rdf:RDF>
			<cc:Work rdf:about="">
				<dc:format>image/svg+xml</dc:format>
				<dc:type rdf:resource="http://purl.org/dc/dcmitype/StillImage"/>
				<dc:title/>
			</cc:Work>
		</rdf:RDF>
	</metadata>
	<path id="path3037" style="enable-background:accumulate;color:#000000;" d="M8,1c-1.9282,0-3.6705,0.8026-4.9375,2.0625l-1.0625-1.0625h-1v4h5l-1.53125-1.53125c0.9011-0.9097,2.14815-1.46875,3.53125-1.46875,2.7614,0,5,2.2386,5,5h2c0-3.866-3.134-7-7-7zm-7,7c0,3.866,3.134,7,7,7,1.9282,0,3.6705-0.8026,4.9375-2.0625l1.0625,1.0625h1v-4h-5l1.53125,1.53125c-0.9011,0.9098-2.14815,1.46875-3.53125,1.46875-2.7614,0-5-2.2386-5-5h-2z" fill-opacity="0.75" fill-rule="nonzero" fill="#EDEFF3"/>
	<path id="path3054" style="baseline-shift:baseline;block-progression:tb;color:#000000;direction:ltr;text-indent:0;text-align:start;enable-background:accumulate;text-transform:none;" d="M8,0c-2.5117,0-4.26575,0.53135-5.90625,2.09375l0.96875,0.96875c1.267-1.2599,3.0093-2.0625,4.9375-2.0625,3.866,0,7,3.134,7,7,0.5082-4.1101-2.2811-8-7-8zm-8,0.75,0,5.25,1,1,6,0-1-1-5,0,0-4.25-1-1zm8,2.25c-1.3831,0-2.63005,0.55895-3.53125,1.46875l0.90625,0.90625c0.6245-0.6949,1.7484-1.375,2.625-1.375,2.0843,0,4.3056,1.3299,5,4,0-2.7614-2.2386-5-5-5zm-7,5c-0.5082,4.1101,2.2811,8,7,8,2.5117,0,4.26575-0.53135,5.90625-2.09375l-0.96875-0.96875c-1.267,1.2599-3.0093,2.0625-4.9375,2.0625-3.866,0-7-3.134-7-7zm2,0c0,2.7614,2.2386,5,5,5,1.3831,0,2.63005-0.55895,3.53125-1.46875l-0.90625-0.90625c-0.6245,0.6949-1.7484,1.375-2.625,1.375-2.0843,0-4.3056-1.3299-5-4zm6,1,1,1,5,0,0,4.25,1,1v-5.25l-1-1h-6z" fill-opacity="0.74329164" fill-rule="nonzero" fill="#485462"/>
</svg>
