<?xml version="1.0" encoding="UTF-8" standalone="no"?>
<!-- Created with Inkscape (http://www.inkscape.org/) -->

<svg
   xmlns:dc="http://purl.org/dc/elements/1.1/"
   xmlns:cc="http://creativecommons.org/ns#"
   xmlns:rdf="http://www.w3.org/1999/02/22-rdf-syntax-ns#"
   xmlns:svg="http://www.w3.org/2000/svg"
   xmlns="http://www.w3.org/2000/svg"
   xmlns:sodipodi="http://sodipodi.sourceforge.net/DTD/sodipodi-0.dtd"
   xmlns:inkscape="http://www.inkscape.org/namespaces/inkscape"
   id="svg13094"
   height="16"
   width="16"
   version="1.1"
   inkscape:version="0.48.3.1 r9886"
   sodipodi:docname="document-share.svg">
  <defs
     id="defs3002" />
  <sodipodi:namedview
     pagecolor="#ffffff"
     bordercolor="#666666"
     borderopacity="1"
     objecttolerance="10"
     gridtolerance="10"
     guidetolerance="10"
     inkscape:pageopacity="0"
     inkscape:pageshadow="2"
     inkscape:window-width="1920"
     inkscape:window-height="1032"
     id="namedview3000"
     showgrid="false"
     inkscape:zoom="22.627417"
     inkscape:cx="9.6815548"
     inkscape:cy="9.1214691"
     inkscape:window-x="-7"
     inkscape:window-y="25"
     inkscape:window-maximized="1"
     inkscape:current-layer="svg13094"
     inkscape:snap-bbox="true"
     inkscape:bbox-paths="true"
     inkscape:bbox-nodes="true"
     inkscape:snap-bbox-edge-midpoints="true"
     inkscape:snap-bbox-midpoints="true"
     inkscape:object-paths="true"
     inkscape:snap-intersection-paths="true"
     inkscape:object-nodes="true"
     inkscape:snap-smooth-nodes="true"
     inkscape:snap-midpoints="true"
     inkscape:snap-object-midpoints="true"
     inkscape:snap-center="true"
     inkscape:snap-global="true"
     inkscape:showpageshadow="false"
     showborder="true">
    <inkscape:grid
       type="xygrid"
       id="grid2982"
       empspacing="5"
       visible="true"
       enabled="true"
       snapvisiblegridlinesonly="true" />
  </sodipodi:namedview>
  <metadata
     id="metadata13099">
    <rdf:RDF>
      <cc:Work
         rdf:about="">
        <dc:format>image/svg+xml</dc:format>
        <dc:type
           rdf:resource="http://purl.org/dc/dcmitype/StillImage" />
        <dc:title />
      </cc:Work>
    </rdf:RDF>
  </metadata>
  <path
     id="path2996"
     d="m 14.53125,-2.78125 -4.5625,4.5625 c -1.7065977,-0.5401981 -3.6206094,-0.378229 -5.25,0.5625 -0.5856394,0.3381189 -1.0641367,0.7467833 -1.5,1.21875 -1.8163628,1.966815 -2.26938293,4.9245247 -1,7.40625 l 1.9375,-1.9375 C 3.7964338,7.7011208 4.1409106,6.2028394 5.1875,5.15625 c 1.5620972,-1.5620971 4.0941525,-1.5620971 5.65625,0 l 5.8125,-5.8125 -2.125,-2.125 z"
     style="fill:#434a55;fill-opacity:0.6745098;fill-rule:nonzero;stroke:none"
     inkscape:connector-curvature="0" />
  <path
     id="path3784"
     d="m 14.53125,-4.40625 -0.8125,0.8125 -4.1875,4.1875 C 7.7314788,0.22056911 5.8336849,0.37528262 4.15625,1.34375 3.4580285,1.7468682 2.8709939,2.244172 2.375,2.78125 1.0509489,4.2149743 0.34088967,6.0849154 0.34375,8 L 1.5,8 c -0.00209,-1.6240186 0.5976584,-3.2235466 1.71875,-4.4375 0.4358633,-0.4719667 0.9143606,-0.8806311 1.5,-1.21875 1.6293906,-0.940729 3.5434023,-1.1026981 5.25,-0.5625 l 4.5625,-4.5625 2.125,2.125 -5.8125,5.8125 C 9.2816525,3.5941529 6.7495972,3.5941529 5.1875,5.15625 4.402558,5.941192 4.0253955,6.9684012 4.03125,8 L 5.1875,8 C 5.1785794,7.2694344 5.439177,6.529573 6,5.96875 c 1.1227309,-1.1227308 2.9085187,-1.122731 4.03125,0 l 0.8125,0.8125 0.8125,-0.8125 5.8125,-5.8125 0.8125,-0.8125 -0.8125,-0.8125 -2.125,-2.125 -0.8125,-0.8125 z"
     style="font-size:medium;font-style:normal;font-variant:normal;font-weight:normal;font-stretch:normal;text-indent:0;text-align:start;text-decoration:none;line-height:normal;letter-spacing:normal;word-spacing:normal;text-transform:none;direction:ltr;block-progression:tb;writing-mode:lr-tb;text-anchor:start;baseline-shift:baseline;color:#000000;fill:#d1d4d6;fill-opacity:0.74329164;fill-rule:nonzero;stroke:none;stroke-width:2;marker:none;visibility:visible;display:inline;overflow:visible;enable-background:accumulate;font-family:Sans;-inkscape-font-specification:Sans"
     inkscape:connector-curvature="0" />
  <path
     style="font-size:medium;font-style:normal;font-variant:normal;font-weight:normal;font-stretch:normal;text-indent:0;text-align:start;text-decoration:none;line-height:normal;letter-spacing:normal;word-spacing:normal;text-transform:none;direction:ltr;block-progression:tb;writing-mode:lr-tb;text-anchor:start;baseline-shift:baseline;color:#000000;fill:#d1d4d6;fill-opacity:0.74329164;fill-rule:nonzero;stroke:none;stroke-width:2;marker:none;visibility:visible;display:inline;overflow:visible;enable-background:accumulate;font-family:Sans;-inkscape-font-specification:Sans"
     d="M 1.5,20.40625 2.3125,19.59375 6.5,15.40625 c 1.7997716,0.373181 3.697565,0.218467 5.375,-0.75 0.698222,-0.403118 1.285256,-0.900422 1.78125,-1.4375 C 14.980301,11.785026 15.690361,9.9150846 15.6875,8 l -1.15625,0 c 0.0021,1.6240186 -0.597658,3.223547 -1.71875,4.4375 -0.435863,0.471967 -0.91436,0.880631 -1.5,1.21875 -1.6293904,0.940729 -3.5434024,1.102698 -5.25,0.5625 l -4.5625,4.5625 -2.125,-2.125 5.8125,-5.8125 c 1.5620975,1.562097 4.0941526,1.562097 5.65625,0 C 11.628692,10.058808 12.005855,9.0315988 12,8 l -1.15625,0 c 0.0089,0.7305656 -0.251677,1.470427 -0.8125,2.03125 -1.1227314,1.122731 -2.9085187,1.122731 -4.03125,0 l -0.8125,-0.8125 -0.8125,0.8125 -5.8125,5.8125 -0.8125,0.8125 0.8125,0.8125 2.125,2.125 0.8125,0.8125 z"
     id="path2994"
     inkscape:connector-curvature="0" />
  <path
     style="fill:#434a55;fill-opacity:0.6745098;fill-rule:nonzero;stroke:none"
     d="m 13.78125,5.03125 -1.9375,1.9375 c 0.359816,1.3301294 0.04659,2.8284108 -1,3.875 -1.5620975,1.562098 -4.0941528,1.562098 -5.65625,0 l -5.84375,5.8125 2.125,2.125 4.5625,-4.5625 c 1.7065972,0.540198 3.6206099,0.378229 5.25,-0.5625 3.02428,-1.74607 4.070491,-5.549811 2.5,-8.625 z"
     id="path2992" />
  <path
     style="fill:#434a55;fill-opacity:0.6745098;fill-rule:nonzero;stroke:none"
     d="M 8,6 C 6.8954305,6 6,6.8954305 6,8 6,9.1045695 6.8954305,10 8,10 9.1045695,10 10,9.1045695 10,8 10,6.8954305 9.1045695,6 8,6 z"
     id="path2991" />
</svg>
