<?xml version="1.0" encoding="UTF-8" standalone="no"?>
<!-- Created with Inkscape (http://www.inkscape.org/) -->

<svg
   xmlns:dc="http://purl.org/dc/elements/1.1/"
   xmlns:cc="http://creativecommons.org/ns#"
   xmlns:rdf="http://www.w3.org/1999/02/22-rdf-syntax-ns#"
   xmlns:svg="http://www.w3.org/2000/svg"
   xmlns="http://www.w3.org/2000/svg"
   xmlns:sodipodi="http://sodipodi.sourceforge.net/DTD/sodipodi-0.dtd"
   xmlns:inkscape="http://www.inkscape.org/namespaces/inkscape"
   width="15.999998"
   height="15.999998"
   id="svg13094"
   version="1.1"
   inkscape:version="0.48.4 r9939"
   sodipodi:docname="tab-close-other.svg">
  <sodipodi:namedview
     id="base"
     pagecolor="#ffffff"
     bordercolor="#666666"
     borderopacity="1.0"
     inkscape:pageopacity="0.0"
     inkscape:pageshadow="2"
     inkscape:zoom="45.254834"
     inkscape:cx="6.6254656"
     inkscape:cy="8.7593493"
     inkscape:document-units="px"
     inkscape:current-layer="layer1"
     showgrid="false"
     inkscape:snap-bbox="true"
     inkscape:bbox-paths="true"
     inkscape:bbox-nodes="true"
     inkscape:snap-bbox-edge-midpoints="true"
     inkscape:snap-bbox-midpoints="true"
     inkscape:object-paths="true"
     inkscape:snap-intersection-paths="true"
     inkscape:object-nodes="true"
     inkscape:snap-smooth-nodes="true"
     inkscape:snap-midpoints="true"
     inkscape:snap-object-midpoints="true"
     inkscape:snap-center="true"
     showguides="false"
     inkscape:guide-bbox="true"
     inkscape:window-width="1920"
     inkscape:window-height="1022"
     inkscape:window-x="-5"
     inkscape:window-y="23"
     inkscape:window-maximized="1"
     inkscape:snap-global="true"
     fit-margin-top="0"
     fit-margin-left="0"
     fit-margin-right="0"
     fit-margin-bottom="0"
     showborder="true"
     inkscape:showpageshadow="false">
    <sodipodi:guide
       orientation="0,1"
       position="-25.000065,930.61288"
       id="guide4700" />
    <sodipodi:guide
       orientation="0,1"
       position="576.71881,328.8939"
       id="guide4702" />
    <sodipodi:guide
       orientation="1,0"
       position="576.71893,489.70397"
       id="guide4706" />
    <sodipodi:guide
       orientation="1,0"
       position="54.999936,930.61288"
       id="guide4708" />
    <sodipodi:guide
       orientation="0,1"
       position="-25.000065,850.61298"
       id="guide4710" />
    <sodipodi:guide
       orientation="0,1"
       position="536.71881,408.89382"
       id="guide4712" />
    <sodipodi:guide
       orientation="1,0"
       position="496.71881,408.89382"
       id="guide4714" />
    <inkscape:grid
       type="xygrid"
       id="grid3216"
       empspacing="5"
       visible="true"
       enabled="true"
       snapvisiblegridlinesonly="true"
       originx="-25.000011px"
       originy="-219.00003px" />
    <sodipodi:guide
       orientation="-0.70710664,0.70710692"
       position="3.9999896,-246.00003"
       id="guide3847" />
    <sodipodi:guide
       orientation="0.70710594,0.70710762"
       position="4.9999896,-245.00003"
       id="guide3849" />
    <sodipodi:guide
       orientation="-0.70710681,0.70710676"
       position="6.9999896,-212.00003"
       id="guide3851" />
  </sodipodi:namedview>
  <defs
     id="defs13096" />
  <metadata
     id="metadata13099">
    <rdf:RDF>
      <cc:Work
         rdf:about="">
        <dc:format>image/svg+xml</dc:format>
        <dc:type
           rdf:resource="http://purl.org/dc/dcmitype/StillImage" />
        <dc:title />
      </cc:Work>
    </rdf:RDF>
  </metadata>
  <g
     transform="translate(9379.308,-4843.1988)"
     id="layer1"
     inkscape:groupmode="layer"
     inkscape:label="Camada 1">
    <path
       style="color:#000000;fill:#f1f3f5;fill-opacity:0.90288714000000003;fill-rule:nonzero;stroke:none;stroke-width:2;marker:none;visibility:visible;display:inline;overflow:visible;enable-background:accumulate"
       d="M 8.09375 0 L 7.59375 1 L 7 1 L 6 1 L 6 2 L 7 2 L 7.15625 1.84375 L 5 6 L 4.5 7 L 4 7 L 4 8 L 3 8 L 3 7 L 2 7 L 2 8 L 1 8 L 1 7 L 0 7 L 0 8 L 0 9 L 0 15 L 0 16 L 1 16 L 16 16 L 16 15 L 16 1 L 16 0 L 8.09375 0 z M 1 7 L 2 7 L 2 6 L 1 6 L 1 7 z M 1 6 L 1 5 L 0 5 L 0 6 L 1 6 z M 1 5 L 2 5 L 2 4 L 1 4 L 1 5 z M 1 4 L 1 3 L 0 3 L 0 4 L 1 4 z M 1 3 L 2 3 L 2 2 L 1 2 L 1 3 z M 1 2 L 1 1 L 0 1 L 0 2 L 1 2 z M 2 2 L 3 2 L 3 1 L 2 1 L 2 2 z M 3 2 L 3 3 L 4 3 L 4 2 L 3 2 z M 4 2 L 5 2 L 5 1 L 4 1 L 4 2 z M 5 2 L 5 3 L 6 3 L 6 2 L 5 2 z M 6 3 L 6 4 L 6.5 3 L 6 3 z M 6 4 L 5 4 L 5 5 L 5.5 5 L 6 4 z M 5 5 L 4 5 L 4 6 L 5 6 L 5 5 z M 4 6 L 3 6 L 3 7 L 4 7 L 4 6 z M 3 6 L 3 5 L 2 5 L 2 6 L 3 6 z M 3 5 L 4 5 L 4 4 L 3 4 L 3 5 z M 3 4 L 3 3 L 2 3 L 2 4 L 3 4 z M 4 4 L 5 4 L 5 3 L 4 3 L 4 4 z M 8.75 1 L 15 1 L 15 15 L 1 15 L 1 9 L 4.75 9 L 8.75 1 z "
       transform="translate(-9379.308,4843.1988)"
       id="path3024" />
    <path
       style="color:#000000;fill:#27303a;fill-opacity:0.923280819999999968;fill-rule:nonzero;stroke:none;stroke-width:2;marker:none;visibility:visible;display:inline;overflow:visible;enable-background:accumulate"
       d="M 8.75 1 L 4.75 9 L 1 9 L 1 15 L 15 15 L 15 1 L 8.75 1 z M 2 2 L 2 3 L 3 3 L 3 2 L 2 2 z M 3 3 L 3 4 L 4 4 L 4 3 L 3 3 z M 4 3 L 5 3 L 5 2 L 4 2 L 4 3 z M 5 3 L 5 4 L 6 4 L 6 3 L 5 3 z M 6 3 L 6.5625 3 L 7.0625 2 L 7 2 L 6 2 L 6 3 z M 6 4 L 6 4.09375 L 6.03125 4 L 6 4 z M 5 4 L 4 4 L 4 5 L 5 5 L 5 4 z M 5 5 L 5 6 L 5.03125 6 L 5.53125 5 L 5 5 z M 5 6 L 4 6 L 4 7 L 4.5 7 L 5 6.03125 L 5 6 z M 4 7 L 3 7 L 3 8 L 4 8 L 4 7 z M 3 7 L 3 6 L 2 6 L 2 7 L 3 7 z M 2 7 L 1 7 L 1 8 L 2 8 L 2 7 z M 2 6 L 2 5 L 1 5 L 1 6 L 2 6 z M 2 5 L 3 5 L 3 4 L 2 4 L 2 5 z M 2 4 L 2 3 L 1 3 L 1 4 L 2 4 z M 3 5 L 3 6 L 4 6 L 4 5 L 3 5 z "
       transform="translate(-9379.308,4843.1988)"
       id="path3018" />
  </g>
</svg>
