<?xml version="1.0" encoding="UTF-8" standalone="no"?>
<!-- Created with Inkscape (http://www.inkscape.org/) -->

<svg
   xmlns:dc="http://purl.org/dc/elements/1.1/"
   xmlns:cc="http://creativecommons.org/ns#"
   xmlns:rdf="http://www.w3.org/1999/02/22-rdf-syntax-ns#"
   xmlns:svg="http://www.w3.org/2000/svg"
   xmlns="http://www.w3.org/2000/svg"
   xmlns:sodipodi="http://sodipodi.sourceforge.net/DTD/sodipodi-0.dtd"
   xmlns:inkscape="http://www.inkscape.org/namespaces/inkscape"
   width="16.000031"
   height="16.000029"
   id="svg27665"
   version="1.1"
   inkscape:version="0.48.3.1 r9886"
   sodipodi:docname="view-pim-contacts.svg">
  <defs
     id="defs27667" />
  <sodipodi:namedview
     id="base"
     pagecolor="#ffffff"
     bordercolor="#666666"
     borderopacity="1.0"
     inkscape:pageopacity="0.0"
     inkscape:pageshadow="2"
     inkscape:zoom="44.8"
     inkscape:cx="8.615541"
     inkscape:cy="7.1634892"
     inkscape:document-units="px"
     inkscape:current-layer="layer1"
     showgrid="true"
     inkscape:window-width="1920"
     inkscape:window-height="1032"
     inkscape:window-x="-7"
     inkscape:window-y="25"
     inkscape:window-maximized="1"
     inkscape:snap-bbox="true"
     inkscape:bbox-paths="true"
     inkscape:bbox-nodes="true"
     inkscape:snap-bbox-edge-midpoints="true"
     inkscape:snap-bbox-midpoints="true"
     inkscape:object-paths="true"
     inkscape:snap-intersection-paths="true"
     inkscape:object-nodes="true"
     inkscape:snap-smooth-nodes="true"
     inkscape:snap-midpoints="true"
     inkscape:snap-object-midpoints="true"
     inkscape:snap-center="true"
     inkscape:snap-global="true"
     showguides="false"
     inkscape:guide-bbox="true"
     fit-margin-top="0"
     fit-margin-left="0"
     fit-margin-right="0"
     fit-margin-bottom="0"
     inkscape:showpageshadow="false">
    <sodipodi:guide
       orientation="0,1"
       position="-1494.2276,523.03618"
       id="guide4179" />
    <sodipodi:guide
       orientation="1,0"
       position="-1492.0847,520.17904"
       id="guide4181" />
    <inkscape:grid
       type="xygrid"
       id="grid4279"
       empspacing="5"
       visible="true"
       enabled="true"
       snapvisiblegridlinesonly="true"
       originx="6.6056504e-05px"
       originy="592.00001px" />
  </sodipodi:namedview>
  <metadata
     id="metadata27670">
    <rdf:RDF>
      <cc:Work
         rdf:about="">
        <dc:format>image/svg+xml</dc:format>
        <dc:type
           rdf:resource="http://purl.org/dc/dcmitype/StillImage" />
        <dc:title />
      </cc:Work>
    </rdf:RDF>
  </metadata>
  <g
     inkscape:label="Camada 1"
     inkscape:groupmode="layer"
     id="layer1"
     transform="translate(3393.2465,-1650.2411)">
    <path
       sodipodi:nodetypes="cccccccccccccssssscccccccccccccccccccc"
       inkscape:connector-curvature="0"
       id="path2986"
       d="m -3392.2465,1652.2411 0,12 2,0 0,-1 3,0 0,1 4,0 0,-1 3,0 0,1 2,0 0,-12 z m 4.5,3 c 0.8284,0 1.5,0.6716 1.5,1.5 0,0.8284 -0.6716,1.5 -1.5,1.5 -0.8284,0 -1.5,-0.6716 -1.5,-1.5 0,-0.8284 0.6716,-1.5 1.5,-1.5 z m 4.5,0 3,0 0,1 -3,0 z m 0,2 3,0 0,1 -3,0 z m -7,2 5,0 1,2 -7,0 z m 7,0 3,0 0,1 -3,0 z"
       style="fill:#434a55;fill-opacity:0.6745098;fill-rule:nonzero;stroke:none" />
    <path
       style="font-size:medium;font-style:normal;font-variant:normal;font-weight:normal;font-stretch:normal;text-indent:0;text-align:start;text-decoration:none;line-height:normal;letter-spacing:normal;word-spacing:normal;text-transform:none;direction:ltr;block-progression:tb;writing-mode:lr-tb;text-anchor:start;baseline-shift:baseline;color:#000000;fill:#d1d4d6;fill-opacity:0.74329164000000003;fill-rule:nonzero;stroke:none;stroke-width:2;marker:none;visibility:visible;display:inline;overflow:visible;enable-background:accumulate;font-family:Sans;-inkscape-font-specification:Sans"
       d="m 0,1 0,1 0,12 0,1 1,0 2,0 0,0 0,-1 3,0 0,1 0,0 4,0 0,0 0,-1 3,0 0,1 0,0 2,0 1,0 0,-1 L 16,2 16,1 15,1 1,1 z m 1,1 14,0 0,12 -2,0 0,-1 -3,0 0,1 -4,0 0,-1 -3,0 0,1 -2,0 z M 5.5,5 C 4.6716,5 4,5.6716 4,6.5 4,7.3284 4.6716,8 5.5,8 6.3284,8 7,7.3284 7,6.5 7,5.6716 6.3284,5 5.5,5 z m 4.5,0 0,1 3,0 0,-1 z m 0,2 0,1 3,0 0,-1 z M 3,9 2,11 9,11 8,9 z m 7,0 0,1 3,0 0,-1 z"
       transform="translate(-3393.2465,1650.2411)"
       id="rect3041"
       inkscape:connector-curvature="0"
       sodipodi:nodetypes="ccccccccccccccccccccccccccccccccccccccssssscccccccccccccccccccc" />
  </g>
</svg>
