<?xml version="1.0" encoding="UTF-8" standalone="no"?>
<!-- Created with Inkscape (http://www.inkscape.org/) -->

<svg
   xmlns:dc="http://purl.org/dc/elements/1.1/"
   xmlns:cc="http://creativecommons.org/ns#"
   xmlns:rdf="http://www.w3.org/1999/02/22-rdf-syntax-ns#"
   xmlns:svg="http://www.w3.org/2000/svg"
   xmlns="http://www.w3.org/2000/svg"
   xmlns:sodipodi="http://sodipodi.sourceforge.net/DTD/sodipodi-0.dtd"
   xmlns:inkscape="http://www.inkscape.org/namespaces/inkscape"
   width="15.999998"
   height="15.999998"
   id="svg13094"
   version="1.1"
   inkscape:version="0.48.3.1 r9886"
   sodipodi:docname="zoom-fit-best.svg">
  <sodipodi:namedview
     id="base"
     pagecolor="#ffffff"
     bordercolor="#666666"
     borderopacity="1.0"
     inkscape:pageopacity="0.0"
     inkscape:pageshadow="2"
     inkscape:zoom="45.254834"
     inkscape:cx="6.1753592"
     inkscape:cy="7.971172"
     inkscape:document-units="px"
     inkscape:current-layer="layer1"
     showgrid="true"
     inkscape:snap-bbox="true"
     inkscape:bbox-paths="true"
     inkscape:bbox-nodes="true"
     inkscape:snap-bbox-edge-midpoints="true"
     inkscape:snap-bbox-midpoints="true"
     inkscape:object-paths="true"
     inkscape:snap-intersection-paths="true"
     inkscape:object-nodes="true"
     inkscape:snap-smooth-nodes="true"
     inkscape:snap-midpoints="true"
     inkscape:snap-object-midpoints="true"
     inkscape:snap-center="true"
     showguides="false"
     inkscape:guide-bbox="true"
     inkscape:window-width="1920"
     inkscape:window-height="1032"
     inkscape:window-x="-7"
     inkscape:window-y="25"
     inkscape:window-maximized="1"
     inkscape:snap-global="true"
     fit-margin-top="0"
     fit-margin-left="0"
     fit-margin-right="0"
     fit-margin-bottom="0"
     showborder="true"
     inkscape:showpageshadow="false">
    <sodipodi:guide
       orientation="0,1"
       position="-25.000005,930.61286"
       id="guide4700" />
    <sodipodi:guide
       orientation="0,1"
       position="576.71887,328.89388"
       id="guide4702" />
    <sodipodi:guide
       orientation="1,0"
       position="576.71899,489.70395"
       id="guide4706" />
    <sodipodi:guide
       orientation="1,0"
       position="54.999996,930.61286"
       id="guide4708" />
    <sodipodi:guide
       orientation="0,1"
       position="-25.000005,850.61296"
       id="guide4710" />
    <sodipodi:guide
       orientation="0,1"
       position="536.71887,408.8938"
       id="guide4712" />
    <sodipodi:guide
       orientation="1,0"
       position="496.71887,408.8938"
       id="guide4714" />
    <inkscape:grid
       type="xygrid"
       id="grid3216"
       empspacing="5"
       visible="true"
       enabled="true"
       snapvisiblegridlinesonly="true"
       originx="-24.999951px"
       originy="-219.00005px" />
    <sodipodi:guide
       orientation="-0.70710664,0.70710692"
       position="4.0000502,-246.00005"
       id="guide3847" />
    <sodipodi:guide
       orientation="0.70710594,0.70710762"
       position="5.0000502,-245.00005"
       id="guide3849" />
    <sodipodi:guide
       orientation="-0.70710681,0.70710676"
       position="7.0000502,-212.00005"
       id="guide3851" />
  </sodipodi:namedview>
  <defs
     id="defs13096" />
  <metadata
     id="metadata13099">
    <rdf:RDF>
      <cc:Work
         rdf:about="">
        <dc:format>image/svg+xml</dc:format>
        <dc:type
           rdf:resource="http://purl.org/dc/dcmitype/StillImage" />
        <dc:title />
      </cc:Work>
    </rdf:RDF>
  </metadata>
  <g
     transform="translate(9379.308,-4843.1988)"
     id="layer1"
     inkscape:groupmode="layer"
     inkscape:label="Camada 1">
    <path
       style="font-size:medium;font-style:normal;font-variant:normal;font-weight:normal;font-stretch:normal;text-indent:0;text-align:start;text-decoration:none;line-height:normal;letter-spacing:normal;word-spacing:normal;text-transform:none;direction:ltr;block-progression:tb;writing-mode:lr-tb;text-anchor:start;baseline-shift:baseline;color:#000000;fill:#d1d4d6;fill-opacity:0.74329164000000003;fill-rule:nonzero;stroke:none;stroke-width:2;marker:none;visibility:visible;display:inline;overflow:visible;enable-background:accumulate;font-family:Sans;-inkscape-font-specification:Sans"
       d="M 8 -0.375 C 3.3774 -0.375 -0.40625 3.3774 -0.40625 8 C -0.40625 12.6226 3.3774 16.40625 8 16.40625 L 12.96875 16.40625 L 13.5625 17 L 14 17.40625 L 14.5625 17.40625 L 16 17.40625 L 17.40625 17.40625 L 17.40625 16 L 17.40625 14.5625 L 17.40625 14 L 17 13.59375 L 16.40625 13 L 16.40625 8 C 16.40625 3.3774 12.6226 -0.375 8 -0.375 z M 8 1 C 11.866 1 15 4.134 15 8 L 15 13.5625 L 16 14.5625 L 16 16 L 14.5625 16 L 13.5625 15 L 8 15 C 7.758375 15 7.5165698 14.992648 7.28125 14.96875 C 7.0459302 14.944852 6.8215918 14.890373 6.59375 14.84375 C 3.4039648 14.191027 1 11.38275 1 8 C 1 7.758375 1.0073521 7.5165698 1.03125 7.28125 C 1.3897192 3.7514526 4.375625 1 8 1 z M 8 3 C 7.391 3 6.8189127 3.1085322 6.28125 3.3125 C 6.1020271 3.3804873 5.9187542 3.4749858 5.75 3.5625 C 5.2437406 3.8250469 4.7954268 4.1524463 4.40625 4.5625 C 4.2765285 4.6991878 4.1454184 4.8500566 4.03125 5 L 3 5 L 3 8 L 3 11 L 4.03125 11 C 4.373775 11.449813 4.7789561 11.839829 5.25 12.15625 C 5.4070143 12.261723 5.5812458 12.349986 5.75 12.4375 C 6.4250125 12.787562 7.188 13 8 13 C 9.624 13 11.05545 12.1995 11.96875 11 L 13 11 L 13 8 L 13 5 L 11.96875 5 C 11.05545 3.8005 9.624 3 8 3 z M 4 6 L 12 6 L 12 10 L 4 10 L 4 6 z M 5 7 L 5 9 L 11 9 L 11 7 L 5 7 z "
       transform="translate(-9379.308,4843.1988)"
       id="path3028" />
    <path
       id="path2997"
       d="m -9371.308,4844.1988 c -3.866,0 -7,3.134 -7,7 0,3.866 3.134,7 7,7 l 5.5625,0 1,1 1.4375,0 0,-1.4375 -1,-1 0,-5.5625 c 0,-3.866 -3.134,-7 -7,-7 z m 0,2 c 1.624,0 3.0554,0.8005 3.9687,2 l 1.0313,0 0,3 0,3 -1.0313,0 c -0.9133,1.1995 -2.3447,2 -3.9687,2 -1.624,0 -3.0554,-0.8005 -3.9688,-2 l -1.0312,0 0,-3 0,-3 1.0312,0 c 0.9134,-1.1995 2.3448,-2 3.9688,-2 z m -4,3 0,4 8,0 0,-4 -8,0 z m 1,1 6,0 0,2 -6,0 0,-2 z"
       style="color:#000000;fill:#434a55;fill-opacity:0.6745098;fill-rule:nonzero;stroke:none;stroke-width:1;marker:none;visibility:visible;display:inline;overflow:visible;enable-background:accumulate"
       inkscape:connector-curvature="0" />
  </g>
</svg>
