<?xml version="1.0" encoding="UTF-8" standalone="no"?>
<!-- Created with Inkscape (http://www.inkscape.org/) -->

<svg
   xmlns:dc="http://purl.org/dc/elements/1.1/"
   xmlns:cc="http://creativecommons.org/ns#"
   xmlns:rdf="http://www.w3.org/1999/02/22-rdf-syntax-ns#"
   xmlns:svg="http://www.w3.org/2000/svg"
   xmlns="http://www.w3.org/2000/svg"
   xmlns:sodipodi="http://sodipodi.sourceforge.net/DTD/sodipodi-0.dtd"
   xmlns:inkscape="http://www.inkscape.org/namespaces/inkscape"
   width="15.999998"
   height="15.999998"
   id="svg13094"
   version="1.1"
   inkscape:version="0.48.3.1 r9886"
   sodipodi:docname="zoom-fit-width.svg">
  <sodipodi:namedview
     id="base"
     pagecolor="#ffffff"
     bordercolor="#666666"
     borderopacity="1.0"
     inkscape:pageopacity="0.0"
     inkscape:pageshadow="2"
     inkscape:zoom="45.254834"
     inkscape:cx="4.2308156"
     inkscape:cy="8.1921429"
     inkscape:document-units="px"
     inkscape:current-layer="layer1"
     showgrid="true"
     inkscape:snap-bbox="true"
     inkscape:bbox-paths="true"
     inkscape:bbox-nodes="true"
     inkscape:snap-bbox-edge-midpoints="true"
     inkscape:snap-bbox-midpoints="true"
     inkscape:object-paths="true"
     inkscape:snap-intersection-paths="true"
     inkscape:object-nodes="true"
     inkscape:snap-smooth-nodes="true"
     inkscape:snap-midpoints="true"
     inkscape:snap-object-midpoints="true"
     inkscape:snap-center="true"
     showguides="false"
     inkscape:guide-bbox="true"
     inkscape:window-width="1920"
     inkscape:window-height="1032"
     inkscape:window-x="-7"
     inkscape:window-y="25"
     inkscape:window-maximized="1"
     inkscape:snap-global="true"
     fit-margin-top="0"
     fit-margin-left="0"
     fit-margin-right="0"
     fit-margin-bottom="0"
     showborder="true"
     inkscape:showpageshadow="false">
    <sodipodi:guide
       orientation="0,1"
       position="-25.000005,930.61286"
       id="guide4700" />
    <sodipodi:guide
       orientation="0,1"
       position="576.71887,328.89388"
       id="guide4702" />
    <sodipodi:guide
       orientation="1,0"
       position="576.71899,489.70395"
       id="guide4706" />
    <sodipodi:guide
       orientation="1,0"
       position="54.999996,930.61286"
       id="guide4708" />
    <sodipodi:guide
       orientation="0,1"
       position="-25.000005,850.61296"
       id="guide4710" />
    <sodipodi:guide
       orientation="0,1"
       position="536.71887,408.8938"
       id="guide4712" />
    <sodipodi:guide
       orientation="1,0"
       position="496.71887,408.8938"
       id="guide4714" />
    <inkscape:grid
       type="xygrid"
       id="grid3216"
       empspacing="5"
       visible="true"
       enabled="true"
       snapvisiblegridlinesonly="true"
       originx="-24.999951px"
       originy="-219.00005px" />
    <sodipodi:guide
       orientation="-0.70710664,0.70710692"
       position="4.0000502,-246.00005"
       id="guide3847" />
    <sodipodi:guide
       orientation="0.70710594,0.70710762"
       position="5.0000502,-245.00005"
       id="guide3849" />
    <sodipodi:guide
       orientation="-0.70710681,0.70710676"
       position="7.0000502,-212.00005"
       id="guide3851" />
  </sodipodi:namedview>
  <defs
     id="defs13096" />
  <metadata
     id="metadata13099">
    <rdf:RDF>
      <cc:Work
         rdf:about="">
        <dc:format>image/svg+xml</dc:format>
        <dc:type
           rdf:resource="http://purl.org/dc/dcmitype/StillImage" />
        <dc:title />
      </cc:Work>
    </rdf:RDF>
  </metadata>
  <g
     transform="translate(9379.308,-4843.1988)"
     id="layer1"
     inkscape:groupmode="layer"
     inkscape:label="Camada 1">
    <path
       style="font-size:medium;font-style:normal;font-variant:normal;font-weight:normal;font-stretch:normal;text-indent:0;text-align:start;text-decoration:none;line-height:normal;letter-spacing:normal;word-spacing:normal;text-transform:none;direction:ltr;block-progression:tb;writing-mode:lr-tb;text-anchor:start;baseline-shift:baseline;color:#000000;fill:#d1d4d6;fill-opacity:0.74329164000000003;fill-rule:nonzero;stroke:none;stroke-width:2;marker:none;visibility:visible;display:inline;overflow:visible;enable-background:accumulate;font-family:Sans;-inkscape-font-specification:Sans"
       d="M 8 -0.375 C 3.3774 -0.375 -0.40625 3.3774 -0.40625 8 C -0.40625 12.6226 3.3774 16.40625 8 16.40625 L 12.96875 16.40625 L 13.5625 17 L 14 17.40625 L 14.5625 17.40625 L 16 17.40625 L 17.40625 17.40625 L 17.40625 16 L 17.40625 14.5625 L 17.40625 14 L 17 13.59375 L 16.40625 13 L 16.40625 8 C 16.40625 3.3774 12.6226 -0.375 8 -0.375 z M 8 1 C 11.866 1 15 4.134 15 8 L 15 13.5625 L 16 14.5625 L 16 16 L 14.5625 16 L 13.5625 15 L 8 15 C 4.134 15 1 11.866 1 8 C 1 4.134 4.134 1 8 1 z M 8 3 C 5.8357528 3 4.0084361 4.3883536 3.3125 6.3125 L 2.3125 7.3125 A 1.0001 1.0001 0 0 0 2.3125 8.71875 L 3.34375 9.75 C 4.0571434 11.64044 5.859915 13 8 13 C 10.115923 13 11.89492 11.669309 12.625 9.8125 L 13.71875 8.71875 A 1.0001 1.0001 0 0 0 13.71875 7.3125 L 12.65625 6.25 C 11.942857 4.3595598 10.140085 3 8 3 z M 6 5 L 6 7 L 10 7 L 10 5 L 13 8 L 10 11 L 10 9 L 6 9 L 6 11 L 3 8 L 6 5 z "
       transform="translate(-9379.308,4843.1988)"
       id="path3028" />
    <path
       id="path3003"
       d="m -9371.308,4844.1988 c -3.866,0 -7,3.134 -7,7 0,3.866 3.134,7 7,7 l 5.5625,0 1,1 1.4375,0 0,-1.4375 -1,-1 0,-5.5625 c 0,-3.866 -3.134,-7 -7,-7 z m 0,2 c 2.1401,0 3.9429,1.3596 4.6562,3.25 l 1.0625,1.0625 a 1.0001,1.0001 0 0 1 0,1.4062 l -1.0937,1.0938 c -0.7301,1.8568 -2.5091,3.1875 -4.625,3.1875 -2.1401,0 -3.9429,-1.3596 -4.6563,-3.25 l -1.0312,-1.0313 a 1.0001,1.0001 0 0 1 0,-1.4062 l 1,-1 c 0.6959,-1.9241 2.5233,-3.3125 4.6875,-3.3125 z m -2,2 -3,3 3,3 0,-2 4,0 0,2 3,-3 -3,-3 0,2 -4,0 0,-2 z"
       style="color:#000000;fill:#434a55;fill-opacity:0.6745098;fill-rule:nonzero;stroke:none;stroke-width:1;marker:none;visibility:visible;display:inline;overflow:visible;enable-background:accumulate"
       inkscape:connector-curvature="0" />
  </g>
</svg>
