<?xml version="1.0" encoding="UTF-8" standalone="no"?>
<!-- Created with Inkscape (http://www.inkscape.org/) -->

<svg
   xmlns:dc="http://purl.org/dc/elements/1.1/"
   xmlns:cc="http://creativecommons.org/ns#"
   xmlns:rdf="http://www.w3.org/1999/02/22-rdf-syntax-ns#"
   xmlns:svg="http://www.w3.org/2000/svg"
   xmlns="http://www.w3.org/2000/svg"
   xmlns:sodipodi="http://sodipodi.sourceforge.net/DTD/sodipodi-0.dtd"
   xmlns:inkscape="http://www.inkscape.org/namespaces/inkscape"
   width="15.999998"
   height="15.999998"
   id="svg13094"
   version="1.1"
   inkscape:version="0.48.3.1 r9886"
   sodipodi:docname="zoom-fit-page.svg">
  <sodipodi:namedview
     id="base"
     pagecolor="#ffffff"
     bordercolor="#666666"
     borderopacity="1.0"
     inkscape:pageopacity="0.0"
     inkscape:pageshadow="2"
     inkscape:zoom="45.254834"
     inkscape:cx="8.6981802"
     inkscape:cy="7.6804423"
     inkscape:document-units="px"
     inkscape:current-layer="layer1"
     showgrid="true"
     inkscape:snap-bbox="true"
     inkscape:bbox-paths="true"
     inkscape:bbox-nodes="true"
     inkscape:snap-bbox-edge-midpoints="true"
     inkscape:snap-bbox-midpoints="true"
     inkscape:object-paths="true"
     inkscape:snap-intersection-paths="true"
     inkscape:object-nodes="true"
     inkscape:snap-smooth-nodes="true"
     inkscape:snap-midpoints="true"
     inkscape:snap-object-midpoints="true"
     inkscape:snap-center="true"
     showguides="false"
     inkscape:guide-bbox="true"
     inkscape:window-width="1920"
     inkscape:window-height="1032"
     inkscape:window-x="-7"
     inkscape:window-y="25"
     inkscape:window-maximized="1"
     inkscape:snap-global="true"
     fit-margin-top="0"
     fit-margin-left="0"
     fit-margin-right="0"
     fit-margin-bottom="0"
     showborder="true"
     inkscape:showpageshadow="false">
    <sodipodi:guide
       orientation="0,1"
       position="-25.000005,930.61286"
       id="guide4700" />
    <sodipodi:guide
       orientation="0,1"
       position="576.71887,328.89388"
       id="guide4702" />
    <sodipodi:guide
       orientation="1,0"
       position="576.71899,489.70395"
       id="guide4706" />
    <sodipodi:guide
       orientation="1,0"
       position="54.999996,930.61286"
       id="guide4708" />
    <sodipodi:guide
       orientation="0,1"
       position="-25.000005,850.61296"
       id="guide4710" />
    <sodipodi:guide
       orientation="0,1"
       position="536.71887,408.8938"
       id="guide4712" />
    <sodipodi:guide
       orientation="1,0"
       position="496.71887,408.8938"
       id="guide4714" />
    <inkscape:grid
       type="xygrid"
       id="grid3216"
       empspacing="5"
       visible="true"
       enabled="true"
       snapvisiblegridlinesonly="true"
       originx="-24.999951px"
       originy="-219.00005px" />
    <sodipodi:guide
       orientation="-0.70710664,0.70710692"
       position="4.0000502,-246.00005"
       id="guide3847" />
    <sodipodi:guide
       orientation="0.70710594,0.70710762"
       position="5.0000502,-245.00005"
       id="guide3849" />
    <sodipodi:guide
       orientation="-0.70710681,0.70710676"
       position="7.0000502,-212.00005"
       id="guide3851" />
  </sodipodi:namedview>
  <defs
     id="defs13096" />
  <metadata
     id="metadata13099">
    <rdf:RDF>
      <cc:Work
         rdf:about="">
        <dc:format>image/svg+xml</dc:format>
        <dc:type
           rdf:resource="http://purl.org/dc/dcmitype/StillImage" />
        <dc:title />
      </cc:Work>
    </rdf:RDF>
  </metadata>
  <g
     transform="translate(9379.308,-4843.1988)"
     id="layer1"
     inkscape:groupmode="layer"
     inkscape:label="Camada 1">
    <path
       style="font-size:medium;font-style:normal;font-variant:normal;font-weight:normal;font-stretch:normal;text-indent:0;text-align:start;text-decoration:none;line-height:normal;letter-spacing:normal;word-spacing:normal;text-transform:none;direction:ltr;block-progression:tb;writing-mode:lr-tb;text-anchor:start;baseline-shift:baseline;color:#000000;fill:#d1d4d6;fill-opacity:0.74329164000000003;fill-rule:nonzero;stroke:none;stroke-width:2;marker:none;visibility:visible;display:inline;overflow:visible;enable-background:accumulate;font-family:Sans;-inkscape-font-specification:Sans"
       d="M 8 -0.375 C 3.3774 -0.375 -0.40625 3.3774 -0.40625 8 C -0.40625 12.6226 3.3774 16.40625 8 16.40625 L 12.96875 16.40625 L 13.5625 17 L 14 17.40625 L 14.5625 17.40625 L 16 17.40625 L 17.40625 17.40625 L 17.40625 16 L 17.40625 14.5625 L 17.40625 14 L 17 13.59375 L 16.40625 13 L 16.40625 8 C 16.40625 3.3774 12.6226 -0.375 8 -0.375 z M 8 1 C 11.866 1 15 4.134 15 8 L 15 13.5625 L 16 14.5625 L 16 16 L 14.5625 16 L 13.5625 15 L 8 15 C 4.134 15 1 11.866 1 8 C 1 4.134 4.134 1 8 1 z M 4 3 L 4 4 L 4 5.03125 C 3.3761266 5.8654645 3 6.8781812 3 8 C 3 9.1218187 3.3761266 10.134536 4 10.96875 L 4 12 L 4 13 L 5 13 L 8 13 L 11 13 L 12 13 L 12 12 L 12 10.96875 C 12.623873 10.134536 13 9.1218187 13 8 C 13 6.8781812 12.623873 5.8654645 12 5.03125 L 12 4 L 12 3 L 11 3 L 8 3 L 5 3 L 4 3 z M 5 4 L 11 4 L 11 12 L 5 12 L 5 4 z "
       transform="translate(-9379.308,4843.1988)"
       id="path3028" />
    <path
       id="path3003"
       d="m -9371.308,4844.1988 c -3.866,0 -7,3.134 -7,7 0,3.866 3.134,7 7,7 l 5.5625,0 1,1 1.4375,0 0,-1.4375 -1,-1 0,-5.5625 c 0,-3.866 -3.134,-7 -7,-7 z m -4,2 1,0 3,0 3,0 1,0 0,1 0,1.0312 c 0.6239,0.8343 1,1.847 1,2.9688 0,1.1218 -0.3761,2.1345 -1,2.9687 l 0,1.0313 0,1 -1,0 -3,0 -3,0 -1,0 0,-1 0,-1.0313 c -0.6239,-0.8342 -1,-1.8469 -1,-2.9687 0,-1.1218 0.3761,-2.1345 1,-2.9688 l 0,-1.0312 0,-1 z m 1,1 0,8 6,0 0,-8 -6,0 z"
       style="color:#000000;fill:#434a55;fill-opacity:0.6745098;fill-rule:nonzero;stroke:none;stroke-width:1;marker:none;visibility:visible;display:inline;overflow:visible;enable-background:accumulate"
       inkscape:connector-curvature="0" />
  </g>
</svg>
