<svg xmlns="http://www.w3.org/2000/svg" viewBox="0 0 64 64"><g color="#000"><path d="m0 4v30 28l2 2h30 30l2-2v-28-30h-32-32" fill="#eeb015"/><path d="m2 0l-2 1v3h32 32v-3l-2-1h-30-30" fill="#ffe231"/></g><path d="m64 6l-2-2 2-1z" fill="#700" fill-opacity=".108"/><g color="#000"><path d="m32 11.983c.588 0 6.01 12.857 6.481 13.203.476.346 14.378 1.525 14.56 2.084.182.56-10.372 9.685-10.554 10.244-.182.56 2.993 14.15 2.517 14.491-.476.346-12.416-6.872-13-6.872-.588 0-12.528 7.218-13 6.872-.476-.346 2.699-13.932 2.517-14.491-.182-.56-10.736-9.685-10.554-10.244.182-.56 14.08-1.738 14.56-2.084.476-.346 5.893-13.203 6.481-13.203" fill="#f1f0ee"/><path d="m33 12.969c-.045 0-.121.11-.219.25 1.658 3.153 5.299 11.686 5.688 11.969.04.029.315.053.531.094-1.445-2.912-5.495-12.313-6-12.313m19.594 14.938c-1.979 2.187-9.936 9.108-10.09 9.594-.182.56 2.976 14.154 2.5 14.5-.476.346-12.412-6.875-13-6.875-.495 0-8.953 5.05-11.938 6.469-.109.76-.148 1.344-.063 1.406.476.346 12.412-6.875 13-6.875.588 0 12.524 7.221 13 6.875.476-.346-2.682-13.94-2.5-14.5.182-.56 10.713-9.69 10.531-10.25-.034-.103-.637-.207-1.438-.344m-39.813 1.375c1.819 1.891 6.322 5.904 8.5 7.969-.853-.981-5.751-5.314-8.5-7.969" fill="#700" fill-opacity=".108"/></g><path d="m0 6l2-2-2-1" fill="#fff77d" fill-opacity=".674"/></svg>