<?xml version="1.0" encoding="UTF-8" standalone="no"?>
<!-- Created with Inkscape (http://www.inkscape.org/) -->

<svg
   xmlns:dc="http://purl.org/dc/elements/1.1/"
   xmlns:cc="http://creativecommons.org/ns#"
   xmlns:rdf="http://www.w3.org/1999/02/22-rdf-syntax-ns#"
   xmlns:svg="http://www.w3.org/2000/svg"
   xmlns="http://www.w3.org/2000/svg"
   xmlns:xlink="http://www.w3.org/1999/xlink"
   xmlns:sodipodi="http://sodipodi.sourceforge.net/DTD/sodipodi-0.dtd"
   xmlns:inkscape="http://www.inkscape.org/namespaces/inkscape"
   version="1.1"
   width="64"
   height="64"
   id="svg13094"
   inkscape:version="0.48.4 r9939"
   sodipodi:docname="package-theme.svg">
  <sodipodi:namedview
     pagecolor="#ffffff"
     bordercolor="#666666"
     borderopacity="1"
     objecttolerance="10"
     gridtolerance="10"
     guidetolerance="10"
     inkscape:pageopacity="0"
     inkscape:pageshadow="2"
     inkscape:window-width="1920"
     inkscape:window-height="1025"
     id="namedview44"
     showgrid="false"
     inkscape:zoom="10.429825"
     inkscape:cx="45.210047"
     inkscape:cy="33.963068"
     inkscape:window-x="-2"
     inkscape:window-y="32"
     inkscape:window-maximized="1"
     inkscape:current-layer="g3082"
     inkscape:snap-global="true">
    <inkscape:grid
       type="xygrid"
       id="grid3800" />
  </sodipodi:namedview>
  <defs
     id="defs11">
    <linearGradient
       id="linearGradient3817">
      <stop
         id="stop3819"
         style="stop-color:#11467b;stop-opacity:0.14715292;"
         offset="0" />
      <stop
         id="stop3821"
         style="stop-color:#1c2834;stop-opacity:0;"
         offset="1" />
    </linearGradient>
    <radialGradient
       cx="29.99848"
       cy="52.804661"
       r="16"
       id="radialGradient3823"
       xlink:href="#linearGradient3817"
       gradientUnits="userSpaceOnUse"
       gradientTransform="matrix(1.9776652e-8,-0.44005103,1.4375,-4.0708531e-6,-30.8125,22.174921)" />
    <radialGradient
       cx="46.159752"
       cy="36.935829"
       r="16"
       id="radialGradient3825"
       xlink:href="#linearGradient3817"
       gradientUnits="userSpaceOnUse"
       gradientTransform="matrix(2.096279e-8,-0.32631713,2.725932,-1.1477746e-5,-67.57524,16.90477)" />
    <radialGradient
       cx="47.140202"
       cy="17.89163"
       r="16"
       id="radialGradient3827"
       xlink:href="#linearGradient3817"
       gradientUnits="userSpaceOnUse"
       gradientTransform="matrix(2.1712014e-5,-0.67853516,2.2165484,0,-33.970716,33.417004)" />
    <radialGradient
       cx="29.0648"
       cy="42.199619"
       r="16"
       id="radialGradient3829"
       xlink:href="#linearGradient3817"
       gradientUnits="userSpaceOnUse"
       gradientTransform="matrix(1.9776659e-8,-0.44005103,1.4375,-4.0708531e-6,-30.8125,22.174921)" />
    <radialGradient
       cx="23.236361"
       cy="39.32011"
       r="16"
       id="radialGradient3837"
       xlink:href="#linearGradient3817"
       gradientUnits="userSpaceOnUse"
       gradientTransform="matrix(-1.3019008e-5,-1.4052387,-1.4052387,0,93.472788,86.44508)" />
    <radialGradient
       cx="34.96587"
       cy="40.56699"
       r="16"
       id="radialGradient3841"
       xlink:href="#linearGradient3817"
       gradientUnits="userSpaceOnUse"
       gradientTransform="matrix(-2.096279e-8,-1.0659693,-2.725932,-3.7493971e-5,131.57524,70.22225)" />
    <radialGradient
       cx="43.7145"
       cy="28.35227"
       r="16"
       id="radialGradient3845"
       xlink:href="#linearGradient3817"
       gradientUnits="userSpaceOnUse"
       gradientTransform="matrix(-2.1712014e-5,-2.2165482,-2.2165484,0,97.970716,124.16221)" />
    <radialGradient
       cx="21.792179"
       cy="49.22028"
       r="16"
       id="radialGradient3849"
       xlink:href="#linearGradient3817"
       gradientUnits="userSpaceOnUse"
       gradientTransform="matrix(-1.9776652e-8,-1.4375,-1.4375,-1.329812e-5,94.8125,87.43807)" />
    <radialGradient
       cx="59.89941"
       cy="2.0516231"
       r="32"
       id="radialGradient3857"
       gradientUnits="userSpaceOnUse"
       gradientTransform="matrix(-2.298935e-8,1.2105557,-1.4259153,-2.7079188e-8,49.162732,-22.737782)">
      <stop
         id="stop3853"
         style="stop-color:#ffffff;stop-opacity:0.16418876;"
         offset="0" />
      <stop
         id="stop3855"
         style="stop-color:#ffffff;stop-opacity:0;"
         offset="1" />
    </radialGradient>
    <radialGradient
       inkscape:collect="always"
       xlink:href="#linearGradient3094"
       id="radialGradient3886"
       cx="30.739782"
       cy="17.037395"
       fx="30.739782"
       fy="17.037395"
       r="32"
       gradientTransform="matrix(6.8856667e-8,1.5625001,-1.4375,6.3348129e-8,57.491254,-34.030912)"
       gradientUnits="userSpaceOnUse" />
    <linearGradient
       id="linearGradient3094">
      <stop
         offset="0"
         style="stop-color:#bdc4cf;stop-opacity:1;"
         id="stop3096" />
      <stop
         offset="1"
         style="stop-color:#a1a8ba;stop-opacity:1;"
         id="stop3104" />
    </linearGradient>
  </defs>
  <metadata
     id="metadata13099">
    <rdf:RDF>
      <cc:Work
         rdf:about="">
        <dc:format>image/svg+xml</dc:format>
        <dc:type
           rdf:resource="http://purl.org/dc/dcmitype/StillImage" />
        <dc:title />
      </cc:Work>
    </rdf:RDF>
  </metadata>
  <path
     d="M 0,1 2,0 62,0 64,1 64,16 0,16 z"
     id="path3029"
     style="fill:#e8eef0;fill-rule:nonzero;fill-opacity:1;color:#000000;stroke:none;stroke-width:1;marker:none;visibility:visible;display:inline;overflow:visible;enable-background:accumulate" />
  <path
     d="m 0,15 64,0 0,47 -2,2 -60,0 -2,-2 z"
     id="path3809"
     style="fill:url(#radialGradient3886);fill-rule:nonzero;fill-opacity:1;color:#000000;stroke:none;stroke-width:2.28571415000000000;marker:none;visibility:visible;display:inline;overflow:visible;enable-background:accumulate" />
  <path
     d="m 0,15 64,0 0,47 -2,2 -60,0 -2,-2 z"
     id="path3831"
     style="fill:url(#radialGradient3857);fill-rule:nonzero" />
  <path
     d="m 0,62 2,2 30,0 0,-24 -32,0 z"
     id="path3847"
     style="fill:url(#radialGradient3849);fill-rule:nonzero" />
  <path
     d="m 64,62 -2,2 -30,0 0,-24 32,0 z"
     id="path3835"
     style="fill:url(#radialGradient3837);fill-rule:nonzero" />
  <path
     d="m 0,15 32,0 0,25 -32,0 z"
     id="path3839"
     style="fill:url(#radialGradient3841);fill-rule:nonzero" />
  <path
     d="m 64,15 -32,0 0,25 32,0 z"
     id="path3843"
     style="fill:url(#radialGradient3845);fill-rule:nonzero" />
  <path
     d="M 63,0.5 63,63 1,63 2,64 62,64 64,62 64,1 z"
     id="path3807"
     style="fill:#000000;fill-opacity:0.11130587;fill-rule:nonzero" />
  <path
     d="m 64,15 -32,0 0,-7.346939 32,0 z"
     id="path3813"
     style="fill:url(#radialGradient3823);fill-rule:nonzero" />
  <path
     d="m 0,15 32,0 0,-7.346939 -32,0 z"
     id="path3811"
     style="fill:url(#radialGradient3829);fill-rule:nonzero" />
  <path
     d="m 64,1 -2,-1 -30,0 0,7.653061 32,0 z"
     id="path3815"
     style="fill:url(#radialGradient3825);fill-rule:nonzero" />
  <path
     d="m 0,1 2,-1 30,0 0,7.653061 -32,0 z"
     id="path3960"
     style="fill:url(#radialGradient3827);fill-rule:nonzero" />
  <path
     d="m 64,17 -2,-2 2,-1 z"
     id="path3028"
     style="fill:#1f0700;fill-opacity:0.13759861" />
  <path
     d="M 1,63 1,0.5 0,1 0,62 z"
     id="path4299"
     style="fill:#ffffff;fill-opacity:0.40989399;fill-rule:nonzero" />
  <path
     d="M 0,17 2,15 0,14 z"
     id="path3028-3"
     style="fill:#ffffff;fill-opacity:0.40989399" />
  <path
     d="m 0,14 64,0 0,1 -64,0 z"
     id="path3878"
     style="fill:#ffffff;fill-rule:nonzero;fill-opacity:0.31360424" />
  <g
     id="g3082"
     transform="translate(54.915254,1.1271181)">
    <path
       transform="matrix(0.78567419,-0.78567419,0.78567419,0.78567419,-49.98576,36.801534)"
       d="M 15,12.5 C 15,14.985281 12.985281,17 10.5,17 8.0147186,17 6,14.985281 6,12.5 6,10.014719 8.0147186,8 10.5,8 12.985281,8 15,10.014719 15,12.5 z"
       sodipodi:ry="4.5"
       sodipodi:rx="4.5"
       sodipodi:cy="12.5"
       sodipodi:cx="10.5"
       id="path3298"
       style="color:#000000;fill:#a36649;fill-opacity:1;fill-rule:nonzero;stroke:none;stroke-width:0.90000004000000000;marker:none;visibility:visible;display:inline;overflow:visible;enable-background:accumulate"
       sodipodi:type="arc" />
    <path
       transform="matrix(0.78567419,-0.78567419,0.78567419,0.78567419,-40.985761,45.801534)"
       d="M 15,12.5 C 15,14.985281 12.985281,17 10.5,17 8.0147186,17 6,14.985281 6,12.5 6,10.014719 8.0147186,8 10.5,8 12.985281,8 15,10.014719 15,12.5 z"
       sodipodi:ry="4.5"
       sodipodi:rx="4.5"
       sodipodi:cy="12.5"
       sodipodi:cx="10.5"
       id="path3302"
       style="color:#000000;fill:#a79141;fill-opacity:1;fill-rule:nonzero;stroke:none;stroke-width:0.90000004000000000;marker:none;visibility:visible;display:inline;overflow:visible;enable-background:accumulate"
       sodipodi:type="arc" />
    <path
       transform="matrix(0.78567419,-0.78567419,0.78567419,0.78567419,-40.985761,27.801533)"
       d="M 15,12.5 C 15,14.985281 12.985281,17 10.5,17 8.0147186,17 6,14.985281 6,12.5 6,10.014719 8.0147186,8 10.5,8 12.985281,8 15,10.014719 15,12.5 z"
       sodipodi:ry="4.5"
       sodipodi:rx="4.5"
       sodipodi:cy="12.5"
       sodipodi:cx="10.5"
       id="path3306"
       style="color:#000000;fill:#5e7b44;fill-opacity:1;fill-rule:nonzero;stroke:none;stroke-width:0.90000004000000000;marker:none;visibility:visible;display:inline;overflow:visible;enable-background:accumulate"
       sodipodi:type="arc" />
    <path
       sodipodi:type="arc"
       style="color:#000000;fill:#4774a4;fill-opacity:1;fill-rule:nonzero;stroke:none;stroke-width:0.90000004000000000;marker:none;visibility:visible;display:inline;overflow:visible;enable-background:accumulate"
       id="path3310"
       sodipodi:cx="10.5"
       sodipodi:cy="12.5"
       sodipodi:rx="4.5"
       sodipodi:ry="4.5"
       d="M 15,12.5 C 15,14.985281 12.985281,17 10.5,17 8.0147186,17 6,14.985281 6,12.5 6,10.014719 8.0147186,8 10.5,8 12.985281,8 15,10.014719 15,12.5 z"
       transform="matrix(0.78567419,-0.78567419,0.78567419,0.78567419,-31.98576,36.801534)" />
  </g>
</svg>
