<?xml version="1.0" encoding="UTF-8" standalone="no"?>
<!-- Created with Inkscape (http://www.inkscape.org/) -->

<svg
   xmlns:dc="http://purl.org/dc/elements/1.1/"
   xmlns:cc="http://creativecommons.org/ns#"
   xmlns:rdf="http://www.w3.org/1999/02/22-rdf-syntax-ns#"
   xmlns:svg="http://www.w3.org/2000/svg"
   xmlns="http://www.w3.org/2000/svg"
   xmlns:xlink="http://www.w3.org/1999/xlink"
   xmlns:sodipodi="http://sodipodi.sourceforge.net/DTD/sodipodi-0.dtd"
   xmlns:inkscape="http://www.inkscape.org/namespaces/inkscape"
   width="64"
   height="64"
   id="svg13094"
   version="1.1"
   inkscape:version="0.48.3.1 r9886"
   sodipodi:docname="audio-editor.svg">
  <sodipodi:namedview
     id="base"
     pagecolor="#ffffff"
     bordercolor="#666666"
     borderopacity="1.0"
     inkscape:pageopacity="0"
     inkscape:pageshadow="2"
     inkscape:zoom="11.313709"
     inkscape:cx="28.320992"
     inkscape:cy="32.932434"
     inkscape:document-units="px"
     inkscape:current-layer="svg13094"
     showgrid="true"
     inkscape:snap-bbox="true"
     inkscape:bbox-paths="true"
     inkscape:bbox-nodes="true"
     inkscape:snap-bbox-edge-midpoints="true"
     inkscape:snap-bbox-midpoints="true"
     inkscape:object-paths="true"
     inkscape:snap-intersection-paths="true"
     inkscape:object-nodes="true"
     inkscape:snap-smooth-nodes="true"
     inkscape:snap-midpoints="true"
     inkscape:snap-object-midpoints="true"
     inkscape:snap-center="true"
     showguides="true"
     inkscape:guide-bbox="true"
     inkscape:window-width="1920"
     inkscape:window-height="1023"
     inkscape:window-x="-10"
     inkscape:window-y="35"
     inkscape:window-maximized="1"
     inkscape:snap-global="true"
     fit-margin-top="0"
     fit-margin-left="0"
     fit-margin-right="0"
     fit-margin-bottom="0"
     showborder="true"
     inkscape:showpageshadow="false"
     inkscape:snap-page="true">
    <inkscape:grid
       type="xygrid"
       id="grid3075"
       empspacing="5"
       visible="true"
       enabled="true"
       snapvisiblegridlinesonly="true"
       originx="1.6362304e-08px"
       originy="18px" />
  </sodipodi:namedview>
  <defs
     id="defs13096">
    <linearGradient
       id="linearGradient5581">
      <stop
         style="stop-color:#957bf5;stop-opacity:1;"
         offset="0"
         id="stop5583" />
      <stop
         id="stop5589"
         offset="0.51651937"
         style="stop-color:#49beed;stop-opacity:1;" />
      <stop
         style="stop-color:#957bf5;stop-opacity:1;"
         offset="1"
         id="stop5585" />
    </linearGradient>
    <linearGradient
       id="linearGradient5476">
      <stop
         id="stop5478"
         offset="0"
         style="stop-color:#c7f9ff;stop-opacity:1" />
      <stop
         id="stop5480"
         offset="1"
         style="stop-color:#94d9ff;stop-opacity:0.59728509;" />
    </linearGradient>
    <inkscape:path-effect
       is_visible="true"
       id="path-effect5474"
       effect="spiro" />
    <linearGradient
       id="linearGradient3849">
      <stop
         style="stop-color:#7cc7ff;stop-opacity:0.75500971;"
         offset="0"
         id="stop3851" />
      <stop
         id="stop5591"
         offset="0.5"
         style="stop-color:#5d68ff;stop-opacity:0.18939884;" />
      <stop
         style="stop-color:#db15ff;stop-opacity:0.02844215;"
         offset="1"
         id="stop3853" />
    </linearGradient>
    <linearGradient
       id="linearGradient3816">
      <stop
         style="stop-color:#26f8ff;stop-opacity:0.38396898;"
         offset="0"
         id="stop3818" />
      <stop
         style="stop-color:#28f5ff;stop-opacity:0;"
         offset="1"
         id="stop3820" />
    </linearGradient>
    <inkscape:path-effect
       effect="spiro"
       id="path-effect3794"
       is_visible="true" />
    <linearGradient
       id="linearGradient4059">
      <stop
         id="stop4061"
         offset="0"
         style="stop-color:#2775b8;stop-opacity:1;" />
      <stop
         style="stop-color:#345a9c;stop-opacity:1;"
         offset="0.5"
         id="stop5468" />
      <stop
         id="stop4063"
         offset="1"
         style="stop-color:#453584;stop-opacity:1;" />
    </linearGradient>
    <radialGradient
       inkscape:collect="always"
       xlink:href="#linearGradient5476"
       id="radialGradient3822"
       cx="23.379656"
       cy="32.040901"
       fx="23.379656"
       fy="32.040901"
       r="31"
       gradientTransform="matrix(1.3870969,0,0,2.0967742,-9.429848,-34.182535)"
       gradientUnits="userSpaceOnUse" />
    <radialGradient
       inkscape:collect="always"
       xlink:href="#linearGradient3849"
       id="radialGradient5449"
       gradientUnits="userSpaceOnUse"
       gradientTransform="matrix(0.88620185,0,0,0.93750002,4.0915598,2.3634509)"
       cx="-18.157894"
       cy="33.745651"
       fx="-18.157894"
       fy="33.745651"
       r="32" />
    <radialGradient
       inkscape:collect="always"
       xlink:href="#linearGradient3849"
       id="radialGradient5463"
       gradientUnits="userSpaceOnUse"
       gradientTransform="matrix(0.88620185,0,0,0.93750002,-27.071241,-14.399112)"
       cx="-18.157894"
       cy="33.745651"
       fx="-18.157894"
       fy="33.745651"
       r="32" />
    <radialGradient
       inkscape:collect="always"
       xlink:href="#linearGradient4059"
       id="radialGradient5466"
       gradientUnits="userSpaceOnUse"
       gradientTransform="matrix(0,1.40625,-1.625,0,-14.587199,-27.237437)"
       cx="32"
       cy="18"
       fx="32"
       fy="18"
       r="32" />
    <radialGradient
       inkscape:collect="always"
       xlink:href="#linearGradient3816"
       id="radialGradient5472"
       gradientUnits="userSpaceOnUse"
       gradientTransform="matrix(1.3548387,-1.0017508e-8,1.5503286e-8,2.0967742,-8.7454306,-34.182535)"
       cx="21.216864"
       cy="31.087055"
       fx="21.216864"
       fy="31.087055"
       r="31" />
    <radialGradient
       inkscape:collect="always"
       xlink:href="#linearGradient4059"
       id="radialGradient5497"
       gradientUnits="userSpaceOnUse"
       gradientTransform="matrix(0,1.3521635,-1.5625,0,-15.712199,-25.429745)"
       cx="33.422222"
       cy="18"
       fx="33.422222"
       fy="18"
       r="32" />
    <linearGradient
       id="linearGradient3800-4">
      <stop
         style="stop-color:#44ecff;stop-opacity:0.22495152;"
         offset="0"
         id="stop3802-0" />
      <stop
         id="stop3808-7"
         offset="0.5"
         style="stop-color:#4aefff;stop-opacity:0.11829347;" />
      <stop
         style="stop-color:#6af4ff;stop-opacity:0.05042017;"
         offset="0.75"
         id="stop3810-8" />
      <stop
         style="stop-color:#4df5ff;stop-opacity:0;"
         offset="1"
         id="stop3804-9" />
    </linearGradient>
    <radialGradient
       inkscape:collect="always"
       xlink:href="#linearGradient3800-4"
       id="radialGradient3806-6"
       cx="26.311583"
       cy="42.442974"
       fx="26.311583"
       fy="42.442974"
       r="32"
       gradientTransform="matrix(1.5610684,1.5204966e-8,0,0.18746473,-87.608078,25.131827)"
       gradientUnits="userSpaceOnUse" />
    <radialGradient
       r="32"
       fy="32.828899"
       fx="21.274454"
       cy="32.828899"
       cx="21.274454"
       gradientTransform="matrix(0.6161622,0,0,0.84635893,-66.625092,3.8891426)"
       gradientUnits="userSpaceOnUse"
       id="radialGradient5530"
       xlink:href="#linearGradient3800-4"
       inkscape:collect="always" />
    <radialGradient
       inkscape:collect="always"
       xlink:href="#linearGradient3849"
       id="radialGradient5571"
       gradientUnits="userSpaceOnUse"
       gradientTransform="matrix(0.88620185,0,0,0.93750002,4.0915598,2.3634509)"
       cx="-90.376205"
       cy="33.745651"
       fx="-90.376205"
       fy="33.745651"
       r="32" />
    <linearGradient
       inkscape:collect="always"
       xlink:href="#linearGradient5581"
       id="linearGradient5587"
       x1="0"
       y1="2"
       x2="64"
       y2="2"
       gradientUnits="userSpaceOnUse" />
  </defs>
  <metadata
     id="metadata13099">
    <rdf:RDF>
      <cc:Work
         rdf:about="">
        <dc:format>image/svg+xml</dc:format>
        <dc:type
           rdf:resource="http://purl.org/dc/dcmitype/StillImage" />
        <dc:title />
      </cc:Work>
    </rdf:RDF>
  </metadata>
  <g
     id="use3833"
     transform="translate(75.837199,1.2374368)">
    <path
       id="path3812"
       d="m -75.837199,2.7625633 0,29.9999997 0,28 2,2 30,0 30,0 2,-2 0,-28 0,-29.9999997 -32,0 -32,0 z"
       style="color:#000000;fill:url(#radialGradient5530);fill-opacity:1;fill-rule:nonzero;stroke:none;stroke-width:2.28571415;marker:none;visibility:visible;display:inline;overflow:visible;enable-background:accumulate"
       inkscape:connector-curvature="0" />
    <path
       inkscape:connector-curvature="0"
       style="color:#000000;fill:url(#radialGradient3806-6);fill-opacity:1;fill-rule:nonzero;stroke:none;stroke-width:2.28571415;marker:none;visibility:visible;display:inline;overflow:visible;enable-background:accumulate"
       d="m -75.837199,2.7625632 0,29.9999998 0,28 2,2 30,0 30,0 2,-2 0,-28 0,-29.9999998 -32,0 -32,0 z"
       id="path4095" />
    <path
       inkscape:connector-curvature="0"
       style="color:#000000;fill:url(#radialGradient5497);fill-opacity:1;fill-rule:nonzero;stroke:none;stroke-width:2.28571415000000000;marker:none;visibility:visible;display:inline;overflow:visible;enable-background:accumulate"
       d="m -75.837199,2.7625632 0,29.9999998 0,28 2,2 30,0 30,0 2,-2 0,-28 0,-29.9999998 -32,0 -32,0 z"
       id="path5441" />
    <path
       inkscape:connector-curvature="0"
       style="color:#000000;fill:url(#radialGradient5449);fill-opacity:1;fill-rule:nonzero;stroke:none;stroke-width:2.28571415;marker:none;visibility:visible;display:inline;overflow:visible;enable-background:accumulate"
       d="m -75.837199,2.7625632 0,29.9999998 0,28 2,2 30,0 30,0 2,-2 0,-28 0,-29.9999998 -32,0 -32,0 z"
       id="path5443" />
    <path
       inkscape:connector-curvature="0"
       style="color:#000000;fill:url(#radialGradient5571);fill-opacity:1;fill-rule:nonzero;stroke:none;stroke-width:2.28571415;marker:none;visibility:visible;display:inline;overflow:visible;enable-background:accumulate"
       d="m -75.837199,2.7625632 0,29.9999998 0,28 2,2 30,0 30,0 2,-2 0,-28 0,-29.9999998 -32,0 -32,0 z"
       id="path5569" />
  </g>
  <path
     inkscape:connector-curvature="0"
     style="color:#000000;fill:url(#linearGradient5587);fill-opacity:1;fill-rule:nonzero;stroke:none;stroke-width:2.28571415000000000;marker:none;visibility:visible;display:inline;overflow:visible;enable-background:accumulate"
     d="M 2,0 0,1 0,4 32,4 64,4 64,1 62,0 32,0 2,0 z"
     id="path4090" />
  <path
     style="fill:#ffffff;fill-opacity:0.14487633;fill-rule:nonzero"
     d="M 0 3 L 0 6 L 2 4 L 32 4 L 62 4 L 64 3 L 32 3 L 0 3 z "
     id="path4298" />
  <path
     style="fill:#1f0700;fill-opacity:0.06978802;fill-rule:nonzero"
     d="M 2 0 L 0 1 L 32 1 L 64 1 L 62 0 L 32 0 L 2 0 z "
     id="path4444" />
  <path
     d="M 64,6 62,4 64,3 z"
     id="path3028"
     style="fill:#1f0700;fill-opacity:0.13759861"
     inkscape:connector-curvature="0" />
  <path
     style="fill:#000000;fill-opacity:0.11130587;fill-rule:nonzero"
     d="M 63 0.5 L 63 34 L 63 63 L 64 62 L 64 34 L 64 1 L 63 0.5 z M 63 63 L 32 63 L 1 63 L 2 64 L 32 64 L 62 64 L 63 63 z "
     id="path4366" />
  <g
     id="g3043"
     inkscape:export-filename="folder.png"
     inkscape:export-xdpi="90"
     inkscape:export-ydpi="90"
     transform="translate(-0.62500009,0.082283)" />
  <path
     style="fill:#ffffff;fill-opacity:0.35070675;fill-rule:nonzero"
     d="M 0 1 L 0 34 L 0 62 L 1 63 L 1 34 L 1 5 L 2 4 L 1 3.46875 L 1 1 L 0 1 z "
     id="path3864" />
  <g
     id="scalable"
     transform="matrix(1.0385892,0,0,1.0385892,1214.7222,1878.8121)"
     inkscape:label="#g3701"
     style="fill:#ffffff" />
  <path
     sodipodi:nodetypes="ccccccccccccccccccccc"
     inkscape:connector-curvature="0"
     inkscape:original-d="M 1,34 13.596194,34 15.647754,14.954594 16.673534,41 17.699314,24 19.750873,56 21.802433,10.18198 23,50 23.853993,24 25,31 26.931333,17 27.957113,52 28.982893,26 31,41 l 1.060233,-13 1.02578,6 0,-18.363604 L 35.137572,43 37.189132,28 38.214912,34 63,34"
     inkscape:path-effect="#path-effect5474"
     id="path5470"
     d="M 1,34 13.596194,34 15.647754,14.954594 16.673534,41 17.699314,24 19.750873,56 21.802433,10.18198 23,50 23.853993,24 25,31 26.931333,17 27.957113,52 28.982893,26 31,41 l 1.060233,-13 1.02578,6 0,-18.363604 L 35.137572,43 37.189132,28 38.214912,34 63,34"
     style="fill:none;stroke:url(#radialGradient5472);stroke-width:1.9;stroke-linecap:butt;stroke-linejoin:round;stroke-miterlimit:4;stroke-opacity:1;stroke-dasharray:none" />
  <path
     style="fill:none;stroke:url(#radialGradient3822);stroke-width:0.90000000000000002;stroke-linecap:butt;stroke-linejoin:round;stroke-miterlimit:4;stroke-opacity:1;stroke-dasharray:none"
     d="M 1,34 13.596194,34 15.647754,14.954594 16.673534,41 17.699314,24 19.750873,56 21.802433,10.18198 23,50 23.853993,24 25,31 26.931333,17 27.957113,52 28.982893,26 31,41 l 1.060233,-13 1.02578,6 0,-18.363604 L 35.137572,43 37.189132,28 38.214912,34 63,34"
     id="path3792"
     inkscape:path-effect="#path-effect3794"
     inkscape:original-d="M 1,34 13.596194,34 15.647754,14.954594 16.673534,41 17.699314,24 19.750873,56 21.802433,10.18198 23,50 23.853993,24 25,31 26.931333,17 27.957113,52 28.982893,26 31,41 l 1.060233,-13 1.02578,6 0,-18.363604 L 35.137572,43 37.189132,28 38.214912,34 63,34"
     inkscape:connector-curvature="0"
     sodipodi:nodetypes="ccccccccccccccccccccc" />
  <path
     inkscape:connector-curvature="0"
     style="color:#000000;fill:url(#radialGradient5466);fill-opacity:1;fill-rule:nonzero;stroke:none;stroke-width:2.28571415;marker:none;visibility:visible;display:inline;overflow:visible;enable-background:accumulate"
     d="m -75.837199,2.7625632 0,29.9999998 0,28 2,2 30,0 30,0 2,-2 0,-28 0,-29.9999998 -32,0 -32,0 z"
     id="path3835" />
  <path
     inkscape:connector-curvature="0"
     style="color:#000000;fill:url(#radialGradient5463);fill-opacity:1;fill-rule:nonzero;stroke:none;stroke-width:2.28571415;marker:none;visibility:visible;display:inline;overflow:visible;enable-background:accumulate"
     d="m -107,-14 0,30 0,28 2,2 30,0 30,0 2,-2 0,-28 0,-30 -32,0 -32,0 z"
     id="path5109" />
</svg>
