<?xml version="1.0" encoding="UTF-8" standalone="no"?>
<!-- Created with Inkscape (http://www.inkscape.org/) -->

<svg
   xmlns:dc="http://purl.org/dc/elements/1.1/"
   xmlns:cc="http://creativecommons.org/ns#"
   xmlns:rdf="http://www.w3.org/1999/02/22-rdf-syntax-ns#"
   xmlns:svg="http://www.w3.org/2000/svg"
   xmlns="http://www.w3.org/2000/svg"
   xmlns:xlink="http://www.w3.org/1999/xlink"
   xmlns:sodipodi="http://sodipodi.sourceforge.net/DTD/sodipodi-0.dtd"
   xmlns:inkscape="http://www.inkscape.org/namespaces/inkscape"
   width="64"
   height="64"
   id="svg13094"
   version="1.1"
   inkscape:version="0.48.3.1 r9886"
   sodipodi:docname="bluej.svg">
  <sodipodi:namedview
     id="base"
     pagecolor="#ffffff"
     bordercolor="#666666"
     borderopacity="1.0"
     inkscape:pageopacity="0"
     inkscape:pageshadow="2"
     inkscape:zoom="11.313709"
     inkscape:cx="29.475299"
     inkscape:cy="30.772152"
     inkscape:document-units="px"
     inkscape:current-layer="svg13094"
     showgrid="true"
     inkscape:snap-bbox="true"
     inkscape:bbox-paths="true"
     inkscape:bbox-nodes="true"
     inkscape:snap-bbox-edge-midpoints="true"
     inkscape:snap-bbox-midpoints="true"
     inkscape:object-paths="true"
     inkscape:snap-intersection-paths="true"
     inkscape:object-nodes="true"
     inkscape:snap-smooth-nodes="true"
     inkscape:snap-midpoints="true"
     inkscape:snap-object-midpoints="true"
     inkscape:snap-center="true"
     showguides="true"
     inkscape:guide-bbox="true"
     inkscape:window-width="1920"
     inkscape:window-height="1023"
     inkscape:window-x="-10"
     inkscape:window-y="35"
     inkscape:window-maximized="1"
     inkscape:snap-global="true"
     fit-margin-top="0"
     fit-margin-left="0"
     fit-margin-right="0"
     fit-margin-bottom="0"
     showborder="true"
     inkscape:showpageshadow="false"
     inkscape:snap-page="true">
    <inkscape:grid
       type="xygrid"
       id="grid3075"
       empspacing="5"
       visible="true"
       enabled="true"
       snapvisiblegridlinesonly="true"
       originx="1.6362304e-08px"
       originy="18px" />
  </sodipodi:namedview>
  <defs
     id="defs13096">
    <linearGradient
       id="linearGradient3919">
      <stop
         style="stop-color:#3c93ec;stop-opacity:1;"
         offset="0"
         id="stop3921" />
      <stop
         style="stop-color:#1e6fc2;stop-opacity:1;"
         offset="1"
         id="stop3923" />
    </linearGradient>
    <radialGradient
       inkscape:collect="always"
       xlink:href="#linearGradient3919"
       id="radialGradient3925"
       cx="32"
       cy="13.387096"
       fx="32"
       fy="13.387096"
       r="32"
       gradientTransform="matrix(0,1.8064516,-1.75,0,55.427419,-43.806451)"
       gradientUnits="userSpaceOnUse" />
  </defs>
  <metadata
     id="metadata13099">
    <rdf:RDF>
      <cc:Work
         rdf:about="">
        <dc:format>image/svg+xml</dc:format>
        <dc:type
           rdf:resource="http://purl.org/dc/dcmitype/StillImage" />
        <dc:title />
      </cc:Work>
    </rdf:RDF>
  </metadata>
  <g
     id="g4506">
    <path
       id="path4401"
       d="M 0 2 L 0 10.4375 C 0.5968001 9.2570897 1.2187957 7.9828453 1.9375 6.40625 C 1.9937401 6.5179333 2.0129751 6.6707425 2.125 6.71875 C 5.646905 8.228138 0.672443 5.461222 4.25 7.25 C 4.3853381 7.3176692 4.5011083 7.4128 4.625 7.5 C 3.9950399 6.2927841 3.6239496 5.4612394 3 3.90625 C 3.2562233 3.2688528 3.517676 2.6341273 3.78125 2 L 3.5 2 C 3.3168601 2.2015376 3.17768 2.4489565 3 2.65625 C 2.8851544 2.7902371 2.7520696 2.9085962 2.625 3.03125 C 2.4971422 2.7076155 2.3758673 2.4009329 2.21875 2 L 0 2 z M 4.625 7.5 C 4.8040488 7.8431179 5.0640419 8.3410297 5.3125 8.8125 C 5.2952084 9.1236754 5.2571115 9.4141275 5.3125 9.71875 C 5.35964 9.978022 5.525506 10.208698 5.65625 10.4375 C 5.865701 10.804039 5.966113 11.054029 6.375 11.15625 C 6.4269691 11.169241 6.4773641 11.158827 6.53125 11.15625 C 6.5956044 11.280669 6.6548254 11.406602 6.71875 11.53125 L 6.71875 11.15625 L 7.0625 11.15625 C 7.325131 11.15625 7.561442 11.188556 7.78125 10.96875 C 7.82292 10.92708 7.73958 10.822917 7.78125 10.78125 C 7.82292 10.73958 7.927083 10.82292 7.96875 10.78125 C 8.01042 10.73958 7.96875 10.683926 7.96875 10.625 L 7.96875 10.4375 C 7.96875 10.325744 7.98194 9.751733 7.96875 9.71875 C 7.776696 9.238616 7.490256 9.088181 7.0625 8.84375 C 6.8835505 8.741493 6.8487784 8.7396501 6.75 8.6875 C 6.7510274 8.3296461 6.7410716 7.9508752 6.71875 7.59375 C 6.5974426 5.6528283 6.400899 4.9377953 5.96875 3.40625 C 5.6635537 4.0149969 5.415702 4.5854286 5.3125 4.96875 C 5.14399 5.594644 5.3125 6.258069 5.3125 6.90625 L 5.3125 7.96875 C 5.0761646 7.8308879 4.8490233 7.6576766 4.625 7.5 z M 5.96875 3.40625 C 6.0350161 3.2740751 6.1160146 3.1365381 6.1875 3 C 6.0315203 2.8440203 5.8643504 2.696519 5.71875 2.53125 C 5.7580929 2.6882595 5.8005255 2.8443915 5.84375 3 C 5.8929767 3.1772162 5.9247197 3.2502058 5.96875 3.40625 z M 5.71875 2.53125 C 5.6732148 2.3495283 5.6206149 2.1774362 5.5625 2 L 5.4375 2 C 5.4422839 2.0478943 5.4614951 2.0959773 5.46875 2.125 C 5.50071 2.252828 5.573943 2.365861 5.65625 2.46875 C 5.6746234 2.4917167 5.6993366 2.5092141 5.71875 2.53125 z M 6.1875 3 C 6.541053 3.471404 6.903417 3.960948 7.25 4.4375 C 7.846285 5.257392 8.431416 6.066911 9 6.90625 C 11.065926 9.95595 11.01533 10.33331 13.625 13.25 C 13.686193 13.318392 13.74995 13.400101 13.8125 13.46875 C 12.183414 14.231826 10.551792 15.065619 8.96875 15.875 C 9.0307042 15.989458 9.09352 16.104706 9.15625 16.21875 C 10.343195 15.763537 11.525243 15.281369 12.71875 14.84375 C 13.317061 14.62437 13.930697 14.431914 14.53125 14.21875 C 14.628861 14.319988 14.712741 14.429769 14.8125 14.53125 C 15.535258 14.127722 16.265861 13.725926 17 13.34375 C 17.406081 13.201072 17.813121 13.050183 18.21875 12.90625 L 19.9375 12.28125 C 19.937083 12.145821 19.937148 12.010443 19.9375 11.875 C 20.832804 11.449208 21.732683 11.056767 22.625 10.625 L 28.34375 7.84375 C 29.032814 8.0789019 29.726617 8.3290215 30.5 8.5625 C 32.415786 7.8916725 34.085966 7.3007275 34.53125 7.125 C 33.906659 6.8430554 33.245867 6.5688093 32.5 6.3125 C 31.908903 6.4963557 30.616884 6.8987875 30.59375 6.90625 C 30.312439 6.9969955 30.031603 7.0974869 29.75 7.1875 L 31.9375 6.125 C 31.025808 5.8271781 29.982931 5.5129804 28.625 5.125 C 24.874238 4.053354 25.1936 4.25 21.90625 4.25 C 21.611622 4.25 21.317081 4.17854 21.03125 4.25 C 20.9504 4.27021 21.159825 4.378575 21.21875 4.4375 C 21.395527 4.614277 21.535626 4.840126 21.75 4.96875 C 22.427907 5.375495 23.155292 5.704111 23.875 6.03125 C 25.100618 6.58835 26.295792 7.137735 27.5625 7.59375 C 27.695231 7.6415333 27.862206 7.7019116 28 7.75 C 26.91228 8.1025512 25.821649 8.4457091 24.75 8.84375 C 23.126745 9.4466732 21.533994 10.109854 19.9375 10.78125 C 19.945428 10.072543 19.96875 9.3648155 19.96875 8.65625 C 19.96875 6.829557 19.88047 5.012058 19.96875 3.1875 C 19.987915 2.791432 20.028344 2.3949577 20.0625 2 L 6.71875 2 C 6.5268096 2.3398474 6.3638722 2.6631268 6.1875 3 z M 31.9375 6.125 C 32.122679 6.1854922 32.326966 6.2530386 32.5 6.3125 C 34.756229 5.6107197 39.198417 4.2167792 39.78125 4.0625 C 40.418123 3.893916 41.075631 3.861665 41.71875 3.71875 C 42.137519 3.62569 43.206708 3.018064 42.96875 3.375 C 42.632227 3.879785 41.925837 3.995767 41.375 4.25 C 40.391377 4.703979 39.373438 5.079605 38.375 5.5 C 35.454091 6.7298567 35.071806 6.9116741 34.53125 7.125 C 35.420946 7.5266152 36.314615 7.992526 37.375 8.625 C 37.109007 8.677015 36.826883 8.7126124 36.59375 8.84375 C 35.778456 9.302353 35.300522 9.5765703 35 9.78125 C 33.494166 9.4090295 31.948255 8.9997173 30.5 8.5625 C 29.870422 8.7829517 30.14462 8.6805381 29.15625 9.03125 L 19.9375 12.28125 C 19.939039 12.781424 19.950897 13.281367 19.96875 13.78125 C 20.00161 14.701343 20.073832 15.484827 20.125 16.1875 C 19.27288 16.520947 18.421475 16.84177 17.5625 17.15625 C 16.608553 16.283351 15.686048 15.419878 14.8125 14.53125 C 13.768919 15.1139 12.710748 15.718852 11.65625 16.28125 C 11.01449 16.623522 10.37178 16.928521 9.71875 17.25 C 9.5372842 16.927095 9.3728473 16.617192 9.1875 16.28125 C 9.1762796 16.260913 9.1674441 16.239101 9.15625 16.21875 C 8.636699 16.418006 8.114015 16.615158 7.59375 16.8125 C 7.3131308 16.918942 7.0307419 17.018879 6.75 17.125 C 6.7542 17.695699 6.7366355 18.273493 6.71875 18.84375 C 6.6594798 18.878169 6.5902275 18.90255 6.53125 18.9375 C 4.998673 19.845694 3.667507 21.046274 2.125 21.9375 C 1.7106584 22.05309 1.2849261 22.150819 0.875 22.28125 C 0.5797378 22.375197 0.29134027 22.488399 0 22.59375 L 0 32.40625 C 1.4030156 33.051522 2.5883918 33.530037 3.75 33.9375 C 3.5004818 34.418451 3.2312886 34.886724 3 35.375 C 2.705372 36.258883 2.396274 37.108672 2.125 38 C 1.983521 38.46486 1.920876 38.972081 1.78125 39.4375 C 1.743389 39.563705 1.59375 39.649488 1.59375 39.78125 C 1.59375 39.84018 1.72232 39.78125 1.78125 39.78125 C 1.840175 39.78125 1.87972 39.79281 1.9375 39.78125 C 2.470217 39.674706 3.028431 39.643199 3.53125 39.4375 C 4.336499 39.10808 5.105969 38.648612 5.84375 38.1875 C 6.994117 37.46852 8.067914 36.672282 9.1875 35.90625 L 9.375 35.78125 C 9.513221 35.827072 9.5746512 35.858217 9.71875 35.90625 C 10.92401 36.308003 12.137774 36.694117 13.34375 37.09375 C 15.154296 34.875993 16.437745 33.31694 17.875 31.53125 C 18.344056 31.730126 18.836923 31.940652 19.28125 32.1875 C 19.910012 32.536813 20.439865 32.99683 21.03125 33.40625 C 21.680887 33.856 21.403391 33.590891 21.75 33.9375 C 21.808925 33.996426 21.84733 34.18392 21.90625 34.125 C 21.98958 34.041666 21.9817 33.87179 21.90625 33.78125 C 21.664704 33.491395 21.309384 33.317456 21.03125 33.0625 C 20.601243 32.668327 20.181889 32.263975 19.8125 31.8125 C 19.446867 31.365615 19.082761 30.909803 18.75 30.4375 C 18.92531 30.217755 19.435771 29.591269 19.53125 29.46875 C 20.183568 29.001716 20.789362 28.534346 21.375 28.09375 C 21.513469 29.253947 21.607787 29.674265 22.09375 31.8125 C 22.214149 32.342257 22.265704 32.890862 22.4375 33.40625 C 23.345048 36.128892 22.76795 34.109537 23.6875 35.71875 C 23.817793 35.946763 23.755285 36.299517 24.03125 36.4375 C 24.083955 36.46385 24.15982 36.4375 24.21875 36.4375 C 25.16777 36.4375 24.098211 36.483633 25.8125 35.53125 C 25.349379 36.89614 24.96752 38.267112 24.40625 39.59375 C 24.252552 39.957037 24.068686 40.31155 23.875 40.65625 C 23.633754 40.605253 23.395322 40.561476 23.15625 40.5 C 20.918156 39.92449 18.811494 38.935511 16.625 38.1875 C 15.535065 37.814627 14.437236 37.456106 13.34375 37.09375 C 12.164679 38.538006 10.728332 40.313484 10.4375 40.65625 C 7.958146 43.578346 2.929124 49.22712 0.1875 51.96875 C 0.12538869 52.030861 0.062553481 52.0946 0 52.15625 L 0 56.90625 C 0.88206227 56.378163 1.7619334 55.850532 2.65625 55.34375 C 5.729156 53.60244 11.653522 50.405898 14.6875 48.96875 C 16.194594 48.254863 17.969558 47.494897 19.8125 46.71875 C 18.447788 46.245992 17.068367 45.76414 15.71875 45.25 C 14.706389 44.864339 13.721426 44.441436 12.71875 44.03125 C 12.425052 43.911101 12.115853 43.819512 11.84375 43.65625 C 11.79322 43.62593 11.80208 43.541667 11.84375 43.5 C 11.88542 43.45833 11.972324 43.5 12.03125 43.5 L 12.375 43.5 L 13.78125 43.5 L 18.5625 43.5 C 20.691809 43.5 21.31601 43.49948 22.375 43.5 C 22.095907 44.261626 21.870471 45.077309 21.71875 45.90625 C 23.268603 45.270117 24.790323 44.665227 26.25 44.09375 C 26.321768 43.91205 26.370001 43.738741 26.4375 43.5625 C 26.80608 43.576763 27.103077 43.571887 27.5625 43.59375 C 28.093387 43.388491 28.669441 43.154201 29.15625 42.96875 C 30.3644 42.508502 31.330206 42.165393 32.28125 41.8125 C 31.606563 41.73871 30.780683 41.620611 29 41.375 C 28.440246 41.297792 27.87502 41.221831 27.3125 41.15625 C 27.961478 39.18168 28.43996 37.310974 29.15625 34.84375 C 29.327592 34.253573 29.504176 33.649588 29.6875 33.0625 C 27.564243 35.162581 28.417633 34.077583 25.84375 35.5 C 25.999847 35.040973 26.168823 34.576895 26.34375 34.125 C 27.058811 32.277759 27.858968 30.482942 28.625 28.65625 C 28.768826 28.313282 28.918236 27.967786 29.0625 27.625 C 28.748284 27.312641 28.414977 26.992666 28.09375 26.6875 C 27.332357 25.964177 26.565725 25.260926 25.78125 24.5625 C 27.732394 22.897309 29.644434 21.183064 32 19.09375 C 31.996776 19.332022 32.011336 19.574421 32 19.8125 C 31.987437 20.076328 31.956761 20.401301 31.9375 20.6875 C 32.243186 19.920083 32.542355 19.162261 32.875 18.40625 C 32.897575 18.354943 32.914543 18.301133 32.9375 18.25 C 36.443832 15.152034 38.345591 13.493 41 11 C 40.53788 10.928072 40.086185 10.867426 39.59375 10.78125 C 38.704058 10.625554 37.689823 10.429465 36.625 10.1875 C 36.802878 9.9853527 36.990652 9.7928109 37.125 9.5625 C 37.247417 9.35264 37.25357 9.079452 37.3125 8.84375 C 37.366069 8.7901809 37.411842 8.7383308 37.46875 8.6875 C 38.276148 9.170746 39.157027 9.7153297 40.3125 10.4375 C 40.557951 10.590907 40.811852 10.776953 41.0625 10.9375 C 41.487615 10.537949 42.043092 9.9968646 42.53125 9.53125 C 43.257435 8.0224544 43.911331 6.6728325 45.25 3.90625 C 45.556124 3.2735936 45.855525 2.6353556 46.15625 2 L 40.40625 2 C 39.958251 2.2219474 39.512629 2.4389466 39.0625 2.65625 C 37.235011 3.538486 35.420442 4.428616 33.59375 5.3125 L 31.9375 6.125 z M 42.53125 9.53125 C 42.324946 9.9598889 41.987137 10.629629 41.75 11.125 C 45.872338 11.722119 49.074088 11.801703 53.40625 11.96875 C 53.576448 9.6008843 53.793014 8.3399784 54.09375 4.25 C 54.148817 3.5010656 54.181787 2.7501289 54.21875 2 L 49.6875 2 C 48.088122 4.3689924 47.956441 4.3297726 44.1875 7.96875 C 43.531269 8.6023523 43.077872 9.0098711 42.53125 9.53125 z M 53.40625 11.96875 C 53.389189 12.206115 53.391154 12.454085 53.375 12.71875 C 53.344384 12.761227 53.311881 12.801298 53.28125 12.84375 C 52.903303 12.857969 52.532937 12.867474 52.15625 12.90625 C 50.178892 13.109802 48.254392 13.731461 46.3125 14.15625 C 46.050887 14.213478 46.152468 14.196183 45.90625 14.25 C 46.219736 14.478743 46.534433 14.706276 46.84375 14.9375 C 47.281635 14.890752 47.12485 14.907382 47.71875 14.84375 C 49.187782 14.686353 50.655873 14.53139 52.125 14.375 C 51.684552 14.986793 51.268911 15.621867 50.90625 16.28125 C 50.665217 16.719492 50.460585 17.169863 50.25 17.625 C 50.349413 17.707542 50.464775 17.792911 50.5625 17.875 C 51.477602 18.643686 52.353398 19.410852 53.21875 20.21875 C 53.219629 20.375743 53.21875 20.530521 53.21875 20.6875 L 53.21875 24.75 C 53.21875 25.865698 53.140761 26.981487 53.21875 28.09375 C 53.97505 28.255091 54.732356 28.377364 55.5 28.46875 C 56.556086 28.594474 57.402753 28.663048 58.15625 28.71875 C 57.982759 29.283828 57.804867 29.844173 57.625 30.40625 C 57.150787 31.88818 56.649988 33.384883 56.03125 34.8125 C 56.057756 34.829842 56.09839 34.826605 56.125 34.84375 C 56.081255 34.856929 56.043644 34.892671 56 34.90625 C 55.447856 36.163781 54.775184 37.338729 54.09375 38.53125 C 53.996328 38.701739 53.935689 38.810187 53.84375 38.96875 C 55.031165 38.063817 55.609015 37.642605 55.84375 37.46875 C 54.432149 38.838432 53.797888 39.55158 53.03125 40.3125 C 52.881621 40.556599 52.735013 40.80962 52.59375 41.03125 C 52.540647 41.002128 52.49103 40.965602 52.4375 40.9375 C 51.897222 41.431459 51.156981 42.038798 50.03125 42.96875 C 49.266952 43.600126 48.483824 44.190285 47.6875 44.78125 C 47.468653 44.768538 47.250093 44.731536 47.03125 44.71875 C 47.979561 43.848018 48.866047 42.931781 49.84375 42.09375 C 50.435781 41.586295 51.039126 41.070748 51.65625 40.59375 C 51.581343 40.566045 51.513904 40.524128 51.4375 40.5 C 50.245522 40.123585 48.9661 40.0501 47.71875 39.96875 C 44.090906 39.732151 42.805568 39.927789 39.59375 40.6875 C 39.605568 40.50363 39.633355 40.303225 39.59375 40.125 C 39.551399 39.934422 39.451465 39.668877 39.3125 39.375 C 36.864546 40.152663 34.881282 40.847735 32.28125 41.8125 C 33.117147 41.903921 33.821809 41.913606 35.0625 41.90625 C 33.628293 42.370581 32.244126 42.936031 30.625 43.75 C 29.495581 43.690263 28.300039 43.628847 27.5625 43.59375 C 27.126947 43.76215 26.708021 43.91443 26.25 44.09375 C 26.164228 44.310907 26.092517 44.492596 26 44.71875 C 25.662174 45.544547 25.233674 46.353477 24.84375 47.15625 C 24.397186 47.415095 23.946721 47.64765 23.5 47.90625 C 23.791417 47.998457 24.085731 48.089561 24.375 48.1875 C 24.304474 48.426423 23.721874 50.775781 23.34375 51.4375 C 23.26106 51.5822 23.086601 51.69465 22.96875 51.8125 C 22.909825 51.8125 22.85417 51.7708 22.8125 51.8125 C 22.77083 51.85417 22.85417 51.92705 22.8125 51.96875 C 22.690581 52.09066 22.46051 51.8585 22.4375 51.8125 C 22.41115 51.75979 22.46385 51.6777 22.4375 51.625 C 22.400233 51.55047 22.31852 51.512 22.28125 51.4375 C 22.139338 51.15367 21.99343 50.86762 21.90625 50.5625 C 21.765839 50.071064 21.655004 49.569695 21.59375 49.0625 C 21.465797 49.146175 21.345114 49.226343 21.21875 49.3125 C 19.911352 50.2039 16.015317 53.453428 14.84375 54.625 C 14.01669 55.45206 13.314802 56.38565 12.5625 57.28125 C 12.309558 57.58237 11.009256 58.95198 10.78125 59.75 C 10.485185 60.78623 11.495428 60.35455 12.375 60.28125 C 13.263626 60.2072 14.155939 60.1077 15.03125 59.9375 C 16.07068 59.73539 23.015281 57.99636 23.5 57.8125 C 25.39739 57.0928 27.173307 56.04013 29 55.15625 C 31.710565 53.844684 32.940825 53.266405 34.03125 52.71875 C 34.673234 53.025114 35.326298 53.319559 35.96875 53.625 C 34.873948 54.420189 33.775113 55.186157 32.71875 56.03125 C 30.399632 57.88654 29.108592 59.26641 27.03125 61.34375 L 24.75 63.65625 C 24.635 63.77125 24.520407 63.884133 24.40625 64 L 32 64 L 47.875 64 C 49.136529 63.807587 50.392902 63.551621 52.53125 63.09375 C 53.004735 63.38393 53.466869 63.705406 53.9375 64 L 62 64 L 64 62 L 64 45.78125 C 62.272388 45.619262 60.555943 45.479896 58.84375 45.375 C 58.428296 44.75407 57.997301 44.141412 57.4375 43.65625 C 56.58096 42.913915 55.43923 42.62408 54.4375 42.09375 C 54.002569 41.863491 53.580782 41.59886 53.15625 41.34375 C 53.944538 40.402623 54.488983 39.518839 56.21875 37.46875 C 56.959615 36.590686 57.36321 36.145999 57.71875 35.78125 C 57.388308 36.042609 57.057447 36.3068 56.75 36.59375 C 56.51494 36.813139 56.44783 36.905246 56.25 37.09375 C 56.407327 36.897649 56.637286 36.532489 57.53125 35.46875 C 57.664269 35.497786 57.797471 35.539238 57.9375 35.5625 C 58.29251 35.216198 58.821801 34.77043 59.375 34.28125 C 59.273835 34.415559 59.15002 34.537482 59.03125 34.65625 C 58.702811 34.984693 58.36429 35.273179 58 35.5625 C 59.641954 35.824516 61.679492 35.71875 63.09375 35.71875 C 63.393418 35.71875 63.700011 35.742797 64 35.75 L 64 34 L 64 12.4375 C 63.972989 12.436333 64.000184 12.43887 63.96875 12.4375 C 63.972326 12.428091 63.965173 12.415662 63.96875 12.40625 C 63.979735 12.40693 63.989365 12.405594 64 12.40625 L 64 2 L 63.40625 2 L 60.8125 4.59375 L 58.15625 7.25 C 57.27237 8.133884 56.32313 8.965529 55.5 9.90625 C 54.916469 10.573147 54.396912 11.282783 53.875 12 C 53.711643 11.993528 53.566126 11.974915 53.40625 11.96875 z M 58 35.5625 C 57.979915 35.559295 57.957458 35.565815 57.9375 35.5625 C 57.923597 35.576062 57.920288 35.611156 57.90625 35.625 C 57.935507 35.60185 57.97079 35.585699 58 35.5625 z M 21.59375 49.0625 C 22.215974 48.655595 22.855961 48.279074 23.5 47.90625 C 22.854504 47.702008 22.209251 47.482466 21.5625 47.28125 C 21.523515 47.848906 21.507005 48.413797 21.5625 48.96875 C 21.5657 49.000752 21.589896 49.030584 21.59375 49.0625 z M 21.5625 47.28125 C 21.594202 46.819647 21.635063 46.363483 21.71875 45.90625 C 21.068297 46.173227 20.452568 46.449188 19.8125 46.71875 C 19.927271 46.758509 20.041426 46.804156 20.15625 46.84375 C 20.618995 47.003317 21.094642 47.135691 21.5625 47.28125 z M 39.3125 39.375 C 40.56121 38.978312 41.93801 38.525018 43.65625 38 C 53.520208 34.986012 44.855612 37.588213 53.90625 35.53125 C 54.615808 35.369988 55.30481 35.122539 56 34.90625 C 56.009421 34.884794 56.021906 34.865241 56.03125 34.84375 C 56.035132 34.834822 56.027379 34.821432 56.03125 34.8125 C 55.856195 34.697969 55.675477 34.578423 55.5 34.46875 C 55.07015 34.200095 54.5794 34.003696 54.28125 33.59375 C 54.07044 33.303874 54.1598 32.883541 54.09375 32.53125 C 53.983 31.940617 53.87256 31.369544 53.75 30.78125 C 53.57793 29.955298 53.29291 29.121671 53.21875 28.28125 C 53.213229 28.218679 53.223141 28.156371 53.21875 28.09375 C 52.979897 28.042796 52.735903 28.000408 52.5 27.9375 C 52.08563 27.827003 49.418437 26.927142 48.96875 26.15625 C 48.760914 25.799959 48.96875 25.349979 48.96875 24.9375 C 48.96875 23.399285 48.857705 21.45717 49.3125 19.96875 C 49.559757 19.159544 49.893741 18.394982 50.25 17.625 C 49.190872 16.745611 48.034114 15.827333 46.84375 14.9375 C 43.379316 15.307362 42.95984 15.371404 40.3125 15.75 C 43.146245 14.9518 41.358677 15.274635 39.75 15.59375 C 39.64454 15.61467 39.725444 15.604793 39.625 15.625 C 39.579366 15.721419 39.546621 15.777174 39.5 15.875 C 39.347184 15.896364 39.418803 15.882805 39.25 15.90625 C 38.683067 15.98499 36.576757 16.052995 35.71875 16.625 C 35.62069 16.69037 35.944649 16.625 36.0625 16.625 C 36.416054 16.625 36.782762 16.71373 37.125 16.625 C 38.248553 16.333709 38.745086 16.188871 39.4375 16 C 38.879922 17.165374 38.310987 18.35952 37.84375 19.09375 C 37.483048 19.660568 36.837262 20.061328 36.59375 20.6875 C 36.401534 21.18177 36.68862 21.759474 36.59375 22.28125 C 36.19853 22.67647 36.25 22.469056 36.25 22.8125 C 36.25 22.87142 36.20833 22.958333 36.25 23 C 36.29167 23.04167 36.364583 23.04167 36.40625 23 C 36.44792 22.95833 36.3799 22.865204 36.40625 22.8125 C 36.44352 22.73796 36.547525 22.694338 36.59375 22.625 C 36.66684 22.515368 36.722324 22.399101 36.78125 22.28125 C 36.84018 22.163399 36.805733 21.9375 36.9375 21.9375 C 37.055351 21.9375 36.95687 22.165002 36.9375 22.28125 C 36.89756 22.5209 36.901787 22.789054 36.78125 23 C 36.424388 23.624508 35.91898 24.144173 35.53125 24.75 C 34.975606 25.618194 34.46783 26.522366 33.9375 27.40625 C 33.008736 28.95419 32.590259 29.733309 31.96875 30.5625 L 34.46875 33.0625 C 36.855224 35.448974 36.657951 34.95803 38.375 37.65625 C 38.515823 37.877543 38.988248 38.689286 39.3125 39.375 z M 31.96875 30.5625 L 31.46875 30.0625 C 31.228113 29.821862 30.988864 29.586207 30.75 29.34375 C 30.466398 30.599701 30.071593 31.832457 29.6875 33.0625 C 29.833318 32.918273 29.885224 32.896027 30.0625 32.71875 C 31.01203 31.76922 31.527534 31.151151 31.96875 30.5625 z M 30.75 29.34375 C 31.277121 27.009357 31.753197 23.426052 31.9375 20.6875 C 31.607371 21.516282 31.278559 22.332024 30.9375 23.15625 C 30.322332 24.642907 29.686606 26.142067 29.0625 27.625 C 29.629803 28.188951 30.18852 28.773824 30.75 29.34375 z M 39.75 15.59375 C 40.66196 15.397689 42.184732 15.063429 45.90625 14.25 C 44.485034 13.212976 43.053074 12.255017 41.65625 11.34375 C 41.33732 12.010417 41.106025 12.492972 40.65625 13.4375 C 40.423011 13.927302 40.01436 14.770566 39.625 15.59375 C 39.641878 15.590123 39.73232 15.597551 39.75 15.59375 z M 41.65625 11.34375 C 41.688931 11.275436 41.718234 11.191359 41.75 11.125 C 41.589217 11.101711 41.41404 11.087443 41.25 11.0625 C 41.38798 11.151399 41.517043 11.252933 41.65625 11.34375 z M 41.25 11.0625 C 41.187056 11.021946 41.125162 10.977637 41.0625 10.9375 C 41.044026 10.954863 41.018377 10.98274 41 11 C 41.083415 11.012983 41.167461 11.04995 41.25 11.0625 z M 51.65625 40.59375 C 51.924488 40.692962 52.183538 40.804177 52.4375 40.9375 C 52.700712 40.696853 52.838754 40.50356 53.03125 40.3125 C 53.278256 39.909546 53.557236 39.462888 53.84375 38.96875 C 53.597357 39.156527 53.532856 39.193195 53.21875 39.4375 C 52.708288 39.834527 52.168061 40.198152 51.65625 40.59375 z M 6.75 17.125 C 6.749771 17.093879 6.7502625 17.062372 6.75 17.03125 C 6.5147247 17.157927 6.2602947 17.280537 6.03125 17.40625 C 6.2720961 17.315316 6.5091893 17.216027 6.75 17.125 z M 6.03125 17.40625 C 4.8430387 17.85487 3.6541687 18.29407 2.46875 18.75 C 1.6446383 19.066966 0.82069659 19.392898 0 19.71875 L 0 21.4375 C 1.8854414 19.740765 1.4942368 19.899731 5.84375 17.5 C 5.9025163 17.467577 5.9720356 17.43875 6.03125 17.40625 z M 6.75 17.03125 C 7.4736893 16.641601 8.2006453 16.267718 8.96875 15.875 C 8.1926873 14.441248 7.4628074 12.982106 6.71875 11.53125 L 6.71875 14.6875 C 6.71875 15.47593 6.7433483 16.242687 6.75 17.03125 z M 37.75 8.28125 C 37.783777 8.28125 37.822915 8.291665 37.84375 8.3125 C 37.88542 8.354167 37.89791 8.47679 37.84375 8.5 C 37.76489 8.533797 37.677243 8.5408351 37.59375 8.5625 C 37.61346 8.5396645 37.639441 8.5252136 37.65625 8.5 C 37.68894 8.450971 37.61458 8.35417 37.65625 8.3125 C 37.677084 8.291665 37.716223 8.28125 37.75 8.28125 z M 58.5625 28.75 C 58.605402 28.75269 58.645109 28.747491 58.6875 28.75 C 58.736605 29.036793 58.772626 29.309252 58.875 29.71875 C 59.01058 30.261076 59.25267 30.743742 59.40625 31.28125 C 59.56642 31.841692 59.6355 32.47861 59.5625 33.0625 C 59.53939 33.2474 59.46515 33.416973 59.40625 33.59375 C 59.34732 33.770526 59.26395 33.944224 59.21875 34.125 C 59.20445 34.182166 59.26045 34.27083 59.21875 34.3125 C 59.17708 34.35417 59.09015 34.3125 59.03125 34.3125 C 58.97233 34.3125 58.9167 34.35417 58.875 34.3125 C 58.8333 34.270833 58.8936 34.1809 58.875 34.125 C 58.32448 32.473461 58.5 34.024589 58.5 31.65625 C 58.5 30.772367 58.3714 29.874478 58.5 29 C 58.51255 28.914658 58.547402 28.834828 58.5625 28.75 z M 50.71875 43.75 C 50.465983 44.10204 50.20297 44.495368 49.90625 44.90625 C 49.760544 44.897989 49.614454 44.883305 49.46875 44.875 C 49.595838 44.769523 49.719406 44.671301 49.84375 44.5625 C 50.237146 44.218279 50.409819 44.030213 50.71875 43.75 z M 38.6875 54.96875 C 39.049744 55.151648 39.422322 55.310566 39.78125 55.5 C 40.05481 55.644379 40.413552 55.863188 40.71875 56.03125 C 39.857546 56.688512 39.030089 57.292441 38.53125 57.625 C 38.202353 57.84426 37.822303 57.97947 37.46875 58.15625 C 37.233047 58.2741 36.87912 58.77593 36.78125 58.53125 C 36.621929 58.13295 36.933153 57.66494 37.125 57.28125 C 37.468592 56.59406 37.89505 55.94369 38.375 55.34375 C 38.450702 55.249123 38.596065 55.078228 38.6875 54.96875 z "
       style="fill:#000000;fill-opacity:0.02738516;stroke:none" />
    <path
       id="path4399"
       d="M 3.875 2 C 2.8826477 2.1598197 1.6793927 2.3756645 0 2.6875 L 0 8.28125 C 1.306671 8.8254747 2.0507855 9.3708977 5.4375 11.40625 C 6.2156969 11.873932 6.7323825 12.202232 7.375 12.59375 C 7.8443954 12.68245 8.5819875 12.836077 9.125 12.9375 C 8.6546795 8.969308 7.9348544 5.9649898 7.03125 2 L 3.875 2 z M 9.125 12.9375 C 9.1439378 13.097282 9.1380521 13.274213 9.15625 13.4375 C 9.2060503 13.282392 9.2611898 13.12551 9.3125 12.96875 C 9.2532846 12.957702 9.1828641 12.948308 9.125 12.9375 z M 9.3125 12.96875 C 10.04584 13.105568 10.582527 13.213729 11.625 13.40625 C 12.155848 13.504285 13.077992 13.681742 13.96875 13.84375 C 14.518276 14.916242 14.468466 14.789347 14 13.84375 C 14.1078 13.863385 14.17173 13.885991 14.28125 13.90625 C 14.338844 14.042223 14.311821 13.975486 14.375 14.125 C 14.59779 14.652236 15.225417 16.694275 16 17.375 C 16.08852 17.4528 15.93676 17.145085 15.90625 17.03125 C 15.81474 16.689743 15.799284 16.307612 15.625 16 C 15.058705 15.000479 14.797389 14.554689 14.4375 13.9375 C 15.701404 14.17359 17.018019 14.427604 17.84375 14.6875 C 18.484611 14.889208 19.019638 15.3956 19.6875 15.46875 C 20.214677 15.52649 20.690199 15.105908 21.21875 15.0625 C 21.702794 15.341964 21.480758 15.338889 21.8125 15.25 C 21.86941 15.23475 21.970538 15.2698 22 15.21875 C 22.02946 15.16772 21.98855 15.060712 21.9375 15.03125 C 21.88647 15.00178 21.838978 15.10556 21.78125 15.09375 C 21.6996 15.07704 21.641439 14.995459 21.5625 14.96875 C 21.437687 14.92652 21.316586 14.90142 21.1875 14.875 C 21.058412 14.84858 20.815353 14.93978 20.78125 14.8125 C 20.75075 14.698664 21.0077 14.73013 21.125 14.71875 C 21.366822 14.6953 21.640044 14.62567 21.875 14.6875 C 22.570591 14.870568 23.189464 15.219781 23.875 15.4375 C 24.857422 15.749505 25.883975 15.997757 26.875 16.28125 C 28.611204 16.77791 29.475271 16.988989 30.4375 17.375 L 32.1875 14.3125 C 33.874992 11.389678 33.463125 11.731893 35.625 9.375 C 35.801675 9.1823871 36.454303 8.5214816 37.03125 8.03125 C 36.318925 6.9189367 35.555678 5.6962055 34.59375 4.15625 C 33.857954 2.9783101 33.662508 2.660648 33.25 2 L 32 2 L 21.84375 2 C 21.823134 2.0269159 21.802961 2.0718436 21.78125 2.09375 C 21.490892 2.386719 20.992174 2.299493 20.59375 2.40625 C 19.107949 2.804369 17.274163 3.397817 15.71875 3.34375 C 14.875249 3.3144292 14.021396 3.2067096 13.1875 3.0625 C 12.607048 4.323462 12.024892 5.6697551 11.46875 7.0625 C 12.688974 10.225811 12.932737 10.756192 13.90625 13.03125 C 12.457873 10.601863 13.21946 12.292046 13.9375 13.75 C 13.511194 12.918132 12.776443 11.533239 11.03125 8.15625 C 10.402858 9.7849279 9.8273423 11.395831 9.3125 12.96875 z M 11.03125 8.15625 C 11.17261 7.7898715 11.323813 7.4254659 11.46875 7.0625 C 11.308679 6.6475314 11.374605 6.7841743 11.15625 6.21875 C 10.62539 4.8441036 10.123578 3.468781 9.59375 2.09375 C 10.290876 2.3573851 10.996223 2.603636 11.71875 2.78125 C 12.20651 2.9011529 12.691237 2.9766789 13.1875 3.0625 C 13.238969 2.9506888 13.292282 2.8289714 13.34375 2.71875 C 13.456332 2.4776499 13.573806 2.2399737 13.6875 2 L 8 2 C 8.0516528 2.1484313 8.1001819 2.2904981 8.15625 2.4375 C 8.864645 4.294801 9.930837 6.01547 10.84375 7.78125 C 10.967143 8.0199202 10.915184 7.9316593 11.03125 8.15625 z M 37.03125 8.03125 C 38.409505 10.18343 39.615205 11.928033 41.21875 14.1875 C 41.089697 13.340601 40.921179 12.662345 40.59375 11.46875 C 41.41769 12.737972 42.313985 13.949143 43.53125 15.3125 C 43.767975 16.428651 44.029853 17.589402 44.1875 18.3125 C 44.461132 18.687035 44.710523 19.044754 45 19.4375 C 45.22554 19.463489 45.420848 19.470057 45.65625 19.5 C 46.536595 19.611979 47.409665 19.800209 48.28125 19.96875 C 48.650658 20.336961 49.005671 20.725452 49.375 21.09375 C 49.388938 20.780036 49.417144 20.469341 49.4375 20.15625 C 49.724064 20.161579 52.113289 20.120255 52.84375 20.3125 C 53.00493 20.354919 53.10566 20.47917 53.25 20.5625 C 53.2652 20.619417 53.2615 20.68928 53.3125 20.71875 C 53.36353 20.74822 53.41775 20.65803 53.46875 20.6875 C 53.61801 20.773709 53.44475 21.02836 53.40625 21.0625 C 53.36216 21.10155 53.26285 21.08591 53.21875 21.125 C 53.15645 21.180288 53.15615 21.28846 53.09375 21.34375 C 52.85633 21.554285 52.61591 21.743072 52.34375 21.90625 C 51.910435 22.166055 51.467918 22.403816 51 22.59375 C 51.11387 22.695621 51.227896 22.806554 51.34375 22.90625 C 52.543161 23.938387 56.65888 26.859077 58.09375 27.6875 C 59.10669 28.27232 60.19021 28.72388 61.25 29.21875 C 61.594272 29.379512 63.146215 30.21273 64 30.28125 L 64 28.0625 C 63.75189 27.410386 63.493198 26.75167 63.1875 26.125 C 62.72325 25.173298 59.24055 18.920616 58.9375 18.5 C 57.75124 16.853534 56.26405 15.410685 54.9375 13.875 C 52.953253 11.577928 52.097318 10.540815 51.28125 9.625 C 51.40821 8.9404402 51.530282 8.2472688 51.65625 7.5625 C 52.702201 8.4100837 53.759578 9.2649241 54.84375 10.0625 C 57.23606 11.82241 58.89329 12.687347 61.4375 14.15625 L 64 15.625 L 64 5.3125 C 63.514931 4.2028897 62.992711 3.0928974 62.46875 2 L 35.9375 2 C 36.445387 3.9450168 37.05844 5.2195984 38.21875 7.375 C 38.038667 7.4109916 37.84886 7.4471483 37.6875 7.53125 C 37.512942 7.6222303 37.281451 7.8186545 37.03125 8.03125 z M 51 22.59375 C 50.452049 22.103538 49.896099 21.613395 49.375 21.09375 C 49.345271 21.76288 49.307884 22.424208 49.28125 23.09375 C 49.839154 22.98451 50.385017 22.853316 50.90625 22.65625 C 50.941821 22.642801 50.96478 22.608046 51 22.59375 z M 49.28125 23.09375 C 48.817385 23.184577 48.348364 23.243947 47.875 23.28125 C 48.312996 23.855939 48.749779 24.405474 49.1875 24.96875 C 49.197234 24.833516 49.209232 24.697745 49.21875 24.5625 C 49.253258 24.072161 49.261692 23.58541 49.28125 23.09375 z M 49.1875 24.96875 C 49.084824 26.395221 48.958375 27.827348 48.8125 29.25 C 48.701998 30.327682 48.542947 31.394075 48.40625 32.46875 C 48.36621 32.783537 48.368521 33.132414 48.28125 33.4375 C 48.26504 33.49416 48.176032 33.49822 48.125 33.46875 C 48.07396 33.43929 48.07775 33.369418 48.0625 33.3125 L 47.96875 32.96875 L 47.625 31.59375 L 46.375 26.96875 C 45.824127 24.912863 45.67979 24.304099 45.40625 23.28125 C 46.207893 23.353648 47.041171 23.34696 47.875 23.28125 C 46.876798 21.971523 45.916018 20.680303 45 19.4375 C 44.79573 19.413962 44.603463 19.395541 44.40625 19.375 C 44.32778 19.029684 44.280573 18.739408 44.1875 18.3125 C 43.835036 17.830063 43.444211 17.316712 43.125 16.875 C 42.373639 15.835296 41.802223 15.009639 41.21875 14.1875 C 41.320569 14.85568 41.405025 15.714343 41.625 17.46875 C 41.696118 18.035952 41.791802 18.589386 41.875 19.15625 C 39.789182 19.038807 37.861239 19.022306 35.28125 18.96875 C 34.661113 18.955876 34.026506 18.931618 33.40625 18.90625 C 36.034019 20.440899 34.734444 19.874468 36.78125 22 C 38.232611 22.09592 39.685196 22.143138 41.125 22.34375 C 41.503756 22.396523 41.878482 22.499618 42.25 22.59375 C 42.262609 22.833776 42.278817 23.071891 42.28125 23.3125 C 42.30461 25.623285 41.906617 27.913159 41.75 30.21875 C 41.672143 31.364891 41.598073 32.509403 41.53125 33.65625 C 43.245244 34.427497 45.341305 35.369188 45.75 35.5625 C 49.214233 37.201078 55.98596 40.592629 59.34375 42.53125 C 60.93434 43.449575 62.447292 44.487339 64 45.46875 L 64 41.3125 C 63.309436 40.643903 62.611579 39.966271 61.9375 39.28125 C 59.46019 36.763736 54.86093 31.871137 52.6875 29.3125 C 51.615964 28.051048 50.404701 26.535092 49.1875 24.96875 z M 41.53125 33.65625 C 38.923838 32.482991 37.088923 31.672613 35 30.75 C 35.071181 30.241822 35.156926 29.715371 35.28125 29.21875 C 35.455925 28.521003 35.757593 27.864699 36 27.1875 C 36.266287 26.443597 36.098661 26.799508 36.34375 26.375 C 36.385421 26.302832 36.54091 26.19791 36.46875 26.15625 C 36.366688 26.097331 36.19293 26.15369 36.125 26.25 C 35.907538 26.558335 35.830533 26.946606 35.65625 27.28125 C 35.386803 27.798624 35.121737 28.338848 34.78125 28.8125 C 34.439828 29.287454 34.093727 29.738094 33.71875 30.1875 C 33.457824 30.0736 32.705719 29.748033 32.5625 29.6875 C 31.942335 29.178104 31.35859 28.670542 30.78125 28.21875 C 31.859702 27.787023 32.25173 27.614551 34.1875 26.59375 C 34.668044 26.340343 35.202888 26.143084 35.65625 25.84375 C 38.05123 24.262454 36.214867 25.335962 37.53125 24.03125 C 37.717771 23.846383 38.06314 23.833525 38.125 23.53125 C 38.13681 23.47352 38.109 23.40067 38.09375 23.34375 C 37.848125 22.427066 38.176122 23.440631 36.8125 22.03125 C 36.799828 22.018152 36.793665 22.012892 36.78125 22 C 36.297463 21.968027 35.794272 21.958258 35.3125 21.90625 C 33.343131 21.693656 31.400213 21.360898 29.4375 21.09375 C 29.073775 21.044243 28.707413 20.987469 28.34375 20.9375 C 28.123784 21.32114 27.898731 21.705216 27.6875 22.09375 C 27.184912 23.018202 26.722501 23.965912 26.25 24.90625 C 24.125564 23.444325 21.956233 22.057767 19.3125 20.3125 C 19.551892 20.251559 19.789817 20.177526 20.03125 20.125 C 20.286525 20.069464 20.596861 20.023626 20.875 19.96875 C 20.052937 19.871926 19.255512 19.782147 18.4375 19.65625 C 18.385189 19.648199 18.333499 19.633421 18.28125 19.625 C 14.377702 17.037563 12.285588 15.639263 9.1875 13.71875 C 9.2369306 14.17831 9.3000895 14.63325 9.34375 15.125 C 9.4235378 16.023653 9.4893764 17.066468 9.53125 18.15625 C 9.2868462 18.035206 9.0418075 17.914817 8.78125 17.84375 C 8.546857 17.77982 8.305423 17.83965 8.0625 17.84375 C 8.0025446 17.809135 7.9331944 17.788507 7.875 17.75 C 8.1346927 16.836227 8.408307 15.852861 8.8125 14.53125 C 8.8981192 14.251296 9.0024537 13.943223 9.09375 13.65625 C 8.6012983 13.351287 7.9464095 12.941884 7.375 12.59375 C 5.7263277 12.282205 4.2424651 12.015453 1.21875 11.4375 C 0.8137111 11.360081 0.40564147 11.293224 0 11.21875 L 0 15.90625 C 0.53849264 16.52022 1.0918207 17.131637 1.625 17.75 C 2.950163 19.286879 4.267202 20.808067 5.59375 22.34375 L 6.84375 23.78125 C 6.8551996 23.564925 6.8609324 23.326575 6.875 23.125 C 5.6072177 21.117806 3.1115512 17.209114 2.8125 16.6875 C 2.484826 16.115961 2.273247 15.490466 1.96875 14.90625 C 1.770476 14.525836 0.906138 13.675033 1.3125 13.8125 C 1.887184 14.006909 2.174363 14.627482 2.5625 15.09375 C 3.255591 15.926358 3.866765 16.831889 4.53125 17.6875 C 6.4536642 20.162858 6.7511228 20.476847 7.09375 20.9375 C 7.2488142 20.001908 7.519889 19.022406 7.84375 17.875 C 7.9594914 18.112903 8.0675021 18.344614 8.25 18.53125 C 8.8970199 19.19294 9.2865464 19.573877 9.5625 19.8125 C 9.5934328 21.381909 9.6111889 22.970815 9.5625 24.5 C 9.9353096 25.046478 9.7587642 24.806256 10.34375 25.65625 L 15.875 33.71875 C 16.359652 33.587337 16.863632 33.459702 17.34375 33.3125 C 18.230288 33.04069 18.955845 32.795281 19.625 32.5625 C 20.160244 33.289227 20.668625 34.043117 21.1875 34.78125 C 20.599836 35.911292 19.99754 37.035427 19.375 38.09375 C 20.209112 38.952268 21.057626 39.813193 21.875 40.6875 C 22.360152 41.206443 22.812827 41.746451 23.28125 42.28125 C 23.016856 42.539568 22.775935 42.797086 22.5 43.0625 C 22.483945 43.077943 22.453574 43.078327 22.4375 43.09375 C 22.770548 43.552434 23.106152 44.008855 23.4375 44.46875 C 23.616388 44.717037 23.79015 44.970254 23.96875 45.21875 C 24.512398 45.068641 25.045021 44.91076 25.59375 44.78125 C 25.646144 44.833451 25.697099 44.885787 25.75 44.9375 C 27.023909 46.182798 28.552411 47.178219 29.8125 48.4375 C 30.028543 48.802716 30.239812 49.173957 30.46875 49.53125 C 30.903139 50.209178 31.369391 50.880216 31.84375 51.53125 C 31.850196 51.309675 31.83942 51.135726 31.84375 50.9375 C 31.977339 51.106011 32.109918 51.274697 32.25 51.4375 C 32.559856 51.79761 32.919661 52.12732 33.25 52.46875 C 33.341619 52.56344 33.45865 52.64005 33.53125 52.75 C 33.608253 52.86663 33.615677 53.22917 33.21875 53 C 33.016511 52.883236 32.840118 52.769213 32.65625 52.625 C 33.126676 53.284418 33.625617 53.924355 34.03125 54.625 C 34.584465 55.580557 34.847473 56.108801 35.03125 56.46875 C 34.033477 56.317251 33.026759 56.262552 32.03125 56.09375 C 30.290298 55.79856 28.573701 55.44776 26.84375 55.09375 C 21.863747 54.074669 19.609751 53.426683 14.8125 52.625 C 14.89948 52.52602 15.10621 52.50541 15.125 52.375 C 15.671419 48.582442 14.291863 54.106122 15.09375 50.1875 C 15.127546 50.022347 15.190556 49.876862 15.25 49.71875 C 14.225876 50.66001 13.534695 51.239502 12.1875 52.25 C 11.360152 52.149783 10.543565 52.02263 9.71875 51.90625 C 9.8586955 52.021503 9.9999539 52.159759 10.15625 52.25 C 10.411405 52.39731 10.703048 52.43519 10.96875 52.5625 C 11.119054 52.63452 11.263901 52.725396 11.40625 52.8125 C 10.951496 53.149734 10.612706 53.431979 9.96875 53.90625 C 9.7007736 53.677761 9.4096835 53.457385 9.125 53.25 C 8.451439 52.75933 7.658917 52.46703 6.96875 52 C 6.684187 51.80744 6.109618 51.60705 6.21875 51.28125 C 6.226403 51.258403 6.2405617 51.240359 6.25 51.21875 C 3.9682794 50.71435 0.82936312 50.037401 0 49.84375 L 0 52.46875 C 0.94845913 53.454335 1.8377597 54.509605 2.78125 55.5 C 3.434638 56.185874 4.1137234 56.859054 4.78125 57.53125 C 4.75178 57.58228 4.78907 57.6656 4.84375 57.6875 C 4.8834907 57.703457 4.9279601 57.704878 4.96875 57.71875 C 5.3359449 58.088961 5.699946 58.469031 6.0625 58.84375 C 7.511132 60.341 8.934616 61.83857 10.375 63.34375 C 10.584335 63.562502 10.793007 63.778895 11 64 L 21.0625 64 C 19.267401 62.020428 18.12114 60.898239 15.25 58.375 C 14.933927 58.097225 14.605705 57.830401 14.28125 57.5625 C 16.28967 57.450063 12.665995 57.451492 19.78125 57.53125 C 24.16084 57.41624 23.952172 57.0566 28.09375 57.125 C 29.397946 57.14652 30.696817 57.3193 32 57.375 C 32.857187 57.4115 33.737969 57.34505 34.59375 57.40625 C 34.944555 57.431355 35.277218 57.508388 35.625 57.5625 C 35.767014 57.809191 35.821272 57.916016 36.34375 57.84375 C 36.576668 57.811532 36.855572 57.820247 37.0625 57.71875 C 37.556897 57.756482 38.038067 57.760335 38.53125 57.8125 C 38.793311 57.84022 39.050831 57.93755 39.3125 57.96875 C 39.371011 57.97565 39.41103 57.9257 39.46875 57.9375 C 39.676895 57.98009 39.882786 58.0998 40.09375 58.125 C 40.210772 58.13896 40.547861 58.07255 40.4375 58.03125 C 39.869383 57.81841 39.234938 57.77589 38.65625 57.59375 C 38.296365 57.480477 37.944381 57.330079 37.59375 57.1875 C 39.141978 55.426383 39.332476 53.560984 39.84375 51.0625 C 40.57096 47.508808 40.81829 45.752145 40.96875 43.78125 C 41.492606 43.896795 42.03629 44.028934 42.5625 44.125 C 43.492521 44.180823 44.412582 44.24991 45.34375 44.28125 C 45.829387 44.29759 46.326802 44.23559 46.8125 44.25 C 46.944204 44.25391 47.060227 44.37785 47.1875 44.34375 C 47.244425 44.328498 47.1715 44.21317 47.15625 44.15625 C 47.141 44.099332 47.11987 44.05282 47.09375 44 C 46.85296 43.51301 46.672579 42.963697 46.34375 42.53125 C 45.817141 41.838698 45.198852 41.249547 44.5625 40.65625 C 43.570282 39.731166 42.49845 38.883172 41.46875 38 L 41.28125 37.84375 C 41.289928 37.695014 41.303179 37.624038 41.3125 37.46875 C 41.388809 36.197413 41.457165 34.927729 41.53125 33.65625 z M 6.25 51.21875 C 7.0959815 51.405764 8.5506921 51.747937 8.5625 51.75 C 8.9356035 51.815149 9.3125497 51.853088 9.6875 51.90625 C 9.5412448 51.785725 9.382129 51.65683 9.21875 51.5625 C 8.891992 51.37385 8.477128 51.36682 8.1875 51.125 C 7.900867 50.88568 7.885879 50.37421 7.5625 50.1875 C 7.1321575 50.536669 6.4670809 50.721736 6.25 51.21875 z M 7.5625 50.1875 C 7.3076727 50.040378 7.0220247 50.03886 6.71875 50.03125 C 6.9996819 50.105861 7.2738045 50.178936 7.5625 50.1875 z M 7.5625 50.1875 C 7.7712672 50.193708 8.0149292 50.082082 8.25 50 L 7.5625 50.1875 z M 6.71875 50.03125 C 6.6171785 50.004274 6.5085134 49.958637 6.40625 49.9375 C 6.277215 49.9109 6.156064 49.9172 6.03125 49.875 C 5.729367 49.77287 5.76226 49.5792 5.375 49.5 C 5.3086117 49.486413 5.2537383 49.527244 5.1875 49.5625 C 5.2887328 49.687448 5.1841565 49.762345 5.46875 49.84375 C 5.72211 49.91625 5.990106 49.9564 6.25 50 C 6.4003207 50.025207 6.5616546 50.027308 6.71875 50.03125 z M 5.1875 49.5625 C 5.1537557 49.520851 5.098694 49.46323 5 49.40625 C 4.9923455 49.401825 4.9770801 49.405542 4.96875 49.40625 C 4.9682868 49.349798 4.9702553 49.286949 4.9375 49.25 C 4.898404 49.2059 4.81071 49.23025 4.78125 49.28125 C 4.75178 49.33228 4.76147 49.43925 4.8125 49.46875 C 4.8533248 49.49235 4.9234045 49.448255 4.96875 49.4375 C 4.969095 49.504485 4.980215 49.56429 5.03125 49.59375 C 5.0746263 49.618783 5.1385413 49.588559 5.1875 49.5625 z M 15.25 49.71875 C 15.516837 49.473503 15.892149 49.112531 16.25 48.78125 C 16.573708 48.711676 16.889897 48.671957 17.1875 48.53125 C 17.425737 48.418611 17.594083 48.185507 17.78125 48 C 18.08109 47.702818 18.28834 47.546411 18.28125 47.125 C 18.280358 47.072428 18.265992 47.019204 18.25 46.96875 C 18.343021 46.883959 18.437956 46.80325 18.53125 46.71875 L 18.1875 46.8125 C 18.184562 46.802918 18.190082 46.790882 18.1875 46.78125 L 18.09375 46.4375 C 18.02578 46.183818 18.019206 45.967929 17.75 45.8125 C 17.69897 45.78304 17.644781 45.90447 17.59375 45.875 C 17.54272 45.84554 17.5823 45.716962 17.53125 45.6875 C 17.48021 45.65804 17.431918 45.73475 17.375 45.75 L 17.1875 45.78125 C 17.079552 45.81017 16.528445 45.94747 16.5 45.96875 C 16.085933 46.278528 16.000392 46.554806 15.875 47.03125 C 15.819769 47.241107 15.806092 47.295756 15.78125 47.40625 C 15.443741 47.496012 15.112276 47.607499 14.78125 47.71875 C 12.952793 48.333253 12.312254 48.731494 10.96875 49.53125 C 11.610419 49.661366 12.20917 49.74954 12.59375 49.75 C 13.241931 49.75078 13.842655 49.41776 14.46875 49.25 L 15.5 48.96875 C 15.432546 49.216056 15.340393 49.47832 15.25 49.71875 z M 10.96875 49.53125 C 10.804811 49.498007 10.640167 49.444664 10.46875 49.40625 C 10.355288 49.602774 10.25225 49.812491 10.125 50 C 10.272069 49.918127 10.417824 49.835302 10.5625 49.75 C 10.733533 49.649157 10.819775 49.619931 10.96875 49.53125 z M 10.125 50 C 9.8964235 50.127249 9.6777635 50.24988 9.46875 50.40625 C 9.37438 50.47685 9.709461 50.3697 9.8125 50.3125 C 9.927701 50.2486 10.015671 50.16864 10.09375 50.0625 C 10.107425 50.043911 10.112059 50.019069 10.125 50 z M 10.46875 49.40625 C 10.832586 48.942737 11.191889 48.489365 11.5625 48.03125 C 12.200125 47.24308 12.836422 46.422697 13.5 45.65625 C 15.911083 42.871399 16.326876 42.869393 18.46875 39.59375 C 18.525306 39.507257 18.568576 39.400734 18.625 39.3125 C 19.780597 40.685206 20.967377 42.057678 22.15625 43.375 C 22.252102 43.284283 22.342266 43.185127 22.4375 43.09375 C 21.696691 42.073485 20.944378 41.062325 20.21875 40.03125 C 19.855266 39.51476 19.514391 38.988959 19.15625 38.46875 C 19.231752 38.343299 19.299847 38.221511 19.375 38.09375 C 18.75722 37.457894 18.159092 36.811906 17.5625 36.15625 C 17.354746 35.852535 17.146113 35.553118 16.9375 35.25 L 15.875 33.71875 C 15.7521 33.752074 15.623088 33.779831 15.5 33.8125 C 14.856538 33.057383 14.210957 32.313188 13.5625 31.5625 L 9.4375 26.78125 C 9.486877 26.054269 9.5367319 25.309306 9.5625 24.5 C 8.3878583 22.778167 7.3844974 21.328402 7.09375 20.9375 C 6.9802904 21.622067 6.9305153 22.329518 6.875 23.125 C 7.211523 23.657794 7.9241667 24.823123 7.9375 24.84375 C 8.1129903 25.115238 8.2939744 25.384226 8.46875 25.65625 L 6.84375 23.78125 C 6.7935973 24.728822 6.7416841 25.79771 6.71875 27.1875 C 6.65439 31.08782 6.742925 30.730913 7.59375 33.90625 C 7.67 34.190839 7.700744 34.492403 7.84375 34.75 C 7.8842 34.82286 7.92708 34.603419 7.96875 34.53125 C 8.09375 34.314744 8.274993 34.115359 8.34375 33.875 C 8.56118 33.114918 8.682781 32.342354 8.8125 31.5625 C 9.033403 30.234456 9.262371 28.904071 9.375 27.5625 C 9.3861026 27.430252 9.3960465 27.261657 9.40625 27.125 C 10.029894 28.08696 10.648922 29.034191 11.3125 29.96875 C 12.312809 31.377548 13.346952 32.759602 14.40625 34.125 C 13.726152 34.299053 13.052917 34.443352 12.375 34.625 C 10.610551 35.097781 8.878986 35.644293 7.09375 36.03125 C 5.300172 36.420009 3.463188 36.616518 1.65625 36.9375 L 0 37.25 L 0 45.4375 C 0.16737226 45.519452 0.33424692 45.603091 0.5 45.6875 C 2.761988 46.839405 4.325816 47.596749 6.71875 48.40625 C 7.4474959 48.652776 9.0513111 49.088607 10.46875 49.40625 z M 22.15625 43.375 C 20.96248 44.504816 19.749627 45.615211 18.53125 46.71875 L 21.625 45.875 C 22.378171 45.673188 23.123458 45.458413 23.875 45.25 C 23.303172 44.643224 22.742882 44.025014 22.15625 43.375 z M 23.875 45.25 C 24.05471 45.440693 24.228985 45.658604 24.40625 45.84375 C 24.258081 45.637432 24.116996 45.425012 23.96875 45.21875 C 23.936889 45.227547 23.906852 45.241167 23.875 45.25 z M 24.40625 45.84375 C 25.145679 46.873365 25.879243 47.912465 26.625 48.9375 C 27.481206 50.114345 28.389269 51.24167 29.21875 52.4375 C 29.781733 53.24913 30.293464 54.09709 30.8125 54.9375 C 30.868992 55.02897 31.209752 55.94665 31.59375 55.84375 C 31.707582 55.81325 31.4929 55.61764 31.5 55.5 C 31.570866 54.319358 31.800987 53.150655 31.84375 51.96875 C 31.772089 51.913909 31.69904 51.86389 31.625 51.8125 C 27.200228 48.741371 28.78354 50.388363 24.5625 46 C 24.513578 45.949139 24.455383 45.895067 24.40625 45.84375 z M 31.84375 51.96875 C 32.12061 52.180627 32.382091 52.409969 32.65625 52.625 C 32.617667 52.570917 32.56932 52.523153 32.53125 52.46875 C 32.3088 52.150857 32.072336 51.844973 31.84375 51.53125 C 31.839339 51.682854 31.849244 51.774252 31.84375 51.9375 C 31.843401 51.94788 31.844126 51.958371 31.84375 51.96875 z M 9.09375 13.65625 C 9.121192 13.673244 9.1602596 13.701864 9.1875 13.71875 C 9.1776139 13.626838 9.1663654 13.528264 9.15625 13.4375 C 9.1333387 13.50886 9.116331 13.585271 9.09375 13.65625 z M 28.34375 20.9375 C 28.747183 20.233877 29.151752 19.543273 29.5625 18.84375 C 27.194976 18.937832 23.653471 19.444249 20.96875 19.96875 C 21.821991 20.068868 22.679579 20.169435 23.53125 20.28125 C 25.131252 20.491309 26.745033 20.717831 28.34375 20.9375 z M 29.5625 18.84375 C 30.843337 18.792852 32.124433 18.853824 33.40625 18.90625 C 33.239022 18.808587 33.202081 18.772921 33 18.65625 C 31.837661 17.985173 31.120001 17.648795 30.4375 17.375 L 30.0625 18 C 29.897505 18.285779 29.729609 18.559156 29.5625 18.84375 z M 52.78125 2.3125 C 53.627391 2.966072 54.429871 3.6400596 54.875 4.03125 C 55.17192 4.29219 55.39399 4.610497 55.65625 4.90625 C 55.83108 5.103419 56.39851 5.342138 56.1875 5.5 C 55.84401 5.756984 55.32652 5.55475 54.90625 5.46875 C 54.15355 5.314722 53.39121 5.089571 52.6875 4.78125 C 52.576442 4.7325921 52.379493 4.6225236 52.25 4.5625 C 52.332856 4.1655387 52.409981 3.770452 52.5 3.375 C 52.569833 3.0682266 52.696244 2.6571672 52.78125 2.3125 z M 7.5 17.40625 C 7.5344505 17.395405 7.57553 17.414345 7.59375 17.4375 C 7.6400489 17.496338 7.6807506 17.560148 7.71875 17.625 C 7.690103 17.610941 7.655361 17.604021 7.625 17.59375 C 7.56918 17.57486 7.51978 17.68572 7.46875 17.65625 C 7.4177 17.626787 7.37679 17.51978 7.40625 17.46875 C 7.420981 17.443225 7.4655495 17.417095 7.5 17.40625 z M 8.65625 49.90625 C 8.5856182 49.91058 8.5092937 49.949884 8.4375 49.96875 C 8.519142 49.98546 8.57461 50.07705 8.65625 50.09375 C 8.713979 50.10565 8.75558 50.04655 8.8125 50.03125 C 8.869417 50.01595 9.05103 50.0295 9 50 C 8.888047 49.935365 8.776324 49.898889 8.65625 49.90625 z "
       style="fill:#000000;fill-opacity:0.02738516;stroke:none" />
  </g>
  <path
     style="color:#000000;fill:url(#radialGradient3925);fill-opacity:1;fill-rule:nonzero;stroke:none;stroke-width:2.28571415000000000;marker:none;visibility:visible;display:inline;overflow:visible;enable-background:accumulate"
     d="m 0,2 0,32 0,28 2,2 30,0 30,0 2,-2 0,-28 0,-32 -32,0 z"
     id="path6498"
     inkscape:connector-curvature="0"
     sodipodi:nodetypes="ccccccccccc" />
  <g
     id="g3875"
     transform="translate(-1,0)">
    <path
       style="color:#000000;fill:#ffffff;fill-opacity:0.1577061;stroke:none;stroke-width:2;marker:none;visibility:visible;display:inline;overflow:visible;enable-background:accumulate"
       d="M 4 2 L 4 5 L 0 5 L 0 6 L 4 6 L 4 20 L 0 20 L 0 21 L 4 21 L 4 35 L 0 35 L 0 36 L 4 36 L 4 50 L 0 50 L 0 51 L 4 51 L 4 64 L 5 64 L 5 51 L 19 51 L 19 64 L 20 64 L 20 51 L 34 51 L 34 64 L 35 64 L 35 51 L 49 51 L 49 64 L 50 64 L 50 51 L 64 51 L 64 50 L 50 50 L 50 36 L 64 36 L 64 35 L 50 35 L 50 21 L 64 21 L 64 20 L 50 20 L 50 6 L 64 6 L 64 5 L 50 5 L 50 2 L 49 2 L 49 5 L 35 5 L 35 2 L 34 2 L 34 5 L 20 5 L 20 2 L 19 2 L 19 5 L 5 5 L 5 2 L 4 2 z M 5 6 L 19 6 L 19 20 L 5 20 L 5 6 z M 20 6 L 34 6 L 34 20 L 20 20 L 20 6 z M 35 6 L 49 6 L 49 20 L 35 20 L 35 6 z M 5 21 L 19 21 L 19 35 L 5 35 L 5 21 z M 20 21 L 34 21 L 34 35 L 20 35 L 20 21 z M 35 21 L 49 21 L 49 35 L 35 35 L 35 21 z M 5 36 L 19 36 L 19 50 L 5 50 L 5 36 z M 20 36 L 34 36 L 34 50 L 20 50 L 20 36 z M 35 36 L 49 36 L 49 50 L 35 50 L 35 36 z "
       transform="translate(1,0)"
       id="rect3891" />
    <path
       style="color:#000000;fill:#ffffff;fill-opacity:0.05555556;stroke:none;stroke-width:2;marker:none;visibility:visible;display:inline;overflow:visible;enable-background:accumulate"
       d="M 9 2 L 9 10 L 0 10 L 0 11 L 9 11 L 9 15 L 0 15 L 0 16 L 9 16 L 9 25 L 0 25 L 0 26 L 9 26 L 9 30 L 0 30 L 0 31 L 9 31 L 9 40 L 0 40 L 0 41 L 9 41 L 9 45 L 0 45 L 0 46 L 9 46 L 9 55 L 0 55 L 0 56 L 9 56 L 9 60 L 0 60 L 0 61 L 9 61 L 9 64 L 10 64 L 10 61 L 14 61 L 14 64 L 15 64 L 15 61 L 24 61 L 24 64 L 25 64 L 25 61 L 29 61 L 29 64 L 30 64 L 30 61 L 39 61 L 39 64 L 40 64 L 40 61 L 44 61 L 44 64 L 45 64 L 45 61 L 54 61 L 54 64 L 55 64 L 55 61 L 59 61 L 59 64 L 60 64 L 60 61 L 64 61 L 64 60 L 60 60 L 60 56 L 64 56 L 64 55 L 60 55 L 60 46 L 64 46 L 64 45 L 60 45 L 60 41 L 64 41 L 64 40 L 60 40 L 60 31 L 64 31 L 64 30 L 60 30 L 60 26 L 64 26 L 64 25 L 60 25 L 60 16 L 64 16 L 64 15 L 60 15 L 60 11 L 64 11 L 64 10 L 60 10 L 60 2 L 59 2 L 59 10 L 55 10 L 55 2 L 54 2 L 54 10 L 45 10 L 45 2 L 44 2 L 44 10 L 40 10 L 40 2 L 39 2 L 39 10 L 30 10 L 30 2 L 29 2 L 29 10 L 25 10 L 25 2 L 24 2 L 24 10 L 15 10 L 15 2 L 14 2 L 14 10 L 10 10 L 10 2 L 9 2 z M 10 11 L 14 11 L 14 15 L 10 15 L 10 11 z M 15 11 L 24 11 L 24 15 L 15 15 L 15 11 z M 25 11 L 29 11 L 29 15 L 25 15 L 25 11 z M 30 11 L 39 11 L 39 15 L 30 15 L 30 11 z M 40 11 L 44 11 L 44 15 L 40 15 L 40 11 z M 45 11 L 54 11 L 54 15 L 45 15 L 45 11 z M 55 11 L 59 11 L 59 15 L 55 15 L 55 11 z M 10 16 L 14 16 L 14 25 L 10 25 L 10 16 z M 15 16 L 24 16 L 24 25 L 15 25 L 15 16 z M 25 16 L 29 16 L 29 25 L 25 25 L 25 16 z M 30 16 L 39 16 L 39 25 L 30 25 L 30 16 z M 40 16 L 44 16 L 44 25 L 40 25 L 40 16 z M 45 16 L 54 16 L 54 25 L 45 25 L 45 16 z M 55 16 L 59 16 L 59 25 L 55 25 L 55 16 z M 10 26 L 14 26 L 14 30 L 10 30 L 10 26 z M 15 26 L 24 26 L 24 30 L 15 30 L 15 26 z M 25 26 L 29 26 L 29 30 L 25 30 L 25 26 z M 30 26 L 39 26 L 39 30 L 30 30 L 30 26 z M 40 26 L 44 26 L 44 30 L 40 30 L 40 26 z M 45 26 L 54 26 L 54 30 L 45 30 L 45 26 z M 55 26 L 59 26 L 59 30 L 55 30 L 55 26 z M 10 31 L 14 31 L 14 40 L 10 40 L 10 31 z M 15 31 L 24 31 L 24 40 L 15 40 L 15 31 z M 25 31 L 29 31 L 29 40 L 25 40 L 25 31 z M 30 31 L 39 31 L 39 40 L 30 40 L 30 31 z M 40 31 L 44 31 L 44 40 L 40 40 L 40 31 z M 45 31 L 54 31 L 54 40 L 45 40 L 45 31 z M 55 31 L 59 31 L 59 40 L 55 40 L 55 31 z M 10 41 L 14 41 L 14 45 L 10 45 L 10 41 z M 15 41 L 24 41 L 24 45 L 15 45 L 15 41 z M 25 41 L 29 41 L 29 45 L 25 45 L 25 41 z M 30 41 L 39 41 L 39 45 L 30 45 L 30 41 z M 40 41 L 44 41 L 44 45 L 40 45 L 40 41 z M 45 41 L 54 41 L 54 45 L 45 45 L 45 41 z M 55 41 L 59 41 L 59 45 L 55 45 L 55 41 z M 10 46 L 14 46 L 14 55 L 10 55 L 10 46 z M 15 46 L 24 46 L 24 55 L 15 55 L 15 46 z M 25 46 L 29 46 L 29 55 L 25 55 L 25 46 z M 30 46 L 39 46 L 39 55 L 30 55 L 30 46 z M 40 46 L 44 46 L 44 55 L 40 55 L 40 46 z M 45 46 L 54 46 L 54 55 L 45 55 L 45 46 z M 55 46 L 59 46 L 59 55 L 55 55 L 55 46 z M 10 56 L 14 56 L 14 60 L 10 60 L 10 56 z M 15 56 L 24 56 L 24 60 L 15 60 L 15 56 z M 25 56 L 29 56 L 29 60 L 25 60 L 25 56 z M 30 56 L 39 56 L 39 60 L 30 60 L 30 56 z M 40 56 L 44 56 L 44 60 L 40 60 L 40 56 z M 45 56 L 54 56 L 54 60 L 45 60 L 45 56 z M 55 56 L 59 56 L 59 60 L 55 60 L 55 56 z "
       id="rect3889"
       transform="translate(1,0)" />
  </g>
  <path
     style="color:#000000;fill:#48b2ff;fill-opacity:1;fill-rule:nonzero;stroke:none;marker:none;visibility:visible;display:inline;overflow:visible;enable-background:accumulate"
     d="M 2,0 0,1 0,2 32,2 64,2 64,1 62,0 32,0 z"
     id="path6502"
     inkscape:connector-curvature="0"
     sodipodi:nodetypes="ccccccccc" />
  <path
     style="fill:#ffffff;fill-opacity:0.21554769;fill-rule:nonzero"
     d="M 0,1 0,4 2,2 32,2 62,2 64,1 32,1 z"
     id="path4298"
     inkscape:connector-curvature="0"
     sodipodi:nodetypes="cccccccc" />
  <path
     d="M 64,4 62,2 64,1 z"
     id="path3028"
     style="fill:#1f0700;fill-opacity:0.13759861"
     inkscape:connector-curvature="0"
     sodipodi:nodetypes="cccc" />
  <path
     style="fill:#000000;fill-opacity:0.11130587;fill-rule:nonzero"
     d="m 63,0.5 0,33.5 0,29 1,-1 0,-28 0,-33 z m 0,62.5 -31,0 -31,0 1,1 30,0 30,0 z"
     id="path4366"
     inkscape:connector-curvature="0"
     sodipodi:nodetypes="cccccccccccccc" />
  <g
     id="g3043"
     inkscape:export-filename="folder.png"
     inkscape:export-xdpi="90"
     inkscape:export-ydpi="90"
     transform="translate(-0.62500009,0.082283)" />
  <path
     style="fill:#ffffff;fill-opacity:0.35070675;fill-rule:nonzero"
     d="M 0,1 0,34 0,62 1,63 1,34 1,3 2,2 1,1.46875 1,1 z"
     id="path3864"
     inkscape:connector-curvature="0"
     sodipodi:nodetypes="cccccccccc" />
  <g
     id="scalable"
     transform="matrix(1.0385892,0,0,1.0385892,1214.7222,1878.8121)"
     inkscape:label="#g3701"
     style="fill:#ffffff" />
  <path
     style="font-size:medium;font-style:normal;font-variant:normal;font-weight:normal;font-stretch:normal;text-indent:0;text-align:start;text-decoration:none;line-height:normal;letter-spacing:normal;word-spacing:normal;text-transform:none;direction:ltr;block-progression:tb;writing-mode:lr-tb;text-anchor:start;baseline-shift:baseline;color:#000000;fill:none;fill-opacity:1;stroke:#ffffff;stroke-width:2;marker:none;visibility:visible;display:inline;overflow:visible;enable-background:accumulate;font-family:Sans;-inkscape-font-specification:Sans;stroke-miterlimit:4;stroke-dasharray:none;stroke-opacity:0.8261649"
     d="m 32,15 0,19 c 0,4.908328 -3.513197,8.646442 -9.03125,10.125 l 2.0625,7.75 C 33.270445,49.667314 40,42.872412 40,34 l 0,-19 -8,0 z"
     id="path3827"
     inkscape:connector-curvature="0" />
</svg>
