<?xml version="1.0" encoding="UTF-8" standalone="no"?>
<!-- Created with Inkscape (http://www.inkscape.org/) -->

<svg
   xmlns:dc="http://purl.org/dc/elements/1.1/"
   xmlns:cc="http://creativecommons.org/ns#"
   xmlns:rdf="http://www.w3.org/1999/02/22-rdf-syntax-ns#"
   xmlns:svg="http://www.w3.org/2000/svg"
   xmlns="http://www.w3.org/2000/svg"
   xmlns:xlink="http://www.w3.org/1999/xlink"
   xmlns:sodipodi="http://sodipodi.sourceforge.net/DTD/sodipodi-0.dtd"
   xmlns:inkscape="http://www.inkscape.org/namespaces/inkscape"
   width="64"
   height="64"
   id="svg13094"
   version="1.1"
   inkscape:version="0.48.3.1 r9886"
   sodipodi:docname="brackets.svg">
  <sodipodi:namedview
     id="base"
     pagecolor="#ffffff"
     bordercolor="#666666"
     borderopacity="1.0"
     inkscape:pageopacity="0"
     inkscape:pageshadow="2"
     inkscape:zoom="8.0000004"
     inkscape:cx="33.865735"
     inkscape:cy="35.336006"
     inkscape:document-units="px"
     inkscape:current-layer="svg13094"
     showgrid="true"
     inkscape:snap-bbox="true"
     inkscape:bbox-paths="true"
     inkscape:bbox-nodes="true"
     inkscape:snap-bbox-edge-midpoints="true"
     inkscape:snap-bbox-midpoints="true"
     inkscape:object-paths="true"
     inkscape:snap-intersection-paths="true"
     inkscape:object-nodes="true"
     inkscape:snap-smooth-nodes="true"
     inkscape:snap-midpoints="true"
     inkscape:snap-object-midpoints="true"
     inkscape:snap-center="true"
     showguides="true"
     inkscape:guide-bbox="true"
     inkscape:window-width="1920"
     inkscape:window-height="1023"
     inkscape:window-x="-10"
     inkscape:window-y="35"
     inkscape:window-maximized="1"
     inkscape:snap-global="true"
     fit-margin-top="0"
     fit-margin-left="0"
     fit-margin-right="0"
     fit-margin-bottom="0"
     showborder="true"
     inkscape:showpageshadow="false"
     inkscape:snap-page="true">
    <inkscape:grid
       type="xygrid"
       id="grid3075"
       empspacing="5"
       visible="true"
       enabled="true"
       snapvisiblegridlinesonly="true"
       originx="1.6362304e-08px"
       originy="18px" />
  </sodipodi:namedview>
  <defs
     id="defs13096">
    <linearGradient
       id="linearGradient5602">
      <stop
         id="stop5604"
         style="stop-color:#349cd9;stop-opacity:1;"
         offset="0" />
      <stop
         id="stop5606"
         style="stop-color:#2570c3;stop-opacity:1;"
         offset="1" />
    </linearGradient>
    <radialGradient
       inkscape:collect="always"
       xlink:href="#linearGradient5602"
       id="radialGradient2999"
       cx="32"
       cy="14.8"
       fx="32"
       fy="14.8"
       r="32"
       gradientTransform="matrix(0,1.78125,-1.6699219,0,56.714844,-41)"
       gradientUnits="userSpaceOnUse" />
  </defs>
  <metadata
     id="metadata13099">
    <rdf:RDF>
      <cc:Work
         rdf:about="">
        <dc:format>image/svg+xml</dc:format>
        <dc:type
           rdf:resource="http://purl.org/dc/dcmitype/StillImage" />
        <dc:title />
      </cc:Work>
    </rdf:RDF>
  </metadata>
  <path
     style="color:#000000;fill:url(#radialGradient2999);fill-opacity:1;fill-rule:nonzero;stroke:none;stroke-width:2.28571415000000000;marker:none;visibility:visible;display:inline;overflow:visible;enable-background:accumulate"
     d="M 0 4 L 0 34 L 0 62 L 2 64 L 32 64 L 62 64 L 64 62 L 64 34 L 64 4 L 32 4 L 0 4 z "
     id="path6498" />
  <path
     style="color:#000000;fill:#62cdff;fill-opacity:1;fill-rule:nonzero;stroke:none;marker:none;visibility:visible;display:inline;overflow:visible;enable-background:accumulate;stroke-width:2.28571415000000000"
     d="M 2 0 L 0 1 L 0 4 L 32 4 L 64 4 L 64 1 L 62 0 L 32 0 L 2 0 z "
     id="path6502" />
  <path
     style="fill:#ffffff;fill-opacity:0.14487633;fill-rule:nonzero"
     d="M 0 3 L 0 6 L 2 4 L 32 4 L 62 4 L 64 3 L 32 3 L 0 3 z "
     id="path4298" />
  <path
     style="fill:#1f0700;fill-opacity:0.06978802;fill-rule:nonzero"
     d="M 2 0 L 0 1 L 32 1 L 64 1 L 62 0 L 32 0 L 2 0 z "
     id="path4444" />
  <path
     d="M 64,6 62,4 64,3 z"
     id="path3028"
     style="fill:#1f0700;fill-opacity:0.13759861"
     inkscape:connector-curvature="0" />
  <path
     style="fill:#000000;fill-opacity:0.11130587;fill-rule:nonzero"
     d="M 63 0.5 L 63 34 L 63 63 L 64 62 L 64 34 L 64 1 L 63 0.5 z M 63 63 L 32 63 L 1 63 L 2 64 L 32 64 L 62 64 L 63 63 z "
     id="path4366" />
  <g
     id="g3043"
     inkscape:export-filename="folder.png"
     inkscape:export-xdpi="90"
     inkscape:export-ydpi="90"
     transform="translate(-0.62500009,0.082283)" />
  <path
     style="fill:#ffffff;fill-opacity:0.35070675;fill-rule:nonzero"
     d="M 0 1 L 0 34 L 0 62 L 1 63 L 1 34 L 1 5 L 2 4 L 1 3.46875 L 1 1 L 0 1 z "
     id="path3864" />
  <g
     id="scalable"
     transform="matrix(1.0385892,0,0,1.0385892,1214.7222,1878.8121)"
     inkscape:label="#g3701"
     style="fill:#ffffff" />
  <path
     id="path3836"
     d="m 7,10 50,0 0,47 -50,0 z"
     style="color:#000000;fill:#d6e0e8;fill-opacity:1;fill-rule:nonzero;stroke:none;stroke-width:1;marker:none;visibility:visible;display:inline;overflow:visible;enable-background:accumulate"
     inkscape:connector-curvature="0" />
  <path
     style="color:#000000;fill:#ffffff;fill-opacity:0.63978493;fill-rule:nonzero;stroke:none;stroke-width:4;marker:none;visibility:visible;display:inline;overflow:visible;enable-background:accumulate"
     d="m 7,10 0,47 1,0 0,-46 49,0 0,-1 -50,0 z"
     id="rect3797"
     inkscape:connector-curvature="0" />
  <path
     style="color:#000000;fill:#404957;fill-opacity:0.23083699999999999;fill-rule:nonzero;stroke:none;stroke-width:1;marker:none;visibility:visible;display:inline;overflow:visible;enable-background:accumulate;stroke-linecap:butt;stroke-linejoin:miter;stroke-miterlimit:4;stroke-opacity:1;stroke-dasharray:none;stroke-dashoffset:0"
     d="M 57 11 L 57 57 L 8 57 L 8 58 L 58 58 L 58 11 L 57 11 z "
     id="rect3769" />
  <path
     id="path3869"
     d="m 14,17 0,7 0,19 0,7 7,0 8,0 0,-7 -8,0 0,-19 8,0 0,-7 -8,0 -7,0 z m 21,0 0,7 8,0 0,19 -8,0 0,7 15,0 0,-7 0,-26 -15,0 z"
     style="color:#000000;fill:#45535d;fill-opacity:1;fill-rule:nonzero;stroke:none;stroke-width:1;marker:none;visibility:visible;display:inline;overflow:visible;enable-background:accumulate"
     inkscape:connector-curvature="0" />
  <path
     style="color:#000000;fill:#000000;fill-opacity:0.230837;fill-rule:nonzero;stroke:none;stroke-width:1;marker:none;visibility:visible;display:inline;overflow:visible;enable-background:accumulate"
     d="m 14,17 0,7 0,19 0,7 1,0 0,-6 0,-19 0,-7 7,0 7,0 0,-1 -8,0 -7,0 z m 21,0 0,7 1,0 0,-6 14,0 0,-1 -15,0 z m 8,8 0,18 -8,0 0,7 1,0 0,-6 8,0 0,-19 -1,0 z m -21,18 0,1 7,0 0,-1 -7,0 z"
     id="rect3777"
     inkscape:connector-curvature="0" />
</svg>
