<?xml version="1.0" encoding="UTF-8" standalone="no"?>
<!-- Created with Inkscape (http://www.inkscape.org/) -->

<svg
   xmlns:dc="http://purl.org/dc/elements/1.1/"
   xmlns:cc="http://creativecommons.org/ns#"
   xmlns:rdf="http://www.w3.org/1999/02/22-rdf-syntax-ns#"
   xmlns:svg="http://www.w3.org/2000/svg"
   xmlns="http://www.w3.org/2000/svg"
   xmlns:xlink="http://www.w3.org/1999/xlink"
   xmlns:sodipodi="http://sodipodi.sourceforge.net/DTD/sodipodi-0.dtd"
   xmlns:inkscape="http://www.inkscape.org/namespaces/inkscape"
   width="64"
   height="64"
   id="svg13094"
   version="1.1"
   inkscape:version="0.48.4 r9939"
   sodipodi:docname="caffeine.svg">
  <sodipodi:namedview
     id="base"
     pagecolor="#ffffff"
     bordercolor="#666666"
     borderopacity="1.0"
     inkscape:pageopacity="0"
     inkscape:pageshadow="2"
     inkscape:zoom="11.313709"
     inkscape:cx="33.818845"
     inkscape:cy="31.246869"
     inkscape:document-units="px"
     inkscape:current-layer="g4314"
     showgrid="true"
     inkscape:snap-bbox="true"
     inkscape:bbox-paths="true"
     inkscape:bbox-nodes="true"
     inkscape:snap-bbox-edge-midpoints="true"
     inkscape:snap-bbox-midpoints="true"
     inkscape:object-paths="true"
     inkscape:snap-intersection-paths="true"
     inkscape:object-nodes="true"
     inkscape:snap-smooth-nodes="true"
     inkscape:snap-midpoints="true"
     inkscape:snap-object-midpoints="true"
     inkscape:snap-center="true"
     showguides="true"
     inkscape:guide-bbox="true"
     inkscape:window-width="1920"
     inkscape:window-height="1017"
     inkscape:window-x="-5"
     inkscape:window-y="26"
     inkscape:window-maximized="1"
     inkscape:snap-global="false"
     fit-margin-top="0"
     fit-margin-left="0"
     fit-margin-right="0"
     fit-margin-bottom="0"
     showborder="true"
     inkscape:showpageshadow="false"
     inkscape:snap-page="true">
    <inkscape:grid
       originy="18px"
       originx="1.6362304e-08px"
       snapvisiblegridlinesonly="true"
       enabled="true"
       visible="true"
       empspacing="5"
       id="grid3075"
       type="xygrid" />
    <sodipodi:guide
       orientation="1,0"
       position="32,64"
       id="guide3453" />
    <sodipodi:guide
       orientation="0,1"
       position="1.6362304e-08,31"
       id="guide3455" />
  </sodipodi:namedview>
  <defs
     id="defs13096">
    <linearGradient
       id="linearGradient5834"
       inkscape:collect="always">
      <stop
         id="stop5836"
         offset="0"
         style="stop-color:#db8e61;stop-opacity:1" />
      <stop
         id="stop5838"
         offset="1"
         style="stop-color:#d88453;stop-opacity:0;" />
    </linearGradient>
    <linearGradient
       id="linearGradient4891"
       inkscape:collect="always">
      <stop
         id="stop4893"
         offset="0"
         style="stop-color:#ffffff;stop-opacity:0.31630823" />
      <stop
         style="stop-color:#ffffff;stop-opacity:0.52240145"
         offset="0.45312777"
         id="stop4957" />
      <stop
         id="stop4895"
         offset="1"
         style="stop-color:#ffffff;stop-opacity:0;" />
    </linearGradient>
    <linearGradient
       id="linearGradient4881">
      <stop
         style="stop-color:#587589;stop-opacity:1;"
         offset="0"
         id="stop4883" />
      <stop
         id="stop4885"
         offset="0.71428573"
         style="stop-color:#688eaa;stop-opacity:1;" />
      <stop
         style="stop-color:#b7c9d6;stop-opacity:1"
         offset="0.85714287"
         id="stop4887" />
      <stop
         style="stop-color:#6e94af;stop-opacity:1"
         offset="1"
         id="stop4889" />
    </linearGradient>
    <linearGradient
       id="linearGradient5602-41-4">
      <stop
         offset="0"
         style="stop-color:#cbc6b6;stop-opacity:1"
         id="stop5604-6-7" />
      <stop
         id="stop4143"
         style="stop-color:#d2d0ca;stop-opacity:1"
         offset="0.49165267" />
      <stop
         id="stop4141"
         style="stop-color:#cbc6b6;stop-opacity:1"
         offset="0.51415551" />
      <stop
         offset="1"
         style="stop-color:#d2d0ca;stop-opacity:1"
         id="stop5606-8-7" />
    </linearGradient>
    <linearGradient
       gradientTransform="matrix(-1,0,0,1,64,0)"
       y2="0.58805114"
       x2="34.703484"
       y1="64"
       x1="34.703484"
       gradientUnits="userSpaceOnUse"
       id="linearGradient6500"
       xlink:href="#linearGradient5602-41-4"
       inkscape:collect="always" />
    <linearGradient
       y2="7"
       x2="1.6362304e-08"
       y1="7"
       x1="7"
       gradientUnits="userSpaceOnUse"
       id="linearGradient4879"
       xlink:href="#linearGradient4881"
       inkscape:collect="always" />
    <linearGradient
       gradientTransform="matrix(0.85714286,0,0,1,0,-1)"
       y2="7"
       x2="3"
       y1="6"
       x1="3"
       gradientUnits="userSpaceOnUse"
       id="linearGradient4961"
       xlink:href="#linearGradient4891"
       inkscape:collect="always" />
    <linearGradient
       y2="7.7882109"
       x2="54"
       y1="6.0310855"
       x1="54"
       gradientUnits="userSpaceOnUse"
       id="linearGradient3077"
       xlink:href="#linearGradient5834"
       inkscape:collect="always" />
    <linearGradient
       inkscape:collect="always"
       xlink:href="#linearGradient4881"
       id="linearGradient3229"
       gradientUnits="userSpaceOnUse"
       x1="7"
       y1="7"
       x2="1.6362304e-08"
       y2="7" />
    <linearGradient
       inkscape:collect="always"
       xlink:href="#linearGradient4891"
       id="linearGradient3231"
       gradientUnits="userSpaceOnUse"
       gradientTransform="matrix(0.85714286,0,0,1,0,-1)"
       x1="3"
       y1="6"
       x2="3"
       y2="7" />
    <linearGradient
       inkscape:collect="always"
       xlink:href="#linearGradient4881"
       id="linearGradient3247"
       gradientUnits="userSpaceOnUse"
       x1="7"
       y1="7"
       x2="1.6362304e-08"
       y2="7" />
    <linearGradient
       inkscape:collect="always"
       xlink:href="#linearGradient4891"
       id="linearGradient3249"
       gradientUnits="userSpaceOnUse"
       gradientTransform="matrix(0.85714286,0,0,1,0,-1)"
       x1="3"
       y1="6"
       x2="3"
       y2="7" />
    <linearGradient
       inkscape:collect="always"
       xlink:href="#linearGradient4881"
       id="linearGradient3265"
       gradientUnits="userSpaceOnUse"
       x1="7"
       y1="7"
       x2="1.6362304e-08"
       y2="7" />
    <linearGradient
       inkscape:collect="always"
       xlink:href="#linearGradient4891"
       id="linearGradient3267"
       gradientUnits="userSpaceOnUse"
       gradientTransform="matrix(0.85714286,0,0,1,0,-1)"
       x1="3"
       y1="6"
       x2="3"
       y2="7" />
    <linearGradient
       inkscape:collect="always"
       xlink:href="#linearGradient4881"
       id="linearGradient3283"
       gradientUnits="userSpaceOnUse"
       x1="7"
       y1="7"
       x2="1.6362304e-08"
       y2="7" />
    <linearGradient
       inkscape:collect="always"
       xlink:href="#linearGradient4891"
       id="linearGradient3285"
       gradientUnits="userSpaceOnUse"
       gradientTransform="matrix(0.85714286,0,0,1,0,-1)"
       x1="3"
       y1="6"
       x2="3"
       y2="7" />
    <linearGradient
       inkscape:collect="always"
       xlink:href="#linearGradient4881"
       id="linearGradient3301"
       gradientUnits="userSpaceOnUse"
       x1="7"
       y1="7"
       x2="1.6362304e-08"
       y2="7" />
    <linearGradient
       inkscape:collect="always"
       xlink:href="#linearGradient4891"
       id="linearGradient3303"
       gradientUnits="userSpaceOnUse"
       gradientTransform="matrix(0.85714286,0,0,1,0,-1)"
       x1="3"
       y1="6"
       x2="3"
       y2="7" />
    <linearGradient
       inkscape:collect="always"
       xlink:href="#linearGradient4881"
       id="linearGradient3319"
       gradientUnits="userSpaceOnUse"
       x1="7"
       y1="7"
       x2="1.6362304e-08"
       y2="7" />
    <linearGradient
       inkscape:collect="always"
       xlink:href="#linearGradient4891"
       id="linearGradient3321"
       gradientUnits="userSpaceOnUse"
       gradientTransform="matrix(0.85714286,0,0,1,0,-1)"
       x1="3"
       y1="6"
       x2="3"
       y2="7" />
    <radialGradient
       inkscape:collect="always"
       xlink:href="#linearGradient4339"
       id="radialGradient4345"
       cx="28"
       cy="28.637257"
       fx="28"
       fy="28.637257"
       r="23.922129"
       gradientTransform="matrix(0.99999992,0,0,0.91132396,2.2324837e-6,2.9021825)"
       gradientUnits="userSpaceOnUse" />
    <linearGradient
       inkscape:collect="always"
       id="linearGradient4339">
      <stop
         style="stop-color:#000000;stop-opacity:0.5672043"
         offset="0"
         id="stop4341" />
      <stop
         style="stop-color:#000000;stop-opacity:0.13351254"
         offset="1"
         id="stop4343" />
    </linearGradient>
    <linearGradient
       inkscape:collect="always"
       xlink:href="#linearGradient4347"
       id="linearGradient4353"
       x1="-29.537111"
       y1="16.971876"
       x2="-25.484568"
       y2="16.971876"
       gradientUnits="userSpaceOnUse" />
    <linearGradient
       inkscape:collect="always"
       id="linearGradient4347">
      <stop
         style="stop-color:#8f95a8;stop-opacity:1"
         offset="0"
         id="stop4349" />
      <stop
         id="stop4357"
         offset="0.2238037"
         style="stop-color:#babfca;stop-opacity:1" />
      <stop
         id="stop4355"
         offset="0.80599976"
         style="stop-color:#e5e6ea;stop-opacity:1" />
      <stop
         style="stop-color:#dfe0e6;stop-opacity:1"
         offset="1"
         id="stop4351" />
    </linearGradient>
    <radialGradient
       inkscape:collect="always"
       xlink:href="#linearGradient3895"
       id="radialGradient4415"
       gradientUnits="userSpaceOnUse"
       gradientTransform="matrix(1.3012441,0,0,1.3012438,-4.9990452,-5.485899)"
       cx="17.284601"
       cy="17.954718"
       fx="17.284601"
       fy="17.954718"
       r="10" />
    <linearGradient
       inkscape:collect="always"
       id="linearGradient3895">
      <stop
         style="stop-color:#7f5b2a;stop-opacity:1"
         offset="0"
         id="stop3897" />
      <stop
         style="stop-color:#4b403b;stop-opacity:1"
         offset="1"
         id="stop3899" />
    </linearGradient>
    <linearGradient
       id="linearGradient4059">
      <stop
         id="stop4061"
         offset="0"
         style="stop-color:#856c44;stop-opacity:1;" />
      <stop
         id="stop4063"
         offset="1"
         style="stop-color:#5d4b3b;stop-opacity:1;" />
    </linearGradient>
    <radialGradient
       r="32"
       fy="23.333334"
       fx="32"
       cy="23.333334"
       cx="32"
       gradientTransform="matrix(1.78125,0,0,1.6699219,-25,-14.964844)"
       gradientUnits="userSpaceOnUse"
       id="radialGradient3750"
       xlink:href="#linearGradient4059"
       inkscape:collect="always" />
    <linearGradient
       id="linearGradient4059-7">
      <stop
         id="stop4061-8"
         offset="0"
         style="stop-color:#856c44;stop-opacity:1;" />
      <stop
         id="stop4063-2"
         offset="1"
         style="stop-color:#5d4b3b;stop-opacity:1;" />
    </linearGradient>
    <radialGradient
       r="32"
       fy="23.333334"
       fx="32"
       cy="23.333334"
       cx="32"
       gradientTransform="matrix(1.4785834,0,0,1.3861719,-28.314668,-19.814748)"
       gradientUnits="userSpaceOnUse"
       id="radialGradient3485"
       xlink:href="#linearGradient4059-7"
       inkscape:collect="always" />
    <linearGradient
       id="linearGradient4059-7-0">
      <stop
         id="stop4061-8-8"
         offset="0"
         style="stop-color:#856c44;stop-opacity:1;" />
      <stop
         id="stop4063-2-9"
         offset="1"
         style="stop-color:#5d4b3b;stop-opacity:1;" />
    </linearGradient>
    <radialGradient
       r="32"
       fy="23.333334"
       fx="32"
       cy="23.333334"
       cx="32"
       gradientTransform="matrix(1.78125,0,0,1.6699218,-25,-14.964843)"
       gradientUnits="userSpaceOnUse"
       id="radialGradient3568"
       xlink:href="#linearGradient4059-7-0"
       inkscape:collect="always" />
    <linearGradient
       id="linearGradient4059-7-0-7">
      <stop
         id="stop4061-8-8-0"
         offset="0"
         style="stop-color:#856c44;stop-opacity:1;" />
      <stop
         id="stop4063-2-9-5"
         offset="1"
         style="stop-color:#5d4b3b;stop-opacity:1;" />
    </linearGradient>
    <radialGradient
       r="32"
       fy="23.333334"
       fx="32"
       cy="23.333334"
       cx="32"
       gradientTransform="matrix(1.4785834,0,0,1.3861719,-28.314668,-19.814747)"
       gradientUnits="userSpaceOnUse"
       id="radialGradient3648"
       xlink:href="#linearGradient4059-7-0-7"
       inkscape:collect="always" />
    <radialGradient
       inkscape:collect="always"
       xlink:href="#linearGradient4339"
       id="radialGradient3667"
       gradientUnits="userSpaceOnUse"
       gradientTransform="matrix(1.2047003,0,0,1.0978723,9.1106946,12.402252)"
       cx="28"
       cy="28.637257"
       fx="28"
       fy="28.637257"
       r="23.922129" />
  </defs>
  <metadata
     id="metadata13099">
    <rdf:RDF>
      <cc:Work
         rdf:about="">
        <dc:format>image/svg+xml</dc:format>
        <dc:type
           rdf:resource="http://purl.org/dc/dcmitype/StillImage" />
        <dc:title />
      </cc:Work>
    </rdf:RDF>
  </metadata>
  <path
     inkscape:connector-curvature="0"
     style="color:#000000;fill:url(#radialGradient3750);fill-opacity:1;fill-rule:nonzero;stroke:none;stroke-width:2.28571415;marker:none;visibility:visible;display:inline;overflow:visible;enable-background:accumulate"
     d="m 0,2 0,32 0,28 2,2 30,0 30,0 2,-2 0,-28 0,-32 -32,0 z"
     id="path4095"
     sodipodi:nodetypes="ccccccccccc" />
  <path
     inkscape:connector-curvature="0"
     style="color:#000000;fill:#b09765;fill-opacity:1;fill-rule:nonzero;stroke:none;stroke-width:2.28571415;marker:none;visibility:visible;display:inline;overflow:visible;enable-background:accumulate"
     d="M 2,0 0,1 0,2 32,2 64,2 64,1 62,0 32,0 z"
     id="path4090"
     sodipodi:nodetypes="ccccccccc" />
  <path
     style="fill:#ffffff;fill-opacity:0.14487634;fill-rule:nonzero"
     d="M 0,1 0,4 2,2 32,2 62,2 64,1 32,1 z"
     id="path4298"
     inkscape:connector-curvature="0"
     sodipodi:nodetypes="cccccccc" />
  <path
     style="fill:#1f0700;fill-opacity:0.06978802;fill-rule:nonzero"
     d="M 2,0 0,1 32,1 64,1 62,0 32,0 z"
     id="path4444"
     inkscape:connector-curvature="0"
     sodipodi:nodetypes="ccccccc" />
  <path
     d="M 64,4 62,2 64,1 z"
     id="path3028"
     style="fill:#1f0700;fill-opacity:0.13759861"
     inkscape:connector-curvature="0"
     sodipodi:nodetypes="cccc" />
  <path
     style="fill:#000000;fill-opacity:0.11130587;fill-rule:nonzero"
     d="m 63,0.5 0,33.5 0,29 1,-1 0,-28 0,-33 z m 0,62.5 -31,0 -31,0 1,1 30,0 30,0 z"
     id="path4366"
     inkscape:connector-curvature="0"
     sodipodi:nodetypes="cccccccccccccc" />
  <g
     id="g3043"
     inkscape:export-filename="folder.png"
     inkscape:export-xdpi="90"
     inkscape:export-ydpi="90"
     transform="translate(-0.62500009,0.082283)" />
  <path
     style="fill:#ffffff;fill-opacity:0.35070675;fill-rule:nonzero"
     d="M 0,1 0,34 0,62 1,63 1,34 1,3 2,2 1,1.46875 1,1 z"
     id="path3864"
     inkscape:connector-curvature="0"
     sodipodi:nodetypes="cccccccccc" />
  <g
     id="scalable"
     transform="matrix(1.0385892,0,0,1.0385892,1214.7222,1878.8121)"
     inkscape:label="#g3701"
     style="fill:#ffffff" />
  <g
     id="g3933">
    <g
       id="g3863"
       transform="translate(0,-14.5)">
      <path
         inkscape:connector-curvature="0"
         style="color:#000000;fill:#ffc346;fill-opacity:0.0362191;fill-rule:nonzero;stroke:none;stroke-width:1;marker:none;visibility:visible;display:inline;overflow:visible;enable-background:accumulate"
         d="M 2,0 0,1 0,4 0,22.5 2,22.5 2,0 z M 4,0 4,3.5 6,3.5 6,0 4,0 z m 4,0 0,17.5 2,0 L 10,0 8,0 z m 4,0 0,32.5 2,0 L 14,0 12,0 z m 8,0 0,27.5 2,0 L 22,0 20,0 z m 16,0 0,0.5 2,0 0,-0.5 -2,0 z m 12,0 0,19.5 2,0 L 50,0 48,0 z m 4,0 0,33.5 2,0 L 54,0 52,0 z m 4,0 0,14.5 2,0 L 58,0 56,0 z m 4,0 0,30.5 2,0 L 62,0 60,0 z m -20,0.5 0,37 2,0 0,-37 -2,0 z m -36,5 0,37 2,0 0,-37 -2,0 z m 28,0 0,37 2,0 0,-37 -2,0 z m -8,1 0,37 2,0 0,-37 -2,0 z m -8,3 0,37 2,0 0,-37 -2,0 z m 12,2 0,37 2,0 0,-37 -2,0 z m 16,5 0,37 2,0 0,-37 -2,0 z m -36,3 0,37 2,0 0,-37 -2,0 z m 28,0 0,37 2,0 0,-37 -2,0 z m 12,2 0,37 2,0 0,-37 -2,0 z m -48,3 0,9.5 0,27.5 2,0 0,-37 -2,0 z m 60,8 0,31.5 2,0 0,-31.5 -2,0 z m -8,5 0,26.5 2,0 0,-26.5 -2,0 z m 4,14 0,12.5 2,0 0,-12.5 -2,0 z"
         id="path3865"
         transform="translate(0,14.5)" />
      <path
         inkscape:connector-curvature="0"
         style="color:#000000;fill:#ffc346;fill-opacity:0.0362191;fill-rule:nonzero;stroke:none;stroke-width:1;marker:none;visibility:visible;display:inline;overflow:visible;enable-background:accumulate"
         d="M 2,0 0,1 0,4 0,30 2,30 2,0 z M 4,0 4,14 6,14 6,0 4,0 z m 4,0 0,33 2,0 0,-33 -2,0 z m 4,0 0,19 2,0 0,-19 -2,0 z m 8,0 0,37 2,0 0,-37 -2,0 z m 20,0 0,27 2,0 0,-27 -2,0 z m 8,0 0,32 2,0 0,-32 -2,0 z m 4,0 0,17 2,0 0,-17 -2,0 z m 4,0 0,3 2,0 0,-3 -2,0 z m 4,0 0,22 2,0 0,-22 -2,0 z m -32,5 0,37 2,0 0,-37 -2,0 z m 28,0 0,37 2,0 0,-37 -2,0 z m -20,1 0,37 2,0 0,-37 -2,0 z m 8,3 0,37 2,0 0,-37 -2,0 z m -12,2 0,37 2,0 0,-37 -2,0 z m -16,5 0,37 2,0 0,-37 -2,0 z m 8,3 0,37 2,0 0,-37 -2,0 z m 28,0 0,37 2,0 0,-37 -2,0 z m -40,2 0,37 2,0 0,-37 -2,0 z m 48,3 0,37 2,0 0,-37 -2,0 z m -60,8 0,2 0,28 2,2 0,-32 -2,0 z m 8,5 0,27 2,0 0,-27 -2,0 z M 4,51 4,64 6,64 6,51 4,51 z"
         id="path3867"
         transform="translate(0,14.5)" />
      <path
         inkscape:connector-curvature="0"
         style="color:#000000;fill:#ffc346;fill-opacity:0.0362191;fill-rule:nonzero;stroke:none;stroke-width:1;marker:none;visibility:visible;display:inline;overflow:visible;enable-background:accumulate"
         d="M 2,0 0,1 0,4 0,28.5 2,28.5 2,0 z m 2,0 0,12.5 2,0 L 6,0 4,0 z m 4,0 0,31.5 2,0 L 10,0 8,0 z m 4,0 0,17.5 2,0 L 14,0 12,0 z m 8,0 0,35.5 2,0 L 22,0 20,0 z m 20,0 0,25.5 2,0 L 42,0 40,0 z m 8,0 0,30.5 2,0 L 50,0 48,0 z m 4,0 0,15.5 2,0 L 54,0 52,0 z m 4,0 0,1.5 2,0 0,-1.5 -2,0 z m 4,0 0,20.5 2,0 L 62,0 60,0 z m -32,3.5 0,37 2,0 0,-37 -2,0 z m 28,0 0,37 2,0 0,-37 -2,0 z m -20,1 0,37 2,0 0,-37 -2,0 z m 8,3 0,37 2,0 0,-37 -2,0 z m -12,2 0,37 2,0 0,-37 -2,0 z m -16,5 0,37 2,0 0,-37 -2,0 z m 8,3 0,37 2,0 0,-37 -2,0 z m 28,0 0,37 2,0 0,-37 -2,0 z m -40,2 0,37 2,0 0,-37 -2,0 z m 48,3 0,37 2,0 0,-37 -2,0 z m -60,8 0,3.5 0,28 2,2 0,-33.5 -2,0 z m 8,5 0,28.5 2,0 0,-28.5 -2,0 z m -4,14 0,14.5 2,0 0,-14.5 -2,0 z"
         id="path3869"
         transform="translate(0,14.5)" />
      <path
         inkscape:connector-curvature="0"
         style="color:#000000;fill:#ffc346;fill-opacity:0.0362191;fill-rule:nonzero;stroke:none;stroke-width:1;marker:none;visibility:visible;display:inline;overflow:visible;enable-background:accumulate"
         d="M 2,0 0,1 0,20 2,20 2,0 z M 4,0 4,1 6,1 6,0 4,0 z m 4,0 0,15 2,0 0,-15 -2,0 z m 4,0 0,30 2,0 0,-30 -2,0 z m 8,0 0,25 2,0 0,-25 -2,0 z m 20,0 0,35 2,0 0,-35 -2,0 z m 8,0 0,17 2,0 0,-17 -2,0 z m 4,0 0,31 2,0 0,-31 -2,0 z m 4,0 0,12 2,0 0,-12 -2,0 z m 4,0 0,28 2,0 0,-28 -2,0 z M 4,3 4,40 6,40 6,3 4,3 z m 28,0 0,37 2,0 0,-37 -2,0 z m -8,1 0,37 2,0 0,-37 -2,0 z m -8,3 0,37 2,0 0,-37 -2,0 z m 12,2 0,37 2,0 0,-37 -2,0 z m 16,5 0,37 2,0 0,-37 -2,0 z m -36,3 0,37 2,0 0,-37 -2,0 z m 28,0 0,37 2,0 0,-37 -2,0 z m 12,2 0,37 2,0 0,-37 -2,0 z M 0,22 0,34 0,59 2,59 2,22 0,22 z m 60,8 0,34 2,0 0,-34 -2,0 z m -8,5 0,29 2,0 0,-29 -2,0 z m 4,14 0,15 2,0 0,-15 -2,0 z"
         id="path3871"
         transform="translate(0,14.5)" />
      <path
         inkscape:connector-curvature="0"
         style="color:#000000;fill:#ffc346;fill-opacity:0.0362191;fill-rule:nonzero;stroke:none;stroke-width:1;marker:none;visibility:visible;display:inline;overflow:visible;enable-background:accumulate"
         d="M 2,0 0,1 0,4 0,33.5 2,33.5 2,0 z m 2,0 0,14.5 2,0 L 6,0 4,0 z m 4,0 0,28.5 2,0 L 10,0 8,0 z m 16,0 0,9.5 2,0 0,-9.5 -2,0 z m 8,0 0,6.5 2,0 0,-6.5 -2,0 z m 4,0 0,11.5 2,0 L 38,0 36,0 z m 12,0 0,30.5 2,0 L 50,0 48,0 z m 8,0 0,25.5 2,0 L 58,0 56,0 z m -36,1.5 0,37 2,0 0,-37 -2,0 z m 40,3 0,37 2,0 0,-37 -2,0 z m -48,2 0,37 2,0 0,-37 -2,0 z m 40,1 0,37 2,0 0,-37 -2,0 z m -12,4 0,37 2,0 0,-37 -2,0 z m -36,5 0,37 2,0 0,-37 -2,0 z m 28,0 0,37 2,0 0,-37 -2,0 z m -8,1 0,37 2,0 0,-37 -2,0 z m -8,3 0,37 2,0 0,-37 -2,0 z m 12,2 0,37 2,0 0,-37 -2,0 z m 16,5 0,36.5 2,0 0,-36.5 -2,0 z m -36,3 0,33.5 2,0 0,-33.5 -2,0 z m 28,0 0,33.5 2,0 0,-33.5 -2,0 z m 12,2 0,31.5 2,0 0,-31.5 -2,0 z m -48,3 0,26.5 2,2 0,-28.5 -2,0 z m 60,8 0,20.5 2,0 0,-20.5 -2,0 z m -8,5 0,15.5 2,0 0,-15.5 -2,0 z m 4,14 0,1.5 2,0 0,-1.5 -2,0 z"
         id="path3873"
         transform="translate(0,14.5)" />
      <path
         inkscape:connector-curvature="0"
         style="color:#000000;fill:#ffc346;fill-opacity:0.0362191;fill-rule:nonzero;stroke:none;stroke-width:1;marker:none;visibility:visible;display:inline;overflow:visible;enable-background:accumulate"
         d="M 4,0 4,25 6,25 6,0 4,0 z m 8,0 0,30 2,0 0,-30 -2,0 z m 12,0 0,11 2,0 0,-11 -2,0 z m 4,0 0,6 2,0 0,-6 -2,0 z m 8,0 0,9 2,0 0,-9 -2,0 z m 16,0 0,28 2,0 0,-28 -2,0 z m 4,0 0,14 2,0 0,-14 -2,0 z m 4,0 0,33 2,0 0,-33 -2,0 z m -20,1 0,37 2,0 0,-37 -2,0 z M 0,4 0,34 0,41 2,41 2,4 0,4 z m 48,2 0,37 2,0 0,-37 -2,0 z M 8,7 8,44 10,44 10,7 8,7 z m 12,4 0,37 2,0 0,-37 -2,0 z m 8,5 0,37 2,0 0,-37 -2,0 z m 28,0 0,37 2,0 0,-37 -2,0 z m -20,1 0,37 2,0 0,-37 -2,0 z m 8,3 0,37 2,0 0,-37 -2,0 z m -12,2 0,37 2,0 0,-37 -2,0 z m -16,5 0,37 2,0 0,-37 -2,0 z m 8,3 0,34 2,0 0,-34 -2,0 z m 28,0 0,34 2,0 0,-34 -2,0 z m -40,2 0,32 2,0 0,-32 -2,0 z m 48,3 0,29 2,0 0,-29 -2,0 z M 0,43 0,62 2,64 2,43 0,43 z m 8,5 0,16 2,0 0,-16 -2,0 z m -4,14 0,2 2,0 0,-2 -2,0 z"
         id="path3875"
         transform="translate(0,14.5)" />
    </g>
    <g
       transform="translate(2,-14.5)"
       id="g3995">
      <path
         transform="translate(0,14.5)"
         id="path4002"
         d="M 2,0 0,1 0,4 0,22.5 2,22.5 2,0 z M 4,0 4,3.5 6,3.5 6,0 4,0 z m 4,0 0,17.5 2,0 L 10,0 8,0 z m 4,0 0,32.5 2,0 L 14,0 12,0 z m 8,0 0,27.5 2,0 L 22,0 20,0 z m 16,0 0,0.5 2,0 0,-0.5 -2,0 z m 12,0 0,19.5 2,0 L 50,0 48,0 z m 4,0 0,33.5 2,0 L 54,0 52,0 z m 4,0 0,14.5 2,0 L 58,0 56,0 z m 4,0 0,30.5 2,0 L 62,0 60,0 z m -20,0.5 0,37 2,0 0,-37 -2,0 z m -36,5 0,37 2,0 0,-37 -2,0 z m 28,0 0,37 2,0 0,-37 -2,0 z m -8,1 0,37 2,0 0,-37 -2,0 z m -8,3 0,37 2,0 0,-37 -2,0 z m 12,2 0,37 2,0 0,-37 -2,0 z m 16,5 0,37 2,0 0,-37 -2,0 z m -36,3 0,37 2,0 0,-37 -2,0 z m 28,0 0,37 2,0 0,-37 -2,0 z m 12,2 0,37 2,0 0,-37 -2,0 z m -48,3 0,9.5 0,27.5 2,0 0,-37 -2,0 z m 60,8 0,31.5 2,0 0,-31.5 -2,0 z m -8,5 0,26.5 2,0 0,-26.5 -2,0 z m 4,14 0,12.5 2,0 0,-12.5 -2,0 z"
         style="color:#000000;fill:#ffc346;fill-opacity:0.01501764;fill-rule:nonzero;stroke:none;stroke-width:1;marker:none;visibility:visible;display:inline;overflow:visible;enable-background:accumulate"
         inkscape:connector-curvature="0" />
      <path
         transform="translate(0,14.5)"
         id="path3998"
         d="M 2,0 0,1 0,4 0,30 2,30 2,0 z M 4,0 4,14 6,14 6,0 4,0 z m 4,0 0,33 2,0 0,-33 -2,0 z m 4,0 0,19 2,0 0,-19 -2,0 z m 8,0 0,37 2,0 0,-37 -2,0 z m 20,0 0,27 2,0 0,-27 -2,0 z m 8,0 0,32 2,0 0,-32 -2,0 z m 4,0 0,17 2,0 0,-17 -2,0 z m 4,0 0,3 2,0 0,-3 -2,0 z m 4,0 0,22 2,0 0,-22 -2,0 z m -32,5 0,37 2,0 0,-37 -2,0 z m 28,0 0,37 2,0 0,-37 -2,0 z m -20,1 0,37 2,0 0,-37 -2,0 z m 8,3 0,37 2,0 0,-37 -2,0 z m -12,2 0,37 2,0 0,-37 -2,0 z m -16,5 0,37 2,0 0,-37 -2,0 z m 8,3 0,37 2,0 0,-37 -2,0 z m 28,0 0,37 2,0 0,-37 -2,0 z m -40,2 0,37 2,0 0,-37 -2,0 z m 48,3 0,37 2,0 0,-37 -2,0 z m -60,8 0,2 0,28 2,2 0,-32 -2,0 z m 8,5 0,27 2,0 0,-27 -2,0 z M 4,51 4,64 6,64 6,51 4,51 z"
         style="color:#000000;fill:#ffc346;fill-opacity:0.01501764;fill-rule:nonzero;stroke:none;stroke-width:1;marker:none;visibility:visible;display:inline;overflow:visible;enable-background:accumulate"
         inkscape:connector-curvature="0" />
      <path
         transform="translate(0,14.5)"
         id="path4004"
         d="M 2,0 0,1 0,4 0,28.5 2,28.5 2,0 z m 2,0 0,12.5 2,0 L 6,0 4,0 z m 4,0 0,31.5 2,0 L 10,0 8,0 z m 4,0 0,17.5 2,0 L 14,0 12,0 z m 8,0 0,35.5 2,0 L 22,0 20,0 z m 20,0 0,25.5 2,0 L 42,0 40,0 z m 8,0 0,30.5 2,0 L 50,0 48,0 z m 4,0 0,15.5 2,0 L 54,0 52,0 z m 4,0 0,1.5 2,0 0,-1.5 -2,0 z m 4,0 0,20.5 2,0 L 62,0 60,0 z m -32,3.5 0,37 2,0 0,-37 -2,0 z m 28,0 0,37 2,0 0,-37 -2,0 z m -20,1 0,37 2,0 0,-37 -2,0 z m 8,3 0,37 2,0 0,-37 -2,0 z m -12,2 0,37 2,0 0,-37 -2,0 z m -16,5 0,37 2,0 0,-37 -2,0 z m 8,3 0,37 2,0 0,-37 -2,0 z m 28,0 0,37 2,0 0,-37 -2,0 z m -40,2 0,37 2,0 0,-37 -2,0 z m 48,3 0,37 2,0 0,-37 -2,0 z m -60,8 0,3.5 0,28 2,2 0,-33.5 -2,0 z m 8,5 0,28.5 2,0 0,-28.5 -2,0 z m -4,14 0,14.5 2,0 0,-14.5 -2,0 z"
         style="color:#000000;fill:#ffc346;fill-opacity:0.01501764;fill-rule:nonzero;stroke:none;stroke-width:1;marker:none;visibility:visible;display:inline;overflow:visible;enable-background:accumulate"
         inkscape:connector-curvature="0" />
      <path
         transform="translate(0,14.5)"
         id="path4000"
         d="M 2,0 0,1 0,20 2,20 2,0 z M 4,0 4,1 6,1 6,0 4,0 z m 4,0 0,15 2,0 0,-15 -2,0 z m 4,0 0,30 2,0 0,-30 -2,0 z m 8,0 0,25 2,0 0,-25 -2,0 z m 20,0 0,35 2,0 0,-35 -2,0 z m 8,0 0,17 2,0 0,-17 -2,0 z m 4,0 0,31 2,0 0,-31 -2,0 z m 4,0 0,12 2,0 0,-12 -2,0 z m 4,0 0,28 2,0 0,-28 -2,0 z M 4,3 4,40 6,40 6,3 4,3 z m 28,0 0,37 2,0 0,-37 -2,0 z m -8,1 0,37 2,0 0,-37 -2,0 z m -8,3 0,37 2,0 0,-37 -2,0 z m 12,2 0,37 2,0 0,-37 -2,0 z m 16,5 0,37 2,0 0,-37 -2,0 z m -36,3 0,37 2,0 0,-37 -2,0 z m 28,0 0,37 2,0 0,-37 -2,0 z m 12,2 0,37 2,0 0,-37 -2,0 z M 0,22 0,34 0,59 2,59 2,22 0,22 z m 60,8 0,34 2,0 0,-34 -2,0 z m -8,5 0,29 2,0 0,-29 -2,0 z m 4,14 0,15 2,0 0,-15 -2,0 z"
         style="color:#000000;fill:#ffc346;fill-opacity:0.01501764;fill-rule:nonzero;stroke:none;stroke-width:1;marker:none;visibility:visible;display:inline;overflow:visible;enable-background:accumulate"
         inkscape:connector-curvature="0" />
      <path
         transform="translate(0,14.5)"
         id="path4006"
         d="M 2,0 0,1 0,4 0,33.5 2,33.5 2,0 z m 2,0 0,14.5 2,0 L 6,0 4,0 z m 4,0 0,28.5 2,0 L 10,0 8,0 z m 16,0 0,9.5 2,0 0,-9.5 -2,0 z m 8,0 0,6.5 2,0 0,-6.5 -2,0 z m 4,0 0,11.5 2,0 L 38,0 36,0 z m 12,0 0,30.5 2,0 L 50,0 48,0 z m 8,0 0,25.5 2,0 L 58,0 56,0 z m -36,1.5 0,37 2,0 0,-37 -2,0 z m 40,3 0,37 2,0 0,-37 -2,0 z m -48,2 0,37 2,0 0,-37 -2,0 z m 40,1 0,37 2,0 0,-37 -2,0 z m -12,4 0,37 2,0 0,-37 -2,0 z m -36,5 0,37 2,0 0,-37 -2,0 z m 28,0 0,37 2,0 0,-37 -2,0 z m -8,1 0,37 2,0 0,-37 -2,0 z m -8,3 0,37 2,0 0,-37 -2,0 z m 12,2 0,37 2,0 0,-37 -2,0 z m 16,5 0,36.5 2,0 0,-36.5 -2,0 z m -36,3 0,33.5 2,0 0,-33.5 -2,0 z m 28,0 0,33.5 2,0 0,-33.5 -2,0 z m 12,2 0,31.5 2,0 0,-31.5 -2,0 z m -48,3 0,26.5 2,2 0,-28.5 -2,0 z m 60,8 0,20.5 2,0 0,-20.5 -2,0 z m -8,5 0,15.5 2,0 0,-15.5 -2,0 z m 4,14 0,1.5 2,0 0,-1.5 -2,0 z"
         style="color:#000000;fill:#ffc346;fill-opacity:0.01501764;fill-rule:nonzero;stroke:none;stroke-width:1;marker:none;visibility:visible;display:inline;overflow:visible;enable-background:accumulate"
         inkscape:connector-curvature="0" />
      <path
         transform="translate(0,14.5)"
         id="path3988"
         d="M 4,0 4,25 6,25 6,0 4,0 z m 8,0 0,30 2,0 0,-30 -2,0 z m 12,0 0,11 2,0 0,-11 -2,0 z m 4,0 0,6 2,0 0,-6 -2,0 z m 8,0 0,9 2,0 0,-9 -2,0 z m 16,0 0,28 2,0 0,-28 -2,0 z m 4,0 0,14 2,0 0,-14 -2,0 z m 4,0 0,33 2,0 0,-33 -2,0 z m -20,1 0,37 2,0 0,-37 -2,0 z M 0,4 0,34 0,41 2,41 2,4 0,4 z m 48,2 0,37 2,0 0,-37 -2,0 z M 8,7 8,44 10,44 10,7 8,7 z m 12,4 0,37 2,0 0,-37 -2,0 z m 8,5 0,37 2,0 0,-37 -2,0 z m 28,0 0,37 2,0 0,-37 -2,0 z m -20,1 0,37 2,0 0,-37 -2,0 z m 8,3 0,37 2,0 0,-37 -2,0 z m -12,2 0,37 2,0 0,-37 -2,0 z m -16,5 0,37 2,0 0,-37 -2,0 z m 8,3 0,34 2,0 0,-34 -2,0 z m 28,0 0,34 2,0 0,-34 -2,0 z m -40,2 0,32 2,0 0,-32 -2,0 z m 48,3 0,29 2,0 0,-29 -2,0 z M 0,43 0,62 2,64 2,43 0,43 z m 8,5 0,16 2,0 0,-16 -2,0 z m -4,14 0,2 2,0 0,-2 -2,0 z"
         style="color:#000000;fill:#ffc346;fill-opacity:0.01501764;fill-rule:nonzero;stroke:none;stroke-width:1;marker:none;visibility:visible;display:inline;overflow:visible;enable-background:accumulate"
         inkscape:connector-curvature="0" />
    </g>
  </g>
  <g
     id="g4314"
     transform="matrix(1.2047004,0,0,1.2047004,9.1106919,8.9059914)"
     inkscape:transform-center-x="-14.92104"
     inkscape:transform-center-y="10.648148">
    <path
       style="color:#000000;fill:url(#radialGradient3667);fill-opacity:1;fill-rule:nonzero;stroke:none;stroke-width:1;marker:none;visibility:visible;display:inline;overflow:visible;enable-background:accumulate"
       d="M 43.9375 22.0625 C 43.321611 22.0625 42.690676 22.309324 42.21875 22.78125 L 21.78125 43.21875 C 20.837399 44.162603 20.837398 45.681147 21.78125 46.625 L 39.15625 64 L 62 64 L 64 62 L 64 41.15625 L 58.40625 35.5625 L 63.53125 30.4375 L 64 30.90625 L 64 25.8125 L 61.8125 23.625 C 60.868649 22.681149 59.3501 22.68115 58.40625 23.625 L 52.4375 29.59375 L 45.625 22.78125 C 45.153074 22.309324 44.553389 22.0625 43.9375 22.0625 z "
       transform="matrix(0.8300819,0,0,0.8300819,-7.5626205,-7.3927023)"
       id="rect4271" />
    <g
       id="g4279">
      <rect
         inkscape:transform-center-y="-12.020816"
         style="color:#000000;fill:url(#linearGradient4353);fill-opacity:1;stroke:none;stroke-width:1;marker:none;visibility:visible;display:inline;overflow:visible;enable-background:accumulate"
         id="rect3909"
         width="4"
         height="12"
         x="-29.577166"
         y="10.292892"
         rx="2"
         ry="2"
         transform="matrix(-0.70710678,-0.70710678,0.70710678,-0.70710678,0,0)"
         inkscape:transform-center-x="-12.020815" />
      <path
         id="path4369"
         d="M 19,6 C 11.268014,6 5,12.268014 5,20 5,27.731986 11.268014,34 19,34 26.731986,34 33,27.731986 33,20 33,12.268014 26.731986,6 19,6 z m 0,2.0625 c 6.586507,0 11.9375,5.350993 11.9375,11.9375 0,6.586507 -5.350993,11.9375 -11.9375,11.9375 C 12.413493,31.9375 7.0625,26.586507 7.0625,20 7.0625,13.413493 12.413493,8.0625 19,8.0625 z"
         style="color:#000000;fill:#b0b4c1;fill-opacity:1;fill-rule:nonzero;stroke:none;stroke-width:1;marker:none;visibility:visible;display:inline;overflow:visible;enable-background:accumulate"
         inkscape:connector-curvature="0" />
      <path
         style="color:#000000;fill:#eeeff2;fill-opacity:1;fill-rule:nonzero;stroke:none;stroke-width:1;marker:none;visibility:visible;display:inline;overflow:visible;enable-background:accumulate"
         d="M 19,6 C 11.268014,6 5,12.268014 5,20 5,24.119666 6.7928543,27.813173 9.625,30.375 7.378668,27.89164 6,24.61232 6,21 6,13.268014 12.268014,7 20,7 23.61232,7 26.89164,8.378668 29.375,10.625 26.813173,7.7928543 23.119666,6 19,6 z m 8.90625,6.09375 c 1.874839,2.108877 3.03125,4.866558 3.03125,7.90625 0,6.586507 -5.350993,11.9375 -11.9375,11.9375 -3.039692,0 -5.797373,-1.156411 -7.90625,-3.03125 2.187624,2.460708 5.359435,4.03125 8.90625,4.03125 6.586507,0 11.9375,-5.350993 11.9375,-11.9375 0,-3.546815 -1.570542,-6.718626 -4.03125,-8.90625 z"
         id="path4359"
         inkscape:connector-curvature="0" />
      <path
         sodipodi:type="arc"
         style="color:#000000;fill:url(#radialGradient4415);fill-opacity:1;fill-rule:nonzero;stroke:none;stroke-width:1;marker:none;visibility:visible;display:inline;overflow:visible;enable-background:accumulate"
         id="path4413"
         sodipodi:cx="15"
         sodipodi:cy="16"
         sodipodi:rx="10"
         sodipodi:ry="10"
         d="M 25,16 A 10,10 0 1 1 5,16 10,10 0 1 1 25,16 z"
         transform="matrix(1.1925926,0,0,1.1925926,1.1111111,0.91851852)" />
      <g
         id="g4424">
        <path
           sodipodi:type="arc"
           style="color:#000000;fill:none;stroke:#cbad6d;stroke-width:0.54545456;stroke-opacity:0.27060936;marker:none;visibility:visible;display:inline;overflow:visible;enable-background:accumulate"
           id="path3887"
           sodipodi:cx="13.5"
           sodipodi:cy="18.5"
           sodipodi:rx="1.5"
           sodipodi:ry="1.5"
           d="m 15,18.5 a 1.5,1.5 0 1 1 -3,0 1.5,1.5 0 1 1 3,0 z"
           transform="matrix(1.8333333,0,0,1.8333333,-12.474873,-14.166667)" />
        <path
           sodipodi:type="arc"
           style="color:#000000;fill:none;stroke:#cbad6d;stroke-width:0.84377354;stroke-opacity:0.27060936;marker:none;visibility:visible;display:inline;overflow:visible;enable-background:accumulate"
           id="path3889"
           sodipodi:cx="13.5"
           sodipodi:cy="18.5"
           sodipodi:rx="1.5"
           sodipodi:ry="1.5"
           d="m 15,18.5 a 1.5,1.5 0 1 1 -3,0 1.5,1.5 0 1 1 3,0 z"
           transform="matrix(1.1851521,0,0,1.1851521,-1.8986019,-4.660149)" />
        <path
           sodipodi:type="arc"
           style="color:#000000;fill:none;stroke:#cbad6d;stroke-width:0.84377354;stroke-opacity:0.27060936;marker:none;visibility:visible;display:inline;overflow:visible;enable-background:accumulate"
           id="path3891"
           sodipodi:cx="13.5"
           sodipodi:cy="18.5"
           sodipodi:rx="1.5"
           sodipodi:ry="1.5"
           d="m 15,18.5 a 1.5,1.5 0 1 1 -3,0 1.5,1.5 0 1 1 3,0 z"
           transform="matrix(1.1851521,0,0,1.1851521,-0.21922341,-7.223411)" />
        <path
           sodipodi:type="arc"
           style="color:#000000;fill:none;stroke:#cbad6d;stroke-width:1.20250309;stroke-opacity:0.27060936;marker:none;visibility:visible;display:inline;overflow:visible;enable-background:accumulate"
           id="path3893"
           sodipodi:cx="13.5"
           sodipodi:cy="18.5"
           sodipodi:rx="1.5"
           sodipodi:ry="1.5"
           d="m 15,18.5 a 1.5,1.5 0 1 1 -3,0 1.5,1.5 0 1 1 3,0 z"
           transform="matrix(0.83159873,0,0,0.83159873,5.4376306,3.2064136)" />
        <path
           sodipodi:type="arc"
           style="color:#000000;fill:none;stroke:#cbad6d;stroke-width:1.20250309;stroke-opacity:0.27060936;marker:none;visibility:visible;display:inline;overflow:visible;enable-background:accumulate"
           id="path3903"
           sodipodi:cx="13.5"
           sodipodi:cy="18.5"
           sodipodi:rx="1.5"
           sodipodi:ry="1.5"
           d="m 15,18.5 a 1.5,1.5 0 1 1 -3,0 1.5,1.5 0 1 1 3,0 z"
           transform="matrix(0.83159873,0,0,0.83159873,3.6698637,9.1284326)" />
        <path
           sodipodi:type="arc"
           style="color:#000000;fill:none;stroke:#cbad6d;stroke-width:1.20250309;stroke-opacity:0.27060936;marker:none;visibility:visible;display:inline;overflow:visible;enable-background:accumulate"
           id="path3905"
           sodipodi:cx="13.5"
           sodipodi:cy="18.5"
           sodipodi:rx="1.5"
           sodipodi:ry="1.5"
           d="m 15,18.5 a 1.5,1.5 0 1 1 -3,0 1.5,1.5 0 1 1 3,0 z"
           transform="matrix(0.83159873,0,0,0.83159873,15.690678,4.8857921)" />
        <path
           sodipodi:type="arc"
           style="color:#000000;fill:none;stroke:#cbad6d;stroke-width:1.20250309;stroke-opacity:0.27060936;marker:none;visibility:visible;display:inline;overflow:visible;enable-background:accumulate"
           id="path3907"
           sodipodi:cx="13.5"
           sodipodi:cy="18.5"
           sodipodi:rx="1.5"
           sodipodi:ry="1.5"
           d="m 15,18.5 a 1.5,1.5 0 1 1 -3,0 1.5,1.5 0 1 1 3,0 z"
           transform="matrix(0.83159873,0,0,0.83159873,13.922912,7.5374424)" />
        <path
           transform="matrix(0.83159873,0,0,0.83159873,15.690678,6.653559)"
           d="m 15,18.5 a 1.5,1.5 0 1 1 -3,0 1.5,1.5 0 1 1 3,0 z"
           sodipodi:ry="1.5"
           sodipodi:rx="1.5"
           sodipodi:cy="18.5"
           sodipodi:cx="13.5"
           id="path3885"
           style="color:#000000;fill:none;stroke:#cbad6d;stroke-width:1.20250309;stroke-opacity:0.27060936;marker:none;visibility:visible;display:inline;overflow:visible;enable-background:accumulate"
           sodipodi:type="arc" />
      </g>
      <path
         style="color:#000000;fill:#000000;fill-opacity:0.29928314;fill-rule:nonzero;stroke:none;stroke-width:1;marker:none;visibility:visible;display:inline;overflow:visible;enable-background:accumulate"
         d="M 19,8.0625 C 12.413493,8.0625 7.0625,13.413493 7.0625,20 c 0,4.061243 2.0555589,7.627644 5.15625,9.78125 C 10.879647,27.853253 10.0625,25.525264 10.0625,23 c 0,-6.586507 5.350993,-11.9375 11.9375,-11.9375 2.525264,0 4.853253,0.817147 6.78125,2.15625 C 26.627644,10.118059 23.061243,8.0625 19,8.0625 z"
         id="path4364"
         inkscape:connector-curvature="0" />
    </g>
  </g>
</svg>
