<?xml version="1.0" encoding="UTF-8" standalone="no"?>
<!-- Created with Inkscape (http://www.inkscape.org/) -->

<svg
   xmlns:dc="http://purl.org/dc/elements/1.1/"
   xmlns:cc="http://creativecommons.org/ns#"
   xmlns:rdf="http://www.w3.org/1999/02/22-rdf-syntax-ns#"
   xmlns:svg="http://www.w3.org/2000/svg"
   xmlns="http://www.w3.org/2000/svg"
   xmlns:xlink="http://www.w3.org/1999/xlink"
   xmlns:sodipodi="http://sodipodi.sourceforge.net/DTD/sodipodi-0.dtd"
   xmlns:inkscape="http://www.inkscape.org/namespaces/inkscape"
   width="64"
   height="64"
   id="svg13094"
   version="1.1"
   inkscape:version="0.48.3.1 r9886"
   sodipodi:docname="kgpg.svg">
  <sodipodi:namedview
     id="base"
     pagecolor="#ffffff"
     bordercolor="#666666"
     borderopacity="1.0"
     inkscape:pageopacity="0"
     inkscape:pageshadow="2"
     inkscape:zoom="11.313709"
     inkscape:cx="33.521897"
     inkscape:cy="33.189061"
     inkscape:document-units="px"
     inkscape:current-layer="svg13094"
     showgrid="false"
     inkscape:snap-bbox="true"
     inkscape:bbox-paths="true"
     inkscape:bbox-nodes="true"
     inkscape:snap-bbox-edge-midpoints="true"
     inkscape:snap-bbox-midpoints="true"
     inkscape:object-paths="true"
     inkscape:snap-intersection-paths="true"
     inkscape:object-nodes="true"
     inkscape:snap-smooth-nodes="true"
     inkscape:snap-midpoints="true"
     inkscape:snap-object-midpoints="true"
     inkscape:snap-center="true"
     showguides="true"
     inkscape:guide-bbox="true"
     inkscape:window-width="1920"
     inkscape:window-height="1023"
     inkscape:window-x="-10"
     inkscape:window-y="35"
     inkscape:window-maximized="1"
     inkscape:snap-global="false"
     fit-margin-top="0"
     fit-margin-left="0"
     fit-margin-right="0"
     fit-margin-bottom="0"
     showborder="true"
     inkscape:showpageshadow="false"
     inkscape:snap-page="true">
    <inkscape:grid
       type="xygrid"
       id="grid3075"
       empspacing="5"
       visible="true"
       enabled="true"
       snapvisiblegridlinesonly="true"
       originx="1.6362304e-08px"
       originy="18px" />
  </sodipodi:namedview>
  <defs
     id="defs13096">
    <linearGradient
       id="linearGradient4774">
      <stop
         id="stop4776"
         offset="0"
         style="stop-color:#e1e7eb;stop-opacity:1;" />
      <stop
         style="stop-color:#cfe3ed;stop-opacity:1;"
         offset="0.69230771"
         id="stop4778" />
      <stop
         id="stop4780"
         offset="0.76882476"
         style="stop-color:#9dbac6;stop-opacity:1;" />
      <stop
         style="stop-color:#61899c;stop-opacity:1;"
         offset="0.85395837"
         id="stop4782" />
      <stop
         id="stop4784"
         offset="0.89423078"
         style="stop-color:#87a7b5;stop-opacity:1;" />
      <stop
         id="stop4786"
         offset="1"
         style="stop-color:#e6f1f6;stop-opacity:1;" />
    </linearGradient>
    <linearGradient
       id="linearGradient3811">
      <stop
         style="stop-color:#cead25;stop-opacity:1;"
         offset="0"
         id="stop3813" />
      <stop
         id="stop3819"
         offset="0.5"
         style="stop-color:#aa872a;stop-opacity:1;" />
      <stop
         style="stop-color:#dab62b;stop-opacity:1;"
         offset="1"
         id="stop3815" />
    </linearGradient>
    <linearGradient
       id="linearGradient3803">
      <stop
         style="stop-color:#ffde5c;stop-opacity:1;"
         offset="0"
         id="stop3805" />
      <stop
         style="stop-color:#ffde5c;stop-opacity:0;"
         offset="1"
         id="stop3807" />
    </linearGradient>
    <linearGradient
       id="linearGradient5602">
      <stop
         id="stop5604"
         style="stop-color:#4b96c2;stop-opacity:1;"
         offset="0" />
      <stop
         id="stop5606"
         style="stop-color:#3e71aa;stop-opacity:1;"
         offset="1" />
    </linearGradient>
    <radialGradient
       inkscape:collect="always"
       xlink:href="#linearGradient5602"
       id="radialGradient2999"
       cx="32"
       cy="14.8"
       fx="32"
       fy="14.8"
       r="32"
       gradientTransform="matrix(0,1.78125,-1.6699219,0,56.714844,-41)"
       gradientUnits="userSpaceOnUse" />
    <linearGradient
       inkscape:collect="always"
       xlink:href="#linearGradient3811"
       id="linearGradient4840"
       gradientUnits="userSpaceOnUse"
       x1="47"
       y1="44"
       x2="17"
       y2="44" />
    <radialGradient
       inkscape:collect="always"
       xlink:href="#linearGradient3803"
       id="radialGradient4842"
       gradientUnits="userSpaceOnUse"
       gradientTransform="matrix(1.4666667,1.2999668e-8,0,0.26666671,-16.333333,22.733332)"
       cx="35"
       cy="42.25"
       fx="35"
       fy="42.25"
       r="15" />
    <radialGradient
       inkscape:collect="always"
       xlink:href="#linearGradient4774"
       id="radialGradient4844"
       gradientUnits="userSpaceOnUse"
       gradientTransform="translate(4.3422948e-8,-6.5)"
       cx="33"
       cy="34.5"
       fx="33"
       fy="34.5"
       r="13" />
    <linearGradient
       inkscape:collect="always"
       xlink:href="#linearGradient4774"
       id="linearGradient4846"
       gradientUnits="userSpaceOnUse"
       x1="33"
       y1="29"
       x2="20"
       y2="29" />
    <linearGradient
       inkscape:collect="always"
       xlink:href="#linearGradient4774"
       id="linearGradient4848"
       gradientUnits="userSpaceOnUse"
       gradientTransform="translate(22,0)"
       x1="11"
       y1="29"
       x2="24"
       y2="29" />
    <linearGradient
       id="linearGradient5602-2">
      <stop
         id="stop5604-2"
         style="stop-color:#2698dc;stop-opacity:1;"
         offset="0" />
      <stop
         id="stop5606-9"
         style="stop-color:#2d70bb;stop-opacity:1;"
         offset="1" />
    </linearGradient>
    <radialGradient
       r="32"
       fy="14.8"
       fx="32"
       cy="14.8"
       cx="32"
       gradientTransform="matrix(1.25,0,0,1.171875,-8,-1.3437501)"
       gradientUnits="userSpaceOnUse"
       id="radialGradient3019"
       xlink:href="#linearGradient5602-2"
       inkscape:collect="always" />
  </defs>
  <metadata
     id="metadata13099">
    <rdf:RDF>
      <cc:Work
         rdf:about="">
        <dc:format>image/svg+xml</dc:format>
        <dc:type
           rdf:resource="http://purl.org/dc/dcmitype/StillImage" />
        <dc:title />
      </cc:Work>
    </rdf:RDF>
  </metadata>
  <path
     inkscape:connector-curvature="0"
     style="color:#000000;fill:url(#radialGradient3019);fill-opacity:1;fill-rule:nonzero;stroke:none;stroke-width:2.28571415;marker:none;visibility:visible;display:inline;overflow:visible;enable-background:accumulate"
     d="m 0,4 0,30 0,28 2,2 30,0 30,0 2,-2 L 64,34 64,4 32,4 0,4 z"
     id="path6498" />
  <path
     inkscape:connector-curvature="0"
     style="color:#000000;fill:#6fc8f2;fill-opacity:1;fill-rule:nonzero;stroke:none;stroke-width:2.28571415;marker:none;visibility:visible;display:inline;overflow:visible;enable-background:accumulate"
     d="M 2,0 0,1 0,4 32,4 64,4 64,1 62,0 32,0 2,0 z"
     id="path6502" />
  <path
     inkscape:connector-curvature="0"
     style="fill:#ffffff;fill-opacity:0.30734768;fill-rule:nonzero"
     d="M 0,3 0,6 2,4 32,4 62,4 64,3 32,3 0,3 z"
     id="path4298" />
  <path
     inkscape:connector-curvature="0"
     style="fill:#1f0700;fill-opacity:0.06978802;fill-rule:nonzero"
     d="M 2,0 0,1 32,1 64,1 62,0 32,0 2,0 z"
     id="path4444" />
  <path
     d="M 64,6 62,4 64,3 z"
     id="path3028"
     style="fill:#1f0700;fill-opacity:0.13759861"
     inkscape:connector-curvature="0" />
  <path
     inkscape:connector-curvature="0"
     style="fill:#000000;fill-opacity:0.11130587;fill-rule:nonzero"
     d="M 63,0.5 63,34 63,63 64,62 64,34 64,1 63,0.5 z m 0,62.5 -31,0 -31,0 1,1 30,0 30,0 1,-1 z"
     id="path4366" />
  <g
     id="g3043"
     inkscape:export-filename="folder.png"
     inkscape:export-xdpi="90"
     inkscape:export-ydpi="90"
     transform="translate(-0.62500009,0.082283)" />
  <path
     inkscape:connector-curvature="0"
     style="fill:#ffffff;fill-opacity:0.35070675;fill-rule:nonzero"
     d="M 0,1 0,34 0,62 1,63 1,34 1,5 2,4 1,3.46875 1,1 0,1 z"
     id="path3864" />
  <g
     id="scalable"
     transform="matrix(1.0385892,0,0,1.0385892,1214.7222,1878.8121)"
     inkscape:label="#g3701"
     style="fill:#ffffff" />
  <g
     id="g3054">
    <path
       sodipodi:nodetypes="ssccccsccccsssscccsssss"
       inkscape:connector-curvature="0"
       id="rect3776"
       d="m 35.25,18.25 c -7.179702,0 -13,5.820298 -13,13 l 0,3 L 18,51 l 0,1 2.25,2.25 c 0,0 5.99997,0.500242 15,0.5 9.000031,-2.42e-4 15,-0.5 15,-0.5 l 0,-19 0,-1 -2,-2 0,-1 c 0,-7.179702 -5.820298,-13 -13,-13 z m 0,4 c 4.970563,0 9,4.029437 9,9 l 0,3 -9,0 -9,0 0,-3 c 0,-0.31066 5.24e-4,-0.603696 0.03125,-0.90625 0.337986,-3.32809 2.507701,-6.122582 5.46875,-7.375 0.269186,-0.113856 0.530683,-0.224846 0.8125,-0.3125 C 33.40795,22.393288 34.318019,22.25 35.25,22.25 z"
       style="color:#000000;fill:#000000;fill-opacity:0.18189964;fill-rule:nonzero;stroke:none;stroke-width:4;marker:none;visibility:visible;display:inline;overflow:visible;enable-background:accumulate" />
    <g
       id="g4820">
      <path
         sodipodi:nodetypes="sccsccs"
         inkscape:connector-curvature="0"
         id="path4822"
         d="m 32,31 c -9.00003,0 -15,0 -15,0 l 0,1 c 0,0 5.99997,0 15,0 9.000031,0 15,0 15,0 l 0,-1 c 0,0 -5.999969,0 -15,0 z"
         style="color:#000000;fill:#ffde5c;fill-opacity:1;fill-rule:nonzero;stroke:none;stroke-width:4;marker:none;visibility:visible;display:inline;overflow:visible;enable-background:accumulate" />
      <path
         sodipodi:nodetypes="czcczcc"
         inkscape:connector-curvature="0"
         id="path4824"
         d="m 17,32 c 0,0 5.999939,0 14.999969,0 9.000031,0 14.99997,0 14.99997,0 l 0,19.000242 c 0,0 -5.999939,0.499758 -14.99997,0.5 C 22.999939,51.500484 17,51.000242 17,51.000242 z"
         style="color:#000000;fill:url(#linearGradient4840);fill-opacity:1;fill-rule:nonzero;stroke:none;stroke-width:4;marker:none;visibility:visible;display:inline;overflow:visible;enable-background:accumulate" />
      <path
         sodipodi:nodetypes="cscsc"
         inkscape:connector-curvature="0"
         id="path4826"
         d="m 17,32 c 0,0 5.99997,2.5 15,2.5 9.000031,0 15,-2.5 15,-2.5 0,0 -5.999969,0 -15,0 -9.00003,0 -15,0 -15,0 z"
         style="color:#000000;fill:url(#radialGradient4842);fill-opacity:1;fill-rule:nonzero;stroke:none;stroke-width:4;marker:none;visibility:visible;display:inline;overflow:visible;enable-background:accumulate" />
      <rect
         style="color:#000000;fill:#ffeeaa;fill-opacity:0.13530465;fill-rule:nonzero;stroke:none;stroke-width:2.28571415;marker:none;visibility:visible;display:inline;overflow:visible;enable-background:accumulate"
         id="rect4828"
         width="1"
         height="20"
         x="17"
         y="31" />
      <rect
         y="31"
         x="46"
         height="20"
         width="1"
         id="rect4830"
         style="color:#000000;fill:#3d1600;fill-opacity:0.11648745;fill-rule:nonzero;stroke:none;stroke-width:2.28571415;marker:none;visibility:visible;display:inline;overflow:visible;enable-background:accumulate" />
      <path
         inkscape:connector-curvature="0"
         style="color:#000000;fill:url(#radialGradient4844);fill-opacity:1;fill-rule:nonzero;stroke:none;stroke-width:2.28571415;marker:none;visibility:visible;display:inline;overflow:visible;enable-background:accumulate"
         d="m 32,15 c -7.179702,0 -13,5.820298 -13,13 l 4,0 c 0,-4.970563 4.029437,-9 9,-9 4.970563,0 9,4.029437 9,9 l 4,0 C 45,20.820298 39.179702,15 32,15 z"
         id="path4832" />
      <path
         inkscape:connector-curvature="0"
         style="color:#000000;fill:#000000;fill-opacity:0.18189967;fill-rule:nonzero;stroke:none;stroke-width:4;marker:none;visibility:visible;display:inline;overflow:visible;enable-background:accumulate"
         d="m 22.21875,31 -0.125,0.6875 L 25.6875,31 22.21875,31 z"
         id="path4930" />
      <path
         id="path4892"
         d="M 44.09375 31 L 43.96875 31.6875 L 47 31.09375 L 47 31 L 44.09375 31 z "
         style="color:#000000;fill:#000000;fill-opacity:0.18189967;fill-rule:nonzero;stroke:none;stroke-width:4;marker:none;visibility:visible;display:inline;overflow:visible;enable-background:accumulate" />
      <path
         style="color:#000000;fill:url(#linearGradient4846);fill-opacity:1;fill-rule:nonzero;stroke:none;stroke-width:2.28571415;marker:none;visibility:visible;display:inline;overflow:visible;enable-background:accumulate"
         d="m 19,28 4,0 0,3.5 c 0,0 -1,0.25 -2,0.25 -1,0 -2,-0.25 -2,-0.25 z"
         id="path4834"
         inkscape:connector-curvature="0"
         sodipodi:nodetypes="ccczcc" />
      <path
         sodipodi:nodetypes="ccczcc"
         inkscape:connector-curvature="0"
         id="path4836"
         d="m 41,28 4,0 0,3.5 c 0,0 -1,0.25 -2,0.25 -1,0 -2,-0.25 -2,-0.25 z"
         style="color:#000000;fill:url(#linearGradient4848);fill-opacity:1;fill-rule:nonzero;stroke:none;stroke-width:2.28571415;marker:none;visibility:visible;display:inline;overflow:visible;enable-background:accumulate" />
    </g>
  </g>
</svg>
