<?xml version="1.0" encoding="UTF-8" standalone="no"?>
<!-- Created with Inkscape (http://www.inkscape.org/) -->

<svg
   xmlns:dc="http://purl.org/dc/elements/1.1/"
   xmlns:cc="http://creativecommons.org/ns#"
   xmlns:rdf="http://www.w3.org/1999/02/22-rdf-syntax-ns#"
   xmlns:svg="http://www.w3.org/2000/svg"
   xmlns="http://www.w3.org/2000/svg"
   xmlns:xlink="http://www.w3.org/1999/xlink"
   xmlns:sodipodi="http://sodipodi.sourceforge.net/DTD/sodipodi-0.dtd"
   xmlns:inkscape="http://www.inkscape.org/namespaces/inkscape"
   width="64"
   height="64"
   id="svg13094"
   version="1.1"
   inkscape:version="0.48.3.1 r9886"
   sodipodi:docname="privacy.svg">
  <sodipodi:namedview
     id="base"
     pagecolor="#ffffff"
     bordercolor="#666666"
     borderopacity="1.0"
     inkscape:pageopacity="0"
     inkscape:pageshadow="2"
     inkscape:zoom="11.313709"
     inkscape:cx="24.961928"
     inkscape:cy="35.106476"
     inkscape:document-units="px"
     inkscape:current-layer="svg13094"
     showgrid="true"
     inkscape:snap-bbox="true"
     inkscape:bbox-paths="true"
     inkscape:bbox-nodes="true"
     inkscape:snap-bbox-edge-midpoints="true"
     inkscape:snap-bbox-midpoints="true"
     inkscape:object-paths="true"
     inkscape:snap-intersection-paths="true"
     inkscape:object-nodes="true"
     inkscape:snap-smooth-nodes="true"
     inkscape:snap-midpoints="true"
     inkscape:snap-object-midpoints="true"
     inkscape:snap-center="true"
     showguides="true"
     inkscape:guide-bbox="true"
     inkscape:window-width="1920"
     inkscape:window-height="1023"
     inkscape:window-x="-10"
     inkscape:window-y="35"
     inkscape:window-maximized="1"
     inkscape:snap-global="false"
     fit-margin-top="0"
     fit-margin-left="0"
     fit-margin-right="0"
     fit-margin-bottom="0"
     showborder="true"
     inkscape:showpageshadow="false"
     inkscape:snap-page="true">
    <inkscape:grid
       type="xygrid"
       id="grid3075"
       empspacing="5"
       visible="true"
       enabled="true"
       snapvisiblegridlinesonly="true"
       originx="1.6362304e-08px"
       originy="18px" />
  </sodipodi:namedview>
  <defs
     id="defs13096">
    <linearGradient
       id="linearGradient15182">
      <stop
         style="stop-color:#ffffff;stop-opacity:1;"
         offset="0"
         id="stop15184" />
      <stop
         style="stop-color:#d6dce0;stop-opacity:0;"
         offset="1"
         id="stop15186" />
    </linearGradient>
    <linearGradient
       id="linearGradient6035">
      <stop
         style="stop-color:#4e8398;stop-opacity:1;"
         offset="0"
         id="stop6037" />
      <stop
         style="stop-color:#213037;stop-opacity:1;"
         offset="1"
         id="stop6039" />
    </linearGradient>
    <linearGradient
       id="linearGradient6027">
      <stop
         style="stop-color:#000000;stop-opacity:0.38332257;"
         offset="0"
         id="stop6029" />
      <stop
         style="stop-color:#ffffff;stop-opacity:0.71363932;"
         offset="1"
         id="stop6031" />
    </linearGradient>
    <linearGradient
       id="linearGradient6001">
      <stop
         style="stop-color:#1d2e38;stop-opacity:1;"
         offset="0"
         id="stop6003" />
      <stop
         style="stop-color:#85aabd;stop-opacity:1;"
         offset="1"
         id="stop6005" />
    </linearGradient>
    <linearGradient
       id="linearGradient3955">
      <stop
         offset="0"
         style="stop-color:#b8c1c8;stop-opacity:1;"
         id="stop3957" />
      <stop
         offset="1"
         style="stop-color:#8a99a9;stop-opacity:1;"
         id="stop3959" />
    </linearGradient>
    <radialGradient
       inkscape:collect="always"
       xlink:href="#linearGradient3955"
       id="radialGradient3963"
       gradientUnits="userSpaceOnUse"
       gradientTransform="matrix(0,1.40625,-1.3183594,0,55.730469,-26)"
       cx="32"
       cy="18"
       fx="32"
       fy="18"
       r="32" />
    <linearGradient
       inkscape:collect="always"
       xlink:href="#linearGradient6001"
       id="linearGradient6007"
       x1="57.817482"
       y1="34.096851"
       x2="25.499998"
       y2="6.9792609"
       gradientUnits="userSpaceOnUse" />
    <linearGradient
       inkscape:collect="always"
       xlink:href="#linearGradient6001"
       id="linearGradient6011"
       gradientUnits="userSpaceOnUse"
       x1="51.660019"
       y1="47.961159"
       x2="15.310436"
       y2="11.611575" />
    <linearGradient
       inkscape:collect="always"
       xlink:href="#linearGradient6027"
       id="linearGradient6033"
       x1="21.785717"
       y1="6.8571453"
       x2="58"
       y2="37.244537"
       gradientUnits="userSpaceOnUse" />
    <radialGradient
       inkscape:collect="always"
       xlink:href="#linearGradient6035"
       id="radialGradient6041"
       cx="32"
       cy="22.000002"
       fx="32"
       fy="22.000002"
       r="26"
       gradientUnits="userSpaceOnUse"
       gradientTransform="matrix(1.1153846,0,0,1.1153846,-3.6923084,-2.5384622)" />
    <radialGradient
       inkscape:collect="always"
       xlink:href="#linearGradient15182"
       id="radialGradient15239"
       gradientUnits="userSpaceOnUse"
       gradientTransform="matrix(1.9249213,0,0,1.9249213,-21.58576,-24.007869)"
       cx="23.337942"
       cy="25.956661"
       fx="23.337942"
       fy="25.956661"
       r="26" />
  </defs>
  <metadata
     id="metadata13099">
    <rdf:RDF>
      <cc:Work
         rdf:about="">
        <dc:format>image/svg+xml</dc:format>
        <dc:type
           rdf:resource="http://purl.org/dc/dcmitype/StillImage" />
        <dc:title />
      </cc:Work>
    </rdf:RDF>
  </metadata>
  <path
     id="path3961"
     d="m 0,4 0,30 0,28 2,2 30,0 30,0 2,-2 L 64,34 64,4 32,4 0,4 z"
     style="color:#000000;fill:url(#radialGradient3963);fill-opacity:1;fill-rule:nonzero;stroke:none;stroke-width:2.28571415;marker:none;visibility:visible;display:inline;overflow:visible;enable-background:accumulate"
     inkscape:connector-curvature="0" />
  <path
     style="color:#000000;fill:#d2dde4;fill-opacity:1;fill-rule:nonzero;stroke:none;marker:none;visibility:visible;display:inline;overflow:visible;enable-background:accumulate;stroke-width:2.28571415000000000"
     d="M 2 0 L 0 1 L 0 4 L 32 4 L 64 4 L 64 1 L 62 0 L 32 0 L 2 0 z "
     id="path6502" />
  <path
     style="fill:#ffffff;fill-opacity:0.55376345;fill-rule:nonzero"
     d="M 0 3 L 0 6 L 2 4 L 32 4 L 62 4 L 64 3 L 32 3 L 0 3 z "
     id="path4298" />
  <path
     style="fill:#1f0700;fill-opacity:0.06978802;fill-rule:nonzero"
     d="M 2 0 L 0 1 L 32 1 L 64 1 L 62 0 L 32 0 L 2 0 z "
     id="path4444" />
  <path
     d="M 64,6 62,4 64,3 z"
     id="path3028"
     style="fill:#1f0700;fill-opacity:0.13759861"
     inkscape:connector-curvature="0" />
  <path
     style="fill:#000000;fill-opacity:0.11130587;fill-rule:nonzero"
     d="M 63 0.5 L 63 34 L 63 63 L 64 62 L 64 34 L 64 1 L 63 0.5 z M 63 63 L 32 63 L 1 63 L 2 64 L 32 64 L 62 64 L 63 63 z "
     id="path4366" />
  <g
     id="g3043"
     inkscape:export-filename="folder.png"
     inkscape:export-xdpi="90"
     inkscape:export-ydpi="90"
     transform="translate(-0.62500009,0.082283)" />
  <path
     style="fill:#ffffff;fill-opacity:0.64605737;fill-rule:nonzero"
     d="M 0 1 L 0 34 L 0 62 L 1 63 L 1 34 L 1 5 L 2 4 L 1 3.46875 L 1 1 L 0 1 z "
     id="path3864" />
  <g
     id="scalable"
     transform="matrix(1.0385892,0,0,1.0385892,1214.7222,1878.8121)"
     inkscape:label="#g3701"
     style="fill:#ffffff" />
  <path
     transform="matrix(1.0769231,0,0,1.0769231,-2.4615414,0.61538185)"
     d="M 58,31 A 26,26 0 1 1 6,31 26,26 0 1 1 58,31 z"
     sodipodi:ry="26"
     sodipodi:rx="26"
     sodipodi:cy="31"
     sodipodi:cx="32"
     id="path5630"
     style="color:#000000;fill:url(#linearGradient6033);fill-opacity:1;fill-rule:nonzero;stroke:none;stroke-width:1;marker:none;visibility:visible;display:inline;overflow:visible;enable-background:accumulate"
     sodipodi:type="arc" />
  <path
     sodipodi:type="arc"
     style="color:#000000;fill:#192831;fill-opacity:1;fill-rule:nonzero;stroke:none;stroke-width:1;marker:none;visibility:visible;display:inline;overflow:visible;enable-background:accumulate"
     id="path6025"
     sodipodi:cx="32"
     sodipodi:cy="31"
     sodipodi:rx="26"
     sodipodi:ry="26"
     d="M 58,31 A 26,26 0 1 1 6,31 26,26 0 1 1 58,31 z"
     transform="matrix(1.0384615,0,0,1.0384615,-1.2307693,1.8076923)" />
  <path
     sodipodi:type="arc"
     style="color:#000000;fill:url(#radialGradient6041);fill-opacity:1;fill-rule:nonzero;stroke:none;stroke-width:1;marker:none;visibility:visible;display:inline;overflow:visible;enable-background:accumulate"
     id="path6021"
     sodipodi:cx="32"
     sodipodi:cy="31"
     sodipodi:rx="26"
     sodipodi:ry="26"
     d="M 58,31 A 26,26 0 1 1 6,31 26,26 0 1 1 58,31 z"
     transform="translate(0,3)" />
  <path
     sodipodi:type="arc"
     style="color:#000000;fill:url(#linearGradient6011);fill-opacity:1;fill-rule:nonzero;stroke:none;stroke-width:1;marker:none;visibility:visible;display:inline;overflow:visible;enable-background:accumulate"
     id="path6009"
     sodipodi:cx="32"
     sodipodi:cy="31"
     sodipodi:rx="26"
     sodipodi:ry="26"
     d="M 58,31 A 26,26 0 1 1 6,31 26,26 0 1 1 58,31 z"
     transform="matrix(0.42307691,0,0,0.42307691,18.46154,20.884616)" />
  <path
     transform="matrix(0.3461538,0,0,0.3461538,20.923079,23.269232)"
     d="M 58,31 A 26,26 0 1 1 6,31 26,26 0 1 1 58,31 z"
     sodipodi:ry="26"
     sodipodi:rx="26"
     sodipodi:cy="31"
     sodipodi:cx="32"
     id="path5995"
     style="color:#000000;fill:#192831;fill-opacity:1;fill-rule:nonzero;stroke:none;stroke-width:3.00000014;marker:none;visibility:visible;display:inline;overflow:visible;enable-background:accumulate"
     sodipodi:type="arc" />
  <path
     transform="matrix(0.30769229,0,0,0.30769229,22.153847,24.461539)"
     d="M 58,31 A 26,26 0 1 1 6,31 26,26 0 1 1 58,31 z"
     sodipodi:ry="26"
     sodipodi:rx="26"
     sodipodi:cy="31"
     sodipodi:cx="32"
     id="path5999"
     style="color:#000000;fill:url(#linearGradient6007);fill-opacity:1;fill-rule:nonzero;stroke:none;stroke-width:1;marker:none;visibility:visible;display:inline;overflow:visible;enable-background:accumulate"
     sodipodi:type="arc" />
  <path
     transform="matrix(0.26923076,0,0,0.26923076,23.384616,25.653846)"
     d="M 58,31 A 26,26 0 1 1 6,31 26,26 0 1 1 58,31 z"
     sodipodi:ry="26"
     sodipodi:rx="26"
     sodipodi:cy="31"
     sodipodi:cx="32"
     id="path15175"
     style="color:#000000;fill:#2e424f;fill-opacity:1;fill-rule:nonzero;stroke:none;stroke-width:1;marker:none;visibility:visible;display:inline;overflow:visible;enable-background:accumulate"
     sodipodi:type="arc" />
  <path
     style="color:#000000;fill:url(#radialGradient15239);fill-opacity:1;fill-rule:nonzero;stroke:none;stroke-width:1;marker:none;visibility:visible;display:inline;overflow:visible;enable-background:accumulate"
     d="M 31 8 L 31 15 L 33 15 L 33 8 L 31 8 z M 28.4375 8.25 L 27.4375 8.40625 L 28.0625 12.34375 L 29.0625 12.1875 L 28.4375 8.25 z M 35.5625 8.25 L 34.9375 12.1875 L 35.9375 12.34375 L 36.5625 8.40625 L 35.5625 8.25 z M 24.4375 9.125 L 23.5 9.4375 L 24.71875 13.21875 L 25.6875 12.9375 L 24.4375 9.125 z M 39.5625 9.125 L 38.3125 12.9375 L 39.28125 13.21875 L 40.5 9.4375 L 39.5625 9.125 z M 20.65625 10.59375 L 19.75 11.0625 L 21.5625 14.625 L 22.46875 14.15625 L 20.65625 10.59375 z M 43.34375 10.59375 L 41.53125 14.15625 L 42.4375 14.625 L 44.25 11.0625 L 43.34375 10.59375 z M 17.125 12.65625 L 16.3125 13.25 L 18.65625 16.5 L 19.46875 15.90625 L 17.125 12.65625 z M 46.875 12.65625 L 44.53125 15.90625 L 45.34375 16.5 L 47.6875 13.25 L 46.875 12.65625 z M 14.3125 14.90625 L 12.90625 16.3125 L 17.84375 21.28125 L 19.28125 19.84375 L 14.3125 14.90625 z M 49.6875 14.90625 L 44.71875 19.84375 L 46.15625 21.28125 L 51.09375 16.3125 L 49.6875 14.90625 z M 11.25 18.3125 L 10.65625 19.125 L 13.90625 21.46875 L 14.5 20.65625 L 11.25 18.3125 z M 52.75 18.3125 L 49.5 20.65625 L 50.09375 21.46875 L 53.34375 19.125 L 52.75 18.3125 z M 9.0625 21.75 L 8.59375 22.65625 L 12.15625 24.46875 L 12.625 23.5625 L 9.0625 21.75 z M 54.9375 21.75 L 51.375 23.5625 L 51.84375 24.46875 L 55.40625 22.65625 L 54.9375 21.75 z M 7.4375 25.5 L 7.125 26.4375 L 10.9375 27.6875 L 11.21875 26.71875 L 7.4375 25.5 z M 56.5625 25.5 L 52.78125 26.71875 L 53.0625 27.6875 L 56.875 26.4375 L 56.5625 25.5 z M 6.40625 29.4375 L 6.25 30.4375 L 10.1875 31.0625 L 10.34375 30.0625 L 6.40625 29.4375 z M 57.59375 29.4375 L 53.65625 30.0625 L 53.8125 31.0625 L 57.75 30.4375 L 57.59375 29.4375 z M 6 33 L 6 35 L 13 35 L 13 33 L 6 33 z M 51 33 L 51 35 L 58 35 L 58 33 L 51 33 z M 10.1875 36.9375 L 6.25 37.5625 L 6.40625 38.5625 L 10.34375 37.9375 L 10.1875 36.9375 z M 53.8125 36.9375 L 53.65625 37.9375 L 57.59375 38.5625 L 57.75 37.5625 L 53.8125 36.9375 z M 10.9375 40.3125 L 7.125 41.5625 L 7.4375 42.5 L 11.21875 41.28125 L 10.9375 40.3125 z M 53.0625 40.3125 L 52.78125 41.28125 L 56.5625 42.5 L 56.875 41.5625 L 53.0625 40.3125 z M 12.15625 43.53125 L 8.59375 45.34375 L 9.0625 46.25 L 12.625 44.4375 L 12.15625 43.53125 z M 51.84375 43.53125 L 51.375 44.4375 L 54.9375 46.25 L 55.40625 45.34375 L 51.84375 43.53125 z M 13.90625 46.53125 L 10.65625 48.875 L 11.25 49.6875 L 14.5 47.34375 L 13.90625 46.53125 z M 50.09375 46.53125 L 49.5 47.34375 L 52.75 49.6875 L 53.34375 48.875 L 50.09375 46.53125 z M 17.84375 46.71875 L 12.90625 51.6875 L 14.3125 53.09375 L 19.28125 48.15625 L 17.84375 46.71875 z M 46.15625 46.71875 L 44.71875 48.15625 L 49.6875 53.09375 L 51.09375 51.6875 L 46.15625 46.71875 z M 18.65625 51.5 L 16.3125 54.75 L 17.125 55.34375 L 19.46875 52.09375 L 18.65625 51.5 z M 45.34375 51.5 L 44.53125 52.09375 L 46.875 55.34375 L 47.6875 54.75 L 45.34375 51.5 z M 31 53 L 31 60 L 33 60 L 33 53 L 31 53 z M 21.5625 53.375 L 19.75 56.9375 L 20.65625 57.40625 L 22.46875 53.84375 L 21.5625 53.375 z M 42.4375 53.375 L 41.53125 53.84375 L 43.34375 57.40625 L 44.25 56.9375 L 42.4375 53.375 z M 24.71875 54.78125 L 23.5 58.5625 L 24.4375 58.875 L 25.6875 55.0625 L 24.71875 54.78125 z M 39.28125 54.78125 L 38.3125 55.0625 L 39.5625 58.875 L 40.5 58.5625 L 39.28125 54.78125 z M 28.0625 55.65625 L 27.4375 59.59375 L 28.4375 59.75 L 29.0625 55.8125 L 28.0625 55.65625 z M 35.9375 55.65625 L 34.9375 55.8125 L 35.5625 59.75 L 36.5625 59.59375 L 35.9375 55.65625 z "
     id="rect6839" />
  <path
     id="path15244"
     d="m 31.8125,16.90625 c -0.49671,0.114756 -0.750001,0.644468 -0.75,1.5625 -1e-6,0.51064 0.08537,0.885584 0.25,1.15625 0.164632,0.269271 0.39925,0.40625 0.71875,0.40625 0.654341,0 0.999997,-0.511922 1,-1.5625 -3e-6,-0.509241 -0.08397,-0.886977 -0.25,-1.15625 -0.164634,-0.270664 -0.426318,-0.406247 -0.75,-0.40625 -0.0811,0 -0.147791,-0.01639 -0.21875,0 z m 0.21875,0.3125 c 0.205091,3e-6 0.37248,0.08453 0.46875,0.28125 0.09626,0.195329 0.124998,0.529268 0.125,0.96875 -2e-6,0.442276 -0.02873,0.772029 -0.125,0.96875 -0.09627,0.195329 -0.263659,0.281251 -0.46875,0.28125 -0.202304,1e-6 -0.34263,-0.08592 -0.4375,-0.28125 -0.09348,-0.195326 -0.125,-0.525079 -0.125,-0.96875 0,-0.442272 0.03152,-0.774816 0.125,-0.96875 0.09487,-0.195319 0.235196,-0.281247 0.4375,-0.28125 z M 21.375,20.5 20.34375,21.53125 21.28125,22.625 21.5,22.5625 c 0.114442,-0.165735 0.2247,-0.2872 0.3125,-0.375 0.339371,-0.339369 0.647455,-0.352543 0.9375,-0.0625 0.309771,0.309778 0.300229,0.637271 -0.03125,0.96875 -0.213095,0.213095 -0.450729,0.32765 -0.6875,0.375 l 0.28125,0.25 c 0.208161,-0.05229 0.404013,-0.185263 0.625,-0.40625 0.247622,-0.247623 0.3954,-0.488564 0.40625,-0.75 0.0099,-0.26242 -0.112899,-0.519146 -0.34375,-0.75 -0.196324,-0.196318 -0.415533,-0.29703 -0.65625,-0.28125 -0.240721,0.01381 -0.480324,0.136578 -0.6875,0.34375 -0.100621,0.100636 -0.16417,0.218462 -0.25,0.34375 L 20.84375,21.53125 21.625,20.75 21.375,20.5 z m 22.1875,0.9375 -1.09375,0.9375 0.0625,0.21875 c 0.165736,0.114443 0.2872,0.2247 0.375,0.3125 0.339369,0.339371 0.352543,0.647455 0.0625,0.9375 C 42.658973,24.15352 42.331479,24.143979 42,23.8125 41.786906,23.599406 41.67235,23.361771 41.625,23.125 l -0.25,0.25 c 0.05229,0.208161 0.185263,0.435263 0.40625,0.65625 0.247622,0.247623 0.488564,0.36415 0.75,0.375 0.26242,0.0099 0.519145,-0.08165 0.75,-0.3125 0.196317,-0.196324 0.29703,-0.415533 0.28125,-0.65625 C 43.548682,23.196786 43.425922,22.957176 43.21875,22.75 43.118114,22.649378 43.000288,22.55458 42.875,22.46875 l 0.6875,-0.5625 0.78125,0.8125 0.25,-0.25 -1.03125,-1.03125 z m -23.96875,1.09375 c -0.211123,0.01579 -0.42177,0.109275 -0.625,0.3125 -0.245648,0.245653 -0.40099,0.542536 -0.4375,0.875 L 18.875,23.75 c 0.04439,-0.283138 0.136896,-0.511891 0.3125,-0.6875 0.112468,-0.112468 0.248722,-0.14835 0.375,-0.15625 0.125293,-0.0089 0.243123,0.02437 0.34375,0.125 0.12332,0.123321 0.16809,0.275709 0.15625,0.4375 -0.01184,0.161793 -0.09215,0.310905 -0.25,0.46875 l -0.21875,0.1875 0.25,0.21875 0.1875,-0.1875 c 0.375874,-0.375872 0.682971,-0.442027 0.9375,-0.1875 0.285109,0.285114 0.255486,0.619514 -0.09375,0.96875 -0.196324,0.196324 -0.442517,0.31943 -0.71875,0.40625 l 0.25,0.25 c 0.220986,-0.06511 0.480005,-0.198755 0.71875,-0.4375 0.257487,-0.257488 0.38454,-0.530666 0.40625,-0.78125 0.02072,-0.251568 -0.08098,-0.455978 -0.28125,-0.65625 -0.296952,-0.296946 -0.628735,-0.30977 -1.03125,0 l -0.03125,0 c 0.124309,-0.175603 0.19835,-0.358602 0.1875,-0.53125 -0.01085,-0.172644 -0.08261,-0.301354 -0.21875,-0.4375 -0.16278,-0.162774 -0.350392,-0.23552 -0.5625,-0.21875 z m -3.125,9.15625 c -0.509241,2e-6 -0.886977,0.08397 -1.15625,0.25 -0.270664,0.164634 -0.406247,0.426318 -0.40625,0.75 3e-6,0.648763 0.513321,0.96875 1.5625,0.96875 0.51064,0 0.885584,-0.08537 1.15625,-0.25 0.269271,-0.164632 0.40625,-0.399251 0.40625,-0.71875 0,-0.654341 -0.511922,-0.999998 -1.5625,-1 z m 31.96875,0.25 -0.25,0.21875 0.25,0.3125 c 0.09766,0.114404 0.15875,0.19559 0.21875,0.25 -0.333452,-0.01114 -0.57979,-0.03125 -0.75,-0.03125 l -1.90625,0 0,0.375 3.0625,0 0,-0.3125 -0.625,-0.8125 z m -31.96875,0.15625 c 0.442276,2e-6 0.772029,0.02873 0.96875,0.125 0.195329,0.09627 0.281251,0.263659 0.28125,0.46875 1e-6,0.202303 -0.08592,0.34263 -0.28125,0.4375 -0.195326,0.09348 -0.525079,0.125001 -0.96875,0.125 -0.442272,10e-7 -0.774816,-0.03152 -0.96875,-0.125 -0.195319,-0.09487 -0.281247,-0.235197 -0.28125,-0.4375 3e-6,-0.205091 0.08453,-0.37248 0.28125,-0.46875 0.195329,-0.09626 0.529268,-0.124998 0.96875,-0.125 z M 17.125,34.3125 c -0.41995,2e-6 -0.65318,0.246339 -0.71875,0.75 l -0.03125,0 c -0.03627,-0.212067 -0.120246,-0.354343 -0.25,-0.46875 -0.12975,-0.114409 -0.276211,-0.187497 -0.46875,-0.1875 -0.230203,3e-6 -0.424374,0.08816 -0.5625,0.25 -0.138116,0.160449 -0.187497,0.368842 -0.1875,0.65625 3e-6,0.347402 0.103224,0.6766 0.3125,0.9375 l 0.25,-0.21875 c -0.168817,-0.231601 -0.249997,-0.470406 -0.25,-0.71875 3e-6,-0.159051 0.04129,-0.28013 0.125,-0.375 0.08232,-0.09487 0.201443,-0.124998 0.34375,-0.125 0.174401,2e-6 0.300218,0.06473 0.40625,0.1875 0.106032,0.122778 0.156251,0.276771 0.15625,0.5 l 0,0.28125 0.3125,0 0,-0.28125 c 1e-6,-0.531565 0.202542,-0.781249 0.5625,-0.78125 0.40321,10e-7 0.59375,0.224855 0.59375,0.71875 0,0.277643 -0.05356,0.555786 -0.1875,0.8125 l 0.34375,0 c 0.11022,-0.202301 0.15625,-0.474864 0.15625,-0.8125 0,-0.364143 -0.05691,-0.651212 -0.21875,-0.84375 -0.163237,-0.192534 -0.404276,-0.281248 -0.6875,-0.28125 z m 30.40625,0.03125 c -0.51064,0 -0.885584,0.08537 -1.15625,0.25 -0.269271,0.164632 -0.40625,0.399251 -0.40625,0.71875 0,0.654341 0.511922,0.999998 1.5625,1 0.509241,-2e-6 0.886977,-0.08398 1.15625,-0.25 0.270664,-0.164634 0.406247,-0.426318 0.40625,-0.75 -3e-6,-0.648763 -0.513321,-0.96875 -1.5625,-0.96875 z m 0,0.40625 c 0.442272,-10e-7 0.774816,0.03152 0.96875,0.125 0.195319,0.09487 0.281247,0.235197 0.28125,0.4375 -3e-6,0.205091 -0.08453,0.37248 -0.28125,0.46875 -0.195329,0.09626 -0.529268,0.124998 -0.96875,0.125 -0.442276,-2e-6 -0.772029,-0.02873 -0.96875,-0.125 -0.195329,-0.09627 -0.281251,-0.263659 -0.28125,-0.46875 -10e-7,-0.202303 0.08592,-0.34263 0.28125,-0.4375 0.195326,-0.09348 0.525079,-0.125001 0.96875,-0.125 z M 20.5625,42.65625 c -0.26242,-0.0099 -0.519146,0.112899 -0.75,0.34375 -0.196318,0.196324 -0.29703,0.415534 -0.28125,0.65625 0.01382,0.240714 0.136578,0.480324 0.34375,0.6875 0.100636,0.100621 0.218462,0.16417 0.34375,0.25 l -0.6875,0.5625 L 18.75,44.375 18.5,44.625 19.53125,45.65625 20.625,44.71875 20.5625,44.5 c -0.165736,-0.114442 -0.2872,-0.2247 -0.375,-0.3125 -0.339368,-0.339372 -0.352542,-0.647455 -0.0625,-0.9375 0.309778,-0.30978 0.637271,-0.300228 0.96875,0.03125 0.213094,0.213095 0.32765,0.450728 0.375,0.6875 l 0.25,-0.28125 c -0.05229,-0.208161 -0.185264,-0.404012 -0.40625,-0.625 -0.247624,-0.247622 -0.488564,-0.3954 -0.75,-0.40625 z m 22.25,0.3125 -0.25,0.28125 2.15625,2.15625 0.21875,-0.21875 0.125,-1.03125 L 44.75,44.125 44.71875,44.53125 c -0.01184,0.149953 -0.03525,0.26285 -0.03125,0.34375 -0.227893,-0.243679 -0.379641,-0.442143 -0.5,-0.5625 l -1.375,-1.34375 z m -20.5,1.125 -0.25,0.25 1,1.03125 -0.84375,0.03125 c -0.475514,0.01776 -0.818472,0.05989 -1,0.125 -0.181522,0.06511 -0.320098,0.16385 -0.4375,0.28125 -0.176589,0.176591 -0.2559,0.378682 -0.25,0.59375 0.0059,0.215065 0.08986,0.402358 0.28125,0.59375 0.226909,0.226904 0.515899,0.35527 0.875,0.375 l 0.03125,-0.34375 c -0.291031,-0.02072 -0.52965,-0.09215 -0.6875,-0.25 C 20.924708,46.674702 20.872,46.564765 20.875,46.4375 c 9.91e-4,-0.127264 0.07602,-0.263521 0.1875,-0.375 0.124308,-0.124306 0.27275,-0.20758 0.4375,-0.25 0.16377,-0.04144 0.44124,-0.07599 0.84375,-0.09375 l 1.09375,-0.03125 0.21875,-0.25 -1.34375,-1.34375 z m 19.375,0.1875 c -0.208161,0.05229 -0.404013,0.185262 -0.625,0.40625 -0.247622,0.247622 -0.3954,0.488564 -0.40625,0.75 -0.0099,0.26242 0.1129,0.519146 0.34375,0.75 0.196324,0.196317 0.415533,0.29703 0.65625,0.28125 0.240721,-0.01381 0.480324,-0.136577 0.6875,-0.34375 0.100628,-0.100628 0.16417,-0.218461 0.25,-0.34375 l 0.5625,0.6875 L 42.375,47.25 42.625,47.5 43.65625,46.46875 42.71875,45.375 42.5,45.4375 c -0.114443,0.165736 -0.2247,0.2872 -0.3125,0.375 -0.339373,0.339369 -0.647455,0.352543 -0.9375,0.0625 -0.309771,-0.309777 -0.300229,-0.637272 0.03125,-0.96875 0.213095,-0.213095 0.450729,-0.32765 0.6875,-0.375 l -0.28125,-0.25 z m -11.25,3.6875 c -0.50098,0.114907 -0.749998,0.643244 -0.75,1.5625 2e-6,0.509241 0.08397,0.886977 0.25,1.15625 0.164634,0.270664 0.426318,0.406247 0.75,0.40625 0.648763,-3e-6 0.96875,-0.513321 0.96875,-1.5625 0,-0.51064 -0.08537,-0.885584 -0.25,-1.15625 -0.164632,-0.269271 -0.399251,-0.40625 -0.71875,-0.40625 -0.08179,0 -0.178431,-0.01642 -0.25,0 z M 32.28125,48 l 0,0.34375 1.4375,0 0,0.03125 L 33.125,49 c -0.323682,0.348796 -0.51143,0.60685 -0.59375,0.78125 -0.08231,0.174396 -0.124998,0.33397 -0.125,0.5 2e-6,0.249736 0.09374,0.445857 0.25,0.59375 0.156262,0.147885 0.354335,0.218747 0.625,0.21875 0.320894,-3e-6 0.607125,-0.103781 0.875,-0.34375 L 33.9375,50.5 c -0.220439,0.191141 -0.433019,0.281247 -0.65625,0.28125 -0.150679,-3e-6 -0.25585,-0.03292 -0.34375,-0.125 -0.08929,-0.09069 -0.156249,-0.217346 -0.15625,-0.375 10e-7,-0.175796 0.06975,-0.353507 0.15625,-0.5 0.0865,-0.145101 0.25919,-0.359076 0.53125,-0.65625 l 0.71875,-0.8125 0,-0.3125 -1.90625,0 z m -1.59375,0.28125 c 0.202303,-10e-7 0.34263,0.08592 0.4375,0.28125 0.09348,0.195326 0.125001,0.525079 0.125,0.96875 1e-6,0.442272 -0.03152,0.774816 -0.125,0.96875 -0.09487,0.195319 -0.235197,0.281247 -0.4375,0.28125 -0.205091,-3e-6 -0.37248,-0.08453 -0.46875,-0.28125 -0.09626,-0.195329 -0.124998,-0.529268 -0.125,-0.96875 2e-6,-0.442276 0.02873,-0.772029 0.125,-0.96875 0.09627,-0.195329 0.263659,-0.281251 0.46875,-0.28125 z"
     style="font-size:4.28601884999999960px;font-style:normal;font-variant:normal;font-weight:bold;font-stretch:normal;text-align:center;line-height:125%;letter-spacing:0px;word-spacing:0px;text-anchor:middle;fill:none;fill-opacity:1;stroke:#dde2e5;stroke-width:0.50000000000000000;stroke-linejoin:miter;stroke-miterlimit:4;stroke-opacity:1;font-family:Monospace;-inkscape-font-specification:Monospace Bold"
     inkscape:connector-curvature="0" />
  <path
     style="color:#000000;fill:#000000;fill-opacity:0.33781362;fill-rule:nonzero;stroke:none;stroke-width:1;marker:none;visibility:visible;display:inline;overflow:visible;enable-background:accumulate"
     d="M 31.8125 23.5625 L 31.78125 24.625 C 31.853623 24.623351 31.927231 24.625 32 24.625 C 32.062373 24.625 32.125417 24.623787 32.1875 24.625 L 32.21875 23.5625 C 32.145197 23.560971 32.073919 23.5625 32 23.5625 C 31.936641 23.5625 31.875591 23.561376 31.8125 23.5625 z M 30.59375 23.6875 C 30.456872 23.70609 30.322638 23.726156 30.1875 23.75 L 30.34375 24.78125 C 30.481985 24.756437 30.609733 24.737432 30.75 24.71875 L 30.59375 23.6875 z M 33.40625 23.6875 L 33.25 24.71875 C 33.390267 24.737432 33.518015 24.756437 33.65625 24.78125 L 33.8125 23.75 C 33.677362 23.726156 33.543128 23.70609 33.40625 23.6875 z M 29 24 C 28.861276 24.041709 28.729976 24.10899 28.59375 24.15625 L 28.9375 25.15625 C 29.062733 25.112805 29.184918 25.03822 29.3125 25 L 29 24 z M 35 24 L 34.6875 25 C 34.815082 25.03822 34.937267 25.112805 35.0625 25.15625 L 35.375 24.125 C 35.251069 24.082537 35.125986 24.037879 35 24 z M 27.46875 24.59375 C 27.342119 24.65498 27.217468 24.715118 27.09375 24.78125 L 27.59375 25.71875 C 27.718728 25.652078 27.840477 25.592345 27.96875 25.53125 L 27.46875 24.59375 z M 36.53125 24.59375 L 36.03125 25.53125 C 36.168208 25.596482 36.304304 25.647167 36.4375 25.71875 L 36.75 25.03125 L 36.875 24.78125 C 36.759401 24.719861 36.64938 24.650869 36.53125 24.59375 z M 26.0625 25.40625 C 25.950198 25.483934 25.859048 25.574334 25.75 25.65625 L 26.375 26.5 C 26.47533 26.424766 26.584111 26.352498 26.6875 26.28125 L 26.0625 25.40625 z M 37.90625 25.40625 L 37.28125 26.25 C 37.396931 26.328933 37.513115 26.416101 37.625 26.5 L 38.25 25.65625 C 38.13417 25.569239 38.025747 25.488482 37.90625 25.40625 z M 24.8125 26.4375 C 24.707522 26.537389 24.600752 26.645856 24.5 26.75 L 25.28125 27.5 C 25.385754 27.391932 25.484194 27.290457 25.59375 27.1875 L 24.8125 26.4375 z M 39.1875 26.4375 L 38.4375 27.1875 C 38.541087 27.285337 38.619705 27.397577 38.71875 27.5 L 39.46875 26.75 C 39.372621 26.651027 39.287457 26.532612 39.1875 26.4375 z M 23.71875 27.65625 C 23.630499 27.771086 23.55226 27.88146 23.46875 28 L 24.3125 28.625 C 24.396401 28.505108 24.504472 28.396945 24.59375 28.28125 L 23.71875 27.65625 z M 40.28125 27.65625 L 39.40625 28.28125 C 39.486708 28.385515 39.580152 28.486069 39.65625 28.59375 L 40.53125 28 C 40.44774 27.88146 40.369501 27.771086 40.28125 27.65625 z M 41.1875 29 L 40.21875 29.5 C 40.286989 29.624261 40.343562 29.747391 40.40625 29.875 L 41.375 29.40625 C 41.309057 29.272194 41.25895 29.130739 41.1875 29 z M 22.8125 29.03125 C 22.745563 29.15447 22.687056 29.280096 22.625 29.40625 L 23.59375 29.90625 C 23.66027 29.769779 23.708398 29.632662 23.78125 29.5 L 22.8125 29.03125 z M 22.1875 30.5 C 22.138936 30.635809 22.074279 30.767906 22.03125 30.90625 L 23.03125 31.25 C 23.073248 31.113417 23.139508 30.977594 23.1875 30.84375 L 22.1875 30.5 z M 41.84375 30.5 L 40.8125 30.84375 C 40.860492 30.977594 40.926752 31.113417 40.96875 31.25 L 41.96875 30.90625 C 41.926754 30.771229 41.89102 30.632609 41.84375 30.5 z M 21.75 32.09375 C 21.724986 32.228481 21.707284 32.363505 21.6875 32.5 L 22.75 32.65625 C 22.769935 32.517903 22.755343 32.386325 22.78125 32.25 L 21.75 32.09375 z M 42.25 32.09375 L 41.21875 32.25 C 41.246629 32.396701 41.229043 32.538463 41.25 32.6875 L 42.3125 32.53125 C 42.291656 32.384357 42.276894 32.238608 42.25 32.09375 z M 21.59375 33.71875 C 21.591193 33.813793 21.5625 33.90434 21.5625 34 C 21.5625 34.04224 21.562 34.082879 21.5625 34.125 L 22.625 34.15625 C 22.624157 34.104473 22.625 34.051978 22.625 34 C 22.625 33.905769 22.653489 33.812312 22.65625 33.71875 L 21.59375 33.71875 z M 41.34375 33.71875 C 41.346511 33.812312 41.375 33.905769 41.375 34 C 41.375 34.041582 41.37554 34.083546 41.375 34.125 L 42.4375 34.15625 C 42.438281 34.103636 42.4375 34.0528 42.4375 34 C 42.4375 33.90434 42.408807 33.813793 42.40625 33.71875 L 41.34375 33.71875 z M 22.71875 35.1875 L 22.0625 35.28125 L 21.65625 35.34375 C 21.675313 35.491209 21.693598 35.635787 21.71875 35.78125 L 22.78125 35.625 C 22.755059 35.476182 22.737832 35.338649 22.71875 35.1875 z M 41.28125 35.1875 C 41.262168 35.338649 41.244941 35.476182 41.21875 35.625 L 42.28125 35.78125 C 42.306402 35.635787 42.324687 35.491209 42.34375 35.34375 L 41.28125 35.1875 z M 23 36.625 L 22 36.9375 C 22.042863 37.083141 22.076032 37.232082 22.125 37.375 L 22.34375 37.28125 L 23.125 37.03125 C 23.07988 36.899376 23.039332 36.759451 23 36.625 z M 41 36.625 C 40.960668 36.759451 40.92012 36.899376 40.875 37.03125 L 41.875 37.34375 C 41.920434 37.209911 41.959911 37.073717 42 36.9375 L 41.5 36.78125 L 41 36.625 z M 23.53125 38 L 22.59375 38.5 C 22.654646 38.626822 22.715443 38.751083 22.78125 38.875 L 23.71875 38.375 C 23.652451 38.249794 23.591962 38.12849 23.53125 38 z M 40.46875 38 C 40.408038 38.12849 40.347549 38.249794 40.28125 38.375 L 40.65625 38.5625 L 41.25 38.875 C 41.320057 38.742662 41.373045 38.604386 41.4375 38.46875 L 40.46875 38 z M 39.75 39.28125 C 39.671067 39.396931 39.583899 39.513115 39.5 39.625 L 40.34375 40.25 C 40.430761 40.13417 40.511518 40.025747 40.59375 39.90625 L 39.75 39.28125 z M 24.25 39.3125 L 23.40625 39.90625 C 23.488482 40.025747 23.569239 40.13417 23.65625 40.25 L 24.53125 39.625 C 24.448189 39.514698 24.328227 39.426511 24.25 39.3125 z M 25.1875 40.4375 L 24.46875 41.1875 C 24.559272 41.282257 24.655999 41.37745 24.75 41.46875 L 25.5 40.71875 C 25.397577 40.619705 25.285337 40.541087 25.1875 40.4375 z M 38.8125 40.4375 C 38.709784 40.546253 38.607766 40.646259 38.5 40.75 L 39.25 41.5 C 39.354144 41.399248 39.462611 41.292478 39.5625 41.1875 L 38.8125 40.4375 z M 26.3125 41.4375 L 25.65625 42.28125 C 25.771086 42.369501 25.88146 42.44774 26 42.53125 L 26.03125 42.5 L 26.65625 41.6875 C 26.54134 41.607528 26.423581 41.522405 26.3125 41.4375 z M 37.6875 41.4375 C 37.582854 41.517486 37.483048 41.611888 37.375 41.6875 L 38 42.53125 C 38.1116 42.452629 38.20418 42.364077 38.3125 42.28125 L 37.6875 41.4375 z M 27.5 42.25 L 27.25 42.8125 L 27.03125 43.1875 C 27.15447 43.254437 27.280096 43.312944 27.40625 43.375 L 27.90625 42.4375 C 27.770493 42.371568 27.632 42.322195 27.5 42.25 z M 36.46875 42.25 C 36.344336 42.317586 36.221485 42.375464 36.09375 42.4375 L 36.59375 43.375 C 36.719904 43.312944 36.84553 43.254437 36.96875 43.1875 L 36.46875 42.25 z M 28.875 42.84375 L 28.5625 43.84375 C 28.686475 43.887153 28.811438 43.929944 28.9375 43.96875 L 29.28125 42.96875 C 29.147575 42.928119 29.006072 42.89012 28.875 42.84375 z M 35.125 42.84375 C 34.991658 42.890923 34.854785 42.958767 34.71875 43 L 35.0625 43.96875 C 35.197937 43.927058 35.335726 43.890744 35.46875 43.84375 L 35.125 42.84375 z M 30.3125 43.21875 L 30.15625 44.25 C 30.291253 44.274234 30.425749 44.293511 30.5625 44.3125 L 30.71875 43.28125 C 30.578631 43.262101 30.450576 43.24402 30.3125 43.21875 z M 33.6875 43.21875 C 33.549424 43.24402 33.421369 43.262101 33.28125 43.28125 L 33.4375 44.3125 C 33.574251 44.293511 33.708747 44.274234 33.84375 44.25 L 33.6875 43.21875 z M 31.8125 43.375 L 31.78125 44.4375 C 31.854803 44.439029 31.926081 44.4375 32 44.4375 C 32.063359 44.4375 32.124409 44.438624 32.1875 44.4375 L 32.21875 43.375 C 32.146377 43.376649 32.072769 43.375 32 43.375 C 31.937627 43.375 31.874583 43.376213 31.8125 43.375 z "
     id="path15172" />
</svg>
