<?xml version="1.0" encoding="UTF-8" standalone="no"?>
<!-- Created with Inkscape (http://www.inkscape.org/) -->

<svg
   xmlns:dc="http://purl.org/dc/elements/1.1/"
   xmlns:cc="http://creativecommons.org/ns#"
   xmlns:rdf="http://www.w3.org/1999/02/22-rdf-syntax-ns#"
   xmlns:svg="http://www.w3.org/2000/svg"
   xmlns="http://www.w3.org/2000/svg"
   xmlns:xlink="http://www.w3.org/1999/xlink"
   xmlns:sodipodi="http://sodipodi.sourceforge.net/DTD/sodipodi-0.dtd"
   xmlns:inkscape="http://www.inkscape.org/namespaces/inkscape"
   width="64"
   height="64"
   id="svg13094"
   version="1.1"
   inkscape:version="0.48.3.1 r9886"
   sodipodi:docname="winetricks.svg">
  <sodipodi:namedview
     id="base"
     pagecolor="#cbcdd6"
     bordercolor="#666666"
     borderopacity="1.0"
     inkscape:pageopacity="1"
     inkscape:pageshadow="2"
     inkscape:zoom="11.313709"
     inkscape:cx="27.52881"
     inkscape:cy="29.149692"
     inkscape:document-units="px"
     inkscape:current-layer="svg13094"
     showgrid="false"
     inkscape:snap-bbox="true"
     inkscape:bbox-paths="true"
     inkscape:bbox-nodes="true"
     inkscape:snap-bbox-edge-midpoints="true"
     inkscape:snap-bbox-midpoints="true"
     inkscape:object-paths="true"
     inkscape:snap-intersection-paths="true"
     inkscape:object-nodes="true"
     inkscape:snap-smooth-nodes="true"
     inkscape:snap-midpoints="true"
     inkscape:snap-object-midpoints="true"
     inkscape:snap-center="true"
     showguides="false"
     inkscape:guide-bbox="true"
     inkscape:window-width="1920"
     inkscape:window-height="1033"
     inkscape:window-x="-10"
     inkscape:window-y="25"
     inkscape:window-maximized="1"
     inkscape:snap-global="true"
     fit-margin-top="0"
     fit-margin-left="0"
     fit-margin-right="0"
     fit-margin-bottom="0"
     showborder="true"
     inkscape:showpageshadow="false"
     inkscape:snap-page="true">
    <inkscape:grid
       type="xygrid"
       id="grid3075"
       empspacing="5"
       visible="true"
       enabled="true"
       snapvisiblegridlinesonly="true"
       originx="1.6362304e-08px"
       originy="18px" />
    <sodipodi:guide
       orientation="0,1"
       position="-11,30"
       id="guide9148" />
    <sodipodi:guide
       orientation="1,0"
       position="32,70"
       id="guide9150" />
  </sodipodi:namedview>
  <defs
     id="defs13096">
    <linearGradient
       inkscape:collect="always"
       id="linearGradient3887">
      <stop
         style="stop-color:#000000;stop-opacity:0"
         offset="0"
         id="stop3889" />
      <stop
         id="stop3895"
         offset="0.49000007"
         style="stop-color:#000000;stop-opacity:0" />
      <stop
         style="stop-color:#000000;stop-opacity:0.29569891"
         offset="0.7100001"
         id="stop3897" />
      <stop
         style="stop-color:#000000;stop-opacity:0;"
         offset="1"
         id="stop3891" />
    </linearGradient>
    <linearGradient
       id="linearGradient3869">
      <stop
         style="stop-color:#ffffff;stop-opacity:0.34970912;"
         offset="0"
         id="stop3871" />
      <stop
         id="stop3877"
         offset="0.46934858"
         style="stop-color:#783952;stop-opacity:0" />
      <stop
         style="stop-color:#e7ecf0;stop-opacity:0.69101489;"
         offset="1"
         id="stop3873" />
    </linearGradient>
    <linearGradient
       inkscape:collect="always"
       id="linearGradient3854">
      <stop
         style="stop-color:#7e3855;stop-opacity:0"
         offset="0"
         id="stop3856" />
      <stop
         id="stop3862"
         offset="0.6242426"
         style="stop-color:#7e3855;stop-opacity:0" />
      <stop
         style="stop-color:#7e3855;stop-opacity:1"
         offset="1"
         id="stop3858" />
    </linearGradient>
    <linearGradient
       id="linearGradient3826">
      <stop
         style="stop-color:#b13951;stop-opacity:1;"
         offset="0"
         id="stop3828" />
      <stop
         id="stop3958"
         offset="0.5"
         style="stop-color:#9a3949;stop-opacity:1;" />
      <stop
         style="stop-color:#5e2e33;stop-opacity:1;"
         offset="1"
         id="stop3830" />
    </linearGradient>
    <linearGradient
       id="linearGradient3094">
      <stop
         offset="0"
         style="stop-color:#bdc4cf;stop-opacity:1;"
         id="stop3096" />
      <stop
         offset="1"
         style="stop-color:#a1a8ba;stop-opacity:1;"
         id="stop3104" />
    </linearGradient>
    <radialGradient
       inkscape:collect="always"
       xlink:href="#linearGradient3094"
       id="radialGradient3790"
       gradientUnits="userSpaceOnUse"
       gradientTransform="matrix(5.8993944e-8,1.5625002,-1.4375,5.4274422e-8,57.491254,-34.030915)"
       cx="30.739782"
       cy="17.037395"
       fx="30.739782"
       fy="17.037395"
       r="32" />
    <radialGradient
       inkscape:collect="always"
       xlink:href="#linearGradient3826"
       id="radialGradient3832"
       cx="33"
       cy="12.666669"
       fx="33"
       fy="12.666669"
       r="32"
       gradientTransform="matrix(6.981461e-8,1.5625002,-1.4375,6.4229431e-8,51.208334,-37.562505)"
       gradientUnits="userSpaceOnUse" />
    <radialGradient
       inkscape:collect="always"
       xlink:href="#linearGradient3854"
       id="radialGradient3952"
       gradientUnits="userSpaceOnUse"
       gradientTransform="matrix(1.3000386,0,0,1.3000385,-9.5924385,-10.223183)"
       cx="32.874458"
       cy="38.600052"
       fx="32.874458"
       fy="38.600052"
       r="8.8388338" />
    <radialGradient
       inkscape:collect="always"
       xlink:href="#linearGradient3887"
       id="radialGradient3954"
       gradientUnits="userSpaceOnUse"
       cx="31.908192"
       cy="37.571884"
       fx="31.908192"
       fy="37.571884"
       r="8.8388338" />
    <radialGradient
       inkscape:collect="always"
       xlink:href="#linearGradient3869"
       id="radialGradient3956"
       gradientUnits="userSpaceOnUse"
       gradientTransform="matrix(1.1204935,-2.0162974e-8,2.0162975e-8,1.1204935,-3.8299072,-4.8277168)"
       cx="30.790592"
       cy="36.025795"
       fx="30.790592"
       fy="36.025795"
       r="8.8388338" />
    <linearGradient
       inkscape:collect="always"
       id="linearGradient5199">
      <stop
         style="stop-color:#3b434c;stop-opacity:1"
         offset="0"
         id="stop5201" />
      <stop
         style="stop-color:#6d7b8b;stop-opacity:1"
         offset="1"
         id="stop5203" />
    </linearGradient>
    <linearGradient
       id="linearGradient4421">
      <stop
         id="stop4423"
         offset="0"
         style="stop-color:#3b619d;stop-opacity:1" />
      <stop
         id="stop4425"
         offset="1"
         style="stop-color:#418ad1;stop-opacity:1" />
    </linearGradient>
    <linearGradient
       id="linearGradient4763">
      <stop
         style="stop-color:#62c2ff;stop-opacity:1;"
         offset="0"
         id="stop4765" />
      <stop
         id="stop4771"
         offset="0.5"
         style="stop-color:#55abff;stop-opacity:0.49803922;" />
      <stop
         style="stop-color:#55abff;stop-opacity:0;"
         offset="1"
         id="stop4767" />
    </linearGradient>
    <linearGradient
       id="linearGradient4181">
      <stop
         style="stop-color:#131e27;stop-opacity:0.93859082;"
         offset="0"
         id="stop4183" />
      <stop
         id="stop4185"
         offset="0.40826604"
         style="stop-color:#131e27;stop-opacity:0.5455721;" />
      <stop
         style="stop-color:#131e27;stop-opacity:0;"
         offset="1"
         id="stop4187" />
    </linearGradient>
    <linearGradient
       id="linearGradient4429">
      <stop
         id="stop4431"
         offset="0"
         style="stop-color:#9ac8f6;stop-opacity:1" />
      <stop
         style="stop-color:#6fa9e2;stop-opacity:1"
         offset="0.28217158"
         id="stop4433" />
      <stop
         id="stop4435"
         offset="1"
         style="stop-color:#4e72a9;stop-opacity:1" />
    </linearGradient>
    <linearGradient
       id="linearGradient4449">
      <stop
         style="stop-color:#4e72a9;stop-opacity:1"
         offset="0"
         id="stop4451" />
      <stop
         style="stop-color:#8dbef0;stop-opacity:1"
         offset="1"
         id="stop4453" />
    </linearGradient>
    <radialGradient
       inkscape:collect="always"
       xlink:href="#linearGradient4181"
       id="radialGradient4391"
       gradientUnits="userSpaceOnUse"
       gradientTransform="matrix(9.1382209e-8,1.7071061,-1.5253817,8.1654414e-8,94.702823,16.976669)"
       cx="19.091883"
       cy="49.568542"
       fx="19.091883"
       fy="49.568542"
       r="7" />
    <radialGradient
       inkscape:collect="always"
       xlink:href="#linearGradient3823"
       id="radialGradient4393"
       gradientUnits="userSpaceOnUse"
       gradientTransform="matrix(1.2193623,1.2193623,-0.85714249,0.85714249,6.1402817,-47.6031)"
       cx="40.726189"
       cy="17.933647"
       fx="40.726189"
       fy="17.933647"
       r="5" />
    <linearGradient
       id="linearGradient3823">
      <stop
         style="stop-color:#dce0e4;stop-opacity:1"
         offset="0"
         id="stop3825" />
      <stop
         id="stop4989"
         offset="0.28217158"
         style="stop-color:#c2c8cf;stop-opacity:1;" />
      <stop
         style="stop-color:#6c7a8c;stop-opacity:1;"
         offset="1"
         id="stop3827" />
    </linearGradient>
    <linearGradient
       inkscape:collect="always"
       xlink:href="#linearGradient4991"
       id="linearGradient4395"
       gradientUnits="userSpaceOnUse"
       x1="41"
       y1="18"
       x2="47.535534"
       y2="24.535534" />
    <linearGradient
       inkscape:collect="always"
       id="linearGradient4991">
      <stop
         style="stop-color:#6f7d90;stop-opacity:1;"
         offset="0"
         id="stop4993" />
      <stop
         style="stop-color:#818d9e;stop-opacity:1"
         offset="1"
         id="stop4995" />
    </linearGradient>
    <linearGradient
       inkscape:collect="always"
       xlink:href="#linearGradient5199"
       id="linearGradient4389"
       gradientUnits="userSpaceOnUse"
       gradientTransform="translate(0,15)"
       x1="29"
       y1="16"
       x2="29"
       y2="20" />
    <linearGradient
       inkscape:collect="always"
       xlink:href="#linearGradient5199"
       id="linearGradient3220"
       gradientUnits="userSpaceOnUse"
       gradientTransform="translate(0,-2)"
       x1="29"
       y1="16"
       x2="29"
       y2="20" />
    <linearGradient
       inkscape:collect="always"
       xlink:href="#linearGradient4421"
       id="linearGradient3222"
       gradientUnits="userSpaceOnUse"
       gradientTransform="translate(0,-2)"
       x1="29"
       y1="16"
       x2="29"
       y2="20" />
    <radialGradient
       inkscape:collect="always"
       xlink:href="#linearGradient4763"
       id="radialGradient3224"
       gradientUnits="userSpaceOnUse"
       gradientTransform="matrix(1,0,0,0.11428571,0,14.171429)"
       cx="26.5"
       cy="16"
       fx="26.5"
       fy="16"
       r="17.5" />
    <radialGradient
       inkscape:collect="always"
       xlink:href="#linearGradient4181"
       id="radialGradient3226"
       gradientUnits="userSpaceOnUse"
       gradientTransform="matrix(9.1382209e-8,1.7071061,-1.5253817,8.1654414e-8,94.702823,16.976669)"
       cx="19.091883"
       cy="49.568542"
       fx="19.091883"
       fy="49.568542"
       r="7" />
    <radialGradient
       inkscape:collect="always"
       xlink:href="#linearGradient4429"
       id="radialGradient3228"
       gradientUnits="userSpaceOnUse"
       gradientTransform="matrix(1.2193623,1.2193623,-0.85714249,0.85714249,6.1402817,-47.6031)"
       cx="40.726189"
       cy="17.933647"
       fx="40.726189"
       fy="17.933647"
       r="5" />
    <linearGradient
       inkscape:collect="always"
       xlink:href="#linearGradient4449"
       id="linearGradient3230"
       gradientUnits="userSpaceOnUse"
       x1="41"
       y1="18"
       x2="47.535534"
       y2="24.535534" />
    <linearGradient
       inkscape:collect="always"
       xlink:href="#linearGradient5199"
       id="linearGradient4011"
       gradientUnits="userSpaceOnUse"
       gradientTransform="translate(0,15)"
       x1="29"
       y1="16"
       x2="29"
       y2="20" />
    <radialGradient
       inkscape:collect="always"
       xlink:href="#linearGradient4181"
       id="radialGradient4013"
       gradientUnits="userSpaceOnUse"
       gradientTransform="matrix(9.1382209e-8,1.7071061,-1.5253817,8.1654414e-8,94.702823,16.976669)"
       cx="19.091883"
       cy="49.568542"
       fx="19.091883"
       fy="49.568542"
       r="7" />
    <radialGradient
       inkscape:collect="always"
       xlink:href="#linearGradient3823"
       id="radialGradient4015"
       gradientUnits="userSpaceOnUse"
       gradientTransform="matrix(1.2193623,1.2193623,-0.85714249,0.85714249,6.1402817,-47.6031)"
       cx="40.726189"
       cy="17.933647"
       fx="40.726189"
       fy="17.933647"
       r="5" />
    <linearGradient
       inkscape:collect="always"
       xlink:href="#linearGradient4991"
       id="linearGradient4017"
       gradientUnits="userSpaceOnUse"
       x1="41"
       y1="18"
       x2="47.535534"
       y2="24.535534" />
  </defs>
  <metadata
     id="metadata13099">
    <rdf:RDF>
      <cc:Work
         rdf:about="">
        <dc:format>image/svg+xml</dc:format>
        <dc:type
           rdf:resource="http://purl.org/dc/dcmitype/StillImage" />
        <dc:title />
      </cc:Work>
    </rdf:RDF>
  </metadata>
  <path
     inkscape:connector-curvature="0"
     style="color:#000000;fill:url(#radialGradient3790);fill-opacity:1;fill-rule:nonzero;stroke:none;stroke-width:2.28571415000000000;marker:none;visibility:visible;display:inline;overflow:visible;enable-background:accumulate"
     d="m 0,4 0,30 0,28 2,2 30,0 30,0 2,-2 L 64,34 64,4 32,4 0,4 z"
     id="path3788" />
  <path
     id="path3792"
     d="M 2,0 0,1 0,4 19.5625,4 39.125,4 64,4 64,1 62,0 39.125,0 19.5625,0 2,0 z"
     style="color:#000000;fill:#e7ecf0;fill-opacity:1;fill-rule:nonzero;stroke:none;marker:none;visibility:visible;display:inline;overflow:visible;enable-background:accumulate"
     inkscape:connector-curvature="0" />
  <path
     d="M 64,6 62,4 64,3 z"
     id="path3028"
     style="fill:#000000;fill-opacity:0.10215054"
     inkscape:connector-curvature="0" />
  <g
     id="g3043"
     inkscape:export-filename="folder.png"
     inkscape:export-xdpi="90"
     inkscape:export-ydpi="90"
     transform="translate(-0.62500009,0.082283)" />
  <g
     id="scalable"
     transform="matrix(1.0385892,0,0,1.0385892,1214.7222,1878.8121)"
     inkscape:label="#g3701"
     style="fill:#ffffff" />
  <path
     style="fill:#ffffff;fill-opacity:0.16077739;fill-rule:nonzero"
     d="M 0 3 L 0 6 L 2 4 L 32 4 L 62 4 L 64 3 L 32 3 L 0 3 z "
     id="path4298" />
  <path
     style="fill:#000000;fill-opacity:0.10215054;fill-rule:nonzero"
     d="M 2 0 L 0 1 L 32 1 L 64 1 L 62 0 L 32 0 L 2 0 z "
     id="path4444" />
  <path
     style="fill:#000000;fill-opacity:0.10215054;fill-rule:nonzero"
     d="M 63 0.5 L 63 34 L 63 63 L 64 62 L 64 34 L 64 1 L 63 0.5 z M 63 63 L 32 63 L 1 63 L 2 64 L 32 64 L 62 64 L 63 63 z "
     id="path4366" />
  <path
     style="fill:#ffffff;fill-opacity:0.30107528;fill-rule:nonzero"
     d="M 0 1 L 0 34 L 0 62 L 1 63 L 1 34 L 1 5 L 2 4 L 1 3.46875 L 1 1 L 0 1 z "
     id="path3864" />
  <path
     style="fill:#d88790;fill-opacity:1;stroke:none"
     d="M 41.28125 0 L 41.28125 4 L 64 4 L 64 1 L 62 0 L 41.28125 0 z "
     id="path3814" />
  <path
     style="fill:url(#radialGradient3832);fill-opacity:1;stroke:none"
     d="m 41.28125,4 0,0.125 c 0.06746,0.024975 0.120458,0.068662 0.1875,0.09375 0.03011,0.00606 0.06368,-0.00615 0.09375,0 C 53.082168,6.5760153 62.069728,15.861813 64,27.53125 L 64,4 z M 0,41.15546 0,62 l 2,2 30,0 30,0 2,-2 0,-25.0625 C 61.757833,50.492496 49.992858,61.348824 35.8125,60.8125 17.653275,60.125689 6.8474091,49.034935 0,41.15546 z"
     id="path3011"
     inkscape:connector-curvature="0"
     sodipodi:nodetypes="cccsccccccccccsc" />
  <g
     id="g3813"
     transform="translate(1.6362314e-8,8)">
    <rect
       style="color:#000000;fill:url(#linearGradient3220);fill-opacity:1;fill-rule:nonzero;stroke:none;stroke-width:2;marker:none;visibility:visible;display:inline;overflow:visible;enable-background:accumulate"
       id="rect4415"
       width="46"
       height="4"
       x="9"
       y="14"
       rx="1.9999999"
       ry="2" />
    <path
       style="color:#000000;fill:url(#linearGradient3222);fill-opacity:1;fill-rule:nonzero;stroke:none;stroke-width:2;marker:none;visibility:visible;display:inline;overflow:visible;enable-background:accumulate"
       d="m 11,14 31,0 c 1.108,0 2,0.892 2,2 0,1.108 -0.892,2 -2,2 L 11,18 C 9.8919999,18 9,17.108 9,16 9,14.892 9.8919999,14 11,14 z"
       id="rect4455"
       inkscape:connector-curvature="0"
       sodipodi:nodetypes="sssssss" />
    <path
       style="color:#000000;fill:url(#radialGradient3224);fill-opacity:1;fill-rule:nonzero;stroke:none;stroke-width:2;marker:none;visibility:visible;display:inline;overflow:visible;enable-background:accumulate"
       d="m 11,14 31,0 c 1.108,0 2,0.892 2,2 0,1.108 -0.892,2 -2,2 L 11,18 C 9.8919999,18 9,17.108 9,16 9,14.892 9.8919999,14 11,14 z"
       id="rect4189"
       inkscape:connector-curvature="0"
       sodipodi:nodetypes="sssssss" />
    <path
       style="color:#000000;fill:#ffffff;fill-opacity:0.50985664;fill-rule:nonzero;stroke:none;stroke-width:2;marker:none;visibility:visible;display:inline;overflow:visible;enable-background:accumulate"
       d="M 54.8125,15.1875 C 54.924027,15.437121 55,15.708003 55,16 c 0,1.108 -0.892,2 -2,2 L 11,18 C 10.708003,18 10.437121,17.92403 10.1875,17.8125 10.49917,18.510083 11.183997,19 12,19 l 42,0 c 1.108,0 2,-0.892 2,-2 0,-0.816003 -0.489917,-1.50083 -1.1875,-1.8125 z"
       id="rect3805"
       inkscape:connector-curvature="0" />
    <g
       id="g4236"
       transform="translate(1,-2)">
      <rect
         inkscape:transform-center-x="-2.8284257"
         transform="matrix(0.70710678,-0.70710678,0.70710678,0.70710678,0,0)"
         inkscape:transform-center-y="2.8284263"
         ry="7"
         rx="7"
         y="37.547726"
         x="12.091883"
         height="24.041634"
         width="14"
         id="rect5301"
         style="color:#000000;fill:url(#radialGradient3226);fill-opacity:1;fill-rule:nonzero;stroke:none;stroke-width:2;marker:none;visibility:visible;display:inline;overflow:visible;enable-background:accumulate" />
      <path
         sodipodi:type="arc"
         style="color:#000000;fill:url(#radialGradient3228);fill-opacity:1;fill-rule:nonzero;stroke:none;stroke-width:2;marker:none;visibility:visible;display:inline;overflow:visible;enable-background:accumulate"
         id="path3821"
         sodipodi:cx="44"
         sodipodi:cy="21"
         sodipodi:rx="5"
         sodipodi:ry="5"
         d="m 49,21 c 0,2.761424 -2.238576,5 -5,5 -2.761424,0 -5,-2.238576 -5,-5 0,-2.761424 2.238576,-5 5,-5 2.761424,0 5,2.238576 5,5 z"
         transform="matrix(1.4,0,0,1.4,-16.6,-11.4)" />
      <path
         transform="translate(1,-3)"
         d="m 49,21 c 0,2.761424 -2.238576,5 -5,5 -2.761424,0 -5,-2.238576 -5,-5 0,-2.761424 2.238576,-5 5,-5 2.761424,0 5,2.238576 5,5 z"
         sodipodi:ry="5"
         sodipodi:rx="5"
         sodipodi:cy="21"
         sodipodi:cx="44"
         id="path3807"
         style="color:#000000;fill:url(#linearGradient3230);fill-opacity:1;fill-rule:nonzero;stroke:none;stroke-width:2;marker:none;visibility:visible;display:inline;overflow:visible;enable-background:accumulate"
         sodipodi:type="arc" />
    </g>
  </g>
  <g
     id="g4003"
     transform="translate(1.6362314e-8,8)">
    <rect
       ry="2"
       rx="1.9999999"
       y="31"
       x="9"
       height="4"
       width="46"
       id="rect4377"
       style="color:#000000;fill:url(#linearGradient4011);fill-opacity:1;fill-rule:nonzero;stroke:none;stroke-width:2;marker:none;visibility:visible;display:inline;overflow:visible;enable-background:accumulate" />
    <path
       style="color:#000000;fill:#ffffff;fill-opacity:0.50985664;fill-rule:nonzero;stroke:none;stroke-width:2;marker:none;visibility:visible;display:inline;overflow:visible;enable-background:accumulate"
       d="M 54.8125,32.1875 C 54.924027,32.437121 55,32.708003 55,33 c 0,1.108 -0.892,2 -2,2 L 11,35 C 10.708003,35 10.437121,34.92403 10.1875,34.8125 10.49917,35.510083 11.183997,36 12,36 l 42,0 c 1.108,0 2,-0.892 2,-2 0,-0.816003 -0.489917,-1.50083 -1.1875,-1.8125 z"
       id="path4379"
       inkscape:connector-curvature="0" />
    <g
       id="g4381"
       transform="translate(-27,15)">
      <rect
         inkscape:transform-center-x="-2.8284257"
         transform="matrix(0.70710678,-0.70710678,0.70710678,0.70710678,0,0)"
         inkscape:transform-center-y="2.8284263"
         ry="7"
         rx="7"
         y="37.547726"
         x="12.091883"
         height="24.041634"
         width="14"
         id="rect4383"
         style="color:#000000;fill:url(#radialGradient4013);fill-opacity:1;fill-rule:nonzero;stroke:none;stroke-width:2;marker:none;visibility:visible;display:inline;overflow:visible;enable-background:accumulate" />
      <path
         sodipodi:type="arc"
         style="color:#000000;fill:url(#radialGradient4015);fill-opacity:1;fill-rule:nonzero;stroke:none;stroke-width:2;marker:none;visibility:visible;display:inline;overflow:visible;enable-background:accumulate"
         id="path4385"
         sodipodi:cx="44"
         sodipodi:cy="21"
         sodipodi:rx="5"
         sodipodi:ry="5"
         d="m 49,21 c 0,2.761424 -2.238576,5 -5,5 -2.761424,0 -5,-2.238576 -5,-5 0,-2.761424 2.238576,-5 5,-5 2.761424,0 5,2.238576 5,5 z"
         transform="matrix(1.4,0,0,1.4,-16.6,-11.4)" />
      <path
         transform="translate(1,-3)"
         d="m 49,21 c 0,2.761424 -2.238576,5 -5,5 -2.761424,0 -5,-2.238576 -5,-5 0,-2.761424 2.238576,-5 5,-5 2.761424,0 5,2.238576 5,5 z"
         sodipodi:ry="5"
         sodipodi:rx="5"
         sodipodi:cy="21"
         sodipodi:cx="44"
         id="path4387"
         style="color:#000000;fill:url(#linearGradient4017);fill-opacity:1;fill-rule:nonzero;stroke:none;stroke-width:2;marker:none;visibility:visible;display:inline;overflow:visible;enable-background:accumulate"
         sodipodi:type="arc" />
    </g>
  </g>
</svg>
