<?xml version="1.0" encoding="UTF-8" standalone="no"?>
<!-- Created with Inkscape (http://www.inkscape.org/) -->

<svg
   xmlns:dc="http://purl.org/dc/elements/1.1/"
   xmlns:cc="http://creativecommons.org/ns#"
   xmlns:rdf="http://www.w3.org/1999/02/22-rdf-syntax-ns#"
   xmlns:svg="http://www.w3.org/2000/svg"
   xmlns="http://www.w3.org/2000/svg"
   xmlns:sodipodi="http://sodipodi.sourceforge.net/DTD/sodipodi-0.dtd"
   xmlns:inkscape="http://www.inkscape.org/namespaces/inkscape"
   width="16"
   height="16"
   id="svg27665"
   version="1.1"
   inkscape:version="0.48.3.1 r9886"
   sodipodi:docname="firefox-3.0.svg">
  <defs
     id="defs27667" />
  <sodipodi:namedview
     id="base"
     pagecolor="#ffffff"
     bordercolor="#666666"
     borderopacity="1.0"
     inkscape:pageopacity="0.0"
     inkscape:pageshadow="2"
     inkscape:zoom="32"
     inkscape:cx="11.282417"
     inkscape:cy="9.329208"
     inkscape:document-units="px"
     inkscape:current-layer="layer1"
     showgrid="true"
     inkscape:window-width="1920"
     inkscape:window-height="1032"
     inkscape:window-x="-7"
     inkscape:window-y="25"
     inkscape:window-maximized="1"
     inkscape:snap-bbox="true"
     inkscape:bbox-paths="true"
     inkscape:bbox-nodes="true"
     inkscape:snap-bbox-edge-midpoints="true"
     inkscape:snap-bbox-midpoints="true"
     inkscape:object-paths="true"
     inkscape:snap-intersection-paths="true"
     inkscape:object-nodes="true"
     inkscape:snap-smooth-nodes="true"
     inkscape:snap-midpoints="true"
     inkscape:snap-object-midpoints="true"
     inkscape:snap-center="true"
     inkscape:snap-global="true"
     showguides="false"
     inkscape:guide-bbox="true"
     fit-margin-top="0"
     fit-margin-left="0"
     fit-margin-right="0"
     fit-margin-bottom="0"
     inkscape:showpageshadow="false">
    <sodipodi:guide
       orientation="0,1"
       position="595.99999,295.99993"
       id="guide3572" />
    <sodipodi:guide
       orientation="1,0"
       position="290.41949,8.121716"
       id="guide3574" />
    <sodipodi:guide
       orientation="0,1"
       position="452.04389,595.99992"
       id="guide3576" />
    <sodipodi:guide
       orientation="0,1"
       position="-4.0000029,-4.0000844"
       id="guide3578" />
    <sodipodi:guide
       orientation="1,0"
       position="-4.0000029,153.58366"
       id="guide3580" />
    <sodipodi:guide
       orientation="1,0"
       position="595.99999,117.21821"
       id="guide3582" />
    <sodipodi:guide
       orientation="0,1"
       position="595.99999,-718.34359"
       id="guide5928" />
    <sodipodi:guide
       orientation="0,1"
       position="595.99999,-418.34359"
       id="guide5930" />
    <sodipodi:guide
       orientation="0,1"
       position="595.99999,-1018.3435"
       id="guide5932" />
    <sodipodi:guide
       orientation="0,1"
       position="447.57029,520.99606"
       id="guide5294" />
    <sodipodi:guide
       orientation="0,1"
       position="447.57029,71.013516"
       id="guide5296" />
    <sodipodi:guide
       orientation="0,1"
       position="492.01499,-935.36409"
       id="guide5413" />
    <sodipodi:guide
       orientation="0,1"
       position="453.34859,-493.34389"
       id="guide5415" />
    <inkscape:grid
       type="xygrid"
       id="grid3070"
       empspacing="5"
       visible="true"
       enabled="true"
       snapvisiblegridlinesonly="true"
       originx="-3.9999568px"
       originy="-4.0000269px" />
  </sodipodi:namedview>
  <metadata
     id="metadata27670">
    <rdf:RDF>
      <cc:Work
         rdf:about="">
        <dc:format>image/svg+xml</dc:format>
        <dc:type
           rdf:resource="http://purl.org/dc/dcmitype/StillImage" />
        <dc:title />
      </cc:Work>
    </rdf:RDF>
  </metadata>
  <g
     inkscape:label="Camada 1"
     inkscape:groupmode="layer"
     id="layer1"
     transform="translate(3360.4171,-2096.7186)">
    <path
       style="fill:#434a55;fill-opacity:0.6745098;fill-rule:nonzero;stroke:none"
       id="path2999"
       d="m -3352.4171,2097.7186 c -1.5439,0 -2.9678,0.4979 -4.125,1.3438 0.048,0.129 0.1081,0.2629 0.125,0.375 0.025,0.1662 -0.01,0.1081 0,0.2187 l 0.6562,0.094 c 0.9577,-0.6469 2.1012,-1.0313 3.3438,-1.0313 0.927,0 1.81,0.2184 2.5937,0.5938 0.1437,-0.3547 0.496,-0.6448 0.875,-0.6875 -1.0208,-0.5818 -2.2091,-0.9063 -3.4687,-0.9063 z m -5.9063,0.9375 c -0.6081,1.0275 0.084,2.1471 -0.1875,2.625 -0.5751,1.0124 -0.9062,2.1896 -0.9062,3.4375 0,3.8675 3.1326,7 7,7 3.8674,0 7,-3.1325 7,-7 0,-1.9981 -0.8458,-3.7873 -2.1875,-5.0625 l -0.375,-0.2187 0.4687,0.9375 -1.375,-0.75 0.7188,1.375 -1.2188,-0.375 c 0.9836,0.7903 1.625,1.9834 1.625,3.3437 0,2.3823 -1.9302,4.3125 -4.3125,4.3125 -0.9813,0 -1.8691,-0.3544 -2.5937,-0.9062 l 0.4687,0.1875 0.094,-0.1875 1.2812,-0.2188 1.9063,-0.875 0.031,-0.5625 -2.4687,0.062 -1.5313,-0.5312 -0.1562,-0.5625 1.1875,-0.2813 -0.1563,-0.9375 1.5313,-0.8125 -0.1563,-0.8125 -1.75,-0.3437 0.75,-1.5625 c 0.1433,-0.095 0.2586,-0.1973 0.375,-0.25 -0.6182,0.066 -1.2877,0.082 -2.4687,0.9687 l -1.5625,-0.031 c -0.3004,-0.6669 0.3132,-1.4625 -1.0313,-1.9688 z"
       inkscape:connector-curvature="0" />
    <path
       style="font-size:medium;font-style:normal;font-variant:normal;font-weight:normal;font-stretch:normal;text-indent:0;text-align:start;text-decoration:none;line-height:normal;letter-spacing:normal;word-spacing:normal;text-transform:none;direction:ltr;block-progression:tb;writing-mode:lr-tb;text-anchor:start;baseline-shift:baseline;color:#000000;fill:#d1d4d6;fill-opacity:0.74329164000000003;fill-rule:nonzero;stroke:none;stroke-width:2;marker:none;visibility:visible;display:inline;overflow:visible;enable-background:accumulate;font-family:Sans;-inkscape-font-specification:Sans"
       d="M 9.0625 -0.84375 L 9.28125 -0.40625 L 8.375 -0.40625 L 8.15625 -0.53125 L 8.21875 -0.40625 L 8 -0.40625 C 6.2542 -0.40625 4.62735 0.17665 3.28125 1.09375 C 3.04595 0.93055 2.8401 0.7295 2.5625 0.625 L 0.6875 -0.09375 L 0.6875 1.78125 C 0.4406 2.49555 0.40825 3.20765 0.46875 3.65625 C 0.50475 3.92475 0.5525 4.0987 0.5625 4.1875 C 0.5631 4.1975 0.5622 4.21475 0.5625 4.21875 C -0.0227 5.36185 -0.40625 6.6327 -0.40625 8 C -0.40625 12.6234 3.3766 16.40625 8 16.40625 C 12.6233 16.40625 16.375 12.6234 16.375 8 C 16.375 6.0633 15.6043 4.38635 14.5 2.96875 L 15.875 2.8125 L 12.15625 0.6875 C 11.69585 0.4251 11.16515 0.26445 10.65625 0.09375 L 9.0625 -0.84375 z M 8 1 C 9.2596 1 10.44795 1.32445 11.46875 1.90625 C 11.08975 1.94895 10.73745 2.23905 10.59375 2.59375 C 9.81005 2.21835 8.927 2 8 2 C 6.7574 2 5.61395 2.38435 4.65625 3.03125 L 4 2.9375 C 3.99 2.8269 4.025 2.88495 4 2.71875 C 3.9831 2.60665 3.923 2.47275 3.875 2.34375 C 5.0322 1.49785 6.4561 1 8 1 z M 2.09375 1.9375 C 3.43825 2.4438 2.8246 3.23935 3.125 3.90625 L 4.6875 3.9375 C 5.8685 3.0508 6.53805 3.03475 7.15625 2.96875 C 7.03985 3.02145 6.92455 3.12375 6.78125 3.21875 L 6.03125 4.78125 L 7.78125 5.125 L 7.9375 5.9375 L 6.40625 6.75 L 6.5625 7.6875 L 5.375 7.96875 L 5.53125 8.53125 L 7.0625 9.0625 L 9.53125 9 L 9.5 9.5625 L 7.59375 10.4375 L 6.3125 10.65625 L 6.21875 10.84375 L 5.75 10.65625 C 6.4746 11.20805 7.36245 11.5625 8.34375 11.5625 C 10.72605 11.5625 12.65625 9.6323 12.65625 7.25 C 12.65625 5.8897 12.01485 4.69655 11.03125 3.90625 L 12.25 4.28125 L 11.53125 2.90625 L 12.90625 3.65625 L 12.4375 2.71875 L 12.8125 2.9375 C 14.1542 4.2127 15 6.0019 15 8 C 15 11.8675 11.8674 15 8 15 C 4.1326 15 1 11.8675 1 8 C 1 6.7521 1.33115 5.5749 1.90625 4.5625 C 2.17775 4.0846 1.48565 2.965 2.09375 1.9375 z M 8 3.40625 C 8.7071 3.40625 9.36375 3.55395 9.96875 3.84375 L 10.59375 4.15625 L 10.15625 5 C 10.83515 5.5455 11.25 6.3297 11.25 7.25 C 11.25 7.5104 11.03085 7.66715 10.96875 7.90625 L 11 7.5625 L 9.5 7.59375 L 7.96875 7.625 L 7.9375 7.53125 L 8.59375 7.1875 L 9.5 6.6875 L 9.3125 5.6875 L 9.15625 4.875 L 8.96875 3.9375 L 8.03125 3.75 L 7.8125 3.71875 L 7.53125 3.59375 L 7.53125 3.5625 C 7.70085 3.5435 7.8241 3.40625 8 3.40625 z "
       transform="translate(-3360.4171,2096.7186)"
       id="path3893" />
  </g>
</svg>
