<?xml version="1.0" encoding="UTF-8" standalone="no"?>
<!-- Created with Inkscape (http://www.inkscape.org/) -->

<svg
   xmlns:dc="http://purl.org/dc/elements/1.1/"
   xmlns:cc="http://creativecommons.org/ns#"
   xmlns:rdf="http://www.w3.org/1999/02/22-rdf-syntax-ns#"
   xmlns:svg="http://www.w3.org/2000/svg"
   xmlns="http://www.w3.org/2000/svg"
   xmlns:sodipodi="http://sodipodi.sourceforge.net/DTD/sodipodi-0.dtd"
   xmlns:inkscape="http://www.inkscape.org/namespaces/inkscape"
   id="svg13094"
   height="22"
   width="22"
   version="1.1"
   inkscape:version="0.48.3.1 r9886"
   sodipodi:docname="folder-apple.svg">
  <sodipodi:namedview
     pagecolor="#ffffff"
     bordercolor="#666666"
     borderopacity="1"
     objecttolerance="10"
     gridtolerance="10"
     guidetolerance="10"
     inkscape:pageopacity="0"
     inkscape:pageshadow="2"
     inkscape:window-width="1920"
     inkscape:window-height="1023"
     id="namedview2995"
     showgrid="true"
     inkscape:zoom="29.5"
     inkscape:cx="8.5829649"
     inkscape:cy="12.280576"
     inkscape:window-x="-10"
     inkscape:window-y="35"
     inkscape:window-maximized="1"
     inkscape:current-layer="svg13094"
     inkscape:snap-bbox="true"
     inkscape:bbox-paths="true"
     inkscape:bbox-nodes="true"
     inkscape:snap-bbox-edge-midpoints="true"
     inkscape:snap-bbox-midpoints="true"
     inkscape:object-paths="true"
     inkscape:snap-intersection-paths="true"
     inkscape:object-nodes="true"
     inkscape:snap-smooth-nodes="true"
     inkscape:snap-midpoints="true"
     inkscape:snap-object-midpoints="true"
     inkscape:snap-center="true">
    <inkscape:grid
       type="xygrid"
       id="grid2982"
       empspacing="5"
       visible="true"
       enabled="true"
       snapvisiblegridlinesonly="true" />
  </sodipodi:namedview>
  <defs
     id="defs13" />
  <metadata
     id="metadata13099">
    <rdf:RDF>
      <cc:Work
         rdf:about="">
        <dc:format>image/svg+xml</dc:format>
        <dc:type
           rdf:resource="http://purl.org/dc/dcmitype/StillImage" />
        <dc:title />
      </cc:Work>
    </rdf:RDF>
  </metadata>
  <path
     sodipodi:nodetypes="ccssssssssccssc"
     id="path2996"
     d="M 8.1133867,18.862361 C 6.8516065,18.475327 5.0886448,15.849968 4.4471206,13.40264 3.2044546,8.662045 6.3491192,4.6654285 10.106323,6.2102534 c 1.029056,0.4231103 1.110436,0.4241433 2.326361,0.029536 2.180489,-0.7076421 4.188948,-0.2540728 4.89158,1.1046615 0.21392,0.4136781 0.184531,0.4924932 -0.411441,1.1034501 -1.542209,1.580981 -1.386609,4.034714 0.333193,5.254348 0.730419,0.517991 0.75524,0.799397 0.180274,2.043836 -1.279665,2.769671 -2.579629,3.56823 -4.698924,2.886527 -1.082454,-0.348189 -1.510897,-0.331988 -2.763473,0.104489 -0.906187,0.315772 -1.1709866,0.333697 -1.8505063,0.125265 z M 10.950499,5.9622198 c -0.526624,-0.803728 0.763545,-2.9687147 2.167784,-3.637682 1.387975,-0.66122 1.764946,-0.3289502 1.307409,1.1523774 -0.524699,1.6987799 -2.884684,3.3865368 -3.475193,2.4853046 z"
     style="color:#000000;fill:#434a54;fill-opacity:0.6745098;fill-rule:nonzero;stroke:none;stroke-width:1;marker:none;visibility:visible;display:inline;overflow:visible;enable-background:accumulate"
     inkscape:connector-curvature="0" />
</svg>
