<?xml version="1.0" encoding="UTF-8" standalone="no"?>
<!-- Created with Inkscape (http://www.inkscape.org/) -->

<svg
   xmlns:dc="http://purl.org/dc/elements/1.1/"
   xmlns:cc="http://creativecommons.org/ns#"
   xmlns:rdf="http://www.w3.org/1999/02/22-rdf-syntax-ns#"
   xmlns:svg="http://www.w3.org/2000/svg"
   xmlns="http://www.w3.org/2000/svg"
   xmlns:sodipodi="http://sodipodi.sourceforge.net/DTD/sodipodi-0.dtd"
   xmlns:inkscape="http://www.inkscape.org/namespaces/inkscape"
   width="16.000042"
   height="16.000013"
   id="svg27665"
   version="1.1"
   inkscape:version="0.48.3.1 r9886"
   sodipodi:docname="goa-account-google.svg">
  <defs
     id="defs27667" />
  <sodipodi:namedview
     id="base"
     pagecolor="#ffffff"
     bordercolor="#666666"
     borderopacity="1.0"
     inkscape:pageopacity="0.0"
     inkscape:pageshadow="2"
     inkscape:zoom="45.254834"
     inkscape:cx="7.888172"
     inkscape:cy="7.2397344"
     inkscape:document-units="px"
     inkscape:current-layer="layer1"
     showgrid="true"
     inkscape:window-width="1920"
     inkscape:window-height="1033"
     inkscape:window-x="-10"
     inkscape:window-y="25"
     inkscape:window-maximized="1"
     inkscape:snap-bbox="true"
     inkscape:bbox-paths="true"
     inkscape:bbox-nodes="true"
     inkscape:snap-bbox-edge-midpoints="true"
     inkscape:snap-bbox-midpoints="true"
     inkscape:object-paths="true"
     inkscape:snap-intersection-paths="true"
     inkscape:object-nodes="true"
     inkscape:snap-smooth-nodes="true"
     inkscape:snap-midpoints="true"
     inkscape:snap-object-midpoints="true"
     inkscape:snap-center="true"
     inkscape:snap-global="true"
     showguides="false"
     inkscape:guide-bbox="true"
     fit-margin-top="0"
     fit-margin-left="0"
     fit-margin-right="0"
     fit-margin-bottom="0"
     inkscape:showpageshadow="false">
    <sodipodi:guide
       orientation="0,1"
       position="-1440.7659,2520.4813"
       id="guide4179" />
    <sodipodi:guide
       orientation="1,0"
       position="-1438.623,2517.6242"
       id="guide4181" />
    <inkscape:grid
       type="xygrid"
       id="grid3296"
       empspacing="5"
       visible="true"
       enabled="true"
       snapvisiblegridlinesonly="true"
       originx="-91.999777px"
       originy="1268px" />
    <sodipodi:guide
       orientation="1,0"
       position="420.00022,1778"
       id="guide3432" />
    <sodipodi:guide
       orientation="0,1"
       position="364.0002,-118"
       id="guide3434" />
    <sodipodi:guide
       orientation="1,0"
       position="-91.999777,1778"
       id="guide4416" />
    <sodipodi:guide
       orientation="1,0"
       position="599.00024,-118"
       id="guide4418" />
    <sodipodi:guide
       orientation="0,1"
       position="364.00021,117"
       id="guide4420" />
    <sodipodi:guide
       orientation="0,1"
       position="-91.999777,1778"
       id="guide3391" />
    <sodipodi:guide
       orientation="0,1"
       position="198.00022,1763"
       id="guide3393" />
    <sodipodi:guide
       orientation="0,1"
       position="233.00022,1281"
       id="guide3395" />
    <sodipodi:guide
       orientation="1,0"
       position="405.00022,1521"
       id="guide3397" />
    <sodipodi:guide
       orientation="1,0"
       position="-76.999775,1521"
       id="guide3399" />
    <sodipodi:guide
       orientation="1,0"
       position="-66.999775,1521"
       id="guide3401" />
    <sodipodi:guide
       orientation="1,0"
       position="395.00022,1537"
       id="guide3403" />
    <sodipodi:guide
       orientation="0,1"
       position="193.00022,1753"
       id="guide3405" />
    <sodipodi:guide
       orientation="0,1"
       position="163.00022,1291"
       id="guide3407" />
  </sodipodi:namedview>
  <metadata
     id="metadata27670">
    <rdf:RDF>
      <cc:Work
         rdf:about="">
        <dc:format>image/svg+xml</dc:format>
        <dc:type
           rdf:resource="http://purl.org/dc/dcmitype/StillImage" />
        <dc:title />
      </cc:Work>
    </rdf:RDF>
  </metadata>
  <g
     inkscape:label="Camada 1"
     inkscape:groupmode="layer"
     id="layer1"
     transform="translate(3446.7083,-3647.6863)">
    <path
       inkscape:connector-curvature="0"
       style="fill:#434a55;fill-opacity:0.6745098;fill-rule:nonzero;stroke:none"
       d="m -3445.7081,3648.6863 0,3.2396 c 0.049,-0.048 0.1189,-0.1008 0.1702,-0.1459 1.1188,-0.9261 2.325,-1.0742 3.3542,-1.0937 l 4.1562,0 -0.6806,0.7778 -1.5555,0 c 0.4817,0.4177 1.1424,0.826 1.1424,2.1562 0,1.4572 -0.7798,2.1463 -1.6042,2.7952 -0.2551,0.2556 -0.316,0.5383 -0.316,0.9722 0,0.4329 0.052,0.673 0.2674,0.8507 l 0.7292,0.559 c 1.2779,1.0797 1.9927,1.557 1.993,2.9167 0,0.3641 -0.052,0.6955 -0.1702,0.9722 l 6.5139,0 0,-14 z m 1,4.6667 c 0,1.6314 0.569,2.5278 1.8438,2.5278 0.4904,0 0.9897,-0.1183 1.3125,-0.4862 0.3683,-0.4217 0.5104,-0.9797 0.5104,-1.2638 0,-3.3389 -3.6667,-2.7111 -3.6667,-0.7778 z m -1,2.9409 0,3.2813 c 0.8889,-0.7109 2.3611,-0.7272 3.1111,-0.7778 -0.2751,-0.3551 -0.5103,-0.3863 -0.5103,-0.9965 0,-0.335 0.096,-0.5411 0.1944,-0.7778 -0.2165,0.019 -0.4354,0.048 -0.6319,0.048 -0.8905,0 -1.6253,-0.3305 -2.1633,-0.7778 z m 0,4.8369 0,1.5555 6.3438,0 c -0.01,-1.4162 -1.2121,-2.9336 -2.3438,-3 -1.822,0.027 -3.2869,0.5343 -4,1.4445 z"
       id="path3000"
       sodipodi:nodetypes="cccccccscsccccccccsccccccscsccccccc" />
    <path
       style="font-size:medium;font-style:normal;font-variant:normal;font-weight:normal;font-stretch:normal;text-indent:0;text-align:start;text-decoration:none;line-height:normal;letter-spacing:normal;word-spacing:normal;text-transform:none;direction:ltr;block-progression:tb;writing-mode:lr-tb;text-anchor:start;baseline-shift:baseline;color:#000000;fill:#d1d4d6;fill-opacity:0.74329164;fill-rule:nonzero;stroke:none;stroke-width:2;marker:none;visibility:visible;display:inline;overflow:visible;enable-background:accumulate;font-family:Sans;-inkscape-font-specification:Sans"
       d="M 0,0 0,1 0,4.25 0,6.46875 0,6.625 0,8.59375 0,11.875 0,13.09375 0,13.4375 0,13.96875 0,15 l 0,1 1,0 5.96875,0 0.375,0 1.03125,0 0.125,0 6.5,0 1,0 0,-1 L 16,1 16,0 15,0 1,0 z m 1,1 14,0 0,14 -6.5,0 c 0.1182,-0.2767 0.15625,-0.60465 0.15625,-0.96875 -3e-4,-1.3597 -0.7221,-1.82655 -2,-2.90625 L 5.9375,10.5625 C 5.7221,10.3848 5.65625,10.1204 5.65625,9.6875 c 0,-0.4339 0.0574,-0.71315 0.3125,-0.96875 0.8244,-0.6489 1.625,-1.32405 1.625,-2.78125 0,-1.3302 -0.67455,-1.73855 -1.15625,-2.15625 L 8,3.78125 8.6875,3 4.53125,3 C 3.50205,3.0195 2.27505,3.16765 1.15625,4.09375 1.10495,4.13885 1.049,4.202 1,4.25 z m 2.5,3.09375 c 1.0151459,-0.1584097 2.15625,0.4656187 2.15625,2.34375 0,0.2841 -0.1317,0.85955 -0.5,1.28125 C 4.83345,8.08665 4.33415,8.1875 3.84375,8.1875 2.56895,8.1875 2,7.28765 2,5.65625 2,4.8104312 2.710442,4.2169575 3.5,4.09375 z m -2.5,4.5 C 1.538,9.04105 2.26575,9.375 3.15625,9.375 c 0.1965,0 0.4085,-0.01225 0.625,-0.03125 -0.0984,0.2367 -0.1875,0.44625 -0.1875,0.78125 0,0.6102 0.25615,0.6449 0.53125,1 C 3.375,11.1756 1.8889,11.1641 1,11.875 z M 5,12 c 1.1317,0.0664 2.33375,1.5838 2.34375,3 L 1,15 1,13.4375 C 1.7131,12.5273 3.178,12.027 5,12 z"
       transform="translate(-3446.7083,3647.6863)"
       id="path7867"
       inkscape:connector-curvature="0"
       sodipodi:nodetypes="ccccccccccccccccccccccccccccccccscscccccccsscssscscscccccccc" />
  </g>
</svg>
