<?xml version="1.0" encoding="UTF-8" standalone="no"?>
<!-- Created with Inkscape (http://www.inkscape.org/) -->

<svg
   xmlns:dc="http://purl.org/dc/elements/1.1/"
   xmlns:cc="http://creativecommons.org/ns#"
   xmlns:rdf="http://www.w3.org/1999/02/22-rdf-syntax-ns#"
   xmlns:svg="http://www.w3.org/2000/svg"
   xmlns="http://www.w3.org/2000/svg"
   xmlns:sodipodi="http://sodipodi.sourceforge.net/DTD/sodipodi-0.dtd"
   xmlns:inkscape="http://www.inkscape.org/namespaces/inkscape"
   width="16.000128"
   height="16.000059"
   id="svg13094"
   version="1.1"
   inkscape:version="0.48.3.1 r9886"
   sodipodi:docname="configure.svg">
  <sodipodi:namedview
     id="base"
     pagecolor="#ffffff"
     bordercolor="#666666"
     borderopacity="1.0"
     inkscape:pageopacity="0.0"
     inkscape:pageshadow="2"
     inkscape:zoom="32.000001"
     inkscape:cx="6.0323324"
     inkscape:cy="7.6048887"
     inkscape:document-units="px"
     inkscape:current-layer="layer1"
     showgrid="true"
     inkscape:snap-bbox="true"
     inkscape:bbox-paths="true"
     inkscape:bbox-nodes="true"
     inkscape:snap-bbox-edge-midpoints="true"
     inkscape:snap-bbox-midpoints="true"
     inkscape:object-paths="true"
     inkscape:snap-intersection-paths="true"
     inkscape:object-nodes="true"
     inkscape:snap-smooth-nodes="true"
     inkscape:snap-midpoints="true"
     inkscape:snap-object-midpoints="true"
     inkscape:snap-center="true"
     showguides="false"
     inkscape:guide-bbox="true"
     inkscape:window-width="1920"
     inkscape:window-height="1032"
     inkscape:window-x="-7"
     inkscape:window-y="25"
     inkscape:window-maximized="1"
     inkscape:snap-global="false"
     fit-margin-top="0"
     fit-margin-left="0"
     fit-margin-right="0"
     fit-margin-bottom="0"
     showborder="true"
     inkscape:showpageshadow="false">
    <sodipodi:guide
       id="guide16149"
       position="6601.5878,647.00745"
       orientation="0,1" />
    <sodipodi:guide
       id="guide16151"
       position="6374.4449,597.99875"
       orientation="0,1" />
    <sodipodi:guide
       id="guide16153"
       position="6440.1591,622.50305"
       orientation="0,1" />
    <sodipodi:guide
       id="guide17725"
       position="6433.7306,542.35585"
       orientation="0,1" />
    <sodipodi:guide
       id="guide9456"
       position="6931.2289,150.48606"
       orientation="1,0" />
    <sodipodi:guide
       id="guide9458"
       position="6755.4789,515.53501"
       orientation="0,1" />
    <sodipodi:guide
       id="guide9468"
       position="6526.7092,460.6296"
       orientation="0,1" />
    <sodipodi:guide
       id="guide9470"
       position="6551.2289,481.99958"
       orientation="0,1" />
    <sodipodi:guide
       id="guide11159"
       position="6419.2289,196.00006"
       orientation="1,0" />
    <sodipodi:guide
       id="guide13980"
       position="6732.2601,460.03461"
       orientation="1,0" />
    <sodipodi:guide
       orientation="0,1"
       position="4878.229,-914.9999"
       id="guide3972" />
    <sodipodi:guide
       orientation="1,0"
       position="5058.229,-1042.9999"
       id="guide3974" />
    <sodipodi:guide
       orientation="0,1"
       position="4752.229,-1277.9998"
       id="guide3976" />
    <sodipodi:guide
       orientation="1,0"
       position="4725.229,-1136.9999"
       id="guide3978" />
    <sodipodi:guide
       orientation="1,0"
       position="74.999929,328.00006"
       id="guide4287" />
    <sodipodi:guide
       orientation="0,1"
       position="74.999929,328.00006"
       id="guide4289" />
    <inkscape:grid
       type="xygrid"
       id="grid3248"
       empspacing="5"
       visible="true"
       enabled="true"
       snapvisiblegridlinesonly="true"
       originx="9.7771128e-05px"
       originy="11.000061px" />
  </sodipodi:namedview>
  <defs
     id="defs13096" />
  <metadata
     id="metadata13099">
    <rdf:RDF>
      <cc:Work
         rdf:about="">
        <dc:format>image/svg+xml</dc:format>
        <dc:type
           rdf:resource="http://purl.org/dc/dcmitype/StillImage" />
        <dc:title />
      </cc:Work>
    </rdf:RDF>
  </metadata>
  <g
     transform="translate(8065.8735,-502.93229)"
     id="layer1"
     inkscape:groupmode="layer"
     inkscape:label="Camada 1">
    <path
       style="color:#000000;fill:#434a54;fill-opacity:0.6745098;fill-rule:nonzero;stroke:none;stroke-width:2;marker:none;visibility:visible;display:inline;overflow:visible;enable-background:accumulate"
       d="M 7.125 0.9375 C 7.01805 0.93941667 6.9244809 1.002964 6.84375 1.0625 C 6.8261998 1.0754426 6.7974189 1.0786943 6.78125 1.09375 C 6.7329375 1.1422775 6.6906094 1.2186613 6.65625 1.28125 C 6.6218906 1.3438387 6.58075 1.398485 6.5625 1.46875 L 6.25 3.03125 C 5.6076 3.25457 5.03395 3.56281 4.53125 4 L 3.0625 3.5 C 2.8389 3.4291 2.4684 3.4488 2.3125 3.71875 L 1.4375 5.25 C 1.3027 5.49435 1.4183 5.7646 1.625 5.96875 L 2.8125 6.96875 C 2.7495 7.29643 2.71875 7.65376 2.71875 8 C 2.71875 8.17312 2.73035 8.36078 2.75 8.53125 C 2.765556 8.6999531 2.7818607 8.8718865 2.8125 9.03125 L 1.625 10.03125 C 1.494875 10.149945 1.3651609 10.328235 1.375 10.53125 C 1.3747959 10.540634 1.3746113 10.553063 1.375 10.5625 C 1.3814351 10.62145 1.4036943 10.69143 1.4375 10.75 L 2.3125 12.28125 C 2.348575 12.340988 2.3823063 12.399784 2.4375 12.4375 C 2.4428034 12.441259 2.4632916 12.433972 2.46875 12.4375 C 2.5175827 12.466863 2.5678588 12.485367 2.625 12.5 C 2.6998238 12.519509 2.7614567 12.536084 2.84375 12.53125 C 2.9159187 12.529485 2.992475 12.519225 3.0625 12.5 L 4.53125 12 C 5.03395 12.43719 5.6076 12.74543 6.25 12.96875 L 6.5625 14.53125 C 6.575 14.58852 6.5953719 14.658963 6.625 14.71875 C 6.7172031 14.900378 6.8913 15.0625 7.125 15.0625 L 8.875 15.0625 C 9.0145 15.06 9.1251 15.00129 9.21875 14.90625 C 9.2670625 14.857722 9.3093906 14.781339 9.34375 14.71875 C 9.3770125 14.656917 9.4192 14.601515 9.4375 14.53125 L 9.71875 12.96875 C 9.7277654 12.965616 9.7410055 12.971926 9.75 12.96875 C 10.382014 12.74559 10.973104 12.431055 11.46875 12 L 12.9375 12.5 C 13.041314 12.532871 13.181533 12.55336 13.3125 12.53125 C 13.381719 12.519603 13.471708 12.473755 13.53125 12.4375 C 13.585386 12.402676 13.618809 12.339195 13.65625 12.28125 L 14.5625 10.75 C 14.6299 10.627825 14.632937 10.497923 14.59375 10.375 C 14.555862 10.251375 14.47835 10.133325 14.375 10.03125 L 14.34375 10.03125 L 13.1875 9.03125 C 13.2515 8.70357 13.28125 8.34624 13.28125 8 C 13.28125 7.8221499 13.26643 7.6469308 13.25 7.46875 C 13.23035 7.29828 13.2191 7.13259 13.1875 6.96875 L 14.34375 5.96875 C 14.4304 5.88962 14.547763 5.7817125 14.59375 5.65625 C 14.619031 5.5848358 14.633394 5.5143905 14.625 5.4375 C 14.622223 5.3700922 14.60145 5.31748 14.5625 5.25 L 13.65625 3.71875 C 13.620175 3.6590125 13.585834 3.5977812 13.53125 3.5625 C 13.422081 3.4919375 13.299369 3.4603425 13.15625 3.46875 C 13.084081 3.4705148 13.007525 3.480775 12.9375 3.5 L 11.46875 4 C 10.973104 3.5689446 10.382014 3.2544099 9.75 3.03125 C 9.7410055 3.0280741 9.7277654 3.0343836 9.71875 3.03125 L 9.4375 1.46875 C 9.3875 1.23967 9.1866 0.9375 8.875 0.9375 L 7.125 0.9375 z M 8 5 C 9.6568542 5 11 6.3431458 11 8 C 11 9.6568542 9.6568542 11 8 11 C 6.3431458 11 5 9.6568542 5 8 C 5 6.3431458 6.3431458 5 8 5 z M 8 6.3125 C 7.1845173 6.3125 6.5011031 6.8872849 6.34375 7.65625 C 6.321271 7.7661022 6.3125 7.8835025 6.3125 8 C 6.3125 8.8154827 6.8872849 9.4988969 7.65625 9.65625 C 7.7661022 9.678729 7.8835025 9.6875 8 9.6875 C 8.9319802 9.6875 9.6875 8.9319802 9.6875 8 C 9.6875 7.0680198 8.9319802 6.3125 8 6.3125 z "
       transform="translate(-8065.8735,502.93229)"
       id="path3809" />
    <path
       id="path3803"
       d="m -8058.7797,502.68229 c -0.4719,0.009 -0.875,0.19323 -1.1563,0.46875 -0.2813,0.27552 -0.4471,0.61574 -0.5312,0.9375 -8e-4,0.0104 -8e-4,0.0208 0,0.0312 -8e-4,0.0104 -8e-4,0.0208 0,0.0312 l 0,0.0312 0,0.0312 -0.1875,0.96875 c -0.2798,0.13266 -0.5522,0.29569 -0.8125,0.46875 l -0.9375,-0.34375 c -0.01,-8.1e-4 -0.021,-8.1e-4 -0.031,0 -0.019,-0.006 -0.044,0.006 -0.062,0 -0.2617,-0.0755 -0.5576,-0.12119 -0.9062,-0.0625 -0.4002,0.0673 -0.9038,0.32102 -1.1875,0.8125 l -0.8125,1.4375 -0.031,0.0312 c -0.011,0.009 -0.022,0.0197 -0.031,0.0312 -8e-4,0.0104 -8e-4,0.0208 0,0.0312 -0.01,-8.1e-4 -0.021,-8.1e-4 -0.031,0 -0.2395,0.43411 -0.2154,0.96047 -0.094,1.34375 0.1164,0.36536 0.3264,0.6416 0.5312,0.84375 0.01,8.1e-4 0.021,8.1e-4 0.031,0 0.01,0.0115 0.02,0.022 0.031,0.0312 0.01,8.1e-4 0.021,8.1e-4 0.031,0 l 0.6875,0.625 c -0.022,0.15181 -0.062,0.30928 -0.062,0.5 0,0.19072 0.042,0.34819 0.062,0.5 l -0.6563,0.59375 -0.031,0 c -0.011,0.009 -0.022,0.0198 -0.031,0.0312 -0.01,-8.1e-4 -0.021,-8.1e-4 -0.031,0 -8e-4,0.0104 -8e-4,0.0208 0,0.0312 -0.01,-8.1e-4 -0.021,-8.1e-4 -0.031,0 -8e-4,0.0104 -8e-4,0.0208 0,0.0312 -0.011,0.009 -0.022,0.0198 -0.031,0.0312 -8e-4,0.0104 -8e-4,0.0208 0,0.0312 -0.1723,0.16341 -0.3813,0.36337 -0.5,0.6875 -0.1448,0.39477 -0.1458,0.93718 0.125,1.40625 l 0.875,1.5 0,0.0312 c 0.01,0.0115 0.02,0.0221 0.031,0.0312 0.2652,0.43934 0.703,0.69905 1.0938,0.78125 0.3567,0.075 0.6706,0.007 0.9375,-0.0625 l 0.031,0 0.031,0 c 0.01,8.1e-4 0.021,8.1e-4 0.031,0 0.01,8.1e-4 0.021,8.1e-4 0.031,0 l 0.9375,-0.34375 c 0.2603,0.17306 0.5327,0.33609 0.8125,0.46875 l 0.1875,0.96875 0,0.0312 c -8e-4,0.0104 -8e-4,0.0208 0,0.0312 0.068,0.30858 0.1838,0.59466 0.4375,0.875 0.2664,0.29446 0.7338,0.59375 1.2812,0.59375 l 1.75,0 0.031,0 c 0.4716,-0.009 0.8748,-0.19342 1.1562,-0.46875 0.2814,-0.27533 0.4472,-0.61482 0.5313,-0.9375 8e-4,-0.0104 8e-4,-0.0208 0,-0.0312 8e-4,-0.0104 8e-4,-0.0208 0,-0.0312 l 0,-0.0312 0,-0.0312 0.1875,-0.96875 c 0.2797,-0.13267 0.5521,-0.29569 0.8125,-0.46875 l 0.9375,0.34375 c 0.01,8.1e-4 0.021,8.1e-4 0.031,0 0.01,8.1e-4 0.021,8.1e-4 0.031,0 0.01,0.003 0.022,-0.003 0.031,0 0.2617,0.0755 0.5576,0.1212 0.9063,0.0625 0.4001,-0.0673 0.9037,-0.32107 1.1875,-0.8125 l 0.8125,-1.4375 c 0.011,-0.009 0.022,-0.0197 0.031,-0.0312 0.011,-0.009 0.022,-0.0197 0.031,-0.0312 8e-4,-0.0104 8e-4,-0.0208 0,-0.0312 0.01,8.1e-4 0.021,8.1e-4 0.031,0 0.2394,-0.43402 0.2155,-0.96039 0.094,-1.34375 -0.1165,-0.3653 -0.3262,-0.64147 -0.5313,-0.84375 -0.01,-8.1e-4 -0.021,-8.1e-4 -0.031,0 -0.01,-0.0115 -0.02,-0.022 -0.031,-0.0312 l -0.031,0 -0.6875,-0.625 c 0.021,-0.15181 0.062,-0.30928 0.062,-0.5 0,-0.19072 -0.042,-0.34819 -0.062,-0.5 l 0.6562,-0.59375 0.062,-0.0312 c 0.01,8.1e-4 0.021,8.1e-4 0.031,0 8e-4,-0.0104 8e-4,-0.0208 0,-0.0312 0.01,-0.009 0.022,-0.0225 0.031,-0.0312 0.01,8.1e-4 0.021,8.1e-4 0.031,0 l 0,-0.0312 c 8e-4,-0.0104 8e-4,-0.0208 0,-0.0312 0.1721,-0.16339 0.3811,-0.36339 0.5,-0.6875 0.1446,-0.39474 0.1456,-0.93719 -0.125,-1.40625 l -0.875,-1.5 c 8e-4,-0.0104 8e-4,-0.0208 0,-0.0312 -0.01,-0.0115 -0.02,-0.0221 -0.031,-0.0312 -0.2652,-0.43928 -0.703,-0.69905 -1.0937,-0.78125 -0.3568,-0.075 -0.6707,-0.007 -0.9375,0.0625 -0.018,0.005 -0.046,-0.005 -0.062,0 -0.01,-8.1e-4 -0.021,-8.1e-4 -0.031,0 -0.01,-8.1e-4 -0.021,-8.1e-4 -0.031,0 l -0.9375,0.34375 c -0.2604,-0.17306 -0.5328,-0.33608 -0.8125,-0.46875 l -0.1875,-0.96875 0,-0.0312 c 8e-4,-0.0104 8e-4,-0.0208 0,-0.0312 -0.068,-0.30858 -0.1839,-0.59466 -0.4375,-0.875 -0.2665,-0.29446 -0.7339,-0.59375 -1.2813,-0.59375 l -1.75,0 -0.031,0 z m 0.031,1.1875 1.75,0 c 0.3116,0 0.5125,0.30217 0.5625,0.53125 l 0.3125,1.5625 c 0.6425,0.22332 1.2161,0.53156 1.7188,0.96875 l 1.4687,-0.5 c 0.2801,-0.0769 0.6057,-0.0202 0.75,0.21875 l 0.875,1.53125 c 0.1558,0.26992 -0.014,0.56049 -0.1875,0.71875 l -1.1875,1 c 0.063,0.32768 0.094,0.68501 0.094,1.03125 0,0.34624 -0.03,0.70357 -0.094,1.03125 l 1.1875,1 c 0.2067,0.20415 0.3223,0.4744 0.1875,0.71875 l -0.875,1.53125 c -0.1559,0.26995 -0.5264,0.28955 -0.75,0.21875 l -1.4687,-0.5 c -0.5027,0.43719 -1.0763,0.74543 -1.7188,0.96875 l -0.3125,1.5625 c -0.073,0.28106 -0.2835,0.52625 -0.5625,0.53125 l -1.75,0 c -0.3116,0 -0.5125,-0.30217 -0.5625,-0.53125 l -0.3125,-1.5625 c -0.6424,-0.22332 -1.216,-0.53156 -1.7187,-0.96875 l -1.4688,0.5 c -0.2801,0.0769 -0.6057,0.0202 -0.75,-0.21875 l -0.875,-1.53125 c -0.1558,-0.26993 0.014,-0.56049 0.1875,-0.71875 l 1.1875,-1 c -0.063,-0.32768 -0.094,-0.68501 -0.094,-1.03125 0,-0.34624 0.031,-0.70357 0.094,-1.03125 l -1.1875,-1 c -0.2067,-0.20415 -0.3223,-0.4744 -0.1875,-0.71875 l 0.875,-1.53125 c 0.1559,-0.26995 0.5264,-0.28965 0.75,-0.21875 l 1.4688,0.5 c 0.5027,-0.43719 1.0763,-0.74543 1.7187,-0.96875 l 0.3125,-1.5625 c 0.073,-0.28106 0.2835,-0.52625 0.5625,-0.53125 z m 0.875,4.0625 c -1.6569,0 -3,1.34315 -3,3 0,1.65685 1.3431,3 3,3 1.6569,0 3,-1.34315 3,-3 0,-1.65685 -1.3431,-3 -3,-3 z m 0,1.3125 c 0.932,0 1.6875,0.75552 1.6875,1.6875 0,0.93198 -0.7555,1.6875 -1.6875,1.6875 -0.932,0 -1.6875,-0.75552 -1.6875,-1.6875 0,-0.93198 0.7555,-1.6875 1.6875,-1.6875 z"
       style="font-size:medium;font-style:normal;font-variant:normal;font-weight:normal;font-stretch:normal;text-indent:0;text-align:start;text-decoration:none;line-height:normal;letter-spacing:normal;word-spacing:normal;text-transform:none;direction:ltr;block-progression:tb;writing-mode:lr-tb;text-anchor:start;baseline-shift:baseline;color:#000000;fill:#d1d4d6;fill-opacity:0.74329164000000003;fill-rule:nonzero;stroke:none;stroke-width:2;marker:none;visibility:visible;display:inline;overflow:visible;enable-background:accumulate;font-family:Sans;-inkscape-font-specification:Sans"
       inkscape:connector-curvature="0" />
  </g>
</svg>
