<?xml version="1.0" encoding="UTF-8" standalone="no"?>
<!-- Created with Inkscape (http://www.inkscape.org/) -->

<svg
   xmlns:dc="http://purl.org/dc/elements/1.1/"
   xmlns:cc="http://creativecommons.org/ns#"
   xmlns:rdf="http://www.w3.org/1999/02/22-rdf-syntax-ns#"
   xmlns:svg="http://www.w3.org/2000/svg"
   xmlns="http://www.w3.org/2000/svg"
   xmlns:sodipodi="http://sodipodi.sourceforge.net/DTD/sodipodi-0.dtd"
   xmlns:inkscape="http://www.inkscape.org/namespaces/inkscape"
   width="16"
   height="16"
   id="svg27665"
   version="1.1"
   inkscape:version="0.48.3.1 r9886"
   sodipodi:docname="virtualbox.svg">
  <defs
     id="defs27667" />
  <sodipodi:namedview
     id="base"
     pagecolor="#ffffff"
     bordercolor="#666666"
     borderopacity="1.0"
     inkscape:pageopacity="0.0"
     inkscape:pageshadow="2"
     inkscape:zoom="32"
     inkscape:cx="7.120824"
     inkscape:cy="8.6344948"
     inkscape:document-units="px"
     inkscape:current-layer="layer1"
     showgrid="true"
     inkscape:window-width="1920"
     inkscape:window-height="1033"
     inkscape:window-x="-10"
     inkscape:window-y="25"
     inkscape:window-maximized="1"
     inkscape:snap-bbox="true"
     inkscape:bbox-paths="true"
     inkscape:bbox-nodes="true"
     inkscape:snap-bbox-edge-midpoints="true"
     inkscape:snap-bbox-midpoints="true"
     inkscape:object-paths="true"
     inkscape:snap-intersection-paths="true"
     inkscape:object-nodes="true"
     inkscape:snap-smooth-nodes="true"
     inkscape:snap-midpoints="true"
     inkscape:snap-object-midpoints="true"
     inkscape:snap-center="true"
     inkscape:snap-global="true"
     showguides="false"
     inkscape:guide-bbox="true"
     fit-margin-top="0"
     fit-margin-left="0"
     fit-margin-right="0"
     fit-margin-bottom="0"
     inkscape:showpageshadow="false">
    <sodipodi:guide
       orientation="0,1"
       position="599.99999,299.99993"
       id="guide3572" />
    <sodipodi:guide
       orientation="1,0"
       position="294.41949,12.121716"
       id="guide3574" />
    <sodipodi:guide
       orientation="0,1"
       position="456.04389,599.99992"
       id="guide3576" />
    <sodipodi:guide
       orientation="0,1"
       position="-2.8882813e-06,-8.4406273e-05"
       id="guide3578" />
    <sodipodi:guide
       orientation="1,0"
       position="-2.8882813e-06,157.58366"
       id="guide3580" />
    <sodipodi:guide
       orientation="1,0"
       position="599.99999,121.21821"
       id="guide3582" />
    <sodipodi:guide
       orientation="0,1"
       position="599.99999,-714.34359"
       id="guide5928" />
    <sodipodi:guide
       orientation="0,1"
       position="599.99999,-414.34359"
       id="guide5930" />
    <sodipodi:guide
       orientation="0,1"
       position="599.99999,-1014.3435"
       id="guide5932" />
    <sodipodi:guide
       orientation="0,1"
       position="451.57029,524.99606"
       id="guide5294" />
    <sodipodi:guide
       orientation="0,1"
       position="451.57029,75.013516"
       id="guide5296" />
    <sodipodi:guide
       orientation="0,1"
       position="496.01499,-931.36409"
       id="guide5413" />
    <sodipodi:guide
       orientation="0,1"
       position="457.34859,-489.34389"
       id="guide5415" />
    <inkscape:grid
       type="xygrid"
       id="grid3070"
       empspacing="5"
       visible="true"
       enabled="true"
       snapvisiblegridlinesonly="true"
       originx="4.3243213e-05px"
       originy="-2.6947047e-05px" />
  </sodipodi:namedview>
  <metadata
     id="metadata27670">
    <rdf:RDF>
      <cc:Work
         rdf:about="">
        <dc:format>image/svg+xml</dc:format>
        <dc:type
           rdf:resource="http://purl.org/dc/dcmitype/StillImage" />
        <dc:title />
      </cc:Work>
    </rdf:RDF>
  </metadata>
  <g
     inkscape:label="Camada 1"
     inkscape:groupmode="layer"
     id="layer1"
     transform="translate(3364.4171,-2100.7186)">
    <path
       id="path2998"
       d="m -3364.4171,2101.7186 0,14 16,0 0,-14 -16,0 z m 7,1 1,0 0,1 2,0 0,-1 1,0 0,1 -0.5,0 -0.5625,1.4375 -0.9063,2.3125 -0.75,-2.2812 -0.4687,-1.4688 -0.6875,0 -0.4375,1.5 -1.3125,4.4688 -1.0938,-2.5625 -0.2187,-0.5 -0.5625,0 -1.5,0 0,-2.9063 5,0 0,-1 z m 4.0312,1 2.9688,0 0,5.9063 -0.9063,0 -1.5625,-4.4375 -0.5,-1.4688 z m -0.3437,4.2188 1,2.8125 0.1875,0.5625 0.625,0 1.5,0 0,2.4062 -8,0 0,1 -1,0 0,-1 -3,0 0,-5.4062 0.9375,0 1.7812,4.25 0.5,1.1562 0.7188,0 0.375,-1.25 1.2187,-4.1562 0.6563,1.9375 0.75,2.2187 0.8437,-2.1875 0.9063,-2.3437 z"
       style="color:#000000;fill:#434a55;fill-opacity:0.6745098;fill-rule:nonzero;stroke:none;stroke-width:2.28571415;marker:none;visibility:visible;display:inline;overflow:visible;enable-background:accumulate"
       inkscape:connector-curvature="0" />
    <path
       style="font-size:medium;font-style:normal;font-variant:normal;font-weight:normal;font-stretch:normal;text-indent:0;text-align:start;text-decoration:none;line-height:normal;letter-spacing:normal;word-spacing:normal;text-transform:none;direction:ltr;block-progression:tb;writing-mode:lr-tb;text-anchor:start;baseline-shift:baseline;color:#000000;fill:#d1d4d6;fill-opacity:0.74329164;fill-rule:nonzero;stroke:none;stroke-width:2;marker:none;visibility:visible;display:inline;overflow:visible;enable-background:accumulate;font-family:Sans;-inkscape-font-specification:Sans"
       d="m -1,0 0,1 0,14 0,1 1,0 16,0 1,0 0,-1 L 17,1 17,0 16,0 0,0 z m 1,1 16,0 0,14 -16,0 z m 7,1 0,1 -5,0 0,2.90625 1.5,0 0.5625,0 0.21875,0.5 L 5.375,8.96875 6.6875,4.5 7.125,3 7.8125,3 8.28125,4.46875 9.03125,6.75 9.9375,4.4375 10.5,3 11,3 11,2 10,2 10,3 8,3 8,2 z m 4.03125,1 0.5,1.46875 1.5625,4.4375 0.90625,0 L 14,3 z M 2,3 5.78125,3 5.71875,4.21875 5.1875,6 4.96875,5.5 l -0.25,-0.59375 -0.65625,0 -1.5625,0 -0.5,0 z M 12.15625,3 14,3 14,7.875 12.46875,4.15625 12.21875,3.125 z M 10.6875,7.21875 9.78125,9.5625 8.9375,11.75 8.1875,9.53125 7.53125,7.59375 6.3125,11.75 5.9375,13 5.21875,13 4.71875,11.84375 2.9375,7.59375 2,7.59375 2,13 l 3,0 0,1 1,0 0,-1 8,0 0,-2.40625 -1.5,0 -0.625,0 -0.1875,-0.5625 z m -0.03125,2.875 0.09375,0.25 0,0.03125 0.1875,0.53125 0.21875,0.6875 0.71875,0 0.625,0 1.5,0 L 14,13 9.6875,13 z M 2,8.59375 3.9375,13 2,13 z M 7.625,10.90625 8.21875,13 7.03125,13 z"
       transform="translate(-3364.4171,2100.7186)"
       id="rect3794"
       inkscape:connector-curvature="0"
       sodipodi:nodetypes="ccccccccccccccccccccccccccccccccccccccccccccccccccccccccccccccccccccccccccccccccccccccccccccccccccccccc" />
  </g>
</svg>
