<?xml version="1.0" encoding="UTF-8" standalone="no"?>
<!-- Created with Inkscape (http://www.inkscape.org/) -->

<svg
   xmlns:dc="http://purl.org/dc/elements/1.1/"
   xmlns:cc="http://creativecommons.org/ns#"
   xmlns:rdf="http://www.w3.org/1999/02/22-rdf-syntax-ns#"
   xmlns:svg="http://www.w3.org/2000/svg"
   xmlns="http://www.w3.org/2000/svg"
   xmlns:sodipodi="http://sodipodi.sourceforge.net/DTD/sodipodi-0.dtd"
   xmlns:inkscape="http://www.inkscape.org/namespaces/inkscape"
   width="16"
   height="16"
   id="svg27665"
   version="1.1"
   inkscape:version="0.48.3.1 r9886"
   sodipodi:docname="1CD8_rundll32.0.svg">
  <defs
     id="defs27667" />
  <sodipodi:namedview
     id="base"
     pagecolor="#ffffff"
     bordercolor="#666666"
     borderopacity="1.0"
     inkscape:pageopacity="0.0"
     inkscape:pageshadow="2"
     inkscape:zoom="44.8"
     inkscape:cx="4.1126446"
     inkscape:cy="7.8565057"
     inkscape:document-units="px"
     inkscape:current-layer="22"
     showgrid="true"
     inkscape:window-width="1920"
     inkscape:window-height="1033"
     inkscape:window-x="-10"
     inkscape:window-y="25"
     inkscape:window-maximized="1"
     inkscape:snap-bbox="true"
     inkscape:bbox-paths="true"
     inkscape:bbox-nodes="true"
     inkscape:snap-bbox-edge-midpoints="true"
     inkscape:snap-bbox-midpoints="true"
     inkscape:object-paths="true"
     inkscape:snap-intersection-paths="true"
     inkscape:object-nodes="true"
     inkscape:snap-smooth-nodes="true"
     inkscape:snap-midpoints="true"
     inkscape:snap-object-midpoints="true"
     inkscape:snap-center="true"
     inkscape:snap-global="true"
     showguides="true"
     inkscape:guide-bbox="true"
     fit-margin-top="0"
     fit-margin-left="0"
     fit-margin-right="0"
     fit-margin-bottom="0"
     inkscape:showpageshadow="false"
     inkscape:snap-page="true">
    <inkscape:grid
       type="xygrid"
       id="grid3126"
       empspacing="5"
       visible="true"
       enabled="true"
       snapvisiblegridlinesonly="true"
       originx="1.9507231e-05px"
       originy="25.00001px" />
  </sodipodi:namedview>
  <metadata
     id="metadata27670">
    <rdf:RDF>
      <cc:Work
         rdf:about="">
        <dc:format>image/svg+xml</dc:format>
        <dc:type
           rdf:resource="http://purl.org/dc/dcmitype/StillImage" />
        <dc:title />
      </cc:Work>
    </rdf:RDF>
  </metadata>
  <g
     inkscape:label="Camada 1"
     inkscape:groupmode="layer"
     id="layer1"
     transform="translate(3364.4172,-1859.5163)">
    <g
       transform="matrix(0.03606018,0,0,0.03606018,-3237.7135,1855.2242)"
       id="22"
       inkscape:label="#g10690">
      <path
         id="path2985"
         d="m -3402.7478,146.75745 c -27.7314,166.38852 55.4628,166.38852 83.1942,249.58278 0,0 3.4665,9.9763 3.4665,27.73142 0,17.75512 -3.4665,27.73142 -3.4665,27.73142 -10.3993,58.86737 -83.1943,55.46284 -83.1942,83.19426 l 110.9257,0 110.9256,0 c 0,-27.73142 -72.7949,-24.32689 -83.1942,-83.19426 0,0 -3.4664,-9.9763 -3.4664,-27.73142 0,-17.75512 3.4664,-27.73142 3.4664,-27.73142 27.7315,-83.19426 110.9256,-83.19426 83.1942,-249.58278 l -110.9256,0 -110.9257,0 z"
         style="color:#000000;fill:#434a54;fill-opacity:0.6745098;fill-rule:nonzero;stroke:none;stroke-width:0.051;marker:none;visibility:visible;display:inline;overflow:visible;enable-background:accumulate"
         inkscape:connector-curvature="0" />
      <path
         style="font-size:medium;font-style:normal;font-variant:normal;font-weight:normal;font-stretch:normal;text-indent:0;text-align:start;text-decoration:none;line-height:normal;letter-spacing:normal;word-spacing:normal;text-transform:none;direction:ltr;block-progression:tb;writing-mode:lr-tb;text-anchor:start;baseline-shift:baseline;color:#000000;fill:#d1d4d6;fill-opacity:0.74329164000000003;fill-rule:nonzero;stroke:none;stroke-width:2.00000001;marker:none;visibility:visible;display:inline;overflow:visible;enable-background:accumulate;font-family:Sans;-inkscape-font-specification:Sans"
         d="M 3 0 L 2.875 0.8125 C 2.344342 3.9964491 2.9003972 5.9287218 3.78125 7.25 C 4.6621028 8.5712785 5.5153468 9.2022959 5.90625 10.375 C 5.90625 10.375 5.96875 10.509427 5.96875 11 C 5.96875 11.490572 5.90625 11.625 5.90625 11.625 L 5.875 11.71875 L 5.875 11.8125 C 5.7681284 12.417471 5.4573356 12.592395 4.84375 12.90625 C 4.5369536 13.063177 4.1672778 13.188858 3.78125 13.4375 C 3.3952222 13.686142 2.84375 14.246875 2.84375 15 L 2.84375 16 L 13.15625 16 L 13.15625 15 C 13.15625 14.246875 12.604778 13.686142 12.21875 13.4375 C 11.832722 13.188858 11.463043 13.063177 11.15625 12.90625 C 10.542661 12.592395 10.231872 12.417471 10.125 11.8125 L 10.125 11.71875 L 10.09375 11.625 C 10.09375 11.625 10.03125 11.490573 10.03125 11 C 10.03125 10.509427 10.09375 10.375 10.09375 10.375 C 10.484653 9.2022952 11.337897 8.5712789 12.21875 7.25 C 13.099603 5.9287215 13.655658 3.9964487 13.125 0.8125 L 13 0 L 3 0 z M 4 1 L 8 1 L 12 1 C 12.999999 7 10.000003 7 9 10 C 9 10 8.875 10.359747 8.875 11 C 8.875 11.640253 9 12 9 12 C 9.3750006 14.122768 12 14 12 15 L 8 15 L 4 15 C 3.9999964 14 6.6249994 14.122768 7 12 C 7 12 7.125 11.640253 7.125 11 C 7.125 10.359747 7 10 7 10 C 6.0000007 7 3.0000007 7 4 1 z "
         transform="matrix(27.73142,0,0,27.73142,-3513.6735,119.02603)"
         id="use2989" />
    </g>
  </g>
</svg>
