<?xml version="1.0" encoding="UTF-8" standalone="no"?>
<!-- Created with Inkscape (http://www.inkscape.org/) -->

<svg
   xmlns:dc="http://purl.org/dc/elements/1.1/"
   xmlns:cc="http://creativecommons.org/ns#"
   xmlns:rdf="http://www.w3.org/1999/02/22-rdf-syntax-ns#"
   xmlns:svg="http://www.w3.org/2000/svg"
   xmlns="http://www.w3.org/2000/svg"
   xmlns:xlink="http://www.w3.org/1999/xlink"
   xmlns:sodipodi="http://sodipodi.sourceforge.net/DTD/sodipodi-0.dtd"
   xmlns:inkscape="http://www.inkscape.org/namespaces/inkscape"
   sodipodi:docname="distributor-logo-ubuntu.svg"
   inkscape:version="0.48.3.1 r9886"
   version="1.1"
   id="svg13094"
   height="24"
   width="24">
  <sodipodi:namedview
     id="base"
     pagecolor="#ffffff"
     bordercolor="#666666"
     borderopacity="1.0"
     inkscape:pageopacity="0.0"
     inkscape:pageshadow="2"
     inkscape:zoom="23.427509"
     inkscape:cx="14.347499"
     inkscape:cy="14.84111"
     inkscape:document-units="px"
     inkscape:current-layer="layer1"
     showgrid="true"
     inkscape:snap-bbox="true"
     inkscape:bbox-paths="true"
     inkscape:bbox-nodes="true"
     inkscape:snap-bbox-edge-midpoints="true"
     inkscape:snap-bbox-midpoints="true"
     inkscape:object-paths="true"
     inkscape:snap-intersection-paths="true"
     inkscape:object-nodes="true"
     inkscape:snap-smooth-nodes="true"
     inkscape:snap-midpoints="true"
     inkscape:snap-object-midpoints="true"
     inkscape:snap-center="true"
     showguides="false"
     inkscape:guide-bbox="true"
     inkscape:window-width="1920"
     inkscape:window-height="1033"
     inkscape:window-x="-10"
     inkscape:window-y="25"
     inkscape:window-maximized="1"
     inkscape:snap-global="true"
     fit-margin-top="0"
     fit-margin-left="0"
     fit-margin-right="0"
     fit-margin-bottom="0"
     showborder="true"
     inkscape:showpageshadow="false">
    <sodipodi:guide
       orientation="0,1"
       position="7904.3893,1688.6364"
       id="guide16149" />
    <sodipodi:guide
       orientation="0,1"
       position="7677.2464,1639.6277"
       id="guide16151" />
    <sodipodi:guide
       orientation="0,1"
       position="7742.9606,1664.132"
       id="guide16153" />
    <sodipodi:guide
       orientation="0,1"
       position="7736.5321,1583.9848"
       id="guide17725" />
    <sodipodi:guide
       orientation="1,0"
       position="8234.0303,1192.115"
       id="guide9456" />
    <sodipodi:guide
       orientation="0,1"
       position="8058.2804,1557.1639"
       id="guide9458" />
    <sodipodi:guide
       orientation="0,1"
       position="7829.5106,1502.2585"
       id="guide9468" />
    <sodipodi:guide
       orientation="0,1"
       position="7854.0304,1523.6285"
       id="guide9470" />
    <sodipodi:guide
       orientation="1,0"
       position="7722.0304,1237.629"
       id="guide11159" />
    <sodipodi:guide
       orientation="1,0"
       position="8035.0616,1501.6635"
       id="guide13980" />
    <sodipodi:guide
       id="guide3972"
       position="6181.0305,126.62899"
       orientation="0,1" />
    <sodipodi:guide
       id="guide3974"
       position="6361.0305,-1.3710498"
       orientation="1,0" />
    <sodipodi:guide
       id="guide3976"
       position="6055.0305,-236.37095"
       orientation="0,1" />
    <sodipodi:guide
       id="guide3978"
       position="6028.0305,-95.37105"
       orientation="1,0" />
    <sodipodi:guide
       id="guide4287"
       position="1377.8013,1369.629"
       orientation="1,0" />
    <sodipodi:guide
       id="guide4289"
       position="1377.8013,1369.629"
       orientation="0,1" />
    <inkscape:grid
       type="xygrid"
       id="grid3918"
       empspacing="5"
       visible="true"
       enabled="true"
       snapvisiblegridlinesonly="true"
       originx="0.00017297285px"
       originy="71.999982px" />
  </sodipodi:namedview>
  <defs
     id="defs13096">
    <linearGradient
       inkscape:collect="always"
       xlink:href="#linearGradient7209-4"
       id="linearGradient3528"
       gradientUnits="userSpaceOnUse"
       gradientTransform="matrix(0.68239755,0,0,0.68239755,-2447.9345,-671.4384)"
       x1="-960.76721"
       y1="1739.3368"
       x2="-960.76721"
       y2="1088.7986" />
    <linearGradient
       id="linearGradient7209-4">
      <stop
         id="stop7211-3"
         offset="0"
         style="stop-color:#a1988f;stop-opacity:1;" />
      <stop
         id="stop7213-1"
         offset="1"
         style="stop-color:#e4dfd4;stop-opacity:1;" />
    </linearGradient>
    <linearGradient
       inkscape:collect="always"
       xlink:href="#linearGradient7251-0"
       id="linearGradient3088"
       x1="-3621.4729"
       y1="515.48083"
       x2="-3621.4729"
       y2="71.555122"
       gradientUnits="userSpaceOnUse" />
    <linearGradient
       id="linearGradient7251-0">
      <stop
         style="stop-color:#ffffff;stop-opacity:1;"
         offset="0"
         id="stop7253-8-7" />
      <stop
         style="stop-color:#ffffff;stop-opacity:1;"
         offset="1"
         id="stop7255-1-1" />
    </linearGradient>
    <linearGradient
       id="linearGradient9097-60">
      <stop
         style="stop-color:#000000;stop-opacity:0.49634215;"
         offset="0"
         id="stop9099-3" />
      <stop
         style="stop-color:#000000;stop-opacity:0.41474396;"
         offset="1"
         id="stop9101-5" />
    </linearGradient>
    <linearGradient
       y2="1088.7986"
       x2="-960.76721"
       y1="1739.3368"
       x1="-960.76721"
       gradientTransform="matrix(0.68239755,0,0,0.68239755,-2447.9345,-671.43839)"
       gradientUnits="userSpaceOnUse"
       id="linearGradient3078"
       xlink:href="#linearGradient9097-60"
       inkscape:collect="always" />
    <linearGradient
       inkscape:collect="always"
       xlink:href="#linearGradient7209-4"
       id="linearGradient3082"
       gradientUnits="userSpaceOnUse"
       gradientTransform="matrix(0.68239755,0,0,0.68239755,-2447.9345,-671.4384)"
       x1="-960.76721"
       y1="1739.3368"
       x2="-960.76721"
       y2="1088.7986" />
    <linearGradient
       inkscape:collect="always"
       xlink:href="#linearGradient7251-0"
       id="linearGradient3084"
       gradientUnits="userSpaceOnUse"
       x1="-3621.4729"
       y1="515.48083"
       x2="-3621.4729"
       y2="71.555122" />
    <linearGradient
       inkscape:collect="always"
       xlink:href="#linearGradient9097-60"
       id="linearGradient3086"
       gradientUnits="userSpaceOnUse"
       gradientTransform="matrix(0.68239755,0,0,0.68239755,-2447.9345,-671.43839)"
       x1="-960.76721"
       y1="1739.3368"
       x2="-960.76721"
       y2="1088.7986" />
    <linearGradient
       inkscape:collect="always"
       xlink:href="#linearGradient9097-60"
       id="linearGradient3089"
       gradientUnits="userSpaceOnUse"
       gradientTransform="matrix(0.0276694,0,0,0.0276694,-9326.0912,1510.435)"
       x1="-960.76721"
       y1="1739.3368"
       x2="-960.76721"
       y2="1088.7986" />
    <linearGradient
       inkscape:collect="always"
       xlink:href="#linearGradient7251-0"
       id="linearGradient3092"
       gradientUnits="userSpaceOnUse"
       x1="-3621.4729"
       y1="515.48083"
       x2="-3621.4729"
       y2="71.555122"
       gradientTransform="matrix(0.04054733,0,0,0.04054733,-9226.834,1537.66)" />
  </defs>
  <metadata
     id="metadata13099">
    <rdf:RDF>
      <cc:Work
         rdf:about="">
        <dc:format>image/svg+xml</dc:format>
        <dc:type
           rdf:resource="http://purl.org/dc/dcmitype/StillImage" />
        <dc:title />
      </cc:Work>
    </rdf:RDF>
  </metadata>
  <g
     inkscape:label="Camada 1"
     inkscape:groupmode="layer"
     id="layer1"
     transform="translate(9368.675,-1536.5613)">
    <path
       id="path3017"
       d="m -9356.675,1539.5613 c -4.9705,0 -9,4.0294 -9,9 0,4.9706 4.0295,9 9,9 4.9706,0 9,-4.0294 9,-9 0,-4.9706 -4.0294,-9 -9,-9 z m 2.9063,3 c 0.1959,0 0.4118,0.051 0.5937,0.1563 0.5304,0.3059 0.7123,0.9695 0.4063,1.5 -0.306,0.5303 -1.0009,0.7122 -1.5313,0.4062 -0.5305,-0.306 -0.7122,-0.9695 -0.4062,-1.5 0.2008,-0.348 0.5633,-0.5504 0.9375,-0.5625 z m -2.8125,1.1875 c 0.446,0 0.903,0.043 1.3125,0.1563 0.072,0.4453 0.3294,0.8822 0.75,1.125 0.4214,0.2435 0.892,0.2531 1.3125,0.094 0.8209,0.8061 1.3609,1.903 1.4375,3.125 l -1.5625,0.031 c -0.1447,-1.6545 -1.558,-2.9688 -3.25,-2.9688 -0.4874,0 -0.9288,0.1191 -1.3438,0.3125 l -0.7812,-1.375 c 0.644,-0.3189 1.3581,-0.5 2.125,-0.5 z m -2.6563,0.8125 0.8125,1.3438 c -0.8327,0.5872 -1.375,1.5605 -1.375,2.6562 0,1.0966 0.5423,2.0709 1.375,2.6563 l -0.8125,1.3437 c -0.9702,-0.6477 -1.7004,-1.6196 -2,-2.7812 0.351,-0.2859 0.5938,-0.7314 0.5938,-1.2188 0,-0.4874 -0.2438,-0.9339 -0.5938,-1.2187 0.2987,-1.1607 1.0298,-2.1327 2,-2.7813 z m -2.9687,2.9063 c 0.612,0 1.0937,0.4818 1.0937,1.0937 9e-4,0.611 -0.4808,1.125 -1.0937,1.125 -0.6119,0 -1.125,-0.513 -1.125,-1.125 0,-0.6128 0.5131,-1.0937 1.125,-1.0937 z m 8.875,1.375 1.5625,0.031 c -0.077,1.222 -0.6166,2.3179 -1.4375,3.125 -0.4214,-0.1596 -0.891,-0.1491 -1.3125,0.094 -0.4205,0.2436 -0.6784,0.6796 -0.75,1.125 -0.4095,0.1143 -0.8665,0.1562 -1.3125,0.1562 -0.7669,0 -1.481,-0.1812 -2.125,-0.5 l 0.7812,-1.375 c 0.415,0.193 0.8564,0.3125 1.3438,0.3125 1.692,0 3.1053,-1.3151 3.25,-2.9687 z m -0.4375,3.5 c 0.3932,-0.01 0.7896,0.1972 1,0.5625 0.306,0.5285 0.1241,1.194 -0.4063,1.5 -0.5295,0.3059 -1.2254,0.125 -1.5312,-0.4063 -0.306,-0.5295 -0.1243,-1.194 0.4062,-1.5 0.1657,-0.096 0.3526,-0.1562 0.5313,-0.1562 z"
       style="color:#000000;fill:#434a55;fill-opacity:0.6745098;fill-rule:nonzero;stroke:none;stroke-width:2;marker:none;visibility:visible;display:inline;overflow:visible;enable-background:accumulate"
       inkscape:connector-curvature="0" />
    <path
       style="font-size:medium;font-style:normal;font-variant:normal;font-weight:normal;font-stretch:normal;text-indent:0;text-align:start;text-decoration:none;line-height:normal;letter-spacing:normal;word-spacing:normal;text-transform:none;direction:ltr;block-progression:tb;writing-mode:lr-tb;text-anchor:start;baseline-shift:baseline;color:#000000;fill:#d1d4d6;fill-opacity:0.74329164;fill-rule:nonzero;stroke:none;stroke-width:2;marker:none;visibility:visible;display:inline;overflow:visible;enable-background:accumulate;font-family:Sans;-inkscape-font-specification:Sans"
       d="m -9356.675,1538.3738 c -5.619,0 -10.1875,4.5684 -10.1875,10.1875 0,5.6191 4.5685,10.1875 10.1875,10.1875 5.6191,0 10.2188,-4.5684 10.2188,-10.1875 0,-5.6191 -4.5997,-10.1875 -10.2188,-10.1875 z m 0,1.1875 c 4.9706,0 9,4.0294 9,9 0,4.9706 -4.0294,9 -9,9 -4.9705,0 -9,-4.0294 -9,-9 0,-4.9706 4.0295,-9 9,-9 z m 2.9063,3 c -0.3743,0.012 -0.7367,0.2145 -0.9375,0.5625 -0.3061,0.5305 -0.1243,1.194 0.4062,1.5 0.5304,0.306 1.2252,0.1241 1.5313,-0.4062 0.306,-0.5305 0.1241,-1.1941 -0.4063,-1.5 -0.1819,-0.1053 -0.3978,-0.1563 -0.5937,-0.1563 z m -2.8125,1.1875 c -0.767,0 -1.481,0.1811 -2.125,0.5 l 0.7812,1.375 c 0.415,-0.1934 0.8564,-0.3125 1.3438,-0.3125 1.6919,0 3.1052,1.3143 3.25,2.9688 l 1.5625,-0.031 c -0.077,-1.222 -0.6166,-2.3189 -1.4375,-3.125 -0.4206,0.1591 -0.8912,0.1498 -1.3125,-0.094 -0.4206,-0.2428 -0.678,-0.6797 -0.75,-1.125 -0.4095,-0.1133 -0.8665,-0.1563 -1.3125,-0.1563 z m -2.6563,0.8125 c -0.9702,0.6486 -1.7013,1.6206 -2,2.7813 0.35,0.2848 0.5938,0.7313 0.5938,1.2187 0,0.4874 -0.2428,0.9329 -0.5938,1.2188 0.2996,1.1616 1.0298,2.1335 2,2.7812 l 0.8125,-1.3437 c -0.8327,-0.5854 -1.375,-1.5597 -1.375,-2.6563 0,-1.0957 0.5423,-2.069 1.375,-2.6562 z m -2.9687,2.9063 c -0.6119,0 -1.125,0.4809 -1.125,1.0937 0,0.612 0.5131,1.125 1.125,1.125 0.6129,0 1.0946,-0.514 1.0937,-1.125 0,-0.6119 -0.4818,-1.0937 -1.0937,-1.0937 z m 8.875,1.375 c -0.1448,1.6536 -1.5581,2.9687 -3.25,2.9687 -0.4874,0 -0.9288,-0.1195 -1.3438,-0.3125 l -0.7812,1.375 c 0.644,0.3188 1.358,0.5 2.125,0.5 0.446,0 0.903,-0.042 1.3125,-0.1562 0.072,-0.4454 0.3294,-0.8814 0.75,-1.125 0.4215,-0.2431 0.8911,-0.2534 1.3125,-0.094 0.8209,-0.8071 1.3605,-1.903 1.4375,-3.125 z m -0.4375,3.5 c -0.1788,0 -0.3656,0.06 -0.5313,0.1562 -0.5305,0.306 -0.7123,0.9705 -0.4062,1.5 0.3058,0.5313 1.0017,0.7122 1.5312,0.4063 0.5304,-0.306 0.7123,-0.9715 0.4063,-1.5 -0.2104,-0.3653 -0.6068,-0.5725 -1,-0.5625 z"
       id="path3526"
       inkscape:connector-curvature="0"
       sodipodi:nodetypes="ssssssssssccccccsccscccccsccscccsccssscscsccsccccccccccc" />
  </g>
</svg>
