<?xml version="1.0" encoding="UTF-8" standalone="no"?>
<!-- Created with Inkscape (http://www.inkscape.org/) -->

<svg
   xmlns:dc="http://purl.org/dc/elements/1.1/"
   xmlns:cc="http://creativecommons.org/ns#"
   xmlns:rdf="http://www.w3.org/1999/02/22-rdf-syntax-ns#"
   xmlns:svg="http://www.w3.org/2000/svg"
   xmlns="http://www.w3.org/2000/svg"
   xmlns:sodipodi="http://sodipodi.sourceforge.net/DTD/sodipodi-0.dtd"
   xmlns:inkscape="http://www.inkscape.org/namespaces/inkscape"
   width="24"
   height="24"
   id="svg27665"
   version="1.1"
   inkscape:version="0.48.3.1 r9886"
   sodipodi:docname="java.svg">
  <defs
     id="defs27667" />
  <sodipodi:namedview
     id="base"
     pagecolor="#ffffff"
     bordercolor="#666666"
     borderopacity="1.0"
     inkscape:pageopacity="0.0"
     inkscape:pageshadow="2"
     inkscape:zoom="32"
     inkscape:cx="10.558264"
     inkscape:cy="11.227878"
     inkscape:document-units="px"
     inkscape:current-layer="layer1"
     showgrid="true"
     inkscape:window-width="1920"
     inkscape:window-height="1033"
     inkscape:window-x="-10"
     inkscape:window-y="25"
     inkscape:window-maximized="1"
     inkscape:snap-bbox="true"
     inkscape:bbox-paths="true"
     inkscape:bbox-nodes="true"
     inkscape:snap-bbox-edge-midpoints="true"
     inkscape:snap-bbox-midpoints="true"
     inkscape:object-paths="true"
     inkscape:snap-intersection-paths="true"
     inkscape:object-nodes="true"
     inkscape:snap-smooth-nodes="true"
     inkscape:snap-midpoints="true"
     inkscape:snap-object-midpoints="true"
     inkscape:snap-center="true"
     inkscape:snap-global="false"
     showguides="false"
     inkscape:guide-bbox="true"
     fit-margin-top="0"
     fit-margin-left="0"
     fit-margin-right="0"
     fit-margin-bottom="0"
     inkscape:showpageshadow="false">
    <inkscape:grid
       type="xygrid"
       id="grid3469"
       empspacing="5"
       visible="true"
       enabled="true"
       snapvisiblegridlinesonly="true"
       originx="-8.8526588e-06px"
       originy="726px" />
    <sodipodi:guide
       orientation="1,0"
       position="10.99999,26.000041"
       id="guide3782" />
    <sodipodi:guide
       orientation="0,1"
       position="18.99999,37.000044"
       id="guide3784" />
  </sodipodi:namedview>
  <metadata
     id="metadata27670">
    <rdf:RDF>
      <cc:Work
         rdf:about="">
        <dc:format>image/svg+xml</dc:format>
        <dc:type
           rdf:resource="http://purl.org/dc/dcmitype/StillImage" />
        <dc:title />
      </cc:Work>
    </rdf:RDF>
  </metadata>
  <g
     inkscape:label="Camada 1"
     inkscape:groupmode="layer"
     id="layer1"
     transform="translate(1356.2084,-1759.6914)">
    <path
       style="font-size:medium;font-style:normal;font-variant:normal;font-weight:normal;font-stretch:normal;text-indent:0;text-align:start;text-decoration:none;line-height:normal;letter-spacing:normal;word-spacing:normal;text-transform:none;direction:ltr;block-progression:tb;writing-mode:lr-tb;text-anchor:start;baseline-shift:baseline;color:#000000;fill:#d1d4d6;fill-opacity:0.74329164;fill-rule:nonzero;stroke:none;stroke-width:2;marker:none;visibility:visible;display:inline;overflow:visible;enable-background:accumulate;font-family:Sans;-inkscape-font-specification:Sans"
       d="m -1346.5209,1761.2227 -0.5938,1.1562 c 0.4204,0.2144 1.033,0.6606 1.3438,1.0313 0.1453,0.1733 0.2096,0.2806 0.2187,0.3125 -1.4055,0.9112 -2.2952,1.7501 -2.8125,2.5625 -0.5173,0.8124 -0.6582,1.6294 -0.4687,2.3125 0.1896,0.683 0.6602,1.1763 1.125,1.5312 0.4649,0.3549 0.941,0.579 1.3437,0.6875 l 0.3438,-1.25 c -0.2088,-0.056 -0.5943,-0.2306 -0.9063,-0.4687 -0.3119,-0.2382 -0.5678,-0.5253 -0.6562,-0.8438 -0.088,-0.3185 -0.055,-0.7035 0.3125,-1.2812 0.3679,-0.5778 1.0989,-1.3087 2.4062,-2.1563 0.3983,-0.2583 0.647,-0.7907 0.5938,-1.2187 -0.053,-0.4282 -0.2559,-0.74 -0.5,-1.0313 -0.4884,-0.5826 -1.1678,-1.0468 -1.75,-1.3437 z m 5.3437,2.4687 -1.2187,0.4375 c 0.1057,0.2989 0.091,0.5575 -0.062,0.8438 -0.1539,0.2862 -0.487,0.6174 -1.0313,0.875 -0.6588,0.3116 -1.1187,0.7673 -1.3437,1.3125 -0.2249,0.5452 -0.2293,1.1435 -0.094,1.6562 0.2716,1.0254 0.9861,1.8818 1.9375,2.1563 l 0.3438,-1.25 c -0.2667,-0.077 -0.8423,-0.6547 -1,-1.25 -0.079,-0.2979 -0.096,-0.5797 0,-0.8125 0.096,-0.2327 0.2954,-0.456 0.7187,-0.6563 0.7358,-0.3482 1.2783,-0.8194 1.5938,-1.4062 0.3156,-0.5869 0.3752,-1.2872 0.1562,-1.9063 z m 3.9063,3.0625 c -1.179,0.068 -2.5038,0.734 -3.7813,2.1563 l 0.9688,0.875 c 1.4927,-1.662 2.7201,-1.9052 3.5625,-1.6563 0.8423,0.2489 1.4141,1.0798 1.4375,1.9063 0.03,1.0728 -0.2476,2.0287 -0.8125,2.75 -0.565,0.7213 -1.4358,1.2303 -2.8438,1.375 l 0.125,1.3125 c 1.6836,-0.173 2.9572,-0.8627 3.75,-1.875 0.7928,-1.0125 1.0993,-2.3222 1.0625,-3.625 -0.039,-1.3796 -0.9338,-2.6772 -2.3437,-3.0938 -0.3525,-0.1041 -0.732,-0.1477 -1.125,-0.125 z m -3.125,4.9375 c -4.4059,0.7678 -8.626,1.1253 -11.0625,1.0625 l -0.031,1.3125 c 2.6062,0.067 6.841,-0.3146 11.3125,-1.0937 l -0.2187,-1.2813 z m 0.4062,2.5625 c -4.5239,0.8711 -7.4785,0.9341 -9.9375,0.8125 l -0.062,1.3125 c 2.5409,0.1256 5.637,0.044 10.25,-0.8437 l -0.25,-1.2813 z m 0.5938,2.5625 c -4.2042,1.0457 -6.0632,0.8646 -8.6563,0.6875 l -0.094,1.3125 c 2.5839,0.1765 4.7343,0.3265 9.0625,-0.75 l -0.3125,-1.25 z m 2.2812,1.6563 c -3.8633,2.0727 -8.5304,2.5721 -13.875,1.9062 l -0.1562,1.3125 c 5.5198,0.6877 10.4871,0.1432 14.6562,-2.0937 l -0.625,-1.125 z"
       id="path3763"
       inkscape:connector-curvature="0" />
    <path
       style="fill:#434a55;fill-opacity:0.6745098"
       d="m -1344.2084,1763.6914 c 0.3647,1.5335 -1.6578,0.9899 -2.875,2.8125 -1.1802,1.6984 -0.3298,4.0267 3.1875,3.375 -1.2172,-0.8979 -2.4492,-2.3908 -0.2813,-3.5625 3.4208,-1.8183 1.1046,-3.56 1.0938,-3.5625 -1.7917,-1.5 -1.5833,-0.5625 -1.125,0.9375 z"
       id="path2992"
       inkscape:connector-curvature="0"
       sodipodi:nodetypes="cccccc" />
    <path
       id="path3791"
       d="m -1340.0834,1766.2852 c -0.074,0.1083 -4.9947,0.8353 -3.1875,2.9375 0.3636,0.474 -0.125,1.0625 -0.125,1.0625 0,0 3.0262,-1.1558 1.9687,-1.7813 -1.2068,-0.7138 0.039,-1.5654 1.3438,-2.2187 z"
       style="fill:#434a55;fill-opacity:0.6745098"
       inkscape:connector-curvature="0"
       sodipodi:nodetypes="cccsc" />
    <path
       style="fill:#434a55;fill-opacity:0.6745098"
       d="m -1339.2084,1774.129 c 0,0 2.2503,-1.1654 2.3258,-3.1562 0.075,-1.9909 -2.6875,-0.9688 -2.6875,-0.9688 -0.473,-2.0119 4.0689,-3.018 4.2812,-0.1876 0.1703,2.2714 -0.1273,3.8538 -3.9195,4.3126 z"
       id="path2990"
       inkscape:connector-curvature="0"
       sodipodi:nodetypes="czcsc" />
    <path
       style="color:#000000;fill:#434a55;fill-opacity:0.6745098;fill-rule:nonzero;stroke:none;stroke-width:1;marker:none;visibility:visible;display:inline;overflow:visible;enable-background:accumulate"
       d="m -1351.1772,1770.8164 11.9688,-0.125 0,1 -10.9688,1.125 z"
       id="rect3781"
       inkscape:connector-curvature="0"
       sodipodi:nodetypes="ccccc" />
    <path
       style="color:#000000;fill:#434a55;fill-opacity:0.6745098;fill-rule:nonzero;stroke:none;stroke-width:1;marker:none;visibility:visible;display:inline;overflow:visible;enable-background:accumulate"
       d="m -1349.2084,1773.9414 c 3.1313,-0.086 6.2858,-0.3337 9.5,-1 l 0,1.25 c -3.0423,0.5841 -5.8744,0.9159 -8.5,1 z"
       id="rect3783"
       inkscape:connector-curvature="0"
       sodipodi:nodetypes="ccccc" />
    <path
       style="color:#000000;fill:#434a55;fill-opacity:0.6745098;fill-rule:nonzero;stroke:none;stroke-width:1;marker:none;visibility:visible;display:inline;overflow:visible;enable-background:accumulate"
       d="m -1347.6772,1776.3789 c 2.7687,-0.1157 5.5265,-0.2506 7.9688,-0.9375 l 0.062,1.3125 c -1.9885,0.5861 -4.272,0.8723 -6.8438,0.875 z"
       id="rect3785"
       inkscape:connector-curvature="0"
       sodipodi:nodetypes="ccccc" />
    <path
       style="color:#000000;fill:#434a55;fill-opacity:0.6745098;fill-rule:nonzero;stroke:none;stroke-width:1;marker:none;visibility:visible;display:inline;overflow:visible;enable-background:accumulate"
       d="m -1351.2084,1778.6914 c 3.2232,0.3865 9.9524,0.8395 13.9999,-1.25 l 0,1 c -2.4955,2.4468 -7.79,2.0314 -11.9999,2.25 l -2,-1 z"
       id="rect2994"
       inkscape:connector-curvature="0"
       sodipodi:nodetypes="cccccc" />
  </g>
</svg>
