<?xml version="1.0" encoding="UTF-8" standalone="no"?>
<!-- Created with Inkscape (http://www.inkscape.org/) -->

<svg
   xmlns:dc="http://purl.org/dc/elements/1.1/"
   xmlns:cc="http://creativecommons.org/ns#"
   xmlns:rdf="http://www.w3.org/1999/02/22-rdf-syntax-ns#"
   xmlns:svg="http://www.w3.org/2000/svg"
   xmlns="http://www.w3.org/2000/svg"
   xmlns:sodipodi="http://sodipodi.sourceforge.net/DTD/sodipodi-0.dtd"
   xmlns:inkscape="http://www.inkscape.org/namespaces/inkscape"
   width="24"
   height="24"
   id="svg27665"
   version="1.1"
   inkscape:version="0.48.3.1 r9886"
   sodipodi:docname="kompare.svg">
  <defs
     id="defs27667" />
  <sodipodi:namedview
     id="base"
     pagecolor="#ffffff"
     bordercolor="#666666"
     borderopacity="1.0"
     inkscape:pageopacity="0.0"
     inkscape:pageshadow="2"
     inkscape:zoom="31.678384"
     inkscape:cx="14.681488"
     inkscape:cy="11.358866"
     inkscape:document-units="px"
     inkscape:current-layer="22"
     showgrid="true"
     inkscape:window-width="1920"
     inkscape:window-height="1023"
     inkscape:window-x="-10"
     inkscape:window-y="35"
     inkscape:window-maximized="1"
     inkscape:snap-bbox="true"
     inkscape:bbox-paths="true"
     inkscape:bbox-nodes="true"
     inkscape:snap-bbox-edge-midpoints="true"
     inkscape:snap-bbox-midpoints="true"
     inkscape:object-paths="true"
     inkscape:snap-intersection-paths="true"
     inkscape:object-nodes="true"
     inkscape:snap-smooth-nodes="true"
     inkscape:snap-midpoints="true"
     inkscape:snap-object-midpoints="true"
     inkscape:snap-center="true"
     inkscape:snap-global="true"
     showguides="true"
     inkscape:guide-bbox="true"
     fit-margin-top="0"
     fit-margin-left="0"
     fit-margin-right="0"
     fit-margin-bottom="0"
     inkscape:showpageshadow="false">
    <inkscape:grid
       type="xygrid"
       id="grid3126"
       empspacing="5"
       visible="true"
       enabled="true"
       snapvisiblegridlinesonly="true"
       originx="-0.99999711px"
       originy="24px" />
  </sodipodi:namedview>
  <metadata
     id="metadata27670">
    <rdf:RDF>
      <cc:Work
         rdf:about="">
        <dc:format>image/svg+xml</dc:format>
        <dc:type
           rdf:resource="http://purl.org/dc/dcmitype/StillImage" />
        <dc:title />
      </cc:Work>
    </rdf:RDF>
  </metadata>
  <g
     inkscape:label="Camada 1"
     inkscape:groupmode="layer"
     id="layer1"
     transform="translate(3363.4172,-1850.5163)">
    <g
       transform="matrix(0.03606018,0,0,0.03606018,-3237.7135,1855.2242)"
       id="22"
       inkscape:label="#g10690">
      <path
         id="path3039"
         d="m -3291.8222,-19.63107 0,55.46284 305.0457,0 0,305.04562 55.4628,0 0,-360.50846 -360.5085,0 z m -83.1942,83.19426 0,360.50846 360.5084,0 0,-55.46284 -305.0456,0 0,-305.04562 -55.4628,0 z m 83.1942,0 0,277.3142 277.3142,0 0,-277.3142 -277.3142,0 z m 55.4629,55.46284 166.3885,0 0,27.73142 -166.3885,0 0,-27.73142 z m 0,55.46284 166.3885,0 0,27.73142 -166.3885,0 0,-27.73142 z m 0,55.46284 166.3885,0 0,27.73142 -166.3885,0 0,-27.73142 z"
         style="color:#000000;fill:#434a54;fill-opacity:0.6745098;fill-rule:nonzero;stroke:none;stroke-width:0.051;marker:none;visibility:visible;display:inline;overflow:visible;enable-background:accumulate"
         inkscape:connector-curvature="0" />
      <path
         style="font-size:medium;font-style:normal;font-variant:normal;font-weight:normal;font-stretch:normal;text-indent:0;text-align:start;text-decoration:none;line-height:normal;letter-spacing:normal;word-spacing:normal;text-transform:none;direction:ltr;block-progression:tb;writing-mode:lr-tb;text-anchor:start;baseline-shift:baseline;color:#000000;fill:#d1d4d6;fill-opacity:0.74329164000000003;fill-rule:nonzero;stroke:none;stroke-width:55.46284017;marker:none;visibility:visible;display:inline;overflow:visible;enable-background:accumulate;font-family:Sans;-inkscape-font-specification:Sans"
         d="M 6 3 L 6 4 L 6 6 L 4 6 L 3 6 L 3 7 L 3 20 L 3 21 L 4 21 L 17 21 L 18 21 L 18 20 L 18 18 L 20 18 L 21 18 L 21 17 L 21 4 L 21 3 L 20 3 L 7 3 L 6 3 z M 7 4 L 20 4 L 20 17 L 18 17 L 18 6 L 7 6 L 7 4 z M 4 7 L 6 7 L 6 18 L 17 18 L 17 20 L 4 20 L 4 7 z M 7 7 L 17 7 L 17 17 L 7 17 L 7 7 z M 9 9 L 9 10 L 15 10 L 15 9 L 9 9 z M 9 11 L 9 12 L 15 12 L 15 11 L 9 11 z M 9 13 L 9 14 L 15 14 L 15 13 L 9 13 z "
         transform="matrix(27.73142,0,0,27.73142,-3485.9421,-130.55675)"
         id="rect3007" />
    </g>
  </g>
</svg>
