<?xml version="1.0" encoding="UTF-8" standalone="no"?>
<!-- Created with Inkscape (http://www.inkscape.org/) -->

<svg
   xmlns:dc="http://purl.org/dc/elements/1.1/"
   xmlns:cc="http://creativecommons.org/ns#"
   xmlns:rdf="http://www.w3.org/1999/02/22-rdf-syntax-ns#"
   xmlns:svg="http://www.w3.org/2000/svg"
   xmlns="http://www.w3.org/2000/svg"
   xmlns:xlink="http://www.w3.org/1999/xlink"
   xmlns:sodipodi="http://sodipodi.sourceforge.net/DTD/sodipodi-0.dtd"
   xmlns:inkscape="http://www.inkscape.org/namespaces/inkscape"
   id="svg13094"
   height="64"
   width="64"
   version="1.1"
   inkscape:version="0.48.3.1 r9886"
   sodipodi:docname="folder-aptana.svg"
   inkscape:export-filename="folder.png"
   inkscape:export-xdpi="90"
   inkscape:export-ydpi="90">
  <sodipodi:namedview
     pagecolor="#ffffff"
     bordercolor="#666666"
     borderopacity="1"
     objecttolerance="10"
     gridtolerance="10"
     guidetolerance="10"
     inkscape:pageopacity="0"
     inkscape:pageshadow="2"
     inkscape:window-width="1920"
     inkscape:window-height="1023"
     id="namedview46"
     showgrid="true"
     inkscape:snap-bbox="true"
     inkscape:bbox-paths="true"
     inkscape:bbox-nodes="true"
     inkscape:snap-bbox-edge-midpoints="true"
     inkscape:snap-bbox-midpoints="true"
     inkscape:snap-nodes="true"
     inkscape:object-paths="true"
     inkscape:snap-intersection-paths="true"
     inkscape:object-nodes="true"
     inkscape:snap-smooth-nodes="true"
     inkscape:snap-midpoints="true"
     inkscape:snap-object-midpoints="true"
     inkscape:snap-center="true"
     fit-margin-top="0"
     fit-margin-left="0"
     fit-margin-right="0"
     fit-margin-bottom="0"
     inkscape:zoom="14.75"
     inkscape:cx="31.32133"
     inkscape:cy="22.711575"
     inkscape:window-x="-10"
     inkscape:window-y="35"
     inkscape:window-maximized="1"
     inkscape:current-layer="g3045"
     showguides="true"
     inkscape:guide-bbox="true"
     inkscape:snap-page="true"
     inkscape:snap-global="true">
    <inkscape:grid
       type="xygrid"
       id="grid3023"
       empspacing="5"
       visible="true"
       enabled="true"
       snapvisiblegridlinesonly="true"
       originx="-80px"
       originy="-75px" />
  </sodipodi:namedview>
  <defs
     id="defs11">
    <linearGradient
       id="linearGradient3841-4-4">
      <stop
         style="stop-color:#a17c48;stop-opacity:1;"
         offset="0"
         id="stop3843-9-4" />
      <stop
         style="stop-color:#be965e;stop-opacity:1;"
         offset="1"
         id="stop3845-3-1" />
    </linearGradient>
    <linearGradient
       inkscape:collect="always"
       xlink:href="#linearGradient3969-7"
       id="linearGradient3918-6"
       gradientUnits="userSpaceOnUse"
       x1="29.875"
       y1="64.082283"
       x2="29.875"
       y2="12.082283" />
    <linearGradient
       id="linearGradient3969-7">
      <stop
         style="stop-color:#b3915e;stop-opacity:1;"
         offset="0"
         id="stop3971-4" />
      <stop
         id="stop3977-5"
         offset="0.08245245"
         style="stop-color:#caa36b;stop-opacity:1;" />
      <stop
         style="stop-color:#d0a973;stop-opacity:1;"
         offset="0.49040774"
         id="stop3979-6" />
      <stop
         id="stop3981-2"
         offset="0.51108748"
         style="stop-color:#c9a16b;stop-opacity:1;" />
      <stop
         style="stop-color:#c79e65;stop-opacity:1;"
         offset="1"
         id="stop3973-6" />
    </linearGradient>
    <linearGradient
       y2="32.976402"
       x2="77.278381"
       y1="48.976402"
       x1="77.278381"
       gradientTransform="translate(-33.625,-31.894117)"
       gradientUnits="userSpaceOnUse"
       id="linearGradient3072"
       xlink:href="#linearGradient3841-4-4"
       inkscape:collect="always" />
    <linearGradient
       id="linearGradient3841-4-6">
      <stop
         style="stop-color:#68883a;stop-opacity:1;"
         offset="0"
         id="stop3843-9-6" />
      <stop
         style="stop-color:#729b38;stop-opacity:1;"
         offset="1"
         id="stop3845-3-4" />
    </linearGradient>
    <linearGradient
       inkscape:collect="always"
       xlink:href="#linearGradient3969-2"
       id="linearGradient3918-5"
       gradientUnits="userSpaceOnUse"
       x1="29.875"
       y1="64.082283"
       x2="29.875"
       y2="12.082283" />
    <linearGradient
       id="linearGradient3969-2">
      <stop
         style="stop-color:#58742d;stop-opacity:1"
         offset="0"
         id="stop3971-2" />
      <stop
         id="stop3977-6"
         offset="0.08245245"
         style="stop-color:#70953a;stop-opacity:1" />
      <stop
         style="stop-color:#86b245;stop-opacity:1"
         offset="1"
         id="stop3973-3" />
    </linearGradient>
    <linearGradient
       y2="32.976402"
       x2="77.278381"
       y1="48.976402"
       x1="77.278381"
       gradientTransform="translate(-33.625,-31.894117)"
       gradientUnits="userSpaceOnUse"
       id="linearGradient3045"
       xlink:href="#linearGradient3841-4-6"
       inkscape:collect="always" />
  </defs>
  <metadata
     id="metadata13099">
    <rdf:RDF>
      <cc:Work
         rdf:about="">
        <dc:format>image/svg+xml</dc:format>
        <dc:type
           rdf:resource="http://purl.org/dc/dcmitype/StillImage" />
        <dc:title />
      </cc:Work>
    </rdf:RDF>
  </metadata>
  <g
     id="g3043"
     inkscape:export-filename="folder.png"
     inkscape:export-xdpi="90"
     inkscape:export-ydpi="90"
     transform="translate(-0.62500009,0.08228278)" />
  <g
     id="g3045"
     inkscape:export-filename="folder.png"
     inkscape:export-xdpi="90"
     inkscape:export-ydpi="90"
     transform="translate(0.625,-0.082283)">
    <path
       style="fill:url(#linearGradient3045);fill-opacity:1;fill-rule:nonzero;stroke:none"
       d="m 2.375,6.082283 -10e-8,58.000001 57.0000001,-10e-7 4,-4 0,-59 -1,-1 -26,0 -5,4.9999999 -28,1e-7 z"
       id="path3833"
       inkscape:connector-curvature="0"
       sodipodi:nodetypes="cccccccccc" />
    <path
       style="color:#000000;fill:#d1ff8f;fill-opacity:0.66577059;fill-rule:nonzero;stroke:none;stroke-width:1;marker:none;visibility:visible;display:inline;overflow:visible;enable-background:accumulate"
       d="m 36.375,0.082283 -5,5 -28,0 -1,1 0,1 1,-1 28,0 5,-5 26,0 1,1 0,-1 -1,-1 -26,0 z"
       id="path3800"
       inkscape:connector-curvature="0" />
    <path
       sodipodi:nodetypes="cccccccc"
       id="path3802"
       d="m 57.375,13.082283 0,51 2,0 4,-4 0,-59 -1,-1 0,18 z"
       inkscape:connector-curvature="0"
       style="fill:#3e4959;fill-opacity:0.43171806" />
    <path
       sodipodi:nodetypes="ccccc"
       d="m 6.375,13.082283 51,0 0,31 -51,0 z"
       id="path3920"
       inkscape:connector-curvature="0"
       style="fill:#d8dbd4;fill-opacity:1;fill-rule:nonzero" />
    <path
       inkscape:connector-curvature="0"
       id="path4253"
       d="m 6.375,13.082283 51,0 0,1 -51,0 z"
       style="fill:#ffffff;fill-opacity:1;fill-rule:nonzero"
       sodipodi:nodetypes="ccccc" />
    <path
       style="color:#000000;fill:#3e4959;fill-opacity:0.22968199;fill-rule:nonzero;stroke-width:1;stroke-linecap:butt;stroke-linejoin:miter;stroke-miterlimit:4;stroke-opacity:1;stroke-dasharray:none;stroke-dashoffset:0;marker:none;visibility:visible;display:inline;overflow:visible;enable-background:accumulate"
       d="m 29.375,13.082283 4,4 2,0 -4,-4 z"
       id="path3982"
       inkscape:connector-curvature="0"
       sodipodi:nodetypes="ccccc" />
    <path
       id="path3916"
       d="m -0.625,13.082283 0,50 1,1 59,0 1,-1 0,-45 -1,-1 -26,1e-6 -5,-5 -28,-10e-7 z"
       inkscape:connector-curvature="0"
       style="fill:url(#linearGradient3918-5);fill-opacity:1;fill-rule:nonzero"
       sodipodi:nodetypes="ccccccccccc"
       inkscape:export-xdpi="90"
       inkscape:export-ydpi="90" />
    <path
       style="color:#000000;fill:#d1ff8f;fill-opacity:0.66577059;fill-rule:nonzero;stroke:none;stroke-width:1;marker:none;visibility:visible;display:inline;overflow:visible;enable-background:accumulate"
       d="m 0.375,12.082283 -1,1 0,1 1,-1 28,0 5,5 26,0 1,1 0,-1 -1,-1 -26,0 -5,-5 -28,0 z"
       id="path3046"
       inkscape:connector-curvature="0" />
    <path
       clip-path="none"
       id="path3089"
       d="m 21.316526,20.118951 c -0.770069,0 -1.540139,0.492912 -1.540139,1.540139 0,2.358337 -0.532898,3.603961 -1.419815,4.211317 -0.434335,0.153671 -0.838736,0.357909 -1.251363,0.553487 -0.013,0.0062 -0.03515,-0.0062 -0.04813,0 -1.061317,0.219415 -2.304658,-0.283227 -3.994735,-1.973303 -0.740501,-0.740501 -1.645363,-0.544521 -2.189885,0 l -1.0829097,1.08291 -1.0829101,1.08291 c -0.5445214,0.544522 -0.740501,1.449384 0,2.189885 1.6900758,1.690076 2.1927178,2.933418 1.9733028,3.994735 -0.0032,0.0158 0.0036,0.03241 0,0.04813 -0.195578,0.412627 -0.399816,0.817028 -0.553487,1.251363 -0.6073564,0.886917 -1.8529798,1.419816 -4.2113173,1.419816 -1.0472265,0 -1.5401387,0.770069 -1.5401387,1.540138 l 0,1.540139 0,1.540139 c 0,0.770069 0.4929122,1.540139 1.5401387,1.540139 2.3583375,0 3.6039609,0.532898 4.2113173,1.419815 0.153671,0.434335 0.357909,0.838736 0.553487,1.251363 0.0062,0.013 -0.0062,0.03515 0,0.04813 0.219415,1.061317 -0.283227,2.304658 -1.9733028,3.994735 -0.740501,0.740501 -0.5445214,1.645363 0,2.189885 l 1.0829101,1.08291 1.0829097,1.08291 c 0.544522,0.544521 1.449384,0.740501 2.189885,0 1.690076,-1.690076 2.933418,-2.192718 3.994735,-1.973303 0.0158,0.0032 0.03241,-0.0036 0.04813,0 0.412627,0.195578 0.817028,0.399816 1.251363,0.553487 0.886917,0.607356 1.419815,1.85298 1.419815,4.211317 0,1.047227 0.77007,1.540139 1.540139,1.540139 l 1.540139,0 1.540139,0 c 0.770069,0 1.540138,-0.492912 1.540138,-1.540139 0,-2.358337 0.532899,-3.603961 1.419816,-4.211317 0.434335,-0.153671 0.838736,-0.357909 1.251363,-0.553487 0.013,-0.0062 0.03515,0.0062 0.04813,0 1.061317,-0.219415 2.304658,0.283227 3.994735,1.973303 0.740501,0.740501 1.645363,0.544521 2.189885,0 l 1.08291,-1.08291 1.08291,-1.08291 c 0.544521,-0.544522 0.740501,-1.449384 0,-2.189885 -1.690076,-1.690076 -2.192718,-2.933418 -1.973303,-3.994735 0.0032,-0.0158 -0.0036,-0.03241 0,-0.04813 0.195578,-0.412627 0.399816,-0.817028 0.553487,-1.251363 0.607356,-0.886917 1.85298,-1.419815 4.211317,-1.419815 1.047227,0 1.540139,-0.77007 1.540139,-1.540139 l 0,-1.540139 0,-1.540139 c 0,-0.770069 -0.492912,-1.540138 -1.540139,-1.540138 -2.358337,0 -3.603961,-0.532899 -4.211317,-1.419816 -0.153671,-0.434335 -0.357909,-0.838736 -0.553487,-1.251363 -0.0036,-0.01572 0.0032,-0.03233 0,-0.04813 -0.219415,-1.061317 0.283227,-2.304658 1.973303,-3.994735 0.740501,-0.740501 0.544521,-1.645363 0,-2.189885 l -1.08291,-1.08291 -1.08291,-1.08291 c -0.544522,-0.544521 -1.449384,-0.740501 -2.189885,0 -1.690076,1.690076 -2.933418,2.192718 -3.994735,1.973303 -0.01298,-0.0062 -0.03513,0.0062 -0.04813,0 -0.412627,-0.195578 -0.817028,-0.399816 -1.251363,-0.553487 -0.886917,-0.607356 -1.419816,-1.85298 -1.419816,-4.211317 0,-1.047227 -0.770069,-1.540139 -1.540138,-1.540139 l -1.540139,0 -1.540139,0 z m 1.540139,10.780971 c 4.252975,0 7.700694,3.447719 7.700694,7.700694 0,4.252975 -3.447719,7.700694 -7.700694,7.700694 -4.252975,0 -7.700694,-3.447719 -7.700694,-7.700694 0,-4.252975 3.447719,-7.700694 7.700694,-7.700694 z"
       style="color:#000000;fill:#396317;fill-opacity:0.40232974999999999;fill-rule:nonzero;stroke:none;stroke-width:1;marker:none;visibility:visible;display:inline;overflow:visible;enable-background:accumulate"
       inkscape:connector-curvature="0" />
    <path
       style="color:#000000;fill:#181818;fill-opacity:0.09229389000000000;fill-rule:nonzero;stroke:none;stroke-width:1;marker:none;visibility:visible;display:inline;overflow:visible;enable-background:accumulate"
       clip-path="none"
       d="m 21.3125,20.113533 c -0.770069,0 -1.53125,0.484023 -1.53125,1.53125 0,2.358337 -0.550583,3.611394 -1.4375,4.21875 -0.434335,0.153671 -0.837373,0.366922 -1.25,0.5625 -0.013,0.0062 -0.01827,-0.0062 -0.03125,0 -1.061317,0.219415 -2.309923,-0.278674 -4,-1.96875 -0.740501,-0.740501 -1.642978,-0.544521 -2.1875,0 l -1.09375,1.0625 -1.0625,1.09375 c -0.5445214,0.544522 -0.740501,1.446999 0,2.1875 1.690076,1.690076 2.188165,2.938683 1.96875,4 -0.0032,0.0158 0.0036,0.04678 0,0.0625 -0.195578,0.412627 -0.408829,0.815665 -0.5625,1.25 -0.6073564,0.886917 -1.8604125,1.40625 -4.21875,1.40625 -1.0472265,0 -1.53125,0.761181 -1.53125,1.53125 l 0,1.5625 0,1.53125 c 0,0.647154 0.3610719,1.278646 1.09375,1.46875 C 5.4249344,41.459311 5.375,41.306081 5.375,41.144783 l 0,-1.53125 0,-1.5625 c 0,-0.770069 0.4840235,-1.53125 1.53125,-1.53125 2.3583375,0 3.611394,-0.519333 4.21875,-1.40625 0.153671,-0.434335 0.366922,-0.837373 0.5625,-1.25 0.0036,-0.01572 -0.0032,-0.0467 0,-0.0625 0.219415,-1.061317 -0.278674,-2.309924 -1.96875,-4 -0.740501,-0.740501 -0.5445214,-1.642978 0,-2.1875 l 1.0625,-1.09375 1.09375,-1.0625 c 0.544522,-0.544521 1.446999,-0.740501 2.1875,0 1.690077,1.690076 2.938683,2.188165 4,1.96875 0.01298,-0.0062 0.01825,0.0062 0.03125,0 0.412627,-0.195578 0.815665,-0.408829 1.25,-0.5625 0.886917,-0.607356 1.4375,-1.860413 1.4375,-4.21875 0,-1.047227 0.761181,-1.53125 1.53125,-1.53125 l 1.53125,0 1.5625,0 c 0.159564,0 0.316037,0.01963 0.46875,0.0625 -0.202348,-0.706661 -0.832913,-1.0625 -1.46875,-1.0625 l -1.5625,0 -1.53125,0 z m 12.5,3.84375 c -0.386843,-0.0245 -0.785999,0.12975 -1.15625,0.5 -1.690076,1.690076 -2.938683,2.188165 -4,1.96875 -0.01298,-0.0062 -0.0495,0.0062 -0.0625,0 -0.343856,-0.162982 -0.676736,-0.328015 -1.03125,-0.46875 0.217963,0.39954 0.465438,0.689984 0.78125,0.90625 0.434335,0.153671 0.837373,0.366922 1.25,0.5625 0.013,0.0062 0.04952,-0.0062 0.0625,0 1.061317,0.219415 2.309924,-0.278674 4,-1.96875 0.740501,-0.740501 1.642978,-0.544521 2.1875,0 l -1,-1 c -0.272261,-0.272261 -0.644407,-0.475502 -1.03125,-0.5 z m -5,9.75 c 1.098549,1.331134 1.75,3.045573 1.75,4.90625 0,4.252975 -3.465775,7.6875 -7.71875,7.6875 -1.860677,0 -3.543866,-0.651451 -4.875,-1.75 1.412588,1.673127 3.513866,2.75 5.875,2.75 4.252975,0 7.71875,-3.434525 7.71875,-7.6875 0,-2.361134 -1.076873,-4.493662 -2.75,-5.90625 z m 7.6875,1.1875 c 0.02815,0.0709 0.06814,0.146361 0.09375,0.21875 0.607356,0.886917 1.860413,1.40625 4.21875,1.40625 0.182544,0 0.319566,0.01978 0.46875,0.0625 -0.164034,-0.584293 -0.638516,-1.0625 -1.46875,-1.0625 -1.518585,0 -2.589982,-0.230842 -3.3125,-0.625 z m -26.3125,8.40625 c 0.142714,0.363894 0.333084,0.710344 0.5,1.0625 0.0062,0.013 -0.0062,0.01827 0,0.03125 0.219415,1.061317 -0.278674,2.309923 -1.96875,4 -0.740501,0.740501 -0.5445214,1.642978 0,2.1875 l 1,1 c -0.5445214,-0.544522 -0.740501,-1.446999 0,-2.1875 1.690076,-1.690077 2.188165,-2.938683 1.96875,-4 -0.0062,-0.01298 0.0062,-0.01825 0,-0.03125 -0.195578,-0.412627 -0.408829,-0.815665 -0.5625,-1.25 -0.220459,-0.321934 -0.526161,-0.592409 -0.9375,-0.8125 z m 8.96875,8.96875 c 0.386253,0.721886 0.625,1.778944 0.625,3.28125 0,0.827875 0.480438,1.272131 1.0625,1.4375 -0.03611,-0.139159 -0.0625,-0.270346 -0.0625,-0.4375 0,-2.358337 -0.550583,-3.611394 -1.4375,-4.21875 -0.06365,-0.02252 -0.125013,-0.03799 -0.1875,-0.0625 z"
       id="path3078"
       inkscape:connector-curvature="0" />
    <path
       style="color:#000000;fill:#d1ff8f;fill-opacity:0.47939070000000000;fill-rule:nonzero;stroke:none;stroke-width:1;marker:none;visibility:visible;display:inline;overflow:visible;enable-background:accumulate"
       clip-path="none"
       d="M 26.5 21.09375 C 26.542718 21.242934 26.5625 21.379956 26.5625 21.5625 C 26.5625 23.920837 27.081833 25.173894 27.96875 25.78125 C 28.041139 25.806862 28.116597 25.846853 28.1875 25.875 C 27.793342 25.152482 27.5625 24.081085 27.5625 22.5625 C 27.5625 21.732266 27.084293 21.257784 26.5 21.09375 z M 37.625 26.53125 C 38.169521 27.075772 38.365501 27.978249 37.625 28.71875 C 35.934924 30.408827 35.436835 31.657433 35.65625 32.71875 C 35.65945 32.73455 35.65265 32.76553 35.65625 32.78125 C 35.851828 33.193877 36.065079 33.596915 36.21875 34.03125 C 36.435016 34.347062 36.72546 34.594537 37.125 34.8125 C 36.984265 34.457986 36.819232 34.125106 36.65625 33.78125 C 36.65265 33.76553 36.65945 33.73455 36.65625 33.71875 C 36.436835 32.657433 36.934924 31.408827 38.625 29.71875 C 39.365501 28.978249 39.169521 28.075772 38.625 27.53125 L 37.625 26.53125 z M 23.46875 30.8125 C 19.215775 30.8125 15.78125 34.278275 15.78125 38.53125 C 15.78125 40.892384 16.858123 42.993662 18.53125 44.40625 C 17.432701 43.075116 16.78125 41.391927 16.78125 39.53125 C 16.78125 35.278275 20.215775 31.8125 24.46875 31.8125 C 26.329427 31.8125 28.043866 32.463951 29.375 33.5625 C 27.962412 31.889373 25.829884 30.8125 23.46875 30.8125 z M 41.90625 36.5 C 41.949122 36.652713 41.96875 36.809186 41.96875 36.96875 L 41.96875 38.53125 L 41.96875 40.0625 C 41.96875 40.832569 41.484727 41.59375 40.4375 41.59375 C 38.079163 41.59375 36.826106 42.144333 36.21875 43.03125 C 36.065079 43.465585 35.851828 43.868623 35.65625 44.28125 C 35.65265 44.29697 35.65945 44.2967 35.65625 44.3125 C 35.436835 45.373817 35.934924 46.622424 37.625 48.3125 C 38.365501 49.053001 38.169521 49.955478 37.625 50.5 L 36.5625 51.59375 L 35.46875 52.65625 C 34.924228 53.200771 34.021751 53.396751 33.28125 52.65625 C 31.591173 50.966174 30.342567 50.468085 29.28125 50.6875 C 29.26827 50.6937 29.23175 50.6813 29.21875 50.6875 C 28.806123 50.883078 28.403085 51.096329 27.96875 51.25 C 27.081833 51.857356 26.5625 53.110413 26.5625 55.46875 C 26.5625 56.515977 25.801319 57 25.03125 57 L 23.46875 57 L 21.9375 57 C 21.776202 57 21.622972 56.950066 21.46875 56.90625 C 21.658854 57.638928 22.290346 58 22.9375 58 L 24.46875 58 L 26.03125 58 C 26.801319 58 27.5625 57.515977 27.5625 56.46875 C 27.5625 54.110413 28.081833 52.857356 28.96875 52.25 C 29.403085 52.096329 29.806123 51.883078 30.21875 51.6875 C 30.23175 51.6813 30.26827 51.6937 30.28125 51.6875 C 31.342567 51.468085 32.591173 51.966174 34.28125 53.65625 C 35.021751 54.396751 35.924228 54.200771 36.46875 53.65625 L 37.5625 52.59375 L 38.625 51.5 C 39.169521 50.955478 39.365501 50.053001 38.625 49.3125 C 36.934924 47.622424 36.436835 46.373817 36.65625 45.3125 C 36.65945 45.2967 36.65265 45.29697 36.65625 45.28125 C 36.851828 44.868623 37.065079 44.465585 37.21875 44.03125 C 37.826106 43.144333 39.079163 42.59375 41.4375 42.59375 C 42.484727 42.59375 42.96875 41.832569 42.96875 41.0625 L 42.96875 39.53125 L 42.96875 37.96875 C 42.96875 37.332913 42.612911 36.702348 41.90625 36.5 z M 6.09375 41.53125 C 6.2591186 42.113312 6.703375 42.59375 7.53125 42.59375 C 9.0335563 42.59375 10.090614 42.832497 10.8125 43.21875 C 10.787994 43.156263 10.772521 43.094903 10.75 43.03125 C 10.142644 42.144333 8.8895875 41.59375 6.53125 41.59375 C 6.3640965 41.59375 6.2329085 41.567357 6.09375 41.53125 z M 17.28125 50.65625 C 16.309161 50.628574 15.166316 51.177433 13.6875 52.65625 C 12.946999 53.396751 12.044522 53.200771 11.5 52.65625 L 12.5 53.65625 C 13.044522 54.200771 13.946999 54.396751 14.6875 53.65625 C 16.377576 51.966174 17.626183 51.468085 18.6875 51.6875 C 18.7033 51.6907 18.70303 51.6839 18.71875 51.6875 C 19.070906 51.854416 19.417356 52.044786 19.78125 52.1875 C 19.561159 51.776161 19.290684 51.470459 18.96875 51.25 C 18.534415 51.096329 18.131377 50.883078 17.71875 50.6875 C 17.70303 50.6839 17.7033 50.6907 17.6875 50.6875 C 17.554835 50.660073 17.42012 50.660204 17.28125 50.65625 z "
       transform="translate(-0.625,0.082283)"
       id="path8454" />
  </g>
</svg>
