<?xml version="1.0" encoding="UTF-8" standalone="no"?>
<!-- Created with Inkscape (http://www.inkscape.org/) -->
<svg xmlns:dc="http://purl.org/dc/elements/1.1/" xmlns:cc="http://creativecommons.org/ns#" xmlns:rdf="http://www.w3.org/1999/02/22-rdf-syntax-ns#" xmlns:svg="http://www.w3.org/2000/svg" xmlns="http://www.w3.org/2000/svg" xmlns:sodipodi="http://sodipodi.sourceforge.net/DTD/sodipodi-0.dtd" xmlns:inkscape="http://www.inkscape.org/namespaces/inkscape" version="1.0" width="18" height="18" id="svg2" inkscape:version="0.48.4 r9939" sodipodi:docname="convert.svg">
  <sodipodi:namedview pagecolor="#ffffff" bordercolor="#666666" borderopacity="1" objecttolerance="10" gridtolerance="10" guidetolerance="10" inkscape:pageopacity="0" inkscape:pageshadow="2" inkscape:window-width="1920" inkscape:window-height="1016" id="namedview32" showgrid="true" inkscape:zoom="32.000001" inkscape:cx="10.816142" inkscape:cy="7.4845218" inkscape:window-x="-5" inkscape:window-y="27" inkscape:window-maximized="1" inkscape:current-layer="svg2" inkscape:snap-bbox="true" inkscape:bbox-paths="true" inkscape:bbox-nodes="true" inkscape:snap-bbox-edge-midpoints="true" inkscape:snap-bbox-midpoints="true" inkscape:object-paths="true" inkscape:snap-intersection-paths="true" inkscape:object-nodes="true" inkscape:snap-smooth-nodes="true" inkscape:snap-midpoints="true" inkscape:snap-object-midpoints="true" inkscape:snap-center="true" fit-margin-top="0" fit-margin-left="0" fit-margin-right="0" fit-margin-bottom="0">
    <inkscape:grid type="xygrid" id="grid3218" empspacing="5" visible="true" enabled="true" snapvisiblegridlinesonly="true" originx="-11px" originy="18px"/>
  </sodipodi:namedview>
  <metadata id="metadata11">
    <rdf:RDF>
      <cc:Work rdf:about="">
        <dc:format>image/svg+xml</dc:format>
        <dc:type rdf:resource="http://purl.org/dc/dcmitype/StillImage"/>
        <dc:title/>
      </cc:Work>
    </rdf:RDF>
  </metadata>
  <defs id="defs4"/>
  <path style="color:#000000;fill:#27303a;fill-opacity:0.75328081999999996;fill-rule:nonzero;stroke:none;stroke-width:1.20000005;marker:none;visibility:visible;display:inline;overflow:visible;enable-background:accumulate" d="M 5 2 L 1 5 L 5 8 L 5 6 L 10 6 L 10 4 L 5 4 L 5 2 z M 11 8 L 11 10 L 6 10 L 6 12 L 11 12 L 11 14 L 15 11 L 11 8 z " id="path3771" transform="translate(1,1)"/>
  <path style="font-size:medium;font-style:normal;font-variant:normal;font-weight:normal;font-stretch:normal;text-indent:0;text-align:start;text-decoration:none;line-height:normal;letter-spacing:normal;word-spacing:normal;text-transform:none;direction:ltr;block-progression:tb;writing-mode:lr-tb;text-anchor:start;baseline-shift:baseline;color:#000000;fill:#f1f3f5;fill-opacity:0.90288714000000003;fill-rule:nonzero;stroke:none;stroke-width:2;marker:none;visibility:visible;display:inline;overflow:visible;enable-background:accumulate;font-family:Sans;-inkscape-font-specification:Sans" d="M 5 0.46875 L 4.375 1 L -0.625 5 L 4.375 9 L 5 9.53125 L 5 9 L 5 8 L 1 5 L 5 2 L 5 1 L 5 0.46875 z M 11 6.46875 L 11 7 L 11 8 L 15 11 L 11 14 L 11 15 L 11 15.53125 L 11.625 15 L 16.625 11 L 11.625 7 L 11 6.46875 z " id="path2993" transform="translate(1,1)"/>
</svg>
