<?xml version="1.0" encoding="UTF-8" standalone="no"?>
<!-- Created with Inkscape (http://www.inkscape.org/) -->
<svg xmlns:dc="http://purl.org/dc/elements/1.1/" xmlns:cc="http://creativecommons.org/ns#" xmlns:rdf="http://www.w3.org/1999/02/22-rdf-syntax-ns#" xmlns:svg="http://www.w3.org/2000/svg" xmlns="http://www.w3.org/2000/svg" xmlns:sodipodi="http://sodipodi.sourceforge.net/DTD/sodipodi-0.dtd" xmlns:inkscape="http://www.inkscape.org/namespaces/inkscape" version="1.0" width="18" height="18" id="svg2" inkscape:version="0.48.3.1 r9886" sodipodi:docname="draw-connector.svg">
  <sodipodi:namedview pagecolor="#ffffff" bordercolor="#666666" borderopacity="1" objecttolerance="10" gridtolerance="10" guidetolerance="10" inkscape:pageopacity="0" inkscape:pageshadow="2" inkscape:window-width="1920" inkscape:window-height="1023" id="namedview32" showgrid="true" inkscape:zoom="45.254836" inkscape:cx="7.6234089" inkscape:cy="7.7126946" inkscape:window-x="-10" inkscape:window-y="35" inkscape:window-maximized="1" inkscape:current-layer="svg2" inkscape:snap-bbox="true" inkscape:bbox-paths="true" inkscape:bbox-nodes="true" inkscape:snap-bbox-edge-midpoints="true" inkscape:snap-bbox-midpoints="true" inkscape:object-paths="true" inkscape:snap-intersection-paths="true" inkscape:object-nodes="true" inkscape:snap-smooth-nodes="true" inkscape:snap-midpoints="true" inkscape:snap-object-midpoints="true" inkscape:snap-center="true" fit-margin-top="0" fit-margin-left="0" fit-margin-right="0" fit-margin-bottom="0" inkscape:snap-global="true">
    <inkscape:grid type="xygrid" id="grid3218" empspacing="5" visible="true" enabled="true" snapvisiblegridlinesonly="true" originx="-11px" originy="18px"/>
  </sodipodi:namedview>
  <metadata id="metadata11">
    <rdf:RDF>
      <cc:Work rdf:about="">
        <dc:format>image/svg+xml</dc:format>
        <dc:type rdf:resource="http://purl.org/dc/dcmitype/StillImage"/>
        <dc:title/>
      </cc:Work>
    </rdf:RDF>
  </metadata>
  <defs id="defs4"/>
  <path style="font-size:medium;font-style:normal;font-variant:normal;font-weight:normal;font-stretch:normal;text-indent:0;text-align:start;text-decoration:none;line-height:normal;letter-spacing:normal;word-spacing:normal;text-transform:none;direction:ltr;block-progression:tb;writing-mode:lr-tb;text-anchor:start;baseline-shift:baseline;color:#000000;fill:#f1f3f5;fill-opacity:0.90288714000000003;stroke:none;stroke-width:2;marker:none;visibility:visible;display:inline;overflow:visible;enable-background:accumulate;font-family:Sans;-inkscape-font-specification:Sans;fill-rule:nonzero" d="M 13,3 13,4 13,5 10.53125,5 6.4375,11.75 6.28125,12 6.21875,12 6,12 l -3,0 0,-1 0,-1 -1,0 0,3 0,2 1,0 0,-2 3.75,0 0.28125,0 L 7.1875,12.75 11.28125,6 13,6 l 0,2 1,0 0,-2 0,-3 z" id="path2991" inkscape:connector-curvature="0" sodipodi:nodetypes="cccccccccccccccccccccccccc" transform="translate(1,1)"/>
  <path inkscape:connector-curvature="0" style="color:#000000;fill:#27303a;fill-opacity:0.753280819999999968;fill-rule:nonzero;stroke:none;stroke-width:2;marker:none;visibility:visible;display:inline;overflow:visible;enable-background:accumulate" d="m 15,2 0,1 -1,0 0,3 1,0 0,1 1,0 0,-1 0,-3 0,-1 -1,0 z M 9.71875,4 9.5625,4.25 5.46875,11 3,11 3,12 6,12 6.28125,12 6.4375,11.75 10.53125,5 13,5 13,4 10,4 9.71875,4 z M 0,9 l 0,1 0,3 0,1 1,0 0,-1 1,0 0,-3 -1,0 0,-1 -1,0 z" id="path3801-8" transform="translate(1,1)"/>
</svg>
