<?xml version="1.0" encoding="UTF-8" standalone="no"?>
<!-- Created with Inkscape (http://www.inkscape.org/) -->

<svg
   xmlns:dc="http://purl.org/dc/elements/1.1/"
   xmlns:cc="http://creativecommons.org/ns#"
   xmlns:rdf="http://www.w3.org/1999/02/22-rdf-syntax-ns#"
   xmlns:svg="http://www.w3.org/2000/svg"
   xmlns="http://www.w3.org/2000/svg"
   xmlns:sodipodi="http://sodipodi.sourceforge.net/DTD/sodipodi-0.dtd"
   xmlns:inkscape="http://www.inkscape.org/namespaces/inkscape"
   sodipodi:docname="distributor-logo-kubuntu.svg"
   inkscape:version="0.48.3.1 r9886"
   version="1.1"
   id="svg13094"
   height="22"
   width="22">
  <sodipodi:namedview
     id="base"
     pagecolor="#ffffff"
     bordercolor="#666666"
     borderopacity="1.0"
     inkscape:pageopacity="0.0"
     inkscape:pageshadow="2"
     inkscape:zoom="33.131501"
     inkscape:cx="16.54485"
     inkscape:cy="11.15514"
     inkscape:document-units="px"
     inkscape:current-layer="layer1"
     showgrid="true"
     inkscape:snap-bbox="true"
     inkscape:bbox-paths="true"
     inkscape:bbox-nodes="true"
     inkscape:snap-bbox-edge-midpoints="true"
     inkscape:snap-bbox-midpoints="true"
     inkscape:object-paths="true"
     inkscape:snap-intersection-paths="true"
     inkscape:object-nodes="true"
     inkscape:snap-smooth-nodes="true"
     inkscape:snap-midpoints="true"
     inkscape:snap-object-midpoints="true"
     inkscape:snap-center="true"
     showguides="false"
     inkscape:guide-bbox="true"
     inkscape:window-width="1920"
     inkscape:window-height="1033"
     inkscape:window-x="-10"
     inkscape:window-y="25"
     inkscape:window-maximized="1"
     inkscape:snap-global="true"
     fit-margin-top="0"
     fit-margin-left="0"
     fit-margin-right="0"
     fit-margin-bottom="0"
     showborder="true"
     inkscape:showpageshadow="false">
    <sodipodi:guide
       orientation="0,1"
       position="7904.3893,1688.6364"
       id="guide16149" />
    <sodipodi:guide
       orientation="0,1"
       position="7677.2464,1639.6277"
       id="guide16151" />
    <sodipodi:guide
       orientation="0,1"
       position="7742.9606,1664.132"
       id="guide16153" />
    <sodipodi:guide
       orientation="0,1"
       position="7736.5321,1583.9848"
       id="guide17725" />
    <sodipodi:guide
       orientation="1,0"
       position="8234.0303,1192.115"
       id="guide9456" />
    <sodipodi:guide
       orientation="0,1"
       position="8058.2804,1557.1639"
       id="guide9458" />
    <sodipodi:guide
       orientation="0,1"
       position="7829.5106,1502.2585"
       id="guide9468" />
    <sodipodi:guide
       orientation="0,1"
       position="7854.0304,1523.6285"
       id="guide9470" />
    <sodipodi:guide
       orientation="1,0"
       position="7722.0304,1237.629"
       id="guide11159" />
    <sodipodi:guide
       orientation="1,0"
       position="8035.0616,1501.6635"
       id="guide13980" />
    <sodipodi:guide
       id="guide3972"
       position="6181.0305,126.62899"
       orientation="0,1" />
    <sodipodi:guide
       id="guide3974"
       position="6361.0305,-1.3710498"
       orientation="1,0" />
    <sodipodi:guide
       id="guide3976"
       position="6055.0305,-236.37095"
       orientation="0,1" />
    <sodipodi:guide
       id="guide3978"
       position="6028.0305,-95.37105"
       orientation="1,0" />
    <sodipodi:guide
       id="guide4287"
       position="1377.8013,1369.629"
       orientation="1,0" />
    <sodipodi:guide
       id="guide4289"
       position="1377.8013,1369.629"
       orientation="0,1" />
    <inkscape:grid
       type="xygrid"
       id="grid3918"
       empspacing="5"
       visible="true"
       enabled="true"
       snapvisiblegridlinesonly="true"
       originx="0.00017297285px"
       originy="71.999982px" />
  </sodipodi:namedview>
  <defs
     id="defs13096" />
  <metadata
     id="metadata13099">
    <rdf:RDF>
      <cc:Work
         rdf:about="">
        <dc:format>image/svg+xml</dc:format>
        <dc:type
           rdf:resource="http://purl.org/dc/dcmitype/StillImage" />
        <dc:title />
      </cc:Work>
    </rdf:RDF>
  </metadata>
  <g
     inkscape:label="Camada 1"
     inkscape:groupmode="layer"
     id="layer1"
     transform="translate(9368.675,-1538.5613)">
    <path
       id="path3000"
       d="m -9357.4875,1540.5301 c -0.2164,-0 -0.4394,0.017 -0.6562,0.031 -3.5688,0.1338 -6.8839,2.6221 -8.0313,6 -1.1867,3.2589 -0.2606,7.1382 2.2813,9.5 2.5095,2.4536 6.503,3.1738 9.7187,1.7813 3.2734,-1.3404 5.556,-4.7395 5.5,-8.2813 0,-1.4196 -0.3514,-2.8326 -1,-4.0937 -1.4525,-2.9134 -4.5671,-4.8899 -7.8125,-4.9375 z m -0.6875,1.8437 c 0.281,0.4414 0.4443,0.9379 0.6875,1.4063 0.1279,0.7709 0.9764,0.4797 1.5313,0.75 0.5043,-0.4811 0.9704,-1.0238 1.5,-1.4688 0.4377,0.2126 0.8903,0.4599 1.2812,0.75 -0.1135,0.508 -0.3415,0.9974 -0.5,1.5 -0.4198,0.5801 0.2435,0.9775 0.4688,1.5 l 1.75,0 c 0.4035,-0.1171 0.5737,0.1746 0.5937,0.5313 0.029,0.3225 0.2638,0.6787 0.125,0.9687 -0.8899,0.1946 -1.7663,0.3993 -2.6562,0.5938 -0.043,-0.2913 -0.1175,-0.5672 -0.2188,-0.8438 -0.7026,-2.0519 -3.0665,-3.3059 -5.1562,-2.7187 -0.099,0.023 -0.1854,0.063 -0.2813,0.094 -0.012,-0.01 -0.019,-0.024 -0.031,-0.031 -0.074,-0.3441 -0.1448,-0.6872 -0.2188,-1.0313 -0.094,-0.5548 -0.2905,-1.1049 -0.3125,-1.6562 0.4594,-0.1585 0.9583,-0.2738 1.4375,-0.3438 z m -4.1875,1.9063 c 0.6773,0.6179 1.352,1.2258 2.0313,1.8437 -1.2024,0.9557 -1.9295,2.5518 -1.6563,4.0938 0.1267,0.9662 0.6443,1.8456 1.3438,2.5 -0,0.021 9e-4,0.042 0,0.062 -0.2991,0.3297 -0.5778,0.639 -0.875,0.9687 -0.3406,0.3333 -0.6199,0.7683 -1,1.0313 -0.3748,-0.3117 -0.7527,-0.6584 -1.0625,-1.0313 0.2306,-0.4702 0.5698,-0.8933 0.8437,-1.3437 0.5927,-0.5098 -0.1002,-1.0732 -0.1562,-1.6875 -0.6737,-0.182 -1.3746,-0.3097 -2.0313,-0.5313 -0.046,-0.4828 -0.044,-0.9859 0,-1.4687 0.4945,-0.1676 1.0215,-0.2195 1.5313,-0.3438 0.717,0.058 0.7033,-0.7245 1.0312,-1.1875 -0.3045,-0.5026 -0.633,-0.9973 -0.9375,-1.5 -0.3099,-0.2846 -0.1079,-0.5777 0.1875,-0.7812 0.2612,-0.191 0.4293,-0.593 0.75,-0.625 z m 8.9375,6.2187 c 0.4237,0.096 0.8572,0.1874 1.2813,0.2813 0.4575,0.1333 0.9883,0.1419 1.4062,0.3437 -0.083,0.4792 -0.2388,0.9817 -0.4062,1.4375 -0.5224,0.032 -1.0347,-0.044 -1.5625,-0.062 -0.7369,-0.2577 -0.8725,0.6451 -1.375,1 0.1784,0.6738 0.3961,1.3521 0.5312,2.0313 -0.3963,0.2792 -0.8417,0.5169 -1.2812,0.7187 -0.3928,-0.3423 -0.7004,-0.7778 -1.0625,-1.1562 -0.3081,-0.6503 -0.9656,-0.2293 -1.5313,-0.2813 -0.2828,0.5152 -0.5608,1.0161 -0.8437,1.5313 -0.092,0.4107 -0.4257,0.4031 -0.75,0.25 -0.2956,-0.1315 -0.7501,-0.083 -0.9375,-0.3438 0.2324,-0.8773 0.4863,-1.7495 0.7187,-2.625 0.01,-0 0.023,0 0.031,0 0.5863,0.2268 1.2056,0.3145 1.8437,0.25 1.88,-0.1002 3.5355,-1.5684 3.9375,-3.375 z"
       style="color:#000000;fill:#434a55;fill-opacity:0.6745098;fill-rule:nonzero;stroke:none;stroke-width:2;marker:none;visibility:visible;display:inline;overflow:visible;enable-background:accumulate"
       inkscape:connector-curvature="0" />
    <path
       style="font-size:medium;font-style:normal;font-variant:normal;font-weight:normal;font-stretch:normal;text-indent:0;text-align:start;text-decoration:none;line-height:normal;letter-spacing:normal;word-spacing:normal;text-transform:none;direction:ltr;block-progression:tb;writing-mode:lr-tb;text-anchor:start;baseline-shift:baseline;color:#000000;fill:#d1d4d6;fill-opacity:0.74329164000000003;fill-rule:nonzero;stroke:none;stroke-width:2;marker:none;visibility:visible;display:inline;overflow:visible;enable-background:accumulate;font-family:Sans;-inkscape-font-specification:Sans"
       d="M 11.21875 0.78125 C 10.92735 0.78125 10.6913 0.7995 10.5 0.8125 C 10.49 0.8131 10.47675 0.812 10.46875 0.8125 C 6.39285 0.9787 2.6956 3.74285 1.375 7.59375 L 1.375 7.625 C 0.0359 11.3398 1.0545 15.63985 3.9375 18.34375 L 3.96875 18.375 C 6.85025 21.1666 11.29545 21.9656 14.96875 20.375 L 14.96875 20.40625 C 18.70975 18.87435 21.2382 15.0574 21.1875 11 C 21.1874 10.989 21.1877 10.97875 21.1875 10.96875 C 21.1875 9.36955 20.7836 7.7869 20.0625 6.375 L 20.0625 6.34375 L 20.03125 6.34375 C 18.36205 3.03305 14.92525 0.83565 11.21875 0.78125 z M 11.1875 1.96875 C 14.4329 2.01635 17.5475 3.99285 19 6.90625 C 19.6486 8.16735 20 9.5804 20 11 C 20.056 14.5418 17.7734 17.94085 14.5 19.28125 C 11.2843 20.67375 7.29075 19.9536 4.78125 17.5 C 2.23935 15.1382 1.3133 11.2589 2.5 8 C 3.6474 4.6221 6.96245 2.1338 10.53125 2 C 10.74805 1.986 10.9711 1.96875 11.1875 1.96875 z M 10.5 3.8125 C 10.0208 3.8825 9.5219 3.99775 9.0625 4.15625 C 9.0845 4.70755 9.281 5.2577 9.375 5.8125 C 9.449 6.1566 9.51975 6.49965 9.59375 6.84375 C 9.60575 6.85075 9.613 6.865 9.625 6.875 C 9.7209 6.844 9.80725 6.80425 9.90625 6.78125 C 11.99595 6.19405 14.3599 7.4481 15.0625 9.5 C 15.1638 9.7766 15.23825 10.05245 15.28125 10.34375 C 16.17115 10.14925 17.0476 9.9446 17.9375 9.75 C 18.0763 9.46 17.8415 9.10375 17.8125 8.78125 C 17.7925 8.42455 17.62225 8.1329 17.21875 8.25 L 15.46875 8.25 C 15.24345 7.7275 14.5802 7.3301 15 6.75 C 15.1585 6.2474 15.3865 5.758 15.5 5.25 C 15.1091 4.9599 14.65645 4.7126 14.21875 4.5 C 13.68915 4.945 13.22305 5.48765 12.71875 5.96875 C 12.16385 5.69845 11.3154 5.98965 11.1875 5.21875 C 10.9443 4.75035 10.781 4.2539 10.5 3.8125 z M 6.3125 5.71875 C 5.9918 5.75075 5.8237 6.15275 5.5625 6.34375 C 5.2671 6.54725 5.0651 6.8404 5.375 7.125 C 5.6795 7.6277 6.008 8.1224 6.3125 8.625 C 5.9846 9.088 5.99825 9.8705 5.28125 9.8125 C 4.77145 9.9368 4.2445 9.98865 3.75 10.15625 C 3.706 10.63905 3.704 11.1422 3.75 11.625 C 4.4067 11.8466 5.10755 11.97425 5.78125 12.15625 C 5.83725 12.77055 6.5302 13.33395 5.9375 13.84375 C 5.6636 14.29415 5.32435 14.7173 5.09375 15.1875 C 5.40355 15.5604 5.78145 15.90705 6.15625 16.21875 C 6.53635 15.95575 6.81565 15.5208 7.15625 15.1875 C 7.45345 14.8578 7.73215 14.54845 8.03125 14.21875 C 8.03215 14.19875 8.03125 14.17725 8.03125 14.15625 C 7.33175 13.50185 6.8142 12.62245 6.6875 11.65625 C 6.4143 10.11425 7.14135 8.5182 8.34375 7.5625 C 7.66445 6.9446 6.9898 6.33665 6.3125 5.71875 z M 15.25 11.9375 C 14.848 13.7441 13.1925 15.2123 11.3125 15.3125 C 10.6744 15.377 10.05505 15.2893 9.46875 15.0625 L 9.4375 15.0625 C 9.2051 15.938 8.95115 16.8102 8.71875 17.6875 C 8.90615 17.9483 9.36065 17.89975 9.65625 18.03125 C 9.98055 18.18435 10.31425 18.19195 10.40625 17.78125 C 10.68915 17.26605 10.9672 16.7652 11.25 16.25 C 11.8157 16.302 12.47315 15.88095 12.78125 16.53125 C 13.14335 16.90965 13.45095 17.3452 13.84375 17.6875 C 14.28325 17.4857 14.7287 17.24795 15.125 16.96875 C 14.9899 16.28955 14.77215 15.6113 14.59375 14.9375 C 15.09625 14.5826 15.23185 13.6798 15.96875 13.9375 C 16.49655 13.9555 17.00885 14.032 17.53125 14 C 17.69865 13.5442 17.8545 13.0417 17.9375 12.5625 C 17.5196 12.3607 16.98875 12.35205 16.53125 12.21875 C 16.10715 12.12485 15.6737 12.0335 15.25 11.9375 z "
       transform="translate(-9368.675,1538.5613)"
       id="path4" />
  </g>
</svg>
