<?xml version="1.0" encoding="UTF-8" standalone="no"?>
<!-- Created with Inkscape (http://www.inkscape.org/) -->

<svg
   xmlns:dc="http://purl.org/dc/elements/1.1/"
   xmlns:cc="http://creativecommons.org/ns#"
   xmlns:rdf="http://www.w3.org/1999/02/22-rdf-syntax-ns#"
   xmlns:svg="http://www.w3.org/2000/svg"
   xmlns="http://www.w3.org/2000/svg"
   xmlns:sodipodi="http://sodipodi.sourceforge.net/DTD/sodipodi-0.dtd"
   xmlns:inkscape="http://www.inkscape.org/namespaces/inkscape"
   version="1.1"
   width="22"
   height="22"
   id="svg13094"
   inkscape:version="0.48.3.1 r9886"
   sodipodi:docname="krdc.svg"
   inkscape:export-filename="folder.png"
   inkscape:export-xdpi="90"
   inkscape:export-ydpi="90">
  <sodipodi:namedview
     pagecolor="#ffffff"
     bordercolor="#666666"
     borderopacity="1"
     objecttolerance="10"
     gridtolerance="10"
     guidetolerance="10"
     inkscape:pageopacity="0"
     inkscape:pageshadow="2"
     inkscape:window-width="1920"
     inkscape:window-height="1033"
     id="namedview6"
     showgrid="true"
     inkscape:snap-bbox="true"
     inkscape:bbox-paths="true"
     inkscape:bbox-nodes="true"
     inkscape:snap-bbox-edge-midpoints="true"
     inkscape:snap-bbox-midpoints="true"
     inkscape:object-paths="true"
     inkscape:snap-intersection-paths="true"
     inkscape:object-nodes="true"
     inkscape:snap-smooth-nodes="true"
     inkscape:snap-midpoints="true"
     inkscape:snap-object-midpoints="true"
     inkscape:snap-center="true"
     inkscape:zoom="41.7193"
     inkscape:cx="10.129973"
     inkscape:cy="10.715114"
     inkscape:window-x="-10"
     inkscape:window-y="25"
     inkscape:window-maximized="1"
     inkscape:current-layer="svg13094">
    <inkscape:grid
       type="xygrid"
       id="grid2983"
       empspacing="5"
       visible="true"
       enabled="true"
       snapvisiblegridlinesonly="true" />
  </sodipodi:namedview>
  <defs
     id="defs7" />
  <metadata
     id="metadata13099">
    <rdf:RDF>
      <cc:Work
         rdf:about="">
        <dc:format>image/svg+xml</dc:format>
        <dc:type
           rdf:resource="http://purl.org/dc/dcmitype/StillImage" />
        <dc:title />
      </cc:Work>
    </rdf:RDF>
  </metadata>
  <path
     style="color:#000000;fill:#d1d4d6;fill-opacity:0.74329164;fill-rule:nonzero;stroke:none;stroke-width:2;marker:none;visibility:visible;display:inline;overflow:visible;enable-background:accumulate"
     d="M 1 2 L 1 20 L 21 20 L 21 2 L 1 2 z M 2 3 L 20 3 L 20 19 L 2 19 L 2 3 z "
     id="rect3768" />
  <path
     style="fill:#434a54;fill-opacity:0.67577096000000003;fill-rule:nonzero;color:#000000;stroke:none;stroke-width:1.20000005000000010;marker:none;visibility:visible;display:inline;overflow:visible;enable-background:accumulate"
     d="M 2,3 2,19 20,19 20,3 z M 5,6 17,6 17,16 5,16 z"
     id="path3006"
     inkscape:connector-curvature="0"
     sodipodi:nodetypes="cccccccccc" />
  <path
     style="color:#000000;fill:#404957;fill-opacity:0.230837;fill-rule:nonzero;stroke:none;stroke-width:57.8928833;marker:none;visibility:visible;display:inline;overflow:visible;enable-background:accumulate"
     d="M 7 8 L 8 9 L 15 9 L 15 8 L 7 8 z M 6 8.4375 L 6 15 L 12.59375 15 L 12.28125 14.71875 L 10.28125 12.71875 L 9.59375 12 L 9.28125 11.71875 L 8.59375 11 L 8.28125 10.71875 L 7.59375 10 L 7.28125 9.71875 L 6.59375 9 L 6.28125 8.71875 L 6 8.4375 z M 9 10 L 10 11 L 15 11 L 15 10 L 9 10 z M 11 12 L 13 14 L 15 14 L 15 12 L 11 12 z "
     id="rect2994" />
  <path
     inkscape:connector-curvature="0"
     style="color:#000000;fill:#434a55;fill-opacity:0.6745098;fill-rule:nonzero;stroke:none;stroke-width:1;marker:none;visibility:visible;display:inline;overflow:visible;enable-background:accumulate"
     d="m 7,8 1,1 7,0 0,-1 -8,0 z m 2,2 1,1 5,0 0,-1 -6,0 z m 2,2 2,2 2,0 0,-2 -4,0 z"
     id="path3764" />
  <rect
     y="14"
     x="13"
     height="1"
     width="3"
     id="rect3790"
     style="color:#000000;fill:#d1d4d6;fill-opacity:0.74329164;fill-rule:nonzero;stroke:none;stroke-width:2;marker:none;visibility:visible;display:inline;overflow:visible;enable-background:accumulate" />
  <rect
     y="11"
     x="10"
     height="1"
     width="6"
     id="rect3792"
     style="color:#000000;fill:#d1d4d6;fill-opacity:0.74329164;fill-rule:nonzero;stroke:none;stroke-width:2;marker:none;visibility:visible;display:inline;overflow:visible;enable-background:accumulate" />
  <rect
     y="9"
     x="8"
     height="1"
     width="8"
     id="rect3794"
     style="color:#000000;fill:#d1d4d6;fill-opacity:0.74329164;fill-rule:nonzero;stroke:none;stroke-width:2;marker:none;visibility:visible;display:inline;overflow:visible;enable-background:accumulate" />
  <rect
     style="color:#000000;fill:#d1d4d6;fill-opacity:0.74329164;fill-rule:nonzero;stroke:none;stroke-width:2;marker:none;visibility:visible;display:inline;overflow:visible;enable-background:accumulate"
     id="rect3771"
     width="10"
     height="1"
     x="6"
     y="7" />
</svg>
