<?xml version="1.0" encoding="UTF-8" standalone="no"?>
<!-- Created with Inkscape (http://www.inkscape.org/) -->

<svg
   xmlns:dc="http://purl.org/dc/elements/1.1/"
   xmlns:cc="http://creativecommons.org/ns#"
   xmlns:rdf="http://www.w3.org/1999/02/22-rdf-syntax-ns#"
   xmlns:svg="http://www.w3.org/2000/svg"
   xmlns="http://www.w3.org/2000/svg"
   xmlns:xlink="http://www.w3.org/1999/xlink"
   xmlns:sodipodi="http://sodipodi.sourceforge.net/DTD/sodipodi-0.dtd"
   xmlns:inkscape="http://www.inkscape.org/namespaces/inkscape"
   width="64"
   height="64"
   id="svg13094"
   version="1.1"
   inkscape:version="0.48.3.1 r9886"
   sodipodi:docname="xojo.svg">
  <sodipodi:namedview
     id="base"
     pagecolor="#ffffff"
     bordercolor="#666666"
     borderopacity="1.0"
     inkscape:pageopacity="0"
     inkscape:pageshadow="2"
     inkscape:zoom="11.313709"
     inkscape:cx="40.28161"
     inkscape:cy="30.462681"
     inkscape:document-units="px"
     inkscape:current-layer="svg13094"
     showgrid="true"
     inkscape:snap-bbox="true"
     inkscape:bbox-paths="true"
     inkscape:bbox-nodes="true"
     inkscape:snap-bbox-edge-midpoints="true"
     inkscape:snap-bbox-midpoints="true"
     inkscape:object-paths="true"
     inkscape:snap-intersection-paths="true"
     inkscape:object-nodes="true"
     inkscape:snap-smooth-nodes="true"
     inkscape:snap-midpoints="true"
     inkscape:snap-object-midpoints="true"
     inkscape:snap-center="true"
     showguides="true"
     inkscape:guide-bbox="true"
     inkscape:window-width="1920"
     inkscape:window-height="1023"
     inkscape:window-x="-10"
     inkscape:window-y="35"
     inkscape:window-maximized="1"
     inkscape:snap-global="true"
     fit-margin-top="0"
     fit-margin-left="0"
     fit-margin-right="0"
     fit-margin-bottom="0"
     showborder="true"
     inkscape:showpageshadow="false"
     inkscape:snap-page="true">
    <inkscape:grid
       type="xygrid"
       id="grid3075"
       empspacing="5"
       visible="true"
       enabled="true"
       snapvisiblegridlinesonly="true"
       originx="0px"
       originy="18px" />
  </sodipodi:namedview>
  <defs
     id="defs13096">
    <linearGradient
       id="linearGradient4158">
      <stop
         offset="0"
         style="stop-color:#cde8bb;stop-opacity:1;"
         id="stop4160" />
      <stop
         offset="1"
         style="stop-color:#94c779;stop-opacity:1;"
         id="stop4162" />
    </linearGradient>
    <linearGradient
       id="linearGradient4158-2">
      <stop
         offset="0"
         style="stop-color:#6ec13a;stop-opacity:1;"
         id="stop4160-0" />
      <stop
         offset="1"
         style="stop-color:#4f872d;stop-opacity:1;"
         id="stop4162-4" />
    </linearGradient>
    <radialGradient
       inkscape:collect="always"
       xlink:href="#linearGradient4158"
       id="radialGradient3839"
       cx="32"
       cy="12.503571"
       fx="32"
       fy="12.503571"
       r="32"
       gradientTransform="matrix(0,1.5672782,-1.59375,0,51.927565,-36.305807)"
       gradientUnits="userSpaceOnUse" />
    <radialGradient
       inkscape:collect="always"
       xlink:href="#linearGradient4158-2"
       id="radialGradient3839-2"
       cx="32"
       cy="12.503571"
       fx="32"
       fy="12.503571"
       r="32"
       gradientTransform="matrix(0,1.5672782,-1.59375,0,51.927565,-36.305807)"
       gradientUnits="userSpaceOnUse" />
  </defs>
  <metadata
     id="metadata13099">
    <rdf:RDF>
      <cc:Work
         rdf:about="">
        <dc:format>image/svg+xml</dc:format>
        <dc:type
           rdf:resource="http://purl.org/dc/dcmitype/StillImage" />
        <dc:title />
      </cc:Work>
    </rdf:RDF>
  </metadata>
  <path
     inkscape:connector-curvature="0"
     style="color:#000000;fill:url(#radialGradient3839);fill-opacity:1;fill-rule:nonzero;stroke:none;stroke-width:2.28571415000000000;marker:none;visibility:visible;display:inline;overflow:visible;enable-background:accumulate"
     d="m 0,4 0,30 0,28 2,2 30,0 30,0 2,-2 L 64,34 64,4 32,4 0,4 z"
     id="path3443" />
  <path
     inkscape:connector-curvature="0"
     style="color:#000000;fill:#e4ffcf;fill-opacity:1;fill-rule:nonzero;stroke:none;stroke-width:2.28571415000000000;marker:none;visibility:visible;display:inline;overflow:visible;enable-background:accumulate"
     d="M 2,0 0,1 0,4 32,4 64,4 64,1 62,0 32,0 2,0 z"
     id="path3447" />
  <path
     style="fill:#ffffff;fill-opacity:0.66666669;fill-rule:nonzero"
     d="M 0,3 0,6 2,4 32,4 62,4 64,3 32,3 0,3 z"
     id="path4298"
     inkscape:connector-curvature="0" />
  <path
     style="fill:#1f0700;fill-opacity:0.06978802;fill-rule:nonzero"
     d="M 2,0 0,1 32,1 64,1 62,0 32,0 2,0 z"
     id="path4444"
     inkscape:connector-curvature="0" />
  <path
     d="M 64,6 62,4 64,3 z"
     id="path3028"
     style="fill:#1f0700;fill-opacity:0.13759861"
     inkscape:connector-curvature="0" />
  <path
     style="fill:#000000;fill-opacity:0.11130587;fill-rule:nonzero"
     d="M 63,0.5 63,34 63,63 64,62 64,34 64,1 63,0.5 z m 0,62.5 -31,0 -31,0 1,1 30,0 30,0 1,-1 z"
     id="path4366"
     inkscape:connector-curvature="0" />
  <g
     id="g3043"
     inkscape:export-filename="folder.png"
     inkscape:export-xdpi="90"
     inkscape:export-ydpi="90"
     transform="translate(-0.625,0.082283)" />
  <path
     style="fill:#ffffff;fill-opacity:0.35070675;fill-rule:nonzero"
     d="M 0,1 0,34 0,62 1,63 1,34 1,5 2,4 1,3.46875 1,1 0,1 z"
     id="path3864"
     inkscape:connector-curvature="0" />
  <g
     id="scalable"
     transform="matrix(1.0385892,0,0,1.0385892,1214.7222,1878.8121)"
     inkscape:label="#g3701"
     style="fill:#ffffff" />
  <path
     style="opacity:1;color:#000000;fill:url(#radialGradient3839-2);fill-opacity:1;fill-rule:nonzero;stroke:none;stroke-width:2.28571415000000000;marker:none;visibility:visible;display:inline;overflow:visible;enable-background:accumulate"
     d="M 32 11 C 26.188937 11 20.892516 13.164248 16.84375 16.71875 L 29.15625 29.0625 C 30.723198 30.629449 33.276801 30.629449 34.84375 29.0625 L 47.15625 16.71875 C 43.107484 13.164248 37.811063 11 32 11 z M 14.71875 18.84375 C 11.164248 22.892516 9 28.188937 9 34 C 9 39.811063 11.164248 45.107484 14.71875 49.15625 L 27.0625 36.84375 C 28.629448 35.276801 28.629448 32.723198 27.0625 31.15625 L 14.71875 18.84375 z M 49.28125 18.84375 L 36.9375 31.15625 C 35.370552 32.723198 35.370552 35.276801 36.9375 36.84375 L 49.28125 49.15625 C 52.835752 45.107484 55 39.811063 55 34 C 55 28.188937 52.835752 22.892516 49.28125 18.84375 z M 32 37.78125 C 30.977524 37.78125 29.939724 38.154026 29.15625 38.9375 L 16.84375 51.28125 C 20.892516 54.835752 26.188937 57 32 57 C 37.811063 57 43.107484 54.835752 47.15625 51.28125 L 34.84375 38.9375 C 34.060276 38.154026 33.022476 37.78125 32 37.78125 z "
     id="rect3014" />
  <path
     style="opacity:1;color:#000000;fill:#a7d28f;fill-opacity:1;fill-rule:nonzero;stroke:none;stroke-width:2;marker:none;visibility:visible;display:inline;overflow:visible;enable-background:accumulate"
     d="M 32 11 C 19.297451 11 9 21.297451 9 34 C 9 46.702549 19.297451 57 32 57 C 44.702549 57 55 46.702549 55 34 C 55 21.297451 44.702549 11 32 11 z M 32 14 C 43.045695 14 52 22.954305 52 34 C 52 45.045695 43.045695 54 32 54 C 20.954305 54 12 45.045695 12 34 C 12 22.954305 20.954305 14 32 14 z "
     id="path3007" />
</svg>
