<svg xmlns="http://www.w3.org/2000/svg" viewBox="0 0 64 64"><path d="m4 0h60v62h-60z" fill="#149abc"/><path d="m60 2v31l-24.313 29h28.313v-25-31l-4-4" fill="#003044" fill-opacity=".257"/><path d="m0 2h60v31l-26 31h-34z" fill="#2bbadd" color="#000"/><path d="m34 64l26-31c-2.329 2.776-4.361 3-11 3h-12v15c0 6.644.044 9.37-3 13" fill="#00a0ca"/><path d="m5 7v4h6v-4zm9 0v4h6v-4zm9 0v4h6v-4zm-18 7v2h6v-2zm9 0v2h6v-2zm9 0v2h6v-2zm-18 5v2h6v-2zm9 0v2h6v-2zm9 0v2h6v-2z" fill="#e3f5fa" color="#000"/></svg>