<svg xmlns="http://www.w3.org/2000/svg" viewBox="0 0 64 64"><defs><linearGradient x1="48.918" y1="46.21" x2="32.67" y2="24" id="0" gradientUnits="userSpaceOnUse"><stop stop-color="#fff" stop-opacity=".53"/><stop offset="1" stop-color="#fff" stop-opacity="0"/></linearGradient></defs><path d="m4 0h60v62h-60z" fill="#c8d4dc"/><path d="m60 2v31l-24.322 29h28.322v-25-31l-4-4" fill="#222e33" fill-opacity=".122"/><path d="m0 2h60v31l-26 31h-34z" fill="url(#0)"/><path d="m0 2h60v31l-26 31h-34z" fill="#edf0f2" color="#000"/><path d="m34 64l26-31c-2.329 2.776-4.361 3-11 3h-12v15c0 6.644.044 9.37-3 13" fill="#cdd9df"/><g color="#000"><path d="m0 2v62h1 33v-1h-33v-61h-1" fill="#103e58" fill-opacity=".137"/><path d="m5.361 29.21h.443c.35 0 .689-.022 1.018-.066.339-.044.646-.137.919-.279.274-.142.509-.345.706-.607.208-.263.356-.613.443-1.051l3.431-16.186c.055-.219.104-.432.148-.64.044-.219.066-.372.066-.46 0-.241-.06-.438-.181-.591-.12-.153-.29-.268-.509-.345-.208-.088-.465-.142-.772-.164-.295-.033-.618-.049-.969-.049h-.427l.361-1.773h10.424c2.605 0 4.564.427 5.877 1.28 1.324.843 1.986 2.096 1.986 3.759 0 .919-.142 1.729-.427 2.43-.274.7-.657 1.308-1.149 1.822-.492.503-1.073.919-1.74 1.248-.668.328-1.39.58-2.167.755l-.033.131c.602.109 1.155.295 1.658.558.503.263.936.602 1.297 1.018.361.405.64.886.837 1.445.208.558.312 1.187.312 1.888 0 1.226-.208 2.315-.624 3.267-.416.952-1.029 1.757-1.839 2.413-.81.646-1.822 1.138-3.037 1.477-1.204.339-2.599.509-4.186.509h-12.23l.361-1.789m8.438-.263h2.331c.952 0 1.756-.126 2.413-.378.668-.252 1.209-.624 1.625-1.116.416-.492.717-1.1.903-1.822.197-.733.295-1.576.295-2.528 0-1.226-.279-2.134-.837-2.725-.558-.602-1.423-.903-2.594-.903h-2.118l-2.02 9.472m2.462-11.557h1.888c1.587 0 2.73-.41 3.431-1.231.711-.832 1.067-2.01 1.067-3.546 0-1.193-.268-2.085-.804-2.676-.536-.591-1.319-.886-2.347-.886h-1.494l-1.74 8.339" fill="#6d808c"/></g></svg>