<?xml version="1.0" encoding="UTF-8" standalone="no"?>
<!-- Created with Inkscape (http://www.inkscape.org/) -->

<svg
   xmlns:dc="http://purl.org/dc/elements/1.1/"
   xmlns:cc="http://creativecommons.org/ns#"
   xmlns:rdf="http://www.w3.org/1999/02/22-rdf-syntax-ns#"
   xmlns:svg="http://www.w3.org/2000/svg"
   xmlns="http://www.w3.org/2000/svg"
   xmlns:xlink="http://www.w3.org/1999/xlink"
   xmlns:sodipodi="http://sodipodi.sourceforge.net/DTD/sodipodi-0.dtd"
   xmlns:inkscape="http://www.inkscape.org/namespaces/inkscape"
   version="1.1"
   width="64"
   height="64"
   id="svg13094"
   inkscape:version="0.48.3.1 r9886"
   sodipodi:docname="office-presentation.svg">
  <sodipodi:namedview
     pagecolor="#ffffff"
     bordercolor="#666666"
     borderopacity="1"
     objecttolerance="10"
     gridtolerance="10"
     guidetolerance="10"
     inkscape:pageopacity="0"
     inkscape:pageshadow="2"
     inkscape:window-width="1920"
     inkscape:window-height="1023"
     id="namedview68"
     showgrid="true"
     inkscape:zoom="10.429825"
     inkscape:cx="30.569225"
     inkscape:cy="29.232766"
     inkscape:window-x="-10"
     inkscape:window-y="35"
     inkscape:window-maximized="1"
     inkscape:current-layer="svg13094"
     inkscape:snap-bbox="true"
     inkscape:bbox-paths="true"
     inkscape:bbox-nodes="true"
     inkscape:snap-bbox-edge-midpoints="true"
     inkscape:snap-bbox-midpoints="true"
     inkscape:object-paths="true"
     inkscape:snap-intersection-paths="true"
     inkscape:object-nodes="true"
     inkscape:snap-smooth-nodes="true"
     inkscape:snap-midpoints="true"
     inkscape:snap-object-midpoints="true"
     inkscape:snap-center="true">
    <inkscape:grid
       type="xygrid"
       id="grid3839" />
  </sodipodi:namedview>
  <defs
     id="defs11">
    <linearGradient
       gradientTransform="translate(0,-64)"
       gradientUnits="userSpaceOnUse"
       id="linearGradient3829"
       y2="88"
       x2="32.669781"
       y1="110.2137"
       x1="48.917568">
      <stop
         offset="0"
         style="stop-color:#cf7646;stop-opacity:1;"
         id="stop3831" />
      <stop
         offset="0.50050378"
         style="stop-color:#d98244;stop-opacity:1;"
         id="stop3833" />
      <stop
         offset="0.51600277"
         style="stop-color:#cf7646;stop-opacity:1;"
         id="stop3835" />
      <stop
         offset="1"
         style="stop-color:#d98244;stop-opacity:1;"
         id="stop3837" />
    </linearGradient>
    <radialGradient
       cx="48.24176"
       cy="40.919418"
       r="14.16129"
       fx="40.959122"
       fy="40.608799"
       id="radialGradient3822-5"
       xlink:href="#radialGradient3996-7"
       gradientUnits="userSpaceOnUse"
       gradientTransform="matrix(-2.0491578e-7,2.1591248,-0.51856169,-3.8905836e-8,81.125244,-70.945917)" />
    <radialGradient
       cx="48.30785"
       cy="47.141338"
       r="14.16129"
       id="radialGradient3996-7"
       gradientUnits="userSpaceOnUse"
       gradientTransform="matrix(0.93962333,0.77477937,-1.7975241,2.1799696,88.130548,-93.365748)">
      <stop
         id="stop3954-9"
         style="stop-color:#000000;stop-opacity:0.36716226;"
         offset="0" />
      <stop
         id="stop3958-7"
         style="stop-color:#000000;stop-opacity:0.16224952;"
         offset="0.5" />
      <stop
         id="stop3956-2"
         style="stop-color:#000000;stop-opacity:0;"
         offset="1" />
    </radialGradient>
    <radialGradient
       cx="48.30785"
       cy="47.141338"
       r="14.16129"
       id="radialGradient3373-7"
       xlink:href="#radialGradient3996-7"
       gradientUnits="userSpaceOnUse"
       gradientTransform="matrix(0.93962333,0.77477937,-1.7975241,2.1799696,88.130548,-93.365748)" />
    <linearGradient
       x1="45"
       y1="52"
       x2="73"
       y2="4"
       id="linearGradient4308-7"
       gradientUnits="userSpaceOnUse">
      <stop
         id="stop4304-4"
         style="stop-color:#000000;stop-opacity:0.10677083"
         offset="0" />
      <stop
         id="stop4306-0"
         style="stop-color:#000000;stop-opacity:0"
         offset="1" />
    </linearGradient>
    <linearGradient
       x1="48.992088"
       y1="46.124821"
       x2="37"
       y2="36"
       id="linearGradient4280-6"
       gradientUnits="userSpaceOnUse">
      <stop
         id="stop4293-8"
         style="stop-color:#c67348;stop-opacity:1;"
         offset="0" />
      <stop
         id="stop4295-1"
         style="stop-color:#a85531;stop-opacity:1;"
         offset="0.2098622" />
      <stop
         id="stop4297-0"
         style="stop-color:#c35f34;stop-opacity:1;"
         offset="1" />
    </linearGradient>
    <linearGradient
       inkscape:collect="always"
       xlink:href="#linearGradient3829"
       id="linearGradient4937-1"
       gradientUnits="userSpaceOnUse"
       gradientTransform="translate(66.99748,-63.865696)"
       x1="-104.46229"
       y1="127.99998"
       x2="-104.46211"
       y2="65.999985" />
    <linearGradient
       inkscape:collect="always"
       xlink:href="#linearGradient3873"
       id="linearGradient3716-0-0"
       gradientUnits="userSpaceOnUse"
       gradientTransform="translate(-3557.1943,-1600.2279)"
       x1="3564.7356"
       y1="1664.2279"
       x2="3564.7356"
       y2="1602.2279" />
    <linearGradient
       gradientUnits="userSpaceOnUse"
       id="linearGradient3873"
       y2="2"
       x2="31"
       y1="64"
       x1="31">
      <stop
         offset="0"
         style="stop-color:#dadada;stop-opacity:1"
         id="stop3875-7" />
      <stop
         offset="0.50050378"
         style="stop-color:#ebebeb;stop-opacity:1"
         id="stop3877" />
      <stop
         offset="0.51612902"
         style="stop-color:#dadada;stop-opacity:1"
         id="stop3879" />
      <stop
         offset="1"
         style="stop-color:#ebebeb;stop-opacity:1"
         id="stop3881" />
    </linearGradient>
  </defs>
  <metadata
     id="metadata13099">
    <rdf:RDF>
      <cc:Work
         rdf:about="">
        <dc:format>image/svg+xml</dc:format>
        <dc:type
           rdf:resource="http://purl.org/dc/dcmitype/StillImage" />
        <dc:title />
      </cc:Work>
    </rdf:RDF>
  </metadata>
  <path
     inkscape:connector-curvature="0"
     d="M 4,0 64,0 64,62 4,62 z"
     id="path3960"
     style="fill:#bc5f37;fill-opacity:1;fill-rule:nonzero" />
  <path
     inkscape:connector-curvature="0"
     d="m 60,2 4,4 0,31 -4,-4 z"
     id="path3900"
     style="fill:url(#radialGradient3822-5);fill-rule:nonzero" />
  <path
     inkscape:connector-curvature="0"
     d="m 60,33 4,4 0,25 -28.32258,0 z"
     id="path3934"
     style="fill:url(#radialGradient3373-7);fill-rule:nonzero" />
  <path
     inkscape:connector-curvature="0"
     d="M 63,0 V 61 H 4 v 1 H 64 V 0 h -1 z"
     id="path4299"
     style="fill:#000000;fill-opacity:0.07887819;fill-rule:nonzero" />
  <path
     inkscape:connector-curvature="0"
     d="M 60,2 60,33 35,62 37,62 60.78125,33.65625 61,33.375 61,33 61,3 z"
     id="path3922"
     style="fill:url(#linearGradient4308-7);fill-rule:nonzero" />
  <path
     inkscape:connector-curvature="0"
     d="M 0,2 60,2 60,33 34,64 0,64 z"
     id="path3982"
     style="fill:url(#linearGradient4937-1);fill-rule:nonzero;color:#000000;fill-opacity:1;stroke:none;stroke-width:1;marker:none;visibility:visible;display:inline;overflow:visible;enable-background:accumulate" />
  <path
     inkscape:connector-curvature="0"
     d="M 0,2 60,2 60,3 0,3 z"
     id="path4052"
     style="color:#000000;fill:#ffb079;fill-opacity:1;fill-rule:nonzero;stroke-width:1;stroke-linecap:butt;stroke-linejoin:miter;stroke-miterlimit:4;stroke-opacity:1;stroke-dasharray:none;stroke-dashoffset:0;marker:none;visibility:visible;display:inline;overflow:visible;enable-background:accumulate" />
  <path
     inkscape:connector-curvature="0"
     d="m 0,63 35,0 -1,1 -34,0 z"
     id="path4255"
     style="fill:#000000;fill-opacity:0.10341803;fill-rule:nonzero" />
  <path
     inkscape:connector-curvature="0"
     d="M 4,0 64,0 64,1 4,1 z"
     id="path3878"
     style="color:#000000;fill:#ffb079;fill-opacity:0.6827957;fill-rule:nonzero;stroke-width:1;stroke-linecap:butt;stroke-linejoin:miter;stroke-miterlimit:4;stroke-opacity:1;stroke-dasharray:none;stroke-dashoffset:0;marker:none;visibility:visible;display:inline;overflow:visible;enable-background:accumulate" />
  <path
     inkscape:connector-curvature="0"
     d="M 34,64 60,33 c -2.328567,2.776369 -4.36141,3 -11,3 H 37 v 15 c 0,6.64407 0.04437,9.37018 -3,13 z"
     id="path4278"
     style="fill:url(#linearGradient4280-6);fill-rule:nonzero" />
  <path
     inkscape:connector-curvature="0"
     d="m 59,32 c -2.328567,2.776369 -4.36141,3 -11,3 H 36 v 15 c 0,6.64407 0.04437,9.37018 -3,13 4,-5 4.000382,-8.35667 4,-13 V 36 h 11 c 5,0 8.041405,-0.38188 11,-4 z"
     id="path4282"
     style="fill:#ffb079;fill-opacity:1;fill-rule:nonzero" />
  <path
     style="color:#000000;fill:url(#linearGradient3716-0-0);fill-opacity:1;fill-rule:nonzero;stroke:none;stroke-width:1;marker:none;visibility:visible;display:inline;overflow:visible;enable-background:accumulate"
     d="m 5,8 0,19 8.65625,0 0.8125,-3 L 8,24 8,11 l 22,0 0,13 -11.5625,0 0.65625,-2.4375 c 0.196629,0.550102 0.356009,1.035015 0.40625,1.03125 0.130483,-0.0098 0.605431,-3.122075 0.71875,-3.1875 0.113319,-0.06543 3.05129,1.076863 3.125,0.96875 0.07371,-0.108113 -2.082002,-2.433112 -2.0625,-2.5625 C 21.300752,17.683112 24.038569,16.125036 24,16 c -0.03857,-0.125036 -3.19225,0.09592 -3.28125,0 -0.089,-0.09592 0.371804,-3.202195 0.25,-3.25 -0.121804,-0.04781 -1.900767,2.552722 -2.03125,2.5625 -0.130483,0.0098 -2.261681,-2.315425 -2.375,-2.25 -0.113319,0.06542 0.79246,3.079387 0.71875,3.1875 -0.07371,0.108113 -3.199248,0.370612 -3.21875,0.5 -0.0195,0.129388 2.898931,1.281214 2.9375,1.40625 0.03857,0.125036 -1.714,2.716581 -1.625,2.8125 0.05841,0.06295 1.211894,-0.55621 2.0625,-1 L 13.125,36.09375 15.0625,36.625 17.625,27 l 2.75,0 2.5625,9.625 L 24.875,36.09375 22.46875,27 33,27 33,8 z m 42,0 0,0.5 0,7.5 1.78125,0 0.5,0 0,-0.5 0,-2.15625 c 0.177479,0.0062 0.318156,10e-7 0.53125,0 0.53952,3e-6 1.049786,-0.05197 1.46875,-0.1875 0.415516,-0.133218 0.76304,-0.33767 1.03125,-0.625 0.239214,-0.260157 0.422861,-0.547776 0.53125,-0.875 l 0,-0.03125 C 52.948736,11.304104 52.999994,10.970302 53,10.59375 52.999993,10.034343 52.859274,9.5398312 52.5625,9.125 52.279698,8.724167 51.87862,8.4200655 51.40625,8.25 50.947176,8.0809859 50.401807,8.0000075 49.8125,8 L 47.5,8 z m 2.28125,1.96875 0.5625,0 c 0.374533,5e-6 0.587538,0.080849 0.71875,0.1875 0.124883,0.101514 0.187497,0.192146 0.1875,0.46875 -4e-6,0.109398 -0.01685,0.208795 -0.03125,0.28125 -0.007,0.04007 -0.01851,0.109489 -0.0625,0.1875 -0.02764,0.05145 -0.07263,0.08735 -0.125,0.125 l 0,0.03125 c -0.03173,0.02348 -0.125018,0.05318 -0.28125,0.09375 -0.138894,0.03666 -0.332533,0.0625 -0.5625,0.0625 -0.1753,10e-7 -0.282339,6.01e-4 -0.40625,0 z"
     id="path3548"
     inkscape:connector-curvature="0"
     sodipodi:nodetypes="ccccccccccsssssssssssssccccccccccccccccccccccccccccccccccccccscc" />
</svg>
