<?xml version="1.0" encoding="UTF-8" standalone="no"?>
<!-- Created with Inkscape (http://www.inkscape.org/) -->

<svg
   xmlns:dc="http://purl.org/dc/elements/1.1/"
   xmlns:cc="http://creativecommons.org/ns#"
   xmlns:rdf="http://www.w3.org/1999/02/22-rdf-syntax-ns#"
   xmlns:svg="http://www.w3.org/2000/svg"
   xmlns="http://www.w3.org/2000/svg"
   xmlns:sodipodi="http://sodipodi.sourceforge.net/DTD/sodipodi-0.dtd"
   xmlns:inkscape="http://www.inkscape.org/namespaces/inkscape"
   width="24"
   height="24"
   id="svg27665"
   version="1.1"
   inkscape:version="0.48.4 r9939"
   sodipodi:docname="audio-output-none-panel.svg">
  <defs
     id="defs27667" />
  <sodipodi:namedview
     id="base"
     pagecolor="#cbcdd6"
     bordercolor="#666666"
     borderopacity="1.0"
     inkscape:pageopacity="1"
     inkscape:pageshadow="2"
     inkscape:zoom="22.627418"
     inkscape:cx="12.575436"
     inkscape:cy="12.418371"
     inkscape:document-units="px"
     inkscape:current-layer="layer1"
     showgrid="true"
     inkscape:window-width="1920"
     inkscape:window-height="1018"
     inkscape:window-x="-5"
     inkscape:window-y="25"
     inkscape:window-maximized="1"
     inkscape:snap-bbox="true"
     inkscape:bbox-paths="true"
     inkscape:bbox-nodes="true"
     inkscape:snap-bbox-edge-midpoints="true"
     inkscape:snap-bbox-midpoints="true"
     inkscape:object-paths="true"
     inkscape:snap-intersection-paths="true"
     inkscape:object-nodes="true"
     inkscape:snap-smooth-nodes="true"
     inkscape:snap-midpoints="true"
     inkscape:snap-object-midpoints="true"
     inkscape:snap-center="true"
     inkscape:snap-global="false"
     showguides="true"
     inkscape:guide-bbox="true"
     fit-margin-top="0"
     fit-margin-left="0"
     fit-margin-right="0"
     fit-margin-bottom="0"
     inkscape:showpageshadow="false">
    <inkscape:grid
       type="xygrid"
       id="grid3070"
       empspacing="5"
       visible="true"
       enabled="true"
       snapvisiblegridlinesonly="true"
       originx="-47.999653px"
       originy="-0.00031276823px" />
  </sodipodi:namedview>
  <metadata
     id="metadata27670">
    <rdf:RDF>
      <cc:Work
         rdf:about="">
        <dc:format>image/svg+xml</dc:format>
        <dc:type
           rdf:resource="http://purl.org/dc/dcmitype/StillImage" />
        <dc:title />
      </cc:Work>
    </rdf:RDF>
  </metadata>
  <g
     inkscape:label="Camada 1"
     inkscape:groupmode="layer"
     id="layer1"
     transform="translate(3316.4171,-2092.7186)">
    <path
       style="fill:#434a54;fill-opacity:0.67450980000000005;color:#000000;fill-rule:nonzero;stroke:none;stroke-width:1;marker:none;visibility:visible;display:inline;overflow:visible;enable-background:accumulate"
       d="M 11.8125 4 A 1.0001 1.0001 0 0 0 11.15625 4.4375 L 9.34375 7.1875 L 5.65625 8.5625 A 1.0001 1.0001 0 0 0 5 9.5 L 5 14.5 A 1.0001 1.0001 0 0 0 5.65625 15.4375 L 7.15625 16 L 8.71875 14.4375 L 7 13.8125 L 7 10.1875 L 10.34375 8.9375 A 1.0001 1.0001 0 0 0 10.84375 8.5625 L 12.53125 6 L 15.25 6 C 15.348992 6.3779847 15.443938 6.9498466 15.5625 7.59375 L 17.25 5.90625 C 17.075875 5.2011673 16.9375 4.6875 16.9375 4.6875 A 1.0001 1.0001 0 0 0 16 4 L 12 4 A 1.0001 1.0001 0 0 0 11.90625 4 A 1.0001 1.0001 0 0 0 11.8125 4 z M 19.125 5.40625 L 17.5 7.0625 L 15.75 8.8125 L 9.71875 14.84375 L 8.1875 16.375 L 5.875 18.65625 L 6.59375 19.34375 L 9.1875 16.75 L 9.34375 16.8125 L 11.15625 19.5625 A 1.0001 1.0001 0 0 0 12 20 L 16 20 A 1.0001 1.0001 0 0 0 16.9375 19.3125 C 16.9375 19.3125 18 16.1667 18 12 C 18 10.591755 17.885474 9.3065148 17.71875 8.21875 L 19.84375 6.09375 L 19.125 5.40625 z M 15.875 10.0625 C 15.935358 10.669689 16 11.305746 16 12 C 16 14.7329 15.5268 16.943 15.25 18 L 12.53125 18 L 10.84375 15.4375 A 1.0001 1.0001 0 0 0 10.6875 15.25 L 15.875 10.0625 z "
       transform="translate(-3316.4171,2092.7186)"
       id="path4083" />
    <path
       id="path3866"
       d="m -3263.5734,2103.8749 -0.7187,0.6875 2.1562,2.1562 -2.1562,2.1563 0.7187,0.6875 2.1563,-2.1563 2.125,2.1563 0.7187,-0.6875 -2.1562,-2.1563 2.1562,-2.1562 -0.7187,-0.6875 -2.125,2.1562 z"
       style="font-size:medium;font-style:normal;font-variant:normal;font-weight:normal;font-stretch:normal;text-indent:0;text-align:start;text-decoration:none;line-height:normal;letter-spacing:normal;word-spacing:normal;text-transform:none;direction:ltr;block-progression:tb;writing-mode:lr-tb;text-anchor:start;baseline-shift:baseline;color:#000000;fill:#d1d4d6;fill-opacity:0.74329164;fill-rule:nonzero;stroke:none;stroke-width:2;marker:none;visibility:visible;display:inline;overflow:visible;enable-background:accumulate;font-family:Sans;-inkscape-font-specification:Sans"
       inkscape:connector-curvature="0"
       sodipodi:nodetypes="ccccccccccccc" />
    <g
       transform="translate(63.124999,-30.531249)"
       id="layer1-6" />
  </g>
</svg>
