<?xml version="1.0" encoding="UTF-8" standalone="no"?>
<!-- Created with Inkscape (http://www.inkscape.org/) -->

<svg
   xmlns:dc="http://purl.org/dc/elements/1.1/"
   xmlns:cc="http://creativecommons.org/ns#"
   xmlns:rdf="http://www.w3.org/1999/02/22-rdf-syntax-ns#"
   xmlns:svg="http://www.w3.org/2000/svg"
   xmlns="http://www.w3.org/2000/svg"
   xmlns:xlink="http://www.w3.org/1999/xlink"
   xmlns:sodipodi="http://sodipodi.sourceforge.net/DTD/sodipodi-0.dtd"
   xmlns:inkscape="http://www.inkscape.org/namespaces/inkscape"
   id="svg13094"
   height="64"
   width="64"
   version="1.1"
   inkscape:version="0.48.3.1 r9886"
   sodipodi:docname="folder-public-share.svg"
   inkscape:export-filename="folder.png"
   inkscape:export-xdpi="90"
   inkscape:export-ydpi="90">
  <sodipodi:namedview
     pagecolor="#ffffff"
     bordercolor="#666666"
     borderopacity="1"
     objecttolerance="10"
     gridtolerance="10"
     guidetolerance="10"
     inkscape:pageopacity="0"
     inkscape:pageshadow="2"
     inkscape:window-width="1920"
     inkscape:window-height="1023"
     id="namedview46"
     showgrid="true"
     inkscape:snap-bbox="true"
     inkscape:bbox-paths="true"
     inkscape:bbox-nodes="true"
     inkscape:snap-bbox-edge-midpoints="true"
     inkscape:snap-bbox-midpoints="true"
     inkscape:snap-nodes="true"
     inkscape:object-paths="true"
     inkscape:snap-intersection-paths="true"
     inkscape:object-nodes="true"
     inkscape:snap-smooth-nodes="true"
     inkscape:snap-midpoints="true"
     inkscape:snap-object-midpoints="true"
     inkscape:snap-center="true"
     fit-margin-top="0"
     fit-margin-left="0"
     fit-margin-right="0"
     fit-margin-bottom="0"
     inkscape:zoom="10.429825"
     inkscape:cx="32.905167"
     inkscape:cy="29.784946"
     inkscape:window-x="-10"
     inkscape:window-y="35"
     inkscape:window-maximized="1"
     inkscape:current-layer="g3045"
     showguides="true"
     inkscape:guide-bbox="true"
     inkscape:snap-page="true"
     inkscape:snap-global="true">
    <inkscape:grid
       type="xygrid"
       id="grid3023"
       empspacing="5"
       visible="true"
       enabled="true"
       snapvisiblegridlinesonly="true"
       originx="-80px"
       originy="-75px" />
  </sodipodi:namedview>
  <defs
     id="defs11">
    <linearGradient
       id="linearGradient3841-4-9">
      <stop
         style="stop-color:#a17c48;stop-opacity:1;"
         offset="0"
         id="stop3843-9-3" />
      <stop
         style="stop-color:#be965e;stop-opacity:1;"
         offset="1"
         id="stop3845-3-4" />
    </linearGradient>
    <linearGradient
       inkscape:collect="always"
       xlink:href="#linearGradient3969-4"
       id="linearGradient3918-2"
       gradientUnits="userSpaceOnUse"
       x1="29.875"
       y1="64.082283"
       x2="29.875"
       y2="12.082283" />
    <linearGradient
       id="linearGradient3969-4">
      <stop
         style="stop-color:#b3915e;stop-opacity:1;"
         offset="0"
         id="stop3971-7" />
      <stop
         id="stop3977-7"
         offset="0.08245245"
         style="stop-color:#caa36b;stop-opacity:1;" />
      <stop
         style="stop-color:#d0a973;stop-opacity:1;"
         offset="0.49040774"
         id="stop3979-2" />
      <stop
         id="stop3981-1"
         offset="0.51108748"
         style="stop-color:#c9a16b;stop-opacity:1;" />
      <stop
         style="stop-color:#c79e65;stop-opacity:1;"
         offset="1"
         id="stop3973-8" />
    </linearGradient>
    <linearGradient
       y2="32.976402"
       x2="77.278381"
       y1="48.976402"
       x1="77.278381"
       gradientTransform="translate(-33.625,-31.894117)"
       gradientUnits="userSpaceOnUse"
       id="linearGradient3100"
       xlink:href="#linearGradient3841-4-9"
       inkscape:collect="always" />
    <linearGradient
       id="linearGradient3841-4-6">
      <stop
         style="stop-color:#c68a35;stop-opacity:1;"
         offset="0"
         id="stop3843-9-6" />
      <stop
         style="stop-color:#d0933d;stop-opacity:1;"
         offset="1"
         id="stop3845-3-4-4" />
    </linearGradient>
    <linearGradient
       inkscape:collect="always"
       xlink:href="#linearGradient3969-2"
       id="linearGradient3918-5"
       gradientUnits="userSpaceOnUse"
       x1="29.875"
       y1="64.082283"
       x2="29.875"
       y2="12.082283" />
    <linearGradient
       id="linearGradient3969-2">
      <stop
         style="stop-color:#c1853b;stop-opacity:1"
         offset="0"
         id="stop3971-2" />
      <stop
         id="stop3977-6"
         offset="0.08245245"
         style="stop-color:#d89b45;stop-opacity:1" />
      <stop
         style="stop-color:#e7a953;stop-opacity:1"
         offset="1"
         id="stop3973-3" />
    </linearGradient>
    <linearGradient
       y2="32.976402"
       x2="77.278381"
       y1="48.976402"
       x1="77.278381"
       gradientTransform="translate(-33.625,-31.894117)"
       gradientUnits="userSpaceOnUse"
       id="linearGradient4238"
       xlink:href="#linearGradient3841-4-6"
       inkscape:collect="always" />
  </defs>
  <metadata
     id="metadata13099">
    <rdf:RDF>
      <cc:Work
         rdf:about="">
        <dc:format>image/svg+xml</dc:format>
        <dc:type
           rdf:resource="http://purl.org/dc/dcmitype/StillImage" />
        <dc:title />
      </cc:Work>
    </rdf:RDF>
  </metadata>
  <g
     id="g3043"
     inkscape:export-filename="folder.png"
     inkscape:export-xdpi="90"
     inkscape:export-ydpi="90"
     transform="translate(-0.62500009,0.08228278)" />
  <g
     id="g3045"
     inkscape:export-filename="folder.png"
     inkscape:export-xdpi="90"
     inkscape:export-ydpi="90"
     transform="translate(0.625,-0.082283)">
    <path
       style="fill:url(#linearGradient4238);fill-opacity:1;fill-rule:nonzero;stroke:none"
       d="m 2.375,6.082283 -10e-8,58.000001 57.0000001,-10e-7 4,-4 0,-59 -1,-1 -26,0 -5,4.9999999 -28,1e-7 z"
       id="path3833"
       inkscape:connector-curvature="0"
       sodipodi:nodetypes="cccccccccc" />
    <path
       style="color:#000000;fill:#ffe083;fill-opacity:0.58422941;fill-rule:nonzero;stroke:none;stroke-width:1;marker:none;visibility:visible;display:inline;overflow:visible;enable-background:accumulate"
       d="m 36.375,0.082283 -5,5 -28,0 -1,1 0,1 1,-1 28,0 5,-5 26,0 1,1 0,-1 -1,-1 -26,0 z"
       id="path3800"
       inkscape:connector-curvature="0" />
    <path
       sodipodi:nodetypes="cccccccc"
       id="path3802"
       d="m 57.375,13.082283 0,51 2,0 4,-4 0,-59 -1,-1 0,18 z"
       inkscape:connector-curvature="0"
       style="fill:#3e4959;fill-opacity:0.43171806" />
    <path
       sodipodi:nodetypes="ccccc"
       d="m 6.375,13.082283 51,0 0,31 -51,0 z"
       id="path3920"
       inkscape:connector-curvature="0"
       style="fill:#dcdcdc;fill-opacity:1;fill-rule:nonzero" />
    <path
       inkscape:connector-curvature="0"
       id="path4253"
       d="m 6.375,13.082283 51,0 0,1 -51,0 z"
       style="fill:#ffffff;fill-opacity:0.60159009;fill-rule:nonzero"
       sodipodi:nodetypes="ccccc" />
    <path
       style="color:#000000;fill:#3e4959;fill-opacity:0.22968199;fill-rule:nonzero;stroke-width:1;stroke-linecap:butt;stroke-linejoin:miter;stroke-miterlimit:4;stroke-opacity:1;stroke-dasharray:none;stroke-dashoffset:0;marker:none;visibility:visible;display:inline;overflow:visible;enable-background:accumulate"
       d="m 29.375,13.082283 4,4 2,0 -4,-4 z"
       id="path3982"
       inkscape:connector-curvature="0"
       sodipodi:nodetypes="ccccc" />
    <path
       id="path3916"
       d="m -0.625,13.082283 0,50 1,1 59,0 1,-1 0,-45 -1,-1 -26,1e-6 -5,-5 -28,-10e-7 z"
       inkscape:connector-curvature="0"
       style="fill:url(#linearGradient3918-5);fill-opacity:1;fill-rule:nonzero"
       sodipodi:nodetypes="ccccccccccc"
       inkscape:export-xdpi="90"
       inkscape:export-ydpi="90" />
    <path
       style="color:#000000;fill:#ffe083;fill-opacity:0.58422941;fill-rule:nonzero;stroke:none;stroke-width:1;marker:none;visibility:visible;display:inline;overflow:visible;enable-background:accumulate"
       d="m 0.375,12.082283 -1,1 0,1 1,-1 28,0 5,5 26,0 1,1 0,-1 -1,-1 -26,0 -5,-5 -28,0 z"
       id="path3046"
       inkscape:connector-curvature="0" />
    <path
       inkscape:connector-curvature="0"
       style="color:#000000;fill:#7a4800;fill-opacity:0.27240145999999998;fill-rule:nonzero;stroke:none;stroke-width:1;marker:none;visibility:visible;display:inline;overflow:visible;enable-background:accumulate"
       d="m 32.6875,17.394783 -8.96875,8.96875 c -3.764004,-1.19144 -8.00003,-0.824836 -11.59375,1.25 -1.291663,0.745744 -2.319929,1.646548 -3.28125,2.6875 C 4.8376519,34.638962 3.8252993,41.171188 6.625,46.644783 l 4.28125,-4.28125 c -0.793595,-2.933678 -0.05832,-6.254184 2.25,-8.5625 3.4453,-3.445301 9.054699,-3.445299 12.5,0 l 15.71875,-15.71875 -8,0 z m -0.5625,16.125 -4.28125,4.28125 c 0.793595,2.933679 0.120819,6.254186 -2.1875,8.5625 -3.445301,3.445301 -9.054698,3.445301 -12.5,0 l -13.78125,13.71875 0,4 5.375,0 10.28125,-10.28125 c 3.764005,1.19144 8.000033,0.824834 11.59375,-1.25 6.670234,-3.851064 8.963811,-12.248734 5.5,-19.03125 z m -12.75,2.15625 c -2.436193,0 -4.406247,1.970056 -4.40625,4.40625 10e-7,2.436197 1.970056,4.406248 4.40625,4.40625 2.436195,-3e-6 4.406249,-1.970056 4.40625,-4.40625 -1e-6,-2.436194 -1.970054,-4.406249 -4.40625,-4.40625 z"
       id="path3061"
       sodipodi:nodetypes="ccssccsccccccscccccscsssss" />
    <path
       style="color:#000000;fill:#181818;fill-opacity:0.09229389;fill-rule:nonzero;stroke:none;stroke-width:1;marker:none;visibility:visible;display:inline;overflow:visible;enable-background:accumulate"
       d="m 32.6875,17.394783 -8.96875,8.96875 c -3.764004,-1.19144 -8.00003,-0.824836 -11.59375,1.25 -1.291663,0.745744 -2.319929,1.646548 -3.28125,2.6875 C 4.8376519,34.638962 3.8252993,41.171188 6.625,46.644783 l 0.40625,-0.40625 c -1.9813983,-5.154869 -0.8562922,-10.964816 2.8125,-14.9375 0.961321,-1.040952 1.989587,-1.941756 3.28125,-2.6875 3.59372,-2.074836 7.829746,-2.44144 11.59375,-1.25 l 8.96875,-8.96875 0.6875,0.6875 6,0 1,-1 -8,0 z m -0.5625,16.125 -4.28125,4.28125 c 0.793595,2.933679 0.120819,6.254186 -2.1875,8.5625 -3.445301,3.445301 -9.054698,3.445301 -12.5,0 l -13.78125,13.71875 0,4 1,0 0,-3 13.78125,-13.71875 c 3.445302,3.445301 9.054699,3.445301 12.5,0 2.308319,-2.308314 2.981095,-5.628821 2.1875,-8.5625 L 32.75,34.894783 c -0.180732,-0.466821 -0.393048,-0.920814 -0.625,-1.375 z m -12.75,2.15625 c -2.436193,0 -4.406247,1.970056 -4.40625,4.40625 10e-7,1.475067 0.733112,2.76304 1.84375,3.5625 -0.520915,-0.723674 -0.84375,-1.60137 -0.84375,-2.5625 3e-6,-2.436194 1.970057,-4.40625 4.40625,-4.40625 0.961129,0 1.838826,0.322835 2.5625,0.84375 -0.79946,-1.110638 -2.087433,-1.843749 -3.5625,-1.84375 z"
       id="path3934"
       inkscape:connector-curvature="0"
       sodipodi:nodetypes="ccssccsscccccccccsccccccscccsscsscs" />
    <path
       inkscape:connector-curvature="0"
       style="color:#000000;fill:#ffe083;fill-opacity:0.58422940999999995;fill-rule:nonzero;stroke:none;stroke-width:1;marker:none;visibility:visible;display:inline;overflow:visible;enable-background:accumulate"
       d="M 41.375,18.082283 25.65625,33.801033 C 25.440919,33.585702 25.231182,33.395698 25,33.207283 c -3.467725,-2.826222 -8.613781,-2.63622 -11.84375,0.59375 -2.308315,2.308316 -3.043595,5.62882 -2.25,8.5625 l -3.875,3.875 c 0.1798553,0.46459 0.362511,0.95416 0.59375,1.40625 l 4.28125,-4.28125 c -0.793595,-2.93368 -0.05832,-6.254184 2.25,-8.5625 3.4453,-3.445301 9.054699,-3.445299 12.5,0 L 43.375,18.082283 z m -8.25,16.4375 -0.375,0.375 c 0.1584,0.406859 0.286328,0.804996 0.40625,1.21875 0.128512,0.443394 0.227504,0.895335 0.3125,1.34375 0.08349,0.440476 0.145335,0.9013 0.1875,1.34375 0.08721,0.91513 0.08526,1.8138 0,2.71875 -0.04143,0.43978 -0.106357,0.87954 -0.1875,1.3125 -0.04911,0.26204 -0.09279,0.52255 -0.15625,0.78125 -0.01254,0.0514 -0.01815,0.105 -0.03125,0.15625 -0.07293,0.28532 -0.159796,0.56348 -0.25,0.84375 -0.02047,0.0632 -0.04115,0.12459 -0.0625,0.1875 -0.06801,0.20169 -0.141824,0.3952 -0.21875,0.59375 -0.159047,0.40937 -0.334693,0.82484 -0.53125,1.21875 -0.153887,0.3084 -0.323483,0.60889 -0.5,0.90625 -0.0542,0.0914 -0.09993,0.19098 -0.15625,0.28125 -0.08009,0.12816 -0.165666,0.24922 -0.25,0.375 -0.11624,0.1737 -0.250726,0.3311 -0.375,0.5 -0.125013,0.16955 -0.241954,0.33558 -0.375,0.5 -0.210696,0.26131 -0.425519,0.53389 -0.65625,0.78125 -0.05999,0.0641 -0.126178,0.12438 -0.1875,0.1875 -0.256731,0.26501 -0.532466,0.50339 -0.8125,0.75 -0.04473,0.0393 -0.07968,0.0862 -0.125,0.125 -0.307505,0.26411 -0.634352,0.50975 -0.96875,0.75 -0.381391,0.27357 -0.771926,0.54132 -1.1875,0.78125 -0.449215,0.25935 -0.90789,0.48123 -1.375,0.6875 -1.401331,0.6188 -2.859708,1.00469 -4.34375,1.15625 -1.978722,0.20208 -3.992997,0.002 -5.875,-0.59375 L 4.75,64.082283 l 2,0 9.28125,-9.28125 c 3.764005,1.19144 8.000033,0.82483 11.59375,-1.25 6.670234,-3.85106 8.963811,-12.24873 5.5,-19.03125 z m -10.09375,3.09375 c 0.09857,0.145981 0.169189,0.310992 0.25,0.46875 0.07806,0.1524 0.158556,0.30667 0.21875,0.46875 0.06971,0.18239 0.111382,0.36938 0.15625,0.5625 0.01985,0.0854 0.04786,0.16265 0.0625,0.25 0.03974,0.23821 0.0625,0.46914 0.0625,0.71875 0,1.2181 -0.484212,2.32796 -1.28125,3.125 -0.797038,0.79704 -1.906902,1.28125 -3.125,1.28125 -0.297001,0 -0.596109,-0.0359 -0.875,-0.0937 -0.03221,-0.007 -0.0618,-0.024 -0.09375,-0.0312 -0.193119,-0.0449 -0.380105,-0.0865 -0.5625,-0.15625 -0.162083,-0.0602 -0.316355,-0.14069 -0.46875,-0.21875 -0.157758,-0.0808 -0.322769,-0.15143 -0.46875,-0.25 0.805043,1.05243 2.04098,1.75 3.46875,1.75 2.436195,0 4.406249,-1.97006 4.40625,-4.40625 -1e-6,-1.42777 -0.697566,-2.66371 -1.75,-3.46875 z"
       id="path3077"
       sodipodi:nodetypes="ccssccccscccccssssscscccsccccccccccsssccccsccccccssscccccsscc" />
  </g>
</svg>
