<?xml version="1.0" encoding="UTF-8" standalone="no"?>
<!-- Created with Inkscape (http://www.inkscape.org/) -->

<svg
   xmlns:dc="http://purl.org/dc/elements/1.1/"
   xmlns:cc="http://creativecommons.org/ns#"
   xmlns:rdf="http://www.w3.org/1999/02/22-rdf-syntax-ns#"
   xmlns:svg="http://www.w3.org/2000/svg"
   xmlns="http://www.w3.org/2000/svg"
   xmlns:xlink="http://www.w3.org/1999/xlink"
   xmlns:sodipodi="http://sodipodi.sourceforge.net/DTD/sodipodi-0.dtd"
   xmlns:inkscape="http://www.inkscape.org/namespaces/inkscape"
   id="svg13094"
   height="64"
   width="64"
   version="1.1"
   inkscape:version="0.48.3.1 r9886"
   sodipodi:docname="folder-image-people.svg"
   inkscape:export-filename="folder.png"
   inkscape:export-xdpi="90"
   inkscape:export-ydpi="90">
  <sodipodi:namedview
     pagecolor="#ffffff"
     bordercolor="#666666"
     borderopacity="1"
     objecttolerance="10"
     gridtolerance="10"
     guidetolerance="10"
     inkscape:pageopacity="0"
     inkscape:pageshadow="2"
     inkscape:window-width="1920"
     inkscape:window-height="1023"
     id="namedview46"
     showgrid="true"
     inkscape:snap-bbox="true"
     inkscape:bbox-paths="true"
     inkscape:bbox-nodes="true"
     inkscape:snap-bbox-edge-midpoints="true"
     inkscape:snap-bbox-midpoints="true"
     inkscape:snap-nodes="true"
     inkscape:object-paths="true"
     inkscape:snap-intersection-paths="true"
     inkscape:object-nodes="true"
     inkscape:snap-smooth-nodes="true"
     inkscape:snap-midpoints="true"
     inkscape:snap-object-midpoints="true"
     inkscape:snap-center="true"
     fit-margin-top="0"
     fit-margin-left="0"
     fit-margin-right="0"
     fit-margin-bottom="0"
     inkscape:zoom="10.429825"
     inkscape:cx="32.570352"
     inkscape:cy="25.9936"
     inkscape:window-x="-10"
     inkscape:window-y="35"
     inkscape:window-maximized="1"
     inkscape:current-layer="g3045"
     showguides="true"
     inkscape:guide-bbox="true"
     inkscape:snap-page="true"
     inkscape:snap-global="true">
    <inkscape:grid
       type="xygrid"
       id="grid3023"
       empspacing="5"
       visible="true"
       enabled="true"
       snapvisiblegridlinesonly="true"
       originx="-80px"
       originy="-75px" />
  </sodipodi:namedview>
  <defs
     id="defs11">
    <linearGradient
       id="linearGradient3841-4-3">
      <stop
         style="stop-color:#a17c48;stop-opacity:1;"
         offset="0"
         id="stop3843-9-5" />
      <stop
         style="stop-color:#be965e;stop-opacity:1;"
         offset="1"
         id="stop3845-3-3" />
    </linearGradient>
    <linearGradient
       inkscape:collect="always"
       xlink:href="#linearGradient3969-5"
       id="linearGradient3918-1"
       gradientUnits="userSpaceOnUse"
       x1="29.875"
       y1="64.082283"
       x2="29.875"
       y2="12.082283" />
    <linearGradient
       id="linearGradient3969-5">
      <stop
         style="stop-color:#b3915e;stop-opacity:1;"
         offset="0"
         id="stop3971-3" />
      <stop
         id="stop3977-9"
         offset="0.08245245"
         style="stop-color:#caa36b;stop-opacity:1;" />
      <stop
         style="stop-color:#d0a973;stop-opacity:1;"
         offset="0.49040774"
         id="stop3979-35" />
      <stop
         id="stop3981-9"
         offset="0.51108748"
         style="stop-color:#c9a16b;stop-opacity:1;" />
      <stop
         style="stop-color:#c79e65;stop-opacity:1;"
         offset="1"
         id="stop3973-1" />
    </linearGradient>
    <linearGradient
       y2="32.976402"
       x2="77.278381"
       y1="48.976402"
       x1="77.278381"
       gradientTransform="translate(-33.625,-31.894117)"
       gradientUnits="userSpaceOnUse"
       id="linearGradient3100"
       xlink:href="#linearGradient3841-4-3"
       inkscape:collect="always" />
    <linearGradient
       id="linearGradient3841-4-6">
      <stop
         style="stop-color:#c68a35;stop-opacity:1;"
         offset="0"
         id="stop3843-9-6" />
      <stop
         style="stop-color:#d0933d;stop-opacity:1;"
         offset="1"
         id="stop3845-3-4" />
    </linearGradient>
    <linearGradient
       inkscape:collect="always"
       xlink:href="#linearGradient3969-2"
       id="linearGradient3918-5"
       gradientUnits="userSpaceOnUse"
       x1="29.875"
       y1="64.082283"
       x2="29.875"
       y2="12.082283" />
    <linearGradient
       id="linearGradient3969-2">
      <stop
         style="stop-color:#c1853b;stop-opacity:1"
         offset="0"
         id="stop3971-2" />
      <stop
         id="stop3977-6"
         offset="0.08245245"
         style="stop-color:#d89b45;stop-opacity:1" />
      <stop
         style="stop-color:#e7a953;stop-opacity:1"
         offset="1"
         id="stop3973-3" />
    </linearGradient>
    <linearGradient
       y2="32.976402"
       x2="77.278381"
       y1="48.976402"
       x1="77.278381"
       gradientTransform="translate(-33.625,-31.894117)"
       gradientUnits="userSpaceOnUse"
       id="linearGradient4548"
       xlink:href="#linearGradient3841-4-6"
       inkscape:collect="always" />
  </defs>
  <metadata
     id="metadata13099">
    <rdf:RDF>
      <cc:Work
         rdf:about="">
        <dc:format>image/svg+xml</dc:format>
        <dc:type
           rdf:resource="http://purl.org/dc/dcmitype/StillImage" />
        <dc:title />
      </cc:Work>
    </rdf:RDF>
  </metadata>
  <g
     id="g3043"
     inkscape:export-filename="folder.png"
     inkscape:export-xdpi="90"
     inkscape:export-ydpi="90"
     transform="translate(-0.62500009,0.08228278)" />
  <g
     id="g3045"
     inkscape:export-filename="folder.png"
     inkscape:export-xdpi="90"
     inkscape:export-ydpi="90"
     transform="translate(0.625,-0.082283)">
    <path
       style="fill:url(#linearGradient4548);fill-opacity:1;fill-rule:nonzero;stroke:none"
       d="m 2.375,6.082283 -10e-8,58.000001 57.0000001,-10e-7 4,-4 0,-59 -1,-1 -26,0 -5,4.9999999 -28,1e-7 z"
       id="path3833"
       inkscape:connector-curvature="0"
       sodipodi:nodetypes="cccccccccc" />
    <path
       style="color:#000000;fill:#ffe083;fill-opacity:0.58422941;fill-rule:nonzero;stroke:none;stroke-width:1;marker:none;visibility:visible;display:inline;overflow:visible;enable-background:accumulate"
       d="m 36.375,0.082283 -5,5 -28,0 -1,1 0,1 1,-1 28,0 5,-5 26,0 1,1 0,-1 -1,-1 -26,0 z"
       id="path3800"
       inkscape:connector-curvature="0" />
    <path
       sodipodi:nodetypes="cccccccc"
       id="path3802"
       d="m 57.375,13.082283 0,51 2,0 4,-4 0,-59 -1,-1 0,18 z"
       inkscape:connector-curvature="0"
       style="fill:#3e4959;fill-opacity:0.43171806" />
    <path
       sodipodi:nodetypes="ccccc"
       d="m 6.375,13.082283 51,0 0,31 -51,0 z"
       id="path3920"
       inkscape:connector-curvature="0"
       style="fill:#dcdcdc;fill-opacity:1;fill-rule:nonzero" />
    <path
       inkscape:connector-curvature="0"
       id="path4253"
       d="m 6.375,13.082283 51,0 0,1 -51,0 z"
       style="fill:#ffffff;fill-opacity:0.60159009;fill-rule:nonzero"
       sodipodi:nodetypes="ccccc" />
    <path
       style="color:#000000;fill:#3e4959;fill-opacity:0.22968199;fill-rule:nonzero;stroke-width:1;stroke-linecap:butt;stroke-linejoin:miter;stroke-miterlimit:4;stroke-opacity:1;stroke-dasharray:none;stroke-dashoffset:0;marker:none;visibility:visible;display:inline;overflow:visible;enable-background:accumulate"
       d="m 29.375,13.082283 4,4 2,0 -4,-4 z"
       id="path3982"
       inkscape:connector-curvature="0"
       sodipodi:nodetypes="ccccc" />
    <path
       id="path3916"
       d="m -0.625,13.082283 0,50 1,1 59,0 1,-1 0,-45 -1,-1 -26,1e-6 -5,-5 -28,-10e-7 z"
       inkscape:connector-curvature="0"
       style="fill:url(#linearGradient3918-5);fill-opacity:1;fill-rule:nonzero"
       sodipodi:nodetypes="ccccccccccc"
       inkscape:export-xdpi="90"
       inkscape:export-ydpi="90" />
    <path
       style="color:#000000;fill:#ffe083;fill-opacity:0.58422941;fill-rule:nonzero;stroke:none;stroke-width:1;marker:none;visibility:visible;display:inline;overflow:visible;enable-background:accumulate"
       d="m 0.375,12.082283 -1,1 0,1 1,-1 28,0 5,5 26,0 1,1 0,-1 -1,-1 -26,0 -5,-5 -28,0 z"
       id="path3046"
       inkscape:connector-curvature="0" />
    <path
       style="color:#000000;fill:#ffe083;fill-opacity:0.58422940999999995;fill-rule:nonzero;stroke:none;stroke-width:1;marker:none;visibility:visible;display:inline;overflow:visible;enable-background:accumulate"
       d="M 37 26 L 37 47 L 34 47 L 34 48 L 38 48 L 38 26 L 37 26 z M 12 29 L 12 30 L 33 30 L 33 29 L 12 29 z M 31 32 L 31 53 L 6 53 L 6 54 L 32 54 L 32 32 L 31 32 z M 9 35 L 9 49 L 10 49 L 10 36 L 27 36 L 27 35 L 9 35 z M 20.5625 38.4375 C 20.840342 38.892382 21 39.427963 21 40 C 21 41.656856 19.656856 43 18 43 C 18.640596 43.00175 19.297864 43.093026 19.9375 43.3125 C 20.154919 43.387101 20.356477 43.464944 20.5625 43.5625 C 21.425143 43.035597 22 42.084818 22 41 C 22 39.915183 21.425143 38.964403 20.5625 38.4375 z M 18 43 C 17.427963 43 16.892382 42.840342 16.4375 42.5625 C 16.56203 42.766381 16.70698 42.95698 16.875 43.125 C 17.243231 43.055 17.619462 42.998964 18 43 z M 22.75 45.3125 C 23.145211 45.815528 23.472117 46.384301 23.6875 47 L 13.75 47.0625 C 13.576008 47.373695 13.432259 47.713475 13.3125 48.0625 L 24.6875 48 C 24.312853 46.929023 23.622782 46.004894 22.75 45.3125 z "
       transform="translate(-0.625,0.082283)"
       id="path2989" />
    <path
       inkscape:connector-curvature="0"
       style="color:#000000;fill:#7a4800;fill-opacity:0.27240145999999998;fill-rule:nonzero;stroke:none;stroke-width:1;marker:none;visibility:visible;display:inline;overflow:visible;enable-background:accumulate"
       d="m 10.375,25.082283 0,4 22,0 0,18 4,0 0,-22 -26,0 z m -6,6 0,22 26,0 0,-22 -26,0 z m 4,4 18,0 0,14 -18,0 0,-14 z m 9,2 c -1.656854,0 -3,1.343146 -3,3 0,1.656856 1.343146,3 3,3 1.656856,0 3,-1.343144 3,-3 0,-1.656854 -1.343144,-3 -3,-3 z m 0,6 c -2.498426,-0.0068 -4.83151,1.567806 -5.6875,4.0625 l 11.375,-0.0625 c -0.607198,-1.735752 -2.01065,-3.090688 -3.75,-3.6875 -0.639636,-0.219474 -1.296904,-0.31075 -1.9375,-0.3125 z"
       id="path3059" />
    <path
       style="color:#000000;fill:#181818;fill-opacity:0.09229389000000000;fill-rule:nonzero;stroke:none;stroke-width:1;marker:none;visibility:visible;display:inline;overflow:visible;enable-background:accumulate"
       d="m 10.375,25.082283 0,4 1,0 0,-3 25,0 0,-1 -26,0 z m 22,5 0,17 1,0 0,-17 -1,0 z m -28,1 0,22 1,0 0,-21 25,0 0,-1 -26,0 z m 22,5 0,13 -17,0 0,1 18,0 0,-14 -1,0 z m -9,1 c -1.656854,0 -3,1.343146 -3,3 0,1.084818 0.574857,2.035597 1.4375,2.5625 -0.277842,-0.454882 -0.4375,-0.990462 -0.4375,-1.5625 0,-1.656854 1.343146,-3 3,-3 0.572038,0 1.107618,0.159658 1.5625,0.4375 -0.526903,-0.862643 -1.477682,-1.4375 -2.5625,-1.4375 z m -1.125,6.125 c -2.049397,0.389589 -3.836887,1.822775 -4.5625,3.9375 l 1.4375,0 c 1.069633,-1.913101 3.101121,-3.068349 5.25,-3.0625 -0.828427,0 -1.582107,-0.332107 -2.125,-0.875 z m 2.125,0.875 c 0.640596,0.0018 1.297864,0.09303 1.9375,0.3125 0.652256,0.223804 1.247742,0.55162 1.78125,0.96875 -0.576008,-0.722518 -1.311682,-1.31883 -2.15625,-1.71875 -0.454882,0.277842 -0.990462,0.4375 -1.5625,0.4375 z"
       id="path3056"
       inkscape:connector-curvature="0" />
  </g>
</svg>
