<?xml version="1.0" encoding="UTF-8" standalone="no"?>
<!-- Created with Inkscape (http://www.inkscape.org/) -->

<svg
   xmlns:dc="http://purl.org/dc/elements/1.1/"
   xmlns:cc="http://creativecommons.org/ns#"
   xmlns:rdf="http://www.w3.org/1999/02/22-rdf-syntax-ns#"
   xmlns:svg="http://www.w3.org/2000/svg"
   xmlns="http://www.w3.org/2000/svg"
   xmlns:xlink="http://www.w3.org/1999/xlink"
   xmlns:sodipodi="http://sodipodi.sourceforge.net/DTD/sodipodi-0.dtd"
   xmlns:inkscape="http://www.inkscape.org/namespaces/inkscape"
   id="svg13094"
   height="64"
   width="64"
   version="1.1"
   inkscape:version="0.48.3.1 r9886"
   sodipodi:docname="folder-wine.svg"
   inkscape:export-filename="folder.png"
   inkscape:export-xdpi="90"
   inkscape:export-ydpi="90">
  <sodipodi:namedview
     pagecolor="#ffffff"
     bordercolor="#666666"
     borderopacity="1"
     objecttolerance="10"
     gridtolerance="10"
     guidetolerance="10"
     inkscape:pageopacity="0"
     inkscape:pageshadow="2"
     inkscape:window-width="1920"
     inkscape:window-height="1023"
     id="namedview46"
     showgrid="true"
     inkscape:snap-bbox="true"
     inkscape:bbox-paths="true"
     inkscape:bbox-nodes="true"
     inkscape:snap-bbox-edge-midpoints="true"
     inkscape:snap-bbox-midpoints="true"
     inkscape:snap-nodes="true"
     inkscape:object-paths="true"
     inkscape:snap-intersection-paths="true"
     inkscape:object-nodes="true"
     inkscape:snap-smooth-nodes="true"
     inkscape:snap-midpoints="true"
     inkscape:snap-object-midpoints="true"
     inkscape:snap-center="true"
     fit-margin-top="0"
     fit-margin-left="0"
     fit-margin-right="0"
     fit-margin-bottom="0"
     inkscape:zoom="10.429825"
     inkscape:cx="40.414248"
     inkscape:cy="26.937922"
     inkscape:window-x="-10"
     inkscape:window-y="35"
     inkscape:window-maximized="1"
     inkscape:current-layer="g3045"
     showguides="true"
     inkscape:guide-bbox="true"
     inkscape:snap-page="true"
     inkscape:snap-global="true">
    <inkscape:grid
       type="xygrid"
       id="grid3023"
       empspacing="5"
       visible="true"
       enabled="true"
       snapvisiblegridlinesonly="true"
       originx="-80px"
       originy="-75px" />
  </sodipodi:namedview>
  <defs
     id="defs11">
    <linearGradient
       id="linearGradient3841-4-5">
      <stop
         style="stop-color:#a17c48;stop-opacity:1;"
         offset="0"
         id="stop3843-9-0" />
      <stop
         style="stop-color:#be965e;stop-opacity:1;"
         offset="1"
         id="stop3845-3-09" />
    </linearGradient>
    <linearGradient
       inkscape:collect="always"
       xlink:href="#linearGradient3969-5"
       id="linearGradient3918-4"
       gradientUnits="userSpaceOnUse"
       x1="29.875"
       y1="64.082283"
       x2="29.875"
       y2="12.082283" />
    <linearGradient
       id="linearGradient3969-5">
      <stop
         style="stop-color:#b3915e;stop-opacity:1;"
         offset="0"
         id="stop3971-0" />
      <stop
         id="stop3977-5"
         offset="0.08245245"
         style="stop-color:#caa36b;stop-opacity:1;" />
      <stop
         style="stop-color:#d0a973;stop-opacity:1;"
         offset="0.49040774"
         id="stop3979-9" />
      <stop
         id="stop3981-0"
         offset="0.51108748"
         style="stop-color:#c9a16b;stop-opacity:1;" />
      <stop
         style="stop-color:#c79e65;stop-opacity:1;"
         offset="1"
         id="stop3973-8" />
    </linearGradient>
    <linearGradient
       y2="32.976402"
       x2="77.278381"
       y1="48.976402"
       x1="77.278381"
       gradientTransform="translate(-33.625,-31.894117)"
       gradientUnits="userSpaceOnUse"
       id="linearGradient3100"
       xlink:href="#linearGradient3841-4-5"
       inkscape:collect="always" />
    <linearGradient
       id="linearGradient3841-4-6">
      <stop
         style="stop-color:#c68a35;stop-opacity:1;"
         offset="0"
         id="stop3843-9-6" />
      <stop
         style="stop-color:#d0933d;stop-opacity:1;"
         offset="1"
         id="stop3845-3-4" />
    </linearGradient>
    <linearGradient
       inkscape:collect="always"
       xlink:href="#linearGradient3969-2"
       id="linearGradient3918-5"
       gradientUnits="userSpaceOnUse"
       x1="29.875"
       y1="64.082283"
       x2="29.875"
       y2="12.082283" />
    <linearGradient
       id="linearGradient3969-2">
      <stop
         style="stop-color:#c1853b;stop-opacity:1"
         offset="0"
         id="stop3971-2" />
      <stop
         id="stop3977-6"
         offset="0.08245245"
         style="stop-color:#d89b45;stop-opacity:1" />
      <stop
         style="stop-color:#e7a953;stop-opacity:1"
         offset="1"
         id="stop3973-3" />
    </linearGradient>
    <linearGradient
       y2="32.976402"
       x2="77.278381"
       y1="48.976402"
       x1="77.278381"
       gradientTransform="translate(-33.625,-31.894117)"
       gradientUnits="userSpaceOnUse"
       id="linearGradient4021"
       xlink:href="#linearGradient3841-4-6"
       inkscape:collect="always" />
  </defs>
  <metadata
     id="metadata13099">
    <rdf:RDF>
      <cc:Work
         rdf:about="">
        <dc:format>image/svg+xml</dc:format>
        <dc:type
           rdf:resource="http://purl.org/dc/dcmitype/StillImage" />
        <dc:title />
      </cc:Work>
    </rdf:RDF>
  </metadata>
  <g
     id="g3043"
     inkscape:export-filename="folder.png"
     inkscape:export-xdpi="90"
     inkscape:export-ydpi="90"
     transform="translate(-0.62500009,0.08228278)" />
  <g
     id="g3045"
     inkscape:export-filename="folder.png"
     inkscape:export-xdpi="90"
     inkscape:export-ydpi="90"
     transform="translate(0.625,-0.082283)">
    <path
       style="fill:url(#linearGradient4021);fill-opacity:1;fill-rule:nonzero;stroke:none"
       d="m 2.375,6.082283 -10e-8,58.000001 57.0000001,-10e-7 4,-4 0,-59 -1,-1 -26,0 -5,4.9999999 -28,1e-7 z"
       id="path3833"
       inkscape:connector-curvature="0"
       sodipodi:nodetypes="cccccccccc" />
    <path
       style="color:#000000;fill:#ffe083;fill-opacity:0.58422941;fill-rule:nonzero;stroke:none;stroke-width:1;marker:none;visibility:visible;display:inline;overflow:visible;enable-background:accumulate"
       d="m 36.375,0.082283 -5,5 -28,0 -1,1 0,1 1,-1 28,0 5,-5 26,0 1,1 0,-1 -1,-1 -26,0 z"
       id="path3800"
       inkscape:connector-curvature="0" />
    <path
       sodipodi:nodetypes="cccccccc"
       id="path3802"
       d="m 57.375,13.082283 0,51 2,0 4,-4 0,-59 -1,-1 0,18 z"
       inkscape:connector-curvature="0"
       style="fill:#3e4959;fill-opacity:0.43171806" />
    <path
       sodipodi:nodetypes="ccccc"
       d="m 6.375,13.082283 51,0 0,31 -51,0 z"
       id="path3920"
       inkscape:connector-curvature="0"
       style="fill:#dcdcdc;fill-opacity:1;fill-rule:nonzero" />
    <path
       inkscape:connector-curvature="0"
       id="path4253"
       d="m 6.375,13.082283 51,0 0,1 -51,0 z"
       style="fill:#ffffff;fill-opacity:0.60159009;fill-rule:nonzero"
       sodipodi:nodetypes="ccccc" />
    <path
       style="color:#000000;fill:#3e4959;fill-opacity:0.22968199;fill-rule:nonzero;stroke-width:1;stroke-linecap:butt;stroke-linejoin:miter;stroke-miterlimit:4;stroke-opacity:1;stroke-dasharray:none;stroke-dashoffset:0;marker:none;visibility:visible;display:inline;overflow:visible;enable-background:accumulate"
       d="m 29.375,13.082283 4,4 2,0 -4,-4 z"
       id="path3982"
       inkscape:connector-curvature="0"
       sodipodi:nodetypes="ccccc" />
    <path
       id="path3916"
       d="m -0.625,13.082283 0,50 1,1 59,0 1,-1 0,-45 -1,-1 -26,1e-6 -5,-5 -28,-10e-7 z"
       inkscape:connector-curvature="0"
       style="fill:url(#linearGradient3918-5);fill-opacity:1;fill-rule:nonzero"
       sodipodi:nodetypes="ccccccccccc"
       inkscape:export-xdpi="90"
       inkscape:export-ydpi="90" />
    <path
       style="color:#000000;fill:#ffe083;fill-opacity:0.58422941;fill-rule:nonzero;stroke:none;stroke-width:1;marker:none;visibility:visible;display:inline;overflow:visible;enable-background:accumulate"
       d="m 0.375,12.082283 -1,1 0,1 1,-1 28,0 5,5 26,0 1,1 0,-1 -1,-1 -26,0 -5,-5 -28,0 z"
       id="path3046"
       inkscape:connector-curvature="0" />
    <path
       style="color:#000000;fill:#ffe083;fill-opacity:0.58422940999999995;fill-rule:nonzero;stroke:none;stroke-width:1;marker:none;visibility:visible;display:inline;overflow:visible;enable-background:accumulate"
       d="M 27.125 26 C 28.619964 36.977995 22.941239 37.176302 21 43 C 21 43 20.75 43.719494 20.75 45 C 20.75 46.280506 21 47 21 47 C 21.246094 48.393066 21.973109 49.304765 22.84375 49.96875 C 22.450989 49.444084 22.140625 48.796038 22 48 C 22 48 21.75 47.280506 21.75 46 C 21.75 44.719494 22 44 22 44 C 24.000006 38 29.999998 38 28 26 L 27.125 26 z M 26.9375 52.6875 C 26.969809 52.788156 27 52.886 27 53 L 19 53 L 12.59375 53 C 12.239391 53.278346 12 53.591892 12 54 L 20 54 L 28 54 C 28 53.434748 27.556102 53.046098 26.9375 52.6875 z "
       transform="translate(-0.625,0.082283)"
       id="use2989" />
    <path
       id="path3079"
       d="m 10.375,25.082283 c -2,12 4,12 6,18 0,0 0.25,0.719494 0.25,2 0,1.280506 -0.25,2 -0.25,2 -0.750002,4.245536 -6.000002,4 -6,6 l 8,0 8,0 c 0,-2 -5.249998,-1.754464 -6,-6 0,0 -0.25,-0.719494 -0.25,-2 0,-1.280506 0.25,-2 0.25,-2 2.000006,-6 7.999998,-6 6,-18 l -8,0 -8,0 z"
       style="color:#000000;fill:#7a4800;fill-opacity:0.27240145999999998;fill-rule:nonzero;stroke:none;stroke-width:1;marker:none;visibility:visible;display:inline;overflow:visible;enable-background:accumulate"
       inkscape:connector-curvature="0" />
    <path
       style="color:#000000;fill:#181818;fill-opacity:0.09229389000000000;fill-rule:nonzero;stroke:none;stroke-width:1;marker:none;visibility:visible;display:inline;overflow:visible;enable-background:accumulate"
       d="m 10.375,25.082283 c -2,12 4,12 6,18 0,0 0.25,0.719494 0.25,2 0,1.280506 -0.25,2 -0.25,2 -0.750002,4.245536 -6.000002,4 -6,6 l 1.59375,0 c 1.382236,-1.085732 4.809289,-1.620783 5.40625,-5 0,0 0.25,-0.719494 0.25,-2 0,-1.280506 -0.25,-2 -0.25,-2 -2,-6 -8,-6 -6,-18 l 8,0 7.125,0 c -0.04526,-0.332339 -0.06623,-0.647396 -0.125,-1 l -8,0 -8,0 z m 11.84375,24.96875 c 1.109942,1.482703 2.933979,2.046441 4.09375,2.71875 -0.348525,-1.085805 -2.462252,-1.474505 -4.09375,-2.71875 z"
       id="path3076"
       inkscape:connector-curvature="0" />
  </g>
</svg>
