<?xml version="1.0" encoding="UTF-8" standalone="no"?>
<!-- Created with Inkscape (http://www.inkscape.org/) -->

<svg
   xmlns:dc="http://purl.org/dc/elements/1.1/"
   xmlns:cc="http://creativecommons.org/ns#"
   xmlns:rdf="http://www.w3.org/1999/02/22-rdf-syntax-ns#"
   xmlns:svg="http://www.w3.org/2000/svg"
   xmlns="http://www.w3.org/2000/svg"
   xmlns:sodipodi="http://sodipodi.sourceforge.net/DTD/sodipodi-0.dtd"
   xmlns:inkscape="http://www.inkscape.org/namespaces/inkscape"
   width="16"
   height="16"
   id="svg2"
   version="1.1"
   inkscape:version="0.48.3.1 r9886"
   sodipodi:docname="audio-headphones.svg">
  <sodipodi:namedview
     id="base"
     pagecolor="#cbced6"
     bordercolor="#666666"
     borderopacity="1.0"
     inkscape:pageopacity="1"
     inkscape:pageshadow="2"
     inkscape:zoom="45.254834"
     inkscape:cx="9.9498866"
     inkscape:cy="8.2879849"
     inkscape:document-units="px"
     inkscape:current-layer="layer1"
     showgrid="true"
     inkscape:window-width="1920"
     inkscape:window-height="1033"
     inkscape:window-x="-10"
     inkscape:window-y="25"
     inkscape:window-maximized="1"
     showguides="true"
     inkscape:guide-bbox="true"
     fit-margin-top="0"
     fit-margin-left="0"
     fit-margin-right="0"
     fit-margin-bottom="0">
    <inkscape:grid
       snapvisiblegridlinesonly="true"
       enabled="true"
       visible="true"
       empspacing="5"
       id="grid2816"
       type="xygrid"
       originx="-410px"
       originy="18.999958px" />
  </sodipodi:namedview>
  <defs
     id="defs4" />
  <metadata
     id="metadata7">
    <rdf:RDF>
      <cc:Work
         rdf:about="">
        <dc:format>image/svg+xml</dc:format>
        <dc:type
           rdf:resource="http://purl.org/dc/dcmitype/StillImage" />
        <dc:title />
      </cc:Work>
    </rdf:RDF>
  </metadata>
  <g
     transform="translate(-410,-1055.3622)"
     id="layer1"
     inkscape:groupmode="layer"
     inkscape:label="Layer 1">
    <path
       sodipodi:nodetypes="sccsccscccccccccc"
       inkscape:connector-curvature="0"
       id="path2984"
       d="m 418,1056.3622 c -3.86599,0 -7,4.134 -7,8 l 2,-1 c 0,-2.7614 2.23858,-5 5,-5 2.76142,0 5,2.2386 5,5 l 2,1 c 0,-3.866 -3.13401,-8 -7,-8 z m -7,8 1,5 3,0 0,-5 z m 10,0 0,5 3,0 1,-5 z"
       style="fill:#434a54;fill-opacity:0.6745098;fill-rule:nonzero;stroke:none" />
    <path
       style="font-size:medium;font-style:normal;font-variant:normal;font-weight:normal;font-stretch:normal;text-indent:0;text-align:start;text-decoration:none;line-height:normal;letter-spacing:normal;word-spacing:normal;text-transform:none;direction:ltr;block-progression:tb;writing-mode:lr-tb;text-anchor:start;baseline-shift:baseline;color:#000000;fill:#d1d4d6;fill-opacity:0.74329164;fill-rule:nonzero;stroke:none;stroke-width:2;marker:none;visibility:visible;display:inline;overflow:visible;enable-background:accumulate;font-family:Sans;-inkscape-font-specification:Sans"
       d="M 8,0 C 5.71056,0 3.6952,1.21335 2.28125,2.90625 c -1.31184,1.5708 -2.07264,3.5845 -2.1875,5.625 -5.7e-4,0.01 5.4e-4,0.02125 0,0.03125 C 0.08260961,8.5829609 0.07218446,8.6038112 0.0625,8.625 0.02826098,8.7150849 0.00713706,8.8101425 0,8.90625 -3.4e-4,8.93725 0,8.969 0,9 c -1.6275076e-4,0.010416 -1.6275076e-4,0.020834 0,0.03125 -6.5108255e-4,0.020827 -6.5108255e-4,0.041673 0,0.0625 0.00886363,0.031739 0.01929726,0.06304 0.03125,0.09375 0.0077163,0.04228 0.01816186,0.084062 0.03125,0.125 l 0.96875,4.875 C 1.1167894,14.635648 1.5438042,14.993789 2,15 l 3,0 c 0.5235845,-5.2e-5 0.9999476,-0.476416 1,-1 L 6,9 C 6.0057924,8.5246286 5.6258168,8.0742871 5.15625,8 L 4,8 3,8 1,9 5,9 5,14 2,14 1,9 C 1,5.134 4.13401,1 8,1 c 3.86599,0 7,4.134 7,8 l -1,5 -3,0 0,-5 4,0 -2,-1 -1,0 -1.09375,0 C 10.414666,8.0463304 9.9978709,8.5062423 10,9 l 0,5 c 5.2e-5,0.523584 0.476416,0.999948 1,1 l 3,0 c 0.456196,-0.0062 0.883211,-0.364352 0.96875,-0.8125 l 0.9375,-4.78125 C 15.920798,9.3551078 15.931259,9.3028036 15.9375,9.25 l 0.03125,-0.03125 c 1.63e-4,-0.010416 1.63e-4,-0.020834 0,-0.03125 0.01114,-0.020461 0.02157,-0.041311 0.03125,-0.0625 1.63e-4,-0.010416 1.63e-4,-0.020834 0,-0.03125 6.51e-4,-0.020827 6.51e-4,-0.041673 0,-0.0625 1.63e-4,-0.010416 1.63e-4,-0.020834 0,-0.03125 -0.0023,-0.073772 -0.0128,-0.1472846 -0.03125,-0.21875 -0.0062,-0.052804 -0.0167,-0.1051078 -0.03125,-0.15625 -0.01018,-0.010645 -0.0206,-0.021065 -0.03125,-0.03125 -0.10129,-2.0617 -0.86255,-4.101 -2.1875,-5.6875 C 12.3048,1.21335 10.28944,0 8,0 z"
       transform="translate(410,1055.3622)"
       id="path3038"
       inkscape:connector-curvature="0"
       sodipodi:nodetypes="scccccccccccccccccccccccscccccccccccccccccccccccccs" />
  </g>
</svg>
