<?xml version="1.0" encoding="UTF-8" standalone="no"?>
<!-- Created with Inkscape (http://www.inkscape.org/) -->
<svg xmlns:dc="http://purl.org/dc/elements/1.1/" xmlns:cc="http://creativecommons.org/ns#" xmlns:rdf="http://www.w3.org/1999/02/22-rdf-syntax-ns#" xmlns:svg="http://www.w3.org/2000/svg" xmlns="http://www.w3.org/2000/svg" xmlns:sodipodi="http://sodipodi.sourceforge.net/DTD/sodipodi-0.dtd" xmlns:inkscape="http://www.inkscape.org/namespaces/inkscape" width="18" height="18" id="svg27665" version="1.1" inkscape:version="0.48.3.1 r9886" sodipodi:docname="capslock-enabled-symbolic.svg">
  <defs id="defs27667"/>
  <sodipodi:namedview id="base" pagecolor="#cbcdd6" bordercolor="#666666" borderopacity="1.0" inkscape:pageopacity="1" inkscape:pageshadow="2" inkscape:zoom="45.254837" inkscape:cx="5.0722328" inkscape:cy="7.9817953" inkscape:document-units="px" inkscape:current-layer="layer1" showgrid="true" inkscape:window-width="1920" inkscape:window-height="1023" inkscape:window-x="-10" inkscape:window-y="35" inkscape:window-maximized="1" inkscape:snap-bbox="true" inkscape:bbox-paths="true" inkscape:bbox-nodes="true" inkscape:snap-bbox-edge-midpoints="true" inkscape:snap-bbox-midpoints="true" inkscape:object-paths="true" inkscape:snap-intersection-paths="true" inkscape:object-nodes="true" inkscape:snap-smooth-nodes="true" inkscape:snap-midpoints="true" inkscape:snap-object-midpoints="true" inkscape:snap-center="true" inkscape:snap-global="true" showguides="true" inkscape:guide-bbox="true" fit-margin-top="0" fit-margin-left="0" fit-margin-right="0" fit-margin-bottom="0" inkscape:showpageshadow="false">
    <inkscape:grid type="xygrid" id="grid3070" empspacing="5" visible="true" enabled="true" snapvisiblegridlinesonly="true" originx="-47.999653px" originy="-0.00031276823px"/>
  </sodipodi:namedview>
  <metadata id="metadata27670">
    <rdf:RDF>
      <cc:Work rdf:about="">
        <dc:format>image/svg+xml</dc:format>
        <dc:type rdf:resource="http://purl.org/dc/dcmitype/StillImage"/>
        <dc:title/>
      </cc:Work>
    </rdf:RDF>
  </metadata>
  <g inkscape:label="Camada 1" inkscape:groupmode="layer" id="layer1" transform="translate(3316.4171,-2100.7186)">
    <path style="color:#000000;fill:#434a54;fill-opacity:0.6745098;fill-rule:nonzero;stroke:none;stroke-width:2.28571415;marker:none;visibility:visible;display:inline;overflow:visible;enable-background:accumulate" d="M 2,0 C 0.892,0 0,0.892 0,2 l 0,12 c 0,1.108 0.892,2 2,2 l 12,0 c 1.108,0 2,-0.892 2,-2 L 16,2 C 16,0.892 15.108,0 14,0 z m 1,3 10,0 c 0.554,0 1,0.446 1,1 l 0,10 c 0,0.554 -0.446,1 -1,1 L 3,15 C 2.446,15 2,14.554 2,14 L 2,4 C 2,3.446 2.446,3 3,3 z m 4,2 -2,1 0,7 2,0 0,-2 2,0 0,2 2,0 L 11,6 9,5 z M 7,7 9,7 9,9 7,9 z" transform="translate(-3315.4171,2101.7186)" id="rect3033" inkscape:connector-curvature="0" sodipodi:nodetypes="sssssssssssssssssscccccccccccccccc"/>
  </g>
</svg>
