<?xml version="1.0" encoding="UTF-8" standalone="no"?>
<!-- Created with Inkscape (http://www.inkscape.org/) -->
<svg id="svg13094" xmlns:rdf="http://www.w3.org/1999/02/22-rdf-syntax-ns#" xmlns="http://www.w3.org/2000/svg" height="24" width="24" version="1.1" xmlns:cc="http://creativecommons.org/ns#" xmlns:dc="http://purl.org/dc/elements/1.1/">
	<metadata id="metadata13099">
		<rdf:RDF>
			<cc:Work rdf:about="">
				<dc:format>image/svg+xml</dc:format>
				<dc:type rdf:resource="http://purl.org/dc/dcmitype/StillImage"/>
				<dc:title/>
			</cc:Work>
		</rdf:RDF>
	</metadata>
	<path id="path2995" style="color:#000000;enable-background:accumulate;" fill="#4a97e5" d="M5.84375,7.96875l-3.34375,3.375,0.1875,0.34375,3.4375-1.03125,0.875,3.8125,1.25,5.53125h0.59375l2.5625-1.75,0.59375,0.125v-3.28125l-1.8125,1.28125-0.03125-0.0625-3.15625-8.21875-0.03125-0.09375-1.125-0.03125zm6.15625,3.3125l-2.40625,0.8125,1.21875,2.4375,1.1875-0.8125v-2.4375z"/>
	<path id="path3004" style="color:#000000;enable-background:accumulate;" d="M16,8.65625l-1.21875,1.8125,1.21875,0.53125v-2.34375zm-2.9375,2.25l-1.0625,0.375v2.4375l2.875-1.96875-1.8125-0.84375zm2.9375,1.3125l-4,2.875v3.28125l4,0.71875v-6.875z" fill-rule="nonzero" fill-opacity="0.60931899" fill="#8a929e"/>
	<path id="path2995-9" style="color:#000000;enable-background:accumulate;" d="M19.75,3.0625l-3.75,5.59375v2.34375l1.21875,0.53125,2.53125-8.46875zm-3.75,9.15625v6.875l4.875,0.90625h0.15625v-0.5l-3.03125-6.5-2-0.78125z" fill-rule="nonzero" fill-opacity="0.60931899" fill="#8a929e"/>
</svg>
