<?xml version="1.0" encoding="UTF-8" standalone="no"?>
<!-- Created with Inkscape (http://www.inkscape.org/) -->

<svg
   xmlns:dc="http://purl.org/dc/elements/1.1/"
   xmlns:cc="http://creativecommons.org/ns#"
   xmlns:rdf="http://www.w3.org/1999/02/22-rdf-syntax-ns#"
   xmlns:svg="http://www.w3.org/2000/svg"
   xmlns="http://www.w3.org/2000/svg"
   xmlns:sodipodi="http://sodipodi.sourceforge.net/DTD/sodipodi-0.dtd"
   xmlns:inkscape="http://www.inkscape.org/namespaces/inkscape"
   version="1.1"
   width="24"
   height="24"
   id="svg13094"
   inkscape:version="0.48.3.1 r9886"
   sodipodi:docname="user-invisible.svg">
  <sodipodi:namedview
     pagecolor="#ffffff"
     bordercolor="#666666"
     borderopacity="1"
     objecttolerance="10"
     gridtolerance="10"
     guidetolerance="10"
     inkscape:pageopacity="0"
     inkscape:pageshadow="2"
     inkscape:window-width="1920"
     inkscape:window-height="1033"
     id="namedview6"
     showgrid="true"
     inkscape:snap-bbox="true"
     inkscape:bbox-paths="true"
     inkscape:bbox-nodes="true"
     inkscape:snap-bbox-edge-midpoints="true"
     inkscape:snap-bbox-midpoints="true"
     inkscape:object-paths="true"
     inkscape:snap-intersection-paths="true"
     inkscape:object-nodes="true"
     inkscape:snap-smooth-nodes="true"
     inkscape:snap-midpoints="true"
     inkscape:snap-object-midpoints="true"
     inkscape:snap-center="true"
     inkscape:zoom="41.7193"
     inkscape:cx="15.731009"
     inkscape:cy="11.409274"
     inkscape:window-x="-10"
     inkscape:window-y="25"
     inkscape:window-maximized="1"
     inkscape:current-layer="svg13094"
     inkscape:snap-global="false">
    <inkscape:grid
       type="xygrid"
       id="grid2983"
       empspacing="5"
       visible="true"
       enabled="true"
       snapvisiblegridlinesonly="true" />
  </sodipodi:namedview>
  <defs
     id="defs7" />
  <metadata
     id="metadata13099">
    <rdf:RDF>
      <cc:Work
         rdf:about="">
        <dc:format>image/svg+xml</dc:format>
        <dc:type
           rdf:resource="http://purl.org/dc/dcmitype/StillImage" />
        <dc:title />
      </cc:Work>
    </rdf:RDF>
  </metadata>
  <path
     id="path2990"
     d="m 12,4 c -4.4182781,0 -8,3.5817257 -8,8 0,2.209143 0.8960346,4.208536 2.34375,5.65625 L 4,20 l 8,0 c 4.418278,0 8,-3.581726 8,-8 0,-4.4182743 -3.581722,-8 -8,-8 z m 0,3 c 2.761424,0 5,2.2385763 5,5 0,2.761424 -2.238576,5 -5,5 C 9.2385763,17 7,14.761424 7,12 7,9.2385763 9.2385763,7 12,7 z"
     style="fill:#434a54;fill-opacity:0.6745098;fill-rule:nonzero;stroke:none"
     inkscape:connector-curvature="0" />
  <path
     inkscape:connector-curvature="0"
     style="font-size:medium;font-style:normal;font-variant:normal;font-weight:normal;font-stretch:normal;text-indent:0;text-align:start;text-decoration:none;line-height:normal;letter-spacing:normal;word-spacing:normal;text-transform:none;direction:ltr;block-progression:tb;writing-mode:lr-tb;text-anchor:start;baseline-shift:baseline;color:#000000;fill:#d1d4d6;fill-opacity:0.74329164;fill-rule:nonzero;stroke:none;stroke-width:2;marker:none;visibility:visible;display:inline;overflow:visible;enable-background:accumulate;font-family:Sans;-inkscape-font-specification:Sans"
     d="m 12,2.8125 c -5.0668062,0 -9.1875,4.1206938 -9.1875,9.1875 0,2.09569 0.8146417,3.950248 2,5.5 L 3.15625,19.15625 1.28125,21 13.84375,21 C 18.026841,20.142001 21.1875,16.433455 21.1875,12 21.1875,6.9331938 17.066806,2.8125 12,2.8125 z M 12,4 c 4.418278,0 8,3.581722 8,8 0,4.418278 -3.581722,8 -8,8 L 4,20 6.34375,17.65625 C 4.8960347,16.208535 4,14.209139 4,12 4,7.581722 7.581722,4 12,4 z"
     id="path2983" />
  <path
     style="color:#000000;fill:#d1d4d6;fill-opacity:0.74329164000000003;fill-rule:nonzero;stroke:none;stroke-width:2;marker:none;visibility:visible;display:inline;overflow:visible;enable-background:accumulate"
     d="M 12 7 C 9.2385763 7 7 9.2385763 7 12 C 7 14.761424 9.2385763 17 12 17 C 14.761424 17 17 14.761424 17 12 C 17 9.2385763 14.761424 7 12 7 z M 12 8.25 C 14.078088 8.25 15.75 9.9219116 15.75 12 C 15.75 14.078088 14.078088 15.75 12 15.75 C 9.9219116 15.75 8.25 14.078088 8.25 12 C 8.25 9.9219116 9.9219116 8.25 12 8.25 z "
     id="path2993" />
</svg>
