<svg xmlns="http://www.w3.org/2000/svg" viewBox="0 0 64 64"><g color="#000"><path d="m2 0l-2 1v3 30 28l2 2h30 30l2-2v-28-30-3l-2-1h-30-30" fill="#d6a326"/><path d="m2 0l-2 1v3h32 32v-3l-2-1h-30-30" fill="#ffc73a"/></g><path d="m2 0l-2 1v.813c.306.261.59.206.969-.25.111-.133.306-.25.406-.25.202 0 1.093-.882 1.375-1.313h-.75m5.594 0c-.128.072-.256.171-.438.344-.261.25-.822.658-1.25.906-.645.374-.803.558-.844.969-.038.392-.106.499-.375.5-.408.002-.985.354-1.688 1.063-.387.389-.523.642-.531 1.063v.594l-.719-.063c-.778-.047-1.531.315-1.531.719 0 .099-.106.183-.219.25v2.062c.532-.129.994-.353 1.313-.625.313-.267.753-.601.969-.75.216-.149.446-.473.5-.719.077-.35.23-.495.719-.656.344-.114.698-.344.781-.5.083-.156.228-.281.344-.281.116 0 .623-.365 1.125-.844.502-.479 1.361-1.289 1.875-1.781.691-.661 1.194-1 2-1.313.6-.231 1.439-.61 1.844-.844.063-.036.094-.058.156-.094h-2.469c.029.041.054.08.063.125.05.26.001.286-.531.187-.33-.061-.628-.171-.656-.25-.012-.032-.044-.042-.063-.063h-.375m9.406 0c-.328.297-.7.531-.844.531-.144 0-.417.124-.594.281-.177.157-.65.41-1.063.563-.501.185-.812.407-.906.656-.081.213-.268.375-.438.375-.163 0-.371.069-.469.188-.098.118-.384.264-.625.313-.267.053-.67.372-1.031.813-.325.397-.734.798-.938.875-.221.084-.375.249-.375.438 0 .348-.31.44-.594.156-.139-.139-.299-.07-.719.375-.556.59-.69.95-.406 1.125.086.053.158.199.156.344-.003.209-.053.203-.281-.094l-.313-.375-.531.406c-.636.485-.784.771-.656 1.281.066.263.002.382-.219.5-.349.187-.5.097-.5-.313 0-.329-.055-.347-.469-.125-.166.089-.309.291-.313.438-.009.45-.34.918-.969 1.344-.479.325-.664.368-.844.219-.308-.256-.66.07-.406.375.236.285.078.492-.719.906-.588.306-.744.343-1.156.188-.317-.12-.523-.133-.625-.031-.034.034-.101.036-.156.063v1.375c.022-.003.042-.031.063-.031.587 0 1.152-.246 1.563-.656l.344-.344.344.438c.296.371.402.403.688.25.224-.12.313-.313.313-.625 0-.5.157-.573.625-.281.265.165.37.083.938-.563.355-.403.777-.719.938-.719.16 0 .599-.292.969-.656.369-.364.91-.857 1.188-1.094.277-.236.5-.536.5-.656 0-.228.85-1.031 1.094-1.031.077 0 .446-.291.813-.656 1.16-1.157 1.806-1.585 2.406-1.563.45.017.569-.036.781-.406.142-.247.49-.571.75-.719.26-.147.818-.614 1.25-1.031.537-.519.894-.762 1.156-.75.648.03 1.425-.345 2.688-1.344.469-.371.789-.597 1.063-.75h-3.469m9.875 0c-.259.12-.494.176-.75.125-.281-.056-.531-.038-.594.063-.058.094-.257.188-.469.188-.244 0-.578.193-.875.531-.258.294-.669.597-.938.656-.888.195-2.692 1.023-2.969 1.375-.15.191-.578.511-.969.719-.391.207-.719.44-.719.5 0 .06-.292.237-.656.406-.364.169-.848.451-1.063.625-.338.274-.356.352-.188.625.172.28.126.352-.281.563-.252.13-.579.219-.75.219-.171 0-.352.068-.406.156-.093.15-1.066.639-1.688.844-.161.053-.25.243-.25.469 0 .296-.116.423-.469.5-.572.126-2.188 1.252-2.188 1.531 0 .114-.314.617-.688 1.125-.481.653-.822.989-1.188 1.094-.356.102-.751.42-1.25 1.063-.398.513-.869 1.028-1.063 1.125-.588.296-1.386 1.131-1.469 1.563-.043.224.011.556.125.719.204.291.142.719-.094.719-.067 0-.143-.142-.188-.313-.262-1-1.688-.132-1.688 1.031 0 .145.791.689 1.219.844.016.006.218-.073.438-.156.22-.084.375-.249.375-.375 0-.126.308-.467.656-.75.348-.283.862-.863 1.156-1.313.294-.45.583-.844.656-.844.073 0 .217-.165.313-.375.096-.21.406-.479.688-.625.281-.146.924-.686 1.438-1.188.514-.501 1.072-.906 1.219-.906.154 0 .377-.237.531-.563.202-.426.435-.64 1-.875.567-.236.854-.484 1.156-1 .22-.375.509-.688.625-.688.468 0 1.477-.751 2.406-1.781.541-.599 1.135-1.189 1.313-1.313.177-.123.369-.325.438-.438.172-.282.977-.688 1.375-.688.458 0 2.756-1.061 3.844-1.781.265-.175.756-.473 1.125-.688.369-.214 1-.698 1.406-1.063.496-.448.882-.651 1.188-.656.845-.014 2.59-.498 3.781-1h-4.625m14.563 0c.019.059.044.112.094.125.109.029.54.172.969.313.428.141.95.25 1.156.25.42-.002 1.98.417 2.438.656.67.351 2.149.748 2.438.656.175-.056.474.016.688.156.207.136.452.25.563.25.11 0 .686.232 1.281.531.595.3 1.293.563 1.531.563.297 0 .597.158.938.531.273.3.611.531.781.531.584 0 2.528.675 3 1.031.26.196.613.374.781.406.175.033.465.359.688.781.291.551.674.945 1.469 1.469.585.386 1.141.688 1.25.688.22 0 .624.421.75.781.045.129.397.622.781 1.094.384.471.751 1.026.813 1.219.026.08.091.198.156.313v-2.625c-.545-.578-1.01-1.101-1.062-1.219-.071-.155-.362-.362-.656-.469-.323-.117-.634-.402-.781-.687-.193-.374-.326-.432-.625-.375-.282.054-.375-.016-.375-.219 0-.26-.898-1.094-1.188-1.094-.077 0-.33-.161-.531-.375-.201-.214-.519-.406-.719-.406-.25 0-.344-.081-.344-.281 0-.343-1.109-1.094-1.594-1.094-.182 0-.527-.192-.781-.406-.255-.214-.626-.373-.813-.375-.186-.002-.505-.145-.719-.313-.214-.168-.511-.311-.656-.313-.146-.002-.338-.11-.406-.219-.245-.39-.891-.705-1.313-.625-.231.044-.518.022-.625-.063-.107-.084-.562-.194-1-.25-.614-.078-.849-.057-1 .125-.341.411-.605.274-.656-.344-.041-.493-.104-.6-.5-.719h-6.219m13.09 0c.054.045.099.076.156.125.191.165.714.438 1.156.594.442.156.918.369 1.063.5.144.131.368.25.469.25.101 0 .317.165.5.375.183.21.534.414.781.469.247.054.663.264.906.469.243.205.617.445.844.531.227.086.633.487.906.875.273.388.549.688.625.688.076 0 .358.202.594.438.236.236.715.649 1.094.906.189.129.241.176.375.281v-2.5-.281c-.733-.585-1.23-1.063-1.406-1.406-.087-.17-.338-.359-.594-.438-.721-.222-1.506-.545-2.125-.875-.56-.299-.57-.303-.844 0-.447.493-.74.392-.625-.219.061-.327.001-.612-.125-.781h-.656c-.441.335-.793.34-.938 0h-2.156m-16.969 2.219v.031c-.123.003-.276.097-.344.313l-.125.344-.219-.344c-.187-.267-.276-.289-.656-.156-.305.106-.653.11-1.063 0-.858-.231-3.45-.168-3.969.094-.233.117-.496.209-.563.188-.067-.022-.676.23-1.375.594-.699.364-1.374.688-1.5.688-.126 0-.331.09-.438.219-.107.129-.346.219-.531.219-.403 0-1.325.513-2.313 1.25-.504.376-.719.646-.719.906 0 .33-.068.369-.469.281-.345-.076-.724.035-1.656.5-.672.335-1.411.667-1.625.719-.214.052-.674.433-1 .844-.326.41-.94.93-1.375 1.188-1.366.806-1.386.848-1.344 2.344.024.871-.031 1.406-.156 1.531-.212.212-.241.417-.063.406.064-.004.689-.519 1.375-1.156.686-.638 1.345-1.155 1.5-1.156.155-.002.75-.468 1.313-1.031.627-.627 1.345-1.154 1.844-1.375.448-.198.854-.489.906-.625.052-.136.47-.404.906-.625.437-.221.828-.502.875-.625.11-.287 1.973-1.188 2.469-1.188.689 0 1.18-.302 1.406-.844.246-.589.465-.719 1.25-.719.296 0 .786-.09 1.094-.219.308-.129.744-.247.969-.25.225-.003.532-.101.688-.219.194-.147.764-.219 1.781-.219.815 0 1.66-.054 1.906-.156.37-.153.602-.167 1.219.063.411.153.893.387 1.063.5.198.132.801.188 1.719.188 1.294 0 1.469-.027 1.844-.375.531-.492.511-.736-.063-1.219-.435-.366-1.716-.676-2.344-.563-.124.023-.421-.042-.656-.156-.394-.191-.451-.171-.813.219-.427.461-.723.43-.594-.063.056-.215-.033-.347-.156-.344m6.25 1.125c-.446.065-.578.469-.156.469.477 0 .607.336.219.594-.648.43-.333.642 1.125.75.542.04 1.118.197 1.406.375.272.168.719.281.969.281.313 0 .58.164.875.5.373.425.486.475 1 .406.37-.05.722-.009.906.125.162.118.434.219.625.219.618 0 1.714.578 1.906 1 .131.288.39.462.938.625.42.125.909.322 1.094.438.304.19.379.173.719-.25.329-.409.375-.459.469-.219.059.151.042.405-.063.531-.235.283-.11.807.313 1.344.227.289.51.453 1.031.531.806.121.994.262 2.469 2.031 1.129 1.354 1.514 1.865 1.75 2.406.099.227.464.912.844 1.5.683 1.059 1.386 2.181 1.75 2.781v-3.219c-.072-.137-.168-.268-.219-.406-.162-.445-.413-1.028-.594-1.281-.18-.253-.344-.502-.344-.563 0-.06-.161-.308-.375-.563-.214-.255-.406-.563-.406-.688 0-.124-.412-.685-.938-1.219-.525-.534-1.061-1.121-1.188-1.313-.127-.192-.623-.574-1.094-.844l-.875-.469-.344.438c-.346.434-.347.42-.75.156-.487-.319-.53-.73-.094-.844.171-.045.313-.169.313-.281 0-.305-1.408-1.422-2.031-1.625-.3-.098-1.034-.429-1.625-.719-1-.492-1.111-.52-1.375-.281-.367.332-.75.198-.75-.281 0-.406-.248-.586-.906-.594-.229-.003-.552-.093-.719-.219-.42-.318-.832-.306-1.063.063-.278.446-.617.434-.5-.031.084-.335.023-.42-.688-.656-.434-.144-.826-.327-.875-.406-.049-.079-.294-.125-.531-.125-.237 0-.76-.115-1.156-.25-.347-.118-.744-.219-.969-.219-.032 0-.07-.003-.094 0zm-7.688 3.438c-2.132.025-3.49.236-4 .688-.139.123-.3.237-.375.219-.364-.089-1.751.236-2.125.5-.232.164-.546.281-.688.281-.142 0-.501.125-.813.281-.312.156-1.04.528-1.625.813-.585.285-1.181.674-1.313.875-.132.201-.491.445-.813.531-.379.102-.841.433-1.313.938-.401.428-.869.781-1.031.781-.336 0-2.151 1.206-2.969 1.969-.3.28-.869.791-1.281 1.156-.413.366-.858.89-.969 1.156-.111.266-.302.583-.438.719-.465.465-1.063 1.415-1.063 1.719 0 .176-.128.358-.313.406-.324.085-1.063 1.378-1.063 1.844 0 .137-.114.375-.219.563-.252.452-.56 1.394-.563 1.656-.002.116-.202.415-.438.656-1.081 1.107-1.301 1.382-2.063 2.625-.446.728-.92 1.678-1.031 2.094-.111.416-.287.859-.406 1-.12.141-.415.634-.656 1.063-.241.428-.681 1.049-.969 1.406-.288.357-.531.731-.531.813 0 .081-.122.296-.281.5-.159.204-.345.657-.406 1-.062.343-.241.873-.406 1.156-.165.283-.313.567-.313.656 0 .089-.188.361-.438.594-.25.233-.53.708-.625 1.063-.095.355-.26.698-.344.75-.26.161-.163.54.25 1.031.553.658.451 1.121-.25 1.188-.678.064-.938.273-.938.75 0 .374.236.494.406.219.151-.245.531.005.531.344 0 .263-.063.294-.438.219-.38-.076-.514.011-.906.5-.62.774-.777 1.093-.906 1.875-.06.365-.234 1.02-.406 1.469-.172.449-.369 1.102-.438 1.438-.069.336-.265.708-.438.844-.126.099-.421.591-.719 1.156v3.438c.27.198.255.455 0 .688v1.844c.116-.262.219-.544.219-.719 0-.262.143-.548.375-.75.21-.182.492-.678.625-1.125.133-.447.34-.951.469-1.094.543-.6 1.031-1.804 1.031-2.594 0-.542.083-.903.281-1.156.599-.762 1.406-2.55 1.313-2.906-.055-.212.006-.459.156-.625.414-.457.719-1.391.719-2.156 0-.705.546-2.02 1.25-3.03.149-.214.322-.561.375-.781.053-.22.27-.663.5-1 .23-.336.537-.927.688-1.313.76-1.948 1.881-4.287 2.094-4.406.35-.196 1.188-1.5 1.188-1.844 0-.162.069-.321.156-.375.088-.054.346-.508.594-1 .248-.492.583-.981.719-1.094.136-.112.25-.36.25-.531 0-.171.264-.564.594-.875.33-.311.674-.788.781-1.063.174-.444.176-.546-.125-.969-.186-.261-.42-.469-.5-.469-.08 0-.125-.121-.125-.25 0-.177.161-.219.75-.219.519 0 .781-.089.781-.219 0-.107.258-.589.563-1.094.304-.505.607-1.13.656-1.375.055-.275.185-.438.344-.438.493 0 .89-.467 1.156-1.313.236-.752.483-1.038 2.125-2.625 1.023-.988 1.875-1.89 1.875-1.969 0-.254 1.161-.923 1.781-1.031.332-.058.724-.18.906-.281.653-.363 1.6-1.233 1.906-1.781.255-.457.481-.631 1.281-.906.538-.185 1.102-.439 1.25-.563.536-.449 1.96-1.065 2.656-1.156.392-.051.925-.196 1.156-.313.231-.116.58-.219.781-.219.201 0 .419-.051.5-.125.308-.282 1.17-.348 1.313-.094.075.134.294.252.5.25 1.561-.016 2.426-.086 2.594-.219.108-.085.471-.108.813-.063.429.058.625.006.625-.125 0-.104.121-.334.25-.5.229-.296.215-.288.438 0 .155.2.191.382.094.563-.18.336.073.625.563.625.32 0 .375-.066.375-.688 0-1.068-.319-1.265-2.156-1.375-1.294-.078-2.406-.105-3.375-.094m-1.937.438c.098.009.182.174.125.344-.053.158-.089.158-.188 0-.067-.109-.083-.23-.031-.281.035-.035.061-.066.094-.063m3.563.094c.032-.016.085-.003.125 0 .054.005.09.022.156.063.241.149.074.625-.219.625-.119 0-.219-.146-.219-.313 0-.204.061-.327.156-.375m5.313.219c-.552 0-.649.058-.875.531-.139.292-.208.647-.156.781.173.45 1.97 1.114 3.531 1.313 1.078.137 1.601.291 2 .563.361.246.706.365.969.313.505-.101 2.159.451 2.344.781.08.142.359.25.625.25.338 0 .62.173 1.063.625.336.343.666.625.75.625.213 0 1.203.943 1.406 1.344.092.181.374.356.625.406.47.094 2.375 1.574 2.375 1.844 0 .083.138.29.344.469.206.179.506.632.656 1.031.15.399.46.981.688 1.281.228.3.661.935.969 1.406.69 1.056 1.197 1.526 1.781 1.688.399.11.468.183.438.688-.019.312.081.919.25 1.313.169.394.313.819.313.969 0 .149.192.424.406.625.214.201.375.533.375.719 0 .086.023.193.063.281v-3.656c-.027-.056-.035-.069-.063-.125-.271-.557-.651-1.277-.813-1.594-.161-.317-.281-.69-.281-.813 0-.383-.754-1.612-1.156-1.875-.211-.138-.406-.375-.406-.531 0-.157-.363-.762-.813-1.344-.45-.582-.972-1.316-1.156-1.625-.184-.309-.556-.685-.844-.844-.287-.158-.717-.491-.938-.719-.22-.228-.774-.69-1.219-1.031-.444-.342-.831-.737-.875-.875-.238-.749-1.984-1.53-2.625-1.188-.368.197-.719-.106-.719-.594 0-.396-.618-.899-1.25-1.031-.535-.112-1.841-.581-2.375-.844-.59-.29-.733-.273-1.156.125-.306.288-.344.284-.344.063 0-.143.063-.25.156-.25.293 0 .063-.374-.25-.406-.164-.017-.635-.085-1.031-.125-.396-.04-1.038-.177-1.438-.313-.399-.136-1-.25-1.344-.25m-2.875 2.375c-.561-.013-2.706.5-3.25.781-.149.077-.901.172-1.688.219-1.084.065-1.893.22-3.313.688-1.031.34-1.941.686-2.031.75-.09.064-.451.2-.781.313-.802.273-2.062 1.176-2.875 2.063-.368.402-.988.883-1.406 1.063-.851.366-1.18.674-1.188 1.156-.004.233-.152.387-.5.5-.272.088-.628.301-.813.469-.315.285-.359.283-.5.031-.225-.401-.483-.337-.375.094.125.497-.454 1.321-1.219 1.75-.387.217-.694.565-.875.969-.153.342-.352.666-.438.719-.386.239-1.594 3.103-1.594 3.781 0 .143-.241.545-.563.906-.75.844-1.777 2.472-1.781 2.844-.005.375-.434.952-.906 1.188-.362.18-1.273 1.978-1.469 2.906-.045.214-.355.798-.688 1.313-.333.514-.661 1.141-.719 1.375-.062.251-.288.514-.563.656-.256.132-.469.326-.469.438 0 .112-.192.547-.406.969-.214.422-.375.989-.375 1.25 0 .261-.069.537-.156.625-.303.303-2.188 4.178-2.188 4.5 0 .178-.302.932-.688 1.688-.386.756-.719 1.483-.719 1.594 0 .363-.632 2.158-.844 2.406-.359.421-.432.819-.531 2.219-.09 1.259-.135 1.402-.594 1.875-.273.282-.568.765-.625 1.063-.057.298-.141.62-.219.719-.077.099-.119.368-.063.594.067.268.027.514-.125.688-.128.147-.284.541-.344.875-.104.579-.06.618.719 1.406.449.455.876.819.938.781.061-.038.154-.334.219-.656.064-.322.137-.964.156-1.406.022-.498.169-1.01.375-1.344.205-.331.31-.799.313-1.219.002-.437.118-.813.313-1.063.168-.214.311-.474.313-.594.002-.12.249-.735.531-1.344.614-1.325 1.031-2.568 1.031-3.03 0-.186.101-.519.219-.75.132-.26.171-.558.094-.75-.18-.448-.183-1.449 0-1.563.086-.053.156-.219.156-.375 0-.156.119-.36.25-.469.212-.176.202-.242-.031-.5-.216-.239-.22-.281-.031-.281.309 0 2-1.983 2-2.344 0-.179-.126-.313-.344-.344-.393-.056-.563-.542-.281-.813.14-.135.226-.078.406.188.131.193.378.344.531.344.296 0 1.094-.844 1.094-1.156 0-.102.143-.42.344-.719.201-.298.349-.612.313-.719-.037-.107.142-.479.406-.813.264-.334.5-.804.5-1.031 0-.251.133-.542.375-.75.276-.237.437-.547.5-1.031.095-.726.686-1.893 1.563-3.125.43-.603.487-.816.406-1.313-.052-.323-.196-.612-.313-.656-.282-.108-.256-.375.031-.375.126 0 .283-.141.375-.313.092-.171.248-.313.344-.313.096 0 .058.144-.094.313-.297.328-.222.781.125.781.333 0 .835-.641 1.094-1.375.13-.37.441-.869.656-1.125.463-.55.499-1.094.094-1.094-.332 0-.656-.266-.656-.563 0-.164.108-.151.469.063.45.266.488.263.719-.031.131-.168.33-.524.469-.781.139-.257.52-.799.844-1.188.323-.389.627-.905.656-1.156.036-.316.217-.56.594-.813.3-.201.631-.551.75-.781.119-.23.402-.641.625-.906.223-.265.528-.645.656-.844.24-.37 1.076-1.423 1.25-1.563.309-.248 2.77-2.484 3.125-2.844.233-.236.56-.437.719-.438.49-.003 1.916-.727 2.375-1.219.349-.374.578-.469 1.094-.469.355 0 .914-.141 1.25-.313.336-.171.858-.313 1.156-.313.298 0 .575-.076.625-.156.05-.081.407-.192.813-.25.405-.058.874-.206 1.031-.344.226-.198.657-.275 2.031-.281 1.54-.007 1.801-.027 2.313-.344.319-.197.594-.478.594-.594 0-.267-.726-.814-1.219-.938-.022-.006-.056-.031-.094-.031m-33.469 1.094c-.453.068-.692.506-.438.813.283.34.562.308.844-.094.269-.384.08-.735-.344-.719-.028.002-.032-.004-.063 0m36.38 1.406c-.13.005-.252.027-.438.094-.301.109-.585.165-.625.125-.04-.04-.479.114-.969.313-.626.254-.902.43-.938.656-.053.341-.247.445-.406.188-.053-.086-.261-.156-.438-.156-.472 0-2.913.61-3.375.844-.219.111-.859.253-1.406.313-1.084.119-2.573.748-3.781 1.594-.406.284-.803.5-.875.5-.072 0-.292.184-.5.406-.208.223-.708.585-1.094.781-.386.196-1.015.677-1.406 1.094-.391.416-1.103 1.133-1.594 1.594-.491.461-1.079 1.166-1.281 1.563-.202.396-.579.936-.844 1.188-.265.252-.469.542-.469.656 0 .114-.294.513-.625.875-1.064 1.166-1.381 2.046-.938 2.594.386.476.211.729-.281.406-.496-.325-.721-.148-1.25.969-.214.453-.617 1.09-.906 1.406-.568.62-.654 1.164-.281 1.656.323.427.115.613-.344.313-.461-.302-.618-.213-1.125.781-1.232 2.416-1.556 3.531-1.094 3.531.073 0 .269.132.438.313.169.181.369.28.469.219.379-.234 1.25-1.803 1.25-2.25 0-.328.093-.493.313-.563.334-.106 1.094-.991 1.094-1.281 0-.096.302-.654.688-1.25.386-.596.719-1.187.719-1.281 0-.094.268-.45.594-.813.661-.735 1.594-1.927 1.594-2.031 0-.181 1.381-2.488 1.781-2.969.251-.301.7-.872 1-1.281.3-.409.764-.958 1.031-1.219.267-.261.681-.794.906-1.156.225-.362.607-.753.844-.875.236-.122.556-.351.719-.531.276-.305.27-.361.031-.625-.217-.24-.226-.354-.063-.719.183-.409.231-.419 1-.344.778.076.865.055 1.469-.531.346-.336.629-.625.656-.625.515 0 1.917-.386 2.125-.594.153-.153.642-.319 1.063-.375.691-.093 1.193-.237 3.063-.781.651-.19.631-.181 1.781.031.521.096 1.104.094 1.625 0 1.605-.29 2.668-.276 3.063.031.245.191.514.247.813.188.494-.099 1.375.206 3.063 1 .616.29 1.192.5 1.281.5.089 0 .269.196.406.406.26.396 1.163 1.01 1.688 1.156.166.047.427.287.563.531.17.307.696.67 1.719 1.188.855.433 1.584.935 1.719 1.156.348.571 1.071 1.473 1.906 2.406.409.457.719.891.719.969 0 .077.222.467.469.875.246.408.503.967.563 1.219.059.251.472.956.938 1.594.466.638.842 1.318.844 1.5.002.182.082.471.188.656.581 1.015 1.219 2.289 1.219 2.438 0 .094.282.58.625 1.094.086.128.144.247.219.375v-.438-2.5c-.04.061-.095.125-.188.156-.102.034-.188-.052-.188-.188 0-.136.114-.25.25-.25.057 0 .095.039.125.063v-.906c-.366-.74-.531-1.114-.531-1.344 0-.371-.63-.839-.844-.625-.174.174-.719.225-.719.063 0-.058.085-.342.188-.625.163-.45.143-.593-.156-1.125-.188-.335-.344-.752-.344-.938 0-.185-.187-.531-.406-.75-.33-.33-.461-.365-.906-.281-.654.123-.765-.223-.156-.5.503-.229.497-.405-.063-.875-.252-.212-.589-.628-.719-.938-.157-.375-.329-.563-.531-.563-.198 0-.363-.165-.469-.469-.16-.459-.528-.62-.719-.313-.148.239-.688.191-.688-.063 0-.123.071-.291.156-.344.47-.29-.284-1.692-1.563-2.938-.432-.42-.781-.831-.781-.906 0-.076-.202-.118-.438-.094-.29.03-.423-.029-.438-.188-.012-.129-.053-.319-.063-.438-.013-.156-.145-.188-.531-.125-.398.065-.615-.001-.813-.219-.145-.16-.411-.286-.594-.313-.183-.026-.416-.259-.531-.5-.115-.241-.306-.473-.406-.5-1.056-.288-1.618-.485-1.875-.656-.169-.112-.422-.188-.563-.188-.14 0-.486-.175-.781-.375-.663-.45-1.743-.592-2.469-.344-.485.166-.645.122-1.313-.219-.424-.216-.627-.289-.844-.281m11.563.375c.165-.008.283.171.156.375-.119.192-.531.188-.531 0 0-.075.098-.212.219-.313.061-.051.101-.06.156-.063m-11.906.219c.086 0 .156.071.156.156 0 .086-.071.156-.156.156-.086 0-.156-.071-.156-.156 0-.086.071-.156.156-.156m-28.656.469c-.138-.009-.347.095-.406.281-.05.158-.399.507-.781.781-.382.274-.824.758-.969 1.063-.145.306-.433.602-.656.688-1.114.426-1.77.872-2.375 1.563-.366.418-1.13 1.275-1.688 1.906-1.15 1.303-1.372 1.587-2.625 3.219-1 1.305-1.281 1.743-1.281 2.094 0 .272-1.277 1.625-1.531 1.625-.092 0-.281.263-.406.563-.125.3-.292.531-.375.531-.083 0-.215.267-.313.563-.098.296-.31.575-.469.625-.07.022-.147.068-.219.156v4.531c.552-.759.844-1.338.844-1.813 0-.16.231-.638.531-1.031.3-.393.563-.819.563-.969 0-.149.372-.877.844-1.594.471-.716.844-1.453.844-1.656 0-.203.192-.551.406-.75.46-.426.467-.497.125-.875-.367-.406-.142-.548.25-.156.179.179.41.344.531.344.258 0 .926-.773 1.281-1.469.137-.268.495-.743.781-1.063.286-.319.647-.813.781-1.094.44-.922.747-1.471 1.031-1.75.154-.151.324-.496.375-.75.102-.512.447-.71.719-.438.28.28.687.202 1.188-.219.335-.282.646-.406 1.125-.406.584 0 .723-.082 1.219-.656.309-.358.766-.872 1.031-1.156.265-.284.627-.784.781-1.125.279-.62.278-.628-.094-.938-.205-.171-.506-.31-.656-.313-.15-.003-.281-.071-.281-.156 0-.103-.042-.151-.125-.156m31.625.188c.303-.009.482.157.438.469-.054.38-.317.448-.906.281-.55-.156-.57-.402-.031-.625.189-.078.362-.121.5-.125m-43.19 1c-.176-.006-.448.049-.813.156-.568.167-.834.351-1.031.719-.143.268-.411.647-.625.844-.027.024-.036.038-.063.063v2.688c.764-.798 1.662-2.152 1.563-2.531-.065-.247.006-.344.281-.344.442 0 .815-.418.938-1.031.076-.381.043-.553-.25-.563m47.28.375c.035-.007.093.062.219.188.181.181.203.329.094.438-.088.088-.191.09-.25.031-.059-.059-.125-.231-.125-.406 0-.15.027-.243.063-.25m3.344 2.219c.1.003.219.074.406.25.425.399.518.781.188.781-.114 0-.36-.16-.563-.375-.282-.3-.327-.454-.188-.594.053-.052.096-.064.156-.063m-12.656.031c-.17.015-.351.087-.688.25-.539.261-1.026.36-1.938.375-.701.012-1.3.082-1.406.188-.101.101-.325.188-.5.188-.175 0-.966.319-1.781.719-.815.399-1.601.803-1.75.875-.149.072-.401.125-.563.125-.198 0-.347.14-.406.438-.099.495-.628 1.116-1.656 1.875-.381.281-.889.638-1.125.813-.236.175-.438.47-.438.625 0 .155-.259.456-.563.688-.303.231-.648.699-.781 1.031-.133.333-.358.638-.5.688-.241.084-1.494 1.899-2.406 3.5-.22.386-.559.886-.781 1.094-.222.208-.406.477-.406.594 0 .116-.278.671-.594 1.25-.636 1.166-.622 1.433.094 1.75.264.117.5.299.5.406 0 .277.225.257.5-.063.129-.15.328-.503.469-.781.141-.279.391-.721.531-1 .342-.678 1.267-2.113 1.438-2.219.275-.17.531-1.588.344-1.938-.256-.479-.062-.724.375-.438.4.262.348.298 2.406-2.188.437-.528 1.029-1.052 1.281-1.156.252-.104.576-.381.75-.625.319-.447 1.572-1.356 2.375-1.719.264-.119.546-.421.719-.813.272-.614.354-.697 1.75-1.188.805-.283 1.7-.532 2-.594.3-.062.809-.255 1.125-.406.329-.157.723-.214.906-.156.188.06.451-.012.656-.156.191-.134.476-.25.625-.25.327 0 .594-.443.594-1 0-.321-.124-.473-.563-.656-.261-.109-.423-.14-.594-.125m1.781.25c-.311.009-.321.083-.25.25.122.285.146.397.063 1.125-.039.341 0 .383.375.344.236-.025.438.034.438.125 0 .091.188.23.406.313.555.211 1.156-.197 1.156-.781 0-.752.565-.921.813-.25.065.177.004.367-.188.531-.34.291-.295.5.125.5.156 0 .367.096.469.219.102.123.415.285.688.344.284.061.733.364 1.063.719.507.546.711.622 1.531.719 1.01.119 1.307.325 1.656 1 .131.253.357.438.531.438.166 0 .38.115.469.281.097.182.353.346.656.375.452.044.508.091.594.625.072.444.304.786.844 1.281.439.403.719.793.719 1 0 .224.178.448.531.656.296.175.576.439.625.594.049.155.237.43.406.625.169.195.313.477.313.625 0 .148.187.473.438.719.251.246.579.771.719 1.156.14.386.423 1.162.625 1.719.202.557.509 1.286.688 1.625.179.339.313.747.313.906 0 .424.301.906.563.906.25 0 .321.391.094.531-.078.048-.192.373-.25.719-.093.548-.037.749.469 1.594.47.786.578 1.136.594 1.844.018.774.282 1.393.563 1.375.054-.002.296-.205.563-.438.73-.636.849-.946.656-1.75-.091-.38-.327-1.055-.531-1.5-.204-.445-.375-1.01-.375-1.25 0-.242-.136-.702-.313-1.031-.224-.419-.29-.736-.219-1.063.106-.481-.271-2.309-.656-3.219-.161-.38-.299-.5-.594-.5-.461 0-.502-.126-.125-.406.228-.169.227-.233.063-.469-.766-1.095-.807-1.256-.719-1.75.073-.412-.009-.65-.469-1.344-.312-.471-.629-.875-.688-.875-.059 0-.232-.171-.375-.406-.143-.236-.508-.726-.813-1.063-.304-.337-.531-.772-.531-.969 0-.219-.175-.456-.438-.625-.236-.152-.563-.432-.719-.625-.156-.193-.448-.344-.656-.344-.208 0-.375-.078-.375-.156 0-.078-.514-.19-1.156-.25-1.106-.104-1.458-.269-.938-.469.316-.121.272-.587-.063-.875-.15-.129-.573-.394-.938-.594-.364-.2-.656-.411-.656-.469 0-.143-1.652-.869-2.281-1-.324-.067-.5-.045-.5.063 0 .258-.643.792-.813.688-.267-.165-.136-.658.219-.906.303-.212.294-.272.094-.469-.323-.317-1.063-.494-1.063-.25 0 .143-.089.159-.281 0-.302-.25-.482-.297-2.219-.406-.459-.029-.751-.036-.938-.031m1.406.781c.055-.002.104.03.156.063.174.108.062.375-.156.375-.076 0-.169-.076-.219-.156-.086-.14.054-.275.219-.281m-7.625.75c.086 0 .156.071.156.156 0 .086-.071.156-.156.156-.086 0-.156-.071-.156-.156 0-.086.071-.156.156-.156m-33.25.531c-.033-.002-.083.052-.188.156-.129.129-.39.289-.563.344-.311.099-1.063 1.414-1.063 1.844 0 .123-.267.357-.563.531-.148.087-.293.212-.438.375v3.156c.181-.249.343-.464.469-.563.466-.367 1.619-2.564 1.5-2.875-.044-.116-.183-.219-.313-.219-.168 0-.192-.094-.125-.344.052-.193.061-.526.063-.719.003-.496.582-.476.813.031.216.474.829.53 1.063.094.286-.534.202-1.027-.219-1.219-.214-.098-.375-.301-.375-.438 0-.111-.03-.154-.063-.156m46.47.875c.086 0 .156.071.156.156 0 .086-.071.156-.156.156-.086 0-.156-.071-.156-.156 0-.086.071-.156.156-.156m-37.813.031c-.586.043-.969.609-.969 1.531 0 .539-.351.811-.844.688-.473-.119-1.031.54-1.031 1.188 0 .267-.12.474-.313.563-.167.077-.87.672-1.563 1.344-.922.894-1.401 1.526-1.813 2.344-.309.614-.787 1.407-1.063 1.75-.599.745-.844 1.455-.844 2.344 0 .421-.113.777-.313 1.031-.171.218-.313.484-.313.563 0 .079-.184.292-.406.5-.222.208-.528.587-.656.844-.128.257-.589.844-1.031 1.281-.087.086-.212.207-.313.313v2.656c.408-.348.864-.75 1.313-1.125 1.093-.914 2.469-2.581 2.469-2.969 0-.11.101-.277.219-.375.118-.097.267-.41.313-.688.045-.278.317-.876.625-1.344.308-.468.652-1.104.75-1.406.25-.771.903-2.031 1.063-2.031.189 0 .938-1.292.938-1.625 0-.153.23-.694.5-1.219.27-.525.579-1.13.688-1.344.109-.214.537-.618.969-.875.838-.498 1.273-.945 1.281-1.344.003-.135.187-.527.438-.906.651-.985.77-1.49.344-1.625-.155-.049-.302-.072-.438-.063m-5.03.781c.014.002.016-.005.031 0 .107.036.219.238.219.438 0 .427-.363.607-.5.25-.121-.315.034-.706.25-.688m24.906.438c.075 0 .234.118.344.25.253.305-.005.62-.281.344-.218-.218-.262-.594-.063-.594m9.781.219c-.49.02-1.012.453-.75.719.237.241.254.706.031.844-.241.149-.625-.204-.625-.594 0-.857-.833-.96-1.688-.188-.332.3-.687.563-.781.563-.095 0-.407.141-.688.313-.281.171-.661.312-.844.313-.183 0-.524.079-.781.188-.6.252-2.803 2.307-3.438 3.219-.268.386-.646.849-.844 1-1.819 1.389-2.309 1.902-2.781 2.969-.175.396-.645 1.097-1.031 1.531-.386.435-.805 1.032-.938 1.344-.315.739-.341.803-.938 1.656-.279.399-.5.889-.5 1.094 0 .564-.29 1.187-.688 1.5-.197.155-.454.567-.563.938-.656 2.244-.886 2.879-1.094 3.125-.128.152-.235.603-.25.969-.015.366-.133.82-.25 1.031-.117.211-.252.849-.313 1.406-.104.962-.53 2.845-.906 4.03-.095.3-.146.983-.125 1.5.031.755-.053 1.06-.344 1.531-.332.536-.324.647-.156 1.313.101.4.188 1.789.219 3.094.034 1.439.137 2.507.25 2.719.103.192.224.726.25 1.188.062 1.111.264 1.347 1.063 1.219.343-.055.701-.189.813-.281.266-.22.278-.664 0-1.094-.175-.271-.214-.513-.094-1.125.198-1.01.038-2.296-.344-2.781-.384-.488-.36-.756.031-1 .38-.238.41-.909.063-1.406-.228-.326-.228-.373 0-.625.286-.315.327-1.68.063-1.844-.093-.057-.109-.251-.063-.438.047-.187-.031-.539-.156-.781-.34-.655-.284-1.013.125-.969.348.038.422-.123.938-1.344.236-.56.247-.589-.125-1.031-.487-.579-.499-.867-.031-.75.292.073.388.006.531-.406.096-.275.34-.872.531-1.344.191-.471.364-1.051.406-1.281.042-.231.213-.54.375-.688.166-.15.313-.485.313-.75 0-.259.043-.674.125-.938.082-.263.309-.972.5-1.594l.344-1.156-.406-.438c-.759-.792-.346-1.705.438-.969.369.347.688.346.688-.031 0-.11.282-.615.625-1.094.343-.479.625-.934.625-1.031 0-.517.703-1.592 1.25-1.938.703-.444 1.25-1.111 1.25-1.5 0-.307.942-1.785 1.438-2.25.186-.174.864-.411 1.594-.563l1.25-.25-.031-.5c-.03-.368.052-.528.344-.719.211-.138.418-.403.469-.563.051-.159.249-.347.438-.406.188-.059.539-.266.781-.469.242-.203.59-.344.781-.344.389 0 1.191-.814 1.469-1.469.216-.51.373-.511.75-.094.156.172.546.402.875.5.493.148.65.132.875-.063.415-.358 1.299-.75 1.688-.75.667 0 2.627.513 3.125.813.711.428 1.524.332 1.594-.188.069-.513.279-.752.5-.531.125.125.115.346-.031.75-.18.497-.176.576.094.875.166.184.596.482.938.656.801.409 2.094 1.484 2.094 1.75 0 .113.202.355.438.5.781.482 2.393 2.14 2.938 3.03.587.961 1.488 1.761 1.844 1.625.417-.16.298-1.067-.219-1.563-.257-.246-.469-.569-.469-.688 0-.119-.288-.447-.625-.75-.337-.303-.718-.813-.844-1.125-.126-.312-.427-.755-.656-.969-.383-.357-.423-.344-.563-.094-.084.149-.251.25-.375.25-.256 0-.3-.385-.063-.531.27-.167.177-.735-.188-1.094-.193-.19-.567-.571-.813-.844-.246-.273-.646-.616-.906-.75-.26-.134-.64-.414-.844-.656-.486-.578-2.195-1.406-2.906-1.406-.497 0-.55.027-.594.406-.035.308-.151.438-.375.438-.252 0-.313-.095-.313-.531 0-.518-.015-.541-.688-.656-.386-.066-.896-.187-1.125-.281-.229-.095-.864-.221-1.406-.25-.542-.029-1.157-.101-1.375-.156-.066-.017-.149-.003-.219 0m-5.531.094c-.325 0-.691.371-.531.531.127.127.278.121.594 0 .344-.132.293-.531-.063-.531m7.563.625c.266 0 .285.184.031.438-.279.279-.622.219-.563-.094.029-.15.214-.285.406-.313.048-.007.087-.031.125-.031m12.25 2.344c.326-.01.385.302.094.594-.311.311-.617.198-.563-.188.032-.225.181-.343.406-.375.024-.003.041-.03.063-.031m.719 1.25c.086-.007.23.025.375.094.193.092.475.202.625.25.15.048.281.19.281.313 0 .122.102.287.25.344.23.088.228.126.031.25-.275.174-.63.188-.844.031-.286-.21-.874-1.157-.781-1.25.013-.013.034-.029.063-.031m-12.03.594c-.28 0-.624.425-.5.625.143.232.499.203.719-.063.211-.255.093-.563-.219-.563m-1.719.219c-.099.003-.206.037-.313.094-.203.109-.453.173-.531.125-.078-.048-.695.072-1.375.281-.68.21-1.332.375-1.469.375-.137 0-.383.149-.531.313-.148.164-.478.367-.75.469-.945.355-1.228.545-1.438.938-.354.662-1.198 1.474-1.938 1.875-.442.24-.813.576-.969.906-.136.289-.431.632-.656.75-.266.139-.458.425-.563.813-.113.419-.48.912-1.219 1.625-1.199 1.158-2.219 2.491-2.219 2.906 0 .601-1.226 3.761-1.688 4.344-.48.607-.572.987-.688 2.75-.053.804-.629 2.935-1.188 4.438-.175.471-.265 1-.219 1.156.047.154-.041.897-.188 1.656l-.281 1.375.344.5c.284.398.344.599.25 1.063-.064.315-.127.896-.156 1.281-.029.386-.102.991-.156 1.344-.067.44-.041.774.125 1.094.157.304.216.663.156 1.031-.056.346.008.847.156 1.25.133.363.278 1.249.313 2 .003.075-.003.12 0 .188h2.75c-.084-.124-.156-.355-.156-.563 0-.237-.133-.797-.313-1.25-.235-.594-.303-1.032-.25-1.594.041-.428-.011-.973-.094-1.188-.171-.441-.212-.877-.344-3.406-.165-3.162-.229-3.342-1.219-3.719-.235-.09-.406-.273-.406-.406 0-.294.701-.593 1.188-.5.46.088.524-.01.688-1.344.076-.615.226-1.388.344-1.688.739-1.883 1.22-3.686 1.125-4.219-.053-.294.038-.492.313-.75.21-.197.375-.505.375-.688 0-.182.054-.419.125-.5.281-.322.502-1.458.406-2.156-.097-.706-.132-.72-.563-.625-.245.054-.438.076-.438.031 0-.044.323-.341.719-.625.41-.294 1.012-.959 1.406-1.563.381-.583.774-1.033.875-1 .101.033.268.292.344.594.115.455.051.773-.344 1.75-.262.649-.536 1.594-.594 2.094-.091.792-.542 2.312-.813 2.75-.05.081-.079.57-.094 1.094-.015.548-.13 1.151-.281 1.438-.145.274-.281.815-.281 1.188 0 .373-.07.757-.156.844-.087.087-.279.68-.406 1.344-.127.663-.289 1.339-.375 1.5-.207.387-.211 1.37 0 1.5.101.062.154.332.094.688-.087.513-.047.613.313.875l.406.313-.281.656c-.253.633-.249.703 0 1.125.243.411.251.509.031 1.156-.213.626-.204.789 0 1.375.127.363.218 1.067.219 1.563.002.496.121 1.161.25 1.469.129.308.219.683.219.844 0 .41.222.347.531-.125.215-.329.31-.345.5-.188.358.297.179.79-.375 1.063-.277.136-.498.315-.5.406-.002.083.046.251.125.438h1.75 1.719c.039-.274-.035-.614-.281-1.313-.269-.764-.343-.838-.75-.844-.418-.006-.467-.05-.5-.625-.06-1.051-.198-1.845-.438-2.375-.147-.324-.191-.712-.125-1.063.073-.389.032-.65-.156-.938-.227-.347-.355-.398-.813-.313-.489.092-.531.072-.531-.281 0-.301.135-.421.563-.563.628-.207.77-.633.594-1.531-.162-.824-.222-1.55-.219-2.313.002-.362-.141-1.048-.313-1.5-.386-1.016-.394-1.219-.031-1.219.34 0 .593-.459.719-1.313.31-2.106 1.024-5.425 1.25-5.844.116-.214.253-.708.313-1.094.059-.386.189-.919.281-1.188.117-.341.112-.714 0-1.281-.16-.811-.004-1.597.594-2.781.135-.267.128-.45-.063-.844-.314-.648-.168-.86.281-.438.423.398.753.283 1-.313.1-.242.355-.586.563-.781.43-.404.496-.812.156-1.094-.266-.221-.309-.781-.063-.781.09 0 .363.115.625.25.617.319 1.055.122 2.063-.844.744-.713.778-.699 1.406-.531.43.115.74.106.938 0 .161-.086.44-.109.625-.063.62.155 1.533-.173 2.094-.75.621-.639.795-.683 1.188-.25.332.367 1.014.41 1.625.094.433-.224.439-.228 1.281.875.751.984.929 1.14 1.688 1.375.603.187.915.36 1.031.625.513 1.165 1.385 2.031 2.094 2.031.169 0 .313.052.313.125 0 .073.202.363.438.625.236.262.673.794 1 1.188.646.776.906.884.906.406 0-.169.212-.466.469-.656.629-.465.566-.846-.188-1.563-.348-.331-.694-.813-.781-1.063-.099-.284-.315-.497-.594-.594-.245-.086-.562-.352-.688-.594-.357-.686-.9-1.126-1.5-1.188-.745-.076-.934-.225-.938-.719-.003-.472-.893-1.302-1.563-1.469-.217-.054-.669-.361-1-.656-.778-.692-1.425-.829-1.875-.406-.405.381-.505.397-.875.063-.273-.247-.29-.233-.25.125.038.339-.011.368-.5.344-.299-.015-.597.06-.656.156-.152.247-1.219-.356-1.219-.688 0-.342-.233-.573-.531-.563m4.5.719c.293 0 .296.38 0 .625-.187.156-.237.166-.313-.031-.117-.305.018-.594.313-.594m-7.813.406c.076-.01.177.03.281.156.144.173.143.323.031.5-.281.446-.531.405-.531-.094 0-.354.092-.546.219-.563m3.719.25c.075 0 .092.026.031.125-.053.086-.199.158-.344.156-.227-.002-.233-.026-.031-.156.153-.099.269-.125.344-.125m-2.375.125c.086 0 .156.071.156.156 0 .086-.071.156-.156.156-.086 0-.156-.071-.156-.156 0-.086.071-.156.156-.156m-34.438.781c.086 0 .156.071.156.156 0 .086-.071.156-.156.156-.086 0-.156-.071-.156-.156 0-.086.071-.156.156-.156m38.938 1.281c-.521.006-.738.565-.125.875.463.234.386.209.688.094.385-.148.292-.671-.156-.875-.145-.066-.286-.095-.406-.094m6.281.656c.03-.016.063-.004.094 0 .041.006.063.013.094.063.048.077-.029.238-.156.344-.189.157-.219.136-.219-.063 0-.164.096-.295.188-.344m-2.75.563c-.423 0-.899.505-.781.813.101.262.608.584 1.156.75.534.161.695.093.75-.281.064-.431-.686-1.281-1.125-1.281m-4.25.531c-.402-.007-.911.082-1.438.25-.544.174-1.047.313-1.125.313-.078 0-.348.131-.594.313-.454.336-.829.307-.688-.063.096-.251-.339-.638-.563-.5-.089.055-.156.22-.156.344 0 .123-.069.219-.156.219-.088 0-.243.186-.344.406-.15.329-.14.473.094.906.293.545.247 1.081-.094.969-.107-.035-.221-.205-.25-.406-.065-.442-.476-1.094-.688-1.094-.084 0-.173.139-.219.313-.077.295-.096.284-.281.031-.272-.372-.547-.103-1 .938-.197.453-.424.944-.5 1.094-.716 1.414-1.089 2.295-1.094 2.656-.003.191-.096.463-.219.625-.358.473-.446 1.5-.188 2.25.221.641.24.701-.063.813-.326.12-.906 1.375-.906 1.969 0 .176-.097.378-.188.469-.09.09-.246.825-.375 1.625-.129.8-.279 1.508-.313 1.563-.034.054.004.684.094 1.406.089.722.166 1.685.156 2.156-.011.533.131 1.33.375 2.094.216.676.406 1.485.406 1.813 0 .939.319 3 .531 3.344.106.171.253.599.313.938.06.338.196.739.313.906.117.167.169.496.125.719-.062.311.039.493.406.844.263.252.5.592.5.75 0 .177.111.436.25.656h2.781c-.053-.075-.112-.223-.156-.5-.132-.828-.989-2.487-1.438-2.781-.284-.186-.375-.371-.375-.813 0-.388-.099-.682-.313-.875-.263-.238-.304-.4-.219-.906.084-.498.035-.828-.344-1.656-.258-.565-.557-1.219-.656-1.469-.168-.423-.196-.429-.438-.188-.242.242-.248.268 0 .688.238.402.245.479.031.656-.311.258-.469.089-.688-.813-.233-.962-.239-.919.219-1.594.312-.46.412-.746.375-1.313-.045-.689-.079-.735-.563-.781-.656-.063-.66-.358 0-.938.518-.455 1.03-1.836.813-2.188-.055-.09-.012-.425.094-.719.154-.427.157-.561 0-.75-.108-.13-.147-.393-.094-.563.074-.233-.014-.342-.344-.5-.51-.244-.685-.845-.281-1 .165-.063.351-.037.469.125.169.231.202.24.375.031.157-.189.158-.279 0-.469-.159-.192-.128-.281.063-.5.129-.148.259-.553.313-.906.053-.353.215-.847.344-1.094.129-.247.218-.579.219-.719.003-.785 1.579-4.469 1.906-4.469.078 0 .222-.175.313-.375.103-.226.527-.519 1.125-.781.528-.232 1.179-.528 1.438-.656.356-.176.731-.205 1.594-.125 1.023.095 1.172.062 1.594-.25.373-.276.509-.305.688-.156.32.266.273.451-.25 1.063-.306.358-.438.725-.438 1.063v.5l-.75-.031c-1.097-.077-2.743.101-2.813.313-.033.101.115.191.313.219.433.061.605.821.219.969-.297.114-.719-.288-.719-.688 0-.89-1.067.49-1.531 1.969-.188.6-.489 1.387-.656 1.75-.181.393-.313 1-.313 1.5 0 .622-.061.894-.281 1.094-.433.392-.824 2.79-.531 3.313.112.2.114.411-.063.75-.311.599-.294 2.473.031 2.969.168.256.194.6.125 1.344-.063.672-.024 1.052.094 1.125.097.06.156.222.156.375 0 .153.142.408.313.563.26.235.294.428.219 1.094-.086.763-.072.81.531 1.469.53.579.609.739.469 1-.196.367.054 1.372.5 2 .156.219.346.574.406.813.139.553.922 1.086 1.469.969.331-.071.499.017.844.469.492.645.982.696 1.188.156.164-.431.377-.603.594-.469.093.057.072.286-.063.594-.12.275-.263.671-.313.906-.017.081-.036.131-.063.187h2.813c0-.023.008-.033 0-.063-.033-.129-.135-.567-.219-.969-.26-1.242-1.064-1.805-1.25-.875-.082.411-.146.445-.344.281-.35-.29-.289-.612.156-.781.324-.123.377-.201.25-.438-.208-.389-1.189-1.125-1.5-1.125-.149 0-.377-.285-.563-.719-.172-.4-.527-.996-.813-1.313-.286-.316-.55-.662-.594-.781-.063-.171-.257-.113-.875.219-.674.362-.808.381-.969.188-.252-.303.165-.962.656-1.031.453-.064.549-.616.219-1.406-.192-.459-.337-.594-.656-.594-.329 0-.385-.059-.281-.281.07-.15.121-.654.125-1.125l.031-.844-.719-.063c-.994-.069-1.071-.235-.406-.844.521-.477.558-.603.563-1.375.003-.465.101-1.293.219-1.844l.219-1-.469-.438c-.514-.48-.461-.75.125-.75.358 0 .373-.052.281-.625-.083-.519-.035-.705.375-1.313.383-.567.445-.788.313-1-.132-.211-.001-.558.5-1.594.35-.724.625-1.44.625-1.594 0-.337 1.387-1.389 1.688-1.281.319.115 1.281-.542 1.281-.875 0-.36.281-.565.438-.313.172.278 1.195.035 1.719-.406.666-.561 1.406-.406 1.406.281 0 .145.112.303.219.344.289.11.875-.17.875-.406 0-.113.141-.476.313-.813.171-.336.313-.723.313-.875 0-.352-1.066-.903-1.75-.906-.637-.002-.93-.193-.813-.5.05-.129-.053-.389-.219-.594-.237-.293-.443-.395-1.031-.406-.599-.012-.79-.082-.906-.344-.127-.284-.483-.428-1-.438m-16.25.156c.179-.023.313.118.313.406 0 .331-.535.422-.719.125-.058-.094.026-.276.156-.406.089-.089.168-.115.25-.125m-24.09.094c.011-.002.021-.001.031 0 .231.012.18.357-.063.438-.131.044-.19-.025-.156-.188.026-.125.112-.229.188-.25m5.03.094c.213-.01.427.159.313.344-.128.207-.505.225-.625.031-.047-.076-.015-.191.094-.281.06-.05.148-.09.219-.094m35.594.219c.218 0 .315.075.281.25-.056.287-.333.448-.5.281-.221-.221-.093-.531.219-.531m8.03.313c.129 0 .219.071.219.156 0 .086-.09.156-.219.156-.129 0-.25-.071-.25-.156 0-.086.121-.156.25-.156m-12.625.156c.139 0 .209.071.156.156-.053.086-.124.156-.156.156-.033 0-.103-.071-.156-.156-.053-.086.018-.156.156-.156m2.375.188c.093-.001.154.046.25.125.131.108.203.237.156.313-.108.175-1.156.205-1.156.031 0-.071.164-.231.375-.344.155-.083.282-.124.375-.125m15.09 0c-.212-.008-.293.302-.125.813.22.666.44.694.656.125.131-.345.105-.457-.156-.719-.146-.146-.279-.215-.375-.219m-10.781.438c.137 0 .659.562.844.906.138.259.118.339-.125.469-.213.114-.329.106-.438-.031-.173-.219-.41-1.344-.281-1.344m-25.375.313c-.146.014-.286.081-.344.25-.371 1.092-1.837 4.02-2.25 4.5-.168.194-.309.726-.375 1.406-.071.726-.246 1.285-.5 1.719-.226.385-.375.926-.375 1.281 0 .33-.115.744-.25.938-.135.193-.296.818-.375 1.375-.079.557-.318 1.36-.531 1.781-.326.643-.36.822-.219 1.188.182.471.06 2.601-.188 3.406-.079.257-.164.771-.188 1.156l-.031.688.844.094c.637.058.869.15.906.344.037.194-.195.334-.906.594-1.239.452-1.45.782-1.313 1.969.058.5.004 1.376-.094 1.938-.171.98-.014 3.323.25 3.75.155.25 1.668.001 1.906-.313.117-.155.197-.64.188-1.188-.009-.515.036-1.404.094-1.969.082-.802.043-1.146-.156-1.531-.31-.599-.185-1.748.281-2.813.218-.498.285-1.044.281-1.875-.006-1.281.333-3.545.594-4.03.091-.169.156-.521.156-.781 0-.593.433-2.793.625-3.156.079-.149.229-.764.313-1.344.2-1.387.357-1.889.844-2.719.222-.38.406-.828.406-1 0-.172.141-.439.313-.594.49-.444.351-1.656-.188-1.656-.312 0-.598-.536-.469-.875.106-.279 1.078-.255 1.188.031.146.38.709.279.875-.156.235-.617.008-1.3-.5-1.563-.263-.136-.438-.35-.438-.531 0-.221-.187-.331-.375-.313m41.31.313c-.075.039-.126.158-.125.344.002.193.095.767.219 1.281.124.514.247 1.121.25 1.344.003.222.093.622.219.875.126.253.321.916.438 1.469.116.553.306 1.157.406 1.344.038.07.064.273.094.469v-4.438c-.386-.813-.677-1.538-.906-2.125-.143-.365-.346-.552-.5-.563-.03-.002-.069-.013-.094 0m-50.12.344c.014-.001.018-.003.031 0 .266.089.477.514.375.781-.11.288-.652.354-.813.094-.125-.202.193-.851.406-.875m20.09.281c.086 0 .156.071.156.156 0 .086-.071.156-.156.156-.086 0-.156-.071-.156-.156 0-.086.071-.156.156-.156m15.688.344c.07-.003.199.043.313.156.146.146.154.256.063.313-.084.052-.236.004-.344-.125-.169-.204-.147-.338-.031-.344m4.219.156c-.083.01-.133.071-.219.156-.199.199-.202.298 0 .781.368.881 1.211 1.181 1.313.469.057-.399-.344-1.078-.781-1.313-.116-.062-.229-.103-.313-.094m3.906.344c-.131.016-.247.158-.375.406-.131.254-.344.469-.469.469-.125 0-.258.159-.313.375-.077.306-.011.464.313.719.555.437.9 1.317 1.313 3.188.189.857.524 2.076.719 2.719.294.969.348 1.564.375 3.563.018 1.326.08 2.49.125 2.563.045.073.178.102.281.063.103-.039.353.011.563.125.341.186.397.171.625-.125.141-.182.29-.71.344-1.188.121-1.066.108-3.146-.031-3.969-.115-.678-.403-.898-.531-.406-.09.346-.226.369-.563.156-.285-.18-.106-.624.25-.625.237 0 .282-.166.313-1.125.03-.951-.017-1.223-.344-1.781-.212-.362-.406-.864-.406-1.125 0-.699-.686-2.214-1.063-2.313-.232-.061-.313-.226-.313-.594 0-.542-.264-.915-.688-1.063-.049-.017-.081-.037-.125-.031m-19.469.469c.024-.015.035-.001.063 0 .192.009.453.355.344.531-.171.276-.563.194-.563-.125 0-.166.08-.359.156-.406m23.844 0c.338 0 .312.621-.031.688-.221.043-.29-.03-.25-.313.028-.2.153-.375.281-.375m-9.906.188c-.181.01-.368.11-.5.313-.138.211-.394.456-.594.531-.631.24-.346 1.253.531 1.906.316.235.463.265.688.125.327-.204.364-.128.5.625.067.371.27.667.594.906.432.319.543.343 1.063.188.824-.247.857-.244 1.188.375.293.548.296.563 0 .781-.165.122-.341.19-.375.156-.057-.057-.159-.45-.188-.75-.007-.07-.221-.121-.5-.094-.39.038-.524.134-.563.406-.039.277.078.417.5.594.423.177.546.329.625.75.055.294.199.594.313.688.113.094.317.479.469.844.528 1.266.608 1.375.969 1.375.195 0 .385.071.438.156.152.246.406.161.406-.125 0-.143-.141-.376-.281-.531-.204-.225-.214-.318-.063-.5.252-.303.083-1.915-.219-2.031-.119-.046-.219-.218-.219-.375 0-.157-.083-.364-.188-.469-.105-.105-.358-.604-.531-1.094-.225-.635-.426-.922-.719-1.063-.284-.136-.43-.379-.5-.75-.066-.349-.306-.729-.688-1.063-.323-.282-.813-.801-1.094-1.156-.397-.502-.761-.737-1.063-.719m-35.438.594c-.212.131-1.094 1.493-1.094 1.688 0 .097-.039.403-.125.688-.086.285-.247.772-.344 1.094-.096.321-.272.722-.406.875-.344.393-.969 2.354-.969 3.063v.594l.719.063c.925.06 1.522-.222 1.844-.844.142-.274.209-.632.156-.844-.051-.204-.013-.505.063-.656.248-.495.521-1.336.719-2.219.107-.477.271-1.025.375-1.219.239-.447.095-.813-.313-.813-.177 0-.313-.088-.313-.219 0-.129.152-.25.313-.25.465 0 .389-.754-.094-.938-.158-.06-.331-.07-.438-.063-.036.002-.075-.011-.094 0m36.625 1.156c.173 0 .313.12.313.25 0 .237-.341.315-.531.125-.198-.198-.092-.375.219-.375m-41.19.25c.027-.001.039-.015.063 0 .217.134.159.497-.094.594-.126.048-.26.023-.313-.063-.106-.172.154-.521.344-.531m50.594.719c.016 0 .046-.005.063 0 .15.029.281.161.281.281 0 .246-.274.382-.438.219-.201-.201-.139-.506.094-.5m-15.625.375c-.736-.028-1.475.554-1.938 1.531-.211.447-.502.898-.625 1-.123.102-.491.613-.813 1.125-.563.898-.572.985-.625 2.563-.046 1.369-.038 1.656.156 1.656.128 0 .25-.07.25-.156 0-.086.222-.147.5-.125.476.037.525.013.563-.5.075-1.029.397-1.803 1-2.375.393-.372.594-.703.594-.969 0-.57.594-.821 2.125-.906l1.25-.063.094.438c.048.24.242.572.438.75.195.178.496.448.656.594.161.146.385.481.5.75.115.269.498.726.844 1 .367.291.625.626.625.813 0 .424 1.26 1.656 1.688 1.656.209 0 .418-.125.531-.375.142-.312.126-.521-.031-.906-.111-.272-.28-.783-.406-1.125-.276-.749-.469-.884-1.031-.781-.491.09-.544-.012-.188-.406.367-.406.063-1.112-.844-2-.405-.397-1-1.044-1.344-1.438-.343-.394-.709-.744-.813-.75-.103-.006-.225.263-.281.563-.119.635-.369.681-.75.156-.247-.34-.253-.403-.031-.625.289-.289.258-.781-.063-.781-.123 0-.293.161-.344.375-.126.534-.594.637-.594.125 0-.474-.237-.675-.938-.781-.049-.008-.107-.03-.156-.031m-30.875.219c.151-.001.346.071.469.219.206.248.043.401-.344.313-.143-.033-.296-.189-.344-.313-.057-.148.067-.218.219-.219m25.344.156c.137 0 .217.131.188.281-.061.313-.359.416-.5.188-.137-.222.023-.469.313-.469m-39.12.063c-.12-.009-.233.026-.375.125-.165.116-.441.476-.688.813v4.094c.268-.329.314-.541.25-.938-.072-.441.001-.607.406-1.031.267-.279.5-.559.5-.625 0-.066.16-.339.375-.594.215-.255.42-.662.469-.906.076-.386.035-.497-.438-.75-.24-.129-.379-.178-.5-.188m56.53.563c.121 0 .331.121.438.25.155.186.155.282 0 .469-.107.129-.317.219-.438.219-.121 0-.263-.09-.313-.219-.123-.322.047-.719.313-.719m-26.03.438l.313.313c.338.338.282.813-.094.813-.121 0-.304-.096-.406-.219-.142-.171-.14-.301 0-.563l.188-.344m-17.781.813c.055-.002.135.03.219.063.313.12.312.875 0 .875-.127 0-.289-.188-.344-.406-.087-.347-.04-.522.125-.531m-13.406.313c.235 0 .318.073.25.25-.052.136-.094.277-.094.313 0 .036-.121.063-.25.063-.13 0-.219-.139-.219-.313 0-.213.088-.313.313-.313m43.44.313c.378 0 .712.38.594.688-.112.292-.434.308-.813.031-.352-.257-.206-.719.219-.719m6.25.156c.083 0 .156.12.156.281 0 .362-.389.731-.531.5-.119-.192.162-.781.375-.781m12.656.188l-.875.031c-.704.025-.859.061-.781.25.053.129.149.622.219 1.094.07.471.222 1.126.313 1.469.091.343.154.947.156 1.344.002.447.105.817.25.938.296.245.296.423 0 .75-.165.182-.261.668-.281 1.625-.016.748-.09 1.397-.156 1.438-.066.041-.099.462-.094.938.008.709-.063.941-.375 1.281-1.116 1.217-1.392 2.371-.75 3.188.171.218.313.469.313.563 0 .273.109.213.688-.406.3-.321.701-.726.875-.906.411-.426.401-.569-.094-1.156-.481-.571-.337-.939.25-.625.427.228.664-.039.563-.625-.036-.21.016-.546.094-.75.1-.264.074-.449-.094-.688-.292-.417-.311-.799-.031-1.031.256-.213.303-2.582.063-3.03-.109-.203-.094-.384.063-.625.28-.431.472-1.632.281-1.75-.287-.177-.661-1.735-.625-2.531l.031-.781m-23.25.281c.173 0 .313.089.313.219 0 .237-.31.346-.5.156-.198-.197-.123-.375.188-.375m3.219 1.25c.296-.008.688.163.688.313 0 .204-.219.166-.563-.094-.166-.126-.225-.216-.125-.219m3.406.156c-.591-.021-1.156.393-1.156 1.031 0 .229.101.554.25.719.259.286.252.328-.156.625-.365.266-.406.405-.406 1.063 0 .914.515 2.106.969 2.25.174.055.478.019.688-.094.317-.169.391-.177.5 0 .185.299.051.596-.344.719-.766.239-.743.788.063 1.719.345.399.765 1.01.938 1.344.183.359.472.688.719.781.663.251 1.125.757 1.125 1.25 0 .245.112.472.219.5.107.029.399.101.656.188.544.184 2.072.191 2.375 0 .122-.077.274-.07.375.031.095.095.601.188 1.094.188.751 0 .953-.078 1.281-.406.216-.216.589-.418.844-.469.255-.051.604-.245.75-.406.146-.162.316-.281.406-.281.224 0 1.188-.966 1.188-1.188 0-.098.141-.282.313-.438.171-.155.313-.409.313-.563 0-.153.083-.329.156-.375.074-.046.164-.41.219-.813.126-.921-.135-1.372-.938-1.594-.506-.14-.635-.115-.906.156-.271.271-.325.509-.344 1.906-.012.89-.068 1.719-.125 1.813-.057.093-.262.114-.469.063-.301-.076-.415-.012-.563.313-.23.505-.561.514-.781.031-.127-.279-.107-.471.063-.813.149-.3.217-.83.188-1.594-.049-1.285-.113-1.458-.375-.969-.206.386-.406.309-.406-.188 0-.275-.086-.349-.438-.313-.283.03-.437-.023-.5-.188-.156-.407.137-.583.688-.375.475.179.5.17.938-.344.253-.297.447-.643.406-.781-.041-.138.026-.329.156-.438.484-.401.116-1.65-.531-1.813-.513-.129-.905.276-1.031 1.063-.057.357-.191.808-.313 1-.455.718-2.25 1.319-2.25.75 0-.331-.687-1.031-1.031-1.031-.155 0-.353.183-.438.375-.085.192-.357.417-.594.5-.364.127-.485.071-.688-.219-.132-.188-.294-.344-.375-.344-.235 0-.176.432.094.656.136.113.369.455.5.781.131.326.283.594.344.594.061 0 .392.256.75.563l.656.563 1.188-.25c1.508-.312 2.25-.328 2.25-.031 0 .123-.136.288-.313.344-.237.075-.317.193-.281.5.051.437.294.514 1 .281.348-.114.364-.099.094.375-.176.309-.398.468-.625.469-.296.001-.344.074-.344.531 0 .515-.036.555-.469.469-.404-.081-.485-.037-.844.531-.467.739-.668.794-.875.25-.081-.214-.268-.375-.406-.375-.46 0-.127-.388.375-.438.525-.052.713-.344.219-.344-.161 0-.393-.121-.5-.25-.107-.129-.357-.219-.563-.219-.292 0-.395.099-.469.469-.121.605-.539.837-.938.531-.285-.219-.271-.214.094-.5l.375-.313-.438-.844c-.719-1.389-1.078-1.597-1.844-1.188-.311.167-.302.135-.219-.594.076-.668.012-.937-.594-2.219-.378-.8-.688-1.519-.688-1.594 0-.075-.139-.171-.281-.25-.401-.224-.132-.656.406-.656.373 0 .55.114.938.688.263.39.469.797.469.875 0 .129.498.438.688.438.043 0 .098-.171.125-.406.039-.337.163-.461.5-.5.699-.081.529-.798-.25-1.094-.28-.107-.403-.252-.344-.406.061-.159-.141-.343-.656-.656-.415-.252-.913-.633-1.094-.813-.212-.212-.482-.303-.75-.313m-35.687.469c-.191.002-.462.154-.625.469-.834 1.612-.952 4.261-.156 3.469.065-.064.308-.125.563-.125.496 0 .732-.293 1.063-1.344.23-.732.235-1.949 0-2.094-.102-.063-.216-.038-.25.063-.1.3-.344.212-.344-.125 0-.22-.102-.314-.25-.313m3.656.75c-.241-.001-.592.186-1.031.594-.604.561-.641.646-.75 1.844-.063.686-.191 1.489-.313 1.781-.24.579-.173 1.094.156 1.094.262 0 .878 1.07.688 1.188-.078.048-.233-.096-.375-.313-.275-.419-.531-.412-.531.031 0 .148-.149.554-.313.875-.229.449-.284.824-.25 1.688.036.918.003 1.204-.25 1.563-.234.331-.289.589-.219 1.031.063.393-.011.879-.219 1.469-.186.529-.313 1.301-.313 1.906 0 .554-.077 1.045-.156 1.094-.128.079-.222.864-.313 2.156h1.563c.02-.148.04-.258.063-.438.042-.335.001-.699-.094-.813-.131-.158-.048-.319.313-.656.513-.479.501-.513.781-3.594.089-.974.142-1.828.094-1.906-.048-.078.069-.451.281-.813.368-.628.729-2.391.813-4.063.017-.343.144-1.099.281-1.656.672-2.723.708-4.058.094-4.063m3.594.188c.081 0 .156.071.156.156 0 .086-.116.156-.25.156-.134 0-.178-.071-.125-.156.053-.086.138-.156.219-.156m20.688.844c.04-.016.083 0 .125 0 .292 0 .607.345.5.625-.101.263-.823.33-.969.094-.13-.21.059-.61.344-.719m-36.469 1.188c.177 0 .209.109.125.5-.131.609-.214.719-.406.719-.081 0-.125-.168-.125-.375 0-.546.144-.844.406-.844m40.06.031c-.14.021-.207.255-.219.719-.008.314-.034 1.072-.063 1.688-.029.623.004 1.199.094 1.313.089.113.289.642.438 1.156.45 1.559.742 2.139 1.438 2.844.366.371.688.774.688.906 0 .324 1.418 2.078 1.594 1.969.077-.047.229-.318.344-.594.174-.416.169-.679 0-1.656-.231-1.329-.219-1.357-1.063-2.344-.34-.397-.631-.918-.656-1.156-.067-.626-.409-.904-.813-.688-.349.187-.416.145-.563-.469-.065-.272-.029-.497.125-.625.3-.249.309-.621 0-1.063-.17-.243-.22-.538-.156-.938.109-.684-.088-1.052-.469-.906-.148.057-.349.037-.469-.063-.093-.078-.186-.103-.25-.094m13.594.094c.173 0 .313.12.313.25 0 .237-.341.315-.531.125-.198-.198-.092-.375.219-.375m-13.03.375c.056.002.094.087.094.188 0 .134-.071.219-.156.219-.086 0-.156-.044-.156-.125 0-.081.071-.197.156-.25.021-.013.044-.032.063-.031m-4.375 1.125c.173-.023.406.114.406.313 0 .249-.387.295-.531.063-.053-.086-.05-.199 0-.281.032-.052.068-.086.125-.094m-28.25.281c-.039 0-.082.014-.125.031-.149.063-.452.107-.688.094-.484-.026-.565.199-.156.438.338.197.806.213 1.094.031.279-.177.146-.594-.125-.594m-.844 1.031c-.492 0-.558.077-.938.906-.276.603-.406 1.076-.375 1.5.042.574.096.632.469.594.46-.047.93.374.563.5-.117.04-.408.1-.656.125-.706.071-1.252 1.03-1.406 2.469-.023.214-.147.587-.281.844-.163.313-.257 1.093-.313 2.344-.085 1.913-.216 2.516-.656 3.531-.004.009.004.023 0 .031h1.906c.018-.059.049-.134.063-.188.173-.686.148-.714-.25-1.031-.546-.436-.523-.843.031-.906.332-.038.483-.206.75-.75.189-.386.371-.906.375-1.188.004-.282.141-.789.313-1.125.171-.336.313-.901.313-1.25 0-.349.11-.817.25-1.031.18-.275.267-.845.313-1.969.036-.875.143-1.881.219-2.219.186-.831-.012-1.188-.688-1.188m39.938 2.406c.071-.006.136.011.188.063.128.128.115.229-.031.406-.248.298-.625.32-.625.031 0-.259.256-.486.469-.5m-36.844.406c.275 0 .258.341-.031.438-.102.034-.188-.052-.188-.188 0-.136.083-.25.219-.25m32.469.656c.024-.002.041.003.063 0 .326-.01.385.271.094.563-.311.311-.617.229-.563-.156.032-.225.181-.374.406-.406m-5.906.281c.086 0 .156.071.156.156 0 .086-.071.156-.156.156-.086 0-.156-.071-.156-.156 0-.086.071-.156.156-.156m19.813 1.156c-.091.016-.215.09-.406.281-.219.219-.375.576-.375.781 0 .205-.376.907-.813 1.563-.669 1-.858 1.188-1.219 1.188-.526 0-.833.342-1.125 1.219-.275.824-.521.822-.469-.031.051-.836-.259-1.144-.813-.781-.373.245-.388.222-.438-.125-.04-.283-.147-.367-.563-.406-.291-.028-.628-.128-.75-.25-.286-.286-.502-.294-.594 0-.251.804-.233.78-.469.375-.123-.211-.29-.506-.344-.656-.054-.15-.17-.25-.25-.25-.08 0-.379-.263-.688-.563-.628-.61-1.078-.684-1.969-.313-.637.266-.714.552-.344 1.438.222.532.263.558.813.469.46-.075.654-.016.938.25.196.184.344.425.344.563 0 .657 1.369 1.558 1.656 1.094.196-.318.529-.123.75.406.195.466.31.53.75.531.283.001.759.044 1.063.094.488.081.583.053.75-.313.226-.496.435-.421.563.219.101.506.337.606.906.313.187-.096.502-.331.688-.5.235-.214.421-.253.594-.156.136.076.562.078.969.031l.75-.063-.031-.625c-.02-.335.034-.703.125-.813.117-.14.097-.291-.031-.531-.225-.421-.067-1.479.344-2.438.382-.89.384-1.465 0-1.813-.145-.131-.221-.204-.313-.188m-54.844.625c.209-.031.284.164.188.531-.09.343-.433.447-.594.188-.124-.2.056-.589.313-.688.035-.014.064-.027.094-.031m22.16.437c.247.007.563.142.563.281 0 .195-.484.428-.719.344-.234-.084-.282-.458-.063-.594.05-.031.136-.033.219-.031m-9.75.344c.225-.015.521.22.406.406-.119.192-.468.173-.594-.031-.058-.093-.029-.252.063-.344.036-.036.073-.028.125-.031m19.688 1.344c.338 0 .365.167.094.438-.208.208-.329.233-.469.094-.174-.174.079-.531.375-.531m24.16.031c-.259-.014-.656.288-.656.563 0 .619.585.66.813.063.097-.256.089-.473 0-.563-.039-.039-.096-.059-.156-.063m-33.688.438c.173 0 .313.089.313.219 0 .13-.139.219-.313.219-.173 0-.313-.089-.313-.219 0-.13.139-.219.313-.219m35.906 0c-.102.001-.228.084-.406.219-.35.266-1.066 1.287-1.063 1.531.002.103-.268.83-.625 1.625-.323.717-.485 1.092-.531 1.344h1.281c.172-.29.34-.651.438-.938.143-.422.353-.871.469-1 .316-.351.685-1.558.688-2.219.002-.39-.079-.565-.25-.563m1.875.187c-.117.742-.308 1.319-.563 1.781-.346.627-.661 1.456-.938 2.25l1.5-1.5v-2.531m-22.875.281c.252.003.384.248.156.438-.17.141-.256.119-.406-.063-.158-.191-.151-.262.063-.344.068-.026.129-.032.188-.031m-39.438.125c-.125.013-.266.074-.5.188-.586.283-.912.562-1.188 1.094v.844l.875.875c.012-.028.02-.067.031-.094.136-.329.417-.784.625-1.031.208-.247.458-.715.563-1.031.164-.498.163-.585-.063-.75-.105-.077-.218-.107-.344-.094m54.938.531c.109-.01.239.093.281.313.03.154-.074.25-.219.25-.145 0-.219-.121-.219-.313 0-.166.072-.242.156-.25m-5.844.219c.188.007.375.208.375.469 0 .25-.54.271-.688.031-.055-.09-.042-.249.063-.375.068-.081.164-.128.25-.125m1.469.125c.093-.017.202.016.25.094.051.082.053.196 0 .281-.144.233-.563.218-.563-.031 0-.165.158-.316.313-.344m-36.31.094c.053-.002.105.031.156.063.207.128.014.531-.25.531-.119 0-.219-.095-.219-.219 0-.204.154-.365.313-.375m-12.844.094c-.288.006-.394.122-.656.656-.235.478-.339 1.019-.344 1.656-.002.289-.048.519-.094.75h2c.083-.358.074-.731.031-1.438-.045-.737-.144-1.394-.219-1.469-.074-.074-.313-.138-.563-.156-.049-.003-.115 0-.156 0m18.531.094c.059-.017.094.027.094.156 0 .139-.121.25-.25.25-.129 0-.219-.03-.219-.063 0-.032.09-.143.219-.25.072-.059.121-.083.156-.094m26.625 1.062c-.123.009-.22.057-.281.156-.1.161.494.906.719.906.06 0 .173-.089.281-.219.161-.194.166-.31-.063-.563-.19-.21-.451-.296-.656-.281m-11.656.281c.275 0 .226.341-.063.438-.102.034-.188-.052-.188-.188 0-.136.114-.25.25-.25m.844.219c.109-.01.239.093.281.313.03.154-.042.25-.188.25-.145 0-.25-.121-.25-.313 0-.166.072-.242.156-.25m-18.19.438c-.08 0-.175.05-.281.156-.115.115-.182.36-.219.813h.844c-.056-.635-.152-.968-.344-.969m-6 .25l-.344.344c-.091.086-.181.221-.25.375h1.094c-.025-.038-.036-.09-.063-.125l-.438-.594m8.563.094c-.091.002-.18.018-.25.063-.1.064-.176.29-.219.563h1.406c-.109-.351-.575-.633-.938-.625zm17.938.313c-.061-.014-.125.043-.25.156-.083.075-.163.119-.219.156h.656c-.005-.01.005-.021 0-.031-.087-.163-.126-.267-.188-.281m-22.531.125c-.175-.004-.494.085-.781.188h.906c-.014-.063-.013-.145-.031-.156-.025-.015-.044-.03-.094-.031" fill="#a61d00" fill-opacity=".166"/><g color="#000"><path d="m32 16c-8.837 0-16 7.163-16 16 0 3.691 1.275 7.07 3.375 9.781l-9.219 9.219 2.844 2.844 9.219-9.219c2.707 2.1 6.09 3.375 9.781 3.375 8.837 0 16-7.163 16-16 0-8.837-7.163-16-16-16m0 4c6.627 0 12 5.373 12 12 0 6.627-5.373 12-12 12-6.627 0-12-5.373-12-12 0-6.627 5.373-12 12-12m-2 4v6 3 1h10v-4h-6v-6h-4" fill="#ececec"/><path d="m32 20c-6.627 0-12 5.373-12 12 0 3.568 1.559 6.771 4.03 8.969-1.884-2.119-3.03-4.91-3.03-7.969 0-6.627 5.373-12 12-12 3.059 0 5.849 1.147 7.969 3.03-2.198-2.472-5.4-4.03-8.969-4.03m11.781 1.219c2.605 2.846 4.219 6.619 4.219 10.781 0 8.837-7.163 16-16 16-3.691 0-7.07-1.275-9.781-3.375l-9.219 9.219 1 1 9.219-9.219c2.707 2.1 6.09 3.375 9.781 3.375 8.837 0 16-7.163 16-16 0-4.675-2.022-8.856-5.219-11.781m-9.781 3.781v5h1v-5h-1m6 6v3h-9v1h10v-4h-1" fill="#594000" fill-opacity=".085"/></g><path d="m0 3v3l2-2" fill="#ffd771"/><path d="m64 6l-2-2 2-1z" fill="#ebb630"/></svg>