<svg xmlns="http://www.w3.org/2000/svg" xmlns:xlink="http://www.w3.org/1999/xlink" viewBox="0 0 64 64"><defs><linearGradient id="1" gradientUnits="userSpaceOnUse" y1="64" x2="0" y2="8"><stop stop-color="#ebeef3"/><stop offset=".321" stop-color="#ebeef3"/><stop offset=".321" stop-color="#e3e6ed"/><stop offset=".321" stop-color="#cfd6e1"/><stop offset="1" stop-color="#cfd6e1"/></linearGradient></defs><g color="#000"><path d="m0 8v38 16l2 2h30 30l2-2v-16-38h-32z" fill="url(#1)"/><path d="m2 0l-2 1v7h32 32v-7l-2-1h-30z" fill="#b7c1d2"/></g><path d="m47.48 46.19c-.257.001-.51.012-.748.031-.198.016-.457.057-.744.118-.621.132-1.376.367-1.95.688-.088.049-.172.101-.25.154-.078.053-.152.108-.219.165-.034.029-.064.059-.094.089-.029.029-.059.057-.085.087 0 .001 0 .002 0 .002-.103.122-.178.25-.21.386 0 .001 0 .002 0 .002-.004.016-.006.033-.009.049 0 .001 0 .002 0 .002-.005.034-.009.068-.009.103 0 .001 0 .002 0 .002 0 .052.005.107.018.161.279 1.251 3.843-.449 4.559.404.048.931-.241 1.399-.471 2.077-.032.094-.07.199-.112.31-.042.112-.087.229-.13.351-.043.122-.083.246-.118.371-.018.062-.035.122-.049.183 0 .001 0 .002 0 .002-.014.06-.026.12-.036.179 0 .001 0 .002 0 .002-.005.029-.01.057-.013.085-.015.116-.019.227-.007.328.003.025.008.048.013.071.049.24.198.414.518.462.308.048.601-.071.869-.279.03-.023.06-.048.089-.074.058-.05.114-.105.17-.163.084-.087.164-.182.241-.281.231-.297.431-.634.59-.938.071-.135.134-.265.188-.38.054-.115.099-.217.134-.299.151-.348.353-.854.509-1.398 0-.001 0-.002 0-.002.026-.09.051-.181.074-.272 0-.001 0-.002 0-.002.046-.184.085-.37.114-.554 0-.001 0-.002 0-.002.022-.137.038-.274.047-.407 0-.001 0-.002 0-.002.009-.133.01-.262.002-.386 0-.001 0-.002 0-.002-.005-.083-.014-.164-.027-.241 0-.001 0-.002 0-.002-.013-.078-.031-.152-.054-.223 0-.001 0-.002 0-.002-.045-.144-.11-.274-.197-.386-.31-.4-1.491-.574-2.604-.57m-29.876 1.291c-.033.002-.067.009-.098.016-.086.018-.164.037-.235.065-.035.014-.069.029-.101.047-.031.018-.059.039-.085.063-.014.012-.026.024-.038.038 0 .001 0 .002 0 .002-.011.013-.023.027-.034.042 0 .001 0 .002 0 .002-.021.031-.041.066-.056.105-.008.02-.014.04-.02.063 0 .001 0 .002 0 .002-.006.022-.011.045-.016.069 0 .001 0 .002 0 .002-.009.049-.015.105-.018.165 0 .001 0 .002 0 .002 0 .001 0 .002 0 .002-.002.05.004.101.016.154.002.007.003.013.005.02.003.013.007.027.011.04.005.017.009.034.016.051.001.002.002.003.002.004.011.03.026.061.04.092.001.001.002.001.002.002.015.031.031.062.049.094.008.014.016.027.025.04.012.019.023.039.036.058.001.001.002.001.002.002.022.032.045.064.069.096.019.025.038.049.058.074.007.009.013.018.02.027.001.001.002.001.002.002.027.033.056.066.085.098.001.001.002.001.002.002.029.033.06.066.092.098.001.001.002.001.002.002.031.033.063.066.096.098.001.001.002.002.002.002.101.099.211.198.324.295.001.001.001.002.002.002.075.064.152.128.23.19.001.001.001.002.002.002.078.062.156.124.235.183.001.001.001.002.002.002.078.059.158.116.235.172.001.001.001.002.002.002.077.056.151.107.223.159.032.022.061.044.092.065.041.028.082.058.121.085.001.001.003.001.005.002.134.092.255.173.353.239.001.001.002.002.002.002.048.033.091.062.127.087.015.011.025.018.038.027.018.013.038.028.051.038.001.001.003.001.004.002.057.044.113.086.17.13.329.252.658.499.989.742.001.001.001.002.002.002.194.142.389.282.585.42.001.001.001.002.002.002.196.138.395.273.594.407.001.001.001.002.002.002.099.066.199.131.299.197.001.001.001.002.002.002.201.131.404.259.61.384.069.042.139.084.208.125.034.021.068.042.103.063.001.001.003.001.005.002.016.009.031.018.047.027.181.106.364.211.549.313.011.006.022.012.034.018.002.001.003.001.005.002.106.058.214.114.322.17.001.001.001.002.002.002.108.056.216.111.326.165.001.001.001.002.002.002.331.164.671.32 1.018.467.001.001.001.002.002.002.232.098.468.19.708.279.001.001.001.002.002.002.12.045.24.087.362.13.002.001.003.002.005.002.121.042.245.083.369.123.125.04.252.078.38.116.002.001.003.002.005.002 1.024.304 2.132.531 3.353.661 5.03.534 9.648-1.072 12.934-2.881.613-.338 3.045-1.316 2.881-2.481-.006-.048-.015-.091-.025-.134-.009-.041-.021-.08-.033-.116-.012-.035-.024-.07-.038-.101-.001-.002-.002-.003-.002-.004-.014-.031-.03-.058-.047-.085-.001-.001-.001-.003-.002-.004-.035-.055-.074-.101-.118-.141-.001-.001-.001-.002-.002-.002-.044-.039-.095-.071-.147-.096-.001-.001-.001-.002-.002-.002-.644-.307-1.863.368-2.665.683-.802.316-1.682.625-2.618.905-.001 0-.002 0-.002 0-.233.07-.47.137-.71.203-.001 0-.002 0-.002 0-.24.066-.485.131-.73.192-.247.062-.496.12-.748.176-.377.084-.759.162-1.146.232-.001 0-.002 0-.002 0-.257.047-.517.092-.777.132-.001 0-.002 0-.002 0-.261.04-.523.077-.786.109-.001 0-.002 0-.002 0-1.453.18-2.941.24-4.405.127-1.992-.152-3.696-.517-5.235-1.018-.64-.209-1.253-.44-1.845-.69-.001-.001-.001-.002-.002-.002-.118-.05-.234-.099-.351-.15-.001-.001-.001-.002-.002-.002-.116-.051-.231-.102-.346-.154-.001-.001-.001-.002-.002-.002-1.505-.685-2.902-1.477-4.346-2.271-.34-.186-.831-.479-1.266-.612-.002-.001-.003-.002-.004-.002-.159-.048-.308-.076-.442-.067" fill="#f19f29"/><path d="m31.781 23.1h2.145c2.705.292 5.659 1.294 6.77 3.686 1.589 3.43.134 8.718.669 12.936.112.855.491 1.513 1.01 2.212.32.431.835.909.805 1.34-.039.587-1.357 1.435-1.878 1.876-.545.459-1.48 1.576-2.279 1.543-.667-.032-1.145-.788-1.543-1.206-.424-.444-.781-.887-1.205-1.541-.989.68-1.796 1.502-2.95 2.076-1.147.574-2.524.905-4.289.874-3.703-.069-5.893-2.359-6.166-5.495-.647-7.434 5.843-8.869 12.535-9.185-.035-1.324.058-2.422-.336-3.285-.903-1.974-4.309-1.77-5.564-.063-.478.651-.288 1.437-1 1.943-1.684-.284-3.881-.054-4.962-.941.632-4.372 3.776-6.233 8.244-6.77m2.885 12.468c-1.733.154-3.171.195-4.292 1.073-1.456 1.138-2.16 5.04.201 5.965 1.11.433 2.478-.078 3.151-.671 1.376-1.21 1.898-3.627 1.606-6.434-.387-.046-.485.05-.665.067" fill="#414e5f"/><g fill="#f2f5fa"><path d="m0 7v3l2-2h30 30l2-1h-32z"/><path d="m2 0l-2 1h32 32l-2-1h-30z"/></g><path d="m63 1v6.5l-1 .5 2 2v-2-1-6h-1" fill="#e3e8ef"/><g color="#000"><path d="m58.56 17.389c-1.934-.517-7.162 3.511-7.162 3.511l-1.396 11.1 11 4 1-13c0 0-1.508-5.095-3.442-5.611m-.583 2.169c1.202.321 1.915 1.552 1.593 2.75-.322 1.198-1.557 1.909-2.759 1.588-1.202-.321-1.915-1.552-1.593-2.75.322-1.198 1.557-1.909 2.759-1.588" fill="#002740" fill-opacity=".149"/><path d="m56.969 15.502c-1.61-.431-5.962 2.932-5.962 2.932l-3.073 11.47 9.659 2.588 3.073-11.47c0 0-2.087-5.089-3.697-5.52m-.485 1.811c1 .268 1.594 1.296 1.326 2.296-.268 1-1.296 1.594-2.296 1.326-1-.268-1.594-1.296-1.326-2.296.268-1 1.296-1.594 2.296-1.326" fill="#f2c84d"/></g><path d="m56 19v-12" fill="none" stroke="#414e5f" stroke-linejoin="round" stroke-linecap="round" stroke-width="2"/><path d="m23 14a2 2 0 1 1 -4 0 2 2 0 1 1 4 0" transform="translate(0 1)" fill="#414e5f" color="#000" id="0"/><use transform="translate(21)" xlink:href="#0"/><path d="m20.78125 14a1.0001 1.0001 0 0 0 -.5 1.71875c0 0 2.307 2.294 5.438 4.594C28.849 22.612 32.788 25 36.5 25 38.36 25 39.82 24.302 40.813 23.281 41.805 22.26 42.35 20.985 42.656 19.75 43.27 17.28 43 14.875 43 14.875a1.00778 1.00778 0 1 0 -2 .25c0 0 .226 2.095-.281 4.125-.254 1.015-.696 1.99-1.344 2.656C38.727 22.573 37.894 23 36.5 23c-2.788 0-6.599-2.112-9.594-4.313-2.994-2.2-5.188-4.406-5.188-4.406A1.0001 1.0001 0 0 0 20.78125 14" fill-opacity=".149" color="#000" fill="#002740"/><path d="m21 15c0 0 4 4 10.5 4 6.5 0 10.5-4 10.5-4" fill="none" stroke="#37aaff" stroke-linejoin="round" stroke-linecap="round" stroke-width="2"/><text x="56.22" y="13.839" transform="matrix(.96593.25882-.25882.96593 0 0)" fill="#b37821" font-family="Futura LT" word-spacing="0" line-height="125%" font-weight="bold" letter-spacing="0" font-size="7.717"><tspan x="56.22" y="13.839">$</tspan></text><path d="m0 1v9l1-1 1-1-1-.531v-6.469z" fill="#f2f5fa"/></svg>