<svg xmlns="http://www.w3.org/2000/svg" viewBox="0 0 64 64"><g color="#000"><path d="m0 1l2-1h60l2 1v61l-2 2h-60l-2-2" fill="#3b577a"/><path d="m0 1l2-1h60l2 1v3h-64" fill="#668cbb"/></g><path d="m64 6l-2-2 2-1" fill="#162f4d" fill-opacity=".352"/><path d="m0 6l2-2-2-1" fill="#87bde7" fill-opacity=".547"/><g color="#000"><path d="m6 10h52v47h-52z" fill="#2c8fe4"/><path d="m6 10v47h18.688l18-47h-36.688" fill="#6ce3ff" fill-opacity=".177"/><g fill="#e3ecf0"><path d="m-9355.67 2074.56c-3.314 0-6 2.686-6 6 0 1.298.424 2.487 1.125 3.469l-4.844 4.844 1.438 1.406 4.844-4.844c.978.692 2.148 1.125 3.438 1.125 3.314 0 6-2.686 6-6 0-3.314-2.686-6-6-6m0 2c2.209 0 4 1.791 4 4 0 2.209-1.791 4-4 4-2.209 0-4-1.791-4-4 0-2.209 1.791-4 4-4" color="#000" transform="matrix(1.90847 0 0 1.90847 17889.6-3939.73)"/></g></g></svg>