<svg xmlns="http://www.w3.org/2000/svg" viewBox="0 0 64 64"><g color="#000"><path d="m0 4v30 28l2 2h30 30l2-2v-28-30h-32-32" fill="#2d5588"/><path d="m2 0l-2 1v3h32 32v-3l-2-1h-30-30" fill="#4d89d4"/></g><path d="m0 3v3l2-2" fill="#5495e6"/><path d="m64 6l-2-2 2-1" fill="#3d6fad"/><g color="#000"><path transform="matrix(.95833 0 0 .95833.375.458)" d="M57 35A24 24 0 1 1 9 35 24 24 0 1 1 57 35" fill="#c9e2f6"/><path d="m31 19v19.688c-1.048-.445-2.231-.688-3.5-.688-4.142 0-7.5 2.686-7.5 6 0 3.314 3.358 6 7.5 6 4.142 0 7.5-2.686 7.5-6v-20.813c5.668.959 10 5.872 10 11.813 0 3.183-1.25 6.25-3.5 8.5l2.813 2.813c3-3 4.688-7.07 4.688-11.313 0-8.837-7.163-16-16-16h-2" fill="#004588" fill-opacity=".099"/><path d="m30 18v19.688c-1.048-.445-2.231-.688-3.5-.688-4.142 0-7.5 2.686-7.5 6 0 3.314 3.358 6 7.5 6 4.142 0 7.5-2.686 7.5-6v-20.813c5.668.959 10 5.872 10 11.813 0 3.183-1.25 6.25-3.5 8.5l2.813 2.813c3-3 4.688-7.07 4.688-11.313 0-8.837-7.163-16-16-16h-2" fill="#278aec"/></g></svg>