<svg xmlns="http://www.w3.org/2000/svg" viewBox="0 0 64 64"><g color="#000"><path d="m10 0c-5.532.068-10 4.577-10 10.125v4.875l19.563-11h19.563 24.875v-3l-2-1h-42.44-9.563" fill="#9af14f"/><path d="m10 4c-5.532.068-10 4.577-10 10.125v19.875 28l2 2h30 21.875l2.125-.25c4.564-.981 8-5.02 8-9.875v-49.875h-2-30z" fill="#52b825"/></g><path d="m64 6l-2-2 2-1z" fill="#1f0700" fill-opacity=".138"/><g color="#000"><path d="m18.18 12.604c-1.716 0-3.216.269-4.493.796-1.268.517-2.311 1.244-3.159 2.2-.839.956-1.476 2.108-1.895 3.463-.419 1.346-.632 2.859-.632 4.516 0 1.472.17 2.833.491 4.072.332 1.238.835 2.317 1.498 3.253.663.936 1.486 1.702 2.48 2.317 1 .605 2.188 1.012 3.534 1.217.097 1.268.374 2.342.842 3.229.478.897 1.053 1.634 1.755 2.2.712.575 1.519 1 2.387 1.264.878.263 1.747.398 2.644.398h2.153v-1.755h-.468c-.497 0-.997-.078-1.474-.234-.478-.156-.911-.433-1.31-.842-.39-.4-.733-.95-1.01-1.661-.273-.702-.45-1.613-.538-2.715 1.18-.283 2.229-.733 3.136-1.357.907-.634 1.679-1.4 2.293-2.317.614-.917 1.069-1.979 1.381-3.159.322-1.19.491-2.48.491-3.885 0-1.667-.23-3.171-.679-4.516-.439-1.355-1.084-2.508-1.942-3.463-.858-.965-1.925-1.706-3.183-2.223-1.248-.526-2.687-.796-4.306-.796m0 1.942c.926 0 1.72.222 2.363.632.644.4 1.168.975 1.568 1.755.4.77.69 1.71.866 2.832.185 1.121.281 2.404.281 3.838 0 1.433-.096 2.716-.281 3.838-.176 1.121-.466 2.075-.866 2.855-.4.77-.938 1.346-1.591 1.755-.644.41-1.427.632-2.363.632-.926 0-1.71-.222-2.363-.632-.644-.41-1.182-.985-1.591-1.755-.41-.78-.704-1.734-.889-2.855-.185-1.121-.281-2.404-.281-3.838 0-1.433.096-2.716.281-3.838.185-1.121.48-2.061.889-2.832.41-.78.938-1.355 1.591-1.755.653-.409 1.451-.632 2.387-.632m14.813 0c-.302 1.336-.743 2.328-1.357 2.972-.302.332-.71.636-1.217.889-.507.254-1.088.374-1.732.374v1.544h2.246v9.571c0 .878.099 1.619.304 2.223.205.595.509 1.071.889 1.451.38.371.835.64 1.381.796.546.166 1.152.257 1.825.257.527 0 1.026-.021 1.474-.07.449-.049.842-.109 1.193-.187.361-.068.673-.146.936-.234.273-.088.499-.179.655-.257v-1.942c-.312.078-.645.152-1.01.211-.351.049-.733.07-1.123.07-.702 0-1.209-.213-1.521-.632-.302-.419-.445-1.082-.445-1.989v-9.267h3.814v-2.059h-3.814v-3.721h-2.504" fill="#d2ddce"/><path d="m18 14c-1.716 0-.723.474-2 1-1.268.517-2.152 1.044-3 2-.839.956-.699 3.958-1.118 5.313-.419 1.346-.632 2.859-.632 4.516 0 1.472.17 2.833.491 4.072.332 1.238-2.415-.933-1.752.003.663.936 4.736 4.952 5.73 5.567 1 .605 2.188 1.012 3.534 1.217.097 1.268.374 2.342.842 3.229.478.897 1.053 1.634 1.755 2.2.712.575 1.519 1 2.387 1.264.878.263 1.747.398 2.644.398h2.153v-1.755l-3.253-3.242c-.39-.4-.733 1.216-1.01.504-.273-.702-.45-1.613-.538-2.715 1.18-.283 2.229-.733 3.136-1.357.907-.634 1.679-1.4 2.293-2.317.614-.917 1.069-1.979 1.381-3.159.322-1.19.491-2.48.491-3.885 0-1.667-.23-3.171-.679-4.516-.439-1.355-1.084-2.508-1.942-3.463-.858-.965-4.091-4.428-5.349-4.945-1.248-.526-3.951.072-5.569.072m3.429 3.797c.926 0 1.72.222 2.363.632.644.4 1.168.975 1.568 1.755.4.77.69 1.71.866 2.832.185 1.121.281 2.404.281 3.838 0 1.433-.456.171-.642 1.292-.176 1.121-.466 2.075-.866 2.855-.4.77-.938 1.346-1.591 1.755-.644.41-1.427.632-2.363.632-.926 0-1.349 2.323-2 1.914-.644-.41-1.182-.985-1.591-1.755-.41-.78-.704-1.734-.889-2.855-.185-1.121-.281-2.404-.281-3.838 0-1.433.096-2.716.281-3.838.185-1.121.48-2.061.889-2.832.41-.78.938-1.355 1.591-1.755.653-.409 1.451-.632 2.387-.632m14.07-3.25c-.302 1.336.003 5.578-.611 6.222-.302.332-.71.636-1.217.889-.507.254-1.088.374-1.732.374v1.544h2.246v9.571c0 .878.099 1.619.304 2.223.205.595.509 1.071.889 1.451.38.371.835.64 1.381.796.546.166 1.152.257 1.825.257.527 0 1.026-.021 1.474-.07.449-.049.842-.109 1.193-.187.361-.068.673-.146.936-.234.273-.088.499-.179.655-.257v-1.942l-3.25-3.25-.845.91v-9.267h3.814v-2.059l-3.25-3.236-.689 1 .125-1.485z" fill-opacity=".174" fill="#237200"/><path d="m18.18 12.604c-1.716 0-3.216.269-4.493.796-1.268.517-2.311 1.244-3.159 2.2-.839.956-1.476 2.108-1.895 3.463-.419 1.346-.632 2.859-.632 4.516 0 1.472.17 2.833.491 4.072.332 1.238.835 2.317 1.498 3.253.663.936 1.486 1.702 2.48 2.317 1 .605 2.188 1.012 3.534 1.217.097 1.268.374 2.342.842 3.229.478.897 1.053 1.634 1.755 2.2.712.575 1.519 1 2.387 1.264.878.263 1.747.398 2.644.398h2.153v-1.755h-.468c-.497 0-.997-.078-1.474-.234-.478-.156-.911-.433-1.31-.842-.39-.4-.733-.95-1.01-1.661-.273-.702-.45-1.613-.538-2.715 1.18-.283 2.229-.733 3.136-1.357.907-.634 1.679-1.4 2.293-2.317.614-.917 1.069-1.979 1.381-3.159.322-1.19.491-2.48.491-3.885 0-1.667-.23-3.171-.679-4.516-.439-1.355-1.084-2.508-1.942-3.463-.858-.965-1.925-1.706-3.183-2.223-1.248-.526-2.687-.796-4.306-.796m0 1.942c.926 0 1.72.222 2.363.632.644.4 1.168.975 1.568 1.755.4.77.69 1.71.866 2.832.185 1.121.281 2.404.281 3.838 0 1.433-.096 2.716-.281 3.838-.176 1.121-.466 2.075-.866 2.855-.4.77-.938 1.346-1.591 1.755-.644.41-1.427.632-2.363.632-.926 0-1.71-.222-2.363-.632-.644-.41-1.182-.985-1.591-1.755-.41-.78-.704-1.734-.889-2.855-.185-1.121-.281-2.404-.281-3.838 0-1.433.096-2.716.281-3.838.185-1.121.48-2.061.889-2.832.41-.78.938-1.355 1.591-1.755.653-.409 1.451-.632 2.387-.632m14.813 0c-.302 1.336-.743 2.328-1.357 2.972-.302.332-.71.636-1.217.889-.507.254-1.088.374-1.732.374v1.544h2.246v9.571c0 .878.099 1.619.304 2.223.205.595.509 1.071.889 1.451.38.371.835.64 1.381.796.546.166 1.152.257 1.825.257.527 0 1.026-.021 1.474-.07.449-.049.842-.109 1.193-.187.361-.068.673-.146.936-.234.273-.088.499-.179.655-.257v-1.942c-.312.078-.645.152-1.01.211-.351.049-.733.07-1.123.07-.702 0-1.209-.213-1.521-.632-.302-.419-.445-1.082-.445-1.989v-9.267h3.814v-2.059h-3.814v-3.721h-2.504" fill="#e6f1e2"/><path d="m61.47 26.25c-.511.016-1.027.252-1.406.656l-2.063 2.188-.688.719-23.938 25.531-2.625 5.75-1.344 2.875c0 0 .001.029 0 .031h1.969l1.563-.844 5.563-3.03 22.563-24.06 1.375-1.469.688-.719.875-.938v-5.094l-1.125-1.031c-.404-.379-.895-.579-1.406-.563" fill-opacity=".174" fill="#237200"/></g><g transform="matrix(.73022.68321-.68321.73022 36.25-18.901)"><path d="m43 56v-1.9l7-.78v2.68l-2 6h-3z" fill="#dcc48b"/><g color="#000" transform="matrix(.97373-.22772.22772.97373-4.79 15.554)"><path d="m50.16 17.313l-7.969 34.09c.189-.807.775-1.376 1.313-1.25.538.126.814.912.625 1.719l8-34.09-1.969-.469" fill="#c48b29"/><path d="m45.28 16.188l-7.969 34.09c.189-.807.775-1.376 1.313-1.25.538.126.845.881.656 1.688l7.969-34.06-1.969-.469" fill="#f4d44d"/><path d="m47.25 16.656l-7.969 34.06c.189-.807.975-1.314 1.781-1.125.807.189 1.314 1.01 1.125 1.813l7.969-34.09-2.906-.656" fill="#e4ab35"/></g><path d="m45 62l1 3c0 0 .154.5.5.5.346 0 .5-.5.5-.5l1-3c-.069-.22-.202-.162-.359 0l-.309-.276-.597.276-.829-.563-.409.563c-.182-.122-.398-.505-.498 0" fill="#535353"/><g color="#000"><rect rx="2" y="15" x="43" height="7" width="7" fill="#c84949"/><path fill="#535353" d="m43 20h7v3h-7z"/></g></g></svg>