<?xml version="1.0" encoding="UTF-8" standalone="no"?>
<!-- Created with Inkscape (http://www.inkscape.org/) -->

<svg
   xmlns:dc="http://purl.org/dc/elements/1.1/"
   xmlns:cc="http://creativecommons.org/ns#"
   xmlns:rdf="http://www.w3.org/1999/02/22-rdf-syntax-ns#"
   xmlns:svg="http://www.w3.org/2000/svg"
   xmlns="http://www.w3.org/2000/svg"
   xmlns:sodipodi="http://sodipodi.sourceforge.net/DTD/sodipodi-0.dtd"
   xmlns:inkscape="http://www.inkscape.org/namespaces/inkscape"
   width="64"
   height="64"
   id="svg13094"
   version="1.1"
   inkscape:version="0.91+devel r"
   sodipodi:docname="dictionary.svg">
  <sodipodi:namedview
     id="base"
     pagecolor="#ffffff"
     bordercolor="#666666"
     borderopacity="1.0"
     inkscape:pageopacity="0"
     inkscape:pageshadow="2"
     inkscape:zoom="11.313708"
     inkscape:cx="24.724346"
     inkscape:cy="29.59786"
     inkscape:document-units="px"
     inkscape:current-layer="svg13094"
     showgrid="true"
     inkscape:snap-bbox="true"
     inkscape:bbox-paths="true"
     inkscape:bbox-nodes="true"
     inkscape:snap-bbox-edge-midpoints="true"
     inkscape:snap-bbox-midpoints="true"
     inkscape:object-paths="true"
     inkscape:snap-intersection-paths="true"
     inkscape:object-nodes="true"
     inkscape:snap-smooth-nodes="true"
     inkscape:snap-midpoints="true"
     inkscape:snap-object-midpoints="true"
     inkscape:snap-center="true"
     showguides="true"
     inkscape:guide-bbox="true"
     inkscape:window-width="1920"
     inkscape:window-height="1023"
     inkscape:window-x="-10"
     inkscape:window-y="35"
     inkscape:window-maximized="1"
     inkscape:snap-global="true"
     fit-margin-top="0"
     fit-margin-left="0"
     fit-margin-right="0"
     fit-margin-bottom="0"
     showborder="true"
     inkscape:showpageshadow="false"
     inkscape:snap-page="true">
    <inkscape:grid
       type="xygrid"
       id="grid3075"
       empspacing="5"
       visible="true"
       enabled="true"
       snapvisiblegridlinesonly="true"
       originx="1.6362304e-08px"
       originy="18px" />
  </sodipodi:namedview>
  <defs
     id="defs13096" />
  <metadata
     id="metadata13099">
    <rdf:RDF>
      <cc:Work
         rdf:about="">
        <dc:format>image/svg+xml</dc:format>
        <dc:type
           rdf:resource="http://purl.org/dc/dcmitype/StillImage" />
        <dc:title></dc:title>
      </cc:Work>
    </rdf:RDF>
  </metadata>
  <path
     sodipodi:nodetypes="ccccccccccc"
     id="path3009"
     d="m 0,8 0,26 0,28 2,2 30,0 30,0 2,-2 0,-28 0,-26 -32,0 z"
     style="color:#000000;fill:#cd2c4f;fill-opacity:1;fill-rule:nonzero;stroke:none;stroke-width:2.28571415;marker:none;visibility:visible;display:inline;overflow:visible;enable-background:accumulate"
     inkscape:connector-curvature="0" />
  <path
     sodipodi:nodetypes="ccccccccc"
     id="path3016"
     d="M 2,0 0,1 0,8 32,8 64,8 64,1 62,0 32,0 z"
     style="color:#000000;fill:#ff5383;fill-opacity:1;fill-rule:nonzero;stroke:none;stroke-width:2.28571415000000000;marker:none;visibility:visible;display:inline;overflow:visible;enable-background:accumulate"
     inkscape:connector-curvature="0" />
  <path
     d="M 64,10 62,8 64,7 z"
     id="path3028"
     style="fill:#df4263;fill-opacity:1"
     inkscape:connector-curvature="0"
     sodipodi:nodetypes="cccc" />
  <g
     id="g3043"
     inkscape:export-filename="folder.png"
     inkscape:export-xdpi="90"
     inkscape:export-ydpi="90"
     transform="translate(-0.62500009,0.082283)" />
  <g
     id="scalable"
     transform="matrix(1.0385892,0,0,1.0385892,1214.7222,1878.8121)"
     inkscape:label="#g3701"
     style="fill:#ffffff" />
  <path
     style="color:#000000;fill:#a62839;fill-opacity:1;fill-rule:nonzero;stroke:none;stroke-width:2.28571415;marker:none;visibility:visible;display:inline;overflow:visible;enable-background:accumulate"
     d="M 3 2 L 3 4 L 61 4 L 61 6 L 64 6 L 64 4 L 64 2 L 3 2 z "
     id="rect3178" />
  <path
     style="color:#000000;fill:#554347;fill-opacity:0.37813619;fill-rule:nonzero;stroke:none;stroke-width:1;marker:none;visibility:visible;display:inline;overflow:visible;enable-background:accumulate"
     d="M 2.5,0 0,1 0,3.34375 0,8 0,34 0,62 2.5,64 12,64 12,8 12,0 z"
     id="rect3007"
     inkscape:connector-curvature="0"
     sodipodi:nodetypes="ccccccccccc" />
  <path
     id="path3952"
     d="M 3,4 61,4 61,6 3,6 z"
     style="color:#000000;fill:#ececec;fill-opacity:1;fill-rule:nonzero;stroke:none;stroke-width:1;marker:none;visibility:visible;display:inline;overflow:visible;enable-background:accumulate"
     inkscape:connector-curvature="0" />
  <path
     style="color:#000000;fill:#000000;fill-opacity:0.18021204;fill-rule:nonzero;stroke:none;stroke-width:1.06597185;marker:none;visibility:visible;display:inline;overflow:visible;enable-background:accumulate"
     d="M 3,2 5,4 5,6 3,6 z"
     id="rect3143"
     inkscape:connector-curvature="0"
     sodipodi:nodetypes="ccccc" />
  <path
     style="fill:#d96685;fill-opacity:1;fill-rule:nonzero"
     d="M 0,7 0,10 2,8 Z"
     id="path4298"
     inkscape:connector-curvature="0"
     sodipodi:nodetypes="cccc" />
  <g
     id="g3821"
     style="fill:#ffffff;fill-opacity:0.87030411">
    <path
       d="m 26.202177,37.333653 -0.667295,1.990574 c -0.06032,0.188504 -0.124415,0.410935 -0.192271,0.667294 -0.06033,0.248824 -0.09049,0.467486 -0.09048,0.655985 -4e-6,0.150803 0.03016,0.282753 0.09048,0.395852 0.06032,0.113103 0.139487,0.207353 0.237512,0.282752 0.09802,0.06786 0.207346,0.120642 0.327992,0.158341 0.128176,0.0377 0.260126,0.05655 0.395852,0.05655 l 0.972667,0 0,1.232798 -6.028271,0 0,-1.232798 0.282752,0 c 0.203581,10e-7 0.388312,-0.02262 0.554194,-0.06786 0.17342,-0.04524 0.331761,-0.128179 0.475023,-0.248822 0.1508,-0.128179 0.29029,-0.3016 0.418473,-0.520263 0.135719,-0.218659 0.27144,-0.501411 0.407163,-0.848256 l 5.021674,-13.617332 3.178131,0 4.840713,13.639952 c 0.113085,0.324225 0.229956,0.595667 0.350612,0.814326 0.128165,0.211123 0.263886,0.380774 0.407163,0.508953 0.150785,0.120643 0.309126,0.207353 0.475023,0.260132 0.165865,0.05278 0.339286,0.07917 0.520264,0.07917 l 0.418472,0 0,1.232798 -7.645611,0 0,-1.232798 0.904806,0 c 0.11309,10e-7 0.229961,-0.01508 0.350612,-0.04524 0.12063,-0.0377 0.226191,-0.09048 0.316682,-0.158341 0.09801,-0.0754 0.17718,-0.169649 0.237512,-0.282752 0.06031,-0.113099 0.09047,-0.248819 0.09048,-0.407162 -1.2e-5,-0.188499 -0.02263,-0.36946 -0.06786,-0.542884 -0.04525,-0.173418 -0.09049,-0.324219 -0.135721,-0.452403 l -0.814325,-2.318566 -5.632418,0 m 3.947216,-5.213945 c -0.08295,-0.263891 -0.16966,-0.539102 -0.260131,-0.825636 -0.08295,-0.29405 -0.16966,-0.591882 -0.260132,-0.893496 -0.08295,-0.301589 -0.16589,-0.599421 -0.248822,-0.893496 -0.07541,-0.301588 -0.143269,-0.58811 -0.203581,-0.859565 -0.06787,0.233755 -0.147039,0.490116 -0.237512,0.769085 -0.09049,0.278995 -0.188509,0.565516 -0.294062,0.859566 -0.09803,0.294074 -0.199818,0.588135 -0.305372,0.882185 -0.09803,0.294074 -0.192278,0.576825 -0.282752,0.848256 l -1.368519,3.913287 4.682372,0 -1.221489,-3.800186"
       style="font-size:23.16303635px;font-style:normal;font-variant:normal;font-weight:bold;font-stretch:normal;line-height:125%;letter-spacing:0px;word-spacing:0px;fill:#ffffff;fill-opacity:0.87030411;stroke:none;font-family:Serif;-inkscape-font-specification:Serif Bold"
       id="path3885"
       inkscape:connector-curvature="0" />
    <path
       d="m 43.257771,39.324227 c -5e-6,0.663527 0.105556,1.16117 0.316682,1.49293 0.211116,0.331764 0.542878,0.497645 0.995287,0.497643 0.331756,2e-6 0.629588,-0.06786 0.893496,-0.203581 0.271435,-0.143259 0.501406,-0.343071 0.689915,-0.599434 0.196033,-0.25636 0.343064,-0.565501 0.441093,-0.927427 0.105552,-0.369459 0.158333,-0.780391 0.158341,-1.232798 l 0,-1.741752 -1.040527,0.06786 c -0.45995,0.02263 -0.848262,0.09803 -1.164938,0.226201 -0.316688,0.120647 -0.569279,0.290298 -0.757775,0.508954 -0.188507,0.218666 -0.324227,0.486338 -0.407163,0.803015 -0.08295,0.316687 -0.124416,0.686149 -0.124411,1.108388 m 2.058434,-7.849193 c -0.294068,1.1e-5 -0.54289,0.0641 -0.746465,0.192271 -0.196047,0.120652 -0.354388,0.294073 -0.475023,0.520263 -0.120646,0.218672 -0.207357,0.482574 -0.260132,0.791706 -0.04524,0.301611 -0.06787,0.633373 -0.06786,0.995287 -1.040532,8e-6 -1.824696,-0.116862 -2.352496,-0.350613 -0.520266,-0.233732 -0.780398,-0.633354 -0.780396,-1.198868 -2e-6,-0.422232 0.124409,-0.784154 0.373233,-1.085767 0.256359,-0.301591 0.599431,-0.546642 1.029217,-0.735155 0.437319,-0.188489 0.942502,-0.32421 1.51555,-0.407163 0.580578,-0.09047 1.198862,-0.135708 1.854853,-0.135721 0.814318,1.3e-5 1.523082,0.07164 2.126294,0.214892 0.610735,0.135733 1.115917,0.358164 1.51555,0.667294 0.407152,0.309154 0.712524,0.716316 0.916116,1.221488 0.20357,0.497654 0.305361,1.108397 0.305372,1.832233 l 0,5.90386 c -1.1e-5,0.316684 0.02261,0.580586 0.06786,0.791705 0.05277,0.211123 0.131939,0.380774 0.237511,0.508953 0.105549,0.120643 0.24881,0.207353 0.429783,0.260132 0.180949,0.05278 0.39961,0.07917 0.655985,0.07917 l 0.09048,0 0,1.232798 -4.309139,0 -0.486333,-1.594721 -0.203581,0 c -0.25637,0.309144 -0.497651,0.580585 -0.723845,0.814326 -0.226209,0.226202 -0.46749,0.414703 -0.723845,0.565503 -0.256368,0.150802 -0.54666,0.260132 -0.870876,0.327993 -0.316688,0.0754 -0.69369,0.1131 -1.131008,0.1131 -0.512727,0 -0.99152,-0.0754 -1.436379,-0.226201 -0.437326,-0.150801 -0.821868,-0.380772 -1.153628,-0.689915 -0.324224,-0.316681 -0.580586,-0.708763 -0.769085,-1.176248 -0.188503,-0.475021 -0.282753,-1.032984 -0.282752,-1.673891 -1e-6,-1.259184 0.429781,-2.190379 1.289349,-2.793589 0.867102,-0.603197 2.16776,-0.931189 3.901976,-0.983976 l 1.900093,-0.06786 0,-1.278039 c -8e-6,-0.384533 -0.01509,-0.738915 -0.04524,-1.063147 -0.03017,-0.324212 -0.09426,-0.603193 -0.192271,-0.836945 -0.09803,-0.233731 -0.245059,-0.414692 -0.441093,-0.542884 -0.188508,-0.12817 -0.4411,-0.19226 -0.757775,-0.192271"
       style="font-size:23.16303635px;font-style:normal;font-variant:normal;font-weight:bold;font-stretch:normal;line-height:125%;letter-spacing:0px;word-spacing:0px;fill:#ffffff;fill-opacity:0.87030411;stroke:none;font-family:Serif;-inkscape-font-specification:Serif Bold"
       id="path3887"
       inkscape:connector-curvature="0" />
    <path
       d="m 31.266576,55.507668 0,-0.116374 0.185386,0 c 0.03157,0 0.06089,-0.0023 0.08796,-0.0068 0.02796,-0.0045 0.05187,-0.01353 0.07172,-0.02706 0.02075,-0.01443 0.03699,-0.03473 0.04871,-0.06089 0.01263,-0.02616 0.01894,-0.06089 0.01894,-0.104194 l 0,-1.456022 c -0.03518,0.0433 -0.06856,0.08255 -0.100135,0.117727 -0.03158,0.03518 -0.0618,0.0654 -0.09066,0.09066 -0.02887,0.02526 -0.05729,0.04511 -0.08525,0.05954 -0.02706,0.01353 -0.05413,0.0203 -0.08119,0.0203 -0.0406,2e-6 -0.07397,-0.01353 -0.100135,-0.0406 -0.02616,-0.02796 -0.03924,-0.06405 -0.03924,-0.108255 0.02797,-0.0072 0.05593,-0.01579 0.0839,-0.02571 0.02887,-0.01082 0.05909,-0.02436 0.09066,-0.0406 0.03247,-0.01714 0.06721,-0.03744 0.104194,-0.06089 0.03789,-0.02435 0.07984,-0.05322 0.125846,-0.0866 l 0.194858,-0.143437 0.177267,0 0,1.673884 c -10e-7,0.0433 0.0059,0.07803 0.01759,0.104194 0.01173,0.02616 0.02797,0.04646 0.04871,0.06089 0.02075,0.01353 0.04465,0.02255 0.07172,0.02706 0.02797,0.0045 0.05774,0.0068 0.08931,0.0068 l 0.135318,0 0,0.116374 -1.055481,0"
       style="font-size:2.77131271px;font-style:normal;font-variant:normal;font-weight:normal;font-stretch:normal;line-height:125%;letter-spacing:0px;word-spacing:0px;fill:#ffffff;fill-opacity:0.87030411;stroke:none;font-family:Serif;-inkscape-font-specification:Serif"
       id="path3931"
       inkscape:connector-curvature="0" />
    <path
       d="m 32.886333,54.174785 c 0,0.05774 0.01218,0.09788 0.03654,0.120433 0.02436,0.02165 0.05458,0.03248 0.09066,0.03248 0.03067,1e-6 0.05819,-0.0054 0.08254,-0.01624 0.02436,-0.01082 0.04465,-0.02616 0.06089,-0.04601 0.01714,-0.01984 0.03022,-0.0433 0.03924,-0.07037 0.009,-0.02706 0.01353,-0.05683 0.01353,-0.08931 l 0,-0.131258 -0.08525,0.0041 c -0.04511,9.04e-4 -0.083,0.0063 -0.113667,0.01624 -0.02977,0.009 -0.05413,0.0221 -0.07307,0.03924 -0.01804,0.01624 -0.03112,0.03609 -0.03924,0.05954 -0.0081,0.02346 -0.01218,0.05052 -0.01218,0.08119 m 0.185386,-0.55751 c -0.02797,2e-6 -0.05052,0.005 -0.06766,0.01488 -0.01714,0.0099 -0.03067,0.02346 -0.0406,0.0406 -0.009,0.01714 -0.01534,0.03744 -0.01894,0.06089 -0.0036,0.02255 -0.0054,0.04691 -0.0054,0.07307 -0.07037,2e-6 -0.124493,-0.009 -0.162382,-0.02706 -0.03789,-0.01894 -0.05683,-0.05007 -0.05683,-0.09337 0,-0.03157 0.0095,-0.05819 0.02842,-0.07984 0.01894,-0.02165 0.04465,-0.03924 0.07713,-0.05277 0.03248,-0.01353 0.07037,-0.02345 0.113667,-0.02977 0.0433,-0.0063 0.08931,-0.0095 0.138024,-0.0095 0.06134,2e-6 0.114569,0.0054 0.159676,0.01624 0.0451,0.01083 0.08254,0.02842 0.112314,0.05277 0.03067,0.02346 0.05322,0.05413 0.06766,0.09202 0.01534,0.03789 0.023,0.08435 0.023,0.139377 l 0,0.420839 c -10e-7,0.0415 0.0086,0.06992 0.02571,0.08525 0.01804,0.01534 0.04962,0.023 0.09472,0.023 l 0,0.09337 -0.269283,0 -0.05007,-0.127199 -0.01353,0 c -0.01624,0.01804 -0.03428,0.03609 -0.05413,0.05413 -0.01894,0.01714 -0.0406,0.03248 -0.06495,0.04601 -0.02346,0.01353 -0.04962,0.02436 -0.07849,0.03248 -0.02887,0.0081 -0.06089,0.01218 -0.09608,0.01218 -0.08931,2e-6 -0.159675,-0.0239 -0.211096,-0.07172 -0.05142,-0.04781 -0.07713,-0.118177 -0.07713,-0.211096 0,-0.09201 0.03654,-0.159674 0.109608,-0.202977 0.07307,-0.0442 0.184934,-0.06991 0.335588,-0.07713 l 0.11908,-0.0054 0,-0.07984 c -1e-6,-0.02796 -0.0018,-0.05322 -0.0054,-0.07578 -0.0027,-0.02345 -0.009,-0.0433 -0.01894,-0.05954 -0.009,-0.01714 -0.02255,-0.03022 -0.0406,-0.03924 -0.01804,-0.0099 -0.0424,-0.01488 -0.07307,-0.01488"
       style="font-size:2.77131271px;font-style:normal;font-variant:normal;font-weight:normal;font-stretch:normal;line-height:125%;letter-spacing:0px;word-spacing:0px;fill:#ffffff;fill-opacity:0.87030411;stroke:none;font-family:Serif;-inkscape-font-specification:Serif"
       id="path3933"
       inkscape:connector-curvature="0" />
    <path
       d="m 34.976996,55.369643 0.534506,0 c 0.0442,0 0.08164,-0.0059 0.112314,-0.01759 0.03157,-0.01263 0.05774,-0.02932 0.07849,-0.05007 0.02075,-0.02075 0.03699,-0.04465 0.04871,-0.07172 0.01173,-0.02797 0.01985,-0.05729 0.02436,-0.08796 l 0.01894,-0.11908 0.14479,0 -0.01894,0.484439 -1.485792,0 0,-0.116374 0.03518,0 c 0.03067,0 0.05954,-0.0018 0.0866,-0.0054 0.02797,-0.0045 0.05232,-0.01308 0.07307,-0.02571 0.02075,-0.01263 0.03699,-0.03112 0.04871,-0.05548 0.01263,-0.02526 0.01894,-0.05819 0.01894,-0.09878 l 0,-1.361299 c 0,-0.0433 -0.0059,-0.07803 -0.01759,-0.104195 -0.01173,-0.02616 -0.02797,-0.04601 -0.04872,-0.05954 -0.02075,-0.01443 -0.04511,-0.0239 -0.07307,-0.02842 -0.02706,-0.0045 -0.05638,-0.0068 -0.08796,-0.0068 l -0.03518,0 0,-0.116374 1.396482,0 0.01353,0.484439 -0.143437,0 -0.01353,-0.11908 c -0.0036,-0.03067 -0.01083,-0.05954 -0.02165,-0.0866 -0.0099,-0.02796 -0.02481,-0.05232 -0.04465,-0.07307 -0.01895,-0.02075 -0.0433,-0.03699 -0.07307,-0.04872 -0.02887,-0.01263 -0.06405,-0.01894 -0.105548,-0.01894 l -0.465494,0 0,0.737483 0.668471,0 0,0.135318 -0.668471,0 0,0.829499"
       style="font-size:2.77131271px;font-style:normal;font-variant:normal;font-weight:normal;font-stretch:normal;line-height:125%;letter-spacing:0px;word-spacing:0px;fill:#ffffff;fill-opacity:0.87030411;stroke:none;font-family:Serif;-inkscape-font-specification:Serif"
       id="path3935"
       inkscape:connector-curvature="0" />
    <path
       d="m 37.457375,55.203202 c -10e-7,0.0406 0.0059,0.07352 0.01759,0.09878 0.01263,0.02436 0.02932,0.0433 0.05007,0.05683 0.02075,0.01353 0.04465,0.02255 0.07172,0.02706 0.02796,0.0036 0.05728,0.0054 0.08796,0.0054 l 0.023,0 0,0.116374 -0.469554,0 -0.02977,-0.248986 -0.01083,0 c -0.02075,0.0424 -0.04466,0.08074 -0.07172,0.115021 -0.02616,0.03338 -0.05638,0.06225 -0.09066,0.0866 -0.03428,0.02345 -0.07307,0.0415 -0.116373,0.05413 -0.0433,0.01353 -0.09202,0.0203 -0.146144,0.0203 -0.09111,0 -0.171854,-0.01488 -0.242219,-0.04465 -0.07037,-0.03067 -0.129454,-0.07713 -0.177266,-0.139377 -0.04781,-0.06315 -0.0839,-0.142986 -0.108255,-0.239513 -0.02436,-0.09653 -0.03654,-0.211096 -0.03654,-0.343708 0,-0.133513 0.01218,-0.248984 0.03654,-0.346414 0.02436,-0.09743 0.06044,-0.177716 0.108255,-0.240866 0.04781,-0.06315 0.1069,-0.109606 0.177266,-0.139378 0.07036,-0.03067 0.151105,-0.04601 0.242219,-0.04601 0.05322,2e-6 0.101488,0.0059 0.144791,0.01759 0.0433,0.01173 0.08209,0.02842 0.116373,0.05007 0.03518,0.02165 0.0663,0.04736 0.09337,0.07713 0.02706,0.02977 0.05052,0.0627 0.07036,0.09878 l 0.01624,0 c -0.0027,-0.0451 -0.0054,-0.08751 -0.0081,-0.127199 -0.0018,-0.03428 -0.0036,-0.06811 -0.0054,-0.101489 -0.0018,-0.03428 -0.0027,-0.05954 -0.0027,-0.07578 l 0,-0.227334 c -10e-7,-0.04059 -0.0063,-0.07307 -0.01894,-0.09743 -0.01173,-0.02526 -0.02797,-0.04465 -0.04871,-0.05819 -0.02075,-0.01353 -0.04511,-0.0221 -0.07307,-0.02571 -0.02706,-0.0045 -0.05593,-0.0068 -0.0866,-0.0068 l -0.023,0 0,-0.116374 0.510148,0 0,1.801083 m -0.637347,0.154263 c 0.07217,0 0.132159,-0.01173 0.179973,-0.03518 0.04871,-0.02436 0.0875,-0.06089 0.116373,-0.109608 0.02977,-0.04871 0.05052,-0.110058 0.06225,-0.184032 0.01263,-0.07397 0.01894,-0.161028 0.01894,-0.261164 -10e-7,-0.09653 -0.0063,-0.181776 -0.01894,-0.255751 -0.01173,-0.07397 -0.03248,-0.135768 -0.06225,-0.185386 -0.02887,-0.05052 -0.06766,-0.08886 -0.116373,-0.11502 -0.04872,-0.02616 -0.109609,-0.03924 -0.18268,-0.03924 -0.06044,10e-7 -0.112314,0.01308 -0.155615,0.03924 -0.0433,0.02616 -0.07894,0.0645 -0.106902,0.11502 -0.02706,0.05052 -0.04691,0.113218 -0.05954,0.188092 -0.01263,0.07398 -0.01894,0.159225 -0.01894,0.255751 0,0.196663 0.02661,0.343709 0.07984,0.441137 0.05322,0.09743 0.141181,0.146144 0.26387,0.146144"
       style="font-size:2.77131271px;font-style:normal;font-variant:normal;font-weight:normal;font-stretch:normal;line-height:125%;letter-spacing:0px;word-spacing:0px;fill:#ffffff;fill-opacity:0.87030411;stroke:none;font-family:Serif;-inkscape-font-specification:Serif"
       id="path3937"
       inkscape:connector-curvature="0" />
    <path
       d="m 37.85521,55.391294 c 0.03067,0 0.05954,-0.0018 0.0866,-0.0054 0.02797,-0.0045 0.05232,-0.01308 0.07307,-0.02571 0.02075,-0.01263 0.03699,-0.03112 0.04871,-0.05548 0.01263,-0.02526 0.01894,-0.05819 0.01895,-0.09878 l 0,-0.878213 c -1e-6,-0.04059 -0.0063,-0.07307 -0.01895,-0.09743 -0.01173,-0.02526 -0.02797,-0.04465 -0.04871,-0.05819 -0.02075,-0.01353 -0.04511,-0.02255 -0.07307,-0.02706 -0.02706,-0.0045 -0.05593,-0.0068 -0.0866,-0.0068 l -0.0081,0 0,-0.116373 0.495264,0 0,1.170501 c 0,0.0433 0.0059,0.07803 0.01759,0.104194 0.01263,0.02616 0.02887,0.04646 0.04872,0.06089 0.02075,0.01353 0.0451,0.02255 0.07307,0.02706 0.02797,0.0045 0.05728,0.0068 0.08796,0.0068 l 0.03654,0 0,0.116374 -0.787551,0 0,-0.116374 0.03654,0 m 0.188092,-1.818674 c 0,-0.03247 0.0041,-0.05954 0.01218,-0.08119 0.0081,-0.02165 0.0194,-0.03924 0.03383,-0.05277 0.01443,-0.01353 0.03112,-0.023 0.05007,-0.02842 0.01894,-0.0054 0.03969,-0.0081 0.06225,-0.0081 0.02165,3e-6 0.04195,0.0027 0.06089,0.0081 0.01894,0.0054 0.03518,0.01489 0.04871,0.02842 0.01443,0.01353 0.02571,0.03113 0.03383,0.05277 0.009,0.02165 0.01353,0.04872 0.01353,0.08119 0,0.03248 -0.0045,0.05954 -0.01353,0.08119 -0.0081,0.02165 -0.0194,0.03924 -0.03383,0.05277 -0.01353,0.01353 -0.02977,0.02346 -0.04871,0.02977 -0.01895,0.0054 -0.03924,0.0081 -0.06089,0.0081 -0.02255,2e-6 -0.0433,-0.0027 -0.06225,-0.0081 -0.01895,-0.0063 -0.03563,-0.01624 -0.05007,-0.02977 -0.01443,-0.01353 -0.02571,-0.03112 -0.03383,-0.05277 -0.0081,-0.02165 -0.01218,-0.04871 -0.01218,-0.08119"
       style="font-size:2.77131271px;font-style:normal;font-variant:normal;font-weight:normal;font-stretch:normal;line-height:125%;letter-spacing:0px;word-spacing:0px;fill:#ffffff;fill-opacity:0.87030411;stroke:none;font-family:Serif;-inkscape-font-specification:Serif"
       id="path3939"
       inkscape:connector-curvature="0" />
    <path
       d="m 39.377538,55.388588 c 0.03338,0 0.06405,-0.0018 0.09202,-0.0054 0.02796,-0.0036 0.05638,-0.0081 0.08525,-0.01353 l 0,0.121786 c -0.01173,0.0054 -0.02707,0.01083 -0.04601,0.01624 -0.01894,0.0054 -0.03969,0.0099 -0.06225,0.01353 -0.02165,0.0045 -0.04466,0.0077 -0.06901,0.0095 -0.02436,0.0027 -0.04736,0.0041 -0.06901,0.0041 -0.07037,0 -0.130808,-0.0077 -0.181326,-0.023 -0.05052,-0.01443 -0.09202,-0.03834 -0.124493,-0.07172 -0.03248,-0.03338 -0.05683,-0.07758 -0.07307,-0.132612 -0.01534,-0.05503 -0.023,-0.122237 -0.023,-0.201624 l 0,-0.925575 -0.211096,0 0,-0.110961 c 0.03338,2e-6 0.06991,-0.0068 0.109608,-0.0203 0.04059,-0.01353 0.07623,-0.03608 0.106901,-0.06766 0.03157,-0.03428 0.05683,-0.07487 0.07578,-0.121786 0.01985,-0.04781 0.03699,-0.10735 0.05142,-0.17862 l 0.127199,0 0,0.341002 0.362652,0 0,0.158322 -0.362652,0 0,0.933694 c -1e-6,0.09472 0.01894,0.164186 0.05683,0.20839 0.03879,0.0442 0.09021,0.06631 0.154263,0.06631"
       style="font-size:2.77131271px;font-style:normal;font-variant:normal;font-weight:normal;font-stretch:normal;line-height:125%;letter-spacing:0px;word-spacing:0px;fill:#ffffff;fill-opacity:0.87030411;stroke:none;font-family:Serif;-inkscape-font-specification:Serif"
       id="path3941"
       inkscape:connector-curvature="0" />
    <path
       d="m 39.717185,55.391294 c 0.03067,0 0.05954,-0.0018 0.0866,-0.0054 0.02797,-0.0045 0.05232,-0.01308 0.07307,-0.02571 0.02075,-0.01263 0.03699,-0.03112 0.04871,-0.05548 0.01263,-0.02526 0.01894,-0.05819 0.01894,-0.09878 l 0,-0.878213 c -10e-7,-0.04059 -0.0063,-0.07307 -0.01894,-0.09743 -0.01173,-0.02526 -0.02797,-0.04465 -0.04871,-0.05819 -0.02075,-0.01353 -0.04511,-0.02255 -0.07307,-0.02706 -0.02706,-0.0045 -0.05593,-0.0068 -0.0866,-0.0068 l -0.0081,0 0,-0.116373 0.495264,0 0,1.170501 c 0,0.0433 0.0059,0.07803 0.01759,0.104194 0.01263,0.02616 0.02887,0.04646 0.04871,0.06089 0.02075,0.01353 0.0451,0.02255 0.07307,0.02706 0.02797,0.0045 0.05728,0.0068 0.08796,0.0068 l 0.03654,0 0,0.116374 -0.78755,0 0,-0.116374 0.03654,0 m 0.188093,-1.818674 c -10e-7,-0.03247 0.0041,-0.05954 0.01218,-0.08119 0.0081,-0.02165 0.01939,-0.03924 0.03383,-0.05277 0.01443,-0.01353 0.03112,-0.023 0.05007,-0.02842 0.01894,-0.0054 0.03969,-0.0081 0.06225,-0.0081 0.02165,3e-6 0.04195,0.0027 0.06089,0.0081 0.01894,0.0054 0.03518,0.01489 0.04871,0.02842 0.01443,0.01353 0.02571,0.03113 0.03383,0.05277 0.009,0.02165 0.01353,0.04872 0.01353,0.08119 0,0.03248 -0.0045,0.05954 -0.01353,0.08119 -0.0081,0.02165 -0.0194,0.03924 -0.03383,0.05277 -0.01353,0.01353 -0.02977,0.02346 -0.04871,0.02977 -0.01895,0.0054 -0.03924,0.0081 -0.06089,0.0081 -0.02255,2e-6 -0.0433,-0.0027 -0.06225,-0.0081 -0.01895,-0.0063 -0.03563,-0.01624 -0.05007,-0.02977 -0.01444,-0.01353 -0.02571,-0.03112 -0.03383,-0.05277 -0.0081,-0.02165 -0.01218,-0.04871 -0.01218,-0.08119"
       style="font-size:2.77131271px;font-style:normal;font-variant:normal;font-weight:normal;font-stretch:normal;line-height:125%;letter-spacing:0px;word-spacing:0px;fill:#ffffff;fill-opacity:0.87030411;stroke:none;font-family:Serif;-inkscape-font-specification:Serif"
       id="path3943"
       inkscape:connector-curvature="0" />
    <path
       d="m 41.951286,54.762065 c -1e-6,0.260714 -0.05548,0.454669 -0.166441,0.581868 -0.11006,0.127199 -0.271539,0.190798 -0.484438,0.190798 -0.100136,0 -0.189897,-0.01579 -0.269283,-0.04736 -0.07939,-0.03157 -0.147046,-0.07939 -0.202977,-0.143437 -0.05503,-0.06405 -0.09743,-0.144339 -0.127199,-0.240866 -0.02887,-0.09743 -0.0433,-0.211096 -0.0433,-0.341002 0,-0.258907 0.05458,-0.45151 0.163735,-0.577808 0.110058,-0.126295 0.27244,-0.189443 0.487145,-0.189445 0.100134,2e-6 0.189895,0.01579 0.269283,0.04736 0.07938,0.03067 0.146593,0.07803 0.201623,0.142083 0.05593,0.06315 0.09833,0.142988 0.127199,0.239513 0.02977,0.09563 0.04465,0.208391 0.04466,0.338295 m -1.02571,0 c -1e-6,0.102843 0.0068,0.193506 0.0203,0.27199 0.01353,0.07848 0.03518,0.144339 0.06495,0.197564 0.03067,0.05232 0.06991,0.09202 0.117727,0.11908 0.04871,0.02706 0.107803,0.0406 0.177266,0.0406 0.06946,0 0.128101,-0.01353 0.175914,-0.0406 0.04781,-0.02706 0.0866,-0.06676 0.116373,-0.11908 0.02977,-0.05323 0.05097,-0.11908 0.0636,-0.197564 0.01353,-0.07848 0.0203,-0.169147 0.0203,-0.27199 -2e-6,-0.10284 -0.0068,-0.193052 -0.0203,-0.270636 -0.01353,-0.07758 -0.03518,-0.142082 -0.06495,-0.193504 -0.02977,-0.05232 -0.06901,-0.09156 -0.117726,-0.117727 -0.04781,-0.02616 -0.106452,-0.03924 -0.175914,-0.03924 -0.06946,10e-7 -0.128102,0.01308 -0.175913,0.03924 -0.04781,0.02616 -0.0866,0.06541 -0.116374,0.117727 -0.02977,0.05142 -0.05142,0.115923 -0.06495,0.193504 -0.01353,0.07758 -0.0203,0.167796 -0.0203,0.270636"
       style="font-size:2.77131271px;font-style:normal;font-variant:normal;font-weight:normal;font-stretch:normal;line-height:125%;letter-spacing:0px;word-spacing:0px;fill:#ffffff;fill-opacity:0.87030411;stroke:none;font-family:Serif;-inkscape-font-specification:Serif"
       id="path3945"
       inkscape:connector-curvature="0" />
    <path
       d="m 42.929636,55.391294 0,0.116374 -0.745603,0 0,-0.116374 0.023,0 c 0.03158,0 0.06089,-0.0023 0.08796,-0.0068 0.02797,-0.0045 0.05187,-0.01353 0.07172,-0.02706 0.02075,-0.01443 0.03699,-0.03473 0.04871,-0.06089 0.01263,-0.02616 0.01894,-0.06089 0.01895,-0.104194 l 0,-0.864682 c -10e-7,-0.04059 -0.0063,-0.07307 -0.01895,-0.09743 -0.01173,-0.02526 -0.02797,-0.04465 -0.04871,-0.05819 -0.02075,-0.01353 -0.04511,-0.02255 -0.07307,-0.02706 -0.02706,-0.0045 -0.05593,-0.0068 -0.0866,-0.0068 l -0.0081,0 0,-0.116373 0.447903,0 0.03654,0.224628 0.01353,0 c 0.02887,-0.05142 0.05909,-0.09337 0.09066,-0.125846 0.03248,-0.03338 0.0663,-0.05909 0.101488,-0.07713 0.03608,-0.01894 0.07397,-0.03157 0.113667,-0.03789 0.04059,-0.0072 0.08299,-0.01082 0.127199,-0.01083 0.07307,2e-6 0.138023,0.01083 0.194858,0.03248 0.05774,0.02075 0.106449,0.05323 0.146144,0.09743 0.04059,0.0433 0.07127,0.09923 0.09202,0.167794 0.02165,0.06856 0.03247,0.150204 0.03248,0.244925 l 0,0.65494 c -1e-6,0.0433 0.005,0.07803 0.01488,0.104194 0.01082,0.02616 0.02571,0.04646 0.04466,0.06089 0.01894,0.01353 0.0415,0.02255 0.06766,0.02706 0.02616,0.0045 0.05458,0.0068 0.08525,0.0068 l 0.0095,0 0,0.116374 -0.483086,0 0,-0.956699 c -1e-6,-0.06044 -0.0054,-0.114117 -0.01624,-0.161028 -0.01083,-0.04691 -0.02842,-0.0866 -0.05277,-0.11908 -0.02346,-0.03247 -0.05458,-0.05683 -0.09337,-0.07307 -0.03879,-0.01714 -0.08615,-0.02571 -0.142084,-0.02571 -0.06315,10e-7 -0.116374,0.01218 -0.159675,0.03654 -0.0424,0.02436 -0.07668,0.05729 -0.102842,0.09878 -0.02616,0.0415 -0.04511,0.08931 -0.05683,0.143437 -0.01083,0.05413 -0.01624,0.110962 -0.01624,0.170501 l 0,0.584573 c 0,0.0406 0.0059,0.07352 0.01759,0.09878 0.01263,0.02436 0.02932,0.04285 0.05007,0.05548 0.02075,0.01263 0.04466,0.0212 0.07172,0.02571 0.02797,0.0036 0.05728,0.0054 0.08796,0.0054 l 0.0081,0"
       style="font-size:2.77131271px;font-style:normal;font-variant:normal;font-weight:normal;font-stretch:normal;line-height:125%;letter-spacing:0px;word-spacing:0px;fill:#ffffff;fill-opacity:0.87030411;stroke:none;font-family:Serif;-inkscape-font-specification:Serif"
       id="path3947"
       inkscape:connector-curvature="0" />
    <path
       d="m 22.057884,16.772132 c -3e-6,0.178119 -0.02227,0.339272 -0.0668,0.483461 -0.04453,0.143131 -0.110795,0.265586 -0.198792,0.367366 -0.088,0.100722 -0.198263,0.178648 -0.330789,0.233779 -0.132529,0.05407 -0.287321,0.08111 -0.464377,0.08111 l -0.997137,0 0,-0.136768 0.04135,0 c 0.03711,0 0.07157,-0.0026 0.103372,-0.0079 0.03287,-0.0053 0.06149,-0.01591 0.08588,-0.03181 0.02438,-0.01697 0.04346,-0.04082 0.05725,-0.07157 0.01378,-0.03075 0.02068,-0.07157 0.02068,-0.122456 l 0,-1.596692 c -1e-6,-0.04771 -0.0074,-0.08588 -0.02227,-0.114504 -0.01378,-0.02968 -0.03286,-0.05248 -0.05725,-0.06838 -0.02438,-0.0159 -0.05301,-0.02597 -0.08588,-0.03022 -0.03181,-0.0053 -0.06573,-0.0079 -0.101781,-0.0079 l -0.04135,0 0,-0.136768 0.997137,0 c 0.167514,2e-6 0.317005,0.02598 0.448474,0.07793 0.131465,0.05089 0.242258,0.125638 0.332379,0.224237 0.09118,0.0986 0.160621,0.219997 0.208333,0.364186 0.04771,0.144191 0.07156,0.308525 0.07157,0.493002 m -1.137087,1.000319 c 0.129346,0 0.242259,-0.02174 0.33874,-0.0652 0.09754,-0.04453 0.178646,-0.109202 0.243321,-0.19402 0.06467,-0.08482 0.112911,-0.189249 0.14472,-0.313295 0.03286,-0.124045 0.0493,-0.266645 0.0493,-0.4278 -2e-6,-0.323365 -0.06467,-0.570396 -0.19402,-0.741094 -0.128289,-0.170693 -0.321248,-0.256041 -0.578881,-0.256043 l -0.286259,0 0,1.997456 0.283078,0"
       style="font-size:3.81641483px;font-style:normal;font-variant:normal;font-weight:normal;font-stretch:normal;line-height:125%;letter-spacing:0px;word-spacing:0px;fill:#ffffff;fill-opacity:0.87030411;stroke:none;font-family:Serif;-inkscape-font-specification:Serif"
       id="path3890"
       inkscape:connector-curvature="0" />
    <path
       d="m 22.360047,17.801077 c 0.03605,0 0.06997,-0.0021 0.101781,-0.0064 0.03287,-0.0053 0.06149,-0.01537 0.08588,-0.03022 0.02438,-0.01484 0.04346,-0.03658 0.05725,-0.0652 0.01484,-0.02968 0.02227,-0.06838 0.02227,-0.116095 l 0,-1.032125 c 0,-0.04771 -0.0074,-0.08588 -0.02227,-0.114504 -0.01378,-0.02968 -0.03286,-0.05248 -0.05725,-0.06838 -0.02438,-0.0159 -0.05301,-0.02651 -0.08588,-0.03181 -0.03181,-0.0053 -0.06573,-0.0079 -0.101781,-0.0079 l -0.0095,0 0,-0.136769 0.582061,0 0,1.375636 c -10e-7,0.05089 0.0069,0.09171 0.02067,0.122456 0.01484,0.03075 0.03392,0.0546 0.05726,0.07157 0.02438,0.0159 0.05301,0.02651 0.08588,0.03181 0.03287,0.0053 0.06733,0.0079 0.103371,0.0079 l 0.04294,0 0,0.136768 -0.925572,0 0,-0.136768 0.04293,0 m 0.221056,-2.137406 c 0,-0.03817 0.0048,-0.06997 0.01431,-0.09542 0.0095,-0.02544 0.0228,-0.04612 0.03976,-0.06203 0.01696,-0.0159 0.03658,-0.02704 0.05884,-0.0334 0.02227,-0.0064 0.04665,-0.0095 0.07315,-0.0095 0.02544,3e-6 0.0493,0.0032 0.07157,0.0095 0.02227,0.0064 0.04135,0.0175 0.05726,0.0334 0.01697,0.01591 0.03022,0.03658 0.03976,0.06203 0.0106,0.02545 0.0159,0.05726 0.0159,0.09542 -1e-6,0.03817 -0.0053,0.06998 -0.0159,0.09542 -0.0095,0.02545 -0.02279,0.04612 -0.03976,0.06203 -0.01591,0.01591 -0.03499,0.02757 -0.05726,0.03499 -0.02226,0.0064 -0.04612,0.0095 -0.07157,0.0095 -0.02651,2e-6 -0.05089,-0.0032 -0.07315,-0.0095 -0.02227,-0.0074 -0.04188,-0.01908 -0.05884,-0.03499 -0.01697,-0.0159 -0.03022,-0.03658 -0.03976,-0.06203 -0.0095,-0.02544 -0.01431,-0.05725 -0.01431,-0.09542"
       style="font-size:3.81641483px;font-style:normal;font-variant:normal;font-weight:normal;font-stretch:normal;line-height:125%;letter-spacing:0px;word-spacing:0px;fill:#ffffff;fill-opacity:0.87030411;stroke:none;font-family:Serif;-inkscape-font-specification:Serif"
       id="path3892"
       inkscape:connector-curvature="0" />
    <path
       d="m 24.208012,17.969652 c -0.108144,0 -0.207804,-0.01644 -0.298983,-0.0493 -0.09118,-0.03392 -0.169635,-0.08694 -0.235368,-0.159034 -0.06573,-0.0721 -0.117155,-0.164333 -0.154262,-0.276717 -0.03605,-0.113443 -0.05407,-0.250211 -0.05407,-0.410306 0,-0.173874 0.01802,-0.319124 0.05407,-0.43575 0.03711,-0.117683 0.088,-0.212043 0.152671,-0.283079 0.06573,-0.07103 0.142599,-0.121394 0.230598,-0.151081 0.08906,-0.02968 0.185008,-0.04453 0.28785,-0.04453 0.06786,2e-6 0.135177,0.0069 0.201972,0.02068 0.06786,0.01272 0.128816,0.03286 0.182888,0.06043 0.05407,0.02756 0.09807,0.06256 0.131998,0.104962 0.03392,0.04135 0.05089,0.09012 0.05089,0.14631 -1e-6,0.07528 -0.02439,0.128288 -0.07315,0.159034 -0.04877,0.03075 -0.121396,0.04612 -0.217875,0.04612 -10e-7,-0.05089 -0.0043,-0.09913 -0.01272,-0.14472 -0.0084,-0.04559 -0.02332,-0.08535 -0.04453,-0.119275 -0.02015,-0.03498 -0.04824,-0.06202 -0.08429,-0.08111 -0.03499,-0.02014 -0.08005,-0.03022 -0.135178,-0.03022 -0.06256,1e-6 -0.119276,0.01167 -0.170166,0.03499 -0.04983,0.02332 -0.09277,0.06361 -0.128816,0.120865 -0.03605,0.05726 -0.06361,0.134119 -0.0827,0.230598 -0.01908,0.09648 -0.02862,0.217346 -0.02862,0.362595 -1e-6,0.23113 0.03816,0.403415 0.114504,0.516858 0.0774,0.113444 0.203561,0.170166 0.378498,0.170165 0.10072,1e-6 0.188719,-0.02121 0.263995,-0.06361 0.07527,-0.04241 0.131467,-0.09701 0.168576,-0.163804 0.0159,0.01272 0.02915,0.02969 0.03976,0.05089 0.0106,0.02121 0.0159,0.04665 0.0159,0.07634 -1e-6,0.03711 -0.01167,0.07421 -0.03499,0.111323 -0.02332,0.03711 -0.05831,0.0705 -0.104962,0.10019 -0.04559,0.02968 -0.102843,0.05354 -0.171756,0.07157 -0.06891,0.01908 -0.149492,0.02862 -0.241731,0.02862"
       style="font-size:3.81641483px;font-style:normal;font-variant:normal;font-weight:normal;font-stretch:normal;line-height:125%;letter-spacing:0px;word-spacing:0px;fill:#ffffff;fill-opacity:0.87030411;stroke:none;font-family:Serif;-inkscape-font-specification:Serif"
       id="path3894"
       inkscape:connector-curvature="0" />
    <path
       d="m 25.752223,17.797896 c 0.03923,0 0.07527,-0.0021 0.108143,-0.0064 0.03287,-0.0043 0.06626,-0.0095 0.100191,-0.01591 l 0,0.143129 c -0.01378,0.0064 -0.03181,0.01272 -0.05407,0.01908 -0.02227,0.0064 -0.04665,0.01167 -0.07315,0.0159 -0.02545,0.0053 -0.05249,0.009 -0.08111,0.01113 -0.02862,0.0032 -0.05566,0.0048 -0.08111,0.0048 -0.0827,0 -0.153732,-0.009 -0.213104,-0.02704 -0.05937,-0.01697 -0.108143,-0.04506 -0.14631,-0.08429 -0.03816,-0.03923 -0.0668,-0.09118 -0.08588,-0.155852 -0.01802,-0.06467 -0.02704,-0.14366 -0.02704,-0.23696 l 0,-1.087786 -0.248093,0 0,-0.130407 c 0.03923,2e-6 0.08217,-0.0079 0.128817,-0.02385 0.04771,-0.0159 0.08959,-0.04241 0.125637,-0.07952 0.03711,-0.04029 0.06679,-0.088 0.08906,-0.143129 0.02332,-0.05619 0.04347,-0.126164 0.06043,-0.209924 l 0.149491,0 0,0.400764 0.426209,0 0,0.186069 -0.426209,0 0,1.097328 c 0,0.111324 0.02227,0.19296 0.0668,0.244911 0.04559,0.05195 0.106021,0.07793 0.181297,0.07793"
       style="font-size:3.81641483px;font-style:normal;font-variant:normal;font-weight:normal;font-stretch:normal;line-height:125%;letter-spacing:0px;word-spacing:0px;fill:#ffffff;fill-opacity:0.87030411;stroke:none;font-family:Serif;-inkscape-font-specification:Serif"
       id="path3896"
       inkscape:connector-curvature="0" />
    <path
       d="m 26.151396,17.801077 c 0.03605,0 0.06997,-0.0021 0.101781,-0.0064 0.03287,-0.0053 0.0615,-0.01537 0.08588,-0.03022 0.02438,-0.01484 0.04347,-0.03658 0.05726,-0.0652 0.01484,-0.02968 0.02227,-0.06838 0.02227,-0.116095 l 0,-1.032125 c 0,-0.04771 -0.0074,-0.08588 -0.02227,-0.114504 -0.01378,-0.02968 -0.03287,-0.05248 -0.05726,-0.06838 -0.02438,-0.0159 -0.05301,-0.02651 -0.08588,-0.03181 -0.03181,-0.0053 -0.06573,-0.0079 -0.101781,-0.0079 l -0.0095,0 0,-0.136769 0.582061,0 0,1.375636 c 0,0.05089 0.0069,0.09171 0.02068,0.122456 0.01484,0.03075 0.03392,0.0546 0.05726,0.07157 0.02438,0.0159 0.05301,0.02651 0.08588,0.03181 0.03287,0.0053 0.06733,0.0079 0.103372,0.0079 l 0.04294,0 0,0.136768 -0.925574,0 0,-0.136768 0.04294,0 m 0.221056,-2.137406 c 0,-0.03817 0.0048,-0.06997 0.01431,-0.09542 0.0095,-0.02544 0.02279,-0.04612 0.03976,-0.06203 0.01697,-0.0159 0.03658,-0.02704 0.05884,-0.0334 0.02227,-0.0064 0.04665,-0.0095 0.07315,-0.0095 0.02545,3e-6 0.0493,0.0032 0.07157,0.0095 0.02227,0.0064 0.04135,0.0175 0.05725,0.0334 0.01697,0.01591 0.03022,0.03658 0.03976,0.06203 0.0106,0.02545 0.0159,0.05726 0.01591,0.09542 -1e-6,0.03817 -0.0053,0.06998 -0.01591,0.09542 -0.0095,0.02545 -0.02279,0.04612 -0.03976,0.06203 -0.0159,0.01591 -0.03499,0.02757 -0.05725,0.03499 -0.02227,0.0064 -0.04612,0.0095 -0.07157,0.0095 -0.02651,2e-6 -0.05089,-0.0032 -0.07315,-0.0095 -0.02227,-0.0074 -0.04188,-0.01908 -0.05884,-0.03499 -0.01697,-0.0159 -0.03022,-0.03658 -0.03976,-0.06203 -0.0095,-0.02544 -0.01431,-0.05725 -0.01431,-0.09542"
       style="font-size:3.81641483px;font-style:normal;font-variant:normal;font-weight:normal;font-stretch:normal;line-height:125%;letter-spacing:0px;word-spacing:0px;fill:#ffffff;fill-opacity:0.87030411;stroke:none;font-family:Serif;-inkscape-font-specification:Serif"
       id="path3898"
       inkscape:connector-curvature="0" />
    <path
       d="m 28.777033,17.061573 c -1e-6,0.306404 -0.0652,0.534352 -0.19561,0.683842 -0.129348,0.149491 -0.319128,0.224237 -0.569339,0.224237 -0.117685,0 -0.223177,-0.01855 -0.316476,-0.05566 -0.0933,-0.03711 -0.172816,-0.0933 -0.238549,-0.168575 -0.06467,-0.07527 -0.114505,-0.169636 -0.149492,-0.28308 -0.03392,-0.114503 -0.05089,-0.24809 -0.05089,-0.400762 -1e-6,-0.304283 0.06414,-0.53064 0.19243,-0.679072 0.129346,-0.148429 0.320186,-0.222645 0.572519,-0.222647 0.117683,2e-6 0.223175,0.01855 0.316476,0.05566 0.0933,0.03605 0.172284,0.09171 0.236959,0.166985 0.06573,0.07421 0.115563,0.168047 0.149491,0.281489 0.03499,0.112384 0.05248,0.244912 0.05249,0.397583 m -1.205471,0 c 0,0.120865 0.0079,0.227417 0.02385,0.319656 0.0159,0.09224 0.04135,0.169636 0.07634,0.232188 0.03605,0.06149 0.08217,0.108144 0.138359,0.13995 0.05725,0.03181 0.126695,0.04771 0.208333,0.04771 0.08164,0 0.150551,-0.0159 0.206743,-0.04771 0.05619,-0.03181 0.101781,-0.07846 0.136769,-0.13995 0.03499,-0.06255 0.0599,-0.139948 0.07474,-0.232188 0.0159,-0.09224 0.02385,-0.198791 0.02385,-0.319656 -2e-6,-0.120865 -0.0079,-0.226886 -0.02385,-0.318066 -0.01591,-0.09118 -0.04135,-0.166984 -0.07634,-0.227418 -0.03499,-0.06149 -0.08111,-0.107611 -0.138358,-0.138358 -0.05619,-0.03075 -0.125107,-0.04612 -0.206744,-0.04612 -0.08164,2e-6 -0.150551,0.01538 -0.206743,0.04612 -0.05619,0.03075 -0.101781,0.07687 -0.136768,0.138358 -0.03499,0.06043 -0.06043,0.13624 -0.07634,0.227418 -0.01591,0.09118 -0.02385,0.197201 -0.02385,0.318066"
       style="font-size:3.81641483px;font-style:normal;font-variant:normal;font-weight:normal;font-stretch:normal;line-height:125%;letter-spacing:0px;word-spacing:0px;fill:#ffffff;fill-opacity:0.87030411;stroke:none;font-family:Serif;-inkscape-font-specification:Serif"
       id="path3900"
       inkscape:connector-curvature="0" />
    <path
       d="m 29.926843,17.801077 0,0.136768 -0.876273,0 0,-0.136768 0.02704,0 c 0.03711,0 0.07157,-0.0026 0.103372,-0.0079 0.03287,-0.0053 0.06096,-0.01591 0.08428,-0.03181 0.02438,-0.01697 0.04347,-0.04082 0.05726,-0.07157 0.01484,-0.03075 0.02227,-0.07157 0.02227,-0.122456 l 0,-1.016222 c 0,-0.04771 -0.0074,-0.08588 -0.02227,-0.114504 -0.01378,-0.02968 -0.03286,-0.05248 -0.05726,-0.06838 -0.02438,-0.0159 -0.05301,-0.02651 -0.08588,-0.03181 -0.03181,-0.0053 -0.06573,-0.0079 -0.101781,-0.0079 l -0.0095,0 0,-0.136769 0.5264,0 0.04294,0.263995 0.0159,0 c 0.03392,-0.06043 0.06944,-0.109731 0.106552,-0.147901 0.03816,-0.03922 0.07793,-0.06944 0.119275,-0.09065 0.04241,-0.02227 0.08694,-0.03711 0.133588,-0.04453 0.04771,-0.0084 0.09754,-0.01272 0.149491,-0.01272 0.08588,2e-6 0.162213,0.01272 0.229008,0.03816 0.06786,0.02439 0.125104,0.06255 0.171755,0.114504 0.04771,0.05089 0.08376,0.116625 0.108143,0.197201 0.02544,0.08058 0.03816,0.176528 0.03816,0.287849 l 0,0.76972 c -2e-6,0.05089 0.0058,0.09171 0.0175,0.122457 0.01272,0.03075 0.03021,0.0546 0.05249,0.07157 0.02227,0.0159 0.04876,0.02651 0.07951,0.03181 0.03075,0.0053 0.06414,0.0079 0.100191,0.0079 l 0.01113,0 0,0.136768 -0.567748,0 0,-1.124364 c -1e-6,-0.07103 -0.0064,-0.134117 -0.01908,-0.18925 -0.01272,-0.05513 -0.03339,-0.10178 -0.06203,-0.139949 -0.02757,-0.03816 -0.06414,-0.06679 -0.109734,-0.08588 -0.04559,-0.02014 -0.101252,-0.03022 -0.166985,-0.03022 -0.07421,1e-6 -0.136768,0.01431 -0.187659,0.04293 -0.04983,0.02862 -0.09012,0.06733 -0.120864,0.116094 -0.03075,0.04877 -0.05301,0.104963 -0.0668,0.168575 -0.01272,0.06361 -0.01908,0.130408 -0.01908,0.200382 l 0,0.687023 c 0,0.04772 0.0069,0.08641 0.02068,0.116095 0.01484,0.02862 0.03445,0.05036 0.05884,0.0652 0.02438,0.01484 0.05248,0.02492 0.08428,0.03022 0.03287,0.0043 0.06733,0.0064 0.103372,0.0064 l 0.0095,0"
       style="font-size:3.81641483px;font-style:normal;font-variant:normal;font-weight:normal;font-stretch:normal;line-height:125%;letter-spacing:0px;word-spacing:0px;fill:#ffffff;fill-opacity:0.87030411;stroke:none;font-family:Serif;-inkscape-font-specification:Serif"
       id="path3902"
       inkscape:connector-curvature="0" />
    <path
       d="m 31.537848,17.465516 c 0,0.101782 0.02121,0.178118 0.06361,0.229008 0.04346,0.04983 0.110263,0.07474 0.200382,0.07474 0.06573,0 0.125105,-0.0106 0.178117,-0.03181 0.05407,-0.02121 0.09966,-0.05142 0.136769,-0.09065 0.03817,-0.03923 0.06733,-0.08694 0.08747,-0.14313 0.02014,-0.05619 0.03022,-0.118744 0.03022,-0.187659 l 0,-0.263994 -0.208333,0.0095 c -0.09224,0.0043 -0.169637,0.0159 -0.232189,0.03499 -0.0615,0.01802 -0.111324,0.044 -0.149492,0.07793 -0.03816,0.03287 -0.06573,0.07369 -0.0827,0.122456 -0.0159,0.04877 -0.02385,0.104963 -0.02385,0.168575 m 0.394402,-1.143448 c -0.06255,1e-6 -0.113444,0.009 -0.152671,0.02704 -0.03816,0.01696 -0.06838,0.04135 -0.09065,0.07315 -0.02121,0.03181 -0.03552,0.06944 -0.04294,0.112913 -0.0074,0.04347 -0.01113,0.09065 -0.01113,0.141539 -0.09012,2e-6 -0.159033,-0.01537 -0.206743,-0.04612 -0.04665,-0.03074 -0.06997,-0.08375 -0.06997,-0.159032 0,-0.05619 0.01537,-0.103901 0.04612,-0.14313 0.03075,-0.03922 0.07263,-0.07103 0.125637,-0.09542 0.05407,-0.02544 0.116623,-0.04399 0.187659,-0.05566 0.07103,-0.01166 0.146839,-0.0175 0.227417,-0.0175 0.09966,1e-6 0.186598,0.01007 0.260814,0.03022 0.07421,0.01908 0.136238,0.05089 0.186069,0.09542 0.04983,0.04453 0.08694,0.102844 0.111324,0.174937 0.02544,0.07104 0.03816,0.158504 0.03816,0.262404 l 0,0.844466 c -10e-7,0.04559 0.0037,0.08322 0.01113,0.112914 0.0074,0.02968 0.01908,0.05354 0.03499,0.07157 0.0159,0.01802 0.03658,0.03075 0.06203,0.03816 0.02651,0.0074 0.05779,0.01113 0.09383,0.01113 l 0.0095,0 0,0.136768 -0.440522,0 -0.05089,-0.279898 -0.02704,0 c -0.03393,0.04559 -0.0668,0.08747 -0.0986,0.125636 -0.03181,0.03816 -0.0668,0.07104 -0.104962,0.0986 -0.03816,0.02757 -0.08164,0.04877 -0.130407,0.06361 -0.04771,0.0159 -0.105493,0.02385 -0.173346,0.02385 -0.0721,0 -0.139419,-0.0106 -0.201972,-0.03181 -0.0615,-0.02014 -0.115034,-0.05142 -0.160624,-0.09383 -0.04453,-0.04346 -0.07951,-0.09754 -0.104962,-0.162214 -0.02545,-0.06573 -0.03816,-0.143129 -0.03816,-0.232188 0,-0.172815 0.06149,-0.301102 0.184479,-0.38486 0.122985,-0.08375 0.309053,-0.129347 0.558206,-0.136769 l 0.270356,-0.0095 0,-0.195611 c -1e-6,-0.05831 -0.0032,-0.111852 -0.0095,-0.160623 -0.0064,-0.04983 -0.02014,-0.09224 -0.04135,-0.127227 -0.02121,-0.03605 -0.05195,-0.06361 -0.09224,-0.0827 -0.03923,-0.02014 -0.09224,-0.03022 -0.159033,-0.03022"
       style="font-size:3.81641483px;font-style:normal;font-variant:normal;font-weight:normal;font-stretch:normal;line-height:125%;letter-spacing:0px;word-spacing:0px;fill:#ffffff;fill-opacity:0.87030411;stroke:none;font-family:Serif;-inkscape-font-specification:Serif"
       id="path3904"
       inkscape:connector-curvature="0" />
    <path
       d="m 33.939248,17.937845 -0.939885,0 0,-0.136768 0.0095,0 c 0.03711,0 0.07157,-0.0026 0.103372,-0.0079 0.03287,-0.0053 0.06096,-0.01591 0.08429,-0.03181 0.02438,-0.01697 0.04346,-0.04082 0.05725,-0.07157 0.01484,-0.03075 0.02226,-0.07157 0.02226,-0.122456 l 0,-1.016222 c 0,-0.04771 -0.0074,-0.08588 -0.02226,-0.114504 -0.01378,-0.02968 -0.03287,-0.05248 -0.05725,-0.06838 -0.02438,-0.0159 -0.05301,-0.02651 -0.08588,-0.03181 -0.03181,-0.0053 -0.06573,-0.0079 -0.101781,-0.0079 l -0.0095,0 0,-0.136769 0.500954,0 0.06203,0.322837 0.0159,0 c 0.02121,-0.04877 0.04293,-0.09436 0.0652,-0.136768 0.02227,-0.04346 0.0493,-0.08111 0.08111,-0.112914 0.03287,-0.03287 0.07315,-0.05831 0.120865,-0.07634 0.04771,-0.01908 0.107611,-0.02862 0.179708,-0.02862 0.118743,2e-6 0.206742,0.02068 0.263995,0.06203 0.05831,0.04135 0.08747,0.09966 0.08747,0.174936 -10e-7,0.03393 -0.0058,0.0652 -0.01749,0.09383 -0.01061,0.02862 -0.02809,0.05354 -0.05249,0.07474 -0.02438,0.02014 -0.05566,0.03605 -0.09383,0.04771 -0.03817,0.01061 -0.08482,0.01591 -0.13995,0.0159 0,-0.09012 -0.01272,-0.15479 -0.03816,-0.19402 -0.02545,-0.04029 -0.06997,-0.06043 -0.133588,-0.06043 -0.04029,0 -0.07634,0.01167 -0.108142,0.03499 -0.03181,0.02227 -0.0599,0.05249 -0.08429,0.09065 -0.02332,0.03711 -0.04347,0.08005 -0.06043,0.128817 -0.01591,0.04877 -0.02916,0.09913 -0.03976,0.151081 -0.0095,0.05089 -0.01644,0.101782 -0.02068,0.152672 -0.0043,0.05089 -0.0064,0.09701 -0.0064,0.138358 l 0,0.512087 c -1e-6,0.04772 0.0069,0.08641 0.02068,0.116095 0.01484,0.02862 0.03445,0.05036 0.05884,0.0652 0.02438,0.01484 0.05248,0.02492 0.08428,0.03022 0.03287,0.0043 0.06733,0.0064 0.103372,0.0064 l 0.09065,0 0,0.136768"
       style="font-size:3.81641483px;font-style:normal;font-variant:normal;font-weight:normal;font-stretch:normal;line-height:125%;letter-spacing:0px;word-spacing:0px;fill:#ffffff;fill-opacity:0.87030411;stroke:none;font-family:Serif;-inkscape-font-specification:Serif"
       id="path3906"
       inkscape:connector-curvature="0" />
    <path
       d="m 36.264313,16.191662 0,0.136768 -0.0095,0 c -0.03181,10e-7 -0.05937,0.0038 -0.0827,0.01113 -0.02226,0.0064 -0.04294,0.01908 -0.06202,0.03816 -0.01802,0.01908 -0.03499,0.04506 -0.05089,0.07793 -0.01591,0.03287 -0.0334,0.07528 -0.05248,0.127227 l -0.494593,1.367685 c -0.03816,0.104962 -0.07421,0.197201 -0.108142,0.276717 -0.03393,0.07951 -0.06944,0.14737 -0.106553,0.203563 -0.03711,0.05726 -0.07793,0.104431 -0.122455,0.141539 -0.04347,0.03711 -0.0933,0.0668 -0.149491,0.08906 -0.05619,0.02226 -0.120866,0.03764 -0.19402,0.04612 -0.07315,0.0084 -0.157974,0.01272 -0.254454,0.01272 l -0.02862,0 0,-0.154262 c 0.110263,-1e-6 0.205153,-0.01644 0.284669,-0.0493 0.07951,-0.03287 0.1479,-0.07793 0.205153,-0.135178 0.05832,-0.05726 0.106551,-0.125106 0.144721,-0.203563 0.03922,-0.0774 0.0721,-0.161683 0.0986,-0.252862 l -0.602742,-1.423339 c -0.01484,-0.03392 -0.02915,-0.06149 -0.04293,-0.0827 -0.01378,-0.02227 -0.02968,-0.04029 -0.04771,-0.05407 -0.01697,-0.01378 -0.03711,-0.02332 -0.06043,-0.02862 -0.02227,-0.0053 -0.0493,-0.0079 -0.08111,-0.0079 l -0.0095,0 0,-0.136769 0.782443,0 0,0.136769 -0.0095,0 c -0.06573,0 -0.115035,0.01272 -0.147901,0.03816 -0.03181,0.02545 -0.04771,0.06521 -0.04771,0.119275 0,0.01802 0.0016,0.03658 0.0048,0.05566 0.0043,0.01802 0.01113,0.03923 0.02068,0.06361 l 0.23855,0.58047 c 0.01484,0.03711 0.03021,0.07793 0.04612,0.122456 0.01697,0.04347 0.03234,0.08694 0.04612,0.130407 0.01484,0.04241 0.02809,0.0827 0.03976,0.120865 0.01166,0.03816 0.01961,0.07104 0.02385,0.0986 l 0.0095,0 c 0.01166,-0.04771 0.02757,-0.105492 0.04771,-0.173347 0.02121,-0.06891 0.04559,-0.142598 0.07315,-0.221055 l 0.217875,-0.634543 c 0.0095,-0.02651 0.01643,-0.05195 0.02068,-0.07634 0.0053,-0.02438 0.0079,-0.04559 0.0079,-0.06361 -2e-6,-0.05619 -0.01802,-0.09701 -0.05407,-0.122455 -0.03499,-0.02544 -0.08853,-0.03816 -0.160623,-0.03816 l -0.0095,0 0,-0.136769 0.677482,0"
       style="font-size:3.81641483px;font-style:normal;font-variant:normal;font-weight:normal;font-stretch:normal;line-height:125%;letter-spacing:0px;word-spacing:0px;fill:#ffffff;fill-opacity:0.87030411;stroke:none;font-family:Serif;-inkscape-font-specification:Serif"
       id="path3908"
       inkscape:connector-curvature="0" />
    <path
       d="m 37.301209,18.332247 -0.19243,0 0.749046,-2.868958 0.189249,0 -0.745865,2.868958"
       style="font-size:3.81641483px;font-style:normal;font-variant:normal;font-weight:normal;font-stretch:normal;line-height:125%;letter-spacing:0px;word-spacing:0px;fill:#ffffff;fill-opacity:0.87030411;stroke:none;font-family:Serif;-inkscape-font-specification:Serif"
       id="path3910"
       inkscape:connector-curvature="0" />
    <path
       d="m 40.055662,17.567298 c -2e-6,0.05089 0.0069,0.09171 0.02068,0.122456 0.01484,0.03075 0.03392,0.0546 0.05725,0.07157 0.02438,0.0159 0.05301,0.02651 0.08588,0.03181 0.03287,0.0053 0.06733,0.0079 0.103372,0.0079 l 0.07474,0 0,0.136768 -1.013042,0 0,-0.136768 0.07474,0 c 0.03605,0 0.06997,-0.0021 0.101781,-0.0064 0.03287,-0.0053 0.06149,-0.01537 0.08588,-0.03022 0.02438,-0.01484 0.04346,-0.03658 0.05725,-0.0652 0.01484,-0.02968 0.02227,-0.06838 0.02227,-0.116095 l 0,-1.808207 -0.311704,0 c -0.04771,3e-6 -0.088,0.0074 -0.120865,0.02227 -0.03181,0.01378 -0.05832,0.03287 -0.07951,0.05726 -0.02015,0.02439 -0.03552,0.05301 -0.04612,0.08588 -0.0095,0.03181 -0.01644,0.06574 -0.02068,0.101781 l -0.0175,0.139949 -0.168574,0 0.01591,-0.569338 1.833651,0 0.01591,0.569338 -0.168575,0 -0.01591,-0.139949 c -0.0043,-0.03605 -0.01167,-0.06997 -0.02227,-0.101781 -0.01061,-0.03286 -0.02598,-0.06149 -0.04612,-0.08588 -0.02015,-0.02438 -0.04665,-0.04346 -0.07951,-0.05726 -0.03287,-0.01484 -0.07368,-0.02227 -0.122455,-0.02227 l -0.316476,0 0,1.792304"
       style="font-size:3.81641483px;font-style:normal;font-variant:normal;font-weight:normal;font-stretch:normal;line-height:125%;letter-spacing:0px;word-spacing:0px;fill:#ffffff;fill-opacity:0.87030411;stroke:none;font-family:Serif;-inkscape-font-specification:Serif"
       id="path3912"
       inkscape:connector-curvature="0" />
    <path
       d="m 41.828882,17.801077 0,0.136768 -0.876273,0 0,-0.136768 0.02545,0 c 0.03711,0 0.07157,-0.0026 0.103371,-0.0079 0.03287,-0.0053 0.06096,-0.01591 0.08429,-0.03181 0.02438,-0.01697 0.04347,-0.04082 0.05726,-0.07157 0.01484,-0.03075 0.02227,-0.07157 0.02227,-0.122456 l 0,-1.746184 c 0,-0.04771 -0.0074,-0.08587 -0.02227,-0.114504 -0.01378,-0.02968 -0.03287,-0.05248 -0.05726,-0.06838 -0.02438,-0.0159 -0.05301,-0.02598 -0.08588,-0.03022 -0.03181,-0.0053 -0.06573,-0.0079 -0.101781,-0.0079 l -0.02545,0 0,-0.136769 0.599555,0 0,0.71565 c 0,0.02969 -5.31e-4,0.06097 -0.0016,0.09383 -0.001,0.03181 -0.0026,0.0615 -0.0048,0.08906 -0.0021,0.03181 -0.0043,0.06309 -0.0064,0.09383 l 0.0159,0 c 0.09754,-0.197199 0.257102,-0.2958 0.47869,-0.295801 0.09224,1e-6 0.173874,0.01272 0.24491,0.03816 0.0721,0.02439 0.132527,0.06256 0.181299,0.114504 0.04876,0.05089 0.08588,0.116625 0.111322,0.197201 0.02544,0.08058 0.03816,0.176527 0.03816,0.287849 l 0,0.76972 c -2e-6,0.05089 0.0064,0.09171 0.01908,0.122456 0.01272,0.03075 0.03021,0.0546 0.05249,0.07157 0.02226,0.0159 0.04877,0.02651 0.07951,0.03181 0.03074,0.0053 0.06414,0.0079 0.100191,0.0079 l 0.0095,0 0,0.136768 -0.566157,0 0,-1.124364 c -10e-7,-0.07103 -0.0064,-0.134117 -0.01908,-0.18925 -0.01272,-0.05513 -0.03339,-0.10178 -0.06203,-0.139949 -0.02757,-0.03817 -0.06414,-0.06679 -0.109733,-0.08588 -0.04559,-0.02014 -0.101252,-0.03022 -0.166985,-0.03022 -0.06786,10e-7 -0.126697,0.01272 -0.176526,0.03816 -0.04877,0.02439 -0.08959,0.0599 -0.122456,0.106552 -0.03181,0.04559 -0.05566,0.101252 -0.07157,0.166984 -0.01591,0.06467 -0.02385,0.13677 -0.02385,0.216286 l 0,0.687023 c 0,0.04771 0.0069,0.08641 0.02068,0.116095 0.01484,0.02862 0.03445,0.05036 0.05884,0.0652 0.02438,0.01484 0.05248,0.02492 0.08428,0.03022 0.03287,0.0043 0.06733,0.0064 0.103372,0.0064 l 0.0095,0"
       style="font-size:3.81641483px;font-style:normal;font-variant:normal;font-weight:normal;font-stretch:normal;line-height:125%;letter-spacing:0px;word-spacing:0px;fill:#ffffff;fill-opacity:0.87030411;stroke:none;font-family:Serif;-inkscape-font-specification:Serif"
       id="path3914"
       inkscape:connector-curvature="0" />
    <path
       d="m 43.856554,16.334791 c -0.120866,2e-6 -0.214165,0.0493 -0.279899,0.147901 -0.06467,0.09754 -0.102841,0.240671 -0.114503,0.429389 l 0.749046,0 c -1e-6,-0.08588 -0.0064,-0.164333 -0.01908,-0.235369 -0.01272,-0.07103 -0.03287,-0.131996 -0.06043,-0.182887 -0.02756,-0.05089 -0.06414,-0.09012 -0.109732,-0.117685 -0.04453,-0.02757 -0.09966,-0.04135 -0.165394,-0.04135 m 0.03976,1.634861 c -0.117685,0 -0.223707,-0.01961 -0.318066,-0.05884 -0.0933,-0.04029 -0.172286,-0.0986 -0.236959,-0.174937 -0.06467,-0.07634 -0.114504,-0.169635 -0.149492,-0.279898 -0.03392,-0.111323 -0.05089,-0.237489 -0.05089,-0.378499 0,-0.304282 0.06256,-0.53329 0.187659,-0.687023 0.125105,-0.15373 0.303222,-0.230597 0.534351,-0.230598 0.104961,1e-6 0.199321,0.01644 0.283079,0.0493 0.08375,0.03286 0.154791,0.08217 0.213105,0.1479 0.05831,0.06467 0.102839,0.145782 0.133587,0.243321 0.03181,0.09648 0.04771,0.208865 0.04771,0.337151 l 0,0.14949 -1.084606,0 c 0.0021,0.118746 0.01378,0.221057 0.03499,0.306935 0.02227,0.08482 0.05354,0.154792 0.09383,0.209924 0.04135,0.05513 0.09171,0.09595 0.151081,0.122455 0.05937,0.02545 0.127756,0.03816 0.205153,0.03816 0.05619,1e-6 0.108141,-0.0064 0.155853,-0.01908 0.04876,-0.01272 0.09277,-0.02968 0.131997,-0.05089 0.03922,-0.02121 0.07368,-0.04506 0.103371,-0.07157 0.03075,-0.02756 0.05566,-0.05619 0.07474,-0.08588 0.01484,0.0064 0.02862,0.01961 0.04135,0.03976 0.01378,0.02014 0.02067,0.044 0.02068,0.07157 -2e-6,0.03286 -0.01167,0.06838 -0.03499,0.106552 -0.02332,0.03711 -0.05884,0.07157 -0.106552,0.103372 -0.04772,0.03181 -0.107613,0.05831 -0.179708,0.07951 -0.07104,0.02121 -0.154793,0.03181 -0.251272,0.03181"
       style="font-size:3.81641483px;font-style:normal;font-variant:normal;font-weight:normal;font-stretch:normal;line-height:125%;letter-spacing:0px;word-spacing:0px;fill:#ffffff;fill-opacity:0.87030411;stroke:none;font-family:Serif;-inkscape-font-specification:Serif"
       id="path3916"
       inkscape:connector-curvature="0" />
    <path
       d="m 45.388043,17.969652 c -0.08164,0 -0.155853,-0.0074 -0.222647,-0.02227 -0.06573,-0.01378 -0.121925,-0.03499 -0.168575,-0.06361 -0.04665,-0.02968 -0.0827,-0.06573 -0.108143,-0.108142 -0.02545,-0.04347 -0.03816,-0.09383 -0.03816,-0.151082 0,-0.04346 0.0069,-0.07951 0.02068,-0.108142 0.01484,-0.02968 0.03234,-0.05301 0.05248,-0.06997 0.02121,-0.01697 0.04346,-0.02862 0.0668,-0.03499 0.02438,-0.0074 0.04612,-0.01113 0.0652,-0.01113 -10e-7,0.05726 0.0058,0.110794 0.0175,0.160623 0.01166,0.04983 0.03128,0.09383 0.05884,0.131998 0.02757,0.03711 0.06361,0.0668 0.108143,0.08906 0.04559,0.02121 0.10125,0.03181 0.166985,0.03181 0.05831,10e-7 0.109731,-0.0069 0.154261,-0.02067 0.04453,-0.01484 0.08164,-0.03499 0.111323,-0.06043 0.03075,-0.02651 0.05407,-0.05778 0.06997,-0.09383 0.0159,-0.03711 0.02385,-0.0774 0.02385,-0.120865 -1e-6,-0.04029 -0.0064,-0.07474 -0.01908,-0.103371 -0.01167,-0.02968 -0.03286,-0.05725 -0.06361,-0.0827 -0.02969,-0.02544 -0.07051,-0.05142 -0.122456,-0.07793 -0.05195,-0.02651 -0.117155,-0.05672 -0.195611,-0.09065 -0.08375,-0.03711 -0.156913,-0.07263 -0.219466,-0.106552 -0.06149,-0.03498 -0.112383,-0.07263 -0.152671,-0.112913 -0.04029,-0.04029 -0.0705,-0.08588 -0.09065,-0.136769 -0.02014,-0.05195 -0.03022,-0.113443 -0.03022,-0.184479 0,-0.07421 0.01431,-0.139947 0.04294,-0.197201 0.02968,-0.05725 0.07157,-0.10496 0.125636,-0.14313 0.05407,-0.03922 0.118744,-0.06891 0.19402,-0.08906 0.07527,-0.02014 0.159033,-0.03021 0.251273,-0.03022 0.0774,2e-6 0.145779,0.0079 0.205152,0.02385 0.05937,0.01591 0.109202,0.03764 0.149492,0.0652 0.04029,0.02651 0.0705,0.05831 0.09065,0.09542 0.02014,0.03605 0.03021,0.07422 0.03022,0.114504 -1e-6,0.05937 -0.02068,0.107084 -0.06202,0.14313 -0.04029,0.03499 -0.09807,0.05249 -0.173346,0.05249 -10e-7,-0.109202 -0.02279,-0.19402 -0.06838,-0.254454 -0.04453,-0.06043 -0.115035,-0.09065 -0.211514,-0.09065 -0.05513,1e-6 -0.102312,0.0064 -0.141539,0.01908 -0.03923,0.01272 -0.07157,0.03075 -0.09701,0.05407 -0.02438,0.02332 -0.04241,0.05089 -0.05407,0.0827 -0.01167,0.03181 -0.0175,0.0668 -0.0175,0.104962 0,0.04135 0.0074,0.0774 0.02227,0.108142 0.01484,0.02969 0.03816,0.05726 0.06997,0.0827 0.03286,0.02545 0.07474,0.05036 0.125637,0.07474 0.05195,0.02332 0.113972,0.04983 0.186068,0.07951 0.08588,0.03605 0.159563,0.07157 0.221056,0.106552 0.06149,0.03499 0.111852,0.07315 0.151082,0.114504 0.04029,0.04135 0.06997,0.088 0.08906,0.139949 0.01908,0.05195 0.02862,0.111854 0.02862,0.179707 -10e-7,0.08482 -0.01538,0.159034 -0.04612,0.222647 -0.03075,0.06361 -0.07421,0.117155 -0.130407,0.160623 -0.0562,0.04241 -0.124047,0.07421 -0.203562,0.09542 -0.07845,0.02121 -0.165926,0.03181 -0.262405,0.03181"
       style="font-size:3.81641483px;font-style:normal;font-variant:normal;font-weight:normal;font-stretch:normal;line-height:125%;letter-spacing:0px;word-spacing:0px;fill:#ffffff;fill-opacity:0.87030411;stroke:none;font-family:Serif;-inkscape-font-specification:Serif"
       id="path3918"
       inkscape:connector-curvature="0" />
    <path
       d="m 46.652355,17.465516 c 0,0.101782 0.02121,0.178118 0.06361,0.229008 0.04346,0.04983 0.110262,0.07474 0.200382,0.07474 0.06573,0 0.125105,-0.0106 0.178117,-0.03181 0.05407,-0.02121 0.09966,-0.05142 0.136768,-0.09065 0.03816,-0.03923 0.06733,-0.08694 0.08747,-0.14313 0.02014,-0.05619 0.03021,-0.118744 0.03022,-0.187659 l 0,-0.263994 -0.208333,0.0095 c -0.09224,0.0043 -0.169637,0.0159 -0.232189,0.03499 -0.06149,0.01802 -0.111323,0.044 -0.149491,0.07793 -0.03816,0.03287 -0.06574,0.07369 -0.0827,0.122456 -0.01591,0.04877 -0.02385,0.104963 -0.02385,0.168575 m 0.394402,-1.143448 c -0.06256,1e-6 -0.113444,0.009 -0.152671,0.02704 -0.03816,0.01696 -0.06838,0.04135 -0.09065,0.07315 -0.02121,0.03181 -0.03552,0.06944 -0.04294,0.112913 -0.0074,0.04347 -0.01114,0.09065 -0.01113,0.141539 -0.09012,2e-6 -0.159034,-0.01537 -0.206744,-0.04612 -0.04665,-0.03074 -0.06997,-0.08375 -0.06997,-0.159032 -10e-7,-0.05619 0.01537,-0.103901 0.04612,-0.14313 0.03075,-0.03922 0.07263,-0.07103 0.125636,-0.09542 0.05407,-0.02544 0.116624,-0.04399 0.187659,-0.05566 0.07104,-0.01166 0.14684,-0.0175 0.227418,-0.0175 0.09966,1e-6 0.186598,0.01007 0.260814,0.03022 0.07421,0.01908 0.136237,0.05089 0.186069,0.09542 0.04983,0.04453 0.08694,0.102844 0.111323,0.174937 0.02544,0.07104 0.03816,0.158504 0.03816,0.262404 l 0,0.844466 c -2e-6,0.04559 0.0037,0.08322 0.01113,0.112914 0.0074,0.02968 0.01908,0.05354 0.03499,0.07157 0.0159,0.01802 0.03658,0.03075 0.06203,0.03816 0.02651,0.0074 0.05778,0.01113 0.09383,0.01113 l 0.0095,0 0,0.136768 -0.440521,0 -0.05089,-0.279898 -0.02704,0 c -0.03392,0.04559 -0.0668,0.08747 -0.0986,0.125636 -0.03181,0.03816 -0.0668,0.07104 -0.104961,0.0986 -0.03816,0.02757 -0.08164,0.04877 -0.130407,0.06361 -0.04772,0.0159 -0.105493,0.02385 -0.173346,0.02385 -0.0721,0 -0.13942,-0.0106 -0.201973,-0.03181 -0.06149,-0.02014 -0.115034,-0.05142 -0.160623,-0.09383 -0.04453,-0.04346 -0.07952,-0.09754 -0.104962,-0.162214 -0.02545,-0.06573 -0.03816,-0.143129 -0.03816,-0.232188 0,-0.172815 0.06149,-0.301102 0.184478,-0.38486 0.122985,-0.08375 0.309053,-0.129347 0.558206,-0.136769 l 0.270356,-0.0095 0,-0.195611 c 0,-0.05831 -0.0032,-0.111852 -0.0095,-0.160623 -0.0064,-0.04983 -0.02014,-0.09224 -0.04135,-0.127227 -0.02121,-0.03605 -0.05196,-0.06361 -0.09224,-0.0827 -0.03923,-0.02014 -0.09224,-0.03022 -0.159034,-0.03022"
       style="font-size:3.81641483px;font-style:normal;font-variant:normal;font-weight:normal;font-stretch:normal;line-height:125%;letter-spacing:0px;word-spacing:0px;fill:#ffffff;fill-opacity:0.87030411;stroke:none;font-family:Serif;-inkscape-font-specification:Serif"
       id="path3920"
       inkscape:connector-curvature="0" />
    <path
       d="m 49.721694,17.583201 c -2e-6,0.04772 0.0069,0.08641 0.02068,0.116095 0.01484,0.02862 0.03445,0.05036 0.05884,0.0652 0.02438,0.01484 0.05248,0.02492 0.08429,0.03022 0.03287,0.0043 0.06732,0.0064 0.103371,0.0064 l 0.0095,0 0,0.136768 -0.516858,0 -0.04293,-0.263995 -0.01591,0 c -0.03287,0.06149 -0.06944,0.111324 -0.109732,0.149491 -0.03923,0.03816 -0.08111,0.06838 -0.125636,0.09065 -0.04453,0.02121 -0.09118,0.03552 -0.13995,0.04294 -0.04877,0.0084 -0.09966,0.01272 -0.152672,0.01272 -0.08588,0 -0.162214,-0.01219 -0.229007,-0.03658 -0.0668,-0.02438 -0.122986,-0.06256 -0.168575,-0.114504 -0.04559,-0.05195 -0.08058,-0.118215 -0.104962,-0.198792 -0.02332,-0.08058 -0.03499,-0.176526 -0.03499,-0.28785 l 0,-0.780853 c 0,-0.04771 -0.0074,-0.08588 -0.02227,-0.114504 -0.01378,-0.02968 -0.03287,-0.05248 -0.05725,-0.06838 -0.02438,-0.0159 -0.05301,-0.02651 -0.08588,-0.03181 -0.03181,-0.0053 -0.06573,-0.0079 -0.101781,-0.0079 l -0.0095,0 0,-0.136768 0.583651,0 0,1.124364 c 0,0.07104 0.0053,0.134118 0.01591,0.189249 0.01166,0.05513 0.03022,0.101782 0.05566,0.139949 0.02651,0.03816 0.06149,0.06733 0.104962,0.08747 0.04453,0.01908 0.09966,0.02862 0.165395,0.02862 0.0721,10e-7 0.133587,-0.01272 0.184478,-0.03816 0.05195,-0.02545 0.09436,-0.06096 0.127227,-0.106552 0.03392,-0.04665 0.05884,-0.102311 0.07474,-0.166984 0.0159,-0.06467 0.02385,-0.136238 0.02385,-0.214696 l 0,-0.671119 c -10e-7,-0.05089 -0.0074,-0.09171 -0.02227,-0.122456 -0.01378,-0.03181 -0.03287,-0.05566 -0.05725,-0.07157 -0.02332,-0.01697 -0.05142,-0.0281 -0.08429,-0.03339 -0.03181,-0.0053 -0.06627,-0.0079 -0.103371,-0.0079 l -0.0095,0 0,-0.136769 0.582061,0 0,1.391539"
       style="font-size:3.81641483px;font-style:normal;font-variant:normal;font-weight:normal;font-stretch:normal;line-height:125%;letter-spacing:0px;word-spacing:0px;fill:#ffffff;fill-opacity:0.87030411;stroke:none;font-family:Serif;-inkscape-font-specification:Serif"
       id="path3922"
       inkscape:connector-curvature="0" />
    <path
       d="m 51.121187,17.937845 -0.939886,0 0,-0.136768 0.0095,0 c 0.03711,0 0.07157,-0.0026 0.103371,-0.0079 0.03287,-0.0053 0.06096,-0.01591 0.08429,-0.03181 0.02438,-0.01697 0.04346,-0.04082 0.05725,-0.07157 0.01484,-0.03075 0.02227,-0.07157 0.02227,-0.122456 l 0,-1.016222 c 0,-0.04771 -0.0074,-0.08588 -0.02227,-0.114504 -0.01378,-0.02968 -0.03287,-0.05248 -0.05725,-0.06838 -0.02438,-0.0159 -0.05301,-0.02651 -0.08588,-0.03181 -0.03181,-0.0053 -0.06573,-0.0079 -0.101781,-0.0079 l -0.0095,0 0,-0.136769 0.500954,0 0.06203,0.322837 0.0159,0 c 0.02121,-0.04877 0.04294,-0.09436 0.0652,-0.136768 0.02226,-0.04346 0.0493,-0.08111 0.08111,-0.112914 0.03287,-0.03287 0.07315,-0.05831 0.120865,-0.07634 0.04771,-0.01908 0.107612,-0.02862 0.179708,-0.02862 0.118743,2e-6 0.206741,0.02068 0.263994,0.06203 0.05831,0.04135 0.08747,0.09966 0.08747,0.174936 -2e-6,0.03393 -0.0058,0.0652 -0.0175,0.09383 -0.01061,0.02862 -0.0281,0.05354 -0.05248,0.07474 -0.02438,0.02014 -0.05566,0.03605 -0.09383,0.04771 -0.03816,0.01061 -0.08482,0.01591 -0.139949,0.0159 -2e-6,-0.09012 -0.01272,-0.15479 -0.03816,-0.19402 -0.02545,-0.04029 -0.06997,-0.06043 -0.133588,-0.06043 -0.04029,0 -0.07634,0.01167 -0.108143,0.03499 -0.03181,0.02227 -0.0599,0.05249 -0.08428,0.09065 -0.02332,0.03711 -0.04347,0.08005 -0.06043,0.128817 -0.01591,0.04877 -0.02915,0.09913 -0.03976,0.151081 -0.0095,0.05089 -0.01644,0.101782 -0.02068,0.152672 -0.0043,0.05089 -0.0064,0.09701 -0.0064,0.138358 l 0,0.512087 c -10e-7,0.04772 0.0069,0.08641 0.02068,0.116095 0.01484,0.02862 0.03446,0.05036 0.05884,0.0652 0.02438,0.01484 0.05248,0.02492 0.08429,0.03022 0.03287,0.0043 0.06733,0.0064 0.103371,0.0064 l 0.09065,0 0,0.136768"
       style="font-size:3.81641483px;font-style:normal;font-variant:normal;font-weight:normal;font-stretch:normal;line-height:125%;letter-spacing:0px;word-spacing:0px;fill:#ffffff;fill-opacity:0.87030411;stroke:none;font-family:Serif;-inkscape-font-specification:Serif"
       id="path3924"
       inkscape:connector-curvature="0" />
    <path
       d="m 53.322205,17.583201 c -2e-6,0.04772 0.0069,0.08641 0.02068,0.116095 0.01484,0.02862 0.03445,0.05036 0.05884,0.0652 0.02438,0.01484 0.05248,0.02492 0.08428,0.03022 0.03287,0.0043 0.06732,0.0064 0.103372,0.0064 l 0.0095,0 0,0.136768 -0.516859,0 -0.04293,-0.263995 -0.0159,0 c -0.03287,0.06149 -0.06944,0.111324 -0.109733,0.149491 -0.03923,0.03816 -0.08111,0.06838 -0.125636,0.09065 -0.04453,0.02121 -0.09118,0.03552 -0.139949,0.04294 -0.04877,0.0084 -0.09966,0.01272 -0.152672,0.01272 -0.08588,0 -0.162214,-0.01219 -0.229008,-0.03658 -0.0668,-0.02438 -0.122986,-0.06256 -0.168575,-0.114504 -0.04559,-0.05195 -0.08058,-0.118215 -0.104962,-0.198792 -0.02332,-0.08058 -0.03499,-0.176526 -0.03499,-0.28785 l 0,-0.780853 c 0,-0.04771 -0.0074,-0.08588 -0.02227,-0.114504 -0.01378,-0.02968 -0.03287,-0.05248 -0.05725,-0.06838 -0.02438,-0.0159 -0.05301,-0.02651 -0.08588,-0.03181 -0.03181,-0.0053 -0.06573,-0.0079 -0.101781,-0.0079 l -0.0095,0 0,-0.136768 0.583652,0 0,1.124364 c -1e-6,0.07104 0.0053,0.134118 0.0159,0.189249 0.01167,0.05513 0.03022,0.101782 0.05566,0.139949 0.02651,0.03816 0.06149,0.06733 0.104962,0.08747 0.04453,0.01908 0.09966,0.02862 0.165395,0.02862 0.0721,10e-7 0.133586,-0.01272 0.184478,-0.03816 0.05195,-0.02545 0.09436,-0.06096 0.127226,-0.106552 0.03392,-0.04665 0.05884,-0.102311 0.07474,-0.166984 0.0159,-0.06467 0.02385,-0.136238 0.02385,-0.214696 l 0,-0.671119 c -10e-7,-0.05089 -0.0074,-0.09171 -0.02227,-0.122456 -0.01378,-0.03181 -0.03286,-0.05566 -0.05726,-0.07157 -0.02332,-0.01697 -0.05142,-0.0281 -0.08428,-0.03339 -0.03181,-0.0053 -0.06627,-0.0079 -0.103372,-0.0079 l -0.0095,0 0,-0.136769 0.582061,0 0,1.391539"
       style="font-size:3.81641483px;font-style:normal;font-variant:normal;font-weight:normal;font-stretch:normal;line-height:125%;letter-spacing:0px;word-spacing:0px;fill:#ffffff;fill-opacity:0.87030411;stroke:none;font-family:Serif;-inkscape-font-specification:Serif"
       id="path3926"
       inkscape:connector-curvature="0" />
    <path
       d="m 54.35751,17.969652 c -0.08164,0 -0.155853,-0.0074 -0.222647,-0.02227 -0.06574,-0.01378 -0.121926,-0.03499 -0.168574,-0.06361 -0.04665,-0.02968 -0.0827,-0.06573 -0.108143,-0.108142 -0.02545,-0.04347 -0.03816,-0.09383 -0.03816,-0.151082 0,-0.04346 0.0069,-0.07951 0.02068,-0.108142 0.01484,-0.02968 0.03234,-0.05301 0.05249,-0.06997 0.02121,-0.01697 0.04347,-0.02862 0.0668,-0.03499 0.02438,-0.0074 0.04612,-0.01113 0.0652,-0.01113 -10e-7,0.05726 0.0058,0.110794 0.01749,0.160623 0.01167,0.04983 0.03128,0.09383 0.05884,0.131998 0.02757,0.03711 0.06361,0.0668 0.108143,0.08906 0.04559,0.02121 0.10125,0.03181 0.166984,0.03181 0.05831,10e-7 0.109732,-0.0069 0.154262,-0.02067 0.04453,-0.01484 0.08164,-0.03499 0.111323,-0.06043 0.03075,-0.02651 0.05407,-0.05778 0.06997,-0.09383 0.0159,-0.03711 0.02385,-0.0774 0.02385,-0.120865 -1e-6,-0.04029 -0.0064,-0.07474 -0.01908,-0.103371 -0.01167,-0.02968 -0.03286,-0.05725 -0.06361,-0.0827 -0.02969,-0.02544 -0.07051,-0.05142 -0.122456,-0.07793 -0.05195,-0.02651 -0.117155,-0.05672 -0.195611,-0.09065 -0.08375,-0.03711 -0.156912,-0.07263 -0.219465,-0.106552 -0.06149,-0.03498 -0.112384,-0.07263 -0.152672,-0.112913 -0.04029,-0.04029 -0.07051,-0.08588 -0.09065,-0.136769 -0.02014,-0.05195 -0.03022,-0.113443 -0.03022,-0.184479 0,-0.07421 0.01431,-0.139947 0.04294,-0.197201 0.02968,-0.05725 0.07157,-0.10496 0.125636,-0.14313 0.05407,-0.03922 0.118744,-0.06891 0.19402,-0.08906 0.07527,-0.02014 0.159033,-0.03021 0.251273,-0.03022 0.0774,2e-6 0.145779,0.0079 0.205152,0.02385 0.05937,0.01591 0.109202,0.03764 0.149492,0.0652 0.04029,0.02651 0.0705,0.05831 0.09065,0.09542 0.02014,0.03605 0.03021,0.07422 0.03022,0.114504 -1e-6,0.05937 -0.02068,0.107084 -0.06203,0.14313 -0.04029,0.03499 -0.09807,0.05249 -0.173345,0.05249 -1e-6,-0.109202 -0.0228,-0.19402 -0.06838,-0.254454 -0.04453,-0.06043 -0.115035,-0.09065 -0.211514,-0.09065 -0.05513,1e-6 -0.102312,0.0064 -0.14154,0.01908 -0.03923,0.01272 -0.07157,0.03075 -0.09701,0.05407 -0.02438,0.02332 -0.04241,0.05089 -0.05407,0.0827 -0.01167,0.03181 -0.0175,0.0668 -0.0175,0.104962 0,0.04135 0.0074,0.0774 0.02227,0.108142 0.01484,0.02969 0.03816,0.05726 0.06997,0.0827 0.03287,0.02545 0.07474,0.05036 0.125636,0.07474 0.05195,0.02332 0.113973,0.04983 0.186069,0.07951 0.08588,0.03605 0.159561,0.07157 0.221055,0.106552 0.06149,0.03499 0.111853,0.07315 0.151082,0.114504 0.04029,0.04135 0.06997,0.088 0.08906,0.139949 C 54.990459,17.331394 55,17.3913 55,17.459153 c -10e-7,0.08482 -0.01537,0.159034 -0.04612,0.222647 -0.03075,0.06361 -0.07421,0.117155 -0.130407,0.160623 -0.05619,0.04241 -0.124047,0.07421 -0.203562,0.09542 -0.07845,0.02121 -0.165926,0.03181 -0.262405,0.03181"
       style="font-size:3.81641483px;font-style:normal;font-variant:normal;font-weight:normal;font-stretch:normal;line-height:125%;letter-spacing:0px;word-spacing:0px;fill:#ffffff;fill-opacity:0.87030411;stroke:none;font-family:Serif;-inkscape-font-specification:Serif"
       id="path3928"
       inkscape:connector-curvature="0" />
  </g>
  <g
     id="g3866"
     transform="translate(0,3)"
     style="opacity:1;fill:#480009;fill-opacity:0.15742397;stroke:none;stroke-width:1;stroke-linecap:butt;stroke-linejoin:miter;stroke-miterlimit:4;stroke-dasharray:none;stroke-dashoffset:0;stroke-opacity:1;marker:none">
    <path
       sodipodi:nodetypes="ccccc"
       inkscape:connector-curvature="0"
       id="rect3858"
       d="m 18,-57 1,0 0,39 -1,0 z"
       style="color:#000000;fill:#480009;fill-opacity:0.15742397;fill-rule:nonzero;stroke:none;stroke-width:1;marker:none;visibility:visible;display:inline;overflow:visible;enable-background:accumulate;stroke-linecap:butt;stroke-linejoin:miter;stroke-miterlimit:4;stroke-dasharray:none;stroke-dashoffset:0;stroke-opacity:1"
       transform="matrix(0,1,-1,0,0,0)" />
    <path
       sodipodi:nodetypes="ccccc"
       inkscape:connector-curvature="0"
       id="rect3818"
       d="m 48,-57 1,0 0,39 -1,0 z"
       style="color:#000000;fill:#480009;fill-opacity:0.15742397;fill-rule:nonzero;stroke:none;stroke-width:1;marker:none;visibility:visible;display:inline;overflow:visible;enable-background:accumulate;stroke-linecap:butt;stroke-linejoin:miter;stroke-miterlimit:4;stroke-dasharray:none;stroke-dashoffset:0;stroke-opacity:1"
       transform="matrix(0,1,-1,0,0,0)" />
    <path
       sodipodi:nodetypes="ccccc"
       inkscape:connector-curvature="0"
       id="rect3860"
       d="m -18,-57 1,0 0,39 -1,0 z"
       style="color:#000000;fill:#480009;fill-opacity:0.15742397;fill-rule:nonzero;stroke:none;stroke-width:1;marker:none;visibility:visible;display:inline;overflow:visible;enable-background:accumulate;stroke-linecap:butt;stroke-linejoin:miter;stroke-miterlimit:4;stroke-dasharray:none;stroke-dashoffset:0;stroke-opacity:1"
       transform="matrix(0,-1,-1,0,0,0)" />
    <path
       sodipodi:nodetypes="ccccc"
       inkscape:connector-curvature="0"
       id="rect3799"
       d="m -48,-57 1,0 0,39 -1,0 z"
       style="color:#000000;fill:#480009;fill-opacity:0.15742397;fill-rule:nonzero;stroke:none;stroke-width:1;marker:none;visibility:visible;display:inline;overflow:visible;enable-background:accumulate;stroke-linecap:butt;stroke-linejoin:miter;stroke-miterlimit:4;stroke-dasharray:none;stroke-dashoffset:0;stroke-opacity:1"
       transform="matrix(0,-1,-1,0,0,0)" />
  </g>
</svg>
