<svg xmlns="http://www.w3.org/2000/svg" viewBox="0 0 64 64" xmlns:xlink="http://www.w3.org/1999/xlink"><defs><path id="0" d="m-75.837 2.763v30 28l2 2h30 30l2-2v-28-30h-32-32" color="#000"/></defs><g transform="translate(75.837 1.237)" fill="#5da52e"><use xlink:href="#0"/><use xlink:href="#0"/><use xlink:href="#0"/></g><path d="m2 0l-2 1v3h32 32v-3l-2-1h-30-30" fill="#98ea3e" color="#000"/><path d="m64 6l-2-2 2-1z" fill="#78c535"/><path transform="matrix(.60998-.60998.60998.60998-4.04 33.03)" d="m40.901 42.498c-.935.935-31.599-7.281-31.942-8.559-.342-1.278 22.11-23.725 23.383-23.383 1.278.342 9.494 31.01 8.559 31.942" fill="#d3f7d4" color="#000"/><path d="m0 3v3l2-2" fill="#a4f34f"/></svg>