<svg xmlns="http://www.w3.org/2000/svg" viewBox="0 0 64 64"><g fill-opacity=".027"><path d="m0 2v8.438c.597-1.18 1.219-2.455 1.938-4.03.056.112.075.264.188.313 3.522 1.509-1.453-1.258 2.125.531.135.068.251.163.375.25-.63-1.207-1-2.039-1.625-3.594.256-.637.518-1.272.781-1.906h-.281c-.183.202-.322.449-.5.656-.115.134-.248.252-.375.375-.128-.324-.249-.63-.406-1.031h-2.219m4.625 5.5c.179.343.439.841.688 1.313-.017.311-.055.602 0 .906.047.259.213.49.344.719.209.367.31.617.719.719.052.013.102.003.156 0 .064.124.124.25.188.375v-.375h.344c.263 0 .499.032.719-.188.042-.042-.042-.146 0-.188.042-.042.146.042.188 0 .042-.042 0-.097 0-.156v-.188c0-.112.013-.686 0-.719-.192-.48-.478-.631-.906-.875-.179-.102-.214-.104-.313-.156.001-.358-.009-.737-.031-1.094-.121-1.941-.318-2.656-.75-4.188-.305.609-.553 1.179-.656 1.563-.169.626 0 1.289 0 1.938v1.063c-.236-.138-.463-.311-.688-.469m1.344-4.094c.066-.132.147-.27.219-.406-.156-.156-.323-.303-.469-.469.039.157.082.313.125.469.049.177.081.25.125.406zm-.25-.875c-.046-.182-.098-.354-.156-.531h-.125c.005.048.024.096.031.125.032.128.105.241.188.344.018.023.043.04.063.063m.469.469c.354.471.716.961 1.063 1.438.596.82 1.181 1.629 1.75 2.469 2.066 3.05 2.02 3.427 4.625 6.344.061.068.125.15.188.219-1.629.763-3.261 1.597-4.844 2.406.062.114.125.23.188.344 1.187-.455 2.369-.937 3.563-1.375.598-.219 1.212-.412 1.813-.625.098.101.181.211.281.313.723-.404 1.453-.805 2.188-1.188.406-.143.813-.294 1.219-.438l1.719-.625c0-.135 0-.271 0-.406.895-.426 1.795-.818 2.688-1.25l5.719-2.781c.689.235 1.383.485 2.156.719 1.916-.671 3.586-1.262 4.03-1.438-.625-.282-1.285-.556-2.031-.813-.591.184-1.883.586-1.906.594-.281.091-.562.191-.844.281l2.188-1.063c-.912-.298-1.955-.612-3.313-1-3.751-1.072-3.431-.875-6.719-.875-.295 0-.589-.071-.875 0-.081.02.129.129.188.188.177.177.317.403.531.531.678.407 1.405.735 2.125 1.063 1.226.557 2.421 1.106 3.688 1.563.133.048.3.108.438.156-1.088.353-2.178.696-3.25 1.094-1.623.603-3.216 1.266-4.813 1.938.008-.709.031-1.416.031-2.125 0-1.827-.088-3.644 0-5.469.019-.396.06-.793.094-1.188h-13.344c-.192.34-.355.663-.531 1m25.75 3.125c.185.06.389.128.563.188 2.256-.702 6.698-2.096 7.281-2.25.637-.169 1.294-.201 1.938-.344.419-.093 1.488-.701 1.25-.344-.337.505-1.043.621-1.594.875-.984.454-2 .83-3 1.25-2.921 1.23-3.303 1.412-3.844 1.625.89.402 1.783.868 2.844 1.5-.266.052-.548.088-.781.219-.815.459-1.293.733-1.594.938-1.506-.372-3.052-.782-4.5-1.219-.63.22-.355.118-1.344.469l-9.219 3.25c.002.5.013 1 .031 1.5.033.92.105 1.704.156 2.406-.852.333-1.704.654-2.563.969-.954-.873-1.876-1.736-2.75-2.625-1.044.583-2.102 1.188-3.156 1.75-.642.342-1.284.647-1.938.969-.181-.323-.346-.633-.531-.969-.011-.02-.02-.042-.031-.063-.52.199-1.042.396-1.563.594-.281.106-.563.206-.844.313.004.571-.013 1.148-.031 1.719-.059.034-.129.059-.188.094-1.533.908-2.864 2.109-4.406 3-.414.116-.84.213-1.25.344-.295.094-.584.207-.875.313v9.813c1.403.645 2.588 1.124 3.75 1.531-.25.481-.519.949-.75 1.438-.295.884-.604 1.734-.875 2.625-.141.465-.204.972-.344 1.438-.038.126-.188.212-.188.344 0 .059.129 0 .188 0 .059 0 .098.012.156 0 .533-.107 1.091-.138 1.594-.344.805-.329 1.575-.789 2.313-1.25 1.15-.719 2.224-1.515 3.344-2.281l.188-.125c.138.046.2.077.344.125 1.205.402 2.419.788 3.625 1.188 1.811-2.218 3.094-3.777 4.531-5.563.469.199.962.409 1.406.656.629.349 1.159.809 1.75 1.219.65.45.372.185.719.531.059.059.097.246.156.188.083-.083.075-.253 0-.344-.242-.29-.597-.464-.875-.719-.43-.394-.849-.799-1.219-1.25-.366-.447-.73-.903-1.063-1.375.175-.22.686-.846.781-.969.652-.467 1.258-.934 1.844-1.375.138 1.16.233 1.581.719 3.719.12.53.172 1.078.344 1.594.908 2.723.33.703 1.25 2.313.13.228.068.581.344.719.053.026.129 0 .188 0 .949 0-.121.046 1.594-.906-.463 1.365-.845 2.736-1.406 4.063-.154.363-.338.718-.531 1.063-.241-.051-.48-.095-.719-.156-2.238-.576-4.345-1.564-6.531-2.313-1.09-.373-2.188-.731-3.281-1.094-1.179 1.444-2.615 3.22-2.906 3.563-2.479 2.922-7.508 8.571-10.25 11.313-.062.062-.125.126-.188.188v4.75c.882-.528 1.762-1.056 2.656-1.563 3.073-1.741 8.997-4.938 12.03-6.375 1.507-.714 3.282-1.474 5.125-2.25-1.365-.473-2.744-.955-4.094-1.469-1.012-.386-1.997-.809-3-1.219-.294-.12-.603-.212-.875-.375-.051-.03-.042-.115 0-.156.042-.042.129 0 .188 0h.344 1.406 4.781c2.129 0 2.754-.001 3.813 0-.279.762-.505 1.577-.656 2.406 1.55-.636 3.072-1.241 4.531-1.813.072-.182.12-.355.188-.531.369.014.666.009 1.125.031.531-.205 1.107-.44 1.594-.625 1.208-.46 2.174-.803 3.125-1.156-.675-.074-1.501-.192-3.281-.438-.56-.077-1.125-.153-1.688-.219.649-1.975 1.127-3.845 1.844-6.313.171-.59.348-1.194.531-1.781-2.123 2.1-1.27 1.015-3.844 2.438.156-.459.325-.923.5-1.375.715-1.847 1.515-3.642 2.281-5.469.144-.343.293-.688.438-1.031-.314-.312-.648-.632-.969-.938-.761-.723-1.528-1.427-2.313-2.125 1.951-1.665 3.863-3.379 6.219-5.469-.003.238.011.481 0 .719-.013.264-.043.589-.063.875.306-.767.605-1.525.938-2.281.023-.051.04-.105.063-.156 3.506-3.098 5.408-4.757 8.06-7.25-.462-.072-.914-.133-1.406-.219-.89-.156-1.904-.352-2.969-.594.178-.202.366-.395.5-.625.122-.21.129-.483.188-.719.054-.054.099-.105.156-.156.807.483 1.688 1.028 2.844 1.75.245.153.499.339.75.5.425-.4.981-.941 1.469-1.406.726-1.509 1.38-2.858 2.719-5.625.306-.633.606-1.271.906-1.906h-5.75c-.448.222-.894.439-1.344.656-1.827.882-3.642 1.772-5.469 2.656l-1.656.813m10.594 3.406c-.206.429-.544 1.098-.781 1.594 4.122.597 7.324.677 11.656.844.17-2.368.387-3.629.688-7.719.055-.749.088-1.5.125-2.25h-4.531c-1.599 2.369-1.731 2.33-5.5 5.969-.656.634-1.11 1.041-1.656 1.563zm10.875 2.438c-.017.237-.015.485-.031.75-.031.042-.063.083-.094.125-.378.014-.748.024-1.125.063-1.977.204-3.902.825-5.844 1.25-.262.057-.16.04-.406.094.313.229.628.456.938.688.438-.047.281-.03.875-.094 1.469-.157 2.937-.312 4.406-.469-.44.612-.856 1.247-1.219 1.906-.241.438-.446.889-.656 1.344.099.083.215.168.313.25.915.769 1.791 1.536 2.656 2.344.001.157 0 .312 0 .469v4.063c0 1.116-.078 2.231 0 3.344.756.161 1.514.284 2.281.375 1.056.126 1.903.194 2.656.25-.173.565-.351 1.125-.531 1.688-.474 1.482-.975 2.979-1.594 4.406.027.017.067.014.094.031-.044.013-.081.049-.125.063-.552 1.258-1.225 2.432-1.906 3.625-.097.17-.158.279-.25.438 1.187-.905 1.765-1.326 2-1.5-1.412 1.37-2.046 2.083-2.813 2.844-.15.244-.296.497-.438.719-.053-.029-.103-.066-.156-.094-.54.494-1.281 1.101-2.406 2.031-.764.631-1.547 1.222-2.344 1.813-.219-.013-.437-.05-.656-.063.948-.871 1.835-1.787 2.813-2.625.592-.507 1.195-1.023 1.813-1.5-.075-.028-.142-.07-.219-.094-1.192-.376-2.471-.45-3.719-.531-3.628-.237-4.913-.041-8.125.719.012-.184.04-.384 0-.563-.042-.191-.142-.456-.281-.75-2.448.778-4.431 1.473-7.03 2.438.836.091 1.541.101 2.781.094-1.434.464-2.818 1.03-4.438 1.844-1.129-.06-2.325-.121-3.063-.156-.436.168-.854.321-1.313.5-.086.217-.157.399-.25.625-.338.826-.766 1.635-1.156 2.438-.447.259-.897.491-1.344.75.291.092.586.183.875.281-.071.239-.653 2.588-1.031 3.25-.083.145-.257.257-.375.375-.059 0-.115-.042-.156 0-.042.042.042.115 0 .156-.122.122-.352-.11-.375-.156-.026-.053.026-.135 0-.188-.037-.075-.119-.113-.156-.188-.142-.284-.288-.57-.375-.875-.14-.491-.251-.993-.313-1.5-.128.084-.249.164-.375.25-1.307.891-5.203 4.141-6.375 5.313-.827.827-1.529 1.761-2.281 2.656-.253.301-1.553 1.671-1.781 2.469-.296 1.036.714.605 1.594.531.889-.074 1.781-.174 2.656-.344 1.039-.202 7.984-1.941 8.469-2.125 1.897-.72 3.673-1.772 5.5-2.656 2.711-1.312 3.941-1.89 5.03-2.438.642.306 1.295.601 1.938.906-1.095.795-2.194 1.561-3.25 2.406-2.319 1.855-3.61 3.235-5.688 5.313l-2.281 2.313c-.115.115-.23.228-.344.344h7.594 15.875c1.262-.192 2.518-.448 4.656-.906.473.29.936.612 1.406.906h8.06l2-2v-16.219c-1.728-.162-3.444-.301-5.156-.406-.415-.621-.846-1.234-1.406-1.719-.857-.742-1.998-1.032-3-1.563-.435-.23-.857-.495-1.281-.75.788-.941 1.333-1.825 3.063-3.875.741-.878 1.144-1.323 1.5-1.688-.33.261-.661.526-.969.813-.235.219-.302.311-.5.5.157-.196.387-.561 1.281-1.625.133.029.266.07.406.094.355-.346.884-.792 1.438-1.281-.101.134-.225.256-.344.375-.328.328-.667.617-1.031.906 1.642.262 3.679.156 5.094.156.3 0 .606.024.906.031v-1.75-21.563c-.027-.001 0 .001-.031 0 .004-.009-.004-.022 0-.031.011.001.021-.001.031 0v-10.406h-.594l-2.594 2.594-2.656 2.656c-.884.884-1.833 1.716-2.656 2.656-.584.667-1.103 1.377-1.625 2.094-.163-.007-.309-.025-.469-.031m4.594 23.594c-.02-.003-.043.003-.063 0-.014.014-.017.049-.031.063.029-.023.065-.039.094-.063m-36.406 13.5c.622-.407 1.262-.783 1.906-1.156-.645-.204-1.291-.424-1.938-.625-.039.568-.055 1.133 0 1.688.003.032.027.062.031.094zm-.031-1.781c.032-.462.073-.918.156-1.375-.65.267-1.266.543-1.906.813.115.04.229.085.344.125.463.16.938.292 1.406.438m17.75-7.906c1.249-.397 2.626-.85 4.344-1.375 9.864-3.01 1.199-.412 10.25-2.469.71-.161 1.399-.409 2.094-.625.009-.021.022-.041.031-.063.004-.009-.004-.022 0-.031-.175-.115-.356-.234-.531-.344-.43-.269-.921-.465-1.219-.875-.211-.29-.121-.71-.188-1.063-.111-.591-.221-1.162-.344-1.75-.172-.826-.457-1.66-.531-2.5-.005-.063.004-.125 0-.188-.239-.051-.483-.093-.719-.156-.414-.11-3.082-1.01-3.531-1.781-.208-.356 0-.806 0-1.219 0-1.538-.111-3.48.344-4.969.247-.809.581-1.574.938-2.344-1.059-.879-2.216-1.798-3.406-2.688-3.464.37-3.884.434-6.531.813 2.834-.798 1.046-.475-.563-.156-.105.021-.025.011-.125.031-.046.096-.078.152-.125.25-.153.021-.081.008-.25.031-.567.079-2.673.147-3.531.719-.098.065.226 0 .344 0 .354 0 .72.089 1.063 0 1.124-.291 1.62-.436 2.313-.625-.558 1.165-1.127 2.36-1.594 3.094-.361.567-1.01.968-1.25 1.594-.192.494.095 1.072 0 1.594-.395.395-.344.188-.344.531 0 .059-.042.146 0 .188.042.042.115.042.156 0 .042-.042-.026-.135 0-.188.037-.075.141-.118.188-.188.073-.11.129-.226.188-.344.059-.118.024-.344.156-.344.118 0 .019.228 0 .344-.04.24-.036.508-.156.719-.357.625-.862 1.144-1.25 1.75-.556.868-1.063 1.772-1.594 2.656-.929 1.548-1.347 2.327-1.969 3.156l2.5 2.5c2.386 2.386 2.189 1.896 3.906 4.594.141.221.613 1.033.938 1.719m-7.344-8.813l-.5-.5c-.241-.241-.48-.476-.719-.719-.284 1.256-.678 2.489-1.063 3.719.146-.144.198-.166.375-.344.95-.95 1.465-1.568 1.906-2.156m-1.219-1.219c.527-2.334 1-5.918 1.188-8.656-.33.829-.659 1.645-1 2.469-.615 1.487-1.251 2.986-1.875 4.469.567.564 1.126 1.149 1.688 1.719m9-13.75c.912-.196 2.435-.53 6.156-1.344-1.421-1.037-2.853-1.995-4.25-2.906-.319.667-.55 1.149-1 2.094-.233.49-.642 1.333-1.031 2.156.017-.004.107.004.125 0m1.906-4.25c.033-.068.062-.152.094-.219-.161-.023-.336-.038-.5-.063.138.089.267.19.406.281m-.406-.281c-.063-.041-.125-.085-.188-.125-.018.017-.044.045-.063.063.083.013.167.05.25.063m10.406 29.531c.268.099.527.21.781.344.263-.241.401-.434.594-.625.247-.403.526-.85.813-1.344-.246.188-.311.224-.625.469-.51.397-1.051.761-1.563 1.156m-44.906-23.469c0-.031 0-.063 0-.094-.235.127-.49.249-.719.375.241-.091.478-.19.719-.281m-.719.281c-1.188.449-2.377.888-3.563 1.344-.824.317-1.648.643-2.469.969v1.719c1.885-1.697 1.494-1.538 5.844-3.938.059-.032.128-.061.188-.094m.719-.375c.724-.39 1.451-.764 2.219-1.156-.776-1.434-1.506-2.893-2.25-4.344v3.156c0 .788.025 1.555.031 2.344zm31-8.75c.034 0 .073.01.094.031.042.042.054.164 0 .188-.079.034-.167.041-.25.063.02-.023.046-.037.063-.063.033-.049-.042-.146 0-.188.021-.021.06-.031.094-.031m20.813 20.469c.043.003.083-.003.125 0 .049.287.085.559.188.969.136.542.378 1.025.531 1.563.16.56.229 1.197.156 1.781-.023.185-.097.354-.156.531-.059.177-.142.35-.188.531-.014.057.042.146 0 .188-.042.042-.129 0-.188 0-.059 0-.115.042-.156 0-.042-.042.019-.132 0-.188-.551-1.652-.375-.1-.375-2.469 0-.884-.129-1.782 0-2.656.013-.085.047-.165.063-.25zm-7.844 15c-.253.352-.516.745-.813 1.156-.146-.008-.292-.023-.438-.031.127-.105.251-.204.375-.313.393-.344.566-.532.875-.813m-12.03 11.219c.362.183.735.342 1.094.531.274.144.632.363.938.531-.861.657-1.689 1.261-2.188 1.594-.329.219-.709.354-1.063.531-.236.118-.59.62-.688.375-.159-.398.152-.866.344-1.25.344-.687.77-1.338 1.25-1.938.076-.095.221-.266.313-.375"/><path d="m3.875 2c-.992.16-2.196.376-3.875.688v5.594c1.307.544 2.051 1.09 5.438 3.125.778.468 1.295.796 1.938 1.188.469.089 1.207.242 1.75.344-.47-3.968-1.19-6.973-2.094-10.938h-3.156m5.25 10.938c.019.16.013.337.031.5.05-.155.105-.312.156-.469-.059-.011-.13-.02-.188-.031m.188.031c.733.137 1.27.245 2.313.438.531.098 1.453.275 2.344.438.55 1.072.5.946.031 0 .108.02.172.042.281.063.058.136.031.069.094.219.223.527.85 2.569 1.625 3.25.089.078-.063-.23-.094-.344-.092-.342-.107-.724-.281-1.031-.566-1-.828-1.445-1.188-2.063 1.264.236 2.581.49 3.406.75.641.202 1.176.708 1.844.781.527.058 1-.363 1.531-.406.484.279.262.276.594.188.057-.015.158.02.188-.031.029-.051-.011-.158-.063-.188-.051-.029-.099.074-.156.063-.082-.017-.14-.098-.219-.125-.125-.042-.246-.067-.375-.094-.129-.026-.372.065-.406-.063-.03-.114.226-.082.344-.094.242-.023.515-.093.75-.031.696.183 1.314.532 2 .75.982.312 2.01.56 3 .844 1.736.497 2.6.708 3.563 1.094l1.75-3.063c1.687-2.923 1.276-2.581 3.438-4.938.177-.193.829-.854 1.406-1.344-.712-1.112-1.476-2.335-2.438-3.875-.736-1.178-.931-1.496-1.344-2.156h-1.25-10.156c-.021.027-.041.072-.063.094-.29.293-.789.206-1.188.313-1.486.398-3.32.992-4.875.938-.844-.029-1.697-.137-2.531-.281-.58 1.261-1.163 2.607-1.719 4 1.22 3.163 1.464 3.694 2.438 5.969-1.448-2.429-.687-.739.031.719-.426-.832-1.161-2.217-2.906-5.594-.628 1.629-1.204 3.24-1.719 4.813m1.719-4.813c.141-.366.293-.731.438-1.094-.16-.415-.094-.278-.313-.844-.531-1.375-1.033-2.75-1.563-4.125.697.264 1.402.51 2.125.688.488.12.972.195 1.469.281.051-.112.105-.234.156-.344.113-.241.23-.479.344-.719h-5.688c.052.148.1.29.156.438.708 1.857 1.775 3.578 2.688 5.344.123.239.071.15.188.375zm26-.125c1.378 2.152 2.584 3.897 4.188 6.156-.129-.847-.298-1.525-.625-2.719.824 1.269 1.72 2.48 2.938 3.844.237 1.116.499 2.277.656 3 .274.375.523.732.813 1.125.226.026.421.033.656.063.88.112 1.753.3 2.625.469.369.368.724.757 1.094 1.125.014-.314.042-.624.063-.938.287.005 2.676-.036 3.406.156.161.042.262.167.406.25.015.057.011.127.063.156.051.029.105-.061.156-.031.149.086-.024.341-.063.375-.044.039-.143.023-.188.063-.062.055-.063.163-.125.219-.237.211-.478.399-.75.563-.433.26-.876.498-1.344.688.114.102.228.213.344.313 1.199 1.032 5.315 3.953 6.75 4.781 1.013.585 2.096 1.036 3.156 1.531.344.161 1.896.994 2.75 1.063v-2.219c-.248-.652-.507-1.311-.813-1.938-.464-.952-3.947-7.204-4.25-7.625-1.186-1.646-2.673-3.089-4-4.625-1.984-2.297-2.84-3.334-3.656-4.25.127-.685.249-1.378.375-2.063 1.046.848 2.103 1.702 3.188 2.5 2.392 1.76 4.05 2.625 6.594 4.094l2.563 1.469v-10.313c-.485-1.11-1.01-2.22-1.531-3.313h-26.531c.508 1.945 1.121 3.22 2.281 5.375-.18.036-.37.072-.531.156-.175.091-.406.287-.656.5m13.969 14.563c-.548-.49-1.104-.98-1.625-1.5-.03.669-.067 1.33-.094 2 .558-.109 1.104-.24 1.625-.438.036-.013.059-.048.094-.063m-1.719.5c-.464.091-.933.15-1.406.188.438.575.875 1.124 1.313 1.688.01-.135.022-.271.031-.406.035-.49.043-.977.063-1.469m-.094 1.875c-.103 1.426-.229 2.859-.375 4.281-.111 1.078-.27 2.144-.406 3.219-.04.315-.038.664-.125.969-.016.057-.105.061-.156.031-.051-.029-.047-.099-.063-.156l-.094-.344-.344-1.375-1.25-4.625c-.551-2.056-.695-2.665-.969-3.688.802.072 1.635.066 2.469 0-.998-1.31-1.959-2.601-2.875-3.844-.204-.024-.397-.042-.594-.063-.078-.345-.126-.636-.219-1.063-.352-.482-.743-.996-1.063-1.438-.751-1.04-1.323-1.865-1.906-2.688.102.668.186 1.527.406 3.281.071.567.167 1.121.25 1.688-2.086-.117-4.01-.134-6.594-.188-.62-.013-1.255-.037-1.875-.063 2.628 1.535 1.328.968 3.375 3.094 1.451.096 2.904.143 4.344.344.379.053.753.156 1.125.25.013.24.029.478.031.719.023 2.311-.375 4.601-.531 6.906-.078 1.146-.152 2.291-.219 3.438 1.714.771 3.81 1.713 4.219 1.906 3.464 1.639 10.236 5.03 13.594 6.969 1.591.918 3.104 1.956 4.656 2.938v-4.156c-.691-.669-1.388-1.346-2.063-2.031-2.477-2.518-7.08-7.41-9.25-9.969-1.072-1.261-2.283-2.777-3.5-4.344m-7.656 8.688c-2.607-1.173-4.442-1.984-6.531-2.906.071-.508.157-1.035.281-1.531.175-.698.476-1.354.719-2.031.266-.744.099-.388.344-.813.042-.072.197-.177.125-.219-.102-.059-.276-.003-.344.094-.217.308-.294.697-.469 1.031-.269.517-.535 1.058-.875 1.531-.341.475-.688.926-1.063 1.375-.261-.114-1.013-.439-1.156-.5-.62-.509-1.204-1.017-1.781-1.469 1.078-.432 1.47-.604 3.406-1.625.481-.253 1.015-.451 1.469-.75 2.395-1.581.559-.508 1.875-1.813.187-.185.532-.198.594-.5.012-.058-.016-.131-.031-.188-.246-.917.082.097-1.281-1.313-.013-.013-.019-.018-.031-.031-.484-.032-.987-.042-1.469-.094-1.969-.213-3.912-.545-5.875-.813-.364-.05-.73-.106-1.094-.156-.22.384-.445.768-.656 1.156-.503.924-.965 1.872-1.438 2.813-2.124-1.462-4.294-2.848-6.938-4.594.239-.061.477-.135.719-.188.255-.056.566-.101.844-.156-.822-.097-1.619-.187-2.438-.313-.052-.008-.104-.023-.156-.031-3.904-2.587-5.996-3.986-9.09-5.906.049.46.113.915.156 1.406.08.899.146 1.941.188 3.03-.244-.121-.489-.241-.75-.313-.234-.064-.476-.004-.719 0-.06-.035-.129-.055-.188-.094.26-.914.533-1.897.938-3.219.086-.28.19-.588.281-.875-.492-.305-1.147-.714-1.719-1.063-1.649-.312-3.133-.578-6.156-1.156-.405-.077-.813-.144-1.219-.219v4.688c.538.614 1.092 1.225 1.625 1.844 1.325 1.537 2.642 3.058 3.969 4.594l1.25 1.438c.011-.216.017-.455.031-.656-1.268-2.01-3.763-5.916-4.063-6.438-.328-.572-.539-1.197-.844-1.781-.198-.38-1.063-1.231-.656-1.094.575.194.862.815 1.25 1.281.693.833 1.304 1.738 1.969 2.594 1.922 2.475 2.22 2.789 2.563 3.25.155-.936.426-1.915.75-3.063.116.238.224.47.406.656.647.662 1.037 1.043 1.313 1.281.031 1.569.049 3.158 0 4.688.373.546.196.306.781 1.156l5.531 8.06c.485-.131.989-.259 1.469-.406.887-.272 1.612-.517 2.281-.75.535.727 1.044 1.481 1.563 2.219-.588 1.13-1.19 2.254-1.813 3.313.834.859 1.683 1.719 2.5 2.594.485.519.938 1.059 1.406 1.594-.264.258-.505.516-.781.781-.016.015-.046.016-.063.031.333.459.669.915 1 1.375.179.248.353.502.531.75.544-.15 1.076-.308 1.625-.438.052.052.103.105.156.156 1.274 1.245 2.802 2.241 4.063 3.5.216.365.427.736.656 1.094.434.678.901 1.349 1.375 2 .006-.222-.004-.396 0-.594.134.169.266.337.406.5.31.36.67.69 1 1.031.092.095.209.171.281.281.077.117.084.479-.313.25-.202-.117-.379-.231-.563-.375.47.659.969 1.299 1.375 2 .553.956.816 1.484 1 1.844-.998-.151-2-.206-3-.375-1.741-.295-3.458-.646-5.188-1-4.98-1.019-7.234-1.667-12.03-2.469.087-.099.294-.12.313-.25.546-3.793-.833 1.731-.031-2.188.034-.165.097-.311.156-.469-1.024.941-1.715 1.521-3.063 2.531-.827-.1-1.644-.227-2.469-.344.14.115.281.254.438.344.255.147.547.185.813.313.15.072.295.163.438.25-.455.337-.794.619-1.438 1.094-.268-.228-.559-.449-.844-.656-.674-.491-1.466-.783-2.156-1.25-.285-.193-.859-.393-.75-.719.008-.023.022-.041.031-.063-2.282-.504-5.421-1.181-6.25-1.375v2.625c.948.986 1.838 2.041 2.781 3.03.653.686 1.332 1.359 2 2.031-.029.051.008.134.063.156.04.016.084.017.125.031.367.37.731.75 1.094 1.125 1.449 1.497 2.872 2.995 4.313 4.5.209.219.418.435.625.656h10.06c-1.795-1.98-2.941-3.102-5.813-5.625-.316-.278-.644-.545-.969-.813 2.01-.112-1.615-.111 5.5-.031 4.38-.115 4.171-.475 8.313-.406 1.304.022 2.603.194 3.906.25.857.036 1.738-.03 2.594.031.351.025.683.102 1.031.156.142.247.196.354.719.281.233-.032.512-.023.719-.125.494.038.976.042 1.469.094.262.028.52.125.781.156.059.007.099-.043.156-.031.208.043.414.162.625.188.117.014.454-.052.344-.094-.568-.213-1.203-.255-1.781-.438-.36-.113-.712-.264-1.063-.406 1.548-1.761 1.739-3.627 2.25-6.125.727-3.554.975-5.31 1.125-7.281.524.116 1.068.248 1.594.344.93.056 1.85.125 2.781.156.486.016.983-.046 1.469-.031.132.004.248.128.375.094.057-.015-.016-.131-.031-.188-.015-.057-.036-.103-.063-.156-.241-.487-.421-1.036-.75-1.469-.527-.693-1.145-1.282-1.781-1.875-.992-.925-2.064-1.773-3.094-2.656l-.188-.156c.009-.149.022-.22.031-.375.076-1.271.145-2.541.219-3.813m-35.28 17.563c.846.187 2.301.529 2.313.531.373.065.75.103 1.125.156-.146-.121-.305-.249-.469-.344-.327-.189-.742-.196-1.031-.438-.287-.239-.302-.751-.625-.938-.43.349-1.095.534-1.313 1.031m1.313-1.031c-.255-.147-.54-.149-.844-.156.281.075.555.148.844.156m0 0c.209.006.452-.105.688-.188l-.688.188m-.844-.156c-.102-.027-.21-.073-.313-.094-.129-.027-.25-.02-.375-.063-.302-.102-.269-.296-.656-.375-.066-.014-.121.027-.188.063.101.125-.003.2.281.281.253.072.521.113.781.156.15.025.312.027.469.031zm-1.531-.469c-.034-.042-.089-.099-.188-.156-.008-.004-.023-.001-.031 0 0-.056.002-.119-.031-.156-.039-.044-.127-.02-.156.031-.029.051-.02.158.031.188.041.024.111-.02.156-.031 0 .067.011.127.063.156.043.025.107-.005.156-.031m10.06.156c.267-.245.642-.606 1-.938.324-.07.64-.109.938-.25.238-.113.407-.346.594-.531.3-.297.507-.454.5-.875-.001-.053-.015-.106-.031-.156.093-.085.188-.166.281-.25l-.344.094c-.003-.01.003-.022 0-.031l-.094-.344c-.068-.254-.075-.47-.344-.625-.051-.029-.105.092-.156.063-.051-.029-.011-.158-.063-.188-.051-.029-.099.047-.156.063l-.188.031c-.108.029-.659.166-.688.188-.414.31-.5.586-.625 1.063-.055.21-.069.265-.094.375-.338.09-.669.201-1 .313-1.828.615-2.469 1.013-3.813 1.813.642.13 1.24.218 1.625.219.648.001 1.249-.332 1.875-.5l1.031-.281c-.067.247-.16.51-.25.75m-4.281-.188c-.164-.033-.329-.087-.5-.125-.113.197-.216.406-.344.594.147-.082.293-.165.438-.25.171-.101.257-.13.406-.219m-.844.469c-.229.127-.447.25-.656.406-.094.071.241-.037.344-.094.115-.064.203-.144.281-.25.014-.019.018-.043.031-.063m.344-.594c.364-.464.723-.917 1.094-1.375.638-.788 1.274-1.609 1.938-2.375 2.411-2.785 2.827-2.787 4.969-6.06.057-.086.1-.193.156-.281 1.156 1.373 2.342 2.745 3.531 4.063.096-.091.186-.19.281-.281-.741-1.02-1.493-2.031-2.219-3.063-.363-.516-.704-1.042-1.063-1.563.076-.125.144-.247.219-.375-.618-.636-1.216-1.282-1.813-1.938-.208-.304-.416-.603-.625-.906l-1.063-1.531c-.123.033-.252.061-.375.094-.643-.755-1.289-1.499-1.938-2.25l-4.125-4.781c.049-.727.099-1.472.125-2.281-1.175-1.722-2.178-3.172-2.469-3.563-.113.685-.163 1.392-.219 2.188.337.533 1.049 1.698 1.063 1.719.175.271.356.54.531.813l-1.625-1.875c-.05.948-.102 2.02-.125 3.406-.064 3.9.024 3.543.875 6.719.076.285.107.586.25.844.04.073.083-.147.125-.219.125-.217.306-.416.375-.656.217-.76.339-1.533.469-2.313.221-1.328.45-2.658.563-4 .011-.132.021-.301.031-.438.624.962 1.243 1.909 1.906 2.844 1 1.409 2.034 2.791 3.094 4.156-.68.174-1.353.318-2.031.5-1.764.473-3.496 1.019-5.281 1.406-1.794.389-3.631.585-5.438.906l-1.656.313v8.188c.167.082.334.166.5.25 2.262 1.152 3.826 1.909 6.219 2.719.729.247 2.333.682 3.75 1zm11.688-6.03c-1.194 1.13-2.407 2.24-3.625 3.344l3.094-.844c.753-.202 1.498-.417 2.25-.625-.572-.607-1.132-1.225-1.719-1.875m1.719 1.875c.18.191.354.409.531.594-.148-.206-.289-.419-.438-.625-.032.009-.062.022-.094.031m.531.594c.739 1.03 1.473 2.069 2.219 3.094.856 1.177 1.764 2.304 2.594 3.5.563.812 1.075 1.66 1.594 2.5.056.091.397 1.01.781.906.114-.031-.101-.226-.094-.344.071-1.181.301-2.349.344-3.531-.072-.055-.145-.105-.219-.156-4.425-3.071-2.841-1.424-7.06-5.813-.049-.051-.107-.105-.156-.156m7.438 6.125c.277.212.538.441.813.656-.039-.054-.087-.102-.125-.156-.222-.318-.459-.624-.688-.938-.004.152.006.243 0 .406 0 .01 0 .021 0 .031zm-22.75-38.31c.027.017.067.046.094.063-.01-.092-.021-.19-.031-.281-.023.071-.04.148-.063.219m19.25 7.281c.403-.704.808-1.394 1.219-2.094-2.368.094-5.909.6-8.594 1.125.853.1 1.711.201 2.563.313 1.6.21 3.214.437 4.813.656zm1.219-2.094c1.281-.051 2.562.01 3.844.063-.167-.098-.204-.133-.406-.25-1.162-.671-1.88-1.01-2.563-1.281l-.375.625c-.165.286-.333.559-.5.844m23.22-16.531c.846.654 1.649 1.328 2.094 1.719.297.261.519.579.781.875.175.197.742.436.531.594-.343.257-.861.055-1.281-.031-.753-.154-1.515-.379-2.219-.688-.111-.049-.308-.159-.438-.219.083-.397.16-.792.25-1.188.07-.307.196-.718.281-1.063m-45.28 15.09c.034-.011.076.008.094.031.046.059.087.123.125.188-.029-.014-.063-.021-.094-.031-.056-.019-.105.092-.156.063-.051-.029-.092-.136-.063-.188.015-.026.059-.052.094-.063m1.156 32.5c-.071.004-.147.044-.219.063.082.017.137.108.219.125.058.012.099-.047.156-.063.057-.015.239-.002.188-.031-.112-.065-.224-.101-.344-.094"/></g><g color="#000"><path d="m0 2v32 28l2 2h30 30l2-2v-28-32h-32z" fill="#2485ea"/><g fill="#fff"><path d="m4 2v3h-4v1h4v14h-4v1h4v14h-4v1h4v14h-4v1h4v13h1v-13h14v13h1v-13h14v13h1v-13h14v13h1v-13h14v-1h-14v-14h14v-1h-14v-14h14v-1h-14v-14h14v-1h-14v-3h-1v3h-14v-3h-1v3h-14v-3h-1v3h-14v-3h-1m1 4h14v14h-14v-14m15 0h14v14h-14v-14m15 0h14v14h-14v-14m-30 15h14v14h-14v-14m15 0h14v14h-14v-14zm15 0h14v14h-14v-14m-30 15h14v14h-14v-14m15 0h14v14h-14v-14zm15 0h14v14h-14v-14" fill-opacity=".158"/><path d="m9 2v8h-9v1h9v4h-9v1h9v9h-9v1h9v4h-9v1h9v9h-9v1h9v4h-9v1h9v9h-9v1h9v4h-9v1h9v3h1v-3h4v3h1v-3h9v3h1v-3h4v3h1v-3h9v3h1v-3h4v3h1v-3h9v3h1v-3h4v3h1v-3h4v-1h-4v-4h4v-1h-4v-9h4v-1h-4v-4h4v-1h-4v-9h4v-1h-4v-4h4v-1h-4v-9h4v-1h-4v-4h4v-1h-4v-8h-1v8h-4v-8h-1v8h-9v-8h-1v8h-4v-8h-1v8h-9v-8h-1v8h-4v-8h-1v8h-9v-8h-1v8h-4v-8h-1m1 9h4v4h-4v-4m5 0h9v4h-9v-4m10 0h4v4h-4v-4m5 0h9v4h-9v-4m10 0h4v4h-4v-4m5 0h9v4h-9v-4m10 0h4v4h-4v-4m-45 5h4v9h-4v-9m5 0h9v9h-9v-9m10 0h4v9h-4v-9m5 0h9v9h-9v-9m10 0h4v9h-4v-9m5 0h9v9h-9v-9m10 0h4v9h-4v-9m-45 10h4v4h-4v-4m5 0h9v4h-9v-4m10 0h4v4h-4v-4m5 0h9v4h-9v-4m10 0h4v4h-4v-4m5 0h9v4h-9v-4m10 0h4v4h-4v-4m-45 5h4v9h-4v-9m5 0h9v9h-9v-9m10 0h4v9h-4v-9m5 0h9v9h-9v-9m10 0h4v9h-4v-9m5 0h9v9h-9v-9m10 0h4v9h-4v-9m-45 10h4v4h-4v-4m5 0h9v4h-9v-4m10 0h4v4h-4v-4m5 0h9v4h-9v-4m10 0h4v4h-4v-4m5 0h9v4h-9v-4m10 0h4v4h-4v-4m-45 5h4v9h-4v-9m5 0h9v9h-9v-9m10 0h4v9h-4v-9m5 0h9v9h-9v-9m10 0h4v9h-4v-9m5 0h9v9h-9v-9m10 0h4v9h-4v-9m-45 10h4v4h-4v-4m5 0h9v4h-9v-4m10 0h4v4h-4v-4m5 0h9v4h-9v-4m10 0h4v4h-4v-4m5 0h9v4h-9v-4m10 0h4v4h-4v-4" fill-opacity=".056"/></g><path d="m2 0l-2 1v1h32 32v-1l-2-1h-30" fill="#5abaff"/></g><path d="m0 1v3l2-2" fill="#5ecaff"/><path d="m64 4l-2-2 2-1" fill="#409ff4"/><g color="#000"><path d="m10.518 10.375c-.001 0-.031.004-.045.008-.014.004-.027.009-.037.016-.021.013-.035.025-.045.037-.019.023-.026.042-.033.059-.014.033-.02.063-.027.1-.015.073-.028.167-.039.279-.023.225-.04.524-.055.834-.001.019-.001.026-.002.045-.139-.022-.277-.051-.424-.051h-.354v.299c.04 0 .084.01.125.012-.001.011-.009.019-.008.031.004.036.02.083.055.117.035.034.077.049.109.053.042.005.064-.005.09-.012-.011.089-.026.191-.039.309-.031.273-.061.572-.039.771.139 1.252.09 2.508.176 3.795.009.133.048.243.064.371-.019.313-.048.621-.064.936-.025.482.012.973.027 1.449h-.406c-.125 0-.329.024-.488.047-.08.011-.142.021-.189.033-.012.003-.022.004-.043.014-.005.002-.011.006-.02.012-.004.003-.015.012-.016.012 0 0-.019.017-.02.018 0 0-.023.037-.023.037 0 0-.014.064-.014.064 0 0 .017.066.018.066 0 0 .031.043.031.043 0 0 .046.029.047.029.001 0 .019.006.025.008.013.003.02.003.027.004.015.001.029.002.045.002h1.033c-.002.18-.011.357-.033.529-.043.012-.095.025-.131.035-.088.026-.143.041-.203.074-.015.008-.032.015-.059.049-.007.009-.021.032-.021.033 0 .001-.014.056-.014.057 0 .001.013.068.014.068 0 .001.031.048.031.049.001.001.024.018.033.023.009.006.016.011.023.014.014.006.025.008.035.01.02.004.035.005.053.006.038.002.117-.006.176-.01-.003.019-.009.059-.012.076-.052.008-.109.018-.109.018l-.002.02c0 0 0 .006 0 .008 0 .007 0 .011 0 .016 0 .001 0 .006 0 .006l.002.012c0 .004 0 .002 0 .008 0 .002 0 .005 0 .008.002.075.006.285.006.775 0 1.214-.178 2.401-.178 3.625 0 1.28.204 2.741.002 3.951-.233 1.399-.186 2.713 0 4.111.117.874-.175 1.875 0 2.836.158.868.317 1.928.602 2.818-.003.62.016 1.24.016 1.84 0 .935-.216 1.856-.352 2.807-.155 1.088.099 2.141.266 3.139.054.322.043.72.064 1.104.007.516.021 1.034.021 1.551-.001.132-.017.704-.035 1.256-.009.257-.017.496-.025.691-.009.044-.016.081-.023.123-.014.076-.023.145-.025.207-.001.031-.003.059.008.1.005.02.013.047.039.076.026.03.08.057.125.057 0 0 .08-.023.08-.023 0 0 .037-.033.037-.033 0 0 .021-.037.021-.037 0-.001.008-.025.01-.031.003-.013.005-.021.006-.031.002-.02.004-.046.006-.076.004-.061.009-.145.014-.248.001-.012.001-.031.002-.043.021-.107.046-.219.061-.309.049-.294.016-.59.002-.893.142.778.365 1.548.357 2.328l.15.002.121.088c.074-.101.135-.202.197-.299.008.021.016.04.025.063-.006.039-.023.075-.018.119.006.05.028.111.078.156.05.045.116.063.174.063 0 0 .074-.02.074-.02l.053-.047.018-.041c0 0 .006-.025.006-.025 0 0 0-.029 0-.029 0 0-.001-.01-.002-.014-.002-.014-.004-.02-.006-.025-.003-.011-.006-.017-.01-.027-.008-.02-.017-.047-.029-.078-.009-.021-.021-.053-.031-.078.002-.01.001-.01.004-.02.029-.095.065-.214.102-.328.078.018.173.043.289.023 1.409-.235 2.884-.184 4.35-.184-.329.069-.808.183-1.305.291-.537.116-1.073.213-1.301.213-.41 0-.705.174-1.014.332-.075.001-.15.021-.225.021-.007 0-.013.001-.023.002-.005.001-.023.004-.023.004 0 0-.027.01-.027.01 0 0-.021.014-.021.014 0 0-.033.029-.033.029 0 0-.029.06-.029.061 0 0 .004.076.004.076 0 0 .025.049.025.049l.021.023c0 0 .029.019.029.02 0 0 .012.004.016.006.016.006.021.007.027.008.025.005.043.008.07.01.027.002.059.004.092.002.033-.002.064-.001.117-.027.012-.006.021-.006.033-.012 2.36-.038 4.661-.52 6.98-.68 1.177-.081 2.414 0 3.615 0h6.717c3.036 0 6.085.067 9.09.354.934.089 1.865-.092 2.738 0 2.264.238 4.548.176 6.822.176 1.72 0 3.548.129 5.232-.129l-.047-.297c-1.637.251-3.451.127-5.186.127-2.28 0-4.554.06-6.791-.176-.934-.098-1.867.083-2.742 0-.612-.058-1.227-.101-1.842-.143h2.801c1.685 0 3.373-.055 5.05-.105.758-.013 1.507-.03 2.338-.033.896-.006 1.791.049 2.684.049 1.038 0 2.072-.037 3.074.088.366.046.749.002 1.08.002h.441v-.301c-.627 0-1.227-.093-1.846-.188.018-.022.05-.051.066-.068l-.109-.104.15.014c.009-.102.056-.24.031-.41 0 0-.033-.074-.033-.074 0 0-.035-.031-.035-.031 0 0-.021-.012-.021-.012 0 0-.012-.005-.016-.006-.016-.005-.024-.005-.031-.006-.015-.002-.026-.003-.039-.004-.02-.001-.046-.001-.072-.002.135-.406.16-.84.16-1.258 0-.316.038-.651.082-.992.043.206.093.407.156.598.054.161.049.366.088.551-.001.137-.01.324-.01.447.002.3.008.555.023.748.008.096.018.177.031.244.013.067.012.116.076.186.075.081.171.107.244.121.013.002.017.004.029.006.015.011.015.03.033.037.079.029.152.009.215-.02.036-.017.073-.053.088-.09.015-.036.014-.068.012-.092-.005-.047-.018-.074-.031-.104-.026-.057-.063-.114-.1-.172.02-.076.043-.156.064-.219.013-.039.026-.072.035-.096.004-.012.007-.022.01-.029.001-.004.003-.005.004-.008 0-.001.001-.004.002-.006.001-.002.006-.019.006-.02v-.002c.137-.686.209-1.35.268-2.049.215-2.575-.077-5.158.176-7.688.129-1.286.002-2.64.002-3.904 0-.931.16-2.06-.002-3.03-.096-.575-.176-.982-.176-1.566 0-.199-.014-.47-.01-.686.004-.03.004-.06.008-.09.22-1.539-.153-3.146.088-4.592.378-2.268.202-4.604.176-6.904.117-.009.266-.009.369-.021.183-.022.34-.047.467-.084.126-.037.236-.065.301-.195.054-.108.052-.244-.008-.34-.06-.096-.152-.154-.256-.199-.083-.036-.211-.043-.313-.066v-.143h-.176-.395c.015-.836.064-1.664.189-2.479.232-1.509-.152-3.058-.471-4.49.077-.009.162-.013.219-.037.082-.035.146-.077.238-.125.012.001.027.006.047.01.021.004.033.009.078.01.006 0 .013.001.021 0 .008-.001.03-.006.031-.006.001 0 .052-.029.053-.029 0 0 .049-.074.049-.074 0-.001.002-.079.002-.08 0 0-.008-.025-.008-.025 0 0-.007-.013-.01-.018-.012-.02-.02-.029-.027-.037-.031-.031-.086-.006-.121-.029.006-.001.011 0 .014 0 .024 0-.002-.001-.023-.006-.017-.003-.042-.008-.066-.012-.194-.097-.408-.153-.629-.154-.005-.025-.013-.051-.018-.076-.005-.026-.01-.04-.02-.074-.01-.034-.023-.077-.039-.127-.032-.099-.076-.224-.123-.344-.048-.119-.098-.231-.156-.32-.029-.045-.056-.086-.113-.121-.029-.017-.07-.034-.119-.031-.049.003-.096.03-.125.059-.055.055-.066.103-.082.16-.016.058-.028.124-.039.201-.013.095-.021.234-.029.359-.547-.003-1.167-.033-1.809-.117-.879-.116-1.729-.311-2.197-.545-.082-.041-.171-.055-.283-.068-.113-.013-.246-.02-.395-.023-.297-.006-.656.006-1.012.025-.356.019-.709.046-.994.072-.286.027-.494.05-.596.07-1.445.289-3.116-.261-4.68 0-1.176.196-2.215.352-3.422.352h-2.719c-2.274-.35-4.565.031-6.631-.264-.712-.102-1.315-.18-2.053-.18-3.596 0-7.209.09-10.783.09-.149 0-.602.022-1.035.057-.216.017-.425.038-.584.059-.079.011-.145.021-.199.033-.027.006-.051.012-.078.023-.013.006-.027.012-.047.027-.01.008-.021.018-.033.035-.006.008-.017.031-.018.031 0 .001-.012.04-.012.041-.006.049 0 .09.002.135-.012 0-.025.001-.037 0-.208-.011-.402-.024-.625-.031-.381-.013-.766-.019-1.084-.016-.185.002-.283.019-.412.029.002-.031.003-.038.004-.068.004-.093.007-.184.004-.262-.002-.039-.005-.072-.012-.107-.007-.035.004-.081-.084-.139-.174-.114-.357-.171-.508-.242l-.129.27c.16.076.307.129.43.201.001.011.001.017.002.031.003.06.002.146-.002.234-.002.044-.003.064-.006.105-.04.011-.066.028-.1.043-.042.019-.093.036-.125.053-.061.031-.105.047-.135.047-.009 0-.022-.004-.031-.004-.09-.334-.248-.632-.303-.908.001.005.018-.108.043-.211.012-.051.027-.102.016-.176-.006-.037-.023-.087-.064-.125-.042-.038-.099-.051-.143-.051m38.19 1.02c.142.003.268.01.365.021.097.011.169.032.184.039.281.141.784.203 1.201.301-.646.003-1.3.034-1.908-.053-.723-.103-1.509-.142-2.316-.154.085-.014.252-.035.502-.059.282-.026.633-.053.984-.072.351-.019.704-.029.988-.023m-22.1.076c.622 0 1.154.062 1.744.143h-1.922-8.131c-1.338 0-2.668.088-3.979.088-.059 0-.131-.001-.197 0 0-.002 0-.006 0-.008.035-.007.068-.014.121-.021.149-.02.355-.038.568-.055.427-.034.899-.059 1.012-.059 3.579 0 7.192-.088 10.783-.088m-16.06.055c.037.091.059.183.092.277-.037-.006-.07-.009-.107-.016.001-.027.001-.037.002-.064.003-.074.01-.126.014-.197m43.17.006c.02.043.039.071.059.121.027.067.047.131.07.197-.045.002-.106-.001-.154 0 .008-.111.014-.239.025-.318m-12.242.025c.109-.018.239.01.35 0-.177.007-.336.01-.512.018.055-.009.107-.008.162-.018m4.186.244c-.624.019-1.281.068-1.871.016.63-.013 1.26-.027 1.871-.016m-27.367.111h3.26c-1.072.044-2.148.069-3.223.092-.376-.021-.737-.071-1.109-.068.357-.009.715-.023 1.072-.023m22.23.006c.998 0 1.971.009 2.938.17.809.135 1.734.002 2.5.002.931 0 1.821.02 2.711.078-.526.051-1.051.107-1.576.152-1.026.089-2.103-.098-3.182 0-1.696.154-3.412.197-5.135.205-.728-.015-1.457-.016-2.188-.004-1.298-.011-2.598-.025-3.891-.025-.92 0-1.815.043-2.707.088h-4.316c-.532-.052-1.062-.12-1.623-.176-.799-.08-1.476.006-2.188-.172-.116-.029-.237-.007-.357-.023 2.49-.102 4.983-.213 7.48-.213h7.322c.355.013.714.01 1.074 0 .003 0 .007 0 .01 0 .165-.005.323-.005.488-.012.844-.01 1.723-.033 2.639-.07m-27.994.01c.392.013.801.051 1.193.072.042.002.081.004.125.006 0 .002 0 .004 0 .006l.045-.004c.108.005.22.01.309.016.304.021.548.048.613.063.104.023.204.002.309.02-.439.019-.729.029-1.221.043-.529.015-1.052.023-1.49.012-.328-.009-.582-.034-.775-.066 0-.023.002-.044.002-.066 0-.002.003-.048.004-.057.277-.04.573-.054.887-.043m-2.387.137c.027.004.053.004.08.008-.017.457-.033.961-.033 1.104 0 .314.015.634.037.955-.009.116-.035.326-.037.359-.019.245-.032.492-.051.736-.016-.658-.018-1.313-.092-1.979-.014-.126.009-.438.039-.705.015-.134.031-.258.043-.354.006-.048.01-.088.014-.119 0-.002 0-.004 0-.006m.379.039c.07.008.139.014.209.02.016.097.02.194.033.291-.01-.004-.033-.012-.033-.012-.001 0-.054-.002-.055-.002-.001 0-.066.025-.066.025 0 0-.043.046-.043.047 0 .001-.014.028-.018.039-.006.022-.006.035-.006.047 0 .001.015.066.016.066 0 .001.031.042.031.043.001.001.018.016.025.021.006.004.012.007.018.01.003.004.009.01.012.014-.037.021-.07.047-.096.076-.022.025-.032.058-.049.086.003-.188.01-.451.021-.771m43.15.029c.096.007.194.015.271.014.001.007.004.014.006.021-.104.006-.193.005-.277.004 0-.011 0-.028 0-.039m-42.639.053c.084.05.173.104.287.145-.001.03-.002.06-.004.09-.085.002-.187.007-.258.008-.008-.081-.015-.162-.025-.242m7.309.117c.264.016.55.002.809.049.882.16 1.871-.017 2.641.176.11.027.215.039.322.057h-3.732c-.709 0-1.436-.01-2.084-.172-.124-.031-.25-.032-.375-.037.166-.006.496-.021.604-.021.61 0 1.209-.038 1.816-.051m34.832.031c.041.038.091.076.158.1.011.004.025 0 .037.004-.002.079-.001.169-.002.252-.054.003-.105.008-.164.008-.01-.121-.022-.244-.029-.363m-.531.012c-.02.096-.027.226-.041.34-.016-.001-.031-.001-.047-.002-.005-.011-.015-.031-.016-.031 0-.001-.045-.045-.045-.045 0 0-.078-.023-.078-.023 0 0-.064.013-.064.014-.051.022-.079.051-.123.078-.433.001-.866.011-1.299.016.452-.042.858-.195 1.271-.334.118-.003.253 0 .357-.006.032-.002.054-.004.084-.006m-2.523.008c.08-.004.497.003.793.008-1.01.101-2.059.117-3.03.225-1.797.2-3.595.199-5.402.121.485-.029.972-.044 1.455-.088 1.025-.093 2.101.094 3.18 0 1.01-.088 1.993-.215 3-.266m-38.496.041c.027.004.049.01.078.014-.029.001-.05.001-.078.002 0-.005 0-.01 0-.016m3.652.004c-.251.026-.488.038-.711.025.281-.011.463-.015.711-.025m38.736.07c.005.024.01.05.016.074-.034.01-.092.011-.119.023-.068.031-.141.059-.242.09.001-.059.002-.125.004-.182.113.002.226.003.342-.006m.311.008c.011.003.021.006.035.006-.011.001-.024.004-.033.006-.001-.004-.001-.008-.002-.012m-41.01.105c.312-.005.685.065.973.123.341.068.688.025 1.02-.01.332-.034.647-.06.918.008.696.174 1.447.182 2.158.182h4.945c-.53.004-1.05.053-1.586.053h-8.574c-.537 0-.985-.063-1.467-.229.032-.001.056-.002.088-.004.278-.013.561-.029.785-.045.112-.008.209-.016.285-.023.076-.007.118-.009.168-.021.086-.021.183-.032.287-.033m40.773.248c.318 1.443.695 2.958.475 4.391-.129.835-.184 1.679-.215 2.523-.123.001-.256.013-.383.02-.042 0-.072-.003-.119-.004-.016-.196-.023-.413-.047-.592-.053-.394-.082-.537-.123-.652.018-.78.035-1.559.035-2.334 0-.081-.011-.393-.023-.848-.012-.455-.026-1.042-.031-1.627-.002-.266.008-.483.01-.736.006-.001.013 0 .02-.002.183-.046.282-.099.348-.129.015-.007.041-.005.055-.01m-42.98.076c.078.011.122.021.184.031-.028.299-.065.596-.102.895-.005-.03-.009-.058-.014-.088-.029-.278-.05-.557-.068-.838m40.877.07l.094.15c.059-.038.101-.063.152-.1-.027.187-.057.432-.057.68v1.414c0 .981.256 1.917.504 2.84.042.591.078 1.183.121 1.771-.177-.002-.367-.01-.547-.014-.03-.04-.051-.076-.084-.117-.182-.231-.376-.452-.445-.521-.482-.482-1.289-.623-2.115-.623-.826 0-1.681.151-2.275.32-.408.116-1.023-.053-1.563-.004-1.19.108-2.488-.088-3.721.088-1.068.153-2.171.225-3.266.354-.523.062-1.088-.056-1.676 0-1.939.185-3.857.222-5.791.264-.796.015-1.586.003-2.381 0-.155-.026-.249-.049-.639-.088-1.08-.108-2.168.128-3.178.002-1.379-.172-3.227-.296-5.094-.303-1.367-.005-2.741.054-3.951.199-.826-.028-1.732-.087-2.5.105-.325.081-.632.272-.9.496-.209-.006-.418-.011-.627-.021-.02-.003-.028-.02-.049-.02-.005 0-.01.007-.016.008-.008.001-.014-.006-.021-.004-.006.002-.011.009-.018.012-.044-.002-.087-.002-.131-.004-.016-.265-.041-.529-.088-.789-.034-.184-.062-.311-.088-.398-.013-.044-.024-.078-.039-.109-.009-.019-.034-.041-.053-.063.003-.137.006-.217.006-.553 0-.801-.153-1.564-.211-2.344.058-.849.191-1.697.258-2.588.526.181 1.021.221 1.57.221h8.574c1.786 0 3.545.009 5.318-.178 1.788-.188 3.72.002 5.553.002h12.463c2.308 0 4.613-.078 6.908-.086m.555.01c.009.001.02.001.029.002-.004.056-.014.099-.018.156-.035.601-.023 1.236-.023 1.357 0 .571.026 1.129.051 1.688-.062-.356-.104-.711-.104-1.068v-1.414c0-.225.028-.467.055-.65.004-.029.006-.045.01-.07m.826.025c-.001.241-.01.448-.008.699 0 .032.002.056.002.088-.001-.009-.002-.018-.004-.027-.015-.089-.056-.156-.084-.236-.014-.173-.026-.346-.041-.521.046 0 .09.001.135-.002m-42.637.055c.004.014.007.019.012.035.037.138.079.331.115.533.036.202.068.412.092.588.002.016.002.018.004.033.011.167.023.335.033.502v1.512c0 .198-.081.435-.143.658.003-.116.02-.208 0-.328-.135-.812-.254-1.655-.313-2.479.014-.173.016-.289.051-.506.031-.192.074-.379.123-.502.009-.023.016-.029.025-.047m42.12.145c.01.024.009.057.02.08.045.104.068.194.104.289.142 1.744.254 3.494.227 5.227-.076-.34-.164-.677-.254-1.014-.066-1.086-.117-2.178-.117-3.291 0-.134-.008-.726.021-1.291m-31.28 1.123c-.053.003-.1.016-.15.033-.101.034-.211.088-.32.146-.219.118-.434.26-.504.307-.024.016-.044.04-.066.059-.151.029-.307.073-.465.131-.343.126-.68.309-.906.535-.111.111-.156.268-.137.412.019.144.09.28.188.412.065.088.159.171.248.256-.004.037-.015.075-.012.111.014.15.089.281.195.381.212.2.537.3.893.324.091.006.182-.039.275-.051.012.003.023.005.035.008.271.226.512.506.752.602.059.024.227.129.406.209.179.08.394.154.6.051.162-.081.233-.235.287-.367.054-.133.098-.26.125-.301.285-.428.282-.865.078-1.199-.126-.207-.394-.309-.623-.441.025-.091.074-.175.023-.277-.03-.06-.106-.097-.152-.152-.013-.062-.014-.138-.029-.193-.03-.111-.063-.207-.098-.283-.017-.038-.035-.072-.059-.104-.007-.009-.029-.015-.037-.025l.002-.002c-.103-.149-.189-.355-.365-.521-.06-.057-.131-.062-.184-.059m-6.04.27c-.044 0-.089.009-.131.029-.096.048-.1.175-.162.258-.146.018-.294-.038-.434.006-.476.149-.903.458-1.15.953-.194.388-.141.801.053 1.152.093.169.287.28.434.424.085.082.079.228.188.285.036.019.091.009.129.025.059.042.086.109.148.146.378.227.805.378 1.213.412.408.034.807-.053 1.082-.328.145-.145.148-.333.219-.516.252-.169.523-.331.613-.604.161-.482.036-.935-.248-1.273-.035-.042-.109-.047-.148-.086-.056-.206-.13-.405-.27-.553-.152-.161-.38-.256-.643-.229-.118.012-.204.066-.271.1-.068.034-.11.048-.137.045-.024-.002-.103-.055-.197-.127-.047-.036-.099-.074-.168-.1-.035-.013-.076-.022-.119-.021m6.04.035c.052.054.102.143.148.219-.086.032-.163.08-.229.146-.065.066-.091.176-.141.264-.017.011-.032.024-.049.035-.016-.001-.021-.001-.037-.002-.128-.009-.253-.027-.385.039-.119.06-.173.164-.213.271-.097.044-.171.13-.273.17.063-.261.178-.483.297-.617.109-.015.217-.026.287-.016l.033-.229c.085-.053.135-.089.234-.143.101-.055.2-.101.271-.125.026-.009.041-.011.055-.014m5.641.061c-.145.012-.284.048-.41.111-.038.019-.067.048-.1.072-.018.005-.033.007-.053.012-.149.037-.322.092-.492.15-.341.116-.656.238-.77.295-.11.055-.168.185-.166.295.002.11.042.217.1.33.05.098.168.201.248.305-.001.044-.05.083-.045.127.033.263.165.513.35.723.016.018.042.025.059.043.01.021-.003.05.008.07.161.286.418.51.693.668.087.05.178.081.268.117.042.02.085.042.127.055.15.049.298.08.438.084.131.003.254-.014.363-.066.109-.053.201-.147.242-.27.019-.057.013-.11.025-.166.117-.176.179-.397.23-.621.051-.006.103.008.15-.039.118-.118.18-.268.266-.354.26-.26.342-.568.273-.842-.029-.117-.092-.221-.162-.322.07-.134.149-.262.254-.373l-.219-.207c-.103.109-.182.226-.252.346-.046-.042-.082-.091-.133-.129-.162-.12-.365-.179-.559-.252 0 0 0-.002 0-.002 0 0-.002 0-.002 0-.099-.037-.184-.108-.285-.129-.151-.031-.302-.043-.447-.031m-10.629.352c.095.017.198.022.264.092.018.019.025.061.041.084-.103-.06-.191-.13-.305-.176m-.4.115c.009.002.018-.002.027 0 .354.09.628.288.859.496.033.157.004.287.008.451-.067-.053-.119-.116-.191-.166-.047-.033-.085-.06-.133-.092-.005-.032-.006-.069-.016-.098-.013-.036-.028-.073-.064-.109-.036-.037-.107-.066-.168-.057-.01.002-.01.01-.02.012.016-.064-.004-.143-.035-.174-.033-.034-.063-.047-.094-.061-.057-.024-.124-.04-.201-.055.005-.026.009-.051.023-.111.003-.01.002-.026.004-.037m10.832.047c.002.004.004.006.006.008-.01.032-.007.066-.029.098-.029.017-.063.034-.1.049.032-.049.048-.098.123-.154m.799.041c.188.06.361-.011.514.102.068.05.116.108.17.164-.079.183-.144.368-.211.539-.002.004-.006.006-.008.01-.034-.109-.066-.219-.135-.322-.032-.047-.127-.122-.188-.186-.027-.042-.058-.071-.092-.092-.06-.057-.086-.103-.158-.158-.002-.002-.004-.002-.006-.004.044-.017.067-.035.113-.053m-7.57.02c-.073.152-.132.318-.168.494-.014.068.03.124.021.193-.171.11-.394.138-.512.314-.007.011-.009.022-.016.033-.036-.039-.087-.079-.115-.117-.079-.106-.121-.203-.131-.273-.009-.07.001-.11.051-.16.175-.175.485-.35.797-.465.025-.009.047-.011.072-.02m6.168.008c-.016.042-.032.083-.043.127-.209.019-.415.063-.578.227-.089.089-.063.205-.107.309-.023-.037-.079-.082-.096-.115-.045-.088-.066-.164-.066-.199-.001-.036-.006-.016.002-.02.059-.029.402-.169.732-.281.055-.019.103-.031.156-.047m.838.238c.039.025.074.043.115.059.052.02.111.039.166.061.055.021.107.043.143.063.013.007.007 0 .014.006.009.009.013.015.021.023.026.067-.001.225.012.334-.075-.098-.111-.231-.199-.311-.1-.089-.209-.154-.324-.205.001-.002.001-.004.002-.006.014-.008.034-.015.051-.023m-11.752.037c.139.002.244.017.361.029.023.022.044.042.049.068.003.016-.075.089-.082.115-.14-.069-.286-.165-.416-.17-.005 0-.01.004-.016.004.018-.014.037-.028.055-.043.016-.001.032-.004.049-.004m-.57.041c-.14.087-.298.154-.424.258-.01-.01-.032-.02-.039-.029-.019-.025-.023-.038-.027-.051.03-.025.057-.051.092-.074.076-.037.173-.074.303-.098.029-.005.063-.005.096-.006m6.568.021c.022.001.05.006.07.006.05 0 .083.01.125.016-.068 0-.137.003-.205-.004.002-.007.007-.011.01-.018m-11.09.076c.046.319.085.642.137.953.054.323-.07.726 0 1.148.11.662.153 1.346.176 2.035h-.043c-.007-.073-.003-.148-.012-.221-.095-.763-.279-1.452-.375-2.176.036-.581.078-1.16.117-1.74m16.439.018c.008.003.017.005.025.008-.023.084-.09.166-.066.244.058.196.213.348.363.496-.123-.052-.252-.088-.373-.209-.041-.041-.029-.146-.057-.213.05-.083.038-.258.107-.326m-.656.068c-.07.123-.241.21-.301.381.022-.107.013-.218.111-.316.054-.054.129-.031.189-.064m2.51.045c.005.016.02.031.023.047.044.178.009.353-.195.557-.083.083-.11.136-.156.207-.001-.056-.013-.112-.018-.168.087-.094.166-.19.209-.301.046-.117.092-.228.137-.342m-1.602.004c.074.044.15.085.219.146.158.142.273.338.367.547-.077-.049-.154-.099-.225-.158-.178-.15-.318-.326-.365-.486-.005-.016.005-.032.004-.049m-6.205.059c-.018.074-.004.131.016.182l-.029.023c.029.037.046.058.066.082-.04.007-.081.008-.119.025.029-.1.045-.208.066-.313m5.512.006c.019.044.04.087.053.135-.077.17-.183.306-.236.508-.026-.021-.055-.039-.08-.061.008-.057-.036-.098-.016-.158.063-.19.169-.316.279-.424m-11.01.006c.063.003.174.077.256.111-.042.048-.043.072-.082.115-.104-.064-.193-.131-.242-.205-.001-.002-.001-.008-.002-.01.023-.002.048-.013.07-.012m-1.393.018c-.038.067-.044.157-.072.23.015-.055-.038-.108-.01-.164.017-.035.063-.034.082-.066m7.447.008c.185.019.375-.017.545.039.058.019.074.067.129.09.001.018.009.035.01.053-.035.069-.075.134-.096.215-.026.102-.093.168-.166.23-.072-.138-.199-.208-.346-.275-.029-.013-.06-.022-.09-.033-.014-.099.004-.209.014-.318m-.879.057c-.009.051-.023.129-.031.152-.087.261-.056.47.002.66-.029-.026-.069-.05-.088-.078-.086-.128-.064-.381-.059-.611.066-.032.12-.079.176-.123m-5.508.004c.001.035-.005.074.014.102.034.051.088.081.131.123-.104-.015-.216-.058-.324-.105.021-.014.005-.042.031-.055.059-.029.1-.044.148-.064m1.354.004c.019.013.037.026.057.039.005.139-.012.339-.043.543-.005.002-.016.009-.02.01-.155-.135-.359-.215-.566-.309-.007-.003-.013-.007-.02-.01.019-.048.031-.096.072-.146.009.006.011.002.02.008l.008-.014c.073.051.173.076.24.051.076-.029.127-.073.176-.115.035-.031.054-.041.076-.057m-2.184.025c.025.031.069.055.104.082-.128.318-.068.655.111.93.086.131.209.238.346.334.057.067.114.134.178.193-.134-.018-.264-.039-.371-.084-.139-.101-.239-.216-.346-.334-.081-.108-.229-.181-.229-.336 0-.334.08-.578.207-.785m13.793.209c.012.04.031.078.039.119-.017.02-.037.036-.051.059.005-.06.007-.118.012-.178m-11.27.006c.13.095.247.19.326.279-.008.08.016.202.004.262-.003.016-.016.03-.02.047-.039-.096-.064-.2-.17-.303-.045-.044-.103-.055-.158-.057.009-.081.015-.155.018-.229m3.375.033c.009.179-.018.369.033.525-.133-.081-.262-.167-.373-.258.013-.029.021-.056.043-.09.065-.097.208-.105.297-.178m2.33.018c.142.084.307.156.375.268.15.246.167.519-.07.875-.076.114-.107.243-.152.355-.046.113-.099.191-.143.213-.059.03-.195.009-.346-.059-.151-.067-.291-.161-.416-.211-.081-.032-.174-.114-.273-.205.162-.011.317-.055.426-.178.018-.021-.013-.068.002-.092.081-.053.21-.013.268-.1.064-.097.098-.205.146-.309.004-.006.012-.01.016-.016.011-.017.01-.04.02-.059.068-.162.134-.322.148-.484m-7.73.084c.146.068.3.132.459.15.128.015.255-.005.375-.049.052.026.103.057.154.08.234.106.456.202.525.271.033.033.075.049.117.057-.034.145-.063.298-.111.418-.035.088-.076.159-.115.217-.237.021-.481.006-.707-.084-.128-.051-.243-.124-.352-.199-.045-.05-.095-.095-.135-.148-.154-.209-.255-.441-.264-.623-.002-.041.048-.055.053-.09m6.311.092c.056.001.135.032.209.053.064.15.152.29.303.381-.033.02-.037.066-.072.084-.134.066-.289.078-.445.092-.021-.018-.048-.025-.068-.045l.154-.105c-.172-.252-.194-.403-.188-.43.003-.014-.001-.009.012-.016.013-.007.047-.014.096-.014m5.557.014c.193.188.36.236.537.313-.066.025-.125.05-.193.078l.037.09c-.04-.01-.076-.007-.117-.021-.121-.044-.242-.108-.359-.184.019-.117.077-.165.096-.275m-9.166.115c.019.052.035.104.014.168-.002.006-.013.009-.016.016.002-.061.005-.124.002-.184m-.725.182c.05.066.086.17.16.305l.086-.047c-.135.16-.273.309-.434.395.002-.006.006-.01.008-.016.077-.191.128-.413.17-.631.003-.001.007-.004.01-.006m9.471.08c.003.002.005.004.008.006-.001.018.001.04 0 .059-.001-.022-.002-.044-.008-.064m.307.193c.038.022.072.05.111.068-.037-.018-.074-.022-.111-.031 0-.011 0-.026 0-.037m1.313.076c.009.145.024.287.012.436-.154.176-.341.275-.543.264-.127-.007-.27-.066-.42-.182.171.039.343.072.512.016.182-.061.215-.293.322-.451.016-.007.035.008.051 0 .038-.019.032-.061.066-.082m-.43.088c-.043.036-.058.144-.105.16-.124.041-.257-.124-.4-.154.168.05.336.011.506-.006m-10.664.51c-.009.01-.008.031-.018.041-.195.195-.493.269-.844.24-.024-.002-.049-.014-.074-.025.131.013.263-.003.385-.064.038-.019.06-.057.092-.084.045-.013.089-.025.135-.037.034-.007.066.017.1.008.018-.005.029-.033.047-.039.058-.018.122-.018.178-.039m-5.719.137v1.947c-.037-.668-.068-1.341 0-1.947m38.623.904c.789 0 1.524.157 1.904.537.023.023.198.229.352.416-2.32-.059-4.783-.196-6.98.035-.942.099-1.775.178-2.723.178h-.061c-1.11-.154-2.222-.324-3.346-.408.022-.002.042.003.064 0 1.084-.128 2.19-.201 3.273-.355 1.172-.167 2.464.027 3.705-.086.444-.04 1.077.149 1.619-.006.566-.162 1.402-.31 2.191-.311m-39.38.063c.057.27.108.553.143.83.007.06.004.123.01.184h-.119c-.009-.342-.028-.681-.033-1.014m1.061.125c0 0 .057.008.107.014.012.058.022.086.037.168.043.237.067.481.082.727-.075-.003-.151-.006-.227-.008v-.9m10.99.521c.336.017.639.038.957.061-.258-.008-.517-.019-.768-.045-.063-.007-.126-.009-.189-.016m-7.871.117c-.388.086-.776.176-1.16.279.135-.079.27-.143.402-.176.232-.058.49-.087.758-.104m1.688.006c.174.005.358.014.523.014 1.96 0 3.893-.027 5.818.176.996.105 2.02.033 3.03.002-.684.037-1.364.098-2.047.143h-5.75-3.398c.209-.044.406-.105.611-.146.375-.075.785-.136 1.215-.188m18.781.123c1.195-.012 2.384-.001 3.564.068.503.03 1.01.08 1.51.143h-1.125c-.708-.067-1.412-.14-2.135-.178-1.214-.064-2.461.146-3.613.002.6-.013 1.201-.029 1.799-.035m-4.822.156c.323 0 .621.044.93.055h-3.73c.611-.019 1.224-.046 1.834-.049.012 0 .025 0 .037 0 .091-.002.347-.006.93-.006m24.719.225c.27.029.523.075.664.137.074.032.112.068.121.082.009.014.014.007-.006.047.018-.037-.019.012-.117.041-.099.029-.244.056-.418.076-.091.011-.233.011-.338.02-.001-.13-.007-.262-.006-.393.033-.002.067-.008.1-.01m-.43.043c-.003.126-.006.253-.008.379-.146.007-.27.019-.426.023-.004-.127-.022-.232-.029-.355.154-.015.309-.035.463-.047m-44.1.086h.152c.005.135.02.266.02.402-.065.016-.127.031-.189.047.015-.15.015-.299.018-.449m.455 0h.033c.002.107.011.213.012.32-.009.002-.018.006-.027.008 0-.11-.014-.219-.018-.328m.586 0h.24c.001.04.004.079.004.119-.062.001-.127.005-.195.039-.001 0-.036.011-.049.016v-.174m.541 0h.006c0 0 0 .002 0 .002.015.046.032.089.039.119.005.019.004.016.004.02-.007.001-.03-.002-.043-.002 0-.046-.005-.092-.006-.139m5.164.029c.556.007 1.108.009 1.664.016-1.799.15-3.595.307-5.379.463-.083-.006-.18-.016-.256-.02-.245-.013-.441-.017-.586.01-.107.02-.17.071-.232.109.037-.043.074-.084.113-.135.054-.07.124-.145.191-.219.005-.002.013.002.018 0 .042-.02.062-.046.084-.07.128.017.254.042.387.033.202-.014.401-.039.527-.039 1.17 0 2.315-.07 3.469-.148m35.848.035c.006.086.012.172.018.258-.549-.003-1.213-.004-1.416-.004-.557 0-1.114-.1-1.682-.105.71-.019 1.424-.03 2.141-.076.063.001.123-.009.186-.014.175-.014.348-.013.523-.035.077-.01.153-.014.23-.023m-31.615.002c.791.007 1.588.021 2.375.021h7.336c1.35.045 2.695.09 4.066.09.642 0 1.261-.064 1.885-.09.069.007.148-.009.217 0 2.395.319 4.862.178 7.268.178.025 0 .053 0 .078 0 .69.044 1.4.064 2.113.07 1.627.172 3.276.283 4.879.283.195 0 .874.001 1.438.004.008.136.018.272.025.408-.923.229-1.958.027-2.986.174-2.094.299-6.218.251-8.08-.088-.723-.131-1.482.052-2.135-.002-1.717-.143-3.457.079-5.125-.088-2.03-.203-4.123.069-6.094-.178-1.253-.157-2.464-.178-3.732-.178h-9.457c-.053 0-.208-.019-.283-.023 2.066-.196 4.141-.402 6.217-.582m-9.02.068c.002.002.004.004.006.006-.015.017-.031.034-.045.051-.001-.009 0-.018 0-.027.003-.001.005.001.008 0 .011-.005.02-.021.031-.029m40.92.055c.003.012.004.025.008.037-.001.018-.001.037-.002.055-.002-.031-.004-.061-.006-.092m-41.652.236c.004-.002.041.003.051.002-.027 1.15-.195 2.349-.09 3.502.052.575.091 1.181.119 1.785-.179-1.466-.262-2.938-.262-4.451v-.775c.073-.021.132-.037.182-.063m.494.002c-.022.026-.037.04-.059.07-.032.045-.065.093-.078.162-.014.069.009.166.068.225.032.032.075.027.117.039v.006c.005 0 .009-.002.014-.002.033.008.063.035.092.031.06-.008.104-.031.146-.053.34-.027.686-.066 1.027-.096.171.013.336.023.521.041.575.055 1.162.121 1.479.121h9.457c1.265 0 2.462.022 3.695.176 2.023.253 4.119-.02 6.102.178 1.714.171 3.455-.052 5.129.088.723.06 1.474-.117 2.107-.002 1.936.352 6.03.397 8.18.09.939-.134 1.962.058 2.953-.17.031.621.057 1.244.057 1.877v.74c-.362 2.266.18 4.713-.348 6.824-.243.971.121 2.057-.004 2.932-.406 2.845-.355 5.773-.355 8.684 0 1.696-.099 3.445.09 5.145.008.072.005.4-.006.813-.011.413-.026.928-.035 1.438-.009.51-.012 1.015.006 1.414.001.022.005.035.006.057-.056.001-.166.002-.176.002-1.48 0-2.985-.065-4.443.178-.642.107-1.809-.001-2.891-.057-.855-.026-1.704-.121-2.564-.121-.167 0-.335.004-.502.004-.179.001-.323-.033-.506-.029-.728.015-1.468.036-2.061-.063-1.499-.25-3.238-.002-4.711-.002h-9.723c-1.584 0-3.271-.158-4.875.002-.574.057-.829.094-.957.129-.032.009-.053.01-.094.039-.003.002-.008.007-.012.01-.124-.001-.221-.002-.604-.002-.833 0-1.658.02-2.488.039-1.117-.019-2.241-.039-3.344-.039-.058 0-.307-.003-.516-.006.039-.72.042-1.439.133-2.123.139-1.039.171-2.084.354-3.086.178-.98-.081-2.02.002-2.93.076-.832.281-1.606.354-2.477.155-1.854.357-3.882.086-5.779-.113-.792.147-1.686 0-2.566-.171-1.027-.723-1.96-.883-2.918-.084-.506-.011-1.085-.061-1.656.083-1.29-.002-2.654-.115-3.9-.1-1.101.07-2.291.094-3.467.042.002.081.009.129-.002.004-.001.008-.005.012-.006m42.37.164c-.016 1.711.042 3.423-.055 5.104-.096-.407-.227-.805-.297-1.188-.07-.385-.118-.781-.166-1.178.072-.756.1-1.562.098-2.348.046-.018.067-.038.135-.059l-.086-.289c-.025.007-.027.014-.049.021 0-.013 0-.026 0-.039.152-.004.276-.018.42-.025m-43.584.039c0 .761-.016 1.525-.02 2.281-.069-.729-.024-1.498-.01-2.273.01-.002.019-.005.029-.008m-.336.084c-.022.862-.092 1.75.051 2.607.229 1.371.174 2.785.174 4.219 0 1.773-.018 3.475-.264 5.193-.112.783.056 1.584 0 2.307-.047.607-.039 1.207-.012 1.803-.026.221-.045.444-.076.662-.02.137-.026.277-.039.416-.142-.528-.278-1.057-.371-1.57-.157-.862.128-1.857 0-2.82-.184-1.381-.227-2.659 0-4.02.213-1.28.002-2.755.002-4 0-1.195.176-2.382.176-3.625 0-.323-.002-.39-.004-.516.018-.019.028-.035.035-.049.032-.062.044-.122.066-.236.014-.072.032-.202.049-.314.066-.017.141-.035.213-.053m42.904 1.715c.007.78.012 1.558-.041 2.326v-.857c.075-.496.022-1 .041-1.469m-42.29.525c.064 1.552.219 3.077.498 4.611.014.078.017.163.023.244-.009.14-.012.284-.025.422-.239 2.386-.354 4.756-.354 7.174 0 1.411.244 3.063.002 4.393-.119.652-.223 1.301-.314 1.955-.002-.029-.005-.055-.008-.084-.061-.731-.102-1.457-.146-2.184.05-.725-.089-1.465-.029-2.121.043-.478.176-.918.264-1.402.096-.527.021-1.086 0-1.654.096-.819.268-1.623.268-2.438 0-2.948-.178-5.815-.178-8.75v-.166m7.107.746l-.258.156c.029.047.026.06.025.064-.001.004-.007.018-.043.045-.071.053-.241.121-.441.193-.4.145-.945.337-1.195.838-.767 1.534-.161 3.427 1.324 3.922 1.108.369 2.296-.093 2.98-.885.131-.151.128-.358.219-.531.02-.026.05-.029.068-.057.023-.035.028-.073.035-.111.144-.218.261-.452.324-.703.089-.356.072-.743-.086-1.125-.064-.334-.211-.643-.471-.902-.458-.458-1.273-.503-1.908-.426-.232.003-.431-.039-.662.02.066-.051.126-.119.146-.211.022-.097-.005-.198-.059-.287m17.883.154c-.028.005-.048.014-.068.023-.041.019-.08.044-.125.074-.09.061-.2.148-.328.256-.257.215-.584.51-.92.816-.274.25-.54.495-.791.723-.119.053-.286.137-.316.145-.047.012-.264.03-.457.02-.096-.005-.19-.016-.262-.031-.061-.013-.09-.03-.096-.031.001-.008.001-.014.008-.031.019-.053.066-.132.113-.209.047-.077.097-.145.127-.23.015-.043.035-.101-.004-.18-.019-.039-.056-.072-.092-.088-.036-.016-.069-.02-.098-.02-.095 0-.15.039-.213.08-.063.042-.127.096-.197.156-.047.041-.103.093-.154.139-.001-.005-.002-.012-.002-.012 0 0-.021-.041-.021-.041 0 0-.119-.057-.119-.057-.177 0-.323.099-.477.223-.022.018-.044.045-.066.064-.006-.004-.014-.01-.014-.01 0 0-.041-.012-.041-.012 0 0-.046 0-.047 0-.001 0-.018.004-.023.006-.023.007-.029.01-.039.016-.02.01-.039.023-.063.037-.047.029-.109.068-.178.109-.138.082-.314.169-.408.188-.053.011-.262.033-.459.039-.098.003-.197.002-.275-.004-.028-.002-.029-.004-.051-.008.019-.193.041-.391.055-.572.01-.13.015-.25.006-.357-.01-.107-.027-.209-.111-.293-.075-.075-.203-.086-.287-.055-.084.031-.152.084-.221.15-.138.132-.279.321-.414.521-.136.202-.177.289-.277.461-.051-.009-.098-.016-.152-.025-.101-.018-.2-.036-.283-.045-.041-.005-.076-.008-.115-.006-.019.001-.041.003-.068.012-.027.009-.073.028-.102.086-.113.227-.12.478-.189.596-.035.059-.066.087-.148.104-.082.016-.228.004-.447-.068.018-.011.035.002.053-.016.06-.06.063-.1.08-.154.017-.054.032-.117.047-.189.029-.144.055-.321.076-.494.021-.173.037-.342.041-.473.002-.066.001-.121-.004-.17-.002-.024-.005-.045-.016-.076-.005-.015-.012-.034-.033-.059-.005-.006-.01-.013-.018-.02-.008-.006-.027-.017-.027-.018-.001-.001-.075-.02-.076-.02-.2 0-.343.148-.436.316-.071.129-.116.288-.146.449-.073.058-.134.133-.193.211-.06.078-.115.159-.156.221-.017.025-.028.043-.039.059-.133-.077-.281-.199-.408-.373-.167-.228-.293-.499-.328-.67 0-.005 0-.01 0-.018 0-.022 0-.054 0-.092 0-.075.001-.174.002-.271.001-.098 0-.195 0-.268 0-.036 0-.066 0-.088 0-.011 0-.02 0-.027 0-.004 0-.007 0-.012 0-.002-.002-.011-.002-.012 0 0-.002-.019-.002-.02 0 0-.146.037-.146.037l.064-.135c-.001 0-.104-.012-.119-.006-.015.006-.027.013-.037.02-.019.013-.031.026-.039.037-.017.021-.024.039-.033.057-.017.036-.032.074-.049.123-.033.098-.072.232-.115.391-.087.318-.197.74-.32 1.166-.124.426-.263.854-.404 1.18-.071.163-.143.299-.209.393-.066.093-.127.136-.145.141l.078.289c.135-.036.227-.135.313-.256.085-.121.163-.271.238-.445.151-.348.293-.786.418-1.217.092-.318.164-.594.236-.863.056.233.179.5.357.744.102.139.216.267.342.369-.146.08-.292.171-.416.295-.097.097-.208.125-.301.129-.047.002-.088-.003-.113-.01-.013-.003-.021-.006-.021-.006 0 0 .009-.007.035.035l-.254.16c.034.054.061.062.086.074.025.012.052.02.08.027.056.014.123.023.199.02.152-.006.343-.062.5-.219.13-.13.327-.237.516-.334.017.005.032.015.049.02.017.004.187.059.35.094.017.004.034.005.051.008-.037.213-.081.432-.098.631-.012.142-.014.272.014.389.014.058.036.115.078.166.042.051.108.091.178.102.139.022.265-.038.418-.141.153-.103.336-.26.566-.49.081-.081.229-.206.371-.336.142-.13.28-.261.361-.404.015-.026.122-.198.168-.279.021.003.044.007.064.008.04.002.074.004.127-.014.13-.043.212-.133.285-.207.031-.032.049-.041.076-.066.013.02.022.033.037.055.053.077.112.155.188.223-.001.017-.003.034-.004.051-.017.281-.022.543.107.744.065.1.179.177.311.188.132.011.272-.03.434-.111.239-.119.484-.391.736-.664.051.02.104.031.154.027.092-.006.177-.038.26-.082.098-.051.195-.14.293-.217-.002.054-.004.096-.006.152-.005.195-.009.392-.006.549.001.078.004.147.01.203.003.028.006.053.012.078.006.025 0 .051.053.104.054.054.129.083.197.088.068.005.13-.008.191-.027.122-.039.24-.11.355-.188.115-.078.226-.164.316-.236.091-.073.169-.135.189-.148.141-.094.371-.298.662-.561.042-.038.095-.087.139-.127.373-.171.789-.391.838-.416.002.018.003.024.004.051.002.055.003.121.014.191.01.071.03.153.1.223.101.101.229.105.348.098.118-.007.242-.033.361-.057.12-.024.235-.046.32-.051.06-.003.069.004.084.008.003.038.005.082.01.139.011.135.03.309.066.473.036.164.076.321.199.434.061.056.16.093.254.076.094-.016.172-.07.248-.146.255-.255.545-.561.814-.904.041.054.093.102.162.137.204.102.418.055.609-.014.114.158.256.305.406.439.309.277.659.5.928.635.2.1.416.072.58-.027.164-.099.295-.254.41-.42.061-.088.107-.174.16-.264-.003.05-.006.095-.008.166l.301.008c.003-.107.043-.251.01-.422 0 0-.08-.103-.08-.104 0 0-.003-.001-.004-.002.049-.079.107-.177.131-.201-.009.009-.015.004.02.008.035.004.095.021.162.049.134.056.297.148.441.219.072.035.139.067.209.084.035.009.071.016.117.01.046-.006.11-.036.145-.088.069-.104.035-.189.002-.281-.033-.092-.087-.202-.172-.35l-.262.148c.057.099.079.155.105.215-.005-.003-.006-.003-.012-.006-.13-.064-.299-.161-.461-.229-.081-.034-.16-.061-.244-.07-.084-.009-.188.005-.264.08-.095.095-.166.226-.254.379-.094-.005-.191-.011-.303-.018-.149-.009-.301-.02-.42-.029-.06-.005-.11-.008-.148-.012-.038-.004-.075-.012-.059-.008-.095-.024-.284-.136-.453-.244-.085-.054-.167-.107-.244-.146-.077-.039-.146-.088-.27-.047-.104.035-.215.092-.324.145-.034-.07-.086-.143-.1-.209 0-.007 0-.017 0-.029-.001-.028-.002-.069-.002-.115 0-.093.003-.212.004-.33.001-.118.001-.235.002-.322 0-.006 0-.01 0-.016 0-.005.006-.015.006-.02-.002-.011-.004-.015-.006-.023 0-.016 0-.037 0-.049 0-.013 0-.023 0-.033 0-.005-.001-.01-.002-.018 0-.004-.004-.019-.004-.02 0 0-.01-.031-.01-.031l-.027-.041c0 0-.109.104-.109.104-.036 0-.097-.131-.133-.086-.035.045-.036.088-.035.113 0 .008.003.007.004.014-.001 0-.03.012-.039.018-.009.005-.014.011-.02.016-.042.035-.047.051-.063.076-.015.025-.028.052-.039.086-.006.017-.012.035-.012.068 0 .004.004.011.004.016-.021.05-.017.047-.066.145-.021.042-.05.08-.072.121-.014-.024-.02-.051-.041-.072-.082-.082-.201-.09-.293-.072-.092.018-.18.057-.271.105-.184.096-.383.23-.566.332-.183.102-.351.153-.406.143-.027-.005-.034-.006-.055-.047-.021-.04-.043-.129-.043-.268 0-.193.033-.542.063-.84.015-.149.029-.287.035-.393.003-.053.004-.097.002-.137-.001-.02-.002-.038-.008-.063-.003-.012-.006-.026-.016-.045-.005-.01-.012-.021-.023-.033-.005-.006-.019-.019-.02-.02 0 0-.029-.017-.029-.018-.051-.025-.09-.021-.117-.016m-.098.402c-.007.087-.012.177-.023.291-.029.297-.066.642-.066.869 0 .133.019.239.053.332-.109.009-.221.031-.33.053-.12.024-.235.046-.32.051-.085.005-.124-.015-.119-.01.003.003-.008-.014-.014-.055-.006-.041-.007-.099-.01-.16-.002-.061-.003-.125-.031-.199-.014-.037-.038-.079-.08-.111-.042-.033-.098-.049-.148-.049-.001 0-.124.057-.152.07.035-.032.066-.062.102-.094.335-.306.659-.598.908-.807.095-.079.165-.132.232-.182m-18.311.145c-.111.065-.219.137-.332.203.095-.04.148-.13.242-.164.034-.012.058-.027.09-.039m36.06.025c.007.045.009.089.018.135.09.494.271.959.354 1.414.309 1.698.115 4.189.076 6.164-.591 4.217-.521 8.37-.521 12.635 0 .361-.076 1.928-.129 3.43-.148-1.349-.102-2.854-.102-4.137v-1.502c.022-.916.064-1.828.176-2.723.175-1.398-.217-2.845 0-4.146.344-2.061.09-4.263.09-6.301 0-1.501-.259-3.243-.002-4.658.017-.093.025-.212.041-.311m-35 .061c.277-.016.564.053.875.26.133.089.288.148.443.205.064.138.128.282.24.395.395.395.527.809.537 1.213-.04.167-.054.332-.137.492-.017.057-.044.11-.068.164-.072.103-.156.201-.244.295-.21.167-.482.318-.705.541-.022.022-.037.041-.057.063-.139.079-.279.157-.414.207-.181.067-.353.103-.502.111-.102-.02-.205-.042-.301-.066-.057-.014-.107-.036-.162-.053-.469-.265-.884-.684-1.291-1.088.023-.101.05-.229.061-.27.069-.275.061-.624.088-.951.027-.327.095-.614.227-.746.169-.169.351-.32.541-.447.002.002 0 .006.002.008.039.042.087.071.141.096l.104-.229c.067-.034.133-.076.201-.102.113-.039.252-.073.422-.098m-1.455.416c-.054.05-.116.091-.168.143-.14.14-.145.363-.188.563-.021-.004-.045-.004-.066-.008-.003-.056-.007-.112-.01-.164-.007-.145.013-.245.033-.266.116-.116.254-.198.398-.268m12.391.123c.005.014.013.023.018.076.007.077.004.185-.006.307-.008.104-.02.233-.033.352-.024-.037-.049-.074-.066-.102-.011-.018-.022-.032-.031-.045-.005-.007-.008-.014-.016-.023-.004-.005-.019-.019-.02-.02 0 0-.037-.025-.037-.025 0 0-.049-.012-.049-.012 0 0-.082.016-.082.016v-.002c-.114.057-.187.145-.256.215-.006.006-.009.006-.016.012.055-.089.065-.118.125-.207.13-.192.266-.371.373-.473.043-.041.073-.056.096-.068m-13.03.049c-.059.123-.099.254-.094.375.002.048-.002.065 0 .109-.049-.006-.095-.017-.146-.02.039-.136.088-.272.156-.408.015-.03.066-.029.084-.057m3.879.078c.086.051.155.107.197.17.1.15.16.297.205.443.017.124.026.25.023.379-.089-.338-.128-.683-.426-.992m6.641.096c-.006.11-.015.235-.031.375-.003.028-.008.05-.012.078-.015-.043-.032-.087-.07-.125-.003-.003-.007-.003-.01-.006.026-.101.043-.214.082-.285.015-.028.026-.017.041-.037m11.03.084c0 .06-.002.126-.002.176 0 .047-.001.087 0 .119 0 .016.001.031.002.043.001.012-.001.015.004.041.018.091.048.18.088.266-.125.036-.238.053-.316.014-.063-.031-.07-.051-.078-.082-.004-.015.001-.051.002-.076.11-.159.212-.325.301-.5m-.574.102c.011.011.016.019.014.066-.002.048-.019.12-.033.203-.001.007.001.018 0 .025-.295.41-.646.777-.953 1.084-.051.051-.082.064-.086.064-.004.001.011.006 0-.004-.021-.02-.078-.135-.109-.275-.031-.141-.05-.303-.061-.432-.005-.061-.009-.114-.012-.154.16-.014.314-.076.469-.162.2-.111.399-.245.559-.328.08-.042.151-.07.191-.078.04-.008.028-.003.021-.01m-5.113.168c-.02.038-.044.071-.059.111-.018.048-.031.099-.029.158.001.06.024.131.074.182.077.077.164.098.26.119.096.021.203.032.311.037.108.006.18-.009.273-.014-.097.082-.245.217-.289.246-.056.037-.123.093-.211.164-.088.071-.192.153-.295.223-.103.07-.208.127-.281.15-.03.01-.048.009-.063.01-.004-.041-.007-.101-.008-.174-.003-.148.001-.344.006-.537.004-.148.009-.281.014-.406.103-.094.207-.19.297-.27m-.625.156c-.074.064-.136.102-.205.154.033-.03.072-.074.104-.1.047-.037.071-.042.102-.055m-15.393.094c.015.001.032.004.047.006-.107.341-.137.657-.102.943-.012-.01-.025-.019-.035-.031-.014-.058-.029-.117-.039-.176.002-.062.006-.129.018-.201.014-.087.032-.174.051-.244.018-.07.041-.131.043-.135 0 0 .006-.016.008-.021.002-.006.003-.012.004-.016.002-.008.003-.011.004-.016.001-.009.002-.017.002-.023.001-.013 0-.025 0-.039 0-.014 0-.031 0-.047m22.521.15c-.055.018-.015.003.041.031.056.028.133.076.217.129.167.107.352.235.543.283.039.01.06.012.102.016.042.004.096.007.156.012.122.009.273.02.422.029.054.003.095.005.146.008-.039.064-.072.13-.113.189-.104.149-.217.273-.318.334-.102.061-.176.075-.291.018-.242-.121-.58-.335-.863-.59-.119-.107-.219-.224-.309-.34.094-.045.209-.1.268-.119m-12.307.059c.006.054-.001.111.008.164-.041-.011-.065-.017-.104-.027.002-.004.003-.006.006-.01.025-.037.059-.083.09-.127m-9.91.018c-.02.292-.029.579-.068.764-.032-.226-.005-.482.068-.764m11.408.008c.004 0 .004 0 .008 0 .066.007.163.025.264.043.013.002.024.004.037.006-.022.039-.101.168-.107.18-.043.076-.167.208-.303.332-.135.124-.28.244-.379.344-.222.222-.397.369-.523.453-.123.082-.192.092-.199.092-.003-.004-.01-.014-.016-.039-.014-.057-.017-.164-.006-.291.011-.124.041-.284.066-.434.011.007.016.021.029.025.252.084.442.109.604.078.161-.031.283-.133.35-.246.118-.2.13-.405.176-.543m2.771.096c-.262.275-.519.538-.65.604-.133.067-.225.084-.273.08-.048-.004-.06-.013-.084-.051-.045-.071-.07-.277-.061-.516.018.002.033.01.053.012.094.007.199.007.305.004.211-.006.406-.022.51-.043.071-.014.135-.054.201-.09m-13.896 1.773c.272.26.606.464.992.6.043.026.085.057.129.08-.164.01-.326.052-.488-.002-.315-.105-.485-.385-.666-.654.013-.009.022-.015.033-.023m-5.307 1.91c.222.893.655 1.721.795 2.559.131.786-.128 1.679-.002 2.561.264 1.846.067 3.853-.088 5.711-.07.838-.275 1.611-.354 2.475-.089.984.164 2.01.002 2.902-.188 1.032-.22 2.083-.355 3.102-.096.723-.1 1.45-.139 2.164-.056.004-.104.023-.158.031-.042-.278-.097-.551-.152-.826.002-.211.058-.366.049-.586-.028-.703-.096-1.42-.096-1.912 0-.136-.023-.267-.023-.402.017-.413.026-.72.039-1.148.035-1.14.039-2.243-.107-2.902-.043-.194-.069-.387-.1-.58.115-1.063.262-2.11.453-3.16.256-1.407.002-3.072.002-4.447 0-1.865.093-3.702.234-5.539m41.27.189v.047c0 .938.161 2.026.004 2.891-.03.165-.032.332-.049.498.058-.911-.205-1.872-.012-2.645.064-.254.019-.531.057-.791m.428 2.162c.024.926.004 1.841-.09 2.736-.035-.809-.057-1.615.049-2.355.018-.127.027-.254.041-.381m-32.24.197c-.064.007-.128.022-.189.037-.124.031-.251.064-.287.064-.194 0-1.065-.01-1.91 0-.423.005-.839.014-1.168.031-.164.009-.306.021-.418.035-.056.007-.104.014-.146.023-.042.01-.077.015-.125.047-.029.019-.014.065-.039.088l-.02-.006c-.006.02.004.035-.002.055-.115.121-.153.281-.191.445-.021.009-.04.007-.064.031-.054.054-.064.121-.063.172.001.021.008.041.012.061-.001.016-.017.025-.018.041-.017.336.023.681.023.893 0 .224.003.468.008.709-.012.13-.037.243-.043.377-.025.548.005 1.104.178 1.525 0 .007-.002.018-.002.025-.001.127 0 .238.006.324.003.043.008.08.016.115.007.035.002.068.059.125 0 0 .025.019.025.02 0 0 .014.007.02.01.011.005.019.008.025.01.014.004.022.006.031.008.019.003.036.005.055.006.038.002.081.002.125.002.044 0 .088-.002.125-.004.019-.001.035-.002.051-.004.016-.002.019.006.07-.02.031-.016.062-.043.094-.063.031 0 .059.008.09.006.196-.014.407-.066.619-.123.212-.057.424-.117.607-.152.131-.025.213-.016.299-.01.154.016.27.09.426.09.017 0 .028-.013.045-.014.019.004.023.006.043.01.187.037.418.078.65.109.232.031.465.053.66.055.098.001.185-.002.264-.016.079-.014.152-.03.219-.098.092-.092.142-.209.176-.334.067-.025.127-.056.178-.107.106-.106.129-.254.119-.389-.01-.134-.049-.269-.098-.4-.031-.085-.066-.16-.1-.236.009-.234.074-.402.057-.662-.038-.577-.126-1.153-.203-1.461.005.02-.001-.015 0-.055.001-.04.002-.094.006-.156.008-.124.02-.28.029-.436.01-.155.017-.308.014-.434-.002-.063-.005-.118-.016-.17-.005-.026-.01-.051-.023-.08-.013-.029-.035-.067-.088-.094-.077-.038-.145-.034-.209-.027m17.264.211c-.032.001-.061.008-.078.018-.034.018-.051.036-.066.053-.06.068-.102.152-.158.258-.112.211-.251.496-.324.596-.05.069-.118.188-.215.346-.097.157-.216.346-.342.518-.126.172-.261.328-.375.42-.057.046-.108.073-.143.084-.035.011-.047.008-.063 0-.002-.001-.017-.011-.033-.061-.016-.05-.029-.129-.031-.225-.005-.191.023-.446.059-.695.036-.249.079-.494.104-.684.012-.095.02-.174.018-.244-.001-.035-.001-.066-.018-.109-.008-.022-.023-.049-.051-.074-.028-.026-.073-.045-.113-.045 0 0-.054.01-.055.01 0 0-.029.015-.029.016-.001 0-.023.017-.029.023-.012.012-.017.02-.021.027-.01.014-.015.025-.023.039-.016.029-.036.067-.059.113-.046.093-.107.224-.184.381-.153.313-.363.73-.605 1.145-.233.399-.496.792-.762 1.09-.363-.038-.708-.108-.99-.262-.102-.056-.179-.131-.268-.197-.006-.137-.008-.273-.008-.379 0-.038.039-.175.064-.301.013-.063.024-.125.006-.205-.009-.04-.031-.087-.074-.123-.043-.036-.099-.051-.146-.051-.121 0-.186.066-.248.129-.062.063-.119.137-.172.213-.025.035-.044.065-.066.1-.289-.357-.553-.746-.91-1.104-.053-.053-.133-.071-.193-.066-.061.005-.113.023-.166.049-.107.051-.219.133-.348.236-.188.151-.423.378-.652.596.01-.028.023-.055.01-.109-.008-.032-.032-.074-.068-.1-.036-.026-.074-.031-.102-.031-.087 0-.154.041-.203.082-.049.041-.086.088-.119.133-.033.045-.063.088-.086.121-.023.033-.047.056-.035.047-.436.327-.653.45-.836.625-.167.159-.294.388-.486.766-.012 0-.021 0-.035 0-.03-.001-.061-.003-.086-.004-.025-.001-.037-.002-.059-.002-.242 0-.397-.093-.521-.242-.015-.023-.031-.042-.045-.066-.016-.023-.029-.051-.043-.076-.046-.091-.087-.186-.119-.279-.022-.075-.046-.148-.059-.227-.012-.077.002-.137-.002-.213.002-.008.002-.009.004-.018.022-.086.05-.196.074-.305.025-.109.047-.216.061-.301.007-.043.012-.08.014-.115.001-.018.002-.033-.004-.063-.002-.007-.004-.015-.008-.025-.004-.01-.019-.036-.02-.037-.001-.001-.046-.045-.047-.045-.001 0-.079-.021-.08-.021-.067 0-.12.035-.152.068-.032.033-.053.07-.07.107-.002.004-.002.011-.004.016-.013-.003-.027-.014-.039-.014-.001 0-.027.001-.037.004-.01.002-.018.005-.025.008-.015.006-.025.012-.033.018-.017.011-.029.023-.039.033-.021.021-.04.042-.061.068-.042.053-.09.122-.148.205-.116.166-.264.384-.418.598-.154.214-.317.423-.457.57 0 0-.002.002-.002.002-.009-.074-.013-.15-.018-.229.041-.023.098-.024.127-.059.068-.082.101-.179.119-.279.036-.2.013-.417-.033-.586-.023-.084-.048-.154-.1-.219.013-.022.029-.043.039-.068.01-.025.031-.056.012-.125-.009-.034-.04-.075-.074-.096-.035-.021-.065-.023-.088-.023 0 0-.062.013-.063.014-.001 0-.027.015-.035.021-.017.014-.025.025-.031.033-.013.017-.018.028-.023.039-.01.023-.017.045-.025.07-.006.019-.013.043-.02.064-.058.083-.139.19-.221.316-.09.139-.177.29-.223.449-.001.004.003.009.002.014-.193.295-.379.59-.604.766-.002-.001-.001-.003-.004-.004-.05-.025-.131-.012-.166.012-.025.017-.055.051-.066.094-.012.042-.004.082.006.107.02.05.041.065.057.08.007.007.004.002.01.008 0 0 0 .002 0 .002.01.018.023.047.068.072.046.025.127.019.164-.004.278-.167.414-.471.607-.754.017.029-.008.068.018.094.046.046.074.043.094.047.02.004.035.005.051.006.032.002.066.002.098 0 .007 0 .007 0 .014 0 .008.096-.002.178.021.275.007.029.029.055.039.084l-.043.268c.057.009.109 0 .156-.018.08.113.187.208.336.258.2.067.394.043.545-.045.151-.088.263-.227.352-.379.094-.161.134-.318.188-.482.05.138.116.274.197.408.009.013.011.03.021.043.006.008.017.012.023.02.051.077.097.158.162.223.215.214.537.335.904.213.217-.072.46-.267.74-.514-.006.035-.023.07-.023.105-.002.098.026.206.104.283.083.083.172.098.275.119.104.021.221.031.34.037.119.006.238.007.34.002.102-.005.181-.011.252-.031.249-.071.673-.287 1.098-.525.4-.225.761-.451.953-.627.104.11.219.213.342.313.011.141.023.286.057.426.041.171.104.334.215.465.111.13.278.221.477.221.321 0 .611-.211.885-.486.838.069 1.736-.089 2.414-.225-.004.026-.019.085-.021.107-.01.114.012.201.031.246.02.045.026.043.031.123.005.08-.002.23-.041.504-.001.009-.03.104-.066.207-.037.103-.082.228-.115.357-.033.13-.056.263-.043.395.013.132.079.277.217.346.085.042.149.007.184-.014.034-.021.059-.043.086-.07.054-.054.113-.126.18-.213.133-.174.293-.408.453-.648.16-.24.32-.486.447-.68.064-.097.119-.18.162-.242.043-.063.083-.113.076-.105.189-.189.523-.32.875-.451.352-.131.723-.263.982-.521.042-.042.05-.076.063-.109.012-.034.023-.067.033-.104.001-.003.001-.007.002-.01.044.156.075.256.1.314.007.016.012.029.027.051.004.005.007.012.014.02.007.007.031.025.031.025.001 0 .066.023.066.023.001 0 .091-.017.092-.018 0 0 .05-.046.051-.047 0-.001.014-.024.018-.033.007-.018.01-.029.012-.039.003-.019.002-.033.002-.047 0-.112-.025-.304-.025-.398 0-.024.031-.139.053-.246.011-.054.023-.108.006-.182-.008-.037-.029-.083-.07-.117-.041-.034-.095-.047-.139-.047-.131 0-.243.067-.314.15-.071.083-.113.181-.145.273-.032.092-.052.181-.07.248-.009.034-.017.061-.023.078-.006.017-.015.023.006.002-.189.189-.523.32-.875.451-.352.131-.721.26-.98.52-.041.041-.068.082-.113.148-.046.066-.102.151-.166.248-.128.195-.287.44-.445.678-.158.238-.317.47-.441.633-.046.06-.08.098-.113.135-.003-.013-.014-.011-.016-.031-.007-.071.006-.179.035-.291.029-.112.071-.229.107-.332.036-.103.068-.179.08-.264.041-.284.05-.449.043-.564-.007-.116-.042-.195-.055-.225-.013-.03-.015-.018-.008-.1.005-.055.04-.208.07-.344.029-.031.064-.062.086-.092.062-.086.112-.134.168-.182.008.007.011.01.02.018.071.063.167.149.275.229.108.08.226.155.357.193.131.039.3.029.414-.086.114-.114.13-.264.141-.406.01-.143.007-.291.014-.408l-.301-.016c-.008.138-.003.283-.012.402-.009.12-.04.202-.053.215-.028.028-.046.033-.117.012-.071-.021-.17-.079-.264-.148-.094-.069-.185-.148-.256-.211-.036-.031-.066-.06-.094-.082-.014-.011-.027-.02-.047-.031-.01-.006-.02-.011-.041-.018-.011-.003-.042-.008-.043-.008-.001 0-.03.007-.051.012.101-.243.218-.497.34-.762.2-.432.387-.876.387-1.309 0-.027-.001-.051-.008-.08-.007-.029-.017-.075-.074-.113-.029-.019-.062-.024-.094-.023m-17.232.088c.003.024.005.044.006.08.002.071-.005.175-.01.271-.076-.006-.152-.011-.225-.01-.076-.038-.159-.072-.273-.072-.25 0-.546.016-.852.039-.61.045-1.256.111-1.541.111-.001 0-.06-.003-.125-.008-.065-.005-.147-.011-.229-.016-.082-.004-.162-.007-.234-.004-.036.002-.069.005-.104.012-.034.007-.073.01-.123.061-.011.011-.034.022-.047.033-.089-.007-.164-.014-.295-.021 0 0-.002 0-.002 0 .011-.095-.022-.2.004-.297.024-.005.047-.009.082-.014.1-.012.236-.023.396-.031.321-.017.736-.026 1.156-.031.841-.01 1.703-.002 1.906-.002.128 0 .246-.044.359-.072.057-.014.111-.025.148-.029m-.199.635c-.038.091-.079.185-.098.242-.117.35-.192.92-.092 1.32.074.295.256.785.361 1.262.042.188.056.36.063.523-.04.059-.103.099-.184.127l-.146-.154c-.077.073-.17.135-.275.188-.138-.002-.261.006-.42-.012-.266-.029-.547-.069-.811-.082-.264-.013-.512-.004-.719.1-.014.007-.043.004-.059.01-.251-.024-.491-.049-.717-.078-.018-.008-.045-.011-.063-.02-.119-.06-.233-.049-.307-.049-.052 0-.056-.004-.068-.008-.011-.002-.021-.005-.031-.008-.037-.039-.063-.105-.07-.211-.007-.108.007-.248.025-.393.037-.289.116-.597-.014-.855-.032-.063-.099-.316-.156-.545.011.019.022.037.035.057.205.304.42.607.592.852.086.122.16.229.217.313.046.068.07.106.086.133-.004.014-.008.027-.016.049-.022.061-.058.143-.096.227-.037.083-.077.168-.109.238-.032.07-.052.103-.068.172l.293.066c-.006.027.018-.047.049-.115.031-.068.071-.152.109-.238.039-.086.076-.172.104-.246.014-.037.025-.071.033-.105.008-.034.032-.06-.012-.148-.026-.053-.066-.112-.125-.199-.059-.087-.135-.196-.221-.318-.172-.245-.385-.546-.588-.846-.144-.213-.255-.401-.367-.588-.004-.046.002-.092.002-.139.001-.007.003-.015.004-.018.045-.076.12-.142.223-.211.05-.034.108-.082.164-.121.018.001.054.004.068.004.88 0 2.01.185 2.945-.002.165-.033.296-.121.412-.17.018-.008.029.001.045-.002m15.402.301c-.014.087-.024.152-.037.244-.037.256-.066.521-.061.746.003.113.012.215.043.309.031.094.086.189.186.238.091.046.196.045.285.018.089-.027.166-.076.242-.137.152-.122.296-.294.43-.477.134-.183.257-.377.355-.537.092-.15.159-.264.188-.307-.041.098-.038.179-.084.279-.196.424-.421.851-.521 1.254-.012.049-.009.055-.02.098-.034.024-.072.045-.131.057-.601.12-1.362.227-2.078.209.234-.29.458-.618.656-.957.221-.378.398-.736.547-1.037m-4.566.033c.33.338.594.736.906 1.111-.128.117-.497.364-.895.588-.415.233-.861.449-1.033.498-.014.004-.092.015-.184.02-.091.004-.202.005-.311 0-.108-.005-.216-.017-.297-.033-.081-.016-.138-.052-.123-.037-.008-.008-.015-.019-.014-.064.001-.045.015-.116.045-.197.045-.122.136-.275.223-.424.16-.152.314-.293.473-.445.324-.313.635-.608.875-.801.12-.097.224-.167.291-.199.024-.011.033-.013.043-.016m11.05.004c-.084.109-.239.268-.381.449-.142.181-.276.39-.311.631-.035.243-.083.688.002 1.057.042.184.121.364.287.463.166.099.388.083.633-.039.238-.119.447-.34.617-.586.083-.12.111-.244.17-.369.059.127.098.271.229.336.159.079.336.048.486-.023.15-.071.291-.185.424-.309.265-.248.495-.549.6-.68.077-.096.154-.22.23-.336.036-.055.062-.083.096-.129.008.017.015.035.021.049.006.014.009.025.02.043.003.005.006.009.014.02.004.005.021.023.021.023 0 0 .027.018.027.018 0 0 .06.018.061.018 0 0 .045-.002.045-.002l.047-.02c0 0 .051-.055.051-.055 0 0 .016-.037.016-.037 0 0 .004-.023.004-.023 0 0 0-.018 0-.023 0-.005-.001-.008-.002-.012-.023-.179-.107-.312-.146-.422l-.104.037c-.021-.009-.044-.018-.076-.016-.041.003-.082.025-.105.049-.085.085-.16.2-.238.318-.078.118-.156.239-.215.313-.11.137-.331.425-.57.648-.12.112-.244.206-.348.256-.104.049-.172.053-.223.027-.085-.042-.156-.156-.191-.313-.01-.042.006-.087.002-.133.001-.003.003-.007.004-.01.008-.039-.005-.067-.004-.105.001-.084-.016-.171.002-.242-.003.013.036-.064.072-.129.018-.032.041-.059.049-.125.004-.033 0-.093-.043-.141-.043-.047-.1-.057-.135-.057-.051 0-.108.016-.152.049-.044.033-.072.078-.086.119-.029.082-.023.153-.018.225.01.135.023.271.018.326 0 .009 0 .017 0 .025-.036.177-.147.422-.297.639-.151.218-.341.409-.504.49-.194.097-.287.084-.346.049-.059-.035-.115-.128-.148-.271-.066-.287-.03-.723.002-.949.022-.151.122-.325.25-.488.128-.164.278-.314.383-.449l-.238-.184m11.379.418c.019.115.018.229.039.354.15.899-.002 2.02-.002 2.98 0 1.285.126 2.629.002 3.875-.257 2.572.034 5.155-.178 7.691-.058.691-.129 1.342-.262 2.01 0 .002-.002.004-.002.006-.012-.296-.081-.579-.139-.873.004-.525.012-1.087.033-1.717.053-1.587.139-3.229.139-3.654 0-3.613.03-7.135.369-10.67m-1.396.133c-.022 1.11.108 2.218-.066 3.266-.264 1.583-.236 3.258-.232 4.885 0-2.747-.032-5.489.299-8.15m-25.496.238c.01.099.043.186.063.283-.081.246-.181.589-.324.834-.073.125-.156.221-.24.27-.085.049-.169.063-.301.02-.085-.028-.147-.075-.193-.141.038-.034.076-.059.115-.1.159-.166.326-.383.484-.602.149-.206.286-.406.396-.564m13.619.029c-.017.061-.035.115-.035.193 0 .032.004.055.006.092l-.084.023c.016-.062.032-.127.053-.188.018-.051.039-.085.061-.121m-7.676.023c-.022.08-.049.159-.049.258 0 .038.002.096.002.141-.047-.046-.088-.1-.133-.148.034-.052.068-.105.105-.158.026-.037.049-.061.074-.092m-3.338.305c-.003.005-.005.009-.008.014-.022.036-.035.073-.057.109-.153.146-.314.305-.455.43-.111.098-.21.173-.307.248.099-.174.184-.303.275-.391.099-.095.335-.257.551-.41m-4.047.023c0 .008-.002.011-.002.02 0 .034.01.085.01.123-.001 0-.003 0-.004 0-.006 0-.009 0-.016 0-.016-.026-.018-.065-.01-.115.006-.01.015-.018.021-.027m-8.842.471c.006.014.012.045.018.057.047.093.02.386-.018.686-.019.15-.035.303-.025.449.002.028.013.056.018.084-.014-.009-.067-.04-.061-.027.006-.138.007-.254.016-.4.017-.3.036-.593.053-.848m16.529.242c.029.017.049.04.08.057.251.137.532.223.824.277-.177.138-.348.236-.488.236-.117 0-.184-.037-.248-.113-.064-.076-.118-.198-.152-.342-.009-.036-.009-.078-.016-.115m-8.568.178c-.011.018-.023.04-.033.047-.007.005-.025-.002-.037.002l.07-.049m-8.04 1.135c.03.011.042.039.074.051.073.025.182.045.273.066.03.01.055.017.084.02.065.014.111.032.184.045.011.002.028.002.039.004-.077.044-.155.097-.236.156-.042.031-.073.048-.111.074-.066-.01-.119-.027-.146-.055-.064-.064-.118-.157-.164-.266.002-.034.003-.066.004-.096m4.133.313c-.011.015-.017.037-.029.049.015-.015-.008.005-.059.014-.051.009-.124.014-.211.014-.085-.001-.202-.018-.307-.027.052-.002.122.005.172.002.167-.01.3-.03.434-.051m31.924.613v4.672c-.02.761-.023 1.52-.016 2.281-.026.922-.063 1.901-.014 2.885-.028.376-.071.76-.123 1.145-.016-1.874-.078-3.736-.078-5.605 0-1.784-.027-3.644.23-5.377m-42.553 3.213c.093.618.162 1.236.213 1.855-.027.246-.063.488-.086.736-.062.679-.112 1.363-.195 2.031-.017-.937-.037-1.874-.037-2.813 0-.616.042-1.216.105-1.811m28.29.238c-.437.005-.789.027-1.02.104-.189.063-.397.199-.6.355-.056-.001-.115-.007-.168-.004-.128.008-.253.028-.352.127-.1.1-.139.238-.123.354.006.045.032.077.047.117-.045.062-.098.124-.129.186-.002.003 0 .006-.002.01-.218.145-.527.16-.658.389-.281.491-.351 1.131-.145 1.75.065.196.227.507.314.758.044.125.06.24.057.264 0 0 .002-.002.002-.002l-.063.26c.077.019.161.021.236-.023.076-.044.112-.128.121-.195.018-.135-.021-.261-.07-.402-.099-.283-.266-.616-.313-.754-.166-.497-.117-1 .074-1.398.008.013.008.022.018.035 0 0 .129.059.129.059 0 0 .021-.004.021-.004 0 0 .011-.001.014-.002.005-.001.007-.003.01-.004.005-.002.008-.002.014-.004.011-.004.026-.01.045-.018.013-.005.038-.013.055-.02.002.029.008.058.012.088-.037.49.073.956.209 1.363.011.034.015.071.025.105.029.405.05.816.09 1.213.021.207.162.344.201.541.012.218.029.436.029.656 0-.035-.001-.002-.016.031-.015.033-.037.077-.057.127-.02.05-.039.104-.045.17-.006.066.008.157.072.221.001.001.023.018.031.023.008.005.016.009.021.012.012.005.021.008.029.01.016.004.029.005.045.008.031.005.069.01.113.014.065.005.162.009.256.014.023.025.011.071.035.096.141.141.348.197.59.232.242.036.522.042.805.035.565-.014 1.133-.087 1.393-.139.313-.063.928-.091 1.617-.117 1.345.06 2.744.113 3.988-.133.285-.001.544.009.834 0 .673-.022 1.334-.066 1.867-.141.267-.037.502-.084.693-.139.191-.055.339-.113.445-.219.059-.059.056-.106.059-.145.003-.039.001-.076-.004-.119-.009-.087-.028-.194-.055-.32-.053-.252-.135-.576-.221-.924-.171-.695-.354-1.489-.354-1.867 0-.055.018-.34.016-.605-.001-.133-.008-.264-.025-.377-.009-.056-.021-.108-.041-.158-.02-.05-.048-.106-.121-.143-.081-.04-.233-.055-.359-.08-.028-.075-.052-.156-.084-.221.002-.031.003-.064.004-.1.001-.043.003-.086.002-.123-.001-.019-.003-.036-.006-.057-.002-.01-.003-.021-.01-.039-.003-.009-.017-.034-.018-.035 0 0-.021-.025-.021-.025 0 0-.039-.027-.039-.027-.193-.096-.524-.047-.801-.053-.221-.048-.364-.109-.664-.148-.582-.076-1.284-.136-1.994-.176-.998-.056-1.985-.076-2.697-.049-.476-.06-1.138-.128-1.906-.174-.51-.031-1.024-.048-1.461-.043m.004.299c.118-.001.271.01.4.012-.243.01-.481.021-.662.041-.228.025-.393.051-.518.113-.026.013-.113.029-.225.027-.033 0-.078-.006-.115-.008.066-.036.138-.079.189-.096.151-.05.504-.085.93-.09m.582.301c.23-.007.542.003.807.002-.212.077-.425.152-.639.229-.776-.009-1.552-.027-2.33-.027.002-.001.002-.003.004-.004.016-.014.032-.024.049-.037.041.002.072.001.115.004.134.011.274.026.404.027.13.002.25-.004.363-.061.04-.02.201-.058.416-.082.215-.024.493-.041.811-.051m1.959.006c.097.002.174-.003.271 0 .798.021 1.597.058 2.238.1.641.042 1.143.096 1.273.129.101.025.213.04.332.049.248.062.488.127.754.18-1.918-.132-3.808-.19-5.693-.223.27-.093.544-.178.824-.234m5.438.234c.279-.018.417.028.654.033.196.044.495.084.576.125.01.005.037.046.061.078-.048-.008-.093-.018-.146-.023-.137-.014-.299-.012-.459-.012-.247-.067-.505-.13-.76-.197.025-.002.049-.002.074-.004m-9.574.264c.432 0 .861.012 1.291.014-.135.02-.27.039-.406.039-.274 0-.64.112-.982.215-.016-.032-.033-.061-.053-.09-.022-.032-.043-.064-.066-.096.062-.045.128-.082.217-.082m2.492.027c2.218.024 4.433.075 6.689.236.089.006.219 0 .389-.008.169-.008.371-.02.57-.023.042-.001.074.004.115.004.215.06.459.081.643.141v3.273c0 .22-.01.513-.072.639-.053.106-.181.218-.389.316-.125.059-.318.103-.49.152-.553.048-1.092.068-1.285.068-.98 0-2.255.1-3.506.162-.34-.008-.668-.027-1.051-.018-.995.021-1.969.019-2.686-.129-.383-.07-.716-.171-.871-.326-.221-.221-.343-.809-.404-1.438-.061-.628-.077-1.282-.213-1.707l-.215.068c-.006-.035-.011-.073-.018-.107-.046-.244-.091-.468-.123-.629-.002-.01-.002-.014-.004-.023.037-.015.071-.037.113-.053.01-.003.017-.006.027-.01.017-.001.028.006.047.002.007-.001.01-.015.018-.018.395-.126.858-.248 1.107-.248.576 0 1.098-.149 1.607-.326m-15.02.082c-.679-.013-1.541-.004-2.428.014-1.773.036-3.646.107-4.311.107-.136 0-.483-.039-.805-.059-.161-.01-.317-.016-.451-.008-.134.008-.247.003-.354.109 0 0-.037.062-.037.063 0 .001-.008.033-.008.045 0 .023.003.037.006.047.005.021.01.033.016.045.01.024.02.046.031.07.011.024.011.031.018.051 0 .01-.005.023-.004.031.004.028.015.038.023.057v.332c-.015.014-.03.028-.047.045-.044.045-.096.101-.146.16-.051.059-.101.121-.143.18-.042.058-.075.104-.098.172-.028.085-.038.182-.045.313-.007.131-.009.291-.006.469.006.356.03.79.063 1.221.032.431.073.856.117 1.197.022.171.046.32.068.439.023.119.036.2.074.275.066.131.216.134.332.195.03.022.037.06.07.08.05.03.127.042.184.068.04.009.064.054.104.061.027.004.047.008.074.012.044.045.042.153.1.182.051.026.089.029.139.035.049.006.106.012.172.014.132.004.299.001.49-.006.124-.004.294-.02.436-.027.299.02.56.074.877.07.008 0 .015.002.023.002.76-.001 1.525-.065 2.109-.162.025-.004.065-.004.092-.008.716.029 1.434.056 1.992.063.312.004.58.003.785-.006.103-.004.189-.011.26-.02.071-.008.12-.011.184-.043.09-.045.172-.118.252-.201.023-.007.046-.014.072-.018.271-.006.548.046.805-.039.179-.06.657-.094 1.055-.207.199-.057.387-.132.521-.273.134-.141.188-.361.111-.592-.028-.083-.009-.201-.031-.289.048-.101.182-.131.211-.246.033-.13.079-.332.105-.541.027-.209.039-.421-.021-.604-.053-.159-.163-.271-.256-.371-.093-.1-.166-.19-.186-.248-.012-.037-.05-.128-.064-.178.002-.013.002-.012.004-.025.013-.085.03-.188.045-.291.015-.103.029-.203.035-.285.003-.041.005-.079.002-.115-.001-.018-.004-.035-.012-.061-.004-.013-.01-.029-.021-.047-.006-.009-.013-.019-.023-.029-.01-.01-.038-.027-.039-.027-.108-.054-.214-.042-.32-.043-.002-.004-.002-.008-.004-.012-.051-.089-.107-.17-.178-.234-.071-.065-.162-.115-.268-.119-.019-.001-.036.019-.055.021-.002-.006-.004-.015-.006-.021-.045-.158-.09-.294-.135-.4-.022-.053-.044-.099-.07-.141-.026-.041-.053-.08-.115-.111-.124-.062-.277-.078-.508-.098-.23-.02-.524-.032-.863-.039m12.07.154c.013.018.03.042.041.059-.024-.005-.051-.011-.078-.016.003-.006.003-.012.006-.018.012-.006.02-.018.031-.025m-12.08.146c.009 0 .013 0 .021 0-.37.06-.766.087-1.164.119-.402-.051-.815-.09-1.242-.107.872-.017 1.722-.025 2.385-.012m-2.898.023c-.257-.003-.5.017-.756.021l-.002-.002c.309-.008.446-.012.758-.02m-1.178.029c-.003.002-.005.004-.008.006-1.037.034-2.034.11-2.773.295-.214.053-.437.053-.666.059-.129.003-.259.05-.389.074-.004-.036.007-.068 0-.104-.014-.073-.042-.097-.066-.131.104-.035.213-.062.346-.102l-.027-.092c.038.002.066-.001.105.002.31.019.638.059.822.059.422 0 1.606-.037 2.656-.066m15.803.016c0 .001 0 .003 0 .004-.009.003-.016.005-.025.008.007-.006.019-.005.025-.012m12.186.006c.044.007.091.014.115.025.006.017.013.045.02.084.014.086.02.209.021.334.001.133-.003.21-.008.32-.04-.273-.089-.531-.148-.764m-23.389.045c.232-.012.481.021.738.035.009.017.016.028.025.051.028.066.06.171.092.275-.111-.017-.25-.034-.414-.053-.249-.028-.572-.057-.891-.086-.044-.01-.086-.021-.131-.031.051-.004.103-.007.154-.016.115-.019.201-.075.27-.113.069-.039.12-.061.156-.063m-4.768.193c.01.032.029.058.051.078-.54.028-1.073.008-1.604.141-.049.012-.203.032-.387.049-.147.014-.323.028-.496.043.667-.157 1.518-.262 2.436-.311m2.338.178c.129.007.198.01.396.023.357.025.801.06 1.238.098.176.015.316.031.484.047.423.106.821.225 1.154.373l.086.053c.009-.015.014-.017.023-.031.011.005.034.005.045.01.025.108.051.219.076.324-.036.33-.144.755-.283 1.186-.142.442-.316.888-.473 1.252-.156.364-.302.655-.363.746-.071.106-.194.277-.322.43 0 0-.002.002-.002.002-.235.019-.456.043-.725.045-.6.004-1.218-.013-1.742-.012-.524.001-.939.01-1.197.096.011-.004-.018.004-.053.01-.035.006-.081.012-.139.02-.115.015-.272.033-.455.053-.078.008-.191.017-.281.025-.449-.021-.93-.042-1.301-.061-.642-.031-1.107-.055-1.26-.055-.147 0-.339-.004-.506-.035-.062-.012-.111-.03-.16-.049-.032-.06-.061-.134-.086-.246-.078-.348-.125-.803-.148-1.271-.041-.803-.021-1.574-.014-2.043.059-.13.148-.267.313-.432-.028.028.001.003.047-.01.046-.013.114-.025.193-.037.159-.025.368-.047.582-.066.215-.02.434-.037.621-.055.187-.017.332-.032.432-.057 1.204-.301 2.52-.183 3.818-.332m-5.527.219c-.073.012-.143.024-.199.039-.065.018-.115.025-.178.088-.041.041-.065.08-.1.121-.001-.062-.002-.115 0-.176.122-.031.239-.066.393-.07.026-.001.057-.001.084-.002m31.21.262c.006.029.013.055.018.088.008.061.009.116.016.178-.016-.088-.023-.177-.033-.266m-32.08.076c.004.185.018.39.031.59-.026.13-.037.256-.031.371.017.333.086.585-.072.9-.024.048-.037.101-.055.152-.029-.399-.051-.8-.057-1.125-.003-.174-.002-.327.004-.447.006-.12.022-.212.029-.234-.001.004.022-.042.057-.09.025-.035.061-.077.094-.117m10.189.064c.034.006.067.015.1.014.099.217.173.459.24.686-.004.033-.012.073-.012.104 0 .669.082 1.349.223 1.988-.073.137-.19.242-.303.35.048-.256.115-.51.115-.746 0-.126-.033-.371-.086-.711-.053-.34-.128-.759-.211-1.172-.019-.094-.039-.175-.059-.258.009-.094-.004-.171-.008-.254m.424.045c.001 0 .003 0 .004 0 0 .002-.002.007-.002.01-.001-.004-.001-.006-.002-.01m21.865.896c.068.325.153.673.234 1 .086.348.168.674.219.916.025.121.042.22.049.287.002.018.002.025.002.037-.043.033-.133.085-.287.129-.17.049-.393.091-.65.127-.07.01-.174.011-.248.02.018-.023.037-.049.055-.074.103-.024.209-.048.297-.078.131-.045.245-.096.336-.168.091-.072.166-.179.166-.305 0-.426-.079-.816-.174-1.197.01-.163.023-.314.014-.557-.002-.042-.01-.097-.012-.141m-22.434.092c.044.241.093.495.125.697.052.335.082.609.082.664 0 .34-.07.806-.168 1.102-.01.031-.072.063-.107.096-.292.136-.674.197-1.043.268-.027.003-.06.003-.088.006.063-.084.139-.179.18-.24.093-.14.229-.421.389-.793.16-.372.336-.826.482-1.279.057-.176.103-.349.148-.52m21.986.119c.053.188.099.375.146.563-.003.028.001.103-.002.123-.026.153-.109.36-.18.555.002-.09.035-.19.035-.264v-.977m-37.568.111c.022.828.032 1.66.033 2.5-.029.68-.064 1.428-.064 1.9 0 .363.072.671.139 1.01-.001.059-.003.118-.004.178-.107-.581-.238-1.159-.375-1.729.03-.256.036-.515.094-.744.082-.328.04-.664.004-.982-.036-.318-.068-.62-.004-.875.102-.407.148-.83.178-1.254m16.41.043c.086.094.161.181.184.25.031.092.03.283.006.473-.017.135-.045.247-.07.359-.054-.355-.109-.703-.119-1.082m9.879.74c.068.427.166.825.393 1.086-.015-.006-.039-.01-.053-.016-.08-.034-.12-.074-.125-.084-.099-.199-.154-.426-.199-.664-.007-.108-.01-.214-.016-.322m11.555.42c.013.123.043.242.043.369 0 .013-.003.03-.051.068-.044.035-.128.075-.227.111.034-.068.067-.129.1-.201.05-.114.093-.231.135-.348m-32.18.154c.009.133.022.262.033.393-.01-.046-.028-.087-.035-.133-.011-.07-.005-.135-.01-.205.004-.017.008-.035.012-.055m10.66.539c.007.023 0 .053.008.076.051.154.027.218-.043.291-.07.073-.212.142-.387.191-.023.007-.047.008-.07.014.229-.131.332-.375.492-.572m10.227.244c.103.04.216.07.33.094.253.052.522.081.605.102.068.017.185-.003.256.012.03.005.051.018.074.029-.089-.001-.1 0-.189-.002-.346-.006-.676-.015-.947-.025-.05-.063-.092-.134-.129-.209m-.238.004c.03.06.035.135.07.191-.036-.002-.087-.004-.115-.006-.012-.001-.017-.001-.027-.002.004-.015.006-.025.014-.045.015-.037.035-.078.053-.119.002-.005.003-.014.006-.02m.824.518c.167.004.31.01.486.014.262.005.319.003.553.006-.102.006-.151.023-.254.025-.272.007-.539-.001-.754-.033-.016-.002-.016-.009-.031-.012m14.643 1.742c0 .034.003.063.006.139.003.078.007.185.012.311.008.251.018.574.016.885-.001.141-.014.242-.021.361-.002 0-.004 0-.006 0-.002-.02-.003-.038-.004-.064-.017-.387-.017-.89-.008-1.396.002-.083.004-.152.006-.234m-.268 1.998c.002.021.003.048.006.068-.194-.014-.4.003-.605.025-.352.039-.704.088-.902.055-.32-.053-.619-.043-.934-.055.748-.015 1.477-.09 2.234-.09.021 0 .134-.003.201-.004m-10.605.008c.523-.001 1.062-.015 1.441.08.331.083.917-.005 1.439.029 1.059.028 2.129.001 3.172.15.825.118 1.622.086 2.412.143-.007.001-.016.001-.023.002h-1.395c-.677 0-1.364.028-2.047.043-1.974.019-3.949.046-5.895-.131-1.831-.166-3.653-.178-5.494-.178h-7.867-2.957c5.737-.044 11.477-.133 17.213-.139m-26.346.129c-1.11.032-2.216.098-3.289.098-.097 0-.184.003-.277.008.003-.031.003-.061.006-.092.048.001.075-.011.125-.008.205.012.416.039.588.039.95 0 1.899-.023 2.848-.045m-3.863.031c-.002.027-.003.055-.006.082-.038-.003-.065-.019-.096-.031-.001-.01-.003-.021-.004-.031.008-.006.021-.013.021-.014.018-.006.062-.001.084-.006m-.422.248c.011.005.022.009.033.014.008.044.018.088.018.131 0 .057.009.067.018.096.003.009.008.021.012.031-.019.026-.046.05-.064.076-.005-.116-.006-.232-.016-.348m8.109.123c.615.051 1.233.092 1.852.117-.43-.001-.861-.008-1.285.021-1.669.115-3.305.312-4.947.482.119-.024.187-.024.311-.051.542-.117 1.097-.251 1.406-.313.799-.16 1.715-.224 2.664-.258m7.373.109c.121.003.235.019.354.027h-1.762c.474-.021.948-.039 1.408-.027" shape-rendering="auto" mix-blend-mode="normal" color-interpolation-filters="linearRGB" isolation="auto" white-space="normal" fill="#fff" solid-opacity="1" image-rendering="auto" fill-opacity=".827" solid-color="#000000" color-rendering="auto" shape-padding="0" color-interpolation="sRGB"/><path d="m61 4l-56 56h17 36 3v-12-13-14-17m-12 29v15h-15l15-15" fill="#d6ba50"/><path d="m62 5l-1 1v15 14 13 12h-3-36-15l-1 1h17 36 3v-12-13-14-17m-13 28l-15 15h2l13-13v-2" fill="#00346a" fill-opacity=".157"/><path d="m55 13v1h4v-1h-4m-2.906 2.594l-.719.688 2.844 2.844.688-.719-2.813-2.813m2.906.406v1h4v-1h-4m-5.03 1.719l-.719.688 2.844 2.844.688-.719-2.813-2.813m5.03 1.281v1h4v-1h-4m-7.156.844l-.719.688 2.844 2.844.688-.719-2.813-2.813m-2.125 2.094l-.719.719 2.844 2.844.719-.719-2.844-2.844m9.281.063v1h4v-1h-4m-11.406 2.063l-.688.719 2.813 2.813.719-.688-2.844-2.844m11.406.938v1h4v-1h-4m-13.531 1.188l-.688.719 2.813 2.813.719-.688-2.844-2.844m13.531 1.813v1h4v-1h-4m-15.656.313l-.688.719 2.813 2.813.719-.688-2.844-2.844m-2.094 2.125l-.719.719 2.813 2.813.719-.719-2.813-2.813m17.75.563v1h4v-1h-4m-19.875 1.563l-.719.688 2.844 2.844.688-.719-2.813-2.813m19.875 1.438v1h4v-1h-4m-22 .688l-.719.688 2.844 2.844.688-.719-2.813-2.813m-2.125 2.125l-.719.688 2.844 2.844.688-.719-2.813-2.813m24.13.188v1h4v-1h-4m-26.25 1.906l-.719.719 2.844 2.844.719-.719-2.844-2.844m26.25 1.094v1h4v-1h-4m-28.375 1.031l-.719.719 2.844 2.844.719-.719-2.844-2.844m28.375 1.969v1h4v-1h-4m-30.5.156l-.688.719 2.813 2.813.719-.688-2.844-2.844m-2.125 2.125l-.688.719 2.813 2.813.719-.688-2.844-2.844m32.625.719v1h4v-1h-4m-34.75 1.406l-.688.719 2.813 2.813.719-.688-2.844-2.844m34.75 1.594v1h4v-1h-4m-36.844.531l-.719.719 2.813 2.813.719-.719-2.813-2.813m-2.125 2.125l-.719.688 2.844 2.844.688-.719-2.813-2.813m38.969.344v1h4v-1h-4m-42 3v4h1v-4h-1m3 0v4h1v-4h-1m3 0v4h1v-4h-1m3 0v4h1v-4h-1m3 0v4h1v-4h-1m3 0v4h1v-4h-1m3 0v4h1v-4h-1m3 0v4h1v-4h-1m3 0v4h1v-4h-1m3 0v4h1v-4h-1m3 0v4h1v-4h-1m3 0v4h1v-4h-1m3 0v4h1v-4h-1m3 0v4h1v-4h-1m3 0v1 3h1v-3h3v-1h-3-1" fill="#392315" fill-opacity=".399"/></g></svg>