<svg xmlns="http://www.w3.org/2000/svg" viewBox="0 0 64 64"><g color="#000"><path d="m0 4v30 28l2 2h30 30l2-2v-28-30h-32-32" fill="#376dcf"/><path d="m2 0l-2 1v3h19.563 19.563 24.875v-3l-2-1h-22.875-19.563-17.563" fill="#6ea2f8"/></g><path d="m64 6l-2-2 2-1z" fill="#5588e2"/><path d="m0 3v3l2-2" fill="#94bbfa"/><g color="#000"><path d="m25.813 11.844c-.104.009-.185.004-.281.031-.187.053-.378.161-.563.281-.149.098-.29.204-.438.344-.045.043-.08.079-.125.125-.166.169-.337.376-.5.594-.064.086-.124.188-.188.281-.077.113-.143.221-.219.344-.134.216-.274.442-.406.688-.103.191-.211.385-.313.594-.011.022-.021.04-.031.063-.153.319-.288.644-.438 1-.369.877-.749 1.867-1.094 2.938-.007.021-.025.042-.031.063-.289.905-.543 1.894-.813 2.906-.029.107-.065.204-.094.313-.287 1.098-.553 2.251-.813 3.438-.049.225-.108.46-.156.688-.531 2.506-.988 5.144-1.375 7.781-.221 1.506-.427 2.998-.594 4.469-.002.021.002.042 0 .063-.947 8.413-.957 15.783.531 16.75 3.596 2.338 8.906-4.124 17.656-5.906 8.75-1.782 13.829 3.076 16.594-.594 1.161-1.541-2.28-8.649-7.094-16.25-1.501-2.37-3.106-4.782-4.781-7.094-.137-.189-.269-.375-.406-.563-.206-.282-.418-.535-.625-.813-.706-.946-1.42-1.863-2.125-2.75-.229-.289-.459-.563-.688-.844-.225-.276-.433-.576-.656-.844-.126-.151-.25-.289-.375-.438-.336-.397-.638-.75-.969-1.125-.446-.508-.879-1.01-1.313-1.469-.418-.445-.847-.853-1.25-1.25-.32-.316-.629-.624-.938-.906-.098-.09-.184-.164-.281-.25-.252-.225-.477-.425-.719-.625-.024-.019-.039-.043-.063-.063-.268-.219-.527-.408-.781-.594-.043-.031-.082-.063-.125-.094-.173-.124-.334-.236-.5-.344-.145-.094-.267-.169-.406-.25-.066-.039-.122-.058-.188-.094-.207-.113-.4-.232-.594-.313-.009-.004-.022.004-.031 0-.22-.092-.424-.17-.625-.219-.043-.01-.083-.023-.125-.031-.045-.009-.081.007-.125 0-.182-.027-.368-.046-.531-.031" fill="#11336c"/><path d="m42.28 30.906c-9.879.133-17.538 2.482-24.625 5.406-.112.824-.221 1.657-.313 2.469-.002.021.002.042 0 .063-.947 8.413-.957 15.783.531 16.75 3.596 2.338 8.906-4.124 17.656-5.906 8.75-1.782 13.829 3.076 16.594-.594 1.161-1.541-2.28-8.649-7.094-16.25-.407-.643-.828-1.291-1.25-1.938-.505-.005-1.01-.007-1.5 0" fill="#d9dbe3"/><rect width="14" height="24" x="-9.121" y="38.962" rx="7" transform="matrix(.70711-.70711.70711.70711 0 0)" fill="#001d4d" fill-opacity=".138"/><path transform="matrix(1.77778 0 0 1.77778-24.626-26.04)" d="m35.26695 33.771187a3.977475 3.977475 0 0 1 -3.977475 3.977475 3.977475 3.977475 0 0 1 -3.977476 -3.977475 3.977475 3.977475 0 0 1 3.977476 -3.977476 3.977475 3.977475 0 0 1 3.977475 3.977476" fill="#b83036"/></g></svg>