<?xml version="1.0" encoding="UTF-8" standalone="no"?>
<!-- Created with Inkscape (http://www.inkscape.org/) -->

<svg
   xmlns:dc="http://purl.org/dc/elements/1.1/"
   xmlns:cc="http://creativecommons.org/ns#"
   xmlns:rdf="http://www.w3.org/1999/02/22-rdf-syntax-ns#"
   xmlns:svg="http://www.w3.org/2000/svg"
   xmlns="http://www.w3.org/2000/svg"
   xmlns:sodipodi="http://sodipodi.sourceforge.net/DTD/sodipodi-0.dtd"
   xmlns:inkscape="http://www.inkscape.org/namespaces/inkscape"
   width="64"
   height="64"
   id="svg13094"
   version="1.1"
   inkscape:version="0.48.4 r9939"
   sodipodi:docname="lampp.svg">
  <sodipodi:namedview
     id="base"
     pagecolor="#ffffff"
     bordercolor="#666666"
     borderopacity="1.0"
     inkscape:pageopacity="0"
     inkscape:pageshadow="2"
     inkscape:zoom="11.313709"
     inkscape:cx="13.952326"
     inkscape:cy="31.889325"
     inkscape:document-units="px"
     inkscape:current-layer="svg13094"
     showgrid="false"
     inkscape:snap-bbox="true"
     inkscape:bbox-paths="true"
     inkscape:bbox-nodes="true"
     inkscape:snap-bbox-edge-midpoints="true"
     inkscape:snap-bbox-midpoints="true"
     inkscape:object-paths="true"
     inkscape:snap-intersection-paths="true"
     inkscape:object-nodes="true"
     inkscape:snap-smooth-nodes="true"
     inkscape:snap-midpoints="true"
     inkscape:snap-object-midpoints="true"
     inkscape:snap-center="true"
     showguides="true"
     inkscape:guide-bbox="true"
     inkscape:window-width="1920"
     inkscape:window-height="1025"
     inkscape:window-x="-2"
     inkscape:window-y="32"
     inkscape:window-maximized="1"
     inkscape:snap-global="true"
     fit-margin-top="0"
     fit-margin-left="0"
     fit-margin-right="0"
     fit-margin-bottom="0"
     showborder="true"
     inkscape:showpageshadow="false"
     inkscape:snap-page="true">
    <inkscape:grid
       type="xygrid"
       id="grid3075"
       empspacing="5"
       visible="true"
       enabled="true"
       snapvisiblegridlinesonly="true"
       originx="1.6362304e-08px"
       originy="18px" />
  </sodipodi:namedview>
  <defs
     id="defs13096" />
  <metadata
     id="metadata13099">
    <rdf:RDF>
      <cc:Work
         rdf:about="">
        <dc:format>image/svg+xml</dc:format>
        <dc:type
           rdf:resource="http://purl.org/dc/dcmitype/StillImage" />
        <dc:title />
      </cc:Work>
    </rdf:RDF>
  </metadata>
  <path
     id="path3983"
     d="m 0,4 0,30 0,28 2,2 30,0 30,0 2,-2 L 64,34 64,4 32,4 0,4 z"
     style="color:#000000;fill:#df5c30;fill-opacity:1;fill-rule:nonzero;stroke:none;stroke-width:2.28571415;marker:none;visibility:visible;display:inline;overflow:visible;enable-background:accumulate"
     inkscape:connector-curvature="0" />
  <path
     style="color:#000000;fill:#ff9d51;fill-opacity:1;fill-rule:nonzero;stroke:none;marker:none;visibility:visible;display:inline;overflow:visible;enable-background:accumulate"
     d="M 2 0 L 0 1 L 0 4 L 32 4 L 64 4 L 64 1 L 62 0 L 32 0 L 2 0 z "
     id="path6502" />
  <path
     d="M 64,6 62,4 64,3 z"
     id="path3028"
     style="fill:#ea7c43;fill-opacity:1"
     inkscape:connector-curvature="0" />
  <g
     id="g3043"
     inkscape:export-filename="folder.png"
     inkscape:export-xdpi="90"
     inkscape:export-ydpi="90"
     transform="translate(-0.62500009,0.082283)" />
  <g
     id="scalable"
     transform="matrix(1.0385892,0,0,1.0385892,1214.7222,1878.8121)"
     inkscape:label="#g3701"
     style="fill:#ffffff" />
  <path
     style="fill:#ffae6f;fill-opacity:1;fill-rule:nonzero"
     d="M 0,3 0,6 2,4 Z"
     id="path4298"
     inkscape:connector-curvature="0"
     sodipodi:nodetypes="cccc" />
  <path
     style="fill:#e9e9e9;fill-opacity:1;fill-rule:evenodd"
     d="m 42.41616,15.860767 c -4.778634,0 -8.853151,3.075281 -10.424455,7.391594 -1.473101,-4.077492 -5.558626,-7.026985 -10.374749,-7.026985 -6.055851,0 -10.954808,4.638761 -10.954808,10.358176 0,2.360898 0.845614,4.539287 2.253947,6.281194 -1.5363,1.983976 -2.45282,4.511909 -2.452813,7.259007 0,6.387201 4.970584,11.551439 11.10396,11.551439 4.705998,0 8.724329,-3.037882 10.341593,-7.341876 1.458229,4.540388 5.472899,7.805917 10.209017,7.805917 5.966362,0 10.805651,-5.180814 10.805651,-11.568004 -1.1e-5,-2.346336 -0.66827,-4.524258 -1.789891,-6.347488 1.501644,-1.93325 2.403095,-4.368952 2.403106,-7.026988 -1.1e-5,-6.26208 -4.981187,-11.335986 -11.120558,-11.335986 z m -20.053416,7.126427 c 2.216975,0 4.027272,1.737747 4.027254,3.878098 4e-6,1.016881 -0.01651,3.861529 -0.01651,3.861529 l -4.010693,0 c -2.216975,0 -4.010678,-1.721479 -4.010689,-3.861529 0,-2.1402 1.79371,-3.878098 4.010685,-3.878098 z m 20.202576,0.298319 a 3.3676532,3.367653 0 0 1 3.430641,3.414054 c -8e-6,2.688855 -0.408175,5.261427 -1.823033,7.225862 a 3.3676532,3.367653 0 0 1 1.839605,3.049448 l -3e-6,3.960972 a 3.3726245,3.3726243 0 0 1 -6.745249,0 l 3e-6,-3.861537 c -1.686978,0.425806 -3.562732,0.513766 -5.667982,0.513766 -3.580489,0 -6.364979,0.05413 -7.325319,0.430903 -0.480161,0.188374 -0.538069,0.230909 -0.729215,0.580055 -0.191138,0.34911 -0.447468,1.191978 -0.447461,2.784274 a 3.3726245,3.3726243 0 0 1 -6.745249,0 c -3e-6,-2.299073 0.347172,-4.289066 1.292691,-6.016023 0.945261,-1.726957 2.560518,-2.995484 4.176429,-3.629507 2.595002,-1.018173 5.149152,-0.983349 7.805917,-0.928092 0.05007,-0.105566 0.102802,-0.207327 0.149142,-0.314903 0.03374,0.112745 0.07882,0.220356 0.116011,0.33145 0.565752,0.01185 1.129604,0.01651 1.707033,0.01651 3.258454,0 4.728091,-0.519727 5.005067,-0.745787 0.276963,-0.225992 0.662922,-0.771183 0.662918,-3.397482 a 3.3676532,3.367653 0 0 1 3.298036,-3.414054 z"
     id="path3050"
     inkscape:connector-curvature="0" />
</svg>
