<svg xmlns="http://www.w3.org/2000/svg" viewBox="0 0 64 64"><g color="#000"><path d="m0 4v30 28l2 2h30 30l2-2v-28-30h-32-32" fill="#aeb4c3"/><path d="m2 0l-2 1v3h19.563 19.563 24.875v-3l-2-1h-22.875-19.563-17.563" fill="#e7ecf0"/></g><path d="m0 3v3l2-2" fill="#f2f5f7"/><path d="m64 6l-2-2 2-1" fill="#ccd1db"/><g transform="matrix(.63454 0 0 .63454 16.224-35.786)"><path d="m13.563 13.438c-.453-.027-.907.032-1.344.219-3.02 2.685-3.216 5.04.813 6.938-2.362 2.924-2.451 5.836.656 8.688-10.966 7.915-3.581 19.813 1.969 19.813h7.906c1.566 0 2.636 1.62 2.594 2.906-.046 1.421-1.351 2.531-2 2.531l-4.719-.313c-1.27-.087-2.111 1.05-2.156 2.281-.047 1.269 1.782 2.625 3.094 2.625h1.531c3.206 0 6.969-4.82 6.969-9 0-2.757-2.825-6.094-5.531-6.094h-7.938c-3.152 0-4.875-3.431-4.875-6.125 0-3.734 3.707-6.847 5.781-7.469 1.158-.347 7.563 2.17 7.563-1.844 0-1.206-3.179-3.03-7.938-.344-3.01-2.28-3.52-5.371.031-7.469.419-.248 3.614-.22 5.75-1.469 1.9-1.111 2.353-2.606 1.938-3.5-.459-.987-2.399-1.249-4.25-.406-2.065.941-4.048 3.061-4.469 3.156-2.742.622-3.449-2.796.063-3.875 1.057-.325-.079-1.168-1.438-1.25m17.781 4.344l-.656.781 9.844 15.688-10.281 13.531-.281 1.094 24.313.063 2.469-8.438h-1.531c-.935 3.425-3.489 4.344-6.406 4.344h-13.406l9.625-13.09-7.563-11.688h9.813c3.405 0 4.965 2.53 5.03 5.469l1.719-.094-.563-7.156-.906-.5h-21.22" transform="matrix(1.63629 0 0 1.63629-27.23 52.04)" fill="#1b7bc7" fill-opacity=".616" color="#000"/><path d="m-.36 80.68c2.081 0 4.217-.084 6.411-.253l21.09 46.645 18.388-46.645c.956.113 1.996.197 3.121.253 1.181 0 2.334 0 3.458 0 1.125 0 2.193 0 3.205 0 1.012-.056 2.081-.141 3.205-.253 0 .619-.028 1.237-.084 1.856-.056.562-.169 1.153-.337 1.771-1.012 0-1.912.141-2.699.422-.787.225-1.434.675-1.94 1.35-.506.619-.872 1.49-1.097 2.615-.169 1.068-.169 2.446 0 4.133l3.037 30.956c.225 2.081.478 3.796.759 5.145.281 1.35.647 2.418 1.097 3.205.506.787 1.096 1.378 1.771 1.771.675.337 1.518.534 2.53.59.169.619.281 1.265.337 1.94.056.619.084 1.209.084 1.771-.675-.056-1.434-.112-2.277-.169-.844 0-1.715-.028-2.615-.084-.9 0-1.828 0-2.784 0h-2.446c-1.518 0-3.262 0-5.23 0-1.912.056-3.599.141-5.061.253 0-.506.028-1.097.084-1.771.112-.675.253-1.293.422-1.856 1.35-.112 2.418-.337 3.205-.675.787-.337 1.35-.843 1.687-1.518.337-.731.506-1.687.506-2.868 0-1.237-.084-2.784-.253-4.639l-3.037-28.932-17.46 42.17c-.956.394-2.109.59-3.458.59l-19.653-42.681-2.699 27.08c-.225 2.249-.309 4.105-.253 5.567.112 1.406.365 2.53.759 3.374.45.844 1.068 1.462 1.856 1.856.843.337 1.884.562 3.121.675.169.619.281 1.293.337 2.024.056.675.084 1.209.084 1.603-1.35-.112-2.896-.197-4.639-.253-1.687 0-3.149 0-4.386 0-1.237 0-2.671 0-4.302 0-1.631.056-3.01.141-4.133.253 0-.394.028-.928.084-1.603.056-.731.169-1.406.337-2.024 1.125-.112 2.052-.337 2.784-.675.787-.337 1.434-.928 1.94-1.771.506-.843.928-2.052 1.265-3.627.337-1.575.619-3.627.843-6.157l2.699-30.03c.281-3.037 0-5.117-.843-6.242-.844-1.181-2.446-1.771-4.808-1.771-.169-.562-.281-1.181-.337-1.856-.056-.675-.084-1.265-.084-1.771.843.113 1.856.197 3.037.253 1.181 0 2.306 0 3.374 0" stroke-width="6.304" fill="#9d5f4a" stroke-linejoin="round" stroke="#dbdfe5"/><path d="m-.36 80.68c2.081 0 4.217-.084 6.411-.253l21.09 46.645 18.388-46.645c.956.113 1.996.197 3.121.253 1.181 0 2.334 0 3.458 0 1.125 0 2.193 0 3.205 0 1.012-.056 2.081-.141 3.205-.253 0 .619-.028 1.237-.084 1.856-.056.562-.169 1.153-.337 1.771-1.012 0-1.912.141-2.699.422-.787.225-1.434.675-1.94 1.35-.506.619-.872 1.49-1.097 2.615-.169 1.068-.169 2.446 0 4.133l3.037 30.956c.225 2.081.478 3.796.759 5.145.281 1.35.647 2.418 1.097 3.205.506.787 1.096 1.378 1.771 1.771.675.337 1.518.534 2.53.59.169.619.281 1.265.337 1.94.056.619.084 1.209.084 1.771-.675-.056-1.434-.112-2.277-.169-.844 0-1.715-.028-2.615-.084-.9 0-1.828 0-2.784 0h-2.446c-1.518 0-3.262 0-5.23 0-1.912.056-3.599.141-5.061.253 0-.506.028-1.097.084-1.771.112-.675.253-1.293.422-1.856 1.35-.112 2.418-.337 3.205-.675.787-.337 1.35-.843 1.687-1.518.337-.731.506-1.687.506-2.868 0-1.237-.084-2.784-.253-4.639l-3.037-28.932-17.46 42.17c-.956.394-2.109.59-3.458.59l-19.653-42.681-2.699 27.08c-.225 2.249-.309 4.105-.253 5.567.112 1.406.365 2.53.759 3.374.45.844 1.068 1.462 1.856 1.856.843.337 1.884.562 3.121.675.169.619.281 1.293.337 2.024.056.675.084 1.209.084 1.603-1.35-.112-2.896-.197-4.639-.253-1.687 0-3.149 0-4.386 0-1.237 0-2.671 0-4.302 0-1.631.056-3.01.141-4.133.253 0-.394.028-.928.084-1.603.056-.731.169-1.406.337-2.024 1.125-.112 2.052-.337 2.784-.675.787-.337 1.434-.928 1.94-1.771.506-.843.928-2.052 1.265-3.627.337-1.575.619-3.627.843-6.157l2.699-30.03c.281-3.037 0-5.117-.843-6.242-.844-1.181-2.446-1.771-4.808-1.771-.169-.562-.281-1.181-.337-1.856-.056-.675-.084-1.265-.084-1.771.843.113 1.856.197 3.037.253 1.181 0 2.306 0 3.374 0" fill="#cb491c"/></g></svg>