<svg xmlns="http://www.w3.org/2000/svg" viewBox="0 0 64 64"><g color="#000"><path d="m0 4v30 28l2 2h30 30l2-2v-28-30h-32-32" fill="#6c4a28"/><path d="m2 0l-2 1v3h32 32v-3l-2-1h-30-30" fill="#b1793a"/></g><path d="m0 3v3l2-2" fill="#c48b4c"/><path d="m64 6l-2-2 2-1z" fill="#906332"/><path d="m48.672 9.776c-.101.023-.208.318-.317.878-.227 1.158-.506 1.24-3.221.994l-2.025-.183-.451.549c-.748.912-2 3.103-2.214 3.861-.276.998-.915 2.02-1.348 2.159-.201.064-.425.307-.5.543-.075.236-.433.815-.793 1.287-.36.472-.653.964-.653 1.092 0 .128-.351.723-.781 1.324-.43.601-.957 1.501-1.171 2-.388.906-2.076 3.221-2.349 3.221-.079 0-.209.198-.287.439-.103.319-.159.357-.22.14-.046-.164-.271-.383-.5-.488-.229-.105-.635-.628-.903-1.165-.268-.537-.608-1.196-.75-1.464-.143-.268-.435-.858-.653-1.305-.217-.448-.883-1.326-1.476-1.952-.987-1.042-2.033-2.789-2.044-3.416-.002-.141-.398-.868-.878-1.61-.481-.742-.872-1.505-.872-1.696 0-.191-.16-.458-.354-.598-.194-.14-.632-.754-.976-1.36-.344-.606-.747-1.146-.891-1.202-.144-.055-1.04-.16-1.995-.232-1.396-.105-1.815-.073-2.129.165-.355.269-.433.254-.842-.128-.377-.352-.476-.371-.622-.134-.116.188-.454.266-1.013.238-2.882-.143-5.244-.084-5.606.14-.144.089-.207.318-.14.525.176.546 1.266 1.635 1.635 1.635.25 0 .268.05.085.232-.318.318-.293.678.055.811.411.158.959-.427.695-.744-.22-.265-.005-.527.622-.75.578-.206.559.172-.073 1.397-.585 1.134-.6 1.203-.293 1.671.393.599.402 1.069.024 1.568-.284.375-.291.375-.586 0-.163-.208-.463-.696-.671-1.086-.397-.745-.717-.952-1.47-.952-.407 0-.473.114-.58 1.025-.066.564-.118 1.859-.116 2.879.009 3.773-.01 6.282-.085 11.712-.123 8.905-.119 14.164.012 16.885.067 1.396.036 3.065-.067 3.709-.103.644-.133 1.603-.067 2.135.102.823.192.989.604 1.086.387.091.496.246.531.787.024.372.086 1.094.14 1.604l.098.927c.237.009.199-.124.311-.342.077-.188.2-.825.268-1.415l.122-1.074 1.043-.061c.575-.033 1.159.037 1.305.159.168.139.392.159.616.049.195-.096.813-.142 1.373-.098.753.06 1.042.174 1.122.427.114.358.885.793 1.403.793.166 0 .54.143.836.317 1.311.774 2.396-.874 2.458-3.733.019-.859.102-1.72.183-1.909.081-.19.052-.46-.067-.604-.118-.143-.174-.302-.122-.354.052-.052.101-4.128.11-9.06l.018-8.961-.616-1.171c-.888-1.694-1.354-2.44-2.342-3.733-1.029-1.347-2.455-3.604-2.635-4.173-.069-.219-.354-.668-.634-1-.37-.439-.534-.894-.598-1.659-.048-.579-.002-1.049.098-1.049.099 0 .377.411.622.915.245.504.755 1.317 1.129 1.806.374.489.957 1.319 1.299 1.848.803 1.241.729 1.129 1.787 2.946 1.162 1.996 1 1.73 2.263 3.63l1.086 1.641-.055 9.663c-.029 5.315-.009 9.815.049 10 .058.189.176.304.262.25.444-.274.633-2.282.689-7.326.067-6.06.278-10.311.512-10.456.174-.108 1.153 1.239 1.153 1.586 0 .119.341.742.756 1.385l.756 1.171.153 3.01c.084 1.655.134 4.601.11 6.546-.038 3.03-.001 3.555.256 3.654.165.063.352.026.421-.085.138-.223.143-7.222.006-9.559-.105-1.791.081-2.231.592-1.427.436.686 1.386 1.966 1.922 2.58.217.249.71 1.036 1.092 1.745.904 1.679 1.239 1.888 1.806 1.141.553-.73 2.457-3.973 2.702-4.606.104-.268.42-.73.702-1.025.506-.53.513-.531.866-.153.411.441.868.341 1.049-.232.145-.456-.225-.789-.744-.665-.387.093-.303-.13.305-.805.692-.769 2.26-3.043 2.794-4.051.502-.948.523-.961.702-.488.101.267.178 1.615.171 2.995-.008 1.38.04 2.735.11 3.01l.128.506.195-.476c.108-.262.217-2.208.244-4.325.045-3.589.076-3.889.47-4.441.232-.326.499-.592.592-.592.092 0 .165 1.823.159 4.051-.006 2.246.079 4.439.195 4.923.137.573.144.946.018 1.098-.105.127-.185 1.146-.177 2.257.026 3.33.008 3.755-.195 4.264-.123.308-.137.992-.03 1.854.11.891.104 1.406-.024 1.488-.113.073-.131.281-.043.488.085.199.184.947.22 1.659.09 1.786.344 2.404.909 2.22.77-.25 1.775-.266 2.617-.043.747.198.83.276.891.909l.067.695.354-.781c.416-.919.308-.802.836-.964.294-.09.551-.017.805.238.544.544 1.383.719 1.537.317.104-.27.32-.302 1.409-.195.785.077 1.534.041 1.915-.092l.622-.22.061-5.301c.034-2.917.04-12.763.012-21.882-.039-13.08-.105-16.616-.299-16.739-.219-.139-1.803-.227-4.734-.262-1.244-.015-1.401-.118-1.562-1.068-.087-.516-.186-.767-.287-.744m-36.24 9.175c.022-.004.066.036.14.11.136.134.405.244.598.244.28 0 .354.159.354.781 0 .429-.032.781-.073.781-.041 0-.22-.225-.397-.494-.176-.269-.413-.73-.525-1.025-.102-.269-.134-.39-.098-.397m17.404 2.111c-.538 0-.783.269-.622.689.132.344.548.367.866.049.384-.384.265-.738-.244-.738m1.257 33.771c-.107 0-.195.088-.195.195 0 .107.088.195.195.195.107 0 .195-.088.195-.195 0-.107-.088-.195-.195-.195m-4.88 1.562c-.389 0-.51.204-.262.451.238.238.653.139.653-.159 0-.163-.174-.293-.39-.293m22.937.195c-.191 0-.291.187-.287.537.006.514.018.522.293.159.158-.208.287-.45.287-.537 0-.087-.132-.159-.293-.159m2.367.262c-.07-.012-.122.031-.122.116 0 .114.088.207.195.207.107 0 .195-.038.195-.085 0-.047-.088-.141-.195-.207-.027-.017-.05-.027-.073-.031" fill="#f2ab1a"/></svg>