<svg xmlns="http://www.w3.org/2000/svg" xmlns:xlink="http://www.w3.org/1999/xlink" viewBox="0 0 64 64"><g color="#000"><path d="m0 4v30 28l2 2h30 30l2-2v-28-30h-32-32" fill="#aeb4c3"/><path d="m2 0l-2 1v3h19.563 19.563 24.875v-3l-2-1h-22.875-19.563-17.563" fill="#e7ecf0"/></g><path d="m0 3v3l2-2z" fill="#f2f5f7"/><path d="m64 6l-2-2 2-1z" fill="#ccd1db"/><g id="0"><g color="#000"><path d="m42 14c1.108 0 2 .892 2 2 0 1.108-.892 2-2 2h11c1.108 0 2-.892 2-2 0-1.108-.892-2-2-2h-11" fill="#224060"/><path d="m11 14h31c1.108 0 2 .892 2 2 0 1.108-.892 2-2 2h-31c-1.108 0-2-.892-2-2 0-1.108.892-2 2-2" fill="#1f78ec"/></g><g transform="translate(1-2)"><rect transform="matrix(.70711-.70711.70711.70711 0 0)" rx="7" y="37.548" x="12.09" height="24.04" width="14" fill="#00386a" fill-opacity=".127" color="#000" id="1"/><path d="m49 21c0 2.761-2.239 5-5 5-2.761 0-5-2.239-5-5 0-2.761 2.239-5 5-5 2.761 0 5 2.239 5 5" transform="matrix(1.4 0 0 1.4-16.6-11.4)" fill="#3b89f0" color="#000"/></g></g><g transform="translate(0 17)"><rect width="46" height="4" x="9" y="14" rx="2" fill="#224060" color="#000"/><g transform="translate(-27-2)"><use xlink:href="#1"/><path transform="matrix(1.4 0 0 1.4-16.6-11.4)" d="m49 21c0 2.761-2.239 5-5 5-2.761 0-5-2.239-5-5 0-2.761 2.239-5 5-5 2.761 0 5 2.239 5 5" fill="#5f82ad" color="#000"/></g></g><use xlink:href="#0" transform="translate(0 34)" width="64" height="64"/></svg>