<svg xmlns="http://www.w3.org/2000/svg" viewBox="0 0 64 64"><g color="#000"><path d="m0 4v30 28l2 2h30 30l2-2v-28-30h-32-32" fill="#eea82f"/><path d="m2 0l-2 1v3h32 32v-3l-2-1h-30-30" fill="#ffda6e"/></g><path d="m0 3v3l2-2" fill="#ffe494"/><path d="m64 6l-2-2 2-1z" fill="#f3bf52"/><g transform="matrix(.70711.70711-.70711.70711 33.414-12.669)" color="#000"><path d="m44.19 29.25c-4.698.021-9.01 1.577-12.188 4.75-7.107 7.107-6.05 19.95 2 30h28l2-2v-24.25c-5.987-5.588-13.273-8.53-19.813-8.5" transform="matrix(.70711-.70711.70711.70711-14.669 32.586)" fill="#2b0000" fill-opacity=".159"/><g transform="matrix(0-1 1 0-2 66)"><circle r="20" cy="34" cx="32" fill="#1188f1"/><path transform="matrix(.52373 0 0 .34244 15.196 11.988)" d="M51.53041 32.445362A19.445436 19.445436 0 0 1 32.08497 51.890799 19.445436 19.445436 0 0 1 12.639532 32.445362 19.445436 19.445436 0 0 1 32.08497 12.999926 19.445436 19.445436 0 0 1 51.53041 32.445362" fill="#4dc0ff"/><path d="M51.53041 32.445362A19.445436 19.445436 0 0 1 32.08497 51.890799 19.445436 19.445436 0 0 1 12.639532 32.445362 19.445436 19.445436 0 0 1 32.08497 12.999926 19.445436 19.445436 0 0 1 51.53041 32.445362" transform="matrix(.45856 0 0-.29983 17.287 55.797)" fill="#f5cd88" fill-opacity=".217"/></g></g></svg>