<?xml version="1.0" encoding="UTF-8" standalone="no"?>
<!-- Created with Inkscape (http://www.inkscape.org/) -->

<svg
   xmlns:dc="http://purl.org/dc/elements/1.1/"
   xmlns:cc="http://creativecommons.org/ns#"
   xmlns:rdf="http://www.w3.org/1999/02/22-rdf-syntax-ns#"
   xmlns:svg="http://www.w3.org/2000/svg"
   xmlns="http://www.w3.org/2000/svg"
   xmlns:sodipodi="http://sodipodi.sourceforge.net/DTD/sodipodi-0.dtd"
   xmlns:inkscape="http://www.inkscape.org/namespaces/inkscape"
   width="64"
   height="64"
   id="svg13094"
   version="1.1"
   inkscape:version="0.48.4 r9939"
   sodipodi:docname="truecrypt.svg">
  <sodipodi:namedview
     id="base"
     pagecolor="#ffffff"
     bordercolor="#666666"
     borderopacity="1.0"
     inkscape:pageopacity="0"
     inkscape:pageshadow="2"
     inkscape:zoom="11.313709"
     inkscape:cx="26.351436"
     inkscape:cy="31.43568"
     inkscape:document-units="px"
     inkscape:current-layer="g3427"
     showgrid="true"
     inkscape:snap-bbox="true"
     inkscape:bbox-paths="true"
     inkscape:bbox-nodes="true"
     inkscape:snap-bbox-edge-midpoints="true"
     inkscape:snap-bbox-midpoints="true"
     inkscape:object-paths="true"
     inkscape:snap-intersection-paths="true"
     inkscape:object-nodes="true"
     inkscape:snap-smooth-nodes="true"
     inkscape:snap-midpoints="true"
     inkscape:snap-object-midpoints="true"
     inkscape:snap-center="true"
     showguides="true"
     inkscape:guide-bbox="true"
     inkscape:window-width="1920"
     inkscape:window-height="1025"
     inkscape:window-x="-2"
     inkscape:window-y="32"
     inkscape:window-maximized="1"
     inkscape:snap-global="true"
     fit-margin-top="0"
     fit-margin-left="0"
     fit-margin-right="0"
     fit-margin-bottom="0"
     showborder="true"
     inkscape:showpageshadow="false"
     inkscape:snap-page="true">
    <inkscape:grid
       type="xygrid"
       id="grid3075"
       empspacing="5"
       visible="true"
       enabled="true"
       snapvisiblegridlinesonly="true"
       originx="0px"
       originy="18px" />
  </sodipodi:namedview>
  <defs
     id="defs13096" />
  <metadata
     id="metadata13099">
    <rdf:RDF>
      <cc:Work
         rdf:about="">
        <dc:format>image/svg+xml</dc:format>
        <dc:type
           rdf:resource="http://purl.org/dc/dcmitype/StillImage" />
        <dc:title />
      </cc:Work>
    </rdf:RDF>
  </metadata>
  <path
     inkscape:connector-curvature="0"
     style="color:#000000;fill:#2465c2;fill-opacity:1;fill-rule:nonzero;stroke:none;stroke-width:2.28571415000000000;marker:none;visibility:visible;display:inline;overflow:visible;enable-background:accumulate"
     d="m 0,4 0,30 0,28 2,2 30,0 30,0 2,-2 L 64,34 64,4 32,4 0,4 z"
     id="path3443" />
  <path
     inkscape:connector-curvature="0"
     style="color:#000000;fill:#3ea1fb;fill-opacity:1;fill-rule:nonzero;stroke:none;stroke-width:2.28571415000000000;marker:none;visibility:visible;display:inline;overflow:visible;enable-background:accumulate"
     d="M 2,0 0,1 0,4 32,4 64,4 64,1 62,0 32,0 2,0 z"
     id="path3447" />
  <path
     d="M 64,6 62,4 64,3 z"
     id="path3028"
     style="fill:#3180db;fill-opacity:1"
     inkscape:connector-curvature="0" />
  <g
     id="g3043"
     inkscape:export-filename="folder.png"
     inkscape:export-xdpi="90"
     inkscape:export-ydpi="90"
     transform="translate(-0.625,0.082283)" />
  <g
     id="scalable"
     transform="matrix(1.0385892,0,0,1.0385892,1214.7222,1878.8121)"
     inkscape:label="#g3701"
     style="fill:#ffffff" />
  <g
     id="g3427"
     style="fill:#ffffff">
    <path
       style="color:#000000;fill:#42b7ff;fill-opacity:0.27484334;fill-rule:nonzero;stroke:none;stroke-width:0.35095345999999999;marker:none;visibility:visible;display:inline;overflow:visible;enable-background:accumulate"
       d="M 4 6 C 2.3431458 6 1 7.3431458 1 9 C 1 10.656854 2.3431458 12 4 12 C 5.6568542 12 7 10.656854 7 9 C 7 7.3431458 5.6568542 6 4 6 z M 11 6 C 9.3431458 6 8 7.3431458 8 9 C 8 10.656854 9.3431458 12 11 12 C 12.656854 12 14 10.656854 14 9 C 14 7.3431458 12.656854 6 11 6 z M 18 6 C 16.343146 6 15 7.3431458 15 9 C 15 10.656854 16.343146 12 18 12 C 19.656854 12 21 10.656854 21 9 C 21 7.3431458 19.656854 6 18 6 z M 25 6 C 23.343146 6 22 7.3431458 22 9 C 22 10.656854 23.343146 12 25 12 C 26.656854 12 28 10.656854 28 9 C 28 7.3431458 26.656854 6 25 6 z M 32 6 C 30.343146 6 29 7.3431458 29 9 C 29 10.656854 30.343146 12 32 12 C 33.656854 12 35 10.656854 35 9 C 35 7.3431458 33.656854 6 32 6 z M 39 6 C 37.343146 6 36 7.3431458 36 9 C 36 10.656854 37.343146 12 39 12 C 40.656854 12 42 10.656854 42 9 C 42 7.3431458 40.656854 6 39 6 z M 46 6 C 44.343146 6 43 7.3431458 43 9 C 43 10.656854 44.343146 12 46 12 C 47.656854 12 49 10.656854 49 9 C 49 7.3431458 47.656854 6 46 6 z M 53 6 C 51.343146 6 50 7.3431458 50 9 C 50 10.656854 51.343146 12 53 12 C 54.656854 12 56 10.656854 56 9 C 56 7.3431458 54.656854 6 53 6 z M 60 6 C 58.343146 6 57 7.3431458 57 9 C 57 10.656854 58.343146 12 60 12 C 61.656854 12 63 10.656854 63 9 C 63 7.3431458 61.656854 6 60 6 z M 4 13 C 2.3431458 13 1 14.343146 1 16 C 1 17.656854 2.3431458 19 4 19 C 5.6568542 19 7 17.656854 7 16 C 7 14.343146 5.6568542 13 4 13 z M 11 13 C 9.3431458 13 8 14.343146 8 16 C 8 17.656854 9.3431458 19 11 19 C 12.656854 19 14 17.656854 14 16 C 14 14.343146 12.656854 13 11 13 z M 18 13 C 16.343146 13 15 14.343146 15 16 C 15 17.656854 16.343146 19 18 19 C 19.656854 19 21 17.656854 21 16 C 21 14.343146 19.656854 13 18 13 z M 46 13 C 44.343146 13 43 14.343146 43 16 C 43 17.656854 44.343146 19 46 19 C 47.656854 19 49 17.656854 49 16 C 49 14.343146 47.656854 13 46 13 z M 53 13 C 51.343146 13 50 14.343146 50 16 C 50 17.656854 51.343146 19 53 19 C 54.656854 19 56 17.656854 56 16 C 56 14.343146 54.656854 13 53 13 z M 60 13 C 58.343146 13 57 14.343146 57 16 C 57 17.656854 58.343146 19 60 19 C 61.656854 19 63 17.656854 63 16 C 63 14.343146 61.656854 13 60 13 z M 4 20 C 2.3431458 20 1 21.343146 1 23 C 1 24.656854 2.3431458 26 4 26 C 5.6568542 26 7 24.656854 7 23 C 7 21.343146 5.6568542 20 4 20 z M 11 20 C 9.3431458 20 8 21.343146 8 23 C 8 24.656854 9.3431458 26 11 26 C 12.656854 26 14 24.656854 14 23 C 14 21.343146 12.656854 20 11 20 z M 25 20 C 23.343146 20 22 21.343146 22 23 C 22 24.656854 23.343146 26 25 26 C 26.656854 26 28 24.656854 28 23 C 28 21.343146 26.656854 20 25 20 z M 32 20 C 30.343146 20 29 21.343146 29 23 C 29 24.656854 30.343146 26 32 26 C 33.656854 26 35 24.656854 35 23 C 35 21.343146 33.656854 20 32 20 z M 39 20 C 37.343146 20 36 21.343146 36 23 C 36 24.656854 37.343146 26 39 26 C 40.656854 26 42 24.656854 42 23 C 42 21.343146 40.656854 20 39 20 z M 53 20 C 51.343146 20 50 21.343146 50 23 C 50 24.656854 51.343146 26 53 26 C 54.656854 26 56 24.656854 56 23 C 56 21.343146 54.656854 20 53 20 z M 60 20 C 58.343146 20 57 21.343146 57 23 C 57 24.656854 58.343146 26 60 26 C 61.656854 26 63 24.656854 63 23 C 63 21.343146 61.656854 20 60 20 z M 4 27 C 2.3431458 27 1 28.343146 1 30 C 1 31.656854 2.3431458 33 4 33 C 5.6568542 33 7 31.656854 7 30 C 7 28.343146 5.6568542 27 4 27 z M 11 27 C 9.3431458 27 8 28.343146 8 30 C 8 31.656854 9.3431458 33 11 33 C 12.656854 33 14 31.656854 14 30 C 14 28.343146 12.656854 27 11 27 z M 18 27 C 16.343146 27 15 28.343146 15 30 C 15 31.656854 16.343146 33 18 33 C 19.656854 33 21 31.656854 21 30 C 21 28.343146 19.656854 27 18 27 z M 46 27 C 44.343146 27 43 28.343146 43 30 C 43 31.656854 44.343146 33 46 33 C 47.656854 33 49 31.656854 49 30 C 49 28.343146 47.656854 27 46 27 z M 53 27 C 51.343146 27 50 28.343146 50 30 C 50 31.656854 51.343146 33 53 33 C 54.656854 33 56 31.656854 56 30 C 56 28.343146 54.656854 27 53 27 z M 60 27 C 58.343146 27 57 28.343146 57 30 C 57 31.656854 58.343146 33 60 33 C 61.656854 33 63 31.656854 63 30 C 63 28.343146 61.656854 27 60 27 z M 4 34 C 2.3431458 34 1 35.343146 1 37 C 1 38.656854 2.3431458 40 4 40 C 5.6568542 40 7 38.656854 7 37 C 7 35.343146 5.6568542 34 4 34 z M 11 34 C 9.3431458 34 8 35.343146 8 37 C 8 38.656854 9.3431458 40 11 40 C 12.656854 40 14 38.656854 14 37 C 14 35.343146 12.656854 34 11 34 z M 18 34 C 16.343146 34 15 35.343146 15 37 C 15 38.656854 16.343146 40 18 40 C 19.656854 40 21 38.656854 21 37 C 21 35.343146 19.656854 34 18 34 z M 25 34 C 23.343146 34 22 35.343146 22 37 C 22 38.656854 23.343146 40 25 40 C 26.656854 40 28 38.656854 28 37 C 28 35.343146 26.656854 34 25 34 z M 39 34 C 37.343146 34 36 35.343146 36 37 C 36 38.656854 37.343146 40 39 40 C 40.656854 40 42 38.656854 42 37 C 42 35.343146 40.656854 34 39 34 z M 46 34 C 44.343146 34 43 35.343146 43 37 C 43 38.656854 44.343146 40 46 40 C 47.656854 40 49 38.656854 49 37 C 49 35.343146 47.656854 34 46 34 z M 53 34 C 51.343146 34 50 35.343146 50 37 C 50 38.656854 51.343146 40 53 40 C 54.656854 40 56 38.656854 56 37 C 56 35.343146 54.656854 34 53 34 z M 60 34 C 58.343146 34 57 35.343146 57 37 C 57 38.656854 58.343146 40 60 40 C 61.656854 40 63 38.656854 63 37 C 63 35.343146 61.656854 34 60 34 z M 4 41 C 2.3431458 41 1 42.343146 1 44 C 1 45.656854 2.3431458 47 4 47 C 5.6568542 47 7 45.656854 7 44 C 7 42.343146 5.6568542 41 4 41 z M 11 41 C 9.3431458 41 8 42.343146 8 44 C 8 45.656854 9.3431458 47 11 47 C 12.656854 47 14 45.656854 14 44 C 14 42.343146 12.656854 41 11 41 z M 18 41 C 16.343146 41 15 42.343146 15 44 C 15 45.656854 16.343146 47 18 47 C 19.656854 47 21 45.656854 21 44 C 21 42.343146 19.656854 41 18 41 z M 25 41 C 23.343146 41 22 42.343146 22 44 C 22 45.656854 23.343146 47 25 47 C 26.656854 47 28 45.656854 28 44 C 28 42.343146 26.656854 41 25 41 z M 39 41 C 37.343146 41 36 42.343146 36 44 C 36 45.656854 37.343146 47 39 47 C 40.656854 47 42 45.656854 42 44 C 42 42.343146 40.656854 41 39 41 z M 46 41 C 44.343146 41 43 42.343146 43 44 C 43 45.656854 44.343146 47 46 47 C 47.656854 47 49 45.656854 49 44 C 49 42.343146 47.656854 41 46 41 z M 53 41 C 51.343146 41 50 42.343146 50 44 C 50 45.656854 51.343146 47 53 47 C 54.656854 47 56 45.656854 56 44 C 56 42.343146 54.656854 41 53 41 z M 60 41 C 58.343146 41 57 42.343146 57 44 C 57 45.656854 58.343146 47 60 47 C 61.656854 47 63 45.656854 63 44 C 63 42.343146 61.656854 41 60 41 z M 4 48 C 2.3431458 48 1 49.343146 1 51 C 1 52.656854 2.3431458 54 4 54 C 5.6568542 54 7 52.656854 7 51 C 7 49.343146 5.6568542 48 4 48 z M 11 48 C 9.3431458 48 8 49.343146 8 51 C 8 52.656854 9.3431458 54 11 54 C 12.656854 54 14 52.656854 14 51 C 14 49.343146 12.656854 48 11 48 z M 18 48 C 16.343146 48 15 49.343146 15 51 C 15 52.656854 16.343146 54 18 54 C 19.656854 54 21 52.656854 21 51 C 21 49.343146 19.656854 48 18 48 z M 39 48 C 37.343146 48 36 49.343146 36 51 C 36 52.656854 37.343146 54 39 54 C 40.656854 54 42 52.656854 42 51 C 42 49.343146 40.656854 48 39 48 z M 46 48 C 44.343146 48 43 49.343146 43 51 C 43 52.656854 44.343146 54 46 54 C 47.656854 54 49 52.656854 49 51 C 49 49.343146 47.656854 48 46 48 z M 53 48 C 51.343146 48 50 49.343146 50 51 C 50 52.656854 51.343146 54 53 54 C 54.656854 54 56 52.656854 56 51 C 56 49.343146 54.656854 48 53 48 z M 60 48 C 58.343146 48 57 49.343146 57 51 C 57 52.656854 58.343146 54 60 54 C 61.656854 54 63 52.656854 63 51 C 63 49.343146 61.656854 48 60 48 z M 4 55 C 2.3431458 55 1 56.343146 1 58 C 1 59.656854 2.3431458 61 4 61 C 5.6568542 61 7 59.656854 7 58 C 7 56.343146 5.6568542 55 4 55 z M 11 55 C 9.3431458 55 8 56.343146 8 58 C 8 59.656854 9.3431458 61 11 61 C 12.656854 61 14 59.656854 14 58 C 14 56.343146 12.656854 55 11 55 z M 18 55 C 16.343146 55 15 56.343146 15 58 C 15 59.656854 16.343146 61 18 61 C 19.656854 61 21 59.656854 21 58 C 21 56.343146 19.656854 55 18 55 z M 25 55 C 23.343146 55 22 56.343146 22 58 C 22 59.656854 23.343146 61 25 61 C 26.656854 61 28 59.656854 28 58 C 28 56.343146 26.656854 55 25 55 z M 32 55 C 30.343146 55 29 56.343146 29 58 C 29 59.656854 30.343146 61 32 61 C 33.656854 61 35 59.656854 35 58 C 35 56.343146 33.656854 55 32 55 z M 39 55 C 37.343146 55 36 56.343146 36 58 C 36 59.656854 37.343146 61 39 61 C 40.656854 61 42 59.656854 42 58 C 42 56.343146 40.656854 55 39 55 z M 46 55 C 44.343146 55 43 56.343146 43 58 C 43 59.656854 44.343146 61 46 61 C 47.656854 61 49 59.656854 49 58 C 49 56.343146 47.656854 55 46 55 z M 53 55 C 51.343146 55 50 56.343146 50 58 C 50 59.656854 51.343146 61 53 61 C 54.656854 61 56 59.656854 56 58 C 56 56.343146 54.656854 55 53 55 z M 60 55 C 58.343146 55 57 56.343146 57 58 C 57 59.656854 58.343146 61 60 61 C 61.656854 61 63 59.656854 63 58 C 63 56.343146 61.656854 55 60 55 z "
       id="path4309" />
    <path
       style="color:#000000;fill:#79ccff;fill-opacity:0.27484334;fill-rule:nonzero;stroke:none;stroke-width:0.35095345999999999;marker:none;visibility:visible;display:inline;overflow:visible;enable-background:accumulate"
       d="M 4 1 C 2.3431458 1 1 1.4477153 1 2 C 1 2.5522847 2.3431458 3 4 3 C 5.6568542 3 7 2.5522847 7 2 C 7 1.4477153 5.6568542 1 4 1 z M 11 1 C 9.3431458 1 8 1.4477153 8 2 C 8 2.5522847 9.3431458 3 11 3 C 12.656854 3 14 2.5522847 14 2 C 14 1.4477153 12.656854 1 11 1 z M 18 1 C 16.343146 1 15 1.4477153 15 2 C 15 2.5522847 16.343146 3 18 3 C 19.656854 3 21 2.5522847 21 2 C 21 1.4477153 19.656854 1 18 1 z M 25 1 C 23.343146 1 22 1.4477153 22 2 C 22 2.5522847 23.343146 3 25 3 C 26.656854 3 28 2.5522847 28 2 C 28 1.4477153 26.656854 1 25 1 z M 32 1 C 30.343146 1 29 1.4477153 29 2 C 29 2.5522847 30.343146 3 32 3 C 33.656854 3 35 2.5522847 35 2 C 35 1.4477153 33.656854 1 32 1 z M 39 1 C 37.343146 1 36 1.4477153 36 2 C 36 2.5522847 37.343146 3 39 3 C 40.656854 3 42 2.5522847 42 2 C 42 1.4477153 40.656854 1 39 1 z M 46 1 C 44.343146 1 43 1.4477153 43 2 C 43 2.5522847 44.343146 3 46 3 C 47.656854 3 49 2.5522847 49 2 C 49 1.4477153 47.656854 1 46 1 z M 53 1 C 51.343146 1 50 1.4477153 50 2 C 50 2.5522847 51.343146 3 53 3 C 54.656854 3 56 2.5522847 56 2 C 56 1.4477153 54.656854 1 53 1 z M 60 1 C 58.343146 1 57 1.4477153 57 2 C 57 2.5522847 58.343146 3 60 3 C 61.656854 3 63 2.5522847 63 2 C 63 1.4477153 61.656854 1 60 1 z "
       id="path4313" />
    <path
       style="color:#000000;fill:#cfeeff;fill-opacity:1;fill-rule:nonzero;stroke:none;stroke-width:0.35095345999999999;marker:none;visibility:visible;display:inline;overflow:visible;enable-background:accumulate"
       d="M 25 13 C 23.343146 13 22 14.343146 22 16 C 22 17.656854 23.343146 19 25 19 C 26.656854 19 28 17.656854 28 16 C 28 14.343146 26.656854 13 25 13 z M 32 13 C 30.343146 13 29 14.343146 29 16 C 29 17.656854 30.343146 19 32 19 C 33.656854 19 35 17.656854 35 16 C 35 14.343146 33.656854 13 32 13 z M 39 13 C 37.343146 13 36 14.343146 36 16 C 36 17.656854 37.343146 19 39 19 C 40.656854 19 42 17.656854 42 16 C 42 14.343146 40.656854 13 39 13 z M 18 20 C 16.343146 20 15 21.343146 15 23 C 15 24.656854 16.343146 26 18 26 C 19.656854 26 21 24.656854 21 23 C 21 21.343146 19.656854 20 18 20 z M 46 20 C 44.343146 20 43 21.343146 43 23 C 43 24.656854 44.343146 26 46 26 C 47.656854 26 49 24.656854 49 23 C 49 21.343146 47.656854 20 46 20 z M 25 27 C 23.343146 27 22 28.343146 22 30 C 22 31.656854 23.343146 33 25 33 C 26.656854 33 28 31.656854 28 30 C 28 28.343146 26.656854 27 25 27 z M 32 27 C 30.343146 27 29 28.343146 29 30 C 29 31.656854 30.343146 33 32 33 C 33.656854 33 35 31.656854 35 30 C 35 28.343146 33.656854 27 32 27 z M 39 27 C 37.343146 27 36 28.343146 36 30 C 36 31.656854 37.343146 33 39 33 C 40.656854 33 42 31.656854 42 30 C 42 28.343146 40.656854 27 39 27 z M 32 34 C 30.343146 34 29 35.343146 29 37 C 29 38.656854 30.343146 40 32 40 C 33.656854 40 35 38.656854 35 37 C 35 35.343146 33.656854 34 32 34 z M 32 41 C 30.343146 41 29 42.343146 29 44 C 29 45.656854 30.343146 47 32 47 C 33.656854 47 35 45.656854 35 44 C 35 42.343146 33.656854 41 32 41 z M 25 48 C 23.343146 48 22 49.343146 22 51 C 22 52.656854 23.343146 54 25 54 C 26.656854 54 28 52.656854 28 51 C 28 49.343146 26.656854 48 25 48 z M 32 48 C 30.343146 48 29 49.343146 29 51 C 29 52.656854 30.343146 54 32 54 C 33.656854 54 35 52.656854 35 51 C 35 49.343146 33.656854 48 32 48 z "
       id="path3256" />
  </g>
  <path
     style="fill:#66bfff;fill-opacity:1;fill-rule:nonzero"
     d="M 0,3 0,6 2,4 z"
     id="path4298"
     inkscape:connector-curvature="0"
     sodipodi:nodetypes="cccc" />
</svg>
