<?xml version="1.0" encoding="UTF-8" standalone="no"?>
<!-- Created with Inkscape (http://www.inkscape.org/) -->

<svg
   xmlns:dc="http://purl.org/dc/elements/1.1/"
   xmlns:cc="http://creativecommons.org/ns#"
   xmlns:rdf="http://www.w3.org/1999/02/22-rdf-syntax-ns#"
   xmlns:svg="http://www.w3.org/2000/svg"
   xmlns="http://www.w3.org/2000/svg"
   xmlns:sodipodi="http://sodipodi.sourceforge.net/DTD/sodipodi-0.dtd"
   xmlns:inkscape="http://www.inkscape.org/namespaces/inkscape"
   width="64"
   height="64"
   id="svg13094"
   version="1.1"
   inkscape:version="0.48.4 r9939"
   sodipodi:docname="wolfram-mathematica.svg">
  <sodipodi:namedview
     id="base"
     pagecolor="#ffffff"
     bordercolor="#666666"
     borderopacity="1.0"
     inkscape:pageopacity="0"
     inkscape:pageshadow="2"
     inkscape:zoom="11.313709"
     inkscape:cx="30.400728"
     inkscape:cy="32.214645"
     inkscape:document-units="px"
     inkscape:current-layer="svg13094"
     showgrid="true"
     inkscape:snap-bbox="true"
     inkscape:bbox-paths="true"
     inkscape:bbox-nodes="true"
     inkscape:snap-bbox-edge-midpoints="true"
     inkscape:snap-bbox-midpoints="true"
     inkscape:object-paths="true"
     inkscape:snap-intersection-paths="true"
     inkscape:object-nodes="true"
     inkscape:snap-smooth-nodes="true"
     inkscape:snap-midpoints="true"
     inkscape:snap-object-midpoints="true"
     inkscape:snap-center="true"
     showguides="true"
     inkscape:guide-bbox="true"
     inkscape:window-width="1920"
     inkscape:window-height="1025"
     inkscape:window-x="-2"
     inkscape:window-y="32"
     inkscape:window-maximized="1"
     inkscape:snap-global="true"
     fit-margin-top="0"
     fit-margin-left="0"
     fit-margin-right="0"
     fit-margin-bottom="0"
     showborder="true"
     inkscape:showpageshadow="false"
     inkscape:snap-page="true">
    <inkscape:grid
       type="xygrid"
       id="grid3075"
       empspacing="5"
       visible="true"
       enabled="true"
       snapvisiblegridlinesonly="true"
       originx="1.6362304e-08px"
       originy="18px" />
  </sodipodi:namedview>
  <defs
     id="defs13096" />
  <metadata
     id="metadata13099">
    <rdf:RDF>
      <cc:Work
         rdf:about="">
        <dc:format>image/svg+xml</dc:format>
        <dc:type
           rdf:resource="http://purl.org/dc/dcmitype/StillImage" />
        <dc:title />
      </cc:Work>
    </rdf:RDF>
  </metadata>
  <path
     inkscape:connector-curvature="0"
     style="color:#000000;fill:#8c2a2a;fill-opacity:1;fill-rule:nonzero;stroke:none;stroke-width:2.28571415000000000;marker:none;visibility:visible;display:inline;overflow:visible;enable-background:accumulate"
     d="m 0,4 0,30 0,28 2,2 30,0 30,0 2,-2 L 64,34 64,4 32,4 0,4 z"
     id="path4095" />
  <path
     inkscape:connector-curvature="0"
     style="color:#000000;fill:#db3d3d;fill-opacity:1;fill-rule:nonzero;stroke:none;stroke-width:2.28571415000000000;marker:none;visibility:visible;display:inline;overflow:visible;enable-background:accumulate"
     d="M 2,0 0,1 0,4 32,4 64,4 64,1 62,0 32,0 2,0 z"
     id="path4090" />
  <path
     style="fill:#df5252;fill-opacity:1;fill-rule:nonzero"
     d="M 0,3 0,6 2,4 z"
     id="path4298"
     inkscape:connector-curvature="0"
     sodipodi:nodetypes="cccc" />
  <path
     d="M 64,6 62,4 64,3 z"
     id="path3028"
     style="fill:#ae3333;fill-opacity:1"
     inkscape:connector-curvature="0" />
  <g
     id="g3043"
     inkscape:export-filename="folder.png"
     inkscape:export-xdpi="90"
     inkscape:export-ydpi="90"
     transform="translate(-0.62500009,0.082283)" />
  <g
     id="scalable"
     transform="matrix(1.0385892,0,0,1.0385892,1214.7222,1878.8121)"
     inkscape:label="#g3701"
     style="fill:#ffffff" />
  <g
     id="g3967"
     transform="matrix(1.1880165,0,0,1.1880165,-3.2536541,-1.928887)"
     style="display:inline;enable-background:new">
    <path
       d="m 30.20063,10.314 -4.2925,6.92 3.85375,5.60625 4.2925,-5.51875 -3.85375,-7.0075"
       id="path3969"
       style="fill:#f0939a;fill-opacity:1;fill-rule:evenodd;stroke:none"
       inkscape:connector-curvature="0" />
    <path
       d="m 34.05438,17.3215 -4.2925,5.51875 7.35875,-3.06625 4.73,-5.51875 -7.79625,3.06625"
       id="path3973"
       style="fill:#ea3736;fill-opacity:1;fill-rule:evenodd;stroke:none"
       inkscape:connector-curvature="0" />
    <path
       d="m 37.12063,19.774 -0.0888,8.235 4.11875,-5.51875 0.7,-8.235 -4.73,5.51875"
       id="path3977"
       style="fill:#ef8a67;fill-opacity:1;fill-rule:evenodd;stroke:none"
       inkscape:connector-curvature="0" />
    <path
       d="m 41.15063,22.49025 -4.1175,5.51875 6.395,2.365 5.43,-6.395 -7.7075,-1.48875"
       id="path3981"
       style="fill:#ff9e90;fill-opacity:1;fill-rule:evenodd;stroke:none"
       inkscape:connector-curvature="0" />
    <path
       d="m 43.42813,30.374 -6.39625,-2.365 4.64375,6.045 7.35875,2.9775 -5.60625,-6.6575"
       id="path3985"
       style="fill:#f77068;fill-opacity:1;fill-rule:evenodd;stroke:none"
       inkscape:connector-curvature="0" />
    <path
       d="m 41.67563,34.05275 -7.35875,2.015 6.745,1.9275 7.9725,-0.96375 -7.35875,-2.97875"
       id="path3989"
       style="fill:#7d1818;fill-opacity:1;fill-rule:evenodd;stroke:none"
       inkscape:connector-curvature="0" />
    <path
       d="m 41.06188,37.99525 -6.745,-1.9275 -0.4375,6.395 7.35875,3.9425 -0.17625,-8.41"
       id="path3993"
       style="fill:#db212a;fill-opacity:1;fill-rule:evenodd;stroke:none"
       inkscape:connector-curvature="0" />
    <path
       d="m 29.84938,42.55025 -0.0875,7.62125 4.1175,-7.70875 0.4375,-6.395 -4.4675,6.4825"
       id="path3997"
       style="fill:#f05859;fill-opacity:1;fill-rule:evenodd;stroke:none"
       inkscape:connector-curvature="0" />
    <path
       d="m 25.90688,17.234 -7.7075,-3.24125 4.4675,5.95625 7.095,2.89125 -3.855,-5.60625"
       id="path4001"
       style="fill:#f4806d;fill-opacity:1;fill-rule:evenodd;stroke:none"
       inkscape:connector-curvature="0" />
    <path
       d="m 22.66688,19.949 -4.46875,-5.95625 0.87625,8.585 3.855,4.905 -0.2625,-7.53375"
       id="path4005"
       style="fill:#641223;fill-opacity:1;fill-rule:evenodd;stroke:none;color:#000000;marker:none;visibility:visible;display:inline;overflow:visible;enable-background:accumulate"
       inkscape:connector-curvature="0" />
    <path
       d="m 19.07438,22.57775 -7.79625,1.40125 5.69375,5.86875 5.9575,-2.365 -3.855,-4.905"
       id="path4009"
       style="fill:#e04c5b;fill-opacity:1;fill-rule:evenodd;stroke:none"
       inkscape:connector-curvature="0" />
    <path
       d="m 16.97188,29.84775 -6.6575,6.3075 7.70875,-2.4525 4.90625,-6.22 -5.9575,2.365"
       id="path4013"
       style="fill:#e92739;fill-opacity:1;fill-rule:evenodd;stroke:none"
       inkscape:connector-curvature="0" />
    <path
       d="m 18.02313,33.70275 -7.70875,2.4525 8.84875,1.40125 6.39375,-1.31375 -7.53375,-2.54"
       id="path4017"
       style="fill:#641223;fill-opacity:1;fill-rule:evenodd;stroke:none;color:#000000;marker:none;visibility:visible;display:inline;overflow:visible;enable-background:accumulate"
       inkscape:connector-curvature="0" />
    <path
       d="m 25.55688,36.24275 -6.395,1.315 -1.40125,8.935 7.88375,-4.1175 -0.0875,-6.1325"
       id="path4021"
       style="fill:#b41823;fill-opacity:1;fill-rule:evenodd;stroke:none"
       inkscape:connector-curvature="0" />
    <path
       d="m 25.55688,36.24275 0.0875,6.1325 4.1175,7.79625 0.0875,-7.62125 -4.2925,-6.3075"
       id="path4025"
       style="fill:#641223;fill-opacity:1;fill-rule:evenodd;stroke:none;color:#000000;marker:none;visibility:visible;display:inline;overflow:visible;enable-background:accumulate"
       inkscape:connector-curvature="0" />
    <path
       d="m 29.84938,30.2865 7.1825,-2.2775 0.0888,-8.235 -7.35875,3.06625 0.0875,7.44625"
       id="path4029"
       style="fill:#b62437;fill-opacity:1;fill-rule:evenodd;stroke:none"
       inkscape:connector-curvature="0" />
    <path
       d="m 37.03188,28.009 -7.1825,2.2775 4.4675,5.78125 7.35875,-2.015 -4.64375,-6.04375"
       id="path4033"
       style="fill:#e95e5b;fill-opacity:1;fill-rule:evenodd;stroke:none"
       inkscape:connector-curvature="0" />
    <path
       d="m 29.84938,30.2865 -4.2925,5.95625 4.2925,6.3075 4.4675,-6.4825 -4.4675,-5.78125"
       id="path4037"
       style="fill:#ffaaaa;fill-opacity:1;fill-rule:evenodd;stroke:none"
       inkscape:connector-curvature="0" />
    <path
       d="m 18.02313,33.70275 7.53375,2.54 4.2925,-5.95625 -6.92,-2.80375 -4.90625,6.22"
       id="path4041"
       style="fill:#f88d87;fill-opacity:1;fill-rule:evenodd;stroke:none"
       inkscape:connector-curvature="0" />
    <path
       d="m 29.84938,30.2865 -0.0875,-7.44625 -7.09625,-2.89125 0.26375,7.53375 6.92,2.80375"
       id="path4045"
       style="fill:#eb2b42;fill-opacity:1;fill-rule:evenodd;stroke:none"
       inkscape:connector-curvature="0" />
  </g>
</svg>
