<?xml version="1.0" encoding="UTF-8" standalone="no"?>
<!-- Created with Inkscape (http://www.inkscape.org/) -->

<svg
   xmlns:dc="http://purl.org/dc/elements/1.1/"
   xmlns:cc="http://creativecommons.org/ns#"
   xmlns:rdf="http://www.w3.org/1999/02/22-rdf-syntax-ns#"
   xmlns:svg="http://www.w3.org/2000/svg"
   xmlns="http://www.w3.org/2000/svg"
   xmlns:xlink="http://www.w3.org/1999/xlink"
   xmlns:sodipodi="http://sodipodi.sourceforge.net/DTD/sodipodi-0.dtd"
   xmlns:inkscape="http://www.inkscape.org/namespaces/inkscape"
   width="22"
   height="22"
   id="svg13094"
   version="1.1"
   inkscape:version="0.48.3.1 r9886"
   sodipodi:docname="edit-cut.svg">
  <sodipodi:namedview
     id="base"
     pagecolor="#ffffff"
     bordercolor="#666666"
     borderopacity="1.0"
     inkscape:pageopacity="0.0"
     inkscape:pageshadow="2"
     inkscape:zoom="22.627417"
     inkscape:cx="13.363748"
     inkscape:cy="6.9423982"
     inkscape:document-units="px"
     inkscape:current-layer="layer1"
     showgrid="true"
     inkscape:snap-bbox="true"
     inkscape:bbox-paths="true"
     inkscape:bbox-nodes="true"
     inkscape:snap-bbox-edge-midpoints="true"
     inkscape:snap-bbox-midpoints="true"
     inkscape:object-paths="true"
     inkscape:snap-intersection-paths="true"
     inkscape:object-nodes="true"
     inkscape:snap-smooth-nodes="true"
     inkscape:snap-midpoints="true"
     inkscape:snap-object-midpoints="true"
     inkscape:snap-center="true"
     showguides="false"
     inkscape:guide-bbox="true"
     inkscape:window-width="1920"
     inkscape:window-height="1032"
     inkscape:window-x="-7"
     inkscape:window-y="25"
     inkscape:window-maximized="1"
     inkscape:snap-global="true"
     fit-margin-top="0"
     fit-margin-left="0"
     fit-margin-right="0"
     fit-margin-bottom="0"
     showborder="true"
     inkscape:showpageshadow="false">
    <sodipodi:guide
       orientation="0,1"
       position="-22.000041,932.61291"
       id="guide4700" />
    <sodipodi:guide
       orientation="0,1"
       position="579.71882,330.89393"
       id="guide4702" />
    <sodipodi:guide
       orientation="1,0"
       position="579.71894,491.704"
       id="guide4706" />
    <sodipodi:guide
       orientation="1,0"
       position="57.99996,932.61291"
       id="guide4708" />
    <sodipodi:guide
       orientation="0,1"
       position="-22.000041,852.61301"
       id="guide4710" />
    <sodipodi:guide
       orientation="0,1"
       position="539.71882,410.89385"
       id="guide4712" />
    <sodipodi:guide
       orientation="1,0"
       position="499.71882,410.89385"
       id="guide4714" />
    <inkscape:grid
       type="xygrid"
       id="grid3216"
       empspacing="5"
       visible="true"
       enabled="true"
       snapvisiblegridlinesonly="true"
       originx="-21.999987px"
       originy="-217px" />
    <sodipodi:guide
       orientation="-0.70710664,0.70710692"
       position="7.0000135,-244"
       id="guide3847" />
    <sodipodi:guide
       orientation="0.70710594,0.70710762"
       position="8.0000135,-243"
       id="guide3849" />
    <sodipodi:guide
       orientation="-0.70710681,0.70710676"
       position="10.000014,-210"
       id="guide3851" />
  </sodipodi:namedview>
  <defs
     id="defs13096">
    <linearGradient
       id="linearGradient3874-1">
      <stop
         id="stop3876-4"
         offset="0"
         style="stop-color:#000000;stop-opacity:0.58638155;" />
      <stop
         id="stop3878-1"
         offset="1"
         style="stop-color:#000000;stop-opacity:0.30782217;" />
    </linearGradient>
    <linearGradient
       y2="4.0000782"
       x2="9.0001068"
       y1="22.000078"
       x1="9.0001068"
       gradientTransform="matrix(28.946442,0,0,28.946442,-3514.0547,-101.37044)"
       gradientUnits="userSpaceOnUse"
       id="linearGradient3310"
       xlink:href="#linearGradient3874-1"
       inkscape:collect="always" />
    <linearGradient
       inkscape:collect="always"
       xlink:href="#linearGradient3874"
       id="linearGradient3049"
       gradientUnits="userSpaceOnUse"
       gradientTransform="translate(-3.0000005,-0.99999999)"
       x1="6.000071"
       y1="15.000049"
       x2="6.000071"
       y2="1.0000482" />
    <linearGradient
       id="linearGradient3874">
      <stop
         id="stop3876"
         offset="0"
         style="stop-color:#000000;stop-opacity:0.58638155;" />
      <stop
         id="stop3878"
         offset="1"
         style="stop-color:#000000;stop-opacity:0.30782217;" />
    </linearGradient>
    <linearGradient
       y2="1.0000482"
       x2="6.000071"
       y1="15.000049"
       x1="6.000071"
       gradientTransform="matrix(39.801359,0,0,39.801359,-3514.0541,-43.479005)"
       gradientUnits="userSpaceOnUse"
       id="linearGradient3048"
       xlink:href="#linearGradient3874"
       inkscape:collect="always" />
  </defs>
  <metadata
     id="metadata13099">
    <rdf:RDF>
      <cc:Work
         rdf:about="">
        <dc:format>image/svg+xml</dc:format>
        <dc:type
           rdf:resource="http://purl.org/dc/dcmitype/StillImage" />
        <dc:title />
      </cc:Work>
    </rdf:RDF>
  </metadata>
  <g
     transform="translate(9382.3078,-4839.1989)"
     id="layer1"
     inkscape:groupmode="layer"
     inkscape:label="Camada 1">
    <path
       style="font-size:medium;font-style:normal;font-variant:normal;font-weight:normal;font-stretch:normal;text-indent:0;text-align:start;text-decoration:none;line-height:normal;letter-spacing:normal;word-spacing:normal;text-transform:none;direction:ltr;block-progression:tb;writing-mode:lr-tb;text-anchor:start;baseline-shift:baseline;color:#000000;fill:#d1d4d6;fill-opacity:0.74329164000000003;fill-rule:nonzero;stroke:none;stroke-width:2;marker:none;visibility:visible;display:inline;overflow:visible;enable-background:accumulate;font-family:Sans;-inkscape-font-specification:Sans"
       d="m 4.8125,3 a 0.28968489,0.28968489 0 0 0 0,0.03125 L 5,4.1875 l 0.75,4.96875 0,0.03125 0,0.09375 a 0.28968489,0.28968489 0 0 0 0,0.09375 L 5.78125,9.46875 7.125,12.8125 C 6.9178729,12.76106 6.7427726,12.6875 6.5,12.6875 c -2.6279409,0 -4.78125,2.15341 -4.78125,4.78125 0,2.626995 2.1407675,4.8125 4.78125,4.8125 2.1009594,0 3.862441,-1.38662 4.5,-3.28125 0.626556,1.897475 2.360935,3.28125 4.46875,3.28125 2.639634,0 4.8125,-2.172866 4.8125,-4.8125 0,-2.640483 -2.185505,-4.78125 -4.8125,-4.78125 -0.233822,0 -0.396703,0.07467 -0.59375,0.125 L 16.21875,9.46875 16.25,9.375 a 0.28968489,0.28968489 0 0 0 0,-0.03125 l 0.03125,-0.125 a 0.28968489,0.28968489 0 0 0 0,-0.03125 l 0.75,-5 0.15625,-1.15625 A 0.28968489,0.28968489 0 0 0 17.1875,3 L 14.0625,3 13.875,3.4375 11,9.15625 8.15625,3.4375 7.9375,3 4.8125,3 z M 6.25,4 7,4 l 4,8 4,-8 0.75,0 -0.75,5 -2,5 0.125,0.90625 c 0.6273,-0.5743 1.43945,-0.9375 2.34375,-0.9375 1.9211,0 3.53125,1.5788 3.53125,3.5 C 19,19.38985 17.38985,21 15.46875,21 c -1.8779,0 -3.43,-1.54345 -3.5,-3.40625 L 11,16 10.03125,17.53125 C 9.99615,19.42355 8.3997,21 6.5,21 4.5788,21 3,19.38985 3,17.46875 c 0,-1.9212 1.5788,-3.5 3.5,-3.5 0.9043,0 1.71635,0.3632 2.34375,0.9375 L 9,14 7,9 6.25,4 z M 6.1875,16 c -0.6862,0.1348 -1.15625,0.73345 -1.15625,1.46875 0,0.8402 0.62845,1.5 1.46875,1.5 0.8402,0 1.5,-0.6598 1.5,-1.5 C 8,16.62845 7.3402,16 6.5,16 6.3949,16 6.2855,15.981 6.1875,16 z m 8.96875,0 C 14.47005,16.1348 14,16.73345 14,17.46875 c 0,0.8402 0.62855,1.5 1.46875,1.5 0.8403,0 1.5,-0.6598 1.5,-1.5 0,-0.8403 -0.6597,-1.46875 -1.5,-1.46875 -0.105,0 -0.2145,-0.019 -0.3125,0 z"
       transform="translate(-9382.3078,4837.1989)"
       id="path3795"
       inkscape:connector-curvature="0" />
    <path
       inkscape:connector-curvature="0"
       style="fill:#434a54;fill-opacity:0.6745098;fill-rule:nonzero;stroke:none"
       d="m -9376.0578,4841.1989 0.75,5 1.9999,5 -0.1563,0.9063 c -0.6274,-0.5743 -1.4395,-0.9375 -2.3438,-0.9375 -1.9212,0 -3.5,1.5788 -3.5,3.5 0,1.9211 1.5788,3.5312 3.5,3.5312 1.8997,0 3.4962,-1.5764 3.5313,-3.4687 l 0.9689,-1.5313 0.9686,1.5938 c 0.07,1.8628 1.6221,3.4062 3.5,3.4062 1.9211,0 3.5312,-1.6101 3.5312,-3.5312 0,-1.9212 -1.6101,-3.5 -3.5312,-3.5 -0.9043,0 -1.7165,0.3632 -2.3438,0.9375 l -0.125,-0.9063 2.0002,-5 0.75,-5 -0.75,0 -4,8 -4,-8 z m -0.062,12 c 0.098,-0.019 0.2074,0 0.3125,0 0.8402,0 1.5,0.6285 1.5,1.4688 0,0.8402 -0.6598,1.5 -1.5,1.5 -0.8403,0 -1.4688,-0.6598 -1.4688,-1.5 0,-0.7353 0.4701,-1.334 1.1563,-1.4688 z m 8.9687,0 c 0.098,-0.019 0.2075,0 0.3125,0 0.8403,0 1.5,0.6285 1.5,1.4688 0,0.8402 -0.6597,1.5 -1.5,1.5 -0.8402,0 -1.4687,-0.6598 -1.4687,-1.5 0,-0.7353 0.47,-1.334 1.1562,-1.4688 z"
       id="path3810"
       sodipodi:nodetypes="ccccssscccsssccccccccssssssssssss" />
  </g>
</svg>
