<?xml version="1.0" encoding="UTF-8" standalone="no"?>
<!-- Created with Inkscape (http://www.inkscape.org/) -->

<svg
   xmlns:dc="http://purl.org/dc/elements/1.1/"
   xmlns:cc="http://creativecommons.org/ns#"
   xmlns:rdf="http://www.w3.org/1999/02/22-rdf-syntax-ns#"
   xmlns:svg="http://www.w3.org/2000/svg"
   xmlns="http://www.w3.org/2000/svg"
   xmlns:sodipodi="http://sodipodi.sourceforge.net/DTD/sodipodi-0.dtd"
   xmlns:inkscape="http://www.inkscape.org/namespaces/inkscape"
   version="1.0"
   width="22"
   height="22"
   id="svg2"
   inkscape:version="0.48.3.1 r9886"
   sodipodi:docname="help-contextual.svg">
  <sodipodi:namedview
     pagecolor="#ffffff"
     bordercolor="#666666"
     borderopacity="1"
     objecttolerance="10"
     gridtolerance="10"
     guidetolerance="10"
     inkscape:pageopacity="0"
     inkscape:pageshadow="2"
     inkscape:window-width="1920"
     inkscape:window-height="1023"
     id="namedview32"
     showgrid="true"
     inkscape:zoom="32.000001"
     inkscape:cx="13.652981"
     inkscape:cy="11.505701"
     inkscape:window-x="-10"
     inkscape:window-y="35"
     inkscape:window-maximized="1"
     inkscape:current-layer="svg2"
     inkscape:snap-bbox="true"
     inkscape:bbox-paths="true"
     inkscape:bbox-nodes="true"
     inkscape:snap-bbox-edge-midpoints="true"
     inkscape:snap-bbox-midpoints="true"
     inkscape:object-paths="true"
     inkscape:snap-intersection-paths="true"
     inkscape:object-nodes="true"
     inkscape:snap-smooth-nodes="true"
     inkscape:snap-midpoints="true"
     inkscape:snap-object-midpoints="true"
     inkscape:snap-center="true"
     fit-margin-top="0"
     fit-margin-left="0"
     fit-margin-right="0"
     fit-margin-bottom="0"
     inkscape:snap-global="true">
    <inkscape:grid
       type="xygrid"
       id="grid3218"
       empspacing="5"
       visible="true"
       enabled="true"
       snapvisiblegridlinesonly="true"
       originx="-11px"
       originy="18px" />
  </sodipodi:namedview>
  <metadata
     id="metadata11">
    <rdf:RDF>
      <cc:Work
         rdf:about="">
        <dc:format>image/svg+xml</dc:format>
        <dc:type
           rdf:resource="http://purl.org/dc/dcmitype/StillImage" />
        <dc:title />
      </cc:Work>
    </rdf:RDF>
  </metadata>
  <defs
     id="defs4" />
  <path
     sodipodi:nodetypes="cccccccccc"
     inkscape:connector-curvature="0"
     id="path2984"
     d="m 10,15 0,-3 1,-1 4,-1 L 16,8.968751 16,6 15,5 7,5 6,6 6,8"
     style="fill:none;stroke:#27303a;stroke-width:2;stroke-linecap:butt;stroke-linejoin:miter;stroke-miterlimit:4;stroke-opacity:0.923280819999999968;stroke-dasharray:none" />
  <path
     style="font-size:medium;font-style:normal;font-variant:normal;font-weight:normal;font-stretch:normal;text-indent:0;text-align:start;text-decoration:none;line-height:normal;letter-spacing:normal;word-spacing:normal;text-transform:none;direction:ltr;block-progression:tb;writing-mode:lr-tb;text-anchor:start;baseline-shift:baseline;color:#000000;fill:#f1f3f5;fill-opacity:0.90288714000000003;fill-rule:nonzero;stroke:none;stroke-width:2;marker:none;visibility:visible;display:inline;overflow:visible;enable-background:accumulate;font-family:Sans;-inkscape-font-specification:Sans"
     d="M 6.21875,3 5.9375,3.25 5.625,3.53125 5.59375,3.5625 l -0.03125,0 -1,1 0,0.03125 L 4.53125,4.625 4.25,4.9375 4,5.21875 4,5.59375 4,6 4,8 4,9 5,9 5,8 5,6 5,5.59375 l 0.28125,-0.3125 1,-1 L 6.59375,4 7,4 l 8,0 0.40625,0 0.3125,0.28125 1,1 L 17,5.59375 17,6 l 0,2.96875 0,0.40625 -0.28125,0.28125 -1,1.03125 -0.1875,0.21875 -0.28125,0.0625 -3.71875,0.9375 L 11,12.4375 11,16 l 1,0 0,-1 0,-2.125 0.0625,-0.0625 3.40625,-0.875 0.03125,0 0.25,-0.0625 0.3125,-0.0625 0.21875,-0.25 0.15625,-0.1875 0.03125,-0.03125 0.96875,-0.96875 0,-0.03125 0.28125,-0.25 L 18,9.78125 18,9.375 18,8.96875 18,6 18,5.59375 18,5.21875 17.75,4.9375 17.46875,4.625 17.4375,4.59375 l 0,-0.03125 -1,-1 -0.03125,0 L 16.375,3.53125 16.0625,3.25 15.78125,3 15.40625,3 15,3 7,3 6.59375,3 6.21875,3 z M 7.4375,6 7,6.4375 7,8 7,9 8,9 8,8 8,7 l 6,0 0,1.1875 -0.03125,0 L 10.5,9.0625 10.25,9.125 10.03125,9.1875 9.84375,9.34375 9.625,9.53125 9.59375,9.5625 l -0.03125,0 -1,1 0,0.03125 L 8.53125,10.625 8.25,10.9375 8,11.21875 8,11.59375 8,12 l 0,3 0,1 1,0 0,-4 0,-0.40625 0.28125,-0.3125 1,-1 L 10.5,10.09375 10.75,10.03125 14.5,9.09375 15,8.5625 15,6.4375 14.5625,6 7.4375,6 z"
     id="rect3001"
     inkscape:connector-curvature="0" />
  <path
     inkscape:connector-curvature="0"
     style="color:#000000;fill:#27303a;fill-opacity:0.923280819999999968;fill-rule:nonzero;stroke:none;stroke-width:1;marker:none;visibility:visible;display:inline;overflow:visible;enable-background:accumulate"
     d="m 7,17 3,3 3,-3 -6,0 z"
     id="path2990" />
  <path
     inkscape:connector-curvature="0"
     style="font-size:medium;font-style:normal;font-variant:normal;font-weight:normal;font-stretch:normal;text-indent:0;text-align:start;text-decoration:none;line-height:normal;letter-spacing:normal;word-spacing:normal;text-transform:none;direction:ltr;block-progression:tb;writing-mode:lr-tb;text-anchor:start;baseline-shift:baseline;color:#000000;fill:#f1f3f5;fill-opacity:0.90288714000000003;fill-rule:nonzero;stroke:none;stroke-width:2;marker:none;visibility:visible;display:inline;overflow:visible;enable-background:accumulate;font-family:Sans;-inkscape-font-specification:Sans"
     d="m 5.3125,17 0.71875,0.96875 3,3 0.96875,0.4375 0.96875,-0.4375 3,-3 L 14.6875,17 13,17 10,20 7,17 z"
     id="rect3001-0" />
</svg>
