<?xml version="1.0" encoding="UTF-8" standalone="no"?>
<!-- Created with Inkscape (http://www.inkscape.org/) -->

<svg
   xmlns:dc="http://purl.org/dc/elements/1.1/"
   xmlns:cc="http://creativecommons.org/ns#"
   xmlns:rdf="http://www.w3.org/1999/02/22-rdf-syntax-ns#"
   xmlns:svg="http://www.w3.org/2000/svg"
   xmlns="http://www.w3.org/2000/svg"
   xmlns:sodipodi="http://sodipodi.sourceforge.net/DTD/sodipodi-0.dtd"
   xmlns:inkscape="http://www.inkscape.org/namespaces/inkscape"
   width="22"
   height="22"
   id="svg13094"
   version="1.1"
   inkscape:version="0.48.3.1 r9886"
   sodipodi:docname="drive-optical.svg">
  <sodipodi:namedview
     id="base"
     pagecolor="#ffffff"
     bordercolor="#666666"
     borderopacity="1.0"
     inkscape:pageopacity="0.0"
     inkscape:pageshadow="2"
     inkscape:zoom="32"
     inkscape:cx="9.308023"
     inkscape:cy="12.662626"
     inkscape:document-units="px"
     inkscape:current-layer="layer1"
     showgrid="true"
     inkscape:snap-bbox="true"
     inkscape:bbox-paths="true"
     inkscape:bbox-nodes="true"
     inkscape:snap-bbox-edge-midpoints="true"
     inkscape:snap-bbox-midpoints="true"
     inkscape:object-paths="true"
     inkscape:snap-intersection-paths="true"
     inkscape:object-nodes="true"
     inkscape:snap-smooth-nodes="true"
     inkscape:snap-midpoints="true"
     inkscape:snap-object-midpoints="true"
     inkscape:snap-center="true"
     showguides="false"
     inkscape:guide-bbox="true"
     inkscape:window-width="1920"
     inkscape:window-height="1027"
     inkscape:window-x="-10"
     inkscape:window-y="31"
     inkscape:window-maximized="1"
     inkscape:snap-global="true"
     fit-margin-top="0"
     fit-margin-left="0"
     fit-margin-right="0"
     fit-margin-bottom="0"
     showborder="true"
     inkscape:showpageshadow="false">
    <sodipodi:guide
       orientation="0,1"
       position="-25.000005,930.61286"
       id="guide4700" />
    <sodipodi:guide
       orientation="0,1"
       position="576.71887,328.89388"
       id="guide4702" />
    <sodipodi:guide
       orientation="1,0"
       position="576.71899,489.70395"
       id="guide4706" />
    <sodipodi:guide
       orientation="1,0"
       position="54.999996,930.61286"
       id="guide4708" />
    <sodipodi:guide
       orientation="0,1"
       position="-25.000005,850.61296"
       id="guide4710" />
    <sodipodi:guide
       orientation="0,1"
       position="536.71887,408.8938"
       id="guide4712" />
    <sodipodi:guide
       orientation="1,0"
       position="496.71887,408.8938"
       id="guide4714" />
    <inkscape:grid
       type="xygrid"
       id="grid3216"
       empspacing="5"
       visible="true"
       enabled="true"
       snapvisiblegridlinesonly="true"
       originx="-24.999951px"
       originy="-219.00005px" />
    <sodipodi:guide
       orientation="-0.70710664,0.70710692"
       position="4.0000502,-246.00005"
       id="guide3847" />
    <sodipodi:guide
       orientation="0.70710594,0.70710762"
       position="5.0000502,-245.00005"
       id="guide3849" />
    <sodipodi:guide
       orientation="-0.70710681,0.70710676"
       position="7.0000502,-212.00005"
       id="guide3851" />
  </sodipodi:namedview>
  <defs
     id="defs13096" />
  <metadata
     id="metadata13099">
    <rdf:RDF>
      <cc:Work
         rdf:about="">
        <dc:format>image/svg+xml</dc:format>
        <dc:type
           rdf:resource="http://purl.org/dc/dcmitype/StillImage" />
        <dc:title />
      </cc:Work>
    </rdf:RDF>
  </metadata>
  <g
     transform="translate(9379.308,-4837.1988)"
     id="layer1"
     inkscape:groupmode="layer"
     inkscape:label="Camada 1">
    <path
       id="path2994"
       d="m -9368.308,4840.1927 c -4.4217,0 -8.0061,3.5844 -8.0061,8.0061 0,4.4217 3.5844,8.0061 8.0061,8.0061 4.4217,0 8.0061,-3.5844 8.0061,-8.0061 0,-4.4217 -3.5844,-8.0061 -8.0061,-8.0061 z m -2.2239,2.1127 1.3065,3.4192 c -0.1517,0.057 -0.3076,0.1127 -0.4448,0.1947 l -2.1683,-2.9467 c 0.4021,-0.2705 0.8416,-0.492 1.3066,-0.6672 z m -1.7236,1.0008 2.1405,2.9188 c -0.4328,0.3966 -0.7083,0.9511 -0.8061,1.5568 l -3.6139,-0.6116 c 0.2582,-1.5506 1.0896,-2.9082 2.2795,-3.864 z m 3.9475,3.8926 c 0.5523,0 1,0.4477 1,1 0,0.5523 -0.4477,1 -1,1 -0.5523,0 -1,-0.4477 -1,-1 0,-0.5523 0.4477,-1 1,-1 z m 2.6131,1.4169 3.6139,0.6116 c -0.2582,1.5506 -1.0896,2.9083 -2.2795,3.8641 l -2.1406,-2.9189 c 0.4329,-0.3965 0.7084,-0.951 0.8062,-1.5568 z m -1.251,1.8626 2.1683,2.9467 c -0.402,0.2705 -0.8415,0.4921 -1.3065,0.6672 l -1.3066,-3.4193 c 0.1518,-0.057 0.3077,-0.1126 0.4448,-0.1946 z"
       style="color:#000000;fill:#434a54;fill-opacity:0.67577096;fill-rule:nonzero;stroke:none;stroke-width:50.65626907;marker:none;visibility:visible;display:inline;overflow:visible;enable-background:accumulate"
       inkscape:connector-curvature="0"
       sodipodi:nodetypes="sssssccccccccccssssscccccccccc" />
    <path
       style="font-size:medium;font-style:normal;font-variant:normal;font-weight:normal;font-stretch:normal;text-indent:0;text-align:start;text-decoration:none;line-height:normal;letter-spacing:normal;word-spacing:normal;text-transform:none;direction:ltr;block-progression:tb;writing-mode:lr-tb;text-anchor:start;baseline-shift:baseline;color:#000000;fill:#d1d4d6;fill-opacity:0.74329164;fill-rule:nonzero;stroke:none;stroke-width:2;marker:none;visibility:visible;display:inline;overflow:visible;enable-background:accumulate;font-family:Sans;-inkscape-font-specification:Sans"
       d="m -9368.308,4839.0113 c -5.0675,0 -9.1875,4.12 -9.1875,9.1875 0,5.0675 4.12,9.1875 9.1875,9.1875 5.0675,0 9.1875,-4.12 9.1875,-9.1875 0,-5.0675 -4.12,-9.1875 -9.1875,-9.1875 z m 0,1.1814 c 4.4217,0 8.0061,3.5844 8.0061,8.0061 0,4.4217 -3.5844,8.0061 -8.0061,8.0061 -4.4217,0 -8.0061,-3.5844 -8.0061,-8.0061 0,-4.4217 3.5844,-8.0061 8.0061,-8.0061 z m -2.2239,2.1127 c -0.465,0.1752 -0.9045,0.3967 -1.3066,0.6672 l 2.1683,2.9467 c 0.1372,-0.082 0.2932,-0.1377 0.4448,-0.1946 z m -1.7236,1.0008 c -1.1899,0.9558 -2.0213,2.3134 -2.2795,3.864 l 3.6139,0.6116 c 0.098,-0.6057 0.3733,-1.1602 0.8062,-1.5567 z m 3.9475,3.8926 c -0.5523,0 -1,0.4477 -1,1 0,0.5523 0.4477,1 1,1 0.5523,0 1,-0.4477 1,-1 0,-0.5523 -0.4477,-1 -1,-1 z m 2.6131,1.417 c -0.098,0.6058 -0.3732,1.1603 -0.8062,1.5567 l 2.1406,2.9189 c 1.1899,-0.9558 2.0213,-2.3134 2.2795,-3.864 z m -1.2509,1.8625 c -0.1371,0.082 -0.2931,0.1377 -0.4448,0.1946 l 1.3065,3.4193 c 0.465,-0.1751 0.9046,-0.3967 1.3066,-0.6672 z"
       id="path2996"
       inkscape:connector-curvature="0"
       sodipodi:nodetypes="ssssssssssccccccccccssssscccccccccc" />
  </g>
</svg>
