<?xml version="1.0" encoding="UTF-8" standalone="no"?>
<!-- Created with Inkscape (http://www.inkscape.org/) -->

<svg
   xmlns:dc="http://purl.org/dc/elements/1.1/"
   xmlns:cc="http://creativecommons.org/ns#"
   xmlns:rdf="http://www.w3.org/1999/02/22-rdf-syntax-ns#"
   xmlns:svg="http://www.w3.org/2000/svg"
   xmlns="http://www.w3.org/2000/svg"
   xmlns:sodipodi="http://sodipodi.sourceforge.net/DTD/sodipodi-0.dtd"
   xmlns:inkscape="http://www.inkscape.org/namespaces/inkscape"
   width="24"
   height="24"
   id="svg27665"
   version="1.1"
   inkscape:version="0.48.3.1 r9886"
   sodipodi:docname="aptana.svg">
  <defs
     id="defs27667" />
  <sodipodi:namedview
     id="base"
     pagecolor="#ffffff"
     bordercolor="#666666"
     borderopacity="1.0"
     inkscape:pageopacity="0.0"
     inkscape:pageshadow="2"
     inkscape:zoom="31.678384"
     inkscape:cx="7.6521539"
     inkscape:cy="11.567914"
     inkscape:document-units="px"
     inkscape:current-layer="layer1"
     showgrid="true"
     inkscape:window-width="1920"
     inkscape:window-height="1023"
     inkscape:window-x="-10"
     inkscape:window-y="35"
     inkscape:window-maximized="1"
     inkscape:snap-bbox="true"
     inkscape:bbox-paths="true"
     inkscape:bbox-nodes="true"
     inkscape:snap-bbox-edge-midpoints="true"
     inkscape:snap-bbox-midpoints="true"
     inkscape:object-paths="true"
     inkscape:snap-intersection-paths="true"
     inkscape:object-nodes="true"
     inkscape:snap-smooth-nodes="true"
     inkscape:snap-midpoints="true"
     inkscape:snap-object-midpoints="true"
     inkscape:snap-center="true"
     inkscape:snap-global="true"
     showguides="false"
     inkscape:guide-bbox="true"
     fit-margin-top="0"
     fit-margin-left="0"
     fit-margin-right="0"
     fit-margin-bottom="0"
     inkscape:showpageshadow="false">
    <sodipodi:guide
       orientation="0,1"
       position="-1494.2276,523.03618"
       id="guide4179" />
    <sodipodi:guide
       orientation="1,0"
       position="-1492.0847,520.17904"
       id="guide4181" />
    <inkscape:grid
       type="xygrid"
       id="grid4279"
       empspacing="5"
       visible="true"
       enabled="true"
       snapvisiblegridlinesonly="true"
       originx="6.6056504e-05px"
       originy="592.00001px" />
  </sodipodi:namedview>
  <metadata
     id="metadata27670">
    <rdf:RDF>
      <cc:Work
         rdf:about="">
        <dc:format>image/svg+xml</dc:format>
        <dc:type
           rdf:resource="http://purl.org/dc/dcmitype/StillImage" />
        <dc:title />
      </cc:Work>
    </rdf:RDF>
  </metadata>
  <g
     inkscape:label="Camada 1"
     inkscape:groupmode="layer"
     id="layer1"
     transform="translate(3393.2465,-1642.2411)">
    <path
       sodipodi:nodetypes="ccccccccccccccccccccccccccccccccccccccsssss"
       inkscape:connector-curvature="0"
       style="fill:#27303a;fill-opacity:0.753280819999999968;fill-rule:nonzero;stroke:none"
       d="m -3390.2464,1645.2411 0,18 18,0 0,-18 z m 13.2426,3.3431 1.4143,1.4143 -1.5289,1.8191 c 0.2245,0.3813 0.3951,0.7811 0.5061,1.1984 l 2.3542,0.2307 0,1.9888 -2.3542,0.2307 c -0.111,0.4173 -0.2813,0.8175 -0.5061,1.1984 l 1.5289,1.8191 -1.4143,1.4143 -1.8191,-1.5289 c -0.3813,0.2245 -0.7811,0.3951 -1.1984,0.5061 l -0.2308,2.3542 -1.9887,0 -0.2307,-2.3542 c -0.4173,-0.111 -0.8175,-0.2813 -1.1985,-0.506 l -1.819,1.5288 -1.4143,-1.4143 1.5288,-1.819 c -0.2245,-0.3813 -0.395,-0.7812 -0.506,-1.1985 l -2.3542,-0.2308 0,-1.9886 2.3542,-0.2308 c 0.111,-0.4173 0.2813,-0.8175 0.506,-1.1985 l -1.5288,-1.819 1.4143,-1.4143 1.819,1.5288 c 0.3813,-0.2245 0.7812,-0.395 1.1985,-0.506 l 0.2307,-2.3542 1.9887,0 0.2308,2.3542 c 0.4173,0.111 0.8175,0.2813 1.1984,0.5061 z m -2.2917,3.706 c -1.0775,-1.0774 -2.8243,-1.0774 -3.9018,0 -1.0774,1.0775 -1.0774,2.8243 0,3.9018 1.0775,1.0774 2.8243,1.0774 3.9018,0 1.0774,-1.0775 1.0774,-2.8243 0,-3.9018 z"
       id="path2988" />
    <path
       style="font-size:medium;font-style:normal;font-variant:normal;font-weight:normal;font-stretch:normal;text-indent:0;text-align:start;text-decoration:none;line-height:normal;letter-spacing:normal;word-spacing:normal;text-transform:none;direction:ltr;block-progression:tb;writing-mode:lr-tb;text-anchor:start;baseline-shift:baseline;color:#000000;fill:#f1f3f5;fill-opacity:0.90288714000000003;fill-rule:nonzero;stroke:none;stroke-width:2;marker:none;visibility:visible;display:inline;overflow:visible;enable-background:accumulate;font-family:Sans;-inkscape-font-specification:Sans"
       d="M 2 2 L 2 3 L 2 21 L 2 22 L 3 22 L 21 22 L 22 22 L 22 21 L 22 3 L 22 2 L 21 2 L 3 2 L 2 2 z M 3 3 L 21 3 L 21 21 L 3 21 L 3 3 z M 11 5 L 10.78125 7.375 C 10.36395 7.486 9.9438 7.6505 9.5625 7.875 L 7.75 6.34375 L 6.34375 7.75 L 7.875 9.5625 C 7.6503 9.9435 7.486 10.36395 7.375 10.78125 L 5 11 L 5 13 L 7.375 13.21875 C 7.486 13.63605 7.6505 14.0562 7.875 14.4375 L 6.34375 16.25 L 7.75 17.65625 L 9.5625 16.125 C 9.9435 16.3497 10.36395 16.514 10.78125 16.625 L 11 19 L 13 19 L 13.21875 16.625 C 13.63605 16.514 14.0562 16.3495 14.4375 16.125 L 16.25 17.65625 L 17.65625 16.25 L 16.125 14.4375 C 16.3498 14.0566 16.514 13.63605 16.625 13.21875 L 19 13 L 19 11 L 16.625 10.78125 C 16.514 10.36395 16.3495 9.9438 16.125 9.5625 L 17.65625 7.75 L 16.25 6.34375 L 14.4375 7.875 C 14.0566 7.6502 13.63605 7.486 13.21875 7.375 L 13 5 L 11 5 z M 11.90625 6 L 12.09375 6 L 12.21875 7.46875 L 12.3125 8.15625 L 12.96875 8.3125 C 13.12025 8.3525 13.25905 8.4393 13.40625 8.5 C 13.57515 8.57 13.74215 8.62185 13.90625 8.71875 L 14.53125 9.09375 L 15.0625 8.625 L 16.1875 7.6875 L 16.3125 7.8125 L 15.375 8.9375 L 14.90625 9.46875 L 15.28125 10.0625 C 15.37425 10.2212 15.40065 10.4001 15.46875 10.5625 C 15.53275 10.716 15.61435 10.87355 15.65625 11.03125 L 15.84375 11.6875 L 16.53125 11.75 L 18 11.90625 L 18 12.09375 L 16.53125 12.21875 L 15.84375 12.28125 L 15.65625 12.96875 C 15.61525 13.12195 15.53035 13.25735 15.46875 13.40625 C 15.39975 13.57335 15.37685 13.74385 15.28125 13.90625 L 14.90625 14.53125 L 15.375 15.0625 L 16.3125 16.1875 L 16.1875 16.28125 L 15.0625 15.34375 L 14.53125 14.90625 L 13.90625 15.25 C 13.74135 15.347 13.57525 15.39905 13.40625 15.46875 C 13.25895 15.52975 13.11995 15.61605 12.96875 15.65625 L 12.3125 15.84375 L 12.21875 16.53125 L 12.09375 17.96875 L 11.90625 17.96875 L 11.78125 16.53125 L 11.71875 15.84375 L 11.03125 15.65625 C 10.87975 15.61625 10.74105 15.52935 10.59375 15.46875 C 10.42485 15.39875 10.25795 15.3469 10.09375 15.25 L 9.46875 14.90625 L 8.9375 15.34375 L 7.8125 16.28125 L 7.71875 16.1875 L 8.65625 15.0625 L 9.09375 14.53125 L 8.75 13.90625 C 8.653 13.74145 8.60095 13.57525 8.53125 13.40625 C 8.47025 13.25895 8.38395 13.12005 8.34375 12.96875 L 8.15625 12.28125 L 7.46875 12.21875 L 6 12.09375 L 6 11.90625 L 7.46875 11.75 L 8.15625 11.6875 L 8.34375 11.03125 C 8.38275 10.88395 8.47285 10.73705 8.53125 10.59375 C 8.17785 11.49215 8.17025 12.51025 8.53125 13.40625 C 8.71375 13.85905 8.97885 14.29135 9.34375 14.65625 C 9.70865 15.02115 10.14095 15.28625 10.59375 15.46875 C 11.49925 15.83355 12.50075 15.83355 13.40625 15.46875 C 13.85905 15.28625 14.29135 15.02115 14.65625 14.65625 C 15.02115 14.29135 15.28625 13.85905 15.46875 13.40625 C 15.83355 12.50075 15.83355 11.468 15.46875 10.5625 C 15.28625 10.1097 15.02115 9.70865 14.65625 9.34375 C 14.29135 8.97885 13.85905 8.6824 13.40625 8.5 C 12.50075 8.1351 11.49925 8.1351 10.59375 8.5 C 10.14095 8.6824 9.70865 8.97885 9.34375 9.34375 C 8.98965 9.69785 8.7448 10.09365 8.5625 10.53125 C 8.6275 10.37985 8.6629 10.2103 8.75 10.0625 L 9.09375 9.46875 L 8.65625 8.9375 L 7.71875 7.8125 L 7.8125 7.6875 L 8.9375 8.625 L 9.46875 9.09375 L 10.09375 8.71875 C 10.25855 8.62175 10.42475 8.5696 10.59375 8.5 C 10.74105 8.439 10.87995 8.3528 11.03125 8.3125 L 11.71875 8.15625 L 11.78125 7.46875 L 11.90625 6 z M 12 9.25 C 12.706075 9.25 13.39875 9.5238 13.9375 10.0625 C 15.0149 11.14 15.0149 12.86 13.9375 13.9375 C 12.86 15.0149 11.14 15.0149 10.0625 13.9375 C 8.9851 12.86 8.9851 11.14 10.0625 10.0625 C 10.60125 9.5238 11.293925 9.25 12 9.25 z "
       transform="translate(-3393.2465,1642.2411)"
       id="path2997" />
  </g>
</svg>
