<?xml version="1.0" encoding="UTF-8" standalone="no"?>
<!-- Created with Inkscape (http://www.inkscape.org/) -->

<svg
   xmlns:dc="http://purl.org/dc/elements/1.1/"
   xmlns:cc="http://creativecommons.org/ns#"
   xmlns:rdf="http://www.w3.org/1999/02/22-rdf-syntax-ns#"
   xmlns:svg="http://www.w3.org/2000/svg"
   xmlns="http://www.w3.org/2000/svg"
   xmlns:sodipodi="http://sodipodi.sourceforge.net/DTD/sodipodi-0.dtd"
   xmlns:inkscape="http://www.inkscape.org/namespaces/inkscape"
   width="24"
   height="24"
   id="svg27665"
   version="1.1"
   inkscape:version="0.48.4 r9939"
   sodipodi:docname="freebsd.svg">
  <defs
     id="defs27667" />
  <sodipodi:namedview
     id="base"
     pagecolor="#ffffff"
     bordercolor="#666666"
     borderopacity="1.0"
     inkscape:pageopacity="0.0"
     inkscape:pageshadow="2"
     inkscape:zoom="32"
     inkscape:cx="14.149504"
     inkscape:cy="13.175104"
     inkscape:document-units="px"
     inkscape:current-layer="layer1"
     showgrid="true"
     inkscape:window-width="1920"
     inkscape:window-height="1025"
     inkscape:window-x="-2"
     inkscape:window-y="32"
     inkscape:window-maximized="1"
     inkscape:snap-bbox="true"
     inkscape:bbox-paths="true"
     inkscape:bbox-nodes="true"
     inkscape:snap-bbox-edge-midpoints="true"
     inkscape:snap-bbox-midpoints="true"
     inkscape:object-paths="true"
     inkscape:snap-intersection-paths="true"
     inkscape:object-nodes="true"
     inkscape:snap-smooth-nodes="true"
     inkscape:snap-midpoints="true"
     inkscape:snap-object-midpoints="true"
     inkscape:snap-center="true"
     inkscape:snap-global="true"
     showguides="false"
     inkscape:guide-bbox="true"
     fit-margin-top="0"
     fit-margin-left="0"
     fit-margin-right="0"
     fit-margin-bottom="0"
     inkscape:showpageshadow="false">
    <sodipodi:guide
       orientation="0,1"
       position="595.99988,295.99996"
       id="guide3572" />
    <sodipodi:guide
       orientation="1,0"
       position="290.41938,8.121743"
       id="guide3574" />
    <sodipodi:guide
       orientation="0,1"
       position="452.04378,595.99995"
       id="guide3576" />
    <sodipodi:guide
       orientation="0,1"
       position="-4.0001107,-4.0000574"
       id="guide3578" />
    <sodipodi:guide
       orientation="1,0"
       position="-4.0001107,153.58369"
       id="guide3580" />
    <sodipodi:guide
       orientation="1,0"
       position="595.99988,117.21824"
       id="guide3582" />
    <sodipodi:guide
       orientation="0,1"
       position="595.99988,-718.34356"
       id="guide5928" />
    <sodipodi:guide
       orientation="0,1"
       position="595.99988,-418.34356"
       id="guide5930" />
    <sodipodi:guide
       orientation="0,1"
       position="595.99988,-1018.3435"
       id="guide5932" />
    <sodipodi:guide
       orientation="0,1"
       position="447.57018,520.99609"
       id="guide5294" />
    <sodipodi:guide
       orientation="0,1"
       position="447.57018,71.013543"
       id="guide5296" />
    <sodipodi:guide
       orientation="0,1"
       position="492.01488,-935.36406"
       id="guide5413" />
    <sodipodi:guide
       orientation="0,1"
       position="453.34848,-493.34386"
       id="guide5415" />
    <inkscape:grid
       type="xygrid"
       id="grid3070"
       empspacing="5"
       visible="true"
       enabled="true"
       snapvisiblegridlinesonly="true"
       originx="-4.0000646px"
       originy="-4px" />
  </sodipodi:namedview>
  <metadata
     id="metadata27670">
    <rdf:RDF>
      <cc:Work
         rdf:about="">
        <dc:format>image/svg+xml</dc:format>
        <dc:type
           rdf:resource="http://purl.org/dc/dcmitype/StillImage" />
        <dc:title />
      </cc:Work>
    </rdf:RDF>
  </metadata>
  <g
     inkscape:label="Camada 1"
     inkscape:groupmode="layer"
     id="layer1"
     transform="translate(3360.417,-2088.7186)">
    <path
       id="path3830"
       d="m -3356.417,2092.7186 0,3.9063 c 0.8605,-1.6768 2.2295,-3.0458 3.9062,-3.9063 l -3.9062,0 z m 8,0 c -4.4183,0 -8,3.5817 -8,8 0,4.4183 3.5817,8 8,8 4.4183,0 8,-3.5817 8,-8 0,-1.1447 -0.2544,-2.2341 -0.6875,-3.2187 l -0.3438,0.7187 -0.3125,0.5938 -0.6562,0 -1,0 -0.4688,0 -0.3125,-0.3125 -2,-2 -0.3437,-0.3125 0,-0.4688 0,-1 0,-0.6875 0.625,-0.2812 0.7187,-0.3438 c -0.9846,-0.4331 -2.074,-0.6875 -3.2187,-0.6875 z m 7,0 -4,2 0,1 2,2 1,0 2,-4 0,-1 -1,0 z"
       style="color:#000000;fill:#27303a;fill-opacity:0.753280819999999968;fill-rule:nonzero;stroke:none;stroke-width:1;marker:none;visibility:visible;display:inline;overflow:visible;enable-background:accumulate"
       inkscape:connector-curvature="0" />
    <path
       style="font-size:medium;font-style:normal;font-variant:normal;font-weight:normal;font-stretch:normal;text-indent:0;text-align:start;text-decoration:none;line-height:normal;letter-spacing:normal;word-spacing:normal;text-transform:none;direction:ltr;block-progression:tb;writing-mode:lr-tb;text-anchor:start;baseline-shift:baseline;color:#000000;fill:#f1f3f5;fill-opacity:0.90288714000000003;fill-rule:nonzero;stroke:none;stroke-width:2;marker:none;visibility:visible;display:inline;overflow:visible;enable-background:accumulate;font-family:Sans;-inkscape-font-specification:Sans"
       d="M 3.8125 3 A 1.0001 1.0001 0 0 0 3 4 L 3 7.90625 A 1.0001 1.0001 0 0 0 3.65625 8.84375 C 3.28095 9.83295 3 10.8815 3 12 C 3 16.9587 7.0413 21 12 21 C 16.9587 21 21 16.9587 21 12 C 21 10.7071 20.70325 9.4764 20.21875 8.375 A 1.0001 1.0001 0 0 0 19.6875 7.84375 L 20.90625 5.4375 A 1.0001 1.0001 0 0 0 21 5 L 21 4 A 1.0001 1.0001 0 0 0 20 3 L 19 3 A 1.0001 1.0001 0 0 0 18.5625 3.09375 L 16.15625 4.3125 A 1.0001 1.0001 0 0 0 15.625 3.78125 C 14.5236 3.29675 13.2929 3 12 3 C 10.8815 3 9.83305 3.28085 8.84375 3.65625 A 1.0001 1.0001 0 0 0 7.90625 3 L 4 3 A 1.0001 1.0001 0 0 0 3.90625 3 A 1.0001 1.0001 0 0 0 3.8125 3 z M 4 4 L 7.90625 4 C 6.22955 4.8605 4.8605 6.22945 4 7.90625 L 4 4 z M 12 4 C 13.1447 4 14.23415 4.2544 15.21875 4.6875 L 14.5 5.03125 L 13.875 5.3125 L 13.875 6 L 13.875 7 L 13.875 7.46875 L 14.21875 7.78125 L 16.21875 9.78125 L 16.53125 10.09375 L 17 10.09375 L 18 10.09375 L 18.65625 10.09375 L 18.96875 9.5 L 19.3125 8.78125 C 19.7456 9.76585 20 10.8553 20 12 C 20 16.4183 16.4183 20 12 20 C 7.5817 20 4 16.4183 4 12 C 4 7.5817 7.5817 4 12 4 z M 19 4 L 20 4 L 20 5 L 18 9 L 17 9 L 15 7 L 15 6 L 19 4 z "
       transform="translate(-3360.417,2088.7186)"
       id="path3804" />
  </g>
</svg>
