<?xml version="1.0" encoding="UTF-8" standalone="no"?>
<!-- Created with Inkscape (http://www.inkscape.org/) -->

<svg
   xmlns:dc="http://purl.org/dc/elements/1.1/"
   xmlns:cc="http://creativecommons.org/ns#"
   xmlns:rdf="http://www.w3.org/1999/02/22-rdf-syntax-ns#"
   xmlns:svg="http://www.w3.org/2000/svg"
   xmlns="http://www.w3.org/2000/svg"
   xmlns:sodipodi="http://sodipodi.sourceforge.net/DTD/sodipodi-0.dtd"
   xmlns:inkscape="http://www.inkscape.org/namespaces/inkscape"
   width="24"
   height="24"
   id="svg27665"
   version="1.1"
   inkscape:version="0.48.3.1 r9886"
   sodipodi:docname="gnumeric.svg">
  <defs
     id="defs27667" />
  <sodipodi:namedview
     id="base"
     pagecolor="#ffffff"
     bordercolor="#666666"
     borderopacity="1.0"
     inkscape:pageopacity="0.0"
     inkscape:pageshadow="2"
     inkscape:zoom="31.678384"
     inkscape:cx="12.300938"
     inkscape:cy="10.851112"
     inkscape:document-units="px"
     inkscape:current-layer="layer1"
     showgrid="true"
     inkscape:window-width="1920"
     inkscape:window-height="1033"
     inkscape:window-x="-10"
     inkscape:window-y="25"
     inkscape:window-maximized="1"
     inkscape:snap-bbox="true"
     inkscape:bbox-paths="true"
     inkscape:bbox-nodes="true"
     inkscape:snap-bbox-edge-midpoints="true"
     inkscape:snap-bbox-midpoints="true"
     inkscape:object-paths="true"
     inkscape:snap-intersection-paths="true"
     inkscape:object-nodes="true"
     inkscape:snap-smooth-nodes="true"
     inkscape:snap-midpoints="true"
     inkscape:snap-object-midpoints="true"
     inkscape:snap-center="true"
     inkscape:snap-global="true"
     showguides="false"
     inkscape:guide-bbox="true"
     fit-margin-top="0"
     fit-margin-left="0"
     fit-margin-right="0"
     fit-margin-bottom="0"
     inkscape:showpageshadow="false">
    <sodipodi:guide
       orientation="0,1"
       position="-1494.2276,523.03618"
       id="guide4179" />
    <sodipodi:guide
       orientation="1,0"
       position="-1492.0847,520.17904"
       id="guide4181" />
    <inkscape:grid
       type="xygrid"
       id="grid4279"
       empspacing="5"
       visible="true"
       enabled="true"
       snapvisiblegridlinesonly="true"
       originx="6.6056504e-05px"
       originy="592.00001px" />
  </sodipodi:namedview>
  <metadata
     id="metadata27670">
    <rdf:RDF>
      <cc:Work
         rdf:about="">
        <dc:format>image/svg+xml</dc:format>
        <dc:type
           rdf:resource="http://purl.org/dc/dcmitype/StillImage" />
        <dc:title />
      </cc:Work>
    </rdf:RDF>
  </metadata>
  <g
     inkscape:label="Camada 1"
     inkscape:groupmode="layer"
     id="layer1"
     transform="translate(3393.2465,-1642.2411)">
    <rect
       style="opacity:0.00100002;fill:#ffffff;fill-opacity:1;fill-rule:nonzero;stroke:none"
       id="rect4544"
       width="16"
       height="16"
       x="-3393.2466"
       y="1650.2411" />
    <path
       id="path3786"
       d="m -3389.2465,1646.2411 0,2 4,0 0,-2 -4,0 z m 5,0 0,2 5,0 0,-2 -5,0 z m 6,0 0,2 5,0 0,-2 -5,0 z m -11,3 0,2 4,0 0,-2 -4,0 z m 0,3 0,2 4,0 0,-2 -4,0 z m 0,3 0,2 4,0 0,-2 -4,0 z m 0,3 0,2 4,0 0,-2 -4,0 z"
       style="color:#000000;fill:#434a55;fill-opacity:0.6745098;fill-rule:nonzero;stroke:none;stroke-width:1;marker:none;visibility:visible;display:inline;overflow:visible;enable-background:accumulate"
       inkscape:connector-curvature="0" />
    <path
       style="font-size:medium;font-style:normal;font-variant:normal;font-weight:normal;font-stretch:normal;text-indent:0;text-align:start;text-decoration:none;line-height:normal;letter-spacing:normal;word-spacing:normal;text-transform:none;direction:ltr;block-progression:tb;writing-mode:lr-tb;text-anchor:start;baseline-shift:baseline;color:#000000;fill:#d1d4d6;fill-opacity:0.74329164;fill-rule:nonzero;stroke:none;stroke-width:2;marker:none;visibility:visible;display:inline;overflow:visible;enable-background:accumulate;font-family:Sans;-inkscape-font-specification:Sans"
       d="m -3390.2465,1645.2411 0,1 0,2 0,1 0,2 0,1 0,2 0,1 0,2 0,1 0,2 0,1 1,0 4,0 1,0 0,-1 0,-2 0,-1 0,-2 0,-1 0,-2 0,-1 0,-2 5,0 1,0 5,0 1,0 0,-1 0,-2 0,-1 -1,0 -5,0 -1,0 -5,0 -1,0 -4,0 -1,0 z m 1,1 4,0 0,2 -4,0 0,-2 z m 5,0 5,0 0,2 -5,0 0,-2 z m 6,0 5,0 0,2 -5,0 0,-2 z m -11,3 4,0 0,2 -4,0 0,-2 z m 0,3 4,0 0,2 -4,0 0,-2 z m 0,3 4,0 0,2 -4,0 0,-2 z m 0,3 4,0 0,2 -4,0 0,-2 z"
       id="rect3018"
       inkscape:connector-curvature="0" />
    <path
       style="color:#000000;fill:#8a929e;fill-opacity:0.60931899;fill-rule:nonzero;stroke:none;stroke-width:1;marker:none;visibility:visible;display:inline;overflow:visible;enable-background:accumulate"
       d="m -3384.2465,1649.2411 0,2 5,0 0,-2 -5,0 z m 6,0 0,2 5,0 0,-2 -5,0 z m -6,3 0,2 5,0 0,-2 -5,0 z m 6,0 0,2 5,0 0,-2 -5,0 z m -6,3 0,2 5,0 0,-2 -5,0 z m 6,0 0,2 5,0 0,-2 -5,0 z m -6,3 0,2 5,0 0,-2 -5,0 z m 6,0 0,2 5,0 0,-2 -5,0 z"
       id="rect3002"
       inkscape:connector-curvature="0" />
    <path
       sodipodi:end="5.2359878"
       sodipodi:start="0"
       transform="matrix(1.2857143,0,0,1.2857143,-3391.5322,1643.9554)"
       d="m 15.000066,11.500019 c 0,1.932997 -1.567004,3.5 -3.5,3.5 -1.9329968,0 -3.5000002,-1.567003 -3.5000002,-3.5 0,-1.9329966 1.5670034,-3.4999999 3.5000002,-3.4999999 0.614378,0 1.217933,0.1617219 1.75,0.4689111 l -1.75,3.0310888 z"
       sodipodi:ry="3.5"
       sodipodi:rx="3.5"
       sodipodi:cy="11.500019"
       sodipodi:cx="11.500066"
       id="path3002"
       style="color:#000000;fill:#434a55;fill-opacity:0.6745098;fill-rule:nonzero;stroke:none;stroke-width:1;marker:none;visibility:visible;display:inline;overflow:visible;enable-background:accumulate"
       sodipodi:type="arc" />
    <path
       style="font-size:medium;font-style:normal;font-variant:normal;font-weight:normal;font-stretch:normal;text-indent:0;text-align:start;text-decoration:none;line-height:normal;letter-spacing:normal;word-spacing:normal;text-transform:none;direction:ltr;block-progression:tb;writing-mode:lr-tb;text-anchor:start;baseline-shift:baseline;color:#000000;fill:#d1d4d6;fill-opacity:0.74329164;fill-rule:nonzero;stroke:none;stroke-width:2;marker:none;visibility:visible;display:inline;overflow:visible;enable-background:accumulate;font-family:Sans;-inkscape-font-specification:Sans"
       d="m -3376.7468,1653.0517 c -3.1299,0 -5.6894,2.5595 -5.6894,5.6894 0,3.1299 2.5595,5.6894 5.6894,5.6894 3.1299,0 5.5003,-2.6637 5.5003,-5.6894 l 0,-1 -1,0 -2.7813,0 1.4063,-2.4062 0.6245,-0.9902 -0.9375,-0.5495 c -0.8649,-0.4993 -1.8137,-0.7435 -2.8123,-0.7435 z m 3e-4,1.1894 c 0.7899,0 1.5659,0.1988 2.25,0.5938 l -2.25,3.9062 4.5,0 c 0,2.4853 -2.0147,4.5 -4.5,4.5 -2.4853,0 -4.5,-2.0147 -4.5,-4.5 0,-2.4853 2.0147,-4.5 4.5,-4.5 z"
       id="path3040"
       inkscape:connector-curvature="0"
       sodipodi:nodetypes="ssssccccccsscccsss" />
  </g>
</svg>
