<?xml version="1.0" encoding="UTF-8" standalone="no"?>
<!-- Created with Inkscape (http://www.inkscape.org/) -->

<svg
   xmlns:dc="http://purl.org/dc/elements/1.1/"
   xmlns:cc="http://creativecommons.org/ns#"
   xmlns:rdf="http://www.w3.org/1999/02/22-rdf-syntax-ns#"
   xmlns:svg="http://www.w3.org/2000/svg"
   xmlns="http://www.w3.org/2000/svg"
   xmlns:sodipodi="http://sodipodi.sourceforge.net/DTD/sodipodi-0.dtd"
   xmlns:inkscape="http://www.inkscape.org/namespaces/inkscape"
   width="24"
   height="24"
   id="svg13094"
   version="1.1"
   inkscape:version="0.48.3.1 r9886"
   sodipodi:docname="im-msn.svg">
  <sodipodi:namedview
     id="base"
     pagecolor="#ffffff"
     bordercolor="#666666"
     borderopacity="1.0"
     inkscape:pageopacity="0.0"
     inkscape:pageshadow="2"
     inkscape:zoom="22.627417"
     inkscape:cx="5.5993854"
     inkscape:cy="11.628931"
     inkscape:document-units="px"
     inkscape:current-layer="layer1"
     showgrid="true"
     inkscape:snap-bbox="true"
     inkscape:bbox-paths="true"
     inkscape:bbox-nodes="true"
     inkscape:snap-bbox-edge-midpoints="true"
     inkscape:snap-bbox-midpoints="true"
     inkscape:object-paths="true"
     inkscape:snap-intersection-paths="true"
     inkscape:object-nodes="true"
     inkscape:snap-smooth-nodes="true"
     inkscape:snap-midpoints="true"
     inkscape:snap-object-midpoints="true"
     inkscape:snap-center="true"
     showguides="false"
     inkscape:guide-bbox="true"
     inkscape:window-width="1920"
     inkscape:window-height="1033"
     inkscape:window-x="-10"
     inkscape:window-y="25"
     inkscape:window-maximized="1"
     inkscape:snap-global="true"
     fit-margin-top="0"
     fit-margin-left="0"
     fit-margin-right="0"
     fit-margin-bottom="0"
     showborder="true"
     inkscape:showpageshadow="false">
    <sodipodi:guide
       orientation="0,1"
       position="-20.000165,933.61275"
       id="guide4700" />
    <sodipodi:guide
       orientation="0,1"
       position="581.7187,331.89377"
       id="guide4702" />
    <sodipodi:guide
       orientation="1,0"
       position="581.71882,492.70384"
       id="guide4706" />
    <sodipodi:guide
       orientation="1,0"
       position="59.999836,933.61275"
       id="guide4708" />
    <sodipodi:guide
       orientation="0,1"
       position="-20.000165,853.61285"
       id="guide4710" />
    <sodipodi:guide
       orientation="0,1"
       position="541.7187,411.89369"
       id="guide4712" />
    <sodipodi:guide
       orientation="1,0"
       position="501.7187,411.89369"
       id="guide4714" />
    <inkscape:grid
       type="xygrid"
       id="grid3216"
       empspacing="5"
       visible="true"
       enabled="true"
       snapvisiblegridlinesonly="true"
       originx="-20.000111px"
       originy="-216.00016px" />
    <sodipodi:guide
       orientation="-0.70710664,0.70710692"
       position="8.9998902,-243.00016"
       id="guide3847" />
    <sodipodi:guide
       orientation="0.70710594,0.70710762"
       position="9.9998902,-242.00016"
       id="guide3849" />
    <sodipodi:guide
       orientation="-0.70710681,0.70710676"
       position="11.99989,-209.00016"
       id="guide3851" />
  </sodipodi:namedview>
  <defs
     id="defs13096" />
  <metadata
     id="metadata13099">
    <rdf:RDF>
      <cc:Work
         rdf:about="">
        <dc:format>image/svg+xml</dc:format>
        <dc:type
           rdf:resource="http://purl.org/dc/dcmitype/StillImage" />
        <dc:title />
      </cc:Work>
    </rdf:RDF>
  </metadata>
  <g
     transform="translate(9384.3076,-4838.1987)"
     id="layer1"
     inkscape:groupmode="layer"
     inkscape:label="Camada 1">
    <path
       inkscape:connector-curvature="0"
       style="fill:#434a55;fill-opacity:0.6745098;stroke:none"
       d="m -9381.2763,4842.1989 c 0,6.8569 2.2169,12.5458 5.6043,15.9996 1.4083,-0.8291 2.754,-2.3278 3.3975,-3.4643 0.6435,1.1365 1.9542,2.6352 3.3625,3.4643 3.3874,-3.4538 5.6043,-9.1427 5.6043,-15.9996 -3.3626,0 -6.2065,1.6027 -7.8809,5.7141 0.03,-1.1311 -0.5793,-2.2856 -1.0859,-2.2856 -0.5065,0 -1.1511,1.1545 -1.1209,2.2856 -1.6744,-4.1114 -4.5183,-5.7141 -7.8809,-5.7141 z"
       id="path2994" />
    <path
       style="font-size:medium;font-style:normal;font-variant:normal;font-weight:normal;font-stretch:normal;text-indent:0;text-align:start;text-decoration:none;line-height:normal;letter-spacing:normal;word-spacing:normal;text-transform:none;direction:ltr;block-progression:tb;writing-mode:lr-tb;text-anchor:start;baseline-shift:baseline;color:#000000;fill:#d1d4d6;fill-opacity:0.74329164;fill-rule:nonzero;stroke:none;stroke-width:2;marker:none;visibility:visible;display:inline;overflow:visible;enable-background:accumulate;font-family:Sans;-inkscape-font-specification:Sans"
       d="m -9382.3076,4841.1987 0,4.25 c 0.581,5.684 2.6886,10.4405 5.7812,13.5937 l 0.6563,0.6875 0.8125,-0.5 c 1.1127,-0.6551 2.0147,-1.5579 2.7812,-2.5 0.7534,0.9382 1.6356,1.8439 2.75,2.5 l 0.8125,0.5 0.6563,-0.6875 c 3.024,-3.0831 5.1087,-7.7016 5.75,-13.2187 l 0,-4.625 -2.8125,0 c -2.2669,0.4402 -4.3165,1.7142 -5.8438,3.9062 -0.033,-0.036 -0.028,-0.09 -0.062,-0.125 -0.2612,-0.2571 -0.6676,-0.5312 -1.25,-0.5312 -0.5825,0 -0.9555,0.2785 -1.2187,0.5312 -0.051,0.049 -0.08,0.1054 -0.125,0.1563 -1.5277,-2.2037 -3.5752,-3.4925 -5.8438,-3.9375 l -2.8437,0 z m 1.0312,1 c 3.3626,0 6.2006,1.6073 7.875,5.7187 -0.03,-1.1311 0.6185,-2.2812 1.125,-2.2812 0.5066,0 1.1238,1.1501 1.0938,2.2812 1.6744,-4.1114 4.5124,-5.7187 7.875,-5.7187 0,6.8569 -2.2064,12.5462 -5.5938,16 -1.4082,-0.8291 -2.7315,-2.3323 -3.375,-3.4688 -0.6435,1.1365 -1.9979,2.6397 -3.4062,3.4688 -3.3874,-3.4538 -5.5938,-9.1431 -5.5938,-16 z"
       id="path3012"
       inkscape:connector-curvature="0" />
  </g>
</svg>
