<?xml version="1.0" encoding="UTF-8" standalone="no"?>
<!-- Created with Inkscape (http://www.inkscape.org/) -->

<svg
   xmlns:dc="http://purl.org/dc/elements/1.1/"
   xmlns:cc="http://creativecommons.org/ns#"
   xmlns:rdf="http://www.w3.org/1999/02/22-rdf-syntax-ns#"
   xmlns:svg="http://www.w3.org/2000/svg"
   xmlns="http://www.w3.org/2000/svg"
   xmlns:sodipodi="http://sodipodi.sourceforge.net/DTD/sodipodi-0.dtd"
   xmlns:inkscape="http://www.inkscape.org/namespaces/inkscape"
   width="24"
   height="24"
   id="svg13094"
   version="1.1"
   inkscape:version="0.48.3.1 r9886"
   sodipodi:docname="komodo-ide.svg">
  <sodipodi:namedview
     id="base"
     pagecolor="#ffffff"
     bordercolor="#666666"
     borderopacity="1.0"
     inkscape:pageopacity="0.0"
     inkscape:pageshadow="2"
     inkscape:zoom="22.627417"
     inkscape:cx="9.5033285"
     inkscape:cy="13.266262"
     inkscape:document-units="px"
     inkscape:current-layer="layer1"
     showgrid="true"
     inkscape:snap-bbox="true"
     inkscape:bbox-paths="true"
     inkscape:bbox-nodes="true"
     inkscape:snap-bbox-edge-midpoints="true"
     inkscape:snap-bbox-midpoints="true"
     inkscape:object-paths="true"
     inkscape:snap-intersection-paths="true"
     inkscape:object-nodes="true"
     inkscape:snap-smooth-nodes="true"
     inkscape:snap-midpoints="true"
     inkscape:snap-object-midpoints="true"
     inkscape:snap-center="true"
     showguides="false"
     inkscape:guide-bbox="true"
     inkscape:window-width="1920"
     inkscape:window-height="1023"
     inkscape:window-x="-10"
     inkscape:window-y="35"
     inkscape:window-maximized="1"
     inkscape:snap-global="true"
     fit-margin-top="0"
     fit-margin-left="0"
     fit-margin-right="0"
     fit-margin-bottom="0"
     showborder="true"
     inkscape:showpageshadow="false">
    <sodipodi:guide
       orientation="0,1"
       position="-20.000165,933.61275"
       id="guide4700" />
    <sodipodi:guide
       orientation="0,1"
       position="581.7187,331.89377"
       id="guide4702" />
    <sodipodi:guide
       orientation="1,0"
       position="581.71882,492.70384"
       id="guide4706" />
    <sodipodi:guide
       orientation="1,0"
       position="59.999836,933.61275"
       id="guide4708" />
    <sodipodi:guide
       orientation="0,1"
       position="-20.000165,853.61285"
       id="guide4710" />
    <sodipodi:guide
       orientation="0,1"
       position="541.7187,411.89369"
       id="guide4712" />
    <sodipodi:guide
       orientation="1,0"
       position="501.7187,411.89369"
       id="guide4714" />
    <inkscape:grid
       type="xygrid"
       id="grid3216"
       empspacing="5"
       visible="true"
       enabled="true"
       snapvisiblegridlinesonly="true"
       originx="-20.000111px"
       originy="-216.00016px" />
    <sodipodi:guide
       orientation="-0.70710664,0.70710692"
       position="8.9998902,-243.00016"
       id="guide3847" />
    <sodipodi:guide
       orientation="0.70710594,0.70710762"
       position="9.9998902,-242.00016"
       id="guide3849" />
    <sodipodi:guide
       orientation="-0.70710681,0.70710676"
       position="11.99989,-209.00016"
       id="guide3851" />
  </sodipodi:namedview>
  <defs
     id="defs13096" />
  <metadata
     id="metadata13099">
    <rdf:RDF>
      <cc:Work
         rdf:about="">
        <dc:format>image/svg+xml</dc:format>
        <dc:type
           rdf:resource="http://purl.org/dc/dcmitype/StillImage" />
        <dc:title />
      </cc:Work>
    </rdf:RDF>
  </metadata>
  <g
     transform="translate(9384.3076,-4838.1987)"
     id="layer1"
     inkscape:groupmode="layer"
     inkscape:label="Camada 1">
    <path
       inkscape:connector-curvature="0"
       id="path3014"
       d="m -9380.8427,4843.1989 c -0.8954,2.3145 -1.307,4.5033 -1.446,6.8381 1.9575,-1.5429 4.4704,-2.7482 6.985,-2.7894 l -0.9441,4.6561 c 4.8172,1.2594 7.9978,4.0643 11.8959,3.8918 l 2.0439,-1.5882 -0.027,-2.2769 -1.0071,-3.7347 c -3.7749,-4.2009 -7.9178,-4.9914 -17.5001,-4.9968 z m 16.4838,6.0584 c 0.078,1.2944 0.4032,2.3435 0.7001,3.7341 l -1.4882,1.2091 c -6.0608,-1.2003 -9.1611,-1.9657 -7.8668,-6.6804 2.3162,0.4661 5.3716,2.0653 6.7851,3.4094 1.2563,-1.3726 -3.4003,-3.3265 -4.3075,-3.9011 -1.5305,-0.9693 -4.8665,-0.788 -8.8262,-0.8341 l 2.089,-1.9723 c 5.6545,-0.01 9.1815,1.1209 12.2735,4.4608 z m -6.4465,-1.3081 -0.1696,1.6392 2.3934,0.9103 0.6267,-1.1905 c -0.9278,-0.5408 -1.7618,-1.2434 -2.8505,-1.359 z m -11.4618,3.5703 c 0.037,0.7331 0.7923,4.854 1.0112,5.6762 2.2103,-0.063 7.7965,-0.1486 9.8636,-2.258 -0.5033,-0.4579 -1.3498,-0.6987 -2.0455,-0.9435 -2.4406,3.5676 -5.2746,-1.2522 -7.3771,-2.5618 z"
       style="color:#000000;fill:#434a55;fill-opacity:0.6745098;fill-rule:nonzero;stroke:none;stroke-width:2.28571415;marker:none;visibility:visible;display:inline;overflow:visible;enable-background:accumulate"
       sodipodi:nodetypes="cccccccccccccccsccccccccccccccc" />
    <path
       style="font-size:medium;font-style:normal;font-variant:normal;font-weight:normal;font-stretch:normal;text-indent:0;text-align:start;text-decoration:none;line-height:normal;letter-spacing:normal;word-spacing:normal;text-transform:none;direction:ltr;block-progression:tb;writing-mode:lr-tb;text-anchor:start;baseline-shift:baseline;color:#000000;fill:#d1d4d6;fill-opacity:0.74329164;fill-rule:nonzero;stroke:none;stroke-width:2;marker:none;visibility:visible;display:inline;overflow:visible;enable-background:accumulate;font-family:Sans;-inkscape-font-specification:Sans"
       d="M 2.59375 4 L 2.34375 4.59375 C 1.6615682 6.3571747 1.2354066 8.0537496 1 9.78125 L 1 14.375 C 1.0777421 14.949963 1.1629595 15.514522 1.3125 16.34375 C 1.5356 17.58135 1.75675 18.7513 1.90625 19.3125 L 2.09375 20 L 6.96875 20 C 7.3816262 19.956968 7.7948542 19.908125 8.21875 19.84375 C 10.25355 19.53515 12.37515 19.02865 13.78125 17.59375 L 14.03125 17.34375 C 15.90805 18.17065 17.8098 18.9094 20 18.8125 L 20.40625 18.78125 L 20.6875 18.5625 L 22.75 16.96875 L 23 16.78125 L 23 12.96875 L 22.125 9.6875 L 22.0625 9.40625 L 21.875 9.21875 C 19.8667 6.98385 17.61575 5.55585 14.71875 4.78125 C 13.2703 4.3939 11.659875 4.1450125 9.8125 4 L 2.59375 4 z M 3.46875 5 C 13.05105 5.0054 17.19385 5.7991 20.96875 10 L 21.96875 13.71875 L 22 16 L 19.96875 17.59375 C 16.07065 17.76625 12.8797 14.97815 8.0625 13.71875 L 9 9.0625 C 6.4854 9.1037 3.98875 10.30085 2.03125 11.84375 C 2.17025 9.50895 2.57335 7.3145 3.46875 5 z M 7.03125 6.03125 L 4.9375 8 C 8.8972 8.0461 12.25075 7.87445 13.78125 8.84375 C 14.68845 9.41835 19.35005 11.34615 18.09375 12.71875 C 17.62934 12.277142 16.953188 11.822449 16.21875 11.375 L 15.71875 12.3125 L 13.34375 11.375 L 13.46875 10 C 12.720498 9.702356 11.962223 9.4495355 11.28125 9.3125 C 9.98695 14.0272 13.09545 14.7997 19.15625 16 L 20.65625 14.78125 C 20.35935 13.39065 20.0155 12.3569 19.9375 11.0625 L 19.3125 10.46875 C 16.2205 7.12885 12.68575 6.02125 7.03125 6.03125 z M 7.46875 10.625 L 6.875 13.46875 L 6.6875 14.4375 C 5.8882 13.6712 5.117 12.83665 4.125 12.21875 L 3.9375 12.09375 C 5.0562 11.37885 6.23045 10.9058 7.46875 10.625 z M 3.5 13.21875 C 5.6025 14.52835 8.4344 19.34885 10.875 15.78125 C 11.5707 16.02605 12.40295 16.2921 12.90625 16.75 C 10.83915 18.8594 5.2728 18.937 3.0625 19 C 2.8436 18.1778 2.06825 14.0456 2.03125 13.3125 L 3.5 13.21875 z M 6.9375 14.65625 L 7.75 14.875 C 8.3619 15.035 8.83705 15.32525 9.40625 15.53125 C 9.25925 15.63025 9.0462 15.90125 8.9375 15.90625 C 8.7166 15.91625 8.2814 15.7592 7.75 15.375 C 7.5101 15.2016 7.189 14.88945 6.9375 14.65625 z "
       transform="translate(-9384.3076,4838.1987)"
       id="path3087" />
  </g>
</svg>
