<?xml version="1.0" encoding="UTF-8" standalone="no"?>
<!-- Created with Inkscape (http://www.inkscape.org/) -->

<svg
   xmlns:dc="http://purl.org/dc/elements/1.1/"
   xmlns:cc="http://creativecommons.org/ns#"
   xmlns:rdf="http://www.w3.org/1999/02/22-rdf-syntax-ns#"
   xmlns:svg="http://www.w3.org/2000/svg"
   xmlns="http://www.w3.org/2000/svg"
   xmlns:sodipodi="http://sodipodi.sourceforge.net/DTD/sodipodi-0.dtd"
   xmlns:inkscape="http://www.inkscape.org/namespaces/inkscape"
   width="24"
   height="24"
   id="svg13094"
   version="1.1"
   inkscape:version="0.48.3.1 r9886"
   sodipodi:docname="preferences-system.svg">
  <sodipodi:namedview
     id="base"
     pagecolor="#ffffff"
     bordercolor="#666666"
     borderopacity="1.0"
     inkscape:pageopacity="0.0"
     inkscape:pageshadow="2"
     inkscape:zoom="22.627418"
     inkscape:cx="9.4492929"
     inkscape:cy="11.593058"
     inkscape:document-units="px"
     inkscape:current-layer="layer1"
     showgrid="true"
     inkscape:snap-bbox="true"
     inkscape:bbox-paths="true"
     inkscape:bbox-nodes="true"
     inkscape:snap-bbox-edge-midpoints="true"
     inkscape:snap-bbox-midpoints="true"
     inkscape:object-paths="true"
     inkscape:snap-intersection-paths="true"
     inkscape:object-nodes="true"
     inkscape:snap-smooth-nodes="true"
     inkscape:snap-midpoints="true"
     inkscape:snap-object-midpoints="true"
     inkscape:snap-center="true"
     showguides="false"
     inkscape:guide-bbox="true"
     inkscape:window-width="1920"
     inkscape:window-height="1033"
     inkscape:window-x="-10"
     inkscape:window-y="25"
     inkscape:window-maximized="1"
     inkscape:snap-global="true"
     fit-margin-top="0"
     fit-margin-left="0"
     fit-margin-right="0"
     fit-margin-bottom="0"
     showborder="true"
     inkscape:showpageshadow="false">
    <sodipodi:guide
       id="guide16149"
       position="6601.5878,647.00745"
       orientation="0,1" />
    <sodipodi:guide
       id="guide16151"
       position="6374.4449,597.99875"
       orientation="0,1" />
    <sodipodi:guide
       id="guide16153"
       position="6440.1591,622.50305"
       orientation="0,1" />
    <sodipodi:guide
       id="guide17725"
       position="6433.7306,542.35585"
       orientation="0,1" />
    <sodipodi:guide
       id="guide9456"
       position="6931.2289,150.48606"
       orientation="1,0" />
    <sodipodi:guide
       id="guide9458"
       position="6755.4789,515.53501"
       orientation="0,1" />
    <sodipodi:guide
       id="guide9468"
       position="6526.7092,460.6296"
       orientation="0,1" />
    <sodipodi:guide
       id="guide9470"
       position="6551.2289,481.99958"
       orientation="0,1" />
    <sodipodi:guide
       id="guide11159"
       position="6419.2289,196.00006"
       orientation="1,0" />
    <sodipodi:guide
       id="guide13980"
       position="6732.2601,460.03461"
       orientation="1,0" />
    <sodipodi:guide
       orientation="0,1"
       position="4878.229,-914.9999"
       id="guide3972" />
    <sodipodi:guide
       orientation="1,0"
       position="5058.229,-1042.9999"
       id="guide3974" />
    <sodipodi:guide
       orientation="0,1"
       position="4752.229,-1277.9998"
       id="guide3976" />
    <sodipodi:guide
       orientation="1,0"
       position="4725.229,-1136.9999"
       id="guide3978" />
    <sodipodi:guide
       orientation="1,0"
       position="74.999929,328.00006"
       id="guide4287" />
    <sodipodi:guide
       orientation="0,1"
       position="74.999929,328.00006"
       id="guide4289" />
    <inkscape:grid
       type="xygrid"
       id="grid3248"
       empspacing="5"
       visible="true"
       enabled="true"
       snapvisiblegridlinesonly="true"
       originx="9.7771128e-05px"
       originy="11.000061px" />
  </sodipodi:namedview>
  <defs
     id="defs13096" />
  <metadata
     id="metadata13099">
    <rdf:RDF>
      <cc:Work
         rdf:about="">
        <dc:format>image/svg+xml</dc:format>
        <dc:type
           rdf:resource="http://purl.org/dc/dcmitype/StillImage" />
        <dc:title />
      </cc:Work>
    </rdf:RDF>
  </metadata>
  <g
     transform="translate(8065.8735,-494.93235)"
     id="layer1"
     inkscape:groupmode="layer"
     inkscape:label="Camada 1">
    <path
       id="path3017"
       d="m -8054.8735,497.93235 -0.75,0.75 -0.4687,2.28125 c -0.6694,0.24941 -1.3028,0.61599 -1.8438,1.0625 l -0.031,0 -2.1875,-0.71875 -1,0.25 -1,1.75 0.25,1 1.75,1.53125 c -0.062,0.3557 -0.094,0.72042 -0.094,1.09375 0,0.37333 0.032,0.73805 0.094,1.09375 l -1.75,1.5 -0.25,1.03125 1,1.75 1,0.25 2.1875,-0.71875 c 0.5453,0.45346 1.1981,0.81031 1.875,1.0625 l 0.4687,2.28125 0.75,0.75 2,0 0.75,-0.75 0.4688,-2.28125 c 0.6693,-0.24941 1.3027,-0.61599 1.8437,-1.0625 l 2.2188,0.71875 1,-0.25 1,-1.75 -0.25,-1 -1.75,-1.53125 c 0.062,-0.3557 0.094,-0.72042 0.094,-1.09375 0,-0.37333 -0.032,-0.73805 -0.094,-1.09375 l 1.75,-1.53125 0.25,-1 -1,-1.75 -1,-0.25 -2.2188,0.71875 c -0.541,-0.44651 -1.1744,-0.81309 -1.8437,-1.0625 l -0.4688,-2.28125 -0.75,-0.75 -2,0 z m 1,4.875 c 2.2823,0 4.125,1.84273 4.125,4.125 0,2.28227 -1.8427,4.125 -4.125,4.125 -2.2823,0 -4.125,-1.84273 -4.125,-4.125 0,-2.28227 1.8427,-4.125 4.125,-4.125 z m 0,2.03125 c -1.156,0 -2.0937,0.93776 -2.0937,2.09375 0,1.15599 0.9377,2.09375 2.0937,2.09375 1.1561,0 2.0938,-0.93776 2.0938,-2.09375 0,-1.15599 -0.9377,-2.09375 -2.0938,-2.09375 z"
       style="color:#000000;fill:#434a54;fill-opacity:0.6745098;fill-rule:nonzero;stroke:none;stroke-width:2;marker:none;visibility:visible;display:inline;overflow:visible;enable-background:accumulate"
       inkscape:connector-curvature="0" />
    <path
       style="font-size:medium;font-style:normal;font-variant:normal;font-weight:normal;font-stretch:normal;text-indent:0;text-align:start;text-decoration:none;line-height:normal;letter-spacing:normal;word-spacing:normal;text-transform:none;direction:ltr;block-progression:tb;writing-mode:lr-tb;text-anchor:start;baseline-shift:baseline;color:#000000;fill:#d1d4d6;fill-opacity:0.74329164;fill-rule:nonzero;stroke:none;stroke-width:2;marker:none;visibility:visible;display:inline;overflow:visible;enable-background:accumulate;font-family:Sans;-inkscape-font-specification:Sans"
       d="m -8055.561,496.93235 -0.1562,0.15625 -0.75,0.75 -0.25,0.25 -0.094,0.34375 -0.375,1.78125 c -0.3169,0.15722 -0.6159,0.33309 -0.9062,0.53125 l -1.6875,-0.5625 -0.3438,-0.125 -0.3125,0.0937 -1,0.25 -0.5,0.125 -0.25,0.4375 -1,1.75 -0.25,0.40625 0.125,0.46875 0.25,1 0.094,0.375 0.2812,0.25 1.2813,1.125 c -0.015,0.19611 -0.031,0.39403 -0.031,0.59375 0,0.19972 0.016,0.39763 0.031,0.59375 l -1.2813,1.09375 -0.2812,0.25 -0.094,0.375 -0.25,1.03125 -0.125,0.46875 0.25,0.40625 1,1.75 0.25,0.4375 0.5,0.125 1,0.25 0.3125,0.0937 0.3438,-0.125 1.6875,-0.5625 c 0.2933,0.19441 0.593,0.38071 0.9062,0.53125 l 0.375,1.78125 0.094,0.34375 0.25,0.25 0.75,0.75 0.1562,0.15625 3.375,0 0.1563,-0.15625 0.75,-0.75 0.25,-0.25 0.094,-0.34375 0.375,-1.78125 c 0.2959,-0.14678 0.5708,-0.31742 0.8438,-0.5 l 1.75,0.5625 0.3437,0.0937 0.3125,-0.0937 1,-0.25 0.5,-0.125 0.25,-0.4375 1,-1.75 0.25,-0.40625 -0.125,-0.46875 -0.25,-1 -0.094,-0.375 -0.2813,-0.25 -1.2812,-1.125 c 0.015,-0.19612 0.031,-0.39403 0.031,-0.59375 0,-0.19972 -0.016,-0.39764 -0.031,-0.59375 l 1.2812,-1.125 0.2813,-0.25 0.094,-0.375 0.25,-1 0.125,-0.46875 -0.25,-0.40625 -1,-1.75 -0.25,-0.4375 -0.5,-0.125 -1,-0.25 -0.3125,-0.0937 -0.3437,0.0937 -1.75,0.5625 c -0.273,-0.18258 -0.5479,-0.35322 -0.8438,-0.5 l -0.375,-1.78125 -0.094,-0.34375 -0.25,-0.25 -0.75,-0.75 -0.1563,-0.15625 z m 0.6875,1 2,0 0.75,0.75 0.4688,2.28125 c 0.6693,0.24941 1.3027,0.61599 1.8437,1.0625 l 2.2188,-0.71875 1,0.25 1,1.75 -0.25,1 -1.75,1.53125 c 0.062,0.3557 0.094,0.72042 0.094,1.09375 0,0.37333 -0.032,0.73805 -0.094,1.09375 l 1.75,1.53125 0.25,1 -1,1.75 -1,0.25 -2.2188,-0.71875 c -0.541,0.44651 -1.1744,0.81309 -1.8437,1.0625 l -0.4688,2.28125 -0.75,0.75 -2,0 -0.75,-0.75 -0.4687,-2.28125 c -0.6769,-0.25219 -1.3297,-0.60904 -1.875,-1.0625 l -2.1875,0.71875 -1,-0.25 -1,-1.75 0.25,-1.03125 1.75,-1.5 c -0.062,-0.3557 -0.094,-0.72042 -0.094,-1.09375 0,-0.37333 0.032,-0.73805 0.094,-1.09375 l -1.75,-1.53125 -0.25,-1 1,-1.75 1,-0.25 2.1875,0.71875 0.031,0 c 0.541,-0.44651 1.1744,-0.81309 1.8438,-1.0625 l 0.4687,-2.28125 z m 1,5.79688 c -1.7722,0 -3.2031,1.4309 -3.2031,3.20312 0,1.77222 1.4309,3.20313 3.2031,3.20313 1.7722,0 3.2031,-1.43091 3.2031,-3.20313 0,-1.77222 -1.4309,-3.20312 -3.2031,-3.20312 z m 0,1.11339 c 1.1539,0 2.0897,0.93596 2.0897,2.08973 0,1.15377 -0.9358,2.08973 -2.0897,2.08973 -1.1538,0 -2.0897,-0.93596 -2.0897,-2.08973 0,-1.15377 0.9359,-2.08973 2.0897,-2.08973 z"
       id="path3001"
       inkscape:connector-curvature="0"
       sodipodi:nodetypes="ccccccccccccccccccccsccccccccccccccccccccccccccccccccccccccccscccccccccccccccccccccccccccccccsccccccccccccccccccsccccccccccssssssssss" />
  </g>
</svg>
