<?xml version="1.0" encoding="UTF-8" standalone="no"?>
<!-- Created with Inkscape (http://www.inkscape.org/) -->

<svg
   xmlns:dc="http://purl.org/dc/elements/1.1/"
   xmlns:cc="http://creativecommons.org/ns#"
   xmlns:rdf="http://www.w3.org/1999/02/22-rdf-syntax-ns#"
   xmlns:svg="http://www.w3.org/2000/svg"
   xmlns="http://www.w3.org/2000/svg"
   xmlns:xlink="http://www.w3.org/1999/xlink"
   xmlns:sodipodi="http://sodipodi.sourceforge.net/DTD/sodipodi-0.dtd"
   xmlns:inkscape="http://www.inkscape.org/namespaces/inkscape"
   width="64"
   height="64"
   id="svg13094"
   version="1.1"
   inkscape:version="0.48.3.1 r9886"
   sodipodi:docname="applications-games.svg">
  <sodipodi:namedview
     id="base"
     pagecolor="#ffffff"
     bordercolor="#666666"
     borderopacity="1.0"
     inkscape:pageopacity="0"
     inkscape:pageshadow="2"
     inkscape:zoom="11.313709"
     inkscape:cx="32.344325"
     inkscape:cy="30.273772"
     inkscape:document-units="px"
     inkscape:current-layer="svg13094"
     showgrid="true"
     inkscape:snap-bbox="true"
     inkscape:bbox-paths="true"
     inkscape:bbox-nodes="true"
     inkscape:snap-bbox-edge-midpoints="true"
     inkscape:snap-bbox-midpoints="true"
     inkscape:object-paths="true"
     inkscape:snap-intersection-paths="true"
     inkscape:object-nodes="true"
     inkscape:snap-smooth-nodes="true"
     inkscape:snap-midpoints="true"
     inkscape:snap-object-midpoints="true"
     inkscape:snap-center="true"
     showguides="false"
     inkscape:guide-bbox="true"
     inkscape:window-width="1920"
     inkscape:window-height="1023"
     inkscape:window-x="-10"
     inkscape:window-y="35"
     inkscape:window-maximized="1"
     inkscape:snap-global="true"
     fit-margin-top="0"
     fit-margin-left="0"
     fit-margin-right="0"
     fit-margin-bottom="0"
     showborder="true"
     inkscape:showpageshadow="false"
     inkscape:snap-page="true">
    <inkscape:grid
       type="xygrid"
       id="grid3075"
       empspacing="5"
       visible="true"
       enabled="true"
       snapvisiblegridlinesonly="true"
       originx="1.6362304e-08px"
       originy="18px" />
    <sodipodi:guide
       orientation="0,1"
       position="-11,30"
       id="guide9148" />
    <sodipodi:guide
       orientation="1,0"
       position="32,70"
       id="guide9150" />
  </sodipodi:namedview>
  <defs
     id="defs13096">
    <linearGradient
       id="linearGradient4209">
      <stop
         style="stop-color:#858585;stop-opacity:1"
         offset="0"
         id="stop4211" />
      <stop
         style="stop-color:#484848;stop-opacity:1;"
         offset="1"
         id="stop4213" />
    </linearGradient>
    <linearGradient
       id="linearGradient4186">
      <stop
         style="stop-color:#3a3a3a;stop-opacity:1;"
         offset="0"
         id="stop4188" />
      <stop
         style="stop-color:#868686;stop-opacity:1;"
         offset="1"
         id="stop4190" />
    </linearGradient>
    <linearGradient
       id="linearGradient4178">
      <stop
         id="stop4180"
         offset="0"
         style="stop-color:#97722f;stop-opacity:1;" />
      <stop
         id="stop4182"
         offset="1"
         style="stop-color:#bfa22e;stop-opacity:1;" />
    </linearGradient>
    <linearGradient
       id="linearGradient4172">
      <stop
         id="stop4174"
         offset="0"
         style="stop-color:#567a2f;stop-opacity:1;" />
      <stop
         id="stop4176"
         offset="1"
         style="stop-color:#6ca330;stop-opacity:1;" />
    </linearGradient>
    <linearGradient
       id="linearGradient4166">
      <stop
         id="stop4168"
         offset="0"
         style="stop-color:#336490;stop-opacity:1;" />
      <stop
         id="stop4170"
         offset="1"
         style="stop-color:#3589ce;stop-opacity:1;" />
    </linearGradient>
    <linearGradient
       id="linearGradient3862">
      <stop
         style="stop-color:#ac4646;stop-opacity:1;"
         offset="0"
         id="stop3864" />
      <stop
         style="stop-color:#c45d4d;stop-opacity:1;"
         offset="1"
         id="stop3866" />
    </linearGradient>
    <linearGradient
       id="linearGradient3094">
      <stop
         offset="0"
         style="stop-color:#c9cac2;stop-opacity:1;"
         id="stop3096" />
      <stop
         offset="1"
         style="stop-color:#b3b5a6;stop-opacity:1;"
         id="stop3104" />
    </linearGradient>
    <radialGradient
       inkscape:collect="always"
       xlink:href="#linearGradient3094"
       id="radialGradient3886"
       cx="30.739782"
       cy="17.037395"
       fx="30.739782"
       fy="17.037395"
       r="32"
       gradientTransform="matrix(6.8856667e-8,1.5625001,-1.4375,6.3348129e-8,57.491254,-34.030912)"
       gradientUnits="userSpaceOnUse" />
    <linearGradient
       inkscape:collect="always"
       xlink:href="#linearGradient3862"
       id="linearGradient4122"
       gradientUnits="userSpaceOnUse"
       x1="37"
       y1="45"
       x2="29.999237"
       y2="37.999237" />
    <linearGradient
       inkscape:collect="always"
       xlink:href="#linearGradient3862"
       id="linearGradient4128"
       gradientUnits="userSpaceOnUse"
       x1="30.25"
       y1="37.25"
       x2="37.535534"
       y2="44.535534" />
    <linearGradient
       inkscape:collect="always"
       xlink:href="#linearGradient4166"
       id="linearGradient4138"
       gradientUnits="userSpaceOnUse"
       x1="37"
       y1="45"
       x2="29.999237"
       y2="37.999237" />
    <linearGradient
       inkscape:collect="always"
       xlink:href="#linearGradient4166"
       id="linearGradient4140"
       gradientUnits="userSpaceOnUse"
       x1="30.25"
       y1="37.25"
       x2="37.535534"
       y2="44.535534" />
    <linearGradient
       inkscape:collect="always"
       xlink:href="#linearGradient4178"
       id="linearGradient4150"
       gradientUnits="userSpaceOnUse"
       x1="37"
       y1="45"
       x2="29.999237"
       y2="37.999237" />
    <linearGradient
       inkscape:collect="always"
       xlink:href="#linearGradient4178"
       id="linearGradient4152"
       gradientUnits="userSpaceOnUse"
       x1="30.25"
       y1="37.25"
       x2="37.535534"
       y2="44.535534" />
    <linearGradient
       inkscape:collect="always"
       xlink:href="#linearGradient4172"
       id="linearGradient4162"
       gradientUnits="userSpaceOnUse"
       x1="37"
       y1="45"
       x2="29.999237"
       y2="37.999237" />
    <linearGradient
       inkscape:collect="always"
       xlink:href="#linearGradient4172"
       id="linearGradient4164"
       gradientUnits="userSpaceOnUse"
       x1="30.25"
       y1="37.25"
       x2="37.535534"
       y2="44.535534" />
    <linearGradient
       inkscape:collect="always"
       xlink:href="#linearGradient4186"
       id="linearGradient4192"
       x1="19"
       y1="22"
       x2="21.414213"
       y2="24.414213"
       gradientUnits="userSpaceOnUse" />
    <radialGradient
       inkscape:collect="always"
       xlink:href="#linearGradient4209"
       id="radialGradient4270"
       gradientUnits="userSpaceOnUse"
       gradientTransform="matrix(1.8333333,4.9999999e-8,0,0.33333331,-36.833333,2.999998)"
       cx="47.363636"
       cy="18"
       fx="47.363636"
       fy="18"
       r="6" />
    <linearGradient
       id="linearGradient3094-9">
      <stop
         offset="0"
         style="stop-color:#d1d5b7;stop-opacity:1;"
         id="stop3096-3" />
      <stop
         offset="1"
         style="stop-color:#b9bd9e;stop-opacity:1;"
         id="stop3104-4" />
    </linearGradient>
    <radialGradient
       r="32"
       fy="17.037395"
       fx="30.739782"
       cy="17.037395"
       cx="30.739782"
       gradientTransform="matrix(6.8856667e-8,1.5625001,-1.4375,6.3348129e-8,57.491254,-34.030912)"
       gradientUnits="userSpaceOnUse"
       id="radialGradient3036"
       xlink:href="#linearGradient3094-9"
       inkscape:collect="always" />
  </defs>
  <metadata
     id="metadata13099">
    <rdf:RDF>
      <cc:Work
         rdf:about="">
        <dc:format>image/svg+xml</dc:format>
        <dc:type
           rdf:resource="http://purl.org/dc/dcmitype/StillImage" />
        <dc:title />
      </cc:Work>
    </rdf:RDF>
  </metadata>
  <path
     id="path6538"
     d="m 0,4 0,30 0,28 2,2 30,0 30,0 2,-2 L 64,34 64,4 32,4 0,4 z"
     style="color:#000000;fill:url(#radialGradient3036);fill-opacity:1;fill-rule:nonzero;stroke:none;stroke-width:2.28571415;marker:none;visibility:visible;display:inline;overflow:visible;enable-background:accumulate"
     inkscape:connector-curvature="0" />
  <path
     inkscape:connector-curvature="0"
     style="color:#000000;fill:#f7f7e0;fill-opacity:1;fill-rule:nonzero;stroke:none;marker:none;visibility:visible;display:inline;overflow:visible;enable-background:accumulate"
     d="M 2,0 0,1 0,4 19.5625,4 39.125,4 64,4 64,1 62,0 39.125,0 19.5625,0 2,0 z"
     id="path6688" />
  <g
     id="g3043"
     inkscape:export-filename="folder.png"
     inkscape:export-xdpi="90"
     inkscape:export-ydpi="90"
     transform="translate(-0.62500009,0.082283)" />
  <g
     id="scalable"
     transform="matrix(1.0385892,0,0,1.0385892,1214.7222,1878.8121)"
     inkscape:label="#g3701"
     style="fill:#ffffff" />
  <path
     inkscape:connector-curvature="0"
     style="fill:#000000;fill-opacity:0.10215053;fill-rule:nonzero"
     d="M 63,0.5 63,34 63,63 64,62 64,34 64,1 63,0.5 z m 0,62.5 -31,0 -31,0 1,1 30,0 30,0 1,-1 z"
     id="path4366" />
  <path
     inkscape:connector-curvature="0"
     style="fill:#ffffff;fill-opacity:0.49551972;fill-rule:nonzero"
     d="M 0,1 0,34 0,62 1,63 1,34 1,5 2,4 1,3.46875 1,1 0,1 z"
     id="path3864" />
  <path
     d="M 64,6 62,4 64,3 z"
     id="path3028"
     style="fill:#000000;fill-opacity:0.10215053"
     inkscape:connector-curvature="0" />
  <path
     inkscape:connector-curvature="0"
     style="fill:#ffffff;fill-opacity:0.45430112;fill-rule:nonzero"
     d="M 0,3 0,6 2,4 32,4 62,4 64,3 32,3 0,3 z"
     id="path4298" />
  <path
     inkscape:connector-curvature="0"
     style="fill:#000000;fill-opacity:0.10215053;fill-rule:nonzero"
     d="M 2,0 0,1 32,1 64,1 62,0 32,0 2,0 z"
     id="path4444" />
  <g
     id="g3057">
    <g
       transform="translate(3,-2)"
       id="g3822">
      <rect
         inkscape:transform-center-x="-1.0606601"
         transform="matrix(0.70710678,-0.70710678,0.70710678,0.70710678,0,0)"
         inkscape:transform-center-y="1.0606601"
         ry="5"
         rx="5"
         y="48.033009"
         x="-1.4644661"
         height="13"
         width="10"
         id="rect3858"
         style="color:#000000;fill:#4d4d4d;fill-opacity:0.30824376;fill-rule:nonzero;stroke:none;stroke-width:2.5;marker:none;visibility:visible;display:inline;overflow:visible;enable-background:accumulate" />
      <path
         transform="translate(6,-6)"
         sodipodi:type="arc"
         style="color:#000000;fill:url(#linearGradient4122);fill-opacity:1;fill-rule:nonzero;stroke:none;stroke-width:2.5;marker:none;visibility:visible;display:inline;overflow:visible;enable-background:accumulate"
         id="path3854"
         sodipodi:cx="34"
         sodipodi:cy="41"
         sodipodi:rx="5"
         sodipodi:ry="5"
         d="m 39,41 c 0,2.761424 -2.238576,5 -5,5 -2.761424,0 -5,-2.238576 -5,-5 0,-2.761424 2.238576,-5 5,-5 2.761424,0 5,2.238576 5,5 z" />
      <path
         transform="matrix(0.8,0,0,0.8,12.8,2.1999999)"
         sodipodi:type="arc"
         style="color:#000000;fill:url(#linearGradient4128);fill-opacity:1;fill-rule:nonzero;stroke:none;stroke-width:2.5;marker:none;visibility:visible;display:inline;overflow:visible;enable-background:accumulate"
         id="path3778"
         sodipodi:cx="34"
         sodipodi:cy="41"
         sodipodi:rx="5"
         sodipodi:ry="5"
         d="m 39,41 c 0,2.761424 -2.238576,5 -5,5 -2.761424,0 -5,-2.238576 -5,-5 0,-2.761424 2.238576,-5 5,-5 2.761424,0 5,2.238576 5,5 z" />
    </g>
    <path
       d="M 33,23 A 13,13 0 1 1 7,23 13,13 0 1 1 33,23 z"
       sodipodi:ry="13"
       sodipodi:rx="13"
       sodipodi:cy="23"
       sodipodi:cx="20"
       id="path3794"
       style="color:#000000;fill:#4d4d4d;fill-opacity:0.14426527;fill-rule:nonzero;stroke:none;stroke-width:2.5;marker:none;visibility:visible;display:inline;overflow:visible;enable-background:accumulate"
       sodipodi:type="arc" />
    <path
       inkscape:connector-curvature="0"
       id="path3789"
       d="M 20,10 C 12.820298,10 7,15.820298 7,23 7,26.846514 8.6885612,30.276075 11.34375,32.65625 9.2812144,30.355402 8,27.333188 8,24 8,16.820298 13.820298,11 21,11 c 3.333188,0 6.355402,1.281214 8.65625,3.34375 C 27.276075,11.688561 23.846514,10 20,10 z"
       style="color:#000000;fill:#4d4d4d;fill-opacity:0.14426527;fill-rule:nonzero;stroke:none;stroke-width:2.5;marker:none;visibility:visible;display:inline;overflow:visible;enable-background:accumulate" />
    <path
       id="path3786"
       d="M 29.65625 14.34375 C 31.718786 16.644598 33 19.666812 33 23 C 33 30.179702 27.179702 36 20 36 C 16.666812 36 13.644598 34.718786 11.34375 32.65625 C 13.723925 35.311439 17.153486 37 21 37 C 28.179702 37 34 31.179702 34 24 C 34 20.153486 32.311439 16.723925 29.65625 14.34375 z "
       style="color:#000000;fill:#ffffff;fill-opacity:0.22491039;fill-rule:nonzero;stroke:none;stroke-width:2.50000000000000000;marker:none;visibility:visible;display:inline;overflow:visible;enable-background:accumulate" />
    <path
       sodipodi:nodetypes="ccccccccccccccc"
       inkscape:connector-curvature="0"
       style="color:#000000;fill:#4d4d4d;fill-opacity:0.30824376;fill-rule:nonzero;stroke:none;stroke-width:2.5;marker:none;visibility:visible;display:inline;overflow:visible;enable-background:accumulate"
       d="m 23,12 -4,10 -10,4 2,2 8,0 -2,6 2,2 6,0 0,-8 8,0 0,-6 -2,-2 -6,2 0,-8 z"
       id="path3801" />
    <path
       inkscape:connector-curvature="0"
       style="color:#000000;fill:#585858;fill-opacity:1;fill-rule:nonzero;stroke:none;stroke-width:2.50000000000000000;marker:none;visibility:visible;display:inline;overflow:visible;enable-background:accumulate"
       d="m 17,12 0,8 -8,0 0,6 8,0 0,8 6,0 0,-8 8,0 0,-6 -8,0 0,-8 -6,0 z"
       id="path3799" />
    <g
       transform="translate(-6,10)"
       id="use3828">
      <rect
         style="color:#000000;fill:#4d4d4d;fill-opacity:0.30824376;fill-rule:nonzero;stroke:none;stroke-width:2.5;marker:none;visibility:visible;display:inline;overflow:visible;enable-background:accumulate"
         id="rect4132"
         width="10"
         height="13"
         x="-1.4644661"
         y="48.033009"
         rx="5"
         ry="5"
         inkscape:transform-center-y="1.0606601"
         transform="matrix(0.70710678,-0.70710678,0.70710678,0.70710678,0,0)"
         inkscape:transform-center-x="-1.0606601" />
      <path
         d="m 39,41 c 0,2.761424 -2.238576,5 -5,5 -2.761424,0 -5,-2.238576 -5,-5 0,-2.761424 2.238576,-5 5,-5 2.761424,0 5,2.238576 5,5 z"
         sodipodi:ry="5"
         sodipodi:rx="5"
         sodipodi:cy="41"
         sodipodi:cx="34"
         id="path4134"
         style="color:#000000;fill:url(#linearGradient4138);fill-opacity:1;fill-rule:nonzero;stroke:none;stroke-width:2.5;marker:none;visibility:visible;display:inline;overflow:visible;enable-background:accumulate"
         sodipodi:type="arc"
         transform="translate(6,-6)" />
      <path
         d="m 39,41 c 0,2.761424 -2.238576,5 -5,5 -2.761424,0 -5,-2.238576 -5,-5 0,-2.761424 2.238576,-5 5,-5 2.761424,0 5,2.238576 5,5 z"
         sodipodi:ry="5"
         sodipodi:rx="5"
         sodipodi:cy="41"
         sodipodi:cx="34"
         id="path4136"
         style="color:#000000;fill:url(#linearGradient4140);fill-opacity:1;fill-rule:nonzero;stroke:none;stroke-width:2.5;marker:none;visibility:visible;display:inline;overflow:visible;enable-background:accumulate"
         sodipodi:type="arc"
         transform="matrix(0.8,0,0,0.8,12.8,2.1999999)" />
    </g>
    <g
       transform="translate(6,19)"
       id="use3830">
      <rect
         style="color:#000000;fill:#4d4d4d;fill-opacity:0.30824376;fill-rule:nonzero;stroke:none;stroke-width:2.5;marker:none;visibility:visible;display:inline;overflow:visible;enable-background:accumulate"
         id="rect4156"
         width="10"
         height="13"
         x="-1.4644661"
         y="48.033009"
         rx="5"
         ry="5"
         inkscape:transform-center-y="1.0606601"
         transform="matrix(0.70710678,-0.70710678,0.70710678,0.70710678,0,0)"
         inkscape:transform-center-x="-1.0606601" />
      <path
         d="m 39,41 c 0,2.761424 -2.238576,5 -5,5 -2.761424,0 -5,-2.238576 -5,-5 0,-2.761424 2.238576,-5 5,-5 2.761424,0 5,2.238576 5,5 z"
         sodipodi:ry="5"
         sodipodi:rx="5"
         sodipodi:cy="41"
         sodipodi:cx="34"
         id="path4158"
         style="color:#000000;fill:url(#linearGradient4162);fill-opacity:1;fill-rule:nonzero;stroke:none;stroke-width:2.5;marker:none;visibility:visible;display:inline;overflow:visible;enable-background:accumulate"
         sodipodi:type="arc"
         transform="translate(6,-6)" />
      <path
         d="m 39,41 c 0,2.761424 -2.238576,5 -5,5 -2.761424,0 -5,-2.238576 -5,-5 0,-2.761424 2.238576,-5 5,-5 2.761424,0 5,2.238576 5,5 z"
         sodipodi:ry="5"
         sodipodi:rx="5"
         sodipodi:cy="41"
         sodipodi:cx="34"
         id="path4160"
         style="color:#000000;fill:url(#linearGradient4164);fill-opacity:1;fill-rule:nonzero;stroke:none;stroke-width:2.5;marker:none;visibility:visible;display:inline;overflow:visible;enable-background:accumulate"
         sodipodi:type="arc"
         transform="matrix(0.8,0,0,0.8,12.8,2.1999999)" />
    </g>
    <g
       transform="translate(15,7)"
       id="use3826">
      <rect
         style="color:#000000;fill:#4d4d4d;fill-opacity:0.30824376;fill-rule:nonzero;stroke:none;stroke-width:2.5;marker:none;visibility:visible;display:inline;overflow:visible;enable-background:accumulate"
         id="rect4144"
         width="10"
         height="13"
         x="-1.4644661"
         y="48.033009"
         rx="5"
         ry="5"
         inkscape:transform-center-y="1.0606601"
         transform="matrix(0.70710678,-0.70710678,0.70710678,0.70710678,0,0)"
         inkscape:transform-center-x="-1.0606601" />
      <path
         d="m 39,41 c 0,2.761424 -2.238576,5 -5,5 -2.761424,0 -5,-2.238576 -5,-5 0,-2.761424 2.238576,-5 5,-5 2.761424,0 5,2.238576 5,5 z"
         sodipodi:ry="5"
         sodipodi:rx="5"
         sodipodi:cy="41"
         sodipodi:cx="34"
         id="path4146"
         style="color:#000000;fill:url(#linearGradient4150);fill-opacity:1;fill-rule:nonzero;stroke:none;stroke-width:2.5;marker:none;visibility:visible;display:inline;overflow:visible;enable-background:accumulate"
         sodipodi:type="arc"
         transform="translate(6,-6)" />
      <path
         d="m 39,41 c 0,2.761424 -2.238576,5 -5,5 -2.761424,0 -5,-2.238576 -5,-5 0,-2.761424 2.238576,-5 5,-5 2.761424,0 5,2.238576 5,5 z"
         sodipodi:ry="5"
         sodipodi:rx="5"
         sodipodi:cy="41"
         sodipodi:cx="34"
         id="path4148"
         style="color:#000000;fill:url(#linearGradient4152);fill-opacity:1;fill-rule:nonzero;stroke:none;stroke-width:2.5;marker:none;visibility:visible;display:inline;overflow:visible;enable-background:accumulate"
         sodipodi:type="arc"
         transform="matrix(0.8,0,0,0.8,12.8,2.1999999)" />
    </g>
    <path
       d="m 22,23 a 2,2 0 1 1 -4,0 2,2 0 1 1 4,0 z"
       sodipodi:ry="2"
       sodipodi:rx="2"
       sodipodi:cy="23"
       sodipodi:cx="20"
       id="path4184"
       style="color:#000000;fill:url(#linearGradient4192);fill-opacity:1;fill-rule:nonzero;stroke:none;stroke-width:2.50000000000000000;marker:none;visibility:visible;display:inline;overflow:visible;enable-background:accumulate"
       sodipodi:type="arc" />
    <rect
       ry="2"
       rx="2"
       y="9"
       x="48"
       height="4"
       width="12"
       id="rect4266"
       style="color:#000000;fill:#4d4d4d;fill-opacity:0.30824376;fill-rule:nonzero;stroke:none;stroke-width:2.5;marker:none;visibility:visible;display:inline;overflow:visible;enable-background:accumulate" />
    <rect
       style="color:#000000;fill:url(#radialGradient4270);fill-opacity:1;fill-rule:nonzero;stroke:none;stroke-width:2.5;marker:none;visibility:visible;display:inline;overflow:visible;enable-background:accumulate"
       id="rect4268"
       width="12"
       height="4"
       x="47"
       y="8"
       rx="2"
       ry="2" />
    <text
       sodipodi:linespacing="125%"
       id="text4272"
       y="15.233887"
       x="49.665283"
       style="font-size:3px;font-style:normal;font-variant:normal;font-weight:normal;font-stretch:normal;line-height:125%;letter-spacing:0px;word-spacing:0px;fill:#636363;fill-opacity:1;stroke:none;font-family:Oxygen;-inkscape-font-specification:Oxygen"
       xml:space="preserve"><tspan
         y="15.233887"
         x="49.665283"
         id="tspan4274"
         sodipodi:role="line">Start</tspan></text>
    <path
       inkscape:connector-curvature="0"
       id="path3078"
       d="m 14.625,45 0,4.375 4.375,0 0,-4.375 -4.375,0 z m -8.7499998,0.875001 0,2.624999 2.6249998,0 0,-2.624999 -2.6249998,0 z m 4.3749988,0 0,3.499999 3.500002,0 0,-3.499999 -3.500002,0 z m -4.3749988,4.374998 0,3.500002 3.4999998,0 0,-3.500002 -3.4999998,0 z m 4.3749988,0 0,3.500002 3.500002,0 0,-3.500002 -3.500002,0 z m 4.375001,0 0,3.500002 3.499999,0 0,-3.500002 -3.499999,0 z M 5.0000001,54.625 l 0,4.375 4.3749999,0 0,-4.375 -4.3749999,0 z m 5.2499989,0 0,3.499999 3.500002,0 0,-3.499999 -3.500002,0 z M 15.5,55.5 l 0,2.624999 2.624999,0 0,-2.624999 -2.624999,0 z"
       style="color:#000000;fill:#4d4d4d;fill-opacity:0.30824376;fill-rule:nonzero;stroke:none;stroke-width:2.5;marker:none;visibility:visible;display:inline;overflow:visible;enable-background:accumulate" />
  </g>
</svg>
