<?xml version="1.0" encoding="UTF-8" standalone="no"?>
<!-- Created with Inkscape (http://www.inkscape.org/) -->

<svg
   xmlns:dc="http://purl.org/dc/elements/1.1/"
   xmlns:cc="http://creativecommons.org/ns#"
   xmlns:rdf="http://www.w3.org/1999/02/22-rdf-syntax-ns#"
   xmlns:svg="http://www.w3.org/2000/svg"
   xmlns="http://www.w3.org/2000/svg"
   xmlns:xlink="http://www.w3.org/1999/xlink"
   xmlns:sodipodi="http://sodipodi.sourceforge.net/DTD/sodipodi-0.dtd"
   xmlns:inkscape="http://www.inkscape.org/namespaces/inkscape"
   width="64"
   height="64"
   id="svg13094"
   version="1.1"
   inkscape:version="0.48.3.1 r9886"
   sodipodi:docname="applications-system.svg">
  <sodipodi:namedview
     id="base"
     pagecolor="#ffffff"
     bordercolor="#666666"
     borderopacity="1.0"
     inkscape:pageopacity="0"
     inkscape:pageshadow="2"
     inkscape:zoom="11.313709"
     inkscape:cx="23.420965"
     inkscape:cy="29.307908"
     inkscape:document-units="px"
     inkscape:current-layer="svg13094"
     showgrid="true"
     inkscape:snap-bbox="true"
     inkscape:bbox-paths="true"
     inkscape:bbox-nodes="true"
     inkscape:snap-bbox-edge-midpoints="true"
     inkscape:snap-bbox-midpoints="true"
     inkscape:object-paths="true"
     inkscape:snap-intersection-paths="true"
     inkscape:object-nodes="true"
     inkscape:snap-smooth-nodes="true"
     inkscape:snap-midpoints="true"
     inkscape:snap-object-midpoints="true"
     inkscape:snap-center="true"
     showguides="true"
     inkscape:guide-bbox="true"
     inkscape:window-width="1920"
     inkscape:window-height="1023"
     inkscape:window-x="-10"
     inkscape:window-y="35"
     inkscape:window-maximized="1"
     inkscape:snap-global="true"
     fit-margin-top="0"
     fit-margin-left="0"
     fit-margin-right="0"
     fit-margin-bottom="0"
     showborder="true"
     inkscape:showpageshadow="false"
     inkscape:snap-page="true">
    <inkscape:grid
       type="xygrid"
       id="grid3075"
       empspacing="5"
       visible="true"
       enabled="true"
       snapvisiblegridlinesonly="true"
       originx="1.6362304e-08px"
       originy="18px" />
  </sodipodi:namedview>
  <defs
     id="defs13096">
    <linearGradient
       inkscape:collect="always"
       id="linearGradient3882">
      <stop
         style="stop-color:#74b68c;stop-opacity:1"
         offset="0"
         id="stop3884" />
      <stop
         id="stop3890"
         offset="0.46386716"
         style="stop-color:#76abca;stop-opacity:1" />
      <stop
         style="stop-color:#8e79af;stop-opacity:1"
         offset="1"
         id="stop3886" />
    </linearGradient>
    <linearGradient
       id="linearGradient3991">
      <stop
         id="stop3993"
         offset="0"
         style="stop-color:#7ad931;stop-opacity:0.18681319;" />
      <stop
         style="stop-color:#0cff1b;stop-opacity:0.07304461;"
         offset="0.5593738"
         id="stop3995" />
      <stop
         id="stop3997"
         offset="1"
         style="stop-color:#20ff8c;stop-opacity:0;" />
    </linearGradient>
    <linearGradient
       id="linearGradient3957">
      <stop
         style="stop-color:#cf5073;stop-opacity:0.1040724;"
         offset="0"
         id="stop3959" />
      <stop
         id="stop3965"
         offset="0.5593738"
         style="stop-color:#ff22cd;stop-opacity:0.06399483;" />
      <stop
         style="stop-color:#a81bff;stop-opacity:0;"
         offset="1"
         id="stop3961" />
    </linearGradient>
    <linearGradient
       id="linearGradient5602">
      <stop
         id="stop5604"
         style="stop-color:#5d7290;stop-opacity:1;"
         offset="0" />
      <stop
         id="stop5606"
         style="stop-color:#424a55;stop-opacity:1;"
         offset="1" />
    </linearGradient>
    <radialGradient
       inkscape:collect="always"
       xlink:href="#linearGradient3991"
       id="radialGradient4097"
       gradientUnits="userSpaceOnUse"
       gradientTransform="matrix(0,1.4389535,-1.375,0,52.305555,-27.813954)"
       cx="28.363636"
       cy="28.585857"
       fx="28.363636"
       fy="28.585857"
       r="32" />
    <radialGradient
       inkscape:collect="always"
       xlink:href="#linearGradient5602"
       id="radialGradient3876"
       gradientUnits="userSpaceOnUse"
       gradientTransform="matrix(0,1.40625,-1.125,0,52.25,-26)"
       cx="32"
       cy="18"
       fx="32"
       fy="18"
       r="32" />
    <radialGradient
       inkscape:collect="always"
       xlink:href="#linearGradient3957"
       id="radialGradient3880"
       gradientUnits="userSpaceOnUse"
       gradientTransform="matrix(0,1.4389535,-1.375,0,52.305555,-27.813954)"
       cx="58.246464"
       cy="-0.5050509"
       fx="58.246464"
       fy="-0.5050509"
       r="32" />
    <linearGradient
       inkscape:collect="always"
       xlink:href="#linearGradient3882"
       id="linearGradient3888"
       x1="0"
       y1="2"
       x2="64"
       y2="2"
       gradientUnits="userSpaceOnUse" />
    <radialGradient
       inkscape:collect="always"
       xlink:href="#linearGradient3788"
       id="radialGradient3842"
       gradientUnits="userSpaceOnUse"
       cx="32"
       cy="34"
       fx="32"
       fy="34"
       r="23.5" />
    <linearGradient
       inkscape:collect="always"
       id="linearGradient3788">
      <stop
         style="stop-color:#000000;stop-opacity:0.23835126"
         offset="0"
         id="stop3790" />
      <stop
         style="stop-color:#000000;stop-opacity:0;"
         offset="1"
         id="stop3792" />
    </linearGradient>
    <linearGradient
       inkscape:collect="always"
       xlink:href="#linearGradient3882-4"
       id="linearGradient3888-1"
       x1="0"
       y1="2"
       x2="64"
       y2="2"
       gradientUnits="userSpaceOnUse" />
    <linearGradient
       id="linearGradient3882-4">
      <stop
         style="stop-color:#5ecc86;stop-opacity:1;"
         offset="0"
         id="stop3884-1" />
      <stop
         id="stop3890-5"
         offset="0.46386716"
         style="stop-color:#5cb2e4;stop-opacity:1;" />
      <stop
         style="stop-color:#885dcb;stop-opacity:1;"
         offset="1"
         id="stop3886-5" />
    </linearGradient>
    <radialGradient
       inkscape:collect="always"
       xlink:href="#linearGradient3991-0"
       id="radialGradient4097-1"
       gradientUnits="userSpaceOnUse"
       gradientTransform="matrix(0,1.4389535,-1.375,0,52.305555,-27.813954)"
       cx="28.363636"
       cy="28.585857"
       fx="28.363636"
       fy="28.585857"
       r="32" />
    <linearGradient
       id="linearGradient3991-0">
      <stop
         id="stop3993-6"
         offset="0"
         style="stop-color:#75ff0b;stop-opacity:0.18681319;" />
      <stop
         style="stop-color:#0cff1b;stop-opacity:0.07304461;"
         offset="0.5593738"
         id="stop3995-8" />
      <stop
         id="stop3997-0"
         offset="1"
         style="stop-color:#20ff8c;stop-opacity:0;" />
    </linearGradient>
    <radialGradient
       inkscape:collect="always"
       xlink:href="#linearGradient3957-4"
       id="radialGradient3880-2"
       gradientUnits="userSpaceOnUse"
       gradientTransform="matrix(0,1.4389535,-1.375,0,52.305555,-27.813954)"
       cx="58.246464"
       cy="-0.5050509"
       fx="58.246464"
       fy="-0.5050509"
       r="32" />
    <linearGradient
       id="linearGradient3957-4">
      <stop
         style="stop-color:#ff205d;stop-opacity:0.1040724;"
         offset="0"
         id="stop3959-0" />
      <stop
         id="stop3965-0"
         offset="0.5593738"
         style="stop-color:#ff22cd;stop-opacity:0.06399483;" />
      <stop
         style="stop-color:#a81bff;stop-opacity:0;"
         offset="1"
         id="stop3961-8" />
    </linearGradient>
    <linearGradient
       id="linearGradient5602-6">
      <stop
         id="stop5604-7"
         style="stop-color:#3e6caf;stop-opacity:1;"
         offset="0" />
      <stop
         id="stop5606-9"
         style="stop-color:#354862;stop-opacity:1;"
         offset="1" />
    </linearGradient>
    <radialGradient
       r="32"
       fy="18"
       fx="32"
       cy="18"
       cx="32"
       gradientTransform="matrix(0,1.40625,-1.125,0,52.25,-26)"
       gradientUnits="userSpaceOnUse"
       id="radialGradient3064"
       xlink:href="#linearGradient5602-6"
       inkscape:collect="always" />
  </defs>
  <metadata
     id="metadata13099">
    <rdf:RDF>
      <cc:Work
         rdf:about="">
        <dc:format>image/svg+xml</dc:format>
        <dc:type
           rdf:resource="http://purl.org/dc/dcmitype/StillImage" />
        <dc:title />
      </cc:Work>
    </rdf:RDF>
  </metadata>
  <path
     id="path3874"
     d="m 0,4 0,30 0,28 2,2 30,0 30,0 2,-2 L 64,34 64,4 32,4 0,4 z"
     style="color:#000000;fill:url(#radialGradient3064);fill-opacity:1;fill-rule:nonzero;stroke:none;stroke-width:2.28571415;marker:none;visibility:visible;display:inline;overflow:visible;enable-background:accumulate"
     inkscape:connector-curvature="0" />
  <path
     style="fill:#88d1ea;fill-opacity:0.6738351;fill-rule:nonzero;stroke:none"
     d="M 0 2 L 0 2.25 L 0.59375 2.25 L 0.59375 5.03125 L 2.8125 5.03125 C 2.899068 5.5853177 3.3908222 6.03125 3.96875 6.03125 C 4.6077711 6.03125 5.125 5.5139353 5.125 4.875 C 5.125 4.2360648 4.6077711 3.71875 3.96875 3.71875 C 3.3657619 3.71875 2.8666345 4.1609279 2.8125 4.75 L 0.875 4.75 L 0.875 2 L 0 2 z M 2.1875 2 L 2.1875 3.1875 L 10.4375 3.1875 L 10.4375 3.71875 C 9.8512856 3.775757 9.375 4.2740694 9.375 4.875 C 9.375 5.5139353 9.8923142 6.03125 10.53125 6.03125 C 11.170185 6.03125 11.6875 5.5139353 11.6875 4.875 C 11.6875 4.2949291 11.275674 3.8027603 10.71875 3.71875 L 10.71875 2.90625 L 2.46875 2.90625 L 2.46875 2 L 2.1875 2 z M 20.3125 2 L 20.3125 3.71875 C 19.741001 3.789473 19.3125 4.2844993 19.3125 4.875 C 19.3125 5.5139353 19.829957 6.03125 20.46875 6.03125 C 21.107684 6.03125 21.625 5.5139353 21.625 4.875 C 21.625 4.2844993 21.196641 3.789473 20.625 3.71875 L 20.625 2 L 20.3125 2 z M 23.6875 2 L 23.6875 3.71875 C 23.115859 3.789473 22.65625 4.2844993 22.65625 4.875 C 22.65625 5.4655008 23.115859 5.9292772 23.6875 6 L 23.6875 6.6875 L 19 6.6875 L 19 3.03125 L 12 3.03125 L 12 7.40625 L 7.40625 7.40625 L 7.40625 6 C 7.9808917 5.9319921 8.4375 5.467501 8.4375 4.875 C 8.4375 4.2360648 7.9201852 3.71875 7.28125 3.71875 C 6.6423146 3.71875 6.125 4.2360648 6.125 4.875 C 6.125 5.4633578 6.556359 5.9264197 7.125 6 L 7.125 7.40625 L 0 7.40625 L 0 7.71875 L 12.28125 7.71875 L 12.28125 3.3125 L 18.71875 3.3125 L 18.71875 6.96875 L 23.96875 6.96875 L 23.96875 6 C 24.540247 5.929277 25 5.4655008 25 4.875 C 25 4.2844993 24.540247 3.789473 23.96875 3.71875 L 23.96875 2 L 23.6875 2 z M 26.375 2 L 25.28125 3.0625 L 25.28125 6.875 L 34.84375 6.875 L 34.84375 7.09375 L 36.6875 7.09375 L 36.6875 6.28125 L 34.84375 6.28125 L 34.84375 6.59375 L 25.59375 6.59375 L 25.59375 3.1875 C 25.648289 3.132837 26.344015 2.4372716 26.78125 2 L 26.375 2 z M 26.96875 2 L 26.96875 3.71875 C 26.396967 3.789473 25.9375 4.2844993 25.9375 4.875 C 25.9375 5.5139353 26.454672 6.03125 27.09375 6.03125 C 27.732542 6.03125 28.25 5.5139353 28.25 4.875 C 28.25 4.2844993 27.821641 3.789473 27.25 3.71875 L 27.25 2 L 26.96875 2 z M 30.21875 2 L 30.21875 3.71875 C 29.647109 3.789473 29.21875 4.2844993 29.21875 4.875 C 29.21875 5.5139353 29.736065 6.03125 30.375 6.03125 C 31.014078 6.03125 31.53125 5.5139353 31.53125 4.875 C 31.53125 4.2844993 31.103034 3.789473 30.53125 3.71875 L 30.53125 2 L 30.21875 2 z M 58.5625 2 L 58.5625 4.3125 L 61.65625 4.3125 L 61.65625 2 L 58.5625 2 z M 42.375 2.5 L 42.375 3.5625 L 44.1875 3.5625 L 44.1875 2.5 L 42.375 2.5 z M 36.96875 2.53125 C 36.787584 2.53125 36.612728 2.624984 36.5 2.75 L 34.84375 2.75 L 34.84375 3.5625 L 36.5 3.5625 C 36.612728 3.6875153 36.787584 3.78125 36.96875 3.78125 C 37.30822 3.78125 37.5625 3.4957201 37.5625 3.15625 C 37.5625 2.8169228 37.30822 2.53125 36.96875 2.53125 z M 46.90625 2.53125 C 46.566779 2.53125 46.28125 2.8169227 46.28125 3.15625 C 46.28125 3.49572 46.566779 3.75 46.90625 3.75 C 47.24572 3.75 47.53125 3.49572 47.53125 3.15625 C 47.53125 2.8169227 47.24572 2.53125 46.90625 2.53125 z M 46.90625 2.875 C 47.046124 2.875 47.15625 3.0165185 47.15625 3.15625 C 47.15625 3.2959814 47.046124 3.40625 46.90625 3.40625 C 46.766519 3.40625 46.65625 3.2959814 46.65625 3.15625 C 46.65625 3.0165185 46.766519 2.875 46.90625 2.875 z M 36.96875 2.90625 C 37.108481 2.90625 37.21875 3.0165186 37.21875 3.15625 C 37.21875 3.2959814 37.108481 3.40625 36.96875 3.40625 C 36.828877 3.40625 36.6875 3.2959814 36.6875 3.15625 C 36.6875 3.0165186 36.828877 2.90625 36.96875 2.90625 z M 13.90625 3.71875 C 13.267457 3.71875 12.75 4.2360648 12.75 4.875 C 12.75 5.4612147 13.184359 5.9239908 13.75 6 L 13.75 8.75 L 33.03125 8.75 L 34.84375 10.53125 L 34.84375 10.84375 L 36.6875 10.84375 L 36.6875 10 L 34.84375 10 L 34.84375 10.125 L 33.15625 8.4375 L 14.03125 8.4375 L 14.03125 6 C 14.608749 5.934849 15.0625 5.4696442 15.0625 4.875 C 15.0625 4.2360648 14.545186 3.71875 13.90625 3.71875 z M 17.15625 3.71875 C 16.517314 3.71875 16 4.2360648 16 4.875 C 16 5.4696442 16.45375 5.9347063 17.03125 6 L 17.03125 7.59375 L 33.65625 7.59375 L 34.8125 8.75 L 34.84375 8.75 L 34.84375 8.96875 L 36.6875 8.96875 L 36.6875 8.15625 L 34.84375 8.15625 L 34.84375 8.375 L 33.75 7.3125 L 17.3125 7.3125 L 17.3125 6 C 17.878284 5.923848 18.3125 5.4612147 18.3125 4.875 C 18.3125 4.2360648 17.795184 3.71875 17.15625 3.71875 z M 3.96875 4.125 C 4.3680698 4.125 4.6875 4.4756655 4.6875 4.875 C 4.6875 5.2743347 4.3680698 5.59375 3.96875 5.59375 C 3.5694155 5.59375 3.21875 5.2743347 3.21875 4.875 C 3.21875 4.4756655 3.5694155 4.125 3.96875 4.125 z M 7.28125 4.125 C 7.6805845 4.125 8 4.4756655 8 4.875 C 8 5.2743347 7.6805845 5.59375 7.28125 5.59375 C 6.8819154 5.59375 6.5625 5.2743347 6.5625 4.875 C 6.5625 4.4756655 6.8819154 4.125 7.28125 4.125 z M 10.53125 4.125 C 10.930584 4.125 11.28125 4.4756655 11.28125 4.875 C 11.28125 5.2743347 10.930584 5.59375 10.53125 5.59375 C 10.132058 5.59375 9.8125 5.2743347 9.8125 4.875 C 9.8125 4.4756655 10.132058 4.125 10.53125 4.125 z M 13.90625 4.125 C 14.305585 4.125 14.625 4.4756655 14.625 4.875 C 14.625 5.2743347 14.305585 5.59375 13.90625 5.59375 C 13.507059 5.59375 13.1875 5.2743347 13.1875 4.875 C 13.1875 4.4756655 13.507059 4.125 13.90625 4.125 z M 17.15625 4.125 C 17.555441 4.125 17.90625 4.4756655 17.90625 4.875 C 17.90625 5.2743347 17.555441 5.59375 17.15625 5.59375 C 16.756915 5.59375 16.4375 5.2743347 16.4375 4.875 C 16.4375 4.4756655 16.756915 4.125 17.15625 4.125 z M 20.46875 4.125 C 20.868084 4.125 21.1875 4.4756655 21.1875 4.875 C 21.1875 5.2743347 20.868084 5.59375 20.46875 5.59375 C 20.069558 5.59375 19.75 5.2743347 19.75 4.875 C 19.75 4.4756655 20.069558 4.125 20.46875 4.125 z M 23.84375 4.125 C 24.242941 4.125 24.5625 4.4756655 24.5625 4.875 C 24.5625 5.2743347 24.242941 5.59375 23.84375 5.59375 C 23.444415 5.59375 23.09375 5.2743347 23.09375 4.875 C 23.09375 4.4756655 23.444415 4.125 23.84375 4.125 z M 27.09375 4.125 C 27.493085 4.125 27.84375 4.4756655 27.84375 4.875 C 27.84375 5.2743347 27.493085 5.59375 27.09375 5.59375 C 26.694416 5.59375 26.375 5.2743347 26.375 4.875 C 26.375 4.4756655 26.694416 4.125 27.09375 4.125 z M 30.375 4.125 C 30.774334 4.125 31.09375 4.4756655 31.09375 4.875 C 31.09375 5.2743347 30.774334 5.59375 30.375 5.59375 C 29.975808 5.59375 29.65625 5.2743347 29.65625 4.875 C 29.65625 4.4756655 29.975808 4.125 30.375 4.125 z M 34.5625 4.3125 C 34.22303 4.3125 33.9375 4.5667799 33.9375 4.90625 C 33.9375 5.2457201 34.22303 5.53125 34.5625 5.53125 C 34.845963 5.53125 35.084955 5.3547819 35.15625 5.09375 L 37.0625 5.09375 C 37.14508 5.181475 40.46875 8.71875 40.46875 8.71875 L 42.34375 8.71875 L 42.34375 8.96875 L 44.15625 8.96875 L 44.15625 8.15625 L 42.34375 8.15625 L 42.34375 8.4375 L 40.59375 8.4375 C 40.511026 8.3497747 37.1875 4.78125 37.1875 4.78125 L 35.15625 4.78125 C 35.098522 4.5013586 34.859394 4.3125 34.5625 4.3125 z M 41.9375 4.3125 C 41.59803 4.3125 41.34375 4.5667799 41.34375 4.90625 C 41.34375 5.2457201 41.59803 5.53125 41.9375 5.53125 C 42.200961 5.53125 42.443668 5.3581714 42.53125 5.125 L 42.625 5.125 L 42.625 6.28125 L 42.34375 6.28125 L 42.34375 7.09375 L 44.15625 7.09375 L 44.15625 6.28125 L 42.90625 6.28125 L 42.90625 5.125 L 56.6875 5.125 C 56.76422 5.201867 57.6875 6.125 57.6875 6.125 L 61.3125 6.125 L 61.84375 6.625 C 61.84375 6.625 62.891455 5.5774381 62.96875 5.5 L 64 5.5 L 64 5.21875 L 62.84375 5.21875 C 62.84375 5.21875 62.009912 6.0836939 61.84375 6.25 C 61.721877 6.1279853 61.4375 5.84375 61.4375 5.84375 L 57.78125 5.84375 C 57.70438 5.766883 56.8125 4.84375 56.8125 4.84375 L 42.5625 4.84375 C 42.52706 4.5377126 42.252824 4.3125 41.9375 4.3125 z M 15.5 4.40625 L 15.5 5.1875 L 15.78125 5.1875 L 15.78125 4.40625 L 15.5 4.40625 z M 34.5625 4.65625 C 34.702374 4.65625 34.8125 4.7665186 34.8125 4.90625 C 34.8125 5.0459814 34.702374 5.15625 34.5625 5.15625 C 34.422912 5.15625 34.3125 5.0459814 34.3125 4.90625 C 34.3125 4.7665186 34.422912 4.65625 34.5625 4.65625 z M 41.9375 4.65625 C 42.077232 4.65625 42.21875 4.7665186 42.21875 4.90625 C 42.21875 5.0459814 42.077232 5.15625 41.9375 5.15625 C 41.797768 5.15625 41.6875 5.0459814 41.6875 4.90625 C 41.6875 4.7665186 41.797768 4.65625 41.9375 4.65625 z M 53.53125 6.78125 L 53.53125 10.25 L 54.28125 10.25 L 54.28125 10.65625 C 54.001501 10.71411 53.78125 10.953393 53.78125 11.25 C 53.78125 11.58947 54.066781 11.875 54.40625 11.875 C 54.745722 11.875 55.03125 11.58947 55.03125 11.25 C 55.03125 10.96668 54.823675 10.727544 54.5625 10.65625 L 54.5625 10.25 L 56.5 10.25 L 56.5 6.78125 L 53.53125 6.78125 z M 46.0625 6.8125 L 46.0625 10.28125 L 49.3125 10.28125 L 49.3125 8.59375 L 50.46875 8.59375 C 50.55162 8.8362083 50.761074 9 51.03125 9 C 51.37072 9 51.65625 8.7455771 51.65625 8.40625 C 51.65625 8.0667799 51.37072 7.78125 51.03125 7.78125 C 50.722069 7.78125 50.480791 8.0153207 50.4375 8.3125 L 49.3125 8.3125 L 49.3125 6.8125 L 46.0625 6.8125 z M 58.625 7.375 L 58.625 10.625 L 60 10.625 L 60 11.625 C 59.729682 11.68987 59.53125 11.928715 59.53125 12.21875 C 59.53125 12.558078 59.81678 12.84375 60.15625 12.84375 C 60.446286 12.84375 60.684992 12.645318 60.75 12.375 L 64 12.375 L 64 12.09375 L 60.75 12.09375 C 60.69614 11.869294 60.536957 11.67872 60.3125 11.625 L 60.3125 10.625 L 61.6875 10.625 L 61.6875 7.375 L 58.625 7.375 z M 2.375 7.84375 C 2.0848925 7.84375 1.8460442 8.0731454 1.78125 8.34375 L 0 8.34375 L 0 8.625 L 1.78125 8.625 C 1.8461 8.8953188 2.0848925 9.09375 2.375 9.09375 C 2.7143844 9.09375 3 8.8080772 3 8.46875 C 3 8.1292799 2.7143844 7.84375 2.375 7.84375 z M 51.03125 8.125 C 51.171125 8.125 51.28125 8.2665188 51.28125 8.40625 C 51.28125 8.5459814 51.171125 8.65625 51.03125 8.65625 C 50.891519 8.65625 50.78125 8.5459814 50.78125 8.40625 C 50.78125 8.2665188 50.891519 8.125 51.03125 8.125 z M 2.375 8.21875 C 2.5146891 8.21875 2.625 8.3288757 2.625 8.46875 C 2.625 8.6083386 2.5146879 8.71875 2.375 8.71875 C 2.23524 8.71875 2.125 8.6083386 2.125 8.46875 C 2.125 8.3288757 2.23524 8.21875 2.375 8.21875 z M 11.25 9.28125 C 11.25 9.28125 10.481831 10.049562 10.40625 10.125 L 7.84375 10.125 C 7.7788845 9.854681 7.5400355 9.65625 7.25 9.65625 C 6.9599646 9.65625 6.7211152 9.854681 6.65625 10.125 L 0 10.125 L 0 10.40625 L 6.65625 10.40625 C 6.721115 10.676712 6.9599646 10.875 7.25 10.875 C 7.5400355 10.875 7.7790278 10.676712 7.84375 10.40625 L 10.53125 10.40625 L 11.375 9.5625 L 26.9375 9.5625 L 26.9375 9.75 C 26.667181 9.814865 26.46875 10.053715 26.46875 10.34375 C 26.46875 10.683078 26.723031 10.9375 27.0625 10.9375 C 27.35468 10.9375 27.625064 10.742354 27.6875 10.46875 L 32.8125 10.46875 C 32.88837 10.54476 33.6875 11.34375 33.6875 11.34375 L 41.125 11.34375 C 41.20245 11.43548 42 12.40625 42 12.40625 L 42.34375 12.40625 L 42.34375 12.6875 L 44.15625 12.6875 L 44.15625 11.84375 L 42.34375 11.84375 L 42.34375 12.125 L 42.125 12.125 C 42.04757 12.03313 41.25 11.0625 41.25 11.0625 L 33.8125 11.0625 C 33.73663 10.98649 32.9375 10.1875 32.9375 10.1875 L 27.6875 10.1875 C 27.631922 9.9660445 27.441206 9.8031494 27.21875 9.75 L 27.21875 9.28125 L 11.25 9.28125 z M 7.25 10 C 7.3897314 10 7.5 10.110269 7.5 10.25 C 7.5 10.389874 7.3897314 10.5 7.25 10.5 C 7.1102687 10.5 7 10.389874 7 10.25 C 7 10.110269 7.1102687 10 7.25 10 z M 42.34375 10.0625 L 42.34375 10.875 L 44.15625 10.875 L 44.15625 10.59375 L 45.21875 10.59375 C 45.26476 10.6399 45.460877 10.835876 45.59375 10.96875 C 45.54431 11.05733 45.5 11.1417 45.5 11.25 C 45.5 11.58947 45.785529 11.875 46.125 11.875 C 46.464469 11.875 46.71875 11.58947 46.71875 11.25 C 46.71875 10.910673 46.464469 10.625 46.125 10.625 C 45.997555 10.625 45.879547 10.68341 45.78125 10.75 L 45.3125 10.3125 L 44.15625 10.3125 L 44.15625 10.0625 L 42.34375 10.0625 z M 27.0625 10.09375 C 27.202233 10.09375 27.34375 10.204018 27.34375 10.34375 C 27.34375 10.483481 27.202233 10.59375 27.0625 10.59375 C 26.92277 10.59375 26.8125 10.483481 26.8125 10.34375 C 26.8125 10.204018 26.92277 10.09375 27.0625 10.09375 z M 13.15625 10.4375 L 13.15625 12.03125 L 12.9375 12.03125 L 12.9375 11.21875 L 11.5625 11.21875 L 11.5625 13 L 12.9375 13 L 12.9375 12.3125 L 13.4375 12.3125 L 13.4375 10.71875 L 24.40625 10.71875 C 24.48855 10.80462 27.65625 14.125 27.65625 14.125 L 28.875 14.125 L 29 14 L 35 14 L 35.375 14.375 L 36.6875 14.375 L 36.6875 13.53125 L 34.84375 13.53125 L 34.84375 13.84375 L 27.78125 13.84375 C 27.6991 13.75788 24.53125 10.4375 24.53125 10.4375 L 13.15625 10.4375 z M 47.71875 10.625 C 47.37928 10.625 47.09375 10.910672 47.09375 11.25 C 47.09375 11.540036 47.29218 11.778884 47.5625 11.84375 L 47.5625 13.8125 L 44.15625 13.8125 L 44.15625 13.625 L 42.34375 13.625 L 42.34375 13.8125 L 41.21875 13.8125 C 41.17147 13.76492 40.950518 13.575374 40.8125 13.4375 C 40.88808 13.335206 40.9375 13.199088 40.9375 13.0625 C 40.9375 12.72303 40.651969 12.4375 40.3125 12.4375 C 39.973029 12.4375 39.71875 12.72303 39.71875 13.0625 C 39.71875 13.401827 39.973029 13.6875 40.3125 13.6875 C 40.41151 13.6875 40.510883 13.66657 40.59375 13.625 L 41.09375 14.125 L 42.34375 14.125 L 42.34375 14.4375 L 44.15625 14.4375 L 44.15625 14.125 L 47.84375 14.125 L 47.84375 11.84375 C 48.114353 11.77903 48.3125 11.540036 48.3125 11.25 C 48.3125 10.910673 48.058362 10.625 47.71875 10.625 z M 28.375 10.8125 L 28.375 11.875 C 28.262128 11.747842 28.089273 11.65625 27.90625 11.65625 C 27.566922 11.65625 27.28125 11.94178 27.28125 12.28125 C 27.28125 12.62072 27.566922 12.875 27.90625 12.875 C 28.089273 12.875 28.262128 12.81466 28.375 12.6875 L 28.375 13.5 L 29.71875 13.5 L 29.71875 10.8125 L 28.375 10.8125 z M 8.5 10.875 L 8.5 13.46875 L 10.125 13.46875 L 10.125 10.875 L 8.5 10.875 z M 46.125 11 C 46.264875 11 46.375 11.110269 46.375 11.25 C 46.375 11.389874 46.264875 11.5 46.125 11.5 C 45.985125 11.5 45.875 11.389874 45.875 11.25 C 45.875 11.110269 45.985125 11 46.125 11 z M 47.71875 11 C 47.858623 11 47.96875 11.110269 47.96875 11.25 C 47.96875 11.389874 47.858623 11.5 47.71875 11.5 C 47.57916 11.5 47.46875 11.389874 47.46875 11.25 C 47.46875 11.110269 47.57916 11 47.71875 11 z M 54.40625 11 C 54.54584 11 54.65625 11.110269 54.65625 11.25 C 54.65625 11.389874 54.54584 11.5 54.40625 11.5 C 54.266519 11.5 54.15625 11.389874 54.15625 11.25 C 54.15625 11.110269 54.266519 11 54.40625 11 z M 13.84375 11.125 L 13.84375 13.125 C 13.77474 13.19401 13.319008 13.649884 13.25 13.71875 L 7.4375 13.71875 C 7.357919 13.63917 5.71875 12.03125 5.71875 12.03125 L 0 12.03125 L 0 12.3125 L 5.59375 12.3125 C 5.673331 12.39222 7.3125 14 7.3125 14 L 13.34375 14 L 14.125 13.25 L 14.125 11.40625 L 23.8125 11.40625 C 23.89508 11.49483 27.15625 15 27.15625 15 L 28 15 L 28.28125 14.71875 L 27.28125 14.71875 C 27.19867 14.63031 23.9375 11.125 23.9375 11.125 L 13.84375 11.125 z M 31.34375 11.1875 L 31.34375 13 L 32.71875 13 L 32.71875 11.1875 L 31.34375 11.1875 z M 7.25 11.5 C 6.9106728 11.5 6.65625 11.78553 6.65625 12.125 C 6.65625 12.46447 6.9106728 12.75 7.25 12.75 C 7.5894702 12.75 7.875 12.46447 7.875 12.125 C 7.875 11.78553 7.5894702 11.5 7.25 11.5 z M 34.84375 11.75 L 34.84375 12.5625 L 36.6875 12.5625 L 36.6875 11.75 L 34.84375 11.75 z M 7.25 11.875 C 7.3897314 11.875 7.5 11.985268 7.5 12.125 C 7.5 12.264731 7.3897314 12.375 7.25 12.375 C 7.1102687 12.375 7 12.264731 7 12.125 C 7 11.985268 7.1102687 11.875 7.25 11.875 z M 16.3125 11.9375 L 16.3125 15.4375 L 5.90625 15.4375 L 4.96875 14.53125 L 0 14.53125 L 0 14.8125 L 4.84375 14.8125 L 5.78125 15.75 L 16.59375 15.75 L 16.59375 12.21875 L 21.125 12.21875 L 21.125 13.21875 L 20.59375 13.21875 L 20.59375 15.15625 L 22.21875 15.15625 L 22.21875 14.0625 L 23.96875 14.0625 C 24.03761 14.295385 24.252826 14.471426 24.5 14.5 L 24.5 15.4375 L 23.5625 15.4375 L 23.5625 18.09375 L 25.46875 18.09375 L 26.125 18.75 L 27.0625 18.75 L 27.875 19.53125 L 28 19.53125 L 28 19.25 C 27.92499 19.17499 27.1875 18.46875 27.1875 18.46875 L 26.25 18.46875 C 26.19543 18.41403 25.839988 18.058736 25.65625 17.875 L 25.65625 15.4375 L 24.78125 15.4375 L 24.78125 14.46875 C 25.014422 14.38103 25.1875 14.169711 25.1875 13.90625 C 25.1875 13.56678 24.901969 13.28125 24.5625 13.28125 C 24.261606 13.28125 24.022042 13.495643 23.96875 13.78125 L 22.21875 13.78125 L 22.21875 13.21875 L 21.40625 13.21875 L 21.40625 11.9375 L 16.3125 11.9375 z M 60.15625 11.96875 C 60.296124 11.96875 60.40625 12.078875 60.40625 12.21875 C 60.40625 12.358481 60.296124 12.46875 60.15625 12.46875 C 60.016518 12.46875 59.90625 12.358481 59.90625 12.21875 C 59.90625 12.078875 60.016518 11.96875 60.15625 11.96875 z M 27.90625 12 C 28.045981 12 28.15625 12.141519 28.15625 12.28125 C 28.15625 12.420982 28.045981 12.53125 27.90625 12.53125 C 27.766519 12.53125 27.65625 12.420982 27.65625 12.28125 C 27.65625 12.141519 27.766519 12 27.90625 12 z M 0 12.6875 L 0 12.96875 L 4.53125 12.96875 L 6.53125 14.96875 L 13.9375 14.96875 L 14.46875 14.4375 C 14.56476 14.49965 14.65852 14.5625 14.78125 14.5625 C 15.120719 14.5625 15.40625 14.27697 15.40625 13.9375 C 15.40625 13.598172 15.120719 13.3125 14.78125 13.3125 C 14.441778 13.3125 14.1875 13.598172 14.1875 13.9375 C 14.1875 14.050656 14.1966 14.158846 14.25 14.25 L 13.8125 14.6875 L 6.65625 14.6875 L 4.65625 12.6875 L 0 12.6875 z M 40.3125 12.8125 C 40.452374 12.8125 40.5625 12.922626 40.5625 13.0625 C 40.5625 13.202232 40.452374 13.3125 40.3125 13.3125 C 40.172768 13.3125 40.0625 13.202232 40.0625 13.0625 C 40.0625 12.922626 40.172768 12.8125 40.3125 12.8125 z M 17.40625 13.21875 L 17.40625 15.15625 L 17.96875 15.15625 L 17.96875 15.9375 L 19.0625 15.9375 C 19.12951 16.204818 19.368501 16.40625 19.65625 16.40625 C 19.908424 16.40625 20.123738 16.248705 20.21875 16.03125 L 22.75 16.03125 L 22.75 19.09375 L 23.03125 19.375 L 23.03125 15.75 L 20.25 15.75 C 20.22886 15.429533 19.982004 15.15625 19.65625 15.15625 C 19.364071 15.15625 19.093686 15.382644 19.03125 15.65625 L 18.25 15.65625 L 18.25 15.15625 L 19.03125 15.15625 L 19.03125 13.21875 L 17.40625 13.21875 z M 4 13.25 C 3.6868611 13.25 3.4443689 13.478213 3.40625 13.78125 L 0 13.78125 L 0 14.0625 L 3.4375 14.0625 C 3.523553 14.298672 3.7343526 14.46875 4 14.46875 C 4.3393843 14.46875 4.625 14.214471 4.625 13.875 C 4.625 13.535674 4.3393843 13.25 4 13.25 z M 4 13.59375 C 4.1397599 13.59375 4.25 13.735269 4.25 13.875 C 4.25 14.014875 4.1397599 14.125 4 14.125 C 3.8601977 14.125 3.75 14.014875 3.75 13.875 C 3.75 13.735269 3.8601966 13.59375 4 13.59375 z M 24.5625 13.65625 C 24.70223 13.65625 24.8125 13.766519 24.8125 13.90625 C 24.8125 14.045983 24.70223 14.15625 24.5625 14.15625 C 24.422768 14.15625 24.3125 14.045983 24.3125 13.90625 C 24.3125 13.766519 24.422768 13.65625 24.5625 13.65625 z M 14.78125 13.6875 C 14.921123 13.6875 15.03125 13.797768 15.03125 13.9375 C 15.03125 14.077373 14.921123 14.1875 14.78125 14.1875 C 14.641517 14.1875 14.53125 14.077373 14.53125 13.9375 C 14.53125 13.797768 14.641517 13.6875 14.78125 13.6875 z M 58.5 13.90625 L 56.8125 15.59375 L 46.625 15.59375 C 46.55071 15.337148 46.311428 15.15625 46.03125 15.15625 C 45.751073 15.15625 45.543188 15.337148 45.46875 15.59375 L 44.15625 15.59375 L 44.15625 15.4375 L 42.34375 15.4375 L 42.34375 15.59375 L 38.59375 15.59375 C 38.59375 15.59375 37.794474 16.393169 37.71875 16.46875 L 36 16.46875 L 36 16.75 L 37.84375 16.75 L 38.6875 15.90625 L 42.34375 15.90625 L 42.34375 16.25 L 44.15625 16.25 L 44.15625 15.90625 L 45.4375 15.90625 C 45.49208 16.190428 45.7315 16.40625 46.03125 16.40625 C 46.331143 16.40625 46.601815 16.190428 46.65625 15.90625 L 56.90625 15.90625 L 58.625 14.1875 L 64 14.1875 L 64 13.90625 L 58.5 13.90625 z M 63.46875 14.8125 C 62.86982 14.8125 62.375 15.307319 62.375 15.90625 C 62.375 16.505323 62.86982 16.96875 63.46875 16.96875 C 63.673617 16.96875 63.836401 16.91133 64 16.8125 L 64 15 C 63.835249 14.899168 63.675832 14.8125 63.46875 14.8125 z M 63.46875 15.375 C 63.748355 15.375 63.96875 15.626787 63.96875 15.90625 C 63.96875 16.185713 63.748355 16.40625 63.46875 16.40625 C 63.189144 16.40625 62.96875 16.185713 62.96875 15.90625 C 62.96875 15.626787 63.189144 15.375 63.46875 15.375 z M 36 15.4375 L 36 16.25 L 36.6875 16.25 L 36.6875 15.4375 L 36 15.4375 z M 19.65625 15.53125 C 19.795981 15.53125 19.90625 15.641518 19.90625 15.78125 C 19.90625 15.92098 19.795981 16.03125 19.65625 16.03125 C 19.516518 16.03125 19.40625 15.92098 19.40625 15.78125 C 19.40625 15.641518 19.516518 15.53125 19.65625 15.53125 z M 46.03125 15.53125 C 46.171123 15.53125 46.28125 15.641518 46.28125 15.78125 C 46.28125 15.92098 46.171123 16.03125 46.03125 16.03125 C 45.891518 16.03125 45.78125 15.92098 45.78125 15.78125 C 45.78125 15.641518 45.891518 15.53125 46.03125 15.53125 z M 6.46875 15.96875 C 6.1597122 15.96875 5.8870411 16.202821 5.84375 16.5 L 4.46875 16.5 L 4.46875 16.0625 L 3.40625 16.0625 L 3.40625 18.03125 L 4.46875 18.03125 L 4.46875 16.78125 L 5.875 16.78125 C 5.942579 16.979273 6.1069034 17.138209 6.3125 17.1875 L 6.3125 18.59375 L 5.5625 18.59375 L 5.5625 20.53125 L 7.46875 20.53125 L 7.46875 18.59375 L 6.59375 18.59375 L 6.59375 17.1875 C 6.8643544 17.12263 7.09375 16.852535 7.09375 16.5625 C 7.09375 16.22303 6.8082201 15.96875 6.46875 15.96875 z M 47.8125 16.03125 C 47.473028 16.03125 47.1875 16.316923 47.1875 16.65625 C 47.1875 16.775693 47.22225 16.874167 47.28125 16.96875 C 46.992643 17.257357 46.036186 18.245206 45.96875 18.3125 L 44.59375 18.3125 L 44.875 18.59375 L 46.0625 18.59375 L 47.5 17.1875 C 47.59287 17.24379 47.696198 17.28125 47.8125 17.28125 C 48.091391 17.28125 48.330956 17.067388 48.40625 16.8125 L 53.8125 16.8125 C 53.88794 17.067388 54.127359 17.28125 54.40625 17.28125 C 54.745722 17.28125 55.03125 16.995576 55.03125 16.65625 C 55.03125 16.316923 54.745722 16.03125 54.40625 16.03125 C 54.1055 16.03125 53.865648 16.245644 53.8125 16.53125 L 48.40625 16.53125 C 48.3531 16.245644 48.11325 16.03125 47.8125 16.03125 z M 0.15625 16.0625 L 0.15625 18.03125 L 0.21875 18.03125 C 0.129568 18.138119 0.09375 18.287767 0.09375 18.4375 C 0.09375 18.776969 0.34817282 19.03125 0.6875 19.03125 C 1.0269987 19.03125 1.3125 18.776969 1.3125 18.4375 C 1.3125 18.287767 1.245547 18.138119 1.15625 18.03125 L 1.21875 18.03125 L 1.21875 16.0625 L 0.15625 16.0625 z M 1.78125 16.0625 L 1.78125 18.03125 L 2.84375 18.03125 L 2.84375 16.0625 L 1.78125 16.0625 z M 27.09375 16.0625 C 26.754423 16.0625 26.5 16.348028 26.5 16.6875 C 26.5 17.026826 26.754423 17.3125 27.09375 17.3125 C 27.1879 17.3125 27.295134 17.28786 27.375 17.25 L 28 17.875 L 28 17.46875 C 27.827408 17.296157 27.696811 17.165607 27.59375 17.0625 C 27.6739 16.958491 27.71875 16.828659 27.71875 16.6875 C 27.71875 16.348028 27.433077 16.0625 27.09375 16.0625 z M 9.3125 16.1875 L 9.3125 18.09375 L 9.6875 18.09375 L 9.6875 18.78125 C 9.4296117 18.85455 9.25 19.093966 9.25 19.375 C 9.25 19.714471 9.5356721 19.96875 9.875 19.96875 C 10.079453 19.96875 10.262987 19.87263 10.375 19.71875 L 10.375 20.28125 C 10.34356 20.31282 10.250075 20.37493 10.1875 20.4375 C 10.09134 20.37535 9.9977286 20.34375 9.875 20.34375 C 9.5356721 20.34375 9.25 20.629424 9.25 20.96875 C 9.25 21.308221 9.5356721 21.5625 9.875 21.5625 C 10.21447 21.5625 10.46875 21.308221 10.46875 20.96875 C 10.46875 20.855594 10.45965 20.747547 10.40625 20.65625 L 10.65625 20.40625 L 10.65625 19.34375 C 10.7314 19.26874 11.4375 18.5625 11.4375 18.5625 L 11.4375 18.09375 L 12 18.09375 L 12 16.1875 L 10.96875 16.1875 L 10.96875 18.09375 L 11.15625 18.09375 L 11.15625 18.4375 L 10.4375 19.15625 C 10.36307 18.95965 10.210597 18.791435 10 18.75 L 10 18.09375 L 10.375 18.09375 L 10.375 16.1875 L 9.3125 16.1875 z M 12.59375 16.1875 L 12.59375 18.09375 L 13.09375 18.09375 L 13.09375 18.40625 C 13.02873 18.47126 12.124539 19.375319 11.8125 19.6875 C 11.707344 19.60392 11.581804 19.53125 11.4375 19.53125 C 11.09803 19.53125 10.8125 19.816922 10.8125 20.15625 C 10.8125 20.49572 11.09803 20.78125 11.4375 20.78125 C 11.77697 20.78125 12.03125 20.49572 12.03125 20.15625 C 12.03125 20.06538 12.00432 19.983973 11.96875 19.90625 L 13.375 18.53125 L 13.375 18.09375 L 13.65625 18.09375 L 13.65625 16.1875 L 12.59375 16.1875 z M 14.15625 16.1875 L 14.15625 18.09375 L 15.21875 18.09375 L 15.21875 16.1875 L 14.15625 16.1875 z M 6.46875 16.3125 C 6.6086243 16.3125 6.71875 16.422769 6.71875 16.5625 C 6.71875 16.702231 6.6086243 16.84375 6.46875 16.84375 C 6.3291616 16.84375 6.21875 16.702231 6.21875 16.5625 C 6.21875 16.422769 6.3291616 16.3125 6.46875 16.3125 z M 17.40625 16.40625 L 17.40625 18.34375 L 17.9375 18.34375 L 17.9375 19.6875 L 17.65625 19.6875 L 17.65625 20.0625 L 18.21875 19.5 L 18.21875 18.34375 L 19.03125 18.34375 L 19.03125 16.40625 L 17.40625 16.40625 z M 20.59375 16.40625 L 20.59375 17.46875 L 20.6875 17.4375 L 21.40625 17.75 L 22 18.34375 L 22.21875 18.34375 L 22.21875 16.40625 L 20.59375 16.40625 z M 47.8125 16.40625 C 47.952373 16.40625 48.0625 16.516519 48.0625 16.65625 C 48.0625 16.796125 47.952373 16.90625 47.8125 16.90625 C 47.672625 16.90625 47.5625 16.796125 47.5625 16.65625 C 47.5625 16.516519 47.672625 16.40625 47.8125 16.40625 z M 54.40625 16.40625 C 54.54584 16.40625 54.65625 16.516519 54.65625 16.65625 C 54.65625 16.796125 54.54584 16.90625 54.40625 16.90625 C 54.266519 16.90625 54.15625 16.796125 54.15625 16.65625 C 54.15625 16.516519 54.266519 16.40625 54.40625 16.40625 z M 27.09375 16.4375 C 27.233624 16.4375 27.34375 16.547626 27.34375 16.6875 C 27.34375 16.827232 27.233624 16.9375 27.09375 16.9375 C 26.954018 16.9375 26.84375 16.827232 26.84375 16.6875 C 26.84375 16.547626 26.954018 16.4375 27.09375 16.4375 z M 41.90625 16.9375 C 41.566922 16.9375 41.3125 17.223173 41.3125 17.5625 C 41.3125 17.901828 41.566922 18.15625 41.90625 18.15625 C 42.078986 18.15625 42.231736 18.08377 42.34375 17.96875 L 42.375 17.96875 L 42.59375 17.75 L 43.3125 17.4375 L 44.03125 17.75 L 44.15625 17.875 L 44.15625 17.15625 L 42.375 17.15625 C 42.261986 17.020944 42.096131 16.9375 41.90625 16.9375 z M 36 17.125 L 36 17.9375 L 36.6875 17.9375 L 36.6875 17.125 L 36 17.125 z M 41.90625 17.3125 C 42.046125 17.3125 42.15625 17.422768 42.15625 17.5625 C 42.15625 17.702232 42.046125 17.8125 41.90625 17.8125 C 41.766661 17.8125 41.65625 17.702232 41.65625 17.5625 C 41.65625 17.422768 41.766661 17.3125 41.90625 17.3125 z M 57.5625 17.59375 C 57.5625 17.59375 55.080868 20.043989 55 20.125 L 48.875 20.125 L 47.875 21.125 L 47.40625 21.125 L 47.6875 21.40625 L 48 21.40625 L 48.96875 20.4375 L 55.125 20.4375 C 55.125 20.4375 57.57524 17.955867 57.65625 17.875 L 64 17.875 L 64 17.59375 L 57.5625 17.59375 z M 51.0625 17.875 C 50.774608 17.875 50.535759 18.076433 50.46875 18.34375 L 47.53125 18.34375 C 47.53125 18.34375 46.613853 19.261125 46.0625 19.8125 L 46.28125 20 L 47.65625 18.625 L 50.46875 18.625 C 50.53133 18.898462 50.770179 19.125 51.0625 19.125 C 51.402113 19.125 51.6875 18.839328 51.6875 18.5 C 51.6875 18.16053 51.402113 17.875 51.0625 17.875 z M 0.6875 18.15625 C 0.82730226 18.15625 0.96875 18.29777 0.96875 18.4375 C 0.96875 18.577231 0.82730226 18.6875 0.6875 18.6875 C 0.54786804 18.6875 0.4375 18.577231 0.4375 18.4375 C 0.4375 18.29777 0.54786804 18.15625 0.6875 18.15625 z M 51.0625 18.25 C 51.202232 18.25 51.3125 18.360269 51.3125 18.5 C 51.3125 18.639733 51.202232 18.75 51.0625 18.75 C 50.922912 18.75 50.8125 18.639733 50.8125 18.5 C 50.8125 18.360269 50.922912 18.25 51.0625 18.25 z M 36 18.3125 L 36 18.59375 L 41.75 18.59375 L 42.03125 18.3125 L 36 18.3125 z M 3.96875 18.71875 C 3.6293656 18.71875 3.34375 18.97303 3.34375 19.3125 C 3.34375 19.651828 3.6293656 19.9375 3.96875 19.9375 C 4.2819026 19.9375 4.5242095 19.709287 4.5625 19.40625 L 4.71875 19.40625 L 4.71875 21.25 L 8.125 21.25 C 8.201582 21.32672 9.09375 22.25 9.09375 22.25 L 11.625 22.25 C 11.625 22.25 12.331526 21.543616 12.40625 21.46875 L 16.25 21.46875 L 16.5 21.25 C 16.491645 21.241646 16.4375 21.1875 16.4375 21.1875 L 12.28125 21.1875 L 11.53125 21.96875 L 9.21875 21.96875 C 9.141944 21.89217 8.25 20.96875 8.25 20.96875 L 5 20.96875 L 5 19.125 L 4.53125 19.125 C 4.445382 18.888829 4.234411 18.71875 3.96875 18.71875 z M 36 18.90625 L 36 19.5625 L 36.375 19.71875 L 36.6875 19.71875 L 36.6875 19.4375 L 37.21875 19.4375 L 37.21875 20.0625 L 37.5 20.1875 L 37.5 19.15625 L 36.6875 19.15625 L 36.6875 18.90625 L 36 18.90625 z M 57.65625 18.90625 C 57.316922 18.90625 57.0625 19.160673 57.0625 19.5 C 57.0625 19.66602 57.11173 19.826773 57.21875 19.9375 C 56.728977 20.427417 55.192866 21.963527 55.125 22.03125 L 48.25 22.03125 L 48.25 22.3125 L 55.25 22.3125 L 57.46875 20.09375 C 57.52976 20.11403 57.588671 20.125 57.65625 20.125 C 57.948715 20.125 58.187563 19.929855 58.25 19.65625 L 64 19.65625 L 64 19.34375 L 58.25 19.34375 C 58.18285 19.076431 57.944142 18.90625 57.65625 18.90625 z M 3.96875 19.0625 C 4.10851 19.0625 4.21875 19.17277 4.21875 19.3125 C 4.21875 19.452231 4.10851 19.59375 3.96875 19.59375 C 3.8289477 19.59375 3.71875 19.452231 3.71875 19.3125 C 3.71875 19.17277 3.8289477 19.0625 3.96875 19.0625 z M 9.875 19.125 C 10.014873 19.125 10.125 19.235268 10.125 19.375 C 10.125 19.514874 10.014873 19.625 9.875 19.625 C 9.7354108 19.625 9.625 19.514874 9.625 19.375 C 9.625 19.235268 9.7354108 19.125 9.875 19.125 z M 57.65625 19.25 C 57.796124 19.25 57.90625 19.360412 57.90625 19.5 C 57.90625 19.639733 57.796124 19.75 57.65625 19.75 C 57.516519 19.75 57.40625 19.639733 57.40625 19.5 C 57.40625 19.360412 57.516519 19.25 57.65625 19.25 z M 23.0625 19.40625 L 23.34375 19.6875 L 26.0625 19.6875 C 26.103844 19.728926 26.329824 19.932032 26.5625 20.15625 L 26.84375 20.03125 C 26.574302 19.77089 26.1875 19.40625 26.1875 19.40625 L 23.0625 19.40625 z M 11.4375 19.90625 C 11.577232 19.90625 11.6875 20.016517 11.6875 20.15625 C 11.6875 20.296123 11.577232 20.40625 11.4375 20.40625 C 11.297769 20.40625 11.1875 20.296123 11.1875 20.15625 C 11.1875 20.016517 11.297769 19.90625 11.4375 19.90625 z M 0 19.96875 L 0 20.25 L 3.84375 20.25 L 3.84375 20.53125 C 3.5552576 20.58211 3.34375 20.822105 3.34375 21.125 C 3.34375 21.464469 3.6293656 21.75 3.96875 21.75 C 4.3081343 21.75 4.59375 21.464469 4.59375 21.125 C 4.59375 20.848251 4.4080088 20.639796 4.15625 20.5625 L 4.15625 19.96875 L 0 19.96875 z M 37.71875 20.28125 L 38.40625 20.5625 L 39.78125 20.5625 L 40.0625 20.28125 L 37.71875 20.28125 z M 2.25 20.4375 C 1.9409771 20.4375 1.699669 20.671427 1.65625 20.96875 L 0 20.96875 L 0 21.25 L 1.6875 21.25 C 1.770153 21.492458 1.9799955 21.6875 2.25 21.6875 C 2.3850599 21.6875 2.5233156 21.63665 2.625 21.5625 C 2.8993616 21.836961 3.8387846 22.776313 3.90625 22.84375 L 3.90625 24.15625 L 3.4375 24.15625 L 3.4375 26.15625 L 3.9375 26.15625 L 3.9375 26.75 L 16.46875 26.75 L 16.46875 26.3125 C 16.688206 26.27836 16.890455 26.138954 16.96875 25.9375 L 18.28125 25.9375 L 17.96875 25.625 L 17 25.625 C 16.97228 25.364258 16.78128 25.153757 16.53125 25.09375 L 16.53125 24.59375 L 15.21875 24.59375 L 15.21875 24.3125 L 14.15625 24.3125 L 14.15625 26.1875 L 15.21875 26.1875 L 15.21875 24.875 L 16.25 24.875 L 16.25 25.09375 C 15.979682 25.15876 15.78125 25.397465 15.78125 25.6875 C 15.78125 25.95982 15.942041 26.20024 16.1875 26.28125 L 16.1875 26.46875 L 4.21875 26.46875 L 4.21875 26.15625 L 4.5 26.15625 L 4.5 24.15625 L 4.21875 24.15625 L 4.21875 22.75 L 2.8125 21.34375 C 2.855362 21.25988 2.875 21.162941 2.875 21.0625 C 2.875 20.72303 2.5893844 20.4375 2.25 20.4375 z M 9.875 20.71875 C 10.014873 20.71875 10.125 20.829019 10.125 20.96875 C 10.125 21.108482 10.014873 21.21875 9.875 21.21875 C 9.7354108 21.21875 9.625 21.108482 9.625 20.96875 C 9.625 20.829019 9.7354108 20.71875 9.875 20.71875 z M 24.40625 20.75 L 24.625 20.96875 L 25.15625 20.75 L 24.40625 20.75 z M 2.25 20.8125 C 2.3897599 20.8125 2.53125 20.922626 2.53125 21.0625 C 2.53125 21.202232 2.3897599 21.3125 2.25 21.3125 C 2.1101977 21.3125 2 21.202232 2 21.0625 C 2 20.922626 2.1101977 20.8125 2.25 20.8125 z M 3.96875 20.875 C 4.10851 20.875 4.21875 20.985126 4.21875 21.125 C 4.21875 21.264732 4.10851 21.40625 3.96875 21.40625 C 3.8289477 21.40625 3.71875 21.264732 3.71875 21.125 C 3.71875 20.985126 3.8289477 20.875 3.96875 20.875 z M 59.75 20.90625 C 59.75 20.90625 56.956295 23.700097 56.875 23.78125 L 54.15625 23.78125 C 54.0771 23.532648 53.837106 23.34375 53.5625 23.34375 C 53.22303 23.34375 52.96875 23.62928 52.96875 23.96875 C 52.96875 24.30822 53.22303 24.5625 53.5625 24.5625 C 53.867537 24.5625 54.138922 24.354108 54.1875 24.0625 L 57 24.0625 L 59.875 21.1875 L 64 21.1875 L 64 20.90625 L 59.75 20.90625 z M 5.5625 21.875 L 5.5625 23.78125 L 7.46875 23.78125 L 7.46875 22.9375 L 7.46875 21.875 L 5.5625 21.875 z M 7.46875 22.9375 C 7.46875 23.276827 7.7542799 23.5625 8.09375 23.5625 C 8.4330773 23.5625 8.71875 23.276827 8.71875 22.9375 C 8.71875 22.598172 8.4330773 22.34375 8.09375 22.34375 C 7.7542799 22.34375 7.46875 22.598172 7.46875 22.9375 z M 0 21.96875 L 0 22.28125 L 0.5625 22.28125 L 0.5625 24.15625 L 0.25 24.15625 L 0.25 26.15625 L 1.28125 26.15625 L 1.28125 24.15625 L 0.875 24.15625 L 0.875 21.96875 L 0 21.96875 z M 60.1875 22.0625 C 59.588571 22.0625 59.09375 22.525927 59.09375 23.125 C 59.09375 23.724074 59.588571 24.21875 60.1875 24.21875 C 60.368665 24.21875 60.537197 24.17247 60.6875 24.09375 L 61.75 25.9375 L 64 25.9375 L 64 25.65625 L 61.9375 25.65625 C 61.87578 25.550666 61.172854 24.392841 60.90625 23.9375 C 61.12099 23.739047 61.25 23.439896 61.25 23.125 C 61.25 22.525927 60.786574 22.0625 60.1875 22.0625 z M 60.1875 22.625 C 60.466963 22.625 60.6875 22.845394 60.6875 23.125 C 60.6875 23.404462 60.466963 23.65625 60.1875 23.65625 C 59.907894 23.65625 59.65625 23.404462 59.65625 23.125 C 59.65625 22.845394 59.907894 22.625 60.1875 22.625 z M 8.09375 22.6875 C 8.2333385 22.6875 8.34375 22.797769 8.34375 22.9375 C 8.34375 23.077232 8.2333385 23.1875 8.09375 23.1875 C 7.9540186 23.1875 7.84375 23.077232 7.84375 22.9375 C 7.84375 22.797769 7.9540186 22.6875 8.09375 22.6875 z M 53.5625 23.71875 C 53.702231 23.71875 53.8125 23.829162 53.8125 23.96875 C 53.8125 24.108624 53.702231 24.21875 53.5625 24.21875 C 53.422769 24.21875 53.3125 24.108624 53.3125 23.96875 C 53.3125 23.829162 53.422769 23.71875 53.5625 23.71875 z M 13.09375 23.78125 L 13.09375 24.3125 L 12.59375 24.3125 L 12.59375 24.65625 L 12 24.65625 L 12 24.3125 L 10.96875 24.3125 L 10.96875 26.1875 L 12 26.1875 L 12 24.96875 L 12.59375 24.96875 L 12.59375 26.1875 L 13.65625 26.1875 L 13.65625 24.3125 L 13.375 24.3125 L 13.375 24.0625 L 16.40625 24.0625 L 16.125 23.78125 L 13.09375 23.78125 z M 1.78125 24.15625 L 1.78125 26.15625 L 2.25 26.15625 L 2.25 26.875 C 2.0283877 26.93558 1.8595057 27.116866 1.8125 27.34375 L 0 27.34375 L 0 27.625 L 1.8125 27.625 C 1.883767 27.886032 2.122901 28.09375 2.40625 28.09375 C 2.7456915 28.09375 3.03125 27.808077 3.03125 27.46875 C 3.03125 27.172142 2.8110842 26.932865 2.53125 26.875 L 2.53125 26.15625 L 2.84375 26.15625 L 2.84375 24.15625 L 1.78125 24.15625 z M 9.3125 24.3125 L 9.3125 24.75 L 8.9375 24.75 L 8.125 25.5625 L 7.09375 25.5625 C 7.061032 25.253613 6.8173247 25 6.5 25 C 6.16053 25 5.875 25.285386 5.875 25.625 C 5.875 25.964184 6.16053 26.25 6.5 26.25 C 6.7611749 26.25 6.9732034 26.073778 7.0625 25.84375 L 8.25 25.84375 C 8.25 25.84375 8.9872054 25.106688 9.0625 25.03125 L 9.3125 25.03125 L 9.3125 26.1875 L 10.375 26.1875 L 10.375 24.3125 L 9.3125 24.3125 z M 46.96875 25.1875 C 46.671429 25.1875 46.43215 25.406894 46.375 25.6875 L 46.1875 25.5 L 45.96875 25.6875 C 46.207177 25.92248 46.59375 26.28125 46.59375 26.28125 C 46.700478 26.37026 46.819017 26.4375 46.96875 26.4375 C 47.252214 26.4375 47.491063 26.229926 47.5625 25.96875 L 59.1875 25.96875 C 59.25022 26.03161 60.097887 26.879138 60.4375 27.21875 C 60.35706 27.322624 60.3125 27.452447 60.3125 27.59375 C 60.3125 27.933077 60.59803 28.1875 60.9375 28.1875 C 61.27697 28.1875 61.53125 27.933077 61.53125 27.59375 C 61.53125 27.254279 61.27697 26.96875 60.9375 26.96875 C 60.84335 26.96875 60.736258 26.99339 60.65625 27.03125 L 59.3125 25.6875 L 47.59375 25.6875 C 47.53575 25.407751 47.265358 25.1875 46.96875 25.1875 z M 6.5 25.375 C 6.6397315 25.375 6.75 25.485125 6.75 25.625 C 6.75 25.764589 6.6397315 25.875 6.5 25.875 C 6.3602687 25.875 6.25 25.764589 6.25 25.625 C 6.25 25.485125 6.3602687 25.375 6.5 25.375 z M 16.375 25.4375 C 16.514732 25.4375 16.625 25.547768 16.625 25.6875 C 16.625 25.827231 16.514732 25.96875 16.375 25.96875 C 16.235269 25.96875 16.125 25.827231 16.125 25.6875 C 16.125 25.547768 16.235269 25.4375 16.375 25.4375 z M 46.96875 25.5625 C 47.108625 25.5625 47.25 25.672912 47.25 25.8125 C 47.25 25.952231 47.108625 26.0625 46.96875 26.0625 C 46.829019 26.0625 46.71875 25.952231 46.71875 25.8125 C 46.71875 25.672912 46.829019 25.5625 46.96875 25.5625 z M 45.09375 26.5625 L 45.03125 26.625 L 45.25 27.125 L 45.9375 27.8125 L 54.59375 27.8125 C 54.6729 28.061102 54.881645 28.25 55.15625 28.25 C 55.49572 28.25 55.78125 27.96447 55.78125 27.625 C 55.78125 27.285673 55.49572 27 55.15625 27 C 54.851356 27 54.610935 27.239786 54.5625 27.53125 L 46.03125 27.53125 C 46.003546 27.50359 45.519225 26.992761 45.09375 26.5625 z M 63.59375 26.84375 L 63.59375 28.5 L 64 28.5 L 64 26.84375 L 63.59375 26.84375 z M 2.40625 27.21875 C 2.5460522 27.21875 2.65625 27.32902 2.65625 27.46875 C 2.65625 27.608482 2.5460522 27.71875 2.40625 27.71875 C 2.266562 27.71875 2.15625 27.608482 2.15625 27.46875 C 2.15625 27.32902 2.2665609 27.21875 2.40625 27.21875 z M 60.9375 27.34375 C 61.077233 27.34375 61.1875 27.454018 61.1875 27.59375 C 61.1875 27.733624 61.077233 27.84375 60.9375 27.84375 C 60.797769 27.84375 60.65625 27.733624 60.65625 27.59375 C 60.65625 27.454018 60.797769 27.34375 60.9375 27.34375 z M 55.15625 27.375 C 55.296125 27.375 55.40625 27.485269 55.40625 27.625 C 55.40625 27.764731 55.296125 27.875 55.15625 27.875 C 55.016519 27.875 54.90625 27.764731 54.90625 27.625 C 54.90625 27.485269 55.016519 27.375 55.15625 27.375 z M 7.1875 27.46875 L 7.1875 28.3125 L 0 28.3125 L 0 28.625 L 7.46875 28.625 L 7.46875 27.75 L 14.65625 27.75 L 14.65625 29 L 14.4375 29 L 14.4375 30 L 15.28125 30 L 15.28125 29 L 14.9375 29 L 14.9375 27.46875 L 7.1875 27.46875 z M 7.9375 28.34375 L 7.9375 29.09375 L 0 29.09375 L 0 29.375 L 8.21875 29.375 L 8.21875 28.625 L 11.34375 28.625 L 11.34375 29 L 11.0625 29 L 11.0625 31.9375 L 11.90625 31.9375 L 11.90625 29 L 11.625 29 L 11.625 28.34375 L 7.9375 28.34375 z M 45.84375 28.59375 L 46.125 29.28125 C 46.350184 29.503063 46.849804 29.975189 46.875 30 L 47.1875 30 L 47.1875 29.90625 L 45.84375 28.59375 z M 64 28.8125 C 63.811559 28.918447 63.6875 29.112649 63.6875 29.34375 C 63.6875 29.35674 63.6865 29.36215 63.6875 29.375 L 62.5625 29.375 L 62.5625 30.03125 L 62.3125 30.03125 L 62.3125 31.625 L 60.15625 33.75 L 60.15625 48.5 C 60.08482 48.5713 59.477687 49.178706 59.40625 49.25 L 58.96875 49.25 L 58.96875 48.9375 L 56.34375 48.9375 L 56.34375 49.8125 L 58.96875 49.8125 L 58.96875 49.53125 L 59.53125 49.53125 L 60.4375 48.625 L 60.4375 33.875 C 60.50951 33.80284 62.258813 32.053689 62.625 31.6875 L 63.5625 31.6875 L 63.5625 30.03125 L 62.84375 30.03125 L 62.84375 29.65625 L 63.78125 29.65625 C 63.83561 29.74348 63.910757 29.823583 64 29.875 L 64 28.8125 z M 9.46875 29 L 9.46875 30.15625 L 0 30.15625 L 0 30.4375 L 9.46875 30.4375 L 9.46875 31.9375 L 10.3125 31.9375 L 10.3125 29 L 9.46875 29 z M 12.65625 29 L 12.65625 30.34375 L 13 30 L 13.5 30 L 13.5 29 L 12.65625 29 z M 16.03125 29 L 16.03125 30 L 16.875 30 L 16.875 29 L 16.03125 29 z M 17.65625 29 L 17.65625 29.78125 L 17.96875 29 L 17.65625 29 z M 53.65625 29.6875 C 53.316781 29.6875 53.03125 29.973031 53.03125 30.3125 C 53.03125 30.434801 53.06326 30.528988 53.125 30.625 L 53.09375 30.625 L 53.09375 33.6875 L 54.1875 33.6875 L 54.1875 30.625 L 54.15625 30.625 C 54.21797 30.52899 54.25 30.434801 54.25 30.3125 C 54.25 29.973031 53.99572 29.6875 53.65625 29.6875 z M 53.65625 30.03125 C 53.795981 30.03125 53.90625 30.172625 53.90625 30.3125 C 53.90625 30.452374 53.795981 30.5625 53.65625 30.5625 C 53.516376 30.5625 53.40625 30.452374 53.40625 30.3125 C 53.40625 30.172625 53.516376 30.03125 53.65625 30.03125 z M 51.71875 30.71875 L 52 31 L 52 33.6875 L 52.3125 33.6875 L 52.3125 30.71875 L 51.71875 30.71875 z M 54.71875 30.71875 L 54.71875 33.6875 L 55.8125 33.6875 L 55.8125 30.71875 L 54.71875 30.71875 z M 0 31 L 0 31.28125 L 5.53125 31.28125 L 5.53125 33.1875 L 6.15625 33.1875 L 6.15625 33.40625 L 8.8125 33.40625 L 8.8125 32.5625 L 6.15625 32.5625 L 6.15625 32.90625 L 5.84375 32.90625 L 5.84375 31 L 0 31 z M 1.53125 31.375 C 1.2412579 31.375 1.0023513 31.573288 0.9375 31.84375 L 0 31.84375 L 0 32.125 L 0.9375 32.125 C 1.0022933 32.395462 1.2412579 32.59375 1.53125 32.59375 C 1.8706916 32.59375 2.15625 32.339472 2.15625 32 C 2.15625 31.660674 1.8706916 31.375 1.53125 31.375 z M 1.53125 31.71875 C 1.6710521 31.71875 1.78125 31.860269 1.78125 32 C 1.78125 32.139733 1.6710521 32.25 1.53125 32.25 C 1.391562 32.25 1.28125 32.139733 1.28125 32 C 1.28125 31.860269 1.391562 31.71875 1.53125 31.71875 z M 12 33.03125 L 11.6875 33.375 C 11.63007 33.35729 11.563008 33.34375 11.5 33.34375 C 11.16053 33.34375 10.875 33.62928 10.875 33.96875 C 10.875 34.308077 11.16053 34.5625 11.5 34.5625 C 11.712079 34.5625 11.886483 34.469881 12 34.3125 L 12 33.625 C 11.977118 33.592142 11.96579 33.559182 11.9375 33.53125 L 12 33.46875 L 12 33.03125 z M 63.59375 33.25 L 63.59375 34.90625 L 64 34.90625 L 64 34 L 64 33.25 L 63.59375 33.25 z M 11.5 33.71875 C 11.639732 33.71875 11.75 33.829018 11.75 33.96875 C 11.75 34.108481 11.639732 34.21875 11.5 34.21875 C 11.360269 34.21875 11.25 34.108481 11.25 33.96875 C 11.25 33.829018 11.360269 33.71875 11.5 33.71875 z M 52 34.25 L 52 34.65625 C 52.10473 34.686079 52.1875 34.759839 52.1875 34.875 C 52.1875 34.990396 52.10473 35.063982 52 35.09375 L 52 35.46875 C 52.311527 35.439981 52.5625 35.193579 52.5625 34.875 C 52.5625 34.555498 52.312775 34.280861 52 34.25 z M 53.65625 34.25 C 53.316781 34.25 53.03125 34.53553 53.03125 34.875 C 53.03125 35.149604 53.220005 35.35849 53.46875 35.4375 L 53.46875 35.96875 C 53.38203 36.03947 52.816293 36.477243 52.75 36.53125 L 52 36.53125 L 52 36.8125 L 52.875 36.8125 L 53.75 36.09375 L 53.75 35.46875 C 54.041464 35.42032 54.25 35.180037 54.25 34.875 C 54.25 34.53553 53.995721 34.25 53.65625 34.25 z M 56.34375 34.40625 L 56.34375 35.28125 L 58.96875 35.28125 L 58.96875 34.40625 L 56.34375 34.40625 z M 6.15625 34.4375 L 6.15625 34.71875 L 0 34.71875 L 0 35 L 6.15625 35 L 6.15625 35.28125 L 8.8125 35.28125 L 8.8125 34.4375 L 6.15625 34.4375 z M 53.65625 34.625 C 53.795981 34.625 53.90625 34.735411 53.90625 34.875 C 53.90625 35.014874 53.795981 35.125 53.65625 35.125 C 53.516376 35.125 53.40625 35.014874 53.40625 34.875 C 53.40625 34.735411 53.516376 34.625 53.65625 34.625 z M 12 34.6875 L 11.15625 35.53125 L 0 35.53125 L 0 35.8125 L 11.28125 35.8125 C 11.28125 35.8125 11.672238 35.421494 12 35.09375 L 12 34.6875 z M 64 35.28125 C 63.897791 35.35872 63.819898 35.467878 63.78125 35.59375 L 62.5 35.59375 L 62.5 36.46875 L 62.3125 36.46875 L 62.3125 37.46875 L 61 37.46875 L 61 49.375 C 60.92199 49.45301 59.328011 51.047019 59.25 51.125 L 58.96875 51.125 L 58.96875 50.84375 L 56.34375 50.84375 L 56.34375 51.71875 L 58.96875 51.71875 L 58.96875 51.40625 L 59.375 51.40625 L 61.28125 49.5 L 61.28125 37.75 L 62.3125 37.75 L 62.3125 38.125 L 63.5625 38.125 L 63.5625 36.46875 L 62.78125 36.46875 L 62.78125 35.90625 L 63.75 35.90625 C 63.7778 36.064429 63.876586 36.188624 64 36.28125 L 64 35.28125 z M 12 35.96875 C 11.842947 36.048582 11.729949 36.198007 11.6875 36.375 L 8.8125 36.375 L 8.8125 36.09375 L 6.15625 36.09375 L 6.15625 36.9375 L 8.8125 36.9375 L 8.8125 36.65625 L 11.6875 36.65625 C 11.74057 36.878028 11.905512 37.062251 12.125 37.125 L 12 37 L 12 35.96875 z M 56.34375 36.28125 L 56.34375 37.15625 L 58.96875 37.15625 L 58.96875 36.28125 L 56.34375 36.28125 z M 11.46875 36.84375 C 11.198574 36.84375 10.957724 37.038649 10.875 37.28125 L 5.75 37.28125 L 4.84375 38.1875 L 0 38.1875 L 0 38.46875 L 4.96875 38.46875 L 5.875 37.5625 L 10.84375 37.5625 C 10.88719 37.85968 11.159712 38.09375 11.46875 38.09375 C 11.80822 38.09375 12.0625 37.80822 12.0625 37.46875 C 12.0625 37.129423 11.80822 36.84375 11.46875 36.84375 z M 11.46875 37.21875 C 11.608482 37.21875 11.71875 37.328875 11.71875 37.46875 C 11.71875 37.608481 11.608482 37.71875 11.46875 37.71875 C 11.329019 37.71875 11.21875 37.608481 11.21875 37.46875 C 11.21875 37.328875 11.329019 37.21875 11.46875 37.21875 z M 6.15625 37.875 L 6.15625 38.71875 L 8.8125 38.71875 L 8.8125 38.53125 L 17.40625 38.53125 C 17.457684 38.806998 17.71201 39.016946 18 39.03125 L 17.75 38.40625 L 17.5625 38 C 17.505011 38.069733 17.462751 38.164519 17.4375 38.25 L 8.8125 38.25 L 8.8125 37.875 L 6.15625 37.875 z M 56.34375 38.125 L 56.34375 39 L 58.96875 39 L 58.96875 38.125 L 56.34375 38.125 z M 9.71875 39.34375 L 8.96875 40.09375 L 8.8125 40.09375 L 8.8125 39.8125 L 6.15625 39.8125 L 6.15625 40.65625 L 8.8125 40.65625 L 8.8125 40.375 L 9.09375 40.375 L 9.84375 39.625 L 18.25 39.625 L 18.125 39.34375 L 9.71875 39.34375 z M 63.59375 39.59375 L 63.59375 41.25 L 64 41.25 L 64 39.59375 L 63.59375 39.59375 z M 0 39.65625 L 0 40.0625 C 0.0877613 40.10241 0.15625 40.14742 0.15625 40.25 C 0.15625 40.354798 0.09096949 40.430174 0 40.46875 L 0 40.875 C 0.2334035 40.83638 0.43376232 40.661263 0.5 40.4375 L 4.28125 40.4375 C 4.345658 40.655098 4.5245439 40.83071 4.75 40.875 L 4.75 41.4375 L 13.0625 41.4375 C 12.742031 41.4585 12.46875 41.705352 12.46875 42.03125 C 12.46875 42.370576 12.754423 42.65625 13.09375 42.65625 C 13.43322 42.65625 13.71875 42.370576 13.71875 42.03125 C 13.71875 41.705352 13.445468 41.458503 13.125 41.4375 L 18.90625 41.4375 L 18.96875 41.375 L 18.875 41.125 L 5.03125 41.125 L 5.03125 40.84375 C 5.2891388 40.77046 5.5 40.53132 5.5 40.25 C 5.5 39.910673 5.2143272 39.65625 4.875 39.65625 C 4.574106 39.65625 4.3031207 39.870643 4.25 40.15625 L 0.5 40.15625 C 0.4523938 39.900632 0.25821325 39.695744 0 39.65625 z M 56.34375 39.90625 L 56.34375 40.78125 L 58.96875 40.78125 L 58.96875 39.90625 L 56.34375 39.90625 z M 4.875 40 C 5.0147312 40 5.125 40.110125 5.125 40.25 C 5.125 40.389731 5.0147312 40.5 4.875 40.5 C 4.7351257 40.5 4.625 40.389731 4.625 40.25 C 4.625 40.110125 4.7351257 40 4.875 40 z M 51.0625 40.65625 C 50.75332 40.65625 50.512041 40.890178 50.46875 41.1875 L 45.125 41.1875 L 45.03125 41.375 L 45.125 41.46875 L 50.5 41.46875 C 50.58258 41.711209 50.792325 41.875 51.0625 41.875 C 51.402113 41.875 51.6875 41.620577 51.6875 41.28125 C 51.6875 40.941637 51.402113 40.65625 51.0625 40.65625 z M 51.0625 41.03125 C 51.202232 41.03125 51.3125 41.141376 51.3125 41.28125 C 51.3125 41.420695 51.202232 41.53125 51.0625 41.53125 C 50.922912 41.53125 50.8125 41.420695 50.8125 41.28125 C 50.8125 41.141376 50.922912 41.03125 51.0625 41.03125 z M 6.15625 41.5625 L 6.15625 42.40625 L 8.8125 42.40625 L 8.8125 41.5625 L 6.15625 41.5625 z M 56.34375 41.71875 L 56.34375 42.09375 L 45.75 42.09375 L 46.03125 42.375 L 56.34375 42.375 L 56.34375 42.59375 L 58.96875 42.59375 L 58.96875 41.71875 L 56.34375 41.71875 z M 64 41.71875 C 63.899345 41.7924 63.823327 41.911521 63.78125 42.03125 L 62.78125 42.03125 L 62.78125 42.84375 L 62.3125 42.84375 L 62.3125 43.84375 L 61.75 43.84375 L 61.75 50.375 C 61.67042 50.45453 59.423188 52.701656 59.34375 52.78125 L 58.96875 52.78125 L 58.96875 52.46875 L 56.34375 52.46875 L 56.34375 53.34375 L 58.96875 53.34375 L 58.96875 53.0625 L 59.46875 53.0625 L 62.03125 50.5 L 62.03125 44.125 L 62.3125 44.125 L 62.3125 44.5 L 63.5625 44.5 L 63.5625 42.84375 L 63.0625 42.84375 L 63.0625 42.3125 L 63.75 42.3125 C 63.77232 42.476943 63.874876 42.622129 64 42.71875 L 64 41.71875 z M 13.09375 41.78125 C 13.233623 41.78125 13.34375 41.891376 13.34375 42.03125 C 13.34375 42.170982 13.233623 42.28125 13.09375 42.28125 C 12.954019 42.28125 12.84375 42.170982 12.84375 42.03125 C 12.84375 41.891376 12.954019 41.78125 13.09375 41.78125 z M 2.375 42.34375 C 2.0355014 42.34375 1.75 42.629422 1.75 42.96875 C 1.75 43.308363 2.0355014 43.59375 2.375 43.59375 C 2.6493615 43.59375 2.8895552 43.404709 2.96875 43.15625 L 17.1875 43.15625 L 17.46875 42.875 L 2.96875 42.875 C 2.9204721 42.583531 2.6799367 42.34375 2.375 42.34375 z M 2.375 42.71875 C 2.5146891 42.71875 2.625 42.828876 2.625 42.96875 C 2.625 43.108481 2.5146879 43.21875 2.375 43.21875 C 2.23524 43.21875 2.125 43.108481 2.125 42.96875 C 2.125 42.828876 2.23524 42.71875 2.375 42.71875 z M 6.15625 43.5625 L 6.15625 44.40625 L 8.8125 44.40625 L 8.8125 44.0625 L 16.28125 44.0625 L 16.5625 43.78125 L 8.8125 43.78125 L 8.8125 43.5625 L 6.15625 43.5625 z M 56.34375 43.5625 L 56.34375 43.90625 L 47.5625 43.90625 L 47.84375 44.1875 L 56.34375 44.1875 L 56.34375 44.4375 L 58.96875 44.4375 L 58.96875 43.5625 L 56.34375 43.5625 z M 10.75 44.96875 C 10.428532 44.96875 10.152145 45.21664 10.125 45.53125 L 8.8125 45.53125 L 8.8125 45.3125 L 6.15625 45.3125 L 6.15625 46.15625 L 8.8125 46.15625 L 8.8125 45.8125 L 10.15625 45.8125 C 10.24855 46.036384 10.493254 46.1875 10.75 46.1875 C 11.08947 46.1875 11.34375 45.933076 11.34375 45.59375 C 11.34375 45.254136 11.08947 44.96875 10.75 44.96875 z M 13.9375 45 C 13.598031 45 13.3125 45.28553 13.3125 45.625 C 13.3125 45.781877 13.37203 45.922665 13.46875 46.03125 C 13.34602 46.154122 13.056291 46.443706 13 46.5 L 9.8125 46.5 C 9.8125 46.5 8.9512952 47.330097 8.875 47.40625 L 8.8125 47.40625 L 8.8125 47.09375 L 6.15625 47.09375 L 6.15625 47.9375 L 8.8125 47.9375 L 8.8125 47.6875 L 9 47.6875 L 9.9375 46.78125 L 13.125 46.78125 L 13.6875 46.1875 C 13.75608 46.21393 13.859777 46.21875 13.9375 46.21875 C 14.276828 46.21875 14.53125 45.964614 14.53125 45.625 C 14.53125 45.285531 14.276828 45 13.9375 45 z M 3.09375 45.0625 C 2.7837542 45.0941 2.5625 45.369381 2.5625 45.6875 C 2.5625 45.816516 2.588156 45.932238 2.65625 46.03125 C 2.5209054 46.166408 2.2991636 46.388208 2.25 46.4375 L 0 46.4375 L 0 46.71875 L 2.375 46.71875 L 2.875 46.21875 C 2.962625 46.26662 3.0494792 46.3125 3.15625 46.3125 C 3.4956767 46.3125 3.78125 46.02697 3.78125 45.6875 C 3.78125 45.348173 3.4956767 45.0625 3.15625 45.0625 C 3.135038 45.0625 3.114415 45.0604 3.09375 45.0625 z M 55.1875 45.1875 C 54.84803 45.1875 54.59375 45.472888 54.59375 45.8125 C 54.59375 46.151827 54.84803 46.40625 55.1875 46.40625 C 55.52697 46.40625 55.8125 46.151827 55.8125 45.8125 C 55.8125 45.472888 55.52697 45.1875 55.1875 45.1875 z M 10.75 45.3125 C 10.889731 45.3125 11 45.453876 11 45.59375 C 11 45.733481 10.889731 45.84375 10.75 45.84375 C 10.610269 45.84375 10.46875 45.733481 10.46875 45.59375 C 10.46875 45.453876 10.610269 45.3125 10.75 45.3125 z M 13.9375 45.375 C 14.077232 45.375 14.1875 45.485127 14.1875 45.625 C 14.1875 45.764733 14.077232 45.875 13.9375 45.875 C 13.797769 45.875 13.65625 45.764733 13.65625 45.625 C 13.65625 45.485127 13.797769 45.375 13.9375 45.375 z M 56.34375 45.40625 L 56.34375 46.28125 L 58.96875 46.28125 L 58.96875 45.40625 L 56.34375 45.40625 z M 3.15625 45.4375 C 3.2959951 45.4375 3.40625 45.547625 3.40625 45.6875 C 3.40625 45.827231 3.2959963 45.9375 3.15625 45.9375 C 3.0164329 45.9375 2.90625 45.827231 2.90625 45.6875 C 2.90625 45.547625 3.0164329 45.4375 3.15625 45.4375 z M 55.1875 45.53125 C 55.327374 45.53125 55.46875 45.672769 55.46875 45.8125 C 55.46875 45.952088 55.327374 46.0625 55.1875 46.0625 C 55.047768 46.0625 54.9375 45.952088 54.9375 45.8125 C 54.9375 45.672769 55.047768 45.53125 55.1875 45.53125 z M 63.59375 45.9375 L 63.59375 47.59375 L 64 47.59375 L 64 45.9375 L 63.59375 45.9375 z M 24.625 47.03125 L 24 47.625 C 24.002175 47.635496 23.997322 47.645931 24 47.65625 C 24.068724 47.921114 24.308128 48.125 24.59375 48.125 C 24.933077 48.125 25.21875 47.839469 25.21875 47.5 C 25.21875 47.415168 25.188334 47.3245 25.15625 47.25 L 24.625 47.03125 z M 16.375 47.0625 C 16.078391 47.0625 15.839114 47.251216 15.78125 47.53125 L 10.71875 47.53125 L 9 49.25 L 8.8125 49.25 L 8.8125 48.96875 L 6.15625 48.96875 L 6.15625 49.8125 L 8.8125 49.8125 L 8.8125 49.53125 L 9.125 49.53125 C 9.125 49.53125 10.764168 47.923474 10.84375 47.84375 L 15.78125 47.84375 C 15.85255 48.104639 16.091821 48.28125 16.375 48.28125 C 16.71447 48.28125 17 47.995577 17 47.65625 C 17 47.316637 16.71447 47.0625 16.375 47.0625 z M 56.34375 47.09375 L 56.34375 47.4375 L 46.84375 47.4375 L 46.53125 47.75 L 56.34375 47.75 L 56.34375 47.9375 L 58.96875 47.9375 L 58.96875 47.09375 L 56.34375 47.09375 z M 39.15625 47.125 L 38.75 47.28125 C 38.874744 47.296129 38.96875 47.401999 38.96875 47.53125 C 38.96875 47.671124 38.858482 47.78125 38.71875 47.78125 C 38.579018 47.78125 38.46875 47.671124 38.46875 47.53125 C 38.46875 47.471864 38.497619 47.417539 38.53125 47.375 L 37.8125 47.6875 L 38.125 47.6875 C 38.17886 47.922958 38.355721 48.10953 38.59375 48.15625 L 38.59375 48.25 L 36.4375 48.25 L 36 48.4375 L 36 48.53125 L 38.59375 48.53125 L 38.59375 50.34375 C 38.52331 50.41407 38.007794 50.960941 37.9375 51.03125 L 37.5625 51.03125 L 37.5625 50.71875 L 36 50.71875 L 36 51.5625 L 37.5625 51.5625 L 37.5625 51.3125 L 38.0625 51.3125 L 38.90625 50.46875 L 38.90625 48.125 C 39.164138 48.05185 39.34375 47.812426 39.34375 47.53125 C 39.34375 47.37124 39.258795 47.229421 39.15625 47.125 z M 24.59375 47.25 C 24.733481 47.25 24.875 47.360125 24.875 47.5 C 24.875 47.639731 24.733481 47.75 24.59375 47.75 C 24.453876 47.75 24.34375 47.639731 24.34375 47.5 C 24.34375 47.360125 24.453876 47.25 24.59375 47.25 z M 25.40625 47.34375 L 25.40625 50.03125 L 23.78125 50.03125 L 23.78125 51.15625 L 18.5625 51.15625 L 18.5625 52.21875 L 17.59375 52.21875 L 17.59375 55.15625 L 18.5625 55.15625 L 18.5625 57.625 L 22.1875 61.28125 L 46.03125 61.28125 L 47.125 60.15625 L 47.125 57 L 47.40625 57 L 47.40625 54.125 L 46.625 54.125 L 46.625 57 L 46.84375 57 L 46.84375 60.0625 C 46.77003 60.13617 45.979975 60.926219 45.90625 61 L 22.3125 61 C 22.23192 60.91924 18.924618 57.612075 18.84375 57.53125 L 18.84375 51.4375 L 24.0625 51.4375 L 24.0625 50.3125 L 25.6875 50.3125 L 25.6875 47.46875 L 25.40625 47.34375 z M 16.375 47.40625 C 16.514873 47.40625 16.625 47.516375 16.625 47.65625 C 16.625 47.796123 16.514873 47.9375 16.375 47.9375 C 16.235411 47.9375 16.125 47.796123 16.125 47.65625 C 16.125 47.516375 16.235411 47.40625 16.375 47.40625 z M 26.25 47.71875 L 26.25 51.15625 L 24.59375 51.15625 L 24.59375 52.21875 L 24.21875 52.21875 L 24.21875 55.15625 L 25.1875 55.15625 L 25.1875 52.21875 L 24.875 52.21875 L 24.875 51.4375 L 26.53125 51.4375 L 26.53125 47.8125 L 26.25 47.71875 z M 4.84375 47.78125 C 4.5468565 47.78125 4.2765135 48.001357 4.21875 48.28125 L 0 48.28125 L 0 48.5625 L 4.25 48.5625 C 4.321381 48.823675 4.5604296 49.03125 4.84375 49.03125 C 5.1830772 49.03125 5.4375 48.745863 5.4375 48.40625 C 5.4375 48.066923 5.1830772 47.78125 4.84375 47.78125 z M 37.5625 47.78125 L 37.1875 47.9375 L 37.5625 47.9375 L 37.5625 47.78125 z M 40.21875 47.875 L 40.21875 50.3125 C 40.13917 50.39213 37.798474 52.764111 37.71875 52.84375 L 37.5625 52.84375 L 37.5625 52.46875 L 36 52.46875 L 36 53 L 35.65625 53.34375 L 37.5625 53.34375 L 37.5625 53.125 L 37.8125 53.125 L 40.5 50.4375 L 40.5 48.15625 L 40.21875 47.875 z M 64 47.9375 C 63.851733 48.049655 63.75 48.237241 63.75 48.4375 L 62.71875 48.4375 L 62.71875 49.1875 L 62.3125 49.1875 L 62.3125 50.84375 L 62.6875 50.84375 L 61.6875 51.84375 L 61.6875 54.75 C 61.61678 54.82076 61.070723 55.366792 61 55.4375 L 55.71875 55.4375 L 55.71875 54.125 L 54.90625 54.125 L 54.90625 57 L 55.71875 57 L 55.71875 55.75 L 61.09375 55.75 L 61.96875 54.875 L 61.96875 51.96875 C 62.03562 51.90195 62.863294 51.074079 63.09375 50.84375 L 63.5625 50.84375 L 63.5625 49.1875 L 63 49.1875 L 63 48.75 L 63.84375 48.75 C 63.88207 48.81465 63.94174 48.859429 64 48.90625 L 64 47.9375 z M 4.84375 48.15625 C 4.9833384 48.15625 5.09375 48.266519 5.09375 48.40625 C 5.09375 48.546124 4.9833384 48.65625 4.84375 48.65625 C 4.7038757 48.65625 4.59375 48.546124 4.59375 48.40625 C 4.59375 48.266519 4.7038757 48.15625 4.84375 48.15625 z M 13.125 48.90625 C 12.83268 48.90625 12.593543 49.101109 12.53125 49.375 L 10.5 49.375 L 9 50.875 L 8.8125 50.875 L 8.8125 50.59375 L 6.15625 50.59375 L 6.15625 51.4375 L 8.8125 51.4375 L 8.8125 51.1875 L 9.09375 51.1875 C 9.09375 51.1875 10.545848 49.735346 10.625 49.65625 L 12.53125 49.65625 C 12.59854 49.923254 12.837537 50.125 13.125 50.125 C 13.464472 50.125 13.75 49.870576 13.75 49.53125 C 13.75 49.191636 13.464472 48.90625 13.125 48.90625 z M 36 48.9375 L 36 49.8125 L 37.5625 49.8125 L 37.5625 48.9375 L 36 48.9375 z M 27.3125 48.96875 L 27.3125 49.84375 L 28 49.84375 L 28 48.96875 L 27.3125 48.96875 z M 22.65625 49 L 22.375 49.28125 C 22.381321 49.303465 22.40625 49.319297 22.40625 49.34375 C 22.40625 49.483625 22.295981 49.59375 22.15625 49.59375 C 22.131797 49.59375 22.117544 49.568814 22.09375 49.5625 L 21.8125 49.84375 C 21.914847 49.909654 22.029009 49.96875 22.15625 49.96875 C 22.49572 49.96875 22.75 49.683077 22.75 49.34375 C 22.75 49.216395 22.718849 49.099914 22.65625 49 z M 17.8125 49.1875 L 16.3125 50.8125 L 16.3125 52.21875 L 15.9375 52.21875 L 15.9375 55.15625 L 16.90625 55.15625 L 16.90625 52.21875 L 16.59375 52.21875 L 16.59375 50.9375 C 16.66333 50.86205 17.859776 49.553046 17.9375 49.46875 L 19.1875 49.46875 L 18.90625 49.1875 L 17.8125 49.1875 z M 13.125 49.25 C 13.264876 49.25 13.375 49.391375 13.375 49.53125 C 13.375 49.670981 13.264876 49.78125 13.125 49.78125 C 12.98527 49.78125 12.875 49.670981 12.875 49.53125 C 12.875 49.391375 12.98527 49.25 13.125 49.25 z M 27.3125 50.8125 L 27.3125 51.6875 L 28 51.6875 L 28 50.8125 L 27.3125 50.8125 z M 12.1875 51.09375 L 12.1875 58.28125 L 8.28125 58.28125 L 8.28125 52.78125 L 0.65625 52.78125 L 0.65625 57.71875 C 0.42592238 57.76887 0.27355677 57.958843 0.21875 58.1875 L 0 58.1875 L 0 58.46875 L 0.21875 58.46875 C 0.2736138 58.697121 0.42592238 58.887451 0.65625 58.9375 L 0.65625 62.65625 L 0.96875 62.96875 L 0.96875 58.9375 C 1.1871332 58.88029 1.3534437 58.688919 1.40625 58.46875 L 2.34375 58.46875 L 2.34375 59.21875 L 5.53125 59.21875 L 5.53125 58.46875 L 6.40625 58.46875 L 6.40625 60.25 L 14.125 60.25 L 14.125 51.375 L 15.5 51.375 L 15.5 63.6875 C 15.235256 63.687068 3.0972861 63.658404 1.65625 63.65625 L 1.9375 63.9375 L 15.78125 63.96875 L 15.78125 51.09375 L 12.1875 51.09375 z M 12.46875 51.375 L 13.84375 51.375 L 13.84375 59.96875 L 6.71875 59.96875 L 6.71875 58.1875 L 5.53125 58.1875 L 5.53125 57.40625 L 2.34375 57.40625 L 2.34375 58.1875 L 1.40625 58.1875 C 1.3534436 57.967221 1.1872487 57.807192 0.96875 57.75 L 0.96875 53.0625 L 8 53.0625 L 8 58.5625 L 12.46875 58.5625 L 12.46875 51.375 z M 9.375 52.21875 L 9.375 55.15625 L 9.71875 55.15625 L 9.71875 55.875 C 9.4482883 55.93991 9.21875 56.178829 9.21875 56.46875 C 9.21875 56.808534 9.5042799 57.09375 9.84375 57.09375 C 10.183221 57.09375 10.46875 56.808534 10.46875 56.46875 C 10.46875 56.178829 10.270462 55.939908 10 55.875 L 10 55.15625 L 10.34375 55.15625 L 10.34375 52.21875 L 9.375 52.21875 z M 11 52.21875 L 11 55.15625 L 11.34375 55.15625 L 11.34375 55.875 C 11.073288 55.93991 10.875 56.178829 10.875 56.46875 C 10.875 56.808534 11.16053 57.09375 11.5 57.09375 C 11.839327 57.09375 12.09375 56.808534 12.09375 56.46875 C 12.09375 56.178829 11.895318 55.939908 11.625 55.875 L 11.625 55.15625 L 11.96875 55.15625 L 11.96875 52.21875 L 11 52.21875 z M 12.71875 52.21875 L 12.71875 55.15625 L 13.0625 55.15625 L 13.0625 59.21875 L 7.53125 59.21875 L 7.53125 54.65625 L 5.53125 54.65625 L 5.53125 53.84375 L 2.34375 53.84375 L 2.34375 55.65625 L 5.53125 55.65625 L 5.53125 54.9375 L 7.25 54.9375 L 7.25 59.5 L 13.34375 59.5 L 13.34375 55.15625 L 13.6875 55.15625 L 13.6875 52.21875 L 12.71875 52.21875 z M 14.3125 52.21875 L 14.3125 55.15625 L 14.65625 55.15625 L 14.65625 61.84375 L 5.53125 61.84375 L 5.53125 60.96875 L 2.34375 60.96875 L 2.34375 62.75 L 5.53125 62.75 L 5.53125 62.125 L 14.9375 62.125 L 14.9375 55.15625 L 15.28125 55.15625 L 15.28125 52.21875 L 14.3125 52.21875 z M 19.375 52.21875 L 19.375 55.15625 L 19.65625 55.15625 L 19.65625 56.0625 L 22.15625 58.5625 L 29 58.5625 C 29.08272 58.805001 29.292325 58.96875 29.5625 58.96875 C 29.901971 58.96875 30.1875 58.714613 30.1875 58.375 C 30.1875 58.035672 29.901971 57.75 29.5625 57.75 C 29.25332 57.75 29.012184 57.984055 28.96875 58.28125 L 22.28125 58.28125 C 22.20181 58.20182 20.048189 56.016925 19.96875 55.9375 L 19.96875 55.15625 L 20.34375 55.15625 L 20.34375 52.21875 L 19.375 52.21875 z M 20.9375 52.21875 L 20.9375 55.15625 L 21.28125 55.15625 L 21.28125 55.8125 L 22.9375 57.4375 L 31.53125 57.4375 C 31.59698 57.50308 32.187159 58.093282 32.34375 58.25 C 32.33061 58.29995 32.3125 58.35211 32.3125 58.40625 C 32.3125 58.745576 32.598031 59.03125 32.9375 59.03125 C 33.27697 59.03125 33.5625 58.745576 33.5625 58.40625 C 33.5625 58.066708 33.27697 57.78125 32.9375 57.78125 C 32.759336 57.78125 32.581192 57.87861 32.46875 58 L 31.65625 57.15625 L 23.03125 57.15625 C 22.95424 57.07924 21.639653 55.764525 21.5625 55.6875 L 21.5625 55.15625 L 21.875 55.15625 L 21.875 52.21875 L 20.9375 52.21875 z M 22.53125 52.21875 L 22.53125 55.15625 L 22.875 55.15625 L 22.875 55.6875 L 23.9375 56.75 L 33.1875 56.75 C 33.27965 56.97397 33.524361 57.125 33.78125 57.125 C 34.120719 57.125 34.375 56.870577 34.375 56.53125 C 34.375 56.191708 34.120719 55.90625 33.78125 55.90625 C 33.459782 55.90625 33.183252 56.154153 33.15625 56.46875 L 24.0625 56.46875 C 23.98934 56.39564 23.229259 55.666801 23.15625 55.59375 L 23.15625 55.15625 L 23.5 55.15625 L 23.5 52.21875 L 22.53125 52.21875 z M 25.875 52.21875 L 25.875 55.15625 L 26.84375 55.15625 L 26.84375 54.09375 L 32.8125 54.09375 C 32.88808 54.16936 33.65625 54.9375 33.65625 54.9375 L 36.4375 54.9375 C 36.5088 55.198517 36.747786 55.40625 37.03125 55.40625 C 37.370862 55.40625 37.625 55.120578 37.625 54.78125 C 37.625 54.441637 37.370862 54.15625 37.03125 54.15625 C 36.734499 54.15625 36.464115 54.376359 36.40625 54.65625 L 33.78125 54.65625 C 33.722466 54.597427 33.334434 54.209423 33.125 54 L 29 54 L 28.8125 53.8125 L 26.84375 53.8125 L 26.84375 52.21875 L 25.875 52.21875 z M 63.59375 52.21875 L 63.59375 53.90625 L 64 53.90625 L 64 52.21875 L 63.59375 52.21875 z M 45.40625 52.28125 C 45.06678 52.28125 44.78125 52.566637 44.78125 52.90625 C 44.78125 53.245578 45.06678 53.5 45.40625 53.5 C 45.745719 53.5 46 53.245578 46 52.90625 C 46 52.566637 45.745719 52.28125 45.40625 52.28125 z M 41.1875 52.34375 C 40.848029 52.34375 40.5625 52.629152 40.5625 52.96875 C 40.5625 53.308078 40.848029 53.59375 41.1875 53.59375 C 41.52697 53.59375 41.8125 53.308078 41.8125 52.96875 C 41.8125 52.62915 41.52697 52.34375 41.1875 52.34375 z M 50.3125 52.46875 C 49.973173 52.46875 49.6875 52.723173 49.6875 53.0625 C 49.6875 53.40217 49.973173 53.6875 50.3125 53.6875 C 50.652113 53.6875 50.9375 53.40217 50.9375 53.0625 C 50.9375 52.723173 50.652113 52.46875 50.3125 52.46875 z M 45.40625 52.65625 C 45.545838 52.65625 45.65625 52.766448 45.65625 52.90625 C 45.65625 53.046054 45.545838 53.15625 45.40625 53.15625 C 45.266375 53.15625 45.125 53.046054 45.125 52.90625 C 45.125 52.766448 45.266375 52.65625 45.40625 52.65625 z M 41.1875 52.71875 C 41.327373 52.71875 41.4375 52.828948 41.4375 52.96875 C 41.4375 53.108624 41.327373 53.21875 41.1875 53.21875 C 41.047912 53.21875 40.9375 53.108624 40.9375 52.96875 C 40.9375 52.828948 41.047912 52.71875 41.1875 52.71875 z M 50.3125 52.8125 C 50.452373 52.8125 50.5625 52.922697 50.5625 53.0625 C 50.5625 53.202303 50.452373 53.34375 50.3125 53.34375 C 50.173054 53.34375 50.0625 53.202303 50.0625 53.0625 C 50.0625 52.922699 50.173054 52.8125 50.3125 52.8125 z M 38.28125 54.125 L 38.28125 57 L 39.09375 57 L 39.09375 54.125 L 38.28125 54.125 z M 39.96875 54.125 L 39.96875 57 L 40.75 57 L 40.75 54.125 L 39.96875 54.125 z M 41.5625 54.125 L 41.5625 57 L 42.34375 57 L 42.34375 54.125 L 41.5625 54.125 z M 43.28125 54.125 L 43.28125 57 L 44.09375 57 L 44.09375 54.125 L 43.28125 54.125 z M 44.8125 54.125 L 44.8125 57 L 45.59375 57 L 45.59375 54.125 L 44.8125 54.125 z M 48.21875 54.125 L 48.21875 57 L 49 57 L 49 54.125 L 48.21875 54.125 z M 49.84375 54.125 L 49.84375 57 L 50.65625 57 L 50.65625 54.125 L 49.84375 54.125 z M 51.46875 54.125 L 51.46875 57 L 51.75 57 L 51.75 57.875 L 55.09375 61.375 L 63.78125 61.375 C 63.83076 61.478663 63.90456 61.562512 64 61.625 L 64 60.59375 C 63.838715 60.699955 63.726341 60.856769 63.71875 61.0625 L 55.21875 61.0625 C 55.1376 60.9776 52.107688 57.82981 52.03125 57.75 L 52.03125 57 L 52.28125 57 L 52.28125 54.125 L 51.46875 54.125 z M 53.21875 54.125 L 53.21875 57 L 53.5 57 L 53.5 57.4375 L 54.53125 58.46875 L 59.375 58.46875 C 59.375 58.46875 60.920705 56.923174 61 56.84375 L 62.3125 56.84375 L 62.3125 57.1875 L 63.625 57.1875 L 63.625 55.375 L 63.03125 55.375 L 63.03125 54.9375 L 63.78125 54.9375 C 63.81701 55.086183 63.87877 55.227628 64 55.3125 L 64 54.3125 C 63.884326 54.39821 63.815845 54.511943 63.78125 54.65625 L 62.75 54.65625 L 62.75 55.375 L 62.3125 55.375 L 62.3125 56.5625 L 60.90625 56.5625 C 60.90625 56.5625 59.360546 58.108076 59.28125 58.1875 L 54.65625 58.1875 C 54.58324 58.11454 53.85426 57.385451 53.78125 57.3125 L 53.78125 57 L 54 57 L 54 54.125 L 53.21875 54.125 z M 37.03125 54.53125 C 37.170838 54.53125 37.28125 54.641448 37.28125 54.78125 C 37.28125 54.921052 37.170838 55.03125 37.03125 55.03125 C 36.891375 55.03125 36.78125 54.921054 36.78125 54.78125 C 36.78125 54.641448 36.891375 54.53125 37.03125 54.53125 z M 9.84375 56.21875 C 9.9834814 56.21875 10.09375 56.328948 10.09375 56.46875 C 10.09375 56.608568 9.9834814 56.75 9.84375 56.75 C 9.7040186 56.75 9.59375 56.608568 9.59375 56.46875 C 9.59375 56.328948 9.7040186 56.21875 9.84375 56.21875 z M 11.5 56.21875 C 11.639731 56.21875 11.75 56.328948 11.75 56.46875 C 11.75 56.608568 11.639731 56.75 11.5 56.75 C 11.360269 56.75 11.25 56.608568 11.25 56.46875 C 11.25 56.328948 11.360269 56.21875 11.5 56.21875 z M 33.78125 56.25 C 33.921123 56.25 34.03125 56.391448 34.03125 56.53125 C 34.03125 56.671053 33.921123 56.78125 33.78125 56.78125 C 33.641661 56.78125 33.5 56.671054 33.5 56.53125 C 33.5 56.391448 33.641661 56.25 33.78125 56.25 z M 48.65625 57.8125 C 48.31678 57.8125 48.03125 58.098173 48.03125 58.4375 C 48.03125 58.777043 48.31678 59.0625 48.65625 59.0625 C 48.99572 59.0625 49.28125 58.777043 49.28125 58.4375 C 49.28125 58.098173 48.99572 57.8125 48.65625 57.8125 z M 0.8125 58.0625 C 0.95224622 58.0625 1.0625 58.203946 1.0625 58.34375 C 1.0625 58.483552 0.95224622 58.59375 0.8125 58.59375 C 0.67273998 58.59375 0.5625 58.483554 0.5625 58.34375 C 0.5625 58.203949 0.67273998 58.0625 0.8125 58.0625 z M 29.5625 58.125 C 29.702232 58.125 29.8125 58.235197 29.8125 58.375 C 29.8125 58.514802 29.702232 58.625 29.5625 58.625 C 29.422626 58.625 29.3125 58.514803 29.3125 58.375 C 29.3125 58.235197 29.422626 58.125 29.5625 58.125 z M 32.9375 58.15625 C 33.077375 58.15625 33.1875 58.266449 33.1875 58.40625 C 33.1875 58.546053 33.077375 58.65625 32.9375 58.65625 C 32.79777 58.65625 32.6875 58.546054 32.6875 58.40625 C 32.6875 58.266449 32.79777 58.15625 32.9375 58.15625 z M 48.65625 58.1875 C 48.796123 58.1875 48.90625 58.297683 48.90625 58.4375 C 48.90625 58.577246 48.796123 58.6875 48.65625 58.6875 C 48.516519 58.6875 48.40625 58.577247 48.40625 58.4375 C 48.40625 58.297683 48.516519 58.1875 48.65625 58.1875 z M 63.6875 58.40625 L 63.6875 60.21875 L 64 60.21875 L 64 58.40625 L 63.6875 58.40625 z M 18.03125 58.59375 C 17.691922 58.59375 17.40625 58.848173 17.40625 59.1875 C 17.40625 59.527113 17.691922 59.8125 18.03125 59.8125 C 18.07154 59.8125 18.08671 59.8199 18.125 59.8125 L 20.4375 62.09375 L 47.84375 62.09375 C 47.84375 62.09375 48.488063 61.449511 48.5625 61.375 L 53.53125 61.375 L 53.53125 61.0625 L 48.46875 61.0625 C 48.46875 61.0625 47.793189 61.737933 47.71875 61.8125 L 20.5625 61.8125 C 20.49235 61.74239 18.835159 60.085218 18.40625 59.65625 C 18.542695 59.543408 18.625 59.378266 18.625 59.1875 C 18.625 58.848173 18.370719 58.59375 18.03125 58.59375 z M 18.03125 58.9375 C 18.171124 58.9375 18.28125 59.047697 18.28125 59.1875 C 18.28125 59.327362 18.171124 59.4375 18.03125 59.4375 C 17.891518 59.4375 17.75 59.32736 17.75 59.1875 C 17.75 59.047698 17.891518 58.9375 18.03125 58.9375 z M 16.4375 59.5625 C 16.09803 59.5625 15.8125 59.848059 15.8125 60.1875 C 15.8125 60.5271 16.09803 60.78125 16.4375 60.78125 C 16.544228 60.78125 16.631167 60.76667 16.71875 60.71875 L 18.90625 62.90625 L 51.375 62.90625 C 51.43758 63.179831 51.676571 63.375 51.96875 63.375 C 52.308363 63.375 52.59375 63.120857 52.59375 62.78125 C 52.59375 62.441928 52.308363 62.15625 51.96875 62.15625 C 51.681001 62.15625 51.442152 62.357672 51.375 62.625 L 19.03125 62.625 C 18.96138 62.55507 17.36441 60.958031 16.9375 60.53125 C 17.00565 60.43229 17.03125 60.316587 17.03125 60.1875 C 17.03125 59.848058 16.776828 59.5625 16.4375 59.5625 z M 16.4375 59.90625 C 16.577089 59.90625 16.6875 60.047756 16.6875 60.1875 C 16.6875 60.32719 16.577089 60.4375 16.4375 60.4375 C 16.297769 60.4375 16.15625 60.32719 16.15625 60.1875 C 16.15625 60.047756 16.297769 59.90625 16.4375 59.90625 z M 62.3125 61.6875 L 62.3125 63.5 L 62.5 63.5 L 63.625 62.375 L 63.625 61.6875 L 62.3125 61.6875 z M 53.5625 62.15625 C 53.22303 62.15625 52.96875 62.441929 52.96875 62.78125 C 52.96875 63.120857 53.22303 63.375 53.5625 63.375 C 53.90197 63.375 54.1875 63.120857 54.1875 62.78125 C 54.1875 62.441929 53.90197 62.15625 53.5625 62.15625 z M 51.96875 62.53125 C 52.108624 62.53125 52.25 62.641446 52.25 62.78125 C 52.25 62.921111 52.108624 63.03125 51.96875 63.03125 C 51.829162 63.03125 51.71875 62.921111 51.71875 62.78125 C 51.71875 62.641446 51.829162 62.53125 51.96875 62.53125 z M 53.5625 62.53125 C 53.702231 62.53125 53.8125 62.641446 53.8125 62.78125 C 53.8125 62.921111 53.702231 63.03125 53.5625 63.03125 C 53.422769 63.03125 53.3125 62.921111 53.3125 62.78125 C 53.3125 62.641446 53.422769 62.53125 53.5625 62.53125 z M 60.9375 63.1875 C 60.627444 63.2191 60.375 63.494117 60.375 63.8125 C 60.375 63.87785 60.38739 63.940953 60.40625 64 L 60.84375 64 C 60.79317 63.95368 60.75 63.886225 60.75 63.8125 C 60.75 63.672694 60.860411 63.5625 61 63.5625 C 61.139732 63.5625 61.25 63.672694 61.25 63.8125 C 61.25 63.88622 61.20668 63.953678 61.15625 64 L 61.59375 64 C 61.61332 63.94129 61.625 63.877852 61.625 63.8125 C 61.625 63.472893 61.339613 63.1875 61 63.1875 C 60.97879 63.1875 60.95817 63.1854 60.9375 63.1875 z "
     id="path412" />
  <path
     id="path3878"
     d="m 0,4 0,30 0,28 2,2 30,0 30,0 2,-2 L 64,34 64,4 32,4 0,4 z"
     style="color:#000000;fill:url(#radialGradient3880-2);fill-opacity:1;fill-rule:nonzero;stroke:none;stroke-width:2.28571415;marker:none;visibility:visible;display:inline;overflow:visible;enable-background:accumulate"
     inkscape:connector-curvature="0" />
  <path
     inkscape:connector-curvature="0"
     style="color:#000000;fill:url(#radialGradient4097-1);fill-opacity:1;fill-rule:nonzero;stroke:none;stroke-width:2.28571415;marker:none;visibility:visible;display:inline;overflow:visible;enable-background:accumulate"
     d="m 0,4 0,30 0,28 2,2 30,0 30,0 2,-2 L 64,34 64,4 32,4 0,4 z"
     id="path4095" />
  <path
     inkscape:connector-curvature="0"
     style="color:#000000;fill:url(#linearGradient3888-1);fill-opacity:1;fill-rule:nonzero;stroke:none;stroke-width:2.28571415;marker:none;visibility:visible;display:inline;overflow:visible;enable-background:accumulate"
     d="M 2,0 0,1 0,4 32,4 64,4 64,1 62,0 32,0 2,0 z"
     id="path4090" />
  <path
     inkscape:connector-curvature="0"
     style="fill:#ffffff;fill-opacity:0.35573479;fill-rule:nonzero"
     d="M 0,3 0,6 2,4 32,4 62,4 64,3 32,3 0,3 z"
     id="path4298" />
  <path
     inkscape:connector-curvature="0"
     style="fill:#1f0700;fill-opacity:0.06978802;fill-rule:nonzero"
     d="M 2,0 0,1 32,1 64,1 62,0 32,0 2,0 z"
     id="path4444" />
  <path
     d="M 64,6 62,4 64,3 z"
     id="path3028"
     style="fill:#1f0700;fill-opacity:0.13759861"
     inkscape:connector-curvature="0" />
  <path
     inkscape:connector-curvature="0"
     style="fill:#000000;fill-opacity:0.11130587;fill-rule:nonzero"
     d="M 63,0.5 63,34 63,63 64,62 64,34 64,1 63,0.5 z m 0,62.5 -31,0 -31,0 1,1 30,0 30,0 1,-1 z"
     id="path4366" />
  <path
     inkscape:connector-curvature="0"
     style="fill:#ffffff;fill-opacity:0.35070675;fill-rule:nonzero"
     d="M 0,1 0,34 0,62 1,63 1,34 1,5 2,4 1,3.46875 1,1 0,1 z"
     id="path3864" />
  <path
     d="m 29,14 -1,0.999998 0,4.562502 -3.375,1.406249 -3.218752,-3.21875 -0.718749,-0.312499 -0.71875,0.312499 -4.21875,4.21875 0,1.437499 L 18.968749,26.625 17.5625,30 12.999998,30 12,31 l 0,6 0.999998,1 4.562502,0 1.406249,3.375 -3.21875,3.218752 0,1.437499 4.21875,4.218749 1.437499,0 L 24.625,47.031251 28,48.4375 28,53.000002 29,54 l 6,0 1,-0.999998 0,-4.562502 3.375,-1.406249 3.218752,3.218749 1.437499,0 4.218749,-4.218749 0,-1.437499 L 45.031251,41.375 46.4375,38 51.000002,38 52,37 52,31 51.000002,30 46.4375,30 45.031251,26.625 48.25,23.406248 l 0,-1.437499 -4.218749,-4.21875 L 43.312501,17.4375 42.593752,17.749999 39.375,20.968749 36,19.5625 36,14.999998 35,14 z"
     id="path3862"
     style="fill:#000000;fill-opacity:0.24641576;stroke:none"
     inkscape:connector-curvature="0"
     sodipodi:nodetypes="ccccccccccccccccccccccccccccccccccccccccccccccccccc" />
  <path
     style="fill:#000000;fill-opacity:0.43010753;stroke:none"
     d="m 29,14 -1,1 0,4.5625 -3.375,1.40625 1,1 L 29,20.5625 29,16 l 1,-1 6,0 -1,-1 -6,0 z m -8.3125,3.4375 -0.71875,0.3125 -4.21875,4.21875 0,1.4375 1,1 0,-1.4375 4.21875,-4.21875 0.71875,-0.3125 0.71875,0.3125 -1,-1 -0.71875,-0.3125 z m 22.625,0 -0.71875,0.3125 -3.21875,3.21875 -2.375,-1 0,0.59375 3.375,1.40625 3.21875,-3.21875 0.71875,-0.3125 0.71875,0.3125 -1,-1 -0.71875,-0.3125 z M 18.96875,26.625 17.5625,30 13,30 l -1,1 0,6 1,1 0,-6 1,-1 4.5625,0 1.40625,-3.375 -1,-1 z M 47.03125,30 47.4375,31 52,31 51,30 47.03125,30 z m -29.0625,9 1,2.375 -3.21875,3.21875 0,1.4375 1,1 0,-1.4375 L 19.96875,42.375 18.5625,39 17.96875,39 z M 28,49.03125 28,53 l 1,1 0,-4.5625 -1,-0.40625 z"
     id="path3851"
     inkscape:connector-curvature="0" />
  <path
     style="fill:#8febdd;fill-opacity:0.53725493;stroke:none"
     d="M 36 15 L 36 19.5625 L 37 19.96875 L 37 16 L 36 15 z M 48.25 21.96875 L 48.25 23.40625 L 45.03125 26.625 L 46.4375 30 L 47.03125 30 L 46.03125 27.625 L 49.25 24.40625 L 49.25 22.96875 L 48.25 21.96875 z M 52 31 L 52 37 L 51 38 L 46.4375 38 L 45.03125 41.375 L 46.03125 42.375 L 47.4375 39 L 52 39 L 53 38 L 53 32 L 52 31 z M 13 38 L 14 39 L 17.96875 39 L 17.5625 38 L 13 38 z M 48.25 44.59375 L 48.25 46.03125 L 44.03125 50.25 L 42.59375 50.25 L 43.59375 51.25 L 45.03125 51.25 L 49.25 47.03125 L 49.25 45.59375 L 48.25 44.59375 z M 24.625 47.03125 L 21.40625 50.25 L 19.96875 50.25 L 20.96875 51.25 L 22.40625 51.25 L 25.625 48.03125 L 28 49.03125 L 28 48.4375 L 24.625 47.03125 z M 39.375 47.03125 L 36 48.4375 L 36 53 L 35 54 L 29 54 L 30 55 L 36 55 L 37 54 L 37 49.4375 L 40.375 48.03125 L 39.375 47.03125 z "
     id="path3839" />
</svg>
