<?xml version="1.0" encoding="UTF-8" standalone="no"?>
<!-- Created with Inkscape (http://www.inkscape.org/) -->

<svg
   xmlns:dc="http://purl.org/dc/elements/1.1/"
   xmlns:cc="http://creativecommons.org/ns#"
   xmlns:rdf="http://www.w3.org/1999/02/22-rdf-syntax-ns#"
   xmlns:svg="http://www.w3.org/2000/svg"
   xmlns="http://www.w3.org/2000/svg"
   xmlns:sodipodi="http://sodipodi.sourceforge.net/DTD/sodipodi-0.dtd"
   xmlns:inkscape="http://www.inkscape.org/namespaces/inkscape"
   width="24"
   height="24"
   id="svg27665"
   version="1.1"
   inkscape:version="0.48.3.1 r9886"
   sodipodi:docname="aptana.svg">
  <defs
     id="defs27667" />
  <sodipodi:namedview
     id="base"
     pagecolor="#ffffff"
     bordercolor="#666666"
     borderopacity="1.0"
     inkscape:pageopacity="0.0"
     inkscape:pageshadow="2"
     inkscape:zoom="31.678384"
     inkscape:cx="7.6521539"
     inkscape:cy="11.567914"
     inkscape:document-units="px"
     inkscape:current-layer="layer1"
     showgrid="true"
     inkscape:window-width="1920"
     inkscape:window-height="1023"
     inkscape:window-x="-10"
     inkscape:window-y="35"
     inkscape:window-maximized="1"
     inkscape:snap-bbox="true"
     inkscape:bbox-paths="true"
     inkscape:bbox-nodes="true"
     inkscape:snap-bbox-edge-midpoints="true"
     inkscape:snap-bbox-midpoints="true"
     inkscape:object-paths="true"
     inkscape:snap-intersection-paths="true"
     inkscape:object-nodes="true"
     inkscape:snap-smooth-nodes="true"
     inkscape:snap-midpoints="true"
     inkscape:snap-object-midpoints="true"
     inkscape:snap-center="true"
     inkscape:snap-global="true"
     showguides="false"
     inkscape:guide-bbox="true"
     fit-margin-top="0"
     fit-margin-left="0"
     fit-margin-right="0"
     fit-margin-bottom="0"
     inkscape:showpageshadow="false">
    <sodipodi:guide
       orientation="0,1"
       position="-1494.2276,523.03618"
       id="guide4179" />
    <sodipodi:guide
       orientation="1,0"
       position="-1492.0847,520.17904"
       id="guide4181" />
    <inkscape:grid
       type="xygrid"
       id="grid4279"
       empspacing="5"
       visible="true"
       enabled="true"
       snapvisiblegridlinesonly="true"
       originx="6.6056504e-05px"
       originy="592.00001px" />
  </sodipodi:namedview>
  <metadata
     id="metadata27670">
    <rdf:RDF>
      <cc:Work
         rdf:about="">
        <dc:format>image/svg+xml</dc:format>
        <dc:type
           rdf:resource="http://purl.org/dc/dcmitype/StillImage" />
        <dc:title />
      </cc:Work>
    </rdf:RDF>
  </metadata>
  <g
     inkscape:label="Camada 1"
     inkscape:groupmode="layer"
     id="layer1"
     transform="translate(3393.2465,-1642.2411)">
    <path
       sodipodi:nodetypes="ccccccccccccccccccccccccccccccccccccccsssss"
       inkscape:connector-curvature="0"
       style="fill:#434a55;fill-opacity:0.6745098;fill-rule:nonzero;stroke:none"
       d="m -3390.2464,1645.2411 0,18 18,0 0,-18 z m 13.2426,3.3431 1.4143,1.4143 -1.5289,1.8191 c 0.2245,0.3813 0.3951,0.7811 0.5061,1.1984 l 2.3542,0.2307 0,1.9888 -2.3542,0.2307 c -0.111,0.4173 -0.2813,0.8175 -0.5061,1.1984 l 1.5289,1.8191 -1.4143,1.4143 -1.8191,-1.5289 c -0.3813,0.2245 -0.7811,0.3951 -1.1984,0.5061 l -0.2308,2.3542 -1.9887,0 -0.2307,-2.3542 c -0.4173,-0.111 -0.8175,-0.2813 -1.1985,-0.506 l -1.819,1.5288 -1.4143,-1.4143 1.5288,-1.819 c -0.2245,-0.3813 -0.395,-0.7812 -0.506,-1.1985 l -2.3542,-0.2308 0,-1.9886 2.3542,-0.2308 c 0.111,-0.4173 0.2813,-0.8175 0.506,-1.1985 l -1.5288,-1.819 1.4143,-1.4143 1.819,1.5288 c 0.3813,-0.2245 0.7812,-0.395 1.1985,-0.506 l 0.2307,-2.3542 1.9887,0 0.2308,2.3542 c 0.4173,0.111 0.8175,0.2813 1.1984,0.5061 z m -2.2917,3.706 c -1.0775,-1.0774 -2.8243,-1.0774 -3.9018,0 -1.0774,1.0775 -1.0774,2.8243 0,3.9018 1.0775,1.0774 2.8243,1.0774 3.9018,0 1.0774,-1.0775 1.0774,-2.8243 0,-3.9018 z"
       id="path2988" />
  </g>
</svg>
