<?xml version="1.0" encoding="UTF-8" standalone="no"?>
<!-- Created with Inkscape (http://www.inkscape.org/) -->

<svg
   xmlns:dc="http://purl.org/dc/elements/1.1/"
   xmlns:cc="http://creativecommons.org/ns#"
   xmlns:rdf="http://www.w3.org/1999/02/22-rdf-syntax-ns#"
   xmlns:svg="http://www.w3.org/2000/svg"
   xmlns="http://www.w3.org/2000/svg"
   xmlns:sodipodi="http://sodipodi.sourceforge.net/DTD/sodipodi-0.dtd"
   xmlns:inkscape="http://www.inkscape.org/namespaces/inkscape"
   width="22"
   height="22"
   id="svg27665"
   version="1.1"
   inkscape:version="0.48.3.1 r9886"
   sodipodi:docname="audio-volume-muted-blocking-panel.svg">
  <defs
     id="defs27667" />
  <sodipodi:namedview
     id="base"
     pagecolor="#cbcdd6"
     bordercolor="#666666"
     borderopacity="1.0"
     inkscape:pageopacity="1"
     inkscape:pageshadow="2"
     inkscape:zoom="22.627418"
     inkscape:cx="14.08011"
     inkscape:cy="13.018546"
     inkscape:document-units="px"
     inkscape:current-layer="layer1"
     showgrid="true"
     inkscape:window-width="1920"
     inkscape:window-height="1033"
     inkscape:window-x="-10"
     inkscape:window-y="25"
     inkscape:window-maximized="1"
     inkscape:snap-bbox="true"
     inkscape:bbox-paths="true"
     inkscape:bbox-nodes="true"
     inkscape:snap-bbox-edge-midpoints="true"
     inkscape:snap-bbox-midpoints="true"
     inkscape:object-paths="true"
     inkscape:snap-intersection-paths="true"
     inkscape:object-nodes="true"
     inkscape:snap-smooth-nodes="true"
     inkscape:snap-midpoints="true"
     inkscape:snap-object-midpoints="true"
     inkscape:snap-center="true"
     inkscape:snap-global="true"
     showguides="true"
     inkscape:guide-bbox="true"
     fit-margin-top="0"
     fit-margin-left="0"
     fit-margin-right="0"
     fit-margin-bottom="0"
     inkscape:showpageshadow="false">
    <inkscape:grid
       type="xygrid"
       id="grid3070"
       empspacing="5"
       visible="true"
       enabled="true"
       snapvisiblegridlinesonly="true"
       originx="-47.999653px"
       originy="-0.00031276823px" />
  </sodipodi:namedview>
  <metadata
     id="metadata27670">
    <rdf:RDF>
      <cc:Work
         rdf:about="">
        <dc:format>image/svg+xml</dc:format>
        <dc:type
           rdf:resource="http://purl.org/dc/dcmitype/StillImage" />
        <dc:title />
      </cc:Work>
    </rdf:RDF>
  </metadata>
  <g
     inkscape:label="Camada 1"
     inkscape:groupmode="layer"
     id="layer1"
     transform="translate(3316.4171,-2094.7186)">
    <path
       inkscape:connector-curvature="0"
       id="path2991"
       d="m -3304.8968,2097.7187 -0.3009,0.3758 -1.8269,2.2844 -3.7436,1.4039 -0.6489,0.2432 0,0.6927 0,6.0005 0,0.6927 0.6489,0.2432 3.7425,1.4027 1.828,2.2857 0.3009,0.3757 0.4806,0 2.9991,0 1.0004,0 0,-1.0005 0,-13.9995 0,-1.0005 -1.0004,0 -2.9991,0 -0.4806,0 z m 0.9612,1.9998 1.5192,0 0,12.0009 -1.5192,0 -1.7001,-2.1254 -0.1717,-0.2144 -0.2582,-0.097 -3.3506,-1.2575 0,-4.6138 3.3506,-1.2564 0.2582,-0.097 0.1717,-0.2144 1.7001,-2.1254 z"
       style="font-size:medium;font-style:normal;font-variant:normal;font-weight:normal;font-stretch:normal;text-indent:0;text-align:start;text-decoration:none;line-height:normal;letter-spacing:normal;word-spacing:normal;text-transform:none;direction:ltr;block-progression:tb;writing-mode:lr-tb;text-anchor:start;baseline-shift:baseline;color:#000000;fill:#4a97e5;fill-opacity:1;fill-rule:nonzero;stroke:none;stroke-width:2;marker:none;visibility:visible;display:inline;overflow:visible;enable-background:accumulate;font-family:Sans;-inkscape-font-specification:Sans" />
    <path
       style="font-size:medium;font-style:normal;font-variant:normal;font-weight:normal;font-stretch:normal;text-indent:0;text-align:start;text-decoration:none;line-height:normal;letter-spacing:normal;word-spacing:normal;text-transform:none;direction:ltr;block-progression:tb;writing-mode:lr-tb;text-anchor:start;baseline-shift:baseline;color:#000000;fill:#404957;fill-opacity:0.230837;fill-rule:nonzero;stroke:none;stroke-width:1;marker:none;visibility:visible;display:inline;overflow:visible;enable-background:accumulate;font-family:Sans;-inkscape-font-specification:Sans"
       d="m -3304.8859,2097.7186 -0.3125,0.375 -1.8125,2.2813 -3.75,1.4062 -0.6562,0.25 0,0.6875 0,6 0,0.6875 0.6562,0.25 0.3438,0.125 0,-0.062 0,-6 0,-0.6875 0.6562,-0.25 3.75,-1.4062 1.8125,-2.2813 0.3125,-0.375 0.4688,0 3,0 0,-1 -1,0 -3,0 -0.4688,0 z m 2.4688,3 0,11 -1.3125,0 0.7812,1 1.5313,0 0,-12 -1,0 z m -6,7.6875 0,0.625 3.3125,1.25 -0.5313,-0.6875 -0.1562,-0.2187 -0.2813,-0.094 -2.3437,-0.875 z m 2.125,3.5313 1.0937,1.4062 0.3125,0.375 0.1875,0 -1.3125,-1.6562 -0.2812,-0.125 z"
       id="path3318"
       inkscape:connector-curvature="0" />
  </g>
</svg>
