<?xml version="1.0" encoding="UTF-8" standalone="no"?>
<!-- Created with Inkscape (http://www.inkscape.org/) -->

<svg
   xmlns:dc="http://purl.org/dc/elements/1.1/"
   xmlns:cc="http://creativecommons.org/ns#"
   xmlns:rdf="http://www.w3.org/1999/02/22-rdf-syntax-ns#"
   xmlns:svg="http://www.w3.org/2000/svg"
   xmlns="http://www.w3.org/2000/svg"
   xmlns:sodipodi="http://sodipodi.sourceforge.net/DTD/sodipodi-0.dtd"
   xmlns:inkscape="http://www.inkscape.org/namespaces/inkscape"
   id="svg27665"
   height="22"
   width="22"
   version="1.1"
   inkscape:version="0.48.3.1 r9886"
   sodipodi:docname="haguichi-connected.svg">
  <defs
     id="defs8" />
  <sodipodi:namedview
     pagecolor="#ffffff"
     bordercolor="#666666"
     borderopacity="1"
     objecttolerance="10"
     gridtolerance="10"
     guidetolerance="10"
     inkscape:pageopacity="0"
     inkscape:pageshadow="2"
     inkscape:window-width="1920"
     inkscape:window-height="1035"
     id="namedview6"
     showgrid="false"
     inkscape:zoom="14.750027"
     inkscape:cx="7.9999852"
     inkscape:cy="7.9999852"
     inkscape:window-x="-1"
     inkscape:window-y="23"
     inkscape:window-maximized="1"
     inkscape:current-layer="svg27665" />
  <metadata
     id="metadata27670">
    <rdf:RDF>
      <cc:Work
         rdf:about="">
        <dc:format>image/svg+xml</dc:format>
        <dc:type
           rdf:resource="http://purl.org/dc/dcmitype/StillImage" />
        <dc:title />
      </cc:Work>
    </rdf:RDF>
  </metadata>
  <g
     id="layer1"
     transform="translate(3367.4171,-2124.7186)">
    <path
       id="path3939"
       d="m -3353.417,2127.719 c -1.6569,0 -3,1.3431 -3,3 0,0.3693 0.097,0.7045 0.2188,1.0313 l -1.6875,1.4062 c -0.4497,-0.269 -0.9692,-0.4375 -1.5313,-0.4375 -1.6569,0 -3,1.3431 -3,3 0,1.6569 1.3431,3 3,3 0.5621,0 1.0816,-0.1685 1.5313,-0.4375 l 1.6875,1.4063 c -0.1221,0.3267 -0.2188,0.6619 -0.2188,1.0312 0,1.6569 1.3431,3 3,3 1.6569,0 3,-1.3431 3,-3 0,-1.6569 -1.3431,-3 -3,-3 -0.5621,0 -1.0816,0.1685 -1.5312,0.4375 l -1.6875,-1.4062 c 0.122,-0.3268 0.2187,-0.662 0.2187,-1.0313 0,-0.3693 -0.097,-0.7045 -0.2187,-1.0312 l 1.6875,-1.4063 c 0.4496,0.269 0.9691,0.4375 1.5312,0.4375 1.6569,0 3,-1.3431 3,-3 0,-1.6569 -1.3431,-3 -3,-3 z"
       inkscape:connector-curvature="0"
       style="fill:#434a54;fill-opacity:0.6745098;fill-rule:nonzero" />
  </g>
</svg>
