<?xml version="1.0" encoding="UTF-8" standalone="no"?>
<!-- Created with Inkscape (http://www.inkscape.org/) -->

<svg
   xmlns:dc="http://purl.org/dc/elements/1.1/"
   xmlns:cc="http://creativecommons.org/ns#"
   xmlns:rdf="http://www.w3.org/1999/02/22-rdf-syntax-ns#"
   xmlns:svg="http://www.w3.org/2000/svg"
   xmlns="http://www.w3.org/2000/svg"
   xmlns:sodipodi="http://sodipodi.sourceforge.net/DTD/sodipodi-0.dtd"
   xmlns:inkscape="http://www.inkscape.org/namespaces/inkscape"
   width="24"
   height="24"
   id="svg2"
   version="1.1"
   inkscape:version="0.48.3.1 r9886"
   sodipodi:docname="audio-headset.svg">
  <sodipodi:namedview
     id="base"
     pagecolor="#cbced6"
     bordercolor="#666666"
     borderopacity="1.0"
     inkscape:pageopacity="1"
     inkscape:pageshadow="2"
     inkscape:zoom="32"
     inkscape:cx="9.47967"
     inkscape:cy="8.744202"
     inkscape:document-units="px"
     inkscape:current-layer="layer1"
     showgrid="true"
     inkscape:window-width="1920"
     inkscape:window-height="1027"
     inkscape:window-x="-10"
     inkscape:window-y="31"
     inkscape:window-maximized="1"
     showguides="true"
     inkscape:guide-bbox="true"
     fit-margin-top="0"
     fit-margin-left="0"
     fit-margin-right="0"
     fit-margin-bottom="0">
    <inkscape:grid
       snapvisiblegridlinesonly="true"
       enabled="true"
       visible="true"
       empspacing="5"
       id="grid2816"
       type="xygrid"
       originx="-410px"
       originy="18.999958px" />
  </sodipodi:namedview>
  <defs
     id="defs4" />
  <metadata
     id="metadata7">
    <rdf:RDF>
      <cc:Work
         rdf:about="">
        <dc:format>image/svg+xml</dc:format>
        <dc:type
           rdf:resource="http://purl.org/dc/dcmitype/StillImage" />
        <dc:title />
      </cc:Work>
    </rdf:RDF>
  </metadata>
  <g
     transform="translate(-410,-1047.3622)"
     id="layer1"
     inkscape:groupmode="layer"
     inkscape:label="Layer 1">
    <path
       id="path2991"
       d="m 422,1051.3622 c -4.41828,0 -8,3.5818 -8,8 l 1,7 1,0 0,1 0,1 1,0 5,0 0,-1 -5,0 0,-1 1,0 0,-6 -3,0 1,-1 c 0,-3.3137 2.68629,-6 6,-6 3.31371,0 6,2.6863 6,6 l 1,1 -3,0 0,6 3,0 1,-7 c 0,-4.4182 -3.58172,-8 -8,-8 z"
       style="color:#000000;fill:#434a55;fill-opacity:0.6745119;fill-rule:nonzero;stroke:none;marker:none;visibility:visible;display:inline;overflow:visible;enable-background:accumulate"
       inkscape:connector-curvature="0" />
    <path
       style="font-size:medium;font-style:normal;font-variant:normal;font-weight:normal;font-stretch:normal;text-indent:0;text-align:start;text-decoration:none;line-height:normal;letter-spacing:normal;word-spacing:normal;text-transform:none;direction:ltr;block-progression:tb;writing-mode:lr-tb;text-anchor:start;baseline-shift:baseline;color:#000000;fill:#d1d4d6;fill-opacity:0.74329164;fill-rule:nonzero;stroke:none;stroke-width:2;marker:none;visibility:visible;display:inline;overflow:visible;enable-background:accumulate;font-family:Sans;-inkscape-font-specification:Sans"
       d="m 422,1050.1435 c -5.06682,0 -9.1875,4.152 -9.1875,9.2187 l 0,0.062 0,0.094 1,7 0.15625,0.8437 1.03125,0 0,2 1,0 6,0 0,-1 -6,0 0,-1 0,-1 -1,0 -1,-7 c 0,-0.2761 0.004,-0.5436 0.0312,-0.8125 0.32774,-3.2272 2.5877,-5.8775 5.59375,-6.8125 0.2505,-0.078 0.48961,-0.1655 0.75,-0.2187 0.52078,-0.1066 1.07272,-0.1563 1.625,-0.1563 4.41828,0 8,3.5818 8,8 l -1,7 -3,0 0,-6 3,0 -1,-1 -3,0 0,1 0,6 0,1 1,0 3,0 1.03125,0 0.15625,-0.8437 1,-7 0,-0.094 0,-0.062 c 0,-5.0667 -4.12068,-9.2187 -9.1875,-9.2187 z m -6,9.2187 -1,1 3,0 0,6 -1,0 0,1 1,0 1,0 0,-1 0,-6 0,-1 -3,0 z"
       id="path2984"
       inkscape:connector-curvature="0" />
  </g>
</svg>
