<svg xmlns="http://www.w3.org/2000/svg" viewBox="0 0 64 64"><g color="#000"><path d="m0 4v30 28l2 2h30 30l2-2v-28-30h-32-32" fill="#d02a22"/><path d="m2 0l-2 1v3h32 32v-3l-2-1h-30-30" fill="#ff6c4e"/></g><path d="m0 3v3l2-2" fill="#ff8a72"/><path d="m64 6l-2-2 2-1z" fill="#e64a37"/><g color="#000"><path d="m37.79 34.08l1.438-.746-1.438.746" fill="#fff" fill-opacity=".678"/><path d="m15 17l10 10h14v14l10 9.903v-33.903zm10 10l-10 10v14h14l10-10h-14z" fill="#ffdfde"/><path d="m49 18v32.906l1 1v-33.906h-1m-24 9l1 1h13v-1h-14m1 1l-1 1v12h1v-13m12 14l-9 9h-13v1h14l10-10h-2" fill="#680500" fill-opacity=".139"/></g></svg>