<svg xmlns="http://www.w3.org/2000/svg" viewBox="0 0 64 64"><g color="#000"><path d="m0 4v30 28l2 2h30 30l2-2v-28-30h-32-32" fill="#1c75de"/><path d="m2 0l-2 1v3h19.563 19.563 24.875v-3l-2-1h-22.875-19.563-17.563" fill="#5eb5ff"/></g><path d="m64 6l-2-2 2-1z" fill="#3d95ee"/><path d="m0 3v3l2-2" fill="#6ac3ff"/><path d="m35.09 17.938l-20.09 6.06 9.656 29.844 13.188 10.156h24.16l2-2v-21.844" fill="#00285f" fill-opacity=".174"/><path d="m32 14.394l-17 9.785 17 9.826 17-9.826-17-9.785" fill="#82cbff"/><path d="m49 24.18l-17.01 9.82.01 19.606 17-9.826z" fill="#397cd4"/><path d="m15 43.78l17 9.826-.01-19.606-16.99-9.82z" fill="#439ae3"/></svg>