<svg xmlns="http://www.w3.org/2000/svg" viewBox="0 0 64 64"><g color="#000"><path d="m0 4v30 28l2 2h30 30l2-2v-28-30h-32-32" fill="#67ac28"/><path d="m2 0l-2 1v3h19.563 19.563 24.875v-3l-2-1h-22.875-19.563-17.563" fill="#aaea50"/></g><path d="m64 6l-2-2 2-1z" fill="#87c93b"/><path d="m0 3v3l2-2" fill="#baf46a"/><path d="m32.03 25c-4.971 0-9 4.03-9 9 0 4.971 4.03 9 9 9 4.971 0 9-4.03 9-9 0-4.971-4.03-9-9-9m0 6.03c1.648 0 2.969 1.321 2.969 2.969 0 1.648-1.321 2.969-2.969 2.969-1.648 0-3-1.321-3-2.969 0-1.648 1.352-2.969 3-2.969" fill="#477b7f"/><path d="m32.03 6.03c-15.447 0-27.969 12.522-27.969 27.969 0 15.447 12.522 27.969 27.969 27.969 15.447 0 27.969-12.522 27.969-27.969 0-15.447-12.522-27.969-27.969-27.969m0 18.743c5.122 0 9.226 4.104 9.226 9.226 0 5.122-4.104 9.226-9.226 9.226-5.122 0-9.323-4.104-9.323-9.226 0-5.122 4.201-9.226 9.323-9.226z" fill="#b5d0dd"/><g color="#000"><path d="m12.25 14.212c-5.467 5.467-8.198 12.634-8.192 19.799h18.697c.02-2.369.941-4.739 2.748-6.546 1.805-1.805 4.153-2.71 6.502-2.715v-18.73c-7.15.006-14.299 2.737-19.755 8.192m19.755 29.05v18.697c7.165.006 14.332-2.726 19.799-8.192 5.456-5.456 8.187-12.604 8.192-19.755h-18.73c-.006 2.349-.91 4.697-2.715 6.502-1.808 1.808-4.177 2.728-6.546 2.748" fill-opacity=".524" fill="#fff"/><path d="m32.02 23c-6.069 0-11 4.931-11 11 0 6.069 4.931 11 11 11 6.069 0 11-4.931 11-11 0-6.069-4.931-11-11-11m0 1c5.529 0 10 4.471 10 10 0 5.529-4.471 10-10 10-5.529 0-10-4.471-10-10 0-5.529 4.471-10 10-10" shape-rendering="auto" mix-blend-mode="normal" color-interpolation-filters="linearRGB" isolation="auto" white-space="normal" fill="#355177" solid-opacity="1" image-rendering="auto" fill-opacity=".383" solid-color="#000000" color-rendering="auto" shape-padding="0" color-interpolation="sRGB"/><g fill="#9a38c3"><path d="m32 11c-12.667 0-23 10.333-23 23 0 12.667 10.333 23 23 23v-6c-9.424 0-17-7.576-17-17 0-9.424 7.576-17 17-17 9.424 0 17 7.576 17 17h6c0-12.667-10.333-23-23-23" opacity=".159"/><path d="m33.375 11.03c-10.664-.631-20.725 6.325-23.594 17.03-3.278 12.235 4.046 24.878 16.281 28.16l1.531-5.813c-9.103-2.439-14.439-11.709-12-20.813 2.439-9.103 11.709-14.439 20.813-12 7.446 1.995 12.594 8.697 12.594 16.406h6c0-10.395-7.02-19.528-17.06-22.22-1.529-.41-3.039-.66-4.563-.75" opacity=".159"/><path d="m30.406 11.06c-7.37.526-14.354 4.581-18.313 11.438-6.334 10.97-2.564 25.07 8.406 31.406l3-5.188c-8.162-4.712-10.931-15.06-6.219-23.22 4.712-8.162 15.06-10.931 23.22-6.219 5.264 3.039 8.5 8.64 8.5 14.719h6c0-8.212-4.388-15.8-11.5-19.906-4.114-2.375-8.672-3.347-13.09-3.03" opacity=".159"/><path d="m32 11.03c-5.892 0-11.772 2.24-16.25 6.719-8.957 8.957-8.957 23.543 0 32.5l4.219-4.219c-6.664-6.664-6.664-17.398 0-24.06 6.664-6.664 17.398-6.664 24.06 0 3.189 3.189 4.969 7.521 4.969 12.03h6c0-6.099-2.437-11.937-6.75-16.25-4.478-4.478-10.358-6.719-16.25-6.719" opacity=".159"/><path d="m33.594 11.06c-4.422-.316-8.98.656-13.09 3.03-10.97 6.334-14.74 20.436-8.406 31.406l5.188-3c-4.712-8.162-1.943-18.507 6.219-23.22l.156-.094c8.137-4.584 18.381-1.796 23.06 6.313 1.492 2.584 2.281 5.516 2.281 8.5h6c0-4.04-1.075-8-3.094-11.5-3.958-6.856-10.942-10.912-18.313-11.438" opacity=".159"/><path d="m30.625 11.03c-1.523.09-3.033.34-4.563.75-12.235 3.278-19.56 15.921-16.281 28.16l5.813-1.531c-2.439-9.103 2.897-18.373 12-20.813 9.103-2.439 18.373 2.897 20.813 12 .385 1.435.594 2.921.594 4.406h6c0-2.01-.261-3.996-.781-5.938-2.869-10.706-12.93-17.662-23.594-17.03" opacity=".159"/><path d="m32 11c-12.667 0-23 10.333-23 23h6c0-9.424 7.576-17 17-17 9.424 0 17 7.576 17 17h6c0-12.667-10.333-23-23-23" opacity=".159"/><path d="m33.375 11.03c-10.664-.631-20.725 6.325-23.594 17.03l5.813 1.531c2.439-9.103 11.709-14.439 20.813-12 7.446 1.995 12.594 8.697 12.594 16.406h6c0-10.395-7.02-19.528-17.06-22.22-1.529-.41-3.039-.66-4.563-.75" opacity=".159"/><path d="m30.406 11.06c-7.37.526-14.354 4.581-18.313 11.438l5.188 3c4.712-8.162 15.06-10.931 23.22-6.219 5.264 3.039 8.5 8.64 8.5 14.719h6c0-8.212-4.388-15.8-11.5-19.906-4.114-2.375-8.672-3.347-13.09-3.03" opacity=".159"/><path d="m32 11.03c-5.892 0-11.772 2.24-16.25 6.719l4.219 4.219c6.664-6.664 17.398-6.664 24.06 0 3.189 3.189 4.969 7.521 4.969 12.03h6c0-6.099-2.437-11.937-6.75-16.25-4.478-4.478-10.358-6.719-16.25-6.719" opacity=".159"/><path d="m49 34v10h-8l11 16 11-16h-8v-10h-6"/><path d="m54.22 28.06l-5.813 1.531c.385 1.435.594 2.921.594 4.406h6c0-2.01-.261-3.996-.781-5.938" opacity=".159"/><path d="m51.906 22.5l-5.188 3c1.492 2.584 2.281 5.516 2.281 8.5h6c0-4.04-1.075-8-3.094-11.5" opacity=".159"/><path d="m48.25 17.75l-4.219 4.219c3.189 3.189 4.969 7.521 4.969 12.03h6c0-6.099-2.437-11.937-6.75-16.25" opacity=".159"/><path d="m43.5 14.09l-3 5.188c5.264 3.039 8.5 8.64 8.5 14.719h6c0-8.212-4.388-15.8-11.5-19.906" opacity=".159"/><path d="m37.938 11.781l-1.531 5.813c7.446 1.995 12.594 8.697 12.594 16.406h6c0-10.395-7.02-19.528-17.06-22.22" opacity=".159"/><path d="m32 11v6c9.424 0 17 7.576 17 17h6c0-12.667-10.333-23-23-23" opacity=".159"/><path d="m33.594 11.06c-4.422-.316-8.98.656-13.09 3.03l3 5.188c8.162-4.712 18.507-1.943 23.22 6.219 1.492 2.584 2.281 5.516 2.281 8.5h6c0-4.04-1.075-8-3.094-11.5-3.958-6.856-10.942-10.912-18.313-11.438" opacity=".159"/><path d="m30.625 11.03c-1.523.09-3.033.34-4.563.75l1.531 5.813c9.103-2.439 18.373 2.897 20.813 12 .385 1.435.594 2.921.594 4.406h6c0-2.01-.261-3.996-.781-5.938-2.869-10.706-12.93-17.662-23.594-17.03" opacity=".159"/></g></g></svg>