<svg xmlns="http://www.w3.org/2000/svg" xmlns:xlink="http://www.w3.org/1999/xlink" viewBox="0 0 64 64"><defs><linearGradient y2="8" x2="0" y1="58" gradientUnits="userSpaceOnUse" id="0"><stop stop-color="#ebebeb"/><stop offset=".5" stop-color="#ebebeb"/><stop offset=".503" stop-color="#d6d6d6"/><stop offset="1" stop-color="#d6d6d6"/></linearGradient><linearGradient y2="0" x2="0" y1="26" gradientTransform="scale(1 .5)" gradientUnits="userSpaceOnUse" id="1"><stop stop-color="#aaa"/><stop offset=".827" stop-color="#aaa"/><stop offset=".827" stop-color="#fff"/><stop offset="1" stop-color="#fff"/></linearGradient></defs><g color="#000"><path d="m0 2v32 28l2 2h30 30l2-2v-28-32h-32z" fill="#9e6e31"/><path d="m2 0l-2 1v1h32 32v-1l-2-1h-30" fill="#ffbc35"/></g><path d="m64 4l-2-2 2-1" fill="#1f0700" fill-opacity=".138"/><path d="m0 1v3l2-2" fill="#fff38e" fill-opacity=".552"/><g fill="#fc0" color="#000"><g fill-opacity=".036"><path d="m2 0l-2 1v3 18.5h2v-22.5m2 0v3.5h2v-3.5h-2m4 0v17.5h2v-17.5h-2m4 0v32.5h2v-32.5h-2m8 0v27.5h2v-27.5h-2m16 0v.5h2v-.5h-2zm12 0v19.5h2v-19.5h-2m4 0v33.5h2v-33.5h-2m4 0v14.5h2v-14.5h-2m4 0v30.5h2v-30.5h-2m-20 .5v37h2v-37h-2zm-36 5v37h2v-37h-2m28 0v37h2v-37h-2m-8 1v37h2v-37h-2m-8 3v37h2v-37h-2m12 2v37h2v-37h-2m16 5v37h2v-37h-2m-36 3v37h2v-37h-2m28 0v37h2v-37h-2m12 2v37h2v-37h-2m-48 3v9.5 27.5h2v-37h-2m60 8v31.5h2v-31.5h-2m-8 5v26.5h2v-26.5h-2m4 14v12.5h2v-12.5h-2"/><path d="m2 0l-2 1v3 26h2v-30m2 0v14h2v-14h-2m4 0v33h2v-33h-2zm4 0v19h2v-19h-2m8 0v37h2v-37h-2m20 0v27h2v-27h-2m8 0v32h2v-32h-2m4 0v17h2v-17h-2m4 0v3h2v-3h-2m4 0v22h2v-22h-2m-32 5v37h2v-37h-2m28 0v37h2v-37h-2m-20 1v37h2v-37h-2m8 3v37h2v-37h-2m-12 2v37h2v-37h-2m-16 5v37h2v-37h-2m8 3v37h2v-37h-2m28 0v37h2v-37h-2m-40 2v37h2v-37h-2m48 3v37h2v-37h-2m-60 8v2 28l2 2v-32h-2m8 5v27h2v-27h-2m-4 14v13h2v-13h-2"/><path d="m2 0l-2 1v3 24.5h2v-28.5m2 0v12.5h2v-12.5h-2m4 0v31.5h2v-31.5h-2m4 0v17.5h2v-17.5h-2m8 0v35.5h2v-35.5h-2m20 0v25.5h2v-25.5h-2m8 0v30.5h2v-30.5h-2m4 0v15.5h2v-15.5h-2m4 0v1.5h2v-1.5h-2zm4 0v20.5h2v-20.5h-2m-32 3.5v37h2v-37h-2zm28 0v37h2v-37h-2m-20 1v37h2v-37h-2m8 3v37h2v-37h-2m-12 2v37h2v-37h-2m-16 5v37h2v-37h-2m8 3v37h2v-37h-2m28 0v37h2v-37h-2m-40 2v37h2v-37h-2m48 3v37h2v-37h-2m-60 8v3.5 28l2 2v-33.5h-2m8 5v28.5h2v-28.5h-2m-4 14v14.5h2v-14.5h-2"/><path d="m2 0l-2 1v19h2v-20m2 0v1h2v-1h-2m4 0v15h2v-15h-2zm4 0v30h2v-30h-2m8 0v25h2v-25h-2m20 0v35h2v-35h-2m8 0v17h2v-17h-2m4 0v31h2v-31h-2m4 0v12h2v-12h-2m4 0v28h2v-28h-2m-56 3v37h2v-37h-2m28 0v37h2v-37h-2zm-8 1v37h2v-37h-2m-8 3v37h2v-37h-2m12 2v37h2v-37h-2m16 5v37h2v-37h-2m-36 3v37h2v-37h-2m28 0v37h2v-37h-2m12 2v37h2v-37h-2m-48 3v12 25h2v-37h-2m60 8v34h2v-34h-2zm-8 5v29h2v-29h-2m4 14v15h2v-15h-2"/><path d="m2 0l-2 1v3 29.5h2v-33.5m2 0v14.5h2v-14.5h-2m4 0v28.5h2v-28.5h-2m16 0v9.5h2v-9.5h-2zm8 0v6.5h2v-6.5h-2m4 0v11.5h2v-11.5h-2m12 0v30.5h2v-30.5h-2m8 0v25.5h2v-25.5h-2m-36 1.5v37h2v-37h-2zm40 3v37h2v-37h-2m-48 2v37h2v-37h-2m40 1v37h2v-37h-2m-12 4v37h2v-37h-2m-36 5v37h2v-37h-2m28 0v37h2v-37h-2m-8 1v37h2v-37h-2m-8 3v37h2v-37h-2m12 2v37h2v-37h-2m16 5v36.5h2v-36.5h-2m-36 3v33.5h2v-33.5h-2m28 0v33.5h2v-33.5h-2m12 2v31.5h2v-31.5h-2m-48 3v26.5l2 2v-28.5h-2m60 8v20.5h2v-20.5h-2m-8 5v15.5h2v-15.5h-2m4 14v1.5h2v-1.5h-2"/><path d="m4 0v25h2v-25h-2m8 0v30h2v-30h-2zm12 0v11h2v-11h-2m4 0v6h2v-6h-2m8 0v9h2v-9h-2m16 0v28h2v-28h-2m4 0v14h2v-14h-2m4 0v33h2v-33h-2m-20 1v37h2v-37h-2m-40 3v30 7h2v-37h-2m48 2v37h2v-37h-2zm-40 1v37h2v-37h-2m12 4v37h2v-37h-2zm8 5v37h2v-37h-2m28 0v37h2v-37h-2m-20 1v37h2v-37h-2m8 3v37h2v-37h-2m-12 2v37h2v-37h-2m-16 5v37h2v-37h-2m8 3v34h2v-34h-2m28 0v34h2v-34h-2m-40 2v32h2v-32h-2m48 3v29h2v-29h-2m-60 8v19l2 2v-21h-2m8 5v16h2v-16h-2zm-4 14v2h2v-2h-2"/></g><g transform="translate(2)" fill-opacity=".015"><path d="m2 0l-2 1v3 18.5h2v-22.5m2 0v3.5h2v-3.5h-2m4 0v17.5h2v-17.5h-2m4 0v32.5h2v-32.5h-2m8 0v27.5h2v-27.5h-2m16 0v.5h2v-.5h-2zm12 0v19.5h2v-19.5h-2m4 0v33.5h2v-33.5h-2m4 0v14.5h2v-14.5h-2m4 0v30.5h2v-30.5h-2m-20 .5v37h2v-37h-2zm-36 5v37h2v-37h-2m28 0v37h2v-37h-2m-8 1v37h2v-37h-2m-8 3v37h2v-37h-2m12 2v37h2v-37h-2m16 5v37h2v-37h-2m-36 3v37h2v-37h-2m28 0v37h2v-37h-2m12 2v37h2v-37h-2m-48 3v9.5 27.5h2v-37h-2m60 8v31.5h2v-31.5h-2m-8 5v26.5h2v-26.5h-2m4 14v12.5h2v-12.5h-2"/><path d="m2 0l-2 1v3 26h2v-30m2 0v14h2v-14h-2m4 0v33h2v-33h-2zm4 0v19h2v-19h-2m8 0v37h2v-37h-2m20 0v27h2v-27h-2m8 0v32h2v-32h-2m4 0v17h2v-17h-2m4 0v3h2v-3h-2m4 0v22h2v-22h-2m-32 5v37h2v-37h-2m28 0v37h2v-37h-2m-20 1v37h2v-37h-2m8 3v37h2v-37h-2m-12 2v37h2v-37h-2m-16 5v37h2v-37h-2m8 3v37h2v-37h-2m28 0v37h2v-37h-2m-40 2v37h2v-37h-2m48 3v37h2v-37h-2m-60 8v2 28l2 2v-32h-2m8 5v27h2v-27h-2m-4 14v13h2v-13h-2"/><path d="m2 0l-2 1v3 24.5h2v-28.5m2 0v12.5h2v-12.5h-2m4 0v31.5h2v-31.5h-2m4 0v17.5h2v-17.5h-2m8 0v35.5h2v-35.5h-2m20 0v25.5h2v-25.5h-2m8 0v30.5h2v-30.5h-2m4 0v15.5h2v-15.5h-2m4 0v1.5h2v-1.5h-2zm4 0v20.5h2v-20.5h-2m-32 3.5v37h2v-37h-2zm28 0v37h2v-37h-2m-20 1v37h2v-37h-2m8 3v37h2v-37h-2m-12 2v37h2v-37h-2m-16 5v37h2v-37h-2m8 3v37h2v-37h-2m28 0v37h2v-37h-2m-40 2v37h2v-37h-2m48 3v37h2v-37h-2m-60 8v3.5 28l2 2v-33.5h-2m8 5v28.5h2v-28.5h-2m-4 14v14.5h2v-14.5h-2"/><path d="m2 0l-2 1v19h2v-20m2 0v1h2v-1h-2m4 0v15h2v-15h-2zm4 0v30h2v-30h-2m8 0v25h2v-25h-2m20 0v35h2v-35h-2m8 0v17h2v-17h-2m4 0v31h2v-31h-2m4 0v12h2v-12h-2m4 0v28h2v-28h-2m-56 3v37h2v-37h-2m28 0v37h2v-37h-2zm-8 1v37h2v-37h-2m-8 3v37h2v-37h-2m12 2v37h2v-37h-2m16 5v37h2v-37h-2m-36 3v37h2v-37h-2m28 0v37h2v-37h-2m12 2v37h2v-37h-2m-48 3v12 25h2v-37h-2m60 8v34h2v-34h-2zm-8 5v29h2v-29h-2m4 14v15h2v-15h-2"/><path d="m2 0l-2 1v3 29.5h2v-33.5m2 0v14.5h2v-14.5h-2m4 0v28.5h2v-28.5h-2m16 0v9.5h2v-9.5h-2zm8 0v6.5h2v-6.5h-2m4 0v11.5h2v-11.5h-2m12 0v30.5h2v-30.5h-2m8 0v25.5h2v-25.5h-2m-36 1.5v37h2v-37h-2zm40 3v37h2v-37h-2m-48 2v37h2v-37h-2m40 1v37h2v-37h-2m-12 4v37h2v-37h-2m-36 5v37h2v-37h-2m28 0v37h2v-37h-2m-8 1v37h2v-37h-2m-8 3v37h2v-37h-2m12 2v37h2v-37h-2m16 5v36.5h2v-36.5h-2m-36 3v33.5h2v-33.5h-2m28 0v33.5h2v-33.5h-2m12 2v31.5h2v-31.5h-2m-48 3v26.5l2 2v-28.5h-2m60 8v20.5h2v-20.5h-2m-8 5v15.5h2v-15.5h-2m4 14v1.5h2v-1.5h-2"/><path d="m4 0v25h2v-25h-2m8 0v30h2v-30h-2zm12 0v11h2v-11h-2m4 0v6h2v-6h-2m8 0v9h2v-9h-2m16 0v28h2v-28h-2m4 0v14h2v-14h-2m4 0v33h2v-33h-2m-20 1v37h2v-37h-2m-40 3v30 7h2v-37h-2m48 2v37h2v-37h-2zm-40 1v37h2v-37h-2m12 4v37h2v-37h-2zm8 5v37h2v-37h-2m28 0v37h2v-37h-2m-20 1v37h2v-37h-2m8 3v37h2v-37h-2m-12 2v37h2v-37h-2m-16 5v37h2v-37h-2m8 3v34h2v-34h-2m28 0v34h2v-34h-2m-40 2v32h2v-32h-2m48 3v29h2v-29h-2m-60 8v19l2 2v-21h-2m8 5v16h2v-16h-2zm-4 14v2h2v-2h-2"/></g></g><path d="m11 8v2h-1l-2 48 2 2h47v-2h1v-50l-2-2z" fill="#421300" fill-opacity=".164"/><path d="m9 6h47v50h-47" fill="#bcbcbc" color="#000"/><g transform="matrix(.90163.10652-.10652.90163 2.521 16.461)"><path fill="#d8d8d8" color="#000" d="m5.42 8.487h30.16v34.03h-30.16z" id="2"/><g transform="matrix(.25387 0 0 .25578 2.79 2.816)" color="#000"><path fill="#9e6e59" d="m19 32h100v98h-100z"/><path transform="matrix(3.83226 0 0 3.80361-50.955-42.492)" d="m19.531 26.313c-.21.027-.543.131-.656.188-.46.23-.427-.059-.625.156v18.688h26.09v-8.125c-.149-.111-.267-.188-.344-.219.042-.125.125-.243.125-.375 0-.247-1.093-4.047-1.125-4.063-.726-.363-3.662 1.55-4 1.438-.136-.045-.389-1.014-.438-1.063-.115-.115-.38-.003-.563-.125-.272-.181-.457-.541-.75-.688-.307-.153-.763.451-.938.625-.023.023-.289.36-.313.313-.288-.576-.443-1.298-.563-1.938-.024-.128-.173-.72-.25-.875-.036-.071-.142-.181-.188-.25-.016.029-.042.052-.063.063-.157.079-.521-.073-.625-.125-.082-.041-.022-.261-.125-.313-.025-.013-1.124.749-1.188.813-.333.333-.547 1.016-.688 1.438-.035.106-.172.47-.188.5-.028.056.063.188 0 .188-.277 0-.84-1.533-1.313-1.375-.136.045-1.063 1.064-1.125 1.25-.024.071-.05.188-.125.188-.002 0-.849-1.276-.938-1.375-.106-.119-.669-.866-.688-.875-.282-.141-.979-.166-1.188-.375-.257-.257-.587-.641-.938-.875-.175-.117-.845-.033-.875-.063-.376-.376-.7-.988-1.188-1.313-.603-.402-1.414 1.731-1.75 1.563-.132-.066-.231-.323-.313-.438-.435-.61-1.45-2.287-2-2.563-.03-.015-.086-.009-.156 0m15.469 3.688c.016-.029.023-.063 0-.063-.042 0-.024.026 0 .063" fill="#9e3838"/></g></g><g fill="#421300" fill-opacity=".164" color="#000"><path d="m61.48 13.618l-.535-.106-6.215 28.909-26.22-5.642-.285 1.286 26.76 5.748 6.501-30.2"/><path d="m34.397 29.12l-.847-.098-3.492 29.573-26.342-3.111-.14 1.127 27.897 4.434z"/></g><g transform="matrix(.88774.1903-.1903.88774 31.25-2.087)"><use xlink:href="#2"/><g transform="matrix(.25387 0 0 .25578 2.79 2.816)"><path fill="#7ebf38" color="#000" d="m19 32h100v98h-100z"/><g fill="#28331c" fill-opacity=".299"><path d="m114.07 57.59c.805.102 2.082.498 2.515.713 1.762.875 1.635-.223 2.395.594v71.08h-100v-30.904c.571-.421 1.023-.715 1.317-.832-.16-.475-.479-.925-.479-1.426 0-.94 4.19-15.392 4.311-15.452 2.781-1.38 14.03 5.897 15.329 5.468.521-.172 1.49-3.856 1.677-4.04.44-.437 1.456-.013 2.156-.475 1.041-.689 1.751-2.058 2.874-2.615 1.175-.583 2.924 1.714 3.593 2.377.088.087 1.107 1.369 1.198 1.189 1.105-2.193 1.696-4.936 2.156-7.37.092-.487.662-2.74.958-3.328.136-.27.544-.689.719-.951.062.109.16.198.24.238.603.299 1.997-.278 2.395-.475.313-.155.085-.993.479-1.189.096-.048 4.308 2.85 4.551 3.09 1.275 1.265 2.097 3.865 2.635 5.468.136.404.66 1.786.719 1.902.107.213-.24.713 0 .713 1.061 0 3.218-5.829 5.03-5.23.521.172 4.073 4.046 4.311 4.755.091.271.191.713.479.713.009 0 3.255-4.853 3.593-5.23.407-.454 2.562-3.292 2.635-3.328 1.079-.536 3.751-.632 4.551-1.426.986-.979 2.249-2.439 3.593-3.328.672-.445.724-7.969.838-8.08 1.441-1.43 1.964-6.371 3.832-7.607 2.31-1.528 5.389-24.01 7.665-3.804 5.389-4.992 11.497 7.607 11.497 3.804 0-2.849-2.468 6.04-.359 4.992.114-.057.33-.034.599 0m-59.28 14.03c-.062-.109-.089-.238 0-.238.161 0 .093.099 0 .238"/><path d="m114.07 75.45c.805.077 2.082.376 2.515.537 1.762.659 1.635-.168 2.395.448v53.55h-100v-23.281c.571-.318 1.023-.539 1.317-.627-.16-.358-.479-.697-.479-1.075 0-.708 4.19-11.595 4.311-11.641 2.781-1.04 14.03 4.442 15.329 4.119.521-.13 1.49-2.905 1.677-3.044.44-.329 1.456-.01 2.156-.358 1.041-.519 1.751-1.55 2.874-1.97 1.175-.439 2.924 1.291 3.593 1.791.088.066 1.107 1.032 1.198.895 1.105-1.652 1.696-3.719 2.156-5.552.092-.367.662-2.064.958-2.507.136-.204.544-.519.719-.716.062.082.16.149.24.179.603.225 1.997-.209 2.395-.358.313-.117.085-.748.479-.895.096-.036 4.308 2.147 4.551 2.328 1.275.953 2.097 2.912 2.635 4.119.136.305.66 1.345.719 1.433.107.16-.24.537 0 .537 1.061 0 3.218-4.392 5.03-3.94.521.13 4.073 3.048 4.311 3.582.091.204.191.537.479.537.009 0 3.255-3.656 3.593-3.94.407-.342 2.562-2.48 2.635-2.507 1.079-.404 3.751-.476 4.551-1.075.986-.737 2.249-1.837 3.593-2.507.672-.335 3.239-.093 3.353-.179 1.441-1.078 2.683-2.83 4.551-3.761 2.31-1.151-1.677-5.16 4.431-7.949 5.389-1.015 7.352-3.476 7.665-3.804 1.669-1.747 1.365 8.421 3.473 7.633.114-.043.33-.025.599 0m-59.28 10.566c-.062-.082-.089-.179 0-.179.161 0 .093.075 0 .179"/><path d="m114.07 100.76c.805.041 2.082.201 2.515.288 1.762.353 1.635-.09 2.395.24v28.686h-100v-12.472c.571-.17 1.023-.289 1.317-.336-.16-.192-.479-.373-.479-.576 0-.379 4.19-6.212 4.311-6.236 2.781-.557 14.03 2.38 15.329 2.207.521-.07 1.49-1.556 1.677-1.631.44-.176 1.456-.005 2.156-.192 1.041-.278 1.751-.83 2.874-1.055 1.175-.235 2.924.692 3.593.959.088.035 1.107.553 1.198.48 1.105-.885 1.696-1.992 2.156-2.974.092-.197.662-1.106.958-1.343.136-.109.544-.278.719-.384.062.044.16.08.24.096.603.121 1.997-.112 2.395-.192.313-.063.085-.401.479-.48.096-.019 4.308 1.15 4.551 1.247 1.275.511 2.097 1.56 2.635 2.207.136.163.66.721.719.768.107.086-.24.288 0 .288 1.061 0 3.218-2.353 5.03-2.111.521.07 4.073 1.633 4.311 1.919.091.109.191.288.479.288.009 0 3.255-1.959 3.593-2.111.407-.183 2.562-1.329 2.635-1.343 1.079-.216 3.751-.255 4.551-.576.986-.395 2.249-.984 3.593-1.343.672-.179 3.239-.05 3.353-.096 1.441-.577 2.683-1.516 4.551-2.01 2.31-.617 5.419 2.656 6.706 2.399.506-.101.885-.496 1.198-.672 1.669-.936 5.556-3.511 7.665-3.934.114-.023.33-.014.599 0m-59.28 5.661c-.062-.044-.089-.096 0-.096.161 0 .093.04 0 .096"/></g></g></g><g color="#000"><path d="m8 8h47v50h-47" fill="url(#0)"/><path d="m21 0v3l-6 10h34l-4-11h-1l-1-2" fill-opacity=".234"/><path d="m21 0v3l-6 10h34l-6-10v-3h-22" fill="url(#1)"/></g></svg>