<svg xmlns="http://www.w3.org/2000/svg" viewBox="0 0 64 64"><g color="#000"><path d="m0 4v30 28l2 2h30 30l2-2v-28-30h-32-32" fill="#3f5fe4"/><path d="m2 0l-2 1v3h32 32v-3l-2-1h-30-30" fill="#7e92ff"/></g><path d="m0 3v3l2-2" fill="#9baaff"/><path d="m64 6l-2-2 2-1z" fill="#5d77f1"/><path d="m56.927 48.32c-5.748-16.903-15.775-18.846-15.554-21.548.163-1.96 4.886-3.192 4.886-3.192-4.781-1.074-7.873.146-10.429 2.1-6.167-3.297-24.15-3.314-25.354 8.169 0 0-2.871 2.526-1.98 3.542.873.992 5.124-2.906 14.09-2.999 2.01 4.738 5.806 6.663 10.849 6.605-2.096-1.319-4.589-2.287-4.554-5.946 6.819.788 11.582 3.571 15.944 6.547-2.702-3.874-12.654-12.07-28.47-8.77 6.813-13.326 33.17-1.978 40.576 15.491" fill="#d8e1ff" color="#000"/></svg>