<svg xmlns="http://www.w3.org/2000/svg" viewBox="0 0 64 64"><g color="#000"><path d="m0 4v30 28l2 2h30 30l2-2v-28-30h-32-32" fill="#aeb4c3"/><path d="m2 0l-2 1v3h19.563 19.563 24.875v-3l-2-1h-22.875-19.563-17.563" fill="#e7ecf0"/></g><path d="m0 3v3l2-2" fill="#f2f5f7"/><path d="m64 6l-2-2 2-1" fill="#ccd1db"/><path d="m32 13c5.789 0 11.05 2.371 14.85 6.15l1.371 1.371 4.371-4.114v12.728h-12.729l4.114-4.371-1.371-1.371c-2.695-2.737-6.46-4.393-10.607-4.393-8.284 0-15 6.716-15 15h-6c0-11.598 9.402-21 21-21m21 21c0 11.598-9.402 21-21 21-5.789 0-11.05-2.372-14.85-6.151l-1.371-1.371-4.371 4.114v-12.729h12.728l-4.114 4.372 1.371 1.371c2.695 2.737 6.46 4.394 10.607 4.394 8.284 0 15-6.716 15-15z" fill="#26304c" fill-opacity=".706"/></svg>