<svg xmlns="http://www.w3.org/2000/svg" xmlns:xlink="http://www.w3.org/1999/xlink" viewBox="0 0 64 64"><defs><linearGradient id="0" gradientUnits="userSpaceOnUse" x1="37.488" y1="57.48" x2="24.547" y2="9.186"><stop stop-color="#ebebeb"/><stop offset=".5" stop-color="#ebebeb"/><stop offset=".503" stop-color="#d6d6d6"/><stop offset="1" stop-color="#d6d6d6"/></linearGradient></defs><g color="#000"><path d="m0 2v32 28l2 2h30 30l2-2v-28-32h-32z" fill="#9e6e31"/><path d="m2 0l-2 1v1h32 32v-1l-2-1h-30" fill="#ffbc35"/><g fill="#fc0"><g fill-opacity=".036"><path d="m2 0l-2 1v3 18.5h2v-22.5m2 0v3.5h2v-3.5h-2m4 0v17.5h2v-17.5h-2m4 0v32.5h2v-32.5h-2m8 0v27.5h2v-27.5h-2m16 0v.5h2v-.5h-2zm12 0v19.5h2v-19.5h-2m4 0v33.5h2v-33.5h-2m4 0v14.5h2v-14.5h-2m4 0v30.5h2v-30.5h-2m-20 .5v37h2v-37h-2zm-36 5v37h2v-37h-2m28 0v37h2v-37h-2m-8 1v37h2v-37h-2m-8 3v37h2v-37h-2m12 2v37h2v-37h-2m16 5v37h2v-37h-2m-36 3v37h2v-37h-2m28 0v37h2v-37h-2m12 2v37h2v-37h-2m-48 3v9.5 27.5h2v-37h-2m60 8v31.5h2v-31.5h-2m-8 5v26.5h2v-26.5h-2m4 14v12.5h2v-12.5h-2"/><path d="m2 0l-2 1v3 26h2v-30m2 0v14h2v-14h-2m4 0v33h2v-33h-2zm4 0v19h2v-19h-2m8 0v37h2v-37h-2m20 0v27h2v-27h-2m8 0v32h2v-32h-2m4 0v17h2v-17h-2m4 0v3h2v-3h-2m4 0v22h2v-22h-2m-32 5v37h2v-37h-2m28 0v37h2v-37h-2m-20 1v37h2v-37h-2m8 3v37h2v-37h-2m-12 2v37h2v-37h-2m-16 5v37h2v-37h-2m8 3v37h2v-37h-2m28 0v37h2v-37h-2m-40 2v37h2v-37h-2m48 3v37h2v-37h-2m-60 8v2 28l2 2v-32h-2m8 5v27h2v-27h-2m-4 14v13h2v-13h-2"/><path d="m2 0l-2 1v3 24.5h2v-28.5m2 0v12.5h2v-12.5h-2m4 0v31.5h2v-31.5h-2m4 0v17.5h2v-17.5h-2m8 0v35.5h2v-35.5h-2m20 0v25.5h2v-25.5h-2m8 0v30.5h2v-30.5h-2m4 0v15.5h2v-15.5h-2m4 0v1.5h2v-1.5h-2zm4 0v20.5h2v-20.5h-2m-32 3.5v37h2v-37h-2zm28 0v37h2v-37h-2m-20 1v37h2v-37h-2m8 3v37h2v-37h-2m-12 2v37h2v-37h-2m-16 5v37h2v-37h-2m8 3v37h2v-37h-2m28 0v37h2v-37h-2m-40 2v37h2v-37h-2m48 3v37h2v-37h-2m-60 8v3.5 28l2 2v-33.5h-2m8 5v28.5h2v-28.5h-2m-4 14v14.5h2v-14.5h-2"/><path d="m2 0l-2 1v19h2v-20m2 0v1h2v-1h-2m4 0v15h2v-15h-2zm4 0v30h2v-30h-2m8 0v25h2v-25h-2m20 0v35h2v-35h-2m8 0v17h2v-17h-2m4 0v31h2v-31h-2m4 0v12h2v-12h-2m4 0v28h2v-28h-2m-56 3v37h2v-37h-2m28 0v37h2v-37h-2zm-8 1v37h2v-37h-2m-8 3v37h2v-37h-2m12 2v37h2v-37h-2m16 5v37h2v-37h-2m-36 3v37h2v-37h-2m28 0v37h2v-37h-2m12 2v37h2v-37h-2m-48 3v12 25h2v-37h-2m60 8v34h2v-34h-2zm-8 5v29h2v-29h-2m4 14v15h2v-15h-2"/><path d="m2 0l-2 1v3 29.5h2v-33.5m2 0v14.5h2v-14.5h-2m4 0v28.5h2v-28.5h-2m16 0v9.5h2v-9.5h-2zm8 0v6.5h2v-6.5h-2m4 0v11.5h2v-11.5h-2m12 0v30.5h2v-30.5h-2m8 0v25.5h2v-25.5h-2m-36 1.5v37h2v-37h-2zm40 3v37h2v-37h-2m-48 2v37h2v-37h-2m40 1v37h2v-37h-2m-12 4v37h2v-37h-2m-36 5v37h2v-37h-2m28 0v37h2v-37h-2m-8 1v37h2v-37h-2m-8 3v37h2v-37h-2m12 2v37h2v-37h-2m16 5v36.5h2v-36.5h-2m-36 3v33.5h2v-33.5h-2m28 0v33.5h2v-33.5h-2m12 2v31.5h2v-31.5h-2m-48 3v26.5l2 2v-28.5h-2m60 8v20.5h2v-20.5h-2m-8 5v15.5h2v-15.5h-2m4 14v1.5h2v-1.5h-2"/><path d="m4 0v25h2v-25h-2m8 0v30h2v-30h-2zm12 0v11h2v-11h-2m4 0v6h2v-6h-2m8 0v9h2v-9h-2m16 0v28h2v-28h-2m4 0v14h2v-14h-2m4 0v33h2v-33h-2m-20 1v37h2v-37h-2m-40 3v30 7h2v-37h-2m48 2v37h2v-37h-2zm-40 1v37h2v-37h-2m12 4v37h2v-37h-2zm8 5v37h2v-37h-2m28 0v37h2v-37h-2m-20 1v37h2v-37h-2m8 3v37h2v-37h-2m-12 2v37h2v-37h-2m-16 5v37h2v-37h-2m8 3v34h2v-34h-2m28 0v34h2v-34h-2m-40 2v32h2v-32h-2m48 3v29h2v-29h-2m-60 8v19l2 2v-21h-2m8 5v16h2v-16h-2zm-4 14v2h2v-2h-2"/></g><g transform="translate(2)" fill-opacity=".015"><path d="m2 0l-2 1v3 18.5h2v-22.5m2 0v3.5h2v-3.5h-2m4 0v17.5h2v-17.5h-2m4 0v32.5h2v-32.5h-2m8 0v27.5h2v-27.5h-2m16 0v.5h2v-.5h-2zm12 0v19.5h2v-19.5h-2m4 0v33.5h2v-33.5h-2m4 0v14.5h2v-14.5h-2m4 0v30.5h2v-30.5h-2m-20 .5v37h2v-37h-2zm-36 5v37h2v-37h-2m28 0v37h2v-37h-2m-8 1v37h2v-37h-2m-8 3v37h2v-37h-2m12 2v37h2v-37h-2m16 5v37h2v-37h-2m-36 3v37h2v-37h-2m28 0v37h2v-37h-2m12 2v37h2v-37h-2m-48 3v9.5 27.5h2v-37h-2m60 8v31.5h2v-31.5h-2m-8 5v26.5h2v-26.5h-2m4 14v12.5h2v-12.5h-2"/><path d="m2 0l-2 1v3 26h2v-30m2 0v14h2v-14h-2m4 0v33h2v-33h-2zm4 0v19h2v-19h-2m8 0v37h2v-37h-2m20 0v27h2v-27h-2m8 0v32h2v-32h-2m4 0v17h2v-17h-2m4 0v3h2v-3h-2m4 0v22h2v-22h-2m-32 5v37h2v-37h-2m28 0v37h2v-37h-2m-20 1v37h2v-37h-2m8 3v37h2v-37h-2m-12 2v37h2v-37h-2m-16 5v37h2v-37h-2m8 3v37h2v-37h-2m28 0v37h2v-37h-2m-40 2v37h2v-37h-2m48 3v37h2v-37h-2m-60 8v2 28l2 2v-32h-2m8 5v27h2v-27h-2m-4 14v13h2v-13h-2"/><path d="m2 0l-2 1v3 24.5h2v-28.5m2 0v12.5h2v-12.5h-2m4 0v31.5h2v-31.5h-2m4 0v17.5h2v-17.5h-2m8 0v35.5h2v-35.5h-2m20 0v25.5h2v-25.5h-2m8 0v30.5h2v-30.5h-2m4 0v15.5h2v-15.5h-2m4 0v1.5h2v-1.5h-2zm4 0v20.5h2v-20.5h-2m-32 3.5v37h2v-37h-2zm28 0v37h2v-37h-2m-20 1v37h2v-37h-2m8 3v37h2v-37h-2m-12 2v37h2v-37h-2m-16 5v37h2v-37h-2m8 3v37h2v-37h-2m28 0v37h2v-37h-2m-40 2v37h2v-37h-2m48 3v37h2v-37h-2m-60 8v3.5 28l2 2v-33.5h-2m8 5v28.5h2v-28.5h-2m-4 14v14.5h2v-14.5h-2"/><path d="m2 0l-2 1v19h2v-20m2 0v1h2v-1h-2m4 0v15h2v-15h-2zm4 0v30h2v-30h-2m8 0v25h2v-25h-2m20 0v35h2v-35h-2m8 0v17h2v-17h-2m4 0v31h2v-31h-2m4 0v12h2v-12h-2m4 0v28h2v-28h-2m-56 3v37h2v-37h-2m28 0v37h2v-37h-2zm-8 1v37h2v-37h-2m-8 3v37h2v-37h-2m12 2v37h2v-37h-2m16 5v37h2v-37h-2m-36 3v37h2v-37h-2m28 0v37h2v-37h-2m12 2v37h2v-37h-2m-48 3v12 25h2v-37h-2m60 8v34h2v-34h-2zm-8 5v29h2v-29h-2m4 14v15h2v-15h-2"/><path d="m2 0l-2 1v3 29.5h2v-33.5m2 0v14.5h2v-14.5h-2m4 0v28.5h2v-28.5h-2m16 0v9.5h2v-9.5h-2zm8 0v6.5h2v-6.5h-2m4 0v11.5h2v-11.5h-2m12 0v30.5h2v-30.5h-2m8 0v25.5h2v-25.5h-2m-36 1.5v37h2v-37h-2zm40 3v37h2v-37h-2m-48 2v37h2v-37h-2m40 1v37h2v-37h-2m-12 4v37h2v-37h-2m-36 5v37h2v-37h-2m28 0v37h2v-37h-2m-8 1v37h2v-37h-2m-8 3v37h2v-37h-2m12 2v37h2v-37h-2m16 5v36.5h2v-36.5h-2m-36 3v33.5h2v-33.5h-2m28 0v33.5h2v-33.5h-2m12 2v31.5h2v-31.5h-2m-48 3v26.5l2 2v-28.5h-2m60 8v20.5h2v-20.5h-2m-8 5v15.5h2v-15.5h-2m4 14v1.5h2v-1.5h-2"/><path d="m4 0v25h2v-25h-2m8 0v30h2v-30h-2zm12 0v11h2v-11h-2m4 0v6h2v-6h-2m8 0v9h2v-9h-2m16 0v28h2v-28h-2m4 0v14h2v-14h-2m4 0v33h2v-33h-2m-20 1v37h2v-37h-2m-40 3v30 7h2v-37h-2m48 2v37h2v-37h-2zm-40 1v37h2v-37h-2m12 4v37h2v-37h-2zm8 5v37h2v-37h-2m28 0v37h2v-37h-2m-20 1v37h2v-37h-2m8 3v37h2v-37h-2m-12 2v37h2v-37h-2m-16 5v37h2v-37h-2m8 3v34h2v-34h-2m28 0v34h2v-34h-2m-40 2v32h2v-32h-2m48 3v29h2v-29h-2m-60 8v19l2 2v-21h-2m8 5v16h2v-16h-2zm-4 14v2h2v-2h-2"/></g></g></g><path d="m49.719 4.969l-2.072-1.894-8.271 4.675-28.375 1.25v2h-1l-.188 4.656-5.469 1.469 4.688 17.469-.906 21.406-4.406-.531-.156 1.125 4.5.719-.063 1.688 2 2h6.094l.813 3h5.75l11.188-3h23.16v-2h1v-4.469l4.656-1.25-4.656-17.375v-6.156l3.469-16.12-.531-.125-2.938 13.656v-18.16l-2-2-5.656.25" fill="#421300" fill-opacity=".164"/><path d="m9 7h47v50h-47" fill="#bebebe" color="#000"/><g transform="matrix(.90163.10652-.10652.90163 2.521 16.461)"><path fill="#d8d8d8" color="#000" d="m5.42 8.487h30.16v34.03h-30.16z" id="1"/><g transform="matrix(.25387 0 0 .25578 2.79 2.816)" color="#000"><path fill="#9e6e59" d="m19 32h100v98h-100z"/><path transform="matrix(3.83226 0 0 3.80361-50.955-42.492)" d="m19.531 26.313c-.21.027-.543.131-.656.188-.46.23-.427-.059-.625.156v18.688h26.09v-8.125c-.149-.111-.267-.188-.344-.219.042-.125.125-.243.125-.375 0-.247-1.093-4.047-1.125-4.063-.726-.363-3.662 1.55-4 1.438-.136-.045-.389-1.014-.438-1.063-.115-.115-.38-.003-.563-.125-.272-.181-.457-.541-.75-.688-.307-.153-.763.451-.938.625-.023.023-.289.36-.313.313-.288-.576-.443-1.298-.563-1.938-.024-.128-.173-.72-.25-.875-.036-.071-.142-.181-.188-.25-.016.029-.042.052-.063.063-.157.079-.521-.073-.625-.125-.082-.041-.022-.261-.125-.313-.025-.013-1.124.749-1.188.813-.333.333-.547 1.016-.688 1.438-.035.106-.172.47-.188.5-.028.056.063.188 0 .188-.277 0-.84-1.533-1.313-1.375-.136.045-1.063 1.064-1.125 1.25-.024.071-.05.188-.125.188-.002 0-.849-1.276-.938-1.375-.106-.119-.669-.866-.688-.875-.282-.141-.979-.166-1.188-.375-.257-.257-.587-.641-.938-.875-.175-.117-.845-.033-.875-.063-.376-.376-.7-.988-1.188-1.313-.603-.402-1.414 1.731-1.75 1.563-.132-.066-.231-.323-.313-.438-.435-.61-1.45-2.287-2-2.563-.03-.015-.086-.009-.156 0m15.469 3.688c.016-.029.023-.063 0-.063-.042 0-.024.026 0 .063" fill="#9e3838"/></g></g><g transform="matrix(.88774.1903-.1903.88774 31.25-2.087)"><use xlink:href="#1"/><g transform="matrix(.25387 0 0 .25578 2.79 2.816)"><path fill="#7ebf38" color="#000" d="m19 32h100v98h-100z"/><g fill="#28331c" fill-opacity=".299"><path d="m114.07 57.59c.805.102 2.082.498 2.515.713 1.762.875 1.635-.223 2.395.594v71.08h-100v-30.904c.571-.421 1.023-.715 1.317-.832-.16-.475-.479-.925-.479-1.426 0-.94 4.19-15.392 4.311-15.452 2.781-1.38 14.03 5.897 15.329 5.468.521-.172 1.49-3.856 1.677-4.04.44-.437 1.456-.013 2.156-.475 1.041-.689 1.751-2.058 2.874-2.615 1.175-.583 2.924 1.714 3.593 2.377.088.087 1.107 1.369 1.198 1.189 1.105-2.193 1.696-4.936 2.156-7.37.092-.487.662-2.74.958-3.328.136-.27.544-.689.719-.951.062.109.16.198.24.238.603.299 1.997-.278 2.395-.475.313-.155.085-.993.479-1.189.096-.048 4.308 2.85 4.551 3.09 1.275 1.265 2.097 3.865 2.635 5.468.136.404.66 1.786.719 1.902.107.213-.24.713 0 .713 1.061 0 3.218-5.829 5.03-5.23.521.172 4.073 4.046 4.311 4.755.091.271.191.713.479.713.009 0 3.255-4.853 3.593-5.23.407-.454 2.562-3.292 2.635-3.328 1.079-.536 3.751-.632 4.551-1.426.986-.979 2.249-2.439 3.593-3.328.672-.445.724-7.969.838-8.08 1.441-1.43 1.964-6.371 3.832-7.607 2.31-1.528 5.389-24.01 7.665-3.804 5.389-4.992 11.497 7.607 11.497 3.804 0-2.849-2.468 6.04-.359 4.992.114-.057.33-.034.599 0m-59.28 14.03c-.062-.109-.089-.238 0-.238.161 0 .093.099 0 .238"/><path d="m114.07 75.45c.805.077 2.082.376 2.515.537 1.762.659 1.635-.168 2.395.448v53.55h-100v-23.281c.571-.318 1.023-.539 1.317-.627-.16-.358-.479-.697-.479-1.075 0-.708 4.19-11.595 4.311-11.641 2.781-1.04 14.03 4.442 15.329 4.119.521-.13 1.49-2.905 1.677-3.044.44-.329 1.456-.01 2.156-.358 1.041-.519 1.751-1.55 2.874-1.97 1.175-.439 2.924 1.291 3.593 1.791.088.066 1.107 1.032 1.198.895 1.105-1.652 1.696-3.719 2.156-5.552.092-.367.662-2.064.958-2.507.136-.204.544-.519.719-.716.062.082.16.149.24.179.603.225 1.997-.209 2.395-.358.313-.117.085-.748.479-.895.096-.036 4.308 2.147 4.551 2.328 1.275.953 2.097 2.912 2.635 4.119.136.305.66 1.345.719 1.433.107.16-.24.537 0 .537 1.061 0 3.218-4.392 5.03-3.94.521.13 4.073 3.048 4.311 3.582.091.204.191.537.479.537.009 0 3.255-3.656 3.593-3.94.407-.342 2.562-2.48 2.635-2.507 1.079-.404 3.751-.476 4.551-1.075.986-.737 2.249-1.837 3.593-2.507.672-.335 3.239-.093 3.353-.179 1.441-1.078 2.683-2.83 4.551-3.761 2.31-1.151-1.677-5.16 4.431-7.949 5.389-1.015 7.352-3.476 7.665-3.804 1.669-1.747 1.365 8.421 3.473 7.633.114-.043.33-.025.599 0m-59.28 10.566c-.062-.082-.089-.179 0-.179.161 0 .093.075 0 .179"/><path d="m114.07 100.76c.805.041 2.082.201 2.515.288 1.762.353 1.635-.09 2.395.24v28.686h-100v-12.472c.571-.17 1.023-.289 1.317-.336-.16-.192-.479-.373-.479-.576 0-.379 4.19-6.212 4.311-6.236 2.781-.557 14.03 2.38 15.329 2.207.521-.07 1.49-1.556 1.677-1.631.44-.176 1.456-.005 2.156-.192 1.041-.278 1.751-.83 2.874-1.055 1.175-.235 2.924.692 3.593.959.088.035 1.107.553 1.198.48 1.105-.885 1.696-1.992 2.156-2.974.092-.197.662-1.106.958-1.343.136-.109.544-.278.719-.384.062.044.16.08.24.096.603.121 1.997-.112 2.395-.192.313-.063.085-.401.479-.48.096-.019 4.308 1.15 4.551 1.247 1.275.511 2.097 1.56 2.635 2.207.136.163.66.721.719.768.107.086-.24.288 0 .288 1.061 0 3.218-2.353 5.03-2.111.521.07 4.073 1.633 4.311 1.919.091.109.191.288.479.288.009 0 3.255-1.959 3.593-2.111.407-.183 2.562-1.329 2.635-1.343 1.079-.216 3.751-.255 4.551-.576.986-.395 2.249-.984 3.593-1.343.672-.179 3.239-.05 3.353-.096 1.441-.577 2.683-1.516 4.551-2.01 2.31-.617 5.419 2.656 6.706 2.399.506-.101.885-.496 1.198-.672 1.669-.936 5.556-3.511 7.665-3.934.114-.023.33-.014.599 0m-59.28 5.661c-.062-.044-.089-.096 0-.096.161 0 .093.04 0 .096"/></g></g></g><path d="m2.33 15.14l45.4-12.164 12.941 48.3-45.4 12.164" fill="url(#0)" color="#000"/><g transform="matrix(.96593-.25882.25882.96593-7.414 7.975)" fill-opacity=".497"><path d="m12.974 19.05v-2.167h.255v1.941h.954l-.009.226h-1.2"/><path d="m14.601 18.25c0 .19.042.343.126.458.085.114.208.171.371.171.16 0 .281-.057.362-.171.082-.114.123-.268.123-.461 0-.196-.041-.351-.122-.463-.08-.113-.203-.17-.368-.17-.16 0-.282.058-.366.173-.084.115-.126.27-.126.463m1.235-.004c0 .249-.066.451-.199.606-.133.154-.316.231-.551.231-.226 0-.405-.078-.539-.234-.133-.156-.199-.357-.199-.602 0-.25.067-.452.201-.606.134-.154.317-.231.551-.231.229 0 .41.078.541.233.131.154.196.355.196.604"/><path d="m16.901 17.428c.044 0 .084.003.12.009l-.009.226c-.045-.008-.084-.012-.117-.012-.137 0-.248.048-.334.144-.085.095-.127.212-.127.353v.902h-.245c-.001-.986-.002-1.522-.002-1.607h.204l.023.289c.056-.091.126-.164.212-.22.086-.056.177-.083.274-.084"/><path d="m18.17 17.74c-.071-.086-.169-.129-.294-.129-.125 0-.227.044-.306.133-.079.088-.125.208-.139.362h.848c0-.159-.036-.281-.108-.366m-.246 1.343c-.233 0-.417-.074-.552-.223-.134-.148-.201-.352-.201-.609 0-.249.065-.451.195-.605.13-.155.301-.234.513-.237.199 0 .357.068.473.205.117.136.176.317.176.545 0 .012 0 .033-.002.064 0 .031 0 .054 0 .067h-1.103c.003.183.05.325.141.428.092.102.215.152.369.152.17 0 .34-.045.511-.135l.038.198c-.163.1-.349.149-.558.149"/><path d="m20.91 19.05v-.836c0-.078-.002-.144-.006-.196-.003-.053-.011-.106-.023-.161-.012-.055-.029-.098-.051-.129-.021-.032-.052-.058-.091-.078-.039-.021-.086-.031-.141-.031-.107 0-.199.029-.275.086-.075.058-.129.139-.161.243-.009.07-.013.146-.013.226v.876h-.245v-.863c0-.072-.002-.135-.007-.188-.005-.054-.014-.105-.028-.155-.014-.051-.032-.092-.056-.123-.022-.031-.053-.056-.091-.075-.038-.019-.084-.028-.136-.028-.117 0-.216.03-.296.089-.079.06-.132.139-.16.237-.009.075-.013.157-.013.245v.86h-.245c-.002-1-.003-1.541-.003-1.607h.205l.031.23c.049-.074.118-.137.208-.188.09-.051.192-.076.306-.076.06 0 .114.006.164.019.051.012.093.027.126.045.034.019.064.041.091.067.026.025.047.051.062.076.015.024.027.05.037.078.117-.19.296-.286.538-.286.179 0 .31.051.393.154.084.102.126.252.126.453v1.034h-.245"/><path d="m22.504 17.443v1.607h-.246v-1.607h.246m0-.584v.29h-.246v-.29h.246"/><path d="m22.965 19.747v-2.304h.215l.023.218c.141-.168.31-.252.507-.252.146 0 .271.037.372.11.102.073.176.172.224.297.049.125.073.271.073.438 0 .16-.026.303-.079.428-.053.124-.13.222-.233.294-.102.071-.221.107-.357.107-.104 0-.201-.023-.292-.069-.091-.047-.164-.108-.218-.185.006.105.009.208.009.308v.593l-.245.016m.712-.87c.074 0 .141-.017.199-.05.059-.034.106-.081.142-.139.036-.059.063-.125.082-.199.019-.075.028-.156.028-.243 0-.184-.039-.334-.116-.451-.077-.118-.19-.177-.338-.177-.311 0-.466.201-.466.602 0 .218.036.382.108.492.073.11.193.166.36.166"/><path d="m25.2 19.08c-.109 0-.21-.012-.303-.035-.092-.023-.167-.054-.224-.091l.031-.207c.163.087.323.13.48.13.238 0 .361-.084.368-.252 0-.071-.025-.127-.076-.168-.051-.041-.15-.087-.299-.138l-.122-.042c-.141-.047-.241-.105-.302-.174-.06-.069-.09-.156-.091-.259 0-.126.05-.23.151-.313.102-.083.24-.125.416-.125.182 0 .347.035.497.105l-.072.188c-.151-.063-.293-.094-.425-.094-.103 0-.183.021-.242.062-.058.04-.086.097-.086.17 0 .063.021.11.063.144.042.033.126.071.252.114.032.012.073.025.122.041.162.053.277.115.344.188.067.071.101.168.101.29-.002.148-.055.264-.16.346-.104.081-.246.122-.423.122"/><path d="m26.06 18.513v-1.071h.246v1.074c0 .07.01.13.029.179.021.049.049.087.086.114.038.026.081.045.127.057.048.012.103.018.164.018.127 0 .226-.028.296-.084.071-.056.107-.15.107-.284v-1.074h.246v1.071c0 .082-.012.156-.035.221-.023.065-.055.12-.095.164-.039.043-.086.079-.142.107-.056.028-.115.049-.177.062-.062.013-.128.019-.199.019-.07 0-.137-.006-.199-.019-.063-.013-.122-.033-.179-.062-.056-.029-.104-.065-.145-.108-.04-.044-.072-.099-.095-.164-.023-.065-.035-.139-.035-.22"/><path d="m29.77 19.05v-.836c0-.078-.002-.144-.006-.196-.003-.053-.011-.106-.023-.161-.012-.055-.029-.098-.051-.129-.021-.032-.052-.058-.091-.078-.039-.021-.086-.031-.141-.031-.107 0-.199.029-.275.086-.075.058-.129.139-.161.243-.009.07-.013.146-.013.226v.876h-.245v-.863c0-.072-.002-.135-.007-.188-.005-.054-.014-.105-.028-.155-.014-.051-.032-.092-.056-.123-.022-.031-.053-.056-.091-.075-.038-.019-.084-.028-.136-.028-.117 0-.216.03-.296.089-.079.06-.132.139-.16.237-.009.075-.013.157-.013.245v.86h-.245c-.002-1-.003-1.541-.003-1.607h.205l.031.23c.049-.074.118-.137.208-.188.09-.051.192-.076.306-.076.06 0 .114.006.164.019.051.012.093.027.126.045.034.019.064.041.091.067.026.025.047.051.062.076.015.024.027.05.037.078.117-.19.296-.286.538-.286.179 0 .31.051.393.154.084.102.126.252.126.453v1.034h-.245"/><path d="m31.702 18.872c.161 0 .281-.052.359-.155.079-.104.119-.251.119-.444 0-.217-.038-.38-.114-.489-.075-.11-.197-.166-.366-.166-.075 0-.142.016-.199.048-.058.032-.104.077-.139.135-.035.058-.062.124-.081.199-.018.074-.026.156-.026.245 0 .125.015.233.045.325.031.092.081.165.149.22.068.055.153.082.253.082m.482-.056c-.053.081-.123.146-.211.193-.088.048-.186.072-.294.072-.212 0-.378-.075-.498-.226-.12-.151-.18-.357-.18-.617 0-.248.061-.448.183-.601.122-.153.286-.23.491-.23.106 0 .207.023.3.07.095.046.166.108.212.186l-.004-.139v-.708l.242-.015v2.246h-.208l-.032-.233"/><path d="m33.03 18.25c0 .19.042.343.126.458.085.114.208.171.371.171.16 0 .281-.057.362-.171.082-.114.123-.268.123-.461 0-.196-.041-.351-.122-.463-.08-.113-.203-.17-.368-.17-.16 0-.282.058-.366.173-.084.115-.126.27-.126.463m1.235-.004c0 .249-.066.451-.199.606-.133.154-.316.231-.551.231-.226 0-.405-.078-.539-.234-.133-.156-.199-.357-.199-.602 0-.25.067-.452.201-.606.134-.154.317-.231.551-.231.229 0 .41.078.541.233.131.154.196.355.196.604"/><path d="m35.04 19.08c-.156 0-.267-.042-.333-.126-.064-.084-.097-.23-.097-.438v-1.696l.243-.015v1.614c0 .066 0 .12.002.16.002.04.006.08.012.119.006.038.014.067.023.086.01.02.024.038.042.054.019.016.041.026.066.032.026.005.059.007.097.007.031 0 .093-.006.185-.018l.013.195c-.101.017-.185.025-.253.025"/><path d="m35.619 18.25c0 .19.042.343.126.458.085.114.208.171.371.171.16 0 .281-.057.362-.171.082-.114.123-.268.123-.461 0-.196-.041-.351-.122-.463-.08-.113-.203-.17-.368-.17-.16 0-.282.058-.366.173-.084.115-.126.27-.126.463m1.235-.004c0 .249-.066.451-.199.606-.133.154-.316.231-.551.231-.226 0-.405-.078-.539-.234-.133-.156-.199-.357-.199-.602 0-.25.067-.452.201-.606.134-.154.317-.231.551-.231.229 0 .41.078.541.233.131.154.196.355.196.604"/><path d="m37.918 17.428c.044 0 .084.003.12.009l-.009.226c-.045-.008-.084-.012-.117-.012-.137 0-.248.048-.334.144-.085.095-.127.212-.127.353v.902h-.245c-.001-.986-.002-1.522-.002-1.607h.204l.023.289c.056-.091.126-.164.212-.22.086-.056.177-.083.274-.084"/><path d="m39.522 19.08c-.109 0-.21-.012-.303-.035-.092-.023-.167-.054-.224-.091l.031-.207c.163.087.323.13.48.13.238 0 .361-.084.368-.252 0-.071-.025-.127-.076-.168-.051-.041-.15-.087-.299-.138l-.122-.042c-.141-.047-.241-.105-.302-.174-.06-.069-.09-.156-.091-.259 0-.126.05-.23.151-.313.102-.083.24-.125.416-.125.182 0 .347.035.497.105l-.072.188c-.151-.063-.293-.094-.425-.094-.103 0-.183.021-.242.062-.058.04-.086.097-.086.17 0 .063.021.11.063.144.042.033.126.071.252.114.032.012.073.025.122.041.162.053.277.115.344.188.067.071.101.168.101.29-.002.148-.055.264-.16.346-.104.081-.246.122-.423.122"/><path d="m40.727 17.443v1.607h-.246v-1.607h.246m0-.584v.29h-.246v-.29h.246"/><path d="m41.701 19.08c-.158 0-.271-.039-.337-.116-.066-.077-.102-.202-.105-.374v-.965h-.239l.01-.161.227-.021.084-.368.161-.006v.374h.447v.182h-.447v.921c0 .122.019.208.056.258.037.05.101.075.19.075.032 0 .102-.008.209-.023l.01.193c-.116.021-.205.031-.267.031"/><path d="m13.393 22.636c.116 0 .218-.032.306-.095.089-.064.146-.151.171-.259v-.271c-.005 0-.035.002-.089.007-.054.005-.089.008-.105.009-.212.019-.36.053-.444.104-.083.051-.125.132-.125.245 0 .086.025.151.076.195.051.044.121.066.209.066m.532.164c-.015-.063-.029-.13-.042-.202-.089.089-.172.15-.25.185-.078.034-.17.051-.275.051-.15 0-.271-.039-.363-.117-.091-.079-.136-.192-.136-.34 0-.164.062-.286.186-.365.125-.079.305-.128.539-.148.032-.003.081-.007.145-.012.065-.006.114-.01.146-.013v-.142c0-.113-.026-.197-.079-.252-.053-.055-.136-.082-.249-.082-.158 0-.318.039-.479.117-.005-.012-.018-.045-.038-.101-.021-.057-.031-.086-.032-.088.071-.04.156-.072.253-.095.099-.024.199-.037.3-.037.2 0 .344.044.432.132.089.087.133.235.133.445v1.063h-.19"/><path d="m16.58 22.8v-.836c0-.078-.002-.144-.006-.196-.003-.053-.011-.106-.023-.161-.012-.055-.029-.098-.051-.129-.021-.032-.052-.058-.091-.078-.039-.021-.086-.031-.141-.031-.107 0-.199.029-.275.086-.075.058-.129.139-.161.243-.009.07-.013.146-.013.226v.876h-.245v-.863c0-.072-.002-.135-.007-.188-.005-.054-.014-.105-.028-.155-.014-.051-.032-.092-.056-.123-.022-.031-.053-.056-.091-.075-.038-.019-.084-.028-.136-.028-.117 0-.216.03-.296.089-.079.06-.132.139-.16.237-.009.075-.013.157-.013.245v.86h-.245c-.002-1-.003-1.541-.003-1.607h.205l.031.23c.049-.074.118-.137.208-.188.09-.051.192-.076.306-.076.06 0 .114.006.164.019.051.012.093.027.126.045.034.019.064.041.091.067.026.025.047.051.062.076.015.024.027.05.037.078.117-.19.296-.286.538-.286.179 0 .31.051.393.154.084.102.126.252.126.453v1.034h-.245"/><path d="m18.06 21.49c-.071-.086-.169-.129-.294-.129-.125 0-.227.044-.306.133-.079.088-.125.208-.139.362h.848c0-.159-.036-.281-.108-.366m-.246 1.343c-.233 0-.417-.074-.552-.223-.134-.148-.201-.352-.201-.609 0-.249.065-.451.195-.605.13-.155.301-.234.513-.237.199 0 .357.068.473.205.117.136.176.317.176.545 0 .012 0 .033-.002.064 0 .031 0 .054 0 .067h-1.103c.003.183.05.325.141.428.092.102.215.152.369.152.17 0 .34-.045.511-.135l.038.198c-.163.1-.349.149-.558.149"/><path d="m19.271 22.829c-.158 0-.271-.039-.337-.116-.066-.077-.102-.202-.105-.374v-.965h-.239l.01-.161.227-.021.084-.368.161-.006v.374h.447v.182h-.447v.921c0 .122.019.208.056.258.037.05.101.075.19.075.032 0 .102-.008.209-.023l.01.193c-.116.021-.205.031-.267.031"/><path d="m19.751 23.21c.003-.028.011-.104.025-.226.015-.121.026-.223.034-.306.008-.083.014-.156.018-.218h.289v.064c-.048.193-.118.422-.211.686h-.154"/><path d="m21.969 22.833c-.236 0-.421-.077-.555-.23-.133-.153-.199-.354-.199-.602.001-.25.069-.453.204-.608.136-.156.321-.234.557-.234.083 0 .163.01.24.031.078.021.14.047.185.081l-.067.19c-.114-.062-.235-.092-.362-.092-.155 0-.278.057-.369.17-.09.113-.135.268-.135.464 0 .191.044.343.133.456.09.111.214.167.372.167.126 0 .255-.034.387-.103l.031.195c-.106.077-.247.116-.42.116"/><path d="m22.886 22c0 .19.042.343.126.458.085.114.208.171.371.171.16 0 .281-.057.362-.171.082-.114.123-.268.123-.461 0-.196-.041-.351-.122-.463-.08-.113-.203-.17-.368-.17-.16 0-.282.058-.366.173-.084.115-.126.27-.126.463m1.235-.004c0 .249-.066.451-.199.606-.133.154-.316.231-.551.231-.226 0-.405-.078-.539-.234-.133-.156-.199-.357-.199-.602 0-.25.067-.452.201-.606.134-.154.317-.231.551-.231.229 0 .41.078.541.233.131.154.196.355.196.604"/><path d="m24.465 22.8v-1.607h.205l.031.23c.063-.079.143-.143.237-.19.096-.049.199-.073.309-.073.186 0 .323.052.412.157.089.104.133.263.133.479v1h-.245c0-.645 0-.99-.002-1.036-.004-.137-.032-.237-.084-.3-.051-.063-.136-.095-.256-.095-.126 0-.231.03-.315.091-.084.061-.139.139-.164.236-.01.065-.015.141-.015.226v.879h-.248"/><path d="m26.679 22.833c-.109 0-.21-.012-.303-.035-.092-.023-.167-.054-.224-.091l.031-.207c.163.087.323.13.48.13.238 0 .361-.084.368-.252 0-.071-.025-.127-.076-.168-.051-.041-.15-.087-.299-.138l-.122-.042c-.141-.047-.241-.105-.302-.174-.06-.069-.09-.156-.091-.259 0-.126.05-.23.151-.313.102-.083.24-.125.416-.125.182 0 .347.035.497.105l-.072.188c-.151-.063-.293-.094-.425-.094-.103 0-.183.021-.242.062-.058.04-.086.097-.086.17 0 .063.021.11.063.144.042.033.126.071.252.114.032.012.073.025.122.041.162.053.277.115.344.188.067.071.101.168.101.29-.002.148-.055.264-.16.346-.104.081-.246.122-.423.122"/><path d="m28.52 21.49c-.071-.086-.169-.129-.294-.129-.125 0-.227.044-.306.133-.079.088-.125.208-.139.362h.848c0-.159-.036-.281-.108-.366m-.246 1.343c-.233 0-.417-.074-.552-.223-.134-.148-.201-.352-.201-.609 0-.249.065-.451.195-.605.13-.155.301-.234.513-.237.199 0 .357.068.473.205.117.136.176.317.176.545 0 .012 0 .033-.002.064 0 .031 0 .054 0 .067h-1.103c.003.183.05.325.141.428.092.102.215.152.369.152.17 0 .34-.045.511-.135l.038.198c-.163.1-.349.149-.558.149"/><path d="m29.897 22.833c-.236 0-.421-.077-.555-.23-.133-.153-.199-.354-.199-.602.001-.25.069-.453.204-.608.136-.156.321-.234.557-.234.083 0 .163.01.24.031.078.021.14.047.185.081l-.067.19c-.114-.062-.235-.092-.362-.092-.155 0-.278.057-.369.17-.09.113-.135.268-.135.464 0 .191.044.343.133.456.09.111.214.167.372.167.126 0 .255-.034.387-.103l.031.195c-.106.077-.247.116-.42.116"/><path d="m31.15 22.829c-.158 0-.271-.039-.337-.116-.066-.077-.102-.202-.105-.374v-.965h-.239l.01-.161.227-.021.084-.368.161-.006v.374h.447v.182h-.447v.921c0 .122.019.208.056.258.037.05.101.075.19.075.032 0 .102-.008.209-.023l.01.193c-.116.021-.205.031-.267.031"/><path d="m32.586 21.49c-.071-.086-.169-.129-.294-.129-.125 0-.227.044-.306.133-.079.088-.125.208-.139.362h.848c0-.159-.036-.281-.108-.366m-.246 1.343c-.233 0-.417-.074-.552-.223-.134-.148-.201-.352-.201-.609 0-.249.065-.451.195-.605.13-.155.301-.234.513-.237.199 0 .357.068.473.205.117.136.176.317.176.545 0 .012 0 .033-.002.064 0 .031 0 .054 0 .067h-1.103c.003.183.05.325.141.428.092.102.215.152.369.152.17 0 .34-.045.511-.135l.038.198c-.163.1-.349.149-.558.149"/><path d="m33.796 22.829c-.158 0-.271-.039-.337-.116-.066-.077-.102-.202-.105-.374v-.965h-.239l.01-.161.227-.021.084-.368.161-.006v.374h.447v.182h-.447v.921c0 .122.019.208.056.258.037.05.101.075.19.075.032 0 .102-.008.209-.023l.01.193c-.116.021-.205.031-.267.031"/><path d="m34.27 22.263v-1.071h.246v1.074c0 .07.01.13.029.179.021.049.049.087.086.114.038.026.081.045.127.057.048.012.103.018.164.018.127 0 .226-.028.296-.084.071-.056.107-.15.107-.284v-1.074h.246v1.071c0 .082-.012.156-.035.221-.023.065-.055.12-.095.164-.039.043-.086.079-.142.107-.056.028-.115.049-.177.062-.062.013-.128.019-.199.019-.07 0-.137-.006-.199-.019-.063-.013-.122-.033-.179-.062-.056-.029-.104-.065-.145-.108-.04-.044-.072-.099-.095-.164-.023-.065-.035-.139-.035-.22"/><path d="m36.864 21.49c-.071-.086-.169-.129-.294-.129-.125 0-.227.044-.306.133-.079.088-.125.208-.139.362h.848c0-.159-.036-.281-.108-.366m-.246 1.343c-.233 0-.417-.074-.552-.223-.134-.148-.201-.352-.201-.609 0-.249.065-.451.195-.605.13-.155.301-.234.513-.237.199 0 .357.068.473.205.117.136.176.317.176.545 0 .012 0 .033-.002.064 0 .031 0 .054 0 .067h-1.103c.003.183.05.325.141.428.092.102.215.152.369.152.17 0 .34-.045.511-.135l.038.198c-.163.1-.349.149-.558.149"/><path d="m38.28 21.18c.044 0 .084.003.12.009l-.009.226c-.045-.008-.084-.012-.117-.012-.137 0-.248.048-.334.144-.085.095-.127.212-.127.353v.902h-.245c-.001-.986-.002-1.522-.002-1.607h.204l.023.289c.056-.091.126-.164.212-.22.086-.056.177-.083.274-.084"/><path d="m13.393 26.386c.116 0 .218-.032.306-.095.089-.064.146-.151.171-.259v-.271c-.005 0-.035.002-.089.007-.054.005-.089.008-.105.009-.212.019-.36.053-.444.104-.083.051-.125.132-.125.245 0 .086.025.151.076.195.051.044.121.066.209.066m.532.164c-.015-.063-.029-.13-.042-.202-.089.089-.172.15-.25.185-.078.034-.17.051-.275.051-.15 0-.271-.039-.363-.117-.091-.079-.136-.192-.136-.34 0-.164.062-.286.186-.365.125-.079.305-.128.539-.148.032-.003.081-.007.145-.012.065-.006.114-.01.146-.013v-.142c0-.113-.026-.197-.079-.252-.053-.055-.136-.082-.249-.082-.158 0-.318.039-.479.117-.005-.012-.018-.045-.038-.101-.021-.057-.031-.086-.032-.088.071-.04.156-.072.253-.095.099-.024.199-.037.3-.037.2 0 .344.044.432.132.089.087.133.235.133.445v1.063h-.19"/><path d="m15.167 26.372c.161 0 .281-.052.359-.155.079-.104.119-.251.119-.444 0-.217-.038-.38-.114-.489-.075-.11-.197-.166-.366-.166-.075 0-.142.016-.199.048-.058.032-.104.077-.139.135-.035.058-.062.124-.081.199-.018.074-.026.156-.026.245 0 .125.015.233.045.325.031.092.081.165.149.22.068.055.153.082.253.082m.482-.056c-.053.081-.123.146-.211.193-.088.048-.186.072-.294.072-.212 0-.378-.075-.498-.226-.12-.151-.18-.357-.18-.617 0-.248.061-.448.183-.601.122-.153.286-.23.491-.23.106 0 .207.023.3.07.095.046.166.108.212.186l-.004-.139v-.708l.242-.015v2.246h-.208l-.032-.233"/><path d="m16.604 24.943v1.607h-.246v-1.607h.246m0-.584v.29h-.246v-.29h.246"/><path d="m17.06 27.25v-2.304h.215l.023.218c.141-.168.31-.252.507-.252.146 0 .271.037.372.11.102.073.176.172.224.297.049.125.073.271.073.438 0 .16-.026.303-.079.428-.053.124-.13.222-.233.294-.102.071-.221.107-.357.107-.104 0-.201-.023-.292-.069-.091-.047-.164-.108-.218-.185.006.105.009.208.009.308v.593l-.245.016m.712-.87c.074 0 .141-.017.199-.05.059-.034.106-.081.142-.139.036-.059.063-.125.082-.199.019-.075.028-.156.028-.243 0-.184-.039-.334-.116-.451-.077-.118-.19-.177-.338-.177-.311 0-.466.201-.466.602 0 .218.036.382.108.492.073.11.193.166.36.166"/><path d="m19.11 24.943v1.607h-.246v-1.607h.246m0-.584v.29h-.246v-.29h.246"/><path d="m20.05 26.583c-.109 0-.21-.012-.303-.035-.092-.023-.167-.054-.224-.091l.031-.207c.163.087.323.13.48.13.238 0 .361-.084.368-.252 0-.071-.025-.127-.076-.168-.051-.041-.15-.087-.299-.138l-.122-.042c-.141-.047-.241-.105-.302-.174-.06-.069-.09-.156-.091-.259 0-.126.05-.23.151-.313.102-.083.24-.125.416-.125.182 0 .347.035.497.105l-.072.188c-.151-.063-.293-.094-.425-.094-.103 0-.183.021-.242.062-.058.04-.086.097-.086.17 0 .063.021.11.063.144.042.033.126.071.252.114.032.012.073.025.122.041.162.053.277.115.344.188.067.071.101.168.101.29-.002.148-.055.264-.16.346-.104.081-.246.122-.423.122"/><path d="m21.647 26.583c-.236 0-.421-.077-.555-.23-.133-.153-.199-.354-.199-.602.001-.25.069-.453.204-.608.136-.156.321-.234.557-.234.083 0 .163.01.24.031.078.021.14.047.185.081l-.067.19c-.114-.062-.235-.092-.362-.092-.155 0-.278.057-.369.17-.09.113-.135.268-.135.464 0 .191.044.343.133.456.09.111.214.167.372.167.126 0 .255-.034.387-.103l.031.195c-.106.077-.247.116-.42.116"/><path d="m22.674 24.943v1.607h-.246v-1.607h.246m0-.584v.29h-.246v-.29h.246"/><path d="m23.14 26.55v-1.607h.205l.031.23c.063-.079.143-.143.237-.19.096-.049.199-.073.309-.073.186 0 .323.052.412.157.089.104.133.263.133.479v1h-.245c0-.645 0-.99-.002-1.036-.004-.137-.032-.237-.084-.3-.051-.063-.136-.095-.256-.095-.126 0-.231.03-.315.091-.084.061-.139.139-.164.236-.01.065-.015.141-.015.226v.879h-.248"/><path d="m25.494 26.34c.083 0 .156-.015.218-.044.063-.029.111-.07.146-.122.035-.052.061-.109.078-.173.018-.063.026-.133.026-.208v-.119c0-.078-.009-.15-.026-.215-.018-.066-.045-.125-.082-.177-.036-.053-.085-.094-.146-.123-.061-.029-.131-.044-.212-.044-.067 0-.129.013-.185.038-.055.025-.1.059-.136.101-.035.041-.065.089-.091.145-.024.055-.042.11-.053.167-.011.057-.016.114-.016.171 0 .057.006.113.018.168.012.056.03.11.056.163.025.053.056.099.092.139.036.039.081.071.135.095.055.024.114.037.179.037m-.376.945l-.022-.221h.299c.083 0 .155-.006.217-.018.062-.012.113-.031.154-.059.041-.026.074-.056.1-.089.025-.032.044-.075.057-.127.014-.052.022-.104.026-.155.005-.051.007-.113.007-.188v-.142c-.059.084-.126.149-.204.195-.077.045-.175.067-.294.067-.092 0-.177-.016-.255-.047-.077-.032-.143-.075-.196-.127-.053-.053-.098-.114-.136-.183-.037-.069-.064-.141-.082-.215-.017-.074-.025-.149-.025-.224 0-.117.014-.226.042-.325.029-.1.072-.188.129-.267.057-.078.131-.139.223-.183.093-.045.199-.067.318-.067.105 0 .197.021.275.062.079.04.15.102.212.186v-.214h.239v1.491c0 .068-.002.128-.006.179-.003.052-.011.109-.025.171-.013.063-.03.116-.053.161-.022.045-.054.09-.095.135-.04.046-.088.083-.145.11-.056.028-.125.051-.208.069-.083.018-.177.026-.281.026h-.271"/><path d="m28.29 25.24c-.071-.086-.169-.129-.294-.129-.125 0-.227.044-.306.133-.079.088-.125.208-.139.362h.848c0-.159-.036-.281-.108-.366m-.246 1.343c-.233 0-.417-.074-.552-.223-.134-.148-.201-.352-.201-.609 0-.249.065-.451.195-.605.13-.155.301-.234.513-.237.199 0 .357.068.473.205.117.136.176.317.176.545 0 .012 0 .033-.002.064 0 .031 0 .054 0 .067h-1.103c.003.183.05.325.141.428.092.102.215.152.369.152.17 0 .34-.045.511-.135l.038.198c-.163.1-.349.149-.558.149"/><path d="m29.415 26.579c-.156 0-.267-.042-.333-.126-.064-.084-.097-.23-.097-.438v-1.696l.243-.015v1.614c0 .066 0 .12.002.16.002.04.006.08.012.119.006.038.014.067.023.086.01.02.024.038.042.054.019.016.041.026.066.032.026.005.059.007.097.007.031 0 .093-.006.185-.018l.013.195c-.101.017-.185.025-.253.025"/><path d="m30.1 24.943v1.607h-.246v-1.607h.246m0-.584v.29h-.246v-.29h.246"/><path d="m31.08 26.579c-.158 0-.271-.039-.337-.116-.066-.077-.102-.202-.105-.374v-.965h-.239l.01-.161.227-.021.084-.368.161-.006v.374h.447v.182h-.447v.921c0 .122.019.208.056.258.037.05.101.075.19.075.032 0 .102-.008.209-.023l.01.193c-.116.021-.205.031-.267.031"/><path d="m31.781 26.567c-.061 0-.108-.019-.144-.057-.034-.039-.051-.084-.051-.136 0-.053.017-.098.051-.136.034-.038.082-.057.144-.057.062 0 .109.019.144.057.034.038.051.084.051.136 0 .053-.017.098-.051.136-.034.038-.082.057-.144.057"/><path d="m34.431 24.383h.271l-.787 2.167h-.264l-.784-2.167h.271l.482 1.374c.063.179.117.347.163.505.015-.073.069-.243.164-.51.152-.437.313-.893.483-1.37"/><path d="m35.2 24.943v1.607h-.246v-1.607h.246m0-.584v.29h-.246v-.29h.246"/><path d="m36.07 26.55l-.623-1.607h.262l.354.955c0 0 .049.136.146.407.033-.104.079-.239.138-.404.074-.208.189-.527.346-.958h.261l-.618 1.607h-.267"/><path d="m37.615 26.386c.116 0 .218-.032.306-.095.089-.064.146-.151.171-.259v-.271c-.005 0-.035.002-.089.007-.054.005-.089.008-.105.009-.212.019-.36.053-.444.104-.083.051-.125.132-.125.245 0 .086.025.151.076.195.051.044.121.066.209.066m.532.164c-.015-.063-.029-.13-.042-.202-.089.089-.172.15-.25.185-.078.034-.17.051-.275.051-.15 0-.271-.039-.363-.117-.091-.079-.136-.192-.136-.34 0-.164.062-.286.186-.365.125-.079.305-.128.539-.148.032-.003.081-.007.145-.012.065-.006.114-.01.146-.013v-.142c0-.113-.026-.197-.079-.252-.053-.055-.136-.082-.249-.082-.158 0-.318.039-.479.117-.005-.012-.018-.045-.038-.101-.021-.057-.031-.086-.032-.088.071-.04.156-.072.253-.095.099-.024.199-.037.3-.037.2 0 .344.044.432.132.089.087.133.235.133.445v1.063h-.19"/><path d="m40.803 26.55v-.836c0-.078-.002-.144-.006-.196-.003-.053-.011-.106-.023-.161-.012-.055-.029-.098-.051-.129-.021-.032-.052-.058-.091-.078-.039-.021-.086-.031-.141-.031-.107 0-.199.029-.275.086-.075.058-.129.139-.161.243-.009.07-.013.146-.013.226v.876h-.245v-.863c0-.072-.002-.135-.007-.188-.005-.054-.014-.105-.028-.155-.014-.051-.032-.092-.056-.123-.022-.031-.053-.056-.091-.075-.038-.019-.084-.028-.136-.028-.117 0-.216.03-.296.089-.079.06-.132.139-.16.237-.009.075-.013.157-.013.245v.86h-.245c-.002-1-.003-1.541-.003-1.607h.205l.031.23c.049-.074.118-.137.208-.188.09-.051.192-.076.306-.076.06 0 .114.006.164.019.051.012.093.027.126.045.034.019.064.041.091.067.026.025.047.051.062.076.015.024.027.05.037.078.117-.19.296-.286.538-.286.179 0 .31.051.393.154.084.102.126.252.126.453v1.034h-.245"/><path d="m41.3 26.01v-1.071h.246v1.074c0 .07.01.13.029.179.021.049.049.087.086.114.038.026.081.045.127.057.048.012.103.018.164.018.127 0 .226-.028.296-.084.071-.056.107-.15.107-.284v-1.074h.246v1.071c0 .082-.012.156-.035.221-.023.065-.055.12-.095.164-.039.043-.086.079-.142.107-.056.028-.115.049-.177.062-.062.013-.128.019-.199.019-.07 0-.137-.006-.199-.019-.063-.013-.122-.033-.179-.062-.056-.029-.104-.065-.145-.108-.04-.044-.072-.099-.095-.164-.023-.065-.035-.139-.035-.22"/><path d="m43.45 26.583c-.109 0-.21-.012-.303-.035-.092-.023-.167-.054-.224-.091l.031-.207c.163.087.323.13.48.13.238 0 .361-.084.368-.252 0-.071-.025-.127-.076-.168-.051-.041-.15-.087-.299-.138l-.122-.042c-.141-.047-.241-.105-.302-.174-.06-.069-.09-.156-.091-.259 0-.126.05-.23.151-.313.102-.083.24-.125.416-.125.182 0 .347.035.497.105l-.072.188c-.151-.063-.293-.094-.425-.094-.103 0-.183.021-.242.062-.058.04-.086.097-.086.17 0 .063.021.11.063.144.042.033.126.071.252.114.032.012.073.025.122.041.162.053.277.115.344.188.067.071.101.168.101.29-.002.148-.055.264-.16.346-.104.081-.246.122-.423.122"/><path d="m13.539 28.23c-.102 0-.171.029-.209.088-.037.059-.056.16-.056.305v.075h.387v.182h-.387v1.425h-.245v-1.425h-.261l.021-.161.24-.021v-.072c.002-.207.041-.357.116-.45.076-.094.199-.141.368-.141.065 0 .146.007.24.022l-.016.192c-.087-.013-.153-.019-.198-.019"/><path d="m14.821 28.99c-.071-.086-.169-.129-.294-.129-.125 0-.227.044-.306.133-.079.088-.125.208-.139.362h.848c0-.159-.036-.281-.108-.366m-.246 1.343c-.233 0-.417-.074-.552-.223-.134-.148-.201-.352-.201-.609 0-.249.065-.451.195-.605.13-.155.301-.234.513-.237.199 0 .357.068.473.205.117.136.176.317.176.545 0 .012 0 .033-.002.064 0 .031 0 .054 0 .067h-1.103c.003.183.05.325.141.428.092.102.215.152.369.152.17 0 .34-.045.511-.135l.038.198c-.163.1-.349.149-.558.149"/><path d="m15.462 29.763v-1.071h.246v1.074c0 .07.01.13.029.179.021.049.049.087.086.114.038.026.081.045.127.057.048.012.103.018.164.018.127 0 .226-.028.296-.084.071-.056.107-.15.107-.284v-1.074h.246v1.071c0 .082-.012.156-.035.221-.023.065-.055.12-.095.164-.039.043-.086.079-.142.107-.056.028-.115.049-.177.062-.062.013-.128.019-.199.019-.07 0-.137-.006-.199-.019-.063-.013-.122-.033-.179-.062-.056-.029-.104-.065-.145-.108-.04-.044-.072-.099-.095-.164-.023-.065-.035-.139-.035-.22"/><path d="m17.753 30.09c.083 0 .156-.015.218-.044.063-.029.111-.07.146-.122.035-.052.061-.109.078-.173.018-.063.026-.133.026-.208v-.119c0-.078-.009-.15-.026-.215-.018-.066-.045-.125-.082-.177-.036-.053-.085-.094-.146-.123-.061-.029-.131-.044-.212-.044-.067 0-.129.013-.185.038-.055.025-.1.059-.136.101-.035.041-.065.089-.091.145-.024.055-.042.11-.053.167-.011.057-.016.114-.016.171 0 .057.006.113.018.168.012.056.03.11.056.163.025.053.056.099.092.139.036.039.081.071.135.095.055.024.114.037.179.037m-.376.945l-.022-.221h.299c.083 0 .155-.006.217-.018.062-.012.113-.031.154-.059.041-.026.074-.056.1-.089.025-.032.044-.075.057-.127.014-.052.022-.104.026-.155.005-.051.007-.113.007-.188v-.142c-.059.084-.126.149-.204.195-.077.045-.175.067-.294.067-.092 0-.177-.016-.255-.047-.077-.032-.143-.075-.196-.127-.053-.053-.098-.114-.136-.183-.037-.069-.064-.141-.082-.215-.017-.074-.025-.149-.025-.224 0-.117.014-.226.042-.325.029-.1.072-.188.129-.267.057-.078.131-.139.223-.183.093-.045.199-.067.318-.067.105 0 .197.021.275.062.079.04.15.102.212.186v-.214h.239v1.491c0 .068-.002.128-.006.179-.003.052-.011.109-.025.171-.013.063-.03.116-.053.161-.022.045-.054.09-.095.135-.04.046-.088.083-.145.11-.056.028-.125.051-.208.069-.083.018-.177.026-.281.026h-.271"/><path d="m19.16 28.693v1.607h-.246v-1.607h.246m0-.584v.29h-.246v-.29h.246"/><path d="m20.08 30.14c.116 0 .218-.032.306-.095.089-.064.146-.151.171-.259v-.271c-.005 0-.035.002-.089.007-.054.005-.089.008-.105.009-.212.019-.36.053-.444.104-.083.051-.125.132-.125.245 0 .086.025.151.076.195.051.044.121.066.209.066m.532.164c-.015-.063-.029-.13-.042-.202-.089.089-.172.15-.25.185-.078.034-.17.051-.275.051-.15 0-.271-.039-.363-.117-.091-.079-.136-.192-.136-.34 0-.164.062-.286.186-.365.125-.079.305-.128.539-.148.032-.003.081-.007.145-.012.065-.006.114-.01.146-.013v-.142c0-.113-.026-.197-.079-.252-.053-.055-.136-.082-.249-.082-.158 0-.318.039-.479.117-.005-.012-.018-.045-.038-.101-.021-.057-.031-.086-.032-.088.071-.04.156-.072.253-.095.099-.024.199-.037.3-.037.2 0 .344.044.432.132.089.087.133.235.133.445v1.063h-.19"/><path d="m21.744 30.33c-.158 0-.271-.039-.337-.116-.066-.077-.102-.202-.105-.374v-.965h-.239l.01-.161.227-.021.084-.368.161-.006v.374h.447v.182h-.447v.921c0 .122.019.208.056.258.037.05.101.075.19.075.032 0 .102-.008.209-.023l.01.193c-.116.021-.205.031-.267.031"/><path d="m22.447 30.32c-.061 0-.108-.019-.144-.057-.034-.039-.051-.084-.051-.136 0-.053.017-.098.051-.136.034-.038.082-.057.144-.057.062 0 .109.019.144.057.034.038.051.084.051.136 0 .053-.017.098-.051.136-.034.038-.082.057-.144.057"/><path d="m23.755 29.942c.226.111.467.167.725.167.317 0 .476-.145.476-.434 0-.094-.025-.169-.076-.227-.05-.059-.141-.104-.274-.138l-.431-.108c-.329-.083-.494-.259-.494-.527 0-.206.071-.359.212-.458.142-.101.337-.151.587-.151.131 0 .253.014.368.042.114.028.21.066.287.114l-.073.207c-.065-.036-.152-.068-.261-.097-.107-.028-.216-.042-.327-.042-.354 0-.53.123-.53.368 0 .083.027.15.081.201.055.05.136.088.245.114l.412.1c.176.042.309.109.4.202.091.092.136.223.136.393 0 .221-.068.387-.204.5-.135.111-.318.167-.551.167-.174 0-.329-.018-.464-.053-.135-.036-.242-.079-.321-.127l.076-.211"/><path d="m26.475 28.99c-.071-.086-.169-.129-.294-.129-.125 0-.227.044-.306.133-.079.088-.125.208-.139.362h.848c0-.159-.036-.281-.108-.366m-.246 1.343c-.233 0-.417-.074-.552-.223-.134-.148-.201-.352-.201-.609 0-.249.065-.451.195-.605.13-.155.301-.234.513-.237.199 0 .357.068.473.205.117.136.176.317.176.545 0 .012 0 .033-.002.064 0 .031 0 .054 0 .067h-1.103c.003.183.05.325.141.428.092.102.215.152.369.152.17 0 .34-.045.511-.135l.038.198c-.163.1-.349.149-.558.149"/><path d="m27.799 30.12c.161 0 .281-.052.359-.155.079-.104.119-.251.119-.444 0-.217-.038-.38-.114-.489-.075-.11-.197-.166-.366-.166-.075 0-.142.016-.199.048-.058.032-.104.077-.139.135-.035.058-.062.124-.081.199-.018.074-.026.156-.026.245 0 .125.015.233.045.325.031.092.081.165.149.22.068.055.153.082.253.082m.482-.056c-.053.081-.123.146-.211.193-.088.048-.186.072-.294.072-.212 0-.378-.075-.498-.226-.12-.151-.18-.357-.18-.617 0-.248.061-.448.183-.601.122-.153.286-.23.491-.23.106 0 .207.023.3.07.095.046.166.108.212.186l-.004-.139v-.708l.242-.015v2.246h-.208l-.032-.233"/><path d="m30.16 30.14c.116 0 .218-.032.306-.095.089-.064.146-.151.171-.259v-.271c-.005 0-.035.002-.089.007-.054.005-.089.008-.105.009-.212.019-.36.053-.444.104-.083.051-.125.132-.125.245 0 .086.025.151.076.195.051.044.121.066.209.066m.532.164c-.015-.063-.029-.13-.042-.202-.089.089-.172.15-.25.185-.078.034-.17.051-.275.051-.15 0-.271-.039-.363-.117-.091-.079-.136-.192-.136-.34 0-.164.062-.286.186-.365.125-.079.305-.128.539-.148.032-.003.081-.007.145-.012.065-.006.114-.01.146-.013v-.142c0-.113-.026-.197-.079-.252-.053-.055-.136-.082-.249-.082-.158 0-.318.039-.479.117-.005-.012-.018-.045-.038-.101-.021-.057-.031-.086-.032-.088.071-.04.156-.072.253-.095.099-.024.199-.037.3-.037.2 0 .344.044.432.132.089.087.133.235.133.445v1.063h-.19"/><path d="m31.822 30.33c-.158 0-.271-.039-.337-.116-.066-.077-.102-.202-.105-.374v-.965h-.239l.01-.161.227-.021.084-.368.161-.006v.374h.447v.182h-.447v.921c0 .122.019.208.056.258.037.05.101.075.19.075.032 0 .102-.008.209-.023l.01.193c-.116.021-.205.031-.267.031"/><path d="m33.615 30.33c-.158 0-.271-.039-.337-.116-.066-.077-.102-.202-.105-.374v-.965h-.239l.01-.161.227-.021.084-.368.161-.006v.374h.447v.182h-.447v.921c0 .122.019.208.056.258.037.05.101.075.19.075.032 0 .102-.008.209-.023l.01.193c-.116.021-.205.031-.267.031"/><path d="m34.09 29.763v-1.071h.246v1.074c0 .07.01.13.029.179.021.049.049.087.086.114.038.026.081.045.127.057.048.012.103.018.164.018.127 0 .226-.028.296-.084.071-.056.107-.15.107-.284v-1.074h.246v1.071c0 .082-.012.156-.035.221-.023.065-.055.12-.095.164-.039.043-.086.079-.142.107-.056.028-.115.049-.177.062-.062.013-.128.019-.199.019-.07 0-.137-.006-.199-.019-.063-.013-.122-.033-.179-.062-.056-.029-.104-.065-.145-.108-.04-.044-.072-.099-.095-.164-.023-.065-.035-.139-.035-.22"/><path d="m36.477 28.678c.044 0 .084.003.12.009l-.009.226c-.045-.008-.084-.012-.117-.012-.137 0-.248.048-.334.144-.085.095-.127.212-.127.353v.902h-.245c-.001-.986-.002-1.522-.002-1.607h.204l.023.289c.056-.091.126-.164.212-.22.086-.056.177-.083.274-.084"/><path d="m36.852 30.997v-2.304h.215l.023.218c.141-.168.31-.252.507-.252.146 0 .271.037.372.11.102.073.176.172.224.297.049.125.073.271.073.438 0 .16-.026.303-.079.428-.053.124-.13.222-.233.294-.102.071-.221.107-.357.107-.104 0-.201-.023-.292-.069-.091-.047-.164-.108-.218-.185.006.105.009.208.009.308v.593l-.245.016m.712-.87c.074 0 .141-.017.199-.05.059-.034.106-.081.142-.139.036-.059.063-.125.082-.199.019-.075.028-.156.028-.243 0-.184-.039-.334-.116-.451-.077-.118-.19-.177-.338-.177-.311 0-.466.201-.466.602 0 .218.036.382.108.492.073.11.193.166.36.166"/><path d="m38.898 28.693v1.607h-.246v-1.607h.246m0-.584v.29h-.246v-.29h.246"/><path d="m39.839 30.333c-.109 0-.21-.012-.303-.035-.092-.023-.167-.054-.224-.091l.031-.207c.163.087.323.13.48.13.238 0 .361-.084.368-.252 0-.071-.025-.127-.076-.168-.051-.041-.15-.087-.299-.138l-.122-.042c-.141-.047-.241-.105-.302-.174-.06-.069-.09-.156-.091-.259 0-.126.05-.23.151-.313.102-.083.24-.125.416-.125.182 0 .347.035.497.105l-.072.188c-.151-.063-.293-.094-.425-.094-.103 0-.183.021-.242.062-.058.04-.086.097-.086.17 0 .063.021.11.063.144.042.033.126.071.252.114.032.012.073.025.122.041.162.053.277.115.344.188.067.071.101.168.101.29-.002.148-.055.264-.16.346-.104.081-.246.122-.423.122"/><path d="m41.916 30.3l-.623-1.607h.262l.354.955c0 0 .049.136.146.407.033-.104.079-.239.138-.404.074-.208.189-.527.346-.958h.261l-.618 1.607h-.267"/><path d="m43.3 28.693v1.607h-.246v-1.607h.246m0-.584v.29h-.246v-.29h.246"/><path d="m44.28 30.33c-.158 0-.271-.039-.337-.116-.066-.077-.102-.202-.105-.374v-.965h-.239l.01-.161.227-.021.084-.368.161-.006v.374h.447v.182h-.447v.921c0 .122.019.208.056.258.037.05.101.075.19.075.032 0 .102-.008.209-.023l.01.193c-.116.021-.205.031-.267.031"/><path d="m45.27 30.14c.116 0 .218-.032.306-.095.089-.064.146-.151.171-.259v-.271c-.005 0-.035.002-.089.007-.054.005-.089.008-.105.009-.212.019-.36.053-.444.104-.083.051-.125.132-.125.245 0 .086.025.151.076.195.051.044.121.066.209.066m.532.164c-.015-.063-.029-.13-.042-.202-.089.089-.172.15-.25.185-.078.034-.17.051-.275.051-.15 0-.271-.039-.363-.117-.091-.079-.136-.192-.136-.34 0-.164.062-.286.186-.365.125-.079.305-.128.539-.148.032-.003.081-.007.145-.012.065-.006.114-.01.146-.013v-.142c0-.113-.026-.197-.079-.252-.053-.055-.136-.082-.249-.082-.158 0-.318.039-.479.117-.005-.012-.018-.045-.038-.101-.021-.057-.031-.086-.032-.088.071-.04.156-.072.253-.095.099-.024.199-.037.3-.037.2 0 .344.044.432.132.089.087.133.235.133.445v1.063h-.19"/><path d="m47.34 28.99c-.071-.086-.169-.129-.294-.129-.125 0-.227.044-.306.133-.079.088-.125.208-.139.362h.848c0-.159-.036-.281-.108-.366m-.246 1.343c-.233 0-.417-.074-.552-.223-.134-.148-.201-.352-.201-.609 0-.249.065-.451.195-.605.13-.155.301-.234.513-.237.199 0 .357.068.473.205.117.136.176.317.176.545 0 .012 0 .033-.002.064 0 .031 0 .054 0 .067h-1.103c.003.183.05.325.141.428.092.102.215.152.369.152.17 0 .34-.045.511-.135l.038.198c-.163.1-.349.149-.558.149"/><path d="m13.34 34.05l-.623-1.607h.262l.354.955c0 0 .049.136.146.407.033-.104.079-.239.138-.404.074-.208.189-.527.346-.958h.261l-.618 1.607h-.267"/><path d="m15.348 32.74c-.071-.086-.169-.129-.294-.129-.125 0-.227.044-.306.133-.079.088-.125.208-.139.362h.848c0-.159-.036-.281-.108-.366m-.246 1.343c-.233 0-.417-.074-.552-.223-.134-.148-.201-.352-.201-.609 0-.249.065-.451.195-.605.13-.155.301-.234.513-.237.199 0 .357.068.473.205.117.136.176.317.176.545 0 .012 0 .033-.002.064 0 .031 0 .054 0 .067h-1.103c.003.183.05.325.141.428.092.102.215.152.369.152.17 0 .34-.045.511-.135l.038.198c-.163.1-.349.149-.558.149"/><path d="m16.478 34.08c-.156 0-.267-.042-.333-.126-.064-.084-.097-.23-.097-.438v-1.696l.243-.015v1.614c0 .066 0 .12.002.16.002.04.006.08.012.119.006.038.014.067.023.086.01.02.024.038.042.054.019.016.041.026.066.032.026.005.059.007.097.007.031 0 .093-.006.185-.018l.013.195c-.101.017-.185.025-.253.025"/><path d="m17.17 32.443v1.607h-.246v-1.607h.246m0-.584v.29h-.246v-.29h.246"/><path d="m18.14 34.08c-.158 0-.271-.039-.337-.116-.066-.077-.102-.202-.105-.374v-.965h-.239l.01-.161.227-.021.084-.368.161-.006v.374h.447v.182h-.447v.921c0 .122.019.208.056.258.037.05.101.075.19.075.032 0 .102-.008.209-.023l.01.193c-.116.021-.205.031-.267.031"/><path d="m20.346 32.74c-.071-.086-.169-.129-.294-.129-.125 0-.227.044-.306.133-.079.088-.125.208-.139.362h.848c0-.159-.036-.281-.108-.366m-.246 1.343c-.233 0-.417-.074-.552-.223-.134-.148-.201-.352-.201-.609 0-.249.065-.451.195-.605.13-.155.301-.234.513-.237.199 0 .357.068.473.205.117.136.176.317.176.545 0 .012 0 .033-.002.064 0 .031 0 .054 0 .067h-1.103c.003.183.05.325.141.428.092.102.215.152.369.152.17 0 .34-.045.511-.135l.038.198c-.163.1-.349.149-.558.149"/><path d="m20.988 33.513v-1.071h.246v1.074c0 .07.01.13.029.179.021.049.049.087.086.114.038.026.081.045.127.057.048.012.103.018.164.018.127 0 .226-.028.296-.084.071-.056.107-.15.107-.284v-1.074h.246v1.071c0 .082-.012.156-.035.221-.023.065-.055.12-.095.164-.039.043-.086.079-.142.107-.056.028-.115.049-.177.062-.062.013-.128.019-.199.019-.07 0-.137-.006-.199-.019-.063-.013-.122-.033-.179-.062-.056-.029-.104-.065-.145-.108-.04-.044-.072-.099-.095-.164-.023-.065-.035-.139-.035-.22"/><path d="m22.943 32.443v1.607h-.246v-1.607h.246m0-.584v.29h-.246v-.29h.246"/><path d="m23.884 34.08c-.109 0-.21-.012-.303-.035-.092-.023-.167-.054-.224-.091l.031-.207c.163.087.323.13.48.13.238 0 .361-.084.368-.252 0-.071-.025-.127-.076-.168-.051-.041-.15-.087-.299-.138l-.122-.042c-.141-.047-.241-.105-.302-.174-.06-.069-.09-.156-.091-.259 0-.126.05-.23.151-.313.102-.083.24-.125.416-.125.182 0 .347.035.497.105l-.072.188c-.151-.063-.293-.094-.425-.094-.103 0-.183.021-.242.062-.058.04-.086.097-.086.17 0 .063.021.11.063.144.042.033.126.071.252.114.032.012.073.025.122.041.162.053.277.115.344.188.067.071.101.168.101.29-.002.148-.055.264-.16.346-.104.081-.246.122-.423.122"/><path d="m26.84 34.05v-.836c0-.078-.002-.144-.006-.196-.003-.053-.011-.106-.023-.161-.012-.055-.029-.098-.051-.129-.021-.032-.052-.058-.091-.078-.039-.021-.086-.031-.141-.031-.107 0-.199.029-.275.086-.075.058-.129.139-.161.243-.009.07-.013.146-.013.226v.876h-.245v-.863c0-.072-.002-.135-.007-.188-.005-.054-.014-.105-.028-.155-.014-.051-.032-.092-.056-.123-.022-.031-.053-.056-.091-.075-.038-.019-.084-.028-.136-.028-.117 0-.216.03-.296.089-.079.06-.132.139-.16.237-.009.075-.013.157-.013.245v.86h-.245c-.002-1-.003-1.541-.003-1.607h.205l.031.23c.049-.074.118-.137.208-.188.09-.051.192-.076.306-.076.06 0 .114.006.164.019.051.012.093.027.126.045.034.019.064.041.091.067.026.025.047.051.062.076.015.024.027.05.037.078.117-.19.296-.286.538-.286.179 0 .31.051.393.154.084.102.126.252.126.453v1.034h-.245"/><path d="m27.574 33.25c0 .19.042.343.126.458.085.114.208.171.371.171.16 0 .281-.057.362-.171.082-.114.123-.268.123-.461 0-.196-.041-.351-.122-.463-.08-.113-.203-.17-.368-.17-.16 0-.282.058-.366.173-.084.115-.126.27-.126.463m1.235-.004c0 .249-.066.451-.199.606-.133.154-.316.231-.551.231-.226 0-.405-.078-.539-.234-.133-.156-.199-.357-.199-.602 0-.25.067-.452.201-.606.134-.154.317-.231.551-.231.229 0 .41.078.541.233.131.154.196.355.196.604"/><path d="m29.78 33.872c.161 0 .281-.052.359-.155.079-.104.119-.251.119-.444 0-.217-.038-.38-.114-.489-.075-.11-.197-.166-.366-.166-.075 0-.142.016-.199.048-.058.032-.104.077-.139.135-.035.058-.062.124-.081.199-.018.074-.026.156-.026.245 0 .125.015.233.045.325.031.092.081.165.149.22.068.055.153.082.253.082m.482-.056c-.053.081-.123.146-.211.193-.088.048-.186.072-.294.072-.212 0-.378-.075-.498-.226-.12-.151-.18-.357-.18-.617 0-.248.061-.448.183-.601.122-.153.286-.23.491-.23.106 0 .207.023.3.07.095.046.166.108.212.186l-.004-.139v-.708l.242-.015v2.246h-.208l-.032-.233"/><path d="m32.14 33.886c.116 0 .218-.032.306-.095.089-.064.146-.151.171-.259v-.271c-.005 0-.035.002-.089.007-.054.005-.089.008-.105.009-.212.019-.36.053-.444.104-.083.051-.125.132-.125.245 0 .086.025.151.076.195.051.044.121.066.209.066m.532.164c-.015-.063-.029-.13-.042-.202-.089.089-.172.15-.25.185-.078.034-.17.051-.275.051-.15 0-.271-.039-.363-.117-.091-.079-.136-.192-.136-.34 0-.164.062-.286.186-.365.125-.079.305-.128.539-.148.032-.003.081-.007.145-.012.065-.006.114-.01.146-.013v-.142c0-.113-.026-.197-.079-.252-.053-.055-.136-.082-.249-.082-.158 0-.318.039-.479.117-.005-.012-.018-.045-.038-.101-.021-.057-.031-.086-.032-.088.071-.04.156-.072.253-.095.099-.024.199-.037.3-.037.2 0 .344.044.432.132.089.087.133.235.133.445v1.063h-.19"/><path d="m33.722 34.08c-.156 0-.267-.042-.333-.126-.064-.084-.097-.23-.097-.438v-1.696l.243-.015v1.614c0 .066 0 .12.002.16.002.04.006.08.012.119.006.038.014.067.023.086.01.02.024.038.042.054.019.016.041.026.066.032.026.005.059.007.097.007.031 0 .093-.006.185-.018l.013.195c-.101.017-.185.025-.253.025"/><path d="m34.41 32.443v1.607h-.246v-1.607h.246m0-.584v.29h-.246v-.29h.246"/><path d="m35.471 34.08c-.14 0-.261-.036-.363-.108-.102-.072-.178-.17-.229-.293-.051-.123-.076-.265-.076-.425 0-.166.025-.312.076-.438.051-.127.128-.227.231-.3.104-.073.228-.11.372-.11.2 0 .369.087.505.261l.018-.227h.217v2.29l-.245.015v-.713c0-.071.002-.144.007-.217-.055.082-.126.147-.215.195-.089.048-.188.072-.299.072m.032-.211c.162 0 .281-.051.357-.152.077-.102.117-.25.119-.445 0-.216-.038-.379-.113-.489-.075-.11-.197-.166-.365-.166-.102 0-.187.029-.256.088-.068.058-.117.132-.146.224-.029.091-.044.196-.044.316 0 .091.008.173.025.248.018.073.044.139.079.196.035.057.082.101.139.133.059.031.127.047.205.047"/><path d="m36.591 33.513v-1.071h.246v1.074c0 .07.01.13.029.179.021.049.049.087.086.114.038.026.081.045.127.057.048.012.103.018.164.018.127 0 .226-.028.296-.084.071-.056.107-.15.107-.284v-1.074h.246v1.071c0 .082-.012.156-.035.221-.023.065-.055.12-.095.164-.039.043-.086.079-.142.107-.056.028-.115.049-.177.062-.062.013-.128.019-.199.019-.07 0-.137-.006-.199-.019-.063-.013-.122-.033-.179-.062-.056-.029-.104-.065-.145-.108-.04-.044-.072-.099-.095-.164-.023-.065-.035-.139-.035-.22"/><path d="m39.18 32.74c-.071-.086-.169-.129-.294-.129-.125 0-.227.044-.306.133-.079.088-.125.208-.139.362h.848c0-.159-.036-.281-.108-.366m-.246 1.343c-.233 0-.417-.074-.552-.223-.134-.148-.201-.352-.201-.609 0-.249.065-.451.195-.605.13-.155.301-.234.513-.237.199 0 .357.068.473.205.117.136.176.317.176.545 0 .012 0 .033-.002.064 0 .031 0 .054 0 .067h-1.103c.003.183.05.325.141.428.092.102.215.152.369.152.17 0 .34-.045.511-.135l.038.198c-.163.1-.349.149-.558.149"/><path d="m40.39 34.08c-.158 0-.271-.039-.337-.116-.066-.077-.102-.202-.105-.374v-.965h-.239l.01-.161.227-.021.084-.368.161-.006v.374h.447v.182h-.447v.921c0 .122.019.208.056.258.037.05.101.075.19.075.032 0 .102-.008.209-.023l.01.193c-.116.021-.205.031-.267.031"/><path d="m41.1 34.07c-.061 0-.108-.019-.144-.057-.034-.039-.051-.084-.051-.136 0-.053.017-.098.051-.136.034-.038.082-.057.144-.057.062 0 .109.019.144.057.034.038.051.084.051.136 0 .053-.017.098-.051.136-.034.038-.082.057-.144.057"/><path d="m14.03 36.9c-.206-.599-.32-.935-.341-1.01 0 0-.119.336-.356 1.01h.697m.335.899l-.253-.687h-.864l-.262.687h-.258l.832-2.171h.259l.807 2.171h-.261"/><path d="m15.764 36.49c-.071-.086-.169-.129-.294-.129-.125 0-.227.044-.306.133-.079.088-.125.208-.139.362h.848c0-.159-.036-.281-.108-.366m-.246 1.343c-.233 0-.417-.074-.552-.223-.134-.148-.201-.352-.201-.609 0-.249.065-.451.195-.605.13-.155.301-.234.513-.237.199 0 .357.068.473.205.117.136.176.317.176.545 0 .012 0 .033-.002.064 0 .031 0 .054 0 .067h-1.103c.003.183.05.325.141.428.092.102.215.152.369.152.17 0 .34-.045.511-.135l.038.198c-.163.1-.349.149-.558.149"/><path d="m16.461 37.8v-1.607h.205l.031.23c.063-.079.143-.143.237-.19.096-.049.199-.073.309-.073.186 0 .323.052.412.157.089.104.133.263.133.479v1h-.245c0-.645 0-.99-.002-1.036-.004-.137-.032-.237-.084-.3-.051-.063-.136-.095-.256-.095-.126 0-.231.03-.315.091-.084.061-.139.139-.164.236-.01.065-.015.141-.015.226v.879h-.248"/><path d="m19.12 36.49c-.071-.086-.169-.129-.294-.129-.125 0-.227.044-.306.133-.079.088-.125.208-.139.362h.848c0-.159-.036-.281-.108-.366m-.246 1.343c-.233 0-.417-.074-.552-.223-.134-.148-.201-.352-.201-.609 0-.249.065-.451.195-.605.13-.155.301-.234.513-.237.199 0 .357.068.473.205.117.136.176.317.176.545 0 .012 0 .033-.002.064 0 .031 0 .054 0 .067h-1.103c.003.183.05.325.141.428.092.102.215.152.369.152.17 0 .34-.045.511-.135l.038.198c-.163.1-.349.149-.558.149"/><path d="m20.266 37.636c.116 0 .218-.032.306-.095.089-.064.146-.151.171-.259v-.271c-.005 0-.035.002-.089.007-.054.005-.089.008-.105.009-.212.019-.36.053-.444.104-.083.051-.125.132-.125.245 0 .086.025.151.076.195.051.044.121.066.209.066m.532.164c-.015-.063-.029-.13-.042-.202-.089.089-.172.15-.25.185-.078.034-.17.051-.275.051-.15 0-.271-.039-.363-.117-.091-.079-.136-.192-.136-.34 0-.164.062-.286.186-.365.125-.079.305-.128.539-.148.032-.003.081-.007.145-.012.065-.006.114-.01.146-.013v-.142c0-.113-.026-.197-.079-.252-.053-.055-.136-.082-.249-.082-.158 0-.318.039-.479.117-.005-.012-.018-.045-.038-.101-.021-.057-.031-.086-.032-.088.071-.04.156-.072.253-.095.099-.024.199-.037.3-.037.2 0 .344.044.432.132.089.087.133.235.133.445v1.063h-.19"/><path d="m21.413 37.8v-1.607h.205l.031.23c.063-.079.143-.143.237-.19.096-.049.199-.073.309-.073.186 0 .323.052.412.157.089.104.133.263.133.479v1h-.245c0-.645 0-.99-.002-1.036-.004-.137-.032-.237-.084-.3-.051-.063-.136-.095-.256-.095-.126 0-.231.03-.315.091-.084.061-.139.139-.164.236-.01.065-.015.141-.015.226v.879h-.248"/><path d="m24.376 37.833c-.109 0-.21-.012-.303-.035-.092-.023-.167-.054-.224-.091l.031-.207c.163.087.323.13.48.13.238 0 .361-.084.368-.252 0-.071-.025-.127-.076-.168-.051-.041-.15-.087-.299-.138l-.122-.042c-.141-.047-.241-.105-.302-.174-.06-.069-.09-.156-.091-.259 0-.126.05-.23.151-.313.102-.083.24-.125.416-.125.182 0 .347.035.497.105l-.072.188c-.151-.063-.293-.094-.425-.094-.103 0-.183.021-.242.062-.058.04-.086.097-.086.17 0 .063.021.11.063.144.042.033.126.071.252.114.032.012.073.025.122.041.162.053.277.115.344.188.067.071.101.168.101.29-.002.148-.055.264-.16.346-.104.081-.246.122-.423.122"/><path d="m25.971 37.833c-.236 0-.421-.077-.555-.23-.133-.153-.199-.354-.199-.602.001-.25.069-.453.204-.608.136-.156.321-.234.557-.234.083 0 .163.01.24.031.078.021.14.047.185.081l-.067.19c-.114-.062-.235-.092-.362-.092-.155 0-.278.057-.369.17-.09.113-.135.268-.135.464 0 .191.044.343.133.456.09.111.214.167.372.167.126 0 .255-.034.387-.103l.031.195c-.106.077-.247.116-.42.116"/><path d="m27.635 36.49c-.071-.086-.169-.129-.294-.129-.125 0-.227.044-.306.133-.079.088-.125.208-.139.362h.848c0-.159-.036-.281-.108-.366m-.246 1.343c-.233 0-.417-.074-.552-.223-.134-.148-.201-.352-.201-.609 0-.249.065-.451.195-.605.13-.155.301-.234.513-.237.199 0 .357.068.473.205.117.136.176.317.176.545 0 .012 0 .033-.002.064 0 .031 0 .054 0 .067h-1.103c.003.183.05.325.141.428.092.102.215.152.369.152.17 0 .34-.045.511-.135l.038.198c-.163.1-.349.149-.558.149"/><path d="m28.765 37.829c-.156 0-.267-.042-.333-.126-.064-.084-.097-.23-.097-.438v-1.696l.243-.015v1.614c0 .066 0 .12.002.16.002.04.006.08.012.119.006.038.014.067.023.086.01.02.024.038.042.054.019.016.041.026.066.032.026.005.059.007.097.007.031 0 .093-.006.185-.018l.013.195c-.101.017-.185.025-.253.025"/><path d="m30.09 36.49c-.071-.086-.169-.129-.294-.129-.125 0-.227.044-.306.133-.079.088-.125.208-.139.362h.848c0-.159-.036-.281-.108-.366m-.246 1.343c-.233 0-.417-.074-.552-.223-.134-.148-.201-.352-.201-.609 0-.249.065-.451.195-.605.13-.155.301-.234.513-.237.199 0 .357.068.473.205.117.136.176.317.176.545 0 .012 0 .033-.002.064 0 .031 0 .054 0 .067h-1.103c.003.183.05.325.141.428.092.102.215.152.369.152.17 0 .34-.045.511-.135l.038.198c-.163.1-.349.149-.558.149"/><path d="m31.508 36.18c.044 0 .084.003.12.009l-.009.226c-.045-.008-.084-.012-.117-.012-.137 0-.248.048-.334.144-.085.095-.127.212-.127.353v.902h-.245c-.001-.986-.002-1.522-.002-1.607h.204l.023.289c.056-.091.126-.164.212-.22.086-.056.177-.083.274-.084"/><path d="m32.17 36.19v1.607h-.246v-1.607h.246m0-.584v.29h-.246v-.29h.246"/><path d="m33.11 37.833c-.109 0-.21-.012-.303-.035-.092-.023-.167-.054-.224-.091l.031-.207c.163.087.323.13.48.13.238 0 .361-.084.368-.252 0-.071-.025-.127-.076-.168-.051-.041-.15-.087-.299-.138l-.122-.042c-.141-.047-.241-.105-.302-.174-.06-.069-.09-.156-.091-.259 0-.126.05-.23.151-.313.102-.083.24-.125.416-.125.182 0 .347.035.497.105l-.072.188c-.151-.063-.293-.094-.425-.094-.103 0-.183.021-.242.062-.058.04-.086.097-.086.17 0 .063.021.11.063.144.042.033.126.071.252.114.032.012.073.025.122.041.162.053.277.115.344.188.067.071.101.168.101.29-.002.148-.055.264-.16.346-.104.081-.246.122-.423.122"/><path d="m34.627 37.833c-.14 0-.261-.036-.363-.108-.102-.072-.178-.17-.229-.293-.051-.123-.076-.265-.076-.425 0-.166.025-.312.076-.438.051-.127.128-.227.231-.3.104-.073.228-.11.372-.11.2 0 .369.087.505.261l.018-.227h.217v2.29l-.245.015v-.713c0-.071.002-.144.007-.217-.055.082-.126.147-.215.195-.089.048-.188.072-.299.072m.032-.211c.162 0 .281-.051.357-.152.077-.102.117-.25.119-.445 0-.216-.038-.379-.113-.489-.075-.11-.197-.166-.365-.166-.102 0-.187.029-.256.088-.068.058-.117.132-.146.224-.029.091-.044.196-.044.316 0 .091.008.173.025.248.018.073.044.139.079.196.035.057.082.101.139.133.059.031.127.047.205.047"/><path d="m35.748 37.26v-1.071h.246v1.074c0 .07.01.13.029.179.021.049.049.087.086.114.038.026.081.045.127.057.048.012.103.018.164.018.127 0 .226-.028.296-.084.071-.056.107-.15.107-.284v-1.074h.246v1.071c0 .082-.012.156-.035.221-.023.065-.055.12-.095.164-.039.043-.086.079-.142.107-.056.028-.115.049-.177.062-.062.013-.128.019-.199.019-.07 0-.137-.006-.199-.019-.063-.013-.122-.033-.179-.062-.056-.029-.104-.065-.145-.108-.04-.044-.072-.099-.095-.164-.023-.065-.035-.139-.035-.22"/><path d="m38.34 36.49c-.071-.086-.169-.129-.294-.129-.125 0-.227.044-.306.133-.079.088-.125.208-.139.362h.848c0-.159-.036-.281-.108-.366m-.246 1.343c-.233 0-.417-.074-.552-.223-.134-.148-.201-.352-.201-.609 0-.249.065-.451.195-.605.13-.155.301-.234.513-.237.199 0 .357.068.473.205.117.136.176.317.176.545 0 .012 0 .033-.002.064 0 .031 0 .054 0 .067h-1.103c.003.183.05.325.141.428.092.102.215.152.369.152.17 0 .34-.045.511-.135l.038.198c-.163.1-.349.149-.558.149"/><path d="m41.828 37.8v-.836c0-.078-.002-.144-.006-.196-.003-.053-.011-.106-.023-.161-.012-.055-.029-.098-.051-.129-.021-.032-.052-.058-.091-.078-.039-.021-.086-.031-.141-.031-.107 0-.199.029-.275.086-.075.058-.129.139-.161.243-.009.07-.013.146-.013.226v.876h-.245v-.863c0-.072-.002-.135-.007-.188-.005-.054-.014-.105-.028-.155-.014-.051-.032-.092-.056-.123-.022-.031-.053-.056-.091-.075-.038-.019-.084-.028-.136-.028-.117 0-.216.03-.296.089-.079.06-.132.139-.16.237-.009.075-.013.157-.013.245v.86h-.245c-.002-1-.003-1.541-.003-1.607h.205l.031.23c.049-.074.118-.137.208-.188.09-.051.192-.076.306-.076.06 0 .114.006.164.019.051.012.093.027.126.045.034.019.064.041.091.067.026.025.047.051.062.076.015.024.027.05.037.078.117-.19.296-.286.538-.286.179 0 .31.051.393.154.084.102.126.252.126.453v1.034h-.245"/><path d="m43.31 36.49c-.071-.086-.169-.129-.294-.129-.125 0-.227.044-.306.133-.079.088-.125.208-.139.362h.848c0-.159-.036-.281-.108-.366m-.246 1.343c-.233 0-.417-.074-.552-.223-.134-.148-.201-.352-.201-.609 0-.249.065-.451.195-.605.13-.155.301-.234.513-.237.199 0 .357.068.473.205.117.136.176.317.176.545 0 .012 0 .033-.002.064 0 .031 0 .054 0 .067h-1.103c.003.183.05.325.141.428.092.102.215.152.369.152.17 0 .34-.045.511-.135l.038.198c-.163.1-.349.149-.558.149"/><path d="m44.519 37.829c-.158 0-.271-.039-.337-.116-.066-.077-.102-.202-.105-.374v-.965h-.239l.01-.161.227-.021.084-.368.161-.006v.374h.447v.182h-.447v.921c0 .122.019.208.056.258.037.05.101.075.19.075.032 0 .102-.008.209-.023l.01.193c-.116.021-.205.031-.267.031"/><path d="m44.994 37.26v-1.071h.246v1.074c0 .07.01.13.029.179.021.049.049.087.086.114.038.026.081.045.127.057.048.012.103.018.164.018.127 0 .226-.028.296-.084.071-.056.107-.15.107-.284v-1.074h.246v1.071c0 .082-.012.156-.035.221-.023.065-.055.12-.095.164-.039.043-.086.079-.142.107-.056.028-.115.049-.177.062-.062.013-.128.019-.199.019-.07 0-.137-.006-.199-.019-.063-.013-.122-.033-.179-.062-.056-.029-.104-.065-.145-.108-.04-.044-.072-.099-.095-.164-.023-.065-.035-.139-.035-.22"/><path d="m47.14 37.833c-.109 0-.21-.012-.303-.035-.092-.023-.167-.054-.224-.091l.031-.207c.163.087.323.13.48.13.238 0 .361-.084.368-.252 0-.071-.025-.127-.076-.168-.051-.041-.15-.087-.299-.138l-.122-.042c-.141-.047-.241-.105-.302-.174-.06-.069-.09-.156-.091-.259 0-.126.05-.23.151-.313.102-.083.24-.125.416-.125.182 0 .347.035.497.105l-.072.188c-.151-.063-.293-.094-.425-.094-.103 0-.183.021-.242.062-.058.04-.086.097-.086.17 0 .063.021.11.063.144.042.033.126.071.252.114.032.012.073.025.122.041.162.053.277.115.344.188.067.071.101.168.101.29-.002.148-.055.264-.16.346-.104.081-.246.122-.423.122"/><path d="m13.854 40.24c-.071-.086-.169-.129-.294-.129-.125 0-.227.044-.306.133-.079.088-.125.208-.139.362h.848c0-.159-.036-.281-.108-.366m-.246 1.343c-.233 0-.417-.074-.552-.223-.134-.148-.201-.352-.201-.609 0-.249.065-.451.195-.605.13-.155.301-.234.513-.237.199 0 .357.068.473.205.117.136.176.317.176.545 0 .012 0 .033-.002.064 0 .031 0 .054 0 .067h-1.103c.003.183.05.325.141.428.092.102.215.152.369.152.17 0 .34-.045.511-.135l.038.198c-.163.1-.349.149-.558.149"/><path d="m15.175 41.34c.083 0 .156-.015.218-.044.063-.029.111-.07.146-.122.035-.052.061-.109.078-.173.018-.063.026-.133.026-.208v-.119c0-.078-.009-.15-.026-.215-.018-.066-.045-.125-.082-.177-.036-.053-.085-.094-.146-.123-.061-.029-.131-.044-.212-.044-.067 0-.129.013-.185.038-.055.025-.1.059-.136.101-.035.041-.065.089-.091.145-.024.055-.042.11-.053.167-.011.057-.016.114-.016.171 0 .057.006.113.018.168.012.056.03.11.056.163.025.053.056.099.092.139.036.039.081.071.135.095.055.024.114.037.179.037m-.376.945l-.022-.221h.299c.083 0 .155-.006.217-.018.062-.012.113-.031.154-.059.041-.026.074-.056.1-.089.025-.032.044-.075.057-.127.014-.052.022-.104.026-.155.005-.051.007-.113.007-.188v-.142c-.059.084-.126.149-.204.195-.077.045-.175.067-.294.067-.092 0-.177-.016-.255-.047-.077-.032-.143-.075-.196-.127-.053-.053-.098-.114-.136-.183-.037-.069-.064-.141-.082-.215-.017-.074-.025-.149-.025-.224 0-.117.014-.226.042-.325.029-.1.072-.188.129-.267.057-.078.131-.139.223-.183.093-.045.199-.067.318-.067.105 0 .197.021.275.062.079.04.15.102.212.186v-.214h.239v1.491c0 .068-.002.128-.006.179-.003.052-.011.109-.025.171-.013.063-.03.116-.053.161-.022.045-.054.09-.095.135-.04.046-.088.083-.145.11-.056.028-.125.051-.208.069-.083.018-.177.026-.281.026h-.271"/><path d="m17.217 40.24c-.071-.086-.169-.129-.294-.129-.125 0-.227.044-.306.133-.079.088-.125.208-.139.362h.848c0-.159-.036-.281-.108-.366m-.246 1.343c-.233 0-.417-.074-.552-.223-.134-.148-.201-.352-.201-.609 0-.249.065-.451.195-.605.13-.155.301-.234.513-.237.199 0 .357.068.473.205.117.136.176.317.176.545 0 .012 0 .033-.002.064 0 .031 0 .054 0 .067h-1.103c.003.183.05.325.141.428.092.102.215.152.369.152.17 0 .34-.045.511-.135l.038.198c-.163.1-.349.149-.558.149"/><path d="m18.427 41.579c-.158 0-.271-.039-.337-.116-.066-.077-.102-.202-.105-.374v-.965h-.239l.01-.161.227-.021.084-.368.161-.006v.374h.447v.182h-.447v.921c0 .122.019.208.056.258.037.05.101.075.19.075.032 0 .102-.008.209-.023l.01.193c-.116.021-.205.031-.267.031"/><path d="m20.19 41.583c-.109 0-.21-.012-.303-.035-.092-.023-.167-.054-.224-.091l.031-.207c.163.087.323.13.48.13.238 0 .361-.084.368-.252 0-.071-.025-.127-.076-.168-.051-.041-.15-.087-.299-.138l-.122-.042c-.141-.047-.241-.105-.302-.174-.06-.069-.09-.156-.091-.259 0-.126.05-.23.151-.313.102-.083.24-.125.416-.125.182 0 .347.035.497.105l-.072.188c-.151-.063-.293-.094-.425-.094-.103 0-.183.021-.242.062-.058.04-.086.097-.086.17 0 .063.021.11.063.144.042.033.126.071.252.114.032.012.073.025.122.041.162.053.277.115.344.188.067.071.101.168.101.29-.002.148-.055.264-.16.346-.104.081-.246.122-.423.122"/><path d="m22.03 40.24c-.071-.086-.169-.129-.294-.129-.125 0-.227.044-.306.133-.079.088-.125.208-.139.362h.848c0-.159-.036-.281-.108-.366m-.246 1.343c-.233 0-.417-.074-.552-.223-.134-.148-.201-.352-.201-.609 0-.249.065-.451.195-.605.13-.155.301-.234.513-.237.199 0 .357.068.473.205.117.136.176.317.176.545 0 .012 0 .033-.002.064 0 .031 0 .054 0 .067h-1.103c.003.183.05.325.141.428.092.102.215.152.369.152.17 0 .34-.045.511-.135l.038.198c-.163.1-.349.149-.558.149"/><path d="m24.766 41.55v-.836c0-.078-.002-.144-.006-.196-.003-.053-.011-.106-.023-.161-.012-.055-.029-.098-.051-.129-.021-.032-.052-.058-.091-.078-.039-.021-.086-.031-.141-.031-.107 0-.199.029-.275.086-.075.058-.129.139-.161.243-.009.07-.013.146-.013.226v.876h-.245v-.863c0-.072-.002-.135-.007-.188-.005-.054-.014-.105-.028-.155-.014-.051-.032-.092-.056-.123-.022-.031-.053-.056-.091-.075-.038-.019-.084-.028-.136-.028-.117 0-.216.03-.296.089-.079.06-.132.139-.16.237-.009.075-.013.157-.013.245v.86h-.245c-.002-1-.003-1.541-.003-1.607h.205l.031.23c.049-.074.118-.137.208-.188.09-.051.192-.076.306-.076.06 0 .114.006.164.019.051.012.093.027.126.045.034.019.064.041.091.067.026.025.047.051.062.076.015.024.027.05.037.078.117-.19.296-.286.538-.286.179 0 .31.051.393.154.084.102.126.252.126.453v1.034h-.245"/><path d="m25.494 41.567c-.061 0-.108-.019-.144-.057-.034-.039-.051-.084-.051-.136 0-.053.017-.098.051-.136.034-.038.082-.057.144-.057.062 0 .109.019.144.057.034.038.051.084.051.136 0 .053-.017.098-.051.136-.034.038-.082.057-.144.057"/><path d="m28.554 41.55h-.287l-1.125-1.705-.073-.101c.008.205.012.388.012.549v1.257h-.237v-2.167h.283l1.128 1.705.075.101c-.007-.312-.01-.492-.01-.541v-1.266h.236v2.167"/><path d="m29.482 41.39c.116 0 .218-.032.306-.095.089-.064.146-.151.171-.259v-.271c-.005 0-.035.002-.089.007-.054.005-.089.008-.105.009-.212.019-.36.053-.444.104-.083.051-.125.132-.125.245 0 .086.025.151.076.195.051.044.121.066.209.066m.532.164c-.015-.063-.029-.13-.042-.202-.089.089-.172.15-.25.185-.078.034-.17.051-.275.051-.15 0-.271-.039-.363-.117-.091-.079-.136-.192-.136-.34 0-.164.062-.286.186-.365.125-.079.305-.128.539-.148.032-.003.081-.007.145-.012.065-.006.114-.01.146-.013v-.142c0-.113-.026-.197-.079-.252-.053-.055-.136-.082-.249-.082-.158 0-.318.039-.479.117-.005-.012-.018-.045-.038-.101-.021-.057-.031-.086-.032-.088.071-.04.156-.072.253-.095.099-.024.199-.037.3-.037.2 0 .344.044.432.132.089.087.133.235.133.445v1.063h-.19"/><path d="m32.67 41.55v-.836c0-.078-.002-.144-.006-.196-.003-.053-.011-.106-.023-.161-.012-.055-.029-.098-.051-.129-.021-.032-.052-.058-.091-.078-.039-.021-.086-.031-.141-.031-.107 0-.199.029-.275.086-.075.058-.129.139-.161.243-.009.07-.013.146-.013.226v.876h-.245v-.863c0-.072-.002-.135-.007-.188-.005-.054-.014-.105-.028-.155-.014-.051-.032-.092-.056-.123-.022-.031-.053-.056-.091-.075-.038-.019-.084-.028-.136-.028-.117 0-.216.03-.296.089-.079.06-.132.139-.16.237-.009.075-.013.157-.013.245v.86h-.245c-.002-1-.003-1.541-.003-1.607h.205l.031.23c.049-.074.118-.137.208-.188.09-.051.192-.076.306-.076.06 0 .114.006.164.019.051.012.093.027.126.045.034.019.064.041.091.067.026.025.047.051.062.076.015.024.027.05.037.078.117-.19.296-.286.538-.286.179 0 .31.051.393.154.084.102.126.252.126.453v1.034h-.245"/><path d="m36.02 41.55v-.836c0-.078-.002-.144-.006-.196-.003-.053-.011-.106-.023-.161-.012-.055-.029-.098-.051-.129-.021-.032-.052-.058-.091-.078-.039-.021-.086-.031-.141-.031-.107 0-.199.029-.275.086-.075.058-.129.139-.161.243-.009.07-.013.146-.013.226v.876h-.245v-.863c0-.072-.002-.135-.007-.188-.005-.054-.014-.105-.028-.155-.014-.051-.032-.092-.056-.123-.022-.031-.053-.056-.091-.075-.038-.019-.084-.028-.136-.028-.117 0-.216.03-.296.089-.079.06-.132.139-.16.237-.009.075-.013.157-.013.245v.86h-.245c-.002-1-.003-1.541-.003-1.607h.205l.031.23c.049-.074.118-.137.208-.188.09-.051.192-.076.306-.076.06 0 .114.006.164.019.051.012.093.027.126.045.034.019.064.041.091.067.026.025.047.051.062.076.015.024.027.05.037.078.117-.19.296-.286.538-.286.179 0 .31.051.393.154.084.102.126.252.126.453v1.034h-.245"/><path d="m37.04 41.39c.116 0 .218-.032.306-.095.089-.064.146-.151.171-.259v-.271c-.005 0-.035.002-.089.007-.054.005-.089.008-.105.009-.212.019-.36.053-.444.104-.083.051-.125.132-.125.245 0 .086.025.151.076.195.051.044.121.066.209.066m.532.164c-.015-.063-.029-.13-.042-.202-.089.089-.172.15-.25.185-.078.034-.17.051-.275.051-.15 0-.271-.039-.363-.117-.091-.079-.136-.192-.136-.34 0-.164.062-.286.186-.365.125-.079.305-.128.539-.148.032-.003.081-.007.145-.012.065-.006.114-.01.146-.013v-.142c0-.113-.026-.197-.079-.252-.053-.055-.136-.082-.249-.082-.158 0-.318.039-.479.117-.005-.012-.018-.045-.038-.101-.021-.057-.031-.086-.032-.088.071-.04.156-.072.253-.095.099-.024.199-.037.3-.037.2 0 .344.044.432.132.089.087.133.235.133.445v1.063h-.19"/><path d="m38.661 41.583c-.109 0-.21-.012-.303-.035-.092-.023-.167-.054-.224-.091l.031-.207c.163.087.323.13.48.13.238 0 .361-.084.368-.252 0-.071-.025-.127-.076-.168-.051-.041-.15-.087-.299-.138l-.122-.042c-.141-.047-.241-.105-.302-.174-.06-.069-.09-.156-.091-.259 0-.126.05-.23.151-.313.102-.083.24-.125.416-.125.182 0 .347.035.497.105l-.072.188c-.151-.063-.293-.094-.425-.094-.103 0-.183.021-.242.062-.058.04-.086.097-.086.17 0 .063.021.11.063.144.042.033.126.071.252.114.032.012.073.025.122.041.162.053.277.115.344.188.067.071.101.168.101.29-.002.148-.055.264-.16.346-.104.081-.246.122-.423.122"/><path d="m40.06 41.583c-.109 0-.21-.012-.303-.035-.092-.023-.167-.054-.224-.091l.031-.207c.163.087.323.13.48.13.238 0 .361-.084.368-.252 0-.071-.025-.127-.076-.168-.051-.041-.15-.087-.299-.138l-.122-.042c-.141-.047-.241-.105-.302-.174-.06-.069-.09-.156-.091-.259 0-.126.05-.23.151-.313.102-.083.24-.125.416-.125.182 0 .347.035.497.105l-.072.188c-.151-.063-.293-.094-.425-.094-.103 0-.183.021-.242.062-.058.04-.086.097-.086.17 0 .063.021.11.063.144.042.033.126.071.252.114.032.012.073.025.122.041.162.053.277.115.344.188.067.071.101.168.101.29-.002.148-.055.264-.16.346-.104.081-.246.122-.423.122"/><path d="m41.44 41.39c.116 0 .218-.032.306-.095.089-.064.146-.151.171-.259v-.271c-.005 0-.035.002-.089.007-.054.005-.089.008-.105.009-.212.019-.36.053-.444.104-.083.051-.125.132-.125.245 0 .086.025.151.076.195.051.044.121.066.209.066m.532.164c-.015-.063-.029-.13-.042-.202-.089.089-.172.15-.25.185-.078.034-.17.051-.275.051-.15 0-.271-.039-.363-.117-.091-.079-.136-.192-.136-.34 0-.164.062-.286.186-.365.125-.079.305-.128.539-.148.032-.003.081-.007.145-.012.065-.006.114-.01.146-.013v-.142c0-.113-.026-.197-.079-.252-.053-.055-.136-.082-.249-.082-.158 0-.318.039-.479.117-.005-.012-.018-.045-.038-.101-.021-.057-.031-.086-.032-.088.071-.04.156-.072.253-.095.099-.024.199-.037.3-.037.2 0 .344.044.432.132.089.087.133.235.133.445v1.063h-.19"/><path d="m13.441 45.33c-.158 0-.271-.039-.337-.116-.066-.077-.102-.202-.105-.374v-.965h-.239l.01-.161.227-.021.084-.368.161-.006v.374h.447v.182h-.447v.921c0 .122.019.208.056.258.037.05.101.075.19.075.032 0 .102-.008.209-.023l.01.193c-.116.021-.205.031-.267.031"/><path d="m13.916 44.763v-1.071h.246v1.074c0 .07.01.13.029.179.021.049.049.087.086.114.038.026.081.045.127.057.048.012.103.018.164.018.127 0 .226-.028.296-.084.071-.056.107-.15.107-.284v-1.074h.246v1.071c0 .082-.012.156-.035.221-.023.065-.055.12-.095.164-.039.043-.086.079-.142.107-.056.028-.115.049-.177.062-.062.013-.128.019-.199.019-.07 0-.137-.006-.199-.019-.063-.013-.122-.033-.179-.062-.056-.029-.104-.065-.145-.108-.04-.044-.072-.099-.095-.164-.023-.065-.035-.139-.035-.22"/><path d="m16.303 43.678c.044 0 .084.003.12.009l-.009.226c-.045-.008-.084-.012-.117-.012-.137 0-.248.048-.334.144-.085.095-.127.212-.127.353v.902h-.245c-.001-.986-.002-1.522-.002-1.607h.204l.023.289c.056-.091.126-.164.212-.22.086-.056.177-.083.274-.084"/><path d="m16.678 45.997v-2.304h.215l.023.218c.141-.168.31-.252.507-.252.146 0 .271.037.372.11.102.073.176.172.224.297.049.125.073.271.073.438 0 .16-.026.303-.079.428-.053.124-.13.222-.233.294-.102.071-.221.107-.357.107-.104 0-.201-.023-.292-.069-.091-.047-.164-.108-.218-.185.006.105.009.208.009.308v.593l-.245.016m.712-.87c.074 0 .141-.017.199-.05.059-.034.106-.081.142-.139.036-.059.063-.125.082-.199.019-.075.028-.156.028-.243 0-.184-.039-.334-.116-.451-.077-.118-.19-.177-.338-.177-.311 0-.466.201-.466.602 0 .218.036.382.108.492.073.11.193.166.36.166"/><path d="m18.725 43.693v1.607h-.246v-1.607h.246m0-.584v.29h-.246v-.29h.246"/><path d="m19.665 45.33c-.109 0-.21-.012-.303-.035-.092-.023-.167-.054-.224-.091l.031-.207c.163.087.323.13.48.13.238 0 .361-.084.368-.252 0-.071-.025-.127-.076-.168-.051-.041-.15-.087-.299-.138l-.122-.042c-.141-.047-.241-.105-.302-.174-.06-.069-.09-.156-.091-.259 0-.126.05-.23.151-.313.102-.083.24-.125.416-.125.182 0 .347.035.497.105l-.072.188c-.151-.063-.293-.094-.425-.094-.103 0-.183.021-.242.062-.058.04-.086.097-.086.17 0 .063.021.11.063.144.042.033.126.071.252.114.032.012.073.025.122.041.162.053.277.115.344.188.067.071.101.168.101.29-.002.148-.055.264-.16.346-.104.081-.246.122-.423.122"/><path d="m20.531 45.707c.003-.028.011-.104.025-.226.015-.121.026-.223.034-.306.008-.083.014-.156.018-.218h.289v.064c-.048.193-.118.422-.211.686h-.154"/><path d="m22.07 45.3v-1.607h.205l.031.23c.063-.079.143-.143.237-.19.096-.049.199-.073.309-.073.186 0 .323.052.412.157.089.104.133.263.133.479v1h-.245c0-.645 0-.99-.002-1.036-.004-.137-.032-.237-.084-.3-.051-.063-.136-.095-.256-.095-.126 0-.231.03-.315.091-.084.061-.139.139-.164.236-.01.065-.015.141-.015.226v.879h-.248"/><path d="m23.982 44.5c0 .19.042.343.126.458.085.114.208.171.371.171.16 0 .281-.057.362-.171.082-.114.123-.268.123-.461 0-.196-.041-.351-.122-.463-.08-.113-.203-.17-.368-.17-.16 0-.282.058-.366.173-.084.115-.126.27-.126.463m1.235-.004c0 .249-.066.451-.199.606-.133.154-.316.231-.551.231-.226 0-.405-.078-.539-.234-.133-.156-.199-.357-.199-.602 0-.25.067-.452.201-.606.134-.154.317-.231.551-.231.229 0 .41.078.541.233.131.154.196.355.196.604"/><path d="m25.561 45.3v-1.607h.205l.031.23c.063-.079.143-.143.237-.19.096-.049.199-.073.309-.073.186 0 .323.052.412.157.089.104.133.263.133.479v1h-.245c0-.645 0-.99-.002-1.036-.004-.137-.032-.237-.084-.3-.051-.063-.136-.095-.256-.095-.126 0-.231.03-.315.091-.084.061-.139.139-.164.236-.01.065-.015.141-.015.226v.879h-.248"/><path d="m27.24 44.763v-1.071h.246v1.074c0 .07.01.13.029.179.021.049.049.087.086.114.038.026.081.045.127.057.048.012.103.018.164.018.127 0 .226-.028.296-.084.071-.056.107-.15.107-.284v-1.074h.246v1.071c0 .082-.012.156-.035.221-.023.065-.055.12-.095.164-.039.043-.086.079-.142.107-.056.028-.115.049-.177.062-.062.013-.128.019-.199.019-.07 0-.137-.006-.199-.019-.063-.013-.122-.033-.179-.062-.056-.029-.104-.065-.145-.108-.04-.044-.072-.099-.095-.164-.023-.065-.035-.139-.035-.22"/><path d="m30.947 45.3v-.836c0-.078-.002-.144-.006-.196-.003-.053-.011-.106-.023-.161-.012-.055-.029-.098-.051-.129-.021-.032-.052-.058-.091-.078-.039-.021-.086-.031-.141-.031-.107 0-.199.029-.275.086-.075.058-.129.139-.161.243-.009.07-.013.146-.013.226v.876h-.245v-.863c0-.072-.002-.135-.007-.188-.005-.054-.014-.105-.028-.155-.014-.051-.032-.092-.056-.123-.022-.031-.053-.056-.091-.075-.038-.019-.084-.028-.136-.028-.117 0-.216.03-.296.089-.079.06-.132.139-.16.237-.009.075-.013.157-.013.245v.86h-.245c-.002-1-.003-1.541-.003-1.607h.205l.031.23c.049-.074.118-.137.208-.188.09-.051.192-.076.306-.076.06 0 .114.006.164.019.051.012.093.027.126.045.034.019.064.041.091.067.026.025.047.051.062.076.015.024.027.05.037.078.117-.19.296-.286.538-.286.179 0 .31.051.393.154.084.102.126.252.126.453v1.034h-.245"/><path d="m33.543 45.3v-.836c0-.078-.002-.144-.006-.196-.003-.053-.011-.106-.023-.161-.012-.055-.029-.098-.051-.129-.021-.032-.052-.058-.091-.078-.039-.021-.086-.031-.141-.031-.107 0-.199.029-.275.086-.075.058-.129.139-.161.243-.009.07-.013.146-.013.226v.876h-.245v-.863c0-.072-.002-.135-.007-.188-.005-.054-.014-.105-.028-.155-.014-.051-.032-.092-.056-.123-.022-.031-.053-.056-.091-.075-.038-.019-.084-.028-.136-.028-.117 0-.216.03-.296.089-.079.06-.132.139-.16.237-.009.075-.013.157-.013.245v.86h-.245c-.002-1-.003-1.541-.003-1.607h.205l.031.23c.049-.074.118-.137.208-.188.09-.051.192-.076.306-.076.06 0 .114.006.164.019.051.012.093.027.126.045.034.019.064.041.091.067.026.025.047.051.062.076.015.024.027.05.037.078.117-.19.296-.286.538-.286.179 0 .31.051.393.154.084.102.126.252.126.453v1.034h-.245"/><path d="m33.893 43.693h.259l.507 1.337.451-1.337h.259c-.434 1.193-.658 1.809-.672 1.846-.067.169-.149.292-.245.371-.096.079-.222.119-.378.119-.047 0-.096-.004-.148-.012l-.015-.208c.055.004.096.006.123.006.11 0 .194-.021.25-.062.058-.04.109-.116.154-.227.04-.103.07-.182.089-.237l-.636-1.595"/><path d="m37.27 43.99c-.071-.086-.169-.129-.294-.129-.125 0-.227.044-.306.133-.079.088-.125.208-.139.362h.848c0-.159-.036-.281-.108-.366m-.246 1.343c-.233 0-.417-.074-.552-.223-.134-.148-.201-.352-.201-.609 0-.249.065-.451.195-.605.13-.155.301-.234.513-.237.199 0 .357.068.473.205.117.136.176.317.176.545 0 .012 0 .033-.002.064 0 .031 0 .054 0 .067h-1.103c.003.183.05.325.141.428.092.102.215.152.369.152.17 0 .34-.045.511-.135l.038.198c-.163.1-.349.149-.558.149"/><path d="m38.484 45.33c-.158 0-.271-.039-.337-.116-.066-.077-.102-.202-.105-.374v-.965h-.239l.01-.161.227-.021.084-.368.161-.006v.374h.447v.182h-.447v.921c0 .122.019.208.056.258.037.05.101.075.19.075.032 0 .102-.008.209-.023l.01.193c-.116.021-.205.031-.267.031"/><path d="m38.964 45.707c.003-.028.011-.104.025-.226.015-.121.026-.223.034-.306.008-.083.014-.156.018-.218h.289v.064c-.048.193-.118.422-.211.686h-.154"/><path d="m13.608 49.08c-.236 0-.421-.077-.555-.23-.133-.153-.199-.354-.199-.602.001-.25.069-.453.204-.608.136-.156.321-.234.557-.234.083 0 .163.01.24.031.078.021.14.047.185.081l-.067.19c-.114-.062-.235-.092-.362-.092-.155 0-.278.057-.369.17-.09.113-.135.268-.135.464 0 .191.044.343.133.456.09.111.214.167.372.167.126 0 .255-.034.387-.103l.031.195c-.106.077-.247.116-.42.116"/><path d="m14.525 48.25c0 .19.042.343.126.458.085.114.208.171.371.171.16 0 .281-.057.362-.171.082-.114.123-.268.123-.461 0-.196-.041-.351-.122-.463-.08-.113-.203-.17-.368-.17-.16 0-.282.058-.366.173-.084.115-.126.27-.126.463m1.235-.004c0 .249-.066.451-.199.606-.133.154-.316.231-.551.231-.226 0-.405-.078-.539-.234-.133-.156-.199-.357-.199-.602 0-.25.067-.452.201-.606.134-.154.317-.231.551-.231.229 0 .41.078.541.233.131.154.196.355.196.604"/><path d="m16.1 49.05v-1.607h.205l.031.23c.063-.079.143-.143.237-.19.096-.049.199-.073.309-.073.186 0 .323.052.412.157.089.104.133.263.133.479v1h-.245c0-.645 0-.99-.002-1.036-.004-.137-.032-.237-.084-.3-.051-.063-.136-.095-.256-.095-.126 0-.231.03-.315.091-.084.061-.139.139-.164.236-.01.065-.015.141-.015.226v.879h-.248"/><path d="m18.317 49.08c-.109 0-.21-.012-.303-.035-.092-.023-.167-.054-.224-.091l.031-.207c.163.087.323.13.48.13.238 0 .361-.084.368-.252 0-.071-.025-.127-.076-.168-.051-.041-.15-.087-.299-.138l-.122-.042c-.141-.047-.241-.105-.302-.174-.06-.069-.09-.156-.091-.259 0-.126.05-.23.151-.313.102-.083.24-.125.416-.125.182 0 .347.035.497.105l-.072.188c-.151-.063-.293-.094-.425-.094-.103 0-.183.021-.242.062-.058.04-.086.097-.086.17 0 .063.021.11.063.144.042.033.126.071.252.114.032.012.073.025.122.041.162.053.277.115.344.188.067.071.101.168.101.29-.002.148-.055.264-.16.346-.104.081-.246.122-.423.122"/><path d="m20.16 47.74c-.071-.086-.169-.129-.294-.129-.125 0-.227.044-.306.133-.079.088-.125.208-.139.362h.848c0-.159-.036-.281-.108-.366m-.246 1.343c-.233 0-.417-.074-.552-.223-.134-.148-.201-.352-.201-.609 0-.249.065-.451.195-.605.13-.155.301-.234.513-.237.199 0 .357.068.473.205.117.136.176.317.176.545 0 .012 0 .033-.002.064 0 .031 0 .054 0 .067h-1.103c.003.183.05.325.141.428.092.102.215.152.369.152.17 0 .34-.045.511-.135l.038.198c-.163.1-.349.149-.558.149"/><path d="m21.536 49.08c-.236 0-.421-.077-.555-.23-.133-.153-.199-.354-.199-.602.001-.25.069-.453.204-.608.136-.156.321-.234.557-.234.083 0 .163.01.24.031.078.021.14.047.185.081l-.067.19c-.114-.062-.235-.092-.362-.092-.155 0-.278.057-.369.17-.09.113-.135.268-.135.464 0 .191.044.343.133.456.09.111.214.167.372.167.126 0 .255-.034.387-.103l.031.195c-.106.077-.247.116-.42.116"/><path d="m22.787 49.08c-.158 0-.271-.039-.337-.116-.066-.077-.102-.202-.105-.374v-.965h-.239l.01-.161.227-.021.084-.368.161-.006v.374h.447v.182h-.447v.921c0 .122.019.208.056.258.037.05.101.075.19.075.032 0 .102-.008.209-.023l.01.193c-.116.021-.205.031-.267.031"/><path d="m24.23 47.74c-.071-.086-.169-.129-.294-.129-.125 0-.227.044-.306.133-.079.088-.125.208-.139.362h.848c0-.159-.036-.281-.108-.366m-.246 1.343c-.233 0-.417-.074-.552-.223-.134-.148-.201-.352-.201-.609 0-.249.065-.451.195-.605.13-.155.301-.234.513-.237.199 0 .357.068.473.205.117.136.176.317.176.545 0 .012 0 .033-.002.064 0 .031 0 .054 0 .067h-1.103c.003.183.05.325.141.428.092.102.215.152.369.152.17 0 .34-.045.511-.135l.038.198c-.163.1-.349.149-.558.149"/><path d="m25.435 49.08c-.158 0-.271-.039-.337-.116-.066-.077-.102-.202-.105-.374v-.965h-.239l.01-.161.227-.021.084-.368.161-.006v.374h.447v.182h-.447v.921c0 .122.019.208.056.258.037.05.101.075.19.075.032 0 .102-.008.209-.023l.01.193c-.116.021-.205.031-.267.031"/><path d="m25.91 48.51v-1.071h.246v1.074c0 .07.01.13.029.179.021.049.049.087.086.114.038.026.081.045.127.057.048.012.103.018.164.018.127 0 .226-.028.296-.084.071-.056.107-.15.107-.284v-1.074h.246v1.071c0 .082-.012.156-.035.221-.023.065-.055.12-.095.164-.039.043-.086.079-.142.107-.056.028-.115.049-.177.062-.062.013-.128.019-.199.019-.07 0-.137-.006-.199-.019-.063-.013-.122-.033-.179-.062-.056-.029-.104-.065-.145-.108-.04-.044-.072-.099-.095-.164-.023-.065-.035-.139-.035-.22"/><path d="m28.502 47.74c-.071-.086-.169-.129-.294-.129-.125 0-.227.044-.306.133-.079.088-.125.208-.139.362h.848c0-.159-.036-.281-.108-.366m-.246 1.343c-.233 0-.417-.074-.552-.223-.134-.148-.201-.352-.201-.609 0-.249.065-.451.195-.605.13-.155.301-.234.513-.237.199 0 .357.068.473.205.117.136.176.317.176.545 0 .012 0 .033-.002.064 0 .031 0 .054 0 .067h-1.103c.003.183.05.325.141.428.092.102.215.152.369.152.17 0 .34-.045.511-.135l.038.198c-.163.1-.349.149-.558.149"/><path d="m29.92 47.43c.044 0 .084.003.12.009l-.009.226c-.045-.008-.084-.012-.117-.012-.137 0-.248.048-.334.144-.085.095-.127.212-.127.353v.902h-.245c-.001-.986-.002-1.522-.002-1.607h.204l.023.289c.056-.091.126-.164.212-.22.086-.056.177-.083.274-.084"/><path d="m31.33 47.44v1.607h-.246v-1.607h.246m0-.584v.29h-.246v-.29h.246"/><path d="m32.422 48.872c.161 0 .281-.052.359-.155.079-.104.119-.251.119-.444 0-.217-.038-.38-.114-.489-.075-.11-.197-.166-.366-.166-.075 0-.142.016-.199.048-.058.032-.104.077-.139.135-.035.058-.062.124-.081.199-.018.074-.026.156-.026.245 0 .125.015.233.045.325.031.092.081.165.149.22.068.055.153.082.253.082m.482-.056c-.053.081-.123.146-.211.193-.088.048-.186.072-.294.072-.212 0-.378-.075-.498-.226-.12-.151-.18-.357-.18-.617 0-.248.061-.448.183-.601.122-.153.286-.23.491-.23.106 0 .207.023.3.07.095.046.166.108.212.186l-.004-.139v-.708l.242-.015v2.246h-.208l-.032-.233"/><path d="m33.521 49.46c.003-.028.011-.104.025-.226.015-.121.026-.223.034-.306.008-.083.014-.156.018-.218h.289v.064c-.048.193-.118.422-.211.686h-.154"/><path d="m35.06 49.747v-2.304h.215l.023.218c.141-.168.31-.252.507-.252.146 0 .271.037.372.11.102.073.176.172.224.297.049.125.073.271.073.438 0 .16-.026.303-.079.428-.053.124-.13.222-.233.294-.102.071-.221.107-.357.107-.104 0-.201-.023-.292-.069-.091-.047-.164-.108-.218-.185.006.105.009.208.009.308v.593l-.245.016m.712-.87c.074 0 .141-.017.199-.05.059-.034.106-.081.142-.139.036-.059.063-.125.082-.199.019-.075.028-.156.028-.243 0-.184-.039-.334-.116-.451-.077-.118-.19-.177-.338-.177-.311 0-.466.201-.466.602 0 .218.036.382.108.492.073.11.193.166.36.166"/><path d="m37.25 49.08c-.156 0-.267-.042-.333-.126-.064-.084-.097-.23-.097-.438v-1.696l.243-.015v1.614c0 .066 0 .12.002.16.002.04.006.08.012.119.006.038.014.067.023.086.01.02.024.038.042.054.019.016.041.026.066.032.026.005.059.007.097.007.031 0 .093-.006.185-.018l.013.195c-.101.017-.185.025-.253.025"/><path d="m38.11 48.886c.116 0 .218-.032.306-.095.089-.064.146-.151.171-.259v-.271c-.005 0-.035.002-.089.007-.054.005-.089.008-.105.009-.212.019-.36.053-.444.104-.083.051-.125.132-.125.245 0 .086.025.151.076.195.051.044.121.066.209.066m.532.164c-.015-.063-.029-.13-.042-.202-.089.089-.172.15-.25.185-.078.034-.17.051-.275.051-.15 0-.271-.039-.363-.117-.091-.079-.136-.192-.136-.34 0-.164.062-.286.186-.365.125-.079.305-.128.539-.148.032-.003.081-.007.145-.012.065-.006.114-.01.146-.013v-.142c0-.113-.026-.197-.079-.252-.053-.055-.136-.082-.249-.082-.158 0-.318.039-.479.117-.005-.012-.018-.045-.038-.101-.021-.057-.031-.086-.032-.088.071-.04.156-.072.253-.095.099-.024.199-.037.3-.037.2 0 .344.044.432.132.089.087.133.235.133.445v1.063h-.19"/><path d="m39.94 49.08c-.236 0-.421-.077-.555-.23-.133-.153-.199-.354-.199-.602.001-.25.069-.453.204-.608.136-.156.321-.234.557-.234.083 0 .163.01.24.031.078.021.14.047.185.081l-.067.19c-.114-.062-.235-.092-.362-.092-.155 0-.278.057-.369.17-.09.113-.135.268-.135.464 0 .191.044.343.133.456.09.111.214.167.372.167.126 0 .255-.034.387-.103l.031.195c-.106.077-.247.116-.42.116"/><path d="m41.604 47.74c-.071-.086-.169-.129-.294-.129-.125 0-.227.044-.306.133-.079.088-.125.208-.139.362h.848c0-.159-.036-.281-.108-.366m-.246 1.343c-.233 0-.417-.074-.552-.223-.134-.148-.201-.352-.201-.609 0-.249.065-.451.195-.605.13-.155.301-.234.513-.237.199 0 .357.068.473.205.117.136.176.317.176.545 0 .012 0 .033-.002.064 0 .031 0 .054 0 .067h-1.103c.003.183.05.325.141.428.092.102.215.152.369.152.17 0 .34-.045.511-.135l.038.198c-.163.1-.349.149-.558.149"/><path d="m43.02 47.43c.044 0 .084.003.12.009l-.009.226c-.045-.008-.084-.012-.117-.012-.137 0-.248.048-.334.144-.085.095-.127.212-.127.353v.902h-.245c-.001-.986-.002-1.522-.002-1.607h.204l.023.289c.056-.091.126-.164.212-.22.086-.056.177-.083.274-.084"/><path d="m43.832 48.886c.116 0 .218-.032.306-.095.089-.064.146-.151.171-.259v-.271c-.005 0-.035.002-.089.007-.054.005-.089.008-.105.009-.212.019-.36.053-.444.104-.083.051-.125.132-.125.245 0 .086.025.151.076.195.051.044.121.066.209.066m.532.164c-.015-.063-.029-.13-.042-.202-.089.089-.172.15-.25.185-.078.034-.17.051-.275.051-.15 0-.271-.039-.363-.117-.091-.079-.136-.192-.136-.34 0-.164.062-.286.186-.365.125-.079.305-.128.539-.148.032-.003.081-.007.145-.012.065-.006.114-.01.146-.013v-.142c0-.113-.026-.197-.079-.252-.053-.055-.136-.082-.249-.082-.158 0-.318.039-.479.117-.005-.012-.018-.045-.038-.101-.021-.057-.031-.086-.032-.088.071-.04.156-.072.253-.095.099-.024.199-.037.3-.037.2 0 .344.044.432.132.089.087.133.235.133.445v1.063h-.19"/><path d="m45.49 49.08c-.158 0-.271-.039-.337-.116-.066-.077-.102-.202-.105-.374v-.965h-.239l.01-.161.227-.021.084-.368.161-.006v.374h.447v.182h-.447v.921c0 .122.019.208.056.258.037.05.101.075.19.075.032 0 .102-.008.209-.023l.01.193c-.116.021-.205.031-.267.031"/><path d="m13.393 52.636c.116 0 .218-.032.306-.095.089-.064.146-.151.171-.259v-.271c-.005 0-.035.002-.089.007-.054.005-.089.008-.105.009-.212.019-.36.053-.444.104-.083.051-.125.132-.125.245 0 .086.025.151.076.195.051.044.121.066.209.066m.532.164c-.015-.063-.029-.13-.042-.202-.089.089-.172.15-.25.185-.078.034-.17.051-.275.051-.15 0-.271-.039-.363-.117-.091-.079-.136-.192-.136-.34 0-.164.062-.286.186-.365.125-.079.305-.128.539-.148.032-.003.081-.007.145-.012.065-.006.114-.01.146-.013v-.142c0-.113-.026-.197-.079-.252-.053-.055-.136-.082-.249-.082-.158 0-.318.039-.479.117-.005-.012-.018-.045-.038-.101-.021-.057-.031-.086-.032-.088.071-.04.156-.072.253-.095.099-.024.199-.037.3-.037.2 0 .344.044.432.132.089.087.133.235.133.445v1.063h-.19"/><path d="m15.219 52.833c-.236 0-.421-.077-.555-.23-.133-.153-.199-.354-.199-.602.001-.25.069-.453.204-.608.136-.156.321-.234.557-.234.083 0 .163.01.24.031.078.021.14.047.185.081l-.067.19c-.114-.062-.235-.092-.362-.092-.155 0-.278.057-.369.17-.09.113-.135.268-.135.464 0 .191.044.343.133.456.09.111.214.167.372.167.126 0 .255-.034.387-.103l.031.195c-.106.077-.247.116-.42.116"/><path d="m15.908 53.21c.003-.028.011-.104.025-.226.015-.121.026-.223.034-.306.008-.083.014-.156.018-.218h.289v.064c-.048.193-.118.422-.211.686h-.154"/><path d="m17.91 52.636c.116 0 .218-.032.306-.095.089-.064.146-.151.171-.259v-.271c-.005 0-.035.002-.089.007-.054.005-.089.008-.105.009-.212.019-.36.053-.444.104-.083.051-.125.132-.125.245 0 .086.025.151.076.195.051.044.121.066.209.066m.532.164c-.015-.063-.029-.13-.042-.202-.089.089-.172.15-.25.185-.078.034-.17.051-.275.051-.15 0-.271-.039-.363-.117-.091-.079-.136-.192-.136-.34 0-.164.062-.286.186-.365.125-.079.305-.128.539-.148.032-.003.081-.007.145-.012.065-.006.114-.01.146-.013v-.142c0-.113-.026-.197-.079-.252-.053-.055-.136-.082-.249-.082-.158 0-.318.039-.479.117-.005-.012-.018-.045-.038-.101-.021-.057-.031-.086-.032-.088.071-.04.156-.072.253-.095.099-.024.199-.037.3-.037.2 0 .344.044.432.132.089.087.133.235.133.445v1.063h-.19"/><path d="m19.06 52.8v-1.607h.205l.031.23c.063-.079.143-.143.237-.19.096-.049.199-.073.309-.073.186 0 .323.052.412.157.089.104.133.263.133.479v1h-.245c0-.645 0-.99-.002-1.036-.004-.137-.032-.237-.084-.3-.051-.063-.136-.095-.256-.095-.126 0-.231.03-.315.091-.084.061-.139.139-.164.236-.01.065-.015.141-.015.226v.879h-.248"/><path d="m21.304 52.829c-.158 0-.271-.039-.337-.116-.066-.077-.102-.202-.105-.374v-.965h-.239l.01-.161.227-.021.084-.368.161-.006v.374h.447v.182h-.447v.921c0 .122.019.208.056.258.037.05.101.075.19.075.032 0 .102-.008.209-.023l.01.193c-.116.021-.205.031-.267.031"/><path d="m22.743 51.49c-.071-.086-.169-.129-.294-.129-.125 0-.227.044-.306.133-.079.088-.125.208-.139.362h.848c0-.159-.036-.281-.108-.366m-.246 1.343c-.233 0-.417-.074-.552-.223-.134-.148-.201-.352-.201-.609 0-.249.065-.451.195-.605.13-.155.301-.234.513-.237.199 0 .357.068.473.205.117.136.176.317.176.545 0 .012 0 .033-.002.064 0 .031 0 .054 0 .067h-1.103c.003.183.05.325.141.428.092.102.215.152.369.152.17 0 .34-.045.511-.135l.038.198c-.163.1-.349.149-.558.149"/><path d="m23.613 52.817c-.061 0-.108-.019-.144-.057-.034-.039-.051-.084-.051-.136 0-.053.017-.098.051-.136.034-.038.082-.057.144-.057.062 0 .109.019.144.057.034.038.051.084.051.136 0 .053-.017.098-.051.136-.034.038-.082.057-.144.057"/></g><g transform="matrix(1.28941.25617-.25617 1.28941 17.799-15.663)" color="#000"><path d="m55.25 10.625c-.16.002-.315.021-.469.043-.029.004-.061.003-.09.008-.001 0-.003 0-.004 0-.191.032-.377.078-.563.137-.115.038-.233.077-.344.125-.088.037-.165.082-.25.125-.041.021-.085.04-.125.063-.978.542-1.733 1.468-1.969 2.656l-5.125 25.813c-.41-.081-.8-.095-1.188-.063-1.643.105-9.839 3.03-10.125 4.469-.483.679-.922 1.328-1.34 1.963-.059.089-.124.182-.182.27-.037.056-.073.112-.109.168-.038.058-.072.116-.109.174-.049.077-.094.15-.143.227-.204.321-.394.631-.58.939-.119.197-.245.4-.357.592-.053.091-.103.178-.154.268-.065.113-.123.221-.186.332-.062.11-.118.216-.178.324-.105.192-.218.388-.316.574-.072.136-.141.269-.209.402-.067.131-.126.257-.189.385-.043.087-.088.176-.129.262-.052.107-.099.211-.148.316-.018.039-.033.075-.051.113-.102.222-.202.443-.293.656-.063.147-.119.289-.176.432-.06.15-.116.295-.17.439-.087.232-.168.461-.24.682-.048.146-.09.288-.131.43-.01.034-.022.07-.031.104-.036.127-.076.258-.107.381-.028.112-.054.222-.078.33-.021.096-.044.194-.063.287-.011.06-.019.115-.029.174-.03.171-.056.341-.074.502-.007.066-.01.129-.016.193-.011.129-.025.259-.029.381-.005.175-.002.342.008.504 0 .003 0 .007 0 .01.001.01-.003.022-.002.031 0 0 .002 0 .002 0 0 .002 0 .004 0 .006.012.172.032.337.061.494.032.176.073.343.125.5.009.006.017.01.025.016.063.184.135.359.225.516.003.002.011.006.014.008.19.325.434.596.736.805 0 0 .47.351 1.375.875.047.027.076.066.125.094.082.047.192.076.281.125-.005.008.005.023 0 .031.061.034.124.028.188.063.09.049.154.105.25.156-.006.013-.025.018-.031.031.055.03.099.032.156.063.201.106.461.2.688.313-.005.009.005.023 0 .031.058.029.127.064.188.094.007-.012.024-.019.031-.031.08.039.167.085.25.125-.003.005.003.026 0 .031 2.079 1.173 15.581 6.02 23.438 4.656.045-.002.082.003.125 0 .299-.017.579-.04.844-.063.207-.017.408-.012.594-.031-.002-.01.002-.021 0-.031.019-.002.044.002.063 0 .008-.008.024.001.031 0 .434-.046.685-.076 1-.125.001.01-.001.021 0 .031.113-.018.246-.046.344-.063-.001-.008.001-.023 0-.031.009-.002.023.001.031 0 .01-.002.021.002.031 0 .564-.098.938-.188.938-.188l-1.125-4.656-.969-4-.469-2v-.031c-.033-.189-.122-.373-.156-.563l-.344-1.469-.375-1.563-.281-1.156-.156-.719-.531-2.156.375-1.906c.251-1.261-.4-2.514-1.553-3.297-.004-.005-.006-.011-.01-.016-.015-.01-.034-.016-.049-.025-.2-.131-.413-.246-.641-.346-.038-.017-.073-.037-.111-.053-.105-.043-.215-.076-.324-.111-.101-.037-.207-.061-.313-.09-.073-.018-.144-.048-.219-.063l.188-.906c-.002-.002-.004-.004-.006-.006l4.943-24.869c.318-1.601-.386-3.158-1.652-4.02-.002-.002-.002-.005-.004-.008-.01-.007-.021-.013-.031-.02-.073-.049-.148-.095-.225-.139-.158-.093-.322-.179-.494-.248-.217-.095-.442-.17-.688-.219-.268-.053-.55-.064-.813-.063-.011 0-.021.002-.031.002 0 0 0-.002 0-.002" transform="matrix(.7461-.14823.14823.7461-10.958 14.324)" fill-opacity=".164" fill="#421300"/><path d="m22 38l-6 13c0 0 1.271.609 3.719 1.156l4.281-11.156-2.469 11.5c1.752.284 3.878.5 6.469.5 1.077 0 2.068-.062 3-.125v-6.875l2.5 6.656c4.321-.573 6.5-1.656 6.5-1.656l-6-13h-12" fill="#d7ab29"/><g fill="#ce5436"><path d="m28 11c1.662 0 3 1.338 3 3v20h-6v-20c0-1.662 1.338-3 3-3"/><g transform="translate(0-1)"><path d="m25 35h6c1.662 0 3 1.115 3 2.5v1.5h-12v-1.5c0-1.385 1.338-2.5 3-2.5"/><path d="m25 35c-.564 0-1.082.151-1.531.375l-.094 3.625h5.219l.094-4h-3.688"/></g></g><path d="m49.25 41.518l1.914 18.979-4.727-10.871-.438 1.875.371 2.432 1.135 6.883c5.718.368 8.805-.471 8.805-.471l-4.406-18.299-2.654-.527m-8.107 2.924l-4.863 14.443c.019.005.041.01.061.016 1.113.307 2.314.598 3.623.867l1.18-15.326" transform="matrix(.7461-.14823.14823.7461-10.958 14.324)" fill="#c4982c"/><path d="m22 38l-.156.313c4.03.755 8.147 1.394 12.875 1.219l-.719-1.531z" fill-opacity=".164" fill="#421300"/></g><path d="m64 4l-2-2 2-1z" fill="#cb952c"/><path d="m0 1v3l2-2z" fill="#ffc94e"/></svg>