<svg xmlns="http://www.w3.org/2000/svg" viewBox="0 0 64 64"><g color="#000"><path d="m0 4v30 28l2 2h30 30l2-2v-28-30h-32-32" fill="#2287d6"/><path d="m2 0l-2 1v3h32 32v-3l-2-1h-30-30" fill="#6fc8f2"/></g><path d="m0 3v3l2-2" fill="#93d6f5"/><path d="m64 6l-2-2 2-1z" fill="#46a5e3"/><path d="m32.559 35.13c-.317-1.382 1.343-2.182 2.474-2.035 2.209.289 3.257 2.767 2.749 4.752-.774 3.02-4.201 4.377-7.01 3.473-3.818-1.229-5.492-5.66-4.184-9.299 1.667-4.635 7.099-6.635 11.55-4.912 5.436 2.104 7.755 8.567 5.62 13.846-2.531 6.259-10 8.906-16.09 6.35-7.06-2.965-10.02-11.479-7.06-18.393 3.386-7.885 12.91-11.183 20.626-7.789 8.681 3.82 12.297 14.392 8.49 22.939-4.236 9.514-15.817 13.463-25.16 9.228-10.306-4.673-14.575-17.307-9.927-27.487 3.644-7.982 11.976-13 20.696-12.778" fill="#deebf5" fill-rule="evenodd" color="#000"/></svg>