<svg xmlns="http://www.w3.org/2000/svg" viewBox="0 0 64 64"><defs><radialGradient id="0" gradientUnits="userSpaceOnUse" gradientTransform="matrix(0 1.40625-1.125 0 52.25-26)" cx="32" cy="18" r="32"><stop stop-color="#496fa4"/><stop offset="1" stop-color="#374860"/></radialGradient></defs><g color="#000"><path d="m0 4v30 28l2 2h30 30l2-2v-28-30h-32-32" fill="url(#0)"/><path d="m0 4v30 28l1.033 1.033 30.967-29.03-32-30" fill="#4f47ca"/><path d="m64 4l-32 30 30.967 29.03 1.033-1.033v-28-30" fill="#3051bf"/><path d="m0 4l32 30 32-30" fill="#4159d3"/><path d="m32 34l-30.967 29.03.967.967h60l.967-.967-30.967-29.03" fill="#3647b1"/><path d="m2 0l-2 1v3h32 32v-3l-2-1h-30-30" fill="#7389ff"/></g><path d="m0 3v3l2-2" fill="#7c90f8"/><path d="m64 6l-2-2 2-1z" fill="#536adf"/><path d="m43.835 15.556c-7.674 0-9.111 10.929-4.794 10.929 4.317 0 12.469-10.929 4.794-10.929m-12.229 1.381c-4.319.561-2.787 8.07-.487 8.207 2.299.141 4.808-8.767.487-8.207m-7.232 2.925c-.188.02-.392.073-.609.163-3.471 1.432-.523 7.345 1.422 6.947 1.825-.372 2.028-7.411-.813-7.11m-5.403 4.631c-.302-.012-.628.085-.975.325-2.779 1.92.965 6.57 2.6 5.85 1.43-.63.488-6.104-1.625-6.175m15.885 3.575c-5.957-.101-13.813 2.855-15.15 8.857-1.451 6.495 5.983 15.519 13.732 15.519 3.812 0 8.196-3.44 9.02-7.8.628-3.325-7.398-1.997-7.11.203.346 2.637-1.951 3.934-4.184 2.234-7.108-5.412 11.807-8.09 10.563-15.479-.387-2.301-3.292-3.474-6.866-3.535" fill="#fff" fill-opacity=".903"/></svg>