<?xml version="1.0" encoding="UTF-8" standalone="no"?>
<!-- Created with Inkscape (http://www.inkscape.org/) -->

<svg
   xmlns:dc="http://purl.org/dc/elements/1.1/"
   xmlns:cc="http://creativecommons.org/ns#"
   xmlns:rdf="http://www.w3.org/1999/02/22-rdf-syntax-ns#"
   xmlns:svg="http://www.w3.org/2000/svg"
   xmlns="http://www.w3.org/2000/svg"
   xmlns:sodipodi="http://sodipodi.sourceforge.net/DTD/sodipodi-0.dtd"
   xmlns:inkscape="http://www.inkscape.org/namespaces/inkscape"
   width="64"
   height="64"
   id="svg13094"
   version="1.1"
   inkscape:version="0.91+devel r"
   sodipodi:docname="Iceweasel.svg">
  <sodipodi:namedview
     id="base"
     pagecolor="#ffffff"
     bordercolor="#666666"
     borderopacity="1.0"
     inkscape:pageopacity="0"
     inkscape:pageshadow="2"
     inkscape:zoom="11.313709"
     inkscape:cx="37.718094"
     inkscape:cy="32.00873"
     inkscape:document-units="px"
     inkscape:current-layer="svg13094"
     showgrid="false"
     inkscape:snap-bbox="false"
     inkscape:bbox-paths="true"
     inkscape:bbox-nodes="true"
     inkscape:snap-bbox-edge-midpoints="true"
     inkscape:snap-bbox-midpoints="true"
     inkscape:object-paths="true"
     inkscape:snap-intersection-paths="true"
     inkscape:object-nodes="true"
     inkscape:snap-smooth-nodes="true"
     inkscape:snap-midpoints="true"
     inkscape:snap-object-midpoints="true"
     inkscape:snap-center="true"
     showguides="true"
     inkscape:guide-bbox="true"
     inkscape:window-width="1920"
     inkscape:window-height="1023"
     inkscape:window-x="-10"
     inkscape:window-y="35"
     inkscape:window-maximized="1"
     inkscape:snap-global="true"
     fit-margin-top="0"
     fit-margin-left="0"
     fit-margin-right="0"
     fit-margin-bottom="0"
     showborder="true"
     inkscape:showpageshadow="false"
     inkscape:snap-page="true">
    <inkscape:grid
       type="xygrid"
       id="grid3075"
       empspacing="5"
       visible="true"
       enabled="true"
       snapvisiblegridlinesonly="true"
       originx="0px"
       originy="18px" />
  </sodipodi:namedview>
  <defs
     id="defs13096" />
  <metadata
     id="metadata13099">
    <rdf:RDF>
      <cc:Work
         rdf:about="">
        <dc:format>image/svg+xml</dc:format>
        <dc:type
           rdf:resource="http://purl.org/dc/dcmitype/StillImage" />
        <dc:title></dc:title>
      </cc:Work>
    </rdf:RDF>
  </metadata>
  <path
     inkscape:connector-curvature="0"
     style="color:#000000;fill:#285be2;fill-opacity:1;fill-rule:nonzero;stroke:none;stroke-width:2.28571415;marker:none;visibility:visible;display:inline;overflow:visible;enable-background:accumulate"
     d="m 0,4 0,30 0,28 2,2 30,0 30,0 2,-2 L 64,34 64,4 32,4 0,4 z"
     id="path3443" />
  <path
     inkscape:connector-curvature="0"
     style="color:#000000;fill:#619cff;fill-opacity:1;fill-rule:nonzero;stroke:none;stroke-width:2.28571415;marker:none;visibility:visible;display:inline;overflow:visible;enable-background:accumulate;opacity:1"
     d="M 2,0 0,1 0,4 32,4 64,4 64,1 62,0 32,0 2,0 z"
     id="path3447-8" />
  <path
     style="fill:#b1e2ff;opacity:1;fill-opacity:0.22450805"
     d="M 14.34375 0 C 12.701095 0.0672346 10.05681 0.99345843 13.09375 1.5 C 13.719543 1.3733158 14.796763 1.2820015 15.40625 1.3125 C 15.289097 1.4714232 15.236975 1.6332671 15.28125 1.71875 C 15.097006 1.7760679 14.919864 1.8341349 14.625 1.90625 C 12.621876 1.962633 13.69919 2.5797227 14.5625 3.15625 C 13.095477 3.7242195 10.802382 -0.32688958 10.3125 2.5 C 12.025476 2.8547591 9.9426236 3.6959624 12.125 3.46875 C 14.022158 3.1201288 13.549431 4.5546659 12.78125 3.8125 C 11.846524 5.6989544 17.327475 4.5860339 15.34375 4.03125 C 17.553626 3.7552826 15.896461 2.2793624 18.1875 2.21875 C 18.955555 2.14297 20.662109 1.0920294 19.84375 1.125 C 19.834514 1.1101476 19.795678 1.0786739 19.75 1.0625 C 20.985372 0.57978363 21.386826 0.17453199 21.03125 0 L 19.46875 0 L 14.34375 0 z M 27.75 0 C 26.295183 0.30919433 24.427656 0.42844637 22.875 0.84375 C 23.428726 1.18802 22.437434 1.1545005 22.4375 0.96875 C 21.564047 1.2502003 20.821073 1.6526693 20.375 2.28125 C 22.352188 2.9669137 15.924705 4.0387277 19.84375 4.03125 C 17.387195 6.06587 22.650453 3.7702253 23.46875 6.03125 C 25.012933 7.4261428 24.811725 8.4604937 25.40625 9.6875 C 23.840152 11.525529 27.652197 16.445333 28.84375 12.75 C 30.205191 10.258452 32.820836 9.519558 35.5625 9.09375 C 34.69511 9.1729601 33.878767 7.896874 35.46875 8 C 34.945433 7.6424719 32.928122 5.9903536 35.46875 6.15625 C 37.743775 7.3220644 35.679625 4.2148363 36.5 4.40625 C 37.491363 4.1041704 35.651381 3.0756309 37.125 2.25 C 35.821581 1.9572145 41.152837 0.7037237 38 0.90625 C 36.208369 0.71367711 32.0649 1.3910368 31.90625 1.09375 C 33.202499 0.4881416 36.53711 0.055405308 34.875 0 L 33.84375 0 L 32 0 L 27.75 0 z M 35.46875 8 C 35.597651 8.0880648 35.676087 8.1210793 35.53125 8 C 35.506425 7.9978438 35.492481 8.0015392 35.46875 8 z M 22.4375 0.96875 C 22.579233 0.92307971 22.726683 0.88342174 22.875 0.84375 C 22.834036 0.81828133 22.809305 0.81117508 22.75 0.78125 C 22.514307 0.85092473 22.437519 0.9149188 22.4375 0.96875 z M 37.5 0.375 C 36.499541 0.93173703 38.555055 0.69593718 37.5 0.375 z M 61.75 0.8125 C 61.159748 1.2240979 62.398447 1.1005284 61.75 0.8125 z M 63.25 0.9375 C 63.121538 0.93189933 62.937249 0.93058707 62.6875 0.96875 C 62.407688 1.8809822 64.149235 0.9767047 63.25 0.9375 z M 63.9375 0.96875 C 63.91915 1.1275346 63.972868 1.132381 64 1.09375 C 64.016957 1.0696056 64.016943 1.0276949 64 1 L 63.9375 0.96875 z M 60.5625 1.28125 C 58.641534 1.8516407 61.980843 2.909176 60.5625 1.28125 z M 61.4375 1.28125 C 60.767462 2.812775 62.608623 1.9528534 63.15625 1.75 C 62.639453 1.2623564 61.894893 1.758717 61.4375 1.28125 z M 15.8125 1.375 C 15.903534 1.413696 15.841907 1.4839432 15.6875 1.5625 C 15.725459 1.5229105 15.769314 1.4266366 15.8125 1.375 z M 63.75 1.375 C 63.458989 2.009162 63.840369 2.1474924 64 2 L 64 1.625 C 63.949171 1.5455275 63.865464 1.471249 63.75 1.375 z M 51.78125 1.84375 C 51.293127 2.412229 49.919487 2.1440265 49.84375 2.5 C 48.385351 3.0792963 48.661781 1.8463873 47.75 2.59375 C 47.073826 4.1587845 50.447157 2.3892519 49.09375 3.8125 C 49.199849 5.7136324 50.051685 3.5350068 51 3.4375 C 50.32163 2.7711844 51.26004 2.4659822 52.6875 2.4375 C 53.526741 1.9842455 52.082484 1.878982 51.78125 1.84375 z M 51 3.4375 C 51.172239 3.606678 51.409596 3.7770539 51.8125 4 C 51.539091 3.527317 51.273347 3.4093942 51 3.4375 z M 55.125 1.96875 C 54.170785 2.4134517 56.142277 2.2181579 55.125 1.96875 z M 56.65625 2 C 56.246534 2.5831463 57.464911 2.1099274 56.65625 2 z M 8.40625 2.125 C 8.2370274 2.8989026 9.356512 2.3332194 8.40625 2.125 z M 37.625 2.40625 C 37.280905 3.0441393 38.368486 2.478596 37.625 2.40625 z M 6.59375 2.59375 C 7.4872161 4.2504373 9.437917 3.2893538 7 2.65625 C 6.8663502 2.6417577 6.7326761 2.5653823 6.59375 2.59375 z M 53.78125 2.8125 C 52.818126 3.237939 54.661394 3.3075972 53.78125 2.8125 z M 52.96875 3 C 52.355312 3.4256324 53.602456 3.334345 52.96875 3 z M 4.46875 3.3125 C 3.9494786 3.4015251 4.7271804 3.8757709 3.9375 4.1875 C 4.1900175 4.127991 5.2289556 3.6706968 4.78125 3.3125 C 4.6452117 3.3083289 4.5429316 3.2997821 4.46875 3.3125 z M 9.15625 3.34375 C 9.4261189 4.3627139 10.317369 3.1810445 9.15625 3.34375 z M 37.4375 3.5625 C 36.769074 3.8877114 38.020521 3.9316035 37.4375 3.5625 z M 3.15625 3.65625 C 2.8605605 4.0817696 3.7461006 3.8610253 3.15625 3.65625 z M 6.46875 3.84375 C 5.8701324 4.1912245 7.0665022 4.2218193 6.46875 3.84375 z M 11.78125 3.96875 C 11.248165 4.4404318 12.482428 4.2681849 11.78125 3.96875 z M 2.46875 4.09375 C 1.0258783 4.4057305 0.46376665 5.8266022 2.25 4.6875 C 2.3589328 4.6483332 2.8201027 4.1234988 2.46875 4.09375 z M 3.4375 4.25 C 2.9443601 4.6989354 4.0839785 4.5750622 3.4375 4.25 z M 18.28125 4.25 C 17.711601 4.6140219 18.877046 4.6636383 18.28125 4.25 z M 52.59375 4.4375 C 52.273703 5.0874472 53.346591 4.460225 52.59375 4.4375 z M 9.6875 4.5 C 10.565192 5.9289927 15.460676 6.8567439 15 5.34375 C 12.9351 5.7862397 11.46516 5.2694376 9.6875 4.5 z M 5.28125 4.65625 C 5.1592205 6.3446348 1.2201173 4.2246132 3.84375 5.96875 C 4.7418548 6.0932262 7.4230333 5.5534801 5.28125 4.65625 z M 8.09375 4.6875 C 8.0386296 4.7527641 8.0061365 4.8193564 7.96875 4.875 C 8.8791772 4.967114 7.881834 5.6605079 7.96875 4.875 C 7.1753259 6.0558811 10.153925 5.1251152 8.09375 4.6875 z M 6.96875 4.71875 C 6.6158136 5.3298859 7.7048024 4.72654 6.96875 4.71875 z M 1.78125 5.15625 C 1.4894557 5.7919617 2.4983908 5.15834 1.78125 5.15625 z M 7.28125 5.15625 C 7.0134221 5.8496331 8.1203783 5.3083415 7.28125 5.15625 z M 9.25 5.15625 C 8.8993247 5.8512258 10.08247 5.16797 9.25 5.15625 z M 37.28125 5.28125 C 36.598357 5.7022421 38.02648 5.6431076 37.28125 5.28125 z M 6.75 5.4375 C 6.1257309 5.8115635 7.3764903 5.7378876 6.75 5.4375 z M 9.96875 5.4375 C 9.0546055 6.0247066 11.400979 5.8218826 9.96875 5.4375 z M 64 5.46875 C 62.519202 5.9304601 61.796523 9.0848719 63.53125 8 C 62.702711 7.4402709 63.686616 6.8608374 64 6.1875 L 64 5.46875 z M 37.71875 5.5625 C 37.136249 5.9242015 38.302506 5.9336865 37.71875 5.5625 z M 50.5 5.71875 C 49.971605 6.1619486 51.137305 5.9565411 50.5 5.71875 z M 0.96875 6.09375 C -1.4008164 7.2351412 1.5890448 8.6755731 2.375 6.9375 C 3.5721661 6.2880177 1.5354616 6.2804991 0.96875 6.09375 z M 11.09375 6.3125 C 8.8598515 6.9801379 11.829606 7.8694315 11.3125 6.34375 L 11.125 6.3125 L 11.09375 6.3125 z M 9.21875 6.34375 C 5.4732942 7.134679 11.061737 9.2439639 9.21875 6.34375 z M 6.4375 6.53125 C 5.8369419 8.7944508 1.3289488 5.6829938 2.78125 8.3125 C 4.6499224 8.0930988 3.9047507 8.8023118 2.53125 8.8125 C 3.9239298 9.5653442 9.9264284 9.7631337 6.34375 7.5625 L 6.25 7.09375 L 6.4375 6.53125 z M 15.53125 6.53125 C 14.36741 7.6786982 17.90843 6.5525 15.53125 6.53125 z M 12.9375 6.6875 C 10.155243 9.8502314 17.509022 7.8365005 17.96875 10.375 C 18.38339 10.56776 18.526773 10.741053 18.46875 10.90625 C 18.220972 10.988244 18.263564 11.012992 18.375 11.03125 C 17.797473 11.676133 14.822304 12.103023 17.5 12.375 C 18.971342 13.818331 22.041994 13.804709 19.6875 11.3125 C 20.073638 10.973332 23.256459 11.565844 20.875 10.375 C 19.018539 7.8929591 16.758574 7.9035424 14.21875 6.90625 C 13.941568 7.4105855 13.72372 7.8167994 13.5625 7.9375 C 13.552987 7.9334242 13.541717 7.9415842 13.53125 7.9375 C 13.437025 7.9910767 13.379627 7.9278919 13.34375 7.71875 C 13.324785 7.6081942 13.281728 7.4517642 13.28125 7.25 C 13.2927 7.4639815 13.32493 7.6215972 13.34375 7.71875 C 13.475489 8.3988195 13.706337 6.5458921 12.9375 6.6875 z M 34.75 6.875 C 35.399119 7.5136547 35.926082 7.068649 34.75 6.875 z M 34.09375 7.75 C 34.812719 7.8895072 33.56635 8.3218898 34.09375 7.75 z M 10.28125 7.90625 C 10.102588 8.2521349 10.106686 8.6349479 10.125 9 C 9.0666277 8.7047056 8.4011922 10.164895 10 9.375 C 9.3370849 10.168465 9.7741373 10.001727 10.125 9.65625 C 10.039393 10.029177 9.7260523 10.213155 8.6875 9.96875 C 6.7875658 10.345775 5.3977869 8.8071578 5.21875 10.78125 C 3.9571478 10.343075 0.66594999 8.1916985 0 9.625 L 0 11.1875 C 0.015076191 11.254425 0.013112063 11.304098 0.03125 11.375 C -0.01112167 12.863526 -0.004222295 14.35335 0 15.84375 C 0.004222295 17.33415 0.01166733 18.82274 0 20.3125 L 0 23.59375 C 0.253825 25.64905 1.0612174 27.605404 2.78125 29.125 C 3.0798195 30.743815 5.8181263 33.689543 3.90625 30.8125 C 2.5395017 26.513847 5.993331 32.872721 6.9375 34.03125 C 9.1042055 35.834732 12.339332 35.516371 14.03125 38.1875 C 17.956761 38.23898 15.032684 41.906168 15.125 44.15625 C 15.501998 47.809682 19.851021 49.38251 18.53125 53.3125 C 18.071355 56.278843 17.60003 59.212205 17.25 62.125 C 16.183552 64.454118 20.962397 64.731805 19.9375 61.71875 C 19.279172 59.02168 24.514534 58.93012 22.8125 56.59375 C 26.398068 57.45589 25.096445 51.473517 28.59375 51.34375 C 29.774038 49.372684 29.855442 46.725876 30.875 44.8125 C 30.324111 42.397683 26.021675 43.298569 25.78125 42.5 C 26.13285 41.55418 24.309889 43.719349 25.5 41.96875 C 25.358717 39.350921 22.140603 38.667975 20.15625 37.34375 C 19.173 37.30781 18.662544 37.712277 18.34375 37.71875 C 18.310424 37.642761 18.248272 37.565323 18.125 37.5 C 18.121079 37.540582 18.126303 37.558669 18.125 37.59375 C 18.033851 37.494173 17.951919 37.320037 17.875 37 C 16.937441 39.258936 13.430916 38.298861 14.15625 36 C 12.231584 35.583558 12.689191 34.121309 12.40625 33.125 C 10.443842 36.04866 7.8426307 32.92405 9.3125 30.65625 C 11.230633 29.142589 14.096858 28.481491 15.28125 31.375 C 14.21524 28.596997 16.505783 26.12216 17.78125 24.25 C 18.487801 23.540385 20.860449 20.988402 20.75 22.5 C 19.584127 23.649195 23.792186 20.904797 21.5625 22.15625 C 20.088881 21.086296 20.927782 20.03211 18.875 21.0625 C 19.313599 19.450035 25.123279 19.973153 22.90625 18.25 C 21.81713 18.441141 24.091736 16.805647 22.0625 17.09375 C 21.5099 16.104464 20.588657 14.09694 19.3125 15.65625 C 19.187613 12.814942 14.670251 12.939371 16.125 16.125 C 16.596217 19.02565 14.650577 20.540836 13.78125 17.28125 C 10.402761 17.666714 9.1156625 12.800408 12.65625 12.1875 C 11.758243 10.660966 13.644106 11.789242 13.375 13.03125 C 15.900956 12.64004 14.252557 12.442458 13.4375 11.0625 C 16.273405 11.14356 13.423789 7.5630611 12.90625 10.46875 C 12.221002 8.9609501 11.285765 9.6812364 10.28125 7.90625 z M 41 8.15625 C 40.461835 8.6114107 41.689607 8.3777164 41 8.15625 z M 52.71875 8.1875 C 50.037172 8.6736914 48.730998 10.627693 47.21875 12.3125 C 47.19424 12.274083 47.144693 12.231976 47 12.21875 C 46.847511 12.467319 46.948251 12.526185 47.0625 12.5 C 46.702482 12.890938 46.350654 13.262452 45.9375 13.59375 C 44.078694 16.398521 48.689803 13.928928 48.1875 16.71875 C 51.127164 16.894081 49.265383 10.82269 52.34375 11.78125 C 50.801514 13.282761 51.25407 14.946911 53.625 14.53125 C 54.814481 14.63315 51.296628 14.81478 52 16.40625 C 50.977637 17.160507 48.769248 18.705933 47.5 17.53125 C 47.261488 17.310508 47.031801 17.000907 46.875 16.5625 C 46.97992 19.701586 40.578453 19.424624 43.1875 22.84375 C 40.83638 22.428488 38.949676 25.137878 41.65625 26.21875 C 44.304907 26.13255 44.937103 20.977581 47.78125 23.59375 C 48.593191 24.980928 50.989378 25.871954 49.03125 23.875 C 46.879681 21.930112 49.004034 21.809504 50 23.71875 C 50.430194 24.2699 50.996568 25.030206 51.40625 25.46875 C 51.392981 25.477273 51.389428 25.48922 51.375 25.5 C 51.488726 25.730453 51.573524 25.750602 51.625 25.6875 C 51.94303 25.9487 52.083546 25.790111 51.75 24.6875 C 53.939118 25.217989 53.889706 20.350298 55.9375 22.25 C 56.669305 19.54794 59.639667 25.934386 56.5625 24 C 53.429861 22.856318 51.992128 27.279784 56 26.34375 C 57.008375 29.655052 53.098634 29.050019 51.21875 28.4375 C 49.41876 30.44977 47.279392 27.118581 46.59375 26.28125 C 43.722995 26.36848 40.134594 26.754124 39.46875 30.15625 C 37.140368 32.612557 36.669106 36.73388 39.40625 39.09375 C 41.515109 41.714814 47.147881 37.551871 46.96875 42.40625 C 49.055597 45.075267 47.306689 48.929714 48.6875 52 C 48.63987 55.246911 51.548869 58.912167 54.25 55.1875 C 56.058498 53.135015 55.194145 50.298165 57.5 48.8125 C 57.410123 47.436936 57.369956 46.077941 57.5625 44.8125 C 57.624761 44.950717 58.194027 44.844506 57.71875 44.59375 C 57.642071 44.646955 57.588344 44.681165 57.5625 44.71875 C 57.827094 43.093538 58.52366 41.641331 60.1875 40.53125 C 61.424559 39.149039 62.380002 36.576478 59.59375 37.5625 C 57.071602 36.182485 56.72446 32.952859 55.53125 30.59375 C 55.531534 28.355169 57.652908 32.743337 57.84375 33.75 C 58.419801 37.540355 62.151877 36.043942 63.8125 33.84375 C 63.908161 33.648991 63.949125 33.48383 64 33.3125 L 64 32.125 C 63.635783 31.403822 62.554005 31.264693 61.5 31.71875 C 60.473833 30.27599 60.475554 28.348028 62.4375 30.28125 C 63.508835 31.154934 63.875951 30.819164 64 30.0625 L 64 28.03125 C 63.965354 27.453784 63.945751 26.899828 64 26.53125 L 64 9.59375 C 62.190108 9.666524 60.02962 11.052601 59.28125 10 C 59.599609 11.758067 55.087078 13.486079 55.625 10.65625 C 57.386582 11.827465 58.835777 10.032984 56.34375 9.5625 C 55.045359 9.1258149 53.842096 8.344423 52.71875 8.1875 z M 47.5 17.53125 C 47.707939 17.60115 48.168534 17.408171 47.65625 17.09375 C 47.350238 17.349257 47.375237 17.48931 47.5 17.53125 z M 40.59375 8.4375 C 40.002008 8.7870369 41.160739 8.7825059 40.59375 8.4375 z M 50.21875 8.59375 C 49.690354 9.0369498 50.856055 8.8315433 50.21875 8.59375 z M 61.15625 9.03125 C 59.919219 9.575855 61.88589 9.6931895 61.15625 9.03125 z M 24.75 9.125 C 24.242838 9.4646737 25.457472 9.3101885 24.75 9.125 z M 15.53125 9.15625 C 15.012353 9.6100999 16.179925 9.4222951 15.53125 9.15625 z M 48.875 9.46875 C 48.451097 9.9879228 49.663157 9.6406964 48.875 9.46875 z M 15.625 9.75 C 15.196205 10.324627 16.334347 9.9041492 15.625 9.75 z M 48.28125 9.75 C 47.937153 10.359802 49.06475 9.847897 48.28125 9.75 z M 16.6875 10 C 15.623537 10.483658 17.584147 10.398256 16.6875 10 z M 37.46875 11.03125 C 35.937859 11.200445 34.430925 12.531953 37.03125 12.5 C 37.715238 12.4952 39.531705 11.715208 38.125 11.03125 C 37.917637 11.000707 37.687449 11.007079 37.46875 11.03125 z M 35.40625 11.125 C 34.693881 11.143637 36.075968 11.847325 35.84375 11.15625 C 35.64534 11.124449 35.508017 11.122338 35.40625 11.125 z M 19.34375 12.59375 C 20.531104 12.724918 19.924172 13.440124 19.34375 12.59375 z M 16.53125 12.625 C 15.968752 13.088481 17.223346 12.845882 16.53125 12.625 z M 15.96875 12.78125 C 15.355321 13.206891 16.602451 13.115587 15.96875 12.78125 z M 14.34375 13.1875 C 12.753154 13.568452 15.169176 13.786861 14.34375 13.1875 z M 15.4375 13.1875 C 14.700054 13.754924 16.092676 14.046249 15.4375 13.1875 z M 41.15625 13.34375 C 40.351888 14.356108 41.630786 14.508924 41.15625 13.34375 z M 54.53125 13.875 C 56.715814 14.534312 53.662331 15.096536 54.53125 13.875 z M 43.1875 14.21875 C 42.376379 14.844036 44.004801 14.697831 43.1875 14.21875 z M 19.5 14.375 C 19.093698 14.976639 20.26122 14.46863 19.5 14.375 z M 50.59375 14.375 C 50.273018 15.013387 51.358585 14.3979 50.59375 14.375 z M 42.59375 15.09375 C 40.55791 16.25841 43.273695 18.721461 41.875 19.71875 C 45.176301 19.93126 43.085675 17.140977 42.21875 15.75 C 42.327892 15.527248 42.637933 15.382496 42.59375 15.09375 z M 41.15625 15.375 C 40.479324 15.838503 41.898317 15.68317 41.15625 15.375 z M 51.5 15.375 C 51.003513 15.892879 52.192594 15.53461 51.5 15.375 z M 41.15625 15.9375 C 40.479322 16.401002 41.898326 16.245673 41.15625 15.9375 z M 50.09375 15.9375 C 49.274227 16.604939 50.925463 16.371489 50.09375 15.9375 z M 15.3125 16.6875 C 14.992444 17.337475 16.065331 16.71022 15.3125 16.6875 z M 48.75 17.25 C 48.216445 17.886818 49.567362 17.34697 48.75 17.25 z M 40.875 17.28125 C 38.412751 19.937823 42.946909 18.511023 40.875 17.28125 z M 14.6875 18.25 C 14.161972 18.886054 15.569643 18.792346 14.6875 18.25 z M 23.84375 19.71875 C 20.567898 20.76615 26.573893 22.50732 24.0625 20.15625 C 23.225998 20.273832 24.152599 19.876979 23.84375 19.71875 z M 12.3125 19.90625 C 12.927129 20.253467 11.703652 20.24852 12.3125 19.90625 z M 21.53125 20.09375 C 21.425472 20.079876 21.286691 20.091821 21.09375 20.125 C 21.102841 21.228423 22.271699 20.190868 21.53125 20.09375 z M 12.65625 20.6875 C 13.934585 21.210362 16.152502 23.776111 13.75 22.25 C 12.869405 23.346649 12.448426 24.361765 12.96875 22.34375 C 14.096678 20.575547 9.597044 22.116003 12.65625 20.6875 z M 16.5 21.125 C 17.321155 21.621363 15.660433 21.467336 16.5 21.125 z M 23.59375 21.25 C 23.035784 21.665862 24.235879 21.614536 23.59375 21.25 z M 61.875 21.5625 C 61.46502 22.804227 61.884027 24.004471 62.46875 24.53125 C 62.980342 27.455583 60.329606 25.673583 61 23.53125 C 60.386667 22.312913 60.362425 21.809987 61.875 21.5625 z M 15.3125 21.71875 C 16.080968 21.78208 14.999365 22.328792 15.3125 21.71875 z M 16.59375 22.8125 C 15.334571 24.001797 13.646782 24.128836 16.03125 23.03125 L 16.59375 22.8125 z M 46.8125 23.4375 C 45.924699 23.937222 47.567889 24.02973 46.8125 23.4375 z M 46.75 24.40625 C 45.850767 25.284114 47.596624 25.081901 46.75 24.40625 z M 45.15625 24.59375 C 43.792885 24.757321 44.994152 25.324926 45.40625 24.71875 L 45.15625 24.59375 z M 44.15625 25.15625 C 43.659763 25.67413 44.848847 25.315859 44.15625 25.15625 z M 48.6875 25.65625 C 48.587696 25.642737 48.458049 25.65919 48.28125 25.6875 C 48.388658 26.686699 49.386127 25.750838 48.6875 25.65625 z M 50.8125 25.71875 C 50.188149 26.092825 51.439079 26.01914 50.8125 25.71875 z M 47.78125 26.15625 C 47.205259 26.60639 48.465509 26.495068 47.78125 26.15625 z M 52.96875 26.15625 C 52.368536 26.546135 53.588598 26.571151 52.96875 26.15625 z M 52.25 26.28125 C 51.743646 26.72638 52.905458 26.603854 52.25 26.28125 z M 55.28125 26.71875 C 54.327033 27.163449 56.298527 26.968152 55.28125 26.71875 z M 48.4375 26.75 C 48.031202 27.351645 49.198718 26.84363 48.4375 26.75 z M 47.84375 26.90625 C 47.54773 27.59158 48.564155 26.93005 47.84375 26.90625 z M 52.375 27 C 51.845533 27.13718 52.972306 27.0416 52.375 27 z M 20.5625 28.03125 C 20.034184 28.474443 21.199706 28.269042 20.5625 28.03125 z M 37.5625 28.15625 C 37.0579 28.607591 38.200892 28.432576 37.5625 28.15625 z M 37.28125 29.90625 C 36.604231 30.369696 38.023375 30.214477 37.28125 29.90625 z M 38.5625 30.0625 C 37.998028 30.558113 39.264042 30.24009 38.5625 30.0625 z M 37.84375 30.1875 C 37.315355 30.630701 38.481056 30.425297 37.84375 30.1875 z M 15.8125 30.46875 C 15.288544 30.889332 16.446398 30.734067 15.8125 30.46875 z M 37.28125 30.46875 C 36.598367 30.889757 38.026464 30.830596 37.28125 30.46875 z M 16.40625 30.625 C 15.781985 30.999072 17.032735 30.92539 16.40625 30.625 z M 62.75 31.03125 C 62.217263 31.464477 63.418909 31.43847 62.75 31.03125 z M 15.8125 31.1875 C 15.293608 31.641354 16.461177 31.453537 15.8125 31.1875 z M 16.53125 31.1875 C 15.983223 31.683943 17.236665 31.404793 16.53125 31.1875 z M 16.03125 31.65625 C 15.711491 32.242526 16.787051 31.74982 16.03125 31.65625 z M 16.75 31.65625 C 16.427417 32.276331 17.55628 31.69853 16.75 31.65625 z M 16.46875 32.0625 C 16.50018 32.860691 17.781989 32.09803 16.46875 32.0625 z M 14.53125 32.3125 C 12.652142 33.283095 19.496561 34.367751 15.78125 32.6875 C 15.384291 32.501395 14.974851 32.334554 14.53125 32.3125 z M 17.5625 32.5 C 16.825099 32.95921 18.308771 32.823013 17.5625 32.5 z M 18.125 32.65625 C 17.627522 33.071945 18.76335 32.886859 18.125 32.65625 z M 17.84375 33.0625 C 17.249495 33.5383 18.5526 33.331935 17.84375 33.0625 z M 17.9375 33.96875 C 16.985238 35.274321 21.584015 33.89549 17.9375 33.96875 z M 20.09375 34.1875 C 19.296735 34.533507 20.829119 34.716451 20.09375 34.1875 z M 16.09375 34.34375 C 15.127431 34.964095 17.181754 34.478204 16.09375 34.34375 z M 20.65625 34.53125 C 20.29663 35.189496 21.386011 34.5636 20.65625 34.53125 z M 13.4375 34.65625 C 13.141545 35.341628 14.157849 34.67999 13.4375 34.65625 z M 21.21875 34.65625 C 20.926949 35.291952 21.9359 34.65835 21.21875 34.65625 z M 21.84375 34.8125 C 21.347281 35.330366 22.536258 34.972118 21.84375 34.8125 z M 34.6875 35.09375 C 34.091732 35.528361 35.340394 35.35403 34.6875 35.09375 z M 35.53125 35.21875 C 35.017923 35.658275 36.158912 35.46949 35.53125 35.21875 z M 21.84375 35.375 C 21.347283 35.89287 22.536251 35.534622 21.84375 35.375 z M 34.96875 35.8125 C 34.41124 36.230959 35.636737 36.094945 34.96875 35.8125 z M 35.53125 35.8125 C 35.041744 36.240062 36.179776 36.075018 35.53125 35.8125 z M 22 35.9375 C 21.213593 37.123087 22.469149 36.606563 22 35.9375 z M 22.53125 36.53125 C 22.117048 37.059619 23.341979 36.703091 22.53125 36.53125 z M 19.375 36.6875 C 18.9569 37.333041 20.113801 36.74088 19.375 36.6875 z M 19.9375 36.8125 C 19.518871 37.402153 20.729636 37.006136 19.9375 36.8125 z M 62.40625 36.8125 C 62.049624 37.459797 63.139045 36.915479 62.40625 36.8125 z M 21.625 36.96875 C 21.274286 37.663684 22.457572 36.98051 21.625 36.96875 z M 22.125 37.40625 C 21.62843 37.92409 22.817653 37.5659 22.125 37.40625 z M 46.34375 40.5625 C 45.684401 41.014204 47.092075 40.928302 46.34375 40.5625 z M 45.96875 41.15625 C 45.646067 41.776272 46.775136 41.19857 45.96875 41.15625 z M 11.4375 41.4375 C 11.08456 42.04863 12.173558 41.4453 11.4375 41.4375 z M 45.5625 41.71875 C 45.127211 42.333303 46.282097 41.826967 45.5625 41.71875 z M 10.9375 42.15625 C 10.118001 42.823702 11.769197 42.590226 10.9375 42.15625 z M 11.5 42.15625 C 10.788765 42.663449 12.333747 42.409054 11.5 42.15625 z M 12.0625 42.28125 C 11.527696 42.805956 12.772056 42.493019 12.0625 42.28125 z M 45.34375 42.71875 C 44.736485 43.054761 45.921168 43.066605 45.34375 42.71875 z M 63.09375 43.75 C 62.780781 44.393306 63.879934 43.77748 63.09375 43.75 z M 57.78125 44.03125 C 57.442122 44.653151 58.528529 44.12381 57.78125 44.03125 z M 62.40625 44.46875 C 62.075756 45.101589 63.13663 44.49856 62.40625 44.46875 z M 57.84375 45.3125 C 57.315425 45.755733 58.481024 45.550259 57.84375 45.3125 z M 58.6875 46.90625 C 58.191078 47.504363 59.406696 47.03932 58.6875 46.90625 z M 59.15625 47.1875 C 58.560539 47.622148 59.809111 47.447757 59.15625 47.1875 z M 60.90625 47.3125 C 59.471402 48.288051 57.787381 52.822701 60.0625 52.3125 C 60.940721 50.848864 61.33164 48.985503 60.90625 47.3125 z M 59.59375 47.625 C 59.089746 48.027762 60.198374 47.861711 59.59375 47.625 z M 62.6875 48.78125 C 62.357008 49.414085 63.417879 48.81106 62.6875 48.78125 z M 63.75 50.625 C 63.275239 51.043754 63.962733 50.978022 64 50.8125 C 64.012422 50.757326 63.947504 50.686621 63.75 50.625 z M 63.1875 50.78125 C 62.599963 51.143953 63.832004 51.102974 63.1875 50.78125 z M 6.59375 52.9375 C 6.0624335 53.429566 7.2913896 53.152531 6.59375 52.9375 z M 4.875 53.21875 C 4.2157286 53.670514 5.6232837 53.584484 4.875 53.21875 z M 15.46875 56.40625 C 15.129632 57.028157 16.215955 56.49882 15.46875 56.40625 z M 17.09375 60.3125 C 16.343972 61.034766 18.01298 60.58592 17.09375 60.3125 z M 16.8125 63 C 16.28119 63.492067 17.510132 63.21503 16.8125 63 z M 16.75 63.75 C 16.662706 63.904477 16.672806 63.97013 16.71875 64 L 16.90625 64 C 17.049596 63.92421 17.148797 63.755795 16.75 63.75 z "
     id="path3428" />
  <g
     id="g3043"
     inkscape:export-filename="folder.png"
     inkscape:export-xdpi="90"
     inkscape:export-ydpi="90"
     transform="translate(-0.625,0.082283)" />
  <g
     id="scalable"
     transform="matrix(1.0385892,0,0,1.0385892,1214.7222,1878.8121)"
     inkscape:label="#g3701"
     style="fill:#ffffff" />
  <path
     style="color:#000000;display:inline;overflow:visible;visibility:visible;opacity:1;fill:#d3e5ff;fill-opacity:1;fill-rule:nonzero;stroke:none;stroke-width:0.07142413;stroke-linecap:butt;stroke-linejoin:miter;stroke-miterlimit:4;stroke-dasharray:none;stroke-dashoffset:0;stroke-opacity:1;marker:none;enable-background:accumulate"
     d="M 44.75 0 L 44.75 4 L 48.6875 4 L 48.6875 0 L 44.75 0 z M 57.15625 0 L 57.15625 4 L 58.65625 4 L 58.65625 0 L 57.15625 0 z "
     id="rect4288" />
  <g
     id="g5424"
     style="display:inline"
     transform="matrix(0.63117828,0.36441095,-0.36441095,0.63117828,-29.727226,-132.7408)">
    <g
       transform="matrix(0.525214,0,0,0.525214,-0.426697,22.2088)"
       id="g5426">
      <path
         style="fill:#7eb3fe;fill-opacity:1;fill-rule:evenodd;stroke:none"
         d="M 57.15625 4 C 60.700359 10.531759 62.855118 16.004378 64 19.28125 L 64 18.8125 C 63.050144 15.493453 61.403499 10.254358 58.65625 4 L 57.15625 4 z "
         transform="matrix(2.2624184,-1.3062079,1.3062079,2.2624184,241.45493,219.20005)"
         id="path5430" />
      <path
         style="fill:#7eb3fe;fill-opacity:1;fill-rule:evenodd;stroke:none"
         d="M 58.15625 40.3125 C 34.948364 48.338566 15.773034 49.495685 0 46.5625 L 0 50.59375 C 15.655989 52.55624 34.782796 50.051445 58.15625 40.3125 z "
         transform="matrix(2.2624184,-1.3062079,1.3062079,2.2624184,241.45493,219.20005)"
         id="path5432" />
      <path
         style="fill:#7eb3fe;fill-opacity:1;fill-rule:evenodd;stroke:none"
         d="M 44.75 4 C 38.920298 22.172731 26.193047 41.047239 0 53.46875 L 0 56 C 30.805229 44.345483 43.857607 23.824016 48.6875 4 L 44.75 4 z "
         transform="matrix(2.2624184,-1.3062079,1.3062079,2.2624184,241.45493,219.20005)"
         id="path5434" />
    </g>
  </g>
  <path
     d="M 64,6 62,4 64,3 z"
     id="path3028"
     style="fill:#437af0;fill-opacity:1"
     inkscape:connector-curvature="0" />
  <path
     style="fill:#7cadff;fill-opacity:1;fill-rule:nonzero"
     d="M 0,3 0,6 2,4 Z"
     id="path4298"
     inkscape:connector-curvature="0"
     sodipodi:nodetypes="cccc" />
</svg>
