<svg xmlns="http://www.w3.org/2000/svg" viewBox="0 0 64 64"><path d="m0 4v30 28l2 2h30 30l2-2v-28-30h-32-32" fill="#bbc6ce" color="#000"/><g fill-rule="evenodd"><path d="m2 0l-2 1v3 30 12.25c.406.206.805.422 1.219.625 24.632 12.313 33.567-17.623 18.06-34.19-3.947-4.206-8.893-8.562-14.344-12.688h-2.938" fill="#2b9dc4"/><path d="m10.969 15.906c-4.093.184-7.912 2.588-10.969 6.281v11.813 26.531c.815 1.16 1.676 2.314 2.563 3.469h29.438 2.031c.169-12.82-2.507-28.808-8.594-38.37-4.569-7.162-9.693-9.934-14.469-9.719" fill="#65aa35"/><path d="m46.656 2.938c-15.808-.01-29.807 8.03-29.938 19.313-.182 12.718 7.58 30.08 20.469 41.75h24.813l2-2v-28-27.656c-5.64-2.353-11.61-3.403-17.344-3.406" fill="#cdb52b"/><path d="m16.969 0c-5.495 15.968-2.216 37.31 19.5 41.781 11.346 2.402 20.375 1.505 27.531-1.563v-6.219-30-3l-2-1h-30-15.03" fill="#b03e1e"/><path d="m46.656 2.938c-15.809-.01-29.807 8.03-29.938 19.313 0 1.272.009 2.761.219 4.03 2.971 7.434 9.129 13.372 19.531 15.5 11.295 2.399 20.355 1.563 27.531-1.469v-6.313-27.656c-5.641-2.353-11.61-3.403-17.344-3.406" fill="#d1621a"/><path d="m34.14 61.1c-11.892-12.318-21.446-35.04-19.11-52.661 13.162 12.526 18.687 35.03 19.11 52.661" fill="#1f70bb"/></g><g color="#000"><path d="m2 0l-2 1v3h32 32v-3l-2-1h-30-30" fill="#f3f6f6"/><path transform="scale(-1 1)" fill="#ffa356" d="m-56.54 0h19.707v4h-19.707z"/><path d="m15.813 0v4h16.188 4.844v-4h-4.844-16.188m40.719 0v4h7.469v-3l-2-1h-5.469" fill="#ea804c"/><path d="m2 0l-2 1v3h9.969v-4h-7.969" fill="#7ad8f9"/></g><path d="m64 6l-2-2 2-1z" fill="#c95c34"/><path d="m15 19.654c0 12.725 4.195 23.283 10.604 29.692 2.665-1.539 5.211-4.32 6.429-6.429 1.218 2.109 3.698 4.89 6.363 6.429 6.409-6.409 10.604-16.967 10.604-29.692-6.363 0-11.744 2.974-14.912 10.604.057-2.099-1.096-4.242-2.055-4.242-.958 0-2.178 2.142-2.121 4.242-3.168-7.63-8.55-10.604-14.912-10.604" fill="#e5ecf2"/><path d="m0 3v3l2-2" fill="#99e1fa"/></svg>