<svg xmlns="http://www.w3.org/2000/svg" viewBox="0 0 64 64"><g color="#000"><path d="m0 4v30 28l2 2h30 30l2-2v-28-30h-32-32" fill="#325ac1"/><path d="m2 0l-2 1v3h32 32v-3l-2-1h-30-30" fill="#5f89f7"/></g><path d="m0 3v3l2-2" fill="#789cf8"/><path d="m64 6l-2-2 2-1z" fill="#4770da"/><path d="m31 12c-1.254 0-2.477.477-3.438 1.469l-17.09 17.688c-.942.972-1.45 2.169-1.469 3.438v.094c.327 1.284 8.777 2.84 9.719 3.813 1.423 1.469-7.986 3.468-6.563 4.938 1.423 1.469 11.139 1.969 12.563 3.438 1.423 1.469-4.485 3.124-3.063 4.594 1.423 1.469 7.741-.395 6.875 3.438 1.922 1.984 7.534 1.016 10.219-.969 1.423-1.469-4.267-1.281-2.844-2.75 1.423-1.469 7.786-1.111 10.813-4.625-1.218-1.956-8.02-3.156-6.594-4.625 1.423-1.469 4.249-.826 10.219-3.625 2.914-1.367 2.668-2.367 2.656-3.625v-.094c-.031-1.269-.527-2.465-1.469-3.438l-17.09-17.688c-.961-.992-2.183-1.469-3.438-1.469m0 3.25c.465 0 .915.091 1.281.469l8.125 8.469v3.531h-6.281l-3.125-3.156-6.281 6.281-3.531-6.281 8.531-8.844c.352-.363.816-.468 1.281-.469m20 28.75c-1.105 0-2 .448-2 1 0 .552.895 1 2 1 1.105 0 2-.448 2-1 0-.552-.895-1-2-1m-3 7c-1.105 0-2 .448-2 1 0 .552.895 1 2 1 1.105 0 2-.448 2-1 0-.552-.895-1-2-1" fill="#d9e4ff" fill-rule="evenodd" stroke-width="1.25"/></svg>