<svg xmlns="http://www.w3.org/2000/svg" viewBox="0 0 64 64"><g color="#000"><path d="m0 4v30 28l2 2h30 30l2-2v-28-30h-32-32" fill="#39a424"/><path d="m2 0l-2 1v3h32 32v-3l-2-1h-30-30" fill="#75e85e"/></g><path d="m64 6l-2-2 2-1z" fill="#58c942"/><path d="m0 3v3l2-2" fill="#8bec78"/><path d="m41.5 16c-4.694 0-8.5 3.806-8.5 8.5 0 1.174.234 2.303.664 3.32l-2.789 2.789-10.359-10.359h-4.516v4.516l10.359 10.359-10.359 10.359v4.516h4.516l2.125-2.125h6.109v-6.109l2.125-2.125 10.359 10.359h4.516v-4.516l-10.359-10.359 2.789-2.789c1.017.43 2.147.664 3.32.664 4.694 0 8.5-3.806 8.5-8.5 0-4.694-3.806-8.5-8.5-8.5m2.188 3.125c1.76 0 3.188 1.427 3.188 3.188 0 1.76-1.427 3.188-3.188 3.188-1.76 0-3.188-1.427-3.188-3.188 0-1.76 1.427-3.188 3.188-3.188" color="#000" fill="#dff5d7"/></svg>