<svg xmlns="http://www.w3.org/2000/svg" viewBox="0 0 64 64"><g color="#000"><path d="m0 4v30 28l2 2h30 30l2-2v-28-30h-32-32" fill="#db233c"/><path d="m2 0l-2 1v3h32 32v-3l-2-1h-30-30" fill="#ff6791"/></g><path d="m0 3v3l2-2" fill="#ff8aaa"/><path d="m64 6l-2-2 2-1z" fill="#ed4667"/><g color="#000"><path d="m37.79 34.08l1.438-.746-1.438.746" fill="#fff" fill-opacity=".678"/><path d="m22.547 22c-3.01 0-5.749 1.182-7.625 3.25-1.876 2.068-2.875 4.927-2.875 8.125v.813c0 4.657 2.776 8.31 6.406 9.875 3.63 1.565 8.115 1.202 11.781-1.438l-2.625-3.625c-2.41 1.735-5.212 1.87-7.375.938-2.163-.933-3.688-2.773-3.688-5.75v-.813c0-2.287.668-3.97 1.688-5.094 1.019-1.123 2.409-1.781 4.313-1.781 2.276 0 3.24.684 4.25 2 1.01 1.316 1.813 3.434 2.656 5.75.843 2.316 1.75 4.828 3.5 6.969 1.75 2.141 4.54 3.719 8.156 3.719h2.125c4.421 0 7.522-2.384 8.219-5.344.697-2.96-.712-6.118-3.594-7.438-2.01-.922-4.158-1.181-5.313-1.594-.583-.208-1.186-.53-1.531-.844-.345-.314-.438-.47-.438-.906 0-.555.182-.969.469-1.344.286-.375.72-.634.781-.656 2.36-.865 4.647-.127 6.188 2.594l3.938-2.188c-2.446-4.32-7.36-6.242-11.688-4.656-1.083.397-2.02 1.116-2.813 2.156-.794 1.04-1.375 2.453-1.375 4.094 0 1.779.885 3.321 1.906 4.25 1.021.929 2.144 1.422 3.063 1.75 1.934.691 3.969.963 4.938 1.406.822.376 1.298 1.477 1.094 2.344-.204.866-.788 1.875-3.844 1.875h-2.125c-2.483 0-3.612-.746-4.688-2.063-1.076-1.316-1.916-3.394-2.75-5.688-.834-2.293-1.669-4.797-3.313-6.938-1.643-2.141-4.335-3.75-7.813-3.75" fill="#fadada"/></g></svg>