<?xml version="1.0" encoding="UTF-8" standalone="no"?>
<!-- Created with Inkscape (http://www.inkscape.org/) -->

<svg
   xmlns:dc="http://purl.org/dc/elements/1.1/"
   xmlns:cc="http://creativecommons.org/ns#"
   xmlns:rdf="http://www.w3.org/1999/02/22-rdf-syntax-ns#"
   xmlns:svg="http://www.w3.org/2000/svg"
   xmlns="http://www.w3.org/2000/svg"
   xmlns:sodipodi="http://sodipodi.sourceforge.net/DTD/sodipodi-0.dtd"
   xmlns:inkscape="http://www.inkscape.org/namespaces/inkscape"
   width="64"
   height="64"
   id="svg13094"
   version="1.1"
   inkscape:version="0.48.4 r9939"
   sodipodi:docname="msword-2007.svg">
  <sodipodi:namedview
     id="base"
     pagecolor="#ffffff"
     bordercolor="#666666"
     borderopacity="1.0"
     inkscape:pageopacity="0"
     inkscape:pageshadow="2"
     inkscape:zoom="11.313709"
     inkscape:cx="23.234635"
     inkscape:cy="31.02163"
     inkscape:document-units="px"
     inkscape:current-layer="svg13094"
     showgrid="true"
     inkscape:snap-bbox="true"
     inkscape:bbox-paths="true"
     inkscape:bbox-nodes="true"
     inkscape:snap-bbox-edge-midpoints="true"
     inkscape:snap-bbox-midpoints="true"
     inkscape:object-paths="true"
     inkscape:snap-intersection-paths="true"
     inkscape:object-nodes="true"
     inkscape:snap-smooth-nodes="true"
     inkscape:snap-midpoints="true"
     inkscape:snap-object-midpoints="true"
     inkscape:snap-center="true"
     showguides="true"
     inkscape:guide-bbox="true"
     inkscape:window-width="1920"
     inkscape:window-height="1025"
     inkscape:window-x="-2"
     inkscape:window-y="32"
     inkscape:window-maximized="1"
     inkscape:snap-global="true"
     fit-margin-top="0"
     fit-margin-left="0"
     fit-margin-right="0"
     fit-margin-bottom="0"
     showborder="true"
     inkscape:showpageshadow="false"
     inkscape:snap-page="true">
    <inkscape:grid
       type="xygrid"
       id="grid3075"
       empspacing="5"
       visible="true"
       enabled="true"
       snapvisiblegridlinesonly="true"
       originx="0px"
       originy="18px" />
  </sodipodi:namedview>
  <defs
     id="defs13096" />
  <metadata
     id="metadata13099">
    <rdf:RDF>
      <cc:Work
         rdf:about="">
        <dc:format>image/svg+xml</dc:format>
        <dc:type
           rdf:resource="http://purl.org/dc/dcmitype/StillImage" />
        <dc:title />
      </cc:Work>
    </rdf:RDF>
  </metadata>
  <path
     style="color:#000000;fill:#6fb7ff;fill-opacity:1;fill-rule:nonzero;stroke:none;stroke-width:2.28571415000000000;marker:none;visibility:visible;display:inline;overflow:visible;enable-background:accumulate"
     d="m 24,0 38,0 2,1 0,26 -64,0 0,-3 C 0,10.704 10.704,0 24,0 z"
     id="path3075"
     inkscape:connector-curvature="0"
     sodipodi:nodetypes="sccccss" />
  <path
     inkscape:connector-curvature="0"
     style="color:#000000;fill:#3477d9;fill-opacity:1;fill-rule:nonzero;stroke:none;stroke-width:2.28571415000000000;marker:none;visibility:visible;display:inline;overflow:visible;enable-background:accumulate"
     d="M 24,4 C 10.704,4 0,14.704 0,28 l 0,6 0,28 2,2 60,0 2,-2 0,-58 -24,0 -8,0 -8,0 z"
     id="path4021" />
  <path
     d="M 64,6 62,4 64,3 z"
     id="path3028"
     style="fill:#4c91e8;fill-opacity:1"
     inkscape:connector-curvature="0" />
  <g
     id="g3043"
     inkscape:export-filename="folder.png"
     inkscape:export-xdpi="90"
     inkscape:export-ydpi="90"
     transform="translate(-0.625,0.082283)" />
  <g
     id="scalable"
     transform="matrix(1.0385892,0,0,1.0385892,1214.7222,1878.8121)"
     inkscape:label="#g3701"
     style="fill:#ffffff" />
  <path
     style="font-size:17.54796599999999884px;font-style:normal;font-variant:normal;font-weight:bold;font-stretch:normal;line-height:125%;letter-spacing:0px;word-spacing:0px;fill:#d6e4f9;fill-opacity:1;stroke:none;font-family:Oxygen;-inkscape-font-specification:Oxygen Bold"
     d="m 18,21 3.40625,12.5625 2.40625,0 2.9375,-9.21875 2.65625,9.21875 2.4375,0 3.5,-12.5625 -2.3125,0 -2.5,9.8125 -2.71875,-9.75 -2.21875,0 L 22.75,30.78125 20.3125,21 18,21 z m 20,0 0,3 8,0 0,-3 -8,0 z m 0,6 0,3 8,0 0,-3 -8,0 z m 0,6 0,3 8,0 0,-3 -8,0 z m -20,6 0,3 28,0 0,-3 -28,0 z m 0,6 0,3 28,0 0,-3 -28,0 z"
     id="path3022"
     inkscape:connector-curvature="0" />
  <path
     sodipodi:type="inkscape:offset"
     inkscape:radius="-5.5064173"
     inkscape:original="M 24 4 C 10.704 4 0 14.704 0 28 L 0 34 L 0 62 L 2 64 L 62 64 L 64 62 L 64 4 L 40 4 L 32 4 L 24 4 z "
     style="color:#000000;fill:none;stroke:#d6e4f9;stroke-width:1;stroke-miterlimit:4;stroke-dasharray:none;marker:none;visibility:visible;display:inline;overflow:visible;enable-background:accumulate;stroke-opacity:1"
     id="path4025"
     d="M 24,9.5 C 13.659309,9.5 5.5,17.659309 5.5,28 l 0,6 0,24.5 53,0 0,-49 -18.5,0 -8,0 -8,0 z" />
</svg>
