<svg xmlns="http://www.w3.org/2000/svg" viewBox="0 0 64 64"><g color="#000"><path d="m0 4v30 28l2 2h30 30l2-2v-28-30h-32-32" fill="#375ad5"/><path d="m2 0l-2 1v3h32 32v-3l-2-1h-30-30" fill="#79a1ff"/></g><path d="m0 3v3l2-2z" fill="#97b6ff"/><path d="m64 6l-2-2 2-1z" fill="#567be8"/><path d="m32 10.344c-.375 0-7.06 5.606-7.406 5.75-.347.144-9.05.922-9.313 1.188-.265.265-1.044 8.966-1.188 9.313-.144.347-5.75 7.03-5.75 7.406 0 .375 5.606 7.06 5.75 7.406.144.347.922 9.05 1.188 9.313.265.265 8.966 1.044 9.313 1.188.347.144 7.03 5.75 7.406 5.75.375 0 7.06-5.606 7.406-5.75.347-.144 9.05-.922 9.313-1.188.265-.265 1.044-8.966 1.188-9.313.144-.347 5.75-7.03 5.75-7.406 0-.375-5.606-7.06-5.75-7.406-.144-.347-.922-9.05-1.188-9.313-.265-.265-8.966-1.044-9.313-1.188-.347-.144-7.03-5.75-7.406-5.75m-3 12.656h6v12h-6v-12m0 16h6v6h-6v-6" fill="#d7def0" color="#000"/></svg>