<svg xmlns="http://www.w3.org/2000/svg" xmlns:xlink="http://www.w3.org/1999/xlink" viewBox="0 0 64 64"><defs><radialGradient id="1" gradientUnits="userSpaceOnUse" gradientTransform="matrix(5.7694-.00003 0 5.08627-201.17-199.33)" cx="31.06" cy="40.959" r="7.05"><stop stop-color="#fff"/><stop offset="1" stop-color="#fff" stop-opacity="0"/></radialGradient></defs><g fill="#2e496a" color="#000"><path d="m34.641 47h-5c-.147 0-.281.672-.281 1.5 0 .828.135 1.5.281 1.5h5v-3"/><path d="m34.641 14h-5c-.147 0-.281.672-.281 1.5 0 .828.135 1.5.281 1.5h5v-3"/><path d="m47 31v2.75c0 .147.672.281 1.5.281.828 0 1.5-.135 1.5-.281v-2.75h-3"/></g><g id="0" transform="matrix(.48438 0 0 .48438 29.547 4.844)"><g color="#000"><path d="m-61-9l2-1h60l2 1v61l-2 2h-60l-2-2z" fill="#3b577a"/><path d="m-61-9l2-1h60l2 1v3h-64z" fill="#668cbb"/></g><path d="m3-4l-2-2 2-1z" fill="#4f7099" id="2"/><path d="m-61-4l2-2-2-1z" fill="#7a9cc5"/><path transform="matrix(2.06452 0 0 2.06452-61-10)" d="m2.906 4.844v18.906h25.19v-18.906h-25.19" fill="#2c8fe4" color="#000"/><use xlink:href="#2"/><g color="#000"><path d="m-29 43c1.105 0 2 .895 2 2 0 1.105-.895 2-2 2-1.105 0-2-.895-2-2 0-1.105.895-2 2-2" fill="#162f4d" fill-opacity=".352"/><path d="m-29 44c.552 0 1 .448 1 1 0 .552-.448 1-1 1-.552 0-1-.448-1-1 0-.552.448-1 1-1" fill="#b2f3ff"/><g fill="#162f4d" fill-opacity=".352"><path d="m-35 44c.552 0 1 .448 1 1 0 .552-.448 1-1 1-.552 0-1-.448-1-1 0-.552.448-1 1-1"/><path d="m-13 44c.552 0 1 .448 1 1 0 .552-.448 1-1 1-.552 0-1-.448-1-1 0-.552.448-1 1-1"/><path d="m-40 44c.552 0 1 .448 1 1 0 .552-.448 1-1 1-.552 0-1-.448-1-1 0-.552.448-1 1-1"/><path d="m-18 44c.552 0 1 .448 1 1 0 .552-.448 1-1 1-.552 0-1-.448-1-1 0-.552.448-1 1-1"/><path d="m-45 44c.552 0 1 .448 1 1 0 .552-.448 1-1 1-.552 0-1-.448-1-1 0-.552.448-1 1-1"/><path d="m-23 44c.552 0 1 .448 1 1 0 .552-.448 1-1 1-.552 0-1-.448-1-1 0-.552.448-1 1-1"/><path d="m-61 50h64v2l-2 2h-60l-2-2z"/></g><path d="m-55 0v39.03h21.75l14.938-39.03h-36.688" fill="#6ce3ff" fill-opacity=".177"/><path d="m-26 12v5h1.188l1.906-5h-3.094m-10 1v3h3v-3h-3m5 0v4h4v-4h-4m-5 5v4h4v-4h-4m5 0v4h4v-4h-4m5 0v2.094l.813-2.094h-.813m-11 5v5h5v-5h-5m6 0v4h2.344l1.531-4h-3.875" fill="url(#1)"/><path d="m-26 12v5h5v-5h-5m-10 1v3h3v-3h-3m5 0v4h4v-4h-4m-5 5v4h4v-4h-4m5 0v4h4v-4h-4m5 0v4h4v-4h-4m-11 5v5h5v-5h-5m6 0v4h4v-4h-4m6 1v3h3v-3h-3" fill="#e3ecf0"/></g></g><use transform="translate(0 33)" height="64" width="64" xlink:href="#0"/><use xlink:href="#0" width="64" height="64" transform="translate(33 33)"/><path d="m14 31v2.75c0 .147.672.281 1.5.281.828 0 1.5-.135 1.5-.281v-2.75h-3" fill="#2e496a" color="#000"/><g transform="matrix(.48443 0 0 .48443-4.785 3.875)"><g color="#000"><path d="m78-4v10.999h1v1h-1v10.999h1v1h-1v10.999h1v1h-1v10.999h1v1h-1v9.999l2 2h29.997 29.997l2-2v-9.999h-1v-1h1v-10.999h-1v-1h1v-4-6.999h-1v-1h1v-10.999h-1v-1h1v-10.999h-31.996z" fill="#3b577a"/><path d="m80-8l-2 1v3h31.997 31.996v-3l-2-1h-29.997z" fill="#668cbb"/></g><path d="m141.99-2l-2-2 2-1z" fill="#4f6f97"/><g color="#000"><g fill="#162f4d" fill-opacity=".352"><g transform="matrix(0 1-1 0 0 0)"><path d="m5.998-140.99h3v61.993h-3z"/><path d="m18-140.99h3v61.993h-3z"/><path d="m30-140.99h3v61.993h-3z"/><path d="m42-140.99h3v61.993h-3z"/></g><path d="m121 10.998v4.999h2v-4.999h-2m4 0v4.999h2v-4.999h-2m4 0v4.999h2v-4.999h-2m4 0v4.999h2v-4.999h-2"/><path d="m121-1v4.999h2v-4.999h-2m4 0v4.999h2v-4.999h-2m4 0v4.999h2v-4.999h-2m4 0v4.999h2v-4.999h-2"/><path d="m121 22.997v4.999h2v-4.999h-2m4 0v4.999h2v-4.999h-2m4 0v4.999h2v-4.999h-2m4 0v4.999h2v-4.999h-2"/><path d="m121 34.995v4.999h2v-4.999h-2m4 0v4.999h2v-4.999h-2m4 0v4.999h2v-4.999h-2m4 0v4.999h2v-4.999h-2"/><path d="m90.999-1v2h4.999v-2h-4.999m0 3v2h4.999v-2h-4.999"/><path d="m90.999 10.998v2h4.999v-2h-4.999m0 3v2h4.999v-2h-4.999"/><path d="m90.999 22.997v2h4.999v-2h-4.999m0 3v2h4.999v-2h-4.999"/><path d="m90.999 34.995v2h4.999v-2h-4.999m0 3v2h4.999v-2h-4.999"/><circle transform="translate(78-8)" cx="6.999" cy="57.994" r="3" fill-rule="evenodd"/></g><circle transform="translate(78-8)" cx="6.999" cy="57.994" r="1.5" fill="#c9fc0b" fill-rule="evenodd"/><g fill="#2acec8"><path d="m131 6l1 1v1l-1 1h-6l-1-1v-1l1-1z"/><path d="m131 18l1 1v1l-1 1h-6l-1-1v-1l1-1z"/><path d="m131 30l1 1v1l-1 1h-6l-1-1v-1l1-1z"/><path d="m131 42l1 1v1l-1 1h-6l-1-1v-1l1-1z"/></g></g><path d="m78-2l2-2-2-1z" fill="#7698c2"/></g></svg>