<svg xmlns="http://www.w3.org/2000/svg" viewBox="0 0 64 64"><g color="#000"><path d="m0 4v30 28l2 2h30 30l2-2v-28-30h-32-32" fill="#e2751d"/><path d="m2 0l-2 1v3h32 32v-3l-2-1h-30-30" fill="#ffb955"/></g><path d="m64 6l-2-2 2-1z" fill="#ef9537"/><path d="m0 3v3l2-2z" fill="#ffc36e"/><g fill="#ffedc0" color="#000"><path d="M31.75 9.375A2.0002 2.0002 0 0 0 30.09375 12l5 15.469a2.0002 2.0002 0 0 1 1.96875 -2.4375h1.438l-4.594-14.25A2.0002 2.0002 0 0 0 31.75 9.375M36 28.75A2.00128 2.00128 0 0 0 36.34375 28.90625 2.0002 2.0002 0 0 1 36 28.75m.53125.21875a2.00128 2.00128 0 0 0 .40625 .0625 2.0002 2.0002 0 0 1 -.40625 -.0625"/><path d="m53.38 25l-16.313.031a2.0002 2.0002 0 1 0 0 4l10.25-.031 5-3.594a2.0002 2.0002 0 0 1 1.0625 -.40625m1.9375 2.875a2.0002 2.0002 0 0 1 -.09375 .15625 2.0002 2.0002 0 0 0 .09375 -.15625"/><path d="m53.375 25a2.0002 2.0002 0 0 0 -1.0625 .40625l-13.12 9.5a2.0002 2.0002 0 0 1 .9375 -.28125 2.0002 2.0002 0 0 1 1.96875 1.40625l.438 1.375L54.688 28.625A2.0002 2.0002 0 0 0 53.375 25M38.1875 36.375a2.00348 2.00348 0 0 0 0 .5625 2.0002 2.0002 0 0 1 0 -.5625"/><path d="m39.9375 34.625a2.0002 2.0002 0 0 0 -1.65625 2.65625l3.188 9.75 5 3.656a2.0002 2.0002 0 0 1 .5625 .53125l-4.938-15.188A2.0002 2.0002 0 0 0 40.125 34.625a2.0002 2.0002 0 0 0 -.1875 0"/><path d="M31.28125 40.71875A2.0002 2.0002 0 0 0 30.625 41.125L30.813 41a2.0002 2.0002 0 0 1 .46875 -.28125m2.25.53125A2.0002 2.0002 0 0 1 33.1875 44.21875L32 45.09 44.13 53.906A2.0002 2.0002 0 1 0 46.46875 50.6875L33.531 41.25"/><path d="M31.875 40.59375A2.0002 2.0002 0 0 0 30.8125 41l-8.281 6.03-1.906 5.875a2.00609 2.00609 0 0 1 -.4375 .75l13-9.438a2.0002 2.0002 0 0 0 -1.3125 -3.625m-14.9375 10.625a2.0002 2.0002 0 0 0 2.71875 2.84375 2.00609 2.00609 0 0 1 -2.84375 -2.40625l.125-.438" opacity=".535"/><path d="m24.813 34.875l.188.156a2.00348 2.00348 0 0 1 .21875 .1875 2.0002 2.0002 0 0 0 -.40625 -.34375m.53125.46875a2.00348 2.00348 0 0 1 .25 .34375 2.0002 2.0002 0 0 0 -.25 -.34375m.4375.90625a2.00348 2.00348 0 0 1 .03125 .1875 2.0002 2.0002 0 0 0 -.03125 -.1875m-4.313 1.156l-4.656 14.25a2.00609 2.00609 0 1 0 3.8125 1.25l5.03-15.406a2.00348 2.00348 0 0 1 -3 .78125l-1.188-.875" opacity=".535"/><path d="m9.0625 25.59375a2.0002 2.0002 0 0 0 -.21875 .25 2.0002 2.0002 0 0 1 .21875 -.25m-.59375 1.4375a2.0002 2.0002 0 0 0 .0625 .40625 2.0002 2.0002 0 0 1 -.0625 -.40625m.938 1.656l13.25 9.594A2.00348 2.00348 0 1 0 25 35.03125L16.688 29H10.5A2.0002 2.0002 0 0 1 9.40625 28.6875" opacity=".714"/><path d="M32.90625 9.59375A2.0002 2.0002 0 0 1 33.0625 9.6875 2.0002 2.0002 0 0 0 32.90625 9.59375m1 1.188l.063.156a2.0002 2.0002 0 0 0 -.0625 -.15625M30 11.06L25.03 26.438a2.00128 2.00128 0 1 0 3.8125 1.21875L32 17.906 30.09 12A2.0002 2.0002 0 0 1 30 11.0625"/><path d="M10.3125 25A2.0022 2.0022 0 0 0 10.5 29l16.09.031A2.00128 2.00128 0 0 1 25.03125 26.4375L25.5 25.03 10.5 25a2.0002 2.0002 0 0 0 -.1875 0M28.75 27.90625A2.00128 2.00128 0 0 1 28.65625 28.0625 2.0002 2.0002 0 0 0 28.75 27.90625"/></g></svg>