<svg xmlns="http://www.w3.org/2000/svg" viewBox="0 0 64 64" xmlns:xlink="http://www.w3.org/1999/xlink"><defs><path id="0" d="m49 34a17 17 0 1 1 -34 0 17 17 0 1 1 34 0" color="#000"/></defs><g color="#000"><path d="m0 4v30 28l2 2h30 30l2-2v-28-30h-32-32" fill="#e6ad2b"/><path d="m2 0l-2 1v3h32 32v-3l-2-1h-30-30" fill="#ffe04c"/></g><path d="m0 3v3l2-2" fill="#fff" fill-opacity=".418"/><path d="m64 6l-2-2 2-1z" fill="#1f0700" fill-opacity=".138"/><g color="#000"><path d="m36 15c-3.332 0-6.485.725-9.344 2h-8.656c-1.662 0-3 1.338-3 3v8.656c-1.275 2.859-2 6.01-2 9.344 0 3.332.725 6.485 2 9.344l-2 7.656 2.613 2.822c.613.662 1.411 1.178 2.387 1.178h8.656c2.859 1.275 6.01 2 9.344 2 3.332 0 6.485-.725 9.344-2h8.656c1.662 0 3-1.338 3-3v-8.656c1.275-2.859 2-6.01 2-9.344 0-3.332-.725-6.485-2-9.344v-8.656c0-.903-.429-1.673-1.022-2.259l-3.01-2.976-7.625 2.234c-2.859-1.275-6.01-2-9.344-2" fill="#480000" fill-opacity=".096"/><path d="m32 11c-3.332 0-6.485.725-9.344 2h-8.656c-1.662 0-3 1.338-3 3v8.656c-1.275 2.859-2 6.01-2 9.344 0 3.332.725 6.485 2 9.344v8.656c0 1.662 1.338 3 3 3h8.656c2.859 1.275 6.01 2 9.344 2 3.332 0 6.485-.725 9.344-2h8.656c1.662 0 3-1.338 3-3v-8.656c1.275-2.859 2-6.01 2-9.344 0-3.332-.725-6.485-2-9.344v-8.656c0-1.662-1.338-3-3-3h-8.656c-2.859-1.275-6.01-2-9.344-2" fill="#3e5979"/><path d="m48.25 17.75l-32.5 32.5c4.162 4.162 9.899 6.75 16.25 6.75 3.332 0 6.485-.725 9.344-2h8.656c1.662 0 3-1.338 3-3v-8.656c1.275-2.859 2-6.01 2-9.344 0-6.351-2.588-12.09-6.75-16.25" fill-opacity=".122"/></g><use transform="matrix(1.23529 0 0 1.23529-7.529-8)" fill-opacity=".216" xlink:href="#0"/><use fill="#d69127" xlink:href="#0"/><path d="m44.01 21.986l-24.03 24.03a17 17 0 0 0 12.01367 4.986328 17 17 0 0 0 17 -17 17 17 0 0 0 -4.986328 -12.01367" color="#000" fill="#eeb32e"/><use transform="matrix(.52941 0 0 .52941 15.06 16)" fill="#3e5979" xlink:href="#0"/><g fill="#b6c9d1"><use transform="matrix(.05882 0 0 .05882 13.12 15)" xlink:href="#0"/><use transform="matrix(0 .05882-.05882 0 51 15.12)" xlink:href="#0"/><use transform="matrix(.05882 0 0 .05882 47.12 49)" xlink:href="#0"/><use transform="matrix(0 .05882-.05882 0 17 49.12)" xlink:href="#0"/></g><rect transform="matrix(.70711-.70711.70711.70711 0 0)" rx="7" y="39.669" x="-8.414" height="17.5" width="14" fill-opacity=".096" color="#000" fill="#480000"/><use transform="matrix(.41176 0 0 .41176 18.824 20)" fill="#446285" xlink:href="#0"/></svg>