<svg xmlns="http://www.w3.org/2000/svg" xmlns:xlink="http://www.w3.org/1999/xlink" viewBox="0 0 64 64"><defs><path id="0" d="m9.164 1.208c-.332.023-.645.235-.76.571l-3.488 9.942c-.115.335-.001.688.247.909.066.059.131.117.216.154.008.003.022-.008.031-.005.014.006.021.021.036.026.009.002.022-.008.031-.005.024.007.043.015.067.021.417.088.844-.132.986-.545l3.488-9.942c.143-.418-.067-.85-.458-1.032-.027-.01-.044-.042-.072-.051-.01-.004-.021.008-.031.005-.022-.008-.044-.015-.067-.021-.058-.012-.107-.036-.164-.036-.022-.003-.04.012-.062.01" color="#000" fill="#2e6c9a"/><path id="1" d="m2.188 10c-.114.316-.188.644-.188 1 0 1.657 1.343 3 3 3 1.657 0 3-1.343 3-3 0-.356-.074-.684-.188-1-.416 1.158-1.511 2-2.813 2-1.301 0-2.397-.842-2.813-2" opacity=".528" color="#000" fill="#927143"/><path id="2" d="m9.938 1.156c-.331-.032-.675.126-.844.438l-5.406 10c-.169.312-.114.678.094.938.055.069.11.137.188.188.008.004.023-.004.031 0 .013.008.017.024.031.031.009.004.023-.004.031 0 .022.011.04.022.063.031.396.156.855.009 1.063-.375l5.406-10c.21-.388.074-.849-.281-1.094-.025-.015-.037-.048-.063-.063-.009-.005-.022.005-.031 0-.021-.011-.041-.022-.063-.031-.055-.022-.1-.053-.156-.063-.021-.006-.042.006-.063 0" fill="#3b8ac4" color="#000"/><path id="3" d="m10.531 6c.353.62.593 1.198.781 1.75.231-.495.551-.947 1-1.25-.111-.171-.192-.325-.313-.5-.14-.326-.436-1.198-.705-2l-1.075.002c.209.657.246 1.208.311 2m1.063 4.781c-.599 2.378-3.39 3.054-5.906 1.125-.225.054-.446.094-.688.094-.141 0-.27-.012-.406-.031l-.438.719c4.902 4.373 10.421 3.743 10.281-.719-.146.022-.285.031-.438.031-.988 0-1.86-.482-2.406-1.219" fill="#421300" color="#000" fill-opacity=".094"/></defs><g transform="matrix(-1 0 0 1 64.03-1)"><use xlink:href="#0"/><use transform="translate(18)" xlink:href="#0"/><use transform="translate(27)" xlink:href="#0"/><use transform="translate(36)" xlink:href="#0"/><use transform="translate(45)" xlink:href="#0"/><use transform="translate(54)" xlink:href="#0"/><use transform="translate(9)" xlink:href="#0"/></g><g color="#000"><path d="m0 5v29 28l2 2h30 30l2-2v-28-29h-5c1.657 0 3 1.343 3 3 0 1.657-1.343 3-3 3-1.657 0-3-1.343-3-3 0-1.45 1.039-2.658 2.406-2.938.195-.04.387-.063.594-.063h-9c1.657 0 3 1.343 3 3 0 1.657-1.343 3-3 3-1.657 0-3-1.343-3-3 0-1.45 1.039-2.658 2.406-2.938.195-.04.387-.063.594-.063h-9c1.657 0 3 1.343 3 3 0 1.657-1.343 3-3 3-1.657 0-3-1.343-3-3 0-1.45 1.039-2.658 2.406-2.938.195-.04.387-.063.594-.063h-9c1.657 0 3 1.343 3 3 0 1.657-1.343 3-3 3-1.657 0-3-1.343-3-3 0-1.45 1.039-2.658 2.406-2.938.195-.04.387-.063.594-.063h-9c1.657 0 3 1.343 3 3 0 1.657-1.343 3-3 3-1.657 0-3-1.343-3-3 0-1.45 1.039-2.658 2.406-2.938.195-.04.387-.063.594-.063h-9c1.657 0 3 1.343 3 3 0 1.657-1.343 3-3 3-1.657 0-3-1.343-3-3 0-1.657 1.343-3 3-3h-9c1.657 0 3 1.343 3 3 0 1.657-1.343 3-3 3-1.657 0-3-1.343-3-3 0-1.657 1.343-3 3-3z" fill="#e4d6a8"/><path d="m2 3l-2 1v1h32 32v-1l-2-1h-30z" fill="#f5e9b3"/></g><path d="m0 4v3l2-2z" fill="#fbf3d1"/><path d="m64 7l-2-2 2-1z" fill="#ecdead"/><g transform="translate(0-1)"><g><use xlink:href="#1"/><path d="m10.531 6c.353.62.593 1.198.781 1.75.231-.495.551-.947 1-1.25-.111-.171-.192-.325-.313-.5-.14-.326-.436-1.198-.705-2l-1.075.002c.209.657.246 1.208.311 2m1.063 4.781c-.599 2.378-3.39 3.054-5.906 1.125-.225.054-.446.094-.688.094-.141 0-.27-.012-.406-.031l-.438.719c4.902 4.373 10.421 3.743 10.281-.719-.146.022-.285.031-.438.031-.988 0-1.86-.482-2.406-1.219" fill="#421300" fill-opacity=".094" color="#000"/><use xlink:href="#2"/></g><g transform="translate(18)"><use xlink:href="#1"/><path d="m10.531 6c.353.62.593 1.198.781 1.75.231-.495.551-.947 1-1.25-.111-.171-.192-.325-.313-.5-.14-.326-.436-1.198-.705-2l-1.075.002c.209.657.246 1.208.311 2m1.063 4.781c-.599 2.378-3.39 3.054-5.906 1.125-.225.054-.446.094-.688.094-.141 0-.27-.012-.406-.031l-.438.719c4.902 4.373 10.421 3.743 10.281-.719-.146.022-.285.031-.438.031-.988 0-1.86-.482-2.406-1.219" fill="#421300" fill-opacity=".094" color="#000"/><use xlink:href="#2"/></g><g transform="translate(27)"><use xlink:href="#1"/><use xlink:href="#3"/><use xlink:href="#2"/></g><g transform="translate(36)"><use xlink:href="#1"/><use xlink:href="#3"/><use xlink:href="#2"/></g><g transform="translate(45)"><use xlink:href="#1"/><use xlink:href="#3"/><use xlink:href="#2"/></g><g transform="translate(54)"><use xlink:href="#1"/><g color="#000"><path d="m59.688 10.906c-.225.054-.446.094-.688.094-.141 0-.27-.012-.406-.031l-.438.719c1.992 1.777 4.069 2.734 5.844 2.938v-2.875c-1.176.535-2.794.32-4.313-.844" transform="translate(-54 1)" fill="#421300" fill-opacity=".094"/><path d="m8.891 3.109c-.331-.032-.675.126-.844.438l-4.359 8.05c-.169.312-.114.678.094.938.055.069.11.137.188.188.008.004.023-.004.031 0 .013.008.017.024.031.031.009.004.023-.004.031 0 .022.011.04.022.063.031.396.156.855.009 1.063-.375l4.359-8.05c.21-.388.074-.849-.281-1.094-.025-.015-.037-.048-.063-.063-.009-.005-.022.005-.031 0-.021-.011-.041-.022-.063-.031-.055-.022-.1-.053-.156-.063-.021-.006-.042.006-.063 0" fill="#3b8ac4"/></g></g><g transform="translate(9)"><use xlink:href="#1"/><use xlink:href="#3"/><use xlink:href="#2"/></g></g><g color="#000"><path fill="#cb0000" fill-opacity=".218" d="m9 5h1v59h-1z"/><g fill="#0f7cf1" fill-opacity=".372" transform="matrix(0-1 1 0 0 0)"><path d="m-56.25 0h1v64h-1z"/><path d="m-38.25 0h1v64h-1z"/><path d="m-50.25 0h1v64h-1z"/><path d="m-32.25 0h1v64h-1z"/><path d="m-44.25 0h1v64h-1z"/><path d="m-26.25 0h1v64h-1z"/><path d="m-20.25 0h1v64h-1z"/></g></g><g transform="matrix(.96747-.253.253.96747-11.526 17.293)"><path d="m58.832 12.648c-.917-.163-1.864.352-2.221 1.254l-1.078 2.801c-.051.129-.113.231-.136.362l-.22.541-.031-.004-7 15.519-6.682 13.249-1.37 6.175-.7 3.083c0 0-.14.517.156.696.296.179.696-.156.696-.156l2.391-2.071 4.834-4.096 6.999-13.823 6.458-14.13.75-1.864.356-.903 1.109-2.798c.408-1.03-.084-2.206-1.114-2.614l-2.801-1.078c-.129-.051-.262-.116-.393-.14" fill="#421300" fill-opacity=".094" color="#000"/><g transform="matrix(.88161.47198-.47198.88161 27.497-25.397)"><path d="m43 56v-1.9l7-.78v2.68l-2 6h-3z" fill="#e9dab7"/><g color="#000" transform="matrix(.97373-.22772.22772.97373-4.79 15.554)"><path d="m50.16 17.313l-7.969 34.09c.189-.807.775-1.376 1.313-1.25.538.126.814.912.625 1.719l8-34.09-1.969-.469" fill="#c48b29"/><path d="m45.28 16.188l-7.969 34.09c.189-.807.775-1.376 1.313-1.25.538.126.845.881.656 1.688l7.969-34.06-1.969-.469" fill="#f4d44d"/><path d="m47.25 16.656l-7.969 34.06c.189-.807.975-1.314 1.781-1.125.807.189 1.314 1.01 1.125 1.813l7.969-34.09-2.906-.656" fill="#e4ab35"/></g><path d="m45 62l1 3c0 0 .154.5.5.5.346 0 .5-.5.5-.5l1-3c-.069-.22-.202-.162-.359 0l-.309-.276-.597.276-.829-.563-.409.563c-.182-.122-.398-.505-.498 0" fill="#535353"/><g color="#000"><rect rx="2" y="15" x="43" height="7" width="7" fill="#c84949"/><path fill="#535353" d="m43 20h7v3h-7z"/></g></g></g></svg>