<svg xmlns="http://www.w3.org/2000/svg" viewBox="0 0 64 64"><g color="#000"><path d="m0 4v30 28l2 2h30 30l2-2v-28-30h-32-32" fill="#3a4757"/><path d="m0 4v30 18.19c7.567-.612 14.486-1.996 20.906-4.125 18.447 4.43 32.368-5.353 33.09-20.656 3.404-3.264 6.724-6.809 10-10.656v-12.75h-32-32m43.22 32.5c-1.829 1.341-3.7 2.599-5.625 3.781 1.915-1.176 3.786-2.444 5.625-3.781m-7.563 4.938c-1.894 1.09-3.811 2.115-5.781 3.03 1.968-.933 3.899-1.944 5.781-3.03" fill="#eeb510"/><path d="m2 0l-2 1v3h32 32v-3l-2-1h-30-30" fill="#ffdb50"/></g><path d="m0 3v3l2-2" fill="#ffe16d"/><path d="m64 6l-2-2 2-1z" fill="#f7c932"/><path d="m40.16 12.25c-15.462-.551-26.13 19.09-34.844 29.06 5.31 3.321 10.462 5.487 15.313 6.688 12.526-3.744 24.02-11.335 33.375-20.781.063-1.55-.008-3.162-.219-4.813l4.906-2.531-5.406-.375 4.625-3.719-6.25.438c-4.114-2.644-7.932-3.842-11.5-3.969" fill="#3a4757" color="#000"/><path d="m30.557 47.47l1.565 8.695 1.144-.206-1.565-8.696" fill="#e2e4e6"/><path d="m26.991 20.969c1.293-.25 2.484-.365 3.577-.365 3.279.003 5.646 1.026 7.214 2.58 1.566 1.556 2.352 3.673 2.353 5.947.001 3.965-2.412 8.364-7.251 10.759-3.965 1.963-8.08 2.694-11.92 2.695-5.918.004-11.174-1.754-14.04-3.353l-.566 1.016c3.062 1.7 8.453 3.496 14.604 3.499 3.983 0 8.285-.76 12.436-2.815 5.216-2.582 7.897-7.371 7.898-11.802.001-2.54-.889-4.978-2.697-6.773-1.807-1.796-4.514-2.92-8.03-2.917-1.174 0-2.44.123-3.798.385l.221 1.143" fill="#afb4b9"/><path d="m26.434 47.47l1.567 8.695 1.145-.206-1.567-8.696" fill="#e2e4e6"/><path d="m44.15 22.286c-.406-1.335-.573-2.314-.572-2.935-.003-.413.079-.653.132-.727l.047-.049.077-.013c.085-.003.267.038.5.159.709.356 1.785 1.364 2.815 2.743l.929-.697c-.733-.977-1.479-1.79-2.183-2.377-.352-.293-.694-.531-1.031-.704-.337-.171-.672-.284-1.03-.286-.208-.001-.424.043-.621.148-.298.154-.512.433-.629.74-.121.309-.167.658-.168 1.064.002.812.197 1.87.621 3.272l1.113-.337" fill="#afb4b9"/><path d="m16.634 40.24l.334-1.111c1.896-6.376 7.134-13.411 15.64-16.536l1.097-.402-.293 2.59c-7.529 2.766-12.511 9.277-14.215 15.01l-2.563.45" color="#000" fill="#e2e4e6"/></svg>