<svg xmlns="http://www.w3.org/2000/svg" viewBox="0 0 64 64"><g color="#000"><path d="m0 4v30 28l2 2h30 30l2-2v-28-30h-32-32" fill="#aeb4c3"/><path d="m2 0l-2 1v3h19.563 19.563 24.875v-3l-2-1h-22.875-19.563-17.563" fill="#e7ecf0"/></g><path d="m0 3v3l2-2z" fill="#f2f5f7"/><path d="m41.28 0v4h22.719v-3l-2-1h-20.719" fill="#ee719a"/><path d="m41.28 4v.125c5.415.513 10.554 3.434 13.781 7.813 3.227 4.379 4.488 10.176 3.375 15.5-1.113 5.324-4.539 10.09-9.25 12.813-4.711 2.719-10.615 3.325-15.781 1.625-4.548-1.496-8.374-4.604-12.06-7.656-3.689-3.052-7.471-6.197-12-7.75-2.991-1.026-6.218-1.253-9.344-.781v8.313 28l2 2h30 30l2-2v-28-30h-22.719" fill="#9f254d" color="#000"/><path d="m64 6l-2-2 2-1z" fill="#c2476f"/></svg>