<?xml version="1.0" encoding="UTF-8" standalone="no"?>
<!-- Created with Inkscape (http://www.inkscape.org/) -->

<svg
   xmlns:dc="http://purl.org/dc/elements/1.1/"
   xmlns:cc="http://creativecommons.org/ns#"
   xmlns:rdf="http://www.w3.org/1999/02/22-rdf-syntax-ns#"
   xmlns:svg="http://www.w3.org/2000/svg"
   xmlns="http://www.w3.org/2000/svg"
   xmlns:sodipodi="http://sodipodi.sourceforge.net/DTD/sodipodi-0.dtd"
   xmlns:inkscape="http://www.inkscape.org/namespaces/inkscape"
   width="22"
   height="22"
   id="svg2"
   version="1.1"
   inkscape:version="0.91+devel r"
   sodipodi:docname="chrome_app_indicator_99781b8573ce6f47eb026ec5e2d26243.svg">
  <sodipodi:namedview
     id="base"
     pagecolor="#cbced6"
     bordercolor="#666666"
     borderopacity="1.0"
     inkscape:pageopacity="1"
     inkscape:pageshadow="2"
     inkscape:zoom="32"
     inkscape:cx="3.1476157"
     inkscape:cy="10.518423"
     inkscape:document-units="px"
     inkscape:current-layer="layer1"
     showgrid="true"
     inkscape:window-width="1920"
     inkscape:window-height="1025"
     inkscape:window-x="-2"
     inkscape:window-y="32"
     inkscape:window-maximized="1"
     showguides="true"
     inkscape:guide-bbox="true"
     fit-margin-top="0"
     fit-margin-left="0"
     fit-margin-right="0"
     fit-margin-bottom="0"
     inkscape:snap-bbox="true"
     inkscape:bbox-paths="true"
     inkscape:bbox-nodes="true"
     inkscape:snap-bbox-edge-midpoints="true"
     inkscape:snap-bbox-midpoints="true"
     inkscape:snap-nodes="true"
     inkscape:object-paths="true"
     inkscape:snap-intersection-paths="true"
     inkscape:object-nodes="true"
     inkscape:snap-smooth-nodes="true"
     inkscape:snap-midpoints="true"
     inkscape:snap-object-midpoints="true"
     inkscape:snap-center="true"
     inkscape:snap-page="true"
     inkscape:snap-global="true">
    <inkscape:grid
       snapvisiblegridlinesonly="true"
       enabled="true"
       visible="true"
       empspacing="5"
       id="grid2816"
       type="xygrid"
       originx="-410px"
       originy="18.999958px" />
  </sodipodi:namedview>
  <defs
     id="defs4" />
  <metadata
     id="metadata7">
    <rdf:RDF>
      <cc:Work
         rdf:about="">
        <dc:format>image/svg+xml</dc:format>
        <dc:type
           rdf:resource="http://purl.org/dc/dcmitype/StillImage" />
        <dc:title></dc:title>
      </cc:Work>
    </rdf:RDF>
  </metadata>
  <g
     transform="translate(-410,-1049.3622)"
     id="layer1"
     inkscape:groupmode="layer"
     inkscape:label="Layer 1">
    <path
       style="color:#000000;fill:#434a54;fill-opacity:0.6745098;fill-rule:nonzero;stroke:none;stroke-width:22.13853836;marker:none;visibility:visible;display:inline;overflow:visible;enable-background:accumulate"
       d="M 10.4375 2 C 10.4285 2.021 10.3912 2.03225 10.375 2.03125 C 10.09768 2.05625 9.80496 2.073 9.53125 2.125 C 7.52962 2.5044 5.89741 3.4749 4.625 5.0625 C 3.5785 6.368 2.99952 7.8926 2.875 9.5625 C 2.86 9.7635 2.84395 9.95615 2.84375 10.15625 L 2.84375 10.1875 C 2.84468 10.7838 2.93115 11.3516 3.0625 11.9375 C 3.19434 12.526 3.39174 13.11275 3.65625 13.65625 C 3.67945 13.70225 3.69525 13.73525 3.71875 13.78125 C 4.15331 14.63695 4.70562 15.4039 5.40625 16.0625 C 5.77515 16.4092 6.16682 16.729 6.59375 17 C 7.90125 17.8299 9.32445 18.26175 10.875 18.28125 C 10.97 18.28125 11.00041 18.30925 11 18.40625 C 10.996 19.23615 10.999 20.07635 11 20.90625 C 11.0001 20.93825 10.999 20.959 11 21 C 11.0269 20.989 11.0463 20.97675 11.0625 20.96875 C 12.62121 20.23645 14.06774 19.31625 15.34375 18.15625 C 15.59753 17.92545 15.82875 17.6892 16.0625 17.4375 C 16.16254 17.3297 16.27464 17.20105 16.375 17.09375 C 16.52986 16.92795 16.63526 16.76795 16.78125 16.59375 C 16.94985 16.39265 17.10071 16.1527 17.25 15.9375 C 17.58018 15.462 17.87721 14.99285 18.125 14.46875 C 18.25035 14.20375 18.39438 13.92945 18.5 13.65625 C 18.504 13.64625 18.498 13.63 18.5 13.625 C 18.78785 12.8766 18.9641 12.1069 19.0625 11.3125 C 19.0968 11.0358 19.1111 10.7782 19.125 10.5 C 19.131 10.3742 19.15625 10.21915 19.15625 10.09375 C 19.15542 9.63095 19.11505 9.1443 19.03125 8.6875 C 18.74288 7.1153 18.05635 5.76565 16.96875 4.59375 C 16.50972 4.09905 15.974 3.64625 15.40625 3.28125 C 14.34891 2.60145 13.21793 2.21 11.96875 2.0625 C 11.81647 2.0445 11.65012 2.036 11.5 2 L 10.4375 2 z M 6 9 L 8 9 L 8 11 L 6 11 L 6 9 z M 10 9 L 12 9 L 12 11 L 10 11 L 10 9 z M 14 9 L 16 9 L 16 11 L 14 11 L 14 9 z "
       transform="translate(410,1049.3622)"
       id="path3840" />
  </g>
</svg>
