<?xml version="1.0" encoding="UTF-8" standalone="no"?>
<!-- Created with Inkscape (http://www.inkscape.org/) -->

<svg
   xmlns:dc="http://purl.org/dc/elements/1.1/"
   xmlns:cc="http://creativecommons.org/ns#"
   xmlns:rdf="http://www.w3.org/1999/02/22-rdf-syntax-ns#"
   xmlns:svg="http://www.w3.org/2000/svg"
   xmlns="http://www.w3.org/2000/svg"
   xmlns:xlink="http://www.w3.org/1999/xlink"
   xmlns:sodipodi="http://sodipodi.sourceforge.net/DTD/sodipodi-0.dtd"
   xmlns:inkscape="http://www.inkscape.org/namespaces/inkscape"
   id="svg13094"
   height="36"
   width="36"
   version="1.1"
   inkscape:version="0.48.3.1 r9886"
   sodipodi:docname="emblem-symbolic-link.svg">
  <sodipodi:namedview
     pagecolor="#ffffff"
     bordercolor="#666666"
     borderopacity="1"
     objecttolerance="10"
     gridtolerance="10"
     guidetolerance="10"
     inkscape:pageopacity="0"
     inkscape:pageshadow="2"
     inkscape:window-width="1920"
     inkscape:window-height="1023"
     id="namedview19"
     showgrid="true"
     inkscape:snap-bbox="true"
     inkscape:bbox-paths="true"
     inkscape:bbox-nodes="true"
     inkscape:snap-bbox-edge-midpoints="true"
     inkscape:snap-bbox-midpoints="true"
     inkscape:object-paths="true"
     inkscape:snap-intersection-paths="true"
     inkscape:object-nodes="true"
     inkscape:snap-smooth-nodes="true"
     inkscape:snap-midpoints="true"
     inkscape:snap-object-midpoints="true"
     inkscape:snap-center="true"
     inkscape:zoom="59"
     inkscape:cx="-22.946515"
     inkscape:cy="10.435143"
     inkscape:window-x="-10"
     inkscape:window-y="35"
     inkscape:window-maximized="1"
     inkscape:current-layer="g3019"
     fit-margin-top="0"
     fit-margin-left="0"
     fit-margin-right="0"
     fit-margin-bottom="0">
    <inkscape:grid
       type="xygrid"
       id="grid3766"
       empspacing="5"
       visible="true"
       enabled="true"
       snapvisiblegridlinesonly="true"
       originx="-6.9999986px"
       originy="-6.999997px" />
  </sodipodi:namedview>
  <defs
     id="defs11" />
  <metadata
     id="metadata13099">
    <rdf:RDF>
      <cc:Work
         rdf:about="">
        <dc:format>image/svg+xml</dc:format>
        <dc:type
           rdf:resource="http://purl.org/dc/dcmitype/StillImage" />
        <dc:title />
      </cc:Work>
    </rdf:RDF>
  </metadata>
  <g
     id="g3019"
     transform="translate(-40.999999,10.999998)">
    <path
       transform="matrix(0.33098618,0.33098618,-0.33098618,0.33098618,17.669014,-7.8450881)"
       d="M 57,32.5 C 57,45.478692 46.478692,56 33.5,56 20.521308,56 10,45.478692 10,32.5 10,19.521308 20.521308,9 33.5,9 46.478692,9 57,19.521308 57,32.5 z"
       sodipodi:ry="23.5"
       sodipodi:rx="23.5"
       sodipodi:cy="32.5"
       sodipodi:cx="33.5"
       id="path3991"
       style="fill:#404957;fill-opacity:0.23137255;fill-rule:nonzero;stroke:none"
       sodipodi:type="arc" />
    <path
       style="color:#000000;fill:#404957;fill-opacity:0.23137255;fill-rule:nonzero;stroke:none;stroke-width:2;marker:none;visibility:visible;display:inline;overflow:visible;enable-background:accumulate"
       d="m 13.999999,10.500002 -2,1.5 0,1 2,0 0,-0.5 8,0 0,0.5 2,0 0,-1 -2,-1.5 -8,0 z m -5.75,3.5 0,2 7.75,0 0,-2 -7.75,0 z m 11.75,0 0,2 7.75,0 0,-2 -7.75,0 z m -8,3 0,1 2,1.5 8,0 2,-1.5 0,-1 -2,0 0,0.5 -8,0 0,-0.5 -2,0 z"
       id="path3029"
       inkscape:connector-curvature="0" />
    <path
       style="color:#000000;fill:#ffffff;fill-opacity:1;fill-rule:evenodd;stroke:none;stroke-width:2;marker:none;visibility:visible;display:inline;overflow:visible;enable-background:accumulate"
       d="m 8.250001,12.999998 7.75,0 0,2 -7.75,0 z"
       id="rect2996"
       inkscape:connector-curvature="0"
       sodipodi:nodetypes="ccccc" />
    <path
       style="color:#000000;fill:#ffffff;fill-opacity:1;fill-rule:evenodd;stroke:none;stroke-width:2;marker:none;visibility:visible;display:inline;overflow:visible;enable-background:accumulate"
       d="m 20.000002,12.999998 7.75,0 0,2 -7.75,0 z"
       id="rect2998"
       inkscape:connector-curvature="0"
       sodipodi:nodetypes="ccccc" />
    <path
       sodipodi:nodetypes="ccccccccccc"
       inkscape:connector-curvature="0"
       id="path3031"
       d="m 13.999999,9.500001 -2,1.5 0,1 2,0 10e-7,-0.500002 8,0 0,0.5 1.999999,2e-6 0,-1 -2,-1.5 z"
       style="color:#000000;fill:#ffffff;fill-opacity:1;fill-rule:evenodd;stroke:none;stroke-width:2;marker:none;visibility:visible;display:inline;overflow:visible;enable-background:accumulate" />
    <use
       x="0"
       y="0"
       xlink:href="#path3031"
       id="use3044"
       transform="matrix(1,0,0,-1,1e-6,28)"
       width="32"
       height="32" />
  </g>
  <use
     x="0"
     y="0"
     xlink:href="#g3019"
     id="use3028"
     transform="matrix(0.70710678,-0.70710678,0.70710678,0.70710678,16.585787,-15.941123)"
     width="32"
     height="32" />
</svg>
