<?xml version="1.0" encoding="UTF-8" standalone="no"?>
<!-- Created with Inkscape (http://www.inkscape.org/) -->

<svg
   xmlns:dc="http://purl.org/dc/elements/1.1/"
   xmlns:cc="http://creativecommons.org/ns#"
   xmlns:rdf="http://www.w3.org/1999/02/22-rdf-syntax-ns#"
   xmlns:svg="http://www.w3.org/2000/svg"
   xmlns="http://www.w3.org/2000/svg"
   xmlns:xlink="http://www.w3.org/1999/xlink"
   xmlns:sodipodi="http://sodipodi.sourceforge.net/DTD/sodipodi-0.dtd"
   xmlns:inkscape="http://www.inkscape.org/namespaces/inkscape"
   id="svg13094"
   height="64"
   width="64"
   version="1.1"
   inkscape:version="0.48.3.1 r9886"
   sodipodi:docname="folder-remote.svg"
   inkscape:export-filename="folder.png"
   inkscape:export-xdpi="90"
   inkscape:export-ydpi="90">
  <sodipodi:namedview
     pagecolor="#ffffff"
     bordercolor="#666666"
     borderopacity="1"
     objecttolerance="10"
     gridtolerance="10"
     guidetolerance="10"
     inkscape:pageopacity="0"
     inkscape:pageshadow="2"
     inkscape:window-width="1920"
     inkscape:window-height="1023"
     id="namedview46"
     showgrid="true"
     inkscape:snap-bbox="true"
     inkscape:bbox-paths="true"
     inkscape:bbox-nodes="true"
     inkscape:snap-bbox-edge-midpoints="true"
     inkscape:snap-bbox-midpoints="true"
     inkscape:snap-nodes="true"
     inkscape:object-paths="true"
     inkscape:snap-intersection-paths="true"
     inkscape:object-nodes="true"
     inkscape:snap-smooth-nodes="true"
     inkscape:snap-midpoints="true"
     inkscape:snap-object-midpoints="true"
     inkscape:snap-center="true"
     fit-margin-top="0"
     fit-margin-left="0"
     fit-margin-right="0"
     fit-margin-bottom="0"
     inkscape:zoom="14.75"
     inkscape:cx="30.51319"
     inkscape:cy="25.275399"
     inkscape:window-x="-10"
     inkscape:window-y="35"
     inkscape:window-maximized="1"
     inkscape:current-layer="g3045"
     showguides="true"
     inkscape:guide-bbox="true"
     inkscape:snap-page="true"
     inkscape:snap-global="true">
    <inkscape:grid
       type="xygrid"
       id="grid3023"
       empspacing="5"
       visible="true"
       enabled="true"
       snapvisiblegridlinesonly="true"
       originx="-80px"
       originy="-75px" />
  </sodipodi:namedview>
  <defs
     id="defs11">
    <linearGradient
       id="linearGradient3841-4-5">
      <stop
         style="stop-color:#a17c48;stop-opacity:1;"
         offset="0"
         id="stop3843-9-0" />
      <stop
         style="stop-color:#be965e;stop-opacity:1;"
         offset="1"
         id="stop3845-3-09" />
    </linearGradient>
    <linearGradient
       inkscape:collect="always"
       xlink:href="#linearGradient3969-5"
       id="linearGradient3918-4"
       gradientUnits="userSpaceOnUse"
       x1="29.875"
       y1="64.082283"
       x2="29.875"
       y2="12.082283" />
    <linearGradient
       id="linearGradient3969-5">
      <stop
         style="stop-color:#b3915e;stop-opacity:1;"
         offset="0"
         id="stop3971-0" />
      <stop
         id="stop3977-5"
         offset="0.08245245"
         style="stop-color:#caa36b;stop-opacity:1;" />
      <stop
         style="stop-color:#d0a973;stop-opacity:1;"
         offset="0.49040774"
         id="stop3979-9" />
      <stop
         id="stop3981-0"
         offset="0.51108748"
         style="stop-color:#c9a16b;stop-opacity:1;" />
      <stop
         style="stop-color:#c79e65;stop-opacity:1;"
         offset="1"
         id="stop3973-8" />
    </linearGradient>
    <linearGradient
       y2="32.976402"
       x2="77.278381"
       y1="48.976402"
       x1="77.278381"
       gradientTransform="translate(-33.625,-31.894117)"
       gradientUnits="userSpaceOnUse"
       id="linearGradient3100"
       xlink:href="#linearGradient3841-4-5"
       inkscape:collect="always" />
    <linearGradient
       id="linearGradient3841-4-6">
      <stop
         style="stop-color:#c68a35;stop-opacity:1;"
         offset="0"
         id="stop3843-9-6" />
      <stop
         style="stop-color:#d0933d;stop-opacity:1;"
         offset="1"
         id="stop3845-3-4" />
    </linearGradient>
    <linearGradient
       inkscape:collect="always"
       xlink:href="#linearGradient3969-2"
       id="linearGradient3918-5"
       gradientUnits="userSpaceOnUse"
       x1="29.875"
       y1="64.082283"
       x2="29.875"
       y2="12.082283" />
    <linearGradient
       id="linearGradient3969-2">
      <stop
         style="stop-color:#c1853b;stop-opacity:1"
         offset="0"
         id="stop3971-2" />
      <stop
         id="stop3977-6"
         offset="0.08245245"
         style="stop-color:#d89b45;stop-opacity:1" />
      <stop
         style="stop-color:#e7a953;stop-opacity:1"
         offset="1"
         id="stop3973-3" />
    </linearGradient>
    <linearGradient
       y2="32.976402"
       x2="77.278381"
       y1="48.976402"
       x1="77.278381"
       gradientTransform="translate(-33.625,-31.894117)"
       gradientUnits="userSpaceOnUse"
       id="linearGradient4207"
       xlink:href="#linearGradient3841-4-6"
       inkscape:collect="always" />
  </defs>
  <metadata
     id="metadata13099">
    <rdf:RDF>
      <cc:Work
         rdf:about="">
        <dc:format>image/svg+xml</dc:format>
        <dc:type
           rdf:resource="http://purl.org/dc/dcmitype/StillImage" />
        <dc:title />
      </cc:Work>
    </rdf:RDF>
  </metadata>
  <g
     id="g3043"
     inkscape:export-filename="folder.png"
     inkscape:export-xdpi="90"
     inkscape:export-ydpi="90"
     transform="translate(-0.62500009,0.08228278)" />
  <g
     id="g3045"
     inkscape:export-filename="folder.png"
     inkscape:export-xdpi="90"
     inkscape:export-ydpi="90"
     transform="translate(0.625,-0.082283)">
    <path
       style="fill:url(#linearGradient4207);fill-opacity:1;fill-rule:nonzero;stroke:none"
       d="m 2.375,6.082283 -10e-8,58.000001 57.0000001,-10e-7 4,-4 0,-59 -1,-1 -26,0 -5,4.9999999 -28,1e-7 z"
       id="path3833"
       inkscape:connector-curvature="0"
       sodipodi:nodetypes="cccccccccc" />
    <path
       style="color:#000000;fill:#ffe083;fill-opacity:0.58422941;fill-rule:nonzero;stroke:none;stroke-width:1;marker:none;visibility:visible;display:inline;overflow:visible;enable-background:accumulate"
       d="m 36.375,0.082283 -5,5 -28,0 -1,1 0,1 1,-1 28,0 5,-5 26,0 1,1 0,-1 -1,-1 -26,0 z"
       id="path3800"
       inkscape:connector-curvature="0" />
    <path
       sodipodi:nodetypes="cccccccc"
       id="path3802"
       d="m 57.375,13.082283 0,51 2,0 4,-4 0,-59 -1,-1 0,18 z"
       inkscape:connector-curvature="0"
       style="fill:#3e4959;fill-opacity:0.43171806" />
    <path
       sodipodi:nodetypes="ccccc"
       d="m 6.375,13.082283 51,0 0,31 -51,0 z"
       id="path3920"
       inkscape:connector-curvature="0"
       style="fill:#dcdcdc;fill-opacity:1;fill-rule:nonzero" />
    <path
       inkscape:connector-curvature="0"
       id="path4253"
       d="m 6.375,13.082283 51,0 0,1 -51,0 z"
       style="fill:#ffffff;fill-opacity:0.60159009;fill-rule:nonzero"
       sodipodi:nodetypes="ccccc" />
    <path
       style="color:#000000;fill:#3e4959;fill-opacity:0.22968199;fill-rule:nonzero;stroke-width:1;stroke-linecap:butt;stroke-linejoin:miter;stroke-miterlimit:4;stroke-opacity:1;stroke-dasharray:none;stroke-dashoffset:0;marker:none;visibility:visible;display:inline;overflow:visible;enable-background:accumulate"
       d="m 29.375,13.082283 4,4 2,0 -4,-4 z"
       id="path3982"
       inkscape:connector-curvature="0"
       sodipodi:nodetypes="ccccc" />
    <path
       id="path3916"
       d="m -0.625,13.082283 0,50 1,1 59,0 1,-1 0,-45 -1,-1 -26,1e-6 -5,-5 -28,-10e-7 z"
       inkscape:connector-curvature="0"
       style="fill:url(#linearGradient3918-5);fill-opacity:1;fill-rule:nonzero"
       sodipodi:nodetypes="ccccccccccc"
       inkscape:export-xdpi="90"
       inkscape:export-ydpi="90" />
    <path
       style="color:#000000;fill:#ffe083;fill-opacity:0.58422941;fill-rule:nonzero;stroke:none;stroke-width:1;marker:none;visibility:visible;display:inline;overflow:visible;enable-background:accumulate"
       d="m 0.375,12.082283 -1,1 0,1 1,-1 28,0 5,5 26,0 1,1 0,-1 -1,-1 -26,0 -5,-5 -28,0 z"
       id="path3046"
       inkscape:connector-curvature="0" />
    <path
       id="path3061"
       d="m 20.375,23.082283 c -8.836556,0 -16,7.163444 -16,16 0,8.836556 7.163444,16 16,16 8.836556,0 16,-7.163444 16,-16 0,-8.836556 -7.163444,-16 -16,-16 z m 0.25,4.5 c 0.4128,0.16218 0.8372,0.337528 1.25,0.5 0.0611,0.293528 -0.287728,0.767182 -0.375,1.125 -0.360872,0.666472 -0.1179,0.459318 0.3125,0.4375 0.502546,0.231128 -0.208264,0.69341 -0.4375,0.5625 -0.298472,-0.45949 -0.308554,-0.447764 -0.9375,-0.125 -0.575272,0.296436 -1.37671,0.24179 -1.625,0.9375 -0.17164,0.381818 -0.7325,0.74769 -0.8125,0.125 -0.10328,-0.357528 -0.625218,-0.803154 -0.125,-1.0625 0.3888,-0.281746 0.17822,-0.872 -0.25,-1 -0.23811,-0.243492 -1.023828,-0.381464 -0.4375,-0.6875 -0.233746,-0.0146 -0.857608,0.267364 -1.1875,0.375 -0.669528,-0.04946 0.375546,0.14536 0.625,0.125 0.225746,0.295272 0.404018,0.754318 0.875,0.8125 -0.459054,0.775564 -1.011228,-0.0144 -1.5625,-0.3125 -0.45891,-0.289454 -0.88151,0.13516 -1.125,0.5625 0.2464,-0.31869 0.784818,-0.32281 0.875,0.0625 0.07418,0.56829 -0.653036,0.1647 -0.875,-0.0625 -0.048,0.08582 -0.09736,0.16272 -0.125,0.25 -0.361018,0.373964 -0.750272,-0.0146 -0.375,-0.4375 0.348946,-0.261236 0.556772,-0.612464 0.4375,-1.0625 0.14996,-0.4384 0.337528,0.837574 0.5,-0.0625 0.453818,-0.05236 0.76709,-0.479636 1.25,-0.5 0.423128,-0.0146 0.588608,-0.456454 1.0625,-0.375 0.393454,0.05528 0.255764,0.25529 0.125,0.375 0.03928,-0.0146 0.03482,0.03636 0.125,0 0.909964,-0.29949 1.85919,-0.486864 2.8125,-0.5625 z m 5.4375,2.0625 0.0625,0 c 0.313744,0.12218 0.6624,0.273228 1,0.3125 0.472872,-0.0146 0.894944,0.248554 0.25,0.4375 -0.754618,-0.1411 -0.1646,0.259954 0.125,0.5625 0.361746,0.04364 0.518928,-1.12041 0.875,-0.4375 2.051056,1.895854 3.614544,4.4612 4,7.25 -0.441168,0.886836 -0.804582,-0.690246 -1.5,-0.3125 -0.321308,-0.15708 -0.60909,-0.850136 -0.5,-0.0625 -0.02618,0.3824 0.535064,0.581328 0.6875,0.875 0.346474,-0.763928 0.715182,0.05676 0.625,0.5625 -0.18444,0.446836 -0.666282,0.736872 -1.0625,1 -0.571782,0.410472 -0.902938,0.814328 0.125,0.5 0.0378,0.619346 -0.45031,1.171964 -0.625,1.75 -0.434328,0.371782 -0.6718,0.850056 -0.875,1.375 -0.03346,0.663418 -0.08592,1.351274 0.125,2 -0.11782,0.421528 -0.709672,0.614592 -1,0.9375 -0.689746,0.237674 0.544872,0.547336 0,0.8125 -0.561746,0.206544 -0.1461,0.645864 -0.5,0.9375 -0.317382,0.240872 -0.486444,0.809636 -0.9375,0.75 -0.462254,-0.13528 -0.724228,0.450682 -1.1875,0.3125 0.02036,-0.6992 -0.10912,-1.355928 -0.375,-2 -0.333534,-0.711856 -0.420748,-1.594538 -0.0625,-2.3125 0.10764,-0.37309 -0.420618,-0.698964 -0.25,-1.125 0.18778,-0.457308 -0.277544,-0.662546 -0.375,-1 0.17906,-0.405236 0.245092,-0.7953 -0.1875,-1.0625 -0.44931,0.19506 -0.7537,-0.374018 -1.0625,-0.125 -0.386892,0.5728 -0.546272,-0.250654 -0.875,0.25 -0.586472,0.578182 -1.247982,-0.9735 -1.625,-1.4375 -0.08582,-0.368 -0.588374,-0.742646 -0.1875,-1.0625 0.491346,-0.341672 -0.203918,-0.5391 0.1875,-0.9375 0.26749,-0.946182 1.066264,-1.649472 1.6875,-2.375 0.723782,-0.1949 1.460954,-0.445436 2.1875,-0.125 0.293964,0.249746 0.584674,0.677228 0.875,0.8125 0.18822,-0.392146 0.710354,-0.422654 1.0625,-0.25 0.366982,0.10764 0.875064,0.294108 1.1875,0 0.394764,-0.2432 0.578036,-0.630728 0,-0.75 -0.773818,0.312728 -0.890156,-0.933464 -1.4375,-0.6875 -0.02764,0.528728 -0.211082,0.850872 -0.5625,0.25 -0.06982,-0.400728 -0.19372,-0.799318 -0.625,-0.9375 -0.302838,0.08436 0.664436,0.529546 0.1875,0.875 -0.493382,0.506328 -0.268864,-0.0568 -0.3125,-0.3125 -0.419792,-0.05236 -0.489498,-0.751928 -0.9375,-0.5 -0.44931,-0.0146 -0.465546,0.443228 -0.875,0.5625 -0.07128,0.457454 -0.374972,0.688864 -0.8125,0.8125 -0.268364,-0.368872 -0.733264,-0.1609 -0.5625,-0.75 -0.15244,-0.472872 0.435918,-0.707818 0.8125,-0.75 0.587782,0.10036 0.02482,-0.630728 -0.125,-0.75 0.416,-0.02764 0.738372,-0.17864 0.9375,-0.5625 -0.02328,-0.617454 0.8954,-0.16798 0.625,-0.625 0.13092,-0.575854 0.2295,-0.11496 0.4375,0.0625 0.434764,0.247708 0.76141,0.0144 1.0625,-0.3125 0.048,-0.32349 0.902626,-0.75 0.6875,-0.75 -0.744,0.372218 -0.545954,-0.518492 -0.3125,-0.875 -0.376436,-0.03346 -0.633738,0.331764 -0.8125,0.625 0.10472,0.287272 0.09016,0.909818 -0.1875,1 -0.38314,-0.07272 -0.574736,-0.794536 -0.9375,-0.3125 -0.3392,0.42589 -0.388136,-0.5916 -0.3125,-0.75 0.2816,-0.26851 0.933228,-0.32261 0.8125,-0.8125 0.389964,-0.3408 0.881472,-0.459228 1.375,-0.5625 z m -12.75,0.3125 c 0.440436,-0.0349 0.755664,0.16348 0.5625,0.625 -0.332218,0.594472 -1.046864,0.8099 -1.5625,1.1875 0,0.506036 0.427918,0.595672 0.8125,0.75 0.312,0.20029 0.17684,1.031818 0.4375,0.25 0.11782,-0.433746 0.775254,-0.28421 0.625,-0.8125 0.232872,-0.275782 0.383846,-1.025336 0.8125,-0.5625 0.543128,0.10036 -0.0422,0.8166 0.625,0.375 0.5088,-0.10036 0.08298,0.777636 0.5,0.75 0.5248,0.13818 0.03058,0.687408 0.5625,0.8125 -0.274182,0.624872 -0.383682,0.34792 -0.4375,-0.1875 -0.393164,0.152 -0.759572,0.306728 -1.1875,0.25 -0.28931,0.1584 -1.145472,0.455 -0.375,0.375 0.389818,0.016 1.107372,-0.1367 0.5625,0.375 -0.17352,0.505456 -0.956418,0.11344 -1.125,0.625 -0.12072,0.489746 -0.854592,0.265782 -0.9375,0.75 -0.08436,0.46211 -0.398146,0.732946 -0.75,1 -0.460946,0.232436 -0.26591,0.833418 -0.375,1.25 -0.260946,-0.291636 -0.416092,-0.773272 -0.875,-0.75 -0.365236,-0.05528 -0.512436,0.388136 -1,0.3125 -0.364218,0.245964 -0.744228,0.5088 -0.6875,1 -0.08,0.408582 0.1148,0.875 0.5625,0.875 0.367272,-0.246982 1.071264,-1.069672 0.8125,0 -0.544436,0.980654 0.801964,0.04212 0.5,0.875 -0.10328,0.600436 0.755736,1.096464 1.0625,0.5625 0.326982,-0.217164 0.580118,-0.796718 0.9375,-0.3125 0.315636,0.376146 0.815528,0.332764 1.25,0.25 0.336872,0.032 0.306982,0.605182 0.5,0.875 0.457164,0.03492 0.761546,0.272618 0.875,0.75 0.578036,0.6096 1.519382,0.798074 2.25,1.25 -0.05092,0.400728 0.0146,0.829726 -0.3125,1.125 -0.4336,0.361746 -0.1875,0.955756 -0.1875,1.4375 -0.202764,0.329746 -0.17856,0.912818 -0.6875,0.875 -0.398836,-0.0146 -0.765454,0.476646 -0.5,0.8125 -0.18182,0.363928 -0.256218,0.826964 -0.5,1.125 -0.525528,0.0013 -0.561982,0.5309 -0.875,0.8125 -0.0829,0.976728 -1.20149,0.0146 -1.75,-0.375 0.03054,-0.41149 0.17582,-0.830944 0.25,-1.25 -0.204656,-0.372944 -0.327092,-0.762192 -0.25,-1.1875 0.144,-0.525236 -0.255836,-0.877244 -0.625,-1.1875 -0.526836,-0.329018 -0.715928,-0.976072 -1,-1.5 -0.335564,-0.357382 -0.2129,-0.712056 -0.0625,-1.125 -0.17934,-0.364218 0.276136,-0.621236 0.3125,-1 0.10036,-0.299928 0.459,-0.933182 -0.125,-0.875 -0.4032,0.13964 -0.71811,-0.331664 -1,-0.5625 -0.25251,-0.547782 -0.924674,-0.425972 -1.375,-0.6875 -0.529892,-0.278546 -1.020954,-0.559282 -1.1875,-1.1875 0.314036,-2.679854 1.454754,-5.220664 3.3125,-7.1875 0.3776,-0.832728 1.454236,-0.718282 1.625,-1.5625 z m 9.1875,1 c 0.442036,-0.12946 0.393918,0.34689 0.5625,0.625 0.250182,0.418618 0.621818,0.680872 0,1 -0.5984,0.279564 -0.508818,-0.0828 -0.375,-0.5625 0.15054,-0.437528 -0.264592,-0.652172 -0.1875,-1.0625 z m -0.6875,0.625 c 0.04364,-0.0146 0.06246,0.0436 0.125,0.0625 0.07128,0.303564 0.391464,0.4505 -0.0625,0.5625 -0.271418,0.238982 -0.368828,-0.527546 -0.0625,-0.625 z m 6.4375,5.625 c -0.267636,0.14254 -0.08868,0.405072 -0.0625,0.625 0.257018,0.661528 0.813864,1.180118 0.9375,1.9375 -0.168,0.575854 1.0921,0.950418 0.5625,0.375 -0.250472,-0.306618 0.251718,-0.68819 -0.3125,-0.9375 -0.379782,-0.664292 -0.531254,-1.47331 -1.125,-2 z"
       style="color:#000000;fill:#7a4800;fill-opacity:0.27240145999999998;fill-rule:nonzero;stroke:none;stroke-width:1;marker:none;visibility:visible;display:inline;overflow:visible;enable-background:accumulate"
       inkscape:connector-curvature="0" />
    <path
       style="color:#000000;fill:#181818;fill-opacity:0.09229389000000000;fill-rule:nonzero;stroke:none;stroke-width:1;marker:none;visibility:visible;display:inline;overflow:visible;enable-background:accumulate"
       d="m 20.375,23.082283 c -8.836556,0 -16,7.163444 -16,16 0,4.674621 2.022166,8.855882 5.21875,11.78125 -2.6045294,-2.846 -4.21875,-6.619315 -4.21875,-10.78125 0,-8.836556 7.163444,-16 16,-16 4.161935,0 7.93525,1.614221 10.78125,4.21875 -2.925368,-3.196584 -7.106629,-5.21875 -11.78125,-5.21875 z m 1.375,5.5625 c -0.08786,0.191514 -0.208315,0.391589 -0.25,0.5625 -0.360872,0.666472 -0.1179,0.459318 0.3125,0.4375 0.502546,0.231128 -0.208264,0.69341 -0.4375,0.5625 -0.298472,-0.45949 -0.308554,-0.447764 -0.9375,-0.125 -0.444421,0.229009 -1.019935,0.244719 -1.375,0.5625 0.01185,0.162092 -0.03198,0.324802 -0.1875,0.4375 -0.06253,0.03242 -0.122851,0.05605 -0.15625,0.09375 -0.233793,0.263925 0.19088,0.655913 0.28125,0.96875 0.08,0.62269 0.64086,0.256818 0.8125,-0.125 0.24829,-0.69571 1.049728,-0.641064 1.625,-0.9375 0.628946,-0.322764 0.639028,-0.33449 0.9375,0.125 0.03582,0.02045 0.103383,0.0054 0.15625,0 -0.01994,-0.07655 -0.04841,-0.158677 -0.03125,-0.25 0.19676,-0.05763 0.278882,0.01347 0.34375,0.125 0.167146,-0.12977 0.238374,-0.313496 -0.03125,-0.4375 -0.4304,0.02182 -0.673372,0.228972 -0.3125,-0.4375 0.08727,-0.357818 0.4361,-0.831472 0.375,-1.125 -0.370097,-0.145665 -0.752974,-0.289905 -1.125,-0.4375 z m -4.09375,0.46875 c -0.05014,0.01584 -0.09776,0.02923 -0.15625,0.03125 -0.215259,0.0091 -0.387181,0.117215 -0.5625,0.21875 0.104745,0.133781 0.240645,0.219803 0.40625,0.28125 0.23561,-0.08995 0.465395,-0.175676 0.65625,-0.21875 -0.06969,-0.143638 -0.186763,-0.252624 -0.34375,-0.3125 z m 0.375,0.375 c -0.0911,0.08943 -0.05812,0.180184 0.03125,0.25 0.0082,-0.08339 -0.0018,-0.16853 -0.03125,-0.25 z m -2.21875,0.125 c -0.0198,0.0088 -0.04376,0.03895 -0.0625,0.09375 0.119272,0.450036 -0.08855,0.801264 -0.4375,1.0625 -0.375272,0.4229 0.01398,0.811464 0.375,0.4375 0.02764,-0.08728 0.077,-0.16418 0.125,-0.25 0.24349,-0.42734 0.66609,-0.851954 1.125,-0.5625 0.344545,0.186313 0.677705,0.556712 1,0.625 -0.145451,-0.302697 -0.440325,-0.64313 -0.15625,-0.875 -0.05406,-0.08289 -0.10146,-0.178336 -0.15625,-0.25 -0.04765,0.0039 -0.161789,-0.02264 -0.25,-0.03125 -0.331316,0.362654 -0.711596,0.07067 -1.09375,-0.21875 -0.01027,0.0016 -0.02084,-0.0012 -0.03125,0 -0.142163,0.787565 -0.298916,-0.09302 -0.4375,-0.03125 z m 0,1.34375 c 0.221964,0.2272 0.94918,0.63079 0.875,0.0625 -0.09018,-0.38531 -0.6286,-0.38119 -0.875,-0.0625 z m 11.375,-0.28125 c 0.101547,0.09778 0.217572,0.182078 0.3125,0.28125 0.06783,0.0082 0.131397,-0.03715 0.1875,-0.09375 -0.169646,-0.05501 -0.340601,-0.12469 -0.5,-0.1875 z m -12.875,0.28125 c -0.158682,0.784486 -1.095912,0.748126 -1.53125,1.40625 0.112509,0.04904 0.225798,0.108917 0.34375,0.15625 0.0884,0.05675 0.15172,0.142956 0.1875,0.25 0.121188,-0.08875 0.270625,-0.140894 0.40625,-0.21875 0.03537,-0.02786 0.05409,-0.07216 0.09375,-0.09375 0.07484,-0.04225 0.144342,-0.08159 0.21875,-0.125 0.117002,-0.07562 0.21783,-0.158488 0.15625,-0.375 0.220092,-0.260648 0.372651,-0.941471 0.75,-0.625 0.0028,-0.28449 -0.273498,-0.402853 -0.625,-0.375 z m 11.625,0.09375 c -0.08209,0.05069 -0.174755,0.09049 -0.25,0.15625 0.07002,0.284136 -0.117024,0.444701 -0.34375,0.5625 -0.03667,0.146523 -0.11,0.277179 -0.21875,0.3125 -0.07318,-0.01389 -0.125765,-0.07666 -0.1875,-0.125 -0.02407,0.01758 -0.04193,0.04289 -0.0625,0.0625 -0.02929,0.06135 -0.0177,0.252188 0,0.4375 0.342779,0.09416 0.619488,-0.09758 0.875,-0.375 0.048,-0.32349 0.902626,-0.75 0.6875,-0.75 -0.434838,0.217546 -0.527747,0.0052 -0.5,-0.28125 z m 3.21875,0.25 c 1.663111,1.793977 2.883518,4.043324 3.21875,6.46875 -0.441168,0.886836 -0.804582,-0.690246 -1.5,-0.3125 -0.321308,-0.15708 -0.60909,-0.850136 -0.5,-0.0625 -0.02618,0.3824 0.535064,0.581328 0.6875,0.875 0.205274,-0.452601 0.410424,-0.327307 0.53125,-0.0625 0.0862,0.09677 0.174147,0.19764 0.28125,0.25 0.695418,-0.377746 1.058832,1.199336 1.5,0.3125 -0.385456,-2.7888 -1.948944,-5.354146 -4,-7.25 -0.07854,-0.150642 -0.15523,-0.215064 -0.21875,-0.21875 z m -5.5,0.625 c -0.04132,-0.0012 -0.100995,0.01507 -0.15625,0.03125 -0.05571,0.296504 0.159578,0.49992 0.21875,0.75 0.09039,-0.08446 0.221361,-0.11171 0.34375,-0.125 -0.147509,-0.243346 -0.117026,-0.647999 -0.40625,-0.65625 z m -7.71875,0.40625 c 0.02083,0.106543 0.06036,0.195926 0.1875,0.1875 0.03846,0.01012 0.06543,0.01704 0.09375,0.03125 -0.03193,-0.07436 -0.08297,-0.13116 -0.21875,-0.15625 -0.02352,-0.0254 -0.04059,-0.04412 -0.0625,-0.0625 z m 6.96875,0.28125 c -0.06271,0.01978 -0.146703,0.06369 -0.1875,0.0625 -0.161819,0.221423 -0.07446,0.734385 0.15625,0.53125 0.453964,-0.112 0.13378,-0.258936 0.0625,-0.5625 -0.01876,-0.0057 -0.01851,-0.02153 -0.03125,-0.03125 z m -6.28125,0.15625 c -0.120096,0.07949 -0.165932,0.110196 -0.21875,0.125 0.01,0.180485 -0.0011,0.371105 0.28125,0.4375 -0.274182,0.624872 -0.383682,0.34792 -0.4375,-0.1875 -0.393164,0.152 -0.759572,0.306728 -1.1875,0.25 -0.09229,0.05053 -0.238546,0.125554 -0.375,0.1875 -0.05402,0.04957 -0.102025,0.10292 -0.125,0.1875 0.04671,-9.83e-4 0.04795,0.008 0.125,0 0.389818,0.016 1.107372,-0.1367 0.5625,0.375 -0.17352,0.505456 -0.956418,0.11344 -1.125,0.625 -0.12072,0.489746 -0.854592,0.265782 -0.9375,0.75 -0.08436,0.46211 -0.398146,0.732946 -0.75,1 -0.460946,0.232436 -0.26591,0.833418 -0.375,1.25 -0.260946,-0.291636 -0.416092,-0.773272 -0.875,-0.75 -0.365236,-0.05528 -0.512436,0.388136 -1,0.3125 -0.143086,0.09663 -0.2857277,0.19784 -0.40625,0.3125 -0.1014668,0.353406 -0.178828,0.700698 -0.25,1.0625 0.00218,0.0099 -0.00252,0.02153 0,0.03125 0.067178,0.259259 0.2327833,0.46875 0.53125,0.46875 0.174206,-0.11715 0.437955,-0.355931 0.625,-0.46875 0.01013,-0.0061 0.02152,-0.02597 0.03125,-0.03125 0.130619,-0.142638 0.299649,-0.260802 0.46875,-0.375 0.487564,0.07564 0.634764,-0.36778 1,-0.3125 0.458908,-0.02327 0.614054,0.458364 0.875,0.75 0.10909,-0.416582 -0.08595,-1.017564 0.375,-1.25 0.351854,-0.267054 0.66564,-0.53789 0.75,-1 0.08291,-0.484218 0.81678,-0.260254 0.9375,-0.75 0.168582,-0.51156 0.95148,-0.119544 1.125,-0.625 0.544872,-0.5117 -0.172682,-0.359 -0.5625,-0.375 -0.770472,0.08 0.08569,-0.2166 0.375,-0.375 0.427928,0.05673 0.794336,-0.098 1.1875,-0.25 0.05382,0.53542 0.163318,0.812372 0.4375,0.1875 -0.53192,-0.125092 -0.0377,-0.67432 -0.5625,-0.8125 -0.41702,0.02764 0.0088,-0.85036 -0.5,-0.75 z m 7.78125,1.5625 c -0.0456,0.0049 -0.10025,0.03101 -0.15625,0.0625 -0.05022,-0.0016 -0.08445,0.02221 -0.125,0.03125 -0.04633,0.01904 -0.106073,0.04936 -0.15625,0.0625 -0.0068,0.0046 -0.02465,-0.0049 -0.03125,0 -0.06285,0.04666 -0.103244,0.09454 -0.15625,0.15625 0.203266,0.233549 0.525083,0.709319 0.03125,0.625 -0.347614,0.03894 -0.884465,0.253294 -0.84375,0.65625 0.545601,-0.147441 1.110062,-0.261442 1.65625,-0.09375 0.184364,-0.165805 0.279654,-0.414393 0.5625,-0.4375 -0.05851,-0.06384 0.02727,-0.340188 0,-0.5 -0.367318,-0.04581 -0.462042,-0.596655 -0.78125,-0.5625 z m 0.90625,0 c -0.302838,0.08436 0.664436,0.529546 0.1875,0.875 -0.123345,0.126582 -0.200985,0.173086 -0.25,0.1875 0.448002,-0.251928 0.517708,0.44764 0.9375,0.5 0.02454,0.143831 -0.03035,0.37543 0,0.46875 0.03,-0.0042 0.06319,0.0011 0.09375,0 0.04951,-0.02367 0.112673,-0.04739 0.21875,-0.15625 0.311411,-0.225561 0.0082,-0.473856 -0.15625,-0.65625 -0.0937,0.09356 -0.219938,0.03732 -0.40625,-0.28125 -0.06982,-0.400728 -0.19372,-0.799318 -0.625,-0.9375 z m 1.375,0.65625 c -0.05708,-0.0099 -0.119082,5.04e-4 -0.1875,0.03125 -0.0077,0.148135 -0.03003,0.275053 -0.0625,0.375 0.327688,0.170854 0.437755,0.517747 0.5,0.875 0.08785,0.150218 0.151702,0.235215 0.21875,0.28125 0.03352,0.02302 0.06536,0.03008 0.09375,0.03125 0.141967,0.0058 0.232725,-0.232045 0.25,-0.5625 0.259308,-0.116527 0.412175,0.11489 0.59375,0.34375 0.2752,-0.236305 0.337971,-0.554272 -0.15625,-0.65625 -0.677091,0.273637 -0.850475,-0.649273 -1.25,-0.71875 z m 1.4375,2.5625 c 0.02093,0.09201 0.05193,0.192433 0.0625,0.28125 0.257018,0.661528 0.813864,1.180118 0.9375,1.9375 -0.168,0.575854 1.0921,0.950418 0.5625,0.375 -0.117529,-0.143875 -0.05722,-0.313277 -0.03125,-0.46875 -0.0046,-0.0075 0.0046,-0.02378 0,-0.03125 -0.088,-0.14147 -0.169015,-0.293799 -0.25,-0.4375 -0.0024,-0.0043 -0.02885,0.0043 -0.03125,0 -0.03389,-0.05928 -0.06302,-0.12622 -0.09375,-0.1875 -0.03047,-0.06282 -0.0684,-0.122263 -0.09375,-0.1875 -0.0022,-0.01861 0.004,-0.04338 0,-0.0625 -0.01494,-0.03347 -0.04791,-0.06006 -0.0625,-0.09375 -0.162814,-0.375863 -0.302938,-0.759974 -0.53125,-1.09375 -0.158219,0.02097 -0.302271,0.01008 -0.46875,-0.03125 z m 3.53125,1.3125 c -0.195673,0.424851 -0.646685,0.713361 -1.03125,0.96875 -0.12198,0.08757 -0.223281,0.169943 -0.3125,0.25 0.02112,0.04045 0.03991,0.08548 0.0625,0.125 0.110023,0.04862 0.17634,0.09911 0.21875,0.15625 0.06096,-0.01556 0.08126,-0.0083 0.15625,-0.03125 0.0131,0.214696 -0.04667,0.422503 -0.125,0.625 0.002,0.02047 -0.0057,0.04237 0,0.0625 0.01134,0.04027 0.03119,0.08667 0.0625,0.125 0.290112,0.315211 0.03629,0.350607 -0.21875,0.21875 -0.120277,0.237299 -0.271378,0.479278 -0.34375,0.71875 -0.434328,0.371782 -0.6718,0.850056 -0.875,1.375 -0.03346,0.663418 -0.08592,1.351274 0.125,2 -0.11782,0.421528 -0.709672,0.614592 -1,0.9375 -0.689746,0.237674 0.544872,0.547336 0,0.8125 -0.561746,0.206544 -0.1461,0.645864 -0.5,0.9375 -0.317382,0.240872 -0.486444,0.809636 -0.9375,0.75 -0.125375,-0.03669 -0.239829,-0.04058 -0.34375,0 0.109916,0.427181 0.169497,0.857572 0.15625,1.3125 0.463272,0.138182 0.725246,-0.44778 1.1875,-0.3125 0.451056,0.05964 0.620118,-0.509128 0.9375,-0.75 0.3539,-0.291636 -0.06175,-0.730956 0.5,-0.9375 0.544872,-0.265164 -0.689746,-0.574826 0,-0.8125 0.290328,-0.322908 0.88218,-0.515972 1,-0.9375 -0.21092,-0.648726 -0.15846,-1.336582 -0.125,-2 0.2032,-0.524944 0.440672,-1.003218 0.875,-1.375 0.17469,-0.578036 0.6628,-1.130654 0.625,-1.75 -1.027938,0.314328 -0.696782,-0.08953 -0.125,-0.5 0.396218,-0.263128 0.87806,-0.553164 1.0625,-1 0.09018,-0.50574 -0.278526,-1.326428 -0.625,-0.5625 -0.07622,-0.146836 -0.250157,-0.272009 -0.40625,-0.40625 z m -19.8125,0.8125 c -0.101041,9.1e-4 -0.273826,0.144828 -0.4375,0.28125 -2.06e-4,0.0012 -0.03103,-0.0012 -0.03125,0 -0.0069,0.0387 0.01858,0.07375 0,0.125 -0.09478,0.55101 0.613221,0.996402 0.96875,0.65625 -0.225763,-0.133377 -0.877077,0.20424 -0.46875,-0.53125 0.09704,-0.401127 0.07396,-0.532198 -0.03125,-0.53125 z m -2.40625,0.125 c 0.1930073,0.549863 0.628065,0.832528 1.125,1.09375 0.450326,0.261528 1.12249,0.139718 1.375,0.6875 0.06546,0.05361 0.149032,0.118618 0.21875,0.1875 0.120737,-0.308486 0.23385,-0.670091 -0.21875,-0.625 -0.4032,0.13964 -0.71811,-0.331664 -1,-0.5625 -0.25251,-0.547782 -0.924674,-0.425972 -1.375,-0.6875 -0.047361,-0.0249 -0.078463,-0.06857 -0.125,-0.09375 z m 14.125,1.71875 c -0.03875,0.0087 -0.0864,0.03137 -0.125,0.0625 -0.386892,0.5728 -0.546272,-0.250654 -0.875,0.25 -0.09384,0.09251 -0.185045,0.128361 -0.28125,0.125 0.373234,0.606232 0.839548,1.310458 1.28125,0.875 0.328728,-0.500654 0.488108,0.3228 0.875,-0.25 0.105753,-0.08528 0.201783,-0.07432 0.3125,-0.03125 0.105638,-0.327529 0.107186,-0.623126 -0.25,-0.84375 -0.393146,0.170677 -0.666223,-0.248064 -0.9375,-0.1875 z m -8,0.0625 c 0.214608,0.119549 0.365795,0.323284 0.4375,0.625 -0.08881,-0.276537 -0.122346,-0.601 -0.375,-0.625 -0.01912,0.0036 -0.04315,-0.0035 -0.0625,0 z m 2.625,2.375 c -0.02502,0.228774 -0.06091,0.454307 -0.25,0.625 -0.4336,0.361746 -0.1875,0.955756 -0.1875,1.4375 -0.202764,0.329746 -0.17856,0.912818 -0.6875,0.875 -0.398836,-0.0146 -0.765454,0.476646 -0.5,0.8125 -0.18182,0.363928 -0.256218,0.826964 -0.5,1.125 -0.525528,0.0013 -0.561982,0.5309 -0.875,0.8125 -0.04145,0.488364 -0.328926,0.479641 -0.6875,0.3125 -0.01928,0.104504 -0.05481,0.208873 -0.0625,0.3125 0.54851,0.3896 1.6671,1.351728 1.75,0.375 0.313018,-0.2816 0.349472,-0.8112 0.875,-0.8125 0.243782,-0.298036 0.31818,-0.761072 0.5,-1.125 -0.265454,-0.335854 0.101164,-0.8271 0.5,-0.8125 0.50894,0.03782 0.484736,-0.545254 0.6875,-0.875 0,-0.481744 -0.2461,-1.075754 0.1875,-1.4375 0.3271,-0.295274 0.26158,-0.724272 0.3125,-1.125 -0.32577,-0.201506 -0.703827,-0.342563 -1.0625,-0.5 z"
       id="path3017"
       inkscape:connector-curvature="0" />
    <path
       style="fill:#ffe083;fill-opacity:0.58422940999999995;stroke:none;color:#000000;fill-rule:nonzero;stroke-width:1;stroke-linecap:butt;stroke-linejoin:miter;stroke-miterlimit:4;stroke-opacity:1;stroke-dasharray:none;stroke-dashoffset:0;marker:none;visibility:visible;display:inline;overflow:visible;enable-background:accumulate"
       d="M 21.25 27.5 C 20.29669 27.575636 19.347464 27.76301 18.4375 28.0625 C 18.39241 28.08068 18.358818 28.06887 18.34375 28.0625 C 18.468723 27.941739 18.56456 27.740477 18.1875 27.6875 C 17.713608 27.606046 17.548128 28.0479 17.125 28.0625 C 16.64209 28.082864 16.328818 28.51014 15.875 28.5625 C 15.712528 29.462574 15.52496 28.1866 15.375 28.625 C 15.494272 29.075036 15.286446 29.426264 14.9375 29.6875 C 14.562228 30.1104 14.951482 30.498964 15.3125 30.125 C 15.34014 30.03772 15.3895 29.96082 15.4375 29.875 C 15.68099 29.44766 16.10359 29.023046 16.5625 29.3125 C 16.681023 29.376591 16.788578 29.473383 16.90625 29.5625 C 17.144029 29.525762 17.353531 29.402273 17.5625 29.28125 C 17.444144 29.130085 17.354789 28.949563 17.25 28.8125 C 17.000546 28.83286 15.955472 28.63804 16.625 28.6875 C 16.954892 28.579864 17.578754 28.2979 17.8125 28.3125 C 17.226172 28.618536 18.01189 28.756508 18.25 29 C 18.264139 29.004226 18.267599 29.026043 18.28125 29.03125 C 18.593823 28.932527 18.779117 28.617306 19.1875 28.6875 C 19.56456 28.740477 19.468723 28.941739 19.34375 29.0625 C 19.358818 29.06887 19.39241 29.08068 19.4375 29.0625 C 20.347464 28.76301 21.29669 28.575636 22.25 28.5 C 22.289145 28.515379 22.335666 28.515656 22.375 28.53125 C 22.465478 28.331418 22.53055 28.146764 22.5 28 C 22.0872 27.837528 21.6628 27.66218 21.25 27.5 z M 15.4375 29.875 C 15.659464 30.1022 16.38668 30.50579 16.3125 29.9375 C 16.222318 29.55219 15.6839 29.55631 15.4375 29.875 z M 32.78125 28.21875 C 35.385779 31.06475 37 34.838065 37 39 C 37 47.836556 29.836556 55 21 55 C 16.838065 55 13.06475 53.385779 10.21875 50.78125 C 13.144118 53.977834 17.325379 56 22 56 C 30.836556 56 38 48.836556 38 40 C 38 35.325379 35.977834 31.144118 32.78125 28.21875 z M 18.8125 29.3125 C 18.768448 29.309748 18.692185 29.328587 18.625 29.34375 C 18.634956 29.36427 18.648563 29.385005 18.65625 29.40625 C 18.690414 29.372713 18.739209 29.350755 18.8125 29.3125 z M 17.96875 29.5625 C 17.847211 29.608899 17.716106 29.657774 17.625 29.6875 C 17.083359 29.647487 17.626399 29.744781 18 29.78125 C 18.04117 29.736186 18.08517 29.692292 18.125 29.625 C 18.066127 29.617727 18.01914 29.581197 17.96875 29.5625 z M 26.6875 29.5625 C 26.193972 29.665772 25.702464 29.7842 25.3125 30.125 C 25.433228 30.61489 24.7816 30.66899 24.5 30.9375 C 24.424364 31.0959 24.4733 32.11339 24.8125 31.6875 C 25.105972 31.297538 25.301035 31.670258 25.5625 31.875 C 25.676845 31.791499 25.833118 31.757969 25.96875 31.6875 C 26.025707 31.459921 26.001205 31.174757 25.9375 31 C 26.116262 30.706764 26.373564 30.34154 26.75 30.375 C 26.65299 30.523144 26.582228 30.76507 26.5625 30.96875 C 26.905854 30.756739 27.2892 30.645845 27.6875 30.5625 L 27.75 30.5625 C 27.770415 30.57045 27.791802 30.585594 27.8125 30.59375 C 27.604255 30.393238 27.492739 30.217651 28 30.3125 C 28.644944 30.123554 28.222872 29.8604 27.75 29.875 C 27.4124 29.835728 27.063744 29.68468 26.75 29.5625 L 26.6875 29.5625 z M 18.6875 29.65625 C 18.674655 29.786531 18.62636 29.908433 18.5 30 C 18.46138 30.020023 18.433347 30.040382 18.40625 30.0625 C 18.57493 30.321123 18.768328 30.580939 19.125 30.625 C 18.952855 30.915837 18.755877 30.978473 18.5625 30.9375 C 18.582879 30.97991 18.613288 31.021956 18.625 31.0625 C 18.694231 31.601366 19.118176 31.405202 19.34375 31.09375 C 19.378839 31.045302 19.414395 30.988899 19.4375 30.9375 C 19.493976 30.779254 19.582958 30.656064 19.6875 30.5625 C 19.669725 30.319362 19.506932 30.0768 19.25 30 C 19.121024 29.868109 18.832732 29.769702 18.6875 29.65625 z M 13.9375 29.875 C 13.766736 30.719218 12.6901 30.604772 12.3125 31.4375 C 10.454754 33.404336 9.314036 35.945146 9 38.625 C 9.1516604 39.197069 9.5883678 39.462232 10.0625 39.71875 C 10.0497 39.682283 10.010358 39.664072 10 39.625 C 10.038057 39.300237 10.094106 38.976155 10.15625 38.65625 C 10.153731 38.646528 10.158434 38.63486 10.15625 38.625 C 10.129308 38.503391 10.100333 38.375979 10.125 38.25 C 10.090558 37.951771 10.219988 37.739702 10.40625 37.5625 C 10.9522 35.660969 11.941734 33.88876 13.3125 32.4375 C 13.339217 32.378581 13.373102 32.331361 13.40625 32.28125 C 13.151923 32.170392 12.9375 32.038334 12.9375 31.6875 C 13.453136 31.3099 14.167782 31.094472 14.5 30.5 C 14.693164 30.03848 14.377936 29.8401 13.9375 29.875 z M 28.75 30.21875 C 28.591463 30.246681 28.48081 30.611457 28.3125 30.78125 C 28.459367 30.828877 28.603541 30.857963 28.75 30.875 C 29.222872 30.8604 29.644944 31.123554 29 31.3125 C 28.245382 31.1714 28.8354 31.572454 29.125 31.875 C 29.39631 31.90773 29.538618 31.255991 29.75 31.21875 C 29.505211 30.955482 29.262162 30.679824 29 30.4375 C 28.910982 30.266773 28.820461 30.206336 28.75 30.21875 z M 23.46875 31 C 23.373035 31.074312 23.260202 31.114451 23.15625 31.125 C 23.225914 31.392406 23.429536 31.597349 23.3125 31.9375 C 23.212136 32.297275 23.122768 32.58729 23.34375 32.59375 C 23.372306 32.554675 23.391551 32.514618 23.4375 32.5 C 23.468048 32.48978 23.501516 32.508576 23.53125 32.53125 C 23.58177 32.515312 23.620755 32.531182 23.6875 32.5 C 24.309318 32.180872 23.937682 31.918618 23.6875 31.5 C 23.593958 31.345683 23.549613 31.139024 23.46875 31 z M 15.5625 31.25 C 15.561798 31.321979 15.539004 31.406808 15.5 31.5 C 15.310282 31.839483 14.987117 32.056949 14.65625 32.25 C 14.581842 32.293415 14.512339 32.332747 14.4375 32.375 C 14.397839 32.396592 14.379122 32.440892 14.34375 32.46875 C 14.275953 32.522144 14.214599 32.587738 14.1875 32.6875 C 14.089752 32.980682 14.062127 33.042205 14.03125 33 C 14.175058 33.230252 14.469576 33.324969 14.75 33.4375 C 15.062 33.63779 14.92684 34.469318 15.1875 33.6875 C 14.916129 33.69321 15.06398 33.61282 15.3125 33.5 C 15.535516 33.295353 15.933454 33.300273 15.8125 32.875 C 16.032592 32.614352 16.185151 31.933529 16.5625 32.25 C 16.515017 32.007082 16.603678 31.617738 16.25 31.6875 C 15.5828 32.1291 16.168128 31.41286 15.625 31.3125 C 15.601476 31.2871 15.584411 31.268376 15.5625 31.25 z M 14.03125 33 C 14.020958 32.985932 14.009448 32.971298 14 32.9375 C 14.010585 32.962135 14.017659 32.97824 14.03125 33 z M 27.75 31.375 C 27.373564 31.34154 27.116262 31.706764 26.9375 32 C 27.04222 32.287272 27.02766 32.909818 26.75 33 C 26.36686 32.92728 26.175264 32.205464 25.8125 32.6875 C 25.60467 32.948445 25.528007 32.668166 25.5 32.375 C 25.438856 32.358204 25.378313 32.349997 25.3125 32.3125 C 25.1045 32.13504 25.00592 31.674146 24.875 32.25 C 25.000736 32.462514 24.861717 32.481082 24.6875 32.5 C 24.937682 32.918618 25.309318 33.180872 24.6875 33.5 C 24.0891 33.779564 24.178682 33.4172 24.3125 32.9375 C 24.350135 32.828118 24.360294 32.744312 24.34375 32.65625 C 24.295931 32.710013 24.245635 32.759227 24.25 32.875 C 24.050872 33.25886 23.7285 33.40986 23.3125 33.4375 C 23.46232 33.556772 24.025282 34.28786 23.4375 34.1875 C 23.060918 34.229682 22.47256 34.464628 22.625 34.9375 C 22.454236 35.5266 22.919136 35.318628 23.1875 35.6875 C 23.625028 35.563864 23.92872 35.332454 24 34.875 C 24.189071 34.819924 24.303511 34.682104 24.40625 34.5625 C 24.36758 34.518069 24.336447 34.456564 24.3125 34.4375 C 24.405085 34.431348 24.479517 34.42583 24.5625 34.40625 C 24.569096 34.401353 24.58691 34.410848 24.59375 34.40625 C 24.638412 34.37623 24.690774 34.356951 24.75 34.34375 C 24.958054 34.25825 25.127854 34.110461 25.25 33.875 C 25.22672 33.257546 26.1454 33.70702 25.875 33.25 C 26.00592 32.674146 26.1045 33.13504 26.3125 33.3125 C 26.747264 33.560208 27.07391 33.3269 27.375 33 C 27.423 32.67651 28.277626 32.25 28.0625 32.25 C 27.3185 32.622218 27.516546 31.731508 27.75 31.375 z M 22.4375 31.5 C 22.131172 31.597454 22.228582 32.363982 22.5 32.125 C 22.953964 32.013 22.63378 31.866064 22.5625 31.5625 C 22.49996 31.5436 22.48114 31.4854 22.4375 31.5 z M 16.84375 32.46875 C 16.916546 32.638292 16.863993 32.85938 17.03125 32.8125 C 17.023811 32.677858 16.996764 32.54554 16.84375 32.46875 z M 26.9375 35.25 C 26.832397 35.279278 26.88135 35.371802 26.96875 35.46875 C 27.002267 35.435282 27.040519 35.380156 27.0625 35.3125 C 27.022623 35.291708 26.98429 35.264991 26.9375 35.25 z M 25.25 35.75 C 25.183878 35.809466 25.102363 35.845182 25 35.875 C 24.92872 36.332454 24.625028 36.563864 24.1875 36.6875 C 23.919136 36.318628 23.454236 36.5266 23.625 35.9375 C 23.613274 35.901125 23.597143 35.87733 23.59375 35.84375 C 23.476753 35.875367 23.366404 35.906155 23.25 35.9375 C 22.628764 36.663028 21.82999 37.366318 21.5625 38.3125 C 21.171082 38.7109 21.866346 38.908328 21.375 39.25 C 20.974126 39.569854 21.47668 39.9445 21.5625 40.3125 C 21.879195 40.70226 22.401175 41.857356 22.90625 41.875 C 22.78392 41.676304 22.655567 41.427038 22.5625 41.3125 C 22.47668 40.9445 21.974126 40.569854 22.375 40.25 C 22.866346 39.908328 22.171082 39.7109 22.5625 39.3125 C 22.82999 38.366318 23.628764 37.663028 24.25 36.9375 C 24.973782 36.7426 25.710954 36.492064 26.4375 36.8125 C 26.731464 37.062246 27.022174 37.489728 27.3125 37.625 C 27.50072 37.232854 28.022854 37.202346 28.375 37.375 C 28.485095 37.407292 28.6236 37.437373 28.75 37.46875 C 28.719105 37.332934 28.715448 37.209976 28.875 37.125 C 29.005973 37.241182 29.12362 37.360927 29.21875 37.5 C 29.340833 37.48382 29.467245 37.464667 29.5625 37.375 C 29.957264 37.1318 30.140536 36.744272 29.5625 36.625 C 29.155284 36.789571 28.920441 36.535464 28.71875 36.28125 C 28.672079 36.321325 28.619741 36.339736 28.5625 36.375 C 28.375038 36.551465 28.13059 36.548719 27.875 36.5 C 27.846607 36.49883 27.814774 36.491768 27.78125 36.46875 C 27.644386 36.436367 27.493729 36.409825 27.375 36.375 C 27.234142 36.305938 27.069255 36.275157 26.90625 36.28125 C 26.855016 36.305749 26.824505 36.318163 26.8125 36.28125 C 26.602531 36.310706 26.411316 36.419123 26.3125 36.625 C 26.022174 36.489728 25.731464 36.062246 25.4375 35.8125 C 25.372712 35.783926 25.31494 35.769938 25.25 35.75 z M 32.03125 37.9375 C 31.979699 37.922767 31.959091 38.017137 32 38.3125 C 31.98691 38.5037 32.125157 38.647009 32.28125 38.78125 C 32.287179 38.768376 32.307075 38.763142 32.3125 38.75 C 32.349252 38.543894 32.301862 38.30715 32.21875 38.125 C 32.143329 38.040322 32.071345 37.948959 32.03125 37.9375 z M 29.875 38.125 C 29.670156 38.234098 29.700345 38.41697 29.75 38.59375 C 29.764593 38.627438 29.797562 38.654028 29.8125 38.6875 C 29.81654 38.706621 29.810285 38.731391 29.8125 38.75 C 29.837846 38.815237 29.875775 38.874677 29.90625 38.9375 C 29.93698 38.99878 29.96611 39.065722 30 39.125 C 30.0024 39.129291 30.028836 39.120716 30.03125 39.125 C 30.284401 39.24738 30.30409 39.403678 30.28125 39.5625 C 30.285896 39.569969 30.276611 39.586273 30.28125 39.59375 C 30.489987 39.930202 30.681818 40.269826 30.75 40.6875 C 30.674029 40.947905 30.883211 41.172402 31.09375 41.28125 C 31.153429 41.163507 31.20051 41.057121 31.25 40.9375 C 31.244329 40.917368 31.252011 40.895465 31.25 40.875 C 31.230132 40.672805 31.353049 40.462185 31.21875 40.28125 C 30.622372 40.433507 30.639015 40.267833 30.9375 40 C 30.603628 39.360453 30.433424 38.620357 29.875 38.125 z M 11.46875 38.59375 C 11.433679 38.594066 11.39114 38.599291 11.34375 38.625 C 11.334016 38.630281 11.322625 38.650143 11.3125 38.65625 C 11.179061 38.814104 11.096636 39.0044 11.125 39.25 C 11.045 39.658582 11.2398 40.125 11.6875 40.125 C 11.779318 40.063254 11.886396 39.970145 12 39.875 C 12.000216 39.873791 12.031044 39.876198 12.03125 39.875 C 12.131462 39.291621 10.990115 40.04342 11.5 39.125 C 11.597036 38.723873 11.573962 38.592802 11.46875 38.59375 z M 13.75 40.0625 C 13.512708 40.0314 13.307736 40.399627 13.0625 40.5625 C 13.037248 40.606454 13.000641 40.625738 12.96875 40.65625 C 13.044004 40.700709 13.075491 40.79178 13 41 C 12.89672 41.600436 13.755736 42.096464 14.0625 41.5625 C 14.389482 41.345336 14.642618 40.765782 15 41.25 C 15.301748 41.609596 15.767103 41.575106 16.1875 41.5 C 16.06255 41.430396 15.918226 41.38785 15.75 41.375 C 15.556982 41.105182 15.586872 40.532 15.25 40.5 C 14.815528 40.582764 14.315636 40.626146 14 40.25 C 13.910655 40.128946 13.829097 40.072867 13.75 40.0625 z M 12.78125 41.6875 C 12.746197 41.77706 12.710081 41.870016 12.6875 41.9375 C 12.651136 42.316264 12.19566 42.573282 12.375 42.9375 C 12.2246 43.350444 12.101936 43.705118 12.4375 44.0625 C 12.721572 44.586428 12.910664 45.233482 13.4375 45.5625 C 13.806664 45.872756 14.2065 46.224764 14.0625 46.75 C 13.985408 47.175308 14.107844 47.564556 14.3125 47.9375 C 14.23832 48.356556 14.09304 48.77601 14.0625 49.1875 C 14.336755 49.3823 14.766426 49.707859 15.125 49.875 C 15.182268 49.564533 15.257001 49.251024 15.3125 48.9375 C 15.107844 48.564556 14.985408 48.175308 15.0625 47.75 C 15.2065 47.224764 14.806664 46.872756 14.4375 46.5625 C 13.910664 46.233482 13.721572 45.586428 13.4375 45.0625 C 13.101936 44.705118 13.2246 44.350444 13.375 43.9375 C 13.19566 43.573282 13.651136 43.316264 13.6875 42.9375 C 13.78786 42.637572 14.1465 42.004318 13.5625 42.0625 C 13.252937 42.169711 13.011739 41.915225 12.78125 41.6875 z M 16.625 42.125 C 16.654605 42.217179 16.701746 42.307546 16.75 42.375 C 16.853301 42.382891 16.94399 42.408476 17.03125 42.4375 C 16.887162 42.34203 16.743497 42.249968 16.625 42.125 z M 25.375 42.46875 C 25.352699 42.537895 25.343712 42.616863 25.3125 42.6875 C 25.409956 43.024954 25.87528 43.230192 25.6875 43.6875 C 25.516882 44.113536 26.04514 44.43941 25.9375 44.8125 C 25.579252 45.530462 25.666466 46.413144 26 47.125 C 26.26588 47.769072 26.39536 48.4258 26.375 49.125 C 26.71262 49.225703 26.939518 48.921548 27.21875 48.8125 C 27.159731 48.583127 27.092888 48.350012 27 48.125 C 26.666466 47.413144 26.579252 46.530462 26.9375 45.8125 C 27.04514 45.43941 26.516882 45.113536 26.6875 44.6875 C 26.87528 44.230192 26.409956 44.024954 26.3125 43.6875 C 26.49156 43.282264 26.557592 42.8922 26.125 42.625 C 25.829563 42.753259 25.587576 42.551437 25.375 42.46875 z M 17.34375 42.625 C 17.473805 42.746858 17.572611 42.904562 17.625 43.125 C 17.9453 43.46279 18.366761 43.679346 18.8125 43.875 C 18.830762 43.708028 18.853516 43.544074 18.875 43.375 C 18.398547 43.080289 17.840238 42.885488 17.34375 42.625 z "
       transform="translate(-0.625,0.082283)"
       id="path5619" />
  </g>
</svg>
