<?xml version="1.0" encoding="UTF-8" standalone="no"?>
<!-- Created with Inkscape (http://www.inkscape.org/) -->

<svg
   xmlns:dc="http://purl.org/dc/elements/1.1/"
   xmlns:cc="http://creativecommons.org/ns#"
   xmlns:rdf="http://www.w3.org/1999/02/22-rdf-syntax-ns#"
   xmlns:svg="http://www.w3.org/2000/svg"
   xmlns="http://www.w3.org/2000/svg"
   xmlns:xlink="http://www.w3.org/1999/xlink"
   xmlns:sodipodi="http://sodipodi.sourceforge.net/DTD/sodipodi-0.dtd"
   xmlns:inkscape="http://www.inkscape.org/namespaces/inkscape"
   id="svg13094"
   height="64"
   width="64"
   version="1.1"
   inkscape:version="0.48.4 r9939"
   sodipodi:docname="folder-aptana.svg"
   inkscape:export-filename="folder.png"
   inkscape:export-xdpi="90"
   inkscape:export-ydpi="90">
  <sodipodi:namedview
     pagecolor="#ffffff"
     bordercolor="#666666"
     borderopacity="1"
     objecttolerance="10"
     gridtolerance="10"
     guidetolerance="10"
     inkscape:pageopacity="0"
     inkscape:pageshadow="2"
     inkscape:window-width="1920"
     inkscape:window-height="1022"
     id="namedview46"
     showgrid="true"
     inkscape:snap-bbox="true"
     inkscape:bbox-paths="true"
     inkscape:bbox-nodes="true"
     inkscape:snap-bbox-edge-midpoints="true"
     inkscape:snap-bbox-midpoints="true"
     inkscape:snap-nodes="true"
     inkscape:object-paths="true"
     inkscape:snap-intersection-paths="true"
     inkscape:object-nodes="true"
     inkscape:snap-smooth-nodes="true"
     inkscape:snap-midpoints="true"
     inkscape:snap-object-midpoints="true"
     inkscape:snap-center="true"
     fit-margin-top="0"
     fit-margin-left="0"
     fit-margin-right="0"
     fit-margin-bottom="0"
     inkscape:zoom="11.313709"
     inkscape:cx="35.922729"
     inkscape:cy="31.368286"
     inkscape:window-x="-5"
     inkscape:window-y="23"
     inkscape:window-maximized="1"
     inkscape:current-layer="svg13094"
     showguides="true"
     inkscape:guide-bbox="true"
     inkscape:snap-page="true"
     inkscape:snap-global="true">
    <inkscape:grid
       type="xygrid"
       id="grid3023"
       empspacing="5"
       visible="true"
       enabled="true"
       snapvisiblegridlinesonly="true"
       originx="-80px"
       originy="-75px" />
  </sodipodi:namedview>
  <defs
     id="defs11">
    <linearGradient
       y2="32.976402"
       x2="77.278381"
       y1="48.976402"
       x1="77.278381"
       gradientTransform="translate(-33.625,-31.894117)"
       gradientUnits="userSpaceOnUse"
       id="linearGradient3105"
       xlink:href="#linearGradient3841-4-0"
       inkscape:collect="always" />
    <linearGradient
       id="linearGradient3841-4-0">
      <stop
         style="stop-color:#667d45;stop-opacity:1;"
         offset="0"
         id="stop3843-9-6" />
      <stop
         style="stop-color:#6f8b48;stop-opacity:1;"
         offset="1"
         id="stop3845-3-6" />
    </linearGradient>
    <linearGradient
       gradientTransform="translate(0.625,-0.082283)"
       inkscape:collect="always"
       xlink:href="#linearGradient3969-5-8"
       id="linearGradient3918"
       gradientUnits="userSpaceOnUse"
       x1="29.875"
       y1="64.082283"
       x2="29.875"
       y2="12.082283" />
    <linearGradient
       id="linearGradient3969-5-8">
      <stop
         style="stop-color:#6b804b;stop-opacity:1;"
         offset="0"
         id="stop3971-7" />
      <stop
         id="stop3977-5-2"
         offset="0.08245245"
         style="stop-color:#7e9a55;stop-opacity:1;" />
      <stop
         style="stop-color:#83a354;stop-opacity:1;"
         offset="0.49040774"
         id="stop3979-3" />
      <stop
         id="stop3981-0-2"
         offset="0.51108748"
         style="stop-color:#7d9c50;stop-opacity:1;" />
      <stop
         style="stop-color:#79974e;stop-opacity:1;"
         offset="1"
         id="stop3973-3" />
    </linearGradient>
    <linearGradient
       inkscape:collect="always"
       xlink:href="#linearGradient4069-9-1-4"
       id="linearGradient3950-5-5-6-2"
       gradientUnits="userSpaceOnUse"
       x1="21.295919"
       y1="64"
       x2="21.295919"
       y2="12" />
    <linearGradient
       id="linearGradient4069-9-1-4">
      <stop
         offset="0"
         style="stop-color:#b3bcaa;stop-opacity:1"
         id="stop4071-3-6-6" />
      <stop
         id="stop4073-8-3-2"
         style="stop-color:#d2d7cc;stop-opacity:1"
         offset="0.05736636" />
      <stop
         offset="0.49138948"
         style="stop-color:#e2e8db;stop-opacity:1"
         id="stop4075-9-4-2" />
      <stop
         offset="0.51270223"
         style="stop-color:#d2ddc6;stop-opacity:1"
         id="stop4077-9-3-1" />
      <stop
         offset="1"
         style="stop-color:#cfd9c6;stop-opacity:1"
         id="stop4079-5-9-1" />
    </linearGradient>
    <linearGradient
       y2="32.976402"
       x2="77.278381"
       y1="48.976402"
       x1="77.278381"
       gradientTransform="translate(-33,-31.9764)"
       gradientUnits="userSpaceOnUse"
       id="linearGradient3846"
       xlink:href="#linearGradient3841-4-0"
       inkscape:collect="always" />
    <linearGradient
       inkscape:collect="always"
       xlink:href="#linearGradient4069-9-1-4-3"
       id="linearGradient3950-5-5-6-2-8"
       gradientUnits="userSpaceOnUse"
       x1="21.295919"
       y1="64"
       x2="21.295919"
       y2="12" />
    <linearGradient
       id="linearGradient4069-9-1-4-3">
      <stop
         offset="0"
         style="stop-color:#b3bcaa;stop-opacity:1"
         id="stop4071-3-6-6-5" />
      <stop
         id="stop4073-8-3-2-9"
         style="stop-color:#d2d7cc;stop-opacity:1"
         offset="0.05736636" />
      <stop
         offset="0.49138948"
         style="stop-color:#e2e8db;stop-opacity:1"
         id="stop4075-9-4-2-7" />
      <stop
         offset="0.51270223"
         style="stop-color:#d2ddc6;stop-opacity:1"
         id="stop4077-9-3-1-3" />
      <stop
         offset="1"
         style="stop-color:#cfd9c6;stop-opacity:1"
         id="stop4079-5-9-1-9" />
    </linearGradient>
    <linearGradient
       gradientTransform="translate(-4,-23)"
       y2="12"
       x2="21.295919"
       y1="64"
       x1="21.295919"
       gradientUnits="userSpaceOnUse"
       id="linearGradient3067"
       xlink:href="#linearGradient4069-9-1-4-3"
       inkscape:collect="always" />
  </defs>
  <metadata
     id="metadata13099">
    <rdf:RDF>
      <cc:Work
         rdf:about="">
        <dc:format>image/svg+xml</dc:format>
        <dc:type
           rdf:resource="http://purl.org/dc/dcmitype/StillImage" />
        <dc:title />
      </cc:Work>
    </rdf:RDF>
  </metadata>
  <path
     style="fill:url(#linearGradient3846);fill-opacity:1;fill-rule:nonzero;stroke:none"
     d="m 3,6 -10e-8,58.000001 L 60,64 64,60 64,1 63,0 37,0 32,4.9999999 4,5 z"
     id="path3833"
     inkscape:connector-curvature="0"
     sodipodi:nodetypes="cccccccccc" />
  <path
     style="color:#000000;fill:#d1ff8f;fill-opacity:0.46554775;fill-rule:nonzero;stroke:none;stroke-width:1;marker:none;visibility:visible;display:inline;overflow:visible;enable-background:accumulate"
     d="M 37,0 32,5 4,5 3,6 3,7 4,6 32,6 37,1 63,1 64,2 64,1 63,0 37,0 z"
     id="path3800"
     inkscape:connector-curvature="0" />
  <path
     sodipodi:nodetypes="ccccc"
     d="m 7,13 51,0 0,31 -51,0 z"
     id="path3920"
     inkscape:connector-curvature="0"
     style="fill:#c7c7c7;fill-opacity:1;fill-rule:nonzero" />
  <path
     sodipodi:nodetypes="cccccccc"
     id="path3802"
     d="m 58,13 0,51 2,0 4,-4 0,-59 -1,-1 0,18 z"
     inkscape:connector-curvature="0"
     style="fill:#3e4959;fill-opacity:0.43171806" />
  <path
     inkscape:connector-curvature="0"
     id="path4253"
     d="m 7,13 51,0 0,1 -51,0 z"
     style="fill:#ffffff;fill-opacity:0.60159009;fill-rule:nonzero"
     sodipodi:nodetypes="ccccc" />
  <path
     style="color:#000000;fill:#3e4959;fill-opacity:0.22968199;fill-rule:nonzero;stroke-width:1;stroke-linecap:butt;stroke-linejoin:miter;stroke-miterlimit:4;stroke-opacity:1;stroke-dasharray:none;stroke-dashoffset:0;marker:none;visibility:visible;display:inline;overflow:visible;enable-background:accumulate"
     d="m 30,13 4,4 2,0 -4,-4 z"
     id="path3982"
     inkscape:connector-curvature="0"
     sodipodi:nodetypes="ccccc" />
  <path
     id="path3916"
     d="m 0,13 0,50 1,1 59,0 1,-1 0,-45 -1,-1 -26,1e-6 -5,-5 L 1,12 z"
     inkscape:connector-curvature="0"
     style="fill:url(#linearGradient3918);fill-opacity:1;fill-rule:nonzero"
     sodipodi:nodetypes="ccccccccccc"
     inkscape:export-xdpi="90"
     inkscape:export-ydpi="90" />
  <path
     style="fill:#d1ff8f;fill-opacity:0.46554775;fill-rule:nonzero"
     d="m 1,12 -1,1 0,1 1,-1 28,0 5,5 26,0 1,1 0,-1 -1,-1 -26,0 -5,-5 -28,0 z"
     id="path3046"
     inkscape:connector-curvature="0" />
  <path
     inkscape:connector-curvature="0"
     id="rect3001"
     d="m 7,27 c -1.108,0 -2,0.892 -2,2 l 0,23 c 0,1.108 0.892,2 2,2 l 23,0 c 1.108,0 2,-0.892 2,-2 l 0,-23 c 0,-1.108 -0.892,-2 -2,-2 L 7,27 z m 10.71875,4 0.78125,0 0.78125,0 c 0.395832,0 0.8125,0.242951 0.8125,0.78125 0,1.212239 0.262855,1.875305 0.71875,2.1875 0.223258,0.07899 0.44415,0.180721 0.65625,0.28125 0.545541,0.112785 1.193763,-0.162513 2.0625,-1.03125 0.380635,-0.380635 0.845103,-0.279897 1.125,0 l 0.5625,0.5625 0.5625,0.5625 c 0.279895,0.279896 0.380632,0.744366 0,1.125 -0.868737,0.868738 -1.144034,1.516958 -1.03125,2.0625 0.100531,0.2121 0.20226,0.432992 0.28125,0.65625 0.312194,0.455895 0.975261,0.71875 2.1875,0.71875 0.538298,0 0.78125,0.416666 0.78125,0.8125 l 0,0.78125 0,0.78125 c 0,0.395834 -0.242952,0.8125 -0.78125,0.8125 -1.212239,0 -1.875306,0.262855 -2.1875,0.71875 -0.07899,0.223258 -0.180719,0.44415 -0.28125,0.65625 -0.112784,0.545542 0.162513,1.193762 1.03125,2.0625 0.380632,0.380634 0.279895,0.845104 0,1.125 l -0.5625,0.5625 -0.5625,0.5625 c -0.279897,0.279897 -0.744365,0.380635 -1.125,0 -0.868737,-0.868737 -1.516959,-1.144034 -2.0625,-1.03125 -0.212101,0.10053 -0.432992,0.20226 -0.65625,0.28125 -0.455895,0.312196 -0.71875,0.97526 -0.71875,2.1875 0,0.538298 -0.416667,0.78125 -0.8125,0.78125 L 18.5,50 17.71875,50 c -0.395833,0 -0.8125,-0.242952 -0.8125,-0.78125 0,-1.21224 -0.262855,-1.875304 -0.71875,-2.1875 -0.223257,-0.07899 -0.44415,-0.18072 -0.65625,-0.28125 -0.545541,-0.112784 -1.193762,0.162513 -2.0625,1.03125 -0.380635,0.380635 -0.845104,0.279897 -1.125,0 l -0.5625,-0.5625 -0.5625,-0.5625 c -0.279897,-0.279896 -0.380635,-0.744366 0,-1.125 0.868737,-0.868738 1.144034,-1.516958 1.03125,-2.0625 C 12.149469,43.25665 12.04775,43.035758 11.96875,42.8125 11.656555,42.356605 10.99349,42.09375 9.78125,42.09375 9.2429519,42.09375 9,41.677084 9,41.28125 L 9,40.5 9,39.71875 c 0,-0.395834 0.2429519,-0.8125 0.78125,-0.8125 1.21224,0 1.875305,-0.262855 2.1875,-0.71875 0.07899,-0.223258 0.180719,-0.44415 0.28125,-0.65625 0.112784,-0.545542 -0.162513,-1.193762 -1.03125,-2.0625 -0.380635,-0.380634 -0.279897,-0.845104 0,-1.125 l 0.5625,-0.5625 0.5625,-0.5625 c 0.279896,-0.279897 0.744365,-0.380635 1.125,0 0.868738,0.868737 1.51696,1.144035 2.0625,1.03125 0.2121,-0.100529 0.432991,-0.20226 0.65625,-0.28125 0.455895,-0.312195 0.71875,-0.975261 0.71875,-2.1875 C 16.90625,31.242951 17.322917,31 17.71875,31 z M 18.5,36.53125 c -2.186127,0 -3.96875,1.782624 -3.96875,3.96875 0,2.186126 1.782624,3.96875 3.96875,3.96875 2.186126,0 3.96875,-1.782624 3.96875,-3.96875 0,-2.186126 -1.782624,-3.96875 -3.96875,-3.96875 z"
     style="color:#000000;fill:url(#linearGradient3950-5-5-6-2-8);fill-opacity:1;fill-rule:nonzero;stroke:none;stroke-width:1;marker:none;visibility:visible;display:inline;overflow:visible;enable-background:accumulate" />
</svg>
