<?xml version="1.0" encoding="UTF-8" standalone="no"?>
<!-- Created with Inkscape (http://www.inkscape.org/) -->

<svg
   xmlns:dc="http://purl.org/dc/elements/1.1/"
   xmlns:cc="http://creativecommons.org/ns#"
   xmlns:rdf="http://www.w3.org/1999/02/22-rdf-syntax-ns#"
   xmlns:svg="http://www.w3.org/2000/svg"
   xmlns="http://www.w3.org/2000/svg"
   xmlns:sodipodi="http://sodipodi.sourceforge.net/DTD/sodipodi-0.dtd"
   xmlns:inkscape="http://www.inkscape.org/namespaces/inkscape"
   width="16"
   height="16"
   id="svg27665"
   version="1.1"
   inkscape:version="0.48.3.1 r9886"
   sodipodi:docname="printer-printing-symbolic.svg">
  <defs
     id="defs27667" />
  <sodipodi:namedview
     id="base"
     pagecolor="#ffffff"
     bordercolor="#666666"
     borderopacity="1.0"
     inkscape:pageopacity="0.0"
     inkscape:pageshadow="2"
     inkscape:zoom="32"
     inkscape:cx="12.306287"
     inkscape:cy="7.7810628"
     inkscape:document-units="px"
     inkscape:current-layer="printer"
     showgrid="true"
     inkscape:window-width="1920"
     inkscape:window-height="1033"
     inkscape:window-x="-10"
     inkscape:window-y="25"
     inkscape:window-maximized="1"
     inkscape:snap-bbox="true"
     inkscape:bbox-paths="true"
     inkscape:bbox-nodes="true"
     inkscape:snap-bbox-edge-midpoints="true"
     inkscape:snap-bbox-midpoints="true"
     inkscape:object-paths="true"
     inkscape:snap-intersection-paths="true"
     inkscape:object-nodes="true"
     inkscape:snap-smooth-nodes="true"
     inkscape:snap-midpoints="true"
     inkscape:snap-object-midpoints="true"
     inkscape:snap-center="true"
     inkscape:snap-global="true"
     showguides="false"
     inkscape:guide-bbox="true"
     fit-margin-top="0"
     fit-margin-left="0"
     fit-margin-right="0"
     fit-margin-bottom="0"
     inkscape:showpageshadow="false">
    <sodipodi:guide
       orientation="0,1"
       position="599.99999,299.99993"
       id="guide3572" />
    <sodipodi:guide
       orientation="1,0"
       position="294.41949,12.121716"
       id="guide3574" />
    <sodipodi:guide
       orientation="0,1"
       position="456.04389,599.99992"
       id="guide3576" />
    <sodipodi:guide
       orientation="0,1"
       position="-2.8882813e-06,-8.4406273e-05"
       id="guide3578" />
    <sodipodi:guide
       orientation="1,0"
       position="-2.8882813e-06,157.58366"
       id="guide3580" />
    <sodipodi:guide
       orientation="1,0"
       position="599.99999,121.21821"
       id="guide3582" />
    <sodipodi:guide
       orientation="0,1"
       position="599.99999,-714.34359"
       id="guide5928" />
    <sodipodi:guide
       orientation="0,1"
       position="599.99999,-414.34359"
       id="guide5930" />
    <sodipodi:guide
       orientation="0,1"
       position="599.99999,-1014.3435"
       id="guide5932" />
    <sodipodi:guide
       orientation="0,1"
       position="451.57029,524.99606"
       id="guide5294" />
    <sodipodi:guide
       orientation="0,1"
       position="451.57029,75.013516"
       id="guide5296" />
    <sodipodi:guide
       orientation="0,1"
       position="496.01499,-931.36409"
       id="guide5413" />
    <sodipodi:guide
       orientation="0,1"
       position="457.34859,-489.34389"
       id="guide5415" />
    <inkscape:grid
       type="xygrid"
       id="grid3070"
       empspacing="5"
       visible="true"
       enabled="true"
       snapvisiblegridlinesonly="true"
       originx="4.3243213e-05px"
       originy="-2.6947047e-05px" />
  </sodipodi:namedview>
  <metadata
     id="metadata27670">
    <rdf:RDF>
      <cc:Work
         rdf:about="">
        <dc:format>image/svg+xml</dc:format>
        <dc:type
           rdf:resource="http://purl.org/dc/dcmitype/StillImage" />
        <dc:title />
      </cc:Work>
    </rdf:RDF>
  </metadata>
  <g
     inkscape:label="Camada 1"
     inkscape:groupmode="layer"
     id="layer1"
     transform="translate(3364.4171,-2100.7186)">
    <g
       inkscape:label="#g3217"
       transform="matrix(0.03380978,0,0,0.03380978,-3245.473,2097.4005)"
       id="printer">
      <rect
         style="opacity:0.00100002;fill:#ffffff;stroke:none"
         id="rect3160"
         width="709.85376"
         height="709.85376"
         x="-3518.0396"
         y="-138.47688" />
      <path
         sodipodi:nodetypes="cccccccccccccccccccccccccccccccccccccc"
         inkscape:connector-curvature="0"
         id="path3005"
         d="m -3429.3066,98.140242 0,88.731718 -88.7317,0 0,29.57725 473.2359,0 0,-29.57725 -88.7318,0 0,-88.731718 z m 59.1545,59.154478 177.4635,0 0,29.57724 -177.4635,0 z m -147.8862,88.73173 0,177.46344 59.1545,0 0,118.30897 354.9269,0 0,-118.30897 59.1545,0 0,-177.46344 z m 29.5772,29.57724 29.5773,0 0,29.57724 -29.5773,0 z m 0,59.15448 29.5773,0 0,29.57724 -29.5773,0 z m 88.7318,59.15448 236.6179,0 0,88.73173 -236.6179,0 z"
         style="color:#000000;fill:#7ca9db;fill-opacity:1;fill-rule:nonzero;stroke:none;marker:none;visibility:visible;display:inline;overflow:visible;enable-background:accumulate" />
      <path
         style="color:#000000;fill:#404957;fill-opacity:0.23083699999999999;fill-rule:nonzero;stroke:none;marker:none;visibility:visible;display:inline;overflow:visible;enable-background:accumulate;stroke-width:29.57724067"
         d="m -3429.3066,98.140241 0,88.731719 -88.7317,0 0,29.57725 29.5772,0 88.7317,0 0,-88.73173 266.1952,0 0,-29.577239 -295.7724,0 z m 88.7317,88.731719 0,29.57725 177.4635,0 0,-29.57725 -29.5773,0 -147.8862,0 z m 236.6179,0 0,29.57725 59.1545,0 0,-29.57725 -59.1545,0 z m -414.0813,59.15449 0,177.46344 29.5772,0 0,-59.15448 0,-29.57724 0,-29.57724 0,-29.57724 29.5772,0 414.0814,0 0,-29.57724 -443.6586,0 -29.5772,0 z m 59.1544,59.15448 0,29.57724 29.5773,0 0,-29.57724 -29.5773,0 z m 0,59.15448 0,29.57724 29.5773,0 0,-29.57724 -29.5773,0 z m 295.7725,59.15448 0,59.15448 -207.0407,0 0,29.57725 236.6179,0 0,-88.73173 -29.5772,0 z m -295.7725,29.57724 0,88.73173 29.5773,0 0,-88.73173 -29.5773,0 z"
         id="path3021"
         inkscape:connector-curvature="0" />
    </g>
  </g>
</svg>
