<?xml version="1.0" encoding="UTF-8" standalone="no"?>
<!-- Created with Inkscape (http://www.inkscape.org/) -->
<svg xmlns:dc="http://purl.org/dc/elements/1.1/" xmlns:cc="http://creativecommons.org/ns#" xmlns:rdf="http://www.w3.org/1999/02/22-rdf-syntax-ns#" xmlns:svg="http://www.w3.org/2000/svg" xmlns="http://www.w3.org/2000/svg" xmlns:sodipodi="http://sodipodi.sourceforge.net/DTD/sodipodi-0.dtd" xmlns:inkscape="http://www.inkscape.org/namespaces/inkscape" width="18" height="18" id="svg27665" version="1.1" inkscape:version="0.48.4 r9939" sodipodi:docname="preferences-desktop-locale.svg">
  <defs id="defs27667"/>
  <sodipodi:namedview id="base" pagecolor="#ffffff" bordercolor="#666666" borderopacity="1.0" inkscape:pageopacity="0.0" inkscape:pageshadow="2" inkscape:zoom="45.254834" inkscape:cx="12.726039" inkscape:cy="8.0413893" inkscape:document-units="px" inkscape:current-layer="layer1" showgrid="true" inkscape:window-width="1920" inkscape:window-height="1016" inkscape:window-x="-5" inkscape:window-y="27" inkscape:window-maximized="1" inkscape:snap-bbox="true" inkscape:bbox-paths="true" inkscape:bbox-nodes="true" inkscape:snap-bbox-edge-midpoints="true" inkscape:snap-bbox-midpoints="true" inkscape:object-paths="true" inkscape:snap-intersection-paths="true" inkscape:object-nodes="true" inkscape:snap-smooth-nodes="true" inkscape:snap-midpoints="true" inkscape:snap-object-midpoints="true" inkscape:snap-center="true" inkscape:snap-global="false" showguides="false" inkscape:guide-bbox="true" fit-margin-top="0" fit-margin-left="0" fit-margin-right="0" fit-margin-bottom="0" inkscape:showpageshadow="false">
    <sodipodi:guide orientation="0,1" position="599.99999,299.99993" id="guide3572"/>
    <sodipodi:guide orientation="1,0" position="294.41949,12.121716" id="guide3574"/>
    <sodipodi:guide orientation="0,1" position="456.04389,599.99992" id="guide3576"/>
    <sodipodi:guide orientation="0,1" position="-2.8882813e-06,-8.4406273e-05" id="guide3578"/>
    <sodipodi:guide orientation="1,0" position="-2.8882813e-06,157.58366" id="guide3580"/>
    <sodipodi:guide orientation="1,0" position="599.99999,121.21821" id="guide3582"/>
    <sodipodi:guide orientation="0,1" position="599.99999,-714.34359" id="guide5928"/>
    <sodipodi:guide orientation="0,1" position="599.99999,-414.34359" id="guide5930"/>
    <sodipodi:guide orientation="0,1" position="599.99999,-1014.3435" id="guide5932"/>
    <sodipodi:guide orientation="0,1" position="451.57029,524.99606" id="guide5294"/>
    <sodipodi:guide orientation="0,1" position="451.57029,75.013516" id="guide5296"/>
    <sodipodi:guide orientation="0,1" position="496.01499,-931.36409" id="guide5413"/>
    <sodipodi:guide orientation="0,1" position="457.34859,-489.34389" id="guide5415"/>
    <inkscape:grid type="xygrid" id="grid3070" empspacing="5" visible="true" enabled="true" snapvisiblegridlinesonly="true" originx="4.3243213e-05px" originy="-2.6947047e-05px"/>
  </sodipodi:namedview>
  <metadata id="metadata27670">
    <rdf:RDF>
      <cc:Work rdf:about="">
        <dc:format>image/svg+xml</dc:format>
        <dc:type rdf:resource="http://purl.org/dc/dcmitype/StillImage"/>
        <dc:title/>
      </cc:Work>
    </rdf:RDF>
  </metadata>
  <g inkscape:label="Camada 1" inkscape:groupmode="layer" id="layer1" transform="translate(3364.4171,-2100.7186)">
    <path style="color:#000000;fill:#f1f3f5;fill-opacity:0.90288714000000003;fill-rule:nonzero;stroke:none;stroke-width:2;marker:none;visibility:visible;display:inline;overflow:visible;enable-background:accumulate" d="M 2.15625 1.1875 C 1.49815 1.8453 0.99255 2.58005 0.59375 3.40625 C 0.19505 4.23245 -0.0821 5.1382 -0.1875 6.0625 C -0.7018 10.5711 2.5513 14.6735 7.0625 15.1875 L 7.1875 14 C 3.3208 13.5595 0.5592 10.0519 1 6.1875 C 1.1802 4.6082 1.90665 3.1864 3.03125 2.0625 L 2.15625 1.1875 z M 13.8125 1.1875 L 12.96875 2.03125 C 15.72065 4.78155 15.72535 9.21845 12.96875 11.96875 C 11.85445 13.08255 10.40855 13.8122 8.84375 14 L 8.96875 15.15625 C 10.80035 14.93645 12.5081 14.1161 13.8125 12.8125 C 17.0231 9.6037 17.0263 4.3963 13.8125 1.1875 z M 7.40625 1.21875 C 4.4765753 1.5159338 2.1875 3.9953125 2.1875 7 C 2.1875 10.205 4.7913 12.8125 8 12.8125 C 11.2088 12.8125 13.8125 10.205 13.8125 7 C 13.8125 3.795 11.2088 1.21875 8 1.21875 C 7.7994562 1.21875 7.6015616 1.1989377 7.40625 1.21875 z M 8 2.375 C 10.5599 2.375 12.625 4.4432 12.625 7 C 12.625 9.5569 10.5599 11.625 8 11.625 C 5.4402 11.625 3.375 9.5569 3.375 7 C 3.375 4.4432 5.4402 2.375 8 2.375 z M 8 3.59375 L 8 3.625 C 6.13 3.625 4.625 5.1299 4.625 7 C 4.625 7.1786 4.6615 7.36015 4.6875 7.53125 C 4.7405 7.46925 4.7958 7.38345 4.875 7.34375 C 5.0515 7.25575 5.1944 7.59075 5.3125 7.53125 C 5.3225 7.53125 5.3125 7.42105 5.3125 7.40625 C 5.3125 7.33825 5.375 7.2616 5.375 7.1875 C 5.375 6.8732 5.59795 6.4292 5.71875 6.1875 C 5.73675 6.1515 5.7735 6.14 5.8125 6.125 C 5.8665 6.104 5.9309 6.09475 6 6.09375 C 6.1183 6.09375 6.24205 6.1055 6.28125 6.0625 C 6.34125 6.0025 6.44935 5.83425 6.59375 5.90625 C 6.63675 5.92725 6.66835 5.963 6.71875 6 C 6.74375 6.019 6.7805 6.0575 6.8125 6.0625 C 6.8445 6.0725 6.8965 6.05225 6.9375 6.03125 C 7.0544 5.97325 7.16715 5.9324 7.28125 5.875 C 7.34225 5.845 7.5217 5.5478 7.625 5.625 C 7.7587 5.725 7.8691 5.86545 8 5.96875 C 8.1867 5.89175 8.2675 5.76155 8.4375 5.71875 C 8.4825 5.70775 8.62105 5.82615 8.65625 5.84375 C 8.69925 5.86575 8.736 5.8265 8.75 5.8125 C 8.837 5.7255 9.12385 5.99895 9.15625 6.03125 C 9.21125 6.08625 9.3998 6.3 9.5 6.25 C 9.525 6.237 9.521 6.21225 9.5 6.15625 C 9.437 5.98815 9.24305 5.6631 9.34375 5.5625 C 9.35875 5.5475 9.38625 5.5525 9.40625 5.5625 C 9.43725 5.5625 9.44175 5.57475 9.46875 5.59375 C 9.49575 5.61175 9.52925 5.619 9.53125 5.625 C 9.54225 5.646 9.76625 5.71075 9.78125 5.71875 C 9.90075 5.77875 10.05685 6.0708 10.21875 6.125 C 10.26475 6.14 10.28125 6.15625 10.34375 6.15625 C 10.43675 6.15625 10.507 6.143 10.5625 6.125 C 10.6175 6.108 10.6615 6.0925 10.6875 6.0625 C 10.7925 5.9415 10.7265 5.7246 10.6875 5.5625 C 10.6775 5.5215 10.65525 5.4699 10.65625 5.4375 C 10.65625 5.4045 10.6665 5.395 10.6875 5.375 C 10.7785 5.284 11.03125 6.02925 11.03125 6.15625 C 11.03125 6.21225 11.0625 6.2519 11.0625 6.3125 C 11.0625 6.5376 11.02875 6.59025 10.96875 6.59375 C 10.90875 6.59375 10.8345 6.5405 10.8125 6.5625 C 10.7185 6.6545 10.4605 6.6015 10.375 6.6875 C 10.336 6.7255 10.38675 6.86765 10.34375 6.90625 C 10.29775 6.95225 10.267 6.98985 10.25 7.03125 C 10.233 7.07225 10.25 7.11885 10.25 7.15625 C 10.267 7.30465 10.41225 7.42265 10.46875 7.53125 C 10.49675 7.58525 10.4905 7.6345 10.4375 7.6875 C 10.4175 7.7075 10.38375 7.71775 10.34375 7.71875 C 10.22285 7.71875 10.0603 7.65875 10 7.71875 C 9.969 7.74975 9.9615 7.80825 9.9375 7.84375 C 9.8555 7.96685 9.6369 8.05925 9.5 8.09375 C 9.414 8.11475 9.14485 7.8238 9.09375 7.875 C 9.05975 7.908 8.96985 7.94775 8.90625 7.96875 C 8.85425 7.98575 8.81965 8.00825 8.78125 8.03125 C 8.74625 8.06425 8.7135 8.14175 8.6875 8.21875 C 8.6675 8.27775 8.6765 8.30635 8.6875 8.34375 C 8.6985 8.38075 8.711 8.4175 8.75 8.4375 C 8.777 8.4515 8.7855 8.487 8.8125 8.5 C 8.9513 8.569 9.1377 8.548 9.3125 8.5 C 9.3995 8.476 9.4916 8.44225 9.5625 8.40625 C 9.6335 8.37025 9.68135 8.3505 9.71875 8.3125 C 9.76675 8.2645 9.88015 8.1875 9.96875 8.1875 C 10.06575 8.1875 10 8.33845 10 8.40625 C 10 8.51555 9.84175 8.752 9.78125 8.8125 C 9.76425 8.8245 9.71875 8.82075 9.71875 8.84375 C 9.71875 8.84375 9.9229 8.8125 9.9375 8.8125 C 10.0005 8.8125 10.1843 8.90065 10.25 9.03125 C 10.272 9.07425 10.37655 9.23785 10.40625 9.34375 C 10.99965 8.73395 11.375 7.9184 11.375 7 C 11.375 6.266 11.1477 5.58675 10.75 5.03125 C 10.713 5.07325 10.651 5.1621 10.625 5.1875 C 10.591 5.2215 10.2858 5.18925 10.25 5.15625 C 10.205 5.11125 10.1144 5.0514 10.0625 5 C 9.8994 4.8368 9.7283 4.6142 9.5 4.5 C 9.441 4.47 9.1087 3.9212 9 3.8125 C 9.142 3.8575 9.3044 3.8741 9.4375 3.9375 C 8.9979 3.7289 8.5182 3.59375 8 3.59375 z M 7.71875 6.3125 C 7.63775 6.3325 7.53275 6.3731 7.46875 6.4375 C 7.43375 6.4725 7.5325 6.64615 7.5625 6.78125 C 7.5725 6.82625 7.5785 6.87485 7.5625 6.90625 C 7.5405 6.94925 7.2875 6.86825 7.25 6.90625 C 7.218 6.93825 7.3513 7.1718 7.3125 7.25 C 7.2885 7.298 7.27 7.29325 7.25 7.28125 C 7.23 7.26925 7.2115 7.25 7.1875 7.25 C 7.1875 7.25 7.2005 7.38125 7.1875 7.40625 C 7.1045 7.57235 7.08185 7.6994 6.96875 7.8125 C 6.95875 7.8225 6.823 7.8225 6.8125 7.8125 C 6.7225 7.7225 6.61885 7.61895 6.53125 7.53125 C 6.39845 7.39875 6.1512 7.45845 6.0625 7.28125 C 5.9885 7.13405 5.8372 6.6004 5.6875 6.75 C 5.4982 6.9392 5.2837 7.62735 5.5625 7.90625 C 5.6105 7.95425 5.60525 8.10575 5.65625 8.15625 C 5.69625 8.19625 5.68375 8.30825 5.71875 8.34375 C 5.80475 8.42975 5.77225 8.9807 5.84375 9.125 C 5.88475 9.207 6.0749 9.1496 6.125 9.25 C 6.151 9.302 6.0955 9.48635 6.0625 9.53125 C 6.0075 9.61325 5.9739 9.64625 5.9375 9.65625 C 6.5113 10.10365 7.2157 10.40625 8 10.40625 C 8.2709 10.40625 8.52875 10.34125 8.78125 10.28125 C 8.77125 10.22225 8.771 10.1664 8.75 10.125 C 8.74 10.106 8.38345 9.8948 8.34375 9.875 C 8.17875 9.793 7.9821 9.772 7.8125 9.6875 C 7.7225 9.6425 7.5534 9.631 7.4375 9.625 C 7.3795 9.625 7.3499 9.62675 7.3125 9.59375 C 7.2745 9.56475 7.25 9.5175 7.25 9.4375 C 7.25 9.2834 7.2695 9.2193 7.3125 9.1875 C 7.3555 9.1555 7.415 9.17 7.4375 9.125 C 7.4665 9.067 7.5141 9.0364 7.5625 9 C 7.6045 8.969 7.67335 8.898 7.71875 8.875 C 7.77175 8.85 7.8318 8.8375 7.875 8.8125 C 7.918 8.7875 7.95075 8.75575 7.96875 8.71875 C 8.05875 8.53985 7.7834 8.3701 7.875 8.1875 C 7.886 8.1655 8.1052 8.11375 8.125 8.09375 C 8.215 8.00375 8.1846 7.7564 8.25 7.625 C 8.331 7.4624 8.63275 7.32835 8.71875 7.15625 C 8.76775 7.05825 8.68225 6.9522 8.65625 6.875 C 8.64425 6.822 8.643 6.77195 8.625 6.71875 C 8.607 6.66475 8.55325 6.61575 8.53125 6.59375 C 8.43725 6.49975 8.2711 6.4315 8.125 6.375 C 8.074 6.355 8.0524 6.3235 8 6.3125 C 7.976 6.3025 7.9615 6.3125 7.9375 6.3125 C 7.8635 6.3025 7.78695 6.2995 7.71875 6.3125 z M 10.125 9.3125 C 10.109 9.3225 10.107 9.34 10.125 9.375 C 10.14 9.406 10.1595 9.4225 10.1875 9.4375 C 10.2155 9.4525 10.24525 9.46075 10.28125 9.46875 C 10.31525 9.43775 10.342 9.408 10.375 9.375 C 10.336 9.358 10.2577 9.3235 10.1875 9.3125 C 10.1555 9.3025 10.14 9.3025 10.125 9.3125 z " transform="translate(-3363.4171,2101.7186)" id="path3787"/>
    <path style="font-size:medium;font-style:normal;font-variant:normal;font-weight:normal;font-stretch:normal;text-indent:0;text-align:start;text-decoration:none;line-height:normal;letter-spacing:normal;word-spacing:normal;text-transform:none;direction:ltr;block-progression:tb;writing-mode:lr-tb;text-anchor:start;baseline-shift:baseline;color:#000000;fill:#27303a;fill-opacity:0.923280819999999968;stroke:none;stroke-width:1.13091934;marker:none;visibility:visible;display:inline;overflow:visible;enable-background:accumulate;font-family:Sans;-inkscape-font-specification:Sans" d="M 3.03125 2.03125 C 2.46905 2.59185 1.99685 3.26465 1.65625 3.96875 C 1.31555 4.67285 1.12125 5.43105 1.03125 6.21875 C 0.59205 10.06005 3.3347 13.53085 7.1875 13.96875 L 7.34375 12.78125 C 4.13625 12.41665 1.85305 9.54175 2.21875 6.34375 C 2.36815 5.03745 2.91125 3.83595 3.84375 2.90625 L 3.03125 2.03125 z M 13 2.0625 L 12.125 2.875 C 14.4077 5.1509 14.43905 8.8491 12.15625 11.125 C 11.23215 12.0463 9.985 12.6572 8.6875 12.8125 L 8.84375 14 C 10.40835 13.8127 11.85445 13.111 12.96875 12 L 13 11.96875 C 15.7176 9.23295 15.7334 4.7882 13 2.0625 z M 8 2.375 C 5.4617 2.375 3.375 4.4611 3.375 7 C 3.375 9.539 5.4617 11.625 8 11.625 C 10.5383 11.625 12.625 9.539 12.625 7 C 12.625 4.4611 10.5383 2.375 8 2.375 z M 8 3.59375 C 8.3595374 3.59375 8.7065325 3.6479937 9.03125 3.75 C 9.14205 3.8607 9.47085 4.4071 9.53125 4.4375 C 9.76375 4.5537 9.92765 4.80255 10.09375 4.96875 C 10.14675 5.02175 10.23545 5.04795 10.28125 5.09375 C 10.31825 5.13075 10.6532 5.16 10.6875 5.125 C 10.7055 5.107 10.723589 5.0674604 10.75 5.03125 C 11.147553 5.5888811 11.40625 6.2588912 11.40625 7 C 11.40625 7.92018 11.024605 8.7321451 10.4375 9.34375 C 10.396242 9.2361142 10.30075 9.1015 10.28125 9.0625 C 10.21425 8.9295 10.03265 8.84375 9.96875 8.84375 C 9.95375 8.84375 9.75 8.90825 9.75 8.90625 C 9.75 8.88225 9.7965 8.85675 9.8125 8.84375 C 9.8745 8.78275 10.03125 8.5489 10.03125 8.4375 C 10.03125 8.3685 10.099 8.1875 10 8.1875 C 9.91 8.1875 9.7994 8.2617 9.75 8.3125 C 9.5975 8.4652 9.12645 8.67255 8.84375 8.53125 C 8.81675 8.51725 8.777 8.48175 8.75 8.46875 C 8.67 8.42775 8.6465 8.33925 8.6875 8.21875 C 8.7395 8.06215 8.8094 8.0426 8.9375 8 C 9.0025 7.979 9.0904 7.94045 9.125 7.90625 C 9.177 7.85425 9.44385 8.147 9.53125 8.125 C 9.67055 8.09 9.88515 8.0003 9.96875 7.875 C 9.99275 7.838 10.00025 7.75035 10.03125 7.71875 C 10.11225 7.63675 10.4178 7.7695 10.5 7.6875 C 10.7158 7.4716 9.9973 7.28415 10.375 6.90625 C 10.415 6.86625 10.36325 6.69555 10.40625 6.65625 C 10.49425 6.56925 10.74785 6.6526 10.84375 6.5625 C 10.88875 6.5175 11.125 6.7711 11.125 6.3125 C 11.125 6.2505 11.09375 6.1822 11.09375 6.125 C 11.09375 5.9956 10.81145 5.25105 10.71875 5.34375 C 10.55165 5.51095 11.1309 6.125 10.375 6.125 C 10.312 6.125 10.2968 6.10975 10.25 6.09375 C 10.0852 6.03875 9.9342 5.77955 9.8125 5.71875 C 9.7975 5.70875 9.5734 5.645 9.5625 5.625 C 9.5525 5.611 9.4359 5.47045 9.375 5.53125 C 9.2383 5.66785 9.63225 6.1994 9.53125 6.25 C 9.42905 6.301 9.21195 6.0558 9.15625 6 C 9.12325 5.967 8.8387 5.7236 8.75 5.8125 C 8.736 5.8265 8.70045 5.86575 8.65625 5.84375 C 8.62025 5.82575 8.4834 5.70745 8.4375 5.71875 C 8.2643 5.76275 8.1902 5.8592 8 5.9375 C 7.8666 5.8323 7.72995 5.69535 7.59375 5.59375 C 7.48865 5.51575 7.34325 5.8441 7.28125 5.875 C 7.16515 5.933 7.02525 5.9402 6.90625 6 C 6.74195 6.082 6.6496 5.9178 6.5625 5.875 C 6.4155 5.802 6.311 5.97045 6.25 6.03125 C 6.171 6.11025 5.7727 5.98045 5.6875 6.15625 C 5.5645 6.40235 5.3125 6.8673 5.3125 7.1875 C 5.3125 7.2625 5.28125 7.33675 5.28125 7.40625 C 5.28125 7.42125 5.29125 7.52665 5.28125 7.53125 C 5.16095 7.59225 4.9922 7.2853 4.8125 7.375 C 4.7403689 7.4119672 4.7071444 7.4749705 4.65625 7.53125 C 4.6561049 7.530324 4.6251443 7.5321763 4.625 7.53125 C 4.5978674 7.3571133 4.59375 7.1820672 4.59375 7 C 4.59375 5.1097 6.1102 3.59375 8 3.59375 z M 9.09375 3.78125 C 9.2194347 3.8234994 9.350207 3.8502782 9.46875 3.90625 C 9.3517637 3.8505191 9.217646 3.8235923 9.09375 3.78125 z M 7.71875 6.3125 C 7.9984062 6.2584344 8.339625 6.40175 8.53125 6.59375 C 8.55325 6.61575 8.6048 6.6324 8.625 6.6875 C 8.643 6.7415 8.64325 6.8211 8.65625 6.875 C 8.68225 6.953 8.76935 7.05645 8.71875 7.15625 C 8.63075 7.33145 8.3329 7.4594 8.25 7.625 C 8.183 7.7588 8.2167 8.0328 8.125 8.125 C 8.105 8.145 7.886 8.1655 7.875 8.1875 C 7.781 8.3734 8.05965 8.5678 7.96875 8.75 C 7.89475 8.8994 7.5561 8.91895 7.4375 9.15625 C 7.3915 9.24825 7.25 9.1859 7.25 9.5 C 7.25 9.8274 7.6283 9.62665 7.8125 9.71875 C 7.9853 9.80475 8.207 9.82245 8.375 9.90625 C 8.416 9.92625 8.7403 10.1681 8.75 10.1875 C 8.7669615 10.222231 8.7759558 10.26352 8.78125 10.3125 C 8.5298028 10.371123 8.2699714 10.40625 8 10.40625 C 7.2179563 10.40625 6.510914 10.126249 5.9375 9.6875 C 5.9687224 9.6781496 5.98669 9.66111 6.03125 9.59375 C 6.06225 9.54775 6.0885 9.33395 6.0625 9.28125 C 6.0115 9.17905 5.8542 9.24005 5.8125 9.15625 C 5.7395 9.00925 5.7753 8.43125 5.6875 8.34375 C 5.6515 8.30675 5.666 8.19705 5.625 8.15625 C 5.574 8.10525 5.5482 7.9862 5.5 7.9375 C 5.216 7.6535 5.46455 6.91145 5.65625 6.71875 C 5.80855 6.56645 5.95635 7.13135 6.03125 7.28125 C 6.12225 7.46205 6.3648 7.39695 6.5 7.53125 C 6.589 7.62125 6.7212 7.7211 6.8125 7.8125 C 6.8225 7.8225 6.9317 7.8225 6.9375 7.8125 C 7.0526 7.6974 7.07175 7.57535 7.15625 7.40625 C 7.16925 7.38125 7.15625 7.25 7.15625 7.25 C 7.20525 7.25 7.2636 7.349 7.3125 7.25 C 7.3525 7.171 7.217 6.93845 7.25 6.90625 C 7.289 6.86725 7.5406 6.95025 7.5625 6.90625 C 7.6265 6.77845 7.42135 6.4852 7.46875 6.4375 C 7.541225 6.36505 7.6255313 6.3305219 7.71875 6.3125 z M 4.8125 8.21875 C 4.8545441 8.3253573 4.9163745 8.430525 4.96875 8.53125 C 4.9163673 8.4269033 4.8541601 8.328981 4.8125 8.21875 z M 10.15625 9.34375 C 10.199155 9.3188509 10.340074 9.3778797 10.40625 9.40625 C 10.364239 9.448271 10.325415 9.491475 10.28125 9.53125 C 10.222407 9.5154659 10.182685 9.45912 10.15625 9.40625 C 10.13825 9.3704 10.140359 9.3529719 10.15625 9.34375 z " transform="translate(-3363.4171,2101.7186)" id="path3873"/>
  </g>
</svg>
