<?xml version="1.0" encoding="UTF-8" standalone="no"?>
<!-- Created with Inkscape (http://www.inkscape.org/) -->
<svg xmlns:dc="http://purl.org/dc/elements/1.1/" xmlns:cc="http://creativecommons.org/ns#" xmlns:rdf="http://www.w3.org/1999/02/22-rdf-syntax-ns#" xmlns:svg="http://www.w3.org/2000/svg" xmlns="http://www.w3.org/2000/svg" xmlns:sodipodi="http://sodipodi.sourceforge.net/DTD/sodipodi-0.dtd" xmlns:inkscape="http://www.inkscape.org/namespaces/inkscape" width="18" height="18" id="svg27665" version="1.1" inkscape:version="0.48.4 r9939" sodipodi:docname="wine.svg">
  <defs id="defs27667"/>
  <sodipodi:namedview id="base" pagecolor="#ffffff" bordercolor="#666666" borderopacity="1.0" inkscape:pageopacity="0.0" inkscape:pageshadow="2" inkscape:zoom="44.8" inkscape:cx="9.4697875" inkscape:cy="7.76722" inkscape:document-units="px" inkscape:current-layer="layer1" showgrid="true" inkscape:window-width="1920" inkscape:window-height="1016" inkscape:window-x="-5" inkscape:window-y="27" inkscape:window-maximized="1" inkscape:snap-bbox="true" inkscape:bbox-paths="true" inkscape:bbox-nodes="true" inkscape:snap-bbox-edge-midpoints="true" inkscape:snap-bbox-midpoints="true" inkscape:object-paths="true" inkscape:snap-intersection-paths="true" inkscape:object-nodes="true" inkscape:snap-smooth-nodes="true" inkscape:snap-midpoints="true" inkscape:snap-object-midpoints="true" inkscape:snap-center="true" inkscape:snap-global="true" showguides="true" inkscape:guide-bbox="true" fit-margin-top="0" fit-margin-left="0" fit-margin-right="0" fit-margin-bottom="0" inkscape:showpageshadow="false" inkscape:snap-page="true">
    <inkscape:grid type="xygrid" id="grid3126" empspacing="5" visible="true" enabled="true" snapvisiblegridlinesonly="true" originx="1.9507231e-05px" originy="25.00001px"/>
  </sodipodi:namedview>
  <metadata id="metadata27670">
    <rdf:RDF>
      <cc:Work rdf:about="">
        <dc:format>image/svg+xml</dc:format>
        <dc:type rdf:resource="http://purl.org/dc/dcmitype/StillImage"/>
        <dc:title/>
      </cc:Work>
    </rdf:RDF>
  </metadata>
  <g inkscape:label="Camada 1" inkscape:groupmode="layer" id="layer1" transform="translate(3364.4172,-1859.5163)">
    <path style="color:#000000;fill:#27303a;fill-opacity:0.923280819999999968;fill-rule:nonzero;stroke:none;stroke-width:0.051;marker:none;visibility:visible;display:inline;overflow:visible;enable-background:accumulate" d="M 4 1 C 3 7 6 7 7 10 C 7 10 7.125 10.3597 7.125 11 C 7.125 11.6403 7 12 7 12 C 6.625 14.1228 4 14 4 15 L 8 15 L 12 15 C 12 14 9.375 14.1228 9 12 C 9 12 8.875 11.6403 8.875 11 C 8.875 10.3597 9 10 9 10 C 10 7 13 7 12 1 L 8 1 L 4 1 z " transform="translate(-3363.4172,1860.5163)" id="path2985"/>
    <path style="font-size:medium;font-style:normal;font-variant:normal;font-weight:normal;font-stretch:normal;text-indent:0;text-align:start;text-decoration:none;line-height:normal;letter-spacing:normal;word-spacing:normal;text-transform:none;direction:ltr;block-progression:tb;writing-mode:lr-tb;text-anchor:start;baseline-shift:baseline;color:#000000;fill:#f1f3f5;fill-opacity:0.90288714000000003;fill-rule:nonzero;stroke:none;stroke-width:2;marker:none;visibility:visible;display:inline;overflow:visible;enable-background:accumulate;font-family:Sans;-inkscape-font-specification:Sans" d="M 3 0 L 2.875 0.8125 C 2.3443 3.9964 2.89995 5.9287 3.78125 7.25 C 4.66205 8.5713 5.51525 9.2023 5.90625 10.375 C 5.90625 10.375 5.96875 10.5094 5.96875 11 C 5.96875 11.4906 5.90625 11.625 5.90625 11.625 L 5.875 11.71875 L 5.875 11.8125 C 5.7681 12.4175 5.45725 12.59235 4.84375 12.90625 C 4.53695 13.06315 4.16725 13.1889 3.78125 13.4375 C 3.39515 13.6861 2.84375 14.2469 2.84375 15 L 2.84375 16 L 13.15625 16 L 13.15625 15 C 13.15625 14.2469 12.60475 13.6861 12.21875 13.4375 C 11.83265 13.1889 11.46295 13.06315 11.15625 12.90625 C 10.54265 12.59235 10.2319 12.4175 10.125 11.8125 L 10.125 11.71875 L 10.09375 11.625 C 10.09375 11.625 10.03125 11.4906 10.03125 11 C 10.03125 10.5094 10.09375 10.375 10.09375 10.375 C 10.48465 9.2023 11.33785 8.5713 12.21875 7.25 C 13.09955 5.9287 13.6557 3.9964 13.125 0.8125 L 13 0 L 3 0 z M 4 1 L 8 1 L 12 1 C 13 7 10 7 9 10 C 9 10 8.875 10.3597 8.875 11 C 8.875 11.6403 9 12 9 12 C 9.375 14.1228 12 14 12 15 L 8 15 L 4 15 C 4 14 6.625 14.1228 7 12 C 7 12 7.125 11.6403 7.125 11 C 7.125 10.3597 7 10 7 10 C 6 7 3 7 4 1 z " transform="translate(-3363.4172,1860.5163)" id="use2989"/>
  </g>
</svg>
