<?xml version="1.0" encoding="UTF-8" standalone="no"?>
<!-- Created with Inkscape (http://www.inkscape.org/) -->

<svg
   xmlns:dc="http://purl.org/dc/elements/1.1/"
   xmlns:cc="http://creativecommons.org/ns#"
   xmlns:rdf="http://www.w3.org/1999/02/22-rdf-syntax-ns#"
   xmlns:svg="http://www.w3.org/2000/svg"
   xmlns="http://www.w3.org/2000/svg"
   xmlns:sodipodi="http://sodipodi.sourceforge.net/DTD/sodipodi-0.dtd"
   xmlns:inkscape="http://www.inkscape.org/namespaces/inkscape"
   id="svg13094"
   height="24"
   width="24"
   version="1.1"
   inkscape:version="0.48.3.1 r9886"
   sodipodi:docname="document-share.svg">
  <defs
     id="defs3002" />
  <sodipodi:namedview
     pagecolor="#ffffff"
     bordercolor="#666666"
     borderopacity="1"
     objecttolerance="10"
     gridtolerance="10"
     guidetolerance="10"
     inkscape:pageopacity="0"
     inkscape:pageshadow="2"
     inkscape:window-width="1920"
     inkscape:window-height="1033"
     id="namedview3000"
     showgrid="true"
     inkscape:zoom="22.627417"
     inkscape:cx="7.0846425"
     inkscape:cy="10.62106"
     inkscape:window-x="-10"
     inkscape:window-y="25"
     inkscape:window-maximized="1"
     inkscape:current-layer="svg13094"
     inkscape:snap-bbox="true"
     inkscape:bbox-paths="true"
     inkscape:bbox-nodes="true"
     inkscape:snap-bbox-edge-midpoints="true"
     inkscape:snap-bbox-midpoints="true"
     inkscape:object-paths="true"
     inkscape:snap-intersection-paths="true"
     inkscape:object-nodes="true"
     inkscape:snap-smooth-nodes="true"
     inkscape:snap-midpoints="true"
     inkscape:snap-object-midpoints="true"
     inkscape:snap-center="true"
     inkscape:snap-global="true"
     inkscape:showpageshadow="false"
     showborder="true">
    <inkscape:grid
       type="xygrid"
       id="grid2982"
       empspacing="5"
       visible="true"
       enabled="true"
       snapvisiblegridlinesonly="true" />
  </sodipodi:namedview>
  <metadata
     id="metadata13099">
    <rdf:RDF>
      <cc:Work
         rdf:about="">
        <dc:format>image/svg+xml</dc:format>
        <dc:type
           rdf:resource="http://purl.org/dc/dcmitype/StillImage" />
        <dc:title />
      </cc:Work>
    </rdf:RDF>
  </metadata>
  <path
     style="fill:#434a55;fill-opacity:0.6745098;fill-rule:nonzero;stroke:none"
     d="m 18.53125,1.21875 -4.5625,4.5625 c -1.706598,-0.5401981 -3.620609,-0.378229 -5.25,0.5625 -0.5856394,0.338119 -1.0641367,0.746783 -1.5,1.21875 -1.8163628,1.966815 -2.2693829,4.924525 -1,7.40625 l 1.9375,-1.9375 c -0.3598162,-1.330129 -0.015339,-2.828411 1.03125,-3.875 1.562097,-1.562097 4.094153,-1.562097 5.65625,0 l 5.8125,-5.8125 z m -0.75,7.8125 -1.9375,1.9375 c 0.359816,1.330129 0.04659,2.828411 -1,3.875 -1.562097,1.562098 -4.094153,1.562098 -5.65625,0 l -5.84375,5.8125 2.125,2.125 4.5625,-4.5625 c 1.706597,0.540198 3.62061,0.378229 5.25,-0.5625 3.02428,-1.74607 4.070491,-5.549811 2.5,-8.625 z M 12,10 c -1.104569,0 -2,0.895431 -2,2 0,1.104569 0.895431,2 2,2 1.10457,0 2,-0.895431 2,-2 0,-1.104569 -0.89543,-2 -2,-2 z"
     id="path3766"
     inkscape:connector-curvature="0"
     sodipodi:nodetypes="ccssccscccccsccccscsssss" />
  <path
     style="font-size:medium;font-style:normal;font-variant:normal;font-weight:normal;font-stretch:normal;text-indent:0;text-align:start;text-decoration:none;line-height:normal;letter-spacing:normal;word-spacing:normal;text-transform:none;direction:ltr;block-progression:tb;writing-mode:lr-tb;text-anchor:start;baseline-shift:baseline;color:#000000;fill:#d1d4d6;fill-opacity:0.74329164;fill-rule:nonzero;stroke:none;stroke-width:2;marker:none;visibility:visible;display:inline;overflow:visible;enable-background:accumulate;font-family:Sans;-inkscape-font-specification:Sans"
     d="M 16.0625 2 L 13.53125 4.53125 C 11.726324 4.1626204 9.7750596 4.3417957 8.09375 5.3125 C 7.390634 5.7184442 6.8423584 6.2100905 6.34375 6.75 C 5.0109573 8.1931901 4.3089922 10.079788 4.3125 12 L 5.5 12 C 5.497 11.682141 5.487306 11.375937 5.53125 11.0625 C 5.7128775 9.7670048 6.2480682 8.5459078 7.15625 7.5625 C 7.5921135 7.0905331 8.1331101 6.6818688 8.71875 6.34375 C 10.348141 5.4030213 12.230901 5.2410521 13.9375 5.78125 L 17.75 2 L 16.0625 2 z M 22 2 L 20.65625 3.34375 L 14.84375 9.15625 C 14.463876 8.7763759 14.029251 8.5076171 13.5625 8.3125 C 12.808544 7.9973223 11.977644 7.9268451 11.1875 8.09375 C 10.958192 8.142188 10.68832 8.192211 10.46875 8.28125 C 10.44751 8.2898 10.45856 8.303594 10.4375 8.3125 C 10.194206 8.416252 9.9416813 8.5333086 9.71875 8.6875 C 9.665275 8.724486 9.64577 8.772611 9.59375 8.8125 C 9.449689 8.920862 9.3155161 9.029808 9.1875 9.15625 C 9.101742 9.240954 8.9841102 9.3141303 8.90625 9.40625 C 8.858732 9.46354 8.856305 9.5343898 8.8125 9.59375 C 8.749644 9.677312 8.6500272 9.7552838 8.59375 9.84375 C 8.493947 10.002918 8.4190995 10.174518 8.34375 10.34375 C 8.28751 10.466964 8.262466 10.620462 8.21875 10.75 C 8.1103183 11.078533 8.0224947 11.377454 8 11.71875 C 7.99341 11.81262 7.96875 11.935709 7.96875 12.03125 C 7.96875 12.211851 8.039312 12.35699 8.0625 12.53125 C 8.083216 12.686929 8.118898 12.850311 8.15625 13 L 9.15625 12 C 9.1562496 10.429441 10.39819 9.1562496 11.96875 9.15625 C 13.198298 9.1562493 14.259424 9.9388141 14.65625 11.03125 L 15.53125 10.1875 L 18.53125 7.1875 L 20.53125 5.15625 L 21.5 4.1875 L 23.65625 2 L 22 2 z M 15.8125 11.03125 L 14.84375 11.96875 C 14.843962 11.98306 14.843751 12.01689 14.84375 12.03125 C 14.843751 13.60181 13.57056 14.843751 12 14.84375 C 10.763185 14.843751 9.70392 14.040089 9.3125 12.9375 L 8.4375 13.84375 L 5.71875 16.59375 L 4.65625 17.65625 L 2.46875 19.8125 L 0.28125 22 L 1.96875 22 L 3.3125 20.65625 L 9.125 14.84375 C 9.193865 14.91262 9.3012834 14.967531 9.375 15.03125 C 9.481252 15.12404 9.605381 15.201836 9.71875 15.28125 C 9.742431 15.29763 9.757209 15.32787 9.78125 15.34375 C 9.9863675 15.481038 10.183968 15.592659 10.40625 15.6875 C 10.90562 15.900565 11.434319 16.029156 11.96875 16.03125 C 12.235965 16.03225 12.4874 15.98835 12.75 15.9375 C 13.017385 15.88572 13.309652 15.791673 13.5625 15.6875 C 13.803841 15.58807 14.0285 15.462122 14.25 15.3125 C 14.452813 15.175505 14.662748 15.024752 14.84375 14.84375 C 14.970981 14.71652 15.078263 14.580862 15.1875 14.4375 C 15.23071 14.38 15.26498 14.312453 15.3125 14.25 C 15.38377 14.15631 15.448725 14.061278 15.5 13.96875 C 15.57392 13.835364 15.635137 13.699759 15.6875 13.5625 C 15.6964 13.54144 15.679 13.52123 15.6875 13.5 C 15.77387 13.278012 15.852589 13.040215 15.90625 12.8125 C 15.97027 12.54084 16.035233 12.311845 16.03125 12.03125 C 16.02895 11.869126 15.93255 11.662403 15.90625 11.5 C 15.90465 11.4902 15.90765 11.47846 15.90625 11.46875 C 15.88502 11.309208 15.85197 11.184275 15.8125 11.03125 z M 18.5 12 C 18.52003 14.266058 17.379297 16.476191 15.28125 17.6875 C 13.65186 18.628229 11.737847 18.758948 10.03125 18.21875 L 6.28125 22 L 7.875 22 L 10.40625 19.5 C 12.211176 19.86863 14.162442 19.658205 15.84375 18.6875 C 18.320287 17.25767 19.698237 14.667314 19.6875 12 L 18.5 12 z "
     id="path3818" />
</svg>
