<?xml version="1.0" encoding="UTF-8" standalone="no"?>
<!-- Created with Inkscape (http://www.inkscape.org/) -->

<svg
   xmlns:dc="http://purl.org/dc/elements/1.1/"
   xmlns:cc="http://creativecommons.org/ns#"
   xmlns:rdf="http://www.w3.org/1999/02/22-rdf-syntax-ns#"
   xmlns:svg="http://www.w3.org/2000/svg"
   xmlns="http://www.w3.org/2000/svg"
   xmlns:sodipodi="http://sodipodi.sourceforge.net/DTD/sodipodi-0.dtd"
   xmlns:inkscape="http://www.inkscape.org/namespaces/inkscape"
   version="1.0"
   width="24"
   height="24"
   id="svg2"
   inkscape:version="0.48.3.1 r9886"
   sodipodi:docname="nospeak.svg">
  <sodipodi:namedview
     pagecolor="#ffffff"
     bordercolor="#666666"
     borderopacity="1"
     objecttolerance="10"
     gridtolerance="10"
     guidetolerance="10"
     inkscape:pageopacity="0"
     inkscape:pageshadow="2"
     inkscape:window-width="1920"
     inkscape:window-height="1033"
     id="namedview32"
     showgrid="true"
     inkscape:zoom="22.627418"
     inkscape:cx="14.996272"
     inkscape:cy="10.442528"
     inkscape:window-x="-10"
     inkscape:window-y="25"
     inkscape:window-maximized="1"
     inkscape:current-layer="svg2"
     inkscape:snap-bbox="true"
     inkscape:bbox-paths="true"
     inkscape:bbox-nodes="true"
     inkscape:snap-bbox-edge-midpoints="true"
     inkscape:snap-bbox-midpoints="true"
     inkscape:object-paths="true"
     inkscape:snap-intersection-paths="true"
     inkscape:object-nodes="true"
     inkscape:snap-smooth-nodes="true"
     inkscape:snap-midpoints="true"
     inkscape:snap-object-midpoints="true"
     inkscape:snap-center="true"
     fit-margin-top="0"
     fit-margin-left="0"
     fit-margin-right="0"
     fit-margin-bottom="0"
     inkscape:snap-global="true">
    <inkscape:grid
       type="xygrid"
       id="grid3218"
       empspacing="5"
       visible="true"
       enabled="true"
       snapvisiblegridlinesonly="true"
       originx="-11px"
       originy="18px" />
  </sodipodi:namedview>
  <metadata
     id="metadata11">
    <rdf:RDF>
      <cc:Work
         rdf:about="">
        <dc:format>image/svg+xml</dc:format>
        <dc:type
           rdf:resource="http://purl.org/dc/dcmitype/StillImage" />
        <dc:title />
      </cc:Work>
    </rdf:RDF>
  </metadata>
  <defs
     id="defs4" />
  <path
     style="color:#000000;fill:#434a55;fill-opacity:0.6745098;fill-rule:nonzero;stroke:none;stroke-width:2.28571415;marker:none;visibility:visible;display:inline;overflow:visible;enable-background:accumulate"
     d="m 20.46875,2.46875 -18,18 1.0625,1.0625 L 8.1875,16.875 9.40625,17.34375 11.21875,19.625 11.53125,20 12,20 l 3,0 1,0 0,-1 0,-9.9375 5.53125,-5.53125 -1.0625,-1.0625 z M 11.53125,4 11.21875,4.375 9.40625,6.65625 5.65625,8.0625 5,8.3125 5,9 5,15 5,15.6875 5.1875,15.75 16,4.9375 16,4 15,4 12,4 11.53125,4 z"
     id="path3576-6"
     inkscape:connector-curvature="0" />
  <path
     style="font-size:medium;font-style:normal;font-variant:normal;font-weight:normal;font-stretch:normal;text-indent:0;text-align:start;text-decoration:none;line-height:normal;letter-spacing:normal;word-spacing:normal;text-transform:none;direction:ltr;block-progression:tb;writing-mode:lr-tb;text-anchor:start;baseline-shift:baseline;color:#000000;fill:#d1d4d6;fill-opacity:0.74329164;fill-rule:nonzero;stroke:none;stroke-width:2;marker:none;visibility:visible;display:inline;overflow:visible;enable-background:accumulate;font-family:Sans;-inkscape-font-specification:Sans"
     d="M 19.46875,1.46875 17,3.9375 17,3 16,3 15,3 12,3 11.5,3 11.03125,3 10.71875,3.1875 10.4375,3.5625 8.78125,5.46875 5.28125,6.9375 4.625,7.375 4,7.625 4,8.3125 4,9 l 0,6 0,0.6875 0,0.6875 0.40625,0.15625 -2.9375,2.9375 1.0625,1.0625 18,-18 -1.0625,-1.0625 z M 11.53125,4 12,4 15,4 16,4 16,4.9375 5.1875,15.75 5,15.6875 5,15 5,9 5,8.3125 5.65625,8.0625 9.40625,6.65625 11.21875,4.375 11.53125,4 z M 17,8.0625 l -1,1 0,9.9375 0,1 -1,0 -3,0 -0.46875,0 -0.3125,-0.375 -1.8125,-2.28125 -1.21875,-0.46875 -1,1 1.59375,0.65625 c 0.5534,0.607 1.38405,1.69425 1.65625,1.90625 l 0.28125,0.375 0.3125,0.1875 0.46875,0 0.5,0 3,0 1,0 1,0 0,-1 0,-1 0,-10.9375 z"
     id="path3318-8"
     inkscape:connector-curvature="0" />
  <path
     style="color:#000000;fill:#434a55;fill-opacity:0.6745098;fill-rule:nonzero;stroke:none;stroke-width:2;marker:none;visibility:visible;display:inline;overflow:visible;enable-background:accumulate"
     d="m 18,11 4,0 0,2 -4,0 z"
     id="rect3009"
     inkscape:connector-curvature="0"
     sodipodi:nodetypes="ccccc" />
  <path
     style="color:#000000;fill:#434a55;fill-opacity:0.6745098;fill-rule:nonzero;stroke:none;stroke-width:2;marker:none;visibility:visible;display:inline;overflow:visible;enable-background:accumulate"
     d="m 17,16 4,1 0,2 -4,-1 z"
     id="rect3005"
     inkscape:connector-curvature="0"
     sodipodi:nodetypes="ccccc" />
  <rect
     y="5"
     x="21"
     height="2"
     width="1"
     id="rect3040"
     style="color:#000000;fill:#d1d4d6;fill-opacity:0.74329164;fill-rule:nonzero;stroke:none;stroke-width:2;marker:none;visibility:visible;display:inline;overflow:visible;enable-background:accumulate" />
  <rect
     y="11"
     x="22"
     height="2"
     width="1"
     id="rect3042"
     style="color:#000000;fill:#d1d4d6;fill-opacity:0.74329164;fill-rule:nonzero;stroke:none;stroke-width:2;marker:none;visibility:visible;display:inline;overflow:visible;enable-background:accumulate" />
  <rect
     style="color:#000000;fill:#d1d4d6;fill-opacity:0.74329164;fill-rule:nonzero;stroke:none;stroke-width:2;marker:none;visibility:visible;display:inline;overflow:visible;enable-background:accumulate"
     id="rect3014"
     width="1"
     height="2"
     x="21"
     y="17" />
</svg>
