<?xml version="1.0" encoding="UTF-8" standalone="no"?>
<!-- Created with Inkscape (http://www.inkscape.org/) -->

<svg
   xmlns:dc="http://purl.org/dc/elements/1.1/"
   xmlns:cc="http://creativecommons.org/ns#"
   xmlns:rdf="http://www.w3.org/1999/02/22-rdf-syntax-ns#"
   xmlns:svg="http://www.w3.org/2000/svg"
   xmlns="http://www.w3.org/2000/svg"
   xmlns:sodipodi="http://sodipodi.sourceforge.net/DTD/sodipodi-0.dtd"
   xmlns:inkscape="http://www.inkscape.org/namespaces/inkscape"
   width="24"
   height="24"
   id="svg13094"
   version="1.1"
   inkscape:version="0.48.3.1 r9886"
   sodipodi:docname="object-rotate-left.svg">
  <sodipodi:namedview
     id="base"
     pagecolor="#ffffff"
     bordercolor="#666666"
     borderopacity="1.0"
     inkscape:pageopacity="0.0"
     inkscape:pageshadow="2"
     inkscape:zoom="32.000002"
     inkscape:cx="13.953937"
     inkscape:cy="12.126776"
     inkscape:document-units="px"
     inkscape:current-layer="layer1"
     showgrid="true"
     inkscape:snap-bbox="true"
     inkscape:bbox-paths="true"
     inkscape:bbox-nodes="true"
     inkscape:snap-bbox-edge-midpoints="true"
     inkscape:snap-bbox-midpoints="true"
     inkscape:object-paths="true"
     inkscape:snap-intersection-paths="true"
     inkscape:object-nodes="true"
     inkscape:snap-smooth-nodes="true"
     inkscape:snap-midpoints="true"
     inkscape:snap-object-midpoints="true"
     inkscape:snap-center="true"
     showguides="true"
     inkscape:guide-bbox="true"
     inkscape:window-width="1920"
     inkscape:window-height="1023"
     inkscape:window-x="-10"
     inkscape:window-y="35"
     inkscape:window-maximized="1"
     inkscape:snap-global="true"
     fit-margin-top="0"
     fit-margin-left="0"
     fit-margin-right="0"
     fit-margin-bottom="0"
     showborder="true"
     inkscape:showpageshadow="false">
    <inkscape:grid
       type="xygrid"
       id="grid3183"
       empspacing="5"
       visible="true"
       enabled="true"
       snapvisiblegridlinesonly="true"
       originx="9.5192791e-05px"
       originy="10.999988px" />
  </sodipodi:namedview>
  <defs
     id="defs13096" />
  <metadata
     id="metadata13099">
    <rdf:RDF>
      <cc:Work
         rdf:about="">
        <dc:format>image/svg+xml</dc:format>
        <dc:type
           rdf:resource="http://purl.org/dc/dcmitype/StillImage" />
        <dc:title />
      </cc:Work>
    </rdf:RDF>
  </metadata>
  <g
     transform="translate(9398.6161,-4989.8786)"
     id="layer1"
     inkscape:groupmode="layer"
     inkscape:label="Camada 1">
    <path
       style="fill:#434a55;fill-opacity:0.6745098;fill-rule:nonzero;stroke:none"
       d="M 14 4 L 14 9 L 15.46875 7.5625 L 15.71875 7.3125 C 18.02705 9.1254 18.6987 12.3825 17.1875 15 C 15.5306 17.8698 11.8698 18.8444 9 17.1875 C 7.0766821 16.077058 5.9991879 14.069249 6 12 L 4 12 C 4.0059333 14.764357 5.436379 17.457403 8 18.9375 C 11.8263 21.1466 16.7284 19.8263 18.9375 16 C 20.905 12.5922 20.06485 8.327 17.15625 5.875 L 19 4 L 14 4 z M 11 11 L 11 12 L 11 13 L 13 13 L 13 11 L 12 11 L 11 11 z "
       transform="translate(-9398.6161,4989.8786)"
       id="path2997" />
    <path
       style="color:#000000;fill:#d1d4d6;fill-opacity:0.74329164;fill-rule:nonzero;stroke:none;stroke-width:2;marker:none;visibility:visible;display:inline;overflow:visible;enable-background:accumulate"
       d="m 13,3 0,1 0,0.0625 0,2.03125 L 13,7.25 13,10 14,10 14,4.1875 14,4 16.5,4 20,4 20,3 14,3 13.96875,3 z M 18,5.03125 17.15625,5.875 c 0.02264,0.019082 0.04012,0.0432 0.0625,0.0625 0.149603,0.1290509 0.297865,0.2666154 0.4375,0.40625 0.161149,0.1614833 0.323326,0.3269507 0.46875,0.5 0.0093,0.011097 0.02199,0.020108 0.03125,0.03125 0.0094,0.011228 0.02194,0.019971 0.03125,0.03125 0.138397,0.168398 0.251597,0.3533108 0.375,0.53125 0.02166,0.0311 0.04127,0.06233 0.0625,0.09375 0.107337,0.1596414 0.217284,0.3025163 0.3125,0.46875 0.03486,0.060341 0.06044,0.126177 0.09375,0.1875 0.07627,0.1414747 0.151217,0.2920553 0.21875,0.4375 0.03976,0.085404 0.0882,0.1629902 0.125,0.25 0.01279,0.030237 0.01884,0.063368 0.03125,0.09375 0.08783,0.2149909 0.149825,0.4348031 0.21875,0.65625 0.02947,0.09467 0.06779,0.1855781 0.09375,0.28125 0.04267,0.157938 0.09192,0.307099 0.125,0.46875 0.01465,0.06985 0.01846,0.148513 0.03125,0.21875 0.03395,0.192178 0.07378,0.397099 0.09375,0.59375 0.02574,0.248948 0.02891,0.498855 0.03125,0.75 8.2e-5,0.01059 -4.1e-5,0.02065 0,0.03125 0.0012,0.219334 -0.01425,0.436511 -0.03125,0.65625 -0.0049,0.06238 0.0063,0.125529 0,0.1875 -0.01697,0.167848 -0.03469,0.332688 -0.0625,0.5 -0.0168,0.102189 -0.04186,0.211655 -0.0625,0.3125 -0.0087,0.04176 -0.0219,0.08332 -0.03125,0.125 -0.0049,0.02196 -0.02613,0.04056 -0.03125,0.0625 -0.04755,0.190512 -0.09804,0.375353 -0.15625,0.5625 -0.03177,0.101958 -0.05766,0.211318 -0.09375,0.3125 -0.05151,0.144546 -0.09679,0.296925 -0.15625,0.4375 -0.01321,0.03104 -0.01762,0.06281 -0.03125,0.09375 -0.01517,0.03443 -0.04681,0.05945 -0.0625,0.09375 -0.188272,0.406285 -0.407377,0.787868 -0.65625,1.15625 -0.04699,0.06964 -0.07615,0.15102 -0.125,0.21875 -0.06514,0.09891 -0.145139,0.188291 -0.21875,0.28125 -0.03259,0.0411 -0.06038,0.08456 -0.09375,0.125 -0.231298,0.280597 -0.487696,0.538995 -0.75,0.78125 -0.03862,0.03438 -0.08668,0.05959 -0.125,0.09375 -0.156599,0.138963 -0.302949,0.280936 -0.46875,0.40625 -0.120458,0.09173 -0.249319,0.165092 -0.375,0.25 -0.09215,0.06189 -0.186852,0.12964 -0.28125,0.1875 -0.05925,0.03649 -0.127237,0.05877 -0.1875,0.09375 -0.163609,0.09455 -0.330665,0.198713 -0.5,0.28125 -0.02841,0.01502 -0.06519,0.01657 -0.09375,0.03125 -0.202212,0.09546 -0.38476,0.203089 -0.59375,0.28125 -0.140422,0.0526 -0.29346,0.0802 -0.4375,0.125 -0.102185,0.03187 -0.209147,0.06597 -0.3125,0.09375 -0.02242,0.006 -0.04,0.02548 -0.0625,0.03125 -0.08025,0.02085 -0.169137,0.01288 -0.25,0.03125 -0.313649,0.07125 -0.616915,0.154193 -0.9375,0.1875 C 12.543409,19.996707 12.271622,19.999417 12,20 11.732242,20.000575 11.455642,19.9953 11.1875,19.96875 11.12532,19.96245 11.061753,19.94523 11,19.9375 10.785547,19.91109 10.588204,19.88796 10.375,19.84375 10.33209,19.83495 10.29266,19.82196 10.25,19.8125 10.044075,19.76618 9.8285818,19.688308 9.625,19.625 9.574899,19.60942 9.5184232,19.61029 9.46875,19.59375 9.3005682,19.5378 9.1345595,19.474082 8.96875,19.40625 8.9386558,19.393954 8.9049096,19.387651 8.875,19.375 8.6390594,19.275026 8.4170548,19.155855 8.1875,19.03125 8.126177,18.997937 8.0603412,18.972356 8,18.9375 7.8347095,18.84207 7.6871051,18.730177 7.53125,18.625 7.4609014,18.577526 7.3823207,18.545978 7.3125,18.5 7.2336,18.44309 7.17004,18.371851 7.09375,18.3125 7.07535,18.2987 7.049337,18.29557 7.03125,18.28125 6.996613,18.25379 6.970672,18.21643 6.9375,18.1875 6.897114,18.15442 6.852108,18.12751 6.8125,18.09375 6.7728915,18.059985 6.7263269,18.034432 6.6875,18 6.4485208,17.788069 6.2401167,17.547874 6.03125,17.3125 5.9185697,17.186114 5.792084,17.070891 5.6875,16.9375 5.6646069,16.908084 5.6465377,16.874546 5.625,16.84375 5.5353808,16.725177 5.457527,16.591618 5.375,16.46875 5.3120732,16.375606 5.2465504,16.283381 5.1875,16.1875 5.1513835,16.128577 5.1282818,16.059753 5.09375,16 4.9972412,15.833721 4.8970943,15.673592 4.8125,15.5 4.7499856,15.371743 4.6805228,15.256177 4.625,15.125 4.6072891,15.083127 4.5795145,15.042234 4.5625,15 4.5428646,14.951226 4.5472178,14.894176 4.53125,14.84375 4.4731903,14.690946 4.4236369,14.530918 4.375,14.375 4.342463,14.270389 4.3095597,14.168903 4.28125,14.0625 4.2753799,14.040662 4.2556864,14.021886 4.25,14 4.2048449,13.824088 4.1582729,13.649121 4.125,13.46875 4.12112,13.44823 4.12867,13.42667 4.125,13.40625 4.0886557,13.20589 4.0523268,13.01537 4.03125,12.8125 4.0032934,12.543409 4.000583,12.271622 4,12 l -1,0 0,1.96875 C 3.7669,17.46915 6.53095,20.2331 10.03125,21 l 3.9375,0 C 17.46915,20.2331 20.2331,17.46915 21,13.96875 l 0,-3.9375 c -0.433704,-1.9795225 -1.51676,-3.7195203 -3,-5 z m -2.28125,2.28125 -0.25,0.25 -0.5625,0.5625 c 1.176064,0.883847 1.9375,2.290599 1.9375,3.875 0,2.6751 -2.16865,4.84375 -4.84375,4.84375 L 12,18 c 0.51526,2.02e-4 1.036264,-0.08932 1.53125,-0.21875 0.0099,-0.0026 0.0214,0.0026 0.03125,0 0.18513,-0.04941 0.351541,-0.08934 0.53125,-0.15625 0.02138,-0.008 0.04121,-0.02304 0.0625,-0.03125 0.161535,-0.06225 0.313827,-0.143786 0.46875,-0.21875 0.151309,-0.07355 0.292365,-0.132336 0.4375,-0.21875 0.02043,-0.01214 0.04223,-0.01887 0.0625,-0.03125 0.234562,-0.143545 0.472804,-0.323327 0.6875,-0.5 0.08541,-0.07049 0.168651,-0.143722 0.25,-0.21875 0.06108,-0.05641 0.128537,-0.09701 0.1875,-0.15625 0.07824,-0.07824 0.144907,-0.167554 0.21875,-0.25 0.05372,-0.06058 0.104717,-0.124365 0.15625,-0.1875 0.07492,-0.09078 0.149182,-0.1861 0.21875,-0.28125 0.04221,-0.05853 0.08463,-0.127051 0.125,-0.1875 C 17.04671,15.228346 17.117544,15.12093 17.1875,15 17.359368,14.702313 17.508795,14.404917 17.625,14.09375 17.63636,14.06319 17.64538,14.03079 17.65625,14 c 0.02535,-0.07143 0.04001,-0.14684 0.0625,-0.21875 0.08555,-0.273485 0.142572,-0.56592 0.1875,-0.84375 0.05504,-0.340337 0.0979,-0.659888 0.09375,-1 -1.04e-4,-0.01031 1.56e-4,-0.02096 0,-0.03125 -3.56e-4,-0.02034 5.64e-4,-0.04218 0,-0.0625 -0.0092,-0.329928 -0.062,-0.677825 -0.125,-1 -0.0039,-0.01981 0.0041,-0.04273 0,-0.0625 C 17.8084,10.455763 17.710739,10.14771 17.59375,9.84375 17.23011,8.9009425 16.633352,8.0448983 15.8125,7.375 15.783809,7.3513222 15.747885,7.3356511 15.71875,7.3125 z"
       transform="translate(-9398.6161,4989.8786)"
       id="path3003"
       inkscape:connector-curvature="0"
       sodipodi:nodetypes="cccccccccccccccccccccccccccccccccccccccccccccccccccccccccccccccsssccccscccccscccccscccccccccccccccscccccccccccsccccccccccccccccccccccccccccc" />
  </g>
</svg>
