<?xml version="1.0" encoding="UTF-8" standalone="no"?>
<!-- Created with Inkscape (http://www.inkscape.org/) -->

<svg
   xmlns:dc="http://purl.org/dc/elements/1.1/"
   xmlns:cc="http://creativecommons.org/ns#"
   xmlns:rdf="http://www.w3.org/1999/02/22-rdf-syntax-ns#"
   xmlns:svg="http://www.w3.org/2000/svg"
   xmlns="http://www.w3.org/2000/svg"
   xmlns:sodipodi="http://sodipodi.sourceforge.net/DTD/sodipodi-0.dtd"
   xmlns:inkscape="http://www.inkscape.org/namespaces/inkscape"
   width="24"
   height="24"
   id="svg13094"
   version="1.1"
   inkscape:version="0.48.3.1 r9886"
   sodipodi:docname="gnome-lockscreen.svg">
  <sodipodi:namedview
     id="base"
     pagecolor="#ffffff"
     bordercolor="#666666"
     borderopacity="1.0"
     inkscape:pageopacity="0.0"
     inkscape:pageshadow="2"
     inkscape:zoom="32.000003"
     inkscape:cx="11.395898"
     inkscape:cy="12.961066"
     inkscape:document-units="px"
     inkscape:current-layer="layer1"
     showgrid="true"
     inkscape:snap-bbox="true"
     inkscape:bbox-paths="true"
     inkscape:bbox-nodes="true"
     inkscape:snap-bbox-edge-midpoints="true"
     inkscape:snap-bbox-midpoints="true"
     inkscape:object-paths="true"
     inkscape:snap-intersection-paths="true"
     inkscape:object-nodes="true"
     inkscape:snap-smooth-nodes="true"
     inkscape:snap-midpoints="true"
     inkscape:snap-object-midpoints="true"
     inkscape:snap-center="true"
     showguides="true"
     inkscape:guide-bbox="true"
     inkscape:window-width="1920"
     inkscape:window-height="1027"
     inkscape:window-x="-10"
     inkscape:window-y="31"
     inkscape:window-maximized="1"
     inkscape:snap-global="true"
     fit-margin-top="0"
     fit-margin-left="0"
     fit-margin-right="0"
     fit-margin-bottom="0"
     showborder="true"
     inkscape:showpageshadow="false">
    <inkscape:grid
       type="xygrid"
       id="grid3183"
       empspacing="5"
       visible="true"
       enabled="true"
       snapvisiblegridlinesonly="true"
       originx="9.5192791e-05px"
       originy="10.999988px" />
  </sodipodi:namedview>
  <defs
     id="defs13096" />
  <metadata
     id="metadata13099">
    <rdf:RDF>
      <cc:Work
         rdf:about="">
        <dc:format>image/svg+xml</dc:format>
        <dc:type
           rdf:resource="http://purl.org/dc/dcmitype/StillImage" />
        <dc:title />
      </cc:Work>
    </rdf:RDF>
  </metadata>
  <g
     transform="translate(9398.6161,-4989.8786)"
     id="layer1"
     inkscape:groupmode="layer"
     inkscape:label="Camada 1">
    <path
       id="path3039"
       d="m -9388.5848,4992.8786 c -3.5004,0.7669 -6.2644,3.5309 -7.0313,7.0312 l 0,3.9375 c 0.7669,3.5004 3.5309,6.2644 7.0313,7.0313 l 3.9375,0 c 3.5003,-0.7669 6.2643,-3.5309 7.0312,-7.0313 l 0,-3.9375 c -0.7669,-3.5003 -3.5309,-6.2643 -7.0312,-7.0312 z m 1.9687,1 c 4.4183,0 8,3.5817 8,8 0,4.4183 -3.5817,8 -8,8 -4.4183,0 -8,-3.5817 -8,-8 0,-4.4183 3.5817,-8 8,-8 z"
       style="color:#000000;fill:#d1d4d6;fill-opacity:0.74329164;fill-rule:nonzero;stroke:none;stroke-width:2;marker:none;visibility:visible;display:inline;overflow:visible;enable-background:accumulate"
       inkscape:connector-curvature="0"
       sodipodi:nodetypes="cccccccccsssss" />
    <path
       inkscape:connector-curvature="0"
       id="path3036"
       d="m -9386.6161,4993.8786 c -4.4183,0 -8,3.5817 -8,8 0,4.4183 3.5817,8 8,8 4.4183,0 8,-3.5817 8,-8 0,-4.4183 -3.5817,-8 -8,-8 z m 0,2 c 3.3137,0 6,2.6863 6,6 0,3.3137 -2.6863,6 -6,6 -3.3137,0 -6,-2.6863 -6,-6 0,-3.3137 2.6863,-6 6,-6 z"
       style="fill:#434a55;fill-opacity:0.6745098;fill-rule:nonzero;stroke:none" />
    <path
       inkscape:connector-curvature="0"
       id="path3041"
       d="m -9386.6161,4997.8786 c -1.1046,0 -2,0.8954 -2,2 0,0.7396 0.4031,1.3728 1,1.7187 l 0,3.2813 c 0,0.554 0.446,1 1,1 0.554,0 1,-0.446 1,-1 l 0,-3.2813 c 0.5969,-0.3459 1,-0.9791 1,-1.7187 0,-1.1046 -0.8954,-2 -2,-2 z"
       style="fill:#434a55;fill-opacity:0.6745098;fill-rule:nonzero;stroke:none" />
    <path
       style="font-size:medium;font-style:normal;font-variant:normal;font-weight:normal;font-stretch:normal;text-indent:0;text-align:start;text-decoration:none;line-height:normal;letter-spacing:normal;word-spacing:normal;text-transform:none;direction:ltr;block-progression:tb;writing-mode:lr-tb;text-anchor:start;baseline-shift:baseline;color:#000000;fill:#d1d4d6;fill-opacity:0.74329164;fill-rule:nonzero;stroke:none;stroke-width:2;marker:none;visibility:visible;display:inline;overflow:visible;enable-background:accumulate;font-family:Sans;-inkscape-font-specification:Sans"
       d="m 11.999995,6.8437444 c -1.73068,0 -3.1562549,1.4255752 -3.1562549,3.156255 C 8.8437401,10.887328 9.4352,11.55115 10,12.09375 L 10,15 c 0,1.0907 0.9093,2 2,2 1.0907,0 2,-0.9093 2,-2 l 0,-2.90625 c 0.5692,-0.543 1.15625,-1.202424 1.15625,-2.0937506 0,-1.7306798 -1.425575,-3.156255 -3.156255,-3.156255 z M 12,8 c 1.1046,0 2,0.8954 2,2 0,0.7396 -0.4031,1.37285 -1,1.71875 L 13,15 c 0,0.554 -0.446,1 -1,1 -0.554,0 -1,-0.446 -1,-1 l 0,-3.28125 C 10.4031,11.37285 10,10.7396 10,10 10,8.8954 10.8954,8 12,8 z"
       transform="translate(-9398.6161,4989.8786)"
       id="path3004"
       inkscape:connector-curvature="0"
       sodipodi:nodetypes="sscssscsssscssscss" />
  </g>
</svg>
