<?xml version="1.0" encoding="UTF-8" standalone="no"?>
<!-- Created with Inkscape (http://www.inkscape.org/) -->

<svg
   xmlns:dc="http://purl.org/dc/elements/1.1/"
   xmlns:cc="http://creativecommons.org/ns#"
   xmlns:rdf="http://www.w3.org/1999/02/22-rdf-syntax-ns#"
   xmlns:svg="http://www.w3.org/2000/svg"
   xmlns="http://www.w3.org/2000/svg"
   xmlns:sodipodi="http://sodipodi.sourceforge.net/DTD/sodipodi-0.dtd"
   xmlns:inkscape="http://www.inkscape.org/namespaces/inkscape"
   width="22"
   height="22"
   id="svg27665"
   version="1.1"
   inkscape:version="0.48.3.1 r9886"
   sodipodi:docname="applications-other.svg">
  <defs
     id="defs27667" />
  <sodipodi:namedview
     id="base"
     pagecolor="#ffffff"
     bordercolor="#666666"
     borderopacity="1.0"
     inkscape:pageopacity="0.0"
     inkscape:pageshadow="2"
     inkscape:zoom="22.627417"
     inkscape:cx="17.705708"
     inkscape:cy="11.737762"
     inkscape:document-units="px"
     inkscape:current-layer="layer1"
     showgrid="true"
     inkscape:window-width="1920"
     inkscape:window-height="1033"
     inkscape:window-x="-10"
     inkscape:window-y="25"
     inkscape:window-maximized="1"
     inkscape:snap-bbox="true"
     inkscape:bbox-paths="true"
     inkscape:bbox-nodes="true"
     inkscape:snap-bbox-edge-midpoints="true"
     inkscape:snap-bbox-midpoints="true"
     inkscape:object-paths="true"
     inkscape:snap-intersection-paths="true"
     inkscape:object-nodes="true"
     inkscape:snap-smooth-nodes="true"
     inkscape:snap-midpoints="true"
     inkscape:snap-object-midpoints="true"
     inkscape:snap-center="true"
     inkscape:snap-global="true"
     showguides="false"
     inkscape:guide-bbox="true"
     fit-margin-top="0"
     fit-margin-left="0"
     fit-margin-right="0"
     fit-margin-bottom="0"
     inkscape:showpageshadow="false">
    <sodipodi:guide
       orientation="0,1"
       position="599.99999,299.99993"
       id="guide3572" />
    <sodipodi:guide
       orientation="1,0"
       position="294.41949,12.121716"
       id="guide3574" />
    <sodipodi:guide
       orientation="0,1"
       position="456.04389,599.99992"
       id="guide3576" />
    <sodipodi:guide
       orientation="0,1"
       position="-2.8882813e-06,-8.4406273e-05"
       id="guide3578" />
    <sodipodi:guide
       orientation="1,0"
       position="-2.8882813e-06,157.58366"
       id="guide3580" />
    <sodipodi:guide
       orientation="1,0"
       position="599.99999,121.21821"
       id="guide3582" />
    <sodipodi:guide
       orientation="0,1"
       position="599.99999,-714.34359"
       id="guide5928" />
    <sodipodi:guide
       orientation="0,1"
       position="599.99999,-414.34359"
       id="guide5930" />
    <sodipodi:guide
       orientation="0,1"
       position="599.99999,-1014.3435"
       id="guide5932" />
    <sodipodi:guide
       orientation="0,1"
       position="451.57029,524.99606"
       id="guide5294" />
    <sodipodi:guide
       orientation="0,1"
       position="451.57029,75.013516"
       id="guide5296" />
    <sodipodi:guide
       orientation="0,1"
       position="496.01499,-931.36409"
       id="guide5413" />
    <sodipodi:guide
       orientation="0,1"
       position="457.34859,-489.34389"
       id="guide5415" />
    <inkscape:grid
       type="xygrid"
       id="grid3070"
       empspacing="5"
       visible="true"
       enabled="true"
       snapvisiblegridlinesonly="true"
       originx="4.3243213e-05px"
       originy="-2.6947047e-05px" />
  </sodipodi:namedview>
  <metadata
     id="metadata27670">
    <rdf:RDF>
      <cc:Work
         rdf:about="">
        <dc:format>image/svg+xml</dc:format>
        <dc:type
           rdf:resource="http://purl.org/dc/dcmitype/StillImage" />
        <dc:title />
      </cc:Work>
    </rdf:RDF>
  </metadata>
  <g
     inkscape:label="Camada 1"
     inkscape:groupmode="layer"
     id="layer1"
     transform="translate(3364.4171,-2094.7186)">
    <path
       style="color:#000000;fill:#d1d4d6;fill-opacity:0.74329164;fill-rule:nonzero;stroke:none;stroke-width:2;marker:none;visibility:visible;display:inline;overflow:visible;enable-background:accumulate"
       d="M 2 2 L 2 20 L 20 20 L 20 2 L 2 2 z M 3 3 L 10 3 L 10 10 L 3 10 L 3 3 z M 12 3 L 19 3 L 19 10 L 12 10 L 12 3 z M 5 5 L 5 6 L 5 7 L 5 8 L 6 8 L 7 8 L 8 8 L 8 7 L 8 6 L 8 5 L 7 5 L 6 5 L 5 5 z M 15 5 L 15 6 L 15 7 L 16 7 L 17 7 L 17 6 L 16 6 L 16 5 L 15 5 z M 15 7 L 14 7 L 14 8 L 15 8 L 15 7 z M 6 6 L 7 6 L 7 7 L 6 7 L 6 6 z M 3 12 L 10 12 L 10 19 L 3 19 L 3 12 z M 12 12 L 19 12 L 19 19 L 12 19 L 12 12 z M 5 14 L 5 15 L 6 15 L 6 14 L 5 14 z M 6 15 L 6 16 L 7 16 L 7 15 L 6 15 z M 7 15 L 8 15 L 8 14 L 7 14 L 7 15 z M 7 16 L 7 17 L 8 17 L 8 16 L 7 16 z M 6 16 L 5 16 L 5 17 L 6 17 L 6 16 z M 14 15 L 14 16 L 14 17 L 15 17 L 15 16 L 16 16 L 16 17 L 17 17 L 17 16 L 17 15 L 16 15 L 15 15 L 14 15 z "
       transform="translate(-3364.4171,2094.7186)"
       id="rect2997" />
    <path
       inkscape:connector-curvature="0"
       id="path2999"
       d="m -3361.4171,2097.7186 0,7 7,0 0,-7 -7,0 z m 9,0 0,7 7,0 0,-7 -7,0 z m -7,2 1,0 1,0 1,0 0,1 0,1 0,1 -1,0 -1,0 -1,0 0,-1 0,-1 0,-1 z m 10,0 1,0 0,1 1,0 0,1 -1,0 -1,0 0,1 -1,0 0,-1 1,0 0,-1 0,-1 z m -9,1 0,1 1,0 0,-1 -1,0 z m -3,6 0,7 7,0 0,-7 -7,0 z m 9,0 0,7 7,0 0,-7 -7,0 z m -7,2 1,0 0,1 1,0 0,-1 1,0 0,1 -1,0 0,1 1,0 0,1 -1,0 0,-1 -1,0 0,1 -1,0 0,-1 1,0 0,-1 -1,0 0,-1 z m 9,1 1,0 1,0 1,0 0,1 0,1 -1,0 0,-1 -1,0 0,1 -1,0 0,-1 0,-1 z"
       style="color:#000000;fill:#434a54;fill-opacity:0.6745098;fill-rule:nonzero;stroke:none;stroke-width:2.28571415;marker:none;visibility:visible;display:inline;overflow:visible;enable-background:accumulate" />
  </g>
</svg>
