<?xml version="1.0" encoding="UTF-8" standalone="no"?>
<!-- Created with Inkscape (http://www.inkscape.org/) -->

<svg
   xmlns:dc="http://purl.org/dc/elements/1.1/"
   xmlns:cc="http://creativecommons.org/ns#"
   xmlns:rdf="http://www.w3.org/1999/02/22-rdf-syntax-ns#"
   xmlns:svg="http://www.w3.org/2000/svg"
   xmlns="http://www.w3.org/2000/svg"
   xmlns:sodipodi="http://sodipodi.sourceforge.net/DTD/sodipodi-0.dtd"
   xmlns:inkscape="http://www.inkscape.org/namespaces/inkscape"
   width="15.999998"
   height="15.999998"
   id="svg13094"
   version="1.1"
   inkscape:version="0.48.3.1 r9886"
   sodipodi:docname="webcamreceive.svg">
  <sodipodi:namedview
     id="base"
     pagecolor="#ffffff"
     bordercolor="#666666"
     borderopacity="1.0"
     inkscape:pageopacity="0.0"
     inkscape:pageshadow="2"
     inkscape:zoom="45.254834"
     inkscape:cx="9.2137087"
     inkscape:cy="8.0816574"
     inkscape:document-units="px"
     inkscape:current-layer="layer1"
     showgrid="true"
     inkscape:snap-bbox="true"
     inkscape:bbox-paths="true"
     inkscape:bbox-nodes="true"
     inkscape:snap-bbox-edge-midpoints="true"
     inkscape:snap-bbox-midpoints="true"
     inkscape:object-paths="true"
     inkscape:snap-intersection-paths="true"
     inkscape:object-nodes="true"
     inkscape:snap-smooth-nodes="true"
     inkscape:snap-midpoints="true"
     inkscape:snap-object-midpoints="true"
     inkscape:snap-center="true"
     showguides="false"
     inkscape:guide-bbox="true"
     inkscape:window-width="1920"
     inkscape:window-height="1032"
     inkscape:window-x="-7"
     inkscape:window-y="25"
     inkscape:window-maximized="1"
     inkscape:snap-global="true"
     fit-margin-top="0"
     fit-margin-left="0"
     fit-margin-right="0"
     fit-margin-bottom="0"
     showborder="true"
     inkscape:showpageshadow="false">
    <sodipodi:guide
       orientation="0,1"
       position="-25.000005,930.61286"
       id="guide4700" />
    <sodipodi:guide
       orientation="0,1"
       position="576.71887,328.89388"
       id="guide4702" />
    <sodipodi:guide
       orientation="1,0"
       position="576.71899,489.70395"
       id="guide4706" />
    <sodipodi:guide
       orientation="1,0"
       position="54.999996,930.61286"
       id="guide4708" />
    <sodipodi:guide
       orientation="0,1"
       position="-25.000005,850.61296"
       id="guide4710" />
    <sodipodi:guide
       orientation="0,1"
       position="536.71887,408.8938"
       id="guide4712" />
    <sodipodi:guide
       orientation="1,0"
       position="496.71887,408.8938"
       id="guide4714" />
    <inkscape:grid
       type="xygrid"
       id="grid3216"
       empspacing="5"
       visible="true"
       enabled="true"
       snapvisiblegridlinesonly="true"
       originx="-24.999951px"
       originy="-219.00005px" />
    <sodipodi:guide
       orientation="-0.70710664,0.70710692"
       position="4.0000502,-246.00005"
       id="guide3847" />
    <sodipodi:guide
       orientation="0.70710594,0.70710762"
       position="5.0000502,-245.00005"
       id="guide3849" />
    <sodipodi:guide
       orientation="-0.70710681,0.70710676"
       position="7.0000502,-212.00005"
       id="guide3851" />
  </sodipodi:namedview>
  <defs
     id="defs13096" />
  <metadata
     id="metadata13099">
    <rdf:RDF>
      <cc:Work
         rdf:about="">
        <dc:format>image/svg+xml</dc:format>
        <dc:type
           rdf:resource="http://purl.org/dc/dcmitype/StillImage" />
        <dc:title />
      </cc:Work>
    </rdf:RDF>
  </metadata>
  <g
     transform="translate(9379.308,-4843.1988)"
     id="layer1"
     inkscape:groupmode="layer"
     inkscape:label="Camada 1">
    <path
       style="font-size:medium;font-style:normal;font-variant:normal;font-weight:normal;font-stretch:normal;text-indent:0;text-align:start;text-decoration:none;line-height:normal;letter-spacing:normal;word-spacing:normal;text-transform:none;direction:ltr;block-progression:tb;writing-mode:lr-tb;text-anchor:start;baseline-shift:baseline;color:#000000;fill:#434a54;fill-opacity:0.6745098;stroke:none;stroke-width:57.8928833;marker:none;visibility:visible;display:inline;overflow:visible;enable-background:accumulate;font-family:Sans;-inkscape-font-specification:Sans"
       d="M 7 1 C 3.6863 1 1 3.6863 1 7 C 1 8.4815 1.5477 9.8283 2.4375 10.875 L 1 13 L 1 15 L 13 15 L 13 13 L 11.5625 10.875 C 11.693317 10.721116 11.790875 10.541331 11.90625 10.375 L 11.0625 9.96875 L 10.6875 9.59375 C 10.074393 11.016044 8.647226 12 7 12 C 4.7909 12 3 10.2092 3 8 C 3 5.7909 4.7909 4 7 4 C 8.0155346 4 8.9508484 4.3764693 9.65625 5 L 10 5 L 10 1.8125 C 9.1174659 1.301967 8.0929167 1 7 1 z M 11 1 L 11 6 L 9 6 L 12 9 L 15 6 L 13 6 L 13 1 L 11 1 z M 7 6 C 5.8955 6 5 6.8955 5 8 C 5 9.1046 5.8955 10 7 10 C 8.1046 10 9 9.1046 9 8 C 9 7.9683268 9.0014565 7.9375632 9 7.90625 L 8.0625 6.96875 L 7.375 6.03125 C 7.2541152 6.0084381 7.1275163 6 7 6 z "
       id="path2994"
       transform="translate(-9379.308,4843.1988)" />
    <path
       style="font-size:medium;font-style:normal;font-variant:normal;font-weight:normal;font-stretch:normal;text-indent:0;text-align:start;text-decoration:none;line-height:normal;letter-spacing:normal;word-spacing:normal;text-transform:none;direction:ltr;block-progression:tb;writing-mode:lr-tb;text-anchor:start;baseline-shift:baseline;color:#000000;fill:#d1d4d6;fill-opacity:0.74329164000000003;fill-rule:nonzero;stroke:none;stroke-width:2;marker:none;visibility:visible;display:inline;overflow:visible;enable-background:accumulate;font-family:Sans;-inkscape-font-specification:Sans"
       d="M 7 0 C 2.5492 0 0 2.5714 0 7 C 0 8.4265 0.516 9.7098 1.25 10.8125 L 0.15625 12.4375 L 0 12.6875 L 0 13 L 0 15 L 0 16 L 1 16 L 13 16 L 14 16 L 14 15 L 14 13 L 14 12.6875 L 13.84375 12.4375 L 12.75 10.8125 C 13.021435 10.404719 13.24076 9.9552846 13.4375 9.5 L 15.96875 6.96875 L 17.40625 5 L 15 5 L 14 5 L 14 1 L 14 0 L 13 0 L 11 0 L 10 0 L 10 0.46875 C 9.129316 0.1675498 8.1343797 0 7 0 z M 7 1 C 8.0890139 1 9.1200752 1.3047417 10 1.8125 L 10 5 L 9.59375 5 C 8.8987312 4.3872639 8.0047732 4 7 4 C 4.7909 4 3 5.7909 3 8 C 3 10.2092 4.7909 12 7 12 C 8.647226 12 10.074393 11.016044 10.6875 9.59375 L 11.0625 9.96875 L 11.90625 10.40625 C 11.795673 10.562906 11.686627 10.728985 11.5625 10.875 L 13 13 L 13 15 L 1 15 L 1 13 L 2.4375 10.875 C 1.5477 9.8283 1 8.4815 1 7 C 1 3.6863 3.6863 1 7 1 z M 11 1 L 11.1875 1 L 13 1 L 13 2.78125 L 13 6 L 13.9375 6 L 15 6 L 14 7 L 12.90625 8.09375 L 12 9 L 11 8 L 9 6 L 10.4375 6 L 11 6 L 11 2.53125 L 11 1 z M 7 6 C 7.1275163 6 7.2541152 6.0084381 7.375 6.03125 L 8.0625 6.96875 L 9 7.90625 C 9.0014565 7.9375632 9 7.9683268 9 8 C 9 9.1046 8.1046 10 7 10 C 5.8955 10 5 9.1046 5 8 C 5 6.8955 5.8955 6 7 6 z "
       transform="translate(-9379.308,4843.1988)"
       id="path3775" />
  </g>
</svg>
