<?xml version="1.0" encoding="UTF-8" standalone="no"?>
<!-- Created with Inkscape (http://www.inkscape.org/) -->

<svg
   xmlns:dc="http://purl.org/dc/elements/1.1/"
   xmlns:cc="http://creativecommons.org/ns#"
   xmlns:rdf="http://www.w3.org/1999/02/22-rdf-syntax-ns#"
   xmlns:svg="http://www.w3.org/2000/svg"
   xmlns="http://www.w3.org/2000/svg"
   xmlns:sodipodi="http://sodipodi.sourceforge.net/DTD/sodipodi-0.dtd"
   xmlns:inkscape="http://www.inkscape.org/namespaces/inkscape"
   id="svg13094"
   height="64"
   width="64"
   version="1.1"
   inkscape:version="0.48.4 r9939"
   sodipodi:docname="folder-aptana.svg"
   inkscape:export-filename="folder.png"
   inkscape:export-xdpi="90"
   inkscape:export-ydpi="90">
  <sodipodi:namedview
     pagecolor="#ffffff"
     bordercolor="#666666"
     borderopacity="1"
     objecttolerance="10"
     gridtolerance="10"
     guidetolerance="10"
     inkscape:pageopacity="0"
     inkscape:pageshadow="2"
     inkscape:window-width="1920"
     inkscape:window-height="1022"
     id="namedview46"
     showgrid="true"
     inkscape:snap-bbox="true"
     inkscape:bbox-paths="true"
     inkscape:bbox-nodes="true"
     inkscape:snap-bbox-edge-midpoints="true"
     inkscape:snap-bbox-midpoints="true"
     inkscape:snap-nodes="true"
     inkscape:object-paths="true"
     inkscape:snap-intersection-paths="true"
     inkscape:object-nodes="true"
     inkscape:snap-smooth-nodes="true"
     inkscape:snap-midpoints="true"
     inkscape:snap-object-midpoints="true"
     inkscape:snap-center="true"
     fit-margin-top="0"
     fit-margin-left="0"
     fit-margin-right="0"
     fit-margin-bottom="0"
     inkscape:zoom="5.6568543"
     inkscape:cx="17.28272"
     inkscape:cy="42.720221"
     inkscape:window-x="-5"
     inkscape:window-y="23"
     inkscape:window-maximized="1"
     inkscape:current-layer="svg13094"
     showguides="true"
     inkscape:guide-bbox="true"
     inkscape:snap-page="true"
     inkscape:snap-global="true">
    <inkscape:grid
       type="xygrid"
       id="grid3023"
       empspacing="5"
       visible="true"
       enabled="true"
       snapvisiblegridlinesonly="true"
       originx="-80px"
       originy="-75px" />
  </sodipodi:namedview>
  <defs
     id="defs11" />
  <metadata
     id="metadata13099">
    <rdf:RDF>
      <cc:Work
         rdf:about="">
        <dc:format>image/svg+xml</dc:format>
        <dc:type
           rdf:resource="http://purl.org/dc/dcmitype/StillImage" />
        <dc:title />
      </cc:Work>
    </rdf:RDF>
  </metadata>
  <path
     sodipodi:nodetypes="cccccccccc"
     inkscape:connector-curvature="0"
     id="path3490"
     d="m 3,6 -10e-8,58.000001 L 60,64 64,60 64,1 63,0 37,0 32,4.9999999 4,5 z"
     style="color:#000000;fill:#1074c3;fill-opacity:1;fill-rule:nonzero;stroke:none;marker:none;visibility:visible;display:inline;overflow:visible;enable-background:accumulate" />
  <path
     style="fill:#d9dde5;fill-opacity:1;fill-rule:nonzero"
     inkscape:connector-curvature="0"
     id="path3492"
     d="m 7,13 51,0 0,31 -51,0 z"
     sodipodi:nodetypes="ccccc" />
  <path
     style="fill:#3e4959;fill-opacity:0.43171806"
     inkscape:connector-curvature="0"
     d="m 58,13 0,51 2,0 4,-4 0,-59 -1,-1 0,18 z"
     id="path3494"
     sodipodi:nodetypes="cccccccc" />
  <path
     sodipodi:nodetypes="ccccc"
     inkscape:connector-curvature="0"
     id="path3496"
     d="m 30,13 4,4 2,0 -4,-4 z"
     style="color:#000000;fill:#3e4959;fill-opacity:0.22968199;fill-rule:nonzero;stroke-width:1;stroke-linecap:butt;stroke-linejoin:miter;stroke-miterlimit:4;stroke-opacity:1;stroke-dasharray:none;stroke-dashoffset:0;marker:none;visibility:visible;display:inline;overflow:visible;enable-background:accumulate" />
  <path
     inkscape:export-ydpi="90"
     inkscape:export-xdpi="90"
     sodipodi:nodetypes="ccccccccccc"
     style="color:#000000;fill:#1d92f0;fill-opacity:1;fill-rule:nonzero;stroke-width:1;stroke-linecap:butt;stroke-linejoin:miter;stroke-miterlimit:4;stroke-opacity:1;stroke-dasharray:none;stroke-dashoffset:0;marker:none;visibility:visible;display:inline;overflow:visible;enable-background:accumulate"
     inkscape:connector-curvature="0"
     d="m 0,13 0,50 1,1 59,0 1,-1 0,-45 -1,-1 -26,1e-6 -5,-5 L 1,12 z"
     id="path3498" />
  <path
     inkscape:connector-curvature="0"
     id="rect3001"
     d="m 7,27 c -1.108,0 -2,0.892 -2,2 l 0,23 c 0,1.108 0.892,2 2,2 l 23,0 c 1.108,0 2,-0.892 2,-2 l 0,-23 c 0,-1.108 -0.892,-2 -2,-2 L 7,27 z m 10.71875,4 0.78125,0 0.78125,0 c 0.395832,0 0.8125,0.242951 0.8125,0.78125 0,1.212239 0.262855,1.875305 0.71875,2.1875 0.223258,0.07899 0.44415,0.180721 0.65625,0.28125 0.545541,0.112785 1.193763,-0.162513 2.0625,-1.03125 0.380635,-0.380635 0.845103,-0.279897 1.125,0 l 0.5625,0.5625 0.5625,0.5625 c 0.279895,0.279896 0.380632,0.744366 0,1.125 -0.868737,0.868738 -1.144034,1.516958 -1.03125,2.0625 0.100531,0.2121 0.20226,0.432992 0.28125,0.65625 0.312194,0.455895 0.975261,0.71875 2.1875,0.71875 0.538298,0 0.78125,0.416666 0.78125,0.8125 l 0,0.78125 0,0.78125 c 0,0.395834 -0.242952,0.8125 -0.78125,0.8125 -1.212239,0 -1.875306,0.262855 -2.1875,0.71875 -0.07899,0.223258 -0.180719,0.44415 -0.28125,0.65625 -0.112784,0.545542 0.162513,1.193762 1.03125,2.0625 0.380632,0.380634 0.279895,0.845104 0,1.125 l -0.5625,0.5625 -0.5625,0.5625 c -0.279897,0.279897 -0.744365,0.380635 -1.125,0 -0.868737,-0.868737 -1.516959,-1.144034 -2.0625,-1.03125 -0.212101,0.10053 -0.432992,0.20226 -0.65625,0.28125 -0.455895,0.312196 -0.71875,0.97526 -0.71875,2.1875 0,0.538298 -0.416667,0.78125 -0.8125,0.78125 L 18.5,50 17.71875,50 c -0.395833,0 -0.8125,-0.242952 -0.8125,-0.78125 0,-1.21224 -0.262855,-1.875304 -0.71875,-2.1875 -0.223257,-0.07899 -0.44415,-0.18072 -0.65625,-0.28125 -0.545541,-0.112784 -1.193762,0.162513 -2.0625,1.03125 -0.380635,0.380635 -0.845104,0.279897 -1.125,0 l -0.5625,-0.5625 -0.5625,-0.5625 c -0.279897,-0.279896 -0.380635,-0.744366 0,-1.125 0.868737,-0.868738 1.144034,-1.516958 1.03125,-2.0625 C 12.149469,43.25665 12.04775,43.035758 11.96875,42.8125 11.656555,42.356605 10.99349,42.09375 9.78125,42.09375 9.2429519,42.09375 9,41.677084 9,41.28125 L 9,40.5 9,39.71875 c 0,-0.395834 0.2429519,-0.8125 0.78125,-0.8125 1.21224,0 1.875305,-0.262855 2.1875,-0.71875 0.07899,-0.223258 0.180719,-0.44415 0.28125,-0.65625 0.112784,-0.545542 -0.162513,-1.193762 -1.03125,-2.0625 -0.380635,-0.380634 -0.279897,-0.845104 0,-1.125 l 0.5625,-0.5625 0.5625,-0.5625 c 0.279896,-0.279897 0.744365,-0.380635 1.125,0 0.868738,0.868737 1.51696,1.144035 2.0625,1.03125 0.2121,-0.100529 0.432991,-0.20226 0.65625,-0.28125 0.455895,-0.312195 0.71875,-0.975261 0.71875,-2.1875 C 16.90625,31.242951 17.322917,31 17.71875,31 z M 18.5,36.53125 c -2.186127,0 -3.96875,1.782624 -3.96875,3.96875 0,2.186126 1.782624,3.96875 3.96875,3.96875 2.186126,0 3.96875,-1.782624 3.96875,-3.96875 0,-2.186126 -1.782624,-3.96875 -3.96875,-3.96875 z"
     style="color:#000000;fill:#e7ebef;fill-opacity:1;fill-rule:nonzero;stroke:none;stroke-width:1.5;marker:none;visibility:visible;display:inline;overflow:visible;enable-background:accumulate" />
</svg>
