<?xml version="1.0" encoding="UTF-8" standalone="no"?>
<!-- Created with Inkscape (http://www.inkscape.org/) -->

<svg
   xmlns:dc="http://purl.org/dc/elements/1.1/"
   xmlns:cc="http://creativecommons.org/ns#"
   xmlns:rdf="http://www.w3.org/1999/02/22-rdf-syntax-ns#"
   xmlns:svg="http://www.w3.org/2000/svg"
   xmlns="http://www.w3.org/2000/svg"
   xmlns:sodipodi="http://sodipodi.sourceforge.net/DTD/sodipodi-0.dtd"
   xmlns:inkscape="http://www.inkscape.org/namespaces/inkscape"
   width="24"
   height="24"
   id="svg27665"
   version="1.1"
   inkscape:version="0.48.3.1 r9886"
   sodipodi:docname="atom.svg">
  <defs
     id="defs27667" />
  <sodipodi:namedview
     id="base"
     pagecolor="#ffffff"
     bordercolor="#666666"
     borderopacity="1.0"
     inkscape:pageopacity="0.0"
     inkscape:pageshadow="2"
     inkscape:zoom="32"
     inkscape:cx="13.338096"
     inkscape:cy="11.440895"
     inkscape:document-units="px"
     inkscape:current-layer="layer1"
     showgrid="true"
     inkscape:window-width="1920"
     inkscape:window-height="1023"
     inkscape:window-x="-10"
     inkscape:window-y="35"
     inkscape:window-maximized="1"
     inkscape:snap-bbox="true"
     inkscape:bbox-paths="true"
     inkscape:bbox-nodes="true"
     inkscape:snap-bbox-edge-midpoints="true"
     inkscape:snap-bbox-midpoints="true"
     inkscape:object-paths="true"
     inkscape:snap-intersection-paths="true"
     inkscape:object-nodes="true"
     inkscape:snap-smooth-nodes="true"
     inkscape:snap-midpoints="true"
     inkscape:snap-object-midpoints="true"
     inkscape:snap-center="true"
     inkscape:snap-global="true"
     showguides="false"
     inkscape:guide-bbox="true"
     fit-margin-top="0"
     fit-margin-left="0"
     fit-margin-right="0"
     fit-margin-bottom="0"
     inkscape:showpageshadow="false">
    <sodipodi:guide
       orientation="0,1"
       position="599.99999,299.99993"
       id="guide3572" />
    <sodipodi:guide
       orientation="1,0"
       position="294.41949,12.121716"
       id="guide3574" />
    <sodipodi:guide
       orientation="0,1"
       position="456.04389,599.99992"
       id="guide3576" />
    <sodipodi:guide
       orientation="0,1"
       position="-2.8882813e-06,-8.4406273e-05"
       id="guide3578" />
    <sodipodi:guide
       orientation="1,0"
       position="-2.8882813e-06,157.58366"
       id="guide3580" />
    <sodipodi:guide
       orientation="1,0"
       position="599.99999,121.21821"
       id="guide3582" />
    <sodipodi:guide
       orientation="0,1"
       position="599.99999,-714.34359"
       id="guide5928" />
    <sodipodi:guide
       orientation="0,1"
       position="599.99999,-414.34359"
       id="guide5930" />
    <sodipodi:guide
       orientation="0,1"
       position="599.99999,-1014.3435"
       id="guide5932" />
    <sodipodi:guide
       orientation="0,1"
       position="451.57029,524.99606"
       id="guide5294" />
    <sodipodi:guide
       orientation="0,1"
       position="451.57029,75.013516"
       id="guide5296" />
    <sodipodi:guide
       orientation="0,1"
       position="496.01499,-931.36409"
       id="guide5413" />
    <sodipodi:guide
       orientation="0,1"
       position="457.34859,-489.34389"
       id="guide5415" />
    <inkscape:grid
       type="xygrid"
       id="grid3070"
       empspacing="5"
       visible="true"
       enabled="true"
       snapvisiblegridlinesonly="true"
       originx="4.3243213e-05px"
       originy="-2.6947047e-05px" />
  </sodipodi:namedview>
  <metadata
     id="metadata27670">
    <rdf:RDF>
      <cc:Work
         rdf:about="">
        <dc:format>image/svg+xml</dc:format>
        <dc:type
           rdf:resource="http://purl.org/dc/dcmitype/StillImage" />
        <dc:title />
      </cc:Work>
    </rdf:RDF>
  </metadata>
  <g
     inkscape:label="Camada 1"
     inkscape:groupmode="layer"
     id="layer1"
     transform="translate(3364.4171,-2092.7186)">
    <path
       style="font-size:medium;font-style:normal;font-variant:normal;font-weight:normal;font-stretch:normal;text-indent:0;text-align:start;text-decoration:none;line-height:normal;letter-spacing:normal;word-spacing:normal;text-transform:none;direction:ltr;block-progression:tb;writing-mode:lr-tb;text-anchor:start;baseline-shift:baseline;color:#000000;fill:#d1d4d6;fill-opacity:0.74329164000000003;fill-rule:nonzero;stroke:none;stroke-width:2;marker:none;visibility:visible;display:inline;overflow:visible;enable-background:accumulate;font-family:Sans;-inkscape-font-specification:Sans"
       d="M 8.5 2.5 C 8.3414713 2.4981703 8.195025 2.5104 8.03125 2.53125 C 7.71995 2.57125 7.5565 2.63895 7.5 2.65625 C 6.4165 2.98655 5.71295 3.8763 5.40625 4.8125 C 5.12775 5.663 5.0758 6.57045 5.1875 7.53125 C 5.2125 7.74855 5.2705 7.94565 5.3125 8.15625 C 3.6412 8.75715 2.2494 9.57605 1.75 11.09375 C 1.4121 12.12095 1.6435 13.1885 2.25 14 C 2.8086 14.7484 3.60955 15.29085 4.53125 15.71875 L 5.375 16.09375 C 5.2528 16.85805 5.117 17.61095 5.1875 18.28125 C 5.2835 19.19505 5.61215 20.11355 6.34375 20.78125 C 7.11105 21.48165 8.16105 21.7529 9.15625 21.5625 C 10.07685 21.3863 10.90605 20.921 11.71875 20.3125 L 12.21875 19.9375 C 12.76205 20.3883 13.30065 20.87025 13.90625 21.15625 C 14.74135 21.55055 15.7318 21.77915 16.75 21.46875 C 17.8334 21.13835 18.53705 20.2488 18.84375 19.3125 C 19.12235 18.462 19.1742 17.55445 19.0625 16.59375 C 19.0425 16.41875 18.9675 16.21085 18.9375 16.03125 L 19.53125 15.78125 C 20.32215 15.43645 21.02565 15.03455 21.59375 14.46875 C 22.18655 13.87865 22.61775 13.1078 22.65625 12.1875 C 22.69625 11.234 22.25775 10.4049 21.71875 9.8125 C 21.18785 9.2291 20.51315 8.77495 19.71875 8.40625 C 19.49735 8.30345 19.20335 8.2783 18.96875 8.1875 L 19.03125 7.65625 C 19.14565 6.74755 19.1507 5.8753 18.9375 5.0625 C 18.7233 4.2432 18.2703 3.4312 17.4375 2.9375 C 16.595 2.4379 15.6187 2.44635 14.8125 2.65625 C 14.0209 2.86215 13.27515 3.2557 12.53125 3.8125 C 12.40455 3.9075 12.312 4.0856 12.1875 4.1875 L 11.5 3.6875 C 10.607938 3.054 9.609701 2.5128078 8.5 2.5 z M 8.1875 3.71875 C 9.0181 3.61305 9.9031 4.01045 10.8125 4.65625 L 10.0625 5.71875 C 9.1857 5.09645 8.50935 4.9735 8.21875 5.0625 C 8.01065 5.1259 7.8691 5.23025 7.75 5.59375 C 7.632 5.95725 7.6045 6.5344 7.6875 7.25 C 7.7358 7.6649 7.83995 8.1313 7.96875 8.625 C 8.61215 8.4991 9.28835 8.40875 9.96875 8.34375 C 10.98535 6.90495 12.1021 5.64055 13.25 4.78125 C 13.9026 4.29275 14.5318 3.9668 15.125 3.8125 C 15.7181 3.6581 16.3189 3.67605 16.8125 3.96875 C 17.3061 4.26135 17.62555 4.7795 17.78125 5.375 C 17.93725 5.9705 17.94615 6.6865 17.84375 7.5 L 16.5625 7.34375 C 16.6506 6.64375 16.62725 6.08575 16.53125 5.71875 C 16.43535 5.35185 16.29555 5.17675 16.15625 5.09375 C 16.01695 5.01075 15.7974 4.9685 15.4375 5.0625 C 15.0875 5.1536 14.63395 5.38335 14.09375 5.78125 L 14.03125 5.8125 C 13.26915 6.3831 12.48205 7.24395 11.71875 8.21875 C 14.49255 8.16605 17.26725 8.5942 19.21875 9.5 C 19.90725 9.8196 20.45205 10.1946 20.84375 10.625 C 21.23545 11.0555 21.49175 11.5738 21.46875 12.125 C 21.44565 12.6763 21.1684 13.2085 20.75 13.625 C 20.3317 14.0416 19.7731 14.3777 19.0625 14.6875 L 18.53125 13.5 C 19.13835 13.2353 19.5558 12.9431 19.8125 12.6875 C 20.0692 12.4319 20.14625 12.24965 20.15625 12.09375 C 20.16275 11.93785 20.13285 11.749 19.90625 11.5 C 19.67965 11.251 19.2678 10.9569 18.6875 10.6875 C 16.8244 9.8227 13.67335 9.42645 10.71875 9.59375 C 10.19365 10.38655 9.70935 11.2076 9.28125 12.0625 C 9.38565 12.2731 9.47965 12.4745 9.59375 12.6875 L 9.59375 12.71875 C 10.69515 14.76985 12.04745 16.51015 13.28125 17.65625 C 13.89815 18.22925 14.47765 18.6431 14.96875 18.875 C 15.45995 19.1065 15.82325 19.1255 16.03125 19.0625 C 16.23925 18.9991 16.3809 18.89475 16.5 18.53125 C 16.619 18.16775 16.6455 17.5906 16.5625 16.875 C 16.396 15.4438 15.75765 13.4886 14.65625 11.4375 L 15.8125 10.8125 C 16.9749 12.9771 17.6803 15.04505 17.875 16.71875 C 17.9723 17.55565 17.92685 18.3022 17.71875 18.9375 C 17.51065 19.5728 17.05455 20.1148 16.40625 20.3125 C 15.75785 20.5102 15.07195 20.3769 14.40625 20.0625 C 13.74055 19.7482 13.0611 19.23095 12.375 18.59375 C 11.0635 17.37555 9.72475 15.63555 8.59375 13.59375 C 8.27915 14.37245 8.00655 15.1556 7.84375 15.875 C 7.64425 16.7588 7.60125 17.4776 7.65625 18 C 7.71115 18.5223 7.855 18.83645 8 18.96875 C 8.145 19.10375 8.3217 19.16375 8.6875 19.09375 C 9.0533 19.02375 9.59275 18.7812 10.21875 18.3125 L 11 19.34375 C 10.2709 19.88965 9.5912 20.2499 8.9375 20.375 C 8.2837 20.5001 7.62265 20.33205 7.15625 19.90625 C 6.68975 19.48055 6.451 18.87905 6.375 18.15625 C 6.299 17.43345 6.37165 16.57595 6.59375 15.59375 C 6.85175 14.45315 7.2672 13.2527 7.8125 12.0625 C 7.5101 11.4107 7.2746 10.76985 7.0625 10.15625 C 7.0215 10.16725 6.9775 10.1755 6.9375 10.1875 C 5.1424 10.7019 4.22905 11.49495 4.09375 11.90625 C 4.02615 12.11195 4.0495 12.2315 4.25 12.5 C 4.4505 12.7685 4.8837 13.1225 5.5625 13.4375 L 5.03125 14.625 C 4.22725 14.2518 3.61145 13.80735 3.21875 13.28125 C 2.82605 12.75525 2.6777 12.06855 2.875 11.46875 C 3.2697 10.26925 4.5834 9.5046 6.5625 8.9375 C 6.6025 8.9265 6.6475 8.91725 6.6875 8.90625 C 6.5554 8.38645 6.429 7.87135 6.375 7.40625 C 6.2777 6.56935 6.32315 5.8228 6.53125 5.1875 C 6.73935 4.5522 7.19535 4.0102 7.84375 3.8125 C 7.96045 3.7765 8.0688 3.73375 8.1875 3.71875 z M 8.875 6.4375 C 9.0286 6.5095 9.1596 6.5345 9.375 6.6875 L 9.6875 6.90625 C 9.5985 7.02195 9.49415 7.10045 9.40625 7.21875 C 9.23685 7.23775 9.07525 7.25925 8.90625 7.28125 C 8.89625 7.23625 8.88 7.1671 8.875 7.125 C 8.833 6.7604 8.86 6.6454 8.875 6.4375 z M 15.375 6.4375 C 15.391 6.6527 15.424 6.8008 15.375 7.1875 L 15.375 7.28125 C 15.0406 7.23525 14.68575 7.24875 14.34375 7.21875 C 14.46435 7.11195 14.60575 6.8984 14.71875 6.8125 C 14.72875 6.8025 14.741 6.78825 14.75 6.78125 L 14.8125 6.75 C 15.0869 6.5479 15.2029 6.5212 15.375 6.4375 z M 9.03125 9.78125 C 8.80525 9.81325 8.56275 9.836 8.34375 9.875 C 8.41885 10.0865 8.50675 10.31265 8.59375 10.53125 C 8.73295 10.27895 8.88335 10.02795 9.03125 9.78125 z M 12.5 11 C 13.3284 11 14 11.6716 14 12.5 C 14 13.3284 13.3284 14 12.5 14 C 11.6716 14 11 13.3284 11 12.5 C 11 11.6716 11.6716 11 12.5 11 z M 17.46875 11.59375 C 17.67535 11.66575 18.0173 11.70215 18.1875 11.78125 C 18.435 11.89605 18.4807 11.9624 18.625 12.0625 C 18.4648 12.1766 18.3686 12.27275 18.0625 12.40625 L 17.875 12.5 C 17.7521 12.2008 17.60975 11.89825 17.46875 11.59375 z M 6.40625 11.71875 C 6.45625 11.84395 6.47725 11.96605 6.53125 12.09375 C 6.47425 12.22795 6.46025 12.3656 6.40625 12.5 L 6.0625 12.34375 C 5.7834 12.21415 5.7703 12.1726 5.625 12.0625 C 5.7902 11.9554 6.14875 11.83535 6.40625 11.71875 z M 14.53125 14.125 C 14.96125 15.2341 15.2883 16.2552 15.375 17 C 15.419 17.3812 15.392 17.51165 15.375 17.71875 C 15.0518 17.55265 14.61055 17.26125 14.09375 16.78125 C 13.68075 16.39745 13.2541 15.6013 12.8125 15.0625 C 13.517 14.9675 14.10485 14.6602 14.53125 14.125 z M 8.96875 16.375 C 9.17965 16.6759 9.37625 17.00055 9.59375 17.28125 L 9.5 17.34375 C 9.1841 17.58025 9.0685 17.6017 8.875 17.6875 C 8.858 17.388 8.86475 16.9223 8.96875 16.375 z "
       transform="translate(-3364.4171,2092.7186)"
       id="path2997-9" />
    <path
       id="path3803"
       d="m -3356.2296,2096.4374 c -0.1187,0.015 -0.2271,0.058 -0.3438,0.094 -0.6484,0.1977 -1.1044,0.7397 -1.3125,1.375 -0.2081,0.6353 -0.2535,1.3819 -0.1562,2.2188 0.054,0.4651 0.1804,0.9802 0.3125,1.5 -0.04,0.011 -0.085,0.02 -0.125,0.031 -1.9791,0.5671 -3.2928,1.3318 -3.6875,2.5313 -0.1973,0.5998 -0.049,1.2865 0.3437,1.8125 0.3927,0.5261 1.0085,0.9705 1.8125,1.3437 l 0.5313,-1.1875 c -0.6788,-0.315 -1.112,-0.669 -1.3125,-0.9375 -0.2005,-0.2685 -0.2239,-0.388 -0.1563,-0.5937 0.1353,-0.4113 1.0487,-1.2044 2.8438,-1.7188 0.04,-0.012 0.084,-0.02 0.125,-0.031 0.2121,0.6136 0.4476,1.2544 0.75,1.9062 -0.5453,1.1902 -0.9608,2.3907 -1.2188,3.5313 -0.2221,0.9822 -0.2947,1.8397 -0.2187,2.5625 0.076,0.7228 0.3147,1.3243 0.7812,1.75 0.4664,0.4258 1.1275,0.5938 1.7813,0.4687 0.6537,-0.1251 1.3334,-0.4853 2.0625,-1.0312 l -0.7813,-1.0313 c -0.626,0.4687 -1.1654,0.7113 -1.5312,0.7813 -0.3658,0.07 -0.5425,0.01 -0.6875,-0.125 -0.145,-0.1323 -0.2889,-0.4465 -0.3438,-0.9688 -0.055,-0.5224 -0.012,-1.2412 0.1875,-2.125 0.1628,-0.7194 0.4354,-1.5025 0.75,-2.2812 1.131,2.0418 2.4698,3.7818 3.7813,5 0.6861,0.6372 1.3655,1.1544 2.0312,1.4687 0.6657,0.3144 1.3516,0.4477 2,0.25 0.6483,-0.1977 1.1044,-0.7397 1.3125,-1.375 0.2081,-0.6353 0.2536,-1.3818 0.1563,-2.2187 -0.1947,-1.6737 -0.9001,-3.7417 -2.0625,-5.9063 l -1.1563,0.625 c 1.1014,2.0511 1.7398,4.0063 1.9063,5.4375 0.083,0.7156 0.057,1.2928 -0.062,1.6563 -0.1191,0.3635 -0.2608,0.4678 -0.4688,0.5312 -0.208,0.063 -0.5713,0.044 -1.0625,-0.1875 -0.4911,-0.2319 -1.0706,-0.6457 -1.6875,-1.2187 -1.2338,-1.1461 -2.5861,-2.8864 -3.6875,-4.9375 l 0,-0.031 c -0.1141,-0.213 -0.2081,-0.4144 -0.3125,-0.625 0.4281,-0.8549 0.9124,-1.6759 1.4375,-2.4687 2.9546,-0.1673 6.1057,0.2289 7.9688,1.0937 0.5803,0.2694 0.9921,0.5635 1.2187,0.8125 0.2266,0.249 0.2565,0.4379 0.25,0.5938 -0.01,0.1559 -0.087,0.3381 -0.3437,0.5937 -0.2567,0.2556 -0.6742,0.5478 -1.2813,0.8125 l 0.5313,1.1875 c 0.7106,-0.3098 1.2692,-0.6459 1.6875,-1.0625 0.4184,-0.4165 0.6956,-0.9487 0.7187,-1.5 0.023,-0.5512 -0.2333,-1.0695 -0.625,-1.5 -0.3917,-0.4304 -0.9365,-0.8054 -1.625,-1.125 -1.9515,-0.9058 -4.7262,-1.3339 -7.5,-1.2812 0.7633,-0.9748 1.5504,-1.8357 2.3125,-2.4063 l 0.062,-0.031 c 0.5402,-0.3979 0.9938,-0.6277 1.3438,-0.7188 0.3599,-0.094 0.5794,-0.052 0.7187,0.031 0.1393,0.083 0.2791,0.2581 0.375,0.625 0.096,0.367 0.1191,0.925 0.031,1.625 l 1.2812,0.1562 c 0.1024,-0.8135 0.094,-1.5295 -0.062,-2.125 -0.1557,-0.5955 -0.4751,-1.1136 -0.9687,-1.4062 -0.4936,-0.2927 -1.0944,-0.3107 -1.6875,-0.1563 -0.5932,0.1543 -1.2224,0.4803 -1.875,0.9688 -1.1479,0.8593 -2.2647,2.1237 -3.2813,3.5625 -0.6804,0.065 -1.3566,0.1553 -2,0.2812 -0.1288,-0.4937 -0.2329,-0.9601 -0.2812,-1.375 -0.083,-0.7156 -0.056,-1.2927 0.062,-1.6562 0.1191,-0.3635 0.2606,-0.4679 0.4687,-0.5313 0.2906,-0.089 0.967,0.034 1.8438,0.6563 l 0.75,-1.0625 c -0.9094,-0.6458 -1.7944,-1.0432 -2.625,-0.9375 z m 0.8437,6.0625 c -0.1479,0.2467 -0.2983,0.4977 -0.4375,0.75 -0.087,-0.2186 -0.1749,-0.4448 -0.25,-0.6563 0.219,-0.039 0.4615,-0.062 0.6875,-0.094 z m 3.4688,1.2187 c -0.8284,0 -1.5,0.6716 -1.5,1.5 0,0.8284 0.6716,1.5 1.5,1.5 0.8284,0 1.5,-0.6716 1.5,-1.5 0,-0.8284 -0.6716,-1.5 -1.5,-1.5 z"
       style="font-size:medium;font-style:normal;font-variant:normal;font-weight:normal;font-stretch:normal;text-indent:0;text-align:start;text-decoration:none;line-height:normal;letter-spacing:normal;word-spacing:normal;text-transform:none;direction:ltr;block-progression:tb;writing-mode:lr-tb;text-anchor:start;baseline-shift:baseline;color:#000000;fill:#434a55;fill-opacity:0.6745098;stroke:none;stroke-width:4.2881875;marker:none;visibility:visible;display:inline;overflow:visible;enable-background:accumulate;font-family:Sans;-inkscape-font-specification:Sans"
       inkscape:connector-curvature="0" />
  </g>
</svg>
