<?xml version="1.0" encoding="UTF-8" standalone="no"?>
<!-- Created with Inkscape (http://www.inkscape.org/) -->

<svg
   xmlns:dc="http://purl.org/dc/elements/1.1/"
   xmlns:cc="http://creativecommons.org/ns#"
   xmlns:rdf="http://www.w3.org/1999/02/22-rdf-syntax-ns#"
   xmlns:svg="http://www.w3.org/2000/svg"
   xmlns="http://www.w3.org/2000/svg"
   xmlns:sodipodi="http://sodipodi.sourceforge.net/DTD/sodipodi-0.dtd"
   xmlns:inkscape="http://www.inkscape.org/namespaces/inkscape"
   width="16"
   height="16"
   id="svg27665"
   version="1.1"
   inkscape:version="0.48.3.1 r9886"
   sodipodi:docname="distributor-logo-ubuntu.svg">
  <defs
     id="defs27667" />
  <sodipodi:namedview
     id="base"
     pagecolor="#ffffff"
     bordercolor="#666666"
     borderopacity="1.0"
     inkscape:pageopacity="0.0"
     inkscape:pageshadow="2"
     inkscape:zoom="32.000001"
     inkscape:cx="7.1113518"
     inkscape:cy="7.6387545"
     inkscape:document-units="px"
     inkscape:current-layer="layer1"
     showgrid="true"
     inkscape:window-width="1920"
     inkscape:window-height="1033"
     inkscape:window-x="-10"
     inkscape:window-y="25"
     inkscape:window-maximized="1"
     inkscape:snap-bbox="true"
     inkscape:bbox-paths="true"
     inkscape:bbox-nodes="true"
     inkscape:snap-bbox-edge-midpoints="true"
     inkscape:snap-bbox-midpoints="true"
     inkscape:object-paths="true"
     inkscape:snap-intersection-paths="true"
     inkscape:object-nodes="true"
     inkscape:snap-smooth-nodes="true"
     inkscape:snap-midpoints="true"
     inkscape:snap-object-midpoints="true"
     inkscape:snap-center="true"
     inkscape:snap-global="true"
     showguides="false"
     inkscape:guide-bbox="true"
     fit-margin-top="0"
     fit-margin-left="0"
     fit-margin-right="0"
     fit-margin-bottom="0"
     inkscape:showpageshadow="false">
    <inkscape:grid
       type="xygrid"
       id="grid3469"
       empspacing="5"
       visible="true"
       enabled="true"
       snapvisiblegridlinesonly="true"
       originx="1.4067697e-05px"
       originy="719.00003px" />
    <sodipodi:guide
       orientation="1,0"
       position="11.000014,19.000035"
       id="guide3782" />
    <sodipodi:guide
       orientation="0,1"
       position="19.000014,30.000035"
       id="guide3784" />
  </sodipodi:namedview>
  <metadata
     id="metadata27670">
    <rdf:RDF>
      <cc:Work
         rdf:about="">
        <dc:format>image/svg+xml</dc:format>
        <dc:type
           rdf:resource="http://purl.org/dc/dcmitype/StillImage" />
        <dc:title />
      </cc:Work>
    </rdf:RDF>
  </metadata>
  <g
     inkscape:label="Camada 1"
     inkscape:groupmode="layer"
     id="layer1"
     transform="translate(1356.2085,-1760.6912)">
    <path
       id="path2986"
       d="m -1344.0835,1761.8162 c -0.5396,0.038 -1.0529,0.34 -1.3438,0.8438 -0.4653,0.8059 -0.1809,1.8159 0.625,2.2812 0.806,0.4653 1.8472,0.2122 2.3125,-0.5937 0.4654,-0.806 0.181,-1.8472 -0.625,-2.3125 -0.3022,-0.1745 -0.6449,-0.2417 -0.9687,-0.2188 z m -2.875,1.875 c -1.9543,0 -3.6151,1.147 -4.4375,2.7813 0.7023,0.4922 1.1562,1.2986 1.1562,2.2187 0,0.9201 -0.4539,1.7265 -1.1562,2.2188 0.8224,1.6342 2.4832,2.7812 4.4375,2.7812 0.1081,0 0.2061,-0.024 0.3125,-0.031 0.073,-0.8607 0.5428,-1.6626 1.3437,-2.125 0.3244,-0.1873 0.6503,-0.3004 1,-0.3438 0.5246,-0.065 1.0608,0.019 1.5313,0.25 0.5246,-0.791 0.8125,-1.7298 0.8125,-2.75 0,-1.0202 -0.2879,-1.959 -0.8125,-2.75 -0.7777,0.3832 -1.7203,0.3744 -2.5313,-0.094 -0.8009,-0.4625 -1.2709,-1.2644 -1.3437,-2.125 -0.1064,-0.01 -0.2044,-0.031 -0.3125,-0.031 z m 0,2 c 1.6568,0 3,1.3432 3,3 0,1.6568 -1.3432,3 -3,3 -1.6568,0 -3,-1.3432 -3,-3 0,-1.6568 1.3432,-3 3,-3 z m -6,1.3125 c -0.9306,0 -1.6875,0.7569 -1.6875,1.6875 0,0.9306 0.7569,1.6875 1.6875,1.6875 0.9306,0 1.6875,-0.7569 1.6875,-1.6875 0,-0.9306 -0.7569,-1.6875 -1.6875,-1.6875 z m 9.125,5.1875 c -0.3238,-0.023 -0.6665,0.075 -0.9688,0.25 -0.8059,0.4653 -1.0903,1.4753 -0.625,2.2813 0.4654,0.8059 1.5066,1.0903 2.3125,0.625 0.806,-0.4654 1.0904,-1.5066 0.625,-2.3125 -0.2908,-0.5038 -0.8041,-0.8057 -1.3437,-0.8438 z"
       style="color:#000000;fill:#434a55;fill-opacity:0.6745119;fill-rule:nonzero;stroke:none;stroke-width:2;marker:none;visibility:visible;display:inline;overflow:visible;enable-background:accumulate"
       inkscape:connector-curvature="0" />
    <path
       style="font-size:medium;font-style:normal;font-variant:normal;font-weight:normal;font-stretch:normal;text-indent:0;text-align:start;text-decoration:none;line-height:normal;letter-spacing:normal;word-spacing:normal;text-transform:none;direction:ltr;block-progression:tb;writing-mode:lr-tb;text-anchor:start;baseline-shift:baseline;color:#000000;fill:#d1d4d6;fill-opacity:0.74329164;fill-rule:nonzero;stroke:none;stroke-width:2;marker:none;visibility:visible;display:inline;overflow:visible;enable-background:accumulate;font-family:Sans;-inkscape-font-specification:Sans"
       d="m -1344.1773,1760.6287 c -0.9304,0.066 -1.7885,0.584 -2.2812,1.4375 -0.084,0.1464 -0.011,0.3147 -0.062,0.4688 l -0.062,0 c 0.03,0 -0.086,-0.031 -0.375,-0.031 -2.4238,0 -4.4873,1.4252 -5.5,3.4375 l -0.031,0.062 c -0.1726,-0.033 -0.2872,-0.1875 -0.4687,-0.1875 -1.5813,0 -2.875,1.2937 -2.875,2.875 0,1.5813 1.2937,2.875 2.875,2.875 0.1815,0 0.2961,-0.1547 0.4687,-0.1875 l 0.031,0.062 c 1.0127,2.0123 3.0762,3.4375 5.5,3.4375 0.2893,0 0.4051,-0.033 0.375,-0.031 l 0.062,0 c 0.055,0.154 -0.022,0.3223 0.062,0.4687 0.7918,1.3714 2.5606,1.8574 3.9375,1.0625 1.3714,-0.7918 1.8574,-2.5606 1.0625,-3.9375 -0.081,-0.1401 -0.2125,-0.2221 -0.3125,-0.3437 0.6546,-0.987 1,-2.1603 1,-3.4063 0,-1.246 -0.3454,-2.4193 -1,-3.4062 l -0.031,-0.062 c 0.099,-0.1197 0.2635,-0.1422 0.3438,-0.2813 0.7949,-1.3769 0.3089,-3.1457 -1.0625,-3.9375 -0.527,-0.3043 -1.1084,-0.4137 -1.6563,-0.375 z m 0.094,1.1875 c 0.3238,-0.023 0.6665,0.044 0.9687,0.2188 0.806,0.4653 1.0904,1.5065 0.625,2.3125 -0.4653,0.8059 -1.5065,1.059 -2.3125,0.5937 -0.8059,-0.4653 -1.0903,-1.4753 -0.625,-2.2812 0.2909,-0.5038 0.8042,-0.8058 1.3438,-0.8438 z m -2.875,1.875 c 0.1081,0 0.2061,0.021 0.3125,0.031 0.073,0.8606 0.5428,1.6624 1.3437,2.125 0.811,0.4684 1.7536,0.4769 2.5313,0.094 0.5246,0.791 0.8125,1.7298 0.8125,2.75 0,1.0202 -0.2879,1.959 -0.8125,2.75 -0.4705,-0.231 -1.0067,-0.315 -1.5313,-0.25 -0.3497,0.043 -0.6756,0.1565 -1,0.3438 -0.8009,0.4623 -1.2707,1.2643 -1.3437,2.125 -0.1064,0.01 -0.2044,0.031 -0.3125,0.031 -1.9543,0 -3.6151,-1.147 -4.4375,-2.7812 0.7023,-0.4924 1.1562,-1.2987 1.1562,-2.2188 0,-0.9201 -0.4539,-1.7266 -1.1562,-2.2187 0.8224,-1.6343 2.4832,-2.7813 4.4375,-2.7813 z m -6,3.3125 c 0.9306,0 1.6875,0.7569 1.6875,1.6875 0,0.9306 -0.7569,1.6875 -1.6875,1.6875 -0.9306,0 -1.6875,-0.7569 -1.6875,-1.6875 0,-0.9306 0.7569,-1.6875 1.6875,-1.6875 z m 9.125,5.1875 c 0.5396,0.038 1.0529,0.34 1.3437,0.8438 0.4654,0.8059 0.181,1.8471 -0.625,2.3125 -0.8059,0.4653 -1.8471,0.1809 -2.3125,-0.625 -0.4653,-0.806 -0.1809,-1.816 0.625,-2.2813 0.3023,-0.175 0.645,-0.273 0.9688,-0.25 z"
       id="path3085"
       inkscape:connector-curvature="0"
       sodipodi:nodetypes="ccccsccsssccsccccccsccccccccccccccccsccccscscccssssscccccc" />
  </g>
</svg>
