<?xml version="1.0" encoding="UTF-8" standalone="no"?>
<!-- Created with Inkscape (http://www.inkscape.org/) -->

<svg
   xmlns:dc="http://purl.org/dc/elements/1.1/"
   xmlns:cc="http://creativecommons.org/ns#"
   xmlns:rdf="http://www.w3.org/1999/02/22-rdf-syntax-ns#"
   xmlns:svg="http://www.w3.org/2000/svg"
   xmlns="http://www.w3.org/2000/svg"
   xmlns:sodipodi="http://sodipodi.sourceforge.net/DTD/sodipodi-0.dtd"
   xmlns:inkscape="http://www.inkscape.org/namespaces/inkscape"
   width="16.000122"
   height="16.000122"
   id="svg27665"
   version="1.1"
   inkscape:version="0.48.3.1 r9886"
   sodipodi:docname="start-here.svg">
  <defs
     id="defs27667" />
  <sodipodi:namedview
     id="base"
     pagecolor="#ffffff"
     bordercolor="#666666"
     borderopacity="1.0"
     inkscape:pageopacity="0.0"
     inkscape:pageshadow="2"
     inkscape:zoom="45.254834"
     inkscape:cx="4.5128856"
     inkscape:cy="7.7153845"
     inkscape:document-units="px"
     inkscape:current-layer="layer1"
     showgrid="true"
     inkscape:window-width="1920"
     inkscape:window-height="1033"
     inkscape:window-x="-10"
     inkscape:window-y="25"
     inkscape:window-maximized="1"
     inkscape:snap-bbox="true"
     inkscape:bbox-paths="true"
     inkscape:bbox-nodes="true"
     inkscape:snap-bbox-edge-midpoints="true"
     inkscape:snap-bbox-midpoints="true"
     inkscape:object-paths="true"
     inkscape:snap-intersection-paths="true"
     inkscape:object-nodes="true"
     inkscape:snap-smooth-nodes="true"
     inkscape:snap-midpoints="true"
     inkscape:snap-object-midpoints="true"
     inkscape:snap-center="true"
     inkscape:snap-global="true"
     showguides="false"
     inkscape:guide-bbox="true"
     fit-margin-top="0"
     fit-margin-left="0"
     fit-margin-right="0"
     fit-margin-bottom="0"
     inkscape:showpageshadow="false">
    <sodipodi:guide
       orientation="0,1"
       position="595.99988,295.99996"
       id="guide3572" />
    <sodipodi:guide
       orientation="1,0"
       position="290.41938,8.121743"
       id="guide3574" />
    <sodipodi:guide
       orientation="0,1"
       position="452.04378,595.99995"
       id="guide3576" />
    <sodipodi:guide
       orientation="0,1"
       position="-4.0001107,-4.0000574"
       id="guide3578" />
    <sodipodi:guide
       orientation="1,0"
       position="-4.0001107,153.58369"
       id="guide3580" />
    <sodipodi:guide
       orientation="1,0"
       position="595.99988,117.21824"
       id="guide3582" />
    <sodipodi:guide
       orientation="0,1"
       position="595.99988,-718.34356"
       id="guide5928" />
    <sodipodi:guide
       orientation="0,1"
       position="595.99988,-418.34356"
       id="guide5930" />
    <sodipodi:guide
       orientation="0,1"
       position="595.99988,-1018.3435"
       id="guide5932" />
    <sodipodi:guide
       orientation="0,1"
       position="447.57018,520.99609"
       id="guide5294" />
    <sodipodi:guide
       orientation="0,1"
       position="447.57018,71.013543"
       id="guide5296" />
    <sodipodi:guide
       orientation="0,1"
       position="492.01488,-935.36406"
       id="guide5413" />
    <sodipodi:guide
       orientation="0,1"
       position="453.34848,-493.34386"
       id="guide5415" />
    <inkscape:grid
       type="xygrid"
       id="grid3070"
       empspacing="5"
       visible="true"
       enabled="true"
       snapvisiblegridlinesonly="true"
       originx="-4.0000646px"
       originy="-4px" />
  </sodipodi:namedview>
  <metadata
     id="metadata27670">
    <rdf:RDF>
      <cc:Work
         rdf:about="">
        <dc:format>image/svg+xml</dc:format>
        <dc:type
           rdf:resource="http://purl.org/dc/dcmitype/StillImage" />
        <dc:title />
      </cc:Work>
    </rdf:RDF>
  </metadata>
  <g
     inkscape:label="Camada 1"
     inkscape:groupmode="layer"
     id="layer1"
     transform="translate(3360.417,-2096.7185)">
    <path
       id="path3012"
       d="m -3359.417,2097.7185 0,3 3,0 0,-3 -3,0 z m 10,0 0,4 4,0 0,-4 -4,0 z m -5,1 0,3 4,0 0,-3 -4,0 z m -4,4 0,4 3,0 0,-4 -3,0 z m 4,0 0,4 4,0 0,-4 -4,0 z m 5,0 0,4 3,0 0,-4 -3,0 z m -10,5 0,4 4,0 0,-4 -4,0 z m 5,0 0,3 4,0 0,-3 -4,0 z m 6,1 0,3 3,0 0,-3 -3,0 z"
       style="color:#000000;fill:#434a54;fill-opacity:0.6745098;fill-rule:nonzero;stroke:none;marker:none;visibility:visible;display:inline;overflow:visible;enable-background:accumulate"
       inkscape:connector-curvature="0" />
    <path
       style="font-size:medium;font-style:normal;font-variant:normal;font-weight:normal;font-stretch:normal;text-indent:0;text-align:start;text-decoration:none;line-height:normal;letter-spacing:normal;word-spacing:normal;text-transform:none;direction:ltr;block-progression:tb;writing-mode:lr-tb;text-anchor:start;baseline-shift:baseline;color:#000000;fill:#d1d4d6;fill-opacity:0.74329164000000003;fill-rule:nonzero;stroke:none;stroke-width:2;marker:none;visibility:visible;display:inline;overflow:visible;enable-background:accumulate;font-family:Sans;-inkscape-font-specification:Sans"
       d="M 0 0 L 0 1 L 0 4 L 1 4 L 1 1 L 4 1 L 4 0 L 1 0 L 0 0 z M 10 0 L 10 1 L 6 1 L 5 1 L 5 4 L 5 5 L 1 5 L 1 6 L 1 10 L 0 10 L 0 11 L 0 15 L 0 16 L 1 16 L 5 16 L 6 16 L 6 15 L 10 15 L 11 15 L 11 12 L 11 11 L 15 11 L 15 10 L 15 6 L 16 6 L 16 5 L 16 1 L 16 0 L 15 0 L 11 0 L 10 0 z M 11 1 L 15 1 L 15 5 L 11 5 L 11 1 z M 6 2 L 10 2 L 10 5 L 6 5 L 6 2 z M 2 6 L 5 6 L 5 10 L 2 10 L 2 6 z M 6 6 L 10 6 L 10 10 L 6 10 L 6 6 z M 11 6 L 14 6 L 14 10 L 11 10 L 11 6 z M 1 11 L 5 11 L 5 15 L 1 15 L 1 11 z M 6 11 L 10 11 L 10 14 L 6 14 L 6 11 z M 15 12 L 15 15 L 12 15 L 12 16 L 15 16 L 16 16 L 16 15 L 16 12 L 15 12 z "
       transform="translate(-3360.417,2096.7185)"
       id="rect3783" />
  </g>
</svg>
