<?xml version="1.0" encoding="UTF-8" standalone="no"?>
<!-- Created with Inkscape (http://www.inkscape.org/) -->

<svg
   xmlns:dc="http://purl.org/dc/elements/1.1/"
   xmlns:cc="http://creativecommons.org/ns#"
   xmlns:rdf="http://www.w3.org/1999/02/22-rdf-syntax-ns#"
   xmlns:svg="http://www.w3.org/2000/svg"
   xmlns="http://www.w3.org/2000/svg"
   xmlns:sodipodi="http://sodipodi.sourceforge.net/DTD/sodipodi-0.dtd"
   xmlns:inkscape="http://www.inkscape.org/namespaces/inkscape"
   width="16"
   height="16"
   id="svg27665"
   version="1.1"
   inkscape:version="0.48.4 r9939"
   sodipodi:docname="audio-volume-low-zero-panel.svg">
  <defs
     id="defs27667" />
  <sodipodi:namedview
     id="base"
     pagecolor="#cbcdd6"
     bordercolor="#666666"
     borderopacity="1.0"
     inkscape:pageopacity="1"
     inkscape:pageshadow="2"
     inkscape:zoom="45.254834"
     inkscape:cx="11.405936"
     inkscape:cy="8.2629576"
     inkscape:document-units="px"
     inkscape:current-layer="layer1"
     showgrid="true"
     inkscape:window-width="1920"
     inkscape:window-height="1018"
     inkscape:window-x="-5"
     inkscape:window-y="25"
     inkscape:window-maximized="1"
     inkscape:snap-bbox="true"
     inkscape:bbox-paths="true"
     inkscape:bbox-nodes="true"
     inkscape:snap-bbox-edge-midpoints="true"
     inkscape:snap-bbox-midpoints="true"
     inkscape:object-paths="true"
     inkscape:snap-intersection-paths="true"
     inkscape:object-nodes="true"
     inkscape:snap-smooth-nodes="true"
     inkscape:snap-midpoints="true"
     inkscape:snap-object-midpoints="true"
     inkscape:snap-center="true"
     inkscape:snap-global="true"
     showguides="true"
     inkscape:guide-bbox="true"
     fit-margin-top="0"
     fit-margin-left="0"
     fit-margin-right="0"
     fit-margin-bottom="0"
     inkscape:showpageshadow="false">
    <inkscape:grid
       type="xygrid"
       id="grid3070"
       empspacing="5"
       visible="true"
       enabled="true"
       snapvisiblegridlinesonly="true"
       originx="-47.999653px"
       originy="-0.00031276823px" />
  </sodipodi:namedview>
  <metadata
     id="metadata27670">
    <rdf:RDF>
      <cc:Work
         rdf:about="">
        <dc:format>image/svg+xml</dc:format>
        <dc:type
           rdf:resource="http://purl.org/dc/dcmitype/StillImage" />
        <dc:title />
      </cc:Work>
    </rdf:RDF>
  </metadata>
  <g
     inkscape:label="Camada 1"
     inkscape:groupmode="layer"
     id="layer1"
     transform="translate(3316.4171,-2100.7186)">
    <path
       style="font-size:medium;font-style:normal;font-variant:normal;font-weight:normal;font-stretch:normal;text-indent:0;text-align:start;text-decoration:none;line-height:normal;letter-spacing:normal;word-spacing:normal;text-transform:none;direction:ltr;block-progression:tb;writing-mode:lr-tb;text-anchor:start;baseline-shift:baseline;color:#000000;fill:#27303a;fill-opacity:0.753280819999999968;fill-rule:nonzero;stroke:none;stroke-width:2;marker:none;visibility:visible;display:inline;overflow:visible;enable-background:accumulate;font-family:Sans;-inkscape-font-specification:Sans"
       d="m -3308.5938,2101.7188 a 1.0000999,1.0000999 0 0 0 -0.7812,0.4687 l -1.4688,2.4375 -2.9374,1.0938 a 1.0000999,1.0000999 0 0 0 -0.625,0.9374 l 0,4.125 a 1.0000999,1.0000999 0 0 0 0.625,0.9376 l 2.9374,1.0937 1.4688,2.4375 a 1.0000999,1.0000999 0 0 0 0.875,0.4688 l 3.25,0 a 1.0000999,1.0000999 0 0 0 0.9688,-0.7188 c 0,0 0.875,-2.8188 0.875,-6.2812 0,-3.4624 -0.8751,-6.2813 -0.875,-6.2813 a 1.0000999,1.0000999 0 0 0 -0.9688,-0.7187 l -3.25,0 a 1.0000999,1.0000999 0 0 0 -0.094,0 z m 0.6563,2 1.9063,0 c 0.2044,0.7915 0.625,2.5347 0.625,5 0,2.4653 -0.4206,4.2083 -0.625,5 l -1.9063,0 -1.3437,-2.2188 a 1.0000999,1.0000999 0 0 0 -0.5,-0.4062 l -2.625,-1 0,-2.75 2.625,-1 a 1.0000999,1.0000999 0 0 0 0.5,-0.4063 l 1.3437,-2.2187 z"
       id="path3062"
       inkscape:connector-curvature="0" />
    <path
       style="font-size:medium;font-style:normal;font-variant:normal;font-weight:normal;font-stretch:normal;text-indent:0;text-align:start;text-decoration:none;line-height:normal;letter-spacing:normal;word-spacing:normal;text-transform:none;direction:ltr;block-progression:tb;writing-mode:lr-tb;text-anchor:start;baseline-shift:baseline;color:#000000;fill:#f1f3f5;fill-opacity:0.90288714000000003;fill-rule:nonzero;stroke:none;stroke-width:2;marker:none;visibility:visible;display:inline;overflow:visible;enable-background:accumulate;font-family:Sans;-inkscape-font-specification:Sans"
       d="M 7.75 0 C 7.0994 0.044 6.5325 0.3843 6.1875 0.9375 L 5.375 3.09375 L 2.28125 4.0625 L 2.25 4.0625 C 1.4723 4.3771 0.9913 5.0987 1 5.9375 L 1 10.0625 C 0.99 10.9015 1.4721 11.6229 2.25 11.9375 L 2.28125 11.9375 L 5.375 12.90625 L 6.1875 15.0625 C 6.5642 15.6639 7.19915 16.0087 7.90625 16 C 7.91725 15.9998 7.9275 16.0002 7.9375 16 L 10.65625 16 C 11.57015 16.01 12.33675 15.4396 12.59375 14.5625 C 12.59375 14.5625 14 11.6308 14 8 C 14 4.4169994 12.59375 1.4375 12.59375 1.4375 C 12.33665 0.5606 11.57005 -0.0084 10.65625 0 L 7.96875 0 C 7.95075 -0.0009 7.92325 0.0003 7.90625 0 C 7.87925 -0.0006 7.8395 -0.0006 7.8125 0 C 7.7945 0.0003 7.767 -0.0009 7.75 0 z M 7.71875 1 C 7.749977 0.998535 7.781273 0.998535 7.8125 1 C 7.843727 0.998535 7.875023 0.998535 7.90625 1 L 11.15625 1 C 11.587841 0.99610353 12.003597 1.3045677 12.125 1.71875 C 12.1249 1.71875 13 4.5376 13 8 C 13 11.4624 12.125 14.28125 12.125 14.28125 C 12.003597 14.695432 11.587841 15.003896 11.15625 15 L 7.90625 15 C 7.5601445 15.0095 7.2150734 14.824658 7.03125 14.53125 L 5.5625 12.09375 L 2.625 11 C 2.2551509 10.850385 1.9958568 10.461444 2 10.0625 L 2 5.9375 C 1.9958568 5.5385565 2.2551509 5.1496153 2.625 5 L 5.5625 3.90625 L 7.03125 1.46875 C 7.1791402 1.2238837 7.436782 1.0482189 7.71875 1 z M 5 6.25 L 4 6.625 L 4 9.375 L 5 9.75 L 5 6.25 z "
       transform="translate(-3316.4171,2100.7186)"
       id="path3856-4" />
  </g>
</svg>
