<?xml version="1.0" encoding="UTF-8" standalone="no"?>
<!-- Created with Inkscape (http://www.inkscape.org/) -->

<svg
   xmlns:dc="http://purl.org/dc/elements/1.1/"
   xmlns:cc="http://creativecommons.org/ns#"
   xmlns:rdf="http://www.w3.org/1999/02/22-rdf-syntax-ns#"
   xmlns:svg="http://www.w3.org/2000/svg"
   xmlns="http://www.w3.org/2000/svg"
   xmlns:sodipodi="http://sodipodi.sourceforge.net/DTD/sodipodi-0.dtd"
   xmlns:inkscape="http://www.inkscape.org/namespaces/inkscape"
   width="24"
   height="22"
   id="svg27665"
   version="1.1"
   inkscape:version="0.48.4 r9939"
   sodipodi:docname="caffeine-cup-full.svg">
  <defs
     id="defs27667" />
  <sodipodi:namedview
     id="base"
     pagecolor="#cbcdd6"
     bordercolor="#666666"
     borderopacity="1.0"
     inkscape:pageopacity="1"
     inkscape:pageshadow="2"
     inkscape:zoom="22.627418"
     inkscape:cx="14.769305"
     inkscape:cy="12.710091"
     inkscape:document-units="px"
     inkscape:current-layer="layer1"
     showgrid="true"
     inkscape:window-width="1920"
     inkscape:window-height="1017"
     inkscape:window-x="-5"
     inkscape:window-y="26"
     inkscape:window-maximized="1"
     inkscape:snap-bbox="true"
     inkscape:bbox-paths="true"
     inkscape:bbox-nodes="true"
     inkscape:snap-bbox-edge-midpoints="true"
     inkscape:snap-bbox-midpoints="true"
     inkscape:object-paths="true"
     inkscape:snap-intersection-paths="true"
     inkscape:object-nodes="true"
     inkscape:snap-smooth-nodes="true"
     inkscape:snap-midpoints="true"
     inkscape:snap-object-midpoints="true"
     inkscape:snap-center="true"
     inkscape:snap-global="false"
     showguides="true"
     inkscape:guide-bbox="true"
     fit-margin-top="0"
     fit-margin-left="0"
     fit-margin-right="0"
     fit-margin-bottom="0"
     inkscape:showpageshadow="false">
    <inkscape:grid
       type="xygrid"
       id="grid3070"
       empspacing="5"
       visible="true"
       enabled="true"
       snapvisiblegridlinesonly="true"
       originx="-47.999653px"
       originy="-0.00031276823px" />
  </sodipodi:namedview>
  <metadata
     id="metadata27670">
    <rdf:RDF>
      <cc:Work
         rdf:about="">
        <dc:format>image/svg+xml</dc:format>
        <dc:type
           rdf:resource="http://purl.org/dc/dcmitype/StillImage" />
        <dc:title />
      </cc:Work>
    </rdf:RDF>
  </metadata>
  <g
     inkscape:label="Camada 1"
     inkscape:groupmode="layer"
     id="layer1"
     transform="translate(3316.4171,-2094.7186)">
    <path
       style="font-size:medium;font-style:normal;font-variant:normal;font-weight:normal;font-stretch:normal;text-indent:0;text-align:start;text-decoration:none;line-height:normal;letter-spacing:normal;word-spacing:normal;text-transform:none;direction:ltr;block-progression:tb;writing-mode:lr-tb;text-anchor:start;baseline-shift:baseline;color:#000000;fill:#f1f3f5;fill-opacity:0.90288714000000003;fill-rule:nonzero;stroke:none;stroke-width:2;marker:none;visibility:visible;display:inline;overflow:visible;enable-background:accumulate;font-family:Sans;-inkscape-font-specification:Sans"
       d="M 10.125 0.0625 L 12.9375 2.875 L 12.90625 2.90625 L 13 3 L 10 5 L 15 7 L 13.40625 7 L 9.59375 7 L 8 7 L 7 5 L 10.78125 3.125 L 9.59375 1.09375 L 10.09375 2.9375 L 5.96875 4.34375 L 6.375 7 L 4.0625 7 C 4.0415 7 4.02 7.0006 4 7 L 3.8125 7 L 3.78125 7 L 3.75 7 C 2.7209 7.1297 1.9919 7.9628 2 9 L 2 13 L 2 14 L 2 15 C 2 16.0581 2.4204 17.0032 3.0625 17.6875 C 3.6862 18.3518 4.4532 18.7475 5.1875 19.0625 C 6.6878 19.706 8.4094 20 10 20 C 11.5104 20 13.15875 19.67145 14.65625 19.03125 C 15.40725 18.71015 16.15435 18.312 16.78125 17.6875 C 17.41465 17.0567 17.9999 16.1299 18 15 L 18 14 L 18 12 L 18 10 L 17 10 L 17 15 C 17 15.7887 16.59625 16.46825 16.09375 16.96875 C 15.59125 17.46925 14.95905 17.8352 14.28125 18.125 C 12.92565 18.7045 11.3663 19 10 19 C 8.5317 19 6.93315 18.73075 5.59375 18.15625 C 4.92405 17.86895 4.2971 17.5162 3.8125 17 C 3.328 16.4837 3 15.7765 3 15 L 3 14 L 3 13 L 3 9 C 2.9979441 8.88335 3.0225263 8.7650386 3.0625 8.65625 C 3.1052411 8.5399299 3.1693535 8.4385962 3.25 8.34375 C 3.3267052 8.2535391 3.4295068 8.1843964 3.53125 8.125 C 3.6226703 8.07163 3.7077787 8.0199816 3.8125 8 C 3.833327 7.9993489 3.854173 7.9993489 3.875 8 C 3.916612 7.99739 3.958388 7.99739 4 8 L 20 8 C 20.392688 8.0000393 20.747708 8.2701332 20.90625 8.625 C 20.959097 8.7432889 20.999987 8.8691039 21 9 L 21 13 C 20.999961 13.392688 20.729867 13.747708 20.375 13.90625 C 20.256711 13.959097 20.130896 13.999987 20 14 L 19 15 L 20 15 C 21.13 14.9998 21.9998 14.13 22 13 L 22 9 C 21.9998 7.8699 21.13 7.0001 20 7 L 16.75 7 L 11.65625 5.1875 L 15.0625 2.96875 L 10.125 0.0625 z "
       transform="translate(-3316.4171,2094.7186)"
       id="path3879-9-3" />
    <path
       id="path2997"
       d="m -3306.4171,2094.7186 1,3 -4,2 1,2 7,0 -5,-2 3,-2 -3,-3 z m -6.125,8 c -0.4806,0.061 -0.8788,0.5156 -0.875,1 l 0,4 0,1 0,1 c 0,0.7765 0.328,1.4837 0.8125,2 0.4846,0.5162 1.1115,0.869 1.7812,1.1563 1.3394,0.5745 2.938,0.8437 4.4063,0.8437 1.3663,0 2.9256,-0.2955 4.2812,-0.875 0.6778,-0.2898 1.31,-0.6557 1.8125,-1.1562 0.5025,-0.5005 0.9063,-1.1801 0.9063,-1.9688 l -1,-5 -1,5 c -0.033,0.1635 -0.07,0.3214 -0.3125,0.5625 -0.2421,0.2412 -0.6697,0.5287 -1.1875,0.75 -1.0358,0.4428 -2.4319,0.6875 -3.5,0.6875 -1.2223,0 -2.6371,-0.2324 -3.625,-0.6562 -0.494,-0.2119 -0.8737,-0.4844 -1.0938,-0.7188 -0.2201,-0.2345 -0.2812,-0.3982 -0.2812,-0.625 l 0,-1 0,-1 0,-3 10,0 1,0 1,0 2,0 0,2 -1,0 0,2 1,0 1,0 c 0.5236,-1e-4 0.9999,-0.4764 1,-1 l 0,-4 c -10e-5,-0.5236 -0.4764,-0.9999 -1,-1 l -16,0 c -0.042,-0 -0.083,-0 -0.125,0 z"
       style="font-size:medium;font-style:normal;font-variant:normal;font-weight:normal;font-stretch:normal;text-indent:0;text-align:start;text-decoration:none;line-height:normal;letter-spacing:normal;word-spacing:normal;text-transform:none;direction:ltr;block-progression:tb;writing-mode:lr-tb;text-anchor:start;baseline-shift:baseline;color:#000000;fill:#27303a;fill-opacity:0.75328081999999996;fill-rule:nonzero;stroke:none;stroke-width:1.20000005;marker:none;visibility:visible;display:inline;overflow:visible;enable-background:accumulate;font-family:Sans;-inkscape-font-specification:Sans"
       inkscape:connector-curvature="0" />
  </g>
</svg>
