<?xml version="1.0" encoding="UTF-8" standalone="no"?>
<!-- Created with Inkscape (http://www.inkscape.org/) -->
<svg xmlns:dc="http://purl.org/dc/elements/1.1/" xmlns:cc="http://creativecommons.org/ns#" xmlns:rdf="http://www.w3.org/1999/02/22-rdf-syntax-ns#" xmlns:svg="http://www.w3.org/2000/svg" xmlns="http://www.w3.org/2000/svg" xmlns:sodipodi="http://sodipodi.sourceforge.net/DTD/sodipodi-0.dtd" xmlns:inkscape="http://www.inkscape.org/namespaces/inkscape" width="18" height="18" id="svg27665" version="1.1" inkscape:version="0.48.4 r9939" sodipodi:docname="contact-new.svg">
  <defs id="defs27667"/>
  <sodipodi:namedview id="base" pagecolor="#ffffff" bordercolor="#666666" borderopacity="1.0" inkscape:pageopacity="0.0" inkscape:pageshadow="2" inkscape:zoom="44.8" inkscape:cx="7.6588095" inkscape:cy="7.6806791" inkscape:document-units="px" inkscape:current-layer="layer1" showgrid="true" inkscape:window-width="1920" inkscape:window-height="1025" inkscape:window-x="-2" inkscape:window-y="32" inkscape:window-maximized="1" inkscape:snap-bbox="true" inkscape:bbox-paths="true" inkscape:bbox-nodes="true" inkscape:snap-bbox-edge-midpoints="true" inkscape:snap-bbox-midpoints="true" inkscape:object-paths="true" inkscape:snap-intersection-paths="true" inkscape:object-nodes="true" inkscape:snap-smooth-nodes="true" inkscape:snap-midpoints="true" inkscape:snap-object-midpoints="true" inkscape:snap-center="true" inkscape:snap-global="true" showguides="false" inkscape:guide-bbox="true" fit-margin-top="0" fit-margin-left="0" fit-margin-right="0" fit-margin-bottom="0" inkscape:showpageshadow="false">
    <sodipodi:guide orientation="0,1" position="-1494.2276,523.03618" id="guide4179"/>
    <sodipodi:guide orientation="1,0" position="-1492.0847,520.17904" id="guide4181"/>
    <inkscape:grid type="xygrid" id="grid4279" empspacing="5" visible="true" enabled="true" snapvisiblegridlinesonly="true" originx="6.6056504e-05px" originy="592.00001px"/>
  </sodipodi:namedview>
  <metadata id="metadata27670">
    <rdf:RDF>
      <cc:Work rdf:about="">
        <dc:format>image/svg+xml</dc:format>
        <dc:type rdf:resource="http://purl.org/dc/dcmitype/StillImage"/>
        <dc:title/>
      </cc:Work>
    </rdf:RDF>
  </metadata>
  <g inkscape:label="Camada 1" inkscape:groupmode="layer" id="layer1" transform="translate(3393.2465,-1650.2411)">
    <path inkscape:connector-curvature="0" style="color:#000000;fill:#434a55;fill-opacity:0.6745119;fill-rule:nonzero;stroke:none;stroke-width:1;marker:none;visibility:visible;display:inline;overflow:visible;enable-background:accumulate" d="m -3388.2466,1651.2411 c -2.7819,0 -3.3749,2.0409 -3.3125,3.25 l 0.094,1.0313 c -0.7782,0.01 -0.4014,2.1028 0.1563,2.0312 0.2455,0.8888 0.7004,1.4509 1.1875,1.875 0.1039,0.6889 0.066,1.1727 0.031,1.7813 -0.633,0.42 -1.3932,0.695 -2.1562,0.9375 l 0,2.875 c 1.0977,0.2181 2.4535,0.3437 4,0.3437 4.1958,0 7,-0.9202 7,-2.125 0,-0.5257 -3.2549,-0.7693 -5.1563,-2.0312 -0.034,-0.6086 -0.073,-1.0925 0.031,-1.7813 0.487,-0.4241 0.9419,-0.9862 1.1875,-1.875 0.1425,0.018 0.2732,-0.1173 0.375,-0.3125 l -0.4375,0 -2,0 0,-4 2,0 0,-0.375 c -0.4153,-0.8683 -1.3006,-1.625 -3,-1.625 z m 5,0 0,3 -3,0 0,2 3,0 0,3 2,0 0,-3 3,0 0,-2 -3,0 0,-3 -2,0 z" id="path3776" transform="translate(1,1)"/>
  </g>
</svg>
