<?xml version="1.0" encoding="UTF-8" standalone="no"?>
<!-- Created with Inkscape (http://www.inkscape.org/) -->
<svg xmlns:dc="http://purl.org/dc/elements/1.1/" xmlns:cc="http://creativecommons.org/ns#" xmlns:rdf="http://www.w3.org/1999/02/22-rdf-syntax-ns#" xmlns:svg="http://www.w3.org/2000/svg" xmlns="http://www.w3.org/2000/svg" xmlns:sodipodi="http://sodipodi.sourceforge.net/DTD/sodipodi-0.dtd" xmlns:inkscape="http://www.inkscape.org/namespaces/inkscape" version="1.1" width="18" height="18" id="svg13094" inkscape:version="0.48.3.1 r9886" sodipodi:docname="pidgin.svg">
  <sodipodi:namedview pagecolor="#ffffff" bordercolor="#666666" borderopacity="1" objecttolerance="10" gridtolerance="10" guidetolerance="10" inkscape:pageopacity="0" inkscape:pageshadow="2" inkscape:window-width="1920" inkscape:window-height="1033" id="namedview6" showgrid="true" inkscape:snap-bbox="true" inkscape:bbox-paths="true" inkscape:bbox-nodes="true" inkscape:snap-bbox-edge-midpoints="true" inkscape:snap-bbox-midpoints="true" inkscape:object-paths="true" inkscape:snap-intersection-paths="true" inkscape:object-nodes="true" inkscape:snap-smooth-nodes="true" inkscape:snap-midpoints="true" inkscape:snap-object-midpoints="true" inkscape:snap-center="true" inkscape:zoom="41.7193" inkscape:cx="10.577548" inkscape:cy="7.0069316" inkscape:window-x="-10" inkscape:window-y="25" inkscape:window-maximized="1" inkscape:current-layer="svg13094" inkscape:snap-global="true">
    <inkscape:grid type="xygrid" id="grid2983" empspacing="5" visible="true" enabled="true" snapvisiblegridlinesonly="true"/>
  </sodipodi:namedview>
  <defs id="defs7"/>
  <metadata id="metadata13099">
    <rdf:RDF>
      <cc:Work rdf:about="">
        <dc:format>image/svg+xml</dc:format>
        <dc:type rdf:resource="http://purl.org/dc/dcmitype/StillImage"/>
        <dc:title/>
      </cc:Work>
    </rdf:RDF>
  </metadata>
  <path style="fill:#434a54;fill-opacity:0.67450982;fill-rule:nonzero;stroke:none" d="M 8 1 C 4.1340067 1 1 4.1340067 1 8 C 1 9.9329966 1.7957491 11.670749 3.0625 12.9375 L 1 15 L 8 15 C 11.865993 15 15 11.865993 15 8 C 15 4.1340067 11.865993 1 8 1 z M 4 7 L 6 7 L 6 9 L 4 9 L 4 7 z M 7 7 L 9 7 L 9 9 L 7 9 L 7 7 z M 10 7 L 12 7 L 12 9 L 10 9 L 10 7 z " id="path2984" transform="translate(1,1)"/>
</svg>
