<?xml version="1.0" encoding="UTF-8" standalone="no"?>
<!-- Created with Inkscape (http://www.inkscape.org/) -->
<svg xmlns:dc="http://purl.org/dc/elements/1.1/" xmlns:cc="http://creativecommons.org/ns#" xmlns:rdf="http://www.w3.org/1999/02/22-rdf-syntax-ns#" xmlns:svg="http://www.w3.org/2000/svg" xmlns="http://www.w3.org/2000/svg" xmlns:sodipodi="http://sodipodi.sourceforge.net/DTD/sodipodi-0.dtd" xmlns:inkscape="http://www.inkscape.org/namespaces/inkscape" version="1.1" width="18" height="18" id="svg2" inkscape:version="0.91+devel r" sodipodi:docname="microphone.svg">
  <sodipodi:namedview pagecolor="#ffffff" bordercolor="#666666" borderopacity="1" objecttolerance="10" gridtolerance="10" guidetolerance="10" inkscape:pageopacity="0" inkscape:pageshadow="2" inkscape:window-width="1920" inkscape:window-height="1033" id="namedview6" showgrid="true" inkscape:zoom="41.7193" inkscape:cx="10.407775" inkscape:cy="6.8651211" inkscape:window-x="-10" inkscape:window-y="25" inkscape:window-maximized="1" inkscape:current-layer="svg2" inkscape:snap-global="true" inkscape:snap-bbox="true" inkscape:bbox-paths="true" inkscape:bbox-nodes="true" inkscape:snap-bbox-edge-midpoints="true" inkscape:snap-bbox-midpoints="true" inkscape:object-paths="true" inkscape:snap-intersection-paths="true" inkscape:object-nodes="true" inkscape:snap-smooth-nodes="true" inkscape:snap-midpoints="true" inkscape:snap-object-midpoints="true" inkscape:snap-center="true" inkscape:snap-page="true" inkscape:snap-text-baseline="true">
    <inkscape:grid type="xygrid" id="grid2982" empspacing="5" visible="true" enabled="true" snapvisiblegridlinesonly="true"/>
  </sodipodi:namedview>
  <defs id="defs4"/>
  <metadata id="metadata7">
    <rdf:RDF>
      <cc:Work rdf:about="">
        <dc:format>image/svg+xml</dc:format>
        <dc:type rdf:resource="http://purl.org/dc/dcmitype/StillImage"/>
        <dc:title/>
      </cc:Work>
    </rdf:RDF>
  </metadata>
  <path style="color:#000000;display:inline;overflow:visible;visibility:visible;opacity:1;fill:#434a55;fill-opacity:0.6745098;fill-rule:nonzero;stroke:none;stroke-width:1;stroke-linecap:butt;stroke-linejoin:miter;stroke-miterlimit:4;stroke-dasharray:none;stroke-dashoffset:0;stroke-opacity:1;marker:none;enable-background:accumulate" d="M 8 1 C 6.892 1 6 1.892 6 3 L 6 9 C 6 10.108 6.892 11 8 11 C 9.108 11 10 10.108 10 9 L 10 3 C 10 1.892 9.108 1 8 1 z M 4 6 L 4 9 C 4 11.216 5.784 13 8 13 C 10.216 13 12 11.216 12 9 L 12 6 L 11 6 L 11 9 C 11 10.662 9.662 12 8 12 C 6.338 12 5 10.662 5 9 L 5 6 L 4 6 z M 5 14 L 5 15 L 11 15 L 11 14 L 5 14 z " id="path4238" transform="translate(1,1)"/>
</svg>
