<?xml version="1.0" encoding="UTF-8" standalone="no"?>
<!-- Created with Inkscape (http://www.inkscape.org/) -->

<svg
   xmlns:dc="http://purl.org/dc/elements/1.1/"
   xmlns:cc="http://creativecommons.org/ns#"
   xmlns:rdf="http://www.w3.org/1999/02/22-rdf-syntax-ns#"
   xmlns:svg="http://www.w3.org/2000/svg"
   xmlns="http://www.w3.org/2000/svg"
   xmlns:sodipodi="http://sodipodi.sourceforge.net/DTD/sodipodi-0.dtd"
   xmlns:inkscape="http://www.inkscape.org/namespaces/inkscape"
   width="22"
   height="22"
   id="svg2"
   version="1.1"
   inkscape:version="0.91+devel r"
   sodipodi:docname="chrome_app_indicator_a2e02b124c8a77edf2042beeba386039.svg">
  <sodipodi:namedview
     id="base"
     pagecolor="#cbced6"
     bordercolor="#666666"
     borderopacity="1.0"
     inkscape:pageopacity="1"
     inkscape:pageshadow="2"
     inkscape:zoom="32"
     inkscape:cx="3.1476157"
     inkscape:cy="10.518423"
     inkscape:document-units="px"
     inkscape:current-layer="layer1"
     showgrid="true"
     inkscape:window-width="1920"
     inkscape:window-height="1025"
     inkscape:window-x="-2"
     inkscape:window-y="32"
     inkscape:window-maximized="1"
     showguides="true"
     inkscape:guide-bbox="true"
     fit-margin-top="0"
     fit-margin-left="0"
     fit-margin-right="0"
     fit-margin-bottom="0"
     inkscape:snap-bbox="true"
     inkscape:bbox-paths="true"
     inkscape:bbox-nodes="true"
     inkscape:snap-bbox-edge-midpoints="true"
     inkscape:snap-bbox-midpoints="true"
     inkscape:snap-nodes="true"
     inkscape:object-paths="true"
     inkscape:snap-intersection-paths="true"
     inkscape:object-nodes="true"
     inkscape:snap-smooth-nodes="true"
     inkscape:snap-midpoints="true"
     inkscape:snap-object-midpoints="true"
     inkscape:snap-center="true"
     inkscape:snap-page="true"
     inkscape:snap-global="true">
    <inkscape:grid
       snapvisiblegridlinesonly="true"
       enabled="true"
       visible="true"
       empspacing="5"
       id="grid2816"
       type="xygrid"
       originx="-410px"
       originy="18.999958px" />
  </sodipodi:namedview>
  <defs
     id="defs4" />
  <metadata
     id="metadata7">
    <rdf:RDF>
      <cc:Work
         rdf:about="">
        <dc:format>image/svg+xml</dc:format>
        <dc:type
           rdf:resource="http://purl.org/dc/dcmitype/StillImage" />
        <dc:title></dc:title>
      </cc:Work>
    </rdf:RDF>
  </metadata>
  <g
     transform="translate(-410,-1049.3622)"
     id="layer1"
     inkscape:groupmode="layer"
     inkscape:label="Layer 1">
    <path
       style="color:#000000;fill:#434a54;fill-opacity:0.6745098;fill-rule:nonzero;stroke:none;stroke-width:22.13853836;marker:none;visibility:visible;display:inline;overflow:visible;enable-background:accumulate"
       d="M 10.4375,2 C 10.4285,2.021 10.3912,2.03225 10.375,2.03125 10.09768,2.05625 9.80496,2.073 9.53125,2.125 7.52962,2.5044 5.89741,3.4749 4.625,5.0625 3.5785,6.368 2.99952,7.8926 2.875,9.5625 2.86,9.7635 2.84395,9.95615 2.84375,10.15625 l 0,0.03125 c 9.3e-4,0.5963 0.0874,1.1641 0.21875,1.75 0.13184,0.5885 0.32924,1.17525 0.59375,1.71875 0.0232,0.046 0.039,0.079 0.0625,0.125 0.43456,0.8557 0.98687,1.62265 1.6875,2.28125 0.3689,0.3467 0.76057,0.6665 1.1875,0.9375 1.3075,0.8299 2.7307,1.26175 4.28125,1.28125 0.095,0 0.12541,0.028 0.125,0.125 -0.004,0.8299 -10e-4,1.6701 0,2.5 10e-5,0.032 -10e-4,0.05275 0,0.09375 0.0269,-0.011 0.0463,-0.02325 0.0625,-0.03125 1.55871,-0.7323 3.00524,-1.6525 4.28125,-2.8125 0.25378,-0.2308 0.485,-0.46705 0.71875,-0.71875 0.10004,-0.1078 0.21214,-0.23645 0.3125,-0.34375 0.15486,-0.1658 0.26026,-0.3258 0.40625,-0.5 0.1686,-0.2011 0.31946,-0.44105 0.46875,-0.65625 0.33018,-0.4755 0.62721,-0.94465 0.875,-1.46875 0.12535,-0.265 0.26938,-0.5393 0.375,-0.8125 0.004,-0.01 -0.002,-0.02625 0,-0.03125 0.28785,-0.7484 0.4641,-1.5181 0.5625,-2.3125 0.0343,-0.2767 0.0486,-0.5343 0.0625,-0.8125 0.006,-0.1258 0.03125,-0.28085 0.03125,-0.40625 C 19.15542,9.63095 19.11505,9.1443 19.03125,8.6875 18.74288,7.1153 18.05635,5.76565 16.96875,4.59375 16.50972,4.09905 15.974,3.64625 15.40625,3.28125 14.34891,2.60145 13.21793,2.21 11.96875,2.0625 11.81647,2.0445 11.65012,2.036 11.5,2 z"
       transform="translate(410,1049.3622)"
       id="path3840"
       inkscape:connector-curvature="0"
       sodipodi:nodetypes="cccccccccccccccccccccccccccccccccc" />
  </g>
</svg>
