<?xml version="1.0" encoding="UTF-8" standalone="no"?>
<!-- Created with Inkscape (http://www.inkscape.org/) -->

<svg
   xmlns:dc="http://purl.org/dc/elements/1.1/"
   xmlns:cc="http://creativecommons.org/ns#"
   xmlns:rdf="http://www.w3.org/1999/02/22-rdf-syntax-ns#"
   xmlns:svg="http://www.w3.org/2000/svg"
   xmlns="http://www.w3.org/2000/svg"
   xmlns:sodipodi="http://sodipodi.sourceforge.net/DTD/sodipodi-0.dtd"
   xmlns:inkscape="http://www.inkscape.org/namespaces/inkscape"
   version="1.1"
   width="22"
   height="22"
   id="svg2"
   inkscape:version="0.48.4 r9939"
   sodipodi:docname="thunderbird.svg">
  <sodipodi:namedview
     pagecolor="#ffffff"
     bordercolor="#666666"
     borderopacity="1"
     objecttolerance="10"
     gridtolerance="10"
     guidetolerance="10"
     inkscape:pageopacity="0"
     inkscape:pageshadow="2"
     inkscape:window-width="1920"
     inkscape:window-height="1025"
     id="namedview6"
     showgrid="true"
     inkscape:zoom="22.627417"
     inkscape:cx="14.094652"
     inkscape:cy="11.818526"
     inkscape:window-x="-2"
     inkscape:window-y="32"
     inkscape:window-maximized="1"
     inkscape:current-layer="svg2"
     inkscape:snap-global="false"
     inkscape:snap-bbox="true"
     inkscape:bbox-paths="true"
     inkscape:bbox-nodes="true"
     inkscape:snap-bbox-edge-midpoints="true"
     inkscape:snap-bbox-midpoints="true"
     inkscape:object-paths="true"
     inkscape:snap-intersection-paths="true"
     inkscape:object-nodes="true"
     inkscape:snap-smooth-nodes="true"
     inkscape:snap-midpoints="true"
     inkscape:snap-object-midpoints="true"
     inkscape:snap-center="true">
    <inkscape:grid
       type="xygrid"
       id="grid2982"
       empspacing="5"
       visible="true"
       enabled="true"
       snapvisiblegridlinesonly="true" />
  </sodipodi:namedview>
  <defs
     id="defs4" />
  <metadata
     id="metadata7">
    <rdf:RDF>
      <cc:Work
         rdf:about="">
        <dc:format>image/svg+xml</dc:format>
        <dc:type
           rdf:resource="http://purl.org/dc/dcmitype/StillImage" />
        <dc:title />
      </cc:Work>
    </rdf:RDF>
  </metadata>
  <path
     inkscape:transform-center-y="-0.67453534"
     inkscape:transform-center-x="0.0080945294"
     inkscape:connector-curvature="0"
     style="color:#000000;fill:#434a55;fill-opacity:0.6745098;fill-rule:nonzero;stroke:none;stroke-width:1;marker:none;visibility:visible;display:inline;overflow:visible;enable-background:accumulate"
     d="m 9.4265624,0.98893868 c -0.00216,0 -1.6753599,0.27011842 -2.896447,2.47463432 -0.00123,0.00891 0.00117,0.019189 0,0.028121 -0.015293,0.027292 -0.04115,0.056494 -0.056242,0.084363 C 6.4029093,3.7098017 6.3442553,3.850113 6.2770278,3.9978691 6.242544,4.072864 6.1976055,4.1440984 6.1645444,4.2228358 6.0742483,4.4385567 5.9917049,4.6526907 5.9114568,4.8977361 5.8307117,5.0243164 5.7644497,5.1503628 5.7146109,5.2914279 5.6633373,5.3930083 5.6217045,5.508816 5.6021275,5.6288781 c -0.003,0.017998 0.00241,0.037937 0,0.056242 -0.00251,0.019959 0.00186,0.035963 0,0.056242 -0.012136,0.1219337 -0.00625,0.2366 0,0.365571 0.01357,0.3100794 0.057085,0.6011622 0.084363,0.8717462 0.00807,0.080112 0.026424,0.1830484 0.028121,0.2530876 l 0,0.3374502 c -0.00171,-0.00375 -0.028281,0 -0.028121,0 6.468e-4,0 -0.019989,0.049817 -0.056242,0.168725 -0.036173,0.1189085 -0.086067,0.2973722 -0.1124833,0.4780544 -0.026524,0.1806821 -0.029836,0.3770961 0,0.5624169 0.027822,0.1723484 0.1095491,0.3212595 0.2249667,0.4499335 -0.00139,0.00911 9.449e-4,0.018942 0,0.028121 0.00387,0.00405 0.024136,-0.00396 0.028121,0 0,0 0.2207144,-0.4251913 0.6467794,-0.6467794 C 6.843697,8.3880995 7.2242,8.2107941 7.5424658,8.0191499 7.8607312,7.8275065 8.8668746,7.0346956 9.67965,7.091162 c 0.495295,0.034933 1.950946,0.2711088 4.161885,0.7030211 0.868966,1.3835834 1.173241,3.1700479 0.196846,5.0336309 0.0025,0 0.964472,0.15954 1.771613,-0.787383 -0.514844,4.538332 -3.255218,6.881515 -4.66806,7.508265 1.859116,0.128333 3.006364,-0.506175 3.00893,-0.506175 0.0023,0 -0.253418,0.270852 -0.787383,0.618659 C 17.181427,18.619656 20,15.148078 20,10.999959 20,6.030131 15.971158,2.0012891 11.00133,2.0012891 c -0.01019,0.030575 -0.01999,0.054257 -0.02812,0.084362 -0.197466,-0.0159 -0.392356,-0.028671 -0.590538,-0.028121 -0.20393,0.021175 -0.369522,0.071202 -0.534296,0.1124834 0.013411,-0.038621 0.010465,-0.069594 0.028121,-0.1124834 -0.087694,0.036361 -0.177799,0.065321 -0.2530876,0.1124834 -0.056537,0.035694 -0.1163715,0.071943 -0.1687251,0.1124833 -0.01063,0.00861 -0.017785,0.019381 -0.028121,0.028121 -0.010023,0.00803 -0.018254,0.019964 -0.028121,0.028121 C 9.2404951,2.4064245 9.0673716,2.4450368 8.9203872,2.5355851 9.0878608,2.234303 9.3533731,1.889817 9.67965,1.5794764 8.999921,1.8662128 8.1697267,2.9801594 7.7955534,3.294848 c -0.01044,0.007 -0.017601,0.021096 -0.028121,0.028121 -0.00342,-8.764e-4 -0.045131,-0.8137131 1.65913,-2.33403032 z M 5.1240731,4.1665941 C 4.9532277,4.3139521 4.8065057,4.4841615 4.6460188,4.6446485 1.1318194,8.1588478 1.1318194,13.841071 4.6460188,17.35527 3.2611527,15.251541 2.7408909,11.993219 3.1274932,10.071972 3.3914989,10.668395 3.8518349,11.202931 4.2804478,11.506135 3.8132276,10.714981 3.2550917,8.8556593 4.2523269,6.8943161 4.3010392,6.7985098 4.3647474,6.709342 4.421052,6.6131076 4.4877944,6.5135396 4.5745578,6.4297835 4.6460188,6.3318992 4.6414515,6.2672809 4.6209052,6.2318928 4.6178979,6.1631741 c -0.00617,-0.1273291 -0.021316,-0.2920121 0,-0.5061752 -0.015386,0.1674972 -0.028454,0.1418379 0,-0.084362 -1.332e-4,-0.00937 -1.332e-4,-0.018748 0,-0.028121 0.00519,-0.037228 -0.00891,-0.030832 0,-0.084363 C 4.6496419,5.2654769 4.7183807,5.1073446 4.786623,4.9539778 4.801991,4.9104798 4.825689,4.8829848 4.842865,4.8414944 4.915035,4.6671553 4.9798436,4.5013751 5.0678317,4.3634401 c 0.023195,-0.06483 0.033044,-0.1313246 0.056242,-0.196846 z"
     id="path3783" />
  <path
     style="color:#000000;fill:#404957;fill-opacity:0.23083699999999999;fill-rule:nonzero;stroke:none;stroke-width:1;marker:none;visibility:visible;display:inline;overflow:visible;enable-background:accumulate"
     d="m 9.59375,8.1875 c -0.019994,-0.00139 -0.3137745,0.079621 -0.625,0.25 C 8.6575245,8.6078788 8.419555,8.7913838 8.125,8.96875 7.731672,9.205593 7.3388202,9.3850302 6.9375,9.59375 6.8845103,9.6213089 6.75,9.75 6.75,9.75 c -0.1561288,0.311457 -0.4683337,0.539607 -0.8125,0.59375 8.85e-4,-1.47e-4 -0.02836,-7.16e-4 -0.03125,0 -0.031231,0.0013 -0.062519,0.0013 -0.09375,0 -0.046959,0.0022 -0.212534,0.0037 -0.25,0 -0.010416,1.48e-4 -0.020834,1.48e-4 -0.03125,0 C 5.531129,10.34373 5.494052,10.3205 5.46875,10.3125 5.437053,10.303494 5.405761,10.293064 5.375,10.28125 5.331524,10.26746 5.2813839,10.250061 5.28125,10.25 5.281212,10.24998 5.25684,10.22365 5.25,10.21875 5.172622,10.185634 5.0990646,10.143602 5.03125,10.09375 4.993614,10.06701 4.9375669,10.03132 4.9375,10.03125 c 0.08786,0.359937 0.187113,0.746846 0.28125,0.90625 0.3830132,0.65241 -0.1502834,1.627055 -0.90625,1.65625 0.022497,0.193716 0.064651,0.397494 0.09375,0.59375 l 8.65625,3.09375 c 0.440503,-0.645337 0.847824,-1.413272 1.15625,-2.34375 -0.02858,-0.0029 -0.187224,0 -0.1875,0 -0.759052,0.0013 -1.330914,-0.957918 -0.96875,-1.625 0.708524,-1.352315 0.526475,-2.5020454 0,-3.53125 C 11.34141,8.4589316 9.851131,8.205653 9.59375,8.1875 z"
     id="path2996"
     inkscape:connector-curvature="0"
     sodipodi:nodetypes="csssccccccccccccccccccccc" />
</svg>
