<?xml version="1.0" encoding="UTF-8" standalone="no"?>
<!-- Created with Inkscape (http://www.inkscape.org/) -->

<svg
   xmlns:dc="http://purl.org/dc/elements/1.1/"
   xmlns:cc="http://creativecommons.org/ns#"
   xmlns:rdf="http://www.w3.org/1999/02/22-rdf-syntax-ns#"
   xmlns:svg="http://www.w3.org/2000/svg"
   xmlns="http://www.w3.org/2000/svg"
   xmlns:xlink="http://www.w3.org/1999/xlink"
   xmlns:sodipodi="http://sodipodi.sourceforge.net/DTD/sodipodi-0.dtd"
   xmlns:inkscape="http://www.inkscape.org/namespaces/inkscape"
   width="64"
   height="64"
   id="svg13094"
   version="1.1"
   inkscape:version="0.48.3.1 r9886"
   sodipodi:docname="sound-converter.svg">
  <sodipodi:namedview
     id="base"
     pagecolor="#cbcdd6"
     bordercolor="#666666"
     borderopacity="1.0"
     inkscape:pageopacity="1"
     inkscape:pageshadow="2"
     inkscape:zoom="8.0000004"
     inkscape:cx="26.25415"
     inkscape:cy="33.654955"
     inkscape:document-units="px"
     inkscape:current-layer="svg13094"
     showgrid="true"
     inkscape:snap-bbox="true"
     inkscape:bbox-paths="true"
     inkscape:bbox-nodes="true"
     inkscape:snap-bbox-edge-midpoints="true"
     inkscape:snap-bbox-midpoints="true"
     inkscape:object-paths="true"
     inkscape:snap-intersection-paths="true"
     inkscape:object-nodes="true"
     inkscape:snap-smooth-nodes="true"
     inkscape:snap-midpoints="true"
     inkscape:snap-object-midpoints="true"
     inkscape:snap-center="true"
     showguides="true"
     inkscape:guide-bbox="true"
     inkscape:window-width="1920"
     inkscape:window-height="1023"
     inkscape:window-x="-10"
     inkscape:window-y="35"
     inkscape:window-maximized="1"
     inkscape:snap-global="true"
     fit-margin-top="0"
     fit-margin-left="0"
     fit-margin-right="0"
     fit-margin-bottom="0"
     showborder="true"
     inkscape:showpageshadow="false"
     inkscape:snap-page="true">
    <inkscape:grid
       type="xygrid"
       id="grid3075"
       empspacing="5"
       visible="true"
       enabled="true"
       snapvisiblegridlinesonly="true"
       originx="1.6362304e-08px"
       originy="18px" />
  </sodipodi:namedview>
  <defs
     id="defs13096">
    <linearGradient
       id="linearGradient3849">
      <stop
         style="stop-color:#7cffbf;stop-opacity:0.24563672;"
         offset="0"
         id="stop3851" />
      <stop
         id="stop5591"
         offset="0.5"
         style="stop-color:#5dffaa;stop-opacity:0.07433743;" />
      <stop
         style="stop-color:#43ffa0;stop-opacity:0.01939237;"
         offset="1"
         id="stop3853" />
    </linearGradient>
    <linearGradient
       id="linearGradient4059">
      <stop
         id="stop4061"
         offset="0"
         style="stop-color:#3f987e;stop-opacity:1;" />
      <stop
         id="stop4063"
         offset="1"
         style="stop-color:#2f4f58;stop-opacity:1;" />
    </linearGradient>
    <radialGradient
       inkscape:collect="always"
       xlink:href="#linearGradient3849"
       id="radialGradient5449"
       gradientUnits="userSpaceOnUse"
       gradientTransform="matrix(0.88620185,0,0,0.93750002,4.0915598,2.3634509)"
       cx="-30.386711"
       cy="32.42572"
       fx="-30.386711"
       fy="32.42572"
       r="32" />
    <radialGradient
       inkscape:collect="always"
       xlink:href="#linearGradient3849"
       id="radialGradient5463"
       gradientUnits="userSpaceOnUse"
       gradientTransform="matrix(0.88620185,0,0,0.93750002,-27.071241,-14.399112)"
       cx="-18.157894"
       cy="33.745651"
       fx="-18.157894"
       fy="33.745651"
       r="32" />
    <radialGradient
       inkscape:collect="always"
       xlink:href="#linearGradient4059"
       id="radialGradient5466"
       gradientUnits="userSpaceOnUse"
       gradientTransform="matrix(0,1.40625,-1.625,0,-14.587199,-27.237437)"
       cx="32"
       cy="18"
       fx="32"
       fy="18"
       r="32" />
    <radialGradient
       inkscape:collect="always"
       xlink:href="#linearGradient4059"
       id="radialGradient5497"
       gradientUnits="userSpaceOnUse"
       gradientTransform="matrix(0,1.3521635,-1.5625,0,-15.712199,-25.429745)"
       cx="33.422222"
       cy="18"
       fx="33.422222"
       fy="18"
       r="32" />
    <linearGradient
       id="linearGradient3800-4">
      <stop
         style="stop-color:#44ecff;stop-opacity:0.22495152;"
         offset="0"
         id="stop3802-0" />
      <stop
         id="stop3808-7"
         offset="0.5"
         style="stop-color:#4aefff;stop-opacity:0.11829347;" />
      <stop
         style="stop-color:#6af4ff;stop-opacity:0.05042017;"
         offset="0.75"
         id="stop3810-8" />
      <stop
         style="stop-color:#4df5ff;stop-opacity:0;"
         offset="1"
         id="stop3804-9" />
    </linearGradient>
    <radialGradient
       inkscape:collect="always"
       xlink:href="#linearGradient3800-4"
       id="radialGradient3806-6"
       cx="26.311583"
       cy="42.442974"
       fx="26.311583"
       fy="42.442974"
       r="32"
       gradientTransform="matrix(1.5610684,1.5204966e-8,0,0.18746473,-87.608078,25.131827)"
       gradientUnits="userSpaceOnUse" />
    <radialGradient
       r="32"
       fy="32.828899"
       fx="21.274454"
       cy="32.828899"
       cx="21.274454"
       gradientTransform="matrix(0.6161622,0,0,0.84635893,-66.625092,3.8891426)"
       gradientUnits="userSpaceOnUse"
       id="radialGradient5530"
       xlink:href="#linearGradient3800-4"
       inkscape:collect="always" />
    <radialGradient
       inkscape:collect="always"
       xlink:href="#linearGradient3849"
       id="radialGradient5571"
       gradientUnits="userSpaceOnUse"
       gradientTransform="matrix(0.88620185,0,0,0.93750002,4.0915598,2.3634509)"
       cx="-77.779976"
       cy="32.42572"
       fx="-77.779976"
       fy="32.42572"
       r="32" />
    <radialGradient
       inkscape:collect="always"
       xlink:href="#linearGradient5476-1"
       id="radialGradient3822-7"
       cx="28.400875"
       cy="32.453548"
       fx="28.400875"
       fy="32.453548"
       r="31"
       gradientTransform="matrix(0,1.3501998,-1.3501983,0,74.818724,-5.3944737)"
       gradientUnits="userSpaceOnUse" />
    <linearGradient
       id="linearGradient5476-1">
      <stop
         id="stop5478-1"
         offset="0"
         style="stop-color:#c7f9ff;stop-opacity:1" />
      <stop
         id="stop5480-4"
         offset="1"
         style="stop-color:#7fd2ff;stop-opacity:0.26696834;" />
    </linearGradient>
    <linearGradient
       id="linearGradient3816-3">
      <stop
         style="stop-color:#26f8ff;stop-opacity:0.25080803;"
         offset="0"
         id="stop3818-5" />
      <stop
         style="stop-color:#28f5ff;stop-opacity:0;"
         offset="1"
         id="stop3820-8" />
    </linearGradient>
    <radialGradient
       r="31"
       fy="31.087055"
       fx="21.216864"
       cy="31.087055"
       cx="21.216864"
       gradientTransform="matrix(1.3548387,-1.0017508e-8,1.5503286e-8,2.0967742,77.068145,-29.682535)"
       gradientUnits="userSpaceOnUse"
       id="radialGradient3890"
       xlink:href="#linearGradient3816-3"
       inkscape:collect="always" />
    <radialGradient
       inkscape:collect="always"
       xlink:href="#linearGradient5476-1-8"
       id="radialGradient3822-7-9"
       cx="28.420677"
       cy="31.697449"
       fx="28.420677"
       fy="31.697449"
       r="31"
       gradientTransform="matrix(0,1.3501998,-1.3501983,0,74.818724,-5.3944737)"
       gradientUnits="userSpaceOnUse" />
    <linearGradient
       id="linearGradient5476-1-8">
      <stop
         id="stop5478-1-1"
         offset="0"
         style="stop-color:#c7f9ff;stop-opacity:1" />
      <stop
         id="stop5480-4-2"
         offset="1"
         style="stop-color:#8cffe9;stop-opacity:0.26696834;" />
    </linearGradient>
    <radialGradient
       inkscape:collect="always"
       xlink:href="#linearGradient5476-1-8"
       id="radialGradient3991"
       gradientUnits="userSpaceOnUse"
       gradientTransform="matrix(-0.3494574,-1.3041929,1.3041914,-0.34945703,0.83632955,83.134442)"
       cx="28.420677"
       cy="31.697449"
       fx="28.420677"
       fy="31.697449"
       r="31" />
    <radialGradient
       inkscape:collect="always"
       xlink:href="#linearGradient5476-1"
       id="radialGradient3999"
       gradientUnits="userSpaceOnUse"
       gradientTransform="matrix(0,1.3501998,-1.3501983,0,74.818724,-5.3944737)"
       cx="28.400875"
       cy="32.453548"
       fx="28.400875"
       fy="32.453548"
       r="31" />
    <radialGradient
       inkscape:collect="always"
       xlink:href="#linearGradient5476-1-8"
       id="radialGradient4001"
       gradientUnits="userSpaceOnUse"
       gradientTransform="matrix(-0.3494574,-1.3041929,1.3041914,-0.34945703,0.83632955,83.134442)"
       cx="28.420677"
       cy="31.697449"
       fx="28.420677"
       fy="31.697449"
       r="31" />
    <radialGradient
       inkscape:collect="always"
       xlink:href="#linearGradient5476-1-8"
       id="radialGradient4004"
       gradientUnits="userSpaceOnUse"
       gradientTransform="matrix(0.3494574,1.3041929,-1.3041914,0.34945703,63.16367,-15.134441)"
       cx="28.420677"
       cy="31.697449"
       fx="28.420677"
       fy="31.697449"
       r="31" />
    <radialGradient
       inkscape:collect="always"
       xlink:href="#linearGradient5476-1"
       id="radialGradient4007"
       gradientUnits="userSpaceOnUse"
       gradientTransform="matrix(0,1.3501998,-1.3501983,0,74.818724,-5.3944737)"
       cx="28.400875"
       cy="32.453548"
       fx="28.400875"
       fy="32.453548"
       r="31" />
    <radialGradient
       inkscape:collect="always"
       xlink:href="#linearGradient5476-1-8"
       id="radialGradient4009"
       gradientUnits="userSpaceOnUse"
       gradientTransform="matrix(-0.3494574,-1.3041929,1.3041914,-0.34945703,0.83632955,83.134442)"
       cx="28.420677"
       cy="31.697449"
       fx="28.420677"
       fy="31.697449"
       r="31" />
    <radialGradient
       inkscape:collect="always"
       xlink:href="#linearGradient5476-1-8"
       id="radialGradient4012"
       gradientUnits="userSpaceOnUse"
       gradientTransform="matrix(-0.3494574,-1.3041929,1.3041914,-0.34945703,0.83632955,83.134442)"
       cx="28.420677"
       cy="31.697449"
       fx="28.420677"
       fy="31.697449"
       r="31" />
    <radialGradient
       inkscape:collect="always"
       xlink:href="#linearGradient5476-1-8"
       id="radialGradient4038"
       gradientUnits="userSpaceOnUse"
       gradientTransform="matrix(0.3494574,1.3041929,-1.3041914,0.34945703,63.16367,-15.134441)"
       cx="28.420677"
       cy="31.697449"
       fx="28.420677"
       fy="31.697449"
       r="31" />
    <radialGradient
       r="31"
       fy="31.087055"
       fx="-32.526489"
       cy="31.087055"
       cx="-32.526489"
       gradientTransform="matrix(1.3548387,-1.0017508e-8,1.5503286e-8,2.0967742,77.068145,-29.682535)"
       gradientUnits="userSpaceOnUse"
       id="radialGradient3890-7"
       xlink:href="#linearGradient3816-3-8"
       inkscape:collect="always" />
    <linearGradient
       id="linearGradient3816-3-8">
      <stop
         style="stop-color:#26f8ff;stop-opacity:0.10795087;"
         offset="0"
         id="stop3818-5-5" />
      <stop
         style="stop-color:#28f5ff;stop-opacity:0;"
         offset="1"
         id="stop3820-8-5" />
    </linearGradient>
    <radialGradient
       inkscape:collect="always"
       xlink:href="#linearGradient3849"
       id="radialGradient4059"
       gradientUnits="userSpaceOnUse"
       gradientTransform="matrix(0.88620185,0,0,0.93750002,79.928759,3.6008877)"
       cx="-77.779976"
       cy="32.42572"
       fx="-77.779976"
       fy="32.42572"
       r="32" />
    <radialGradient
       inkscape:collect="always"
       xlink:href="#linearGradient3849"
       id="radialGradient4062"
       gradientUnits="userSpaceOnUse"
       gradientTransform="matrix(0.88620185,0,0,0.93750002,79.928759,3.6008877)"
       cx="-30.386711"
       cy="32.42572"
       fx="-30.386711"
       fy="32.42572"
       r="32" />
    <radialGradient
       inkscape:collect="always"
       xlink:href="#linearGradient4059"
       id="radialGradient4065"
       gradientUnits="userSpaceOnUse"
       gradientTransform="matrix(0,1.78125,-2.0583333,0,69.049999,-36.946666)"
       cx="29.724443"
       cy="18"
       fx="29.724443"
       fy="18"
       r="32" />
    <radialGradient
       inkscape:collect="always"
       xlink:href="#linearGradient3800-4"
       id="radialGradient4068"
       gradientUnits="userSpaceOnUse"
       gradientTransform="matrix(1.5610684,1.5204966e-8,0,0.18746473,-11.770879,26.369264)"
       cx="26.311583"
       cy="42.442974"
       fx="26.311583"
       fy="42.442974"
       r="32" />
    <radialGradient
       inkscape:collect="always"
       xlink:href="#linearGradient3800-4"
       id="radialGradient4071"
       gradientUnits="userSpaceOnUse"
       gradientTransform="matrix(0.6161622,0,0,0.84635893,9.212107,5.1265794)"
       cx="21.274454"
       cy="32.828899"
       fx="21.274454"
       fy="32.828899"
       r="32" />
    <radialGradient
       inkscape:collect="always"
       xlink:href="#linearGradient3816-3-8"
       id="radialGradient4079"
       gradientUnits="userSpaceOnUse"
       gradientTransform="matrix(1.3548387,-1.0017508e-8,1.5503286e-8,2.0967742,77.068145,-29.682535)"
       cx="-32.526489"
       cy="31.087055"
       fx="-32.526489"
       fy="31.087055"
       r="31" />
    <radialGradient
       inkscape:collect="always"
       xlink:href="#linearGradient3816-3-8"
       id="radialGradient4083"
       gradientUnits="userSpaceOnUse"
       gradientTransform="matrix(1.3548387,-1.0017508e-8,1.5503286e-8,2.0967742,77.068145,-29.682535)"
       cx="-32.526489"
       cy="31.087055"
       fx="-32.526489"
       fy="31.087055"
       r="31" />
    <radialGradient
       inkscape:collect="always"
       xlink:href="#linearGradient3816-3-8"
       id="radialGradient4087"
       gradientUnits="userSpaceOnUse"
       gradientTransform="matrix(1.3548387,-1.0017508e-8,1.5503286e-8,2.0967742,77.068145,-29.682535)"
       cx="-32.526489"
       cy="31.087055"
       fx="-32.526489"
       fy="31.087055"
       r="31" />
  </defs>
  <metadata
     id="metadata13099">
    <rdf:RDF>
      <cc:Work
         rdf:about="">
        <dc:format>image/svg+xml</dc:format>
        <dc:type
           rdf:resource="http://purl.org/dc/dcmitype/StillImage" />
        <dc:title />
      </cc:Work>
    </rdf:RDF>
  </metadata>
  <path
     inkscape:connector-curvature="0"
     style="color:#000000;fill:url(#radialGradient4071);fill-opacity:1;fill-rule:nonzero;stroke:none;stroke-width:2.28571415;marker:none;visibility:visible;display:inline;overflow:visible;enable-background:accumulate"
     d="M 0,4.0000001 0,34 l 0,28 2,2 30,0 30,0 2,-2 0,-28 0,-29.9999999 -32,0 -32,0 z"
     id="path3812" />
  <path
     id="path4095"
     d="m 0,4 0,30 0,28 2,2 30,0 30,0 2,-2 L 64,34 64,4 32,4 0,4 z"
     style="color:#000000;fill:url(#radialGradient4068);fill-opacity:1;fill-rule:nonzero;stroke:none;stroke-width:2.28571415;marker:none;visibility:visible;display:inline;overflow:visible;enable-background:accumulate"
     inkscape:connector-curvature="0" />
  <path
     id="path5441"
     d="m 0,4 0,30 0,28 2,2 30,0 30,0 2,-2 L 64,34 64,4 32,4 0,4 z"
     style="color:#000000;fill:url(#radialGradient4065);fill-opacity:1;fill-rule:nonzero;stroke:none;stroke-width:2.28571415000000000;marker:none;visibility:visible;display:inline;overflow:visible;enable-background:accumulate"
     inkscape:connector-curvature="0" />
  <path
     inkscape:connector-curvature="0"
     style="color:#000000;fill:#46b69a;fill-opacity:1;fill-rule:nonzero;stroke:none;stroke-width:2.28571415000000000;marker:none;visibility:visible;display:inline;overflow:visible;enable-background:accumulate"
     d="M 2,0 0,1 0,4 32,4 64,4 64,1 62,0 32,0 2,0 z"
     id="path4090" />
  <path
     style="fill:#ffffff;fill-opacity:0.14487633;fill-rule:nonzero"
     d="M 0 3 L 0 6 L 2 4 L 32 4 L 62 4 L 64 3 L 32 3 L 0 3 z "
     id="path4298" />
  <path
     style="fill:#1f0700;fill-opacity:0.06978802;fill-rule:nonzero"
     d="M 2 0 L 0 1 L 32 1 L 64 1 L 62 0 L 32 0 L 2 0 z "
     id="path4444" />
  <path
     d="M 64,6 62,4 64,3 z"
     id="path3028"
     style="fill:#1f0700;fill-opacity:0.13759861"
     inkscape:connector-curvature="0" />
  <path
     style="fill:#000000;fill-opacity:0.11130587;fill-rule:nonzero"
     d="M 63 0.5 L 63 34 L 63 63 L 64 62 L 64 34 L 64 1 L 63 0.5 z M 63 63 L 32 63 L 1 63 L 2 64 L 32 64 L 62 64 L 63 63 z "
     id="path4366" />
  <g
     id="g3043"
     inkscape:export-filename="folder.png"
     inkscape:export-xdpi="90"
     inkscape:export-ydpi="90"
     transform="translate(-0.62500009,0.082283)" />
  <path
     style="fill:#ffffff;fill-opacity:0.35070675;fill-rule:nonzero"
     d="M 0 1 L 0 34 L 0 62 L 1 63 L 1 34 L 1 5 L 2 4 L 1 3.46875 L 1 1 L 0 1 z "
     id="path3864" />
  <g
     id="scalable"
     transform="matrix(1.0385892,0,0,1.0385892,1214.7222,1878.8121)"
     inkscape:label="#g3701"
     style="fill:#ffffff" />
  <g
     id="g4089">
    <path
       id="path4077"
       style="color:#000000;fill:none;stroke:url(#radialGradient4079);stroke-width:5;stroke-linecap:butt;stroke-linejoin:round;stroke-miterlimit:4;stroke-opacity:1;stroke-dasharray:none;stroke-dashoffset:0;marker:none;visibility:visible;display:inline;overflow:visible;enable-background:accumulate"
       d="M 48.69814,46.090167 54.821864,49.6257 51.28633,55.749425 M 54.821864,49.6257 37.4352,54.284442 M 15.30186,21.909834 9.1781359,18.374301 12.71367,12.250576 M 9.1781359,18.374301 26.5648,13.715559 m 0,-1e-6 C 37.767588,10.71378 49.282664,17.362012 52.284442,28.5648 52.759431,30.337483 53,32.164783 53,34 l -6.588647,-0.178552 -1.12987,-2.403227 -2.259745,6.008069 -2.259743,-10.960161 0,7.355319 L 39.632122,31.418221 38.4643,36.625214 36.242504,30.617145 35.112632,41.03113 33.982761,27.012304 31.855443,32.619835 30.593143,29.81607 29.652489,40.230055 28.333399,24.281429 26.073654,42.633282 23.813912,29.81607 22.684037,36.625214 21.554166,26.193041 19.294422,33.821448 11,34 c 0,1.835217 0.240569,3.662517 0.715558,5.435201 3.001778,11.202787 14.516854,17.85102 25.719642,14.849242"
       inkscape:connector-curvature="0"
       sodipodi:nodetypes="cccccccccccscccccccccccccccccccccsc" />
    <path
       sodipodi:nodetypes="cccccccccccscccccccccccccccccccccsc"
       inkscape:connector-curvature="0"
       d="M 48.69814,46.090167 54.821864,49.6257 51.28633,55.749425 M 54.821864,49.6257 37.4352,54.284442 M 15.30186,21.909834 9.1781359,18.374301 12.71367,12.250576 M 9.1781359,18.374301 26.5648,13.715559 m 0,-1e-6 C 37.767588,10.71378 49.282664,17.362012 52.284442,28.5648 52.759431,30.337483 53,32.164783 53,34 l -6.588647,-0.178552 -1.12987,-2.403227 -2.259745,6.008069 -2.259743,-10.960161 0,7.355319 L 39.632122,31.418221 38.4643,36.625214 36.242504,30.617145 35.112632,41.03113 33.982761,27.012304 31.855443,32.619835 30.593143,29.81607 29.652489,40.230055 28.333399,24.281429 26.073654,42.633282 23.813912,29.81607 22.684037,36.625214 21.554166,26.193041 19.294422,33.821448 11,34 c 0,1.835217 0.240569,3.662517 0.715558,5.435201 3.001778,11.202787 14.516854,17.85102 25.719642,14.849242"
       style="color:#000000;fill:none;stroke:url(#radialGradient4087);stroke-width:4;stroke-linecap:butt;stroke-linejoin:round;stroke-miterlimit:4;stroke-opacity:1;stroke-dasharray:none;stroke-dashoffset:0;marker:none;visibility:visible;display:inline;overflow:visible;enable-background:accumulate"
       id="path4085" />
    <path
       id="path4081"
       style="color:#000000;fill:none;stroke:url(#radialGradient4083);stroke-width:3;stroke-linecap:butt;stroke-linejoin:round;stroke-miterlimit:4;stroke-opacity:1;stroke-dasharray:none;stroke-dashoffset:0;marker:none;visibility:visible;display:inline;overflow:visible;enable-background:accumulate"
       d="M 48.69814,46.090167 54.821864,49.6257 51.28633,55.749425 M 54.821864,49.6257 37.4352,54.284442 M 15.30186,21.909834 9.1781359,18.374301 12.71367,12.250576 M 9.1781359,18.374301 26.5648,13.715559 m 0,-1e-6 C 37.767588,10.71378 49.282664,17.362012 52.284442,28.5648 52.759431,30.337483 53,32.164783 53,34 l -6.588647,-0.178552 -1.12987,-2.403227 -2.259745,6.008069 -2.259743,-10.960161 0,7.355319 L 39.632122,31.418221 38.4643,36.625214 36.242504,30.617145 35.112632,41.03113 33.982761,27.012304 31.855443,32.619835 30.593143,29.81607 29.652489,40.230055 28.333399,24.281429 26.073654,42.633282 23.813912,29.81607 22.684037,36.625214 21.554166,26.193041 19.294422,33.821448 11,34 c 0,1.835217 0.240569,3.662517 0.715558,5.435201 3.001778,11.202787 14.516854,17.85102 25.719642,14.849242"
       inkscape:connector-curvature="0"
       sodipodi:nodetypes="cccccccccccscccccccccccccccccccccsc" />
    <path
       sodipodi:nodetypes="cccccccccccscccccccccccccccccccccsc"
       inkscape:connector-curvature="0"
       d="M 48.69814,46.090167 54.821864,49.6257 51.28633,55.749425 M 54.821864,49.6257 37.4352,54.284442 M 15.30186,21.909834 9.1781359,18.374301 12.71367,12.250576 M 9.1781359,18.374301 26.5648,13.715559 m 0,-1e-6 C 37.767588,10.71378 49.282664,17.362012 52.284442,28.5648 52.759431,30.337483 53,32.164783 53,34 l -6.588647,-0.178552 -1.12987,-2.403227 -2.259745,6.008069 -2.259743,-10.960161 0,7.355319 L 39.632122,31.418221 38.4643,36.625214 36.242504,30.617145 35.112632,41.03113 33.982761,27.012304 31.855443,32.619835 30.593143,29.81607 29.652489,40.230055 28.333399,24.281429 26.073654,42.633282 23.813912,29.81607 22.684037,36.625214 21.554166,26.193041 19.294422,33.821448 11,34 c 0,1.835217 0.240569,3.662517 0.715558,5.435201 3.001778,11.202787 14.516854,17.85102 25.719642,14.849242"
       style="color:#000000;fill:none;stroke:url(#radialGradient3890-7);stroke-width:2;stroke-linecap:butt;stroke-linejoin:round;stroke-miterlimit:4;stroke-opacity:1;stroke-dasharray:none;stroke-dashoffset:0;marker:none;visibility:visible;display:inline;overflow:visible;enable-background:accumulate"
       id="path3997" />
  </g>
  <path
     sodipodi:nodetypes="cccccccccccscccccccccccccccccccccsc"
     inkscape:connector-curvature="0"
     d="M 48.69814,46.090167 54.821864,49.6257 51.28633,55.749425 M 54.821864,49.6257 37.4352,54.284442 M 15.30186,21.909834 9.1781359,18.374301 12.71367,12.250576 M 9.1781359,18.374301 26.5648,13.715559 m 0,-1e-6 C 37.767588,10.71378 49.282664,17.362012 52.284442,28.5648 52.759431,30.337483 53,32.164783 53,34 l -6.588647,-0.178552 -1.12987,-2.403227 -2.259745,6.008069 -2.259743,-10.960161 0,7.355319 L 39.632122,31.418221 38.4643,36.625214 36.242504,30.617145 35.112632,41.03113 33.982761,27.012304 31.855443,32.619835 30.593143,29.81607 29.652489,40.230055 28.333399,24.281429 26.073654,42.633282 23.813912,29.81607 22.684037,36.625214 21.554166,26.193041 19.294422,33.821448 11,34 c 0,1.835217 0.240569,3.662517 0.715558,5.435201 3.001778,11.202787 14.516854,17.85102 25.719642,14.849242"
     style="color:#000000;fill:none;stroke:url(#radialGradient4038);stroke-width:1;stroke-linecap:butt;stroke-linejoin:round;stroke-miterlimit:4;stroke-opacity:1;stroke-dasharray:none;stroke-dashoffset:0;marker:none;visibility:visible;display:inline;overflow:visible;enable-background:accumulate"
     id="path4036" />
</svg>
