<?xml version="1.0" encoding="UTF-8" standalone="no"?>
<!-- Created with Inkscape (http://www.inkscape.org/) -->

<svg
   xmlns:dc="http://purl.org/dc/elements/1.1/"
   xmlns:cc="http://creativecommons.org/ns#"
   xmlns:rdf="http://www.w3.org/1999/02/22-rdf-syntax-ns#"
   xmlns:svg="http://www.w3.org/2000/svg"
   xmlns="http://www.w3.org/2000/svg"
   xmlns:sodipodi="http://sodipodi.sourceforge.net/DTD/sodipodi-0.dtd"
   xmlns:inkscape="http://www.inkscape.org/namespaces/inkscape"
   width="16.000042"
   height="16.000004"
   id="svg27665"
   version="1.1"
   inkscape:version="0.48.3.1 r9886"
   sodipodi:docname="gnome-shell-extension-prefs.svg">
  <defs
     id="defs27667" />
  <sodipodi:namedview
     id="base"
     pagecolor="#ffffff"
     bordercolor="#666666"
     borderopacity="1.0"
     inkscape:pageopacity="0.0"
     inkscape:pageshadow="2"
     inkscape:zoom="31.999999"
     inkscape:cx="9.8755368"
     inkscape:cy="10.244703"
     inkscape:document-units="px"
     inkscape:current-layer="layer1"
     showgrid="true"
     inkscape:window-width="1920"
     inkscape:window-height="1033"
     inkscape:window-x="-10"
     inkscape:window-y="25"
     inkscape:window-maximized="1"
     inkscape:snap-bbox="true"
     inkscape:bbox-paths="true"
     inkscape:bbox-nodes="true"
     inkscape:snap-bbox-edge-midpoints="true"
     inkscape:snap-bbox-midpoints="true"
     inkscape:object-paths="true"
     inkscape:snap-intersection-paths="true"
     inkscape:object-nodes="true"
     inkscape:snap-smooth-nodes="true"
     inkscape:snap-midpoints="true"
     inkscape:snap-object-midpoints="true"
     inkscape:snap-center="true"
     inkscape:snap-global="false"
     showguides="false"
     inkscape:guide-bbox="true"
     fit-margin-top="0"
     fit-margin-left="0"
     fit-margin-right="0"
     fit-margin-bottom="0"
     inkscape:showpageshadow="false">
    <sodipodi:guide
       orientation="1,0"
       position="-3201.6232,-603.37575"
       id="guide4181" />
    <inkscape:grid
       type="xygrid"
       id="grid3296"
       empspacing="5"
       visible="true"
       enabled="true"
       snapvisiblegridlinesonly="true"
       originx="-1854.9999px"
       originy="-1853.0001px" />
    <sodipodi:guide
       orientation="1,0"
       position="-1342.9999,-1343"
       id="guide3432" />
    <sodipodi:guide
       orientation="1,0"
       position="-1854.9999,-1343"
       id="guide4416" />
    <sodipodi:guide
       orientation="0,1"
       position="-1854.9999,-1343"
       id="guide3391" />
    <sodipodi:guide
       orientation="0,1"
       position="-1564.9999,-1358"
       id="guide3393" />
    <sodipodi:guide
       orientation="0,1"
       position="-1529.9999,-1840.0001"
       id="guide3395" />
    <sodipodi:guide
       orientation="1,0"
       position="-1357.9999,-1600.0001"
       id="guide3397" />
    <sodipodi:guide
       orientation="1,0"
       position="-1839.9999,-1600.0001"
       id="guide3399" />
    <sodipodi:guide
       orientation="1,0"
       position="-1829.9999,-1600.0001"
       id="guide3401" />
    <sodipodi:guide
       orientation="1,0"
       position="-1367.9999,-1584.0001"
       id="guide3403" />
    <sodipodi:guide
       orientation="0,1"
       position="-1569.9999,-1368"
       id="guide3405" />
    <sodipodi:guide
       orientation="0,1"
       position="-1599.9999,-1830.0001"
       id="guide3407" />
    <sodipodi:guide
       orientation="1,0"
       position="-394.99996,-385.99995"
       id="guide3628" />
    <sodipodi:guide
       orientation="1,0"
       position="-346.99996,-382.99995"
       id="guide3630" />
    <sodipodi:guide
       orientation="0,1"
       position="-378.99996,-346.99995"
       id="guide3632" />
    <sodipodi:guide
       orientation="0,1"
       position="-376.99996,-394.99995"
       id="guide3634" />
    <sodipodi:guide
       orientation="0,1"
       position="-395.99996,-349.99995"
       id="guide3636" />
    <sodipodi:guide
       orientation="1,0"
       position="-349.99996,-344.99995"
       id="guide3638" />
    <sodipodi:guide
       orientation="0,1"
       position="-399.99996,-391.99995"
       id="guide3640" />
    <sodipodi:guide
       orientation="1,0"
       position="-391.99996,-344.99995"
       id="guide3642" />
  </sodipodi:namedview>
  <metadata
     id="metadata27670">
    <rdf:RDF>
      <cc:Work
         rdf:about="">
        <dc:format>image/svg+xml</dc:format>
        <dc:type
           rdf:resource="http://purl.org/dc/dcmitype/StillImage" />
        <dc:title />
      </cc:Work>
    </rdf:RDF>
  </metadata>
  <g
     inkscape:label="Camada 1"
     inkscape:groupmode="layer"
     id="layer1"
     transform="translate(1683.7081,-526.68635)">
    <g
       id="scalable"
       transform="matrix(0.77893781,0,0,0.77893781,-777.42115,1929.5381)"
       inkscape:label="#g3701" />
    <path
       id="path3021"
       d="m -1674.2081,527.68635 0.5,3 3,0 0,-3 -3.5,0 z m -2.1563,0.25 -2.0625,0.875 1.6875,2.59375 1.375,-0.75 -1,-2.71875 z m -3.0937,2.0625 -1.5,1.71875 1.9687,1.8125 1.3125,-1.1875 -1.7812,-2.34375 z m 7.125,1.78125 c -3.5729,0.11255 -6.5028,2.30122 -7.2813,5.5625 0,0 0.9441,2.17039 2.9063,3.46875 2.3134,1.53081 5.4724,1.04152 6.125,-0.25 0.707,-1.3991 0.5648,-2.26957 -1.0625,-3 -1.3961,-0.6267 -1.3367,1.90989 -4.0625,0.125 -0.9047,-0.48565 -0.9647,-1.42432 0,-2 3.3663,-0.93436 3.6176,0.27078 5.2187,-1.53125 -0.098,-0.91198 0.3575,-1.84347 -1.0937,-2.34375 -0.2432,-0.0112 -0.5118,-0.0387 -0.75,-0.0312 z m -9.5625,1.21875 -1.0313,2.15625 2.4375,1.125 0.6875,-1.1875 -2.0937,-2.09375 z"
       style="fill:#434a55;fill-opacity:0.6745098;stroke:none"
       inkscape:connector-curvature="0" />
    <path
       style="font-size:medium;font-style:normal;font-variant:normal;font-weight:normal;font-stretch:normal;text-indent:0;text-align:start;text-decoration:none;line-height:normal;letter-spacing:normal;word-spacing:normal;text-transform:none;direction:ltr;block-progression:tb;writing-mode:lr-tb;text-anchor:start;baseline-shift:baseline;color:#000000;fill:#d1d4d6;fill-opacity:0.74329164;fill-rule:nonzero;stroke:none;stroke-width:2;marker:none;visibility:visible;display:inline;overflow:visible;enable-background:accumulate;font-family:Sans;-inkscape-font-specification:Sans"
       d="m 7.90625,-0.09375 -1.125,0.28125 -2.0625,0.875 -0.9375,0.59375 0.25,0.375 -0.75,0.40625 -1.5,1.71875 L 1.6875,4.75 1.53125,4.59375 0.71874999,5.71875 -0.125,8.03125 -0.5625,8.9375 0.56250001,9.65625 2.75,10.90625 l 0.25,0.125 -0.03125,0.125 0.15625,0.3125 c 0,0 0.76445,2.09384 3.03125,3.59375 1.3723,0.90806 3.22305,1.10915 4.59375,1 1.3707,-0.10915 2.68505,-0.56992 3.28125,-1.75 0.4034,-0.79815 0.86295,-1.69749 0.59375,-2.5625 -0.2692,-0.86501 -1.1233,-1.54722 -2.0625,-1.96875 -0.5765,-0.2588 -1.807651,0.1012886 -2.097616,0.252577 -0.289965,0.151324 -0.434637,0.297142 -0.5396263,0.366946 -0.1049206,0.06981 -0.1083051,0.09252 -0.2158505,0.08634 -0.1074763,-0.0062 -0.3465696,-0.07759 -0.7554768,-0.34536 l -0.04317,-0.02158 -0.021585,0 c -0.077326,-0.04151 -0.1001806,-0.07022 -0.1079253,-0.08634 2.072e-4,0.01098 0.043861,-0.02096 0.04317,-0.02158 C 9.8415768,9.7405884 10.337964,9.7636585 10.875,9.7316366 11.718582,9.7758898 13.969823,9.3661462 13.96875,8.125 L 14.375,7.75 14.34375,7.3125 C 14.31575,7.0561 14.41425,6.56031 14.28125,5.875 14.21825,5.55319 13.8893,5.30254 13.625,5 L 14,5 14,4 14,1 14,0 13,0 9.5,0 8.3125,0 8.5,1.15625 l 0.09375,0.625 -0.3125,-0.875 z M 9.5,1 13,1 13,4 10,4 z m -2.15625,0.25 1,2.71875 -1.375,0.75 L 5.28125,2.125 z M 4.25,3.3125 6.03125,5.65625 4.71875,6.84375 2.75,5.03125 z m 7.125,1.78125 c 0.2382,-0.0075 0.5068,0.02005 0.75,0.03125 1.4512,0.50028 0.99575,1.43177 1.09375,2.34375 C 11.61765,9.27078 11.3663,8.06564 8,9 c -0.9647,0.57568 -0.9047,1.51435 0,2 2.7258,1.78489 2.6664,-0.7517 4.0625,-0.125 1.6273,0.73043 1.7695,1.6009 1.0625,3 C 12.4724,15.16652 9.3134,15.65581 7,14.125 5.0378,12.82664 4.09375,10.65625 4.09375,10.65625 4.87225,7.39497 7.8021,5.2063 11.375,5.09375 z m -9.5625,1.21875 2.09375,2.09375 -0.6875,1.1875 -2.4375,-1.125 z"
       transform="translate(-1683.7081,526.68635)"
       id="path3010"
       inkscape:connector-curvature="0"
       sodipodi:nodetypes="ccccccccccccccccccscscccccccccccccccccccccccccccccccccccccccccccccccccccccccc" />
  </g>
</svg>
