<?xml version="1.0" encoding="UTF-8" standalone="no"?>
<!-- Created with Inkscape (http://www.inkscape.org/) -->

<svg
   xmlns:dc="http://purl.org/dc/elements/1.1/"
   xmlns:cc="http://creativecommons.org/ns#"
   xmlns:rdf="http://www.w3.org/1999/02/22-rdf-syntax-ns#"
   xmlns:svg="http://www.w3.org/2000/svg"
   xmlns="http://www.w3.org/2000/svg"
   xmlns:xlink="http://www.w3.org/1999/xlink"
   xmlns:sodipodi="http://sodipodi.sourceforge.net/DTD/sodipodi-0.dtd"
   xmlns:inkscape="http://www.inkscape.org/namespaces/inkscape"
   id="svg13094"
   height="64"
   width="64"
   version="1.1"
   inkscape:version="0.48.4 r9939"
   sodipodi:docname="folder-remote.svg"
   inkscape:export-filename="folder.png"
   inkscape:export-xdpi="90"
   inkscape:export-ydpi="90">
  <sodipodi:namedview
     pagecolor="#ffffff"
     bordercolor="#666666"
     borderopacity="1"
     objecttolerance="10"
     gridtolerance="10"
     guidetolerance="10"
     inkscape:pageopacity="0"
     inkscape:pageshadow="2"
     inkscape:window-width="1920"
     inkscape:window-height="1022"
     id="namedview46"
     showgrid="true"
     inkscape:snap-bbox="true"
     inkscape:bbox-paths="true"
     inkscape:bbox-nodes="true"
     inkscape:snap-bbox-edge-midpoints="true"
     inkscape:snap-bbox-midpoints="true"
     inkscape:snap-nodes="true"
     inkscape:object-paths="true"
     inkscape:snap-intersection-paths="true"
     inkscape:object-nodes="true"
     inkscape:snap-smooth-nodes="true"
     inkscape:snap-midpoints="true"
     inkscape:snap-object-midpoints="true"
     inkscape:snap-center="true"
     fit-margin-top="0"
     fit-margin-left="0"
     fit-margin-right="0"
     fit-margin-bottom="0"
     inkscape:zoom="10.429825"
     inkscape:cx="40.420881"
     inkscape:cy="34.625948"
     inkscape:window-x="-5"
     inkscape:window-y="23"
     inkscape:window-maximized="1"
     inkscape:current-layer="svg13094"
     showguides="true"
     inkscape:guide-bbox="true"
     inkscape:snap-page="true"
     inkscape:snap-global="true">
    <inkscape:grid
       type="xygrid"
       id="grid3023"
       empspacing="5"
       visible="true"
       enabled="true"
       snapvisiblegridlinesonly="true"
       originx="-80px"
       originy="-75px" />
  </sodipodi:namedview>
  <defs
     id="defs11">
    <linearGradient
       inkscape:collect="always"
       xlink:href="#linearGradient3841-4-5-8-8"
       id="linearGradient3792"
       gradientUnits="userSpaceOnUse"
       gradientTransform="translate(-33,-31.9764)"
       x1="77.278381"
       y1="48.976402"
       x2="77.278381"
       y2="32.976402" />
    <linearGradient
       id="linearGradient3841-4-5-8-8">
      <stop
         style="stop-color:#252833;stop-opacity:1"
         offset="0"
         id="stop3843-9-6-9-9" />
      <stop
         style="stop-color:#343f4a;stop-opacity:1"
         offset="1"
         id="stop3845-3-04-3-2" />
    </linearGradient>
    <linearGradient
       inkscape:collect="always"
       xlink:href="#linearGradient3969-2-5-1"
       id="linearGradient3784"
       gradientUnits="userSpaceOnUse"
       x1="29.875"
       y1="64.082283"
       x2="29.875"
       y2="12.082283"
       gradientTransform="translate(0.625,-0.082283)" />
    <linearGradient
       id="linearGradient3969-2-5-1">
      <stop
         style="stop-color:#28323c;stop-opacity:1"
         offset="0"
         id="stop3971-0-1-6" />
      <stop
         id="stop3977-2-8-2"
         offset="0.08245245"
         style="stop-color:#38414b;stop-opacity:1" />
      <stop
         style="stop-color:#3b4657;stop-opacity:1"
         offset="1"
         id="stop3973-1-8-1" />
    </linearGradient>
  </defs>
  <metadata
     id="metadata13099">
    <rdf:RDF>
      <cc:Work
         rdf:about="">
        <dc:format>image/svg+xml</dc:format>
        <dc:type
           rdf:resource="http://purl.org/dc/dcmitype/StillImage" />
        <dc:title />
      </cc:Work>
    </rdf:RDF>
  </metadata>
  <g
     id="g3043"
     inkscape:export-filename="folder.png"
     inkscape:export-xdpi="90"
     inkscape:export-ydpi="90"
     transform="translate(-0.62500009,0.08228278)" />
  <path
     sodipodi:nodetypes="cccccccccc"
     inkscape:connector-curvature="0"
     id="path3833"
     d="m 3,6 -10e-8,58.000001 L 60,64 64,60 64,1 63,0 37,0 32,4.9999999 4,5 z"
     style="color:#000000;fill:url(#linearGradient3792);fill-opacity:1;fill-rule:nonzero;stroke:none;marker:none;visibility:visible;display:inline;overflow:visible;enable-background:accumulate" />
  <path
     inkscape:connector-curvature="0"
     id="path3800"
     d="M 37,0 32,5 4,5 3,6 3,7 4,6 32,6 37,1 63,1 64,2 64,1 63,0 37,0 z"
     style="color:#000000;fill:#b6e1ff;fill-opacity:0.33915776;fill-rule:nonzero;stroke:none;stroke-width:1;marker:none;visibility:visible;display:inline;overflow:visible;enable-background:accumulate" />
  <path
     style="fill:#cad1d4;fill-opacity:1;fill-rule:nonzero"
     inkscape:connector-curvature="0"
     id="path3920"
     d="m 7,13 51,0 0,31 -51,0 z"
     sodipodi:nodetypes="ccccc" />
  <path
     style="fill:#000000;fill-opacity:0.16308247"
     inkscape:connector-curvature="0"
     d="m 58,13 0,51 2,0 4,-4 0,-59 -1,-1 0,18 z"
     id="path3802"
     sodipodi:nodetypes="cccccccc" />
  <path
     sodipodi:nodetypes="ccccc"
     style="fill:#ffffff;fill-opacity:1;fill-rule:nonzero"
     d="m 7,13 51,0 0,1 -51,0 z"
     id="path4253"
     inkscape:connector-curvature="0" />
  <path
     sodipodi:nodetypes="ccccc"
     inkscape:connector-curvature="0"
     id="path3982"
     d="m 30,13 4,4 2,0 -4,-4 z"
     style="color:#000000;fill:#3e4959;fill-opacity:0.22968199;fill-rule:nonzero;stroke-width:1;stroke-linecap:butt;stroke-linejoin:miter;stroke-miterlimit:4;stroke-opacity:1;stroke-dasharray:none;stroke-dashoffset:0;marker:none;visibility:visible;display:inline;overflow:visible;enable-background:accumulate" />
  <path
     inkscape:export-ydpi="90"
     inkscape:export-xdpi="90"
     sodipodi:nodetypes="ccccccccccc"
     style="color:#000000;fill:url(#linearGradient3784);fill-opacity:1;fill-rule:nonzero;stroke-width:1;stroke-linecap:butt;stroke-linejoin:miter;stroke-miterlimit:4;stroke-opacity:1;stroke-dasharray:none;stroke-dashoffset:0;marker:none;visibility:visible;display:inline;overflow:visible;enable-background:accumulate"
     inkscape:connector-curvature="0"
     d="m 0,13 0,50 1,1 59,0 1,-1 0,-45 -1,-1 -26,1e-6 -5,-5 L 1,12 z"
     id="path3916" />
  <path
     inkscape:connector-curvature="0"
     id="path3046"
     d="m 1,12 -1,1 0,1 1,-1 28,0 5,5 26,0 1,1 0,-1 -1,-1 -26,0 -5,-5 -28,0 z"
     style="fill:#b6e1ff;fill-opacity:0.33915776;fill-rule:nonzero" />
  <path
     style="font-size:medium;font-style:normal;font-variant:normal;font-weight:normal;font-stretch:normal;text-indent:0;text-align:start;text-decoration:none;line-height:normal;letter-spacing:normal;word-spacing:normal;text-transform:none;direction:ltr;block-progression:tb;writing-mode:lr-tb;text-anchor:start;baseline-shift:baseline;color:#000000;fill:#dee3e4;fill-opacity:1;stroke:none;stroke-width:1;marker:none;visibility:visible;display:inline;overflow:visible;enable-background:accumulate;font-family:Sans;-inkscape-font-specification:Sans;fill-rule:nonzero"
     d="m 20.118304,27.107143 c -4.854872,-0.58646 -9.648606,1.488206 -12.5279004,5.440848 -4.3829736,6.016865 -3.0592753,14.478632 2.9575894,18.861606 6.016865,4.382973 14.478632,3.059275 18.861605,-2.957589 4.382974,-6.016866 3.059276,-14.478632 -2.957589,-18.861606 l -0.864955,-0.641741 -0.585937,0.920759 -2.845982,4.603794 -0.418527,0.669643 0.558036,0.558035 2.260044,2.287947 -5.552455,0 -3.59933,0 3.069196,1.869419 4.520089,2.678571 0,4.464286 0,2.845982 1.785714,-2.232143 3.989955,-4.994419 -1.562499,-1.255581 -2.204241,2.762277 0,-2.120535 0,-0.585938 -0.474331,-0.279018 -1.925223,-1.143973 4.408482,0 2.399553,0 -1.702008,-1.702009 -3.43192,-3.431919 1.813616,-2.929687 c 4.400002,3.88723 5.230243,10.502487 1.702009,15.345981 -3.74656,5.143206 -10.928221,6.25772 -16.071427,2.51116 -5.1432069,-3.746559 -6.2577202,-10.92822 -2.511161,-16.071427 2.125438,-2.917762 5.466344,-4.518733 9.012276,-4.603795 l -1.757812,2.873884 -3.459821,0 -1.004465,0 0,1.004464 0,3.655134 -2.790178,3.738839 -0.6696428,0.864955 0.9207589,0.585938 5.5245529,3.515625 -0.864955,1.646205 -2.399553,-2.845982 -1.534599,1.283482 3.348215,3.989955 0.94866,1.143973 0.697545,-1.311384 2.008928,-3.766741 0.446429,-0.837053 -0.78125,-0.502232 -5.412946,-3.43192 2.371651,-3.124999 0.195313,-0.251116 0,-0.334822 0,-3.013392 2.985491,0 0.558035,0 0.30692,-0.474331 2.985491,-4.910714 0.809152,-1.339285 -1.534599,-0.167411 z"
     id="path3786"
     inkscape:connector-curvature="0" />
</svg>
