<?xml version="1.0" encoding="UTF-8" standalone="no"?>
<!-- Created with Inkscape (http://www.inkscape.org/) -->

<svg
   xmlns:dc="http://purl.org/dc/elements/1.1/"
   xmlns:cc="http://creativecommons.org/ns#"
   xmlns:rdf="http://www.w3.org/1999/02/22-rdf-syntax-ns#"
   xmlns:svg="http://www.w3.org/2000/svg"
   xmlns="http://www.w3.org/2000/svg"
   xmlns:sodipodi="http://sodipodi.sourceforge.net/DTD/sodipodi-0.dtd"
   xmlns:inkscape="http://www.inkscape.org/namespaces/inkscape"
   width="16"
   height="16"
   id="svg27665"
   version="1.1"
   inkscape:version="0.48.3.1 r9886"
   sodipodi:docname="libreoffice-writer.svg">
  <defs
     id="defs27667" />
  <sodipodi:namedview
     id="base"
     pagecolor="#ffffff"
     bordercolor="#666666"
     borderopacity="1.0"
     inkscape:pageopacity="0.0"
     inkscape:pageshadow="2"
     inkscape:zoom="20.480001"
     inkscape:cx="15.637243"
     inkscape:cy="5.6303101"
     inkscape:document-units="px"
     inkscape:current-layer="layer1"
     showgrid="true"
     inkscape:window-width="1920"
     inkscape:window-height="1033"
     inkscape:window-x="-10"
     inkscape:window-y="25"
     inkscape:window-maximized="1"
     inkscape:snap-bbox="true"
     inkscape:bbox-paths="true"
     inkscape:bbox-nodes="true"
     inkscape:snap-bbox-edge-midpoints="true"
     inkscape:snap-bbox-midpoints="true"
     inkscape:object-paths="true"
     inkscape:snap-intersection-paths="true"
     inkscape:object-nodes="true"
     inkscape:snap-smooth-nodes="true"
     inkscape:snap-midpoints="true"
     inkscape:snap-object-midpoints="true"
     inkscape:snap-center="true"
     inkscape:snap-global="true"
     showguides="false"
     inkscape:guide-bbox="true"
     fit-margin-top="0"
     fit-margin-left="0"
     fit-margin-right="0"
     fit-margin-bottom="0"
     inkscape:showpageshadow="false"
     showborder="true">
    <sodipodi:guide
       orientation="0,1"
       position="6886.8118,-211.77227"
       id="guide5860" />
    <sodipodi:guide
       orientation="1,0"
       position="6636.8118,-329.45509"
       id="guide5862" />
    <sodipodi:guide
       orientation="1,0"
       position="6886.8119,-211.77228"
       id="guide5866" />
    <inkscape:grid
       type="xygrid"
       id="grid5330"
       empspacing="5"
       visible="true"
       enabled="true"
       snapvisiblegridlinesonly="true"
       originx="-0.00012221875px"
       originy="76.999866px" />
    <sodipodi:guide
       orientation="1,0"
       position="-895.31213,514.03425"
       id="guide4740" />
  </sodipodi:namedview>
  <metadata
     id="metadata27670">
    <rdf:RDF>
      <cc:Work
         rdf:about="">
        <dc:format>image/svg+xml</dc:format>
        <dc:type
           rdf:resource="http://purl.org/dc/dcmitype/StillImage" />
        <dc:title />
      </cc:Work>
    </rdf:RDF>
  </metadata>
  <g
     inkscape:label="Camada 1"
     inkscape:groupmode="layer"
     id="layer1"
     transform="translate(8132.4741,-1099.0071)">
    <path
       style="color:#000000;fill:#d1d4d6;fill-opacity:0.74329164;fill-rule:nonzero;stroke:none;stroke-width:2;marker:none;visibility:visible;display:inline;overflow:visible;enable-background:accumulate"
       d="M 1 0 L 1 16 L 15 16 L 15 0 L 1 0 z M 2 1 L 9.34375 1 L 14 5.65625 L 14 15 L 2 15 L 2 1 z M 10.75 1 L 14 1 L 14 4.25 L 10.75 1 z M 4 8 L 4 9 L 12 9 L 12 8 L 4 8 z M 4 10 L 4 11 L 12 11 L 12 10 L 4 10 z M 4 12 L 4 13 L 12 13 L 12 12 L 4 12 z "
       transform="translate(-8132.4741,1099.0071)"
       id="rect2988" />
    <path
       id="path2990"
       d="m -8130.4741,1100.0071 0,14 12,0 0,-9.3437 -4.6563,-4.6563 -7.3437,0 z m 8.75,0 3.25,3.25 0,-3.25 -3.25,0 z m -6.75,7 8,0 0,1 -8,0 0,-1 z m 0,2 8,0 0,1 -8,0 0,-1 z m 0,2 8,0 0,1 -8,0 0,-1 z"
       style="font-size:medium;font-style:normal;font-variant:normal;font-weight:normal;font-stretch:normal;text-indent:0;text-align:start;text-decoration:none;line-height:normal;letter-spacing:normal;word-spacing:normal;text-transform:none;direction:ltr;block-progression:tb;writing-mode:lr-tb;text-anchor:start;baseline-shift:baseline;color:#000000;fill:#434a55;fill-opacity:0.6745119;stroke:none;stroke-width:51.19525528;marker:none;visibility:visible;display:inline;overflow:visible;enable-background:accumulate;font-family:Sans;-inkscape-font-specification:Sans"
       inkscape:connector-curvature="0" />
  </g>
</svg>
