<?xml version="1.0" encoding="UTF-8" standalone="no"?>
<!-- Created with Inkscape (http://www.inkscape.org/) -->

<svg
   xmlns:dc="http://purl.org/dc/elements/1.1/"
   xmlns:cc="http://creativecommons.org/ns#"
   xmlns:rdf="http://www.w3.org/1999/02/22-rdf-syntax-ns#"
   xmlns:svg="http://www.w3.org/2000/svg"
   xmlns="http://www.w3.org/2000/svg"
   xmlns:sodipodi="http://sodipodi.sourceforge.net/DTD/sodipodi-0.dtd"
   xmlns:inkscape="http://www.inkscape.org/namespaces/inkscape"
   version="1.0"
   width="16"
   height="16"
   id="svg2"
   inkscape:version="0.48.3.1 r9886"
   sodipodi:docname="draw-spiral.svg">
  <sodipodi:namedview
     pagecolor="#ffffff"
     bordercolor="#666666"
     borderopacity="1"
     objecttolerance="10"
     gridtolerance="10"
     guidetolerance="10"
     inkscape:pageopacity="0"
     inkscape:pageshadow="2"
     inkscape:window-width="1920"
     inkscape:window-height="1023"
     id="namedview32"
     showgrid="true"
     inkscape:zoom="22.627418"
     inkscape:cx="7.273999"
     inkscape:cy="11.834393"
     inkscape:window-x="-10"
     inkscape:window-y="35"
     inkscape:window-maximized="1"
     inkscape:current-layer="svg2"
     inkscape:snap-bbox="true"
     inkscape:bbox-paths="true"
     inkscape:bbox-nodes="true"
     inkscape:snap-bbox-edge-midpoints="true"
     inkscape:snap-bbox-midpoints="true"
     inkscape:object-paths="true"
     inkscape:snap-intersection-paths="true"
     inkscape:object-nodes="true"
     inkscape:snap-smooth-nodes="true"
     inkscape:snap-midpoints="true"
     inkscape:snap-object-midpoints="true"
     inkscape:snap-center="true"
     fit-margin-top="0"
     fit-margin-left="0"
     fit-margin-right="0"
     fit-margin-bottom="0"
     inkscape:snap-global="false">
    <inkscape:grid
       type="xygrid"
       id="grid3218"
       empspacing="5"
       visible="true"
       enabled="true"
       snapvisiblegridlinesonly="true"
       originx="-11px"
       originy="18px" />
  </sodipodi:namedview>
  <metadata
     id="metadata11">
    <rdf:RDF>
      <cc:Work
         rdf:about="">
        <dc:format>image/svg+xml</dc:format>
        <dc:type
           rdf:resource="http://purl.org/dc/dcmitype/StillImage" />
        <dc:title />
      </cc:Work>
    </rdf:RDF>
  </metadata>
  <defs
     id="defs4" />
  <path
     style="font-size:medium;font-style:normal;font-variant:normal;font-weight:normal;font-stretch:normal;text-indent:0;text-align:start;text-decoration:none;line-height:normal;letter-spacing:normal;word-spacing:normal;text-transform:none;direction:ltr;block-progression:tb;writing-mode:lr-tb;text-anchor:start;baseline-shift:baseline;color:#000000;fill:#2f3741;fill-opacity:0.7;fill-rule:nonzero;stroke:none;stroke-width:2;marker:none;visibility:visible;display:inline;overflow:visible;enable-background:accumulate;font-family:Sans;-inkscape-font-specification:Sans"
     d="m 7.1875,-0.1875 c -0.4079819,0.0132581 -0.8154558,0.0439928 -1.21875,0.125 -1.0865561,0.21824986 -2.1257436,0.69299198 -3.0625,1.375 -3.19588688,2.3267738 -4.2321607,6.9766727 -1.71875,10.28125 2.0615009,2.710416 6.1459775,3.60185 8.96875,1.3125 2.222166,-1.80224 2.897339,-5.3079894 0.8125,-7.625 C 10.206953,4.4346178 9.1509424,3.9252197 8.03125,3.8125 6.8963787,3.6982522 5.6049741,4.0244863 4.6875,5.03125 4.0976155,5.6785426 3.7578968,6.5392414 3.75,7.4375 3.74146,8.4094589 4.184361,9.5222983 5.28125,10.09375 5.9953973,10.465803 6.8682095,10.388085 7.40625,10.1875 8.4720857,9.7023112 8.9027374,8.620811 8.5,7.65625 7.9944487,6.4454485 6.2588279,6.5239062 6.125,7.4375 6.1226397,7.7059851 6.1905926,7.8563979 6.40625,7.96875 6.4143957,7.4446502 7.2774274,7.2288923 7.53125,7.6875 7.6744418,7.9355157 7.703543,8.3163342 7.5625,8.59375 7.421457,8.8711658 7.1955999,8.989579 7,9.0625 6.6088003,9.208342 6.2633429,9.2498474 5.84375,9.03125 5.2071231,8.6995833 4.9322797,8.0313099 4.9375,7.4375 4.9427203,6.8436901 5.173768,6.2703138 5.5625,5.84375 6.1924248,5.1525202 7.0822104,4.9170437 7.90625,5 c 0.8240396,0.082956 1.594752,0.4697223 2.15625,1.09375 1.589823,1.7668684 1.069255,4.475566 -0.65625,5.875 C 7.1502645,13.798419 3.831924,13.078139 2.15625,10.875 0.073026,8.1360227 0.9445873,4.2327315 3.625,2.28125 4.4297985,1.6953143 5.306567,1.3082246 6.21875,1.125 6.5608186,1.0562908 6.9036791,1.0156692 7.25,1 c 2.4242464,-0.10968405 4.882304,1.0529987 6.34375,3.125 2.599606,3.6856571 1.418264,8.801156 -2.1875,11.3125 L 11.34375,15.5 c -0.0202,0.01162 -0.04108,0.02206 -0.0625,0.03125 L 11.125,15.625 9.90625,16.46875 c 3.062594,-0.475791 5.441285,-3.357209 6.035661,-5.774871 C 16.503085,8.2696429 16.11563,5.6394896 14.5625,3.4375 13.10164,1.3663294 10.819918,0.08548796 8.40625,-0.15625 8.003972,-0.19653966 7.5954819,-0.2007581 7.1875,-0.1875 z"
     id="path3768"
     inkscape:connector-curvature="0"
     sodipodi:nodetypes="sssssssssscscccsssssssssssssccccccsss" />
  <path
     inkscape:connector-curvature="0"
     id="path3883"
     d="M 6.21875,1.125 C 5.306567,1.3082246 4.4297985,1.6953143 3.625,2.28125 0.9445873,4.2327315 0.073026,8.1360227 2.15625,10.875 c 1.675674,2.203139 4.9940145,2.923419 7.25,1.09375 1.725505,-1.399434 2.246073,-4.1081316 0.65625,-5.875 C 9.501002,5.4697223 8.7302896,5.0829563 7.90625,5 7.0822104,4.9170437 6.1924248,5.1525202 5.5625,5.84375 5.173768,6.2703138 4.9427203,6.8436901 4.9375,7.4375 4.9322797,8.0313099 5.2071231,8.6995833 5.84375,9.03125 6.2633429,9.2498474 6.6088003,9.208342 7,9.0625 7.1955999,8.989579 7.421457,8.8711658 7.5625,8.59375 7.703543,8.3163342 7.6744418,7.9355157 7.53125,7.6875 a 0.60006002,0.60006002 0 0 0 -1.125,0.28125 C 6.1905926,7.8563979 6.1226397,7.7059851 6.125,7.4375 6.1273603,7.1690149 6.274303,6.8353295 6.4375,6.65625 6.7948466,6.264126 7.2667305,6.1357032 7.78125,6.1875 8.2957695,6.2392968 8.8383518,6.4869701 9.1875,6.875 10.270498,8.0786022 9.857693,10.031501 8.625,11.03125 6.9381729,12.399315 4.4145992,11.851787 3.125,10.15625 1.4767304,7.9891412 2.1815974,4.8241609 4.34375,3.25 6.9895513,1.3237175 10.769195,2.1813868 12.625,4.8125 14.828143,7.9360604 13.789108,12.364349 10.6875,14.5 a 0.60006002,0.60006002 0 1 0 0.6875,0.96875 C 15.008979,12.966528 16.20201,7.822926 13.59375,4.125 11.923526,1.7569985 8.9552991,0.57532613 6.21875,1.125 z"
     style="font-size:medium;font-style:normal;font-variant:normal;font-weight:normal;font-stretch:normal;text-indent:0;text-align:start;text-decoration:none;line-height:normal;letter-spacing:normal;word-spacing:normal;text-transform:none;direction:ltr;block-progression:tb;writing-mode:lr-tb;text-anchor:start;baseline-shift:baseline;color:#000000;fill:#f3f4f7;fill-opacity:0.92;stroke:none;stroke-width:2;marker:none;visibility:visible;display:inline;overflow:visible;enable-background:accumulate;font-family:Sans;-inkscape-font-specification:Sans;fill-rule:nonzero" />
</svg>
