<?xml version="1.0" encoding="UTF-8" standalone="no"?>
<!-- Created with Inkscape (http://www.inkscape.org/) -->

<svg
   xmlns:dc="http://purl.org/dc/elements/1.1/"
   xmlns:cc="http://creativecommons.org/ns#"
   xmlns:rdf="http://www.w3.org/1999/02/22-rdf-syntax-ns#"
   xmlns:svg="http://www.w3.org/2000/svg"
   xmlns="http://www.w3.org/2000/svg"
   xmlns:sodipodi="http://sodipodi.sourceforge.net/DTD/sodipodi-0.dtd"
   xmlns:inkscape="http://www.inkscape.org/namespaces/inkscape"
   version="1.1"
   width="24"
   height="24"
   id="svg13094"
   inkscape:version="0.48.3.1 r9886"
   sodipodi:docname="applications-development.svg">
  <sodipodi:namedview
     pagecolor="#ffffff"
     bordercolor="#666666"
     borderopacity="1"
     objecttolerance="10"
     gridtolerance="10"
     guidetolerance="10"
     inkscape:pageopacity="0"
     inkscape:pageshadow="2"
     inkscape:window-width="1920"
     inkscape:window-height="1027"
     id="namedview68"
     showgrid="true"
     inkscape:zoom="29.5"
     inkscape:cx="3.6685946"
     inkscape:cy="12.332652"
     inkscape:window-x="-10"
     inkscape:window-y="31"
     inkscape:window-maximized="1"
     inkscape:current-layer="svg13094"
     inkscape:snap-bbox="true"
     inkscape:bbox-paths="true"
     inkscape:bbox-nodes="true"
     inkscape:snap-bbox-edge-midpoints="true"
     inkscape:snap-bbox-midpoints="true"
     inkscape:object-paths="true"
     inkscape:snap-intersection-paths="true"
     inkscape:object-nodes="true"
     inkscape:snap-smooth-nodes="true"
     inkscape:snap-midpoints="true"
     inkscape:snap-object-midpoints="true"
     inkscape:snap-center="true"
     inkscape:snap-global="true"
     fit-margin-top="0"
     fit-margin-left="0"
     fit-margin-right="0"
     fit-margin-bottom="0">
    <inkscape:grid
       type="xygrid"
       id="grid3142"
       empspacing="5"
       visible="true"
       enabled="true"
       snapvisiblegridlinesonly="true"
       originx="-4.0000003px"
       originy="-23px" />
  </sodipodi:namedview>
  <defs
     id="defs11" />
  <metadata
     id="metadata13099">
    <rdf:RDF>
      <cc:Work
         rdf:about="">
        <dc:format>image/svg+xml</dc:format>
        <dc:type
           rdf:resource="http://purl.org/dc/dcmitype/StillImage" />
        <dc:title />
      </cc:Work>
    </rdf:RDF>
  </metadata>
  <path
     style="color:#000000;fill:#434a55;fill-opacity:0.6745098;fill-rule:nonzero;stroke:none;stroke-width:1;marker:none;visibility:visible;display:inline;overflow:visible;enable-background:accumulate"
     d="M 15,5 C 13.377997,4.5086991 11.712396,4.4969789 10,5 L 8.9999997,6 11,6 l 2,1 0,2 -2,2 -2.0000003,0 -6,6 0,2 1,1 2,0 L 12,14 l 0,-2 2,-2 2,0 0,2 2,2 3,-3 -2,-2 -2,0 0,-2 z"
     id="path3002"
     inkscape:connector-curvature="0"
     sodipodi:nodetypes="ccccccccccccccccccccccc" />
  <path
     style="font-size:medium;font-style:normal;font-variant:normal;font-weight:normal;font-stretch:normal;text-indent:0;text-align:start;text-decoration:none;line-height:normal;letter-spacing:normal;word-spacing:normal;text-transform:none;direction:ltr;block-progression:tb;writing-mode:lr-tb;text-anchor:start;baseline-shift:baseline;color:#000000;fill:#d1d4d6;fill-opacity:0.74329164;fill-rule:nonzero;stroke:none;stroke-width:2;marker:none;visibility:visible;display:inline;overflow:visible;enable-background:accumulate;font-family:Sans;-inkscape-font-specification:Sans"
     d="M 12.53125,3.4375 C 11.579004,3.43579 10.615812,3.5618759 9.65625,3.84375 L 9.375,3.9375 9.15625,4.15625 l -1,1 L 6.28125,7 11,7 11,7.34375 11.8125,7.75 l 0,0.75 L 11,9.3125 11,10 l -2.6875,0 -0.15625,0.15625 -6,6 L 2,16.3125 l 0,3.375 0.15625,0.15625 1,1 L 3.3125,21 l 3.375,0 0.15625,-0.15625 6,-6 L 13,14.6875 13,12 13.6875,12 14,11.6875 l 0,-0.5 0.5,0 0.3125,0 0,0.8125 0.1875,0 0,0.6875 0.15625,0.15625 2,2 L 18,15.6875 l 0.84375,-0.84375 3,-3 L 22.6875,11 l -0.84375,-0.84375 -2,-2 L 19.6875,8 18,8 18,6.3125 17.84375,6.15625 l -2,-2 L 15.625,3.9375 15.34375,3.84375 C 14.426216,3.565831 13.483496,3.4392089 12.53125,3.4375 z m 0,1.1875 C 13.36445,4.626465 14.188999,4.7543495 15,5 l 2,2 0,2 2,0 2,2 -3,3 -2,-2 0,-2 -2,0 -2,2 0,2 -6,6 -2,0 -1,-1 0,-2 6,-6 2,0 2,-2 0,-2 -2,-1 -2,0 1,-1 c 0.856198,-0.2515105 1.69805,-0.376465 2.53125,-0.375 z"
     id="path2983"
     inkscape:connector-curvature="0" />
</svg>
