<?xml version="1.0" encoding="UTF-8" standalone="no"?>
<!-- Created with Inkscape (http://www.inkscape.org/) -->

<svg
   xmlns:dc="http://purl.org/dc/elements/1.1/"
   xmlns:cc="http://creativecommons.org/ns#"
   xmlns:rdf="http://www.w3.org/1999/02/22-rdf-syntax-ns#"
   xmlns:svg="http://www.w3.org/2000/svg"
   xmlns="http://www.w3.org/2000/svg"
   xmlns:sodipodi="http://sodipodi.sourceforge.net/DTD/sodipodi-0.dtd"
   xmlns:inkscape="http://www.inkscape.org/namespaces/inkscape"
   id="svg13094"
   height="22"
   width="22"
   version="1.1"
   inkscape:version="0.48.3.1 r9886"
   sodipodi:docname="copy-sync6.svg">
  <defs
     id="defs8" />
  <sodipodi:namedview
     pagecolor="#ffffff"
     bordercolor="#666666"
     borderopacity="1"
     objecttolerance="10"
     gridtolerance="10"
     guidetolerance="10"
     inkscape:pageopacity="0"
     inkscape:pageshadow="2"
     inkscape:window-width="1920"
     inkscape:window-height="1023"
     id="namedview6"
     showgrid="false"
     inkscape:zoom="9.8333333"
     inkscape:cx="12"
     inkscape:cy="12"
     inkscape:window-x="-10"
     inkscape:window-y="35"
     inkscape:window-maximized="1"
     inkscape:current-layer="svg13094" />
  <metadata
     id="metadata13099">
    <rdf:RDF>
      <cc:Work
         rdf:about="">
        <dc:format>image/svg+xml</dc:format>
        <dc:type
           rdf:resource="http://purl.org/dc/dcmitype/StillImage" />
        <dc:title />
      </cc:Work>
    </rdf:RDF>
  </metadata>
  <path
     d="M 4.84375,6.96875 1.5,10.34375 1.6875,10.6875 5.125,9.65625 6,13.46875 7.25,19 h 0.59375 l 2.5625,-1.75 0.59375,0.125 4,0.71875 v -6.875 l -4,2.875 L 9.1875,15.375 9.15625,15.3125 6,7.09375 5.96875,7 4.84375,6.96875 z M 15,7.65625 13.78125,9.46875 15,10 V 7.65625 z m -2.9375,2.25 L 11,10.28125 8.59375,11.09375 9.8125,13.53125 11,12.71875 13.875,10.75 12.0625,9.90625 z"
     style="color:#000000;fill:#4a97e5;enable-background:accumulate"
     id="path2985"
     inkscape:connector-curvature="0" />
  <path
     style="color:#000000;fill:#404957;fill-opacity:0.230837;fill-rule:nonzero;stroke:none;stroke-width:1;marker:none;visibility:visible;display:inline;overflow:visible;enable-background:accumulate"
     d="m 4.84375,6.96875 -3.34375,3.375 0.1875,0.34375 2.09375,-0.625 2.0625,-2.09375 0.5,0 L 6,7.09375 5.96875,7 4.84375,6.96875 z M 15,7.65625 13.78125,9.46875 15,10 15,7.65625 z m -2.9375,2.25 -1.0625,0.375 -2.40625,0.8125 1.21875,2.4375 0.375,-0.25 L 9.59375,12.09375 12,11.28125 13.0625,10.90625 13.40625,11.0625 13.875,10.75 12.0625,9.90625 z M 6.125,10.65625 5.40625,10.875 6,13.46875 7.25,19 7.84375,19 8,18.90625 7,14.46875 6.125,10.65625 z M 15,11.21875 14.5,11.5625 14.875,11.75 12,13.71875 l -1.1875,0.8125 -0.125,-0.21875 -1.03125,0.71875 0.5,1.28125 L 10.1875,16.375 12,15.09375 15,12.9375 15,11.21875 z"
     id="path2995"
     inkscape:connector-curvature="0" />
  <path
     id="path2995-9"
     style="color:#000000;fill:#404957;fill-opacity:0.230837;fill-rule:nonzero;stroke:none;stroke-width:1;marker:none;visibility:visible;display:inline;overflow:visible;enable-background:accumulate"
     d="M 18.75,2.0625 15,7.65625 V 10 L 16.21875,10.53125 18.75,2.0625 z M 15,11.21875 v 6.875 L 19.875,19 h 0.15625 V 18.5 L 17,12 15,11.21875 z"
     inkscape:connector-curvature="0" />
</svg>
