<?xml version="1.0" encoding="UTF-8" standalone="no"?>
<!-- Created with Inkscape (http://www.inkscape.org/) -->

<svg
   xmlns:dc="http://purl.org/dc/elements/1.1/"
   xmlns:cc="http://creativecommons.org/ns#"
   xmlns:rdf="http://www.w3.org/1999/02/22-rdf-syntax-ns#"
   xmlns:svg="http://www.w3.org/2000/svg"
   xmlns="http://www.w3.org/2000/svg"
   xmlns:xlink="http://www.w3.org/1999/xlink"
   xmlns:sodipodi="http://sodipodi.sourceforge.net/DTD/sodipodi-0.dtd"
   xmlns:inkscape="http://www.inkscape.org/namespaces/inkscape"
   width="64"
   height="64"
   id="svg13094"
   version="1.1"
   inkscape:version="0.48.3.1 r9886"
   sodipodi:docname="ipod.svg">
  <sodipodi:namedview
     id="base"
     pagecolor="#cbcdd6"
     bordercolor="#666666"
     borderopacity="1.0"
     inkscape:pageopacity="1"
     inkscape:pageshadow="2"
     inkscape:zoom="11.313709"
     inkscape:cx="29.479439"
     inkscape:cy="31.541707"
     inkscape:document-units="px"
     inkscape:current-layer="svg13094"
     showgrid="true"
     inkscape:snap-bbox="true"
     inkscape:bbox-paths="true"
     inkscape:bbox-nodes="true"
     inkscape:snap-bbox-edge-midpoints="true"
     inkscape:snap-bbox-midpoints="true"
     inkscape:object-paths="true"
     inkscape:snap-intersection-paths="true"
     inkscape:object-nodes="true"
     inkscape:snap-smooth-nodes="true"
     inkscape:snap-midpoints="true"
     inkscape:snap-object-midpoints="true"
     inkscape:snap-center="true"
     showguides="true"
     inkscape:guide-bbox="true"
     inkscape:window-width="1920"
     inkscape:window-height="1023"
     inkscape:window-x="-10"
     inkscape:window-y="35"
     inkscape:window-maximized="1"
     inkscape:snap-global="true"
     fit-margin-top="0"
     fit-margin-left="0"
     fit-margin-right="0"
     fit-margin-bottom="0"
     showborder="true"
     inkscape:showpageshadow="false"
     inkscape:snap-page="true">
    <inkscape:grid
       type="xygrid"
       id="grid3075"
       empspacing="5"
       visible="true"
       enabled="true"
       snapvisiblegridlinesonly="true"
       originx="1.6362304e-08px"
       originy="18px" />
  </sodipodi:namedview>
  <defs
     id="defs13096">
    <linearGradient
       id="linearGradient3094">
      <stop
         offset="0"
         style="stop-color:#d8dce2;stop-opacity:1;"
         id="stop3096" />
      <stop
         offset="1"
         style="stop-color:#aab0c0;stop-opacity:1;"
         id="stop3104" />
    </linearGradient>
    <radialGradient
       inkscape:collect="always"
       xlink:href="#linearGradient3094"
       id="radialGradient3888"
       gradientUnits="userSpaceOnUse"
       gradientTransform="matrix(0,1.8749999,-1.7578125,0,64.171374,-42.437086)"
       cx="30.099783"
       cy="17.733049"
       fx="30.099783"
       fy="17.733049"
       r="32" />
    <radialGradient
       inkscape:collect="always"
       xlink:href="#linearGradient3094"
       id="radialGradient3899"
       gradientUnits="userSpaceOnUse"
       gradientTransform="matrix(0,1.8749999,-1.7578125,0,63.171374,-43.437086)"
       cx="30.099783"
       cy="17.733049"
       fx="30.099783"
       fy="17.733049"
       r="32" />
    <radialGradient
       inkscape:collect="always"
       xlink:href="#linearGradient3094"
       id="radialGradient3903"
       gradientUnits="userSpaceOnUse"
       gradientTransform="matrix(0,1.8749999,-1.7578125,0,63.171374,-43.437086)"
       cx="30.099783"
       cy="17.733049"
       fx="30.099783"
       fy="17.733049"
       r="32" />
    <radialGradient
       inkscape:collect="always"
       xlink:href="#linearGradient3094-0"
       id="radialGradient3886"
       cx="30.739782"
       cy="17.037395"
       fx="30.739782"
       fy="17.037395"
       r="32"
       gradientTransform="matrix(6.8856667e-8,1.5625001,-1.4375,6.3348129e-8,57.491254,-34.030912)"
       gradientUnits="userSpaceOnUse" />
    <linearGradient
       id="linearGradient3094-0">
      <stop
         offset="0"
         style="stop-color:#bdc4cf;stop-opacity:1;"
         id="stop3096-7" />
      <stop
         offset="1"
         style="stop-color:#a1a8ba;stop-opacity:1;"
         id="stop3104-2" />
    </linearGradient>
  </defs>
  <metadata
     id="metadata13099">
    <rdf:RDF>
      <cc:Work
         rdf:about="">
        <dc:format>image/svg+xml</dc:format>
        <dc:type
           rdf:resource="http://purl.org/dc/dcmitype/StillImage" />
        <dc:title />
      </cc:Work>
    </rdf:RDF>
  </metadata>
  <path
     inkscape:connector-curvature="0"
     style="color:#000000;fill:url(#radialGradient3886);fill-opacity:1;fill-rule:nonzero;stroke:none;stroke-width:2.28571415000000000;marker:none;visibility:visible;display:inline;overflow:visible;enable-background:accumulate"
     d="m 0,2 0,32 0,28 2,2 30,0 30,0 2,-2 0,-28 0,-32 -32,0 z"
     id="path3019"
     sodipodi:nodetypes="ccccccccccc" />
  <path
     inkscape:connector-curvature="0"
     style="color:#000000;fill:#e7ecf0;fill-opacity:1;fill-rule:nonzero;stroke:none;stroke-width:1;marker:none;visibility:visible;display:inline;overflow:visible;enable-background:accumulate"
     d="M 2,0 0,1 0,2 32,2 64,2 64,1 62,0 32,0 z"
     id="path4090"
     sodipodi:nodetypes="ccccccccc" />
  <path
     style="fill:#ffffff;fill-opacity:0.14487634;fill-rule:nonzero"
     d="M 0,1 0,4 2,2 32,2 62,2 64,1 32,1 z"
     id="path4298"
     inkscape:connector-curvature="0"
     sodipodi:nodetypes="cccccccc" />
  <path
     d="M 64,4 62,2 64,1 z"
     id="path3028"
     style="fill:#1f0700;fill-opacity:0.13759861"
     inkscape:connector-curvature="0"
     sodipodi:nodetypes="cccc" />
  <path
     style="fill:#000000;fill-opacity:0.11130587;fill-rule:nonzero"
     d="m 63,0.5 0,33.5 0,29 1,-1 0,-28 0,-33 z m 0,62.5 -31,0 -31,0 1,1 30,0 30,0 z"
     id="path4366"
     inkscape:connector-curvature="0"
     sodipodi:nodetypes="cccccccccccccc" />
  <g
     id="g3043"
     inkscape:export-filename="folder.png"
     inkscape:export-xdpi="90"
     inkscape:export-ydpi="90"
     transform="translate(-0.62500009,0.082283)" />
  <path
     style="fill:#ffffff;fill-opacity:0.35070675;fill-rule:nonzero"
     d="M 0,1 0,34 0,62 1,63 1,34 1,3 2,2 1,1.46875 1,1 z"
     id="path3864"
     inkscape:connector-curvature="0"
     sodipodi:nodetypes="cccccccccc" />
  <g
     id="scalable"
     transform="matrix(1.0385892,0,0,1.0385892,1214.7222,1878.8121)"
     inkscape:label="#g3701"
     style="fill:#ffffff" />
  <path
     inkscape:connector-curvature="0"
     style="color:#000000;fill:url(#radialGradient3899);fill-opacity:1;fill-rule:nonzero;stroke:none;stroke-width:2.28571415;marker:none;visibility:visible;display:inline;overflow:visible;enable-background:accumulate"
     d="M 32,10 C 19.297451,10 9,20.297451 9,33 9,45.702549 19.297451,56 32,56 44.702549,56 55,45.702549 55,33 55,20.297451 44.702549,10 32,10 z m 0,13 c 5.522848,0 10,4.477152 10,10 0,5.522848 -4.477152,10 -10,10 -5.522848,0 -10,-4.477152 -10,-10 0,-5.522848 4.477152,-10 10,-10 z"
     id="path3897" />
  <path
     inkscape:connector-curvature="0"
     id="path3936"
     d="m 32,23 c -5.522848,0 -10,4.477152 -10,10 0,2.930095 1.273282,5.546006 3.28125,7.375 C 23.854691,38.64641 23,36.416246 23,34 c 0,-5.522848 4.477152,-10 10,-10 2.416246,0 4.64641,0.854691 6.375,2.28125 C 37.546006,24.273282 34.930095,23 32,23 z"
     style="color:#000000;fill:#000000;fill-opacity:0.1030466;fill-rule:nonzero;stroke:none;stroke-width:2.28571415000000000;marker:none;visibility:visible;display:inline;overflow:visible;enable-background:accumulate"
     sodipodi:nodetypes="sscsscs" />
  <path
     style="color:#000000;fill:#ffffff;fill-opacity:0.20161288;fill-rule:nonzero;stroke:none;stroke-width:2.28571415;marker:none;visibility:visible;display:inline;overflow:visible;enable-background:accumulate"
     d="M 48.03125,16.53125 C 51.74361,20.615755 54,26.04568 54,32 54,44.702549 43.702549,55 31,55 25.04568,55 19.615755,52.74361 15.53125,49.03125 19.709416,53.322508 25.537578,56 32,56 44.702549,56 55,45.702549 55,33 55,26.537578 52.322508,20.709416 48.03125,16.53125 z"
     id="path3886"
     inkscape:connector-curvature="0"
     sodipodi:nodetypes="csscssc" />
  <path
     inkscape:connector-curvature="0"
     id="path3938"
     d="M 39.71875,26.625 C 41.145309,28.35359 42,30.583754 42,33 42,38.522848 37.522848,43 32,43 29.583754,43 27.35359,42.145309 25.625,40.71875 27.453994,42.726718 30.069905,44 33,44 c 5.522848,0 10,-4.477152 10,-10 0,-2.930095 -1.273282,-5.546006 -3.28125,-7.375 z"
     style="color:#000000;fill:#ffffff;fill-opacity:0.20161287999999999;fill-rule:nonzero;stroke:none;stroke-width:2.28571415000000000;marker:none;visibility:visible;display:inline;overflow:visible;enable-background:accumulate"
     sodipodi:nodetypes="csscssc" />
  <path
     style="color:#000000;fill:#000000;fill-opacity:0.05197132;fill-rule:nonzero;stroke:none;stroke-width:2.28571415;marker:none;visibility:visible;display:inline;overflow:visible;enable-background:accumulate"
     d="M 31,9 C 18.297451,9 8,19.297451 8,32 8,38.462422 10.677492,44.290584 14.96875,48.46875 11.25639,44.384245 9,38.95432 9,33 9,20.297451 19.297451,10 32,10 37.95432,10 43.384245,12.25639 47.46875,15.96875 43.290584,11.677492 37.462422,9 31,9 z"
     id="path3853"
     inkscape:connector-curvature="0"
     sodipodi:nodetypes="sscsscs" />
  <path
     style="fill:#00122b;fill-opacity:0.65860218999999998;stroke:none;color:#000000;fill-rule:nonzero;marker:none;visibility:visible;display:inline;overflow:visible;enable-background:accumulate"
     d="m 28.383498,49.688485 0,4.361219 3.738188,-2.180609 -3.738188,-2.18061 z M 32.812862,50 l 0,3.738188 0.934546,0 0,-3.738188 -0.934546,0 z m 1.869093,0 0,3.738188 0.934547,0 0,-3.738188 -0.934547,0 z"
     id="path2984"
     inkscape:connector-curvature="0" />
  <path
     style="fill:#00122b;fill-opacity:0.65860218999999998;color:#000000;fill-rule:nonzero;stroke:none;marker:none;visibility:visible;display:inline;overflow:visible;enable-background:accumulate"
     d="m 49.261812,31.130905 0,1.431026 -1.869094,-1.119509 0,3.115157 1.869094,-1.11951 0,1.431026 3.115157,-1.869094 -3.115157,-1.869095 z M 52.376969,33 l 0,1.246062 0.623031,0 0,-2.492125 -0.623031,0 0,1.246063 z"
     id="path2987"
     inkscape:connector-curvature="0" />
  <path
     style="fill:#00122b;fill-opacity:0.65860218999999998;color:#000000;fill-rule:nonzero;stroke:none;marker:none;visibility:visible;display:inline;overflow:visible;enable-background:accumulate"
     d="m 15.738188,31.130906 0,1.431025 1.869094,-1.119509 0,3.115156 -1.869094,-1.119509 0,1.431025 -3.115157,-1.869095 3.115157,-1.869093 z m -3.115157,1.869093 0,1.246063 -0.623031,0 0,-2.492125 0.623031,0 0,1.246062 z"
     id="path2987-2"
     inkscape:connector-curvature="0" />
  <path
     style="color:#000000;fill:#00122b;fill-opacity:0.65860218999999998;fill-rule:nonzero;stroke:none;stroke-width:2.28571415000000000;marker:none;visibility:visible;display:inline;overflow:visible;enable-background:accumulate"
     d="m 30,13 0,1 4,0 0,-1 -4,0 z m 0,2 0,1 4,0 0,-1 -4,0 z m 0,2 0,1 4,0 0,-1 -4,0 z"
     id="rect3883"
     inkscape:connector-curvature="0" />
</svg>
