<?xml version="1.0" encoding="UTF-8" standalone="no"?>
<!-- Created with Inkscape (http://www.inkscape.org/) -->

<svg
   xmlns:dc="http://purl.org/dc/elements/1.1/"
   xmlns:cc="http://creativecommons.org/ns#"
   xmlns:rdf="http://www.w3.org/1999/02/22-rdf-syntax-ns#"
   xmlns:svg="http://www.w3.org/2000/svg"
   xmlns="http://www.w3.org/2000/svg"
   xmlns:xlink="http://www.w3.org/1999/xlink"
   xmlns:sodipodi="http://sodipodi.sourceforge.net/DTD/sodipodi-0.dtd"
   xmlns:inkscape="http://www.inkscape.org/namespaces/inkscape"
   id="svg13094"
   height="64"
   width="64"
   version="1.1"
   inkscape:version="0.48.4 r9939"
   sodipodi:docname="folder-templates.svg"
   inkscape:export-filename="folder.png"
   inkscape:export-xdpi="90"
   inkscape:export-ydpi="90">
  <sodipodi:namedview
     pagecolor="#ffffff"
     bordercolor="#666666"
     borderopacity="1"
     objecttolerance="10"
     gridtolerance="10"
     guidetolerance="10"
     inkscape:pageopacity="0"
     inkscape:pageshadow="2"
     inkscape:window-width="1920"
     inkscape:window-height="1022"
     id="namedview46"
     showgrid="false"
     inkscape:snap-bbox="true"
     inkscape:bbox-paths="true"
     inkscape:bbox-nodes="true"
     inkscape:snap-bbox-edge-midpoints="true"
     inkscape:snap-bbox-midpoints="true"
     inkscape:snap-nodes="true"
     inkscape:object-paths="true"
     inkscape:snap-intersection-paths="true"
     inkscape:object-nodes="true"
     inkscape:snap-smooth-nodes="true"
     inkscape:snap-midpoints="true"
     inkscape:snap-object-midpoints="true"
     inkscape:snap-center="true"
     fit-margin-top="0"
     fit-margin-left="0"
     fit-margin-right="0"
     fit-margin-bottom="0"
     inkscape:zoom="10.429825"
     inkscape:cx="38.867706"
     inkscape:cy="31.586308"
     inkscape:window-x="-5"
     inkscape:window-y="23"
     inkscape:window-maximized="1"
     inkscape:current-layer="svg13094"
     showguides="true"
     inkscape:guide-bbox="true"
     inkscape:snap-page="true"
     inkscape:snap-global="false">
    <inkscape:grid
       type="xygrid"
       id="grid3023"
       empspacing="5"
       visible="true"
       enabled="true"
       snapvisiblegridlinesonly="true"
       originx="-80px"
       originy="-75px" />
  </sodipodi:namedview>
  <defs
     id="defs11">
    <linearGradient
       id="linearGradient3841-4-0">
      <stop
         style="stop-color:#667d45;stop-opacity:1;"
         offset="0"
         id="stop3843-9-6" />
      <stop
         style="stop-color:#6f8b48;stop-opacity:1;"
         offset="1"
         id="stop3845-3-6" />
    </linearGradient>
    <linearGradient
       gradientTransform="translate(0.625,-0.082283)"
       inkscape:collect="always"
       xlink:href="#linearGradient3969-5-8"
       id="linearGradient3918"
       gradientUnits="userSpaceOnUse"
       x1="29.875"
       y1="64.082283"
       x2="29.875"
       y2="12.082283" />
    <linearGradient
       id="linearGradient3969-5-8">
      <stop
         style="stop-color:#6b804b;stop-opacity:1;"
         offset="0"
         id="stop3971-7" />
      <stop
         id="stop3977-5-2"
         offset="0.08245245"
         style="stop-color:#7e9a55;stop-opacity:1;" />
      <stop
         style="stop-color:#83a354;stop-opacity:1;"
         offset="0.49040774"
         id="stop3979-3" />
      <stop
         id="stop3981-0-2"
         offset="0.51108748"
         style="stop-color:#7d9c50;stop-opacity:1;" />
      <stop
         style="stop-color:#79974e;stop-opacity:1;"
         offset="1"
         id="stop3973-3" />
    </linearGradient>
    <linearGradient
       inkscape:collect="always"
       xlink:href="#linearGradient4069-9-1-4-3"
       id="linearGradient3950-5-5-6-2-8"
       gradientUnits="userSpaceOnUse"
       x1="21.295919"
       y1="64"
       x2="21.295919"
       y2="12" />
    <linearGradient
       id="linearGradient4069-9-1-4-3">
      <stop
         offset="0"
         style="stop-color:#b3bcaa;stop-opacity:1"
         id="stop4071-3-6-6-5" />
      <stop
         id="stop4073-8-3-2-9"
         style="stop-color:#d2d7cc;stop-opacity:1"
         offset="0.05736636" />
      <stop
         offset="0.49138948"
         style="stop-color:#e2e8db;stop-opacity:1"
         id="stop4075-9-4-2-7" />
      <stop
         offset="0.51270223"
         style="stop-color:#d2ddc6;stop-opacity:1"
         id="stop4077-9-3-1-3" />
      <stop
         offset="1"
         style="stop-color:#cfd9c6;stop-opacity:1"
         id="stop4079-5-9-1-9" />
    </linearGradient>
    <linearGradient
       y2="32.976402"
       x2="77.278381"
       y1="48.976402"
       x1="77.278381"
       gradientTransform="translate(-33,-31.9764)"
       gradientUnits="userSpaceOnUse"
       id="linearGradient4376"
       xlink:href="#linearGradient3841-4-0"
       inkscape:collect="always" />
    <linearGradient
       inkscape:collect="always"
       xlink:href="#linearGradient4069-9-1-4-3-9"
       id="linearGradient3950-5-5-6-2-8-6"
       gradientUnits="userSpaceOnUse"
       x1="21.295919"
       y1="64"
       x2="21.295919"
       y2="12" />
    <linearGradient
       id="linearGradient4069-9-1-4-3-9">
      <stop
         offset="0"
         style="stop-color:#b3bcaa;stop-opacity:1"
         id="stop4071-3-6-6-5-1" />
      <stop
         id="stop4073-8-3-2-9-9"
         style="stop-color:#d2d7cc;stop-opacity:1"
         offset="0.05736636" />
      <stop
         offset="0.49138948"
         style="stop-color:#e2e8db;stop-opacity:1"
         id="stop4075-9-4-2-7-3" />
      <stop
         offset="0.51270223"
         style="stop-color:#d2ddc6;stop-opacity:1"
         id="stop4077-9-3-1-3-8" />
      <stop
         offset="1"
         style="stop-color:#cfd9c6;stop-opacity:1"
         id="stop4079-5-9-1-9-7" />
    </linearGradient>
  </defs>
  <metadata
     id="metadata13099">
    <rdf:RDF>
      <cc:Work
         rdf:about="">
        <dc:format>image/svg+xml</dc:format>
        <dc:type
           rdf:resource="http://purl.org/dc/dcmitype/StillImage" />
        <dc:title />
      </cc:Work>
    </rdf:RDF>
  </metadata>
  <path
     style="fill:url(#linearGradient4376);fill-opacity:1;fill-rule:nonzero;stroke:none"
     d="m 3,6 -10e-8,58.000001 L 60,64 64,60 64,1 63,0 37,0 32,4.9999999 4,5 z"
     id="path3833"
     inkscape:connector-curvature="0"
     sodipodi:nodetypes="cccccccccc" />
  <path
     style="color:#000000;fill:#d1ff8f;fill-opacity:0.46554775;fill-rule:nonzero;stroke:none;stroke-width:1;marker:none;visibility:visible;display:inline;overflow:visible;enable-background:accumulate"
     d="M 37,0 32,5 4,5 3,6 3,7 4,6 32,6 37,1 63,1 64,2 64,1 63,0 37,0 z"
     id="path3800"
     inkscape:connector-curvature="0" />
  <path
     sodipodi:nodetypes="ccccc"
     d="m 7,13 51,0 0,31 -51,0 z"
     id="path3920"
     inkscape:connector-curvature="0"
     style="fill:#c7c7c7;fill-opacity:1;fill-rule:nonzero" />
  <path
     sodipodi:nodetypes="cccccccc"
     id="path3802"
     d="m 58,13 0,51 2,0 4,-4 0,-59 -1,-1 0,18 z"
     inkscape:connector-curvature="0"
     style="fill:#3e4959;fill-opacity:0.43171806" />
  <path
     inkscape:connector-curvature="0"
     id="path4253"
     d="m 7,13 51,0 0,1 -51,0 z"
     style="fill:#ffffff;fill-opacity:0.60159009;fill-rule:nonzero"
     sodipodi:nodetypes="ccccc" />
  <path
     style="color:#000000;fill:#3e4959;fill-opacity:0.22968199;fill-rule:nonzero;stroke-width:1;stroke-linecap:butt;stroke-linejoin:miter;stroke-miterlimit:4;stroke-opacity:1;stroke-dasharray:none;stroke-dashoffset:0;marker:none;visibility:visible;display:inline;overflow:visible;enable-background:accumulate"
     d="m 30,13 4,4 2,0 -4,-4 z"
     id="path3982"
     inkscape:connector-curvature="0"
     sodipodi:nodetypes="ccccc" />
  <path
     id="path3916"
     d="m 0,13 0,50 1,1 59,0 1,-1 0,-45 -1,-1 -26,1e-6 -5,-5 L 1,12 z"
     inkscape:connector-curvature="0"
     style="fill:url(#linearGradient3918);fill-opacity:1;fill-rule:nonzero"
     sodipodi:nodetypes="ccccccccccc"
     inkscape:export-xdpi="90"
     inkscape:export-ydpi="90" />
  <path
     style="fill:#d1ff8f;fill-opacity:0.46554775;fill-rule:nonzero"
     d="m 1,12 -1,1 0,1 1,-1 28,0 5,5 26,0 1,1 0,-1 -1,-1 -26,0 -5,-5 -28,0 z"
     id="path3046"
     inkscape:connector-curvature="0" />
  <path
     style="font-size:medium;font-style:normal;font-variant:normal;font-weight:normal;font-stretch:normal;text-indent:0;text-align:start;text-decoration:none;line-height:normal;letter-spacing:normal;word-spacing:normal;text-transform:none;direction:ltr;block-progression:tb;writing-mode:lr-tb;text-anchor:start;baseline-shift:baseline;color:#000000;fill:url(#linearGradient3950-5-5-6-2-8-6);fill-opacity:1;fill-rule:nonzero;stroke:none;stroke-width:1;marker:none;visibility:visible;display:inline;overflow:visible;enable-background:accumulate;font-family:Sans;-inkscape-font-specification:Sans"
     d="m 12,27 0,4.3125 c -0.968245,0.347301 -1.855235,0.983114 -2.40625,1.9375 -1.0765418,1.864626 -0.5716893,4.140861 0.96875,5.53125 l -5.8728814,14.064089 1.875,0.75 L 13,38.09375 12.25,37.65625 C 11.044011,36.959972 10.647472,35.45599 11.34375,34.25 c 0.696279,-1.20599 2.200259,-1.602528 3.40625,-0.90625 1.205989,0.696278 1.602528,2.20026 0.90625,3.40625 -0.219446,0.380092 -0.526158,0.686804 -0.90625,0.90625 L 14,38.09375 20.3125,53 24,53 l 0,-24 6,0 0,2 -4,0 0,6 4,0 0,2 -4,0 0,6 4,0 0,2 -4,0 0,6 6,0 0,-2 -4,0 0,-2 4,0 0,-6 -4,0 0,-2 4,0 0,-6 -4,0 0,-2 4,0 0,-6 -10,0 0,24 -0.3125,0 -5.28125,-12.25 c 0.35212,-0.315891 0.76155,-0.586993 1,-1 1.236718,-2.14206 0.485809,-4.919532 -1.65625,-6.15625 -0.238007,-0.137413 -0.49949,-0.160645 -0.75,-0.25 L 15,27 z"
     id="path3784"
     inkscape:connector-curvature="0"
     sodipodi:nodetypes="ccscccccssscccccccccccccccccccccccccccccccccccssccc" />
</svg>
