<?xml version="1.0" encoding="UTF-8" standalone="no"?>
<!-- Created with Inkscape (http://www.inkscape.org/) -->

<svg
   xmlns:dc="http://purl.org/dc/elements/1.1/"
   xmlns:cc="http://creativecommons.org/ns#"
   xmlns:rdf="http://www.w3.org/1999/02/22-rdf-syntax-ns#"
   xmlns:svg="http://www.w3.org/2000/svg"
   xmlns="http://www.w3.org/2000/svg"
   xmlns:sodipodi="http://sodipodi.sourceforge.net/DTD/sodipodi-0.dtd"
   xmlns:inkscape="http://www.inkscape.org/namespaces/inkscape"
   id="svg13094"
   height="64"
   width="64"
   version="1.1"
   inkscape:version="0.91+devel r"
   sodipodi:docname="folder-java.svg"
   inkscape:export-filename="folder.png"
   inkscape:export-xdpi="90"
   inkscape:export-ydpi="90">
  <sodipodi:namedview
     pagecolor="#ffffff"
     bordercolor="#666666"
     borderopacity="1"
     objecttolerance="10"
     gridtolerance="10"
     guidetolerance="10"
     inkscape:pageopacity="0"
     inkscape:pageshadow="2"
     inkscape:window-width="1920"
     inkscape:window-height="1023"
     id="namedview46"
     showgrid="true"
     inkscape:snap-bbox="true"
     inkscape:bbox-paths="true"
     inkscape:bbox-nodes="true"
     inkscape:snap-bbox-edge-midpoints="true"
     inkscape:snap-bbox-midpoints="true"
     inkscape:snap-nodes="true"
     inkscape:object-paths="true"
     inkscape:snap-intersection-paths="true"
     inkscape:object-nodes="true"
     inkscape:snap-smooth-nodes="true"
     inkscape:snap-midpoints="true"
     inkscape:snap-object-midpoints="true"
     inkscape:snap-center="true"
     fit-margin-top="0"
     fit-margin-left="0"
     fit-margin-right="0"
     fit-margin-bottom="0"
     inkscape:zoom="29.5"
     inkscape:cx="22.221924"
     inkscape:cy="30.430761"
     inkscape:window-x="-10"
     inkscape:window-y="35"
     inkscape:window-maximized="1"
     inkscape:current-layer="svg13094"
     showguides="true"
     inkscape:guide-bbox="true"
     inkscape:snap-page="true"
     inkscape:snap-global="true">
    <inkscape:grid
       type="xygrid"
       id="grid3023"
       empspacing="5"
       visible="true"
       enabled="true"
       snapvisiblegridlinesonly="true"
       originx="-80px"
       originy="-75px" />
  </sodipodi:namedview>
  <defs
     id="defs11" />
  <metadata
     id="metadata13099">
    <rdf:RDF>
      <cc:Work
         rdf:about="">
        <dc:format>image/svg+xml</dc:format>
        <dc:type
           rdf:resource="http://purl.org/dc/dcmitype/StillImage" />
        <dc:title></dc:title>
      </cc:Work>
    </rdf:RDF>
  </metadata>
  <path
     style="color:#000000;display:inline;overflow:visible;visibility:visible;fill:#e38d16;fill-opacity:1;fill-rule:nonzero;stroke:none;marker:none;enable-background:accumulate"
     d="m 3,6 -10e-8,58.000001 L 60,64 64,60 64,1 63,0 37,0 32,4.9999999 4,5 Z"
     id="path3833"
     inkscape:connector-curvature="0"
     sodipodi:nodetypes="cccccccccc" />
  <path
     sodipodi:nodetypes="cccccccc"
     id="path3802"
     d="m 58,13 0,51 2,0 4,-4 0,-59 -1,-1 0,18 z"
     inkscape:connector-curvature="0"
     style="opacity:1;fill:#8c3d00;fill-opacity:0.33273704;stroke:none;stroke-width:1;stroke-linecap:butt;stroke-linejoin:miter;stroke-miterlimit:4;stroke-dasharray:none;stroke-dashoffset:0;stroke-opacity:1;marker:none" />
  <path
     sodipodi:nodetypes="ccccc"
     d="m 7,13 51,0 0,31 -51,0 z"
     id="path3920"
     inkscape:connector-curvature="0"
     style="fill:#e2e2e2;fill-opacity:1;fill-rule:nonzero" />
  <path
     style="color:#000000;display:inline;overflow:visible;visibility:visible;fill:#3e4959;fill-opacity:0.22968199;fill-rule:nonzero;stroke-width:1;stroke-linecap:butt;stroke-linejoin:miter;stroke-miterlimit:4;stroke-dasharray:none;stroke-dashoffset:0;stroke-opacity:1;marker:none;enable-background:accumulate"
     d="m 30,13 4,4 2,0 -4,-4 z"
     id="path3982"
     inkscape:connector-curvature="0"
     sodipodi:nodetypes="ccccc" />
  <path
     id="path3916"
     d="m 0,13 0,50 1,1 59,0 1,-1 0,-45 -1,-1 -26,1e-6 -5,-5 L 1,12 Z"
     inkscape:connector-curvature="0"
     style="color:#000000;display:inline;overflow:visible;visibility:visible;fill:#fca834;fill-opacity:1;fill-rule:nonzero;stroke-width:1;stroke-linecap:butt;stroke-linejoin:miter;stroke-miterlimit:4;stroke-dasharray:none;stroke-dashoffset:0;stroke-opacity:1;marker:none;enable-background:accumulate"
     sodipodi:nodetypes="ccccccccccc"
     inkscape:export-xdpi="90"
     inkscape:export-ydpi="90" />
  <path
     inkscape:connector-curvature="0"
     id="path3078"
     d="m 23.594212,16.21875 a 0.17628107,0.17628107 0 0 0 -0.03125,0.03125 0.17628107,0.17628107 0 0 0 -0.03125,0.03125 0.17628107,0.17628107 0 0 0 -0.03125,0.03125 0.17628107,0.17628107 0 0 0 -0.03125,0.0625 0.17628107,0.17628107 0 0 0 0,0.03125 0.17628107,0.17628107 0 0 0 0,0.03125 c 0.407311,1.604078 0.281776,2.898391 -0.21875,4.03125 -0.500527,1.13286 -1.376418,2.1018 -2.375,3 -1.997164,1.796401 -4.576316,3.31538 -5.968749,5.40625 -0.963847,1.447163 -0.728877,3.006709 0.21875,4.5625 0.947628,1.555791 2.586327,3.145345 4.468749,4.84375 a 0.17628107,0.17628107 0 0 0 0.03125,0 0.17628107,0.17628107 0 0 0 0.03125,0.03125 0.17628107,0.17628107 0 0 0 0.03125,0 0.17628107,0.17628107 0 0 0 0.03125,0 0.17628107,0.17628107 0 0 0 0.03125,0 0.17628107,0.17628107 0 0 0 0.0625,0 0.17628107,0.17628107 0 0 0 0.03125,-0.03125 0.17628107,0.17628107 0 0 0 0.03125,-0.03125 0.17628107,0.17628107 0 0 0 0,-0.03125 0.17628107,0.17628107 0 0 0 0.03125,-0.03125 0.17628107,0.17628107 0 0 0 0,-0.0625 0.17628107,0.17628107 0 0 0 0,-0.03125 0.17628107,0.17628107 0 0 0 -0.03125,-0.03125 c -0.754751,-1.705979 -2.336464,-3.243353 -2.9375,-4.96875 -0.300516,-0.862699 -0.369095,-1.778842 0.03125,-2.78125 0.400334,-1.002409 1.280566,-2.11582 2.875,-3.375 4.040306,-3.189675 5.05465,-5.842067 5.03125,-7.71875 -0.02339,-1.876683 -1.09375,-2.9375 -1.09375,-2.9375 a 0.17628107,0.17628107 0 0 0 -0.03125,-0.03125 0.17628107,0.17628107 0 0 0 -0.03125,0 0.17628107,0.17628107 0 0 0 -0.03125,-0.03125 0.17628107,0.17628107 0 0 0 -0.03125,0 0.17628107,0.17628107 0 0 0 -0.03125,0 0.17628107,0.17628107 0 0 0 -0.03125,0 z m 4.96875,8.09375 c 0,0 -3.375518,0.845444 -6,2.65625 -1.312241,0.905402 -2.465413,2.068788 -2.84375,3.5 -0.378335,1.431211 0.04209,3.104075 1.6875,5 0.915388,1.053902 0.778883,1.990616 0.4375,2.71875 -0.341381,0.728135 -0.90625,1.21875 -0.90625,1.21875 a 0.17628107,0.17628107 0 0 0 -0.03125,0.03125 0.17628107,0.17628107 0 0 0 -0.03125,0.03125 0.17628107,0.17628107 0 0 0 -0.03125,0.03125 0.17628107,0.17628107 0 0 0 0,0.03125 0.17628107,0.17628107 0 0 0 0,0.03125 0.17628107,0.17628107 0 0 0 0.03125,0.03125 0.17628107,0.17628107 0 0 0 0,0.03125 0.17628107,0.17628107 0 0 0 0.03125,0.03125 0.17628107,0.17628107 0 0 0 0.03125,0.03125 0.17628107,0.17628107 0 0 0 0.09375,0.03125 0.17628107,0.17628107 0 0 0 0.03125,0 0.17628107,0.17628107 0 0 0 0.03125,-0.03125 0.17628107,0.17628107 0 0 0 0.03125,0 c 0,0 1.227789,-0.63345 2.1875,-1.6875 0.479857,-0.527025 0.881451,-1.152508 1.03125,-1.875 0.149799,-0.722494 0.05034,-1.556353 -0.53125,-2.375 -0.523026,-0.735096 -1.017353,-1.367321 -1.3125,-1.96875 -0.295148,-0.601429 -0.415478,-1.120691 -0.21875,-1.75 0.393456,-1.25862 2.123283,-2.904156 6.4375,-5.40625 a 0.17628107,0.17628107 0 0 0 0.03125,0 0.17628107,0.17628107 0 0 0 0,-0.03125 0.17628107,0.17628107 0 0 0 0.03125,0 0.17628107,0.17628107 0 0 0 0,-0.03125 0.17628107,0.17628107 0 0 0 0.03125,-0.0625 0.17628107,0.17628107 0 0 0 0,-0.03125 0.17628107,0.17628107 0 0 0 0,-0.03125 0.17628107,0.17628107 0 0 0 -0.03125,-0.03125 0.17628107,0.17628107 0 0 0 0,-0.03125 0.17628107,0.17628107 0 0 0 -0.03125,-0.03125 0.17628107,0.17628107 0 0 0 -0.03125,-0.03125 0.17628107,0.17628107 0 0 0 -0.03125,0 0.17628107,0.17628107 0 0 0 -0.03125,0 0.17628107,0.17628107 0 0 0 -0.03125,0 0.17628107,0.17628107 0 0 0 -0.03125,0 0.17628107,0.17628107 0 0 0 -0.03125,0 z m 2.6875,13.4375 c -0.542578,-0.02598 -1.144289,0.03705 -1.75,0.25 -0.447536,0.158886 -0.6875,0.53125 -0.6875,0.53125 a 0.0792743,0.0792743 0 0 0 0,0.03125 0.0792743,0.0792743 0 0 0 0,0.03125 0.0792743,0.0792743 0 0 0 0,0.03125 0.0792743,0.0792743 0 0 0 0.03125,0 0.0792743,0.0792743 0 0 0 0,0.03125 0.0792743,0.0792743 0 0 0 0.03125,0 0.0792743,0.0792743 0 0 0 0.03125,0 c 0,0 0.290618,-0.09712 0.875,-0.21875 1.155155,-0.240812 2.563697,0.519841 2.78125,1.8125 0.108783,0.646331 -0.07215,1.443728 -0.75,2.3125 -0.677858,0.868774 -1.834176,1.818192 -3.6875,2.78125 a 0.0792743,0.0792743 0 0 0 -0.03125,0 0.0792743,0.0792743 0 0 0 -0.03125,0.03125 c -0.01125,0.03008 -0.03017,0.08128 -0.0625,0.125 -0.01617,0.02186 -0.05134,0.04879 -0.0625,0.0625 -0.01115,0.01372 0,0.03125 0,0.03125 l 0.0625,0.03125 0,0.09375 c 4.363327,-1.147074 6.142354,-3.060875 6.34375,-4.75 0.201397,-1.689124 -1.183968,-3.127302 -3.09375,-3.21875 z m -16.531249,0.375 c -0.957262,0.02515 -3.1864,0.24568 -5.7812508,1.5 -0.258996,0.125281 -0.4658224,0.251322 -0.59375,0.375 -0.1279276,0.123675 -0.1948061,0.240549 -0.1875,0.375 0.0073,0.134451 0.091135,0.27256 0.21875,0.375 0.1276173,0.102435 0.3096372,0.196536 0.53125,0.28125 0.8864514,0.338858 2.4943458,0.571408 4.4687508,0.6875 3.948812,0.232183 9.325247,-0.03353 12.999999,-1 a 0.0792743,0.0792743 0 0 0 0.03125,0 C 27.157151,40.206336 28.187962,39.75 28.187962,39.75 a 0.0792743,0.0792743 0 0 0 0.03125,-0.03125 0.0792743,0.0792743 0 0 0 0.03125,-0.03125 0.0792743,0.0792743 0 0 0 0,-0.03125 0.0792743,0.0792743 0 0 0 0,-0.03125 0.0792743,0.0792743 0 0 0 -0.03125,0 0.0792743,0.0792743 0 0 0 0,-0.03125 0.0792743,0.0792743 0 0 0 -0.03125,0 0.0792743,0.0792743 0 0 0 -0.03125,0 c 0,0 -2.990522,0.498774 -5.96875,0.75 -3.646049,0.305494 -7.549632,0.386127 -9.499999,0.125 -0.578217,-0.07721 -0.982298,-0.180211 -1.21875,-0.28125 -0.118225,-0.05051 -0.175005,-0.109973 -0.21875,-0.15625 -0.04374,-0.04627 -0.06559,-0.0863 -0.0625,-0.125 0.0062,-0.07742 0.0946,-0.186926 0.28125,-0.3125 0.186644,-0.125574 0.47981,-0.280941 0.78125,-0.40625 1.205762,-0.501233 3,-0.90625 3,-0.90625 a 0.0792743,0.0792743 0 0 0 0,-0.03125 0.0792743,0.0792743 0 0 0 0.03125,0 0.0792743,0.0792743 0 0 0 0,-0.03125 0.0792743,0.0792743 0 0 0 0,-0.03125 0.0792743,0.0792743 0 0 0 0,-0.03125 0.0792743,0.0792743 0 0 0 -0.03125,-0.03125 0.0792743,0.0792743 0 0 0 -0.03125,0 c 0,0 -0.181654,-0.0083 -0.5,0 z m -1.21875,4.5 c -0.844732,0.280367 -1.429451,0.555309 -1.78125,0.84375 -0.1759,0.144221 -0.2796,0.287071 -0.34375,0.4375 -0.06415,0.150428 -0.08329,0.292687 -0.03125,0.4375 0.10409,0.289622 0.41594,0.536275 0.875,0.75 0.45906,0.213724 1.070894,0.387684 1.8125,0.53125 2.96643,0.574263 7.94908,0.532689 12.656249,-0.84375 a 0.0792743,0.0792743 0 0 0 0.03125,0 0.0792743,0.0792743 0 0 0 0,-0.03125 0.0792743,0.0792743 0 0 0 0,-0.03125 0.0792743,0.0792743 0 0 0 0,-0.03125 0.0792743,0.0792743 0 0 0 0,-0.03125 0.0792743,0.0792743 0 0 0 -0.03125,0 0.0792743,0.0792743 0 0 0 0,-0.03125 c -0.978983,-0.34512 -1.625,-0.96875 -1.625,-0.96875 a 0.0792743,0.0792743 0 0 0 -0.03125,-0.03125 0.0792743,0.0792743 0 0 0 -0.03125,0 c -4.581583,0.882219 -7.240615,0.877177 -10.593749,0.53125 -0.64174,-0.06638 -0.971114,-0.202673 -1.15625,-0.34375 -0.185136,-0.141078 -0.199915,-0.284281 -0.15625,-0.4375 0.04367,-0.15322 0.135938,-0.318977 0.25,-0.4375 0.114064,-0.118525 0.21875,-0.1875 0.21875,-0.1875 a 0.0792743,0.0792743 0 0 0 0.03125,-0.03125 0.0792743,0.0792743 0 0 0 0,-0.03125 0.0792743,0.0792743 0 0 0 0,-0.03125 0.0792743,0.0792743 0 0 0 -0.03125,-0.03125 0.0792743,0.0792743 0 0 0 -0.03125,0 0.0792743,0.0792743 0 0 0 -0.03125,0 z m 0.96875,4.34375 c -0.768278,0.214671 -1.278227,0.453235 -1.59375,0.71875 -0.315522,0.265515 -0.414603,0.585258 -0.3125,0.875 0.102106,0.289743 0.390899,0.54533 0.8125,0.78125 0.4216,0.23592 0.955676,0.454412 1.625,0.625 2.677289,0.682349 7.097877,0.734884 10.999999,-0.9375 a 0.0792743,0.0792743 0 0 0 0,-0.03125 0.0792743,0.0792743 0 0 0 0.03125,0 0.0792743,0.0792743 0 0 0 0,-0.03125 0.0792743,0.0792743 0 0 0 0,-0.03125 0.0792743,0.0792743 0 0 0 0,-0.03125 0.0792743,0.0792743 0 0 0 -0.03125,0 0.0792743,0.0792743 0 0 0 0,-0.03125 c -1.263847,-0.491472 -2.15625,-1.09375 -2.15625,-1.09375 a 0.0792743,0.0792743 0 0 0 -0.03125,0 0.0792743,0.0792743 0 0 0 -0.03125,0 0.0792743,0.0792743 0 0 0 -0.03125,0 c -3.459576,0.654778 -5.049013,0.733045 -8.187499,0.375 -0.643215,-0.07395 -1.04717,-0.197733 -1.25,-0.3125 -0.101413,-0.05738 -0.160551,-0.10707 -0.1875,-0.15625 -0.02694,-0.04917 -0.0116,-0.107556 0,-0.15625 0.0232,-0.09739 0.120561,-0.19888 0.21875,-0.28125 0.09818,-0.08237 0.21875,-0.125 0.21875,-0.125 a 0.0792743,0.0792743 0 0 0 0,-0.03125 0.0792743,0.0792743 0 0 0 0,-0.03125 0.0792743,0.0792743 0 0 0 0,-0.03125 0.0792743,0.0792743 0 0 0 0,-0.03125 0.0792743,0.0792743 0 0 0 0,-0.03125 0.0792743,0.0792743 0 0 0 -0.03125,0 0.0792743,0.0792743 0 0 0 -0.03125,0 0.0792743,0.0792743 0 0 0 -0.03125,0 z m -4.0625,2.875 c -0.14956,1.41e-4 -0.304775,0.0169 -0.4687508,0.03125 -1.421092,0.124335 -3.3338933,0.745315 -4.3125,1.46875 -0.2446515,0.18086 -0.4232259,0.4002 -0.53125,0.59375 -0.108024,0.193551 -0.1294506,0.373464 -0.03125,0.5625 0.098201,0.189037 0.3005862,0.358749 0.625,0.5 0.3244139,0.14125 0.7813416,0.247519 1.375,0.34375 7.9237218,1.285001 15.1422238,0.99771 19.8749998,0.15625 2.366388,-0.420729 4.089179,-0.981329 5,-1.5625 0.45541,-0.290587 0.72554,-0.554888 0.71875,-0.875 -0.0034,-0.160057 -0.08242,-0.330192 -0.21875,-0.46875 -0.13633,-0.138558 -0.331295,-0.256615 -0.59375,-0.375 a 0.0792743,0.0792743 0 0 0 -0.03125,0 0.0792743,0.0792743 0 0 0 -0.03125,0 0.0792743,0.0792743 0 0 0 -0.03125,0 0.0792743,0.0792743 0 0 0 0,0.03125 0.0792743,0.0792743 0 0 0 -0.03125,0 0.0792743,0.0792743 0 0 0 0,0.03125 0.0792743,0.0792743 0 0 0 0,0.03125 0.0792743,0.0792743 0 0 0 0.03125,0 0.0792743,0.0792743 0 0 0 0,0.03125 c 0,0 0.261234,0.195514 0.25,0.46875 -0.0056,0.136617 -0.06777,0.322891 -0.28125,0.5 -0.213479,0.177109 -0.573324,0.35442 -1.15625,0.53125 -2.220309,0.672614 -6.901258,1.105406 -11.5,1.15625 -2.299369,0.02541 -4.579929,-0.03515 -6.531249,-0.21875 C 10.580421,52.597599 8.9363147,52.295945 7.9692122,51.875 7.7995851,51.80121 7.7351164,51.720572 7.6879622,51.65625 7.6408122,51.59193 7.6319432,51.5637 7.6567122,51.5 c 0.049548,-0.127394 0.2695331,-0.316463 0.5625,-0.46875 0.585933,-0.304571 1.465645,-0.568341 1.8749998,-0.65625 0.862532,-0.187036 1.312501,-0.15625 1.312501,-0.15625 a 0.0792743,0.0792743 0 0 0 0.03125,0 0.0792743,0.0792743 0 0 0 0.03125,0 0.0792743,0.0792743 0 0 0 0,-0.03125 0.0792743,0.0792743 0 0 0 0.03125,0 0.0792743,0.0792743 0 0 0 0,-0.03125 0.0792743,0.0792743 0 0 0 0,-0.03125 0.0792743,0.0792743 0 0 0 -0.03125,-0.03125 0.0792743,0.0792743 0 0 0 0,-0.03125 c -0.245491,-0.172911 -0.613821,-0.219174 -1.0625,-0.21875 z m 23.812499,2.375 a 0.0792743,0.0792743 0 0 0 0,0.03125 c 0,0 -0.01071,0.02978 -0.03125,0.0625 -0.02054,0.03271 -0.03275,0.06001 -0.09375,0.125 -0.122003,0.129987 -0.359139,0.309483 -0.75,0.53125 -0.78172,0.443531 -2.241537,1.02361 -4.9375,1.53125 -6.0828,1.144711 -13.584468,1.014403 -18.031249,0.28125 l -0.03125,0.0625 0.0625,0.0625 c 0,0 -0.09904,0.0076 -0.0625,0.03125 0.03654,0.02363 0.10623,0.08502 0.1875,0.125 0.162539,0.07996 0.434459,0.16433 0.84375,0.28125 0.818582,0.233839 2.211545,0.50549 4.5625,0.65625 3.57616,0.22892 8.107032,0.171484 11.781249,-0.375 1.83711,-0.273243 3.437516,-0.67788 4.625,-1.21875 1.187487,-0.540871 1.963066,-1.237903 2.03125,-2.125 a 0.0792743,0.0792743 0 0 0 0,-0.03125 0.0792743,0.0792743 0 0 0 0,-0.03125 0.0792743,0.0792743 0 0 0 -0.03125,0 0.0792743,0.0792743 0 0 0 -0.03125,0 0.0792743,0.0792743 0 0 0 -0.03125,0 0.0792743,0.0792743 0 0 0 -0.03125,0 0.0792743,0.0792743 0 0 0 -0.03125,0 z"
     style="color:#000000;fill:#b54f00;fill-opacity:0.29606443;fill-rule:nonzero;stroke:none;stroke-width:1;marker:none;visibility:visible;display:inline;overflow:visible;enable-background:accumulate;opacity:1;stroke-linecap:butt;stroke-linejoin:miter;stroke-miterlimit:4;stroke-dasharray:none;stroke-dashoffset:0;stroke-opacity:1" />
  <path
     style="color:#000000;fill:#8c3d00;fill-opacity:0.13327373;fill-rule:nonzero;stroke:none;stroke-width:1;marker:none;visibility:visible;display:inline;overflow:visible;enable-background:accumulate;opacity:1;stroke-linecap:butt;stroke-linejoin:miter;stroke-miterlimit:4;stroke-dasharray:none;stroke-dashoffset:0;stroke-opacity:1"
     d="M 23.59375,16.21875 A 0.17628107,0.17628107 0 0 0 23.5625,16.25 0.17628107,0.17628107 0 0 0 23.53125,16.28125 0.17628107,0.17628107 0 0 0 23.5,16.3125 a 0.17628107,0.17628107 0 0 0 -0.03125,0.03125 0.17628107,0.17628107 0 0 0 0,0.03125 0.17628107,0.17628107 0 0 0 0,0.03125 0.17628107,0.17628107 0 0 0 0,0.03125 c 0.407311,1.604078 0.281776,2.898391 -0.21875,4.03125 -0.500527,1.13286 -1.376418,2.1018 -2.375,3 -1.997164,1.796401 -4.576317,3.31538 -5.96875,5.40625 -0.963847,1.447163 -0.728877,3.006709 0.21875,4.5625 0.635724,1.043716 1.596054,2.121973 2.71875,3.21875 -0.694449,-0.745531 -1.278139,-1.495366 -1.71875,-2.21875 -0.947627,-1.555791 -1.182597,-3.115337 -0.21875,-4.5625 1.392433,-2.09087 3.971586,-3.609849 5.96875,-5.40625 0.998582,-0.8982 1.874473,-1.86714 2.375,-3 0.500526,-1.132859 0.626061,-2.427172 0.21875,-4.03125 a 0.17628107,0.17628107 0 0 1 0,-0.03125 0.17628107,0.17628107 0 0 1 0,-0.03125 0.17628107,0.17628107 0 0 1 0,-0.03125 c -0.310104,-0.686628 -0.6875,-1.0625 -0.6875,-1.0625 A 0.17628107,0.17628107 0 0 0 23.75,16.25 a 0.17628107,0.17628107 0 0 0 -0.03125,0 0.17628107,0.17628107 0 0 0 -0.03125,-0.03125 0.17628107,0.17628107 0 0 0 -0.03125,0 0.17628107,0.17628107 0 0 0 -0.03125,0 0.17628107,0.17628107 0 0 0 -0.03125,0 z m 4.96875,8.09375 c 0,0 -3.375518,0.845444 -6,2.65625 -1.312241,0.905402 -2.465413,2.068788 -2.84375,3.5 -0.378335,1.431211 0.04209,3.104075 1.6875,5 0.915388,1.053902 0.778883,1.990616 0.4375,2.71875 -0.341381,0.728135 -0.90625,1.21875 -0.90625,1.21875 A 0.17628107,0.17628107 0 0 0 20.90625,39.4375 0.17628107,0.17628107 0 0 0 20.875,39.46875 0.17628107,0.17628107 0 0 0 20.84375,39.5 a 0.17628107,0.17628107 0 0 0 0,0.03125 0.17628107,0.17628107 0 0 0 0,0.03125 0.17628107,0.17628107 0 0 0 0.03125,0.03125 0.17628107,0.17628107 0 0 0 0,0.03125 0.17628107,0.17628107 0 0 0 0.03125,0.03125 0.17628107,0.17628107 0 0 0 0.03125,0.03125 0.17628107,0.17628107 0 0 0 0.0625,0.03125 0.17628107,0.17628107 0 0 0 0.03125,0 0.17628107,0.17628107 0 0 0 0.03125,0 0.17628107,0.17628107 0 0 0 0.03125,-0.03125 0.17628107,0.17628107 0 0 0 0.03125,0 c 0,0 1.051208,-0.552203 1.96875,-1.46875 0.02676,-0.529755 -0.136187,-1.115264 -0.6875,-1.75 -1.64541,-1.895925 -2.065835,-3.568789 -1.6875,-5 0.378337,-1.431212 1.531509,-2.594598 2.84375,-3.5 0.32806,-0.226351 0.65653,-0.428583 1,-0.625 0.0066,-0.0052 0.02465,0.0052 0.03125,0 0.991497,-0.781087 2.320889,-1.672429 4.125,-2.71875 a 0.17628107,0.17628107 0 0 0 0.03125,0 0.17628107,0.17628107 0 0 0 0,-0.03125 0.17628107,0.17628107 0 0 0 0.03125,0 0.17628107,0.17628107 0 0 0 0,-0.03125 0.17628107,0.17628107 0 0 0 0.03125,-0.03125 0.17628107,0.17628107 0 0 0 0,-0.03125 0.17628107,0.17628107 0 0 0 0,-0.03125 0.17628107,0.17628107 0 0 0 0,-0.03125 0.17628107,0.17628107 0 0 0 -0.03125,-0.03125 0.17628107,0.17628107 0 0 0 0,-0.03125 0.17628107,0.17628107 0 0 0 -0.03125,-0.03125 0.17628107,0.17628107 0 0 0 -0.03125,-0.03125 0.17628107,0.17628107 0 0 0 -0.03125,0 0.17628107,0.17628107 0 0 0 -0.03125,0 0.17628107,0.17628107 0 0 0 -0.03125,0 0.17628107,0.17628107 0 0 0 -0.03125,0 0.17628107,0.17628107 0 0 0 -0.03125,0 z M 31.25,37.75 c -0.542578,-0.02598 -1.144289,0.03705 -1.75,0.25 -0.447536,0.158886 -0.6875,0.53125 -0.6875,0.53125 a 0.0792743,0.0792743 0 0 0 0,0.03125 0.0792743,0.0792743 0 0 0 0,0.03125 0.0792743,0.0792743 0 0 0 0,0.03125 0.0792743,0.0792743 0 0 0 0.03125,0 0.0792743,0.0792743 0 0 0 0,0.03125 0.0792743,0.0792743 0 0 0 0.03125,0 0.0792743,0.0792743 0 0 0 0.03125,0 c 0,0 0.290618,-0.09712 0.875,-0.21875 0.577578,-0.120406 1.226276,0.02211 1.75,0.34375 C 31.779605,38.7553 32.018847,38.73893 32.25,38.75 32.91437,38.78181 33.507283,39.000861 34,39.3125 33.489577,38.427064 32.48176,37.808982 31.25,37.75 z m -16.53125,0.375 c -0.957262,0.02515 -3.186399,0.24568 -5.78125,1.5 -0.258996,0.125281 -0.4658224,0.251322 -0.59375,0.375 -0.1279276,0.123675 -0.1948061,0.240549 -0.1875,0.375 0.0073,0.134451 0.091135,0.27256 0.21875,0.375 0.1276173,0.102435 0.3096372,0.196536 0.53125,0.28125 C 9.003576,41.06845 9.1357512,41.09037 9.25,41.125 9.277988,41.08606 9.302855,41.03954 9.34375,41 9.4716776,40.876322 9.678504,40.750281 9.9375,40.625 c 0.458097,-0.221439 0.913435,-0.400888 1.34375,-0.5625 -0.008,-0.0081 -0.02416,-0.02375 -0.03125,-0.03125 -0.04374,-0.04627 -0.06559,-0.0863 -0.0625,-0.125 0.0062,-0.07742 0.0946,-0.186926 0.28125,-0.3125 0.186644,-0.125574 0.47981,-0.280941 0.78125,-0.40625 1.205762,-0.501233 3,-0.90625 3,-0.90625 a 0.0792743,0.0792743 0 0 0 0,-0.03125 0.0792743,0.0792743 0 0 0 0.03125,0 0.0792743,0.0792743 0 0 0 0,-0.03125 0.0792743,0.0792743 0 0 0 0,-0.03125 0.0792743,0.0792743 0 0 0 0,-0.03125 A 0.0792743,0.0792743 0 0 0 15.25,38.125 a 0.0792743,0.0792743 0 0 0 -0.03125,0 c 0,0 -0.181654,-0.0083 -0.5,0 z m 13.4375,1.46875 c 0,0 -2.610317,0.425206 -5.375,0.6875 C 22.409057,40.527189 22.125,40.6875 22.125,40.6875 a 0.17628107,0.17628107 0 0 1 -0.03125,0 0.17628107,0.17628107 0 0 1 -0.03125,0.03125 0.17628107,0.17628107 0 0 1 -0.03125,0 0.17628107,0.17628107 0 0 1 -0.03125,0 A 0.17628107,0.17628107 0 0 1 21.9375,40.6875 0.17628107,0.17628107 0 0 1 21.90625,40.65625 0.17628107,0.17628107 0 0 1 21.875,40.625 a 0.17628107,0.17628107 0 0 1 0,-0.03125 0.17628107,0.17628107 0 0 1 -0.03125,-0.03125 0.17628107,0.17628107 0 0 1 0,-0.03125 0.17628107,0.17628107 0 0 1 0,-0.03125 0.17628107,0.17628107 0 0 1 0.03125,-0.03125 0.17628107,0.17628107 0 0 1 0.03125,-0.03125 0.17628107,0.17628107 0 0 1 0.03125,-0.03125 c 0,0 0.02563,-0.05745 0.03125,-0.0625 -3.567069,0.289382 -7.330155,0.37691 -9.25,0.125 -0.0077,0.0044 -0.02371,-0.0043 -0.03125,0 -0.06848,0.03937 -0.16539,0.0891 -0.21875,0.125 -0.18665,0.125574 -0.27505,0.23508 -0.28125,0.3125 -0.0031,0.0387 0.01876,0.07873 0.0625,0.125 0.04374,0.04628 0.100525,0.10574 0.21875,0.15625 0.236452,0.101039 0.640533,0.20404 1.21875,0.28125 1.922791,0.257435 5.742508,0.169883 9.34375,-0.125 0.102671,-0.01405 0.210802,-0.01648 0.3125,-0.03125 1.082503,-0.157193 2.112562,-0.352132 3.03125,-0.59375 a 0.0792743,0.0792743 0 0 0 0.03125,0 C 27.156689,40.206336 28.1875,39.75 28.1875,39.75 a 0.0792743,0.0792743 0 0 0 0.03125,-0.03125 0.0792743,0.0792743 0 0 0 0.03125,-0.03125 0.0792743,0.0792743 0 0 0 0,-0.03125 0.0792743,0.0792743 0 0 0 0,-0.03125 0.0792743,0.0792743 0 0 0 -0.03125,0 0.0792743,0.0792743 0 0 0 0,-0.03125 0.0792743,0.0792743 0 0 0 -0.03125,0 0.0792743,0.0792743 0 0 0 -0.03125,0 z m 4.25,0.125 c 0.07579,0.16195 0.125088,0.346089 0.15625,0.53125 0.108783,0.646331 -0.07215,1.443728 -0.75,2.3125 -0.677858,0.868774 -1.834176,1.818192 -3.6875,2.78125 a 0.0792743,0.0792743 0 0 0 -0.03125,0 A 0.0792743,0.0792743 0 0 0 28.0625,45.375 C 28.05125,45.40508 28.03233,45.45628 28,45.5 c -0.01617,0.02186 -0.05134,0.04879 -0.0625,0.0625 -0.01115,0.01372 0,0.03125 0,0.03125 L 28,45.625 l 0,0.09375 c 2.384499,-0.62686 3.963545,-1.483231 4.96875,-2.40625 0.524129,-0.769469 0.691779,-1.480064 0.59375,-2.0625 -0.11701,-0.695249 -0.574915,-1.216835 -1.15625,-1.53125 z m -19,2.9375 c -0.786535,0.267784 -1.350968,0.536576 -1.6875,0.8125 -0.1759,0.144221 -0.2796,0.287071 -0.34375,0.4375 -0.06415,0.150428 -0.08329,0.292687 -0.03125,0.4375 0.10409,0.289622 0.41594,0.536275 0.875,0.75 0.02638,0.01228 0.06637,0.01923 0.09375,0.03125 0.0063,-0.07247 0.03042,-0.143536 0.0625,-0.21875 0.06415,-0.150429 0.16785,-0.293279 0.34375,-0.4375 0.201919,-0.165554 0.514495,-0.339762 0.875,-0.5 C 13.45164,43.91582 13.328118,43.87203 13.25,43.8125 13.064864,43.671422 13.050085,43.528219 13.09375,43.375 c 0.04367,-0.15322 0.135938,-0.318977 0.25,-0.4375 C 13.457814,42.818975 13.5625,42.75 13.5625,42.75 a 0.0792743,0.0792743 0 0 0 0.03125,-0.03125 0.0792743,0.0792743 0 0 0 0,-0.03125 0.0792743,0.0792743 0 0 0 0,-0.03125 c -0.06191,-0.0049 -0.126516,0.0052 -0.1875,0 z M 25,43.625 c -4.581583,0.882219 -7.240616,0.877177 -10.59375,0.53125 -0.07955,-0.0082 -0.117229,-0.021 -0.1875,-0.03125 -0.05293,0.08577 -0.09962,0.160967 -0.125,0.25 -0.04367,0.153219 -0.02889,0.296422 0.15625,0.4375 0.185136,0.141077 0.51451,0.27737 1.15625,0.34375 C 18.759384,45.502177 21.418417,45.507219 26,44.625 a 0.0792743,0.0792743 0 0 1 0.03125,0 0.0792743,0.0792743 0 0 1 0.03125,0.03125 c 0,0 0.159065,0.120493 0.28125,0.21875 0.114107,-0.03173 0.229932,-0.06047 0.34375,-0.09375 a 0.0792743,0.0792743 0 0 0 0.03125,0 0.0792743,0.0792743 0 0 0 0,-0.03125 0.0792743,0.0792743 0 0 0 0,-0.03125 0.0792743,0.0792743 0 0 0 0,-0.03125 0.0792743,0.0792743 0 0 0 0,-0.03125 0.0792743,0.0792743 0 0 0 -0.03125,0 0.0792743,0.0792743 0 0 0 0,-0.03125 c -0.978983,-0.34512 -1.625,-0.96875 -1.625,-0.96875 A 0.0792743,0.0792743 0 0 0 25.03125,43.625 0.0792743,0.0792743 0 0 0 25,43.625 z m -10.53125,3.34375 c -0.768278,0.214671 -1.278227,0.453235 -1.59375,0.71875 -0.315522,0.265515 -0.414603,0.585258 -0.3125,0.875 0.102106,0.289743 0.390899,0.54533 0.8125,0.78125 0.048,0.02686 0.105303,0.06739 0.15625,0.09375 -0.03714,-0.253654 0.07398,-0.522985 0.34375,-0.75 0.265512,-0.22343 0.702307,-0.437917 1.28125,-0.625 -0.384496,-0.07089 -0.693968,-0.133999 -0.84375,-0.21875 -0.101413,-0.05738 -0.160551,-0.10707 -0.1875,-0.15625 -0.02694,-0.04917 -0.0116,-0.107556 0,-0.15625 0.0232,-0.09739 0.120561,-0.19888 0.21875,-0.28125 0.09818,-0.08237 0.21875,-0.125 0.21875,-0.125 a 0.0792743,0.0792743 0 0 0 0,-0.03125 0.0792743,0.0792743 0 0 0 0,-0.03125 0.0792743,0.0792743 0 0 0 0,-0.03125 0.0792743,0.0792743 0 0 0 0,-0.03125 0.0792743,0.0792743 0 0 0 0,-0.03125 0.0792743,0.0792743 0 0 0 -0.03125,0 0.0792743,0.0792743 0 0 0 -0.03125,0 0.0792743,0.0792743 0 0 0 -0.03125,0 z m 9.28125,0.8125 c -3.459576,0.654778 -5.049014,0.733045 -8.1875,0.375 -0.01237,-0.0014 -0.01906,0.0015 -0.03125,0 -0.0305,0.01192 -0.105935,0.02532 -0.1875,0.09375 -0.09819,0.08237 -0.19555,0.18386 -0.21875,0.28125 -0.0116,0.04869 -0.02694,0.10708 0,0.15625 0.02695,0.04918 0.08609,0.09887 0.1875,0.15625 0.20283,0.114767 0.606785,0.23855 1.25,0.3125 3.138486,0.358045 4.727924,0.279778 8.1875,-0.375 a 0.0792743,0.0792743 0 0 1 0.03125,0 0.0792743,0.0792743 0 0 1 0.03125,0 0.0792743,0.0792743 0 0 1 0.03125,0 c 0,0 0.254423,0.200998 0.6875,0.4375 C 25.689328,49.15714 25.843445,49.098347 26,49.03125 A 0.0792743,0.0792743 0 0 0 26,49 a 0.0792743,0.0792743 0 0 0 0.03125,0 0.0792743,0.0792743 0 0 0 0,-0.03125 0.0792743,0.0792743 0 0 0 0,-0.03125 0.0792743,0.0792743 0 0 0 0,-0.03125 0.0792743,0.0792743 0 0 0 -0.03125,0 0.0792743,0.0792743 0 0 0 0,-0.03125 c -1.263847,-0.491472 -2.15625,-1.09375 -2.15625,-1.09375 a 0.0792743,0.0792743 0 0 0 -0.03125,0 0.0792743,0.0792743 0 0 0 -0.03125,0 0.0792743,0.0792743 0 0 0 -0.03125,0 z m -13.34375,2.0625 C 10.25669,49.843891 10.101476,49.86065 9.9375,49.875 8.516408,49.999335 6.6036067,50.620315 5.625,51.34375 5.3803485,51.52461 5.2017741,51.74395 5.09375,51.9375 4.985726,52.131051 4.9642994,52.310964 5.0625,52.5 c 0.098201,0.189037 0.3005862,0.358749 0.625,0.5 0.095199,0.04145 0.2256215,0.08894 0.34375,0.125 0.015541,-0.06233 0.026492,-0.122983 0.0625,-0.1875 C 6.2017741,52.74395 6.3803485,52.52461 6.625,52.34375 6.9237636,52.122889 7.3176673,51.909296 7.75,51.71875 7.727181,51.69454 7.703218,51.67769 7.6875,51.65625 7.64035,51.59193 7.631481,51.5637 7.65625,51.5 c 0.049548,-0.127394 0.2695331,-0.316463 0.5625,-0.46875 0.585933,-0.304571 1.4656452,-0.568341 1.875,-0.65625 0.862532,-0.187036 1.3125,-0.15625 1.3125,-0.15625 a 0.0792743,0.0792743 0 0 0 0.03125,0 0.0792743,0.0792743 0 0 0 0.03125,0 0.0792743,0.0792743 0 0 0 0,-0.03125 0.0792743,0.0792743 0 0 0 0.03125,0 0.0792743,0.0792743 0 0 0 0,-0.03125 0.0792743,0.0792743 0 0 0 0,-0.03125 0.0792743,0.0792743 0 0 0 -0.03125,-0.03125 0.0792743,0.0792743 0 0 0 0,-0.03125 c -0.245491,-0.172911 -0.613821,-0.219174 -1.0625,-0.21875 z m 21.34375,0.375 a 0.0792743,0.0792743 0 0 0 0,0.03125 0.0792743,0.0792743 0 0 0 -0.03125,0 0.0792743,0.0792743 0 0 0 0,0.03125 0.0792743,0.0792743 0 0 0 0,0.03125 0.0792743,0.0792743 0 0 0 0.03125,0 0.0792743,0.0792743 0 0 0 0,0.03125 c 0,0 0.261234,0.195514 0.25,0.46875 -0.0056,0.136617 -0.06777,0.322891 -0.28125,0.5 -0.213479,0.177109 -0.573324,0.35442 -1.15625,0.53125 -2.220309,0.672614 -6.901258,1.105406 -11.5,1.15625 -2.299369,0.02541 -4.57993,-0.03515 -6.53125,-0.21875 -1.392295,-0.13104 -2.6173353,-0.342088 -3.5625,-0.59375 -0.1580601,0.111605 -0.2791504,0.226754 -0.3125,0.3125 -0.024769,0.0637 -0.0159,0.09193 0.03125,0.15625 0.047154,0.06432 0.1116229,0.14496 0.28125,0.21875 0.9671025,0.420945 2.611208,0.722599 4.5625,0.90625 1.95132,0.1836 4.231881,0.24416 6.53125,0.21875 1.65241,-0.01827 3.288078,-0.108448 4.84375,-0.21875 0.05223,-0.0037 0.104269,0.0038 0.15625,0 0.665798,-0.08588 1.283403,-0.176068 1.875,-0.28125 2.366388,-0.420729 4.089179,-0.981329 5,-1.5625 0.45541,-0.290587 0.72554,-0.554888 0.71875,-0.875 -0.0034,-0.160057 -0.08242,-0.330192 -0.21875,-0.46875 -0.13633,-0.138558 -0.331295,-0.256615 -0.59375,-0.375 a 0.0792743,0.0792743 0 0 0 -0.03125,0 0.0792743,0.0792743 0 0 0 -0.03125,0 0.0792743,0.0792743 0 0 0 -0.03125,0 z m 2.46875,2 a 0.0792743,0.0792743 0 0 0 0,0.03125 c 0,0 -0.01071,0.02978 -0.03125,0.0625 -0.02054,0.03271 -0.03275,0.06001 -0.09375,0.125 -0.122003,0.129987 -0.359139,0.309483 -0.75,0.53125 -0.78172,0.443531 -2.241537,1.02361 -4.9375,1.53125 -6.0828,1.144711 -13.584469,1.014403 -18.03125,0.28125 l -0.03125,0.0625 0.03125,0.0625 c -0.02019,0.0049 -0.04952,0.01942 -0.03125,0.03125 0.03654,0.02363 0.10623,0.08502 0.1875,0.125 0.162539,0.07996 0.434459,0.16433 0.84375,0.28125 0.818582,0.233839 2.211545,0.50549 4.5625,0.65625 3.57616,0.22892 8.107033,0.171484 11.78125,-0.375 1.83711,-0.273243 3.437516,-0.67788 4.625,-1.21875 1.187487,-0.540871 1.963066,-1.237903 2.03125,-2.125 a 0.0792743,0.0792743 0 0 0 0,-0.03125 0.0792743,0.0792743 0 0 0 0,-0.03125 0.0792743,0.0792743 0 0 0 -0.03125,0 0.0792743,0.0792743 0 0 0 -0.03125,0 0.0792743,0.0792743 0 0 0 -0.03125,0 0.0792743,0.0792743 0 0 0 -0.03125,0 0.0792743,0.0792743 0 0 0 -0.03125,0 z"
     id="path3082"
     inkscape:connector-curvature="0" />
</svg>
