<svg xmlns="http://www.w3.org/2000/svg" viewBox="0 0 64 64"><path d="m3 6v58h57l4-4v-59l-1-1h-26l-5 5h-28z" fill="#da8c1f" color="#000"/><path d="m58 13v51h2l4-4v-59l-1-1v18z" fill="#8c3d00" fill-opacity=".333"/><path d="m7 13h51v31h-51z" fill="#e2e2e2"/><g color="#000"><path d="m30 13l4 4h2l-4-4z" fill="#3e4959" fill-opacity=".23"/><path d="m0 13v50l1 1h59l1-1v-45l-1-1h-26l-5-5h-28z" fill="#f4ae3f"/><path d="m23.535 28.482c-2.035-1.469-6.129-2.438-9.535.031 3 0 6 1.5 6 3v3l-1.5 1.5h-3l-10.5 10.5v3l1.5 1.5h3l10.5-10.5v-3l1.5-1.5h4.5v3l1.5 1.5 4.5-4.5-1.5-1.5h-3l-.883-2.949z" fill="#b54f00" fill-opacity=".386"/></g></svg>