<svg xmlns="http://www.w3.org/2000/svg" viewBox="0 0 64 64"><path d="m3 6v58h57l4-4v-59l-1-1h-26l-5 5h-28z" fill="#da8c1f" color="#000"/><path d="m58 13v51h2l4-4v-59l-1-1v18z" fill="#8c3d00" fill-opacity=".333"/><path d="m7 13h51v31h-51z" fill="#e2e2e2"/><g color="#000"><path d="m30 13l4 4h2l-4-4z" fill="#3e4959" fill-opacity=".23"/><path d="m0 13v50l1 1h59l1-1v-45l-1-1h-26l-5-5h-28z" fill="#f4ae3f"/><path d="m16.638 24.13c-.632.095-1.273.321-1.785.709-.402.289-.695.706-.945 1.129-.292.492-.479 1.038-.577 1.601-.125.746-.087 1.506-.052 2.257.04.721.104 1.43.079 2.152-.035.556-.178 1.114-.394 1.627-.352.896-.843 1.735-1.312 2.572-.681 1.185-1.38 2.35-2.047 3.543-.287.513-.568 1.044-.761 1.601-.149.421-.238.843-.289 1.286-.039.39-.024.794.052 1.181-.054.051-.105.103-.157.157-.018.018-.034.031-.052.052-.018.021-.034.055-.052.079-.264.339-.587.918-1.024 1.234-.5.361-1.751.339-2.073.761-.317.422.006 1.045 0 2.178 0 .484-.076.834-.131 1.129-.004.018-.022.035-.026.052-.001.006.001.02 0 .026 0 .001 0 .025 0 .026-.001.003.001.023 0 .026-.001.003-.026-.003-.026 0 0 .001 0 .026 0 .026-.004.015.003.039 0 .052-.007.028-.021.053-.026.079-.032.146-.049.246-.026.341.003.014.021.039.026.052.002.006-.002.02 0 .026 0 .001 0 .025 0 .026 0 0 .026 0 .026 0 .001.002-.001.025 0 .026.001.002-.001.025 0 .026 0 .001.026-.001.026 0 0 .001 0 .026 0 .026.004.009.022.017.026.026.001.002-.001.024 0 .026.008.017.016.035.026.052.283.472.727.584 3.333 1.129 1.395.289 2.712 1.03 3.596 1.102.884.067 1.088-.231 1.627-.709.509-.456.682-.359.682-1.26.114.042.227.093.341.131.738.239 1.508.363 2.283.341.487-.017.964-.071 1.444-.157.711-.118 1.412-.304 2.1-.525-.013.132-.024.262-.026.394-.007.167-.014.335.026.499.035.172.081.341.157.499.139.239.319.474.551.63.134.095.287.17.446.21.185.053.387.079.577.105.297.026.601-.012.892-.079.339-.082.659-.237.919-.472.523-.43 1.036-.85 1.575-1.26.457-.347.941-.677 1.417-.997.425-.282.841-.548 1.26-.84.183-.134.38-.268.525-.446.115-.14.167-.351.105-.525-.045-.156-.143-.263-.262-.367-.294-.278-.607-.553-.892-.84-.239-.249-.477-.514-.604-.84-.102-.237-.131-.48-.157-.735-.022-.176-.068-.358-.131-.525-.052-.144-.178-.217-.315-.262-.129-.049-.284-.085-.42-.105.019-.076.033-.158.026-.236.003-.007-.003-.019 0-.026.122-.267.247-.534.341-.814.099-.308.174-.62.184-.945.019-.46-.049-.945-.157-1.391-.143-.564-.387-1.087-.656-1.601-.461-.867-.987-1.681-1.496-2.52-.387-.599-.781-1.213-1.207-1.785-.305-.422-.625-.839-.892-1.286-.194-.324-.376-.662-.551-.997-.186-.365-.321-.751-.394-1.155-.139-.763-.116-1.538-.105-2.31.008-.636.037-1.287-.079-1.916-.111-.637-.365-1.244-.761-1.759-.427-.565-1.022-.981-1.68-1.234-.68-.251-1.407-.302-2.126-.289m1.549 4.04c.081-.003.156-.01.236 0 .247.018.489.134.656.315.195.21.292.481.341.761.058.331.013.677-.079.997-.055.211-.164.4-.289.577-.086.118-.166.231-.262.341.174.075.356.132.499.262.121.114.161.288.157.446-.005.272-.08.553-.262.761.027.435.083.87.21 1.286.22.707.534 1.387.866 2.047.299.588.612 1.174.919 1.759.324.624.659 1.235.919 1.89.271.677.432 1.401.499 2.126.032.377.038.752 0 1.129-.031.384-.126.762-.236 1.129-.006.019-.021.034-.026.052.008.002.018-.001.026 0-.917-.096-1.137-.17-1.36.366.068-.384.049 1.493.067 1.104.01-.216.029.942-.045 1.234-.087.117-.167.235-.262.341-.498.56-1.075 1.04-1.706 1.444-.465.303-1 .506-1.549.604-.578.103-1.175.118-1.759.052-.678-.076-1.327-.284-1.916-.63-.252-.147-.49-.309-.709-.499.09-.058.176-.119.262-.184.181-.139.33-.323.472-.499.11-.147.198-.335.157-.525-.037-.149-.137-.281-.236-.394-.109-.111-.206-.23-.315-.341-.677-.663-1.373-1.302-2.047-1.968-.235-.235-.469-.485-.656-.761-.03-.047-.029-.107-.052-.157-.074-.373-.137-.747-.131-1.129.008-.847.219-1.677.577-2.441.308-.649.715-1.26 1.102-1.863.27-.411.532-.824.761-1.26.276-.511.519-1.052.709-1.601.164-.442.254-.898.315-1.365.2.198.949.901 1.759.919.906.019 1.98-.723 2.441-1.155-.358.215-.701.444-1.076.63-.225.122-.48.188-.735.21-.246.019-.493-.002-.735-.052-.239-.047-.431-.183-.63-.315-.27-.163-.52-.376-.761-.577-.174-.163-.338-.327-.472-.525-.186-.247-.275-.592-.184-.892.035-.131.113-.248.21-.341.15-.128.317-.228.472-.341-.153-.114-.254-.276-.341-.446-.173-.348-.296-.738-.315-1.129-.015-.21.023-.401.079-.604.073-.277.32-.514.604-.551.048-.004.11.018.157.026.233.029.429.166.577.341.12.134.182.303.236.472.076.205.112.414.131.63.023.205-.03.41-.105.604.18-.074.36-.129.551-.157.126-.013.243.01.367.026.186.029.372.077.551.131-.063-.371-.022-.736.052-1.102.043-.161.126-.329.21-.472.134-.22.297-.423.525-.551.178-.087.382-.146.577-.184m-.184.945c-.117.019-.241.069-.341.131-.096.07-.157.175-.236.262-.044.06-.1.116-.131.184-.085.188-.145.398-.157.604-.004.096.007.197.026.289.169.059.331.125.499.184.148.053.296.107.446.157.039-.023.081-.04.105-.079.077-.104.132-.221.184-.341.05-.105.114-.199.131-.315.039-.183.053-.391.026-.577-.019-.106-.036-.204-.105-.289-.079-.096-.194-.156-.315-.184-.042-.006-.088-.035-.131-.026m-3.517.079c-.081.015-.147.051-.21.105-.082.099-.165.213-.184.341-.028.15-.006.298.026.446.036.165.123.329.21.472.072.107.153.217.262.289.016.01.036.018.052.026.016-.011.036-.015.052-.026.127-.094.279-.162.42-.236.029-.073.016-.133.026-.21.01-.123.016-.271 0-.394-.01-.084-.018-.157-.052-.236-.021-.093-.062-.179-.105-.262-.056-.096-.11-.181-.21-.236-.082-.057-.189-.091-.289-.079m.394 1.024c.043 0 .079.057.079.105 0 .048-.036.079-.079.079-.043 0-.079-.03-.079-.079 0-.048.036-.105.079-.105m3.123.079c.043 0 .079.03.079.079 0 .048-.036.105-.079.105-.043 0-.079-.057-.079-.105 0-.048.036-.079.079-.079m-1.732.315c-.029.008-.034.034-.026.052.055.113.195.133.289.184.09.051.149.072.184.052.078-.043.025-.186-.052-.236-.037-.025-.167-.052-.262-.052-.048 0-.102-.008-.131 0m-.761.026c-.207.037-.218.138-.236.184-.018.046.12.112.184.052.069-.06.156-.113.184-.131.108-.072.093-.117-.052-.105-.021.002-.053-.005-.079 0m3.543 1.286c-1.822 1.247-3.575 1.558-5.197.525.757.731 2.657 1.663 5.197-.525m-4.829 17.848c.041.098.082.203.105.315.024.115.05.231.052.367-.002-.134-.027-.251-.052-.367-.024-.109-.065-.217-.105-.315" fill="#b54f00" fill-opacity=".386"/></g></svg>