<?xml version="1.0" encoding="UTF-8" standalone="no"?>
<!-- Created with Inkscape (http://www.inkscape.org/) -->

<svg
   xmlns:dc="http://purl.org/dc/elements/1.1/"
   xmlns:cc="http://creativecommons.org/ns#"
   xmlns:rdf="http://www.w3.org/1999/02/22-rdf-syntax-ns#"
   xmlns:svg="http://www.w3.org/2000/svg"
   xmlns="http://www.w3.org/2000/svg"
   xmlns:xlink="http://www.w3.org/1999/xlink"
   xmlns:sodipodi="http://sodipodi.sourceforge.net/DTD/sodipodi-0.dtd"
   xmlns:inkscape="http://www.inkscape.org/namespaces/inkscape"
   width="64"
   height="64"
   id="svg13094"
   version="1.1"
   inkscape:version="0.48.4 r9939"
   sodipodi:docname="kodi.svg">
  <sodipodi:namedview
     id="base"
     pagecolor="#cbcdd6"
     bordercolor="#666666"
     borderopacity="1.0"
     inkscape:pageopacity="1"
     inkscape:pageshadow="2"
     inkscape:zoom="11.313709"
     inkscape:cx="31.065721"
     inkscape:cy="32.067243"
     inkscape:document-units="px"
     inkscape:current-layer="svg13094"
     showgrid="true"
     inkscape:snap-bbox="true"
     inkscape:bbox-paths="true"
     inkscape:bbox-nodes="true"
     inkscape:snap-bbox-edge-midpoints="true"
     inkscape:snap-bbox-midpoints="true"
     inkscape:object-paths="true"
     inkscape:snap-intersection-paths="true"
     inkscape:object-nodes="true"
     inkscape:snap-smooth-nodes="true"
     inkscape:snap-midpoints="true"
     inkscape:snap-object-midpoints="true"
     inkscape:snap-center="true"
     showguides="true"
     inkscape:guide-bbox="true"
     inkscape:window-width="1920"
     inkscape:window-height="1022"
     inkscape:window-x="-5"
     inkscape:window-y="23"
     inkscape:window-maximized="1"
     inkscape:snap-global="true"
     fit-margin-top="0"
     fit-margin-left="0"
     fit-margin-right="0"
     fit-margin-bottom="0"
     showborder="true"
     inkscape:showpageshadow="false"
     inkscape:snap-page="true">
    <inkscape:grid
       type="xygrid"
       id="grid3075"
       empspacing="5"
       visible="true"
       enabled="true"
       snapvisiblegridlinesonly="true"
       originx="1.6362304e-08px"
       originy="18px" />
  </sodipodi:namedview>
  <defs
     id="defs13096">
    <linearGradient
       id="linearGradient5602-2">
      <stop
         id="stop5604-6"
         style="stop-color:#3c627c;stop-opacity:1"
         offset="0" />
      <stop
         id="stop5606-6"
         style="stop-color:#2c4457;stop-opacity:1"
         offset="1" />
    </linearGradient>
    <radialGradient
       r="32"
       fy="18.000002"
       fx="29.333336"
       cy="18.000002"
       cx="29.333336"
       gradientTransform="matrix(0,2.1333329,-1.9999999,0,68.000006,-47.577771)"
       gradientUnits="userSpaceOnUse"
       id="radialGradient3023"
       xlink:href="#linearGradient5602-2"
       inkscape:collect="always" />
    <radialGradient
       inkscape:collect="always"
       xlink:href="#linearGradient3955-3"
       id="radialGradient3031-6"
       gradientUnits="userSpaceOnUse"
       gradientTransform="matrix(0,1.6151028,-1.7330518,0,63.194933,-32.683288)"
       cx="32"
       cy="18"
       fx="32"
       fy="18"
       r="32" />
    <linearGradient
       id="linearGradient3955-3">
      <stop
         id="stop3957-3"
         style="stop-color:#2e6789;stop-opacity:1"
         offset="0" />
      <stop
         id="stop3959-5"
         style="stop-color:#263e52;stop-opacity:1"
         offset="1" />
    </linearGradient>
    <radialGradient
       inkscape:collect="always"
       xlink:href="#linearGradient3955-3"
       id="radialGradient3891"
       gradientUnits="userSpaceOnUse"
       gradientTransform="matrix(0,1.6151028,-1.7330518,0,63.194933,-32.683288)"
       cx="32"
       cy="18"
       fx="32"
       fy="18"
       r="32" />
  </defs>
  <metadata
     id="metadata13099">
    <rdf:RDF>
      <cc:Work
         rdf:about="">
        <dc:format>image/svg+xml</dc:format>
        <dc:type
           rdf:resource="http://purl.org/dc/dcmitype/StillImage" />
        <dc:title />
      </cc:Work>
    </rdf:RDF>
  </metadata>
  <path
     inkscape:connector-curvature="0"
     style="color:#000000;fill:url(#radialGradient3891);fill-opacity:1;fill-rule:nonzero;stroke:none;stroke-width:2.28571415;marker:none;visibility:visible;display:inline;overflow:visible;enable-background:accumulate"
     d="m 0,4 0,30 0,28 2,2 30,0 30,0 2,-2 L 64,34 64,4 32,4 0,4 z"
     id="path6383" />
  <path
     inkscape:connector-curvature="0"
     style="color:#000000;fill:#5e98b8;fill-opacity:1;fill-rule:nonzero;stroke:none;stroke-width:2.28571415;marker:none;visibility:visible;display:inline;overflow:visible;enable-background:accumulate"
     d="M 2,0 0,1 0,4 32,4 64,4 64,1 62,0 32,0 2,0 z"
     id="path6502" />
  <path
     inkscape:connector-curvature="0"
     style="fill:#5ec0e7;fill-opacity:0.4061372;fill-rule:nonzero"
     d="M 0,3 0,6 2,4 32,4 62,4 64,3 32,3 0,3 z"
     id="path4298-8" />
  <path
     inkscape:connector-curvature="0"
     style="fill:#1f0700;fill-opacity:0.06978802;fill-rule:nonzero"
     d="M 2,0 0,1 32,1 64,1 62,0 32,0 2,0 z"
     id="path4444-9" />
  <path
     d="M 64,6 62,4 64,3 z"
     id="path3028-4"
     style="fill:#1f0700;fill-opacity:0.13759861"
     inkscape:connector-curvature="0" />
  <path
     inkscape:connector-curvature="0"
     style="fill:#000000;fill-opacity:0.11130587;fill-rule:nonzero"
     d="M 63,0.5 63,34 63,63 64,62 64,34 64,1 63,0.5 z m 0,62.5 -31,0 -31,0 1,1 30,0 30,0 1,-1 z"
     id="path4366-0" />
  <path
     style="color:#000000;fill:#5ec0e7;fill-opacity:0.40613719999999998;fill-rule:nonzero;stroke-width:1;stroke-linecap:butt;stroke-linejoin:miter;stroke-miterlimit:4;stroke-opacity:1;stroke-dasharray:none;stroke-dashoffset:0;marker:none;visibility:visible;display:inline;overflow:visible;enable-background:accumulate"
     d="M 0,1 0,34 0,62 1,63 1,34 1,5 2,4 1,3.46875 1,1 0,1 z"
     id="path3864-4"
     inkscape:connector-curvature="0" />
  <g
     transform="matrix(0.24652204,0,0,0.24747531,-22.175698,-37.678114)"
     id="g15"
     style="fill:#42a7d0;fill-opacity:1;color:#000000;fill-rule:evenodd;stroke-width:4.04861224999999969;stroke-linecap:butt;stroke-linejoin:miter;stroke-miterlimit:4;stroke-opacity:1;stroke-dasharray:none;stroke-dashoffset:0;marker:none;visibility:visible;display:inline;overflow:visible;enable-background:accumulate">
    <path
       style="fill:#42a7d0;fill-opacity:1;fill-rule:evenodd;color:#000000;stroke-width:4.04861224999999969;stroke-linecap:butt;stroke-linejoin:miter;stroke-miterlimit:4;stroke-opacity:1;stroke-dasharray:none;stroke-dashoffset:0;marker:none;visibility:visible;display:inline;overflow:visible;enable-background:accumulate"
       inkscape:connector-curvature="0"
       clip-rule="evenodd"
       d="m 313.057,291.184 c -0.602,1.953 -1.921,3.383 -3.333,4.79 -9.465,9.433 -18.9,18.897 -28.345,28.349 -3.403,3.405 -7.04,3.396 -10.457,-0.024 -9.748,-9.755 -19.497,-19.51 -29.24,-29.267 -3.32,-3.323 -3.318,-6.953 0.01,-10.283 9.799,-9.815 19.601,-19.625 29.404,-29.433 3.189,-3.192 6.937,-3.194 10.126,-0.004 9.503,9.505 18.992,19.023 28.513,28.512 1.413,1.407 2.728,2.842 3.323,4.797 v 2.563 z"
       id="path17" />
    <path
       style="fill:#42a7d0;fill-opacity:1;fill-rule:evenodd;color:#000000;stroke-width:4.04861224999999969;stroke-linecap:butt;stroke-linejoin:miter;stroke-miterlimit:4;stroke-opacity:1;stroke-dasharray:none;stroke-dashoffset:0;marker:none;visibility:visible;display:inline;overflow:visible;enable-background:accumulate"
       inkscape:connector-curvature="0"
       clip-rule="evenodd"
       d="m 219.101,382.575 c -1.944,-0.617 -3.352,-1.962 -4.753,-3.372 -9.425,-9.474 -18.878,-18.916 -28.322,-28.371 -3.379,-3.384 -3.382,-6.993 -0.011,-10.369 9.773,-9.781 19.547,-19.563 29.324,-29.343 3.25,-3.251 6.974,-3.264 10.206,-0.029 9.775,9.779 19.549,19.563 29.321,29.347 3.357,3.362 3.366,7.045 0.024,10.389 -9.526,9.538 -19.066,19.062 -28.57,28.617 -1.36,1.366 -2.759,2.596 -4.655,3.132 h -2.564 z"
       id="path19" />
    <path
       style="fill:#42a7d0;fill-opacity:1;fill-rule:evenodd;color:#000000;stroke-width:4.04861224999999969;stroke-linecap:butt;stroke-linejoin:miter;stroke-miterlimit:4;stroke-opacity:1;stroke-dasharray:none;stroke-dashoffset:0;marker:none;visibility:visible;display:inline;overflow:visible;enable-background:accumulate"
       inkscape:connector-curvature="0"
       clip-rule="evenodd"
       d="m 184.799,266.464 c 0,-10.877 0.098,-21.754 -0.063,-32.628 -0.045,-3.147 0.706,-5.605 3.11,-7.682 1.932,-1.671 3.647,-3.599 5.458,-5.414 7.166,-7.173 14.329,-14.344 21.497,-21.515 3.37,-3.37 7.006,-3.367 10.374,0.002 9.749,9.751 19.495,19.505 29.243,29.259 3.349,3.353 3.346,7.037 -0.002,10.389 -11.527,11.543 -23.059,23.082 -34.589,34.621 -10.182,10.194 -20.362,20.386 -30.545,30.576 -1.887,1.889 -3.559,1.448 -4.244,-1.169 -0.211,-0.81 -0.229,-1.685 -0.229,-2.532 -0.014,-11.301 -0.01,-22.605 -0.01,-33.907"
       id="path21" />
    <path
       style="fill:#42a7d0;fill-opacity:1;fill-rule:evenodd;color:#000000;stroke-width:4.04861224999999969;stroke-linecap:butt;stroke-linejoin:miter;stroke-miterlimit:4;stroke-opacity:1;stroke-dasharray:none;stroke-dashoffset:0;marker:none;visibility:visible;display:inline;overflow:visible;enable-background:accumulate"
       inkscape:connector-curvature="0"
       clip-rule="evenodd"
       d="m 161.487,290.03 c 0,9.98 0.014,19.964 -0.021,29.944 -0.004,0.947 -0.154,1.951 -0.494,2.832 -0.666,1.732 -1.916,1.947 -3.224,0.641 -4.591,-4.582 -9.169,-9.179 -13.75,-13.768 -5.296,-5.304 -10.594,-10.609 -15.887,-15.917 -2.191,-2.197 -2.2,-5.245 -0.018,-7.453 9.748,-9.859 19.498,-19.717 29.252,-29.574 0.645,-0.651 1.252,-1.535 2.349,-1.121 1.047,0.396 1.461,1.341 1.609,2.388 0.094,0.649 0.167,1.31 0.168,1.965 0.01,10.021 0.006,20.041 0.006,30.063 h 0.01 z"
       id="path23" />
  </g>
</svg>
