<?xml version="1.0" encoding="UTF-8" standalone="no"?>
<!-- Created with Inkscape (http://www.inkscape.org/) -->

<svg
   xmlns:dc="http://purl.org/dc/elements/1.1/"
   xmlns:cc="http://creativecommons.org/ns#"
   xmlns:rdf="http://www.w3.org/1999/02/22-rdf-syntax-ns#"
   xmlns:svg="http://www.w3.org/2000/svg"
   xmlns="http://www.w3.org/2000/svg"
   xmlns:sodipodi="http://sodipodi.sourceforge.net/DTD/sodipodi-0.dtd"
   xmlns:inkscape="http://www.inkscape.org/namespaces/inkscape"
   id="svg13094"
   height="24"
   width="24"
   version="1.1"
   inkscape:version="0.48.3.1 r9886"
   sodipodi:docname="copy-sync5.svg">
  <defs
     id="defs9" />
  <sodipodi:namedview
     pagecolor="#ffffff"
     bordercolor="#666666"
     borderopacity="1"
     objecttolerance="10"
     gridtolerance="10"
     guidetolerance="10"
     inkscape:pageopacity="0"
     inkscape:pageshadow="2"
     inkscape:window-width="640"
     inkscape:window-height="480"
     id="namedview7"
     showgrid="false"
     inkscape:zoom="9.8333333"
     inkscape:cx="12"
     inkscape:cy="12"
     inkscape:window-x="0"
     inkscape:window-y="36"
     inkscape:window-maximized="0"
     inkscape:current-layer="svg13094" />
  <metadata
     id="metadata13099">
    <rdf:RDF>
      <cc:Work
         rdf:about="">
        <dc:format>image/svg+xml</dc:format>
        <dc:type
           rdf:resource="http://purl.org/dc/dcmitype/StillImage" />
        <dc:title />
      </cc:Work>
    </rdf:RDF>
  </metadata>
  <path
     d="M 5.84375,7.96875 2.5,11.34375 2.6875,11.6875 6.125,10.65625 7,14.46875 8.25,20 H 8.84375 L 11.40625,18.25 12,18.375 V 15.09375 L 10.1875,16.375 10.15625,16.3125 7,8.09375 6.96875,8 5.84375,7.96875 z M 12,11.28125 9.59375,12.09375 10.8125,14.53125 12,13.71875 v -2.4375 z"
     style="color:#000000;fill:#4a97e5;enable-background:accumulate"
     id="path2986"
     inkscape:connector-curvature="0" />
  <path
     style="color:#000000;fill:#404957;enable-background:accumulate;fill-opacity:0.23083699999999999;fill-rule:nonzero;stroke:none;stroke-width:1;marker:none;visibility:visible;display:inline;overflow:visible"
     d="m 5.84375,7.96875 -3.34375,3.375 0.1875,0.34375 2.09375,-0.625 2.0625,-2.09375 0.5,0 L 7,8.09375 6.96875,8 5.84375,7.96875 z M 12,11.28125 l -2.40625,0.8125 1.21875,2.4375 0.375,-0.25 -0.59375,-1.1875 L 12,12.625 12,11.28125 z M 7.125,11.65625 6.40625,11.875 7,14.46875 8.25,20 8.84375,20 9,19.90625 8,15.46875 7.125,11.65625 z m 4.5625,3.65625 -1.03125,0.71875 0.5,1.28125 0.03125,0.0625 0.8125,-0.5625 0,-1.40625 -0.1875,0.125 -0.125,-0.21875 z"
     id="path2995"
     inkscape:connector-curvature="0" />
  <path
     style="color:#000000;enable-background:accumulate;fill:#404957;fill-opacity:0.23083699999999999;fill-rule:nonzero;stroke:none;stroke-width:1;marker:none;visibility:visible;display:inline;overflow:visible"
     d="M 19.75 3.0625 L 16 8.65625 L 14.78125 10.46875 L 16 11 L 17.21875 11.53125 L 19.75 3.0625 z M 13.0625 10.90625 L 12 11.28125 L 12 13.71875 L 14.875 11.75 L 13.0625 10.90625 z M 16 12.21875 L 12 15.09375 L 12 18.375 L 16 19.09375 L 20.875 20 L 21.03125 20 L 21.03125 19.5 L 18 13 L 16 12.21875 z "
     id="path3004" />
</svg>
