<?xml version="1.0" encoding="UTF-8" standalone="no"?>
<!-- Created with Inkscape (http://www.inkscape.org/) -->

<svg
   xmlns:dc="http://purl.org/dc/elements/1.1/"
   xmlns:cc="http://creativecommons.org/ns#"
   xmlns:rdf="http://www.w3.org/1999/02/22-rdf-syntax-ns#"
   xmlns:svg="http://www.w3.org/2000/svg"
   xmlns="http://www.w3.org/2000/svg"
   xmlns:sodipodi="http://sodipodi.sourceforge.net/DTD/sodipodi-0.dtd"
   xmlns:inkscape="http://www.inkscape.org/namespaces/inkscape"
   width="24"
   height="24"
   id="svg2"
   version="1.1"
   inkscape:version="0.48.3.1 r9886"
   sodipodi:docname="folder-html.svg">
  <defs
     id="defs4">
    <inkscape:path-effect
       is_visible="true"
       id="path-effect2994"
       effect="spiro" />
    <inkscape:path-effect
       effect="spiro"
       id="path-effect2990"
       is_visible="true" />
    <inkscape:path-effect
       is_visible="true"
       id="path-effect3777"
       effect="spiro" />
    <inkscape:path-effect
       effect="spiro"
       id="path-effect3005"
       is_visible="true" />
  </defs>
  <sodipodi:namedview
     id="base"
     pagecolor="#ffffff"
     bordercolor="#c9c9c9"
     borderopacity="1"
     inkscape:pageopacity="0"
     inkscape:pageshadow="2"
     inkscape:zoom="31.678384"
     inkscape:cx="12.269956"
     inkscape:cy="11.209988"
     inkscape:document-units="px"
     inkscape:current-layer="layer1"
     showgrid="true"
     inkscape:window-width="1920"
     inkscape:window-height="1033"
     inkscape:window-x="-10"
     inkscape:window-y="25"
     inkscape:window-maximized="1"
     inkscape:snap-bbox="true"
     inkscape:bbox-paths="true"
     inkscape:bbox-nodes="true"
     inkscape:snap-bbox-edge-midpoints="true"
     inkscape:snap-bbox-midpoints="true"
     inkscape:object-paths="true"
     inkscape:snap-intersection-paths="true"
     inkscape:object-nodes="true"
     inkscape:snap-smooth-nodes="true"
     inkscape:snap-midpoints="true"
     inkscape:snap-object-midpoints="true"
     inkscape:snap-center="true"
     inkscape:snap-page="true"
     borderlayer="true"
     inkscape:showpageshadow="false"
     fit-margin-top="0"
     fit-margin-left="0"
     fit-margin-right="0"
     fit-margin-bottom="0"
     inkscape:snap-global="true">
    <inkscape:grid
       type="xygrid"
       id="grid2989"
       empspacing="5"
       visible="true"
       enabled="true"
       snapvisiblegridlinesonly="true"
       originx="-375px"
       originy="-524px" />
  </sodipodi:namedview>
  <metadata
     id="metadata7">
    <rdf:RDF>
      <cc:Work
         rdf:about="">
        <dc:format>image/svg+xml</dc:format>
        <dc:type
           rdf:resource="http://purl.org/dc/dcmitype/StillImage" />
        <dc:title />
      </cc:Work>
    </rdf:RDF>
  </metadata>
  <g
     inkscape:label="Camada 1"
     inkscape:groupmode="layer"
     id="layer1"
     transform="translate(-375,-504.36218)">
    <path
       sodipodi:nodetypes="ccc"
       inkscape:connector-curvature="0"
       id="path3763"
       d="m 382,508.36218 -5.25,8 5.25,8"
       style="color:#000000;fill:none;stroke:#d1d4d5;stroke-width:1.5;stroke-miterlimit:4;stroke-opacity:0.74509804;stroke-dasharray:none;marker:none;visibility:visible;display:inline;overflow:visible;enable-background:accumulate" />
    <path
       style="color:#000000;fill:none;stroke:#d1d4d5;stroke-width:1.5;stroke-miterlimit:4;stroke-opacity:0.74509804;stroke-dasharray:none;marker:none;visibility:visible;display:inline;overflow:visible;enable-background:accumulate"
       d="m 392,508.36218 5.25,8 -5.25,8"
       id="path3761"
       inkscape:connector-curvature="0"
       sodipodi:nodetypes="ccc" />
    <path
       style="color:#000000;fill:#434a54;fill-opacity:0.6745098;fill-rule:nonzero;stroke:none;stroke-width:1;marker:none;visibility:visible;display:inline;overflow:visible;enable-background:accumulate"
       d="M 7.15625 5.4375 L 3.15625 11.4375 L 2.8125 12 L 3.15625 12.53125 L 7.15625 18.53125 L 8.84375 17.4375 L 5.21875 12 L 8.84375 6.53125 L 7.15625 5.4375 z M 16.84375 5.4375 L 15.15625 6.53125 L 18.78125 12 L 15.15625 17.4375 L 16.84375 18.53125 L 20.84375 12.53125 L 21.1875 12 L 20.84375 11.4375 L 16.84375 5.4375 z M 12 8 C 9.790861 8 8 9.790861 8 12 C 8 14.209139 9.790861 16 12 16 C 14.209139 16 16 14.209139 16 12 C 16 9.790861 14.209139 8 12 8 z "
       transform="translate(375,504.36218)"
       id="path3789" />
    <path
       style="color:#000000;fill:#d1d4d6;fill-opacity:0.74329164;fill-rule:nonzero;stroke:none;stroke-width:2;marker:none;visibility:visible;display:inline;overflow:visible;enable-background:accumulate"
       d="M 12 6.65625 C 9.0468012 6.65625 6.65625 9.0468012 6.65625 12 C 6.65625 14.953199 9.0468012 17.34375 12 17.34375 C 14.953199 17.34375 17.34375 14.953199 17.34375 12 C 17.34375 9.0468012 14.953199 6.65625 12 6.65625 z M 12 8 C 14.209139 8 16 9.790861 16 12 C 16 14.209139 14.209139 16 12 16 C 9.790861 16 8 14.209139 8 12 C 8 9.790861 9.790861 8 12 8 z "
       transform="translate(375,504.36218)"
       id="path3756" />
  </g>
</svg>
