<?xml version="1.0" encoding="UTF-8" standalone="no"?>
<!-- Created with Inkscape (http://www.inkscape.org/) -->

<svg
   xmlns:dc="http://purl.org/dc/elements/1.1/"
   xmlns:cc="http://creativecommons.org/ns#"
   xmlns:rdf="http://www.w3.org/1999/02/22-rdf-syntax-ns#"
   xmlns:svg="http://www.w3.org/2000/svg"
   xmlns="http://www.w3.org/2000/svg"
   xmlns:sodipodi="http://sodipodi.sourceforge.net/DTD/sodipodi-0.dtd"
   xmlns:inkscape="http://www.inkscape.org/namespaces/inkscape"
   id="svg13094"
   height="24"
   width="24"
   version="1.1"
   inkscape:version="0.48.3.1 r9886"
   sodipodi:docname="folder-apple.svg">
  <sodipodi:namedview
     pagecolor="#ffffff"
     bordercolor="#666666"
     borderopacity="1"
     objecttolerance="10"
     gridtolerance="10"
     guidetolerance="10"
     inkscape:pageopacity="0"
     inkscape:pageshadow="2"
     inkscape:window-width="1920"
     inkscape:window-height="1023"
     id="namedview2995"
     showgrid="true"
     inkscape:zoom="29.5"
     inkscape:cx="8.5829649"
     inkscape:cy="12.280576"
     inkscape:window-x="-10"
     inkscape:window-y="35"
     inkscape:window-maximized="1"
     inkscape:current-layer="svg13094"
     inkscape:snap-bbox="true"
     inkscape:bbox-paths="true"
     inkscape:bbox-nodes="true"
     inkscape:snap-bbox-edge-midpoints="true"
     inkscape:snap-bbox-midpoints="true"
     inkscape:object-paths="true"
     inkscape:snap-intersection-paths="true"
     inkscape:object-nodes="true"
     inkscape:snap-smooth-nodes="true"
     inkscape:snap-midpoints="true"
     inkscape:snap-object-midpoints="true"
     inkscape:snap-center="true">
    <inkscape:grid
       type="xygrid"
       id="grid2982"
       empspacing="5"
       visible="true"
       enabled="true"
       snapvisiblegridlinesonly="true" />
  </sodipodi:namedview>
  <defs
     id="defs13" />
  <metadata
     id="metadata13099">
    <rdf:RDF>
      <cc:Work
         rdf:about="">
        <dc:format>image/svg+xml</dc:format>
        <dc:type
           rdf:resource="http://purl.org/dc/dcmitype/StillImage" />
        <dc:title />
      </cc:Work>
    </rdf:RDF>
  </metadata>
  <path
     sodipodi:nodetypes="ccssssssssccssc"
     id="path2996"
     d="M 9.1133867,19.862361 C 7.8516065,19.475327 6.0886448,16.849968 5.4471206,14.40264 4.2044546,9.6620446 7.3491192,5.6654285 11.106323,7.2102534 c 1.029056,0.4231103 1.110436,0.4241433 2.326361,0.029536 2.180489,-0.7076421 4.188948,-0.2540728 4.89158,1.1046615 0.21392,0.4136781 0.184531,0.4924932 -0.411441,1.1034497 -1.542209,1.5809814 -1.386609,4.0347144 0.333193,5.2543484 0.730419,0.517991 0.75524,0.799397 0.180274,2.043836 -1.279665,2.769671 -2.579629,3.56823 -4.698924,2.886527 -1.082454,-0.348189 -1.510897,-0.331988 -2.763473,0.104489 -0.906187,0.315772 -1.1709866,0.333697 -1.8505063,0.125265 z M 11.950499,6.9622198 c -0.526624,-0.803728 0.763545,-2.9687147 2.167784,-3.637682 1.387975,-0.66122 1.764946,-0.3289502 1.307409,1.1523774 -0.524699,1.6987799 -2.884684,3.3865368 -3.475193,2.4853046 z"
     style="color:#000000;fill:#27303a;fill-opacity:0.753280819999999968;fill-rule:nonzero;stroke:none;stroke-width:1;marker:none;visibility:visible;display:inline;overflow:visible;enable-background:accumulate"
     inkscape:connector-curvature="0" />
  <path
     style="font-size:medium;font-style:normal;font-variant:normal;font-weight:normal;font-stretch:normal;text-indent:0;text-align:start;text-decoration:none;line-height:normal;letter-spacing:normal;word-spacing:normal;text-transform:none;direction:ltr;block-progression:tb;writing-mode:lr-tb;text-anchor:start;baseline-shift:baseline;color:#000000;fill:#cccccc;fill-opacity:1;fill-rule:nonzero;stroke:none;stroke-width:2.40000010000000019;marker:none;visibility:visible;display:inline;overflow:visible;enable-background:accumulate;font-family:Sans;-inkscape-font-specification:Sans"
     d="M 15.125 1.8125 C 15.0059 1.8168623 14.883395 1.8260587 14.78125 1.84375 C 14.372668 1.9145152 13.995013 2.0588414 13.59375 2.25 C 12.566684 2.7392855 11.818239 3.5676477 11.28125 4.46875 C 11.012755 4.9193011 10.794302 5.3997713 10.6875 5.90625 C 8.6509005 5.4466392 6.6693024 6.192945 5.46875 7.71875 C 4.0966901 9.4625272 3.5759884 12.028277 4.28125 14.71875 C 4.6436906 16.101412 5.3076671 17.43842 6.0625 18.5625 C 6.8173329 19.68658 7.5416525 20.629356 8.75 21 C 9.531513 21.239717 10.38229 21.210033 11.34375 20.875 C 12.524746 20.463466 12.390745 20.464648 13.375 20.78125 C 14.632762 21.185828 15.954103 21.161686 17.03125 20.5 C 18.108397 19.838314 18.844944 18.735422 19.53125 17.25 C 19.835935 16.590548 20.097965 16.100123 20.03125 15.34375 C 19.99789 14.965563 19.806786 14.575681 19.59375 14.3125 C 19.380714 14.049319 19.159309 13.87605 18.9375 13.71875 C 17.809328 12.918683 17.700577 11.389092 18.78125 10.28125 C 19.090362 9.9643663 19.323318 9.807653 19.53125 9.25 C 19.635216 8.9711735 19.655195 8.5686741 19.59375 8.3125 C 19.532305 8.0563259 19.440771 7.9084375 19.375 7.78125 C 18.834419 6.7358854 17.808271 6.096853 16.6875 5.84375 C 16.47462 5.7956754 16.221375 5.9294696 16 5.90625 C 16.21077 5.5656137 16.439068 5.2433775 16.5625 4.84375 C 16.694329 4.4169377 16.799323 4.0378496 16.8125 3.625 C 16.825677 3.2121504 16.733173 2.6133787 16.25 2.1875 C 15.88762 1.868091 15.482299 1.799413 15.125 1.8125 z M 15.25 3 C 15.659089 3.0661088 15.723461 3.5429203 15.4375 4.46875 C 14.912801 6.1675299 12.528009 7.8699822 11.9375 6.96875 C 11.410876 6.165022 12.720761 3.9814673 14.125 3.3125 C 14.645491 3.0645425 15.004547 2.9603347 15.25 3 z M 9.71875 6.875 C 10.161886 6.9043031 10.6241 7.0256469 11.09375 7.21875 C 12.122806 7.6418603 12.221575 7.6446073 13.4375 7.25 C 15.617989 6.5423579 17.609868 6.9850157 18.3125 8.34375 C 18.52642 8.7574281 18.502222 8.8265435 17.90625 9.4375 C 16.364041 11.018481 16.530198 13.467866 18.25 14.6875 C 18.980419 15.205491 19.012466 15.505561 18.4375 16.75 C 17.157835 19.519671 15.838045 20.306703 13.71875 19.625 C 12.636296 19.276811 12.221326 19.313523 10.96875 19.75 C 10.062563 20.065772 9.8045197 20.083432 9.125 19.875 C 7.8632198 19.487966 6.0790242 16.853578 5.4375 14.40625 C 4.3501673 10.258229 6.6167981 6.6698781 9.71875 6.875 z "
     id="path2995" />
</svg>
