<?xml version="1.0" encoding="UTF-8" standalone="no"?>
<!-- Created with Inkscape (http://www.inkscape.org/) -->

<svg
   xmlns:dc="http://purl.org/dc/elements/1.1/"
   xmlns:cc="http://creativecommons.org/ns#"
   xmlns:rdf="http://www.w3.org/1999/02/22-rdf-syntax-ns#"
   xmlns:svg="http://www.w3.org/2000/svg"
   xmlns="http://www.w3.org/2000/svg"
   xmlns:sodipodi="http://sodipodi.sourceforge.net/DTD/sodipodi-0.dtd"
   xmlns:inkscape="http://www.inkscape.org/namespaces/inkscape"
   width="22"
   height="22"
   id="svg13094"
   version="1.1"
   inkscape:version="0.48.3.1 r9886"
   sodipodi:docname="applications-education.svg">
  <sodipodi:namedview
     id="base"
     pagecolor="#ffffff"
     bordercolor="#666666"
     borderopacity="1.0"
     inkscape:pageopacity="0.0"
     inkscape:pageshadow="2"
     inkscape:zoom="32.000001"
     inkscape:cx="12.907332"
     inkscape:cy="10.417389"
     inkscape:document-units="px"
     inkscape:current-layer="layer1"
     showgrid="true"
     inkscape:snap-bbox="true"
     inkscape:bbox-paths="true"
     inkscape:bbox-nodes="true"
     inkscape:snap-bbox-edge-midpoints="true"
     inkscape:snap-bbox-midpoints="true"
     inkscape:object-paths="true"
     inkscape:snap-intersection-paths="true"
     inkscape:object-nodes="true"
     inkscape:snap-smooth-nodes="true"
     inkscape:snap-midpoints="true"
     inkscape:snap-object-midpoints="true"
     inkscape:snap-center="true"
     showguides="false"
     inkscape:guide-bbox="true"
     inkscape:window-width="1920"
     inkscape:window-height="1027"
     inkscape:window-x="-10"
     inkscape:window-y="31"
     inkscape:window-maximized="1"
     inkscape:snap-global="true"
     fit-margin-top="0"
     fit-margin-left="0"
     fit-margin-right="0"
     fit-margin-bottom="0"
     showborder="true"
     inkscape:showpageshadow="false">
    <sodipodi:guide
       id="guide16149"
       position="6601.5878,647.00745"
       orientation="0,1" />
    <sodipodi:guide
       id="guide16151"
       position="6374.4449,597.99875"
       orientation="0,1" />
    <sodipodi:guide
       id="guide16153"
       position="6440.1591,622.50305"
       orientation="0,1" />
    <sodipodi:guide
       id="guide17725"
       position="6433.7306,542.35585"
       orientation="0,1" />
    <sodipodi:guide
       id="guide9456"
       position="6931.2289,150.48606"
       orientation="1,0" />
    <sodipodi:guide
       id="guide9458"
       position="6755.4789,515.53501"
       orientation="0,1" />
    <sodipodi:guide
       id="guide9468"
       position="6526.7092,460.6296"
       orientation="0,1" />
    <sodipodi:guide
       id="guide9470"
       position="6551.2289,481.99958"
       orientation="0,1" />
    <sodipodi:guide
       id="guide11159"
       position="6419.2289,196.00006"
       orientation="1,0" />
    <sodipodi:guide
       id="guide13980"
       position="6732.2601,460.03461"
       orientation="1,0" />
    <sodipodi:guide
       orientation="0,1"
       position="4878.229,-914.9999"
       id="guide3972" />
    <sodipodi:guide
       orientation="1,0"
       position="5058.229,-1042.9999"
       id="guide3974" />
    <sodipodi:guide
       orientation="0,1"
       position="4752.229,-1277.9998"
       id="guide3976" />
    <sodipodi:guide
       orientation="1,0"
       position="4725.229,-1136.9999"
       id="guide3978" />
    <sodipodi:guide
       orientation="1,0"
       position="74.999929,328.00006"
       id="guide4287" />
    <sodipodi:guide
       orientation="0,1"
       position="74.999929,328.00006"
       id="guide4289" />
    <inkscape:grid
       type="xygrid"
       id="grid3248"
       empspacing="5"
       visible="true"
       enabled="true"
       snapvisiblegridlinesonly="true"
       originx="9.7771128e-05px"
       originy="11.000061px" />
  </sodipodi:namedview>
  <defs
     id="defs13096" />
  <metadata
     id="metadata13099">
    <rdf:RDF>
      <cc:Work
         rdf:about="">
        <dc:format>image/svg+xml</dc:format>
        <dc:type
           rdf:resource="http://purl.org/dc/dcmitype/StillImage" />
        <dc:title />
      </cc:Work>
    </rdf:RDF>
  </metadata>
  <g
     transform="translate(8065.8735,-496.93235)"
     id="layer1"
     inkscape:groupmode="layer"
     inkscape:label="Camada 1">
    <path
       id="path3000"
       d="m -8062.8735,499.93235 0,12 16,0 0,-12 -16,0 z m 12.0313,4.1875 0.2812,0.0937 c 0,3e-5 0.125,0.12494 0.125,0.125 0,1.3e-4 0.062,0.156 0.062,0.15625 1e-4,2e-4 0,0.0481 0,0.0625 0.014,0.1152 0,0.0735 0,0.0937 l 0,0.0937 c 0,0.006 -0.031,0.0439 -0.031,0.0625 -0.01,0.0429 -0.02,0.083 -0.031,0.15625 -0.016,0.10486 -0.016,0.2138 -0.031,0.3125 l 0,0.0625 c 8e-4,-5e-4 0.25,-0.0625 0.25,-0.0625 0.044,0 0.094,0.0108 0.1562,0.0312 0.031,0.0102 0.093,0.031 0.094,0.0312 0,3e-4 0.093,0.062 0.094,0.0625 0,4e-4 0.062,0.0933 0.062,0.0937 0,5e-4 0.05,0.0665 0.062,0.0937 0.021,0.0546 0.021,0.0868 0.031,0.125 l 0,0.0312 c 0.022,0.0865 0,0.0297 0,0.0625 0.039,0.16546 0.072,0.34393 0.094,0.5 0.018,0.12681 2e-4,0.17935 0,0.28125 -2e-4,0.1019 5e-4,0.19962 0,0.3125 -5e-4,0.10159 0,0.20925 0,0.28125 3e-4,0.008 -3e-4,0.0242 0,0.0312 0.042,0.0534 0.1013,0.0852 0.1563,0.15625 l -0.8125,0.625 c -0.063,-0.0805 -0.1318,-0.18774 -0.2188,-0.3125 -0.093,-0.1337 -0.062,-0.1485 -0.062,-0.1875 -0.013,0.008 -0.017,0.0233 -0.031,0.0312 -0.062,0.0343 -0.1288,0.0465 -0.25,0.0625 -0.1213,0.016 -0.3293,-0.0168 -0.4688,-0.15625 -0.1735,-0.17313 -0.1775,-0.2828 -0.1875,-0.375 -0.01,-0.0922 0,-0.1849 0,-0.25 0.01,-0.13015 -0.028,-0.29617 0,-0.15625 -0.043,-0.21725 -0.031,-0.3995 -0.031,-0.5625 0,-0.21251 -0.03,-0.47525 0.031,-0.78125 -0.01,0.0341 0.016,-0.0897 0.031,-0.1875 0.014,-0.0978 0.047,-0.20428 0.062,-0.3125 0.01,-0.0488 0.021,-0.0843 0.031,-0.125 0,0.0136 0.031,0.0627 0.031,0.0625 0,-2.5e-4 0.062,0.12513 0.062,0.125 -1e-4,-6e-5 0.125,0.15628 0.125,0.15625 -1e-4,-10e-5 0.2812,0.0937 0.2812,0.0937 l 0.25,-0.0625 c -1e-4,10e-5 0.1251,-0.0938 0.125,-0.0937 0,1.2e-4 0.063,-0.12524 0.062,-0.125 0,3e-4 0.031,-0.0197 0.031,-0.0312 0.01,-0.0231 0,-0.0545 0,-0.0625 l -0.9688,-0.125 c 0,-0.0188 -2e-4,-0.0283 0,-0.0312 l 0,-0.0625 c 0,-0.0171 0.018,-0.0202 0.031,-0.0625 0,-0.0105 -0.01,-0.007 0,-0.0312 0.01,-0.0123 0.031,-0.0623 0.031,-0.0625 0,-2e-4 0.094,-0.0936 0.094,-0.0937 l 0.094,-0.0937 c 10e-5,0 0.2812,-0.0625 0.2813,-0.0625 z m -6.9688,0.40625 c 0.1446,-0.0284 0.3737,-0.0326 0.5938,0.1875 0.2275,0.22727 0.1867,0.39901 0.1875,0.5 7e-4,0.10095 0,0.16865 0,0.15625 0,0.3715 -0.012,0.88675 -0.4375,1.3125 -0.084,0.0857 -0.1146,0.1366 -0.094,0.0937 0.021,-0.0425 0,-0.1144 0,-0.1875 0,-0.0731 0.029,-0.1281 0,-0.1875 -0.038,-0.076 -0.062,-0.0998 -0.094,-0.125 l -0.094,0.125 -0.125,0.25 c -0.044,0.17626 -0.1437,0.31909 -0.2187,0.46875 -0.1774,0.35182 -0.4137,0.6165 -0.7813,0.6875 -0.5239,0.10121 -0.9893,-0.19411 -1.3125,-0.625 -0.2732,-0.36428 -0.178,-0.73984 -0.125,-0.96875 0.017,-0.0754 0.018,-0.136 0.031,-0.1875 -0.061,-0.0862 -0.1196,-0.28279 -0.094,-0.4375 0.01,-0.0581 0.085,-0.0691 0.125,-0.125 l -0.062,-0.0312 c 0.032,-0.0536 0.1063,-0.13565 0.1563,-0.21875 0.025,-0.043 0.029,-0.0765 0.062,-0.125 0.01,-0.009 0.01,-0.0388 0.031,-0.0625 0.01,-0.0118 0.062,-0.031 0.062,-0.0312 0,-10e-5 0.062,-0.0624 0.062,-0.0625 0,-3e-5 0.062,0.11087 0.125,0.21875 0.063,0.10788 0.125,0.21876 0.125,0.21875 l 0.3125,-0.375 0.062,0.0312 0.031,0.0625 c 0,3e-5 0.062,0.12496 0.062,0.125 0,8e-5 0.031,0.15613 0.031,0.15625 l 0,0.0625 c 0,2e-4 -0.031,0.0477 -0.031,0.0312 l 0,0.0312 0,0.0312 c 2e-4,0.0206 0.01,-0.022 0,0.0312 0,0.0333 0.041,0.0382 0.031,0.0937 -0.01,0.0454 -0.069,0.0986 -0.094,0.15625 0.015,0.12252 0.046,0.2359 0.031,0.3125 -0.023,0.11466 -0.075,0.2292 -0.094,0.3125 -0.02,0.0833 0,0.13683 0,0.15625 0.1778,0.22021 0.2934,0.24719 0.2812,0.25 -0.013,0.003 0.087,-0.0388 0.1875,-0.4375 0,-0.0163 0.014,-0.0891 -0.031,-0.25 -0.045,-0.16095 -0.1438,-0.41333 -0.031,-0.75 0.052,-0.15576 0.1708,-0.2684 0.2188,-0.3125 0.1064,-0.1597 0.164,-0.1882 0.25,-0.25 0.086,-0.0618 0.1747,-0.10235 0.2812,-0.15625 0.1065,-0.0539 0.2304,-0.12785 0.375,-0.15625 z m 3.0625,0.34375 c 2e-4,0 0.2811,0.0624 0.2813,0.0625 1e-4,7e-5 0.1873,0.15609 0.1875,0.15625 0,1.6e-4 0.062,0.12475 0.062,0.125 0,5e-4 0.031,0.0999 0.031,0.125 0,0.0251 4e-4,0.05 0,0.0625 -8e-4,0.0252 0,0.0208 0,0.0312 l 0,0.0625 c 0,0.0352 0.012,0.0776 0,0.0312 0.086,0.3457 0.031,0.6409 0.031,0.84375 l 0,0.28125 0.75,0 c -0.058,0 0.078,-2.8e-4 0.1875,0 0.055,1.4e-4 0.1005,-0.0173 0.1875,0 0.087,0.0173 0.3052,0.0416 0.4375,0.34375 0.086,0.1958 0.1315,0.35009 0.1875,0.5 l -0.9375,0.375 c -0.029,-0.0779 -0.038,-0.14955 -0.062,-0.21875 0,-0.003 -0.031,0.003 -0.031,0 l -0.7187,0 0,0.15625 0,0.625 c -0.01,-0.0184 0,8.4e-4 0,0.0625 0,0.0209 0.026,0.0358 0.031,0.0625 0.01,0.0504 0.04,0.11099 0,0.28125 -0.02,0.0851 -0.086,0.2206 -0.2187,0.3125 -0.1325,0.0917 -0.283,0.107 -0.375,0.0937 -0.1649,-0.0235 -0.2523,-0.0857 -0.2813,-0.0937 l 0.2188,-0.84375 c -0.048,0.0127 -0.077,-0.002 -0.125,0.0312 -0.1215,0.0841 -0.1715,0.21245 -0.1875,0.28125 -0.031,0.1375 -0.031,0.128 -0.031,0.125 0,-0.006 -0.031,-0.0434 -0.031,-0.25 l 0,-0.6875 0,-0.15625 -0.5,0 c -0.061,0 -0.1245,-8e-5 -0.1875,0 -0.032,4e-5 -0.073,3e-5 -0.094,0 -0.01,-2e-5 -0.021,6e-5 -0.031,0 0,-6e-5 -0.021,4.3e-4 -0.031,0 0,-2.2e-4 -0.031,10e-6 -0.031,0 -1e-4,-1e-5 -0.4375,-0.53125 -0.4375,-0.53125 0.017,-0.24577 0.071,-0.41761 0.094,-0.53125 l 0.4063,0.0625 0.094,0 c 0.062,-8e-5 0.1625,0.0282 0.2188,0 l 0.5,0 0,-0.28125 c 0,-0.27352 -3e-4,-0.48749 -0.031,-0.59375 -0.034,-0.13579 -0.01,-0.20415 0,-0.28125 l -0.125,-0.0625 c 0.054,-0.0906 0.1338,-0.2163 0.2188,-0.34375 0.01,-0.0126 0.01,-0.0384 0.031,-0.0625 0.01,-0.012 0.031,-0.031 0.031,-0.0312 0,-2e-4 0.093,-0.0624 0.094,-0.0625 2e-4,-1e-4 0.1873,-0.0625 0.1875,-0.0625 z m -5.4062,0.65625 c 0,-3e-5 0.059,0.0684 0.094,0.125 0.015,0.0251 0.031,0.0625 0.031,0.0625 l 0.031,0.0312 c 0,0 0.045,-0.0421 0.062,-0.0625 0,-0.006 -0.01,-0.0242 0,-0.0312 l -0.2187,-0.125 z m 5,0 c 0,-2.5e-4 0.064,0.12516 0.062,0.125 -2e-4,-1.6e-4 0.1876,0.15632 0.1875,0.15625 -2e-4,-10e-5 0.2814,0.0625 0.2812,0.0625 0,1e-4 0.033,-0.0213 0.062,-0.0312 l -0.5937,-0.3125 z m -4.4375,0.3125 c 5e-4,0.003 0,0.0312 0,0.0312 0,0 0.021,0.003 0.031,0 l 0,-0.0312 -0.031,0 z m -3.2813,7.09375 0,2 16,0 0,-2 -16,0 z"
       style="color:#000000;fill:#434a54;fill-opacity:0.6745098;fill-rule:nonzero;stroke:none;stroke-width:2;marker:none;visibility:visible;display:inline;overflow:visible;enable-background:accumulate"
       inkscape:connector-curvature="0" />
    <path
       style="font-size:medium;font-style:normal;font-variant:normal;font-weight:normal;font-stretch:normal;text-indent:0;text-align:start;text-decoration:none;line-height:normal;letter-spacing:normal;word-spacing:normal;text-transform:none;direction:ltr;block-progression:tb;writing-mode:lr-tb;text-anchor:start;baseline-shift:baseline;color:#000000;fill:#d1d4d6;fill-opacity:0.74329164;fill-rule:nonzero;stroke:none;stroke-width:2;marker:none;visibility:visible;display:inline;overflow:visible;enable-background:accumulate;font-family:Sans;-inkscape-font-specification:Sans"
       d="m -8063.8735,498.93235 0,1 0,12 0,1 0,2 0,1 1,0 16,0 1,0 0,-1 0,-2 0,-1 0,-12 0,-1 -1,0 -16,0 -1,0 z m 1,1 16,0 0,12 -16,0 0,-12 z m 12.0313,4.1875 c -1e-4,0 -0.2812,0.0625 -0.2813,0.0625 l -0.094,0.0937 c 0,10e-5 -0.094,0.0935 -0.094,0.0937 0,2e-4 -0.021,0.0502 -0.031,0.0625 -0.01,0.0242 0,0.0208 0,0.0312 -0.013,0.0423 -0.031,0.0454 -0.031,0.0625 l 0,0.0625 c -2e-4,0.003 0,0.0125 0,0.0312 l 0.9688,0.125 c 0,0.008 0.01,0.0394 0,0.0625 0,-0.0186 0.031,-0.0565 0.031,-0.0625 l 0,-0.0937 c 0,-0.0202 0.014,0.0215 0,-0.0937 0,-0.0144 1e-4,-0.0623 0,-0.0625 0,-2.5e-4 -0.062,-0.15612 -0.062,-0.15625 0,-6e-5 -0.125,-0.12497 -0.125,-0.125 l -0.2812,-0.0937 z m 0.4375,0.6875 c 0,0.0115 -0.031,0.0316 -0.031,0.0312 0,-2.4e-4 -0.062,0.12512 -0.062,0.125 1e-4,-10e-5 -0.1251,0.0939 -0.125,0.0937 l -0.25,0.0625 c 0,0 -0.2813,-0.0938 -0.2812,-0.0937 0,3e-5 -0.1251,-0.15631 -0.125,-0.15625 0,1.3e-4 -0.062,-0.12525 -0.062,-0.125 0,2e-4 -0.031,-0.0489 -0.031,-0.0625 -0.01,0.0407 -0.021,0.0762 -0.031,0.125 -0.015,0.10822 -0.048,0.2147 -0.062,0.3125 -0.015,0.0978 -0.041,0.2216 -0.031,0.1875 -0.061,0.306 -0.031,0.56874 -0.031,0.78125 0,0.163 -0.012,0.34525 0.031,0.5625 l 0.031,0 0,0.15625 0,0.34375 0.4687,-0.3125 0.031,0 0.031,0 0.2813,0.0312 c -0.057,0.0661 -0.1027,0.089 -0.1875,0.1875 l 0,0.0312 c -0.021,0.0244 -0.042,0.007 -0.062,0.0312 -0.1591,0.18467 -0.2683,0.32359 -0.3125,0.375 0.1285,0.0793 0.2779,0.10655 0.375,0.0937 0.1212,-0.016 0.188,-0.0282 0.25,-0.0625 0.014,-0.008 0.018,-0.0232 0.031,-0.0312 0,0.039 -0.031,0.0538 0.062,0.1875 0.087,0.12476 0.1558,0.232 0.2188,0.3125 l 0.8125,-0.625 c -0.055,-0.071 -0.1143,-0.10285 -0.1563,-0.15625 -3e-4,-0.007 3e-4,-0.0232 0,-0.0312 0,-0.072 -5e-4,-0.17966 0,-0.28125 5e-4,-0.11288 -2e-4,-0.2106 0,-0.3125 2e-4,-0.1019 0.018,-0.15444 0,-0.28125 -0.022,-0.15607 -0.055,-0.33454 -0.094,-0.5 0,-0.0328 0.022,0.024 0,-0.0625 l 0,-0.0312 c -0.01,-0.0382 -0.01,-0.0704 -0.031,-0.125 -0.012,-0.0272 -0.062,-0.0933 -0.062,-0.0937 0,-4e-4 -0.062,-0.0933 -0.062,-0.0937 0,-5e-4 -0.094,-0.0622 -0.094,-0.0625 0,-2e-4 -0.063,-0.0211 -0.094,-0.0312 -0.062,-0.0204 -0.1122,-0.0312 -0.1562,-0.0312 0,0 -0.2492,0.062 -0.25,0.0625 l 0,-0.0625 c 0.015,-0.0987 0.015,-0.20764 0.031,-0.3125 0.011,-0.0732 0.021,-0.11335 0.031,-0.15625 z m -0.4375,2.25 -0.094,-0.15625 0,0.0625 0.094,0.0937 z m -0.625,0.0937 c 0.01,0.0431 0.026,0.1 0.062,0.15625 l -0.062,-0.15625 z m -6.3438,-2.625 c -0.1446,0.0284 -0.2685,0.10235 -0.375,0.15625 -0.1065,0.0539 -0.1952,0.0944 -0.2812,0.15625 -0.012,0.009 -0.02,0.0235 -0.031,0.0312 0.033,0.0478 0.058,0.0796 0.094,0.125 0,0.006 0.028,-0.005 0.031,0 0.013,0.0167 0.031,0.0625 0.031,0.0625 -1e-4,-1e-4 0.042,0.0709 0.062,0.125 0,0 -0.055,0.0282 -0.062,0.0312 0.034,0.0546 0.029,0.0956 0.062,0.21875 l -0.031,-0.0312 c -0.02,-0.0693 -0.01,-0.13249 -0.031,-0.1875 -0.028,0.0103 -0.1299,0.0293 -0.2188,0.0625 l 0,-0.15625 0,-0.0312 0,-0.1875 c -0.048,0.0378 -0.088,0.0853 -0.1562,0.1875 -0.048,0.0441 -0.1668,0.15674 -0.2188,0.3125 -0.1128,0.33667 -0.014,0.58905 0.031,0.75 0.045,0.1609 0.031,0.2337 0.031,0.25 -0.1005,0.3987 -0.2005,0.4405 -0.1875,0.4375 0.012,-0.003 -0.1034,-0.0298 -0.2812,-0.25 0,-0.0194 -0.02,-0.0729 0,-0.15625 0.019,-0.0833 0.071,-0.19784 0.094,-0.3125 0.015,-0.0766 -0.016,-0.18998 -0.031,-0.3125 0.025,-0.0576 0.084,-0.11085 0.094,-0.15625 0.01,-0.0555 -0.031,-0.0605 -0.031,-0.0937 0.01,-0.0532 2e-4,-0.0106 0,-0.0312 l 0,-0.0312 0,-0.0312 c 0,0.0165 0.031,-0.031 0.031,-0.0312 l 0,-0.0625 c 0,-1.2e-4 -0.031,-0.15617 -0.031,-0.15625 0,-4e-5 -0.062,-0.12497 -0.062,-0.125 l -0.031,-0.0625 -0.062,-0.0312 -0.3125,0.375 c 0,1e-5 -0.062,-0.11087 -0.125,-0.21875 -0.063,-0.10788 -0.125,-0.21878 -0.125,-0.21875 0,1e-4 -0.062,0.0624 -0.062,0.0625 0,2e-4 -0.053,0.0195 -0.062,0.0312 -0.021,0.0237 -0.021,0.0535 -0.031,0.0625 -0.033,0.0485 -0.038,0.082 -0.062,0.125 -0.05,0.0831 -0.1243,0.16515 -0.1563,0.21875 l 0.062,0.0312 c -0.04,0.0559 -0.115,0.0669 -0.125,0.125 -0.026,0.15471 0.033,0.3513 0.094,0.4375 -0.013,0.0515 -0.014,0.1121 -0.031,0.1875 -0.053,0.22891 -0.1482,0.60447 0.125,0.96875 0.3232,0.43089 0.7886,0.72621 1.3125,0.625 0.3676,-0.071 0.6039,-0.33568 0.7813,-0.6875 0.075,-0.14966 0.1747,-0.29249 0.2187,-0.46875 l 0.125,-0.25 0.094,-0.125 c 0.032,0.0252 0.056,0.049 0.094,0.125 0.029,0.0594 0,0.1144 0,0.1875 0,0.0731 0.021,0.145 0,0.1875 -0.021,0.0429 0.01,-0.008 0.094,-0.0937 0.4255,-0.42575 0.4375,-0.941 0.4375,-1.3125 0,0.0124 7e-4,-0.0553 0,-0.15625 -8e-4,-0.10099 0.04,-0.27273 -0.1875,-0.5 -0.2201,-0.2201 -0.4492,-0.2159 -0.5938,-0.1875 z m -0.75,0.5625 c 0.047,-0.0285 0.1445,-0.0554 0.1563,-0.0625 l 0,-0.0312 c -0.012,0.008 -0.1048,0.0593 -0.1563,0.0937 z m 7.875,-0.53125 0.031,0.0625 0,0.0312 c -0.01,-0.007 -0.025,0.007 -0.031,0 -0.01,-0.008 0.01,-0.0238 0,-0.0312 l 0,-0.0625 z m -4.0625,0.3125 c -2e-4,0 -0.1873,0.0624 -0.1875,0.0625 0,10e-5 -0.094,0.0623 -0.094,0.0625 0,2e-4 -0.021,0.0192 -0.031,0.0312 -0.021,0.0241 -0.021,0.0499 -0.031,0.0625 -0.085,0.12745 -0.1648,0.25315 -0.2188,0.34375 l 0.125,0.0625 c -0.01,0.0385 0,0.0813 0,0.125 l 0.031,0 0,0.0312 -0.031,0 c -4e-4,0.0376 -0.014,0.0707 0,0.125 0.031,0.10626 0.031,0.32023 0.031,0.59375 l 0,0.28125 -0.5,0 c -0.056,0.0282 -0.1568,-8e-5 -0.2188,0 l -0.094,0 -0.4063,-0.0625 c -0.023,0.11364 -0.077,0.28548 -0.094,0.53125 0,0 0.4374,0.53124 0.4375,0.53125 0,10e-6 0.031,-2.2e-4 0.031,0 0.01,4.3e-4 0.031,-6e-5 0.031,0 0.01,6e-5 0.021,-2e-5 0.031,0 0.021,3e-5 0.062,4e-5 0.094,0 0.063,-8e-5 0.1265,0 0.1875,0 l 0.5,0 0,0.15625 0,0.6875 c 0,0.2066 0.031,0.244 0.031,0.25 0,0.003 3e-4,0.0125 0.031,-0.125 0.016,-0.0688 0.066,-0.19715 0.1875,-0.28125 0.048,-0.0332 0.077,-0.0186 0.125,-0.0312 l -0.2188,0.84375 c 0.029,0.008 0.1164,0.0702 0.2813,0.0937 0.092,0.0133 0.2425,-0.002 0.375,-0.0937 0.1327,-0.0919 0.1987,-0.2274 0.2187,-0.3125 0.04,-0.17026 0.01,-0.23085 0,-0.28125 -0.01,-0.0267 -0.031,-0.0416 -0.031,-0.0625 0,-0.0617 -0.01,-0.0809 0,-0.0625 l 0,-0.625 0,-0.15625 0.7187,0 c 0,0.003 0.031,-0.003 0.031,0 0.024,0.0692 0.034,0.14085 0.062,0.21875 l 0.9375,-0.375 c -0.056,-0.14991 -0.1015,-0.3042 -0.1875,-0.5 -0.1323,-0.30215 -0.3505,-0.32645 -0.4375,-0.34375 -0.087,-0.0173 -0.1325,1.4e-4 -0.1875,0 -0.1095,-2.8e-4 -0.2455,0 -0.1875,0 l -0.75,0 0,-0.28125 c 0,-0.20285 0.055,-0.49805 -0.031,-0.84375 0.012,0.0464 0,0.004 0,-0.0312 l 0,-0.0625 c 0,-0.0104 -8e-4,-0.006 0,-0.0312 4e-4,-0.0125 0,-0.0374 0,-0.0625 0,-0.0251 -0.031,-0.1245 -0.031,-0.125 0,-2.5e-4 -0.062,-0.12484 -0.062,-0.125 -2e-4,-1.6e-4 -0.1874,-0.15618 -0.1875,-0.15625 -2e-4,-10e-5 -0.2811,-0.0625 -0.2813,-0.0625 z m 4.2188,0.375 c 0.021,0.0243 0.011,0.0391 0.031,0.0625 l -0.062,-0.0312 c 0.01,-0.0116 0.031,-0.0313 0.031,-0.0312 z m -9.625,0.28125 0.2187,0.125 c -0.01,0.007 0,0.0253 0,0.0312 -0.017,0.0204 -0.062,0.0625 -0.062,0.0625 l -0.031,-0.0312 c 0,0 -0.016,-0.0374 -0.031,-0.0625 -0.035,-0.0566 -0.094,-0.12503 -0.094,-0.125 z m 5,0 0.5937,0.3125 c -0.029,0.01 -0.062,0.0314 -0.062,0.0312 2e-4,0 -0.2814,-0.0626 -0.2812,-0.0625 1e-4,7e-5 -0.1877,-0.15641 -0.1875,-0.15625 0,1.6e-4 -0.062,-0.12525 -0.062,-0.125 z m -4.4375,0.3125 0.031,0 0,0.0312 c -0.01,0.003 -0.031,0 -0.031,0 0,0 5e-4,-0.0282 0,-0.0312 z m 8.875,0.84375 c 0.024,0.0169 0.06,-0.002 0.094,0.0312 1e-4,0.0306 0,0.0632 0,0.0937 l -0.3125,0 0.2188,-0.125 z m -12.1563,6.25 16,0 0,2 -16,0 0,-2 z"
       id="rect3019"
       inkscape:connector-curvature="0" />
  </g>
</svg>
