<?xml version="1.0" encoding="UTF-8" standalone="no"?>
<!-- Created with Inkscape (http://www.inkscape.org/) -->

<svg
   xmlns:dc="http://purl.org/dc/elements/1.1/"
   xmlns:cc="http://creativecommons.org/ns#"
   xmlns:rdf="http://www.w3.org/1999/02/22-rdf-syntax-ns#"
   xmlns:svg="http://www.w3.org/2000/svg"
   xmlns="http://www.w3.org/2000/svg"
   xmlns:sodipodi="http://sodipodi.sourceforge.net/DTD/sodipodi-0.dtd"
   xmlns:inkscape="http://www.inkscape.org/namespaces/inkscape"
   width="22"
   height="22"
   id="svg27665"
   version="1.1"
   inkscape:version="0.48.3.1 r9886"
   sodipodi:docname="image-loading.svg">
  <defs
     id="defs27667" />
  <sodipodi:namedview
     id="base"
     pagecolor="#cbcdd6"
     bordercolor="#666666"
     borderopacity="1.0"
     inkscape:pageopacity="1"
     inkscape:pageshadow="2"
     inkscape:zoom="32.000002"
     inkscape:cx="8.6787125"
     inkscape:cy="10.649025"
     inkscape:document-units="px"
     inkscape:current-layer="layer1"
     showgrid="true"
     inkscape:window-width="1920"
     inkscape:window-height="1033"
     inkscape:window-x="-10"
     inkscape:window-y="25"
     inkscape:window-maximized="1"
     inkscape:snap-bbox="true"
     inkscape:bbox-paths="true"
     inkscape:bbox-nodes="true"
     inkscape:snap-bbox-edge-midpoints="true"
     inkscape:snap-bbox-midpoints="true"
     inkscape:object-paths="true"
     inkscape:snap-intersection-paths="true"
     inkscape:object-nodes="true"
     inkscape:snap-smooth-nodes="true"
     inkscape:snap-midpoints="true"
     inkscape:snap-object-midpoints="true"
     inkscape:snap-center="true"
     inkscape:snap-global="true"
     showguides="true"
     inkscape:guide-bbox="true"
     fit-margin-top="0"
     fit-margin-left="0"
     fit-margin-right="0"
     fit-margin-bottom="0"
     inkscape:showpageshadow="false">
    <inkscape:grid
       type="xygrid"
       id="grid3070"
       empspacing="5"
       visible="true"
       enabled="true"
       snapvisiblegridlinesonly="true"
       originx="-47.999653px"
       originy="-0.00031276823px" />
  </sodipodi:namedview>
  <metadata
     id="metadata27670">
    <rdf:RDF>
      <cc:Work
         rdf:about="">
        <dc:format>image/svg+xml</dc:format>
        <dc:type
           rdf:resource="http://purl.org/dc/dcmitype/StillImage" />
        <dc:title />
      </cc:Work>
    </rdf:RDF>
  </metadata>
  <g
     inkscape:label="Camada 1"
     inkscape:groupmode="layer"
     id="layer1"
     transform="translate(3316.4171,-2094.7186)">
    <path
       style="color:#000000;fill:#404957;fill-opacity:0.230837;fill-rule:nonzero;stroke:none;stroke-width:1;marker:none;visibility:visible;display:inline;overflow:visible;enable-background:accumulate"
       d="m -3305.4885,2097.7186 -7.9286,7.9286 c -2e-4,0.024 0,0.047 0,0.071 0,0.9379 0.1678,1.8422 0.4642,2.6786 l 6.5358,-5.9286 0,-0.75 0.75,0 2.9285,-3.5357 c -0.8362,-0.2966 -1.7406,-0.4643 -2.6785,-0.4643 -0.024,0 -0.048,-3e-4 -0.071,0 z m -1.7501,0.2143 c -0.204,0.048 -0.4094,0.1158 -0.6071,0.1787 0.1915,-0.062 0.4096,-0.1317 0.6071,-0.1787 z m -1.5356,0.5358 c -0.8587,0.3981 -1.6247,0.9461 -2.2858,1.6071 0.6602,-0.6601 1.4317,-1.206 2.2858,-1.6071 z m -2.2858,1.6071 c -0.661,0.661 -1.209,1.4271 -1.6072,2.2857 0.4013,-0.8541 0.9471,-1.6256 1.6072,-2.2857 z m 9.4643,-1.3928 c 0.3403,0.1874 0.6512,0.4071 0.9643,0.6428 -0.3139,-0.2364 -0.6168,-0.4541 -0.9643,-0.6428 z m 0.9643,0.6428 -3.7857,3.9866 0,1.4062 1.4062,0 3.9866,-3.7857 c -0.4525,-0.6011 -1.0059,-1.1546 -1.6071,-1.6071 z m 1.6071,1.6071 c 0.2358,0.3132 0.4554,0.624 0.6429,0.9644 -0.1887,-0.3476 -0.4064,-0.6504 -0.6429,-0.9644 z m 1.1429,2.1072 -3.5357,2.9285 0,0.75 -0.75,0 -5.9286,6.5358 c 0.8363,0.2965 1.7407,0.4642 2.6786,0.4642 0.024,0 0.048,3e-4 0.071,0 l 7.9285,-7.9285 c 3e-4,-0.024 0,-0.048 0,-0.071 0,-0.9379 -0.1677,-1.8423 -0.4643,-2.6785 z m -15.1429,0.25 c -0.063,0.1977 -0.131,0.4031 -0.1785,0.6072 0.047,-0.1976 0.117,-0.4158 0.1785,-0.6072 z m 6.6072,2.0223 -5.3929,5.1919 c 0.4526,0.6012 1.006,1.1547 1.6072,1.6072 l 5.1919,-5.3929 -1.4062,0 z m -3.7857,6.7991 c 0.3139,0.2364 0.6168,0.4541 0.9642,0.6429 -0.3402,-0.1875 -0.6511,-0.4072 -0.9642,-0.6429 z m -1.6072,-1.6072 c -0.2357,-0.3131 -0.4553,-0.624 -0.6429,-0.9642 0.1888,0.3474 0.4065,0.6503 0.6429,0.9642 z m 14.1786,-2.9642 c -0.047,0.1975 -0.117,0.4157 -0.1786,0.6071 0.063,-0.1977 0.1311,-0.4031 0.1786,-0.6071 z m -0.5358,1.5357 c -0.4011,0.854 -0.9469,1.6256 -1.607,2.2857 0.661,-0.661 1.209,-1.4271 1.607,-2.2857 z m -1.607,2.2857 c -0.6602,0.6601 -1.4317,1.2059 -2.2858,1.6072 0.8587,-0.3982 1.6247,-0.9462 2.2858,-1.6072 z m -3.2143,1.9643 c -0.1915,0.062 -0.4096,0.1316 -0.6072,0.1785 0.2041,-0.048 0.4095,-0.1157 0.6072,-0.1785 z"
       id="path3840"
       inkscape:connector-curvature="0"
       sodipodi:nodetypes="ccscccccsccccccccccccccccccccccccccccsccsccccccccccccccccccccccccccccc" />
    <path
       inkscape:connector-curvature="0"
       style="color:#000000;fill:#404957;fill-opacity:0.230837;fill-rule:nonzero;stroke:none;stroke-width:1;marker:none;visibility:visible;display:inline;overflow:visible;enable-background:accumulate"
       d="m -3305.4885,2097.7186 c -2.1807,0.019 -4.1395,0.9252 -5.5715,2.3572 -1.432,1.432 -2.3379,3.3907 -2.3571,5.5714 z m 2.7499,0.4644 -2.9285,3.5356 1.25,0 0,1.5938 3.7857,-3.9866 c -0.6424,-0.4836 -1.335,-0.8691 -2.1072,-1.1428 z m 3.7143,2.7499 -3.9866,3.7857 1.5938,0 0,1.25 3.5357,-2.9285 c -0.2738,-0.7722 -0.6592,-1.4648 -1.1429,-2.1072 z m -7.3928,1.5357 -6.5358,5.9287 c 0.2739,0.7721 0.6593,1.4646 1.1429,2.107 l 5.3929,-5.1919 z m 9,3.3215 -7.9286,7.9285 c 2.1807,-0.019 4.1395,-0.9251 5.5715,-2.3571 1.432,-1.432 2.3379,-3.3908 2.3571,-5.5714 z m -7.5938,0.9285 -5.1919,5.3929 c 0.6424,0.4836 1.335,0.8691 2.1071,1.1429 l 5.9286,-6.5358 z"
       id="path2994"
       sodipodi:nodetypes="cscccccccccccccccccccccscccccc" />
    <path
       id="path2991"
       d="m -3305.4885,2097.7186 c -2.1807,0.019 -4.1395,0.9252 -5.5715,2.3572 -1.432,1.432 -2.3379,3.3907 -2.3571,5.5714 z m 2.7499,0.4644 -2.9285,3.5356 1.25,0 0,1.5938 3.7857,-3.9866 c -0.6424,-0.4836 -1.335,-0.8691 -2.1072,-1.1428 z m 3.7143,2.7499 -3.9866,3.7857 1.5938,0 0,1.25 3.5357,-2.9285 c -0.2738,-0.7722 -0.6592,-1.4648 -1.1429,-2.1072 z m -7.3928,1.5357 -6.5358,5.9287 c 0.2739,0.7721 0.6593,1.4646 1.1429,2.107 l 5.3929,-5.1919 z m 9,3.3215 -7.9286,7.9285 c 2.1807,-0.019 4.1395,-0.9251 5.5715,-2.3571 1.432,-1.432 2.3379,-3.3908 2.3571,-5.5714 z m -7.5938,0.9285 -5.1919,5.3929 c 0.6424,0.4836 1.335,0.8691 2.1071,1.1429 l 5.9286,-6.5358 z"
       style="color:#000000;fill:#404957;fill-opacity:0.230837;fill-rule:nonzero;stroke:none;stroke-width:1;marker:none;visibility:visible;display:inline;overflow:visible;enable-background:accumulate"
       inkscape:connector-curvature="0"
       sodipodi:nodetypes="cscccccccccccccccccccccscccccc" />
    <path
       style="color:#000000;fill:#d1d4d6;fill-opacity:0.74329164;fill-rule:nonzero;stroke:none;stroke-width:2;marker:none;visibility:visible;display:inline;overflow:visible;enable-background:accumulate"
       d="m -3306.4167,2101.719 1,0 0,3 -1,0 z"
       id="rect3002"
       inkscape:connector-curvature="0"
       sodipodi:nodetypes="ccccc" />
    <path
       style="color:#000000;fill:#d1d4d6;fill-opacity:0.74329164;fill-rule:nonzero;stroke:none;stroke-width:2;marker:none;visibility:visible;display:inline;overflow:visible;enable-background:accumulate"
       d="m -3306.4167,2105.719 5,0 0,1 -5,0 z"
       id="rect3004"
       inkscape:connector-curvature="0"
       sodipodi:nodetypes="ccccc" />
    <path
       style="font-size:medium;font-style:normal;font-variant:normal;font-weight:normal;font-stretch:normal;text-indent:0;text-align:start;text-decoration:none;line-height:normal;letter-spacing:normal;word-spacing:normal;text-transform:none;direction:ltr;block-progression:tb;writing-mode:lr-tb;text-anchor:start;baseline-shift:baseline;color:#000000;fill:#d1d4d6;fill-opacity:0.74329164;fill-rule:nonzero;stroke:none;stroke-width:2;marker:none;visibility:visible;display:inline;overflow:visible;enable-background:accumulate;font-family:Sans;-inkscape-font-specification:Sans"
       d="m -3305.4171,2096.4999 c -5.0668,0 -9.1875,4.1519 -9.1875,9.2187 0,5.0668 4.1207,9.1875 9.1875,9.1875 5.0668,0 9.1875,-4.1207 9.1875,-9.1875 0,-5.0668 -4.1207,-9.2187 -9.1875,-9.2187 z m 0,1.2187 c 4.4183,0 8,3.5817 8,8 0,4.4183 -3.5817,8 -8,8 -4.4183,0 -8,-3.5817 -8,-8 0,-4.4183 3.5817,-8 8,-8 z"
       id="path3036"
       inkscape:connector-curvature="0" />
  </g>
</svg>
