<?xml version="1.0" encoding="UTF-8" standalone="no"?>
<!-- Created with Inkscape (http://www.inkscape.org/) -->

<svg
   xmlns:dc="http://purl.org/dc/elements/1.1/"
   xmlns:cc="http://creativecommons.org/ns#"
   xmlns:rdf="http://www.w3.org/1999/02/22-rdf-syntax-ns#"
   xmlns:svg="http://www.w3.org/2000/svg"
   xmlns="http://www.w3.org/2000/svg"
   xmlns:sodipodi="http://sodipodi.sourceforge.net/DTD/sodipodi-0.dtd"
   xmlns:inkscape="http://www.inkscape.org/namespaces/inkscape"
   version="1.1"
   width="22"
   height="22"
   id="svg13094"
   inkscape:version="0.48.3.1 r9886"
   sodipodi:docname="user-invisible.svg">
  <sodipodi:namedview
     pagecolor="#ffffff"
     bordercolor="#666666"
     borderopacity="1"
     objecttolerance="10"
     gridtolerance="10"
     guidetolerance="10"
     inkscape:pageopacity="0"
     inkscape:pageshadow="2"
     inkscape:window-width="1920"
     inkscape:window-height="1033"
     id="namedview6"
     showgrid="true"
     inkscape:snap-bbox="true"
     inkscape:bbox-paths="true"
     inkscape:bbox-nodes="true"
     inkscape:snap-bbox-edge-midpoints="true"
     inkscape:snap-bbox-midpoints="true"
     inkscape:object-paths="true"
     inkscape:snap-intersection-paths="true"
     inkscape:object-nodes="true"
     inkscape:snap-smooth-nodes="true"
     inkscape:snap-midpoints="true"
     inkscape:snap-object-midpoints="true"
     inkscape:snap-center="true"
     inkscape:zoom="20.85965"
     inkscape:cx="11.344174"
     inkscape:cy="14.547007"
     inkscape:window-x="-10"
     inkscape:window-y="25"
     inkscape:window-maximized="1"
     inkscape:current-layer="svg13094"
     inkscape:snap-global="false">
    <inkscape:grid
       type="xygrid"
       id="grid2983"
       empspacing="5"
       visible="true"
       enabled="true"
       snapvisiblegridlinesonly="true" />
  </sodipodi:namedview>
  <defs
     id="defs7" />
  <metadata
     id="metadata13099">
    <rdf:RDF>
      <cc:Work
         rdf:about="">
        <dc:format>image/svg+xml</dc:format>
        <dc:type
           rdf:resource="http://purl.org/dc/dcmitype/StillImage" />
        <dc:title />
      </cc:Work>
    </rdf:RDF>
  </metadata>
  <path
     id="path2990"
     d="m 11,3 c -4.4182781,0 -8,3.5817257 -8,8 0,2.209143 0.8960346,4.208536 2.34375,5.65625 L 3,19 l 8,0 c 4.418278,0 8,-3.581726 8,-8 0,-4.4182743 -3.581722,-8 -8,-8 z m 0,3 c 2.761424,0 5,2.238576 5,5 0,2.761424 -2.238576,5 -5,5 C 8.2385763,16 6,13.761424 6,11 6,8.238576 8.2385763,6 11,6 z"
     style="fill:#434a54;fill-opacity:0.6745098;fill-rule:nonzero;stroke:none"
     inkscape:connector-curvature="0" />
  <path
     inkscape:connector-curvature="0"
     style="font-size:medium;font-style:normal;font-variant:normal;font-weight:normal;font-stretch:normal;text-indent:0;text-align:start;text-decoration:none;line-height:normal;letter-spacing:normal;word-spacing:normal;text-transform:none;direction:ltr;block-progression:tb;writing-mode:lr-tb;text-anchor:start;baseline-shift:baseline;color:#000000;fill:#d1d4d6;fill-opacity:0.74329164;fill-rule:nonzero;stroke:none;stroke-width:2;marker:none;visibility:visible;display:inline;overflow:visible;enable-background:accumulate;font-family:Sans;-inkscape-font-specification:Sans"
     d="m 11,1.8125 c -5.0668062,0 -9.1875,4.1206938 -9.1875,9.1875 0,2.09569 0.8146417,3.950248 2,5.5 L 2.15625,18.15625 0.28125,20 12.84375,20 C 17.026841,19.142001 20.1875,15.433455 20.1875,11 20.1875,5.9331938 16.066806,1.8125 11,1.8125 z M 11,3 c 4.418278,0 8,3.581722 8,8 0,4.418278 -3.581722,8 -8,8 L 3,19 5.34375,16.65625 C 3.8960347,15.208535 3,13.209139 3,11 3,6.581722 6.581722,3 11,3 z"
     id="path2983" />
  <path
     style="color:#000000;fill:#d1d4d6;fill-opacity:0.74329164;fill-rule:nonzero;stroke:none;stroke-width:2;marker:none;visibility:visible;display:inline;overflow:visible;enable-background:accumulate"
     d="m 11,6 c -2.7614237,0 -5,2.238576 -5,5 0,2.761424 2.2385763,5 5,5 2.761424,0 5,-2.238576 5,-5 0,-2.761424 -2.238576,-5 -5,-5 z m 0,1.25 c 2.078088,0 3.75,1.671912 3.75,3.75 0,2.078088 -1.671912,3.75 -3.75,3.75 C 8.9219116,14.75 7.25,13.078088 7.25,11 7.25,8.921912 8.9219116,7.25 11,7.25 z"
     id="path2993"
     inkscape:connector-curvature="0" />
</svg>
