<svg xmlns="http://www.w3.org/2000/svg" viewBox="0 0 64 64" xmlns:xlink="http://www.w3.org/1999/xlink"><defs><path id="0" d="M57 35A24 24 0 0 1 33 59 24 24 0 0 1 9 35 24 24 0 0 1 33 11 24 24 0 0 1 57 35" fill-rule="evenodd" color="#000"/></defs><g color="#000"><path d="m0 4v30 28l2 2h30 30l2-2v-28-30h-32-32" fill="#3b577a"/><path d="m2 0l-2 1v3h32 32v-3l-2-1h-30-30" fill="#668cbb"/></g><path d="m0 3v3l2-2" fill="#87bde7" fill-opacity=".547"/><g fill="#162f4d" fill-opacity=".352"><path d="m64 6l-2-2 2-1z"/><use transform="matrix(1.08854 0 0 1.08854-3.922-4.099)" xlink:href="#0"/><path d="M57 35A24 24 0 1 1 9 35 24 24 0 1 1 57 35" transform="matrix(.875 0 0 .875 3.125 3.375)" color="#000" fill-rule="evenodd"/></g><use transform="matrix(.70833 0 0 .70833 8.625 9.208)" fill="#fff" fill-opacity=".341" xlink:href="#0"/><g fill-rule="evenodd"><path d="M57 35A24 24 0 1 1 9 35 24 24 0 1 1 57 35" transform="matrix(.58333 0 0 .58333 12.75 13.583)" fill="#1a2c44" color="#000"/><path d="m32 20.21c-7.613 0-13.792 6.18-13.792 13.792 0 4.565 2.224 8.612 5.644 11.122l7.369-6.561-2.558-1.247-10.197-.855-.086-.413 10.05.836-.932-2.709-6.792-8.01.208-.319 6.732 7.857 1.242-2.569.81-10.712.384-.036-.764 10.509 2.917-1.01.026.013 7.745-7.298c-2.297-1.668-4.903-2.398-8.01-2.398m8.38 2.683l-7.66 7.184 2.347 1.275 10.535.364c-.556-3.48-2.588-6.806-5.223-8.823m-5.078 8.904l.829 2.868 7.04 7.39c1.725-2.302 2.616-4.955 2.616-8.05 0-.609-.04-1.209-.117-1.797l-10.371-.408m.644 3.296l-1.114 2.494-.738 10.05c3.593-.548 6.679-2.355 8.798-5.115l-6.945-7.426m-1.543 2.629l-2.699.982-7.517 6.67c2.276 1.656 4.785 2.418 7.813 2.418.572 0 1.137-.036 1.691-.104l.712-9.966" fill="#6684a9"/><path d="M32 20A14 14 0 0 0 18 34 14 14 0 0 0 23.726562 45.27344 14 14 0 0 1 21 37 14 14 0 0 1 35 23 14 14 0 0 1 43.27344 25.726562 14 14 0 0 0 32 20" fill="#142d4d" fill-opacity=".353" color="#000"/></g><g transform="matrix(2.84817 0 0 2.84817-176.96-62.838)"><use transform="matrix(.22778.10304-.10304.22778 69.46 22.627)" fill="#407cff" fill-opacity=".594" xlink:href="#0"/><path d="m36.937 22c1.243 2.252 2.063 4.646 2.813 7.06l.625-5.063c-.774-1.41-2.2-1.517-3.438-2" transform="matrix(.3511 0 0 .3511 62.13 22.06)" fill="#a8ffa3" fill-opacity=".369"/><g color="#000"><circle cx="72.7" cy="32.18" r="1.756" fill-opacity=".597" fill="#a3ffff"/><circle r=".98" cy="37.39" cx="74.32" fill-opacity=".385" fill="#fff16c"/></g></g><circle r="12.88" cy="36.989" cx="28.492" transform="matrix(.99513-.0986.0986.99513 0 0)" stroke-opacity=".353" fill="none" fill-rule="evenodd" stroke="#142d4d" color="#000" stroke-width="2"/></svg>