<?xml version="1.0" encoding="UTF-8" standalone="no"?>
<!-- Created with Inkscape (http://www.inkscape.org/) -->

<svg
   xmlns:dc="http://purl.org/dc/elements/1.1/"
   xmlns:cc="http://creativecommons.org/ns#"
   xmlns:rdf="http://www.w3.org/1999/02/22-rdf-syntax-ns#"
   xmlns:svg="http://www.w3.org/2000/svg"
   xmlns="http://www.w3.org/2000/svg"
   xmlns:xlink="http://www.w3.org/1999/xlink"
   xmlns:sodipodi="http://sodipodi.sourceforge.net/DTD/sodipodi-0.dtd"
   xmlns:inkscape="http://www.inkscape.org/namespaces/inkscape"
   id="svg13094"
   height="64"
   width="64"
   version="1.1"
   inkscape:version="0.48.3.1 r9886"
   sodipodi:docname="checkbox.svg"
   inkscape:export-filename="folder.png"
   inkscape:export-xdpi="90"
   inkscape:export-ydpi="90">
  <sodipodi:namedview
     pagecolor="#ffffff"
     bordercolor="#666666"
     borderopacity="1"
     objecttolerance="10"
     gridtolerance="10"
     guidetolerance="10"
     inkscape:pageopacity="0"
     inkscape:pageshadow="2"
     inkscape:window-width="1920"
     inkscape:window-height="1033"
     id="namedview46"
     showgrid="true"
     inkscape:snap-bbox="true"
     inkscape:bbox-paths="true"
     inkscape:bbox-nodes="true"
     inkscape:snap-bbox-edge-midpoints="true"
     inkscape:snap-bbox-midpoints="true"
     inkscape:snap-nodes="true"
     inkscape:object-paths="true"
     inkscape:snap-intersection-paths="true"
     inkscape:object-nodes="true"
     inkscape:snap-smooth-nodes="true"
     inkscape:snap-midpoints="true"
     inkscape:snap-object-midpoints="true"
     inkscape:snap-center="true"
     fit-margin-top="0"
     fit-margin-left="0"
     fit-margin-right="0"
     fit-margin-bottom="0"
     inkscape:zoom="10.429825"
     inkscape:cx="11.041677"
     inkscape:cy="30.937425"
     inkscape:window-x="-10"
     inkscape:window-y="25"
     inkscape:window-maximized="1"
     inkscape:current-layer="svg13094"
     showguides="true"
     inkscape:guide-bbox="true"
     inkscape:snap-page="true"
     inkscape:snap-global="true">
    <inkscape:grid
       type="xygrid"
       id="grid3023"
       empspacing="5"
       visible="true"
       enabled="true"
       snapvisiblegridlinesonly="true"
       originx="-80px"
       originy="-75px" />
  </sodipodi:namedview>
  <defs
     id="defs11">
    <radialGradient
       inkscape:collect="always"
       xlink:href="#linearGradient3818-1"
       id="radialGradient3824-3"
       cx="32"
       cy="55.5"
       fx="32"
       fy="55.5"
       r="26"
       gradientTransform="matrix(2,-2.6923078e-8,2.5369823e-8,1.8846154,-32.000001,-55.596153)"
       gradientUnits="userSpaceOnUse" />
    <linearGradient
       id="linearGradient3818-1">
      <stop
         style="stop-color:#74a848;stop-opacity:1;"
         offset="0"
         id="stop3820-2" />
      <stop
         style="stop-color:#5d9548;stop-opacity:0.58568907;"
         offset="1"
         id="stop3822-3" />
    </linearGradient>
  </defs>
  <metadata
     id="metadata13099">
    <rdf:RDF>
      <cc:Work
         rdf:about="">
        <dc:format>image/svg+xml</dc:format>
        <dc:type
           rdf:resource="http://purl.org/dc/dcmitype/StillImage" />
        <dc:title />
      </cc:Work>
    </rdf:RDF>
  </metadata>
  <path
     sodipodi:nodetypes="ccccccccc"
     inkscape:connector-curvature="0"
     style="color:#000000;fill:#4d5668;fill-opacity:1;fill-rule:nonzero;stroke:none;marker:none;visibility:visible;display:inline;overflow:visible;enable-background:accumulate"
     id="path3812"
     d="M 0,1 2,0 62,0 64,1 64,62 62,64 2,64 0,62 z" />
  <g
     id="g3043"
     inkscape:export-filename="folder.png"
     inkscape:export-xdpi="90"
     inkscape:export-ydpi="90"
     transform="translate(-0.62500009,0.082283)" />
  <path
     d="M 0,1 2,0 62,0 64,1 64,4 0,4 z"
     id="path3029"
     style="color:#000000;fill:#8892a1;fill-opacity:1;fill-rule:nonzero;stroke:none;marker:none;visibility:visible;display:inline;overflow:visible;enable-background:accumulate"
     inkscape:connector-curvature="0"
     sodipodi:nodetypes="ccccccc" />
  <path
     style="color:#000000;fill:url(#radialGradient3824-3);fill-opacity:1;fill-rule:nonzero;stroke:none;stroke-width:1;marker:none;visibility:visible;display:inline;overflow:visible;enable-background:accumulate"
     d="m 6,10 52,0 0,47 -52,0 z"
     id="rect3776"
     inkscape:connector-curvature="0"
     sodipodi:nodetypes="ccccc" />
  <path
     style="fill:#ffffff;fill-opacity:0.04858657;fill-rule:nonzero;stroke:none"
     d="M 0,4 45,4 22,64 0,64 z"
     id="rect5563"
     inkscape:connector-curvature="0"
     sodipodi:nodetypes="ccccc" />
  <path
     style="fill:#000000;fill-opacity:0.0936396;fill-rule:nonzero;stroke:none"
     d="m 5,9 0,47 1,0 0,-46 51,0 0,-1 z"
     id="path3830"
     inkscape:connector-curvature="0"
     sodipodi:nodetypes="ccccccc" />
  <path
     sodipodi:nodetypes="ccccccc"
     inkscape:connector-curvature="0"
     id="path3826"
     d="M 57,56 57,9 56,9 56,55 5,55 5,56 z"
     style="fill:#000000;fill-opacity:0.0715548;fill-rule:nonzero;stroke:none" />
  <path
     sodipodi:nodetypes="ccccccc"
     inkscape:connector-curvature="0"
     id="path3828"
     d="m 6,10 0,47 1,0 0,-46 51,0 0,-1 z"
     style="fill:#ffffff;fill-opacity:0.10954063;fill-rule:nonzero;stroke:none" />
  <path
     style="fill:#ffffff;fill-opacity:0.10954063;fill-rule:nonzero;stroke:none"
     d="m 58,57 0,-47 -1,0 0,46 -51,0 0,1 z"
     id="rect5556"
     inkscape:connector-curvature="0"
     sodipodi:nodetypes="ccccccc" />
  <path
     sodipodi:nodetypes="cccccccccc"
     inkscape:connector-curvature="0"
     id="path3864"
     d="M 2,3 1,4 62,4 64,3 z M 1,4 0,5 0,63.5 1,64 z"
     style="fill:#ffffff;fill-opacity:0.16607773;fill-rule:nonzero" />
  <path
     style="fill:#000000;fill-opacity:0.06978798999999999;fill-rule:nonzero"
     d="M 2,0 0,1 64,1 62,0 z"
     id="path3807"
     inkscape:connector-curvature="0"
     sodipodi:nodetypes="ccccc" />
  <path
     d="M 64,6 62,4 64,3 z"
     id="path3028"
     style="fill:#1f0700;fill-opacity:0.13759861"
     inkscape:connector-curvature="0" />
  <path
     d="M 0,6 2,4 0,3 z"
     id="path3028-6"
     style="fill:#d4e1e5;fill-opacity:0.46643108"
     inkscape:connector-curvature="0" />
  <path
     inkscape:connector-curvature="0"
     style="fill:#000000;fill-opacity:0.19434629;fill-rule:nonzero"
     id="path3800"
     d="M 63,0.5 63,63 1,63 2,64 62,64 64,62 64,1 z" />
  <path
     inkscape:connector-curvature="0"
     style="color:#000000;fill:#d4ddc7;fill-opacity:1;fill-rule:nonzero;stroke:none;stroke-width:1;marker:none;visibility:visible;display:inline;overflow:visible;enable-background:accumulate"
     d="m 17,19 0,30 30,0 0,-21.40625 4.296875,-4.296875 -3.59375,-3.59375 -15.703126,15.703125 -6.328124,-6.328125 -3.59375,3.59375 9.921874,9.921875 L 42,32.59375 42,44 l -19.999999,0 0,-11.40625 -2.421875,-2.421875 2.421875,-2.421875 0,-3.75 16.40625,0 L 43.40625,19 17,19 z"
     id="rect2987"
     inkscape:transform-center-x="12.859756"
     inkscape:transform-center-y="-15" />
</svg>
