<?xml version="1.0" encoding="UTF-8" standalone="no"?>
<!-- Created with Inkscape (http://www.inkscape.org/) -->

<svg
   xmlns:dc="http://purl.org/dc/elements/1.1/"
   xmlns:cc="http://creativecommons.org/ns#"
   xmlns:rdf="http://www.w3.org/1999/02/22-rdf-syntax-ns#"
   xmlns:svg="http://www.w3.org/2000/svg"
   xmlns="http://www.w3.org/2000/svg"
   xmlns:sodipodi="http://sodipodi.sourceforge.net/DTD/sodipodi-0.dtd"
   xmlns:inkscape="http://www.inkscape.org/namespaces/inkscape"
   width="64"
   height="64"
   id="svg13094"
   version="1.1"
   inkscape:version="0.91+devel r"
   sodipodi:docname="distributor-logo-ubuntu.svg">
  <sodipodi:namedview
     id="base"
     pagecolor="#ffffff"
     bordercolor="#666666"
     borderopacity="1.0"
     inkscape:pageopacity="0"
     inkscape:pageshadow="2"
     inkscape:zoom="11.313709"
     inkscape:cx="31.505992"
     inkscape:cy="32.250464"
     inkscape:document-units="px"
     inkscape:current-layer="svg13094"
     showgrid="true"
     inkscape:snap-bbox="true"
     inkscape:bbox-paths="true"
     inkscape:bbox-nodes="true"
     inkscape:snap-bbox-edge-midpoints="true"
     inkscape:snap-bbox-midpoints="true"
     inkscape:object-paths="true"
     inkscape:snap-intersection-paths="true"
     inkscape:object-nodes="true"
     inkscape:snap-smooth-nodes="true"
     inkscape:snap-midpoints="true"
     inkscape:snap-object-midpoints="true"
     inkscape:snap-center="true"
     showguides="true"
     inkscape:guide-bbox="true"
     inkscape:window-width="1920"
     inkscape:window-height="1023"
     inkscape:window-x="-10"
     inkscape:window-y="35"
     inkscape:window-maximized="1"
     inkscape:snap-global="true"
     fit-margin-top="0"
     fit-margin-left="0"
     fit-margin-right="0"
     fit-margin-bottom="0"
     showborder="true"
     inkscape:showpageshadow="false"
     inkscape:snap-page="true">
    <inkscape:grid
       type="xygrid"
       id="grid3075"
       empspacing="5"
       visible="true"
       enabled="true"
       snapvisiblegridlinesonly="true"
       originx="1.6362304e-08px"
       originy="18px" />
  </sodipodi:namedview>
  <defs
     id="defs13096" />
  <metadata
     id="metadata13099">
    <rdf:RDF>
      <cc:Work
         rdf:about="">
        <dc:format>image/svg+xml</dc:format>
        <dc:type
           rdf:resource="http://purl.org/dc/dcmitype/StillImage" />
        <dc:title></dc:title>
      </cc:Work>
    </rdf:RDF>
  </metadata>
  <path
     id="path3983"
     d="m 0,4 0,30 0,28 2,2 30,0 30,0 2,-2 L 64,34 64,4 32,4 0,4 z"
     style="color:#000000;fill:#e06043;fill-opacity:1;fill-rule:nonzero;stroke:none;stroke-width:2.28571415;marker:none;visibility:visible;display:inline;overflow:visible;enable-background:accumulate"
     inkscape:connector-curvature="0" />
  <path
     style="color:#000000;fill:#ff8d55;fill-opacity:1;fill-rule:nonzero;stroke:none;marker:none;visibility:visible;display:inline;overflow:visible;enable-background:accumulate"
     d="M 2 0 L 0 1 L 0 4 L 32 4 L 64 4 L 64 1 L 62 0 L 32 0 L 2 0 z "
     id="path6502" />
  <path
     d="M 64,6 62,4 64,3 z"
     id="path3028"
     style="fill:#f0774d;fill-opacity:1"
     inkscape:connector-curvature="0" />
  <g
     id="g3043"
     inkscape:export-filename="folder.png"
     inkscape:export-xdpi="90"
     inkscape:export-ydpi="90"
     transform="translate(-0.62500009,0.082283)" />
  <g
     id="scalable"
     transform="matrix(1.0385892,0,0,1.0385892,1214.7222,1878.8121)"
     inkscape:label="#g3701"
     style="fill:#ffffff" />
  <path
     style="fill:#ffa274;fill-opacity:1;fill-rule:nonzero"
     d="M 0,3 0,6 2,4 Z"
     id="path4298"
     inkscape:connector-curvature="0"
     sodipodi:nodetypes="cccc" />
  <path
     style="color:#000000;fill:#f7f4e2;fill-opacity:1;fill-rule:nonzero;stroke:none;stroke-width:2;marker:none;visibility:visible;display:inline;overflow:visible;enable-background:accumulate"
     d="m 41.47541,14.426486 c -1.221433,0.03949 -2.393746,0.700153 -3.04918,1.836066 -0.99882,1.731614 -0.42014,3.886426 1.311475,4.885246 1.731287,0.99882 4.017574,0.419485 5.016393,-1.311475 0.99882,-1.731615 0.387025,-3.919541 -1.344262,-4.918033 -0.593743,-0.343712 -1.294985,-0.491804 -1.934426,-0.491804 z m -9.180328,3.868853 c -2.503251,0 -4.815941,0.598418 -6.918033,1.639344 l 2.557377,4.491803 c 1.354608,-0.63128 2.769725,-1.04918 4.360656,-1.04918 5.522885,0 10.150634,4.304438 10.622951,9.704918 L 48,32.983864 c -0.250031,-3.988751 -2.009011,-7.565517 -4.688525,-10.196722 -1.37256,0.519322 -2.886796,0.466944 -4.262295,-0.327869 -1.372887,-0.792526 -2.224,-2.218619 -2.459016,-3.672131 -1.336656,-0.369823 -2.839286,-0.491803 -4.295082,-0.491803 z m -8.655738,2.655738 c -3.166846,2.117105 -5.549599,5.293307 -6.52459,9.081967 1.14244,0.92962 1.934426,2.376282 1.934426,3.967213 0,1.590931 -0.788721,3.034003 -1.934426,3.967213 0.977928,3.791598 3.357744,6.9678 6.52459,9.081967 l 2.655738,-4.393442 c -2.718031,-1.910814 -4.491803,-5.076308 -4.491803,-8.655738 0,-3.576492 1.773772,-6.739049 4.491803,-8.655738 l -2.655738,-4.393442 z m -9.704918,9.475409 c -1.997313,0 -3.672131,1.57352 -3.672131,3.573771 0,1.997639 1.674818,3.672131 3.672131,3.672131 2.000577,0 3.576708,-1.677756 3.573771,-3.672131 0,-1.997313 -1.576131,-3.573771 -3.573771,-3.573771 z m 28.983607,4.491804 c -0.472317,5.397543 -5.100066,9.704918 -10.622951,9.704918 -1.590931,0 -3.006048,-0.419207 -4.360656,-1.049181 l -2.557377,4.491804 c 2.102092,1.040601 4.414782,1.639344 6.918033,1.639344 1.455796,0 2.958426,-0.118715 4.295082,-0.491803 0.23371,-1.453838 1.086456,-2.876993 2.459016,-3.672131 1.375825,-0.793507 2.886797,-0.848822 4.262295,-0.327869 C 45.990989,42.578903 47.748665,39.005401 48,35.01665 L 42.918033,34.91829 z M 41.47541,46.328126 c -0.583297,0 -1.196841,0.211234 -1.737705,0.52459 -1.731615,0.99882 -2.310295,3.156895 -1.311475,4.885246 0.998166,1.734225 3.255257,2.342756 4.983606,1.344262 1.731287,-0.998819 2.343082,-3.192946 1.344262,-4.918032 -0.686769,-1.192381 -1.995237,-1.868706 -3.278688,-1.836066 z"
     id="path3841"
     inkscape:connector-curvature="0"
     inkscape:transform-center-x="2.8688525" />
</svg>
