<?xml version="1.0" encoding="UTF-8" standalone="no"?>
<!-- Created with Inkscape (http://www.inkscape.org/) -->

<svg
   xmlns:dc="http://purl.org/dc/elements/1.1/"
   xmlns:cc="http://creativecommons.org/ns#"
   xmlns:rdf="http://www.w3.org/1999/02/22-rdf-syntax-ns#"
   xmlns:svg="http://www.w3.org/2000/svg"
   xmlns="http://www.w3.org/2000/svg"
   xmlns:sodipodi="http://sodipodi.sourceforge.net/DTD/sodipodi-0.dtd"
   xmlns:inkscape="http://www.inkscape.org/namespaces/inkscape"
   width="64"
   height="64"
   id="svg13094"
   version="1.1"
   inkscape:version="0.91+devel r"
   sodipodi:docname="mysql-workbench.svg">
  <sodipodi:namedview
     id="base"
     pagecolor="#ffffff"
     bordercolor="#666666"
     borderopacity="1.0"
     inkscape:pageopacity="0"
     inkscape:pageshadow="2"
     inkscape:zoom="11.313709"
     inkscape:cx="33.143068"
     inkscape:cy="30.860718"
     inkscape:document-units="px"
     inkscape:current-layer="svg13094"
     showgrid="true"
     inkscape:snap-bbox="true"
     inkscape:bbox-paths="true"
     inkscape:bbox-nodes="true"
     inkscape:snap-bbox-edge-midpoints="true"
     inkscape:snap-bbox-midpoints="true"
     inkscape:object-paths="true"
     inkscape:snap-intersection-paths="true"
     inkscape:object-nodes="true"
     inkscape:snap-smooth-nodes="true"
     inkscape:snap-midpoints="true"
     inkscape:snap-object-midpoints="true"
     inkscape:snap-center="true"
     showguides="true"
     inkscape:guide-bbox="true"
     inkscape:window-width="1920"
     inkscape:window-height="1023"
     inkscape:window-x="-10"
     inkscape:window-y="35"
     inkscape:window-maximized="1"
     inkscape:snap-global="true"
     fit-margin-top="0"
     fit-margin-left="0"
     fit-margin-right="0"
     fit-margin-bottom="0"
     showborder="true"
     inkscape:showpageshadow="false"
     inkscape:snap-page="true">
    <inkscape:grid
       type="xygrid"
       id="grid3075"
       empspacing="5"
       visible="true"
       enabled="true"
       snapvisiblegridlinesonly="true"
       originx="0px"
       originy="18px" />
  </sodipodi:namedview>
  <defs
     id="defs13096" />
  <metadata
     id="metadata13099">
    <rdf:RDF>
      <cc:Work
         rdf:about="">
        <dc:format>image/svg+xml</dc:format>
        <dc:type
           rdf:resource="http://purl.org/dc/dcmitype/StillImage" />
        <dc:title></dc:title>
      </cc:Work>
    </rdf:RDF>
  </metadata>
  <path
     inkscape:connector-curvature="0"
     style="color:#000000;fill:#328bdf;fill-opacity:1;fill-rule:nonzero;stroke:none;stroke-width:2.28571415;marker:none;visibility:visible;display:inline;overflow:visible;enable-background:accumulate"
     d="m 0,4 0,30 0,28 2,2 30,0 30,0 2,-2 L 64,34 64,4 32,4 0,4 z"
     id="path3443" />
  <path
     inkscape:connector-curvature="0"
     style="color:#000000;fill:#6abfff;fill-opacity:1;fill-rule:nonzero;stroke:none;stroke-width:2.28571415000000000;marker:none;visibility:visible;display:inline;overflow:visible;enable-background:accumulate"
     d="M 2,0 0,1 0,4 32,4 64,4 64,1 62,0 32,0 2,0 z"
     id="path3447" />
  <path
     style="fill:#96d2ff;fill-opacity:1;fill-rule:nonzero"
     d="M 0,3 0,6 2,4 Z"
     id="path4298"
     inkscape:connector-curvature="0"
     sodipodi:nodetypes="cccc" />
  <path
     d="M 64,6 62,4 64,3 z"
     id="path3028"
     style="fill:#50a6f0;fill-opacity:1"
     inkscape:connector-curvature="0" />
  <g
     id="g3043"
     inkscape:export-filename="folder.png"
     inkscape:export-xdpi="90"
     inkscape:export-ydpi="90"
     transform="translate(-0.625,0.082283)" />
  <g
     id="scalable"
     transform="matrix(1.0385892,0,0,1.0385892,1214.7222,1878.8121)"
     inkscape:label="#g3701"
     style="fill:#ffffff" />
  <path
     inkscape:connector-curvature="0"
     style="fill:#ddedfa;fill-opacity:1;fill-rule:nonzero;stroke:none"
     d="M 10.71875,8.9375 A 0.60006002,0.60006002 0 0 0 10.65625,8.96875 0.60006002,0.60006002 0 0 0 10.5625,9 C 10.53168,9.0009121 10.49953,8.99834 10.46875,9 A 0.60006002,0.60006002 0 0 0 10.4375,9.03125 C 9.2509862,9.1071519 8.1104878,9.6647774 7.5625,11 c -0.5298943,1.291968 -0.1112679,2.560855 0.46875,3.5625 0.5800179,1.001645 1.3454958,1.839141 1.6875,2.3125 0.56514,0.78234 1.252207,1.600143 1.59375,2.34375 0.204903,0.445868 0.244204,1.002207 0.5,1.6875 0.532392,1.43365 1.010551,3.04562 1.75,4.46875 0.35811,0.689528 0.734833,1.435314 1.21875,2.09375 0.208994,0.285277 0.44579,0.446256 0.5625,0.5625 0.09139,0.09102 0.104575,0.139261 0.125,0.21875 -0.392809,0.784466 -0.499378,1.65719 -0.6875,2.25 -1.222191,3.853466 -0.799767,8.532003 1.03125,11.46875 0.270248,0.433647 0.723701,1.141088 1.40625,1.6875 0.682549,0.546412 1.691471,0.931436 2.75,0.5 0.951895,-0.387677 1.390887,-1.268723 1.5625,-2.09375 0.11011,-0.529352 0.179292,-1.04829 0.25,-1.5625 0.187472,0.374339 0.37526,0.75052 0.5625,1.125 a 0.60006002,0.60006002 0 0 0 0.03125,0.03125 c 1.062542,1.71116 2.864733,3.430172 4.40625,4.59375 0.552152,0.417051 1.199643,1.238611 2.1875,1.75 a 0.60006002,0.60006002 0 0 0 0.0625,0.03125 c 0.0053,0.0026 -0.0053,0.02867 0,0.03125 a 0.60006002,0.60006002 0 0 0 0.1875,0.125 c 0.01788,0.0071 0.04436,-0.0068 0.0625,0 0.02961,0.0111 0.03219,0.05215 0.0625,0.0625 A 0.60006002,0.60006002 0 0 0 30.125,47.6875 l 0,-0.0625 a 0.60006002,0.60006002 0 0 0 -0.4375,-0.59375 c -0.0066,-0.0063 -0.02465,0.0061 -0.03125,0 -0.209778,-0.193097 -0.433199,-0.40358 -0.53125,-0.5 -0.565699,-0.553726 -1.20304,-1.259976 -1.65625,-1.875 -1.335234,-1.812703 -2.509781,-3.792799 -3.59375,-5.875 -0.505115,-0.969741 -0.962594,-2.065352 -1.40625,-3.09375 -0.04041,-0.09271 -0.07841,-0.322679 -0.15625,-0.59375 -0.07784,-0.271071 -0.226684,-0.678256 -0.625,-0.90625 a 0.60006002,0.60006002 0 0 0 -0.8125,0.21875 c -0.416794,0.646399 -1.152213,1.267349 -1.59375,2.3125 -0.552062,1.306461 -0.686845,2.777765 -0.84375,4.25 C 18.35253,40.88252 18.236078,40.87257 18.15625,40.75 17.937395,40.413953 17.730207,39.941959 17.53125,39.46875 16.633455,37.336327 16.447577,33.679052 17.25,31.1875 c 0.08745,-0.270694 0.416404,-1.033653 0.65625,-1.78125 0.119923,-0.373798 0.232855,-0.759688 0.28125,-1.125 0.04162,-0.314151 0.02302,-0.641282 -0.125,-0.96875 l 0.03125,0 c -0.01283,-0.04174 -0.04783,-0.05404 -0.0625,-0.09375 -0.01173,-0.02087 0.01334,-0.04156 0,-0.0625 l -0.03125,0 C 17.676972,26.3649 17.036606,25.929176 16.8125,25.625 c -0.407795,-0.552985 -0.867332,-1.314969 -1.15625,-1.96875 -0.760064,-1.720353 -1.116117,-3.735522 -2,-5.65625 -0.444774,-0.967483 -1.137496,-1.890777 -1.6875,-2.65625 -0.661216,-0.920045 -1.323843,-1.512224 -1.75,-2.4375 -0.07727,-0.16659 -0.156785,-0.373289 -0.1875,-0.53125 -0.03072,-0.157961 -10e-4,-0.217201 0,-0.21875 A 0.60006002,0.60006002 0 0 0 10.09375,12 c 0.01249,-0.03904 0.02427,-0.06216 0.03125,-0.0625 0.0081,-0.0047 0.01547,0.0052 0.03125,0 a 0.60006002,0.60006002 0 0 0 0.1875,-0.0625 c 0.0525,0.0096 0.265934,-0.02879 0.53125,0.03125 0.353754,0.08005 0.760821,0.22692 0.96875,0.3125 1.181243,0.490405 2.123872,0.951328 3.09375,1.59375 0.345666,0.229305 0.84243,0.931053 1.71875,1.1875 a 0.60006002,0.60006002 0 0 0 0.1875,0.03125 l 0.65625,0 c 1.151906,0.232537 2.268908,0.111788 3.03125,0.34375 1.664149,0.505935 3.178989,1.314093 4.5625,2.1875 4.207299,2.655985 7.642257,6.418661 10,10.9375 0.347106,0.665848 0.510924,1.377077 0.875,2.21875 0.701102,1.618626 1.578622,3.22693 2.25,4.75 0.680455,1.544124 1.350035,3.162197 2.375,4.53125 0.444834,0.594216 1.151604,0.799178 1.84375,1.03125 0.692146,0.232072 1.417481,0.440074 1.78125,0.59375 0.70399,0.298332 1.710294,0.575192 2.15625,0.84375 1.095488,0.660891 2.182451,1.466896 3.25,2.21875 0.33259,0.234173 0.833171,0.501771 1.28125,0.8125 -2.024628,0.03999 -3.78784,0.276139 -5.28125,0.90625 -0.139947,0.05926 -0.461663,0.112768 -0.8125,0.25 -0.175419,0.06862 -0.35554,0.171941 -0.53125,0.34375 -0.17571,0.171809 -0.339003,0.410907 -0.375,0.6875 a 0.60006002,0.60006002 0 0 0 0.1875,0.5 c 0.0867,0.09114 0.133777,0.440857 0.4375,0.9375 0.441592,0.714482 1.106672,1.631198 1.84375,2.1875 0.666718,0.503099 1.39214,1.065586 2.15625,1.53125 1.366687,0.833249 2.791416,1.272989 3.9375,2 0.688517,0.436936 1.399942,0.998932 2.125,1.53125 0.215471,0.15797 0.529037,0.662518 1.21875,0.90625 a 0.60006002,0.60006002 0 0 0 0.78125,-0.5625 l 0,-0.0625 a 0.60006002,0.60006002 0 0 0 -0.125,-0.375 c -0.10355,-0.131658 -0.164288,-0.548987 -0.5,-1.03125 a 0.60006002,0.60006002 0 0 0 -0.0625,-0.0625 L 55,54.28125 c -0.01781,-0.02364 -0.04452,-0.03897 -0.0625,-0.0625 -0.984707,-1.288753 -2.203421,-2.413595 -3.5,-3.34375 -0.578605,-0.415348 -1.405993,-0.846886 -2.125,-1.3125 -0.462829,-0.299718 -0.648511,-0.561593 -0.90625,-0.84375 0.434622,-0.106752 0.897633,-0.186089 1.25,-0.28125 1.009972,-0.272131 2.017158,-0.203606 3.28125,-0.53125 a 0.60006002,0.60006002 0 0 0 0.03125,0 c 0.521809,-0.147617 1.038011,-0.317713 1.5625,-0.46875 a 0.60006002,0.60006002 0 0 0 0.4375,-0.5625 l 0,-0.3125 a 0.60006002,0.60006002 0 0 0 -0.1875,-0.40625 C 54.280337,45.642409 53.852831,44.83423 53.09375,44.1875 51.409492,42.75394 49.568797,41.300551 47.65625,40.09375 46.525685,39.3802 45.23327,38.965269 44.1875,38.4375 43.914615,38.301185 43.647621,38.23259 43.4375,38.15625 43.227379,38.07991 43.107485,37.977628 43.125,38 42.631424,37.371043 42.319491,36.477808 41.84375,35.5625 40.915895,33.775886 39.981717,31.824964 39.15625,29.9375 38.609706,28.688541 38.258451,27.372344 37.5,26.125 34.069408,20.485621 30.298145,17.023417 24.59375,13.6875 23.270169,12.913705 21.762919,12.639769 20.25,12.28125 a 0.60006002,0.60006002 0 0 0 -0.09375,0 C 19.389261,12.236283 18.612597,12.173249 17.84375,12.125 17.713197,12.062569 17.508959,11.914367 17.28125,11.71875 17.0392,11.510813 16.807431,11.288141 16.5,11.09375 15.352693,10.369312 13.168116,9.1837682 11.09375,9.03125 A 0.60006002,0.60006002 0 0 0 11.0625,9 C 11.000288,8.9958223 10.937017,8.9708838 10.875,8.96875 10.84274,8.96764 10.813445,8.9380388 10.78125,8.9375 a 0.60006002,0.60006002 0 0 0 -0.0625,0 z m 8.125,8.09375 c -0.58952,0 -1.032715,0.05748 -1.46875,0.15625 a 0.60006002,0.60006002 0 0 0 -0.46875,0.59375 l 0,0.09375 a 0.60006002,0.60006002 0 0 0 0.34375,0.53125 0.60006002,0.60006002 0 0 0 0.03125,0.03125 c 0.0041,0.006 0.02715,-0.0059 0.03125,0 0.280136,0.406108 0.581099,0.773401 0.78125,1.03125 0.0174,0.02241 0.04698,0.07153 0.0625,0.09375 0.232095,0.489439 0.454555,0.98101 0.6875,1.46875 a 0.60006002,0.60006002 0 0 0 0.96875,0.15625 c 0.02015,-0.02015 0.01811,-0.01807 0.0625,-0.0625 0.586762,-0.456595 0.846376,-1.194157 0.84375,-2.0625 A 0.60006002,0.60006002 0 0 0 20.5625,18.65625 C 20.52655,18.61831 20.50424,18.397707 20.25,18.03125 19.90526,17.530827 19.475373,17.390071 19.3125,17.25 a 0.60006002,0.60006002 0 0 0 -0.03125,-0.03125 0.60006002,0.60006002 0 0 0 -0.4375,-0.1875 z"
     id="path4167" />
</svg>
