<svg xmlns="http://www.w3.org/2000/svg" viewBox="0 0 64 64"><path d="m3 6v58h57l4-4v-59l-1-1h-26l-5 5h-28z" fill="#da8c1f" color="#000"/><path d="m58 13v51h2l4-4v-59l-1-1v18z" fill="#8c3d00" fill-opacity=".333"/><path d="m7 13h51v31h-51z" fill="#e2e2e2"/><g color="#000"><path d="m30 13l4 4h2l-4-4z" fill="#3e4959" fill-opacity=".23"/><path d="m0 13v50l1 1h59l1-1v-45l-1-1h-26l-5-5h-28z" fill="#f4ae3f"/><path d="m32.67 24l-7.261 11.281 3.784 1.206zm-21.758 6.598l-5.912 5.01.497.236 4.47-1.514.047-.024.331-.118 1.561-.52 4.706 14.687 3.311-2.034 15.845 1.679.024-.331-5.534-10.05-2.412-.78-3.595 2.365-5.7 3.76-.095-.189-4.73-11.447zm11.21 4.588c-.487.003-.897.082-1.206.26l-3.855 2.176 1.797 3.973 8.301-5.179c-1.504-.582-3.578-1.239-5.04-1.23" fill="#b54f00" fill-opacity=".386"/></g></svg>