<?xml version="1.0" encoding="UTF-8" standalone="no"?>
<!-- Created with Inkscape (http://www.inkscape.org/) -->

<svg
   xmlns:dc="http://purl.org/dc/elements/1.1/"
   xmlns:cc="http://creativecommons.org/ns#"
   xmlns:rdf="http://www.w3.org/1999/02/22-rdf-syntax-ns#"
   xmlns:svg="http://www.w3.org/2000/svg"
   xmlns="http://www.w3.org/2000/svg"
   xmlns:sodipodi="http://sodipodi.sourceforge.net/DTD/sodipodi-0.dtd"
   xmlns:inkscape="http://www.inkscape.org/namespaces/inkscape"
   id="svg13094"
   height="64"
   width="64"
   version="1.1"
   inkscape:version="0.91+devel r"
   sodipodi:docname="folder-activities.svg"
   inkscape:export-filename="folder.png"
   inkscape:export-xdpi="90"
   inkscape:export-ydpi="90">
  <sodipodi:namedview
     pagecolor="#ffffff"
     bordercolor="#666666"
     borderopacity="1"
     objecttolerance="10"
     gridtolerance="10"
     guidetolerance="10"
     inkscape:pageopacity="0"
     inkscape:pageshadow="2"
     inkscape:window-width="1920"
     inkscape:window-height="1023"
     id="namedview46"
     showgrid="false"
     inkscape:snap-bbox="true"
     inkscape:bbox-paths="true"
     inkscape:bbox-nodes="true"
     inkscape:snap-bbox-edge-midpoints="true"
     inkscape:snap-bbox-midpoints="true"
     inkscape:snap-nodes="true"
     inkscape:object-paths="true"
     inkscape:snap-intersection-paths="true"
     inkscape:object-nodes="true"
     inkscape:snap-smooth-nodes="true"
     inkscape:snap-midpoints="true"
     inkscape:snap-object-midpoints="true"
     inkscape:snap-center="true"
     fit-margin-top="0"
     fit-margin-left="0"
     fit-margin-right="0"
     fit-margin-bottom="0"
     inkscape:zoom="10.429825"
     inkscape:cx="44.878246"
     inkscape:cy="31.535637"
     inkscape:window-x="-10"
     inkscape:window-y="35"
     inkscape:window-maximized="1"
     inkscape:current-layer="svg13094"
     showguides="true"
     inkscape:guide-bbox="true"
     inkscape:snap-page="true"
     inkscape:snap-global="true"
     showborder="false">
    <inkscape:grid
       type="xygrid"
       id="grid3023"
       empspacing="5"
       visible="true"
       enabled="true"
       snapvisiblegridlinesonly="true"
       originx="-80px"
       originy="-75px" />
  </sodipodi:namedview>
  <defs
     id="defs11" />
  <metadata
     id="metadata13099">
    <rdf:RDF>
      <cc:Work
         rdf:about="">
        <dc:format>image/svg+xml</dc:format>
        <dc:type
           rdf:resource="http://purl.org/dc/dcmitype/StillImage" />
        <dc:title></dc:title>
      </cc:Work>
    </rdf:RDF>
  </metadata>
  <path
     style="color:#000000;display:inline;overflow:visible;visibility:visible;fill:#e38d16;fill-opacity:1;fill-rule:nonzero;stroke:none;marker:none;enable-background:accumulate"
     d="m 3,6 -10e-8,58.000001 L 60,64 64,60 64,1 63,0 37,0 32,4.9999999 4,5 Z"
     id="path3833"
     inkscape:connector-curvature="0"
     sodipodi:nodetypes="cccccccccc" />
  <path
     sodipodi:nodetypes="cccccccc"
     id="path3802"
     d="m 58,13 0,51 2,0 4,-4 0,-59 -1,-1 0,18 z"
     inkscape:connector-curvature="0"
     style="opacity:1;fill:#8c3d00;fill-opacity:0.33273703;stroke:none;stroke-width:1;stroke-linecap:butt;stroke-linejoin:miter;stroke-miterlimit:4;stroke-dasharray:none;stroke-dashoffset:0;stroke-opacity:1;marker:none" />
  <path
     sodipodi:nodetypes="ccccc"
     d="m 7,13 51,0 0,31 -51,0 z"
     id="path3920"
     inkscape:connector-curvature="0"
     style="fill:#e2e2e2;fill-opacity:1;fill-rule:nonzero" />
  <path
     style="color:#000000;display:inline;overflow:visible;visibility:visible;fill:#3e4959;fill-opacity:0.22968199;fill-rule:nonzero;stroke-width:1;stroke-linecap:butt;stroke-linejoin:miter;stroke-miterlimit:4;stroke-dasharray:none;stroke-dashoffset:0;stroke-opacity:1;marker:none;enable-background:accumulate"
     d="m 30,13 4,4 2,0 -4,-4 z"
     id="path3982"
     inkscape:connector-curvature="0"
     sodipodi:nodetypes="ccccc" />
  <path
     id="path3916"
     d="m 0,13 0,50 1,1 59,0 1,-1 0,-45 -1,-1 -26,1e-6 -5,-5 L 1,12 Z"
     inkscape:connector-curvature="0"
     style="color:#000000;display:inline;overflow:visible;visibility:visible;fill:#fca834;fill-opacity:1;fill-rule:nonzero;stroke-width:1;stroke-linecap:butt;stroke-linejoin:miter;stroke-miterlimit:4;stroke-dasharray:none;stroke-dashoffset:0;stroke-opacity:1;marker:none;enable-background:accumulate"
     sodipodi:nodetypes="ccccccccccc"
     inkscape:export-xdpi="90"
     inkscape:export-ydpi="90" />
  <path
     inkscape:connector-curvature="0"
     style="color:#000000;display:inline;overflow:visible;visibility:visible;fill:#b54f00;fill-opacity:0.29606441;fill-rule:nonzero;stroke:none;stroke-width:1;marker:none;enable-background:accumulate"
     d="m 29.34375,25 c -2.424645,0 -4.397266,1.853839 -4.625,4.21875 1.072556,0.514267 2.084572,1.209572 2.96875,2.09375 0.884178,0.884178 1.579639,1.89635 2.09375,2.96875 C 32.146317,34.053672 34,32.080895 34,29.65625 34,27.07885 31.92115,25 29.34375,25 Z M 20,31.21875 c -1.990558,0 -3.981255,0.762505 -5.5,2.28125 -3.037489,3.037489 -3.037489,7.962511 0,11 3.037489,3.037489 7.962511,3.037489 11,0 3.037489,-3.037489 3.037489,-7.962511 0,-11 -1.518745,-1.518745 -3.509442,-2.28125 -5.5,-2.28125 z m -9.78125,12.5 C 7.8538389,43.946483 6,45.919106 6,48.34375 6,50.92115 8.0788504,53 10.65625,53 c 2.424645,0 4.397423,-1.853684 4.625,-4.21875 -1.0724,-0.514112 -2.084572,-1.209572 -2.96875,-2.09375 -0.884178,-0.884177 -1.579484,-1.896195 -2.09375,-2.96875 z"
     id="path3068" />
  <path
     inkscape:connector-curvature="0"
     id="path3065"
     d="m 29.34375,25 c -2.424645,0 -4.397266,1.853839 -4.625,4.21875 0.365838,0.175411 0.71342,0.375903 1.0625,0.59375 C 26.181767,27.64413 28.059219,26 30.34375,26 c 1.037442,0 1.977165,0.335686 2.75,0.90625 C 32.246816,25.759069 30.883708,25 29.34375,25 Z M 20,31.21875 c -1.990558,0 -3.981255,0.762505 -5.5,2.28125 -3.037489,3.037489 -3.037489,7.962511 0,11 0.147786,0.147786 0.312463,0.272845 0.46875,0.40625 C 12.47706,41.851233 12.652354,37.347646 15.5,34.5 c 1.518745,-1.518745 3.509442,-2.28125 5.5,-2.28125 1.741738,0 3.480563,0.586611 4.90625,1.75 C 25.772845,33.812463 25.647786,33.647786 25.5,33.5 23.981255,31.981255 21.990558,31.21875 20,31.21875 Z M 28.3125,32 c 0.59271,0.707955 1.083167,1.47695 1.46875,2.28125 0.136671,-0.01315 0.273253,-0.03794 0.40625,-0.0625 -0.420834,-0.674348 -0.917406,-1.323656 -1.5,-1.90625 C 28.571477,32.196477 28.432774,32.109537 28.3125,32 Z M 10.21875,43.71875 C 7.8538389,43.946483 6,45.919106 6,48.34375 c 0,1.539958 0.7590693,2.903066 1.90625,3.75 C 7.3356859,51.320915 7,50.381192 7,49.34375 c 0,-2.28453 1.6441296,-4.161983 3.8125,-4.5625 -0.217847,-0.349081 -0.418339,-0.696663 -0.59375,-1.0625 z M 13,47.3125 c 0.109537,0.120274 0.196477,0.258977 0.3125,0.375 0.582594,0.582594 1.231902,1.079166 1.90625,1.5 0.02456,-0.132997 0.04935,-0.269579 0.0625,-0.40625 C 14.47695,48.395666 13.707955,47.90521 13,47.3125 Z"
     style="color:#000000;display:inline;overflow:visible;visibility:visible;fill:#8c3d00;fill-opacity:0.13327371;fill-rule:nonzero;stroke:none;stroke-width:1;marker:none;enable-background:accumulate;opacity:1;stroke-linecap:butt;stroke-linejoin:miter;stroke-miterlimit:4;stroke-dasharray:none;stroke-dashoffset:0;stroke-opacity:1" />
</svg>
