<?xml version="1.0" encoding="UTF-8" standalone="no"?>
<!-- Created with Inkscape (http://www.inkscape.org/) -->

<svg
   xmlns:dc="http://purl.org/dc/elements/1.1/"
   xmlns:cc="http://creativecommons.org/ns#"
   xmlns:rdf="http://www.w3.org/1999/02/22-rdf-syntax-ns#"
   xmlns:svg="http://www.w3.org/2000/svg"
   xmlns="http://www.w3.org/2000/svg"
   xmlns:sodipodi="http://sodipodi.sourceforge.net/DTD/sodipodi-0.dtd"
   xmlns:inkscape="http://www.inkscape.org/namespaces/inkscape"
   width="22"
   height="22"
   id="svg27665"
   version="1.1"
   inkscape:version="0.48.3.1 r9886"
   sodipodi:docname="deluge-torrent-panel.svg">
  <defs
     id="defs27667" />
  <sodipodi:namedview
     id="base"
     pagecolor="#ffffff"
     bordercolor="#666666"
     borderopacity="1.0"
     inkscape:pageopacity="0.0"
     inkscape:pageshadow="2"
     inkscape:zoom="32"
     inkscape:cx="9.817964"
     inkscape:cy="11.53016"
     inkscape:document-units="px"
     inkscape:current-layer="layer1"
     showgrid="true"
     inkscape:window-width="1920"
     inkscape:window-height="1033"
     inkscape:window-x="-10"
     inkscape:window-y="25"
     inkscape:window-maximized="1"
     inkscape:snap-bbox="true"
     inkscape:bbox-paths="true"
     inkscape:bbox-nodes="true"
     inkscape:snap-bbox-edge-midpoints="true"
     inkscape:snap-bbox-midpoints="true"
     inkscape:object-paths="true"
     inkscape:snap-intersection-paths="true"
     inkscape:object-nodes="true"
     inkscape:snap-smooth-nodes="true"
     inkscape:snap-midpoints="true"
     inkscape:snap-object-midpoints="true"
     inkscape:snap-center="true"
     inkscape:snap-global="true"
     showguides="false"
     inkscape:guide-bbox="true"
     fit-margin-top="0"
     fit-margin-left="0"
     fit-margin-right="0"
     fit-margin-bottom="0"
     inkscape:showpageshadow="false">
    <sodipodi:guide
       orientation="0,1"
       position="599.99999,299.99993"
       id="guide3572" />
    <sodipodi:guide
       orientation="1,0"
       position="294.41949,12.121716"
       id="guide3574" />
    <sodipodi:guide
       orientation="0,1"
       position="456.04389,599.99992"
       id="guide3576" />
    <sodipodi:guide
       orientation="0,1"
       position="-2.8882813e-06,-8.4406273e-05"
       id="guide3578" />
    <sodipodi:guide
       orientation="1,0"
       position="-2.8882813e-06,157.58366"
       id="guide3580" />
    <sodipodi:guide
       orientation="1,0"
       position="599.99999,121.21821"
       id="guide3582" />
    <sodipodi:guide
       orientation="0,1"
       position="599.99999,-714.34359"
       id="guide5928" />
    <sodipodi:guide
       orientation="0,1"
       position="599.99999,-414.34359"
       id="guide5930" />
    <sodipodi:guide
       orientation="0,1"
       position="599.99999,-1014.3435"
       id="guide5932" />
    <sodipodi:guide
       orientation="0,1"
       position="451.57029,524.99606"
       id="guide5294" />
    <sodipodi:guide
       orientation="0,1"
       position="451.57029,75.013516"
       id="guide5296" />
    <sodipodi:guide
       orientation="0,1"
       position="496.01499,-931.36409"
       id="guide5413" />
    <sodipodi:guide
       orientation="0,1"
       position="457.34859,-489.34389"
       id="guide5415" />
    <inkscape:grid
       type="xygrid"
       id="grid3070"
       empspacing="5"
       visible="true"
       enabled="true"
       snapvisiblegridlinesonly="true"
       originx="4.3243213e-05px"
       originy="-2.6947047e-05px" />
  </sodipodi:namedview>
  <metadata
     id="metadata27670">
    <rdf:RDF>
      <cc:Work
         rdf:about="">
        <dc:format>image/svg+xml</dc:format>
        <dc:type
           rdf:resource="http://purl.org/dc/dcmitype/StillImage" />
        <dc:title />
      </cc:Work>
    </rdf:RDF>
  </metadata>
  <g
     inkscape:label="Camada 1"
     inkscape:groupmode="layer"
     id="layer1"
     transform="translate(3364.4171,-2094.7186)">
    <path
       inkscape:connector-curvature="0"
       id="path2998"
       d="m -3353.4171,2097.7186 c -1.2514,0 -5.7143,6.4986 -5.7143,10.2857 0,3.7871 2.9271,5.7143 5.7143,5.7143 2.7871,0 5.7143,-1.9272 5.7143,-5.7143 0,-3.7871 -4.4629,-10.2857 -5.7143,-10.2857 z m -1.2857,4.7143 c 0.1143,8e-4 0.2449,0.034 0.3571,0.071 0.898,0.2943 1.3637,1.6646 1.0357,3.0715 -0.3279,1.4068 -1.352,2.2943 -2.25,2 -0.8979,-0.2943 -1.3636,-1.6646 -1.0357,-3.0715 0.2871,-1.2309 1.0967,-2.0766 1.8929,-2.0714 z"
       style="color:#000000;fill:#434a54;fill-opacity:0.6745098;fill-rule:nonzero;stroke:none;stroke-width:2.28571415;marker:none;visibility:visible;display:inline;overflow:visible;enable-background:accumulate" />
    <path
       style="font-size:medium;font-style:normal;font-variant:normal;font-weight:normal;font-stretch:normal;text-indent:0;text-align:start;text-decoration:none;line-height:normal;letter-spacing:normal;word-spacing:normal;text-transform:none;direction:ltr;block-progression:tb;writing-mode:lr-tb;text-anchor:start;baseline-shift:baseline;color:#000000;fill:#d1d4d6;fill-opacity:0.74329164;fill-rule:nonzero;stroke:none;stroke-width:2;marker:none;visibility:visible;display:inline;overflow:visible;enable-background:accumulate;font-family:Sans;-inkscape-font-specification:Sans"
       d="m -3354.2609,2096.7186 c -0.1903,0.098 -0.3434,0.2239 -0.5,0.3438 -0.3356,0.2569 -0.669,0.5652 -1,0.9375 -0.6621,0.7445 -1.3631,1.7106 -2.0312,2.8125 -1.3363,2.2038 -2.5624,4.8226 -2.5625,7.1875 0,2.2027 0.8952,4.0172 2.2187,5.1875 0.8934,0.7899 1.9749,1.2853 3.0938,1.5312 l 3.25,0 c 1.1097,-0.2459 2.1692,-0.7413 3.0625,-1.5312 1.3235,-1.1703 2.2187,-2.9848 2.2187,-5.1875 0,-2.3649 -1.2262,-4.9837 -2.5625,-7.1875 -0.6681,-1.1019 -1.3691,-2.068 -2.0312,-2.8125 -0.331,-0.3723 -0.6644,-0.6806 -1,-0.9375 -0.1565,-0.1199 -0.3169,-0.246 -0.5,-0.3438 z m 0.8438,1 c 1.2514,0 5.7187,6.4942 5.7187,10.2813 0,3.7871 -2.9316,5.7187 -5.7187,5.7187 -2.7872,0 -5.7188,-1.9316 -5.7188,-5.7187 0,-3.7871 4.4674,-10.2813 5.7188,-10.2813 z m -1.2813,4.7188 c -0.7962,-0.01 -1.6191,0.8316 -1.9062,2.0625 -0.3279,1.4069 0.1333,2.7682 1.0312,3.0625 0.898,0.2943 1.9222,-0.5932 2.25,-2 0.328,-1.4069 -0.1332,-2.7682 -1.0312,-3.0625 -0.1122,-0.037 -0.2295,-0.062 -0.3438,-0.062 z"
       id="path2997"
       inkscape:connector-curvature="0"
       sodipodi:nodetypes="cscccscccscccccssssscccccc" />
  </g>
</svg>
