<?xml version="1.0" encoding="UTF-8" standalone="no"?>
<!-- Created with Inkscape (http://www.inkscape.org/) -->

<svg
   xmlns:dc="http://purl.org/dc/elements/1.1/"
   xmlns:cc="http://creativecommons.org/ns#"
   xmlns:rdf="http://www.w3.org/1999/02/22-rdf-syntax-ns#"
   xmlns:svg="http://www.w3.org/2000/svg"
   xmlns="http://www.w3.org/2000/svg"
   xmlns:sodipodi="http://sodipodi.sourceforge.net/DTD/sodipodi-0.dtd"
   xmlns:inkscape="http://www.inkscape.org/namespaces/inkscape"
   width="24"
   height="24"
   id="svg13094"
   version="1.1"
   inkscape:version="0.48.3.1 r9886"
   sodipodi:docname="applications-education.svg">
  <sodipodi:namedview
     id="base"
     pagecolor="#ffffff"
     bordercolor="#666666"
     borderopacity="1.0"
     inkscape:pageopacity="0.0"
     inkscape:pageshadow="2"
     inkscape:zoom="32.000001"
     inkscape:cx="12.907332"
     inkscape:cy="10.417389"
     inkscape:document-units="px"
     inkscape:current-layer="layer1"
     showgrid="true"
     inkscape:snap-bbox="true"
     inkscape:bbox-paths="true"
     inkscape:bbox-nodes="true"
     inkscape:snap-bbox-edge-midpoints="true"
     inkscape:snap-bbox-midpoints="true"
     inkscape:object-paths="true"
     inkscape:snap-intersection-paths="true"
     inkscape:object-nodes="true"
     inkscape:snap-smooth-nodes="true"
     inkscape:snap-midpoints="true"
     inkscape:snap-object-midpoints="true"
     inkscape:snap-center="true"
     showguides="false"
     inkscape:guide-bbox="true"
     inkscape:window-width="1920"
     inkscape:window-height="1027"
     inkscape:window-x="-10"
     inkscape:window-y="31"
     inkscape:window-maximized="1"
     inkscape:snap-global="true"
     fit-margin-top="0"
     fit-margin-left="0"
     fit-margin-right="0"
     fit-margin-bottom="0"
     showborder="true"
     inkscape:showpageshadow="false">
    <sodipodi:guide
       id="guide16149"
       position="6601.5878,647.00745"
       orientation="0,1" />
    <sodipodi:guide
       id="guide16151"
       position="6374.4449,597.99875"
       orientation="0,1" />
    <sodipodi:guide
       id="guide16153"
       position="6440.1591,622.50305"
       orientation="0,1" />
    <sodipodi:guide
       id="guide17725"
       position="6433.7306,542.35585"
       orientation="0,1" />
    <sodipodi:guide
       id="guide9456"
       position="6931.2289,150.48606"
       orientation="1,0" />
    <sodipodi:guide
       id="guide9458"
       position="6755.4789,515.53501"
       orientation="0,1" />
    <sodipodi:guide
       id="guide9468"
       position="6526.7092,460.6296"
       orientation="0,1" />
    <sodipodi:guide
       id="guide9470"
       position="6551.2289,481.99958"
       orientation="0,1" />
    <sodipodi:guide
       id="guide11159"
       position="6419.2289,196.00006"
       orientation="1,0" />
    <sodipodi:guide
       id="guide13980"
       position="6732.2601,460.03461"
       orientation="1,0" />
    <sodipodi:guide
       orientation="0,1"
       position="4878.229,-914.9999"
       id="guide3972" />
    <sodipodi:guide
       orientation="1,0"
       position="5058.229,-1042.9999"
       id="guide3974" />
    <sodipodi:guide
       orientation="0,1"
       position="4752.229,-1277.9998"
       id="guide3976" />
    <sodipodi:guide
       orientation="1,0"
       position="4725.229,-1136.9999"
       id="guide3978" />
    <sodipodi:guide
       orientation="1,0"
       position="74.999929,328.00006"
       id="guide4287" />
    <sodipodi:guide
       orientation="0,1"
       position="74.999929,328.00006"
       id="guide4289" />
    <inkscape:grid
       type="xygrid"
       id="grid3248"
       empspacing="5"
       visible="true"
       enabled="true"
       snapvisiblegridlinesonly="true"
       originx="9.7771128e-05px"
       originy="11.000061px" />
  </sodipodi:namedview>
  <defs
     id="defs13096" />
  <metadata
     id="metadata13099">
    <rdf:RDF>
      <cc:Work
         rdf:about="">
        <dc:format>image/svg+xml</dc:format>
        <dc:type
           rdf:resource="http://purl.org/dc/dcmitype/StillImage" />
        <dc:title />
      </cc:Work>
    </rdf:RDF>
  </metadata>
  <g
     transform="translate(8065.8735,-494.93235)"
     id="layer1"
     inkscape:groupmode="layer"
     inkscape:label="Camada 1">
    <path
       id="path3000"
       d="m -8061.8735,498.93235 0,12 16,0 0,-12 -16,0 z m 12.0313,4.1875 0.2812,0.0937 c 0,3e-5 0.125,0.12494 0.125,0.125 0,1.3e-4 0.062,0.156 0.062,0.15625 10e-5,2e-4 0,0.0481 0,0.0625 0.014,0.1152 0,0.0735 0,0.0937 l 0,0.0937 c 0,0.006 -0.031,0.0439 -0.031,0.0625 -0.01,0.0429 -0.02,0.083 -0.031,0.15625 -0.016,0.10486 -0.016,0.2138 -0.031,0.3125 l 0,0.0625 c 8e-4,-5e-4 0.25,-0.0625 0.25,-0.0625 0.044,0 0.094,0.0108 0.1562,0.0312 0.031,0.0102 0.093,0.031 0.094,0.0312 0,3e-4 0.093,0.062 0.094,0.0625 0,4e-4 0.062,0.0933 0.062,0.0937 0,5e-4 0.05,0.0665 0.062,0.0937 0.021,0.0546 0.021,0.0868 0.031,0.125 l 0,0.0312 c 0.022,0.0865 0,0.0297 0,0.0625 0.039,0.16546 0.072,0.34393 0.094,0.5 0.018,0.12681 2e-4,0.17935 0,0.28125 -2e-4,0.1019 5e-4,0.19962 0,0.3125 -5e-4,0.10159 0,0.20925 0,0.28125 3e-4,0.008 -3e-4,0.0242 0,0.0312 0.042,0.0534 0.1013,0.0852 0.1563,0.15625 l -0.8125,0.625 c -0.063,-0.0805 -0.1318,-0.18774 -0.2188,-0.3125 -0.093,-0.1337 -0.062,-0.1485 -0.062,-0.1875 -0.013,0.008 -0.017,0.0233 -0.031,0.0312 -0.062,0.0343 -0.1288,0.0465 -0.25,0.0625 -0.1213,0.016 -0.3293,-0.0168 -0.4688,-0.15625 -0.1735,-0.17313 -0.1775,-0.2828 -0.1875,-0.375 -0.01,-0.0922 0,-0.1849 0,-0.25 0.01,-0.13015 -0.028,-0.29617 0,-0.15625 -0.043,-0.21725 -0.031,-0.3995 -0.031,-0.5625 0,-0.21251 -0.03,-0.47525 0.031,-0.78125 -0.01,0.0341 0.016,-0.0897 0.031,-0.1875 0.014,-0.0978 0.047,-0.20428 0.062,-0.3125 0.01,-0.0488 0.021,-0.0843 0.031,-0.125 0,0.0136 0.031,0.0627 0.031,0.0625 0,-2.5e-4 0.062,0.12513 0.062,0.125 -1e-4,-6e-5 0.125,0.15628 0.125,0.15625 -1e-4,-10e-5 0.2812,0.0937 0.2812,0.0937 l 0.25,-0.0625 c -1e-4,1e-4 0.1251,-0.0938 0.125,-0.0937 0,1.2e-4 0.063,-0.12524 0.062,-0.125 0,3e-4 0.031,-0.0197 0.031,-0.0312 0.01,-0.0231 0,-0.0545 0,-0.0625 l -0.9688,-0.125 c 0,-0.0188 -2e-4,-0.0283 0,-0.0312 l 0,-0.0625 c 0,-0.0171 0.018,-0.0202 0.031,-0.0625 0,-0.0105 -0.01,-0.007 0,-0.0312 0.01,-0.0123 0.031,-0.0623 0.031,-0.0625 0,-2e-4 0.094,-0.0936 0.094,-0.0937 l 0.094,-0.0937 c 10e-5,0 0.2812,-0.0625 0.2813,-0.0625 z m -6.9688,0.40625 c 0.1446,-0.0284 0.3737,-0.0326 0.5938,0.1875 0.2275,0.22727 0.1867,0.39901 0.1875,0.5 7e-4,0.10095 0,0.16865 0,0.15625 0,0.3715 -0.012,0.88675 -0.4375,1.3125 -0.084,0.0857 -0.1146,0.1366 -0.094,0.0937 0.021,-0.0425 0,-0.1144 0,-0.1875 0,-0.0731 0.029,-0.1281 0,-0.1875 -0.038,-0.076 -0.062,-0.0998 -0.094,-0.125 l -0.094,0.125 -0.125,0.25 c -0.044,0.17626 -0.1437,0.31909 -0.2187,0.46875 -0.1774,0.35182 -0.4137,0.6165 -0.7813,0.6875 -0.5239,0.10121 -0.9893,-0.19411 -1.3125,-0.625 -0.2732,-0.36428 -0.178,-0.73984 -0.125,-0.96875 0.017,-0.0754 0.018,-0.136 0.031,-0.1875 -0.061,-0.0862 -0.1196,-0.28279 -0.094,-0.4375 0.01,-0.0581 0.085,-0.0691 0.125,-0.125 l -0.062,-0.0312 c 0.032,-0.0536 0.1063,-0.13565 0.1563,-0.21875 0.025,-0.043 0.029,-0.0765 0.062,-0.125 0.01,-0.009 0.01,-0.0388 0.031,-0.0625 0.01,-0.0118 0.062,-0.031 0.062,-0.0312 0,-10e-5 0.062,-0.0624 0.062,-0.0625 0,-3e-5 0.062,0.11087 0.125,0.21875 0.063,0.10788 0.125,0.21876 0.125,0.21875 l 0.3125,-0.375 0.062,0.0312 0.031,0.0625 c 0,3e-5 0.062,0.12496 0.062,0.125 0,8e-5 0.031,0.15613 0.031,0.15625 l 0,0.0625 c 0,2e-4 -0.031,0.0477 -0.031,0.0312 l 0,0.0312 0,0.0312 c 2e-4,0.0206 0.01,-0.022 0,0.0312 0,0.0333 0.041,0.0382 0.031,0.0937 -0.01,0.0454 -0.069,0.0986 -0.094,0.15625 0.015,0.12252 0.046,0.2359 0.031,0.3125 -0.023,0.11466 -0.075,0.2292 -0.094,0.3125 -0.02,0.0833 0,0.13683 0,0.15625 0.1778,0.22021 0.2934,0.24719 0.2812,0.25 -0.013,0.003 0.087,-0.0388 0.1875,-0.4375 0,-0.0163 0.014,-0.0891 -0.031,-0.25 -0.045,-0.16095 -0.1438,-0.41333 -0.031,-0.75 0.052,-0.15576 0.1708,-0.2684 0.2188,-0.3125 0.1064,-0.1597 0.164,-0.1882 0.25,-0.25 0.086,-0.0618 0.1747,-0.10235 0.2812,-0.15625 0.1065,-0.0539 0.2304,-0.12785 0.375,-0.15625 z m 3.0625,0.34375 c 2e-4,0 0.2811,0.0624 0.2813,0.0625 1e-4,7e-5 0.1873,0.15609 0.1875,0.15625 0,1.6e-4 0.062,0.12475 0.062,0.125 0,5e-4 0.031,0.0999 0.031,0.125 0,0.0251 4e-4,0.05 0,0.0625 -8e-4,0.0252 0,0.0208 0,0.0312 l 0,0.0625 c 0,0.0352 0.012,0.0776 0,0.0312 0.086,0.3457 0.031,0.6409 0.031,0.84375 l 0,0.28125 0.75,0 c -0.058,0 0.078,-2.8e-4 0.1875,0 0.055,1.4e-4 0.1005,-0.0173 0.1875,0 0.087,0.0173 0.3052,0.0416 0.4375,0.34375 0.086,0.1958 0.1315,0.35009 0.1875,0.5 l -0.9375,0.375 c -0.029,-0.0779 -0.038,-0.14955 -0.062,-0.21875 0,-0.003 -0.031,0.003 -0.031,0 l -0.7187,0 0,0.15625 0,0.625 c -0.01,-0.0184 0,8.4e-4 0,0.0625 0,0.0209 0.026,0.0358 0.031,0.0625 0.01,0.0504 0.04,0.11099 0,0.28125 -0.02,0.0851 -0.086,0.2206 -0.2187,0.3125 -0.1325,0.0917 -0.283,0.107 -0.375,0.0937 -0.1649,-0.0235 -0.2523,-0.0857 -0.2813,-0.0937 l 0.2188,-0.84375 c -0.048,0.0127 -0.077,-0.002 -0.125,0.0312 -0.1215,0.0841 -0.1715,0.21245 -0.1875,0.28125 -0.031,0.1375 -0.031,0.128 -0.031,0.125 0,-0.006 -0.031,-0.0434 -0.031,-0.25 l 0,-0.6875 0,-0.15625 -0.5,0 c -0.061,0 -0.1245,-8e-5 -0.1875,0 -0.032,4e-5 -0.073,3e-5 -0.094,0 -0.01,-2e-5 -0.021,6e-5 -0.031,0 0,-6e-5 -0.021,4.3e-4 -0.031,0 0,-2.2e-4 -0.031,1e-5 -0.031,0 -1e-4,-10e-6 -0.4375,-0.53125 -0.4375,-0.53125 0.017,-0.24577 0.071,-0.41761 0.094,-0.53125 l 0.4063,0.0625 0.094,0 c 0.062,-8e-5 0.1625,0.0282 0.2188,0 l 0.5,0 0,-0.28125 c 0,-0.27352 -3e-4,-0.48749 -0.031,-0.59375 -0.034,-0.13579 -0.01,-0.20415 0,-0.28125 l -0.125,-0.0625 c 0.054,-0.0906 0.1338,-0.2163 0.2188,-0.34375 0.01,-0.0126 0.01,-0.0384 0.031,-0.0625 0.01,-0.012 0.031,-0.031 0.031,-0.0312 0,-2e-4 0.093,-0.0624 0.094,-0.0625 2e-4,-10e-5 0.1873,-0.0625 0.1875,-0.0625 z m -5.4062,0.65625 c 0,-3e-5 0.059,0.0684 0.094,0.125 0.015,0.0251 0.031,0.0625 0.031,0.0625 l 0.031,0.0312 c 0,0 0.045,-0.0421 0.062,-0.0625 0,-0.006 -0.01,-0.0242 0,-0.0312 l -0.2187,-0.125 z m 5,0 c 0,-2.5e-4 0.064,0.12516 0.062,0.125 -2e-4,-1.6e-4 0.1876,0.15632 0.1875,0.15625 -2e-4,-10e-5 0.2814,0.0625 0.2812,0.0625 0,1e-4 0.033,-0.0213 0.062,-0.0312 l -0.5937,-0.3125 z m -4.4375,0.3125 c 5e-4,0.003 0,0.0312 0,0.0312 0,0 0.021,0.003 0.031,0 l 0,-0.0312 -0.031,0 z m -3.2813,7.09375 0,2 16,0 0,-2 -16,0 z"
       style="color:#000000;fill:#434a54;fill-opacity:0.6745098;fill-rule:nonzero;stroke:none;stroke-width:2;marker:none;visibility:visible;display:inline;overflow:visible;enable-background:accumulate"
       inkscape:connector-curvature="0" />
    <path
       style="font-size:medium;font-style:normal;font-variant:normal;font-weight:normal;font-stretch:normal;text-indent:0;text-align:start;text-decoration:none;line-height:normal;letter-spacing:normal;word-spacing:normal;text-transform:none;direction:ltr;block-progression:tb;writing-mode:lr-tb;text-anchor:start;baseline-shift:baseline;color:#000000;fill:#d1d4d6;fill-opacity:0.74329164000000003;fill-rule:nonzero;stroke:none;stroke-width:2;marker:none;visibility:visible;display:inline;overflow:visible;enable-background:accumulate;font-family:Sans;-inkscape-font-specification:Sans"
       d="M 3 3 L 3 4 L 3 16 L 3 17 L 3 19 L 3 20 L 4 20 L 20 20 L 21 20 L 21 19 L 21 17 L 21 16 L 21 4 L 21 3 L 20 3 L 4 3 L 3 3 z M 4 4 L 20 4 L 20 16 L 4 16 L 4 4 z M 16.03125 8.1875 C 16.03115 8.1875 15.7501 8.25 15.75 8.25 L 15.65625 8.34375 C 15.65625 8.34385 15.5625 8.4373 15.5625 8.4375 C 15.5625 8.4377 15.54125 8.4877 15.53125 8.5 C 15.52125 8.5242 15.53125 8.52075 15.53125 8.53125 C 15.51825 8.57355 15.5 8.57665 15.5 8.59375 L 15.5 8.65625 C 15.4998 8.65915 15.5 8.6687 15.5 8.6875 L 16.46875 8.8125 C 16.46875 8.8205 16.47875 8.8519 16.46875 8.875 C 16.46875 8.8564 16.5 8.8185 16.5 8.8125 L 16.5 8.71875 C 16.5 8.69855 16.514 8.7402 16.5 8.625 C 16.5 8.6106 16.5001 8.5627 16.5 8.5625 C 16.5 8.56225 16.4375 8.40638 16.4375 8.40625 C 16.4375 8.40619 16.3125 8.28128 16.3125 8.28125 L 16.03125 8.1875 z M 16.46875 8.875 C 16.46875 8.8865 16.4375 8.90655 16.4375 8.90625 C 16.4385 8.90601 16.375 9.03137 16.375 9.03125 C 16.3751 9.03115 16.2499 9.1251 16.25 9.125 L 16 9.1875 C 16 9.1875 15.71865 9.09365 15.71875 9.09375 C 15.71875 9.09378 15.59365 8.93744 15.59375 8.9375 C 15.59375 8.93763 15.53125 8.81225 15.53125 8.8125 C 15.53125 8.8127 15.5 8.7636 15.5 8.75 C 15.49 8.7907 15.47875 8.8262 15.46875 8.875 C 15.45375 8.98322 15.42025 9.0897 15.40625 9.1875 C 15.39125 9.2853 15.365 9.4091 15.375 9.375 C 15.314 9.681 15.34375 9.94374 15.34375 10.15625 C 15.34375 10.31925 15.332 10.5015 15.375 10.71875 L 15.40625 10.71875 L 15.40625 10.875 L 15.40625 11.21875 L 15.875 10.90625 L 15.90625 10.90625 L 15.9375 10.90625 L 16.21875 10.9375 C 16.16175 11.0036 16.11605 11.0265 16.03125 11.125 L 16.03125 11.15625 C 16.01025 11.18065 15.98975 11.1633 15.96875 11.1875 C 15.80965 11.37217 15.70045 11.51109 15.65625 11.5625 C 15.784804 11.641783 15.93421 11.66905 16.03125 11.65625 C 16.15245 11.64025 16.21925 11.62805 16.28125 11.59375 C 16.29525 11.58585 16.2995 11.5705 16.3125 11.5625 C 16.3125 11.6015 16.282 11.6163 16.375 11.75 C 16.462 11.87476 16.53075 11.982 16.59375 12.0625 L 17.40625 11.4375 C 17.35125 11.36645 17.292 11.33465 17.25 11.28125 C 17.2497 11.27425 17.2503 11.258 17.25 11.25 C 17.25 11.178 17.2495 11.07034 17.25 10.96875 C 17.2505 10.85587 17.2498 10.75815 17.25 10.65625 C 17.2502 10.55435 17.268 10.50181 17.25 10.375 C 17.228 10.21893 17.19525 10.04046 17.15625 9.875 C 17.15625 9.8422 17.17825 9.899 17.15625 9.8125 L 17.15625 9.78125 C 17.14625 9.74305 17.146 9.71085 17.125 9.65625 C 17.113 9.62905 17.0625 9.563 17.0625 9.5625 C 17.0625 9.5621 17 9.46915 17 9.46875 C 16.999 9.46825 16.90625 9.40655 16.90625 9.40625 C 16.90525 9.40605 16.8435 9.3852 16.8125 9.375 C 16.7503 9.3546 16.70025 9.34375 16.65625 9.34375 C 16.65625 9.34375 16.40705 9.40575 16.40625 9.40625 L 16.40625 9.34375 C 16.42125 9.24505 16.4215 9.13611 16.4375 9.03125 C 16.4485 8.958 16.45875 8.9179 16.46875 8.875 z M 16.03125 11.125 L 15.9375 10.96875 L 15.9375 11.03125 L 16.03125 11.125 z M 15.40625 11.21875 C 15.41546 11.261862 15.432663 11.318698 15.46875 11.375 L 15.40625 11.21875 z M 9.0625 8.59375 C 8.9179 8.62215 8.794 8.6961 8.6875 8.75 C 8.581 8.8039 8.49225 8.84445 8.40625 8.90625 C 8.39421 8.914902 8.3861386 8.929702 8.375 8.9375 C 8.4081353 8.9852612 8.4331297 9.0171234 8.46875 9.0625 C 8.46875 9.0685 8.497 9.0575 8.5 9.0625 C 8.513 9.0792 8.53125 9.125 8.53125 9.125 C 8.53115 9.1249 8.57275 9.1959 8.59375 9.25 C 8.59375 9.25 8.53925 9.27815 8.53125 9.28125 C 8.56525 9.33585 8.56075 9.37685 8.59375 9.5 L 8.5625 9.46875 C 8.5425 9.39945 8.55225 9.33626 8.53125 9.28125 C 8.50325 9.29155 8.4014 9.31055 8.3125 9.34375 L 8.3125 9.1875 L 8.3125 9.15625 L 8.3125 8.96875 C 8.2641434 9.0066016 8.224346 9.054042 8.15625 9.15625 C 8.10825 9.20035 7.9895 9.31299 7.9375 9.46875 C 7.8247 9.80542 7.92375 10.0578 7.96875 10.21875 C 8.01375 10.37965 8 10.45245 8 10.46875 C 7.8995 10.86745 7.7995 10.90925 7.8125 10.90625 C 7.8247 10.90344 7.70905 10.87646 7.53125 10.65625 C 7.53125 10.63683 7.51125 10.5833 7.53125 10.5 C 7.55025 10.4167 7.602 10.30216 7.625 10.1875 C 7.64 10.1109 7.60875 9.99752 7.59375 9.875 C 7.61875 9.81735 7.6775 9.76415 7.6875 9.71875 C 7.6975 9.66325 7.65625 9.6583 7.65625 9.625 C 7.66625 9.5718 7.65645 9.61435 7.65625 9.59375 L 7.65625 9.5625 L 7.65625 9.53125 C 7.65625 9.54775 7.6875 9.5002 7.6875 9.5 L 7.6875 9.4375 C 7.6875 9.43738 7.65625 9.28133 7.65625 9.28125 C 7.65625 9.28121 7.59375 9.15628 7.59375 9.15625 L 7.5625 9.09375 L 7.5 9.0625 L 7.1875 9.4375 C 7.1875 9.43751 7.1255 9.32663 7.0625 9.21875 C 6.9995 9.11087 6.9375 8.99997 6.9375 9 C 6.9375 9.0001 6.875 9.0624 6.875 9.0625 C 6.875 9.0627 6.8225 9.08195 6.8125 9.09375 C 6.7915 9.11745 6.79125 9.14725 6.78125 9.15625 C 6.74825 9.20475 6.74375 9.23825 6.71875 9.28125 C 6.66875 9.36435 6.5945 9.4464 6.5625 9.5 L 6.625 9.53125 C 6.585 9.58715 6.51 9.59815 6.5 9.65625 C 6.4744 9.81096 6.53275 10.00755 6.59375 10.09375 C 6.58075 10.14525 6.5795 10.20585 6.5625 10.28125 C 6.5095 10.51016 6.4143 10.88572 6.6875 11.25 C 7.0107 11.68089 7.4761 11.97621 8 11.875 C 8.3676 11.804 8.60385 11.53932 8.78125 11.1875 C 8.85625 11.03784 8.956 10.89501 9 10.71875 L 9.125 10.46875 L 9.21875 10.34375 C 9.25075 10.36895 9.2745 10.39275 9.3125 10.46875 C 9.3415 10.52815 9.3125 10.58315 9.3125 10.65625 C 9.3125 10.72935 9.3335 10.80125 9.3125 10.84375 C 9.2919 10.88665 9.32225 10.8357 9.40625 10.75 C 9.83175 10.32425 9.84375 9.809 9.84375 9.4375 C 9.84375 9.4499 9.84445 9.3822 9.84375 9.28125 C 9.84295 9.18026 9.88375 9.00852 9.65625 8.78125 C 9.43615 8.56115 9.2071 8.56535 9.0625 8.59375 z M 8.3125 9.15625 C 8.3595 9.12775 8.45695 9.10085 8.46875 9.09375 L 8.46875 9.0625 C 8.45675 9.0705 8.364 9.12175 8.3125 9.15625 z M 16.1875 8.625 L 16.21875 8.6875 L 16.21875 8.71875 C 16.20875 8.71175 16.1935 8.72575 16.1875 8.71875 C 16.1775 8.71075 16.1975 8.6949 16.1875 8.6875 L 16.1875 8.625 z M 12.125 8.9375 C 12.1248 8.9375 11.9377 8.9999 11.9375 9 C 11.9365 9.0001 11.84375 9.0623 11.84375 9.0625 C 11.84375 9.0627 11.8225 9.08175 11.8125 9.09375 C 11.7915 9.11785 11.79125 9.14365 11.78125 9.15625 C 11.69625 9.2837 11.6165 9.4094 11.5625 9.5 L 11.6875 9.5625 C 11.6825 9.60105 11.6905 9.6437987 11.6875 9.6875 L 11.71875 9.6875 L 11.71875 9.71875 L 11.6875 9.71875 C 11.687148 9.7563633 11.6739 9.789434 11.6875 9.84375 C 11.7182 9.95001 11.71875 10.16398 11.71875 10.4375 L 11.71875 10.71875 L 11.21875 10.71875 C 11.16245 10.74695 11.062 10.71867 11 10.71875 L 10.90625 10.71875 L 10.5 10.65625 C 10.477 10.76989 10.42325 10.94173 10.40625 11.1875 C 10.40625 11.1875 10.84365 11.71874 10.84375 11.71875 C 10.84375 11.71876 10.875 11.71853 10.875 11.71875 C 10.885 11.71918 10.90625 11.71869 10.90625 11.71875 C 10.91625 11.71881 10.9275 11.71873 10.9375 11.71875 C 10.9585 11.71878 10.99925 11.71879 11.03125 11.71875 C 11.09425 11.71867 11.15775 11.71875 11.21875 11.71875 L 11.71875 11.71875 L 11.71875 11.875 L 11.71875 12.5625 C 11.71875 12.7691 11.75 12.8065 11.75 12.8125 C 11.75 12.8155 11.75025 12.825 11.78125 12.6875 C 11.79725 12.6187 11.84725 12.49035 11.96875 12.40625 C 12.01675 12.37305 12.04575 12.3877 12.09375 12.375 L 11.875 13.21875 C 11.904 13.22675 11.99135 13.289 12.15625 13.3125 C 12.24825 13.3258 12.39875 13.31045 12.53125 13.21875 C 12.66395 13.12685 12.73 12.99135 12.75 12.90625 C 12.79 12.73599 12.76 12.6754 12.75 12.625 C 12.745 12.5983 12.71875 12.5834 12.71875 12.5625 C 12.71875 12.50084 12.70875 12.4816 12.71875 12.5 L 12.71875 11.875 L 12.71875 11.71875 L 13.4375 11.71875 C 13.4375 11.72175 13.46875 11.71575 13.46875 11.71875 C 13.49275 11.78795 13.50225 11.8596 13.53125 11.9375 L 14.46875 11.5625 C 14.41275 11.41259 14.36725 11.2583 14.28125 11.0625 C 14.14895 10.76035 13.93075 10.73605 13.84375 10.71875 C 13.75675 10.70145 13.71125 10.71889 13.65625 10.71875 C 13.54675 10.71847 13.41075 10.71875 13.46875 10.71875 L 12.71875 10.71875 L 12.71875 10.4375 C 12.71875 10.23465 12.7735 9.93945 12.6875 9.59375 C 12.6995 9.64015 12.6875 9.5977 12.6875 9.5625 L 12.6875 9.5 C 12.6875 9.4896 12.6867 9.49395 12.6875 9.46875 C 12.6879 9.45625 12.6875 9.43135 12.6875 9.40625 C 12.6875 9.38115 12.65625 9.28175 12.65625 9.28125 C 12.65625 9.281 12.59375 9.15641 12.59375 9.15625 C 12.59355 9.15609 12.40635 9.00007 12.40625 9 C 12.40605 8.9999 12.1252 8.9375 12.125 8.9375 z M 16.34375 9.3125 C 16.36475 9.3368 16.355 9.3516 16.375 9.375 L 16.3125 9.34375 C 16.3225 9.33215 16.34375 9.3124 16.34375 9.3125 z M 6.71875 9.59375 L 6.9375 9.71875 C 6.9275 9.72575 6.9375 9.744 6.9375 9.75 C 6.9205 9.7704 6.875 9.8125 6.875 9.8125 L 6.84375 9.78125 C 6.84375 9.78125 6.8275 9.74385 6.8125 9.71875 C 6.7775 9.66215 6.71875 9.59372 6.71875 9.59375 z M 11.71875 9.59375 L 12.3125 9.90625 C 12.2835 9.91615 12.25 9.9376 12.25 9.9375 C 12.2502 9.9375 11.96855 9.8749 11.96875 9.875 C 11.96885 9.87507 11.78105 9.71859 11.78125 9.71875 C 11.78325 9.71891 11.71875 9.5935 11.71875 9.59375 z M 7.28125 9.90625 L 7.3125 9.90625 L 7.3125 9.9375 C 7.3025 9.9405 7.28125 9.9375 7.28125 9.9375 C 7.28125 9.9375 7.28175 9.90925 7.28125 9.90625 z M 16.15625 10.75 C 16.18025 10.7669 16.216 10.74805 16.25 10.78125 C 16.2501 10.81185 16.25 10.8444 16.25 10.875 L 15.9375 10.875 L 16.15625 10.75 z M 4 17 L 20 17 L 20 19 L 4 19 L 4 17 z "
       transform="translate(-8065.8735,494.93235)"
       id="rect3019" />
  </g>
</svg>
