<?xml version="1.0" encoding="UTF-8" standalone="no"?>
<!-- Created with Inkscape (http://www.inkscape.org/) -->

<svg
   xmlns:dc="http://purl.org/dc/elements/1.1/"
   xmlns:cc="http://creativecommons.org/ns#"
   xmlns:rdf="http://www.w3.org/1999/02/22-rdf-syntax-ns#"
   xmlns:svg="http://www.w3.org/2000/svg"
   xmlns="http://www.w3.org/2000/svg"
   xmlns:xlink="http://www.w3.org/1999/xlink"
   xmlns:sodipodi="http://sodipodi.sourceforge.net/DTD/sodipodi-0.dtd"
   xmlns:inkscape="http://www.inkscape.org/namespaces/inkscape"
   version="1.1"
   width="64"
   height="64"
   id="svg13094"
   inkscape:version="0.48.4 r9939"
   sodipodi:docname="document-open-recent.svg">
  <sodipodi:namedview
     pagecolor="#ffffff"
     bordercolor="#666666"
     borderopacity="1"
     objecttolerance="10"
     gridtolerance="10"
     guidetolerance="10"
     inkscape:pageopacity="0"
     inkscape:pageshadow="2"
     inkscape:window-width="1920"
     inkscape:window-height="1022"
     id="namedview59"
     showgrid="false"
     inkscape:zoom="7.375"
     inkscape:cx="72.789716"
     inkscape:cy="34.454965"
     inkscape:window-x="-5"
     inkscape:window-y="23"
     inkscape:window-maximized="1"
     inkscape:current-layer="svg13094" />
  <defs
     id="defs11">
    <linearGradient
       id="linearGradient3910">
      <stop
         style="stop-color:#db7a49;stop-opacity:1"
         offset="0"
         id="stop3912" />
      <stop
         id="stop3916"
         offset="0.26785564"
         style="stop-color:#c76736;stop-opacity:1" />
      <stop
         style="stop-color:#dc733b;stop-opacity:1"
         offset="1"
         id="stop3914" />
    </linearGradient>
    <linearGradient
       id="linearGradient4029">
      <stop
         id="stop4031"
         style="stop-color:#404957;stop-opacity:0.0684581"
         offset="0" />
      <stop
         id="stop4033"
         style="stop-color:#404957;stop-opacity:0.04063604"
         offset="1" />
    </linearGradient>
    <linearGradient
       x1="31"
       y1="64"
       x2="31"
       y2="2"
       id="linearGradient3984"
       gradientUnits="userSpaceOnUse">
      <stop
         id="stop3099"
         style="stop-color:#ececec;stop-opacity:1"
         offset="0" />
      <stop
         id="stop3875"
         style="stop-color:#ececec;stop-opacity:1"
         offset="0.5" />
      <stop
         id="stop3027"
         style="stop-color:#efefef;stop-opacity:1"
         offset="0.50492072" />
      <stop
         id="stop3873"
         style="stop-color:#e6e6e6;stop-opacity:1"
         offset="0.51612902" />
      <stop
         id="stop3101"
         style="stop-color:#e1e1e1;stop-opacity:1"
         offset="1" />
    </linearGradient>
    <radialGradient
       cx="48.30785"
       cy="47.141338"
       r="14.16129"
       id="radialGradient3996"
       gradientUnits="userSpaceOnUse"
       gradientTransform="matrix(0.93962333,0.77477937,-1.7975241,2.1799696,88.130548,-93.365748)">
      <stop
         id="stop3954"
         style="stop-color:#582222;stop-opacity:0.57170671;"
         offset="0" />
      <stop
         id="stop3958"
         style="stop-color:#55425e;stop-opacity:0.36191335"
         offset="0.5" />
      <stop
         id="stop3956"
         style="stop-color:#503e59;stop-opacity:0.08935018"
         offset="1" />
    </radialGradient>
    <radialGradient
       cx="59.356297"
       cy="21.042856"
       r="2"
       fx="59.356297"
       fy="21.042856"
       id="radialGradient3929"
       xlink:href="#radialGradient3996"
       gradientUnits="userSpaceOnUse"
       gradientTransform="matrix(-1.2617946e-7,26.9651,-5.0761799,-2.3753283e-8,166.81733,-1581.3882)" />
    <linearGradient
       x1="16.043959"
       y1="39.791424"
       x2="16.043959"
       y2="9.03304"
       id="linearGradient4035"
       xlink:href="#linearGradient4029"
       gradientUnits="userSpaceOnUse"
       gradientTransform="matrix(0.83870964,0,0,0.83870964,6.3225818,3.4516142)" />
    <linearGradient
       inkscape:collect="always"
       xlink:href="#linearGradient3976"
       id="linearGradient3918-7-0"
       gradientUnits="userSpaceOnUse"
       x1="29.875"
       y1="64.082283"
       x2="29.875"
       y2="2.0075951" />
    <linearGradient
       id="linearGradient3976">
      <stop
         id="stop3978"
         offset="0"
         style="stop-color:#cb622b;stop-opacity:1" />
      <stop
         style="stop-color:#da723b;stop-opacity:1"
         offset="0.08245245"
         id="stop3980" />
      <stop
         id="stop3982"
         offset="0.49040774"
         style="stop-color:#ef8d44;stop-opacity:1" />
      <stop
         style="stop-color:#e27f3f;stop-opacity:1"
         offset="0.51108748"
         id="stop3984" />
      <stop
         id="stop3986"
         offset="1"
         style="stop-color:#ef9c42;stop-opacity:1" />
    </linearGradient>
    <linearGradient
       y2="68.095047"
       x2="70.769905"
       y1="78.264999"
       x1="82.665672"
       gradientTransform="translate(-33.625,-31.894117)"
       gradientUnits="userSpaceOnUse"
       id="linearGradient3048-4-5"
       xlink:href="#linearGradient3910"
       inkscape:collect="always" />
  </defs>
  <metadata
     id="metadata13099">
    <rdf:RDF>
      <cc:Work
         rdf:about="">
        <dc:format>image/svg+xml</dc:format>
        <dc:type
           rdf:resource="http://purl.org/dc/dcmitype/StillImage" />
        <dc:title />
      </cc:Work>
    </rdf:RDF>
  </metadata>
  <path
     d="M 4,0 64,0 64,62 4,62 z"
     id="path3960"
     style="color:#000000;fill:#d66e37;fill-opacity:1;fill-rule:nonzero;stroke-width:1;stroke-linecap:butt;stroke-linejoin:miter;stroke-miterlimit:4;stroke-opacity:1;stroke-dasharray:none;stroke-dashoffset:0;marker:none;visibility:visible;display:inline;overflow:visible;enable-background:accumulate;stroke:none" />
  <path
     d="m 60,2 4,4 0,31 -4,-4 z"
     id="path3900"
     style="opacity:0.79033651999999999;fill:url(#radialGradient3929);fill-rule:nonzero" />
  <path
     d="m 60,33 4,4 0,25 -28.32258,0 z"
     id="path3934"
     style="fill:url(#radialGradient3996);fill-rule:nonzero" />
  <path
     d="M 63,0 V 61 H 4 v 1 h 59 1 V 61 0 h -1 z"
     id="path4299"
     style="fill:#000000;fill-opacity:0.07887819;fill-rule:nonzero" />
  <path
     d="M 60,2 60,33 35,62 37,62 60.78125,33.65625 61,33.375 61,33 61,3 z"
     id="path3922"
     style="fill:#000000;fill-rule:nonzero;fill-opacity:0.06137184" />
  <path
     d="M 0,2 60,2 60,33 34,64 0,64 z"
     id="path3982"
     style="fill:url(#linearGradient3984);fill-rule:nonzero" />
  <path
     d="M 0,2 60,2 60,33 34,64 0,64 z"
     id="path4257"
     style="color:#000000;fill:url(#linearGradient3918-7-0);fill-opacity:1;fill-rule:nonzero;stroke-width:1;stroke-linecap:butt;stroke-linejoin:miter;stroke-miterlimit:4;stroke-opacity:1;stroke-dasharray:none;stroke-dashoffset:0;marker:none;visibility:visible;display:inline;overflow:visible;enable-background:accumulate" />
  <path
     d="M 0,2 60,2 60,3 0,3 z"
     id="path4253"
     style="fill:#fed093;fill-opacity:1;fill-rule:nonzero;color:#000000;stroke:none;stroke-width:1;marker:none;visibility:visible;display:inline;overflow:visible;enable-background:accumulate;stroke-linecap:butt;stroke-linejoin:miter;stroke-miterlimit:4;stroke-opacity:1;stroke-dasharray:none;stroke-dashoffset:0" />
  <path
     d="m 0,63 35,0 -1,1 -34,0 z"
     id="path4255"
     style="fill:#000000;fill-opacity:0.10341803;fill-rule:nonzero" />
  <path
     d="M 4,0 64,0 64,1 4,1 z"
     id="path3878"
     style="color:#000000;fill:#fed093;fill-opacity:0.64440435;fill-rule:nonzero;stroke-width:1;stroke-linecap:butt;stroke-linejoin:miter;stroke-miterlimit:4;stroke-opacity:1;stroke-dasharray:none;stroke-dashoffset:0;marker:none;visibility:visible;display:inline;overflow:visible;enable-background:accumulate;stroke:none" />
  <path
     d="M 21,8 C 12.163444,8 5,15.163444 5,24 5,29.436691 7.7304615,34.233619 11.875,37.125 14.766381,41.26954 19.563309,44 25,44 33.836556,44 41,36.83656 41,28 41,22.563309 38.269538,17.766381 34.125,14.875 31.233619,10.730462 26.436691,8 21,8 z"
     id="path3045"
     style="color:#000000;fill:#504057;fill-opacity:0.23916967;fill-rule:nonzero;stroke:none;stroke-width:2.72527480000000022;marker:none;visibility:visible;display:inline;overflow:visible;enable-background:accumulate"
     inkscape:connector-curvature="0" />
  <path
     d="M 37.000001,24 A 16.000001,16.000001 0 0 1 5,24 16.000001,16.000001 0 1 1 37.000001,24 z"
     id="path3840"
     style="color:#000000;fill:#e9e5e9;fill-opacity:1;fill-rule:nonzero;stroke:none;stroke-width:1;marker:none;visibility:visible;display:inline;overflow:visible;enable-background:accumulate;stroke-linecap:butt;stroke-linejoin:miter;stroke-miterlimit:4;stroke-opacity:1;stroke-dasharray:none;stroke-dashoffset:0"
     inkscape:connector-curvature="0" />
  <path
     d="M 34,24 A 12.999999,12.999999 0 0 1 8.0000011,24 12.999999,12.999999 0 1 1 34,24 z"
     id="path4024"
     style="color:#000000;fill:url(#linearGradient4035);fill-opacity:1;fill-rule:nonzero;stroke:none;stroke-width:2.7252748;marker:none;visibility:visible;display:inline;overflow:visible;enable-background:accumulate"
     inkscape:connector-curvature="0" />
  <path
     d="M 21,11 C 13.820299,11 8,16.820299 8,24 8,27.910536 9.7362386,31.398072 12.46875,33.78125 10.476439,31.496901 9.25,28.519165 9.25,25.25 c 0,-7.179701 5.820299,-13 13,-13 3.269165,0 6.246901,1.226439 8.53125,3.21875 C 28.398072,12.736239 24.910536,11 21,11 z"
     id="path3866"
     style="color:#000000;fill:#524057;fill-opacity:0.13808665;fill-rule:nonzero;stroke:none;stroke-width:2.72527480000000022;marker:none;visibility:visible;display:inline;overflow:visible;enable-background:accumulate"
     inkscape:connector-curvature="0" />
  <path
     d="M 20.96875,12 C 20.438546,12 20,12.446 20,13 l 0,9.28125 C 19.403105,22.627292 19,23.260396 19,24 c 0,1.104569 0.895431,2 2,2 1.104569,0 2,-0.895431 2,-2 0,-0.739604 -0.403105,-1.372708 -1,-1.71875 L 22,13 c 0,-0.554 -0.438546,-1 -0.96875,-1 l -0.0625,0 z m 2.875,13.8125 c -0.255619,0 -0.522881,0.116631 -0.71875,0.3125 -0.391737,0.391737 -0.391737,1.014513 0,1.40625 l 3.53125,3.53125 c 0.391737,0.391737 1.014513,0.391737 1.40625,0 0.391737,-0.391737 0.391737,-1.014513 0,-1.40625 L 24.53125,26.125 c -0.195869,-0.195869 -0.431881,-0.3125 -0.6875,-0.3125 z"
     id="path3077"
     style="color:#000000;fill:#695870;fill-opacity:1;fill-rule:nonzero;stroke:none;stroke-width:2.28571415000000000;marker:none;visibility:visible;display:inline;overflow:visible;enable-background:accumulate"
     inkscape:connector-curvature="0" />
  <path
     d="m 22,13 0,9.28125 c 0.596895,0.346042 1,0.979146 1,1.71875 0,1.104569 -0.895431,2 -2,2 -0.291093,0 -0.563018,-0.07568 -0.8125,-0.1875 C 20.499976,26.509693 21.186524,27 22,27 c 0.300766,0 0.587851,-0.06857 0.84375,-0.1875 0,-0.253628 0.08538,-0.491631 0.28125,-0.6875 0.188188,-0.188188 0.441151,-0.303766 0.6875,-0.3125 0.01006,-3.56e-4 0.02123,0 0.03125,0 C 23.951768,25.56658 24,25.285816 24,25 24,24.260396 23.596895,23.627292 23,23.28125 L 23,14 c 0,-0.554 -0.438546,-1 -0.96875,-1 L 22,13 z m 6.0625,16.65625 c 0.391737,0.391737 0.391737,1.014513 0,1.40625 -0.391737,0.391737 -1.014513,0.391737 -1.40625,0 l 1,1 c 0.391737,0.391737 1.014513,0.391737 1.40625,0 0.391737,-0.391737 0.391737,-1.014513 0,-1.40625 l -1,-1 z"
     id="path3065"
     style="color:#000000;fill:#504057;fill-opacity:0.23916967;fill-rule:nonzero;stroke:none;stroke-width:2.72527480000000022;marker:none;visibility:visible;display:inline;overflow:visible;enable-background:accumulate"
     inkscape:connector-curvature="0" />
  <path
     d="M 34,64 60,33 c -2.328567,2.776369 -4.36141,3 -11,3 H 37 v 15 c 0,6.64407 0.04437,9.37018 -3,13 z"
     id="path4278"
     style="fill:url(#linearGradient3048-4-5);fill-rule:nonzero;color:#000000;fill-opacity:1;stroke:none;stroke-width:1;marker:none;visibility:visible;display:inline;overflow:visible;enable-background:accumulate" />
  <path
     d="m 59,32 c -2.328567,2.776369 -4.36141,3 -11,3 H 36 v 15 c 0,6.64407 0.04437,9.37018 -3,13 4,-5 4.000382,-8.35667 4,-13 V 36 h 11 c 5,0 8.041405,-0.38188 11,-4 z"
     id="path4282"
     style="color:#000000;fill:#fdb85c;fill-opacity:1;fill-rule:nonzero;stroke:none;stroke-width:1;marker:none;visibility:visible;display:inline;overflow:visible;enable-background:accumulate;stroke-linecap:butt;stroke-linejoin:miter;stroke-miterlimit:4;stroke-opacity:1;stroke-dasharray:none;stroke-dashoffset:0"
     inkscape:connector-curvature="0" />
  <g
     transform="translate(-0.375,-17.082283)"
     id="g3921">
    <g
       id="g3834"
       transform="translate(-3,3)">
      <path
         inkscape:connector-curvature="0"
         style="color:#000000;fill:#fee393;fill-opacity:0.15162455;fill-rule:nonzero;stroke:none;stroke-width:1;marker:none;visibility:visible;display:inline;overflow:visible;enable-background:accumulate"
         d="m 49,26 0,2 -2,0 0,1 3,0 0,-3 -1,0 z"
         transform="translate(2.375,-2.917717)"
         id="rect3836" />
      <rect
         y="22.082283"
         x="48.375"
         height="3"
         width="3"
         id="rect3963"
         style="color:#000000;fill:#6a1111;fill-opacity:0.20306863;fill-rule:nonzero;stroke:none;stroke-width:1;marker:none;visibility:visible;display:inline;overflow:visible;enable-background:accumulate" />
    </g>
    <use
       x="0"
       y="0"
       xlink:href="#g3834"
       id="use3905"
       transform="translate(7,-2.0019555e-8)"
       width="64"
       height="64" />
    <use
       height="64"
       width="64"
       transform="translate(7,7)"
       id="use3909"
       xlink:href="#g3834"
       y="0"
       x="0" />
    <use
       height="64"
       width="64"
       transform="translate(7,14)"
       id="use3913"
       xlink:href="#g3834"
       y="0"
       x="0" />
    <use
       height="64"
       width="64"
       transform="translate(7,21)"
       id="use3917"
       xlink:href="#g3834"
       y="0"
       x="0" />
    <use
       x="0"
       y="0"
       xlink:href="#g3834"
       id="use3911"
       transform="translate(0,7)"
       width="64"
       height="64" />
    <use
       x="0"
       y="0"
       xlink:href="#g3834"
       id="use3915"
       transform="translate(0,14)"
       width="64"
       height="64" />
    <use
       x="0"
       y="0"
       xlink:href="#g3834"
       id="use3919"
       transform="translate(0,21)"
       width="64"
       height="64" />
  </g>
</svg>
