<?xml version="1.0" encoding="UTF-8" standalone="no"?>
<!-- Created with Inkscape (http://www.inkscape.org/) -->

<svg
   xmlns:dc="http://purl.org/dc/elements/1.1/"
   xmlns:cc="http://creativecommons.org/ns#"
   xmlns:rdf="http://www.w3.org/1999/02/22-rdf-syntax-ns#"
   xmlns:svg="http://www.w3.org/2000/svg"
   xmlns="http://www.w3.org/2000/svg"
   xmlns:sodipodi="http://sodipodi.sourceforge.net/DTD/sodipodi-0.dtd"
   xmlns:inkscape="http://www.inkscape.org/namespaces/inkscape"
   version="1.0"
   width="24"
   height="24"
   id="svg2"
   inkscape:version="0.48.3.1 r9886"
   sodipodi:docname="help-contents.svg">
  <sodipodi:namedview
     pagecolor="#ffffff"
     bordercolor="#666666"
     borderopacity="1"
     objecttolerance="10"
     gridtolerance="10"
     guidetolerance="10"
     inkscape:pageopacity="0"
     inkscape:pageshadow="2"
     inkscape:window-width="1920"
     inkscape:window-height="1033"
     id="namedview32"
     showgrid="true"
     inkscape:zoom="32.000001"
     inkscape:cx="13.80115"
     inkscape:cy="9.956627"
     inkscape:window-x="-10"
     inkscape:window-y="25"
     inkscape:window-maximized="1"
     inkscape:current-layer="svg2"
     inkscape:snap-bbox="true"
     inkscape:bbox-paths="true"
     inkscape:bbox-nodes="true"
     inkscape:snap-bbox-edge-midpoints="true"
     inkscape:snap-bbox-midpoints="true"
     inkscape:object-paths="true"
     inkscape:snap-intersection-paths="true"
     inkscape:object-nodes="true"
     inkscape:snap-smooth-nodes="true"
     inkscape:snap-midpoints="true"
     inkscape:snap-object-midpoints="true"
     inkscape:snap-center="true"
     fit-margin-top="0"
     fit-margin-left="0"
     fit-margin-right="0"
     fit-margin-bottom="0"
     inkscape:snap-global="true">
    <inkscape:grid
       type="xygrid"
       id="grid3218"
       empspacing="5"
       visible="true"
       enabled="true"
       snapvisiblegridlinesonly="true"
       originx="-11px"
       originy="18px" />
  </sodipodi:namedview>
  <metadata
     id="metadata11">
    <rdf:RDF>
      <cc:Work
         rdf:about="">
        <dc:format>image/svg+xml</dc:format>
        <dc:type
           rdf:resource="http://purl.org/dc/dcmitype/StillImage" />
        <dc:title />
      </cc:Work>
    </rdf:RDF>
  </metadata>
  <defs
     id="defs4" />
  <path
     sodipodi:nodetypes="ccccc"
     inkscape:connector-curvature="0"
     id="path2990"
     d="m 10,18 3,0 0,2 -3,0 z"
     style="color:#000000;fill:#434a55;fill-opacity:0.6745098;fill-rule:nonzero;stroke:none;stroke-width:1;marker:none;visibility:visible;display:inline;overflow:visible;enable-background:accumulate" />
  <path
     sodipodi:nodetypes="cccccccccc"
     inkscape:connector-curvature="0"
     id="path2984"
     d="m 11,16 0,-3 1,-1 4,-1 L 17,9.9687506 17,7 16,6 8,6 7,7 7,9"
     style="fill:none;stroke:#434a55;stroke-width:2;stroke-linecap:butt;stroke-linejoin:miter;stroke-miterlimit:4;stroke-opacity:0.6745098;stroke-dasharray:none" />
  <path
     style="font-size:medium;font-style:normal;font-variant:normal;font-weight:normal;font-stretch:normal;text-indent:0;text-align:start;text-decoration:none;line-height:normal;letter-spacing:normal;word-spacing:normal;text-transform:none;direction:ltr;block-progression:tb;writing-mode:lr-tb;text-anchor:start;baseline-shift:baseline;color:#000000;fill:#d1d4d6;fill-opacity:0.74329164;fill-rule:nonzero;stroke:none;stroke-width:2;marker:none;visibility:visible;display:inline;overflow:visible;enable-background:accumulate;font-family:Sans;-inkscape-font-specification:Sans"
     d="M 7.21875,4 6.9375,4.25 6.625,4.53125 6.59375,4.5625 l -0.03125,0 -1,1 0,0.03125 L 5.53125,5.625 5.25,5.9375 5,6.21875 5,6.59375 5,7 5,9 5,10 6,10 6,9 6,7 6,6.59375 l 0.28125,-0.3125 1,-1 L 7.59375,5 8,5 l 8,0 0.40625,0 0.3125,0.28125 1,1 L 18,6.59375 18,7 l 0,2.96875 0,0.40625 -0.28125,0.28125 -1,1.03125 -0.1875,0.21875 -0.28125,0.0625 -3.71875,0.9375 L 12,13.4375 12,17 l -2,0 0,-4 0,-0.40625 0.28125,-0.3125 1,-1 0.21875,-0.1875 0.25,-0.0625 3.75,-0.9375 L 16,9.5625 16,7.4375 15.5625,7 8.4375,7 8,7.4375 8,9 l 0,1 1,0 0,-1 0,-1 6,0 0,1.1875 -0.03125,0 -3.46875,0.875 -0.25,0.0625 -0.21875,0.0625 -0.1875,0.15625 -0.21875,0.1875 -0.03125,0.03125 -0.03125,0 -1,1 0,0.03125 L 9.53125,11.625 9.25,11.9375 9,12.21875 9,12.59375 9,13 l 0,3 0,1 0,1 0,2 0,1 1,0 3,0 1,0 0,-1 0,-2 0,-1 -1,0 0,-1 0,-2.125 0.0625,-0.0625 3.40625,-0.875 0.03125,0 0.25,-0.0625 0.3125,-0.0625 0.21875,-0.25 0.15625,-0.1875 0.03125,-0.03125 0.96875,-0.96875 0,-0.03125 0.28125,-0.25 L 19,10.78125 19,10.375 19,9.96875 19,7 19,6.59375 19,6.21875 18.75,5.9375 18.46875,5.625 18.4375,5.59375 l 0,-0.03125 -1,-1 -0.03125,0 L 17.375,4.53125 17.0625,4.25 16.78125,4 16.40625,4 16,4 8,4 7.59375,4 7.21875,4 z M 10,18 l 3,0 0,2 -3,0 0,-2 z"
     id="rect3001"
     inkscape:connector-curvature="0" />
</svg>
