<?xml version="1.0" encoding="UTF-8" standalone="no"?>
<!-- Created with Inkscape (http://www.inkscape.org/) -->

<svg
   xmlns:dc="http://purl.org/dc/elements/1.1/"
   xmlns:cc="http://creativecommons.org/ns#"
   xmlns:rdf="http://www.w3.org/1999/02/22-rdf-syntax-ns#"
   xmlns:svg="http://www.w3.org/2000/svg"
   xmlns="http://www.w3.org/2000/svg"
   xmlns:sodipodi="http://sodipodi.sourceforge.net/DTD/sodipodi-0.dtd"
   xmlns:inkscape="http://www.inkscape.org/namespaces/inkscape"
   width="24"
   height="24"
   id="svg27665"
   version="1.1"
   inkscape:version="0.48.3.1 r9886"
   sodipodi:docname="keepassx.svg"
   inkscape:export-filename="keepassx.png"
   inkscape:export-xdpi="90"
   inkscape:export-ydpi="90">
  <defs
     id="defs27667" />
  <sodipodi:namedview
     id="base"
     pagecolor="#ffffff"
     bordercolor="#666666"
     borderopacity="1.0"
     inkscape:pageopacity="0.0"
     inkscape:pageshadow="2"
     inkscape:zoom="32"
     inkscape:cx="16.442964"
     inkscape:cy="9.40516"
     inkscape:document-units="px"
     inkscape:current-layer="layer1"
     showgrid="true"
     inkscape:window-width="1920"
     inkscape:window-height="1033"
     inkscape:window-x="-10"
     inkscape:window-y="25"
     inkscape:window-maximized="1"
     inkscape:snap-bbox="true"
     inkscape:bbox-paths="true"
     inkscape:bbox-nodes="true"
     inkscape:snap-bbox-edge-midpoints="true"
     inkscape:snap-bbox-midpoints="true"
     inkscape:object-paths="true"
     inkscape:snap-intersection-paths="true"
     inkscape:object-nodes="true"
     inkscape:snap-smooth-nodes="true"
     inkscape:snap-midpoints="true"
     inkscape:snap-object-midpoints="true"
     inkscape:snap-center="true"
     inkscape:snap-global="true"
     showguides="false"
     inkscape:guide-bbox="true"
     fit-margin-top="0"
     fit-margin-left="0"
     fit-margin-right="0"
     fit-margin-bottom="0"
     inkscape:showpageshadow="false">
    <sodipodi:guide
       orientation="0,1"
       position="599.99999,299.99993"
       id="guide3572" />
    <sodipodi:guide
       orientation="1,0"
       position="294.41949,12.121716"
       id="guide3574" />
    <sodipodi:guide
       orientation="0,1"
       position="456.04389,599.99992"
       id="guide3576" />
    <sodipodi:guide
       orientation="0,1"
       position="-2.8882813e-06,-8.4406273e-05"
       id="guide3578" />
    <sodipodi:guide
       orientation="1,0"
       position="-2.8882813e-06,157.58366"
       id="guide3580" />
    <sodipodi:guide
       orientation="1,0"
       position="599.99999,121.21821"
       id="guide3582" />
    <sodipodi:guide
       orientation="0,1"
       position="599.99999,-714.34359"
       id="guide5928" />
    <sodipodi:guide
       orientation="0,1"
       position="599.99999,-414.34359"
       id="guide5930" />
    <sodipodi:guide
       orientation="0,1"
       position="599.99999,-1014.3435"
       id="guide5932" />
    <sodipodi:guide
       orientation="0,1"
       position="451.57029,524.99606"
       id="guide5294" />
    <sodipodi:guide
       orientation="0,1"
       position="451.57029,75.013516"
       id="guide5296" />
    <sodipodi:guide
       orientation="0,1"
       position="496.01499,-931.36409"
       id="guide5413" />
    <sodipodi:guide
       orientation="0,1"
       position="457.34859,-489.34389"
       id="guide5415" />
    <inkscape:grid
       type="xygrid"
       id="grid3070"
       empspacing="5"
       visible="true"
       enabled="true"
       snapvisiblegridlinesonly="true"
       originx="4.3243213e-05px"
       originy="-2.6947047e-05px" />
  </sodipodi:namedview>
  <metadata
     id="metadata27670">
    <rdf:RDF>
      <cc:Work
         rdf:about="">
        <dc:format>image/svg+xml</dc:format>
        <dc:type
           rdf:resource="http://purl.org/dc/dcmitype/StillImage" />
        <dc:title />
      </cc:Work>
    </rdf:RDF>
  </metadata>
  <g
     inkscape:label="Camada 1"
     inkscape:groupmode="layer"
     id="layer1"
     transform="translate(3364.4171,-2092.7186)">
    <path
       sodipodi:nodetypes="ssccccccccccccccccccssssssss"
       inkscape:connector-curvature="0"
       id="path2998"
       d="m -3348.4171,2096.7186 c -2.2091,0 -4,1.7909 -4,4 0,0.5523 0.1101,1.0839 0.3125,1.5625 l -1.3125,1.3125 -4.875,-4.875 -2.125,0 0,2.125 4.875,4.875 -4.875,4.875 0,2.125 2.125,0 1,-1 2.875,0 0,-2.875 1,-1 4.875,4.875 2.125,0 0,-2.125 -4.875,-4.875 1.3125,-1.3125 c 0.4786,0.2024 1.0102,0.3125 1.5625,0.3125 2.2091,0 4,-1.7909 4,-4 0,-2.2091 -1.7909,-4 -4,-4 z m 0.9844,2 c 0.5609,0 1.0156,0.4547 1.0156,1.0156 0,0.5609 -0.4547,1.0157 -1.0156,1.0157 -0.5609,0 -1.0157,-0.4548 -1.0157,-1.0157 0,-0.5609 0.4548,-1.0156 1.0157,-1.0156 z"
       style="font-size:medium;font-style:normal;font-variant:normal;font-weight:normal;font-stretch:normal;text-indent:0;text-align:start;text-decoration:none;line-height:normal;letter-spacing:normal;word-spacing:normal;text-transform:none;direction:ltr;block-progression:tb;writing-mode:lr-tb;text-anchor:start;baseline-shift:baseline;color:#000000;fill:#434a54;fill-opacity:0.6745098;fill-rule:nonzero;stroke:none;stroke-width:2.28571415;marker:none;visibility:visible;display:inline;overflow:visible;enable-background:accumulate;font-family:Sans;-inkscape-font-specification:Sans" />
    <path
       style="font-size:medium;font-style:normal;font-variant:normal;font-weight:normal;font-stretch:normal;text-indent:0;text-align:start;text-decoration:none;line-height:normal;letter-spacing:normal;word-spacing:normal;text-transform:none;direction:ltr;block-progression:tb;writing-mode:lr-tb;text-anchor:start;baseline-shift:baseline;color:#000000;fill:#d1d4d6;fill-opacity:0.74329164;fill-rule:nonzero;stroke:none;stroke-width:2;marker:none;visibility:visible;display:inline;overflow:visible;enable-background:accumulate;font-family:Sans;-inkscape-font-specification:Sans"
       d="m -3348.4171,2095.5311 c -2.8577,0 -5.2188,2.3298 -5.2188,5.1875 0,0.4043 0.1306,0.7734 0.2188,1.1563 l -0.031,0 -4,-4 -0.1562,-0.1563 -3.8125,0 0,3.8438 0.125,0.125 4.0312,4.0312 -4.0312,4.0313 -0.125,0.125 0,3.8437 3.8125,0 0.1562,-0.1562 0.6563,-0.6563 0.375,0 0,-0.1875 3,0 0,-2 0.1875,0 0,-0.9687 3.8125,3.8125 0.1562,0.1562 3.8438,0 0,-3.8125 -0.1563,-0.1562 -4.0312,-4.0313 0.031,-0.031 c 0.3829,0.088 0.7519,0.2187 1.1563,0.2187 2.8576,0 5.1876,-2.3299 5.1875,-5.1875 0,-2.8577 -2.3299,-5.1875 -5.1875,-5.1875 z m 0,1.1875 c 2.2091,0 4,1.7909 4,4 0,2.2091 -1.7909,4 -4,4 -0.5523,0 -1.0839,-0.1101 -1.5625,-0.3125 l -1.3125,1.3125 4.875,4.875 0,2.125 -2.125,0 -4.875,-4.875 -1,1 0,2.875 -2.875,0 -1,1 -2.125,0 0,-2.125 4.875,-4.875 -4.875,-4.875 0,-2.125 2.125,0 4.875,4.875 1.3125,-1.3125 c -0.2024,-0.4786 -0.3125,-1.0102 -0.3125,-1.5625 0,-2.2091 1.7909,-4 4,-4 z m 1,2 c -0.5609,0 -1.0313,0.4391 -1.0313,1 0,0.5609 0.4704,1.0313 1.0313,1.0313 0.5609,0 1,-0.4704 1,-1.0313 0,-0.5609 -0.4391,-1 -1,-1 z"
       id="path2997"
       inkscape:connector-curvature="0" />
  </g>
</svg>
