<?xml version="1.0" encoding="UTF-8" standalone="no"?>
<!-- Created with Inkscape (http://www.inkscape.org/) -->

<svg
   xmlns:dc="http://purl.org/dc/elements/1.1/"
   xmlns:cc="http://creativecommons.org/ns#"
   xmlns:rdf="http://www.w3.org/1999/02/22-rdf-syntax-ns#"
   xmlns:svg="http://www.w3.org/2000/svg"
   xmlns="http://www.w3.org/2000/svg"
   xmlns:sodipodi="http://sodipodi.sourceforge.net/DTD/sodipodi-0.dtd"
   xmlns:inkscape="http://www.inkscape.org/namespaces/inkscape"
   width="24"
   height="24"
   id="svg27665"
   version="1.1"
   inkscape:version="0.48.3.1 r9886"
   sodipodi:docname="mkvmergeGUI.svg">
  <defs
     id="defs27667" />
  <sodipodi:namedview
     id="base"
     pagecolor="#ffffff"
     bordercolor="#666666"
     borderopacity="1.0"
     inkscape:pageopacity="0.0"
     inkscape:pageshadow="2"
     inkscape:zoom="32"
     inkscape:cx="11.22774"
     inkscape:cy="12.007623"
     inkscape:document-units="px"
     inkscape:current-layer="layer1"
     showgrid="true"
     inkscape:window-width="1920"
     inkscape:window-height="1023"
     inkscape:window-x="-10"
     inkscape:window-y="35"
     inkscape:window-maximized="1"
     inkscape:snap-bbox="true"
     inkscape:bbox-paths="true"
     inkscape:bbox-nodes="true"
     inkscape:snap-bbox-edge-midpoints="true"
     inkscape:snap-bbox-midpoints="true"
     inkscape:object-paths="true"
     inkscape:snap-intersection-paths="true"
     inkscape:object-nodes="true"
     inkscape:snap-smooth-nodes="true"
     inkscape:snap-midpoints="true"
     inkscape:snap-object-midpoints="true"
     inkscape:snap-center="true"
     inkscape:snap-global="true"
     showguides="false"
     inkscape:guide-bbox="true"
     fit-margin-top="0"
     fit-margin-left="0"
     fit-margin-right="0"
     fit-margin-bottom="0"
     inkscape:showpageshadow="false">
    <sodipodi:guide
       orientation="0,1"
       position="599.99999,299.99993"
       id="guide3572" />
    <sodipodi:guide
       orientation="1,0"
       position="294.41949,12.121716"
       id="guide3574" />
    <sodipodi:guide
       orientation="0,1"
       position="456.04389,599.99992"
       id="guide3576" />
    <sodipodi:guide
       orientation="0,1"
       position="-2.8882813e-06,-8.4406273e-05"
       id="guide3578" />
    <sodipodi:guide
       orientation="1,0"
       position="-2.8882813e-06,157.58366"
       id="guide3580" />
    <sodipodi:guide
       orientation="1,0"
       position="599.99999,121.21821"
       id="guide3582" />
    <sodipodi:guide
       orientation="0,1"
       position="599.99999,-714.34359"
       id="guide5928" />
    <sodipodi:guide
       orientation="0,1"
       position="599.99999,-414.34359"
       id="guide5930" />
    <sodipodi:guide
       orientation="0,1"
       position="599.99999,-1014.3435"
       id="guide5932" />
    <sodipodi:guide
       orientation="0,1"
       position="451.57029,524.99606"
       id="guide5294" />
    <sodipodi:guide
       orientation="0,1"
       position="451.57029,75.013516"
       id="guide5296" />
    <sodipodi:guide
       orientation="0,1"
       position="496.01499,-931.36409"
       id="guide5413" />
    <sodipodi:guide
       orientation="0,1"
       position="457.34859,-489.34389"
       id="guide5415" />
    <inkscape:grid
       type="xygrid"
       id="grid3070"
       empspacing="5"
       visible="true"
       enabled="true"
       snapvisiblegridlinesonly="true"
       originx="4.3243213e-05px"
       originy="-2.6947047e-05px" />
  </sodipodi:namedview>
  <metadata
     id="metadata27670">
    <rdf:RDF>
      <cc:Work
         rdf:about="">
        <dc:format>image/svg+xml</dc:format>
        <dc:type
           rdf:resource="http://purl.org/dc/dcmitype/StillImage" />
        <dc:title />
      </cc:Work>
    </rdf:RDF>
  </metadata>
  <g
     inkscape:label="Camada 1"
     inkscape:groupmode="layer"
     id="layer1"
     transform="translate(3364.4171,-2092.7186)">
    <path
       style="font-size:medium;font-style:normal;font-variant:normal;font-weight:normal;font-stretch:normal;text-indent:0;text-align:start;text-decoration:none;line-height:normal;letter-spacing:normal;word-spacing:normal;text-transform:none;direction:ltr;block-progression:tb;writing-mode:lr-tb;text-anchor:start;baseline-shift:baseline;color:#000000;fill:#d1d4d5;fill-opacity:0.74509804;stroke:none;stroke-width:1.20000005;marker:none;visibility:visible;display:inline;overflow:visible;enable-background:accumulate;font-family:Sans;-inkscape-font-specification:Sans"
       d="M 7 3 L 7 4 L 7 7 L 8 7 L 8 4 L 10 4 L 10 3 L 7 3 z M 7 7 L 6 7 L 6 9 L 7 9 L 7 7 z M 7 9 L 7 12 L 7 13 L 10 13 L 10 12 L 8 12 L 8 9 L 7 9 z M 14 3 L 14 4 L 16 4 L 16 7 L 17 7 L 17 4 L 17 3 L 14 3 z M 17 7 L 17 9 L 18 9 L 18 7 L 17 7 z M 17 9 L 16 9 L 16 12 L 14 12 L 14 13 L 17 13 L 17 12 L 17 9 z M 3.09375 12.90625 L 1.90625 13.09375 C 2.20975 14.73365 3.6862 15.87405 5.5625 16.59375 C 7.4389 17.31345 9.80855 17.673 12.15625 17.6875 C 14.50395 17.7025 16.84795 17.37055 18.71875 16.65625 C 20.58955 15.94195 22.06935 14.78245 22.34375 13.09375 L 21.15625 12.90625 C 20.97985 13.99175 19.95045 14.89395 18.28125 15.53125 C 16.61205 16.16855 14.38525 16.48255 12.15625 16.46875 C 9.92725 16.45475 7.6844 16.11485 6 15.46875 C 4.3155 14.82265 3.28275 13.92715 3.09375 12.90625 z M 3.09375 16.46875 L 1.90625 16.6875 C 2.20975 18.3274 3.6862 19.43655 5.5625 20.15625 C 7.4389 20.87595 9.80855 21.2354 12.15625 21.25 C 14.50395 21.264 16.84795 20.93305 18.71875 20.21875 C 20.58955 19.50445 22.06935 18.34495 22.34375 16.65625 L 21.15625 16.46875 C 20.97985 17.55425 19.95045 18.45645 18.28125 19.09375 C 16.61205 19.73105 14.38525 20.0764 12.15625 20.0625 C 9.92725 20.0485 7.6844 19.67735 6 19.03125 C 4.3155 18.38515 3.28275 17.48965 3.09375 16.46875 z "
       transform="translate(-3364.4171,2092.7186)"
       id="path3777" />
    <path
       style="color:#000000;fill:#434a55;fill-opacity:0.6745098;fill-rule:nonzero;stroke:none;stroke-width:37.03194046;marker:none;visibility:visible;display:inline;overflow:visible;enable-background:accumulate"
       d="M 8 4 L 8 5 L 8 7 L 7 7 L 7 9 L 8 9 L 8 11 L 8 12 L 10 12 L 10 11 L 9 11 L 9 5 L 10 5 L 10 4 L 8 4 z M 14 4 L 14 5 L 15 5 L 15 11 L 14 11 L 14 12 L 16 12 L 16 11 L 16 9 L 17 9 L 17 7 L 16 7 L 16 5 L 16 4 L 14 4 z M 17.125 10.28125 L 17.125 10.625 C 18.3719 11.1092 19.1875 11.80395 19.1875 12.53125 C 19.1875 14.00955 16.0183 14.3125 12.125 14.3125 C 8.2317 14.3125 5.0625 14.00955 5.0625 12.53125 C 5.0625 11.86105 5.7395 11.219 6.8125 10.75 L 6.8125 10.34375 C 4.6638 10.95845 3.25 11.9621 3.25 13.0625 C 3.25 14.9234 7.2235 16.4375 12.125 16.4375 C 17.0265 16.4375 21 14.9234 21 13.0625 C 21 11.9083 19.4583 10.89075 17.125 10.28125 z M 3.5 15.96875 C 3.3487 16.21545 3.25 16.45565 3.25 16.71875 C 3.25 18.57975 7.2235 20.09375 12.125 20.09375 C 17.0265 20.09375 21 18.57975 21 16.71875 C 21 16.45925 20.8969 16.21145 20.75 15.96875 C 20.2203 16.33275 19.6021 16.6208 18.9375 16.875 C 18.8725 16.9 18.8168 16.94475 18.75 16.96875 C 18.0085 17.57845 16.309 17.8521 14.1875 17.9375 C 13.5192 17.9925 12.835 17.96875 12.125 17.96875 C 11.472 17.96875 10.83695 17.9905 10.21875 17.9375 L 10.0625 17.9375 C 7.9411 17.8515 6.2415 17.57845 5.5 16.96875 C 5.432 16.94375 5.3781 16.9 5.3125 16.875 C 4.648 16.6208 4.0297 16.33275 3.5 15.96875 z "
       transform="translate(-3364.4171,2092.7186)"
       id="path3007" />
  </g>
</svg>
