<?xml version="1.0" encoding="UTF-8" standalone="no"?>
<!-- Created with Inkscape (http://www.inkscape.org/) -->

<svg
   xmlns:dc="http://purl.org/dc/elements/1.1/"
   xmlns:cc="http://creativecommons.org/ns#"
   xmlns:rdf="http://www.w3.org/1999/02/22-rdf-syntax-ns#"
   xmlns:svg="http://www.w3.org/2000/svg"
   xmlns="http://www.w3.org/2000/svg"
   xmlns:sodipodi="http://sodipodi.sourceforge.net/DTD/sodipodi-0.dtd"
   xmlns:inkscape="http://www.inkscape.org/namespaces/inkscape"
   width="24"
   height="24"
   id="svg27665"
   version="1.1"
   inkscape:version="0.48.3.1 r9886"
   sodipodi:docname="preferences-desktop-user.svg">
  <defs
     id="defs27667" />
  <sodipodi:namedview
     id="base"
     pagecolor="#ffffff"
     bordercolor="#666666"
     borderopacity="1.0"
     inkscape:pageopacity="0.0"
     inkscape:pageshadow="2"
     inkscape:zoom="31.678384"
     inkscape:cx="11.111259"
     inkscape:cy="10.925829"
     inkscape:document-units="px"
     inkscape:current-layer="layer1"
     showgrid="true"
     inkscape:window-width="1920"
     inkscape:window-height="1033"
     inkscape:window-x="-10"
     inkscape:window-y="25"
     inkscape:window-maximized="1"
     inkscape:snap-bbox="true"
     inkscape:bbox-paths="true"
     inkscape:bbox-nodes="true"
     inkscape:snap-bbox-edge-midpoints="true"
     inkscape:snap-bbox-midpoints="true"
     inkscape:object-paths="true"
     inkscape:snap-intersection-paths="true"
     inkscape:object-nodes="true"
     inkscape:snap-smooth-nodes="true"
     inkscape:snap-midpoints="true"
     inkscape:snap-object-midpoints="true"
     inkscape:snap-center="true"
     inkscape:snap-global="true"
     showguides="false"
     inkscape:guide-bbox="true"
     fit-margin-top="0"
     fit-margin-left="0"
     fit-margin-right="0"
     fit-margin-bottom="0"
     inkscape:showpageshadow="false">
    <sodipodi:guide
       orientation="0,1"
       position="-1494.2276,523.03618"
       id="guide4179" />
    <sodipodi:guide
       orientation="1,0"
       position="-1492.0847,520.17904"
       id="guide4181" />
    <inkscape:grid
       type="xygrid"
       id="grid4279"
       empspacing="5"
       visible="true"
       enabled="true"
       snapvisiblegridlinesonly="true"
       originx="6.6056504e-05px"
       originy="592.00001px" />
  </sodipodi:namedview>
  <metadata
     id="metadata27670">
    <rdf:RDF>
      <cc:Work
         rdf:about="">
        <dc:format>image/svg+xml</dc:format>
        <dc:type
           rdf:resource="http://purl.org/dc/dcmitype/StillImage" />
        <dc:title />
      </cc:Work>
    </rdf:RDF>
  </metadata>
  <g
     inkscape:label="Camada 1"
     inkscape:groupmode="layer"
     id="layer1"
     transform="translate(3393.2465,-1642.2411)">
    <path
       inkscape:connector-curvature="0"
       id="path2986"
       d="m -3381.2465,1646.2411 c -3.1758,0 -3.8525,2.3384 -3.7813,3.7188 l 0.094,1.1562 c -0.8884,0.011 -0.4491,2.4255 0.1875,2.3438 0.2803,1.0147 0.6939,1.797 1.25,2.2812 0.1186,0.7864 0.04,0.8053 0,1.5 -2.1706,1.4404 -5.75,2.3998 -5.75,3 0,1.3754 3.2101,3 8,3 4.7899,0 8,-1.6246 8,-3 0,-0.6002 -3.5793,-1.5594 -5.75,-3 -0.038,-0.6947 -0.118,-0.7137 0,-1.5 0.556,-0.4842 0.9697,-1.2665 1.25,-2.2812 0.6367,0.082 1.076,-2.3324 0.1875,-2.3438 l 0.094,-1.1562 c 0.071,-1.3804 -0.6055,-3.7188 -3.7812,-3.7188 z m 6,0 0,2 2,0 0,-2 -2,0 z m 0,4 0,5 2,0 0,-5 -2,0 z"
       style="color:#000000;fill:#434a55;fill-opacity:0.6745119;fill-rule:nonzero;stroke:none;stroke-width:1;marker:none;visibility:visible;display:inline;overflow:visible;enable-background:accumulate" />
    <path
       style="font-size:medium;font-style:normal;font-variant:normal;font-weight:normal;font-stretch:normal;text-indent:0;text-align:start;text-decoration:none;line-height:normal;letter-spacing:normal;word-spacing:normal;text-transform:none;direction:ltr;block-progression:tb;writing-mode:lr-tb;text-anchor:start;baseline-shift:baseline;color:#000000;fill:#d1d4d6;fill-opacity:0.74329164;fill-rule:nonzero;stroke:none;stroke-width:2;marker:none;visibility:visible;display:inline;overflow:visible;enable-background:accumulate;font-family:Sans;-inkscape-font-specification:Sans"
       d="m -3382.8715,1645.2411 c -1.0723,0.3059 -1.9079,0.9054 -2.4375,1.625 -0.7737,1.0513 -0.9537,2.236 -0.9063,3.1563 l 0,0.031 0.031,0.5313 c -0.1289,0.1786 -0.2577,0.3629 -0.3125,0.5312 -0.1621,0.4976 -0.1493,0.9204 -0.094,1.3438 0.056,0.4232 0.1579,0.819 0.375,1.2187 0.1086,0.1998 0.2529,0.4229 0.5,0.625 l 0.031,0 c 0.2373,0.6885 0.5699,1.2958 1,1.8125 0.015,0.1291 0,0.3008 0,0.375 -0.8966,0.5181 -1.9743,1.0154 -2.9688,1.4375 -0.5858,0.2486 -1.1136,0.4797 -1.5625,0.7188 -0.2244,0.1196 -0.4383,0.2529 -0.6562,0.4375 -0.109,0.092 -0.2616,0.2241 -0.375,0.4062 l 0,1.625 c 0.1781,0.4102 0.4649,0.7715 0.7812,1.0625 0.5242,0.4822 1.1737,0.8595 1.9688,1.1875 0.9676,0.3992 2.1643,0.696 3.5,0.875 l 5.5,0 c 1.3357,-0.179 2.5324,-0.4758 3.5,-0.875 0.7951,-0.328 1.4758,-0.7053 2,-1.1875 0.3005,-0.2764 0.5706,-0.6162 0.75,-1 l 0,-1.6875 c -0.1212,-0.1821 -0.2661,-0.314 -0.375,-0.4062 -0.2179,-0.1846 -0.4319,-0.3179 -0.6563,-0.4375 -0.4489,-0.2391 -0.9767,-0.4702 -1.5625,-0.7188 -1.251,-0.5943 -2.5226,-1.1819 -3.4062,-1.6875 l 0,-1.5 c -0.2149,0.4095 -0.4578,0.7456 -0.75,1 -0.118,0.7863 -0.038,0.8053 0,1.5 2.1707,1.4406 5.75,2.3998 5.75,3 0,1.3754 -3.2101,3 -8,3 -4.7899,0 -8,-1.6246 -8,-3 0,-0.6002 3.5794,-1.5596 5.75,-3 0.04,-0.6947 0.1186,-0.7136 0,-1.5 -0.5561,-0.4842 -0.9697,-1.2665 -1.25,-2.2812 -0.6366,0.082 -1.0759,-2.3328 -0.1875,-2.3438 l -0.094,-1.1562 c -0.071,-1.3804 0.6055,-3.7188 3.7813,-3.7188 1.5137,0 2.4322,0.5444 3,1.25 l 0,-1.6562 c -0.3999,-0.2561 -0.8658,-0.4498 -1.375,-0.5938 z m 6.625,0 0,11 4,0 0,-11 z m 1,1 2,0 0,2 -2,0 z m 0,3 2,0 0,6 -2,0 z"
       id="rect2991"
       inkscape:connector-curvature="0"
       sodipodi:nodetypes="csccccccccccccccccsccsscccccccccssscccccsccccccccccccccccccc" />
  </g>
</svg>
