<?xml version="1.0" encoding="UTF-8" standalone="no"?>
<!-- Created with Inkscape (http://www.inkscape.org/) -->

<svg
   xmlns:dc="http://purl.org/dc/elements/1.1/"
   xmlns:cc="http://creativecommons.org/ns#"
   xmlns:rdf="http://www.w3.org/1999/02/22-rdf-syntax-ns#"
   xmlns:svg="http://www.w3.org/2000/svg"
   xmlns="http://www.w3.org/2000/svg"
   xmlns:sodipodi="http://sodipodi.sourceforge.net/DTD/sodipodi-0.dtd"
   xmlns:inkscape="http://www.inkscape.org/namespaces/inkscape"
   width="24"
   height="24"
   id="svg27665"
   version="1.1"
   inkscape:version="0.48.4 r9939"
   sodipodi:docname="wine-uninstall.svg">
  <defs
     id="defs27667" />
  <sodipodi:namedview
     id="base"
     pagecolor="#ffffff"
     bordercolor="#666666"
     borderopacity="1.0"
     inkscape:pageopacity="0.0"
     inkscape:pageshadow="2"
     inkscape:zoom="31.678384"
     inkscape:cx="16.070077"
     inkscape:cy="12.096655"
     inkscape:document-units="px"
     inkscape:current-layer="22"
     showgrid="true"
     inkscape:window-width="1920"
     inkscape:window-height="1022"
     inkscape:window-x="-5"
     inkscape:window-y="23"
     inkscape:window-maximized="1"
     inkscape:snap-bbox="true"
     inkscape:bbox-paths="true"
     inkscape:bbox-nodes="true"
     inkscape:snap-bbox-edge-midpoints="true"
     inkscape:snap-bbox-midpoints="true"
     inkscape:object-paths="true"
     inkscape:snap-intersection-paths="true"
     inkscape:object-nodes="true"
     inkscape:snap-smooth-nodes="true"
     inkscape:snap-midpoints="true"
     inkscape:snap-object-midpoints="true"
     inkscape:snap-center="true"
     inkscape:snap-global="true"
     showguides="true"
     inkscape:guide-bbox="true"
     fit-margin-top="0"
     fit-margin-left="0"
     fit-margin-right="0"
     fit-margin-bottom="0"
     inkscape:showpageshadow="false"
     inkscape:snap-page="true">
    <inkscape:grid
       type="xygrid"
       id="grid3126"
       empspacing="5"
       visible="true"
       enabled="true"
       snapvisiblegridlinesonly="true"
       originx="1.9507231e-05px"
       originy="25.00001px" />
  </sodipodi:namedview>
  <metadata
     id="metadata27670">
    <rdf:RDF>
      <cc:Work
         rdf:about="">
        <dc:format>image/svg+xml</dc:format>
        <dc:type
           rdf:resource="http://purl.org/dc/dcmitype/StillImage" />
        <dc:title />
      </cc:Work>
    </rdf:RDF>
  </metadata>
  <g
     inkscape:label="Camada 1"
     inkscape:groupmode="layer"
     id="layer1"
     transform="translate(3364.4172,-1851.5163)">
    <g
       transform="matrix(0.03606018,0,0,0.03606018,-3237.7135,1855.2242)"
       id="22"
       inkscape:label="#g10690">
      <path
         style="color:#000000;fill:#27303a;fill-opacity:0.923280819999999968;fill-rule:nonzero;stroke:none;stroke-width:0.051;marker:none;visibility:visible;display:inline;overflow:visible;enable-background:accumulate"
         d="M 5 4 C 4.0000007 9.9999982 7.0000007 11 8 14 C 8 14 8.125 14.359747 8.125 15 C 8.125 15.640253 8 16 8 16 C 7.6249994 18.122768 4.9999964 19 5 20 L 9 20 L 13 20 C 13 19 10.375001 18.122768 10 16 C 10 16 9.875 15.640253 9.875 15 C 9.875 14.359747 10 14 10 14 C 11.000003 11 13.999999 9.9999982 13 4 L 9 4 L 5 4 z M 15.4375 10.75 L 14.75 11.4375 L 16.90625 13.59375 L 17.59375 12.90625 L 15.4375 10.75 z M 21.25 10.75 L 14.75 17.25 L 15.4375 17.9375 L 18.34375 15.03125 L 21.25 17.9375 L 21.9375 17.25 L 19.03125 14.34375 L 21.9375 11.4375 L 21.25 10.75 z "
         id="path2985"
         transform="matrix(27.73142,0,0,27.73142,-3513.6735,-102.82533)" />
      <path
         style="font-size:medium;font-style:normal;font-variant:normal;font-weight:normal;font-stretch:normal;text-indent:0;text-align:start;text-decoration:none;line-height:normal;letter-spacing:normal;word-spacing:normal;text-transform:none;direction:ltr;block-progression:tb;writing-mode:lr-tb;text-anchor:start;baseline-shift:baseline;color:#000000;fill:#f1f3f5;fill-opacity:0.90288714000000003;fill-rule:nonzero;stroke:none;stroke-width:2;marker:none;visibility:visible;display:inline;overflow:visible;enable-background:accumulate;font-family:Sans;-inkscape-font-specification:Sans"
         d="M 3.9375 3 L 3.8125 3.8125 C 3.2787336 7.0151096 3.8399019 9.1335662 4.6875 10.6875 C 5.5351017 12.241434 6.4761924 13.178578 6.875 14.375 L 6.875 14.40625 C 6.875 14.40625 6.9375 14.515939 6.9375 15 C 6.9375 15.484062 6.875 15.59375 6.875 15.59375 L 6.84375 15.6875 L 6.8125 15.78125 C 6.7035189 16.398166 6.2166966 16.932768 5.5625 17.5 C 5.2353981 17.783616 4.8972935 18.066034 4.5625 18.40625 C 4.2277065 18.746466 3.8125 19.224999 3.8125 20 L 3.8125 21 L 14.1875 21 L 14.1875 20 C 14.1875 19.225001 13.77229 18.746465 13.4375 18.40625 C 13.102703 18.066035 12.764602 17.783616 12.4375 17.5 C 11.783303 16.932768 11.296481 16.398166 11.1875 15.78125 L 11.15625 15.6875 L 11.125 15.59375 C 11.125 15.59375 11.0625 15.484066 11.0625 15 C 11.0625 14.515934 11.125007 14.40625 11.125 14.40625 L 11.125 14.375 C 11.523811 13.178578 12.464898 12.241434 13.3125 10.6875 C 14.160098 9.1335659 14.721266 7.0151096 14.1875 3.8125 L 14.0625 3 L 3.9375 3 z M 5 4 L 9 4 L 13 4 C 13.999996 9.9999983 11.000003 11 10 14 C 10 14 9.875 14.359747 9.875 15 C 9.875 15.640253 10 16 10 16 C 10.375001 18.122768 13 19 13 20 L 9 20 L 5 20 C 4.9999964 19 7.6249994 18.122768 8 16 C 8 16 8.125 15.640253 8.125 15 C 8.125 14.359747 8 14 8 14 C 7.0000007 11 4.0000007 9.9999983 5 4 z M 15.4375 9.3125 L 14.75 10.03125 L 17.65625 12.90625 L 14.75 15.8125 L 15.4375 16.53125 L 21.9375 10.03125 L 21.25 9.3125 L 18.34375 12.21875 L 15.4375 9.3125 z M 19.78125 13.65625 L 19.09375 14.34375 L 21.25 16.53125 L 21.9375 15.8125 L 19.78125 13.65625 z "
         id="use2989"
         transform="matrix(27.73142,0,0,27.73142,-3513.6735,-102.82533)" />
    </g>
  </g>
</svg>
