<svg xmlns="http://www.w3.org/2000/svg" viewBox="0 0 64 64"><g color="#000"><path d="m0 4v30 28l2 2h30 30l2-2v-28-30h-32-32" fill="#6785aa"/><path d="m2 0l-2 1v3h32 32v-3l-2-1h-30-30" fill="#9abcde"/><path d="m0 3v3l2-2z" fill="#a8c5e3"/></g><path d="m64 6l-2-2 2-1z" fill="#7c9cc0"/><path d="m32 13c-11.598 0-21 9.402-21 21 0 5.799 2.352 11.05 6.152 14.848l-6.152 6.152h21c11.598 0 21-9.402 21-21 0-11.598-9.402-21-21-21m0 7.875c7.249 0 13.13 5.876 13.13 13.13 0 7.249-5.876 13.13-13.12 13.13-7.249 0-13.12-5.876-13.12-13.12 0-7.249 5.876-13.12 13.13-13.12" fill="#dbebff" fill-opacity=".758" color="#000"/></svg>