<?xml version="1.0" encoding="UTF-8" standalone="no"?>
<!-- Created with Inkscape (http://www.inkscape.org/) -->

<svg
   xmlns:dc="http://purl.org/dc/elements/1.1/"
   xmlns:cc="http://creativecommons.org/ns#"
   xmlns:rdf="http://www.w3.org/1999/02/22-rdf-syntax-ns#"
   xmlns:svg="http://www.w3.org/2000/svg"
   xmlns="http://www.w3.org/2000/svg"
   xmlns:sodipodi="http://sodipodi.sourceforge.net/DTD/sodipodi-0.dtd"
   xmlns:inkscape="http://www.inkscape.org/namespaces/inkscape"
   width="22"
   height="22"
   id="svg27665"
   version="1.1"
   inkscape:version="0.48.3.1 r9886"
   sodipodi:docname="btsync-gui-paused.svg">
  <defs
     id="defs27667" />
  <sodipodi:namedview
     id="base"
     pagecolor="#ffffff"
     bordercolor="#666666"
     borderopacity="1.0"
     inkscape:pageopacity="0"
     inkscape:pageshadow="2"
     inkscape:zoom="45.254835"
     inkscape:cx="14.490334"
     inkscape:cy="7.2681832"
     inkscape:document-units="px"
     inkscape:current-layer="layer1"
     showgrid="true"
     inkscape:window-width="1920"
     inkscape:window-height="1023"
     inkscape:window-x="-10"
     inkscape:window-y="35"
     inkscape:window-maximized="1"
     inkscape:snap-bbox="true"
     inkscape:bbox-paths="true"
     inkscape:bbox-nodes="true"
     inkscape:snap-bbox-edge-midpoints="true"
     inkscape:snap-bbox-midpoints="true"
     inkscape:object-paths="true"
     inkscape:snap-intersection-paths="true"
     inkscape:object-nodes="true"
     inkscape:snap-smooth-nodes="true"
     inkscape:snap-midpoints="true"
     inkscape:snap-object-midpoints="true"
     inkscape:snap-center="true"
     inkscape:snap-global="true"
     showguides="true"
     inkscape:guide-bbox="true"
     fit-margin-top="0"
     fit-margin-left="0"
     fit-margin-right="0"
     fit-margin-bottom="0"
     inkscape:showpageshadow="false">
    <inkscape:grid
       type="xygrid"
       id="grid3070"
       empspacing="5"
       visible="true"
       enabled="true"
       snapvisiblegridlinesonly="true"
       originx="-47.999653px"
       originy="-0.00031276823px" />
  </sodipodi:namedview>
  <metadata
     id="metadata27670">
    <rdf:RDF>
      <cc:Work
         rdf:about="">
        <dc:format>image/svg+xml</dc:format>
        <dc:type
           rdf:resource="http://purl.org/dc/dcmitype/StillImage" />
        <dc:title />
      </cc:Work>
    </rdf:RDF>
  </metadata>
  <g
     inkscape:label="Camada 1"
     inkscape:groupmode="layer"
     id="layer1"
     transform="translate(3316.4171,-2094.7186)">
    <path
       id="path2999"
       d="m -3305.6046,2097.7186 c -2.7082,0.062 -5.3314,1.4914 -6.7813,4 l 1.75,1 c 1.6674,-2.8851 5.3338,-3.886 8.2188,-2.2187 1.2814,0.7406 2.1943,1.9276 2.6562,3.2812 l -1.2812,-0.9375 -1.1875,1.5938 3.125,2.2812 1.3437,0 a 1.0020851,1.0020851 0 0 0 0.3438,-0.6875 c 0.1126,-2.9674 -1.429,-5.7641 -4,-7.25 -1.273,-0.7357 -2.6868,-1.0709 -4.0625,-1.0625 -0.044,3e-4 -0.081,0 -0.125,0 z m -7,6.7188 a 1.0020851,1.0020851 0 0 0 -0.8438,0.9687 c -0.1125,2.9674 1.429,5.7641 4,7.25 1.8923,1.0936 4.0635,1.3229 6.0313,0.8125 l 0,-2.0937 c -1.5998,0.568 -3.4384,0.483 -5.0313,-0.4375 -1.2814,-0.7405 -2.1943,-1.9276 -2.6562,-3.2813 l 1.2812,0.9375 1.1875,-1.5937 -3.2187,-2.3438 a 1.0020851,1.0020851 0 0 0 -0.5625,-0.2187 1.0020851,1.0020851 0 0 0 -0.094,0 1.0020851,1.0020851 0 0 0 -0.094,0 z m 11.1875,3.2812 0,6 2,0 0,-6 -2,0 z m 3,0 0,6 2,0 0,-6 -2,0 z"
       style="font-size:medium;font-style:normal;font-variant:normal;font-weight:normal;font-stretch:normal;text-indent:0;text-align:start;text-decoration:none;line-height:normal;letter-spacing:normal;word-spacing:normal;text-transform:none;direction:ltr;block-progression:tb;writing-mode:lr-tb;text-anchor:start;baseline-shift:baseline;color:#000000;fill:#434a55;fill-opacity:0.6745119;fill-rule:nonzero;stroke:none;stroke-width:1;marker:none;visibility:visible;display:inline;overflow:visible;enable-background:accumulate;font-family:Sans;-inkscape-font-specification:Sans"
       inkscape:connector-curvature="0" />
  </g>
</svg>
