<?xml version="1.0" encoding="UTF-8" standalone="no"?>
<!-- Created with Inkscape (http://www.inkscape.org/) -->

<svg
   xmlns:dc="http://purl.org/dc/elements/1.1/"
   xmlns:cc="http://creativecommons.org/ns#"
   xmlns:rdf="http://www.w3.org/1999/02/22-rdf-syntax-ns#"
   xmlns:svg="http://www.w3.org/2000/svg"
   xmlns="http://www.w3.org/2000/svg"
   xmlns:xlink="http://www.w3.org/1999/xlink"
   xmlns:sodipodi="http://sodipodi.sourceforge.net/DTD/sodipodi-0.dtd"
   xmlns:inkscape="http://www.inkscape.org/namespaces/inkscape"
   width="64"
   height="64"
   id="svg13094"
   version="1.1"
   inkscape:version="0.48.3.1 r9886"
   sodipodi:docname="input-tablet.svg">
  <sodipodi:namedview
     id="base"
     pagecolor="#ffffff"
     bordercolor="#666666"
     borderopacity="1.0"
     inkscape:pageopacity="0"
     inkscape:pageshadow="2"
     inkscape:zoom="11.313709"
     inkscape:cx="31.357418"
     inkscape:cy="31.75588"
     inkscape:document-units="px"
     inkscape:current-layer="svg13094"
     showgrid="true"
     inkscape:snap-bbox="true"
     inkscape:bbox-paths="true"
     inkscape:bbox-nodes="true"
     inkscape:snap-bbox-edge-midpoints="true"
     inkscape:snap-bbox-midpoints="true"
     inkscape:object-paths="true"
     inkscape:snap-intersection-paths="true"
     inkscape:object-nodes="true"
     inkscape:snap-smooth-nodes="true"
     inkscape:snap-midpoints="true"
     inkscape:snap-object-midpoints="true"
     inkscape:snap-center="true"
     showguides="true"
     inkscape:guide-bbox="true"
     inkscape:window-width="1920"
     inkscape:window-height="1023"
     inkscape:window-x="-10"
     inkscape:window-y="35"
     inkscape:window-maximized="1"
     inkscape:snap-global="true"
     fit-margin-top="0"
     fit-margin-left="0"
     fit-margin-right="0"
     fit-margin-bottom="0"
     showborder="true"
     inkscape:showpageshadow="false"
     inkscape:snap-page="true">
    <inkscape:grid
       type="xygrid"
       id="grid3075"
       empspacing="5"
       visible="true"
       enabled="true"
       snapvisiblegridlinesonly="true"
       originx="1.6362304e-08px"
       originy="18px" />
  </sodipodi:namedview>
  <defs
     id="defs13096">
    <linearGradient
       id="linearGradient3023">
      <stop
         style="stop-color:#000000;stop-opacity:0.23981901;"
         offset="0"
         id="stop3025" />
      <stop
         style="stop-color:#000000;stop-opacity:0;"
         offset="1"
         id="stop3027" />
    </linearGradient>
    <linearGradient
       id="linearGradient3767">
      <stop
         style="stop-color:#5e738b;stop-opacity:1;"
         offset="0"
         id="stop3769" />
      <stop
         id="stop3779"
         offset="0.37478319"
         style="stop-color:#7d96b0;stop-opacity:1;" />
      <stop
         id="stop3775"
         offset="0.65185159"
         style="stop-color:#d0dbe6;stop-opacity:1;" />
      <stop
         style="stop-color:#7d96af;stop-opacity:1;"
         offset="0.86913967"
         id="stop3777" />
      <stop
         style="stop-color:#68798d;stop-opacity:1"
         offset="1"
         id="stop3771" />
    </linearGradient>
    <linearGradient
       id="linearGradient4059">
      <stop
         id="stop4061"
         offset="0"
         style="stop-color:#6d85a5;stop-opacity:1;" />
      <stop
         id="stop4063"
         offset="1"
         style="stop-color:#52667a;stop-opacity:1;" />
    </linearGradient>
    <linearGradient
       inkscape:collect="always"
       xlink:href="#linearGradient3767"
       id="linearGradient3942"
       gradientUnits="userSpaceOnUse"
       x1="51"
       y1="38"
       x2="45"
       y2="38" />
    <radialGradient
       inkscape:collect="always"
       xlink:href="#linearGradient4059"
       id="radialGradient3021"
       gradientUnits="userSpaceOnUse"
       gradientTransform="matrix(1.78125,0,0,1.6699219,-25,-14.964844)"
       cx="32"
       cy="23.333334"
       fx="32"
       fy="23.333334"
       r="32" />
    <linearGradient
       inkscape:collect="always"
       xlink:href="#linearGradient3023"
       id="linearGradient3029"
       x1="23"
       y1="64"
       x2="23"
       y2="53"
       gradientUnits="userSpaceOnUse" />
  </defs>
  <metadata
     id="metadata13099">
    <rdf:RDF>
      <cc:Work
         rdf:about="">
        <dc:format>image/svg+xml</dc:format>
        <dc:type
           rdf:resource="http://purl.org/dc/dcmitype/StillImage" />
        <dc:title />
      </cc:Work>
    </rdf:RDF>
  </metadata>
  <path
     inkscape:connector-curvature="0"
     style="color:#000000;fill:url(#radialGradient3021);fill-opacity:1;fill-rule:nonzero;stroke:none;stroke-width:2.28571415;marker:none;visibility:visible;display:inline;overflow:visible;enable-background:accumulate"
     d="m 0,2 0,32 0,28 2,2 30,0 30,0 2,-2 0,-28 0,-32 -32,0 z"
     id="path3019"
     sodipodi:nodetypes="ccccccccccc" />
  <path
     sodipodi:nodetypes="ccccccccc"
     id="path3784"
     d="M 1.6362304e-8,53 0,62 l 2,2 30,0 30,0 2,-2 0,-9 -32,0 z"
     style="color:#000000;fill:url(#linearGradient3029);fill-opacity:1;fill-rule:nonzero;stroke:none;stroke-width:2.28571415000000000;marker:none;visibility:visible;display:inline;overflow:visible;enable-background:accumulate"
     inkscape:connector-curvature="0" />
  <path
     inkscape:connector-curvature="0"
     style="color:#000000;fill:#daeaff;fill-opacity:0.32437277;fill-rule:nonzero;stroke:none;stroke-width:2.28571415000000000;marker:none;visibility:visible;display:inline;overflow:visible;enable-background:accumulate"
     d="M 0,2 0,12.322581 1.6362307e-8,22 64,22 64,12.322581 64,2 32,2 z"
     id="path4095"
     sodipodi:nodetypes="cccccccc" />
  <path
     inkscape:connector-curvature="0"
     style="color:#000000;fill:#b6cce4;fill-opacity:1;fill-rule:nonzero;stroke:none;stroke-width:2.28571415000000000;marker:none;visibility:visible;display:inline;overflow:visible;enable-background:accumulate"
     d="M 2,0 0,1 0,2 32,2 64,2 64,1 62,0 32,0 z"
     id="path4090"
     sodipodi:nodetypes="ccccccccc" />
  <path
     style="fill:#ffffff;fill-opacity:0.41397849;fill-rule:nonzero"
     d="M 0,1 0,4 2,2 32,2 62,2 64,1 32,1 z"
     id="path4298"
     inkscape:connector-curvature="0"
     sodipodi:nodetypes="cccccccc" />
  <path
     d="M 64,4 62,2 64,1 z"
     id="path3028"
     style="fill:#1f0700;fill-opacity:0.13759861"
     inkscape:connector-curvature="0"
     sodipodi:nodetypes="cccc" />
  <path
     style="fill:#000000;fill-opacity:0.11130587;fill-rule:nonzero"
     d="m 63,0.5 0,33.5 0,29 1,-1 0,-28 0,-33 z m 0,62.5 -31,0 -31,0 1,1 30,0 30,0 z"
     id="path4366"
     inkscape:connector-curvature="0"
     sodipodi:nodetypes="cccccccccccccc" />
  <g
     id="g3043"
     inkscape:export-filename="folder.png"
     inkscape:export-xdpi="90"
     inkscape:export-ydpi="90"
     transform="translate(-0.62500009,0.082283)" />
  <path
     style="fill:#ffffff;fill-opacity:0.35070675;fill-rule:nonzero"
     d="M 0,1 0,34 0,62 1,63 1,34 1,3 2,2 1,1.46875 1,1 z"
     id="path3864"
     inkscape:connector-curvature="0"
     sodipodi:nodetypes="cccccccccc" />
  <g
     id="scalable"
     transform="matrix(1.0385892,0,0,1.0385892,1214.7222,1878.8121)"
     inkscape:label="#g3701"
     style="fill:#ffffff" />
  <path
     style="font-size:medium;font-style:normal;font-variant:normal;font-weight:normal;font-stretch:normal;text-indent:0;text-align:start;text-decoration:none;line-height:normal;letter-spacing:normal;word-spacing:normal;text-transform:none;direction:ltr;block-progression:tb;writing-mode:lr-tb;text-anchor:start;baseline-shift:baseline;color:#000000;fill:#000000;fill-opacity:0.28405017;stroke:none;stroke-width:2.60000014000000013;marker:none;visibility:visible;display:inline;overflow:visible;enable-background:accumulate;font-family:Sans;-inkscape-font-specification:Sans"
     d="M 15 2 L 15 22 L 16 22 L 16 13 L 26 13 L 26 12 L 26 11 L 16 11 L 16 2 L 15 2 z M 26 12 C 26 15.301864 28.698137 18 32 18 C 35.301864 18 38 15.301864 38 12 C 38 8.6981362 35.301864 6 32 6 C 28.698137 6 26 8.6981362 26 12 z M 38 12 L 38 13 L 49 13 L 49 22 L 50 22 L 50 2 L 49 2 L 49 11 L 38 11 L 38 12 z M 32 8 C 34.220984 8 36 9.7790165 36 12 C 36 14.220984 34.220984 16 32 16 C 29.779016 16 28 14.220984 28 12 C 28 9.7790165 29.779016 8 32 8 z "
     id="path3814" />
  <path
     style="font-size:medium;font-style:normal;font-variant:normal;font-weight:normal;font-stretch:normal;text-indent:0;text-align:start;text-decoration:none;line-height:normal;letter-spacing:normal;word-spacing:normal;text-transform:none;direction:ltr;block-progression:tb;writing-mode:lr-tb;text-anchor:start;baseline-shift:baseline;color:#000000;fill:#000000;fill-opacity:0.34856629;fill-rule:nonzero;stroke:none;stroke-width:2;marker:none;visibility:visible;display:inline;overflow:visible;enable-background:accumulate;font-family:Sans;-inkscape-font-specification:Sans"
     d="M 32 7 C 29.252851 7 27 9.2528499 27 12 C 27 14.74715 29.252851 17 32 17 C 34.74715 17 37 14.74715 37 12 C 37 9.2528499 34.74715 7 32 7 z M 16 11 L 16 12 L 26 12 L 26 11 L 16 11 z M 38 11 L 38 12 L 49 12 L 49 11 L 38 11 z "
     id="path3788" />
  <rect
     style="color:#000000;fill:#000000;fill-opacity:0.32885304;stroke:none;stroke-width:2;marker:none;visibility:visible;display:inline;overflow:visible;enable-background:accumulate"
     id="rect3812"
     width="64"
     height="1"
     x="-64"
     y="-23"
     transform="scale(-1,-1)" />
  <path
     transform="scale(-1,-1)"
     style="color:#000000;fill:#000000;fill-opacity:0.21774194;stroke:none;stroke-width:2;marker:none;visibility:visible;display:inline;overflow:visible;enable-background:accumulate"
     d="m -55,-53 46,0 0,26 -46,0 z"
     id="rect3867"
     inkscape:connector-curvature="0"
     sodipodi:nodetypes="ccccc" />
  <path
     style="color:#000000;fill:#000000;fill-opacity:0.33243728;stroke:none;stroke-width:2;marker:none;visibility:visible;display:inline;overflow:visible;enable-background:accumulate"
     d="m 9,27 0,26 1,0 0,-25 45,0 0,-1 z"
     id="rect3798"
     inkscape:connector-curvature="0"
     sodipodi:nodetypes="ccccccc" />
  <path
     style="opacity:0.37357829999999997;color:#000000;fill:#ffffff;fill-opacity:0.39157706;fill-rule:nonzero;stroke:none;stroke-width:1;marker:none;visibility:visible;display:inline;overflow:visible;enable-background:accumulate"
     d="M 55 28 L 55 53 L 10 53 L 10 54 L 55 54 L 56 54 L 56 53 L 56 28 L 55 28 z "
     id="rect3793" />
  <g
     id="g3932"
     transform="matrix(0.8660254,0.5,-0.5,0.8660254,28.349755,-16.292041)">
    <path
       style="color:#000000;fill:#000000;fill-opacity:0.22043014;fill-rule:nonzero;stroke:none;stroke-width:2;marker:none;visibility:visible;display:inline;overflow:visible;enable-background:accumulate"
       d="m 56.188889,33.514714 3.622222,0.970571 -6.470476,24.148146 -3.105206,4.344343 -0.517016,-5.314914 z"
       id="rect2997-2"
       inkscape:connector-curvature="0"
       sodipodi:nodetypes="cccccc" />
    <g
       transform="matrix(0.60370364,0.1617619,-0.1617619,0.60370364,29.963368,17.990985)"
       id="g3800">
      <path
         style="color:#000000;fill:url(#linearGradient3942);fill-opacity:1;fill-rule:nonzero;stroke:none;stroke-width:10;marker:none;visibility:visible;display:inline;overflow:visible;enable-background:accumulate"
         d="m 45,12 6,0 0,40 -3,8 -3,-8 z"
         id="rect2997"
         inkscape:connector-curvature="0"
         sodipodi:nodetypes="cccccc" />
      <rect
         style="color:#000000;fill:#687a8e;fill-opacity:1;fill-rule:nonzero;stroke:none;stroke-width:10;marker:none;visibility:visible;display:inline;overflow:visible;enable-background:accumulate"
         id="rect3782"
         width="4"
         height="1"
         x="46"
         y="51" />
    </g>
  </g>
</svg>
