<?xml version="1.0" encoding="UTF-8" standalone="no"?>
<!-- Created with Inkscape (http://www.inkscape.org/) -->

<svg
   xmlns:dc="http://purl.org/dc/elements/1.1/"
   xmlns:cc="http://creativecommons.org/ns#"
   xmlns:rdf="http://www.w3.org/1999/02/22-rdf-syntax-ns#"
   xmlns:svg="http://www.w3.org/2000/svg"
   xmlns="http://www.w3.org/2000/svg"
   xmlns:xlink="http://www.w3.org/1999/xlink"
   xmlns:sodipodi="http://sodipodi.sourceforge.net/DTD/sodipodi-0.dtd"
   xmlns:inkscape="http://www.inkscape.org/namespaces/inkscape"
   id="svg13094"
   height="64"
   width="64"
   version="1.1"
   inkscape:version="0.48.4 r9939"
   sodipodi:docname="folder-musics.svg"
   inkscape:export-filename="folder.png"
   inkscape:export-xdpi="90"
   inkscape:export-ydpi="90">
  <sodipodi:namedview
     pagecolor="#ffffff"
     bordercolor="#666666"
     borderopacity="1"
     objecttolerance="10"
     gridtolerance="10"
     guidetolerance="10"
     inkscape:pageopacity="0"
     inkscape:pageshadow="2"
     inkscape:window-width="1920"
     inkscape:window-height="1022"
     id="namedview46"
     showgrid="true"
     inkscape:snap-bbox="true"
     inkscape:bbox-paths="true"
     inkscape:bbox-nodes="true"
     inkscape:snap-bbox-edge-midpoints="true"
     inkscape:snap-bbox-midpoints="true"
     inkscape:snap-nodes="true"
     inkscape:object-paths="true"
     inkscape:snap-intersection-paths="true"
     inkscape:object-nodes="true"
     inkscape:snap-smooth-nodes="true"
     inkscape:snap-midpoints="true"
     inkscape:snap-object-midpoints="true"
     inkscape:snap-center="true"
     fit-margin-top="0"
     fit-margin-left="0"
     fit-margin-right="0"
     fit-margin-bottom="0"
     inkscape:zoom="10.429825"
     inkscape:cx="45.290058"
     inkscape:cy="31.933699"
     inkscape:window-x="-5"
     inkscape:window-y="23"
     inkscape:window-maximized="1"
     inkscape:current-layer="svg13094"
     showguides="true"
     inkscape:guide-bbox="true"
     inkscape:snap-page="true"
     inkscape:snap-global="false">
    <inkscape:grid
       type="xygrid"
       id="grid3023"
       empspacing="5"
       visible="true"
       enabled="true"
       snapvisiblegridlinesonly="true"
       originx="-80px"
       originy="-75px" />
  </sodipodi:namedview>
  <defs
     id="defs11">
    <linearGradient
       id="linearGradient3841-4-4">
      <stop
         style="stop-color:#a17c48;stop-opacity:1;"
         offset="0"
         id="stop3843-9-9" />
      <stop
         style="stop-color:#be965e;stop-opacity:1;"
         offset="1"
         id="stop3845-3-7" />
    </linearGradient>
    <linearGradient
       inkscape:collect="always"
       xlink:href="#linearGradient3969-5"
       id="linearGradient3025"
       gradientUnits="userSpaceOnUse"
       x1="29.875"
       y1="64.082283"
       x2="29.875"
       y2="12.082283"
       gradientTransform="translate(0.625,-0.082283)" />
    <linearGradient
       id="linearGradient3969-5">
      <stop
         style="stop-color:#b3915e;stop-opacity:1;"
         offset="0"
         id="stop3971-52" />
      <stop
         id="stop3977-7"
         offset="0.08245245"
         style="stop-color:#caa36b;stop-opacity:1;" />
      <stop
         style="stop-color:#d0a973;stop-opacity:1;"
         offset="0.49040774"
         id="stop3979-2" />
      <stop
         id="stop3981-6"
         offset="0.51108748"
         style="stop-color:#c9a16b;stop-opacity:1;" />
      <stop
         style="stop-color:#c79e65;stop-opacity:1;"
         offset="1"
         id="stop3973-4" />
    </linearGradient>
    <linearGradient
       y2="32.976402"
       x2="77.278381"
       y1="48.976402"
       x1="77.278381"
       gradientTransform="translate(-33,-31.9764)"
       gradientUnits="userSpaceOnUse"
       id="linearGradient3852"
       xlink:href="#linearGradient3841-4-4"
       inkscape:collect="always" />
  </defs>
  <metadata
     id="metadata13099">
    <rdf:RDF>
      <cc:Work
         rdf:about="">
        <dc:format>image/svg+xml</dc:format>
        <dc:type
           rdf:resource="http://purl.org/dc/dcmitype/StillImage" />
        <dc:title />
      </cc:Work>
    </rdf:RDF>
  </metadata>
  <path
     sodipodi:nodetypes="cccccccccc"
     inkscape:connector-curvature="0"
     id="path3833"
     d="m 3,6 -10e-8,58.000001 L 60,64 64,60 64,1 63,0 37,0 32,4.9999999 4,5 z"
     style="fill:url(#linearGradient3852);fill-opacity:1;fill-rule:nonzero;stroke:none" />
  <path
     inkscape:connector-curvature="0"
     id="path3800"
     d="M 37,0 32,5 4,5 3,6 3,7 4,6 32,6 37,1 63,1 64,2 64,1 63,0 37,0 z"
     style="color:#000000;fill:#ffd08f;fill-opacity:0.46554775;fill-rule:nonzero;stroke:none;stroke-width:1;marker:none;visibility:visible;display:inline;overflow:visible;enable-background:accumulate" />
  <path
     style="fill:#c7c7c7;fill-opacity:1;fill-rule:nonzero"
     inkscape:connector-curvature="0"
     id="path3920"
     d="m 7,13 51,0 0,31 -51,0 z"
     sodipodi:nodetypes="ccccc" />
  <path
     style="fill:#3e4959;fill-opacity:0.43171806"
     inkscape:connector-curvature="0"
     d="m 58,13 0,51 2,0 4,-4 0,-59 -1,-1 0,18 z"
     id="path3802"
     sodipodi:nodetypes="cccccccc" />
  <path
     sodipodi:nodetypes="ccccc"
     style="fill:#ffffff;fill-opacity:0.60159009;fill-rule:nonzero"
     d="m 7,13 51,0 0,1 -51,0 z"
     id="path4253"
     inkscape:connector-curvature="0" />
  <path
     sodipodi:nodetypes="ccccc"
     inkscape:connector-curvature="0"
     id="path3982"
     d="m 30,13 4,4 2,0 -4,-4 z"
     style="color:#000000;fill:#3e4959;fill-opacity:0.22968199;fill-rule:nonzero;stroke-width:1;stroke-linecap:butt;stroke-linejoin:miter;stroke-miterlimit:4;stroke-opacity:1;stroke-dasharray:none;stroke-dashoffset:0;marker:none;visibility:visible;display:inline;overflow:visible;enable-background:accumulate" />
  <path
     inkscape:export-ydpi="90"
     inkscape:export-xdpi="90"
     sodipodi:nodetypes="ccccccccccc"
     style="fill:url(#linearGradient3025);fill-opacity:1;fill-rule:nonzero"
     inkscape:connector-curvature="0"
     d="m 0,13 0,50 1,1 59,0 1,-1 0,-45 -1,-1 -26,1e-6 -5,-5 L 1,12 z"
     id="path3916" />
  <path
     inkscape:connector-curvature="0"
     id="path3046"
     d="m 1,12 -1,1 0,1 1,-1 28,0 5,5 26,0 1,1 0,-1 -1,-1 -26,0 -5,-5 -28,0 z"
     style="fill:#ffd08f;fill-opacity:0.46554775;fill-rule:nonzero" />
  <path
     sodipodi:nodetypes="cccssssccccccccccccscccccssss"
     inkscape:connector-curvature="0"
     id="path3061"
     d="M 23.46875,22.21875 22.53125,25.75 18.09375,41.53125 C 17.202392,39.962976 15.68865,38.752713 13.8125,38.25 12.881795,38.000618 11.931564,37.936066 11.03125,38.0625 8.3303072,38.441803 5.9981454,40.395383 5.25,43.1875 c -0.9975269,3.722821 1.2146785,7.564973 4.9375,8.5625 3.722821,0.997527 7.564973,-1.214679 8.5625,-4.9375 0.0054,-0.02011 -0.0052,-0.04238 0,-0.0625 l 0.03125,0 4.75,-16.96875 3,10.5 0.96875,3.34375 0.96875,-3.34375 2,-7 -1.9375,-0.5625 L 27.5,36.3125 24.46875,25.71875 z M 12.28125,40 c 0.322799,0.02062 0.639154,0.07017 0.96875,0.15625 l 0.03125,0 c 2.64655,0.709141 4.247946,3.383813 3.59375,6.03125 L 16.84375,46.25 c -0.0026,0.01011 0.0027,0.02114 0,0.03125 -0.717775,2.678771 -3.446229,4.280275 -6.125,3.5625 -2.6787717,-0.717775 -4.2802745,-3.446229 -3.5625,-6.125 0.5383311,-2.009079 2.225479,-3.421905 4.15625,-3.6875 C 11.629208,39.98768 11.958451,39.97938 12.28125,40 z"
     style="font-size:medium;font-style:normal;font-variant:normal;font-weight:normal;font-stretch:normal;text-indent:0;text-align:start;text-decoration:none;line-height:normal;letter-spacing:normal;word-spacing:normal;text-transform:none;direction:ltr;block-progression:tb;writing-mode:lr-tb;text-anchor:start;baseline-shift:baseline;color:#000000;fill:#201010;fill-opacity:0.31498197999999999;fill-rule:nonzero;stroke:none;stroke-width:1;marker:none;visibility:visible;display:inline;overflow:visible;enable-background:accumulate;font-family:Sans;-inkscape-font-specification:Sans" />
  <path
     style="font-size:medium;font-style:normal;font-variant:normal;font-weight:normal;font-stretch:normal;text-indent:0;text-align:start;text-decoration:none;line-height:normal;letter-spacing:normal;word-spacing:normal;text-transform:none;direction:ltr;block-progression:tb;writing-mode:lr-tb;text-anchor:start;baseline-shift:baseline;color:#000000;fill:#ffd08f;fill-opacity:0.54422386000000000;fill-rule:nonzero;stroke:none;stroke-width:1;marker:none;visibility:visible;display:inline;overflow:visible;enable-background:accumulate;font-family:Sans;-inkscape-font-specification:Sans"
     d="M 24.46875 23.21875 L 24.125 24.5 L 24.46875 25.71875 L 27.5 36.3125 L 27.84375 35.0625 L 25.46875 26.71875 L 24.46875 23.21875 z M 23.53125 29.78125 L 18.78125 46.75 L 18.75 46.75 C 18.7448 46.77012 18.7554 46.79239 18.75 46.8125 C 17.752473 50.535321 13.910321 52.747527 10.1875 51.75 C 9.1742785 51.478508 8.2864228 50.976912 7.53125 50.34375 C 8.4302091 51.480728 9.6827242 52.346797 11.1875 52.75 C 14.910321 53.747527 18.752473 51.535321 19.75 47.8125 C 19.7554 47.79239 19.7448 47.77012 19.75 47.75 L 19.78125 47.75 L 24.1875 32.03125 L 23.53125 29.78125 z M 30.28125 33.9375 L 28.46875 40.28125 L 27.84375 42.40625 L 28.5 44.625 L 29.46875 41.28125 L 31.46875 34.28125 L 30.28125 33.9375 z M 11.78125 40 C 11.619001 40.004944 11.470854 40.009465 11.3125 40.03125 C 9.381729 40.296845 7.6945811 41.709671 7.15625 43.71875 C 6.6076262 45.766242 7.4245629 47.84574 9.03125 49.03125 C 8.1180877 47.843794 7.7375482 46.281366 8.15625 44.71875 C 8.6945811 42.709671 10.381729 41.296845 12.3125 41.03125 C 12.629208 40.98768 12.958451 40.97938 13.28125 41 C 13.604049 41.02062 13.920404 41.07017 14.25 41.15625 L 14.28125 41.15625 C 14.905516 41.323522 15.476672 41.608911 15.96875 41.96875 C 15.315006 41.117711 14.399417 40.455862 13.28125 40.15625 L 13.25 40.15625 C 12.920404 40.07017 12.604049 40.02062 12.28125 40 C 12.119851 39.98969 11.943499 39.995056 11.78125 40 z M 17.4375 40.59375 C 17.680779 40.891454 17.904239 41.197821 18.09375 41.53125 L 18.15625 41.28125 C 17.933024 41.039853 17.695156 40.802833 17.4375 40.59375 z "
     id="path2997" />
</svg>
