<?xml version="1.0" encoding="UTF-8" standalone="no"?>
<!-- Created with Inkscape (http://www.inkscape.org/) -->

<svg
   xmlns:dc="http://purl.org/dc/elements/1.1/"
   xmlns:cc="http://creativecommons.org/ns#"
   xmlns:rdf="http://www.w3.org/1999/02/22-rdf-syntax-ns#"
   xmlns:svg="http://www.w3.org/2000/svg"
   xmlns="http://www.w3.org/2000/svg"
   xmlns:xlink="http://www.w3.org/1999/xlink"
   xmlns:sodipodi="http://sodipodi.sourceforge.net/DTD/sodipodi-0.dtd"
   xmlns:inkscape="http://www.inkscape.org/namespaces/inkscape"
   id="svg13094"
   height="64"
   width="64"
   version="1.1"
   inkscape:version="0.48.4 r9939"
   sodipodi:docname="folder-linux.svg"
   inkscape:export-filename="folder.png"
   inkscape:export-xdpi="90"
   inkscape:export-ydpi="90">
  <sodipodi:namedview
     pagecolor="#ffffff"
     bordercolor="#666666"
     borderopacity="1"
     objecttolerance="10"
     gridtolerance="10"
     guidetolerance="10"
     inkscape:pageopacity="0"
     inkscape:pageshadow="2"
     inkscape:window-width="1920"
     inkscape:window-height="1022"
     id="namedview46"
     showgrid="true"
     inkscape:snap-bbox="true"
     inkscape:bbox-paths="true"
     inkscape:bbox-nodes="true"
     inkscape:snap-bbox-edge-midpoints="true"
     inkscape:snap-bbox-midpoints="true"
     inkscape:snap-nodes="true"
     inkscape:object-paths="true"
     inkscape:snap-intersection-paths="true"
     inkscape:object-nodes="true"
     inkscape:snap-smooth-nodes="true"
     inkscape:snap-midpoints="true"
     inkscape:snap-object-midpoints="true"
     inkscape:snap-center="true"
     fit-margin-top="0"
     fit-margin-left="0"
     fit-margin-right="0"
     fit-margin-bottom="0"
     inkscape:zoom="11.313709"
     inkscape:cx="28.208454"
     inkscape:cy="31.976808"
     inkscape:window-x="-5"
     inkscape:window-y="23"
     inkscape:window-maximized="1"
     inkscape:current-layer="svg13094"
     showguides="true"
     inkscape:guide-bbox="true"
     inkscape:snap-page="true"
     inkscape:snap-global="true">
    <inkscape:grid
       type="xygrid"
       id="grid3023"
       empspacing="5"
       visible="true"
       enabled="true"
       snapvisiblegridlinesonly="true"
       originx="-80px"
       originy="-75px" />
  </sodipodi:namedview>
  <defs
     id="defs11">
    <linearGradient
       id="linearGradient3841-4-4">
      <stop
         style="stop-color:#a17c48;stop-opacity:1;"
         offset="0"
         id="stop3843-9-9" />
      <stop
         style="stop-color:#be965e;stop-opacity:1;"
         offset="1"
         id="stop3845-3-7" />
    </linearGradient>
    <linearGradient
       inkscape:collect="always"
       xlink:href="#linearGradient3969-5"
       id="linearGradient3025"
       gradientUnits="userSpaceOnUse"
       x1="29.875"
       y1="64.082283"
       x2="29.875"
       y2="12.082283"
       gradientTransform="translate(0.625,-0.082283)" />
    <linearGradient
       id="linearGradient3969-5">
      <stop
         style="stop-color:#b3915e;stop-opacity:1;"
         offset="0"
         id="stop3971-52" />
      <stop
         id="stop3977-7"
         offset="0.08245245"
         style="stop-color:#caa36b;stop-opacity:1;" />
      <stop
         style="stop-color:#d0a973;stop-opacity:1;"
         offset="0.49040774"
         id="stop3979-2" />
      <stop
         id="stop3981-6"
         offset="0.51108748"
         style="stop-color:#c9a16b;stop-opacity:1;" />
      <stop
         style="stop-color:#c79e65;stop-opacity:1;"
         offset="1"
         id="stop3973-4" />
    </linearGradient>
    <linearGradient
       y2="32.976402"
       x2="77.278381"
       y1="48.976402"
       x1="77.278381"
       gradientTransform="translate(-33,-31.9764)"
       gradientUnits="userSpaceOnUse"
       id="linearGradient3720"
       xlink:href="#linearGradient3841-4-4"
       inkscape:collect="always" />
  </defs>
  <metadata
     id="metadata13099">
    <rdf:RDF>
      <cc:Work
         rdf:about="">
        <dc:format>image/svg+xml</dc:format>
        <dc:type
           rdf:resource="http://purl.org/dc/dcmitype/StillImage" />
        <dc:title />
      </cc:Work>
    </rdf:RDF>
  </metadata>
  <path
     sodipodi:nodetypes="cccccccccc"
     inkscape:connector-curvature="0"
     id="path3833"
     d="m 3,6 -10e-8,58.000001 L 60,64 64,60 64,1 63,0 37,0 32,4.9999999 4,5 z"
     style="fill:url(#linearGradient3720);fill-opacity:1;fill-rule:nonzero;stroke:none" />
  <path
     inkscape:connector-curvature="0"
     id="path3800"
     d="M 37,0 32,5 4,5 3,6 3,7 4,6 32,6 37,1 63,1 64,2 64,1 63,0 37,0 z"
     style="color:#000000;fill:#ffd08f;fill-opacity:0.46554775;fill-rule:nonzero;stroke:none;stroke-width:1;marker:none;visibility:visible;display:inline;overflow:visible;enable-background:accumulate" />
  <path
     style="fill:#c7c7c7;fill-opacity:1;fill-rule:nonzero"
     inkscape:connector-curvature="0"
     id="path3920"
     d="m 7,13 51,0 0,31 -51,0 z"
     sodipodi:nodetypes="ccccc" />
  <path
     style="fill:#3e4959;fill-opacity:0.43171806"
     inkscape:connector-curvature="0"
     d="m 58,13 0,51 2,0 4,-4 0,-59 -1,-1 0,18 z"
     id="path3802"
     sodipodi:nodetypes="cccccccc" />
  <path
     sodipodi:nodetypes="ccccc"
     style="fill:#ffffff;fill-opacity:0.60159009;fill-rule:nonzero"
     d="m 7,13 51,0 0,1 -51,0 z"
     id="path4253"
     inkscape:connector-curvature="0" />
  <path
     sodipodi:nodetypes="ccccc"
     inkscape:connector-curvature="0"
     id="path3982"
     d="m 30,13 4,4 2,0 -4,-4 z"
     style="color:#000000;fill:#3e4959;fill-opacity:0.22968199;fill-rule:nonzero;stroke-width:1;stroke-linecap:butt;stroke-linejoin:miter;stroke-miterlimit:4;stroke-opacity:1;stroke-dasharray:none;stroke-dashoffset:0;marker:none;visibility:visible;display:inline;overflow:visible;enable-background:accumulate" />
  <path
     inkscape:export-ydpi="90"
     inkscape:export-xdpi="90"
     sodipodi:nodetypes="ccccccccccc"
     style="fill:url(#linearGradient3025);fill-opacity:1;fill-rule:nonzero"
     inkscape:connector-curvature="0"
     d="m 0,13 0,50 1,1 59,0 1,-1 0,-45 -1,-1 -26,1e-6 -5,-5 L 1,12 z"
     id="path3916" />
  <path
     inkscape:connector-curvature="0"
     id="path3046"
     d="m 1,12 -1,1 0,1 1,-1 28,0 5,5 26,0 1,1 0,-1 -1,-1 -26,0 -5,-5 -28,0 z"
     style="fill:#ffd08f;fill-opacity:0.46554775;fill-rule:nonzero" />
  <path
     sodipodi:nodetypes="cccccccccccccccccccccccccccccccccccccccccccccccccccccccccccccccccccccccccccccccccccccccccccccccccccccccccccccccccccccccccccccsccccccccccccccccccccccccccccccccccccccccccscccccccccccccsssssscssscccccscccccccccccccccc"
     style="color:#000000;fill:#201010;fill-opacity:0.31498197999999999;fill-rule:nonzero;stroke:none;stroke-width:1;marker:none;visibility:visible;display:inline;overflow:visible;enable-background:accumulate"
     d="m 16.637877,24.131914 c -0.631986,0.09519 -1.272765,0.321119 -1.784757,0.708653 -0.401862,0.289472 -0.695098,0.706394 -0.944871,1.128597 -0.292034,0.491568 -0.478538,1.037686 -0.577422,1.601032 -0.124845,0.746038 -0.08707,1.506271 -0.05249,2.257193 0.03996,0.721076 0.10438,1.429723 0.07874,2.152206 -0.03456,0.556293 -0.178242,1.113797 -0.393698,1.627278 -0.352247,0.89572 -0.842596,1.734693 -1.312322,2.572149 -0.680721,1.185133 -1.379922,2.350436 -2.0472196,3.543268 -0.2870523,0.513339 -0.5679344,1.043871 -0.7611463,1.601031 -0.1485163,0.421272 -0.2383083,0.842736 -0.2887112,1.286076 -0.038845,0.390425 -0.0242,0.794317 0.052494,1.181089 -0.053703,0.05146 -0.1045183,0.103465 -0.1574783,0.157478 -0.017713,0.01806 -0.03427,0.03101 -0.052493,0.05249 -0.017876,0.02094 -0.034058,0.05504 -0.052493,0.07874 -0.2635075,0.339228 -0.586607,0.9179 -1.0236106,1.233582 -0.5000642,0.361214 -1.7511546,0.338882 -2.0734676,0.761147 -0.3167562,0.422417 0.00564,1.044877 0,2.178452 0,0.483548 -0.075661,0.834146 -0.131232,1.128597 -0.00418,0.01836 -0.022271,0.03479 -0.026246,0.05249 -0.0014,0.0063 0.00137,0.02004 0,0.02626 -2.45e-4,8.89e-4 2.351e-4,0.02531 0,0.02625 -7.912e-4,0.0031 7.76e-4,0.02318 0,0.02625 -6.958e-4,0.0031 -0.025596,-0.003 -0.026246,0 -1.471e-4,6.97e-4 1.47e-4,0.02555 0,0.02626 -0.00364,0.01453 0.00336,0.03857 0,0.05249 -0.00662,0.02764 -0.020868,0.05334 -0.026246,0.07874 -0.032252,0.145624 -0.049483,0.245629 -0.026245,0.341203 0.00346,0.01382 0.021371,0.03911 0.026245,0.05249 0.0021,0.0059 -0.00238,0.02041 0,0.02625 3.92e-4,8.88e-4 -4.213e-4,0.02532 0,0.02626 1.47e-4,2.93e-4 0.026095,-2.96e-4 0.026246,0 6.958e-4,0.0016 -7.007e-4,0.0246 0,0.02625 5.389e-4,0.0016 -5.684e-4,0.0246 0,0.02625 4.409e-4,8.89e-4 0.025796,-8.89e-4 0.026246,0 2.939e-4,6.97e-4 -2.94e-4,0.02552 0,0.02626 0.00375,0.0088 0.022074,0.01743 0.026246,0.02625 0.0011,0.0022 -0.00113,0.02398 0,0.02625 0.00843,0.01732 0.016131,0.03516 0.026245,0.05249 0.2834132,0.472432 0.7269275,0.584073 3.333296,1.128595 1.3948367,0.288972 2.7121766,1.030184 3.5957606,1.102351 0.883582,0.06676 1.088236,-0.230664 1.627278,-0.708655 0.509285,-0.456234 0.682173,-0.358642 0.682406,-1.259828 0.11365,0.04152 0.226797,0.09273 0.341204,0.131233 0.738024,0.239196 1.507935,0.363116 2.283439,0.341203 0.487165,-0.01727 0.963684,-0.07146 1.443554,-0.157478 0.710587,-0.117743 1.411964,-0.304309 2.099713,-0.524928 -0.0134,0.131619 -0.02365,0.261819 -0.02626,0.393695 -0.007,0.167351 -0.01387,0.335014 0.02626,0.498682 0.03537,0.171875 0.08149,0.340773 0.157479,0.498683 0.139295,0.239033 0.319428,0.473547 0.551176,0.629913 0.133803,0.09487 0.287008,0.17041 0.446187,0.209971 0.184889,0.0526 0.387462,0.07921 0.577422,0.104988 0.297495,0.02562 0.601063,-0.01211 0.892378,-0.07874 0.338784,-0.08176 0.659367,-0.237421 0.918625,-0.472436 0.523051,-0.429903 1.035927,-0.849786 1.574786,-1.259828 0.457318,-0.347223 0.94071,-0.677476 1.417307,-0.997364 0.425291,-0.282453 0.84104,-0.547878 1.259829,-0.839886 0.18323,-0.134476 0.380056,-0.268148 0.524928,-0.44619 0.114692,-0.140091 0.166835,-0.350744 0.104985,-0.524929 -0.04523,-0.155688 -0.142916,-0.263308 -0.262464,-0.367448 -0.293862,-0.27813 -0.606888,-0.55306 -0.892377,-0.839887 -0.238591,-0.249102 -0.476646,-0.514427 -0.603669,-0.839884 -0.102053,-0.236659 -0.131347,-0.480111 -0.157479,-0.734901 -0.02172,-0.176362 -0.0684,-0.357686 -0.131231,-0.524929 -0.05194,-0.144211 -0.177921,-0.216567 -0.314958,-0.262464 -0.128936,-0.04892 -0.283716,-0.08543 -0.419943,-0.104986 0.01866,-0.07552 0.03306,-0.158204 0.02625,-0.236216 0.0034,-0.0073 -0.0034,-0.01891 0,-0.02626 0.12162,-0.266669 0.246816,-0.533706 0.341203,-0.813639 0.09875,-0.308358 0.174492,-0.620368 0.183725,-0.944871 0.01859,-0.459834 -0.04921,-0.944659 -0.157479,-1.391061 -0.143445,-0.564052 -0.386624,-1.086518 -0.656166,-1.601043 -0.460641,-0.86669 -0.987396,-1.681066 -1.496046,-2.519657 -0.386762,-0.599238 -0.781327,-1.212505 -1.207335,-1.784757 -0.305091,-0.421676 -0.62548,-0.838682 -0.892379,-1.286075 -0.193749,-0.324468 -0.376309,-0.662338 -0.551174,-0.997364 -0.186039,-0.365144 -0.320654,-0.750993 -0.393696,-1.154844 -0.138776,-0.763094 -0.116278,-1.53779 -0.104987,-2.309684 0.0079,-0.63623 0.03716,-1.287003 -0.07874,-1.91599 -0.111407,-0.63691 -0.364647,-1.243739 -0.761147,-1.758509 -0.427068,-0.564668 -1.022097,-0.981293 -1.679771,-1.233582 -0.680389,-0.251447 -1.406757,-0.302283 -2.12596,-0.288717 z m 1.54854,4.04195 c 0.08103,-0.003 0.155579,-0.01006 0.236218,0 0.247216,0.01816 0.48926,0.133923 0.65616,0.314956 0.194634,0.210324 0.291872,0.480749 0.341204,0.761147 0.05808,0.331281 0.01307,0.67651 -0.07874,0.997365 -0.05484,0.211295 -0.164288,0.400134 -0.288711,0.57742 -0.08574,0.118311 -0.166222,0.231376 -0.262464,0.341204 0.174392,0.07542 0.355627,0.132379 0.498682,0.262464 0.121411,0.114421 0.161124,0.287649 0.157479,0.446188 -0.0048,0.272489 -0.08016,0.553135 -0.262464,0.761147 0.02682,0.434627 0.08345,0.869896 0.209972,1.286076 0.219809,0.70719 0.533906,1.386764 0.866131,2.047221 0.29937,0.588157 0.612384,1.173888 0.918624,1.75851 0.324088,0.623862 0.659256,1.235019 0.918625,1.889743 0.270547,0.676706 0.431951,1.400678 0.498683,2.125959 0.03228,0.376791 0.03769,0.752084 0,1.128597 -0.03093,0.383596 -0.125683,0.762181 -0.236219,1.128597 -0.0057,0.01875 -0.02058,0.03382 -0.02625,0.05249 0.0084,0.0016 0.01764,-0.0014 0.02625,0 -0.916523,-0.09571 -1.137295,-0.170018 -1.360331,0.365781 0.06791,-0.384324 0.0493,1.492561 0.06685,1.10371 0.01,-0.216295 0.02909,0.942119 -0.04508,1.233891 -0.0871,0.116826 -0.167075,0.234974 -0.262464,0.341203 -0.498454,0.559842 -1.074887,1.039903 -1.706018,1.443553 -0.464515,0.302757 -1.003442,0.505747 -1.548537,0.603669 -0.578492,0.102597 -1.175018,0.118368 -1.758513,0.05249 -0.677501,-0.07574 -1.326682,-0.28421 -1.915988,-0.629915 -0.251554,-0.147037 -0.489575,-0.308976 -0.708654,-0.498682 0.09003,-0.05804 0.176229,-0.118843 0.262464,-0.183726 0.180935,-0.13878 0.330386,-0.322577 0.472436,-0.498682 0.10995,-0.147072 0.197747,-0.335236 0.15748,-0.524928 -0.03708,-0.148593 -0.137264,-0.28121 -0.236218,-0.393697 -0.108947,-0.111394 -0.206289,-0.229624 -0.314958,-0.341202 -0.676808,-0.663402 -1.373264,-1.302192 -2.047221,-1.968483 -0.235145,-0.235194 -0.469315,-0.485428 -0.656161,-0.761146 -0.02971,-0.04652 -0.02882,-0.107463 -0.05249,-0.157478 -0.07352,-0.373162 -0.137142,-0.747138 -0.131232,-1.128596 0.0076,-0.846996 0.219371,-1.676765 0.577421,-2.440918 0.307852,-0.649015 0.715499,-1.259694 1.102349,-1.863495 0.269661,-0.41125 0.531696,-0.824308 0.761148,-1.259829 0.275834,-0.510678 0.519108,-1.052204 0.708652,-1.601032 0.164154,-0.441841 0.254317,-0.898257 0.314958,-1.364814 0.200146,0.197865 0.949035,0.901215 1.75851,0.918625 0.906213,0.01949 1.979993,-0.723147 2.440919,-1.154843 -0.357753,0.214944 -0.701348,0.444336 -1.076104,0.629914 -0.224745,0.121868 -0.480397,0.187999 -0.7349,0.209971 -0.24557,0.01868 -0.493381,-0.0023 -0.7349,-0.05249 -0.238845,-0.04707 -0.43111,-0.183046 -0.629903,-0.314959 -0.270085,-0.162623 -0.520014,-0.37572 -0.761146,-0.577422 -0.174047,-0.162547 -0.338031,-0.327278 -0.472436,-0.524928 -0.185801,-0.246766 -0.275477,-0.591828 -0.183725,-0.892379 0.03519,-0.131476 0.11283,-0.247598 0.209971,-0.341204 0.150342,-0.128379 0.31669,-0.227716 0.472437,-0.341204 -0.153108,-0.113639 -0.254085,-0.276154 -0.341205,-0.446188 -0.172768,-0.348082 -0.29622,-0.737917 -0.314956,-1.128597 -0.01548,-0.21046 0.02339,-0.401033 0.07874,-0.603666 0.07292,-0.276919 0.319519,-0.514455 0.603667,-0.551176 0.04825,-0.0039 0.109785,0.01824 0.157479,0.02625 0.232775,0.02882 0.42896,0.166032 0.577421,0.341202 0.119671,0.133739 0.182458,0.3031 0.236218,0.472436 0.07582,0.20485 0.112333,0.413886 0.131231,0.629914 0.0225,0.205103 -0.03037,0.409942 -0.104985,0.603666 0.179978,-0.07375 0.360469,-0.129156 0.551175,-0.157476 0.125745,-0.01314 0.242818,0.0098 0.367449,0.02625 0.185922,0.02897 0.371547,0.07712 0.551175,0.131231 -0.06342,-0.370837 -0.02211,-0.736446 0.05249,-1.102349 0.04293,-0.161294 0.126001,-0.328672 0.209973,-0.472435 0.134047,-0.219942 0.296818,-0.423005 0.524927,-0.551175 0.178288,-0.0872 0.38217,-0.146479 0.577424,-0.183725 z m -0.183725,0.94487 c -0.11719,0.01884 -0.241073,0.06946 -0.341204,0.131233 -0.09584,0.0697 -0.157287,0.174782 -0.236218,0.262464 -0.04428,0.05952 -0.100409,0.115855 -0.131233,0.183726 -0.08481,0.188228 -0.145099,0.397504 -0.157478,0.603667 -0.0036,0.09587 0.0074,0.197284 0.02625,0.28871 0.168713,0.05892 0.330656,0.124836 0.498683,0.183726 0.147824,0.05341 0.296317,0.107465 0.446189,0.157478 0.03866,-0.02328 0.08129,-0.03962 0.104985,-0.07874 0.07748,-0.103784 0.132304,-0.221493 0.183726,-0.341202 0.05036,-0.105398 0.113581,-0.198919 0.131231,-0.314958 0.039,-0.182707 0.05263,-0.390779 0.02625,-0.577422 -0.01917,-0.106438 -0.03642,-0.203549 -0.104986,-0.28871 -0.07907,-0.09555 -0.194454,-0.155804 -0.314957,-0.183726 -0.04241,-0.0056 -0.08813,-0.03499 -0.131232,-0.02625 z m -3.517022,0.07874 c -0.08144,0.01525 -0.147462,0.05098 -0.209971,0.104986 -0.08185,0.09856 -0.164595,0.213413 -0.183723,0.341204 -0.02785,0.149832 -0.0057,0.298372 0.02625,0.446189 0.0361,0.165315 0.123101,0.328691 0.209971,0.472435 0.07182,0.106723 0.153452,0.217308 0.262465,0.288711 0.01582,0.01 0.03589,0.01825 0.05249,0.02625 0.01593,-0.01124 0.03649,-0.01494 0.05249,-0.02625 0.126834,-0.09363 0.278523,-0.161791 0.419942,-0.236218 0.02941,-0.07308 0.01581,-0.132956 0.02625,-0.209973 0.01029,-0.122996 0.01626,-0.270957 0,-0.393695 -0.0096,-0.08449 -0.01804,-0.157377 -0.05249,-0.236217 -0.02051,-0.0932 -0.06212,-0.178572 -0.104985,-0.262465 -0.05552,-0.09579 -0.110115,-0.18119 -0.209971,-0.236217 -0.08235,-0.05684 -0.189011,-0.09137 -0.288713,-0.07874 z m 0.393697,1.02361 c 0.04306,0 0.07874,0.05654 0.07874,0.104988 0,0.04845 -0.03568,0.07874 -0.07874,0.07874 -0.04306,0 -0.07874,-0.03029 -0.07874,-0.07874 0,-0.04845 0.03568,-0.104988 0.07874,-0.104988 z m 3.123325,0.07874 c 0.04306,0 0.07874,0.03029 0.07874,0.07874 0,0.04845 -0.03568,0.104984 -0.07874,0.104984 -0.04306,0 -0.07874,-0.05654 -0.07874,-0.104984 0,-0.04845 0.03568,-0.07874 0.07874,-0.07874 z m -1.732265,0.314957 c -0.02933,0.0084 -0.03403,0.03401 -0.02625,0.05249 0.05452,0.112925 0.195255,0.133102 0.288712,0.183725 0.08951,0.05062 0.148731,0.07196 0.183724,0.05249 0.07788,-0.04284 0.02533,-0.185593 -0.05249,-0.236216 -0.03699,-0.02528 -0.166574,-0.05249 -0.262466,-0.05249 -0.04795,0 -0.101901,-0.0084 -0.131231,0 z m -0.761146,0.02625 c -0.206504,0.0367 -0.217896,0.137835 -0.236218,0.183725 -0.01833,0.04582 0.119514,0.112137 0.183725,0.05249 0.06889,-0.05959 0.156158,-0.112853 0.183725,-0.131232 0.108278,-0.07227 0.09284,-0.117037 -0.05249,-0.104985 -0.02077,0.0016 -0.05293,-0.0046 -0.07874,-1e-6 z m 3.543267,1.286075 c -1.822497,1.246885 -3.575447,1.557774 -5.196792,0.524928 0.756631,0.73067 2.65741,1.663011 5.196792,-0.524928 z m -4.829341,17.847567 c 0.04061,0.09824 0.08209,0.203348 0.104985,0.314958 0.0236,0.115042 0.05032,0.231081 0.05249,0.36745 -0.002,-0.133801 -0.02695,-0.250589 -0.05249,-0.36745 -0.02376,-0.10865 -0.0647,-0.21732 -0.104985,-0.314958 z"
     id="path3061"
     inkscape:connector-curvature="0" />
  <path
     style="color:#000000;fill:#ffd08f;fill-opacity:0.54422386000000000;fill-rule:nonzero;stroke:none;stroke-width:1;marker:none;visibility:visible;display:inline;overflow:visible;enable-background:accumulate"
     d="M 20.5625 25.8125 C 20.892951 26.291428 21.118595 26.833668 21.21875 27.40625 C 21.33465 28.035237 21.28915 28.70752 21.28125 29.34375 C 21.269959 30.115644 21.236224 30.861906 21.375 31.625 C 21.448042 32.028851 21.595211 32.416106 21.78125 32.78125 C 21.956115 33.116276 22.150001 33.456782 22.34375 33.78125 C 22.610649 34.228643 22.913659 34.640824 23.21875 35.0625 C 23.644758 35.634752 24.050738 36.275762 24.4375 36.875 C 24.94615 37.713591 25.476859 38.50831 25.9375 39.375 C 26.207042 39.889525 26.450305 40.404698 26.59375 40.96875 C 26.702019 41.415152 26.76859 41.915166 26.75 42.375 C 26.740767 42.699503 26.66125 43.004142 26.5625 43.3125 C 26.468113 43.592433 26.34037 43.858331 26.21875 44.125 C 26.21535 44.13235 26.22215 44.14895 26.21875 44.15625 C 26.22556 44.234262 26.20616 44.33073 26.1875 44.40625 C 26.323727 44.425806 26.496064 44.45108 26.625 44.5 C 26.762037 44.545897 26.88556 44.605789 26.9375 44.75 C 27.000331 44.917243 27.04078 45.104888 27.0625 45.28125 C 27.088632 45.53604 27.116697 45.794591 27.21875 46.03125 C 27.345773 46.356707 27.573909 46.625898 27.8125 46.875 C 28.020077 47.08355 28.250009 47.266976 28.46875 47.46875 C 28.363535 47.330599 28.282262 47.193979 28.21875 47.03125 C 28.116697 46.794591 28.088632 46.53604 28.0625 46.28125 C 28.04078 46.104888 28.000331 45.917243 27.9375 45.75 C 27.88556 45.605789 27.762037 45.545897 27.625 45.5 C 27.496064 45.45108 27.323727 45.425806 27.1875 45.40625 C 27.20616 45.33073 27.22556 45.234262 27.21875 45.15625 C 27.22215 45.14895 27.21535 45.13235 27.21875 45.125 C 27.34037 44.858331 27.468113 44.592433 27.5625 44.3125 C 27.66125 44.004142 27.740767 43.699503 27.75 43.375 C 27.76859 42.915166 27.702019 42.415152 27.59375 41.96875 C 27.450305 41.404698 27.207042 40.889525 26.9375 40.375 C 26.476859 39.50831 25.94615 38.713591 25.4375 37.875 C 25.050738 37.275762 24.644758 36.634752 24.21875 36.0625 C 23.913659 35.640824 23.610649 35.228643 23.34375 34.78125 C 23.150001 34.456782 22.956115 34.116276 22.78125 33.78125 C 22.595211 33.416106 22.448042 33.028851 22.375 32.625 C 22.236224 31.861906 22.269959 31.115644 22.28125 30.34375 C 22.28915 29.70752 22.33465 29.035237 22.21875 28.40625 C 22.107343 27.76934 21.834 27.17102 21.4375 26.65625 C 21.191974 26.331617 20.899043 26.036174 20.5625 25.8125 z M 18.1875 28.1875 C 17.992246 28.224746 17.772038 28.25655 17.59375 28.34375 C 17.365641 28.47192 17.227797 28.686308 17.09375 28.90625 C 17.009778 29.050013 16.91793 29.213706 16.875 29.375 C 16.8004 29.740903 16.74908 30.097913 16.8125 30.46875 C 16.652896 30.420671 16.508824 30.373144 16.34375 30.34375 C 16.372498 30.435932 16.38995 30.530723 16.40625 30.625 C 16.502142 30.625 16.61926 30.63097 16.65625 30.65625 C 16.73407 30.706873 16.79663 30.86341 16.71875 30.90625 C 16.683757 30.92572 16.62076 30.89437 16.53125 30.84375 C 16.503857 30.828912 16.469654 30.825209 16.4375 30.8125 C 16.439922 30.83522 16.466749 30.852126 16.46875 30.875 C 16.49125 31.080103 16.418365 31.275026 16.34375 31.46875 C 16.523728 31.395 16.715544 31.34082 16.90625 31.3125 C 17.031995 31.29936 17.156619 31.3273 17.28125 31.34375 C 17.467172 31.37272 17.632872 31.414639 17.8125 31.46875 C 17.775362 31.251593 17.792157 31.05843 17.8125 30.84375 C 17.75878 30.824469 17.709761 30.800584 17.65625 30.78125 C 17.488223 30.72236 17.324963 30.65267 17.15625 30.59375 C 17.1374 30.502324 17.1214 30.40837 17.125 30.3125 C 17.137379 30.106337 17.19644 29.875728 17.28125 29.6875 C 17.312074 29.619629 17.39322 29.55952 17.4375 29.5 C 17.516431 29.412318 17.56041 29.3197 17.65625 29.25 C 17.756381 29.188227 17.88281 29.14384 18 29.125 C 18.043102 29.11626 18.08259 29.15065 18.125 29.15625 C 18.245503 29.184172 18.35843 29.2482 18.4375 29.34375 C 18.462184 29.374408 18.486134 29.403867 18.5 29.4375 C 18.536273 29.410643 18.553634 29.36629 18.59375 29.34375 C 18.772038 29.25655 18.992246 29.224746 19.1875 29.1875 C 19.258401 29.184875 19.336851 29.182153 19.40625 29.1875 C 19.35379 28.929179 19.274169 28.694963 19.09375 28.5 C 18.92685 28.318967 18.684716 28.20566 18.4375 28.1875 C 18.356861 28.17744 18.26853 28.1845 18.1875 28.1875 z M 14.375 28.40625 C 14.364078 28.459137 14.353093 28.509274 14.34375 28.5625 C 14.300401 28.821541 14.261078 29.08227 14.25 29.34375 C 14.25892 29.332544 14.272266 29.323318 14.28125 29.3125 C 14.343759 29.258494 14.41856 29.20275 14.5 29.1875 C 14.599702 29.17487 14.6989 29.22441 14.78125 29.28125 C 14.881106 29.336277 14.91323 29.40421 14.96875 29.5 C 14.978472 29.519027 14.990639 29.543246 15 29.5625 C 15.100511 29.478778 15.215337 29.422845 15.34375 29.40625 C 15.329489 29.355087 15.331232 29.30061 15.3125 29.25 C 15.25874 29.080664 15.213421 28.914989 15.09375 28.78125 C 14.945289 28.60608 14.732775 28.46632 14.5 28.4375 C 14.461478 28.43103 14.417288 28.409989 14.375 28.40625 z M 19 30.125 C 18.88281 30.14384 18.756381 30.188227 18.65625 30.25 C 18.56041 30.3197 18.516431 30.412318 18.4375 30.5 C 18.413545 30.532199 18.368758 30.561084 18.34375 30.59375 C 18.322531 30.621466 18.295399 30.656346 18.28125 30.6875 C 18.268412 30.715993 18.261633 30.751876 18.25 30.78125 C 18.237514 30.800577 18.232568 30.825241 18.21875 30.84375 C 18.166235 30.990477 18.134199 31.159296 18.125 31.3125 C 18.1214 31.40837 18.1374 31.502324 18.15625 31.59375 C 18.324963 31.65267 18.488223 31.72236 18.65625 31.78125 C 18.79471 31.831277 18.922283 31.890193 19.0625 31.9375 C 19.071983 31.940699 19.084256 31.934332 19.09375 31.9375 C 19.13241 31.91422 19.195055 31.88287 19.21875 31.84375 C 19.282412 31.758475 19.331249 31.659962 19.375 31.5625 C 19.350961 31.511848 19.323277 31.477107 19.28125 31.4375 C 19.138195 31.307415 18.955642 31.23167 18.78125 31.15625 C 18.877492 31.046422 18.97676 30.930811 19.0625 30.8125 C 19.186923 30.635214 19.28891 30.461295 19.34375 30.25 C 19.280051 30.206566 19.200314 30.173701 19.125 30.15625 C 19.08259 30.15065 19.043102 30.11626 19 30.125 z M 15.4375 30.21875 C 15.384127 30.237856 15.326449 30.27345 15.28125 30.3125 C 15.240325 30.36178 15.189559 30.411743 15.15625 30.46875 C 15.149588 30.480151 15.13097 30.48831 15.125 30.5 C 15.123731 30.537972 15.14147 30.584075 15.125 30.625 C 15.121879 30.637517 15.095663 30.643471 15.09375 30.65625 C 15.0659 30.806082 15.09305 30.945933 15.125 31.09375 C 15.1611 31.259065 15.25688 31.418756 15.34375 31.5625 C 15.41557 31.669223 15.484737 31.772347 15.59375 31.84375 C 15.60957 31.85375 15.63965 31.867 15.65625 31.875 C 15.67218 31.86376 15.6715 31.85506 15.6875 31.84375 C 15.814334 31.75012 15.983581 31.699427 16.125 31.625 C 16.15441 31.55192 16.14581 31.483267 16.15625 31.40625 C 16.16654 31.283254 16.17251 31.122738 16.15625 31 C 16.14665 30.91551 16.1282 30.86009 16.09375 30.78125 C 16.07324 30.68805 16.011615 30.583893 15.96875 30.5 C 15.928776 30.431031 15.900004 30.394488 15.84375 30.34375 C 15.677448 30.374253 15.502584 30.403664 15.34375 30.46875 C 15.377327 30.381574 15.417617 30.309439 15.4375 30.21875 z M 14.28125 30.4375 C 14.28642 30.562965 14.275491 30.687443 14.28125 30.8125 C 14.286371 30.904908 14.275567 31.001695 14.28125 31.09375 C 14.297882 31.108405 14.325737 31.111631 14.34375 31.125 C 14.332596 31.133128 14.323753 31.148252 14.3125 31.15625 C 14.344993 31.676599 14.348124 32.197113 14.34375 32.71875 C 14.446396 32.766534 14.552645 32.805985 14.65625 32.84375 C 14.658732 32.834422 14.653427 32.821748 14.65625 32.8125 C 14.69144 32.681024 14.746609 32.562356 14.84375 32.46875 C 14.994092 32.340371 15.188003 32.238488 15.34375 32.125 C 15.190642 32.011361 15.08712 31.857534 15 31.6875 C 14.86342 31.412327 14.766319 31.11965 14.71875 30.8125 C 14.707535 30.820171 14.698371 30.835725 14.6875 30.84375 C 14.6715 30.85506 14.67218 30.86376 14.65625 30.875 C 14.63965 30.867 14.60957 30.85375 14.59375 30.84375 C 14.484737 30.772347 14.41557 30.669223 14.34375 30.5625 C 14.319694 30.522694 14.304243 30.479941 14.28125 30.4375 z M 15.5 30.65625 C 15.52581 30.651651 15.57298 30.65785 15.59375 30.65625 C 15.73908 30.644198 15.733278 30.67773 15.625 30.75 C 15.597433 30.768379 15.53764 30.81541 15.46875 30.875 C 15.404539 30.934647 15.26292 30.85832 15.28125 30.8125 C 15.299572 30.76661 15.293496 30.69295 15.5 30.65625 z M 15.875 31.21875 C 15.91806 31.21875 15.96875 31.264052 15.96875 31.3125 C 15.96875 31.36095 15.91806 31.40625 15.875 31.40625 C 15.83194 31.40625 15.8125 31.36095 15.8125 31.3125 C 15.8125 31.26405 15.83194 31.21875 15.875 31.21875 z M 18.9375 31.3125 C 18.951802 31.298871 18.97847 31.3125 19 31.3125 C 19.04306 31.3125 19.09375 31.32655 19.09375 31.375 C 19.09375 31.42345 19.04306 31.46875 19 31.46875 C 18.95694 31.46875 18.9375 31.423444 18.9375 31.375 C 18.9375 31.350775 18.923198 31.326129 18.9375 31.3125 z M 17.28125 31.625 C 17.25192 31.6334 17.24222 31.63777 17.25 31.65625 C 17.30452 31.769175 17.437793 31.793127 17.53125 31.84375 C 17.62076 31.89437 17.683757 31.92572 17.71875 31.90625 C 17.79663 31.86341 17.73407 31.706873 17.65625 31.65625 C 17.61926 31.63097 17.502142 31.625 17.40625 31.625 C 17.3583 31.625 17.31058 31.6166 17.28125 31.625 z M 16.5 31.65625 C 16.293496 31.69295 16.299572 31.76661 16.28125 31.8125 C 16.26292 31.85832 16.404539 31.934647 16.46875 31.875 C 16.53764 31.81541 16.597433 31.768379 16.625 31.75 C 16.733278 31.67773 16.73908 31.644198 16.59375 31.65625 C 16.57298 31.65785 16.52581 31.651651 16.5 31.65625 z M 14.34375 32.8125 C 14.342793 32.865485 14.345635 32.915626 14.34375 32.96875 C 14.338021 33.060968 14.324056 33.157922 14.3125 33.25 C 14.471165 33.38272 14.611732 33.500039 14.78125 33.625 C 14.666942 33.438158 14.606522 33.218579 14.625 33 C 14.519639 32.949324 14.43541 32.869694 14.34375 32.8125 z M 19.28125 33.40625 C 18.606417 33.76983 17.930804 33.968234 17.28125 34.03125 C 17.117467 34.124756 16.958073 34.208424 16.78125 34.28125 C 17.490312 34.321951 18.351015 34.106094 19.3125 33.46875 C 19.308115 33.446141 19.285328 33.428924 19.28125 33.40625 z M 14.84375 33.4375 C 15.127487 33.711501 15.577381 34.03196 16.15625 34.1875 C 16.248519 34.191098 16.345411 34.194505 16.4375 34.1875 C 16.621405 34.171623 16.795741 34.128861 16.96875 34.0625 C 16.241407 34.075113 15.528787 33.873889 14.84375 33.4375 z M 14.21875 33.75 C 14.150251 34.043693 14.084286 34.3184 13.96875 34.59375 C 13.812973 34.98987 13.602317 35.371299 13.40625 35.75 C 13.38064 35.799465 13.369782 35.85699 13.34375 35.90625 C 13.244525 36.120599 13.142444 36.325385 13.03125 36.53125 C 12.909208 36.750007 12.778292 36.969916 12.65625 37.1875 C 12.112945 38.133392 11.541233 39.055294 11 40 C 10.732029 40.667747 10.568987 41.402064 10.5625 42.125 C 10.55659 42.506458 10.64523 42.876838 10.71875 43.25 C 10.74242 43.300015 10.72029 43.35973 10.75 43.40625 C 10.936846 43.681968 11.171105 43.921056 11.40625 44.15625 C 11.620459 44.368022 11.845098 44.573361 12.0625 44.78125 C 11.951209 44.654827 11.843423 44.544109 11.75 44.40625 C 11.72029 44.35973 11.74242 44.300015 11.71875 44.25 C 11.64523 43.876838 11.55659 43.506458 11.5625 43.125 C 11.5701 42.278004 11.7982 41.420403 12.15625 40.65625 C 12.464102 40.007235 12.86315 39.416301 13.25 38.8125 C 13.519661 38.40125 13.801798 37.966771 14.03125 37.53125 C 14.307084 37.020572 14.529206 36.486328 14.71875 35.9375 C 14.882904 35.495659 14.970609 35.060307 15.03125 34.59375 C 15.231396 34.791615 16.003025 35.48259 16.8125 35.5 C 17.718713 35.51949 18.789074 34.775446 19.25 34.34375 C 18.892247 34.558694 18.531006 34.783172 18.15625 34.96875 C 17.931505 35.090618 17.692003 35.165528 17.4375 35.1875 C 17.19193 35.20618 16.929019 35.17519 16.6875 35.125 C 16.448655 35.07793 16.261293 34.944413 16.0625 34.8125 C 15.900716 34.715087 15.743511 34.589087 15.59375 34.46875 C 15.01455 34.374949 14.499379 34.000119 14.21875 33.75 z M 13.78125 46.46875 C 13.880204 46.581237 13.96292 46.726407 14 46.875 C 14.040267 47.064692 13.9537 47.227928 13.84375 47.375 C 13.7017 47.551105 13.555935 47.73622 13.375 47.875 C 13.288765 47.939883 13.21503 48.00446 13.125 48.0625 C 13.344079 48.252206 13.592196 48.415463 13.84375 48.5625 C 14.029381 48.671397 14.209723 48.761946 14.40625 48.84375 C 14.571373 48.708819 14.711128 48.539417 14.84375 48.375 C 14.9537 48.227928 15.040267 48.064692 15 47.875 C 14.96292 47.726407 14.880204 47.581237 14.78125 47.46875 C 14.672303 47.357356 14.577419 47.236578 14.46875 47.125 C 14.243147 46.903866 14.009658 46.686345 13.78125 46.46875 z M 28.9375 47.96875 C 28.953377 48.00041 28.958196 48.026173 28.96875 48.0625 C 29.0306 48.236685 28.989692 48.453659 28.875 48.59375 C 28.730128 48.771792 28.52698 48.896774 28.34375 49.03125 C 27.924961 49.323258 27.519041 49.592547 27.09375 49.875 C 26.617153 50.194888 26.113568 50.527777 25.65625 50.875 C 25.117391 51.285042 24.616801 51.695097 24.09375 52.125 C 23.834492 52.360015 23.526284 52.51199 23.1875 52.59375 C 22.896185 52.66038 22.578745 52.71312 22.28125 52.6875 C 22.09129 52.661722 21.903639 52.64635 21.71875 52.59375 C 21.697255 52.588408 21.677494 52.569113 21.65625 52.5625 C 21.677441 52.624765 21.690085 52.690433 21.71875 52.75 C 21.858045 52.989033 22.018252 53.218634 22.25 53.375 C 22.383803 53.46987 22.559571 53.554189 22.71875 53.59375 C 22.903639 53.64635 23.09129 53.661722 23.28125 53.6875 C 23.578745 53.71312 23.896185 53.66038 24.1875 53.59375 C 24.526284 53.51199 24.834492 53.360015 25.09375 53.125 C 25.616801 52.695097 26.117391 52.285042 26.65625 51.875 C 27.113568 51.527777 27.617153 51.194888 28.09375 50.875 C 28.519041 50.592547 28.924961 50.323258 29.34375 50.03125 C 29.52698 49.896774 29.730128 49.771792 29.875 49.59375 C 29.989692 49.453659 30.0306 49.236685 29.96875 49.0625 C 29.92352 48.906812 29.838298 48.79164 29.71875 48.6875 C 29.462468 48.444938 29.191956 48.216458 28.9375 47.96875 z M 20.5625 50.34375 C 19.874751 50.564369 19.148087 50.757257 18.4375 50.875 C 17.95763 50.961018 17.487165 51.01398 17 51.03125 C 16.224496 51.053163 15.456774 50.926696 14.71875 50.6875 C 14.604343 50.648997 14.48865 50.60402 14.375 50.5625 C 14.374767 51.463686 14.196785 51.356266 13.6875 51.8125 C 13.148458 52.290491 12.946082 52.59801 12.0625 52.53125 C 11.178916 52.459083 9.8635867 51.726472 8.46875 51.4375 C 7.2100647 51.174536 6.4754157 51.025442 6 50.875 C 5.9990469 50.912554 5.9916191 50.965531 6 51 C 6.00346 51.01382 6.026376 51.04912 6.03125 51.0625 C 6.03335 51.0684 6.02887 51.08791 6.03125 51.09375 C 6.031642 51.094638 6.0308287 51.12406 6.03125 51.125 C 6.031397 51.125293 6.062349 51.124704 6.0625 51.125 C 6.0631958 51.1266 6.0617993 51.1546 6.0625 51.15625 C 6.0629409 51.157139 6.0933 51.155361 6.09375 51.15625 C 6.0940439 51.156947 6.093456 51.18676 6.09375 51.1875 C 6.0975 51.1963 6.120828 51.20993 6.125 51.21875 C 6.1261 51.22095 6.12387 51.24773 6.125 51.25 C 6.13343 51.26732 6.146136 51.29517 6.15625 51.3125 C 6.4396632 51.784932 6.8623815 51.892978 9.46875 52.4375 C 10.863587 52.726472 12.178916 53.459083 13.0625 53.53125 C 13.946082 53.59801 14.148458 53.290491 14.6875 52.8125 C 15.196785 52.356266 15.374767 52.463686 15.375 51.5625 C 15.48865 51.60402 15.604343 51.648997 15.71875 51.6875 C 16.456774 51.926696 17.224496 52.053163 18 52.03125 C 18.487165 52.01398 18.95763 51.961018 19.4375 51.875 C 19.856158 51.805629 20.27614 51.70379 20.6875 51.59375 C 20.645881 51.479481 20.587171 51.369884 20.5625 51.25 C 20.52237 51.086332 20.52425 50.917351 20.53125 50.75 C 20.53386 50.618124 20.5491 50.475369 20.5625 50.34375 z "
     id="path3102" />
</svg>
