<?xml version="1.0" encoding="UTF-8" standalone="no"?>
<!-- Created with Inkscape (http://www.inkscape.org/) -->

<svg
   xmlns:dc="http://purl.org/dc/elements/1.1/"
   xmlns:cc="http://creativecommons.org/ns#"
   xmlns:rdf="http://www.w3.org/1999/02/22-rdf-syntax-ns#"
   xmlns:svg="http://www.w3.org/2000/svg"
   xmlns="http://www.w3.org/2000/svg"
   xmlns:xlink="http://www.w3.org/1999/xlink"
   xmlns:sodipodi="http://sodipodi.sourceforge.net/DTD/sodipodi-0.dtd"
   xmlns:inkscape="http://www.inkscape.org/namespaces/inkscape"
   id="svg13094"
   height="64"
   width="64"
   version="1.1"
   inkscape:version="0.48.4 r9939"
   sodipodi:docname="folder-java.svg"
   inkscape:export-filename="folder.png"
   inkscape:export-xdpi="90"
   inkscape:export-ydpi="90">
  <sodipodi:namedview
     pagecolor="#ffffff"
     bordercolor="#666666"
     borderopacity="1"
     objecttolerance="10"
     gridtolerance="10"
     guidetolerance="10"
     inkscape:pageopacity="0"
     inkscape:pageshadow="2"
     inkscape:window-width="1920"
     inkscape:window-height="1022"
     id="namedview46"
     showgrid="true"
     inkscape:snap-bbox="true"
     inkscape:bbox-paths="true"
     inkscape:bbox-nodes="true"
     inkscape:snap-bbox-edge-midpoints="true"
     inkscape:snap-bbox-midpoints="true"
     inkscape:snap-nodes="true"
     inkscape:object-paths="true"
     inkscape:snap-intersection-paths="true"
     inkscape:object-nodes="true"
     inkscape:snap-smooth-nodes="true"
     inkscape:snap-midpoints="true"
     inkscape:snap-object-midpoints="true"
     inkscape:snap-center="true"
     fit-margin-top="0"
     fit-margin-left="0"
     fit-margin-right="0"
     fit-margin-bottom="0"
     inkscape:zoom="14.75"
     inkscape:cx="29.759315"
     inkscape:cy="28.127111"
     inkscape:window-x="-5"
     inkscape:window-y="23"
     inkscape:window-maximized="1"
     inkscape:current-layer="svg13094"
     showguides="true"
     inkscape:guide-bbox="true"
     inkscape:snap-page="true"
     inkscape:snap-global="true">
    <inkscape:grid
       type="xygrid"
       id="grid3023"
       empspacing="5"
       visible="true"
       enabled="true"
       snapvisiblegridlinesonly="true"
       originx="-80px"
       originy="-75px" />
  </sodipodi:namedview>
  <defs
     id="defs11">
    <linearGradient
       id="linearGradient3841-4-4">
      <stop
         style="stop-color:#a17c48;stop-opacity:1;"
         offset="0"
         id="stop3843-9-9" />
      <stop
         style="stop-color:#be965e;stop-opacity:1;"
         offset="1"
         id="stop3845-3-7" />
    </linearGradient>
    <linearGradient
       inkscape:collect="always"
       xlink:href="#linearGradient3969-5"
       id="linearGradient3025"
       gradientUnits="userSpaceOnUse"
       x1="29.875"
       y1="64.082283"
       x2="29.875"
       y2="12.082283"
       gradientTransform="translate(0.625,-0.082283)" />
    <linearGradient
       id="linearGradient3969-5">
      <stop
         style="stop-color:#b3915e;stop-opacity:1;"
         offset="0"
         id="stop3971-52" />
      <stop
         id="stop3977-7"
         offset="0.08245245"
         style="stop-color:#caa36b;stop-opacity:1;" />
      <stop
         style="stop-color:#d0a973;stop-opacity:1;"
         offset="0.49040774"
         id="stop3979-2" />
      <stop
         id="stop3981-6"
         offset="0.51108748"
         style="stop-color:#c9a16b;stop-opacity:1;" />
      <stop
         style="stop-color:#c79e65;stop-opacity:1;"
         offset="1"
         id="stop3973-4" />
    </linearGradient>
    <linearGradient
       y2="32.976402"
       x2="77.278381"
       y1="48.976402"
       x1="77.278381"
       gradientTransform="translate(-33,-31.9764)"
       gradientUnits="userSpaceOnUse"
       id="linearGradient3522"
       xlink:href="#linearGradient3841-4-4"
       inkscape:collect="always" />
  </defs>
  <metadata
     id="metadata13099">
    <rdf:RDF>
      <cc:Work
         rdf:about="">
        <dc:format>image/svg+xml</dc:format>
        <dc:type
           rdf:resource="http://purl.org/dc/dcmitype/StillImage" />
        <dc:title />
      </cc:Work>
    </rdf:RDF>
  </metadata>
  <path
     sodipodi:nodetypes="cccccccccc"
     inkscape:connector-curvature="0"
     id="path3833"
     d="m 3,6 -10e-8,58.000001 L 60,64 64,60 64,1 63,0 37,0 32,4.9999999 4,5 z"
     style="fill:url(#linearGradient3522);fill-opacity:1;fill-rule:nonzero;stroke:none" />
  <path
     inkscape:connector-curvature="0"
     id="path3800"
     d="M 37,0 32,5 4,5 3,6 3,7 4,6 32,6 37,1 63,1 64,2 64,1 63,0 37,0 z"
     style="color:#000000;fill:#ffd08f;fill-opacity:0.46554775;fill-rule:nonzero;stroke:none;stroke-width:1;marker:none;visibility:visible;display:inline;overflow:visible;enable-background:accumulate" />
  <path
     style="fill:#c7c7c7;fill-opacity:1;fill-rule:nonzero"
     inkscape:connector-curvature="0"
     id="path3920"
     d="m 7,13 51,0 0,31 -51,0 z"
     sodipodi:nodetypes="ccccc" />
  <path
     style="fill:#3e4959;fill-opacity:0.43171806"
     inkscape:connector-curvature="0"
     d="m 58,13 0,51 2,0 4,-4 0,-59 -1,-1 0,18 z"
     id="path3802"
     sodipodi:nodetypes="cccccccc" />
  <path
     sodipodi:nodetypes="ccccc"
     style="fill:#ffffff;fill-opacity:0.60159009;fill-rule:nonzero"
     d="m 7,13 51,0 0,1 -51,0 z"
     id="path4253"
     inkscape:connector-curvature="0" />
  <path
     sodipodi:nodetypes="ccccc"
     inkscape:connector-curvature="0"
     id="path3982"
     d="m 30,13 4,4 2,0 -4,-4 z"
     style="color:#000000;fill:#3e4959;fill-opacity:0.22968199;fill-rule:nonzero;stroke-width:1;stroke-linecap:butt;stroke-linejoin:miter;stroke-miterlimit:4;stroke-opacity:1;stroke-dasharray:none;stroke-dashoffset:0;marker:none;visibility:visible;display:inline;overflow:visible;enable-background:accumulate" />
  <path
     inkscape:export-ydpi="90"
     inkscape:export-xdpi="90"
     sodipodi:nodetypes="ccccccccccc"
     style="fill:url(#linearGradient3025);fill-opacity:1;fill-rule:nonzero"
     inkscape:connector-curvature="0"
     d="m 0,13 0,50 1,1 59,0 1,-1 0,-45 -1,-1 -26,1e-6 -5,-5 L 1,12 z"
     id="path3916" />
  <path
     inkscape:connector-curvature="0"
     id="path3046"
     d="m 1,12 -1,1 0,1 1,-1 28,0 5,5 26,0 1,1 0,-1 -1,-1 -26,0 -5,-5 -28,0 z"
     style="fill:#ffd08f;fill-opacity:0.46554775;fill-rule:nonzero" />
  <path
     style="color:#000000;fill:#201010;fill-opacity:0.31498197999999999;fill-rule:nonzero;stroke:none;stroke-width:1;marker:none;visibility:visible;display:inline;overflow:visible;enable-background:accumulate"
     d="m 22.000123,17.929372 a 0.16116843,0.16116843 0 0 0 -0.02857,0.02857 0.16116843,0.16116843 0 0 0 -0.02857,0.02857 0.16116843,0.16116843 0 0 0 -0.02857,0.02857 0.16116843,0.16116843 0 0 0 -0.02857,0.05714 0.16116843,0.16116843 0 0 0 0,0.02857 0.16116843,0.16116843 0 0 0 0,0.02857 c 0.372393,1.466559 0.25762,2.64991 -0.199996,3.685649 -0.457617,1.035739 -1.258417,1.921612 -2.17139,2.742809 -1.825947,1.642395 -4.183987,3.031151 -5.457046,4.94277 -0.881216,1.323097 -0.66639,2.748943 0.199996,4.171355 0.866388,1.422413 2.3646,2.875694 4.085642,4.428494 a 0.16116843,0.16116843 0 0 0 0.02857,0 0.16116843,0.16116843 0 0 0 0.02857,0.02857 0.16116843,0.16116843 0 0 0 0.02857,0 0.16116843,0.16116843 0 0 0 0.02857,0 0.16116843,0.16116843 0 0 0 0.02857,0 0.16116843,0.16116843 0 0 0 0.05714,0 0.16116843,0.16116843 0 0 0 0.02857,-0.02857 0.16116843,0.16116843 0 0 0 0.02857,-0.02857 0.16116843,0.16116843 0 0 0 0,-0.02857 0.16116843,0.16116843 0 0 0 0.02857,-0.02857 0.16116843,0.16116843 0 0 0 0,-0.05714 0.16116843,0.16116843 0 0 0 0,-0.02857 0.16116843,0.16116843 0 0 0 -0.02857,-0.02857 c -0.690046,-1.559725 -2.136158,-2.965299 -2.685667,-4.542777 -0.274753,-0.78874 -0.337452,-1.626341 0.02857,-2.542812 0.366013,-0.916473 1.170783,-1.93443 2.628525,-3.08566 3.693929,-2.916223 4.621313,-5.341225 4.599919,-7.057019 -0.02139,-1.715794 -0.999982,-2.685667 -0.999982,-2.685667 a 0.16116843,0.16116843 0 0 0 -0.02857,-0.02857 0.16116843,0.16116843 0 0 0 -0.02857,0 0.16116843,0.16116843 0 0 0 -0.02857,-0.02857 0.16116843,0.16116843 0 0 0 -0.02857,0 0.16116843,0.16116843 0 0 0 -0.02857,0 0.16116843,0.16116843 0 0 0 -0.02857,0 z m 4.542777,7.39987 c 0,0 -3.086133,0.772964 -5.485617,2.428529 -1.199742,0.827781 -2.254053,1.89143 -2.599955,3.199943 -0.3459,1.308513 0.03848,2.837962 1.54283,4.571348 0.836912,0.963551 0.712109,1.81996 0.399993,2.485671 -0.312114,0.665712 -0.828556,1.114266 -0.828556,1.114266 a 0.16116843,0.16116843 0 0 0 -0.02857,0.02857 0.16116843,0.16116843 0 0 0 -0.02857,0.02857 0.16116843,0.16116843 0 0 0 -0.02857,0.02857 0.16116843,0.16116843 0 0 0 0,0.02857 0.16116843,0.16116843 0 0 0 0,0.02857 0.16116843,0.16116843 0 0 0 0.02857,0.02857 0.16116843,0.16116843 0 0 0 0,0.02857 0.16116843,0.16116843 0 0 0 0.02857,0.02857 0.16116843,0.16116843 0 0 0 0.02857,0.02857 0.16116843,0.16116843 0 0 0 0.08571,0.02857 0.16116843,0.16116843 0 0 0 0.02857,0 0.16116843,0.16116843 0 0 0 0.02857,-0.02857 0.16116843,0.16116843 0 0 0 0.02857,0 c 0,0 1.12253,-0.579144 1.999965,-1.54283 0.438719,-0.481843 0.805884,-1.053703 0.94284,-1.714255 0.136957,-0.660555 0.04603,-1.422926 -0.485705,-2.171391 -0.478187,-0.672076 -0.930135,-1.2501 -1.199979,-1.799968 -0.269845,-0.549868 -0.379859,-1.024614 -0.199997,-1.599972 0.359725,-1.150718 1.941253,-2.655181 5.885611,-4.94277 a 0.16116843,0.16116843 0 0 0 0.02857,0 0.16116843,0.16116843 0 0 0 0,-0.02857 0.16116843,0.16116843 0 0 0 0.02857,0 0.16116843,0.16116843 0 0 0 0,-0.02857 0.16116843,0.16116843 0 0 0 0.02857,-0.05714 0.16116843,0.16116843 0 0 0 0,-0.02857 0.16116843,0.16116843 0 0 0 0,-0.02857 0.16116843,0.16116843 0 0 0 -0.02857,-0.02857 0.16116843,0.16116843 0 0 0 0,-0.02857 0.16116843,0.16116843 0 0 0 -0.02857,-0.02857 0.16116843,0.16116843 0 0 0 -0.02857,-0.02857 0.16116843,0.16116843 0 0 0 -0.02857,0 0.16116843,0.16116843 0 0 0 -0.02857,0 0.16116843,0.16116843 0 0 0 -0.02857,0 0.16116843,0.16116843 0 0 0 -0.02857,0 0.16116843,0.16116843 0 0 0 -0.02857,0 z M 29,37.61474 c -0.496063,-0.02375 -1.046189,0.03387 -1.599972,0.228567 -0.409168,0.145265 -0.62856,0.485706 -0.62856,0.485706 a 0.07247808,0.07247808 0 0 0 0,0.02857 0.07247808,0.07247808 0 0 0 0,0.02857 0.07247808,0.07247808 0 0 0 0,0.02857 0.07247808,0.07247808 0 0 0 0.02857,0 0.07247808,0.07247808 0 0 0 0,0.02857 0.07247808,0.07247808 0 0 0 0.02857,0 0.07247808,0.07247808 0 0 0 0.02857,0 c 0,0 0.265703,-0.08879 0.799985,-0.199997 1.056124,-0.220167 2.343911,0.475275 2.542813,1.657114 0.09946,0.590921 -0.06596,1.319957 -0.685702,2.114248 -0.619745,0.794294 -1.676932,1.662318 -3.37137,2.542813 a 0.07247808,0.07247808 0 0 0 -0.02857,0 0.07247808,0.07247808 0 0 0 -0.02857,0.02857 c -0.01029,0.0275 -0.02758,0.07431 -0.05714,0.114283 -0.01478,0.01999 -0.04694,0.04461 -0.05714,0.05714 -0.01019,0.01254 0,0.02857 0,0.02857 l 0.05714,0.02857 0,0.08571 c 3.989257,-1.048735 5.615767,-2.798465 5.799898,-4.342781 C 32.012653,39.013231 30.746056,37.698348 29,37.61474 z m -15.114019,0.342851 c -0.875195,0.02299 -2.913229,0.224618 -5.2856218,1.371404 -0.2367922,0.114541 -0.4258873,0.229777 -0.5428476,0.342852 -0.1169603,0.113072 -0.1781053,0.219926 -0.1714255,0.342851 0.00667,0.122924 0.083322,0.249193 0.1999965,0.342851 0.1166766,0.09365 0.2830918,0.179687 0.4857057,0.257138 0.8104556,0.309808 2.2805047,0.522421 4.0856427,0.62856 3.610279,0.212278 8.52579,-0.03065 11.885505,-0.914269 a 0.07247808,0.07247808 0 0 0 0.02857,0 c 0.686103,-0.468485 1.628542,-0.885699 1.628542,-0.885699 a 0.07247808,0.07247808 0 0 0 0.02857,-0.02857 0.07247808,0.07247808 0 0 0 0.02857,-0.02857 0.07247808,0.07247808 0 0 0 0,-0.02857 0.07247808,0.07247808 0 0 0 0,-0.02857 0.07247808,0.07247808 0 0 0 -0.02857,0 0.07247808,0.07247808 0 0 0 0,-0.02857 0.07247808,0.07247808 0 0 0 -0.02857,0 0.07247808,0.07247808 0 0 0 -0.02857,0 c 0,0 -2.734143,0.456013 -5.457046,0.685702 -3.333472,0.279304 -6.9024,0.353024 -8.685561,0.114283 -0.528646,-0.07059 -0.898085,-0.164761 -1.114266,-0.257138 -0.10809,-0.04618 -0.160002,-0.100545 -0.199997,-0.142855 -0.03999,-0.0423 -0.05997,-0.0789 -0.05714,-0.114283 0.0057,-0.07078 0.08649,-0.170901 0.257138,-0.285709 0.170643,-0.114809 0.438676,-0.256856 0.714273,-0.371423 1.102392,-0.458262 2.742809,-0.828556 2.742809,-0.828556 a 0.07247808,0.07247808 0 0 0 0,-0.02857 0.07247808,0.07247808 0 0 0 0.02857,0 0.07247808,0.07247808 0 0 0 0,-0.02857 0.07247808,0.07247808 0 0 0 0,-0.02857 0.07247808,0.07247808 0 0 0 0,-0.02857 0.07247808,0.07247808 0 0 0 -0.02857,-0.02857 0.07247808,0.07247808 0 0 0 -0.02857,0 c 0,0 -0.166081,-0.0076 -0.457135,0 z m -1.114266,4.114213 c -0.772313,0.256331 -1.306904,0.507702 -1.628543,0.771415 -0.16082,0.131857 -0.255629,0.262461 -0.31428,0.399993 -0.05865,0.137532 -0.07615,0.267595 -0.02857,0.399993 0.09517,0.264793 0.380282,0.4903 0.799986,0.685702 0.419705,0.195402 0.979086,0.354448 1.657114,0.485706 2.712117,0.525031 7.267602,0.487022 11.571224,-0.771415 a 0.07247808,0.07247808 0 0 0 0.02857,0 0.07247808,0.07247808 0 0 0 0,-0.02857 0.07247808,0.07247808 0 0 0 0,-0.02857 0.07247808,0.07247808 0 0 0 0,-0.02857 0.07247808,0.07247808 0 0 0 0,-0.02857 0.07247808,0.07247808 0 0 0 -0.02857,0 0.07247808,0.07247808 0 0 0 0,-0.02857 C 23.93359,43.584811 23.342957,43.014645 23.342957,43.014645 a 0.07247808,0.07247808 0 0 0 -0.02857,-0.02857 0.07247808,0.07247808 0 0 0 -0.02857,0 c -4.188802,0.806586 -6.619874,0.801976 -9.685543,0.485706 -0.586723,-0.06069 -0.88786,-0.185298 -1.057124,-0.31428 -0.169265,-0.128984 -0.182777,-0.25991 -0.142855,-0.399993 0.03993,-0.140085 0.124284,-0.291631 0.228567,-0.399993 0.104286,-0.108364 0.199997,-0.171426 0.199997,-0.171426 a 0.07247808,0.07247808 0 0 0 0.02857,-0.02857 0.07247808,0.07247808 0 0 0 0,-0.02857 0.07247808,0.07247808 0 0 0 0,-0.02857 0.07247808,0.07247808 0 0 0 -0.02857,-0.02857 0.07247808,0.07247808 0 0 0 -0.02857,0 0.07247808,0.07247808 0 0 0 -0.02857,0 z m 0.885699,3.971359 c -0.702413,0.196267 -1.168644,0.414379 -1.457117,0.657131 -0.288473,0.242753 -0.379059,0.535084 -0.28571,0.799986 0.09335,0.264903 0.357387,0.498579 0.742844,0.714273 0.385456,0.215695 0.873746,0.415455 1.485689,0.571419 2.447764,0.623851 6.489373,0.671882 10.056964,-0.857128 a 0.07247808,0.07247808 0 0 0 0,-0.02857 0.07247808,0.07247808 0 0 0 0.02857,0 0.07247808,0.07247808 0 0 0 0,-0.02857 0.07247808,0.07247808 0 0 0 0,-0.02857 0.07247808,0.07247808 0 0 0 0,-0.02857 0.07247808,0.07247808 0 0 0 -0.02857,0 0.07247808,0.07247808 0 0 0 0,-0.02857 c -1.155496,-0.449337 -1.971393,-0.999982 -1.971393,-0.999982 a 0.07247808,0.07247808 0 0 0 -0.02857,0 0.07247808,0.07247808 0 0 0 -0.02857,0 0.07247808,0.07247808 0 0 0 -0.02857,0 c -3.162985,0.598644 -4.616159,0.670201 -7.485582,0.342851 -0.588072,-0.06761 -0.957396,-0.180781 -1.142837,-0.285709 -0.09272,-0.05246 -0.146787,-0.09789 -0.171425,-0.142855 -0.02463,-0.04495 -0.01061,-0.09833 0,-0.142854 0.02121,-0.08904 0.110225,-0.18183 0.199996,-0.257139 0.08976,-0.07531 0.199997,-0.114283 0.199997,-0.114283 a 0.07247808,0.07247808 0 0 0 0,-0.02857 0.07247808,0.07247808 0 0 0 0,-0.02857 0.07247808,0.07247808 0 0 0 0,-0.02857 0.07247808,0.07247808 0 0 0 0,-0.02857 0.07247808,0.07247808 0 0 0 0,-0.02857 0.07247808,0.07247808 0 0 0 -0.02857,0 0.07247808,0.07247808 0 0 0 -0.02857,0 0.07247808,0.07247808 0 0 0 -0.02857,0 z m -3.7142205,2.628525 c -0.1367382,1.29e-4 -0.2786466,0.01545 -0.4285647,0.02857 -1.2992612,0.113676 -3.0480773,0.681419 -3.9427877,1.342834 -0.2236774,0.165354 -0.3869426,0.36589 -0.4857057,0.542847 -0.098763,0.176958 -0.1183528,0.341447 -0.028571,0.514277 0.089782,0.172831 0.2748169,0.327993 0.5714185,0.457135 0.2966018,0.12914 0.7143569,0.226299 1.2571208,0.31428 7.2444183,1.174837 13.8440753,0.912176 18.1711083,0.142854 2.163517,-0.384659 3.738612,-0.897199 4.571348,-1.428546 0.416368,-0.265675 0.66334,-0.507317 0.657132,-0.799986 -0.0031,-0.146335 -0.07535,-0.301884 -0.199997,-0.428564 -0.124642,-0.126679 -0.302893,-0.234615 -0.542847,-0.342851 a 0.07247808,0.07247808 0 0 0 -0.02857,0 0.07247808,0.07247808 0 0 0 -0.02857,0 0.07247808,0.07247808 0 0 0 -0.02857,0 0.07247808,0.07247808 0 0 0 0,0.02857 0.07247808,0.07247808 0 0 0 -0.02857,0 0.07247808,0.07247808 0 0 0 0,0.02857 0.07247808,0.07247808 0 0 0 0,0.02857 0.07247808,0.07247808 0 0 0 0.02857,0 0.07247808,0.07247808 0 0 0 0,0.02857 c 0,0 0.238838,0.178752 0.228567,0.428564 -0.0051,0.124905 -0.06196,0.295209 -0.257138,0.457135 -0.195177,0.161925 -0.524173,0.324035 -1.057124,0.485705 -2.029961,0.614951 -6.309611,1.01064 -10.514101,1.057125 -2.102243,0.02323 -4.18729,-0.03214 -5.971323,-0.199997 -1.78401,-0.167901 -3.287166,-0.443694 -4.1713585,-0.828552 -0.1550849,-0.06746 -0.2140267,-0.141188 -0.2571383,-0.199996 -0.043108,-0.05881 -0.051216,-0.08462 -0.028571,-0.142855 0.0453,-0.116472 0.2464259,-0.289332 0.5142766,-0.428564 0.5357008,-0.27846 1.3399947,-0.519617 1.7142554,-0.599989 0.7885868,-0.171001 1.1999798,-0.142855 1.1999798,-0.142855 a 0.07247808,0.07247808 0 0 0 0.02857,0 0.07247808,0.07247808 0 0 0 0.02857,0 0.07247808,0.07247808 0 0 0 0,-0.02857 0.07247808,0.07247808 0 0 0 0.02857,0 0.07247808,0.07247808 0 0 0 0,-0.02857 0.07247808,0.07247808 0 0 0 0,-0.02857 0.07247808,0.07247808 0 0 0 -0.02857,-0.02857 0.07247808,0.07247808 0 0 0 0,-0.02857 C 10.69016,48.713597 10.353407,48.671301 9.9431935,48.671688 z m 21.7710445,2.171391 a 0.07247808,0.07247808 0 0 0 0,0.02857 c 0,0 -0.0098,0.02723 -0.02857,0.05714 -0.01878,0.02991 -0.02994,0.05487 -0.08571,0.114284 -0.111543,0.118843 -0.32835,0.282951 -0.685702,0.485706 -0.714703,0.405507 -2.049369,0.935855 -4.514206,1.399975 -5.56132,1.046575 -12.419867,0.927438 -16.4854235,0.257138 l -0.028571,0.05714 0.057142,0.05714 c 0,0 -0.090549,0.0069 -0.057142,0.02857 0.033407,0.0216 0.097123,0.07773 0.1714255,0.114284 0.148605,0.0731 0.397213,0.150242 0.771415,0.257138 0.748405,0.213792 2.021949,0.462154 4.171355,0.59999 3.269575,0.209294 7.412013,0.156782 10.771238,-0.342852 1.679614,-0.249817 3.142817,-0.619765 4.228497,-1.114266 1.085684,-0.494502 1.794772,-1.131777 1.857111,-1.942823 a 0.07247808,0.07247808 0 0 0 0,-0.02857 0.07247808,0.07247808 0 0 0 0,-0.02857 0.07247808,0.07247808 0 0 0 -0.02857,0 0.07247808,0.07247808 0 0 0 -0.02857,0 0.07247808,0.07247808 0 0 0 -0.02857,0 0.07247808,0.07247808 0 0 0 -0.02857,0 0.07247808,0.07247808 0 0 0 -0.02857,0 z"
     id="path3061"
     inkscape:connector-curvature="0" />
  <path
     style="color:#000000;fill:#ffd08f;fill-opacity:0.54422386000000000;fill-rule:nonzero;stroke:none;stroke-width:1;marker:none;visibility:visible;display:inline;overflow:visible;enable-background:accumulate"
     d="M 22.96875 18.9375 A 0.16116843 0.16116843 0 0 0 22.96875 18.96875 A 0.16116843 0.16116843 0 0 0 22.9375 19 A 0.16116843 0.16116843 0 0 0 22.90625 19 A 0.16116843 0.16116843 0 0 0 22.90625 19.03125 A 0.16116843 0.16116843 0 0 0 22.875 19.0625 A 0.16116843 0.16116843 0 0 0 22.875 19.09375 A 0.16116843 0.16116843 0 0 0 22.875 19.125 C 22.881876 19.142308 22.86825 19.169821 22.875 19.1875 C 23.029122 19.591159 23.148924 20.099841 23.15625 20.6875 C 23.177644 22.403294 22.256429 24.802527 18.5625 27.71875 C 17.104758 28.86998 16.303513 29.896027 15.9375 30.8125 C 15.571478 31.728971 15.631497 32.55501 15.90625 33.34375 C 16.455759 34.921228 17.903704 36.346525 18.59375 37.90625 A 0.16116843 0.16116843 0 0 1 18.625 37.9375 A 0.16116843 0.16116843 0 0 1 18.625 37.96875 A 0.16116843 0.16116843 0 0 1 18.625 38 A 0.16116843 0.16116843 0 0 1 18.625 38.03125 A 0.16116843 0.16116843 0 0 1 18.59375 38.03125 A 0.16116843 0.16116843 0 0 1 18.59375 38.0625 A 0.16116843 0.16116843 0 0 1 18.59375 38.09375 A 0.16116843 0.16116843 0 0 1 18.5625 38.09375 A 0.16116843 0.16116843 0 0 1 18.53125 38.125 A 0.16116843 0.16116843 0 0 1 18.5 38.125 A 0.16116843 0.16116843 0 0 1 18.46875 38.125 A 0.16116843 0.16116843 0 0 1 18.4375 38.125 A 0.16116843 0.16116843 0 0 1 18.40625 38.125 A 0.16116843 0.16116843 0 0 1 18.375 38.09375 A 0.16116843 0.16116843 0 0 1 18.34375 38.09375 C 17.91349 37.70555 17.489766 37.345583 17.09375 36.96875 C 17.764017 37.664862 18.531036 38.360483 19.34375 39.09375 A 0.16116843 0.16116843 0 0 0 19.375 39.09375 A 0.16116843 0.16116843 0 0 0 19.40625 39.125 A 0.16116843 0.16116843 0 0 0 19.4375 39.125 A 0.16116843 0.16116843 0 0 0 19.46875 39.125 A 0.16116843 0.16116843 0 0 0 19.5 39.125 A 0.16116843 0.16116843 0 0 0 19.53125 39.125 A 0.16116843 0.16116843 0 0 0 19.5625 39.125 A 0.16116843 0.16116843 0 0 0 19.5625 39.09375 A 0.16116843 0.16116843 0 0 0 19.59375 39.09375 A 0.16116843 0.16116843 0 0 0 19.59375 39.0625 A 0.16116843 0.16116843 0 0 0 19.59375 39.03125 A 0.16116843 0.16116843 0 0 0 19.625 39.03125 A 0.16116843 0.16116843 0 0 0 19.625 39 A 0.16116843 0.16116843 0 0 0 19.625 38.96875 A 0.16116843 0.16116843 0 0 0 19.625 38.9375 A 0.16116843 0.16116843 0 0 0 19.59375 38.90625 C 18.903704 37.346525 17.455759 35.921228 16.90625 34.34375 C 16.631497 33.55501 16.571478 32.728971 16.9375 31.8125 C 17.303513 30.896027 18.104758 29.86998 19.5625 28.71875 C 23.256429 25.802527 24.177644 23.403294 24.15625 21.6875 C 24.13486 19.971706 23.15625 19 23.15625 19 A 0.16116843 0.16116843 0 0 0 23.15625 18.96875 A 0.16116843 0.16116843 0 0 0 23.125 18.96875 A 0.16116843 0.16116843 0 0 0 23.09375 18.9375 A 0.16116843 0.16116843 0 0 0 23.0625 18.9375 A 0.16116843 0.16116843 0 0 0 23.03125 18.9375 A 0.16116843 0.16116843 0 0 0 23 18.9375 A 0.16116843 0.16116843 0 0 0 22.96875 18.9375 z M 27.53125 26.34375 C 27.53125 26.34375 24.643504 27.043877 22.28125 28.59375 C 21.428108 29.351271 20.984268 30.013036 20.8125 30.5625 C 20.632638 31.137858 20.730155 31.606382 21 32.15625 C 21.269844 32.706118 21.709313 33.296674 22.1875 33.96875 C 22.719235 34.717215 22.824457 35.464445 22.6875 36.125 C 22.550544 36.785552 22.188719 37.361907 21.75 37.84375 C 21.709211 37.888548 21.666711 37.925633 21.625 37.96875 C 21.636408 38.34816 21.550022 38.69335 21.40625 39 C 21.164362 39.515927 20.87058 39.852645 20.71875 40 C 20.974453 39.97843 21.215122 39.931246 21.46875 39.90625 C 21.848708 39.643089 22.334997 39.299547 22.75 38.84375 C 23.188719 38.361907 23.550544 37.785552 23.6875 37.125 C 23.824457 36.464445 23.719235 35.717215 23.1875 34.96875 C 22.709313 34.296674 22.269844 33.706118 22 33.15625 C 21.730155 32.606382 21.632638 32.137858 21.8125 31.5625 C 22.172225 30.411782 23.743142 28.912589 27.6875 26.625 A 0.16116843 0.16116843 0 0 0 27.71875 26.625 A 0.16116843 0.16116843 0 0 0 27.71875 26.59375 A 0.16116843 0.16116843 0 0 0 27.75 26.59375 A 0.16116843 0.16116843 0 0 0 27.75 26.5625 A 0.16116843 0.16116843 0 0 0 27.75 26.53125 A 0.16116843 0.16116843 0 0 0 27.78125 26.5 A 0.16116843 0.16116843 0 0 0 27.78125 26.46875 A 0.16116843 0.16116843 0 0 0 27.78125 26.4375 A 0.16116843 0.16116843 0 0 0 27.75 26.40625 A 0.16116843 0.16116843 0 0 0 27.75 26.375 A 0.16116843 0.16116843 0 0 0 27.71875 26.375 A 0.16116843 0.16116843 0 0 0 27.71875 26.34375 A 0.16116843 0.16116843 0 0 0 27.6875 26.34375 A 0.16116843 0.16116843 0 0 0 27.65625 26.34375 A 0.16116843 0.16116843 0 0 0 27.625 26.34375 A 0.16116843 0.16116843 0 0 0 27.59375 26.34375 A 0.16116843 0.16116843 0 0 0 27.5625 26.34375 A 0.16116843 0.16116843 0 0 0 27.53125 26.34375 z M 29.21875 38.65625 C 28.949988 38.692023 28.683142 38.746401 28.40625 38.84375 C 27.997082 38.989015 27.78125 39.34375 27.78125 39.34375 A 0.07247808 0.07247808 0 0 0 27.78125 39.375 A 0.07247808 0.07247808 0 0 0 27.78125 39.40625 A 0.07247808 0.07247808 0 0 0 27.8125 39.40625 A 0.07247808 0.07247808 0 0 0 27.8125 39.4375 A 0.07247808 0.07247808 0 0 0 27.84375 39.4375 C 27.84375 39.4375 28.121968 39.361207 28.65625 39.25 C 29.109503 39.155512 29.597043 39.228635 30.03125 39.4375 C 29.886224 39.120496 29.682472 38.859399 29.40625 38.65625 C 29.342765 38.661782 29.28315 38.647678 29.21875 38.65625 z M 14.875 38.96875 C 14.158559 38.98757 12.664194 39.10253 10.84375 39.78125 C 10.870195 39.799085 10.867267 39.827095 10.90625 39.84375 C 11.122431 39.936127 11.502604 40.02316 12.03125 40.09375 C 12.100085 40.102966 12.207209 40.116709 12.28125 40.125 C 12.400695 40.063019 12.491911 39.992826 12.625 39.9375 C 13.727392 39.479238 15.375 39.09375 15.375 39.09375 A 0.07247808 0.07247808 0 0 0 15.375 39.0625 A 0.07247808 0.07247808 0 0 0 15.40625 39.0625 A 0.07247808 0.07247808 0 0 0 15.40625 39.03125 A 0.07247808 0.07247808 0 0 0 15.40625 39 A 0.07247808 0.07247808 0 0 0 15.40625 38.96875 A 0.07247808 0.07247808 0 0 0 15.375 38.96875 A 0.07247808 0.07247808 0 0 0 15.34375 38.96875 C 15.34375 38.96875 15.166054 38.96115 14.875 38.96875 z M 31.53125 39.0625 C 31.780589 39.503843 31.908196 40.021994 31.84375 40.5625 C 31.773493 41.15175 31.478872 41.77629 30.9375 42.375 C 30.831236 42.584739 30.672797 42.778535 30.5 43 C 29.880255 43.794294 28.850688 44.682005 27.15625 45.5625 A 0.07247808 0.07247808 0 0 0 27.125 45.5625 A 0.07247808 0.07247808 0 0 0 27.09375 45.5625 A 0.07247808 0.07247808 0 0 0 27.09375 45.59375 C 27.08346 45.62125 27.06081 45.647527 27.03125 45.6875 C 27.01647 45.70749 26.97895 45.73747 26.96875 45.75 C 26.95856 45.76254 26.96875 45.78125 26.96875 45.78125 L 27.03125 45.8125 L 27.03125 45.90625 C 31.020507 44.857515 32.659619 43.106816 32.84375 41.5625 C 32.967847 40.5217 32.42773 39.588187 31.53125 39.0625 z M 27.15625 40.3125 C 27.15625 40.3125 24.441653 40.770311 21.71875 41 C 20.885382 41.069826 20.018718 41.113792 19.1875 41.15625 C 19.020306 41.169566 18.855276 41.175944 18.6875 41.1875 C 18.035799 41.216287 17.387861 41.240694 16.78125 41.25 C 15.331312 41.293976 13.910981 41.323776 12.65625 41.25 C 11.11394 41.159315 9.8506833 40.99035 9 40.75 C 8.9337735 40.833517 8.8699901 40.907806 8.875 41 C 8.88167 41.122924 8.9770755 41.250092 9.09375 41.34375 C 9.2104266 41.4374 9.3598861 41.547549 9.5625 41.625 C 10.194919 41.866751 11.249755 42.037273 12.53125 42.15625 C 12.619516 42.124677 12.685763 42.094192 12.78125 42.0625 A 0.07247808 0.07247808 0 0 1 12.8125 42.0625 A 0.07247808 0.07247808 0 0 1 12.84375 42.0625 A 0.07247808 0.07247808 0 0 1 12.84375 42.09375 A 0.07247808 0.07247808 0 0 1 12.84375 42.125 A 0.07247808 0.07247808 0 0 1 12.84375 42.15625 A 0.07247808 0.07247808 0 0 1 12.84375 42.1875 C 13.111861 42.20965 13.369991 42.233168 13.65625 42.25 C 17.266529 42.462278 22.171535 42.227369 25.53125 41.34375 A 0.07247808 0.07247808 0 0 0 25.5625 41.34375 C 26.248603 40.875265 27.1875 40.4375 27.1875 40.4375 A 0.07247808 0.07247808 0 0 0 27.21875 40.4375 A 0.07247808 0.07247808 0 0 0 27.21875 40.40625 A 0.07247808 0.07247808 0 0 0 27.25 40.40625 A 0.07247808 0.07247808 0 0 0 27.25 40.375 A 0.07247808 0.07247808 0 0 0 27.25 40.34375 A 0.07247808 0.07247808 0 0 0 27.25 40.3125 A 0.07247808 0.07247808 0 0 0 27.21875 40.34375 A 0.07247808 0.07247808 0 0 0 27.21875 40.3125 A 0.07247808 0.07247808 0 0 0 27.1875 40.3125 A 0.07247808 0.07247808 0 0 0 27.15625 40.3125 z M 13.78125 43.0625 C 13.490581 43.158973 13.255894 43.279009 13.03125 43.375 C 13.177649 43.414733 13.340847 43.444249 13.5625 43.46875 C 13.5901 43.428823 13.592913 43.377092 13.625 43.34375 C 13.729286 43.235386 13.84375 43.1875 13.84375 43.1875 A 0.07247808 0.07247808 0 0 0 13.84375 43.15625 A 0.07247808 0.07247808 0 0 0 13.84375 43.125 A 0.07247808 0.07247808 0 0 0 13.84375 43.09375 A 0.07247808 0.07247808 0 0 0 13.84375 43.0625 A 0.07247808 0.07247808 0 0 0 13.8125 43.0625 A 0.07247808 0.07247808 0 0 0 13.78125 43.0625 z M 24.5 44.125 C 20.298726 45.287691 15.890339 45.323636 13.25 44.8125 C 12.656726 44.697649 12.178758 44.569391 11.78125 44.40625 C 11.770124 44.482699 11.785141 44.580121 11.8125 44.65625 C 11.90767 44.921043 12.174046 45.148348 12.59375 45.34375 C 13.013455 45.539152 13.571972 45.681242 14.25 45.8125 C 16.962117 46.337531 21.540128 46.289687 25.84375 45.03125 A 0.07247808 0.07247808 0 0 0 25.84375 45 A 0.07247808 0.07247808 0 0 0 25.84375 44.96875 A 0.07247808 0.07247808 0 0 0 25.84375 44.9375 A 0.07247808 0.07247808 0 0 0 25.84375 44.90625 C 25.116903 44.650012 24.672068 44.275374 24.5 44.125 z M 14.65625 47.03125 C 14.581559 47.05212 14.53817 47.072383 14.46875 47.09375 C 14.538013 47.103985 14.579639 47.116192 14.65625 47.125 C 14.690639 47.128923 14.716013 47.121192 14.75 47.125 A 0.07247808 0.07247808 0 0 0 14.75 47.09375 A 0.07247808 0.07247808 0 0 0 14.75 47.0625 A 0.07247808 0.07247808 0 0 0 14.75 47.03125 A 0.07247808 0.07247808 0 0 0 14.71875 47.03125 A 0.07247808 0.07247808 0 0 0 14.6875 47.03125 A 0.07247808 0.07247808 0 0 0 14.65625 47.03125 z M 23.75 48.09375 C 20.293307 49.439849 16.504882 49.379836 14.15625 48.78125 C 13.644412 48.6508 13.226007 48.487926 12.875 48.3125 C 12.875127 48.380951 12.882913 48.433774 12.90625 48.5 C 12.9996 48.764903 13.270793 49.003056 13.65625 49.21875 C 14.041706 49.434445 14.544307 49.625286 15.15625 49.78125 C 17.604014 50.405101 21.619909 50.46651 25.1875 48.9375 A 0.07247808 0.07247808 0 0 0 25.1875 48.90625 A 0.07247808 0.07247808 0 0 0 25.21875 48.90625 A 0.07247808 0.07247808 0 0 0 25.21875 48.875 A 0.07247808 0.07247808 0 0 0 25.21875 48.84375 A 0.07247808 0.07247808 0 0 0 25.21875 48.8125 A 0.07247808 0.07247808 0 0 0 25.1875 48.8125 A 0.07247808 0.07247808 0 0 0 25.1875 48.78125 C 24.572101 48.54194 24.100795 48.292043 23.75 48.09375 z M 10.9375 49.65625 C 10.800761 49.656379 10.649918 49.67438 10.5 49.6875 C 9.5952679 49.766658 8.4942704 50.070932 7.59375 50.46875 C 7.6270544 50.491845 7.667055 50.508763 7.71875 50.53125 C 7.9971393 50.652423 8.3594461 50.775414 8.75 50.875 C 8.8119696 50.833268 8.8634472 50.788494 8.9375 50.75 C 9.4732008 50.47154 10.28199 50.236622 10.65625 50.15625 C 11.444837 49.985249 11.84375 50 11.84375 50 A 0.07247808 0.07247808 0 0 0 11.875 50 A 0.07247808 0.07247808 0 0 0 11.90625 50 A 0.07247808 0.07247808 0 0 0 11.9375 50 A 0.07247808 0.07247808 0 0 0 11.9375 49.96875 A 0.07247808 0.07247808 0 0 0 11.9375 49.9375 A 0.07247808 0.07247808 0 0 0 11.9375 49.90625 A 0.07247808 0.07247808 0 0 0 11.90625 49.90625 A 0.07247808 0.07247808 0 0 0 11.90625 49.875 C 11.681807 49.716908 11.347713 49.655863 10.9375 49.65625 z M 30.46875 50 A 0.07247808 0.07247808 0 0 0 30.46875 50.03125 A 0.07247808 0.07247808 0 0 0 30.4375 50.03125 A 0.07247808 0.07247808 0 0 0 30.4375 50.0625 A 0.07247808 0.07247808 0 0 0 30.4375 50.09375 A 0.07247808 0.07247808 0 0 0 30.46875 50.09375 A 0.07247808 0.07247808 0 0 0 30.46875 50.125 C 30.46875 50.125 30.697771 50.312688 30.6875 50.5625 C 30.6824 50.687405 30.632678 50.838074 30.4375 51 C 30.242323 51.161925 29.907951 51.33833 29.375 51.5 C 27.691733 52.009924 24.451469 52.365689 21 52.5 C 17.043864 52.805824 12.13258 52.727629 6.875 51.875 C 6.5552187 51.823164 6.2962828 51.750371 6.0625 51.6875 C 6.006711 51.828554 5.9893217 51.952882 6.0625 52.09375 C 6.152282 52.266581 6.3283984 52.433358 6.625 52.5625 C 6.9216018 52.69164 7.3322361 52.787019 7.875 52.875 C 11.318605 53.433454 14.61636 53.678685 17.59375 53.6875 C 17.747839 53.686589 17.907444 53.689619 18.0625 53.6875 C 18.223644 53.686721 18.37211 53.689579 18.53125 53.6875 C 19.104742 53.680006 19.673 53.648396 20.21875 53.625 C 20.467641 53.612435 20.719654 53.578411 20.96875 53.5625 C 21.412907 53.537106 21.859062 53.503751 22.28125 53.46875 C 22.323306 53.465018 22.364228 53.472584 22.40625 53.46875 C 23.044322 53.414267 23.667518 53.355108 24.25 53.28125 C 24.861298 53.200949 25.473268 53.105024 26.0625 53 C 26.186324 52.977985 26.28631 52.960332 26.40625 52.9375 C 26.417501 52.935381 26.426296 52.939621 26.4375 52.9375 C 27.039929 52.823441 27.557157 52.681608 28.03125 52.5625 C 28.337557 52.485545 28.585831 52.420871 28.84375 52.34375 C 29.612055 52.101114 30.208632 51.859423 30.625 51.59375 C 31.041368 51.328075 31.287458 51.073919 31.28125 50.78125 C 31.27815 50.634915 31.218397 50.47043 31.09375 50.34375 C 30.969108 50.217071 30.771204 50.108236 30.53125 50 A 0.07247808 0.07247808 0 0 0 30.5 50 A 0.07247808 0.07247808 0 0 0 30.46875 50 z M 32.71875 51.84375 A 0.07247808 0.07247808 0 0 0 32.71875 51.875 C 32.71875 51.875 32.70627 51.90759 32.6875 51.9375 C 32.66872 51.96741 32.64952 51.971836 32.59375 52.03125 C 32.482207 52.150093 32.263602 52.328495 31.90625 52.53125 C 31.191547 52.936757 29.871087 53.47338 27.40625 53.9375 C 21.84493 54.984075 14.971806 54.8578 10.90625 54.1875 L 10.875 54.25 L 10.90625 54.3125 C 10.887789 54.316934 10.858295 54.332915 10.875 54.34375 C 10.90841 54.36535 10.988195 54.400946 11.0625 54.4375 C 11.211105 54.5106 11.469548 54.580604 11.84375 54.6875 C 12.592155 54.901292 13.850594 55.174664 16 55.3125 C 19.269575 55.521794 23.422025 55.468384 26.78125 54.96875 C 28.460864 54.718933 29.91432 54.338251 31 53.84375 C 32.085684 53.349248 32.781411 52.717296 32.84375 51.90625 A 0.07247808 0.07247808 0 0 0 32.84375 51.875 A 0.07247808 0.07247808 0 0 0 32.84375 51.84375 A 0.07247808 0.07247808 0 0 0 32.8125 51.84375 A 0.07247808 0.07247808 0 0 0 32.78125 51.84375 A 0.07247808 0.07247808 0 0 0 32.75 51.84375 A 0.07247808 0.07247808 0 0 0 32.71875 51.84375 z "
     id="path3078" />
</svg>
