<?xml version="1.0" encoding="UTF-8" standalone="no"?>
<!-- Created with Inkscape (http://www.inkscape.org/) -->
<svg xmlns:dc="http://purl.org/dc/elements/1.1/" xmlns:cc="http://creativecommons.org/ns#" xmlns:rdf="http://www.w3.org/1999/02/22-rdf-syntax-ns#" xmlns:svg="http://www.w3.org/2000/svg" xmlns="http://www.w3.org/2000/svg" xmlns:sodipodi="http://sodipodi.sourceforge.net/DTD/sodipodi-0.dtd" xmlns:inkscape="http://www.inkscape.org/namespaces/inkscape" width="18" height="18" id="svg13094" version="1.1" inkscape:version="0.48.3.1 r9886" sodipodi:docname="applications-system.svg">
  <sodipodi:namedview id="base" pagecolor="#ffffff" bordercolor="#666666" borderopacity="1.0" inkscape:pageopacity="0.0" inkscape:pageshadow="2" inkscape:zoom="22.627418" inkscape:cx="0.77728013" inkscape:cy="10.757909" inkscape:document-units="px" inkscape:current-layer="layer1" showgrid="true" inkscape:snap-bbox="true" inkscape:bbox-paths="true" inkscape:bbox-nodes="true" inkscape:snap-bbox-edge-midpoints="true" inkscape:snap-bbox-midpoints="true" inkscape:object-paths="true" inkscape:snap-intersection-paths="true" inkscape:object-nodes="true" inkscape:snap-smooth-nodes="true" inkscape:snap-midpoints="true" inkscape:snap-object-midpoints="true" inkscape:snap-center="true" showguides="false" inkscape:guide-bbox="true" inkscape:window-width="1920" inkscape:window-height="1033" inkscape:window-x="-10" inkscape:window-y="25" inkscape:window-maximized="1" inkscape:snap-global="true" fit-margin-top="0" fit-margin-left="0" fit-margin-right="0" fit-margin-bottom="0" showborder="true" inkscape:showpageshadow="false">
    <sodipodi:guide id="guide16149" position="6601.5878,647.00745" orientation="0,1"/>
    <sodipodi:guide id="guide16151" position="6374.4449,597.99875" orientation="0,1"/>
    <sodipodi:guide id="guide16153" position="6440.1591,622.50305" orientation="0,1"/>
    <sodipodi:guide id="guide17725" position="6433.7306,542.35585" orientation="0,1"/>
    <sodipodi:guide id="guide9456" position="6931.2289,150.48606" orientation="1,0"/>
    <sodipodi:guide id="guide9458" position="6755.4789,515.53501" orientation="0,1"/>
    <sodipodi:guide id="guide9468" position="6526.7092,460.6296" orientation="0,1"/>
    <sodipodi:guide id="guide9470" position="6551.2289,481.99958" orientation="0,1"/>
    <sodipodi:guide id="guide11159" position="6419.2289,196.00006" orientation="1,0"/>
    <sodipodi:guide id="guide13980" position="6732.2601,460.03461" orientation="1,0"/>
    <sodipodi:guide orientation="0,1" position="4878.229,-914.9999" id="guide3972"/>
    <sodipodi:guide orientation="1,0" position="5058.229,-1042.9999" id="guide3974"/>
    <sodipodi:guide orientation="0,1" position="4752.229,-1277.9998" id="guide3976"/>
    <sodipodi:guide orientation="1,0" position="4725.229,-1136.9999" id="guide3978"/>
    <sodipodi:guide orientation="1,0" position="74.999929,328.00006" id="guide4287"/>
    <sodipodi:guide orientation="0,1" position="74.999929,328.00006" id="guide4289"/>
    <inkscape:grid type="xygrid" id="grid3248" empspacing="5" visible="true" enabled="true" snapvisiblegridlinesonly="true" originx="9.7771128e-05px" originy="11.000061px"/>
  </sodipodi:namedview>
  <defs id="defs13096"/>
  <metadata id="metadata13099">
    <rdf:RDF>
      <cc:Work rdf:about="">
        <dc:format>image/svg+xml</dc:format>
        <dc:type rdf:resource="http://purl.org/dc/dcmitype/StillImage"/>
        <dc:title/>
      </cc:Work>
    </rdf:RDF>
  </metadata>
  <g transform="translate(8065.8735,-502.93235)" id="layer1" inkscape:groupmode="layer" inkscape:label="Camada 1">
    <path style="color:#000000;fill:#434a54;fill-opacity:0.6745098;fill-rule:nonzero;stroke:none;stroke-width:2;marker:none;visibility:visible;display:inline;overflow:visible;enable-background:accumulate" d="M 2 1 C 1.446 1 1 1.446 1 2 L 1 14 C 1 14.554 1.446 15 2 15 L 14 15 C 14.554 15 15 14.554 15 14 L 15 2 C 15 1.446 14.554 1 14 1 L 2 1 z M 7 3 L 9 3 L 9 5.1875 C 9.0961018 5.2219726 9.189973 5.268782 9.28125 5.3125 L 10.84375 3.75 L 12.25 5.15625 L 10.6875 6.71875 C 10.731218 6.810027 10.778027 6.9038982 10.8125 7 L 13 7 L 13 9 L 10.8125 9 C 10.778027 9.0961018 10.731218 9.189973 10.6875 9.28125 L 12.25 10.84375 L 10.8125 12.25 L 9.28125 10.6875 C 9.189973 10.731218 9.0961018 10.778027 9 10.8125 L 9 13 L 7 13 L 7 10.8125 C 6.9038982 10.778027 6.810027 10.731218 6.71875 10.6875 L 5.15625 12.25 L 3.75 10.84375 L 5.3125 9.28125 C 5.268782 9.189973 5.2219726 9.0961018 5.1875 9 L 3 9 L 3 7 L 5.1875 7 C 5.2219726 6.9038982 5.268782 6.810027 5.3125 6.71875 L 3.75 5.15625 L 5.15625 3.75 L 6.71875 5.3125 C 6.810027 5.268782 6.9038982 5.2219726 7 5.1875 L 7 3 z " transform="translate(-8064.8735,503.93235)" id="rect3006"/>
  </g>
</svg>
