<svg xmlns="http://www.w3.org/2000/svg" viewBox="0 0 64 64"><path d="m0 1l2-1h60l2 1v15h-64z" fill="#f788c7"/><path d="m0 15h64v47l-2 2h-60l-2-2z" fill="#b54a7c"/><path d="m0 15h64v47l-2 2h-60l-2-2z" fill="#b54b7b"/><g fill="#cc4a84"><path d="m0 62l2 2h30v-24h-32z"/><path d="m64 62l-2 2h-30v-24h32z"/><path d="m0 15h32v25h-32z"/><path d="m64 15h-32v25h32z"/></g><path d="m64 15h-32v-7.347h32z" fill="#f681c1"/><g fill="#f370b8"><path d="m0 15h32v-7.347h-32z"/><path d="m64 1l-2-1h-30v7.653h32z"/></g><path d="m0 1l2-1h30v7.653h-32z" fill="#f681c1"/><path d="m64 17l-2-2 2-1z" fill="#df63a0"/><path d="m0 17l2-2-2-1z" fill="#fa88c7"/><g fill="#52002f" fill-opacity=".174"><path d="m51.3 21c-.348.029-.693.047-1.034.09l.15.02c.251-.092.617-.05.884-.11m-1.516.158c-.565.034-1.348.33-1.107.062-.921.411-2.558.987-3.476 1.848l-.029-.191c-.421.505-1.834 1.508-1.947 2.163l-.112.026c-.218.371-.361.789-.535 1.17-.286.488-.419.187-.378.264-.563 1.142-.843 2.102-1.085 2.889.172.257.006 1.549.07 2.583-.282 5.107 3.584 10.06 7.81 11.209.619.222 1.54.214 2.323.235-.924-.264-1.044-.139-1.945-.453-.65-.306-.791-.657-1.252-1.056l.183.323c-.902-.319-.524-.395-1.258-.627l.194-.255c-.293-.022-.775-.493-.906-.755l-.319.013c-.384-.474-.589-.815-.574-1.08l-.103.185c-.117-.201-1.417-1.78-.744-1.412-.125-.114-.291-.187-.471-.515l.136-.156c-.323-.417-.595-.951-.574-1.129.173.233.293.277.411.317-.818-2.029-.864-.112-1.483-2.066l.13-.011c-.1-.152-.161-.314-.242-.475l.057-.57c-.589-.68-.164-2.893-.079-4.107.058-.494.492-1.021.821-1.846l-.2-.033c.383-.668 2.189-2.684 3.03-2.581.405-.509-.081-.002-.161-.13.89-.921 1.168-.65 1.769-.816.647-.384-.555.149-.249-.147 1.119-.286.793-.649 2.253-.794.154.088-.356.135-.484.249.932-.456 2.95-.352 4.261.253 1.521.711 3.23 2.812 3.298 4.789l.077.02c-.039.786.12 1.695-.156 2.53l.187-.394c.022.599-.176.893-.354 1.408l-.321.158c-.263.511.025.324-.163.73-.411.365-1.244 1.141-1.511 1.212-.195-.004.131-.231.174-.319-.549.377-.44.567-1.28.796l-.024-.055c-2.071.974-4.946-.956-4.908-3.59-.022.167-.064.124-.11.191-.107-1.355.627-2.715 1.863-3.271 1.209-.598 2.626-.354 3.491.453-.475-.623-1.424-1.282-2.545-1.221-1.099.018-2.128.716-2.471 1.474-.563.354-.628 1.366-.873 1.551-.33 2.426.622 3.475 2.231 4.708.126.085.144.134.134.178 1.898.709 3.86.537 5.502-.779.418-.326.873-.879 1.01-.887-.199.299.034.143-.119.407.416-.671-.18-.273.431-1.159l.224.31c-.085-.558.693-1.235.614-2.116.178-.269.2.291.011.911.262-.688.069-.798.136-1.366.072.191.167.395.216.596-.171-.665.176-1.12.262-1.507-.085-.037-.265.294-.306-.491.006-.341.096-.18.13-.264-.067-.039-.243-.299-.35-.801.077-.118.207.306.312.323-.068-.398-.184-.704-.189-1.01-.308-.644-.109.087-.359-.275-.328-1.023.272-.237.312-.702.497.72.78 1.835.911 2.297-.099-.564-.259-1.109-.455-1.637.151.064-.244-1.16.196-.35-.47-1.726-2.01-3.34-3.423-4.096.173.158.39.358.312.389-.704-.419-.579-.452-.68-.629-.573-.233-.613.018-.992 0-1.081-.574-1.289-.512-2.284-.871l.044.211c-.716-.239-.834.089-1.608 0-.047-.036.248-.132.491-.167-.69.091-.659-.137-1.335.024.167-.117.343-.195.521-.295m.559.13c.198.035.429.063.396.11.218-.048.266-.091-.396-.11m.396.11l-.139.031.128-.013.011-.018m-9.141 4.402c.058.535-.401.743.103.389.271-.61-.107-.168-.103-.389m-.411 1.701c-.321.411-.147.499-.18.779.117-.357.136-.572.18-.779m13.238 2.484c-.046.001-.105.117-.134.244.069.036.125.472.191.202.023-.334-.011-.448-.057-.447m4.063 1.126l-.055.136c-.1.71-.316 1.414-.647 2.066.366-.688.602-1.44.702-2.202m-4.303.251c-.05.246-.184.457-.31.682-.694.437-.065-.258 0-.524-.746.94-.102.564-.13.827.222-.306.383-.64.44-.986m-1.514 1.434c-.302.074-.61.074-.92.046-.371.005.069.191.554.266.135-.105.257-.209.365-.312m-4.688.048c.082.301.251.559.407.823l-.117-.337c-.129-.143-.204-.315-.29-.486m-.286.508l-.053.26c.244.332.439.692.75.95-.224-.437-.391-.618-.697-1.21m.469.387c.869 1.556 3.526 2.727 4.917 2.145-.644.024-1.462.014-2.185-.253-.283-.146-.66-.435-.651-.524-.013.037-.037.074-.022.13-.534-.25-1.025-.626-1.428-1.089.214.312.446.615.744.854-.504-.17-1.179-1.22-1.375-1.263"/><path d="m12.05 33.23c-.294.294-.294.767 0 1.061l2.409 2.409c-.46.81-.796 1.663-1.039 2.541h-2.254l-1.635-1.635-4.212 3.212 4.08 4.08c.055.077.121.145.199.199l1.127 1.127.972-.972h1.724c.243.878.579 1.731 1.039 2.541l-2.409 2.409c-.294.294-1.294-.233-1 .061l4.182 4.182c.294.294.767.294 1.061 0l1.326-1.326 3.69 3.69.022-.022c.126.262.383.464.685.464h4.464c.415 0 .773-.358.773-.773v-3.403c.878-.243 1.709-.601 2.519-1.061l2.431 2.431c.294.294.767.294 1.061 0l3.182-3.182c.294-.294.294-.767 0-1.061l-2.431-2.431c.46-.81.818-1.641 1.061-2.519h3.403c.415 0 .773-.358.773-.773v-4.464c0-.26-.147-.477-.354-.619l.022-.022-3.779-3.779 1.304-1.304c.294-.294.294-.767 0-1.061l-4.182-4.182c-.294-.294.233.706-.061 1l-2.431 2.431c-.81-.46-1.641-.818-2.519-1.061v-1.458l1.127-1.127-1.37-1.37-4.04-4.04-3.212 4.212 1.481 1.481v2.298c-.878.243-1.731.579-2.541 1.039l-2.409-2.409c-.294-.294-.767-.294-1.061 0zm8.662 5.48c1.953-1.953 5.118-1.953 7.07 0 1.953 1.953 1.953 5.118 0 7.07-1.953 1.953-5.118 1.953-7.07 0-1.953-1.953-1.953-5.118 0-7.07"/></g><path d="m17.75 23c-.416 0-.75.335-.75.75v3.406c-.898.248-1.739.613-2.531 1.063l-2.406-2.406c-.147-.147-.371-.25-.563-.25-.192 0-.384.103-.531.25l-3.156 3.156c-.294.294-.294.8 0 1.094l2.406 2.406c-.449.793-.815 1.634-1.063 2.531h-3.406c-.415 0-.75.334-.75.75v4.5c0 .416.335.75.75.75h3.406c.248.898.613 1.739 1.063 2.531l-2.406 2.406c-.294.294-.294.8 0 1.094l3.156 3.156c.294.294.8.294 1.094 0l2.406-2.406c.793.449 1.634.784 2.531 1.031v3.438c0 .416.334.75.75.75h4.5c.416 0 .75-.334.75-.75v-3.438c.898-.248 1.739-.582 2.531-1.031l2.406 2.406c.294.294.8.294 1.094 0l3.156-3.156c.294-.294.294-.8 0-1.094l-2.406-2.406c.449-.793.784-1.634 1.031-2.531h3.438c.416 0 .75-.334.75-.75v-4.5c0-.416-.334-.75-.75-.75h-3.438c-.248-.898-.582-1.739-1.031-2.531l2.406-2.406c.294-.294.294-.8 0-1.094l-3.156-3.156c-.147-.147-.371-.25-.563-.25-.192 0-.384.103-.531.25l-2.406 2.406c-.793-.449-1.634-.815-2.531-1.063v-3.406c0-.415-.334-.75-.75-.75h-4.5m2.25 10c2.761 0 5 2.239 5 5 0 2.761-2.239 5-5 5-2.761 0-5-2.239-5-5 0-2.761 2.239-5 5-5" fill="#d2d6d7"/></svg>