<?xml version="1.0" encoding="UTF-8" standalone="no"?>
<!-- Created with Inkscape (http://www.inkscape.org/) -->

<svg
   xmlns:dc="http://purl.org/dc/elements/1.1/"
   xmlns:cc="http://creativecommons.org/ns#"
   xmlns:rdf="http://www.w3.org/1999/02/22-rdf-syntax-ns#"
   xmlns:svg="http://www.w3.org/2000/svg"
   xmlns="http://www.w3.org/2000/svg"
   xmlns:sodipodi="http://sodipodi.sourceforge.net/DTD/sodipodi-0.dtd"
   xmlns:inkscape="http://www.inkscape.org/namespaces/inkscape"
   version="1.1"
   width="64"
   height="64"
   id="svg13094"
   inkscape:version="0.91+devel r"
   sodipodi:docname="executable-windows.svg">
  <sodipodi:namedview
     pagecolor="#ffffff"
     bordercolor="#666666"
     borderopacity="1"
     objecttolerance="10"
     gridtolerance="10"
     guidetolerance="10"
     inkscape:pageopacity="0"
     inkscape:pageshadow="2"
     inkscape:window-width="1920"
     inkscape:window-height="1023"
     id="namedview1333"
     showgrid="true"
     inkscape:snap-bbox="true"
     inkscape:bbox-paths="true"
     inkscape:bbox-nodes="true"
     inkscape:snap-bbox-edge-midpoints="true"
     inkscape:snap-bbox-midpoints="true"
     inkscape:zoom="11.313708"
     inkscape:cx="41.411072"
     inkscape:cy="28.998315"
     inkscape:window-x="-10"
     inkscape:window-y="35"
     inkscape:window-maximized="1"
     inkscape:current-layer="g3806"
     inkscape:object-paths="true"
     inkscape:snap-intersection-paths="true"
     inkscape:object-nodes="true"
     inkscape:snap-smooth-nodes="true"
     inkscape:snap-midpoints="true"
     inkscape:snap-object-midpoints="true"
     inkscape:snap-center="true"
     fit-margin-top="0"
     fit-margin-left="0"
     fit-margin-right="0"
     fit-margin-bottom="0"
     showguides="true"
     inkscape:guide-bbox="true"
     inkscape:snap-global="true">
    <inkscape:grid
       type="xygrid"
       id="grid4487"
       empspacing="5"
       visible="true"
       enabled="true"
       snapvisiblegridlinesonly="true"
       originx="0px"
       originy="0px" />
  </sodipodi:namedview>
  <defs
     id="defs11" />
  <metadata
     id="metadata13099">
    <rdf:RDF>
      <cc:Work
         rdf:about="">
        <dc:format>image/svg+xml</dc:format>
        <dc:type
           rdf:resource="http://purl.org/dc/dcmitype/StillImage" />
        <dc:title></dc:title>
      </cc:Work>
    </rdf:RDF>
  </metadata>
  <path
     inkscape:connector-curvature="0"
     style="fill:#7cea52;fill-opacity:1;fill-rule:nonzero"
     id="path4229"
     d="M 32,0 62,0 64,1 64,5 32,4 z"
     sodipodi:nodetypes="cccccc" />
  <path
     d="M 0,1 2,0 32,0 32,5 0,5 z"
     id="path3029"
     style="fill:#ff904d;fill-opacity:1;fill-rule:nonzero"
     inkscape:connector-curvature="0"
     sodipodi:nodetypes="cccccc" />
  <path
     sodipodi:nodetypes="cccccc"
     inkscape:connector-curvature="0"
     style="fill:#3a85d2;fill-opacity:1;fill-rule:nonzero"
     id="path4320"
     d="M 0,34 32,34 32,64 2,64 0,62 z" />
  <path
     sodipodi:nodetypes="cccccc"
     inkscape:connector-curvature="0"
     style="fill:#e8b214;fill-opacity:1;fill-rule:nonzero"
     id="path4302"
     d="m 32,34 32,0 0,28 -2,2 -30,0 z" />
  <path
     sodipodi:nodetypes="ccccc"
     d="m 32,4 32,0 0,30 -32,0 z"
     id="path4309"
     style="fill:#5ab039;fill-opacity:1;fill-rule:nonzero"
     inkscape:connector-curvature="0" />
  <path
     d="M 0,4 32,4 32,34 0,34 z"
     id="path3809"
     style="fill:#d16d31;fill-opacity:1;fill-rule:nonzero"
     inkscape:connector-curvature="0"
     sodipodi:nodetypes="ccccc" />
  <path
     d="M 64,6 62,4 64,3 z"
     id="path3028"
     style="fill:#6bcc45;fill-opacity:1"
     inkscape:connector-curvature="0" />
  <path
     d="M 0,6 2,4 0,3 z"
     id="path3028-3"
     style="fill:#ffb182;fill-opacity:1"
     inkscape:connector-curvature="0" />
  <g
     id="g3806">
    <path
       id="path3434"
       d="M 23.03125 34 C 23.034618 34.237807 23.043272 34.48137 23.0625 34.71875 C 23.239263 35.008466 23.310539 35.324095 23.21875 35.65625 L 23.15625 35.65625 C 23.15995 35.67599 23.15245 35.69906 23.15625 35.71875 C 23.16225 35.74999 23.18113 35.78138 23.1875 35.8125 C 23.20888 35.88433 23.23325 35.958991 23.25 36.03125 C 23.29834 36.240623 23.374015 36.450102 23.4375 36.65625 C 23.46642 36.74963 23.46792 36.844928 23.5 36.9375 C 23.552 37.088528 23.59598 37.226366 23.65625 37.375 C 23.67379 37.41835 23.70056 37.45699 23.71875 37.5 C 23.81795 37.734532 23.913233 37.963627 24.03125 38.1875 C 24.04869 38.22058 24.07591 38.24842 24.09375 38.28125 C 24.218741 38.509334 24.356228 38.719749 24.5 38.9375 C 24.58047 39.058647 24.665521 39.1892 24.75 39.3125 C 24.79224 39.37415 24.82995 39.441806 24.875 39.5 C 24.93342 39.57554 25.001757 39.645147 25.0625 39.71875 C 25.0996 39.75946 25.12004 39.80163 25.15625 39.84375 C 25.496816 40.24223 25.876847 40.603757 26.28125 40.9375 C 26.29256 40.9469 26.30107 40.95942 26.3125 40.96875 C 26.38241 41.02605 26.458661 41.07309 26.53125 41.125 C 26.677631 41.237571 26.815446 41.36518 26.96875 41.46875 C 26.98774 41.48128 27.0123 41.48736 27.03125 41.5 C 27.03955 41.5055 27.05415 41.4945 27.0625 41.5 C 27.239994 41.61755 27.435672 41.738285 27.625 41.84375 C 27.65779 41.8621 27.68571 41.8883 27.71875 41.90625 C 27.75085 41.92375 27.78081 41.95183 27.8125 41.96875 C 28.077432 42.108412 28.345269 42.230571 28.625 42.34375 C 28.852953 42.43598 29.075716 42.520102 29.3125 42.59375 C 29.3351 42.60105 29.35234 42.61806 29.375 42.625 C 29.39401 42.6308 29.41844 42.6194 29.4375 42.625 C 29.710616 42.70572 29.997986 42.788923 30.28125 42.84375 C 30.544045 42.89462 30.823338 42.94129 31.09375 42.96875 C 31.354622 42.99524 31.608024 42.99627 31.875 43 C 30.665272 40.897063 30.729023 38.270065 32 36.1875 L 32 34 L 23.03125 34 z M 12.09375 37.40625 L 12.125 37.4375 C 12.1187 37.42502 12.09956 37.41903 12.09375 37.40625 z M 12.5625 37.875 L 17.5 42.84375 L 18.96875 41.375 C 18.818949 41.110793 18.665389 40.834952 18.53125 40.5625 C 18.330042 40.153822 18.163793 39.740662 18 39.3125 C 17.945447 39.16898 17.893767 39.019896 17.84375 38.875 C 17.743256 38.585063 17.645011 38.299177 17.5625 38 L 13.5 38 L 13 38 C 12.836799 38 12.698315 37.94377 12.5625 37.875 z M 24.625 47.03125 L 21.40625 50.25 C 21.35728 50.29897 21.282819 50.34684 21.21875 50.375 C 21.21145 50.3796 21.19495 50.3706 21.1875 50.375 C 20.952263 50.513394 20.697412 50.566292 20.4375 50.5 C 20.311303 50.51481 20.26532 50.54657 20.40625 50.6875 L 25.625 55.90625 C 26.016737 56.297987 26.670763 56.297987 27.0625 55.90625 L 28.8125 54.15625 L 32 57.34375 L 32 54 L 29 54 C 28.8615 54 28.744719 53.956719 28.625 53.90625 C 28.385562 53.805312 28.194688 53.614438 28.09375 53.375 C 28.043281 53.255281 28 53.1385 28 53 L 28 52.96875 L 28 48.4375 C 27.411124 48.275089 26.834952 48.074379 26.28125 47.84375 C 26.27255 47.84015 26.25871 47.84735 26.25 47.84375 C 25.687942 47.608344 25.153414 47.33085 24.625 47.03125 z "
       style="fill:#002953;fill-opacity:0.18783543;fill-rule:nonzero" />
    <path
       id="path3438"
       d="M 32 34 L 32 36.1875 C 32.268915 35.746868 32.557187 35.317813 32.9375 34.9375 C 33.31961 34.555389 33.746379 34.269135 34.1875 34 L 32 34 z M 52 34 L 52 36.96875 L 52 37 C 52 37.1385 51.956719 37.255281 51.90625 37.375 C 51.867241 37.465947 51.811861 37.549943 51.75 37.625 C 51.68619 37.702286 51.615383 37.757395 51.53125 37.8125 C 51.500578 37.83336 51.470415 37.857586 51.4375 37.875 C 51.416944 37.885408 51.396351 37.897249 51.375 37.90625 C 51.269073 37.953232 51.152407 37.992634 51.03125 38 C 51.020473 38.00034 51.010863 38 51 38 C 50.98979 38.00031 50.979035 38 50.96875 38 L 46.4375 38 C 46.354988 38.299177 46.256744 38.585063 46.15625 38.875 C 46.058447 39.162503 45.959239 39.436804 45.84375 39.71875 C 45.605699 40.290272 45.335597 40.838216 45.03125 41.375 L 48.25 44.59375 C 48.347934 44.691684 48.419783 44.817159 48.46875 44.9375 C 48.566684 45.178181 48.566684 45.446819 48.46875 45.6875 C 48.419783 45.810024 48.347934 45.933315 48.25 46.03125 L 44.03125 50.25 C 43.639513 50.641737 42.985487 50.641737 42.59375 50.25 L 39.375 47.03125 C 39.110793 47.18105 38.834952 47.334612 38.5625 47.46875 C 37.734269 47.870619 36.878241 48.194806 36 48.4375 L 36 52.96875 C 36 53.10725 35.958262 53.253737 35.90625 53.375 C 35.805312 53.614438 35.614438 53.805312 35.375 53.90625 C 35.253737 53.958262 35.107251 54.000001 34.96875 54 L 32 54 L 32 57.34375 L 33.75 59.09375 L 33.78125 59.0625 C 33.949297 59.412302 34.254081 59.656254 34.65625 59.65625 L 40.625 59.65625 C 41.178996 59.656248 41.656248 59.178996 41.65625 58.625 L 41.65625 54.09375 C 42.827238 53.770159 43.920429 53.300324 45 52.6875 L 48.25 55.90625 C 48.641737 56.297987 49.295763 56.297987 49.6875 55.90625 L 53.90625 51.6875 C 54.297987 51.295763 54.297987 50.641737 53.90625 50.25 L 50.65625 47.03125 C 51.269074 45.951679 51.770159 44.827238 52.09375 43.65625 L 56.625 43.65625 C 57.178995 43.656248 57.656246 43.210248 57.65625 42.65625 L 57.65625 36.6875 C 57.656256 36.34977 57.482858 36.032122 57.21875 35.84375 L 55.375 34 L 52 34 z "
       style="fill:#782100;fill-opacity:0.14937389;fill-rule:nonzero" />
    <path
       id="path3430"
       d="M 35.78125 14.40625 C 35.908365 14.573956 36 14.772401 36 15 L 36 15.84375 L 36 19.5625 C 36.585496 19.724294 37.154857 19.925272 37.71875 20.15625 C 37.72765 20.15995 37.7411 20.15255 37.75 20.15625 C 38.304824 20.384758 38.843559 20.667078 39.375 20.96875 L 40.84375 19.46875 L 35.78125 14.40625 z M 48.5625 22.3125 C 48.51355 22.29619 48.51067 22.3665 48.5 22.4375 C 48.56629 22.697412 48.51339 22.952263 48.375 23.1875 C 48.3712 23.1973 48.3792 23.20914 48.375 23.21875 C 48.33582 23.28154 48.30415 23.352098 48.25 23.40625 L 45.03125 26.625 C 45.630454 27.681828 46.107454 28.803295 46.4375 30 L 51 30 C 51.127582 30.0039 51.262594 30.04554 51.375 30.09375 C 51.614438 30.194688 51.805312 30.385562 51.90625 30.625 C 51.956719 30.744719 52 30.8615 52 31 C 52.000306 31.01005 52 31.02114 52 31.03125 L 52 34 L 55.375 34 L 52.1875 30.78125 L 53.90625 29.0625 C 54.297987 28.670763 54.297987 28.016737 53.90625 27.625 L 48.6875 22.40625 C 48.63853 22.35728 48.59066 22.32188 48.5625 22.3125 z M 32 25.03125 L 32 34 L 34.1875 34 C 36.272377 32.727984 38.893084 32.676595 41 33.90625 C 40.9942 33.351407 40.94565 32.807697 40.84375 32.28125 C 40.78892 31.997986 40.705719 31.710616 40.625 31.4375 C 40.6211 31.42409 40.629 31.41962 40.625 31.40625 C 40.6155 31.37518 40.60388 31.34348 40.59375 31.3125 C 40.5201 31.075716 40.43598 30.852953 40.34375 30.625 C 40.3265 30.58247 40.29793 30.54232 40.28125 30.5 C 40.22247 30.361031 40.159207 30.229048 40.09375 30.09375 C 40.04982 30.00365 40.01585 29.901405 39.96875 29.8125 C 39.96665 29.8085 39.93962 29.8165 39.9375 29.8125 C 39.804604 29.563652 39.657719 29.300645 39.5 29.0625 C 39.4945 29.0542 39.5055 29.03961 39.5 29.03125 C 39.48736 29.0123 39.4815 28.98762 39.46875 28.96875 C 39.315174 28.741427 39.141907 28.52439 38.96875 28.3125 C 38.782254 28.080191 38.59187 27.84187 38.375 27.625 C 38.208081 27.458081 38.019902 27.338918 37.84375 27.1875 C 37.769459 27.123641 37.697335 27.064341 37.625 27 C 37.57968 26.96353 37.54603 26.9106 37.5 26.875 C 37.44197 26.83028 37.374204 26.79236 37.3125 26.75 C 37.189093 26.66529 37.058326 26.579776 36.9375 26.5 C 36.751526 26.377205 36.569537 26.266893 36.375 26.15625 C 36.34221 26.1379 36.31429 26.1117 36.28125 26.09375 C 36.24797 26.07551 36.22077 26.04873 36.1875 26.03125 C 35.963627 25.913233 35.734532 25.817949 35.5 25.71875 C 35.45699 25.70056 35.41835 25.67379 35.375 25.65625 C 35.31183 25.63063 35.251044 25.61616 35.1875 25.59375 C 35.00941 25.53093 34.837687 25.493375 34.65625 25.4375 C 34.452253 25.37432 34.238523 25.298051 34.03125 25.25 C 33.99958 25.2427 33.96869 25.22863 33.9375 25.21875 C 33.89587 25.20965 33.85435 25.19606 33.8125 25.1875 C 33.76176 25.17712 33.707297 25.16578 33.65625 25.15625 L 33.65625 25.21875 C 33.324096 25.31054 33.008466 25.23926 32.71875 25.0625 C 32.481285 25.043261 32.239712 25.032673 32 25.03125 z "
       style="fill:#144800;fill-opacity:0.1529517;fill-rule:nonzero" />
    <path
       inkscape:connector-curvature="0"
       style="fill:#e3e5e7;fill-opacity:1;fill-rule:nonzero;stroke:none"
       id="path3940"
       d="m 29,14 c -0.554,0 -1,0.446 -1,1 l 0,4.5625 c -1.196705,0.330046 -2.318172,0.807046 -3.375,1.40625 L 21.40625,17.75 c -0.195869,-0.195869 -0.463131,-0.3125 -0.71875,-0.3125 -0.255619,0 -0.522881,0.116631 -0.71875,0.3125 L 15.75,21.96875 c -0.391737,0.391737 -0.391737,1.045763 0,1.4375 L 18.96875,26.625 C 18.369546,27.681828 17.892546,28.803295 17.5625,30 L 13,30 c -0.554,0 -1,0.446 -1,1 l 0,6 c 0,0.554 0.446,1 1,1 l 4.5625,0 c 0.330046,1.19671 0.807046,2.31817 1.40625,3.375 L 15.75,44.59375 c -0.391737,0.39174 -0.391737,1.04576 0,1.4375 L 19.96875,50.25 c 0.391737,0.39174 1.045763,0.39174 1.4375,0 L 24.625,47.03125 c 1.056828,0.5992 2.178295,1.0762 3.375,1.40625 L 28,53 c 0,0.554 0.446,1 1,1 l 6,0 c 0.554,0 1,-0.446 1,-1 l 0,-4.5625 c 1.196705,-0.33005 2.318172,-0.80705 3.375,-1.40625 L 42.59375,50.25 c 0.391737,0.39174 1.045763,0.39174 1.4375,0 L 48.25,46.03125 c 0.391737,-0.39174 0.391737,-1.04576 0,-1.4375 L 45.03125,41.375 C 45.630454,40.31817 46.107454,39.19671 46.4375,38 L 51,38 c 0.554,0 1,-0.446 1,-1 l 0,-6 c 0,-0.554 -0.446,-1 -1,-1 l -4.5625,0 C 46.107454,28.803295 45.630454,27.681828 45.03125,26.625 L 48.25,23.40625 c 0.391737,-0.391737 0.391737,-1.045763 0,-1.4375 L 44.03125,17.75 c -0.195869,-0.195869 -0.463131,-0.3125 -0.71875,-0.3125 -0.255619,0 -0.522881,0.116631 -0.71875,0.3125 L 39.375,20.96875 C 38.318172,20.369546 37.196705,19.892546 36,19.5625 L 36,15 c 0,-0.554 -0.446,-1 -1,-1 l -6,0 z m 3,11 c 4.970562,0 9,4.029438 9,9 0,4.97056 -4.029438,9 -9,9 -4.970562,0 -9,-4.02944 -9,-9 0,-4.970562 4.029438,-9 9,-9 z" />
    <path
       inkscape:connector-curvature="0"
       style="fill:#3587da;fill-opacity:1;fill-rule:nonzero;stroke:none"
       id="path3896"
       d="m 32,25 c -4.970562,0 -9,4.029438 -9,9 0,4.97056 4.029438,9 9,9 4.970562,0 9,-4.02944 9,-9 0,-4.970562 -4.029438,-9 -9,-9 z" />
    <path
       d="m 29,38 0,-8 8,4 z"
       id="path4215"
       style="fill:#e3e5e7;fill-opacity:1;stroke:none"
       inkscape:connector-curvature="0" />
  </g>
</svg>
