<svg xmlns="http://www.w3.org/2000/svg" viewBox="0 0 64 64"><path d="m0 1l2-1h60l2 1v16h-64" fill="#d8bd6f"/><path d="m0 16h64v46l-2 2h-60l-2-2z" fill="#a07c46" color="#000"/><path d="m0 16h64v46l-2 2h-60l-2-2z" fill="#a6854c"/><g fill="#9c7a44"><path d="m0 62l2 2h30v-24h-32z"/><path d="m64 62l-2 2h-30v-24h32z"/><path d="m0 16h32v24h-32z"/><path d="m64 16h-32v24h32z"/></g><path d="m64 16h-32v-7.847h32z" fill="#d7b871"/><g fill="#d2b164"><path d="m0 16h32v-7.847h-32z"/><path d="m64 1l-2-1h-30v8.153h32z"/></g><path d="m0 1l2-1h30v8.153h-32z" fill="#d7b871"/><path d="m64 18l-2-2 2-1z" fill="#ba9c59"/><path d="m0 18l2-2-2-1" fill="#dbc071"/><g color="#000"><path d="m28.28 20v1 13.09h2.563v-6.03h2.188c.614 0 .985-.006 1.094 0 .147.243.535 1.025 1.156 2.344l1.625 3.688h2.375.469l-2.094-4.344c-.278-.573-.523-1-.75-1.375-.192-.315-.373-.603-.531-.781 1.504-.522 2.332-1.565 2.5-3.094.021-.195.031-.382.031-.594 0-.634-.077-1.195-.25-1.656-.166-.467-.393-.837-.688-1.125-.288-.288-.683-.521-1.156-.688-.467-.173-.944-.28-1.469-.344-.518-.064-1.133-.094-1.844-.094h-5.219m13.938 0l.656 1 1.938 2.906-.344.5-2.469 3.625h.688.938l2.063-3.125 2.031 3.125h1.031.688l-2.438-3.594-.344-.5 1.969-2.938.688-1h-1.594l-1.938 3-1.906-3h-1.656m7.938 0v1 .188h4.094l-.719 1-3.531 4.875v.969h.031 6v-.188-1h-3.469-.719l4.156-5.75v-.094-1h-5.844m-44.906.031v1 1.094h4.094v11.969h2.625v-11.969h4.063v-1.094-1h-10.781m14.344 0l-5.188 14.06h.375 2.344l1.406-3.969h4.938l1.375 3.969h2.313.375l-5.094-14.06h-2.844m11.25 1.906h3c.909 0 1.59.142 2.031.469.442.326.656.84.656 1.531 0 .197-.004.392-.031.563-.021.128-.057.232-.094.344-.013.04-.017.087-.031.125-.027.065-.061.128-.094.188-.035.068-.083.127-.125.188-.021.029-.04.067-.063.094-.065.08-.139.153-.219.219-.435.352-1.158.531-2.156.531h-1.438c-.858-.006-1.342 0-1.438 0v-4.25m-9.813.531c.032.122.629 2.026 1.781 5.719h-.313-3-.313l1.844-5.719" fill="#efe3b6"/><path d="m44.5 21l1.281 2 .188-.281-1.094-1.719h-.375m4.219 0l-1.938 3-.094-.125-.031.063.344.5 2.438 3.594h-.688-.688l.656 1h1.031.688l-2.438-3.594-.344-.5 1.969-2.938.563-.813h-.031v-.188h-1.438m7.281 0v.094l-.781 1.094h.031l-.719 1-2.656 3.656h.688 1l3.438-4.75v-.094-1h-1m-39.969.031v1.094h-4.063v11.969h-1.625v1h2.625v-11.969h4.063v-1.094-1h-1m6.781 0l4.719 13.06h-.375-1.656l.344 1h2.313.375l-5.094-14.06h-.625m28.344.156v.813.188h2.375l.719-1h-3.094m-12.75.531c.094.166.179.331.25.531.173.461.25 1.023.25 1.656 0 .211-.01.399-.031.594-.168 1.529-.996 2.572-2.5 3.094.158.179.339.466.531.781.227.373.472.802.75 1.375l2.094 4.344h-.469-1.813l.438 1h2.375.469l-2.094-4.344c-.278-.573-.523-1-.75-1.375-.192-.315-.373-.603-.531-.781 1.504-.522 2.332-1.565 2.5-3.094.021-.195.031-.382.031-.594 0-.634-.077-1.195-.25-1.656-.166-.467-.393-.837-.688-1.125-.158-.158-.345-.283-.563-.406m-7.563.219v4.25c.067 0 .563 0 1 0v-3.25h3c.635 0 1.154.065 1.563.219-.106-.31-.277-.562-.531-.75-.442-.326-1.122-.469-2.031-.469h-3m-24.594.188v1h3.094v-1h-3.094m14.781.344l-1.844 5.719h.313 1l1.188-3.625c-.163-.523-.645-2.049-.656-2.094m24.719 2.531l-.281.406-2.469 3.625h.688.938l1.875-2.844-.75-1.188m10.281 2.844v.188h-5l-.031.031v.969h.031 6v-.188-1h-1m-25.19.219v6.03h-1.563v1h2.563v-6.03h2.188c.334 0 .407.001.594 0-.151-.301-.437-.896-.5-1-.109-.006-.479 0-1.094 0h-2.188m-12.313 2.063l-1.406 3.969h-1.344l-.375 1h.375 2.344l1.406-3.969h4.281l-.344-1h-4.938" fill="#642400" fill-opacity=".14"/></g></svg>