<svg xmlns="http://www.w3.org/2000/svg" viewBox="0 0 64 64"><defs><linearGradient x1="48.918" y1="46.21" x2="32.67" y2="24" id="0" gradientUnits="userSpaceOnUse"><stop stop-color="#e68262" stop-opacity=".665"/><stop offset="1" stop-color="#e1715d" stop-opacity="0"/></linearGradient></defs><path d="m4 0h60v62h-60z" fill="#d1280c"/><path d="m60 2v31l-24.322 29h28.322v-25-31l-4-4" fill="#8a1e00" fill-opacity=".382"/><path d="m0 2h60v31l-26 31h-34z" fill="url(#0)"/><g color="#000"><path d="m0 2h60v31l-26 31h-34z" fill="#f94219"/><path d="m29.13 2c.145 12.518-9.276 23.947-29.12 29.625v.563c19.317-4.819 35.682-14.793 38.31-30.19h-9.188m18.969 14.906c-19.764.024-38.644 12-48.09 42.906v4.188h10.06c6.78-29.403 24.593-49.05 49.938-44.625v-1.094c-.481-.109-.955-.216-1.438-.313-3.488-.698-6.989-1.067-10.469-1.063" fill="#fbecec"/></g><path d="m34 64l26-31c-2.329 2.776-4.361 3-11 3h-12v15c0 6.644.044 9.37-3 13" fill="#d92907"/></svg>