<?xml version="1.0" encoding="UTF-8" standalone="no"?>
<!-- Created with Inkscape (http://www.inkscape.org/) -->

<svg
   xmlns:dc="http://purl.org/dc/elements/1.1/"
   xmlns:cc="http://creativecommons.org/ns#"
   xmlns:rdf="http://www.w3.org/1999/02/22-rdf-syntax-ns#"
   xmlns:svg="http://www.w3.org/2000/svg"
   xmlns="http://www.w3.org/2000/svg"
   xmlns:sodipodi="http://sodipodi.sourceforge.net/DTD/sodipodi-0.dtd"
   xmlns:inkscape="http://www.inkscape.org/namespaces/inkscape"
   version="1.1"
   width="16"
   height="16"
   id="svg2"
   inkscape:version="0.48.3.1 r9886"
   sodipodi:docname="blender.svg">
  <sodipodi:namedview
     pagecolor="#ffffff"
     bordercolor="#666666"
     borderopacity="1"
     objecttolerance="10"
     gridtolerance="10"
     guidetolerance="10"
     inkscape:pageopacity="0"
     inkscape:pageshadow="2"
     inkscape:window-width="1920"
     inkscape:window-height="1023"
     id="namedview6"
     showgrid="true"
     inkscape:zoom="29.5"
     inkscape:cx="7.1772739"
     inkscape:cy="8.3079781"
     inkscape:window-x="-10"
     inkscape:window-y="35"
     inkscape:window-maximized="1"
     inkscape:current-layer="svg2"
     inkscape:snap-global="false"
     showguides="true"
     inkscape:guide-bbox="true"
     inkscape:snap-bbox="true"
     inkscape:bbox-paths="true"
     inkscape:bbox-nodes="true"
     inkscape:snap-bbox-edge-midpoints="true"
     inkscape:snap-bbox-midpoints="true"
     inkscape:object-paths="true"
     inkscape:snap-intersection-paths="true"
     inkscape:object-nodes="true"
     inkscape:snap-smooth-nodes="true"
     inkscape:snap-midpoints="true"
     inkscape:snap-object-midpoints="true"
     inkscape:snap-center="true">
    <inkscape:grid
       type="xygrid"
       id="grid2982" />
  </sodipodi:namedview>
  <defs
     id="defs4" />
  <metadata
     id="metadata7">
    <rdf:RDF>
      <cc:Work
         rdf:about="">
        <dc:format>image/svg+xml</dc:format>
        <dc:type
           rdf:resource="http://purl.org/dc/dcmitype/StillImage" />
        <dc:title />
      </cc:Work>
    </rdf:RDF>
  </metadata>
  <path
     id="path3034"
     d="M 8.09375,0.71875 C 7.8381309,0.71875 7.5708686,0.80413143 7.375,1 6.9832628,1.3917372 6.9832628,2.0457628 7.375,2.4375 L 8.9375,4 3,4 C 2.446,4 2,4.446 2,5 2,5.554 2.446,6 3,6 L 5.25,6 1,10.21875 c -0.39173713,0.391737 -0.39173713,1.014513 0,1.40625 0.3917372,0.391738 1.0457628,0.391738 1.4375,0 L 4.03125,10.0625 C 4.312905,12.835908 6.6522818,15 9.5,15 12.537566,15 15,12.537566 15,9.5 15,8.0444996 14.423118,6.7337636 13.5,5.75 13.472942,5.7041651 13.423967,5.6739672 13.375,5.625 L 8.78125,1 C 8.5853814,0.80413143 8.3493691,0.71875 8.09375,0.71875 z M 9.5,6 C 11.432997,6 13,7.5670034 13,9.5 13,11.432997 11.432997,13 9.5,13 7.5670034,13 6,11.432997 6,9.5 6,7.5670034 7.5670034,6 9.5,6 z m 0,1.15625 c -1.2871043,0 -2.34375,1.0566457 -2.34375,2.34375 0,1.287104 1.0566457,2.34375 2.34375,2.34375 1.287104,0 2.34375,-1.056646 2.34375,-2.34375 0,-1.2871043 -1.056646,-2.34375 -2.34375,-2.34375 z"
     style="color:#000000;fill:#434a55;fill-opacity:0.6745098;fill-rule:nonzero;stroke:none;stroke-width:1;marker:none;visibility:visible;display:inline;overflow:visible;enable-background:accumulate"
     inkscape:connector-curvature="0" />
</svg>
