<?xml version="1.0" encoding="UTF-8" standalone="no"?>
<!-- Created with Inkscape (http://www.inkscape.org/) -->

<svg
   xmlns:dc="http://purl.org/dc/elements/1.1/"
   xmlns:cc="http://creativecommons.org/ns#"
   xmlns:rdf="http://www.w3.org/1999/02/22-rdf-syntax-ns#"
   xmlns:svg="http://www.w3.org/2000/svg"
   xmlns="http://www.w3.org/2000/svg"
   xmlns:sodipodi="http://sodipodi.sourceforge.net/DTD/sodipodi-0.dtd"
   xmlns:inkscape="http://www.inkscape.org/namespaces/inkscape"
   width="16"
   height="16"
   id="svg27665"
   version="1.1"
   inkscape:version="0.48.4 r9939"
   sodipodi:docname="nepomuk.svg">
  <defs
     id="defs27667" />
  <sodipodi:namedview
     id="base"
     pagecolor="#ffffff"
     bordercolor="#666666"
     borderopacity="1.0"
     inkscape:pageopacity="0.0"
     inkscape:pageshadow="2"
     inkscape:zoom="31.678384"
     inkscape:cx="9.1444685"
     inkscape:cy="7.0750126"
     inkscape:document-units="px"
     inkscape:current-layer="layer1"
     showgrid="true"
     inkscape:window-width="1920"
     inkscape:window-height="1016"
     inkscape:window-x="-5"
     inkscape:window-y="27"
     inkscape:window-maximized="1"
     inkscape:snap-bbox="true"
     inkscape:bbox-paths="true"
     inkscape:bbox-nodes="true"
     inkscape:snap-bbox-edge-midpoints="true"
     inkscape:snap-bbox-midpoints="true"
     inkscape:object-paths="true"
     inkscape:snap-intersection-paths="true"
     inkscape:object-nodes="true"
     inkscape:snap-smooth-nodes="true"
     inkscape:snap-midpoints="true"
     inkscape:snap-object-midpoints="true"
     inkscape:snap-center="true"
     inkscape:snap-global="true"
     showguides="true"
     inkscape:guide-bbox="true"
     fit-margin-top="0"
     fit-margin-left="0"
     fit-margin-right="0"
     fit-margin-bottom="0"
     inkscape:showpageshadow="false"
     inkscape:snap-page="true">
    <inkscape:grid
       type="xygrid"
       id="grid3126"
       empspacing="5"
       visible="true"
       enabled="true"
       snapvisiblegridlinesonly="true"
       originx="1.9507231e-05px"
       originy="25.00001px" />
  </sodipodi:namedview>
  <metadata
     id="metadata27670">
    <rdf:RDF>
      <cc:Work
         rdf:about="">
        <dc:format>image/svg+xml</dc:format>
        <dc:type
           rdf:resource="http://purl.org/dc/dcmitype/StillImage" />
        <dc:title />
      </cc:Work>
    </rdf:RDF>
  </metadata>
  <g
     inkscape:label="Camada 1"
     inkscape:groupmode="layer"
     id="layer1"
     transform="translate(3364.4172,-1859.5163)">
    <path
       style="color:#000000;fill:#434a55;fill-opacity:0.6745098;fill-rule:nonzero;stroke:none;stroke-width:2.5;marker:none;visibility:visible;display:inline;overflow:visible;enable-background:accumulate"
       d="M 4 1 C 2.3431 1 1 2.3431 1 4 C 1 5.6569 2.3431 7 4 7 C 4.2658 7 4.5046 6.94 4.75 6.875 L 7.3125 9.4375 C 7.1605 9.7969 7.07215 10.18965 7.03125 10.59375 L 5.59375 11.15625 C 5.14985 10.46005 4.3868 10 3.5 10 C 2.1193 10 1 11.1193 1 12.5 C 1 13.8807 2.1193 15 3.5 15 C 4.6516 15 5.61605 14.21575 5.90625 13.15625 L 7.3125 12.59375 C 7.9256 14.01595 9.3528 15 11 15 C 13.2091 15 15 13.2091 15 11 C 15 9.3528 14.01595 7.9256 12.59375 7.3125 L 13.15625 5.90625 C 14.21565 5.61605 15 4.6515 15 3.5 C 15 2.1193 13.8807 1 12.5 1 C 11.1193 1 10 2.1193 10 3.5 C 10 4.3868 10.45995 5.14985 11.15625 5.59375 L 10.59375 7.03125 C 10.18975 7.07225 9.7969 7.1605 9.4375 7.3125 L 6.875 4.75 C 6.94 4.5046 7 4.2658 7 4 C 7 2.3431 5.6569 1 4 1 z M 4 3 C 4.5523 3 5 3.4477 5 4 C 5 4.5523 4.5523 5 4 5 C 3.4477 5 3 4.5523 3 4 C 3 3.4477 3.4477 3 4 3 z M 11 9 C 12.1046 9 13 9.8954 13 11 C 13 12.1046 12.1046 13 11 13 C 9.8954 13 9 12.1046 9 11 C 9 9.8954 9.8954 9 11 9 z "
       transform="translate(-3364.4172,1859.5163)"
       id="path2985" />
  </g>
</svg>
