<?xml version="1.0" encoding="UTF-8" standalone="no"?>
<!-- Created with Inkscape (http://www.inkscape.org/) -->

<svg
   xmlns:dc="http://purl.org/dc/elements/1.1/"
   xmlns:cc="http://creativecommons.org/ns#"
   xmlns:rdf="http://www.w3.org/1999/02/22-rdf-syntax-ns#"
   xmlns:svg="http://www.w3.org/2000/svg"
   xmlns="http://www.w3.org/2000/svg"
   xmlns:sodipodi="http://sodipodi.sourceforge.net/DTD/sodipodi-0.dtd"
   xmlns:inkscape="http://www.inkscape.org/namespaces/inkscape"
   id="svg13094"
   height="22"
   width="22"
   version="1.1"
   inkscape:version="0.48.3.1 r9886"
   sodipodi:docname="folder-image-people.svg">
  <defs
     id="defs2989" />
  <sodipodi:namedview
     pagecolor="#ffffff"
     bordercolor="#666666"
     borderopacity="1"
     objecttolerance="10"
     gridtolerance="10"
     guidetolerance="10"
     inkscape:pageopacity="0"
     inkscape:pageshadow="2"
     inkscape:window-width="1920"
     inkscape:window-height="1033"
     id="namedview2987"
     showgrid="true"
     inkscape:zoom="29.5"
     inkscape:cx="1.9651252"
     inkscape:cy="10.628168"
     inkscape:window-x="-10"
     inkscape:window-y="25"
     inkscape:window-maximized="1"
     inkscape:current-layer="svg13094"
     inkscape:snap-bbox="true"
     inkscape:bbox-paths="true"
     inkscape:bbox-nodes="true"
     inkscape:snap-bbox-edge-midpoints="true"
     inkscape:snap-bbox-midpoints="true"
     inkscape:object-paths="true"
     inkscape:snap-intersection-paths="true"
     inkscape:object-nodes="true"
     inkscape:snap-smooth-nodes="true"
     inkscape:snap-midpoints="true"
     inkscape:snap-object-midpoints="true"
     inkscape:snap-center="true">
    <inkscape:grid
       type="xygrid"
       id="grid3750"
       empspacing="5"
       visible="true"
       enabled="true"
       snapvisiblegridlinesonly="true" />
  </sodipodi:namedview>
  <metadata
     id="metadata13099">
    <rdf:RDF>
      <cc:Work
         rdf:about="">
        <dc:format>image/svg+xml</dc:format>
        <dc:type
           rdf:resource="http://purl.org/dc/dcmitype/StillImage" />
        <dc:title />
      </cc:Work>
    </rdf:RDF>
  </metadata>
  <path
     style="color:#000000;fill:#d1d4d6;fill-opacity:0.74329164;fill-rule:nonzero;stroke:none;stroke-width:2;marker:none;visibility:visible;display:inline;overflow:visible;enable-background:accumulate"
     d="m 4,2 0,2 1,0 0,-1 15,0 0,13 -1,0 0,1 2,0 L 21,2 4,2 z M 1,5 1,20 18,20 18,18.5 18,17 18,16 18,15.65625 18,5 5,5 4,5 1,5 z M 2,6 17,6 17,19 2,19 2,6 z m 2,2 0,9 11,0 0,-9 -11,0 z m 5.5,2 C 10.328427,10 11,10.671573 11,11.5 11,12.328427 10.328427,13 9.5,13 8.6715729,13 8,12.328427 8,11.5 8,10.671573 8.6715729,10 9.5,10 z m -2.5,4 5,0 2,2 -9,0 2,-2 z"
     id="rect2987"
     inkscape:connector-curvature="0" />
  <path
     id="path2987"
     d="m 5,3 0,2 13,0 0,11 2,0 L 20,3 5,3 z M 2,6 2,19 17,19 17,6 2,6 z m 2,2 11,0 0,9 -11,0 0,-9 z m 5.5,2 C 8.6715729,10 8,10.671573 8,11.5 8,12.328427 8.6715729,13 9.5,13 10.328427,13 11,12.328427 11,11.5 11,10.671573 10.328427,10 9.5,10 z m -2.5,4 -2,2 9,0 -2,-2 -5,0 z"
     style="fill:#434a54;fill-opacity:0.6745098;fill-rule:nonzero"
     inkscape:connector-curvature="0" />
</svg>
