<svg xmlns="http://www.w3.org/2000/svg" viewBox="0 0 64 64"><g color="#000"><path d="m2 0l-2 1v1h32 32v-1l-2-1h-30" fill="#42b8b7"/><path d="m0 2v32 28l2 2h30 30l2-2v-28-32h-32zm4 3h7v8h-7zm49 0h7v8h-7zm-49 12h7v8h-7zm49 0h7v8h-7zm-49 12h7v8h-7zm49 0h7v8h-7zm-49 12h7v8h-7zm49 0h7v8h-7zm-49 12h7v8h-7zm49 0h7v8h-7z" fill="#3e6782"/><path d="m58.16 0l-3.465 2-46.766 27h3.072v6h-7v-3.732l-4 2.311v.422 28l2 2h9.307l46.766-27 1.928-1.113 4-2.309v-31.578-1l-2-1h-3.842m-5.158 5h7v6h-7v-6zm0 12h7v6h-7v-6m0 12h7v6h-7v-6m-49 12h7v6h-7v-6m0 12h7v6h-7v-6" fill="#d57e39"/><path d="m20.424 21.785l-12.496 7.215h3.072v8h-7v-5.732l-4 2.311v.422 28l2 2h9.307l33.02-19.06-23.898-23.15m-16.424 19.215h7v8h-7v-8m0 12h7v8h-7v-8" fill="#7a567c"/><path d="m54.693 2l-34.27 19.785 23.898 23.15 13.75-7.938h-5.072v-8h7v6.887l4-2.309v-31.578h-9.307m-1.693 3h7v8h-7v-8m0 12h7v8h-7v-8" fill="#645bb8"/><path d="m0 2v31.578l4-2.311v-2.268h3.928l12.496-7.215-11.133-10.785h-5.291v-5.125l-4-3.875m4 15h7v6h-7v-6" fill="#4f706b"/><path d="m0 2l4 3.875v-.875h7v7.656l9.424 9.129 34.27-19.785h-22.693-32" fill="#467e84"/><path d="m44.32 44.938l-33.02 19.06h50.693l.984-.984-4.146-4.02h-5.838v-5.656l-8.678-8.406" fill="#5e4f8f"/><path d="m64 33.578l-4 2.309v1.113h-1.928l-13.75 7.938 8.678 8.406v-.344h7v7.125l2.984 2.891 1.016-1.016v-28-.422m-11 7.422h7v8h-7v-8" fill="#7d46a5"/><path d="m4 11v2h7v-2h-7m0 12v2h7v-2h-7" fill="#50978c"/><path d="m60 35.887l-1.928 1.113h1.928v-1.113m-7 11.11v2h7v-2h-7" fill="#ba6ee2"/><path d="m53 59v2h7v-2h-7" fill="#8562d1"/><path d="m53 11v2h7v-2h-7m0 12v2h7v-2h-7m0 12v2h5.072l1.928-1.113v-.887h-7" fill="#5b95da"/><path d="m4 35v2h7v-2h-7m0 12v2h7v-2h-7m0 12v2h7v-2h-7" fill="#ad67b2"/></g><path d="m0 1v3l2-2" fill="#6bd9d8"/><path d="m58.16 0l-3.465 2h9.307v-1l-2-1h-3.842" color="#000" fill="#5b95da"/><path d="m64 4l-2-2 2-1" fill="#527fb5"/></svg>