<?xml version="1.0" encoding="UTF-8" standalone="no"?>
<!-- Created with Inkscape (http://www.inkscape.org/) -->

<svg
   xmlns:dc="http://purl.org/dc/elements/1.1/"
   xmlns:cc="http://creativecommons.org/ns#"
   xmlns:rdf="http://www.w3.org/1999/02/22-rdf-syntax-ns#"
   xmlns:svg="http://www.w3.org/2000/svg"
   xmlns="http://www.w3.org/2000/svg"
   xmlns:sodipodi="http://sodipodi.sourceforge.net/DTD/sodipodi-0.dtd"
   xmlns:inkscape="http://www.inkscape.org/namespaces/inkscape"
   width="22"
   height="22"
   id="svg27665"
   version="1.1"
   inkscape:version="0.48.4 r9939"
   sodipodi:docname="ardour.svg">
  <defs
     id="defs27667" />
  <sodipodi:namedview
     id="base"
     pagecolor="#ffffff"
     bordercolor="#666666"
     borderopacity="1.0"
     inkscape:pageopacity="0.0"
     inkscape:pageshadow="2"
     inkscape:zoom="32"
     inkscape:cx="18.366763"
     inkscape:cy="11.881176"
     inkscape:document-units="px"
     inkscape:current-layer="layer1"
     showgrid="true"
     inkscape:window-width="1920"
     inkscape:window-height="1022"
     inkscape:window-x="-5"
     inkscape:window-y="23"
     inkscape:window-maximized="1"
     inkscape:snap-bbox="true"
     inkscape:bbox-paths="true"
     inkscape:bbox-nodes="true"
     inkscape:snap-bbox-edge-midpoints="true"
     inkscape:snap-bbox-midpoints="true"
     inkscape:object-paths="true"
     inkscape:snap-intersection-paths="true"
     inkscape:object-nodes="true"
     inkscape:snap-smooth-nodes="true"
     inkscape:snap-midpoints="true"
     inkscape:snap-object-midpoints="true"
     inkscape:snap-center="true"
     inkscape:snap-global="true"
     showguides="false"
     inkscape:guide-bbox="true"
     fit-margin-top="0"
     fit-margin-left="0"
     fit-margin-right="0"
     fit-margin-bottom="0"
     inkscape:showpageshadow="false">
    <sodipodi:guide
       orientation="0,1"
       position="595.99988,295.99996"
       id="guide3572" />
    <sodipodi:guide
       orientation="1,0"
       position="290.41938,8.121743"
       id="guide3574" />
    <sodipodi:guide
       orientation="0,1"
       position="452.04378,595.99995"
       id="guide3576" />
    <sodipodi:guide
       orientation="0,1"
       position="-4.0001107,-4.0000574"
       id="guide3578" />
    <sodipodi:guide
       orientation="1,0"
       position="-4.0001107,153.58369"
       id="guide3580" />
    <sodipodi:guide
       orientation="1,0"
       position="595.99988,117.21824"
       id="guide3582" />
    <sodipodi:guide
       orientation="0,1"
       position="595.99988,-718.34356"
       id="guide5928" />
    <sodipodi:guide
       orientation="0,1"
       position="595.99988,-418.34356"
       id="guide5930" />
    <sodipodi:guide
       orientation="0,1"
       position="595.99988,-1018.3435"
       id="guide5932" />
    <sodipodi:guide
       orientation="0,1"
       position="447.57018,520.99609"
       id="guide5294" />
    <sodipodi:guide
       orientation="0,1"
       position="447.57018,71.013543"
       id="guide5296" />
    <sodipodi:guide
       orientation="0,1"
       position="492.01488,-935.36406"
       id="guide5413" />
    <sodipodi:guide
       orientation="0,1"
       position="453.34848,-493.34386"
       id="guide5415" />
    <inkscape:grid
       type="xygrid"
       id="grid3070"
       empspacing="5"
       visible="true"
       enabled="true"
       snapvisiblegridlinesonly="true"
       originx="-4.0000646px"
       originy="-4px" />
  </sodipodi:namedview>
  <metadata
     id="metadata27670">
    <rdf:RDF>
      <cc:Work
         rdf:about="">
        <dc:format>image/svg+xml</dc:format>
        <dc:type
           rdf:resource="http://purl.org/dc/dcmitype/StillImage" />
        <dc:title />
      </cc:Work>
    </rdf:RDF>
  </metadata>
  <g
     inkscape:label="Camada 1"
     inkscape:groupmode="layer"
     id="layer1"
     transform="translate(3360.417,-2090.7186)">
    <path
       style="color:#000000;fill:#434a54;fill-opacity:0.6745098;fill-rule:nonzero;stroke:none;stroke-width:1;marker:none;visibility:visible;display:inline;overflow:visible;enable-background:accumulate"
       d="m -3358.4167,2109.3781 8.9999,-15.3194 8.9997,15.3194 c -0.2932,-0.013 -0.6306,-0.2187 -0.9512,-0.2501 -0.2149,-0.022 -0.4256,0.03 -0.6311,0.021 -0.1794,-0.013 -0.3304,-0.4605 -0.5135,-0.4864 -0.2039,-0.028 -0.3274,0.4511 -0.648,0.4106 -0.3863,-0.049 -0.1305,-0.9995 -0.5172,-0.9995 -0.274,0 -0.2547,0.804 -0.5971,0.813 -0.4646,0.013 -0.1343,-1.657 -0.5463,-1.657 -0.4003,0 -0.2001,1.4532 -0.6193,1.4426 -0.3727,-0.013 -0.2272,-2.385 -0.5711,-2.3539 -0.3003,0.027 -0.1824,2.1596 -0.5631,2.1341 -0.4422,-0.03 -0.2625,-3.0878 -0.5919,-3.1005 -0.2672,-0.013 -0.1941,2.8847 -0.5583,2.8745 -0.4676,-0.013 -0.2029,-4.0406 -0.5598,-3.9546 -0.3818,0.091 -0.257,3.7328 -0.6189,3.729 -0.3329,0 -0.2098,-4.6232 -0.5129,-4.6347 -0.3624,-0.013 -0.1469,4.4336 -0.6404,4.4342 -0.4003,0 -0.1067,-5.019 -0.5346,-5.0027 -0.3251,0.013 -0.1695,4.9054 -0.57,4.8598 -0.5024,-0.057 -0.2302,-4.9952 -0.6287,-4.9987 -0.3845,0 -0.2091,4.9722 -0.458,5.046 -0.5332,0.054 -0.2574,-4.624 -0.6634,-4.627 -0.255,0 -0.1593,4.6879 -0.5722,4.8683 -0.2287,0.1003 -0.218,-3.6903 -0.5851,-3.7709 -0.2043,-0.045 -0.032,3.9334 -0.5655,4.0986 -0.4642,0.1439 -0.2421,-2.2511 -0.5749,-2.2546 -0.3424,0 -0.046,2.5051 -0.5152,2.646 -0.442,0.1327 -0.2422,-1.0637 -0.6613,-1.0412 -0.3792,0.021 -0.05,1.0691 -0.5108,1.1876 -0.2745,0.071 -0.3796,-0.1105 -0.5986,-0.071 -0.3123,0.057 -0.6658,0.638 -0.9212,0.638 z"
       id="path3030"
       inkscape:connector-curvature="0"
       sodipodi:nodetypes="cccssssssssssssssssssscsssssssssc" />
  </g>
</svg>
