<?xml version="1.0" encoding="UTF-8" standalone="no"?>
<!-- Created with Inkscape (http://www.inkscape.org/) -->

<svg
   xmlns:dc="http://purl.org/dc/elements/1.1/"
   xmlns:cc="http://creativecommons.org/ns#"
   xmlns:rdf="http://www.w3.org/1999/02/22-rdf-syntax-ns#"
   xmlns:svg="http://www.w3.org/2000/svg"
   xmlns="http://www.w3.org/2000/svg"
   xmlns:sodipodi="http://sodipodi.sourceforge.net/DTD/sodipodi-0.dtd"
   xmlns:inkscape="http://www.inkscape.org/namespaces/inkscape"
   width="22"
   height="22"
   id="svg27665"
   version="1.1"
   inkscape:version="0.48.4 r9939"
   sodipodi:docname="icons.svg">
  <defs
     id="defs27667" />
  <sodipodi:namedview
     id="base"
     pagecolor="#ffffff"
     bordercolor="#666666"
     borderopacity="1.0"
     inkscape:pageopacity="0.0"
     inkscape:pageshadow="2"
     inkscape:zoom="22.4"
     inkscape:cx="17.680133"
     inkscape:cy="12.833095"
     inkscape:document-units="px"
     inkscape:current-layer="22"
     showgrid="true"
     inkscape:window-width="1920"
     inkscape:window-height="1025"
     inkscape:window-x="-2"
     inkscape:window-y="32"
     inkscape:window-maximized="1"
     inkscape:snap-bbox="true"
     inkscape:bbox-paths="true"
     inkscape:bbox-nodes="true"
     inkscape:snap-bbox-edge-midpoints="true"
     inkscape:snap-bbox-midpoints="true"
     inkscape:object-paths="true"
     inkscape:snap-intersection-paths="true"
     inkscape:object-nodes="true"
     inkscape:snap-smooth-nodes="true"
     inkscape:snap-midpoints="true"
     inkscape:snap-object-midpoints="true"
     inkscape:snap-center="true"
     inkscape:snap-global="true"
     showguides="true"
     inkscape:guide-bbox="true"
     fit-margin-top="0"
     fit-margin-left="0"
     fit-margin-right="0"
     fit-margin-bottom="0"
     inkscape:showpageshadow="false"
     inkscape:snap-page="true">
    <inkscape:grid
       type="xygrid"
       id="grid3126"
       empspacing="5"
       visible="true"
       enabled="true"
       snapvisiblegridlinesonly="true"
       originx="1.9507231e-05px"
       originy="25.00001px" />
  </sodipodi:namedview>
  <metadata
     id="metadata27670">
    <rdf:RDF>
      <cc:Work
         rdf:about="">
        <dc:format>image/svg+xml</dc:format>
        <dc:type
           rdf:resource="http://purl.org/dc/dcmitype/StillImage" />
        <dc:title />
      </cc:Work>
    </rdf:RDF>
  </metadata>
  <g
     inkscape:label="Camada 1"
     inkscape:groupmode="layer"
     id="layer1"
     transform="translate(3364.4172,-1853.5163)">
    <g
       transform="matrix(0.03606018,0,0,0.03606018,-3237.7135,1855.2242)"
       id="22"
       inkscape:label="#g10690">
      <path
         id="path3811"
         d="m -3402.7473,35.83174 c -15.3632,0 -27.7314,12.3682 -27.7314,27.7314 l 0,388.23987 c 0,15.36321 12.3682,27.73142 27.7314,27.73142 l 388.2399,0 c 15.3632,0 27.7314,-12.36821 27.7314,-27.73142 l 0,-388.23987 c 0,-15.3632 -12.3682,-27.7314 -27.7314,-27.7314 z m 110.9257,83.19423 c 30.6313,0 55.4628,24.83156 55.4628,55.46284 0,30.63128 -24.8315,55.46284 -55.4628,55.46284 -30.6313,0 -55.4628,-24.83156 -55.4628,-55.46284 0,-30.63128 24.8315,-55.46284 55.4628,-55.46284 z m 166.3885,0 c 30.6313,0 55.4629,24.83156 55.4629,55.46284 0,30.63128 -24.8316,55.46284 -55.4629,55.46284 -30.6313,0 -55.4628,-24.83156 -55.4628,-55.46284 0,-30.63128 24.8315,-55.46284 55.4628,-55.46284 z m -166.3885,166.38852 c 30.6313,0 55.4628,24.83156 55.4628,55.46284 0,30.63127 -24.8315,55.46284 -55.4628,55.46284 -30.6313,0 -55.4628,-24.83157 -55.4628,-55.46284 0,-30.63128 24.8315,-55.46284 55.4628,-55.46284 z m 166.3885,0 c 30.6313,0 55.4629,24.83156 55.4629,55.46284 0,30.63127 -24.8316,55.46284 -55.4629,55.46284 -30.6313,0 -55.4628,-24.83157 -55.4628,-55.46284 0,-30.63128 24.8315,-55.46284 55.4628,-55.46284 z"
         style="color:#000000;fill:#434a54;fill-opacity:0.6745098;fill-rule:nonzero;stroke:none;stroke-width:0.00183907;marker:none;visibility:visible;display:inline;overflow:visible;enable-background:accumulate"
         inkscape:connector-curvature="0"
         sodipodi:nodetypes="sssssssssssssssssssssssssssss" />
      <path
         inkscape:connector-curvature="0"
         style="color:#000000;fill:#404957;fill-opacity:0.23083699999999999;fill-rule:nonzero;stroke:none;stroke-width:55.46284017;marker:none;visibility:visible;display:inline;overflow:visible;enable-background:accumulate"
         d="m -3291.8216,174.48881 0,55.46284 c 30.6313,0 55.4628,-24.83156 55.4628,-55.46284 l -55.4628,0 z m 110.9257,0 c 0,30.63128 24.8315,55.46284 55.4628,55.46284 l 0,-55.46284 -55.4628,0 z m -110.9257,110.92568 0,55.46284 55.4628,0 c 0,-30.63128 -24.8315,-55.46284 -55.4628,-55.46284 z m 166.3885,0 c -30.6313,0 -55.4628,24.83156 -55.4628,55.46284 l 55.4628,0 0,-55.46284 z"
         id="path3866" />
    </g>
  </g>
</svg>
