<?xml version="1.0" encoding="UTF-8" standalone="no"?>
<!-- Created with Inkscape (http://www.inkscape.org/) -->

<svg
   xmlns:dc="http://purl.org/dc/elements/1.1/"
   xmlns:cc="http://creativecommons.org/ns#"
   xmlns:rdf="http://www.w3.org/1999/02/22-rdf-syntax-ns#"
   xmlns:svg="http://www.w3.org/2000/svg"
   xmlns="http://www.w3.org/2000/svg"
   xmlns:xlink="http://www.w3.org/1999/xlink"
   xmlns:sodipodi="http://sodipodi.sourceforge.net/DTD/sodipodi-0.dtd"
   xmlns:inkscape="http://www.inkscape.org/namespaces/inkscape"
   width="15.999998"
   height="15.999998"
   id="svg13094"
   version="1.1"
   inkscape:version="0.48.3.1 r9886"
   sodipodi:docname="dvcs-autosync.svg">
  <sodipodi:namedview
     id="base"
     pagecolor="#ffffff"
     bordercolor="#666666"
     borderopacity="1.0"
     inkscape:pageopacity="0.0"
     inkscape:pageshadow="2"
     inkscape:zoom="32.000002"
     inkscape:cx="14.186247"
     inkscape:cy="9.5435847"
     inkscape:document-units="px"
     inkscape:current-layer="layer1"
     showgrid="true"
     inkscape:snap-bbox="true"
     inkscape:bbox-paths="true"
     inkscape:bbox-nodes="true"
     inkscape:snap-bbox-edge-midpoints="true"
     inkscape:snap-bbox-midpoints="true"
     inkscape:object-paths="true"
     inkscape:snap-intersection-paths="true"
     inkscape:object-nodes="true"
     inkscape:snap-smooth-nodes="true"
     inkscape:snap-midpoints="true"
     inkscape:snap-object-midpoints="true"
     inkscape:snap-center="true"
     showguides="true"
     inkscape:guide-bbox="true"
     inkscape:window-width="1920"
     inkscape:window-height="1023"
     inkscape:window-x="-10"
     inkscape:window-y="35"
     inkscape:window-maximized="1"
     inkscape:snap-global="true"
     fit-margin-top="0"
     fit-margin-left="0"
     fit-margin-right="0"
     fit-margin-bottom="0"
     showborder="true"
     inkscape:showpageshadow="false">
    <inkscape:grid
       type="xygrid"
       id="grid3183"
       empspacing="5"
       visible="true"
       enabled="true"
       snapvisiblegridlinesonly="true"
       originx="9.5192791e-05px"
       originy="10.999988px" />
  </sodipodi:namedview>
  <defs
     id="defs13096">
    <linearGradient
       id="linearGradient7209-1">
      <stop
         id="stop7211-8"
         offset="0"
         style="stop-color:#6e6e6e;stop-opacity:0.61170512;" />
      <stop
         id="stop7213-9"
         offset="1"
         style="stop-color:#000000;stop-opacity:0.65503657;" />
    </linearGradient>
    <linearGradient
       id="linearGradient9097">
      <stop
         style="stop-color:#ffffff;stop-opacity:0.61564434;"
         offset="0"
         id="stop9099" />
      <stop
         style="stop-color:#ffffff;stop-opacity:1;"
         offset="1"
         id="stop9101" />
    </linearGradient>
    <linearGradient
       id="linearGradient7251">
      <stop
         style="stop-color:#000000;stop-opacity:0.39561057;"
         offset="0"
         id="stop7253" />
      <stop
         style="stop-color:#000000;stop-opacity:0.2824986;"
         offset="1"
         id="stop7255" />
    </linearGradient>
    <linearGradient
       inkscape:collect="always"
       xlink:href="#linearGradient7209-1"
       id="linearGradient3091"
       gradientUnits="userSpaceOnUse"
       x1="-3195.6418"
       y1="493.84024"
       x2="-3195.6418"
       y2="36.123241" />
    <linearGradient
       inkscape:collect="always"
       xlink:href="#linearGradient9097"
       id="linearGradient3093"
       gradientUnits="userSpaceOnUse"
       gradientTransform="translate(19.900645,19.900678)"
       x1="-3195.6418"
       y1="493.84024"
       x2="-3195.6418"
       y2="36.123241" />
    <linearGradient
       inkscape:collect="always"
       xlink:href="#linearGradient7251"
       id="linearGradient3095"
       gradientUnits="userSpaceOnUse"
       x1="-3673.2571"
       y1="513.74091"
       x2="-3673.2571"
       y2="36.124592" />
  </defs>
  <metadata
     id="metadata13099">
    <rdf:RDF>
      <cc:Work
         rdf:about="">
        <dc:format>image/svg+xml</dc:format>
        <dc:type
           rdf:resource="http://purl.org/dc/dcmitype/StillImage" />
        <dc:title />
      </cc:Work>
    </rdf:RDF>
  </metadata>
  <g
     transform="translate(9398.6161,-4997.8786)"
     id="layer1"
     inkscape:groupmode="layer"
     inkscape:label="Camada 1">
    <path
       id="path3062"
       d="m -9390.6161,4998.8786 c 2.2352,0 4.2168,1.0595 5.5,2.6875 l 1.5,-1.6875 0,5 -4.5,0 1.5937,-1.7813 c -0.8961,-1.3238 -2.3746,-2.2187 -4.0937,-2.2187 -2.4162,0 -4.44,1.7216 -4.9063,4 l -2,0 c 0.4874,-3.39 3.3815,-6 6.9063,-6 z m 6.9062,8 c -0.4873,3.39 -3.3814,6 -6.9062,6 -2.2352,0 -4.2168,-1.0595 -5.5,-2.6875 l -1.5,1.6875 0,-5 4.5,0 -1.5938,1.7812 c 0.8962,1.3239 2.3747,2.2188 4.0938,2.2188 2.4162,0 4.4399,-1.7216 4.9062,-4 l 2,0 z"
       style="color:#000000;fill:#434a54;fill-opacity:0.6745098;fill-rule:nonzero;stroke:none;stroke-width:2;marker:none;visibility:visible;display:inline;overflow:visible;enable-background:accumulate"
       inkscape:connector-curvature="0" />
    <path
       inkscape:connector-curvature="0"
       style="color:#000000;fill:#d1d4d6;fill-opacity:0.74329164;fill-rule:nonzero;stroke:none;stroke-width:2;marker:none;visibility:visible;display:inline;overflow:visible;enable-background:accumulate"
       d="m -9390.6163,5010.8784 c -1.7167,0 -3.2224,-0.8672 -4.125,-2.1875 l 0.8125,-0.9063 c 0.6582,1.1423 1.8954,1.9063 3.3125,1.9063 0.8989,0 1.7228,-0.2965 2.375,-0.8125 l 1.625,0 c -0.9144,1.2178 -2.3633,2 -4,2 z"
       id="path3940"
       sodipodi:nodetypes="sccsccs" />
    <rect
       style="color:#000000;fill:#d1d4d6;fill-opacity:0.74329164;fill-rule:nonzero;stroke:none;stroke-width:2;marker:none;visibility:visible;display:inline;overflow:visible;enable-background:accumulate"
       id="rect3942"
       width="1"
       height="4.9994512"
       x="-9398.6162"
       y="-5010.8784"
       transform="scale(1,-1)" />
    <rect
       style="color:#000000;fill:#d1d4d6;fill-opacity:0.74329164;fill-rule:nonzero;stroke:none;stroke-width:2;marker:none;visibility:visible;display:inline;overflow:visible;enable-background:accumulate"
       id="rect3944"
       width="4.0003433"
       height="1"
       x="-9397.6162"
       y="-5006.8784"
       transform="scale(1,-1)" />
    <path
       inkscape:connector-curvature="0"
       id="path3819"
       d="m -9390.6161,5000.8786 c 1.7167,0 3.2224,0.8672 4.125,2.1875 l -0.8125,0.9062 c -0.6582,-1.1422 -1.8954,-1.9062 -3.3125,-1.9062 -0.8989,0 -1.7228,0.2965 -2.375,0.8125 l -1.625,0 c 0.9144,-1.2178 2.3633,-2 4,-2 z"
       style="color:#000000;fill:#d1d4d6;fill-opacity:0.74329164;fill-rule:nonzero;stroke:none;stroke-width:2;marker:none;visibility:visible;display:inline;overflow:visible;enable-background:accumulate"
       sodipodi:nodetypes="sccsccs" />
    <rect
       y="5000.8784"
       x="9382.6162"
       height="4.9994512"
       width="1"
       id="rect3895"
       style="color:#000000;fill:#d1d4d6;fill-opacity:0.74329164;fill-rule:nonzero;stroke:none;stroke-width:2;marker:none;visibility:visible;display:inline;overflow:visible;enable-background:accumulate"
       transform="scale(-1,1)" />
    <rect
       y="5004.8784"
       x="9383.6162"
       height="1"
       width="4.0003433"
       id="rect3897"
       style="color:#000000;fill:#d1d4d6;fill-opacity:0.74329164;fill-rule:nonzero;stroke:none;stroke-width:2;marker:none;visibility:visible;display:inline;overflow:visible;enable-background:accumulate"
       transform="scale(-1,1)" />
    <path
       style="color:#000000;fill:#d1d4d6;fill-opacity:0.74329164;fill-rule:nonzero;stroke:none;stroke-width:2;marker:none;visibility:visible;display:inline;overflow:visible;enable-background:accumulate"
       d="m -9390.6161,4997.6286 c 2.5471,0 4.8304,1.1546 6.3438,2.9687 l -0.8438,0.9688 c -0.068,-0.087 -0.1466,-0.1668 -0.2187,-0.25 -0.1119,-0.1291 -0.223,-0.2543 -0.3438,-0.375 -0.1642,-0.1642 -0.3514,-0.3214 -0.5312,-0.4688 -0.2036,-0.1667 -0.4033,-0.3254 -0.625,-0.4687 -0.142,-0.092 -0.2888,-0.1993 -0.4375,-0.2813 -0.049,-0.026 -0.1069,-0.037 -0.1563,-0.062 -0.1527,-0.08 -0.3097,-0.1504 -0.4687,-0.2187 -0.2094,-0.089 -0.4059,-0.1818 -0.625,-0.25 -0.2548,-0.081 -0.5148,-0.1362 -0.7813,-0.1875 -0.1649,-0.031 -0.3313,-0.043 -0.5,-0.062 -0.2672,-0.031 -0.537,-0.062 -0.8125,-0.062 -0.2203,0 -0.4413,0.011 -0.6562,0.031 -0.02,0 -0.042,-0 -0.062,0 -0.2367,0.024 -0.4586,0.078 -0.6875,0.125 -0.2207,0.045 -0.444,0.09 -0.6563,0.1563 -0.01,0 -0.022,-0 -0.031,0 -0.1371,0.043 -0.2731,0.1051 -0.4063,0.1562 -0.044,0.017 -0.081,0.045 -0.125,0.062 -0.031,0.012 -0.063,0.018 -0.094,0.031 -0.1154,0.049 -0.2317,0.1016 -0.3438,0.1562 -0.1848,0.091 -0.3561,0.175 -0.5312,0.2813 -0.1068,0.064 -0.2096,0.118 -0.3125,0.1875 -0.072,0.049 -0.149,0.105 -0.2188,0.1562 -0.1083,0.079 -0.2091,0.1647 -0.3125,0.25 -0.052,0.043 -0.1052,0.08 -0.1562,0.125 -0.1197,0.1045 -0.2315,0.2315 -0.3438,0.3438 -0.031,0.031 -0.064,0.062 -0.094,0.094 -0.1254,0.1301 -0.26,0.2669 -0.375,0.4063 -0.2724,0.3332 -0.5106,0.6821 -0.7188,1.0625 -0.01,0.013 -0.024,0.018 -0.031,0.031 -0.091,0.1689 -0.1414,0.3544 -0.2188,0.5313 -0.088,0.1984 -0.1808,0.3862 -0.25,0.5937 -0.064,0.1923 -0.1087,0.3946 -0.1562,0.5938 -0.049,0.205 -0.095,0.4135 -0.125,0.625 l -0.094,0 -1.1875,0 c 0.4954,-4.0827 3.9711,-7.25 8.1875,-7.25 z m 8.1875,9.25 c -0.4954,4.0827 -3.9711,7.25 -8.1875,7.25 -2.5471,0 -4.8304,-1.1546 -6.3437,-2.9688 l 0.8437,-0.9687 c 0.032,0.041 0.06,0.085 0.094,0.125 0.037,0.045 0.087,0.081 0.125,0.125 0.1118,0.1291 0.2229,0.2543 0.3437,0.375 0.071,0.071 0.1443,0.1504 0.2188,0.2187 0.098,0.09 0.2091,0.1655 0.3125,0.25 0.2035,0.1668 0.4032,0.3255 0.625,0.4688 0.1873,0.1216 0.3947,0.2401 0.5937,0.3437 0.033,0.017 0.061,0.046 0.094,0.062 0.2338,0.1171 0.4709,0.2219 0.7187,0.3125 0.063,0.023 0.1237,0.042 0.1875,0.062 0.2551,0.085 0.514,0.1322 0.7813,0.1875 0.032,0.01 0.062,0.025 0.094,0.031 0.162,0.031 0.3342,0.043 0.5,0.062 0.2672,0.031 0.537,0.062 0.8125,0.062 0.2418,0 0.4834,-0.01 0.7188,-0.031 0.097,-0.01 0.1855,-0.049 0.2812,-0.062 0.095,-0.014 0.1879,-0.014 0.2813,-0.031 0.042,-0.01 0.083,-0.023 0.125,-0.031 0.2206,-0.045 0.4439,-0.09 0.6562,-0.1562 0.01,-0 0.022,0 0.031,0 0.077,-0.024 0.1424,-0.067 0.2187,-0.094 0.1058,-0.037 0.2092,-0.083 0.3125,-0.125 0.1471,-0.06 0.2956,-0.1182 0.4375,-0.1875 0.094,-0.046 0.1893,-0.075 0.2813,-0.125 0.089,-0.048 0.1636,-0.1043 0.25,-0.1562 0.1008,-0.061 0.2151,-0.1214 0.3125,-0.1875 0.043,-0.029 0.082,-0.063 0.125,-0.094 0.1406,-0.1 0.2735,-0.2026 0.4062,-0.3125 0.05,-0.042 0.1071,-0.082 0.1563,-0.125 0.1203,-0.1057 0.2309,-0.23 0.3437,-0.3437 0.031,-0.031 0.064,-0.063 0.094,-0.094 0.025,-0.026 0.038,-0.067 0.062,-0.094 0.1142,-0.1223 0.2384,-0.2448 0.3437,-0.375 0.2639,-0.3291 0.5168,-0.6571 0.7188,-1.0313 0.09,-0.1662 0.1418,-0.3572 0.2187,-0.5312 0.088,-0.1984 0.1808,-0.3862 0.25,-0.5938 0.064,-0.1922 0.1087,-0.3945 0.1563,-0.5937 0.017,-0.073 0.047,-0.1448 0.062,-0.2188 0.027,-0.1339 0.043,-0.2696 0.062,-0.4062 l 1.2812,0 z"
       id="path3006"
       inkscape:connector-curvature="0" />
  </g>
</svg>
