<?xml version="1.0" encoding="UTF-8" standalone="no"?>
<!-- Created with Inkscape (http://www.inkscape.org/) -->

<svg
   xmlns:dc="http://purl.org/dc/elements/1.1/"
   xmlns:cc="http://creativecommons.org/ns#"
   xmlns:rdf="http://www.w3.org/1999/02/22-rdf-syntax-ns#"
   xmlns:svg="http://www.w3.org/2000/svg"
   xmlns="http://www.w3.org/2000/svg"
   xmlns:sodipodi="http://sodipodi.sourceforge.net/DTD/sodipodi-0.dtd"
   xmlns:inkscape="http://www.inkscape.org/namespaces/inkscape"
   width="16.000042"
   height="16.000013"
   id="svg27665"
   version="1.1"
   inkscape:version="0.48.3.1 r9886"
   sodipodi:docname="google-talk_protocol.svg">
  <defs
     id="defs27667" />
  <sodipodi:namedview
     id="base"
     pagecolor="#ffffff"
     bordercolor="#666666"
     borderopacity="1.0"
     inkscape:pageopacity="0.0"
     inkscape:pageshadow="2"
     inkscape:zoom="32"
     inkscape:cx="5.631743"
     inkscape:cy="8.6621606"
     inkscape:document-units="px"
     inkscape:current-layer="layer1"
     showgrid="true"
     inkscape:window-width="1920"
     inkscape:window-height="1033"
     inkscape:window-x="-10"
     inkscape:window-y="25"
     inkscape:window-maximized="1"
     inkscape:snap-bbox="true"
     inkscape:bbox-paths="true"
     inkscape:bbox-nodes="true"
     inkscape:snap-bbox-edge-midpoints="true"
     inkscape:snap-bbox-midpoints="true"
     inkscape:object-paths="true"
     inkscape:snap-intersection-paths="true"
     inkscape:object-nodes="true"
     inkscape:snap-smooth-nodes="true"
     inkscape:snap-midpoints="true"
     inkscape:snap-object-midpoints="true"
     inkscape:snap-center="true"
     inkscape:snap-global="true"
     showguides="false"
     inkscape:guide-bbox="true"
     fit-margin-top="0"
     fit-margin-left="0"
     fit-margin-right="0"
     fit-margin-bottom="0"
     inkscape:showpageshadow="false">
    <sodipodi:guide
       orientation="0,1"
       position="-1440.7659,2520.4813"
       id="guide4179" />
    <sodipodi:guide
       orientation="1,0"
       position="-1438.623,2517.6242"
       id="guide4181" />
    <inkscape:grid
       type="xygrid"
       id="grid3296"
       empspacing="5"
       visible="true"
       enabled="true"
       snapvisiblegridlinesonly="true"
       originx="-91.999777px"
       originy="1268px" />
    <sodipodi:guide
       orientation="1,0"
       position="420.00022,1778"
       id="guide3432" />
    <sodipodi:guide
       orientation="0,1"
       position="364.0002,-118"
       id="guide3434" />
    <sodipodi:guide
       orientation="1,0"
       position="-91.999777,1778"
       id="guide4416" />
    <sodipodi:guide
       orientation="1,0"
       position="599.00024,-118"
       id="guide4418" />
    <sodipodi:guide
       orientation="0,1"
       position="364.00021,117"
       id="guide4420" />
    <sodipodi:guide
       orientation="0,1"
       position="-91.999777,1778"
       id="guide3391" />
    <sodipodi:guide
       orientation="0,1"
       position="198.00022,1763"
       id="guide3393" />
    <sodipodi:guide
       orientation="0,1"
       position="233.00022,1281"
       id="guide3395" />
    <sodipodi:guide
       orientation="1,0"
       position="405.00022,1521"
       id="guide3397" />
    <sodipodi:guide
       orientation="1,0"
       position="-76.999775,1521"
       id="guide3399" />
    <sodipodi:guide
       orientation="1,0"
       position="-66.999775,1521"
       id="guide3401" />
    <sodipodi:guide
       orientation="1,0"
       position="395.00022,1537"
       id="guide3403" />
    <sodipodi:guide
       orientation="0,1"
       position="193.00022,1753"
       id="guide3405" />
    <sodipodi:guide
       orientation="0,1"
       position="163.00022,1291"
       id="guide3407" />
  </sodipodi:namedview>
  <metadata
     id="metadata27670">
    <rdf:RDF>
      <cc:Work
         rdf:about="">
        <dc:format>image/svg+xml</dc:format>
        <dc:type
           rdf:resource="http://purl.org/dc/dcmitype/StillImage" />
        <dc:title />
      </cc:Work>
    </rdf:RDF>
  </metadata>
  <g
     inkscape:label="Camada 1"
     inkscape:groupmode="layer"
     id="layer1"
     transform="translate(3446.7083,-3647.6863)">
    <path
       sodipodi:nodetypes="sscccsscccccccccccccccccccc"
       inkscape:connector-curvature="0"
       style="color:#000000;fill:#434a55;fill-opacity:0.6745098;fill-rule:nonzero;stroke:none;stroke-width:1;marker:none;visibility:visible;display:inline;overflow:visible;enable-background:accumulate"
       d="m -3438.7083,3648.6238 c -3.3482,0 -6.0624,2.7143 -6.0624,6.0625 0,3.3482 2.7144,6 6.0626,6 l 0,2 3.4641,-2.8036 c 1.7987,-1.4468 2.5982,-3.1152 2.5982,-5.1964 0,-3.3482 -2.7143,-6.0625 -6.0625,-6.0625 z m -3,4.0625 2,0 0,3.5 -1,0.5 -1,0 0,-1 1,0 0,-1 -1,0 z m 4,0 2,0 0,3.5 -1,0.5 -1,0 0,-1 1,0 0,-1 -1,0 z"
       id="path3003" />
    <path
       style="font-size:medium;font-style:normal;font-variant:normal;font-weight:normal;font-stretch:normal;text-indent:0;text-align:start;text-decoration:none;line-height:normal;letter-spacing:normal;word-spacing:normal;text-transform:none;direction:ltr;block-progression:tb;writing-mode:lr-tb;text-anchor:start;baseline-shift:baseline;color:#000000;fill:#d1d4d6;fill-opacity:0.74329164000000003;fill-rule:nonzero;stroke:none;stroke-width:2;marker:none;visibility:visible;display:inline;overflow:visible;enable-background:accumulate;font-family:Sans;-inkscape-font-specification:Sans"
       d="M 8 -0.25 C 4.0033 -0.25 0.75 3.0033 0.75 7 C 0.75 10.574 3.4102 13.3557 6.8125 13.9375 L 6.8125 15 A 1.20012 1.20012 0 0 0 8.75 15.9375 L 12.21875 13.125 C 14.23325 11.5047 15.28125 9.3885 15.28125 7 C 15.28125 3.0033 11.9968 -0.25 8 -0.25 z M 8 0.9375 C 11.3482 0.9375 14.0625 3.6518 14.0625 7 C 14.0625 9.0812 13.26745 10.7407 11.46875 12.1875 L 8 15 L 8 13 C 4.6518 13 1.9375 10.3482 1.9375 7 C 1.9375 3.6518 4.6518 0.9375 8 0.9375 z M 5 5 L 5 7 L 6 7 L 6 8 L 5 8 L 5 9 L 6 9 L 7 8.5 L 7 5 L 5 5 z M 9 5 L 9 7 L 10 7 L 10 8 L 9 8 L 9 9 L 10 9 L 11 8.5 L 11 5 L 9 5 z "
       transform="translate(-3446.7083,3647.6863)"
       id="path3001" />
  </g>
</svg>
