<?xml version="1.0" encoding="UTF-8" standalone="no"?>
<!-- Created with Inkscape (http://www.inkscape.org/) -->

<svg
   xmlns:dc="http://purl.org/dc/elements/1.1/"
   xmlns:cc="http://creativecommons.org/ns#"
   xmlns:rdf="http://www.w3.org/1999/02/22-rdf-syntax-ns#"
   xmlns:svg="http://www.w3.org/2000/svg"
   xmlns="http://www.w3.org/2000/svg"
   xmlns:sodipodi="http://sodipodi.sourceforge.net/DTD/sodipodi-0.dtd"
   xmlns:inkscape="http://www.inkscape.org/namespaces/inkscape"
   width="16"
   height="16"
   id="svg27665"
   version="1.1"
   inkscape:version="0.48.3.1 r9886"
   sodipodi:docname="chrome-mijlebbfndhelmdpmllgcfadlkankhok-Default.svg">
  <defs
     id="defs27667" />
  <sodipodi:namedview
     id="base"
     pagecolor="#ffffff"
     bordercolor="#666666"
     borderopacity="1.0"
     inkscape:pageopacity="0.0"
     inkscape:pageshadow="2"
     inkscape:zoom="32"
     inkscape:cx="3.954292"
     inkscape:cy="8.704208"
     inkscape:document-units="px"
     inkscape:current-layer="layer1"
     showgrid="true"
     inkscape:window-width="1920"
     inkscape:window-height="1033"
     inkscape:window-x="-10"
     inkscape:window-y="25"
     inkscape:window-maximized="1"
     inkscape:snap-bbox="true"
     inkscape:bbox-paths="true"
     inkscape:bbox-nodes="true"
     inkscape:snap-bbox-edge-midpoints="true"
     inkscape:snap-bbox-midpoints="true"
     inkscape:object-paths="true"
     inkscape:snap-intersection-paths="true"
     inkscape:object-nodes="true"
     inkscape:snap-smooth-nodes="true"
     inkscape:snap-midpoints="true"
     inkscape:snap-object-midpoints="true"
     inkscape:snap-center="true"
     inkscape:snap-global="true"
     showguides="false"
     inkscape:guide-bbox="true"
     fit-margin-top="0"
     fit-margin-left="0"
     fit-margin-right="0"
     fit-margin-bottom="0"
     inkscape:showpageshadow="false">
    <sodipodi:guide
       orientation="0,1"
       position="595.99999,295.99993"
       id="guide3572" />
    <sodipodi:guide
       orientation="1,0"
       position="290.41949,8.121716"
       id="guide3574" />
    <sodipodi:guide
       orientation="0,1"
       position="452.04389,595.99992"
       id="guide3576" />
    <sodipodi:guide
       orientation="0,1"
       position="-4.0000029,-4.0000844"
       id="guide3578" />
    <sodipodi:guide
       orientation="1,0"
       position="-4.0000029,153.58366"
       id="guide3580" />
    <sodipodi:guide
       orientation="1,0"
       position="595.99999,117.21821"
       id="guide3582" />
    <sodipodi:guide
       orientation="0,1"
       position="595.99999,-718.34359"
       id="guide5928" />
    <sodipodi:guide
       orientation="0,1"
       position="595.99999,-418.34359"
       id="guide5930" />
    <sodipodi:guide
       orientation="0,1"
       position="595.99999,-1018.3435"
       id="guide5932" />
    <sodipodi:guide
       orientation="0,1"
       position="447.57029,520.99606"
       id="guide5294" />
    <sodipodi:guide
       orientation="0,1"
       position="447.57029,71.013516"
       id="guide5296" />
    <sodipodi:guide
       orientation="0,1"
       position="492.01499,-935.36409"
       id="guide5413" />
    <sodipodi:guide
       orientation="0,1"
       position="453.34859,-493.34389"
       id="guide5415" />
    <inkscape:grid
       type="xygrid"
       id="grid3070"
       empspacing="5"
       visible="true"
       enabled="true"
       snapvisiblegridlinesonly="true"
       originx="-3.9999568px"
       originy="-4.0000269px" />
  </sodipodi:namedview>
  <metadata
     id="metadata27670">
    <rdf:RDF>
      <cc:Work
         rdf:about="">
        <dc:format>image/svg+xml</dc:format>
        <dc:type
           rdf:resource="http://purl.org/dc/dcmitype/StillImage" />
        <dc:title />
      </cc:Work>
    </rdf:RDF>
  </metadata>
  <g
     inkscape:label="Camada 1"
     inkscape:groupmode="layer"
     id="layer1"
     transform="translate(3360.4171,-2096.7186)">
    <path
       sodipodi:nodetypes="cccccssssscccccccccccscccccc"
       inkscape:connector-curvature="0"
       style="font-size:medium;font-style:normal;font-variant:normal;font-weight:normal;font-stretch:normal;text-indent:0;text-align:start;text-decoration:none;line-height:normal;letter-spacing:normal;word-spacing:normal;text-transform:none;direction:ltr;block-progression:tb;writing-mode:lr-tb;text-anchor:start;baseline-shift:baseline;color:#000000;fill:#434a54;fill-opacity:0.6745098;stroke:none;stroke-width:57.8928833;marker:none;visibility:visible;display:inline;overflow:visible;enable-background:accumulate;font-family:Sans;-inkscape-font-specification:Sans"
       d="m -3359.4171,2097.7186 0,1 4.5625,0 c 0.075,-0.3646 0.223,-0.7121 0.4375,-1 z m 7,0 c -0.8284,0 -1.5,0.6716 -1.5,1.5 0,0.8284 0.6716,1.5 1.5,1.5 0.8284,0 1.5,-0.6716 1.5,-1.5 0,-0.8284 -0.6716,-1.5 -1.5,-1.5 z m 2,0 c 0.2145,0.2879 0.3629,0.6354 0.4375,1 l 4.5625,0 0,-1 z m -9,2 0,12 8.5,0 5.5,-5.5 0,-6.5 -4.5625,0 c -0.2331,1.1393 -1.2293,2 -2.4375,2 -1.2082,0 -2.2044,-0.8607 -2.4375,-2 z m 14,8.5 -3.5,3.5 3.5,0 z"
       id="path2997" />
    <path
       style="font-size:medium;font-style:normal;font-variant:normal;font-weight:normal;font-stretch:normal;text-indent:0;text-align:start;text-decoration:none;line-height:normal;letter-spacing:normal;word-spacing:normal;text-transform:none;direction:ltr;block-progression:tb;writing-mode:lr-tb;text-anchor:start;baseline-shift:baseline;color:#000000;fill:#d1d4d6;fill-opacity:0.74329164000000003;fill-rule:nonzero;stroke:none;stroke-width:2;marker:none;visibility:visible;display:inline;overflow:visible;enable-background:accumulate;font-family:Sans;-inkscape-font-specification:Sans"
       d="M 0 0 L 0 1 L 0 2 L 0 3 L 0 15 L 0 16 L 1 16 L 9.0625 16 L 9.5 16 L 9.90625 16 L 11.5 16 L 15 16 L 16 16 L 16 15 L 16 11.5 L 16 9.90625 L 16 9.5 L 16 9.09375 L 16 3 L 16 2 L 16 1 L 16 0 L 15 0 L 10 0 L 8 0 C 7.99 0 7.97875 -0.0002 7.96875 0 L 6 0 L 1 0 L 0 0 z M 1 1 L 6 1 C 5.7855 1.2879 5.6375 1.6354 5.5625 2 L 1 2 L 1 1 z M 8 1 C 8.8284 1 9.5 1.6716 9.5 2.5 C 9.5 3.3284 8.8284 4 8 4 C 7.1716 4 6.5 3.3284 6.5 2.5 C 6.5 1.6716 7.1716 1 8 1 z M 10 1 L 15 1 L 15 2 L 10.4375 2 C 10.3629 1.6354 10.2145 1.2879 10 1 z M 1 3 L 5.5625 3 C 5.7956 4.1393 6.7918 5 8 5 C 9.2082 5 10.2044 4.1393 10.4375 3 L 15 3 L 15 9.5 L 9.5 15 L 1 15 L 1 3 z M 15 11.5 L 15 15 L 11.5 15 L 15 11.5 z "
       transform="translate(-3360.4171,2096.7186)"
       id="path3792" />
  </g>
</svg>
