<?xml version="1.0" encoding="UTF-8" standalone="no"?>
<!-- Created with Inkscape (http://www.inkscape.org/) -->

<svg
   xmlns:dc="http://purl.org/dc/elements/1.1/"
   xmlns:cc="http://creativecommons.org/ns#"
   xmlns:rdf="http://www.w3.org/1999/02/22-rdf-syntax-ns#"
   xmlns:svg="http://www.w3.org/2000/svg"
   xmlns="http://www.w3.org/2000/svg"
   xmlns:sodipodi="http://sodipodi.sourceforge.net/DTD/sodipodi-0.dtd"
   xmlns:inkscape="http://www.inkscape.org/namespaces/inkscape"
   version="1.0"
   width="24"
   height="24"
   id="svg2"
   inkscape:version="0.48.3.1 r9886"
   sodipodi:docname="create-link.svg">
  <sodipodi:namedview
     pagecolor="#ffffff"
     bordercolor="#666666"
     borderopacity="1"
     objecttolerance="10"
     gridtolerance="10"
     guidetolerance="10"
     inkscape:pageopacity="0"
     inkscape:pageshadow="2"
     inkscape:window-width="1920"
     inkscape:window-height="1023"
     id="namedview32"
     showgrid="true"
     inkscape:zoom="32.000001"
     inkscape:cx="9.9125211"
     inkscape:cy="11.621433"
     inkscape:window-x="-10"
     inkscape:window-y="35"
     inkscape:window-maximized="1"
     inkscape:current-layer="svg2"
     inkscape:snap-bbox="true"
     inkscape:bbox-paths="true"
     inkscape:bbox-nodes="true"
     inkscape:snap-bbox-edge-midpoints="true"
     inkscape:snap-bbox-midpoints="true"
     inkscape:object-paths="true"
     inkscape:snap-intersection-paths="true"
     inkscape:object-nodes="true"
     inkscape:snap-smooth-nodes="true"
     inkscape:snap-midpoints="true"
     inkscape:snap-object-midpoints="true"
     inkscape:snap-center="true"
     fit-margin-top="0"
     fit-margin-left="0"
     fit-margin-right="0"
     fit-margin-bottom="0">
    <inkscape:grid
       type="xygrid"
       id="grid3218"
       empspacing="5"
       visible="true"
       enabled="true"
       snapvisiblegridlinesonly="true"
       originx="-11px"
       originy="18px" />
  </sodipodi:namedview>
  <metadata
     id="metadata11">
    <rdf:RDF>
      <cc:Work
         rdf:about="">
        <dc:format>image/svg+xml</dc:format>
        <dc:type
           rdf:resource="http://purl.org/dc/dcmitype/StillImage" />
        <dc:title />
      </cc:Work>
    </rdf:RDF>
  </metadata>
  <defs
     id="defs4" />
  <path
     id="path2996"
     d="m 12,4 c -4.4182787,1e-7 -7.9999995,3.5817217 -8,8 -2e-7,4.418277 3.5817213,8.000002 8,8 4.418277,1e-6 8,-3.581722 8,-8 0,-4.4182771 -3.581722,-8 -8,-8 z m 4.40625,2.53125 1.0625,1.0625 c -1.181455,1.1735785 -3.054241,3.059614 -4.21875,4.25 L 12.15625,10.75 c 1.19983,-1.1546012 3.072676,-3.041425 4.25,-4.21875 z m -4.21875,0.75 c 0.255619,0 0.491632,0.085381 0.6875,0.28125 L 13.25,7.9375 7.9375,13.25 7.5625,12.875 c -0.3917371,-0.391737 -0.3917371,-1.014513 0,-1.40625 L 11.46875,7.5625 C 11.664619,7.3666311 11.931881,7.2812503 12.1875,7.28125 z m 3.875,3.46875 0.375,0.375 c 0.391737,0.391737 0.391737,1.014513 0,1.40625 l -3.90625,3.90625 c -0.391737,0.391737 -1.014513,0.391737 -1.40625,0 L 10.75,16.0625 16.0625,10.75 z M 10.75,12.15625 11.84375,13.25 c -1.199831,1.154602 -3.0726757,3.041425 -4.25,4.21875 l -1.0625,-1.0625 c 1.1814553,-1.173578 3.0542418,-3.059614 4.21875,-4.25 z"
     style="color:#000000;fill:#27303a;fill-opacity:0.923280819999999968;fill-rule:nonzero;stroke:none;stroke-width:2;marker:none;visibility:visible;display:inline;overflow:visible;enable-background:accumulate"
     inkscape:connector-curvature="0" />
  <path
     style="font-size:medium;font-style:normal;font-variant:normal;font-weight:normal;font-stretch:normal;text-indent:0;text-align:start;text-decoration:none;line-height:normal;letter-spacing:normal;word-spacing:normal;text-transform:none;direction:ltr;block-progression:tb;writing-mode:lr-tb;text-anchor:start;baseline-shift:baseline;color:#000000;fill:#f1f3f5;fill-opacity:0.90288714000000003;fill-rule:nonzero;stroke:none;stroke-width:2;marker:none;visibility:visible;display:inline;overflow:visible;enable-background:accumulate;font-family:Sans;-inkscape-font-specification:Sans"
     d="M 12 2.8125 C 6.9331933 2.8125001 2.8125006 6.9331939 2.8125 12 C 2.8124998 17.066805 6.9331924 21.187502 12 21.1875 C 17.066806 21.187501 21.1875 17.066806 21.1875 12 C 21.1875 6.9331946 17.066806 2.8125 12 2.8125 z M 12 4 C 16.418278 4 20 7.5817229 20 12 C 20 16.418278 16.418277 20.000001 12 20 C 7.5817213 20.000002 3.9999998 16.418277 4 12 C 4.0000005 7.5817217 7.5817213 4.0000001 12 4 z M 16.40625 6.53125 C 15.228926 7.708575 13.35608 9.5953988 12.15625 10.75 L 13.25 11.84375 C 14.414509 10.653364 16.287295 8.7673285 17.46875 7.59375 L 16.40625 6.53125 z M 12.1875 7.28125 C 11.931881 7.2812503 11.664619 7.3666311 11.46875 7.5625 L 7.5625 11.46875 C 7.1707629 11.860487 7.1707629 12.483263 7.5625 12.875 L 7.9375 13.25 L 13.25 7.9375 L 12.875 7.5625 C 12.679132 7.366631 12.443119 7.28125 12.1875 7.28125 z M 16.0625 10.75 L 10.75 16.0625 L 11.125 16.4375 C 11.516737 16.829237 12.139513 16.829237 12.53125 16.4375 L 16.4375 12.53125 C 16.829237 12.139513 16.829237 11.516737 16.4375 11.125 L 16.0625 10.75 z M 10.75 12.15625 C 9.5854918 13.346636 7.7127053 15.232672 6.53125 16.40625 L 7.59375 17.46875 C 8.7710743 16.291425 10.643919 14.404602 11.84375 13.25 L 10.75 12.15625 z "
     id="path2992" />
</svg>
