<?xml version="1.0" encoding="UTF-8" standalone="no"?>
<!-- Created with Inkscape (http://www.inkscape.org/) -->

<svg
   xmlns:dc="http://purl.org/dc/elements/1.1/"
   xmlns:cc="http://creativecommons.org/ns#"
   xmlns:rdf="http://www.w3.org/1999/02/22-rdf-syntax-ns#"
   xmlns:svg="http://www.w3.org/2000/svg"
   xmlns="http://www.w3.org/2000/svg"
   xmlns:sodipodi="http://sodipodi.sourceforge.net/DTD/sodipodi-0.dtd"
   xmlns:inkscape="http://www.inkscape.org/namespaces/inkscape"
   version="1.1"
   width="24"
   height="24"
   id="svg13094"
   inkscape:version="0.48.3.1 r9886"
   sodipodi:docname="document-print-preview.svg"
   inkscape:export-filename="folder.png"
   inkscape:export-xdpi="90"
   inkscape:export-ydpi="90">
  <sodipodi:namedview
     pagecolor="#ffffff"
     bordercolor="#666666"
     borderopacity="1"
     objecttolerance="10"
     gridtolerance="10"
     guidetolerance="10"
     inkscape:pageopacity="0"
     inkscape:pageshadow="2"
     inkscape:window-width="1920"
     inkscape:window-height="1023"
     id="namedview6"
     showgrid="true"
     inkscape:snap-bbox="true"
     inkscape:bbox-paths="true"
     inkscape:bbox-nodes="true"
     inkscape:snap-bbox-edge-midpoints="true"
     inkscape:snap-bbox-midpoints="true"
     inkscape:object-paths="true"
     inkscape:snap-intersection-paths="true"
     inkscape:object-nodes="true"
     inkscape:snap-smooth-nodes="true"
     inkscape:snap-midpoints="true"
     inkscape:snap-object-midpoints="true"
     inkscape:snap-center="true"
     inkscape:zoom="29.5"
     inkscape:cx="8.5457447"
     inkscape:cy="12.074713"
     inkscape:window-x="-10"
     inkscape:window-y="35"
     inkscape:window-maximized="1"
     inkscape:current-layer="svg13094"
     inkscape:snap-global="true">
    <inkscape:grid
       type="xygrid"
       id="grid2983"
       empspacing="5"
       visible="true"
       enabled="true"
       snapvisiblegridlinesonly="true" />
  </sodipodi:namedview>
  <defs
     id="defs7" />
  <metadata
     id="metadata13099">
    <rdf:RDF>
      <cc:Work
         rdf:about="">
        <dc:format>image/svg+xml</dc:format>
        <dc:type
           rdf:resource="http://purl.org/dc/dcmitype/StillImage" />
        <dc:title />
      </cc:Work>
    </rdf:RDF>
  </metadata>
  <path
     style="color:#000000;fill:#27303a;fill-opacity:0.75328081999999996;fill-rule:nonzero;stroke:none;stroke-width:2;marker:none;visibility:visible;display:inline;overflow:visible;enable-background:accumulate"
     d="m 11.1875,4 c 1.227466,0.3833803 2.296871,1.08247 3.15625,2 L 18,6 18,16.6875 18.3125,17 20,17 20,6 20,4 z"
     id="rect3005"
     inkscape:connector-curvature="0"
     sodipodi:nodetypes="ccccccccc" />
  <path
     sodipodi:nodetypes="ssccccssssssss"
     style="color:#000000;fill:#27303a;fill-opacity:0.75328081999999996;fill-rule:nonzero;stroke:none;stroke-width:2;marker:none;visibility:visible;display:inline;overflow:visible;enable-background:accumulate"
     d="m 8.9997,5 c 3.3137,0 6,2.6863 6,6 0,1.2983 -0.4241,2.4869 -1.125,3.4687 l 4.8437,4.8438 -1.4375,1.4062 -4.8437,-4.8437 C 11.4591,16.5671 10.289,17 8.9997,17 c -3.3137,0 -6,-2.6863 -6,-6 0,-3.3137 2.6863,-6 6,-6 z m 0,2 c -2.2091,0 -4,1.7909 -4,4 0,2.2091 1.7909,4 4,4 2.2091,0 4,-1.7909 4,-4 0,-2.2091 -1.7909,-4 -4,-4 z"
     id="path3052"
     inkscape:connector-curvature="0" />
  <path
     style="font-size:medium;font-style:normal;font-variant:normal;font-weight:normal;font-stretch:normal;text-indent:0;text-align:start;text-decoration:none;line-height:normal;letter-spacing:normal;word-spacing:normal;text-transform:none;direction:ltr;block-progression:tb;writing-mode:lr-tb;text-anchor:start;baseline-shift:baseline;color:#000000;fill:#f1f3f5;fill-opacity:0.90288714000000003;fill-rule:nonzero;stroke:none;stroke-width:2;marker:none;visibility:visible;display:inline;overflow:visible;enable-background:accumulate;font-family:Sans;-inkscape-font-specification:Sans"
     d="M 9 3.8125 C 5.0377681 3.8125 1.8125 7.0377681 1.8125 11 C 1.8125 14.962232 5.0377681 18.1875 9 18.1875 C 10.178693 18.1875 11.222542 17.813508 12.1875 17.3125 L 16.4375 21.5625 L 17.28125 22.40625 L 18.125 21.5625 L 17.28125 20.71875 L 12.4375 15.875 C 11.4594 16.5671 10.2893 17 9 17 C 5.6863 17 3 14.3137 3 11 C 3 7.6863 5.6863 5 9 5 C 12.3137 5 15 7.6863 15 11 C 15 12.2983 14.5759 13.48695 13.875 14.46875 L 18.71875 19.3125 L 19.5625 20.15625 L 20.4375 19.3125 L 19.5625 18.46875 L 15.3125 14.21875 C 15.820783 13.239266 16.1875 12.184778 16.1875 11 C 16.1875 7.0377681 12.962232 3.8125 9 3.8125 z M 9 7 C 6.7909 7 5 8.7909 5 11 C 5 13.2091 6.7909 15 9 15 C 11.2091 15 13 13.2091 13 11 C 13 8.7909 11.2091 7 9 7 z M 9 8.15625 C 10.562172 8.15625 11.84375 9.4378281 11.84375 11 C 11.84375 12.562172 10.562172 13.84375 9 13.84375 C 7.4378281 13.84375 6.15625 12.562172 6.15625 11 C 6.15625 9.4378281 7.4378281 8.15625 9 8.15625 z "
     id="path3005" />
  <path
     style="color:#000000;fill:#f1f3f5;fill-opacity:0.90288714000000003;fill-rule:nonzero;stroke:none;stroke-width:2;marker:none;visibility:visible;display:inline;overflow:visible;enable-background:accumulate"
     d="m 12,3 2,1 6,0 0,12 1,1 0,-13 0,-1 z"
     id="rect3009"
     inkscape:connector-curvature="0"
     sodipodi:nodetypes="cccccccc" />
</svg>
