<?xml version="1.0" encoding="UTF-8" standalone="no"?>
<!-- Created with Inkscape (http://www.inkscape.org/) -->

<svg
   xmlns:dc="http://purl.org/dc/elements/1.1/"
   xmlns:cc="http://creativecommons.org/ns#"
   xmlns:rdf="http://www.w3.org/1999/02/22-rdf-syntax-ns#"
   xmlns:svg="http://www.w3.org/2000/svg"
   xmlns="http://www.w3.org/2000/svg"
   xmlns:sodipodi="http://sodipodi.sourceforge.net/DTD/sodipodi-0.dtd"
   xmlns:inkscape="http://www.inkscape.org/namespaces/inkscape"
   version="1.0"
   width="16"
   height="16"
   id="svg2"
   inkscape:version="0.48.3.1 r9886"
   sodipodi:docname="help-contents.svg">
  <sodipodi:namedview
     pagecolor="#ffffff"
     bordercolor="#666666"
     borderopacity="1"
     objecttolerance="10"
     gridtolerance="10"
     guidetolerance="10"
     inkscape:pageopacity="0"
     inkscape:pageshadow="2"
     inkscape:window-width="1920"
     inkscape:window-height="998"
     id="namedview32"
     showgrid="true"
     inkscape:zoom="22.627418"
     inkscape:cx="9.0292597"
     inkscape:cy="8.0357483"
     inkscape:window-x="-10"
     inkscape:window-y="25"
     inkscape:window-maximized="1"
     inkscape:current-layer="svg2"
     inkscape:snap-bbox="true"
     inkscape:bbox-paths="true"
     inkscape:bbox-nodes="true"
     inkscape:snap-bbox-edge-midpoints="true"
     inkscape:snap-bbox-midpoints="true"
     inkscape:object-paths="true"
     inkscape:snap-intersection-paths="true"
     inkscape:object-nodes="true"
     inkscape:snap-smooth-nodes="true"
     inkscape:snap-midpoints="true"
     inkscape:snap-object-midpoints="true"
     inkscape:snap-center="true"
     fit-margin-top="0"
     fit-margin-left="0"
     fit-margin-right="0"
     fit-margin-bottom="0"
     inkscape:snap-global="true">
    <inkscape:grid
       type="xygrid"
       id="grid3218"
       empspacing="5"
       visible="true"
       enabled="true"
       snapvisiblegridlinesonly="true"
       originx="-11px"
       originy="18px" />
  </sodipodi:namedview>
  <metadata
     id="metadata11">
    <rdf:RDF>
      <cc:Work
         rdf:about="">
        <dc:format>image/svg+xml</dc:format>
        <dc:type
           rdf:resource="http://purl.org/dc/dcmitype/StillImage" />
        <dc:title />
      </cc:Work>
    </rdf:RDF>
  </metadata>
  <defs
     id="defs4" />
  <path
     style="fill:#434a55;fill-opacity:0.6745098;stroke:none"
     d="m 24.4375,1 c -2.485282,-10e-8 -4.5,2.0147186 -4.5,4.5 l 2,0 c 0,-1.3807119 1.119288,-2.5000001 2.5,-2.5 1.380711,10e-8 2.5,1.1192881 2.5,2.5 0,0.810322 -0.411266,1.5358799 -1.0625,2 -1.870422,0.7042123 -3.02698,2.556867 -2.90625,4.5 l 1.96875,0 c -0.0054,-0.04281 0.0032,-0.08148 0,-0.125 -0.08737,-1.190911 0.682935,-2.233041 1.78125,-2.5625 l 0.0625,-0.03125 C 28.145287,8.4701115 28.9375,7.086997 28.9375,5.5 c 0,-2.4852814 -2.014719,-4.4999999 -4.5,-4.5 z m -1.5,12 0,2 2,0 0,-2 z"
     id="path2993"
     inkscape:connector-curvature="0"
     sodipodi:nodetypes="sccssccccccssccccc" />
  <path
     style="fill:#434a55;fill-opacity:0.6745098;fill-rule:nonzero;stroke:none"
     d="m -12.071068,0.39774756 c -2.761423,-1.3e-7 -5,2.23857624 -5,5.00000004 l 2,0 c 0,-1.6568543 1.343146,-3.0000001 3,-3 1.656855,10e-8 3.0000003,1.3431457 3.0000003,3 0,1.0717968 -0.571797,2.0578516 -1.5000003,2.59375 -1.65684,0.9565771 -2.468253,2.8302154 -2.5,4.4062504 l 0,1 -2,0 3,3 3.0000003,-3 -2.0000003,0 0,-1 c 0,-1.078044 0.474211,-2.06401 1.5000003,-2.6562504 1.547005,-0.8931639 2.5,-2.557422 2.5,-4.34375 0,-2.7614238 -2.238576,-4.99999994 -5.0000003,-5.00000004 z"
     id="path2987-5"
     inkscape:connector-curvature="0"
     sodipodi:nodetypes="sccsscccccccccss" />
  <path
     style="color:#000000;fill:#434a55;fill-opacity:0.6745098;fill-rule:nonzero;stroke:none;stroke-width:1;marker:none;visibility:visible;display:inline;overflow:visible;enable-background:accumulate"
     d="m 2,-11 3,0 0,-1 6,0 0,2 -4,0 -1,1 0,5 3,0 0,-3 4,0 1,-1 0,-6 -1,-1 -10,0 -1,1 z m 4,8 0,2 4,0 0,-2 z"
     id="rect2984"
     inkscape:connector-curvature="0"
     sodipodi:nodetypes="cccccccccccccccccccccc" />
  <rect
     style="color:#000000;fill:#434a55;fill-opacity:0.6745098;fill-rule:nonzero;stroke:none;stroke-width:1;marker:none;visibility:visible;display:inline;overflow:visible;enable-background:accumulate"
     id="rect3001"
     width="3"
     height="2"
     x="7"
     y="12" />
  <path
     style="fill:none;stroke:#434a55;stroke-width:2;stroke-linecap:butt;stroke-linejoin:miter;stroke-miterlimit:4;stroke-opacity:0.6745098;stroke-dasharray:none"
     d="M 8,11 8,9 13,7 13,3 5,3 4,5"
     id="path3005"
     inkscape:connector-curvature="0"
     sodipodi:nodetypes="cccccc" />
</svg>
