<svg xmlns="http://www.w3.org/2000/svg" viewBox="0 0 64 64" xmlns:xlink="http://www.w3.org/1999/xlink"><defs><path id="1" d="m99.79044 34.389904a4.507805 4.507805 0 1 1 -9.01561 0 4.507805 4.507805 0 1 1 9.01561 0" color="#000"/></defs><g color="#000"><path d="m0 4v30 28l2 2h30 30l2-2v-28-30h-32-32" fill="#8ac028"/><path d="m2 0l-2 1v3h32 32v-3l-2-1h-30-30" fill="#c1ff49"/></g><path d="m0 3v3l2-2" fill="#d0ff75"/><path d="m64 6l-2-2 2-1z" fill="#a7e139"/><g color="#000"><path d="m27.17 8c2.261-4.608 5.723-4.515 10.487-5.945-1.924 2.764-5.171 2.953-5.581 6.795" fill="#2a8200" fill-opacity=".304"/><path d="m27.17 8c2.261-4.608 3.723-6.515 8.487-7.945-1.924 2.764-3.171 4.953-3.581 8.795" fill="#8ac028"/><path d="m27.784 9.62c5.872-4.03 14.68-3.727 22.846-2.029-4.03 2.243-10.249 2.065-13.461 6.14" fill="#2a8200" fill-opacity=".304"/><path d="m27.784 9.62c5.872-4.03 12.68-5.727 20.846-4.03-4.03 2.243-8.249 4.065-11.461 8.14" fill="#8ac028"/><g fill="none" stroke="#548617"><path d="m17.969 20.667c-2.109-.261-2.67-3.036-1.723-5.154"/><path d="m15.535 21.25c-2.109-.261-2.987-3.955-2.04-6.073"/><path d="m13.596 23.11c-2.109-.261-3.387-2.619-3.199-4.636"/></g></g><path d="m100 31.5a6.5 8.5 0 1 1 -13 0 6.5 8.5 0 1 1 13 0" transform="matrix(.92233-.346.34629.91929-77.848 31.11)" fill="#e2ecd9" color="#000" id="0"/><use transform="matrix(.97448-.1308.13039.97146-76.55 10.119)" fill="#2a3c1f" xlink:href="#1"/><use transform="matrix(.43849-.05885.05867.43713-23.02 19.828)" fill="#e2ecd9" xlink:href="#1"/><use transform="matrix(.16562-.02223.02216.1651 4.24 30.378)" fill="#abff5e" fill-opacity=".707" xlink:href="#1"/><g fill="none" stroke="#548617" color="#000"><path d="m46.03 20.667c2.109-.261 2.67-3.036 1.723-5.154"/><path d="m48.46 21.25c2.109-.261 2.987-3.955 2.04-6.073"/><path d="m50.4 23.11c2.109-.261 3.387-2.619 3.199-4.636"/></g><use transform="matrix(-1 0 0 1 64 0)" xlink:href="#0"/><use transform="matrix(-.97448-.1308-.13039.97146 140.55 10.119)" fill="#2a3c1f" xlink:href="#1"/><use transform="matrix(-.43849-.05885-.05867.43713 87.02 19.828)" fill="#e2ecd9" xlink:href="#1"/><use transform="matrix(-.16562-.02223-.02216.1651 59.76 30.378)" fill="#abff5e" fill-opacity=".707" xlink:href="#1"/><g color="#000"><path d="m31.582 39.522c-6.264 2.157-9.312 1.523-8.921 2.902 1.313 4.63 21.886 18.868 24.9 17.268 2.02-1.07-2.096-14.922-4.658-18.302-2.02-2.662-5.058-4.02-11.322-1.867" fill="#2a8200" fill-opacity=".304"/><path d="m32.625 36.25c-6.747 0-10.188 3.453-10.188 5.625 0 2.759 7.864 12.06 10.188 12.06 2.323 0 10.188-9.303 10.188-12.06 0-2.172-3.441-5.625-10.188-5.625" fill="#d39518"/><path d="m32.625 36.25c-6.747 0-10.188 3.453-10.188 5.625 0 1.83 3.455 6.526 6.463 9.49.571.54 1.134 1.043 1.658 1.467.254.205.497.382.734.549.53.344.995.557 1.332.557v-17.688" fill="#ffc11d"/></g></svg>