<svg xmlns="http://www.w3.org/2000/svg" viewBox="0 0 64 64"><g color="#000"><path d="m0 4v30 28l2 2h30 30l2-2v-28-30h-32-32" fill="#1b88df"/><path d="m2 0l-2 1v3h32 32v-3l-2-1h-30-30" fill="#71caff"/></g><path d="m14.344 0c-1.643.067-4.287.993-1.25 1.5.626-.127 1.703-.218 2.313-.188-.117.159-.169.321-.125.406-.184.057-.361.115-.656.188-2 .056-.926.673-.063 1.25-1.467.568-3.76-3.483-4.25-.656 1.713.355-.37 1.196 1.813.969 1.897-.349 1.424 1.086.656.344-.935 1.886 4.546.774 2.563.219 2.21-.276.553-1.752 2.844-1.813.768-.076 2.475-1.127 1.656-1.094-.009-.015-.048-.046-.094-.063 1.235-.483 1.637-.888 1.281-1.063h-1.563-5.125m13.406 0c-1.455.309-3.322.428-4.875.844.554.344-.438.311-.438.125-.873.281-1.616.684-2.063 1.313 1.977.686-4.45 1.757-.531 1.75-2.457 2.035 2.807-.261 3.625 2 1.544 1.395 1.343 2.429 1.938 3.656-1.566 1.838 2.246 6.758 3.438 3.063 1.361-2.492 3.977-3.23 6.719-3.656-.867.079-1.684-1.197-.094-1.094-.523-.358-2.541-2.01 0-1.844 2.275 1.166.211-1.941 1.031-1.75.991-.302-.849-1.331.625-2.156-1.303-.293 4.03-1.546.875-1.344-1.792-.193-5.935.485-6.094.188 1.296-.606 4.631-1.038 2.969-1.094h-1.031-1.844-4.25m7.719 8c.129.088.207.121.063 0-.025-.002-.039.002-.063 0m-13.03-7.03c.142-.046.289-.085.438-.125-.041-.025-.066-.033-.125-.063-.236.07-.312.134-.313.188m15.06-.594c-1 .557 1.055.321 0 0m24.25.438c-.59.412.648.288 0 0m1.5.125c-.128-.006-.313-.007-.563.031-.28.912 1.462.008.563-.031m.688.031c-.018.159.035.164.063.125.017-.024.017-.066 0-.094l-.063-.031m-3.375.313c-1.921.57 1.418 1.628 0 0m.875 0c-.67 1.532 1.171.672 1.719.469-.517-.488-1.261.009-1.719-.469m-45.625.094c.091.039.029.109-.125.188.038-.04.082-.136.125-.188m47.938 0c-.291.634.09.772.25.625v-.375c-.051-.079-.135-.154-.25-.25m-11.969.469c-.488.568-1.862.3-1.938.656-1.458.579-1.182-.654-2.094.094-.676 1.565 2.697-.204 1.344 1.219.106 1.901.958-.277 1.906-.375-.678-.666.26-.972 1.688-1 .839-.453-.605-.559-.906-.594m-.781 1.594c.172.169.41.34.813.563-.273-.473-.539-.591-.813-.563m4.125-1.469c-.954.445 1.017.249 0 0m1.531.031c-.41.583.809.11 0 0m-48.25.125c-.169.774.95.208 0 0m29.22.281c-.344.638.743.072 0 0m-31.03.188c.893 1.657 2.844.696.406.063-.134-.014-.267-.091-.406-.063m47.19.219c-.963.425.88.495 0 0m-.813.188c-.613.426.634.334 0 0m-48.5.313c-.519.089.258.563-.531.875.253-.06 1.291-.517.844-.875-.136-.004-.238-.013-.313 0m4.688.031c.27 1.019 1.161-.163 0 0m28.28.219c-.668.325.583.369 0 0m-34.28.094c-.296.426.59.205 0 0m3.312.188c-.599.347.598.378 0 0m5.312.125c-.533.472.701.299 0 0m-9.312.125c-1.443.312-2 1.733-.219.594.109-.039.57-.564.219-.594m.969.156c-.493.449.646.325 0 0m14.844 0c-.57.364.596.414 0 0m34.31.188c-.32.65.753.023 0 0m-42.906.063c.878 1.429 5.773 2.357 5.312.844-2.065.442-3.535-.074-5.312-.844m-4.406.156c-.122 1.688-4.061-.432-1.438 1.313.898.124 3.579-.415 1.438-1.313m2.813.031c-.055.065-.088.132-.125.188-.793 1.181 2.185.25.125-.188m-1.125.031c-.353.611.736.008 0 0m-5.188.438c-.292.636.717.002 0 0m5.5 0c-.268.693.839.152 0 0m1.969 0c-.351.695.832.012 0 0m28.03.125c-.683.421.745.362 0 0m-30.531.156c-.624.374.626.3 0 0m3.219 0c-.914.587 1.432.384 0 0m54.03.031c-1.481.462-2.203 3.616-.469 2.531-.829-.56.155-1.139.469-1.813v-.719m-26.28.094c-.583.362.584.371 0 0m12.781.156c-.528.443.637.238 0 0m-49.53.375c-2.37 1.141.62 2.582 1.406.844 1.197-.649-.84-.657-1.406-.844m10.125.219c-2.234.668.736 1.557.219.031l-.188-.031h-.031m-1.875.031c-3.745.791 1.843 2.9 0 0m-2.781.188c-.601 2.263-5.109-.848-3.656 1.781 1.869-.219 1.124.49-.25.5 1.393.753 7.395.951 3.812-1.25l-.094-.469.188-.563m9.09 0c-1.164 1.147 2.377.021 0 0m-2.594.156c-2.782 3.163 4.572 1.149 5.03 3.688.415.193.558.366.5.531-.248.082-.205.107-.094.125-.578.645-3.553 1.072-.875 1.344 1.471 1.443 4.542 1.43 2.188-1.063.386-.339 3.569.253 1.188-.938-1.856-2.482-4.116-2.471-6.656-3.469-.277.504-.495.911-.656 1.031-.009-.004-.021.004-.031 0-.094.054-.152-.01-.188-.219-.019-.111-.062-.267-.063-.469.011.214.044.372.063.469.132.68.363-1.173-.406-1.031m21.813.188c.649.639 1.176.194 0 0m-.656.875c.719.14-.527.572 0 0m-23.813.156c-.179.346-.175.729-.156 1.094-1.058-.295-1.724 1.165-.125.375-.663.793-.226.627.125.281-.086.373-.399.557-1.437.313-1.9.377-3.29-1.162-3.469.813-1.262-.438-4.553-2.59-5.219-1.156v1.563c.015.067.013.117.031.188-.042 1.489-.035 2.978-.031 4.469.004 1.49.012 2.979 0 4.469v3.281c.254 2.055 1.061 4.01 2.781 5.531.299 1.619 3.037 4.565 1.125 1.688-1.367-4.299 2.087 2.06 3.03 3.219 2.167 1.803 5.402 1.485 7.094 4.156 3.926.051 1 3.719 1.094 5.969.377 3.653 4.726 5.226 3.406 9.156-.46 2.966-.931 5.9-1.281 8.813-1.066 2.329 3.712 2.607 2.688-.406-.658-2.697 4.577-2.789 2.875-5.125 3.586.862 2.284-5.12 5.781-5.25 1.18-1.971 1.262-4.618 2.281-6.531-.551-2.415-4.853-1.514-5.094-2.313.352-.946-1.471 1.219-.281-.531-.141-2.618-3.359-3.301-5.344-4.625-.983-.036-1.494.369-1.813.375-.033-.076-.095-.153-.219-.219-.004.041.001.059 0 .094-.091-.1-.173-.274-.25-.594-.938 2.259-4.444 1.299-3.719-1-1.925-.416-1.467-1.879-1.75-2.875-1.962 2.924-4.564-.201-3.094-2.469 1.918-1.514 4.784-2.175 5.969.719-1.066-2.778 1.225-5.253 2.5-7.125.707-.71 3.079-3.262 2.969-1.75-1.166 1.149 3.042-1.595.813-.344-1.474-1.07-.635-2.124-2.688-1.094.439-1.612 6.248-1.089 4.03-2.813-1.089.191 1.185-1.444-.844-1.156-.553-.989-1.474-2.997-2.75-1.438-.125-2.841-4.642-2.717-3.188.469.471 2.901-1.474 4.416-2.344 1.156-3.378.385-4.666-4.481-1.125-5.094-.898-1.527.988-.398.719.844 2.526-.391.878-.589.063-1.969 2.836.081-.014-3.499-.531-.594-.685-1.508-1.62-.788-2.625-2.563m30.719.25c-.538.455.69.221 0 0m11.719.031c-2.682.486-3.988 2.44-5.5 4.125-.025-.038-.074-.081-.219-.094-.152.249-.052.307.063.281-.36.391-.712.762-1.125 1.094-1.859 2.805 2.752.335 2.25 3.125 2.94.175 1.078-5.896 4.156-4.938-1.542 1.502-1.09 3.166 1.281 2.75 1.189.102-2.328.284-1.625 1.875-1.022.754-3.231 2.3-4.5 1.125-.239-.221-.468-.53-.625-.969.105 3.139-6.297 2.862-3.688 6.281-2.351-.415-4.238 2.294-1.531 3.375 2.649-.086 3.281-5.241 6.125-2.625.812 1.387 3.208 2.278 1.25.281-2.152-1.945-.027-2.065.969-.156.43.551.997 1.311 1.406 1.75-.013.009-.017.02-.031.031.114.23.199.251.25.188.318.261.459.103.125-1 2.189.53 2.14-4.337 4.188-2.438.732-2.702 3.702 3.684.625 1.75-3.133-1.144-4.57 3.28-.563 2.344 1.01 3.311-2.901 2.706-4.781 2.094-1.8 2.01-3.939-1.319-4.625-2.156-2.871.087-6.459.473-7.125 3.875-2.328 2.456-2.8 6.578-.063 8.938 2.109 2.621 7.742-1.542 7.563 3.313 2.087 2.669.338 6.523 1.719 9.594-.048 3.247 2.861 6.912 5.563 3.188 1.808-2.052.944-4.889 3.25-6.375-.09-1.376-.13-2.735.063-4 .062.138.632.032.156-.219-.077.053-.13.087-.156.125.265-1.625.961-3.077 2.625-4.188 1.237-1.382 2.193-3.955-.594-2.969-2.522-1.38-2.869-4.61-4.063-6.969 0-2.239 2.122 2.15 2.313 3.156.576 3.79 4.308 2.294 5.969.094.096-.195.137-.36.188-.531v-1.188c-.364-.721-1.446-.86-2.5-.406-1.026-1.443-1.024-3.371.938-1.438 1.071.874 1.438.538 1.563-.219v-2.031c-.035-.577-.054-1.131 0-1.5v-16.938c-1.81.073-3.97 1.459-4.719.406.318 1.758-4.194 3.486-3.656.656 1.762 1.171 3.211-.623.719-1.094-1.298-.437-2.502-1.218-3.625-1.375m-5.219 9.344c.208.07.669-.123.156-.438-.306.256-.281.396-.156.438m-6.906-9.09c-.592.35.567.345 0 0m9.625.156c-.528.443.637.238 0 0m10.938.438c-1.237.545.73.662 0 0m-36.406.094c-.507.34.707.185 0 0m-9.219.031c-.519.454.649.266 0 0m33.34.313c-.424.519.788.172 0 0m-33.25.281c-.429.575.709.154 0 0m32.656 0c-.344.61.783.098 0 0m-31.594.25c-1.064.484.897.398 0 0m20.781 1.031c-1.531.169-3.038 1.501-.438 1.469.684-.005 2.5-.785 1.094-1.469-.207-.031-.438-.024-.656 0m-2.063.094c-.712.019.67.722.438.031-.198-.032-.336-.034-.438-.031m-16.06 1.469c1.187.131.58.846 0 0m-2.813.031c-.562.463.692.221 0 0m-.563.156c-.613.426.634.334 0 0m-1.625.406c-1.591.381.825.599 0 0m1.094 0c-.737.567.655.859 0 0m25.719.156c-.804 1.012.475 1.165 0 0m13.375.531c2.185.659-.869 1.222 0 0m-11.344.344c-.811.625.817.479 0 0m-23.688.156c-.406.602.761.094 0 0m31.09 0c-.321.638.765.023 0 0m-8 .719c-2.036 1.165.68 3.628-.719 4.625 3.301.213 1.211-2.578.344-3.969.109-.223.419-.368.375-.656m-1.438.281c-.677.464.742.308 0 0m10.344 0c-.496.518.693.16 0 0m-10.344.563c-.677.464.742.308 0 0m8.938 0c-.82.667.832.434 0 0m-34.781.75c-.32.65.753.023 0 0m33.438.563c-.534.637.817.097 0 0m-7.875.031c-2.462 2.657 2.072 1.23 0 0m-26.19.969c-.526.636.882.542 0 0m9.156 1.469c-3.276 1.047 2.73 2.789.219.438-.837.118.09-.279-.219-.438m-11.531.188c.615.347-.609.342 0 0m9.219.188c-.106-.014-.245-.002-.438.031.009 1.103 1.178.066.438-.031m-8.875.594c1.278.523 3.496 3.089 1.094 1.563-.881 1.097-1.302 2.112-.781.094 1.128-1.768-3.372-.228-.313-1.656m3.844.438c.821.496-.84.342 0 0m7.094.125c-.558.416.642.365 0 0m38.28.313c-.41 1.242.009 2.442.594 2.969.512 2.924-2.139 1.142-1.469-1-.613-1.218-.638-1.721.875-1.969m-46.563.156c.768.063-.313.61 0 0m1.281 1.094c-1.259 1.189-2.947 1.316-.563.219l.563-.219m30.22.625c-.888.5.755.592 0 0m-.063.969c-.899.878.847.676 0 0m-1.594.188c-1.363.164-.162.731.25.125l-.25-.125m-1 .563c-.496.518.693.16 0 0m4.531.5c-.1-.014-.229.003-.406.031.107.999 1.105.063.406-.031m2.125.063c-.624.374.627.3 0 0m-3.03.438c-.576.45.684.339 0 0m5.188 0c-.6.39.62.415 0 0m-.719.125c-.506.445.655.323 0 0m3.03.438c-.954.445 1.017.249 0 0m-6.844.031c-.406.602.761.094 0 0m-.594.156c-.296.685.72.024 0 0m4.531.094c-.529.137.597.042 0 0m-31.813 1.031c-.528.443.637.238 0 0m17 .125c-.505.451.638.276 0 0m-.281 1.75c-.677.463.742.308 0 0m1.281.156c-.564.496.702.178 0 0m-.719.125c-.528.443.637.238 0 0m-22.03.281c-.524.421.634.265 0 0m21.469 0c-.683.421.745.362 0 0m-20.875.156c-.624.374.626.3 0 0m46.34.406c-.533.433.669.407 0 0m-46.938.156c-.519.454.649.266 0 0m.719 0c-.548.496.705.217 0 0m-.5.469c-.32.586.756.094 0 0m.719 0c-.323.62.806.042 0 0m-.281.406c.031.798 1.313.036 0 0m-1.938.25c-1.879.971 4.965 2.055 1.25.375-.397-.186-.806-.353-1.25-.375m3.03.188c-.737.459.746.323 0 0m.563.156c-.497.416.638.231 0 0m-.281.406c-.594.476.709.269 0 0m.094.906c-.952 1.306 3.647-.073 0 0m2.156.219c-.797.346.735.529 0 0m-4 .156c-.966.62 1.088.134 0 0m4.563.188c-.36.658.73.032 0 0m-7.219.125c-.296.685.72.024 0 0m7.781 0c-.292.636.717.002 0 0m.625.156c-.496.518.693.16 0 0m12.844.281c-.596.435.653.26 0 0m.844.125c-.513.44.628.251 0 0m-13.688.156c-.496.518.693.16 0 0m13.13.438c-.558.418.668.282 0 0m.563 0c-.49.428.649.263 0 0m-13.531.125c-.786 1.186.469.669 0 0m.531.594c-.414.528.811.172 0 0m-3.156.156c-.418.646.739.053 0 0m.563.125c-.419.59.792.194 0 0m42.469 0c-.357.647.733.103 0 0m-40.781.156c-.351.695.833.012 0 0m.5.438c-.497.518.693.16 0 0m24.22 3.156c-.659.452.748.366 0 0m-.375.594c-.323.62.806.042 0 0m-34.531.281c-.353.611.736.008 0 0m34.13.281c-.435.615.72.108 0 0m-34.625.438c-.819.667.832.434 0 0m.563 0c-.711.507.834.253 0 0m.563.125c-.535.525.71.212 0 0m33.28.438c-.607.336.577.348 0 0m17.75 1.031c-.313.643.786.027 0 0m-5.313.281c-.339.622.747.093 0 0m4.625.438c-.33.633.73.03 0 0m-4.563.844c-.528.443.637.238 0 0m.844 1.594c-.496.598.719.133 0 0m.469.281c-.596.435.653.26 0 0m1.75.125c-1.435.976-3.119 5.51-.844 5 .878-1.464 1.269-3.327.844-5m-1.313.313c-.504.403.605.237 0 0m3.094 1.156c-.33.633.73.03 0 0m1.063 1.844c-.475.419.213.353.25.188.012-.055-.053-.126-.25-.188m-.563.156c-.588.363.645.322 0 0m-56.59 2.156c-.531.492.698.215 0 0m-1.719.281c-.659.452.748.366 0 0m10.594 3.188c-.339.622.747.093 0 0m1.625 3.906c-.75.722.919.273 0 0m-.281 2.688c-.531.492.698.215 0 0m-.063.75c-.087.154-.077.22-.031.25h.188c.143-.076.243-.244-.156-.25" fill="#005090" fill-opacity=".24"/><path d="m0 3v3l2-2" fill="#a7deff"/><path d="m64 6l-2-2 2-1z" fill="#45a8ee"/><path d="m21 24c-1.662 0-3 1.338-3 3v14c0 1.662 1.338 3 3 3h7c3 0 6-2 6-5h-5l-1-1v-8l1-1h5c0-3-3-5-6-5zm2 7c1.657 0 3 1.343 3 3 0 1.657-1.343 3-3 3-1.657 0-3-1.343-3-3 0-1.657 1.343-3 3-3m7 0v1h21l1 1-1 1h-21v3h22l2-2v-2l-2-2z" fill="#e5eff7" color="#000"/></svg>