<svg xmlns="http://www.w3.org/2000/svg" viewBox="0 0 64 64"><g color="#000"><path d="m0 8v26 28l2 2h30 30l2-2v-28-26h-32z" fill="#cd2c4f"/><path d="m2 0l-2 1v7h32 32v-7l-2-1h-30z" fill="#ff5383"/></g><path d="m64 10l-2-2 2-1z" fill="#df4263"/><g color="#000"><path d="m3 2v2h58v2h3v-2-2h-61" fill="#a62839"/><path d="m2.5 0l-2.5 1v2.344 4.656 26 28l2.5 2h9.5v-56-8z" fill="#554347" fill-opacity=".378"/><path d="m3 4h58v2h-58z" fill="#ececec"/><path d="m3 2l2 2v2h-2z" fill-opacity=".18"/></g><path d="m0 7v3l2-2" fill="#d96685"/><g fill="#fff" fill-opacity=".87"><path d="m26.2 37.33l-.667 1.991c-.06.189-.124.411-.192.667-.06.249-.09.467-.09.656 0 .151.03.283.09.396.06.113.139.207.238.283.098.068.207.121.328.158.128.038.26.057.396.057h.973v1.233h-6.03v-1.233h.283c.204 0 .388-.023.554-.068.173-.045.332-.128.475-.249.151-.128.29-.302.418-.52.136-.219.271-.501.407-.848l5.02-13.617h3.178l4.841 13.64c.113.324.23.596.351.814.128.211.264.381.407.509.151.121.309.207.475.26.166.053.339.079.52.079h.418v1.233h-7.646v-1.233h.905c.113 0 .23-.015.351-.045.121-.038.226-.09.317-.158.098-.075.177-.17.238-.283.06-.113.09-.249.09-.407 0-.188-.023-.369-.068-.543-.045-.173-.09-.324-.136-.452l-.814-2.319h-5.632m3.947-5.214c-.083-.264-.17-.539-.26-.826-.083-.294-.17-.592-.26-.893-.083-.302-.166-.599-.249-.893-.075-.302-.143-.588-.204-.86-.068.234-.147.49-.238.769-.09.279-.189.566-.294.86-.098.294-.2.588-.305.882-.098.294-.192.577-.283.848l-1.369 3.913h4.682l-1.221-3.8"/><path d="m43.26 39.32c0 .664.106 1.161.317 1.493.211.332.543.498.995.498.332 0 .63-.068.893-.204.271-.143.501-.343.69-.599.196-.256.343-.566.441-.927.106-.369.158-.78.158-1.233v-1.742l-1.041.068c-.46.023-.848.098-1.165.226-.317.121-.569.29-.758.509-.189.219-.324.486-.407.803-.083.317-.124.686-.124 1.108m2.058-7.849c-.294 0-.543.064-.746.192-.196.121-.354.294-.475.52-.121.219-.207.483-.26.792-.045.302-.068.633-.068.995-1.041 0-1.825-.117-2.352-.351-.52-.234-.78-.633-.78-1.199 0-.422.124-.784.373-1.086.256-.302.599-.547 1.029-.735.437-.188.943-.324 1.516-.407.581-.09 1.199-.136 1.855-.136.814 0 1.523.072 2.126.215.611.136 1.116.358 1.516.667.407.309.713.716.916 1.221.204.498.305 1.108.305 1.832v5.904c0 .317.023.581.068.792.053.211.132.381.238.509.106.121.249.207.43.26.181.053.4.079.656.079h.09v1.233h-4.309l-.486-1.595h-.204c-.256.309-.498.581-.724.814-.226.226-.467.415-.724.566-.256.151-.547.26-.871.328-.317.075-.694.113-1.131.113-.513 0-.992-.075-1.436-.226-.437-.151-.822-.381-1.154-.69-.324-.317-.581-.709-.769-1.176-.189-.475-.283-1.033-.283-1.674 0-1.259.43-2.19 1.289-2.794.867-.603 2.168-.931 3.902-.984l1.9-.068v-1.278c0-.385-.015-.739-.045-1.063-.03-.324-.094-.603-.192-.837-.098-.234-.245-.415-.441-.543-.189-.128-.441-.192-.758-.192"/><path d="m31.27 55.51v-.116h.185c.032 0 .061-.002.088-.007.028-.005.052-.014.072-.027.021-.014.037-.035.049-.061.013-.026.019-.061.019-.104v-1.456c-.035.043-.069.083-.1.118-.032.035-.062.065-.091.091-.029.025-.057.045-.085.06-.027.014-.054.02-.081.02-.041 0-.074-.014-.1-.041-.026-.028-.039-.064-.039-.108.028-.007.056-.016.084-.026.029-.011.059-.024.091-.041.032-.017.067-.037.104-.061.038-.024.08-.053.126-.087l.195-.143h.177v1.674c0 .043.006.078.018.104.012.026.028.046.049.061.021.014.045.023.072.027.028.005.058.007.089.007h.135v.116h-1.055"/><path d="m32.886 54.17c0 .058.012.098.037.12.024.022.055.032.091.032.031 0 .058-.005.083-.016.024-.011.045-.026.061-.046.017-.02.03-.043.039-.07.009-.027.014-.057.014-.089v-.131l-.085.004c-.045.001-.083.006-.114.016-.03.009-.054.022-.073.039-.018.016-.031.036-.039.06-.008.023-.012.051-.012.081m.185-.558c-.028 0-.051.005-.068.015-.017.01-.031.023-.041.041-.009.017-.015.037-.019.061-.004.023-.005.047-.005.073-.07 0-.124-.009-.162-.027-.038-.019-.057-.05-.057-.093 0-.032.01-.058.028-.08.019-.022.045-.039.077-.053.032-.014.07-.023.114-.03.043-.006.089-.01.138-.01.061 0 .115.005.16.016.045.011.083.028.112.053.031.023.053.054.068.092.015.038.023.084.023.139v.421c0 .041.009.07.026.085.018.015.05.023.095.023v.093h-.269l-.05-.127h-.014c-.016.018-.034.036-.054.054-.019.017-.041.032-.065.046-.023.014-.05.024-.078.032-.029.008-.061.012-.096.012-.089 0-.16-.024-.211-.072-.051-.048-.077-.118-.077-.211 0-.092.037-.16.11-.203.073-.044.185-.07.336-.077l.119-.005v-.08c0-.028-.002-.053-.005-.076-.003-.023-.009-.043-.019-.06-.009-.017-.023-.03-.041-.039-.018-.01-.042-.015-.073-.015"/><path d="m34.977 55.37h.535c.044 0 .082-.006.112-.018.032-.013.058-.029.078-.05.021-.021.037-.045.049-.072.012-.028.02-.057.024-.088l.019-.119h.145l-.019.484h-1.486v-.116h.035c.031 0 .06-.002.087-.005.028-.005.052-.013.073-.026.021-.013.037-.031.049-.055.013-.025.019-.058.019-.099v-1.361c0-.043-.006-.078-.018-.104-.012-.026-.028-.046-.049-.06-.021-.014-.045-.024-.073-.028-.027-.005-.056-.007-.088-.007h-.035v-.116h1.396l.014.484h-.143l-.014-.119c-.004-.031-.011-.06-.022-.087-.01-.028-.025-.052-.045-.073-.019-.021-.043-.037-.073-.049-.029-.013-.064-.019-.106-.019h-.465v.737h.668v.135h-.668v.829"/><path d="m37.457 55.2c0 .041.006.074.018.099.013.024.029.043.05.057.021.014.045.023.072.027.028.004.057.005.088.005h.023v.116h-.47l-.03-.249h-.011c-.021.042-.045.081-.072.115-.026.033-.056.062-.091.087-.034.023-.073.041-.116.054-.043.014-.092.02-.146.02-.091 0-.172-.015-.242-.045-.07-.031-.129-.077-.177-.139-.048-.063-.084-.143-.108-.24-.024-.097-.037-.211-.037-.344 0-.134.012-.249.037-.346.024-.097.06-.178.108-.241.048-.063.107-.11.177-.139.07-.031.151-.046.242-.046.053 0 .101.006.145.018.043.012.082.028.116.05.035.022.066.047.093.077.027.03.051.063.07.099h.016c-.003-.045-.005-.088-.008-.127-.002-.034-.004-.068-.005-.101-.002-.034-.003-.06-.003-.076v-.227c0-.041-.006-.073-.019-.097-.012-.025-.028-.045-.049-.058-.021-.014-.045-.022-.073-.026-.027-.005-.056-.007-.087-.007h-.023v-.116h.51v1.801m-.637.154c.072 0 .132-.012.18-.035.049-.024.087-.061.116-.11.03-.049.051-.11.062-.184.013-.074.019-.161.019-.261 0-.097-.006-.182-.019-.256-.012-.074-.032-.136-.062-.185-.029-.051-.068-.089-.116-.115-.049-.026-.11-.039-.183-.039-.06 0-.112.013-.156.039-.043.026-.079.065-.107.115-.027.051-.047.113-.06.188-.013.074-.019.159-.019.256 0 .197.027.344.08.441.053.097.141.146.264.146"/><path d="m37.855 55.39c.031 0 .06-.002.087-.005.028-.005.052-.013.073-.026.021-.013.037-.031.049-.055.013-.025.019-.058.019-.099v-.878c0-.041-.006-.073-.019-.097-.012-.025-.028-.045-.049-.058-.021-.014-.045-.023-.073-.027-.027-.005-.056-.007-.087-.007h-.008v-.116h.495v1.171c0 .043.006.078.018.104.013.026.029.046.049.061.021.014.045.023.073.027.028.005.057.007.088.007h.037v.116h-.788v-.116h.037m.188-1.819c0-.032.004-.06.012-.081.008-.022.019-.039.034-.053.014-.014.031-.023.05-.028.019-.005.04-.008.062-.008.022 0 .042.003.061.008.019.005.035.015.049.028.014.014.026.031.034.053.009.022.014.049.014.081 0 .032-.005.06-.014.081-.008.022-.019.039-.034.053-.014.014-.03.023-.049.03-.019.005-.039.008-.061.008-.023 0-.043-.003-.062-.008-.019-.006-.036-.016-.05-.03-.014-.014-.026-.031-.034-.053-.008-.022-.012-.049-.012-.081"/><path d="m39.38 55.39c.033 0 .064-.002.092-.005.028-.004.056-.008.085-.014v.122c-.012.005-.027.011-.046.016-.019.005-.04.01-.062.014-.022.005-.045.008-.069.01-.024.003-.047.004-.069.004-.07 0-.131-.008-.181-.023-.051-.014-.092-.038-.124-.072-.032-.033-.057-.078-.073-.133-.015-.055-.023-.122-.023-.202v-.926h-.211v-.111c.033 0 .07-.007.11-.02.041-.014.076-.036.107-.068.032-.034.057-.075.076-.122.02-.048.037-.107.051-.179h.127v.341h.363v.158h-.363v.934c0 .095.019.164.057.208.039.044.09.066.154.066"/><path d="m39.717 55.39c.031 0 .06-.002.087-.005.028-.005.052-.013.073-.026.021-.013.037-.031.049-.055.013-.025.019-.058.019-.099v-.878c0-.041-.006-.073-.019-.097-.012-.025-.028-.045-.049-.058-.021-.014-.045-.023-.073-.027-.027-.005-.056-.007-.087-.007h-.008v-.116h.495v1.171c0 .043.006.078.018.104.013.026.029.046.049.061.021.014.045.023.073.027.028.005.057.007.088.007h.037v.116h-.788v-.116h.037m.188-1.819c0-.032.004-.06.012-.081.008-.022.019-.039.034-.053.014-.014.031-.023.05-.028.019-.005.04-.008.062-.008.022 0 .042.003.061.008.019.005.035.015.049.028.014.014.026.031.034.053.009.022.014.049.014.081 0 .032-.005.06-.014.081-.008.022-.019.039-.034.053-.014.014-.03.023-.049.03-.019.005-.039.008-.061.008-.023 0-.043-.003-.062-.008-.019-.006-.036-.016-.05-.03-.014-.014-.026-.031-.034-.053-.008-.022-.012-.049-.012-.081"/><path d="m41.951 54.762c0 .261-.055.455-.166.582-.11.127-.272.191-.484.191-.1 0-.19-.016-.269-.047-.079-.032-.147-.079-.203-.143-.055-.064-.097-.144-.127-.241-.029-.097-.043-.211-.043-.341 0-.259.055-.452.164-.578.11-.126.272-.189.487-.189.1 0 .19.016.269.047.079.031.147.078.202.142.056.063.098.143.127.24.03.096.045.208.045.338m-1.026 0c0 .103.007.194.02.272.014.078.035.144.065.198.031.052.07.092.118.119.049.027.108.041.177.041.069 0 .128-.014.176-.041.048-.027.087-.067.116-.119.03-.053.051-.119.064-.198.014-.078.02-.169.02-.272 0-.103-.007-.193-.02-.271-.014-.078-.035-.142-.065-.194-.03-.052-.069-.092-.118-.118-.048-.026-.106-.039-.176-.039-.069 0-.128.013-.176.039-.048.026-.087.065-.116.118-.03.051-.051.116-.065.194-.014.078-.02.168-.02.271"/><path d="m42.93 55.39v.116h-.746v-.116h.023c.032 0 .061-.002.088-.007.028-.005.052-.014.072-.027.021-.014.037-.035.049-.061.013-.026.019-.061.019-.104v-.865c0-.041-.006-.073-.019-.097-.012-.025-.028-.045-.049-.058-.021-.014-.045-.023-.073-.027-.027-.005-.056-.007-.087-.007h-.008v-.116h.448l.037.225h.014c.029-.051.059-.093.091-.126.032-.033.066-.059.101-.077.036-.019.074-.032.114-.038.041-.007.083-.011.127-.011.073 0 .138.011.195.032.058.021.106.053.146.097.041.043.071.099.092.168.022.069.032.15.032.245v.655c0 .043.005.078.015.104.011.026.026.046.045.061.019.014.041.023.068.027.026.005.055.007.085.007h.01v.116h-.483v-.957c0-.06-.005-.114-.016-.161-.011-.047-.028-.087-.053-.119-.023-.032-.055-.057-.093-.073-.039-.017-.086-.026-.142-.026-.063 0-.116.012-.16.037-.042.024-.077.057-.103.099-.026.041-.045.089-.057.143-.011.054-.016.111-.016.171v.585c0 .041.006.074.018.099.013.024.029.043.05.055.021.013.045.021.072.026.028.004.057.005.088.005h.008"/><path d="m22.06 16.772c0 .178-.022.339-.067.483-.045.143-.111.266-.199.367-.088.101-.198.179-.331.234-.133.054-.287.081-.464.081h-.997v-.137h.041c.037 0 .072-.003.103-.008.033-.005.061-.016.086-.032.024-.017.043-.041.057-.072.014-.031.021-.072.021-.122v-1.597c0-.048-.007-.086-.022-.115-.014-.03-.033-.052-.057-.068-.024-.016-.053-.026-.086-.03-.032-.005-.066-.008-.102-.008h-.041v-.137h.997c.168 0 .317.026.448.078.131.051.242.126.332.224.091.099.161.22.208.364.048.144.072.309.072.493m-1.137 1c.129 0 .242-.022.339-.065.098-.045.179-.109.243-.194.065-.085.113-.189.145-.313.033-.124.049-.267.049-.428 0-.323-.065-.57-.194-.741-.128-.171-.321-.256-.579-.256h-.286v1.997h.283"/><path d="m22.36 17.801c.036 0 .07-.002.102-.006.033-.005.061-.015.086-.03.024-.015.043-.037.057-.065.015-.03.022-.068.022-.116v-1.032c0-.048-.007-.086-.022-.115-.014-.03-.033-.052-.057-.068-.024-.016-.053-.027-.086-.032-.032-.005-.066-.008-.102-.008h-.009v-.137h.582v1.376c0 .051.007.092.021.122.015.031.034.055.057.072.024.016.053.027.086.032.033.005.067.008.103.008h.043v.137h-.926v-.137h.043m.221-2.137c0-.038.005-.07.014-.095.009-.025.023-.046.04-.062.017-.016.037-.027.059-.033.022-.006.047-.009.073-.009.025 0 .049.003.072.009.022.006.041.018.057.033.017.016.03.037.04.062.011.025.016.057.016.095 0 .038-.005.07-.016.095-.009.025-.023.046-.04.062-.016.016-.035.028-.057.035-.022.006-.046.009-.072.009-.027 0-.051-.003-.073-.009-.022-.007-.042-.019-.059-.035-.017-.016-.03-.037-.04-.062-.009-.025-.014-.057-.014-.095"/><path d="m24.21 17.97c-.108 0-.208-.016-.299-.049-.091-.034-.17-.087-.235-.159-.066-.072-.117-.164-.154-.277-.036-.113-.054-.25-.054-.41 0-.174.018-.319.054-.436.037-.118.088-.212.153-.283.066-.071.143-.121.231-.151.089-.03.185-.045.288-.045.068 0 .135.007.202.021.068.013.129.033.183.06.054.028.098.063.132.105.034.041.051.09.051.146 0 .075-.024.128-.073.159-.049.031-.121.046-.218.046 0-.051-.004-.099-.013-.145-.008-.046-.023-.085-.045-.119-.02-.035-.048-.062-.084-.081-.035-.02-.08-.03-.135-.03-.063 0-.119.012-.17.035-.05.023-.093.064-.129.121-.036.057-.064.134-.083.231-.019.096-.029.217-.029.363 0 .231.038.403.115.517.077.113.204.17.378.17.101 0 .189-.021.264-.064.075-.042.131-.097.169-.164.016.013.029.03.04.051.011.021.016.047.016.076 0 .037-.012.074-.035.111-.023.037-.058.07-.105.1-.046.03-.103.054-.172.072-.069.019-.149.029-.242.029"/><path d="m25.752 17.798c.039 0 .075-.002.108-.006.033-.004.066-.009.1-.016v.143c-.014.006-.032.013-.054.019-.022.006-.047.012-.073.016-.025.005-.052.009-.081.011-.029.003-.056.005-.081.005-.083 0-.154-.009-.213-.027-.059-.017-.108-.045-.146-.084-.038-.039-.067-.091-.086-.156-.018-.065-.027-.144-.027-.237v-1.088h-.248v-.13c.039 0 .082-.008.129-.024.048-.016.09-.042.126-.08.037-.04.067-.088.089-.143.023-.056.043-.126.06-.21h.149v.401h.426v.186h-.426v1.097c0 .111.022.193.067.245.046.052.106.078.181.078"/><path d="m26.15 17.801c.036 0 .07-.002.102-.006.033-.005.061-.015.086-.03.024-.015.043-.037.057-.065.015-.03.022-.068.022-.116v-1.032c0-.048-.007-.086-.022-.115-.014-.03-.033-.052-.057-.068-.024-.016-.053-.027-.086-.032-.032-.005-.066-.008-.102-.008h-.009v-.137h.582v1.376c0 .051.007.092.021.122.015.031.034.055.057.072.024.016.053.027.086.032.033.005.067.008.103.008h.043v.137h-.926v-.137h.043m.221-2.137c0-.038.005-.07.014-.095.009-.025.023-.046.04-.062.017-.016.037-.027.059-.033.022-.006.047-.009.073-.009.025 0 .049.003.072.009.022.006.041.018.057.033.017.016.03.037.04.062.011.025.016.057.016.095 0 .038-.005.07-.016.095-.009.025-.023.046-.04.062-.016.016-.035.028-.057.035-.022.006-.046.009-.072.009-.027 0-.051-.003-.073-.009-.022-.007-.042-.019-.059-.035-.017-.016-.03-.037-.04-.062-.009-.025-.014-.057-.014-.095"/><path d="m28.777 17.06c0 .306-.065.534-.196.684-.129.149-.319.224-.569.224-.118 0-.223-.019-.316-.056-.093-.037-.173-.093-.239-.169-.065-.075-.115-.17-.149-.283-.034-.115-.051-.248-.051-.401 0-.304.064-.531.192-.679.129-.148.32-.223.573-.223.118 0 .223.019.316.056.093.036.172.092.237.167.066.074.116.168.149.281.035.112.052.245.052.398m-1.205 0c0 .121.008.227.024.32.016.092.041.17.076.232.036.061.082.108.138.14.057.032.127.048.208.048.082 0 .151-.016.207-.048.056-.032.102-.078.137-.14.035-.063.06-.14.075-.232.016-.092.024-.199.024-.32 0-.121-.008-.227-.024-.318-.016-.091-.041-.167-.076-.227-.035-.061-.081-.108-.138-.138-.056-.031-.125-.046-.207-.046-.082 0-.151.015-.207.046-.056.031-.102.077-.137.138-.035.06-.06.136-.076.227-.016.091-.024.197-.024.318"/><path d="m29.927 17.801v.137h-.876v-.137h.027c.037 0 .072-.003.103-.008.033-.005.061-.016.084-.032.024-.017.043-.041.057-.072.015-.031.022-.072.022-.122v-1.016c0-.048-.007-.086-.022-.115-.014-.03-.033-.052-.057-.068-.024-.016-.053-.027-.086-.032-.032-.005-.066-.008-.102-.008h-.009v-.137h.526l.043.264h.016c.034-.06.069-.11.107-.148.038-.039.078-.069.119-.091.042-.022.087-.037.134-.045.048-.008.098-.013.149-.013.086 0 .162.013.229.038.068.024.125.063.172.115.048.051.084.117.108.197.025.081.038.177.038.288v.77c0 .051.006.092.017.122.013.031.03.055.052.072.022.016.049.027.08.032.031.005.064.008.1.008h.011v.137h-.568v-1.124c0-.071-.006-.134-.019-.189-.013-.055-.033-.102-.062-.14-.028-.038-.064-.067-.11-.086-.046-.02-.101-.03-.167-.03-.074 0-.137.014-.188.043-.05.029-.09.067-.121.116-.031.049-.053.105-.067.169-.013.064-.019.13-.019.2v.687c0 .048.007.086.021.116.015.029.034.05.059.065.024.015.052.025.084.03.033.004.067.006.103.006h.009"/><path d="m31.538 17.466c0 .102.021.178.064.229.043.05.11.075.2.075.066 0 .125-.011.178-.032.054-.021.1-.051.137-.091.038-.039.067-.087.087-.143.02-.056.03-.119.03-.188v-.264l-.208.009c-.092.004-.17.016-.232.035-.061.018-.111.044-.149.078-.038.033-.066.074-.083.122-.016.049-.024.105-.024.169m.394-1.143c-.063 0-.113.009-.153.027-.038.017-.068.041-.091.073-.021.032-.036.069-.043.113-.007.043-.011.091-.011.142-.09 0-.159-.015-.207-.046-.047-.031-.07-.084-.07-.159 0-.056.015-.104.046-.143.031-.039.073-.071.126-.095.054-.025.117-.044.188-.056.071-.012.147-.017.227-.017.1 0 .187.01.261.03.074.019.136.051.186.095.05.045.087.103.111.175.025.071.038.159.038.262v.844c0 .046.004.083.011.113.007.03.019.054.035.072.016.018.037.031.062.038.027.007.058.011.094.011h.01v.137h-.441l-.051-.28h-.027c-.034.046-.067.087-.099.126-.032.038-.067.071-.105.099-.038.028-.082.049-.13.064-.048.016-.105.024-.173.024-.072 0-.139-.011-.202-.032-.061-.02-.115-.051-.161-.094-.045-.043-.08-.098-.105-.162-.025-.066-.038-.143-.038-.232 0-.173.061-.301.184-.385.123-.084.309-.129.558-.137l.27-.009v-.196c0-.058-.003-.112-.01-.161-.006-.05-.02-.092-.041-.127-.021-.036-.052-.064-.092-.083-.039-.02-.092-.03-.159-.03"/><path d="m33.939 17.938h-.94v-.137h.01c.037 0 .072-.003.103-.008.033-.005.061-.016.084-.032.024-.017.043-.041.057-.072.015-.031.022-.072.022-.122v-1.016c0-.048-.007-.086-.022-.115-.014-.03-.033-.052-.057-.068-.024-.016-.053-.027-.086-.032-.032-.005-.066-.008-.102-.008h-.01v-.137h.501l.062.323h.016c.021-.049.043-.094.065-.137.022-.043.049-.081.081-.113.033-.033.073-.058.121-.076.048-.019.108-.029.18-.029.119 0 .207.021.264.062.058.041.087.1.087.175 0 .034-.006.065-.017.094-.011.029-.028.054-.052.075-.024.02-.056.036-.094.048-.038.011-.085.016-.14.016 0-.09-.013-.155-.038-.194-.025-.04-.07-.06-.134-.06-.04 0-.076.012-.108.035-.032.022-.06.052-.084.091-.023.037-.043.08-.06.129-.016.049-.029.099-.04.151-.01.051-.016.102-.021.153-.004.051-.006.097-.006.138v.512c0 .048.007.086.021.116.015.029.034.05.059.065.024.015.052.025.084.03.033.004.067.006.103.006h.091v.137"/><path d="m36.26 16.192v.137h-.01c-.032 0-.059.004-.083.011-.022.006-.043.019-.062.038-.018.019-.035.045-.051.078-.016.033-.033.075-.052.127l-.495 1.368c-.038.105-.074.197-.108.277-.034.08-.069.147-.107.204-.037.057-.078.104-.122.142-.043.037-.093.067-.149.089-.056.022-.121.038-.194.046-.073.008-.158.013-.254.013h-.029v-.154c.11 0 .205-.016.285-.049.08-.033.148-.078.205-.135.058-.057.107-.125.145-.204.039-.077.072-.162.099-.253l-.603-1.423c-.015-.034-.029-.061-.043-.083-.014-.022-.03-.04-.048-.054-.017-.014-.037-.023-.06-.029-.022-.005-.049-.008-.081-.008h-.01v-.137h.782v.137h-.01c-.066 0-.115.013-.148.038-.032.025-.048.065-.048.119 0 .018.002.037.005.056.004.018.011.039.021.064l.239.58c.015.037.03.078.046.122.017.043.032.087.046.13.015.042.028.083.04.121.012.038.02.071.024.099h.01c.012-.048.028-.105.048-.173.021-.069.046-.143.073-.221l.218-.635c.01-.027.016-.052.021-.076.005-.024.008-.046.008-.064 0-.056-.018-.097-.054-.122-.035-.025-.089-.038-.161-.038h-.01v-.137h.677"/><path d="m37.3 18.332h-.192l.749-2.869h.189l-.746 2.869"/><path d="m40.06 17.567c0 .051.007.092.021.122.015.031.034.055.057.072.024.016.053.027.086.032.033.005.067.008.103.008h.075v.137h-1.013v-.137h.075c.036 0 .07-.002.102-.006.033-.005.061-.015.086-.03.024-.015.043-.037.057-.065.015-.03.022-.068.022-.116v-1.808h-.312c-.048 0-.088.007-.121.022-.032.014-.058.033-.08.057-.02.024-.036.053-.046.086-.01.032-.016.066-.021.102l-.017.14h-.169l.016-.569h1.834l.016.569h-.169l-.016-.14c-.004-.036-.012-.07-.022-.102-.011-.033-.026-.061-.046-.086-.02-.024-.047-.043-.08-.057-.033-.015-.074-.022-.122-.022h-.316v1.792"/><path d="m41.829 17.801v.137h-.876v-.137h.025c.037 0 .072-.003.103-.008.033-.005.061-.016.084-.032.024-.017.043-.041.057-.072.015-.031.022-.072.022-.122v-1.746c0-.048-.007-.086-.022-.115-.014-.03-.033-.052-.057-.068-.024-.016-.053-.026-.086-.03-.032-.005-.066-.008-.102-.008h-.025v-.137h.6v.716c0 .03-.001.061-.002.094-.001.032-.003.061-.005.089-.002.032-.004.063-.006.094h.016c.098-.197.257-.296.479-.296.092 0 .174.013.245.038.072.024.133.063.181.115.049.051.086.117.111.197.025.081.038.177.038.288v.77c0 .051.006.092.019.122.013.031.03.055.052.072.022.016.049.027.08.032.031.005.064.008.1.008h.01v.137h-.566v-1.124c0-.071-.006-.134-.019-.189-.013-.055-.033-.102-.062-.14-.028-.038-.064-.067-.11-.086-.046-.02-.101-.03-.167-.03-.068 0-.127.013-.177.038-.049.024-.09.06-.122.107-.032.046-.056.101-.072.167-.016.065-.024.137-.024.216v.687c0 .048.007.086.021.116.015.029.034.05.059.065.024.015.052.025.084.03.033.004.067.006.103.006h.01"/><path d="m43.857 16.335c-.121 0-.214.049-.28.148-.065.098-.103.241-.115.429h.749c0-.086-.006-.164-.019-.235-.013-.071-.033-.132-.06-.183-.028-.051-.064-.09-.11-.118-.045-.028-.1-.041-.165-.041m.04 1.635c-.118 0-.224-.02-.318-.059-.093-.04-.172-.099-.237-.175-.065-.076-.115-.17-.149-.28-.034-.111-.051-.237-.051-.378 0-.304.063-.533.188-.687.125-.154.303-.231.534-.231.105 0 .199.016.283.049.084.033.155.082.213.148.058.065.103.146.134.243.032.096.048.209.048.337v.149h-1.085c.002.119.014.221.035.307.022.085.054.155.094.21.041.055.092.096.151.122.059.025.128.038.205.038.056 0 .108-.006.156-.019.049-.013.093-.03.132-.051.039-.021.074-.045.103-.072.031-.028.056-.056.075-.086.015.006.029.02.041.04.014.02.021.044.021.072 0 .033-.012.068-.035.107-.023.037-.059.072-.107.103-.048.032-.108.058-.18.08-.071.021-.155.032-.251.032"/><path d="m45.39 17.97c-.082 0-.156-.007-.223-.022-.066-.014-.122-.035-.169-.064-.047-.03-.083-.066-.108-.108-.025-.043-.038-.094-.038-.151 0-.043.007-.08.021-.108.015-.03.032-.053.052-.07.021-.017.043-.029.067-.035.024-.007.046-.011.065-.011 0 .057.006.111.017.161.012.05.031.094.059.132.028.037.064.067.108.089.046.021.101.032.167.032.058 0 .11-.007.154-.021.045-.015.082-.035.111-.06.031-.027.054-.058.07-.094.016-.037.024-.077.024-.121 0-.04-.006-.075-.019-.103-.012-.03-.033-.057-.064-.083-.03-.025-.071-.051-.122-.078-.052-.027-.117-.057-.196-.091-.084-.037-.157-.073-.219-.107-.061-.035-.112-.073-.153-.113-.04-.04-.071-.086-.091-.137-.02-.052-.03-.113-.03-.184 0-.074.014-.14.043-.197.03-.057.072-.105.126-.143.054-.039.119-.069.194-.089.075-.02.159-.03.251-.03.077 0 .146.008.205.024.059.016.109.038.149.065.04.027.071.058.091.095.02.036.03.074.03.115 0 .059-.021.107-.062.143-.04.035-.098.052-.173.052 0-.109-.023-.194-.068-.254-.045-.06-.115-.091-.212-.091-.055 0-.102.006-.142.019-.039.013-.072.031-.097.054-.024.023-.042.051-.054.083-.012.032-.017.067-.017.105 0 .041.007.077.022.108.015.03.038.057.07.083.033.025.075.05.126.075.052.023.114.05.186.08.086.036.16.072.221.107.061.035.112.073.151.115.04.041.07.088.089.14.019.052.029.112.029.18 0 .085-.015.159-.046.223-.031.064-.074.117-.13.161-.056.042-.124.074-.204.095-.078.021-.166.032-.262.032"/><path d="m46.652 17.466c0 .102.021.178.064.229.043.05.11.075.2.075.066 0 .125-.011.178-.032.054-.021.1-.051.137-.091.038-.039.067-.087.087-.143.02-.056.03-.119.03-.188v-.264l-.208.009c-.092.004-.17.016-.232.035-.061.018-.111.044-.149.078-.038.033-.066.074-.083.122-.016.049-.024.105-.024.169m.394-1.143c-.063 0-.113.009-.153.027-.038.017-.068.041-.091.073-.021.032-.036.069-.043.113-.007.043-.011.091-.011.142-.09 0-.159-.015-.207-.046-.047-.031-.07-.084-.07-.159 0-.056.015-.104.046-.143.031-.039.073-.071.126-.095.054-.025.117-.044.188-.056.071-.012.147-.017.227-.017.1 0 .187.01.261.03.074.019.136.051.186.095.05.045.087.103.111.175.025.071.038.159.038.262v.844c0 .046.004.083.011.113.007.03.019.054.035.072.016.018.037.031.062.038.027.007.058.011.094.011h.01v.137h-.441l-.051-.28h-.027c-.034.046-.067.087-.099.126-.032.038-.067.071-.105.099-.038.028-.082.049-.13.064-.048.016-.105.024-.173.024-.072 0-.139-.011-.202-.032-.061-.02-.115-.051-.161-.094-.045-.043-.08-.098-.105-.162-.025-.066-.038-.143-.038-.232 0-.173.061-.301.184-.385.123-.084.309-.129.558-.137l.27-.009v-.196c0-.058-.003-.112-.01-.161-.006-.05-.02-.092-.041-.127-.021-.036-.052-.064-.092-.083-.039-.02-.092-.03-.159-.03"/><path d="m49.722 17.583c0 .048.007.086.021.116.015.029.034.05.059.065.024.015.052.025.084.03.033.004.067.006.103.006h.01v.137h-.517l-.043-.264h-.016c-.033.061-.069.111-.11.149-.039.038-.081.068-.126.091-.045.021-.091.036-.14.043-.049.008-.1.013-.153.013-.086 0-.162-.012-.229-.037-.067-.024-.123-.063-.169-.115-.046-.052-.081-.118-.105-.199-.023-.081-.035-.177-.035-.288v-.781c0-.048-.007-.086-.022-.115-.014-.03-.033-.052-.057-.068-.024-.016-.053-.027-.086-.032-.032-.005-.066-.008-.102-.008h-.01v-.137h.584v1.124c0 .071.005.134.016.189.012.055.03.102.056.14.027.038.061.067.105.087.045.019.1.029.165.029.072 0 .134-.013.184-.038.052-.025.094-.061.127-.107.034-.047.059-.102.075-.167.016-.065.024-.136.024-.215v-.671c0-.051-.007-.092-.022-.122-.014-.032-.033-.056-.057-.072-.023-.017-.051-.028-.084-.033-.032-.005-.066-.008-.103-.008h-.01v-.137h.582v1.392"/><path d="m51.12 17.938h-.94v-.137h.01c.037 0 .072-.003.103-.008.033-.005.061-.016.084-.032.024-.017.043-.041.057-.072.015-.031.022-.072.022-.122v-1.016c0-.048-.007-.086-.022-.115-.014-.03-.033-.052-.057-.068-.024-.016-.053-.027-.086-.032-.032-.005-.066-.008-.102-.008h-.01v-.137h.501l.062.323h.016c.021-.049.043-.094.065-.137.022-.043.049-.081.081-.113.033-.033.073-.058.121-.076.048-.019.108-.029.18-.029.119 0 .207.021.264.062.058.041.087.1.087.175 0 .034-.006.065-.017.094-.011.029-.028.054-.052.075-.024.02-.056.036-.094.048-.038.011-.085.016-.14.016 0-.09-.013-.155-.038-.194-.025-.04-.07-.06-.134-.06-.04 0-.076.012-.108.035-.032.022-.06.052-.084.091-.023.037-.043.08-.06.129-.016.049-.029.099-.04.151-.01.051-.016.102-.021.153-.004.051-.006.097-.006.138v.512c0 .048.007.086.021.116.015.029.034.05.059.065.024.015.052.025.084.03.033.004.067.006.103.006h.091v.137"/><path d="m53.32 17.583c0 .048.007.086.021.116.015.029.034.05.059.065.024.015.052.025.084.03.033.004.067.006.103.006h.01v.137h-.517l-.043-.264h-.016c-.033.061-.069.111-.11.149-.039.038-.081.068-.126.091-.045.021-.091.036-.14.043-.049.008-.1.013-.153.013-.086 0-.162-.012-.229-.037-.067-.024-.123-.063-.169-.115-.046-.052-.081-.118-.105-.199-.023-.081-.035-.177-.035-.288v-.781c0-.048-.007-.086-.022-.115-.014-.03-.033-.052-.057-.068-.024-.016-.053-.027-.086-.032-.032-.005-.066-.008-.102-.008h-.01v-.137h.584v1.124c0 .071.005.134.016.189.012.055.03.102.056.14.027.038.061.067.105.087.045.019.1.029.165.029.072 0 .134-.013.184-.038.052-.025.094-.061.127-.107.034-.047.059-.102.075-.167.016-.065.024-.136.024-.215v-.671c0-.051-.007-.092-.022-.122-.014-.032-.033-.056-.057-.072-.023-.017-.051-.028-.084-.033-.032-.005-.066-.008-.103-.008h-.01v-.137h.582v1.392"/><path d="m54.36 17.97c-.082 0-.156-.007-.223-.022-.066-.014-.122-.035-.169-.064-.047-.03-.083-.066-.108-.108-.025-.043-.038-.094-.038-.151 0-.043.007-.08.021-.108.015-.03.032-.053.052-.07.021-.017.043-.029.067-.035.024-.007.046-.011.065-.011 0 .057.006.111.017.161.012.05.031.094.059.132.028.037.064.067.108.089.046.021.101.032.167.032.058 0 .11-.007.154-.021.045-.015.082-.035.111-.06.031-.027.054-.058.07-.094.016-.037.024-.077.024-.121 0-.04-.006-.075-.019-.103-.012-.03-.033-.057-.064-.083-.03-.025-.071-.051-.122-.078-.052-.027-.117-.057-.196-.091-.084-.037-.157-.073-.219-.107-.061-.035-.112-.073-.153-.113-.04-.04-.071-.086-.091-.137-.02-.052-.03-.113-.03-.184 0-.074.014-.14.043-.197.03-.057.072-.105.126-.143.054-.039.119-.069.194-.089.075-.02.159-.03.251-.03.077 0 .146.008.205.024.059.016.109.038.149.065.04.027.071.058.091.095.02.036.03.074.03.115 0 .059-.021.107-.062.143-.04.035-.098.052-.173.052 0-.109-.023-.194-.068-.254-.045-.06-.115-.091-.212-.091-.055 0-.102.006-.142.019-.039.013-.072.031-.097.054-.024.023-.042.051-.054.083-.012.032-.017.067-.017.105 0 .041.007.077.022.108.015.03.038.057.07.083.033.025.075.05.126.075.052.023.114.05.186.08.086.036.16.072.221.107.061.035.112.073.151.115.04.041.07.088.089.14.019.052.029.112.029.18 0 .085-.015.159-.046.223-.031.064-.074.117-.13.161-.056.042-.124.074-.204.095-.078.021-.166.032-.262.032"/></g><g transform="translate(0 3)" fill="#480009" fill-opacity=".157" color="#000"><g transform="matrix(0 1-1 0 0 0)"><path d="m18-57h1v39h-1z"/><path d="m48-57h1v39h-1z"/></g><g transform="matrix(0-1-1 0 0 0)"><path d="m-18-57h1v39h-1z"/><path d="m-48-57h1v39h-1z"/></g></g></svg>