<?xml version="1.0" encoding="UTF-8" standalone="no"?>
<!-- Created with Inkscape (http://www.inkscape.org/) -->

<svg
   xmlns:dc="http://purl.org/dc/elements/1.1/"
   xmlns:cc="http://creativecommons.org/ns#"
   xmlns:rdf="http://www.w3.org/1999/02/22-rdf-syntax-ns#"
   xmlns:svg="http://www.w3.org/2000/svg"
   xmlns="http://www.w3.org/2000/svg"
   xmlns:sodipodi="http://sodipodi.sourceforge.net/DTD/sodipodi-0.dtd"
   xmlns:inkscape="http://www.inkscape.org/namespaces/inkscape"
   width="64"
   height="64"
   id="svg13094"
   version="1.1"
   inkscape:version="0.91+devel r"
   sodipodi:docname="kicad.svg">
  <sodipodi:namedview
     id="base"
     pagecolor="#ffffff"
     bordercolor="#666666"
     borderopacity="1.0"
     inkscape:pageopacity="0"
     inkscape:pageshadow="2"
     inkscape:zoom="8.0000004"
     inkscape:cx="0.69609702"
     inkscape:cy="34.843683"
     inkscape:document-units="px"
     inkscape:current-layer="svg13094"
     showgrid="true"
     inkscape:snap-bbox="true"
     inkscape:bbox-paths="true"
     inkscape:bbox-nodes="true"
     inkscape:snap-bbox-edge-midpoints="true"
     inkscape:snap-bbox-midpoints="true"
     inkscape:object-paths="true"
     inkscape:snap-intersection-paths="true"
     inkscape:object-nodes="true"
     inkscape:snap-smooth-nodes="true"
     inkscape:snap-midpoints="true"
     inkscape:snap-object-midpoints="true"
     inkscape:snap-center="true"
     showguides="true"
     inkscape:guide-bbox="true"
     inkscape:window-width="1920"
     inkscape:window-height="1023"
     inkscape:window-x="-10"
     inkscape:window-y="35"
     inkscape:window-maximized="1"
     inkscape:snap-global="true"
     fit-margin-top="0"
     fit-margin-left="0"
     fit-margin-right="0"
     fit-margin-bottom="0"
     showborder="true"
     inkscape:showpageshadow="false"
     inkscape:snap-page="true">
    <inkscape:grid
       originy="18px"
       originx="1.6362304e-08px"
       snapvisiblegridlinesonly="true"
       enabled="true"
       visible="true"
       empspacing="5"
       id="grid3075"
       type="xygrid" />
  </sodipodi:namedview>
  <defs
     id="defs13096" />
  <metadata
     id="metadata13099">
    <rdf:RDF>
      <cc:Work
         rdf:about="">
        <dc:format>image/svg+xml</dc:format>
        <dc:type
           rdf:resource="http://purl.org/dc/dcmitype/StillImage" />
        <dc:title></dc:title>
      </cc:Work>
    </rdf:RDF>
  </metadata>
  <g
     id="g7656"
     transform="translate(-0.5,-0.5)">
    <path
       sodipodi:nodetypes="cccc"
       inkscape:connector-curvature="0"
       id="path7652"
       d="M 11,56.447645 11,51.482548 11,49 7.276176,49"
       style="fill:none;stroke:#f5eca5;stroke-width:1;stroke-linejoin:miter;stroke-miterlimit:4;stroke-opacity:0.43189967;stroke-dasharray:none" />
    <path
       sodipodi:nodetypes="cccc"
       inkscape:connector-curvature="0"
       id="path7654"
       d="M 13,55.697645 13,49.482548 13,47 7.526176,47"
       style="fill:none;stroke:#f5eca5;stroke-width:1;stroke-linejoin:miter;stroke-miterlimit:4;stroke-opacity:0.43189967;stroke-dasharray:none" />
    <path
       style="fill:none;stroke:#f5eca5;stroke-width:1;stroke-linejoin:miter;stroke-miterlimit:4;stroke-opacity:0.43189967;stroke-dasharray:none"
       d="M 15,56.447645 15,47.482548 15,45 7.776176,45"
       id="path7685"
       inkscape:connector-curvature="0"
       sodipodi:nodetypes="cccc" />
    <path
       sodipodi:nodetypes="ccc"
       inkscape:connector-curvature="0"
       id="path7661"
       d="M 17,56.447645 17,9 6,9"
       style="fill:none;stroke:#f5eca5;stroke-width:1;stroke-linejoin:miter;stroke-miterlimit:4;stroke-opacity:0.43189967;stroke-dasharray:none" />
    <path
       style="fill:none;stroke:#f5eca5;stroke-width:1;stroke-linejoin:miter;stroke-miterlimit:4;stroke-opacity:0.43189967;stroke-dasharray:none"
       d="M 22,56.447645 22,46.232548"
       id="path7673"
       inkscape:connector-curvature="0"
       sodipodi:nodetypes="cc" />
    <path
       sodipodi:nodetypes="ccc"
       inkscape:connector-curvature="0"
       id="path7663"
       d="M 43,56.447645 43,23 58,23"
       style="fill:none;stroke:#f5eca5;stroke-width:1;stroke-linejoin:miter;stroke-miterlimit:4;stroke-opacity:0.43189967;stroke-dasharray:none" />
    <path
       sodipodi:nodetypes="cc"
       inkscape:connector-curvature="0"
       id="path7963"
       d="M 24,56.447645 24,46.232548"
       style="fill:none;stroke:#f5eca5;stroke-width:1;stroke-linejoin:miter;stroke-miterlimit:4;stroke-opacity:0.43189967;stroke-dasharray:none" />
    <path
       style="fill:none;stroke:#f5eca5;stroke-width:1;stroke-linejoin:miter;stroke-miterlimit:4;stroke-opacity:0.43189967;stroke-dasharray:none"
       d="M 39,12.607549 39,2.3924515"
       id="path7675"
       inkscape:connector-curvature="0"
       sodipodi:nodetypes="cc" />
    <path
       sodipodi:nodetypes="ccc"
       inkscape:connector-curvature="0"
       id="path7665"
       d="M 45,56.447645 45,25 58,25"
       style="fill:none;stroke:#f5eca5;stroke-width:1;stroke-linejoin:miter;stroke-miterlimit:4;stroke-opacity:0.43189967;stroke-dasharray:none" />
    <path
       sodipodi:nodetypes="cc"
       inkscape:connector-curvature="0"
       id="path7965"
       d="M 26,56.447645 26,46.232548"
       style="fill:none;stroke:#f5eca5;stroke-width:1;stroke-linejoin:miter;stroke-miterlimit:4;stroke-opacity:0.43189967;stroke-dasharray:none" />
    <path
       style="fill:none;stroke:#f5eca5;stroke-width:1;stroke-linejoin:miter;stroke-miterlimit:4;stroke-opacity:0.43189967;stroke-dasharray:none"
       d="M 41,12.607549 41,2.3924515"
       id="path7677"
       inkscape:connector-curvature="0"
       sodipodi:nodetypes="cc" />
    <path
       sodipodi:nodetypes="ccc"
       inkscape:connector-curvature="0"
       id="path7667"
       d="M 47,56.447645 47,27 58,27"
       style="fill:none;stroke:#f5eca5;stroke-width:1;stroke-linejoin:miter;stroke-miterlimit:4;stroke-opacity:0.43189967;stroke-dasharray:none" />
    <path
       sodipodi:nodetypes="cc"
       inkscape:connector-curvature="0"
       id="path7967"
       d="M 28,56.447645 28,46.232548"
       style="fill:none;stroke:#f5eca5;stroke-width:1;stroke-linejoin:miter;stroke-miterlimit:4;stroke-opacity:0.43189967;stroke-dasharray:none" />
    <path
       style="fill:none;stroke:#f5eca5;stroke-width:1;stroke-linejoin:miter;stroke-miterlimit:4;stroke-opacity:0.43189967;stroke-dasharray:none"
       d="M 43,12.607549 43,2.3924515"
       id="path7679"
       inkscape:connector-curvature="0"
       sodipodi:nodetypes="cc" />
    <path
       sodipodi:nodetypes="ccc"
       inkscape:connector-curvature="0"
       id="path7669"
       d="M 49,56.447645 49,34 l 9,0"
       style="fill:none;stroke:#f5eca5;stroke-width:1;stroke-linejoin:miter;stroke-miterlimit:4;stroke-opacity:0.43189967;stroke-dasharray:none" />
    <path
       sodipodi:nodetypes="cc"
       inkscape:connector-curvature="0"
       id="path7969"
       d="M 30,56.447645 30,46.232548"
       style="fill:none;stroke:#f5eca5;stroke-width:1;stroke-linejoin:miter;stroke-miterlimit:4;stroke-opacity:0.43189967;stroke-dasharray:none" />
    <path
       style="fill:none;stroke:#f5eca5;stroke-width:1;stroke-linejoin:miter;stroke-miterlimit:4;stroke-opacity:0.43189967;stroke-dasharray:none"
       d="M 45,12.607549 45,2.3924515"
       id="path7681"
       inkscape:connector-curvature="0"
       sodipodi:nodetypes="cc" />
    <path
       sodipodi:nodetypes="ccc"
       inkscape:connector-curvature="0"
       id="path7671"
       d="M 51,56.447645 51,41 l 7,0"
       style="fill:none;stroke:#f5eca5;stroke-width:1;stroke-linejoin:miter;stroke-miterlimit:4;stroke-opacity:0.43189967;stroke-dasharray:none" />
    <path
       style="fill:none;stroke:#f5eca5;stroke-width:1;stroke-linejoin:miter;stroke-miterlimit:4;stroke-opacity:0.43189967;stroke-dasharray:none"
       d="M 32,56.447645 32,46.232548"
       id="path7971"
       inkscape:connector-curvature="0"
       sodipodi:nodetypes="cc" />
    <path
       sodipodi:nodetypes="cc"
       inkscape:connector-curvature="0"
       id="path7683"
       d="M 47,12.607549 47,2.3924515"
       style="fill:none;stroke:#f5eca5;stroke-width:1;stroke-linejoin:miter;stroke-miterlimit:4;stroke-opacity:0.43189967;stroke-dasharray:none" />
    <path
       style="fill:none;stroke:#f5eca5;stroke-width:1;stroke-linejoin:miter;stroke-miterlimit:4;stroke-opacity:0.43189967;stroke-dasharray:none"
       d="M 53,56.447645 53,48 l 5,0"
       id="path14371-5"
       inkscape:connector-curvature="0"
       sodipodi:nodetypes="ccc" />
  </g>
  <path
     sodipodi:nodetypes="ccccccccccc"
     id="path4095"
     d="m 0,2 0,32 0,28 2,2 30,0 30,0 2,-2 0,-28 0,-32 -32,0 z"
     style="color:#000000;fill:#5eb322;fill-opacity:1;fill-rule:nonzero;stroke:none;stroke-width:2.28571415;marker:none;visibility:visible;display:inline;overflow:visible;enable-background:accumulate;opacity:1;stroke-linecap:butt;stroke-linejoin:miter;stroke-miterlimit:4;stroke-dasharray:none;stroke-dashoffset:0;stroke-opacity:1"
     inkscape:connector-curvature="0" />
  <path
     id="path3475"
     d="m 30,2 0,3 5,0 0,-3 -3,0 z m 12,0 0,3 5,0 0,-3 z m 13,0 0,10 -2.09375,2.21875 -4.84375,0 c -0.242094,-1.173739 -1.255566,-2.09375 -2.5,-2.09375 -1.279186,0 -2.297488,0.871482 -2.5,2.09375 l -1.96875,0 0,-3.65625 -5.21875,0 0,3.65625 -1.59375,0 C 34.078744,12.996482 33.091686,12.125 31.8125,12.125 c -1.206693,0 -2.218999,0.848333 -2.5,1.96875 l -18.34375,0 0,2.21875 -2.09375,0 0,1.4375 -2.5,0 0,-1.4375 -4.3125,0 0,7.875 4.3125,0 0,-5.125 2.5,0 0,5.125 4.4375,0 0,-7.875 -1.15625,0 0,-1.03125 17.03125,0 c 0.262432,1.147981 1.399137,1.96875 2.625,1.96875 1.150369,0 2.011819,-0.676226 2.34375,-1.71875 l 1.71875,0 0,2.875 5.21875,0 0,-2.875 1.96875,0 c 0.33192,1.042524 1.349031,1.71875 2.5,1.71875 1.18872,0 2.20103,-0.749097 2.5,-1.84375 l 5.21875,0 L 55,14 64,14 64,2 z M 7.5625,3.21875 4.40625,6.5 0,6.5 l 0,1.15625 4.8125,0 c 0,0 2.967892,-2.936046 3.28125,-3.25 l 16.375,0 c 0.314558,0.315103 3.40625,3.25 3.40625,3.25 l 8.25,0 C 36.562396,8.463307 37.520388,9.125 38.5,9.125 c 1.423583,0 2.46875,-1.201422 2.46875,-2.625 0,-1.422988 -1.045167,-2.625 -2.46875,-2.625 -1.422983,0 -2.625,1.202012 -2.625,2.625 l -7.625,0 C 27.935442,6.184896 25,3.21875 25,3.21875 z M 38.5,5.4375 c 0.585968,0 1.03125,0.476533 1.03125,1.0625 0,0.585974 -0.445282,1.03125 -1.03125,1.03125 -0.585972,0 -1.0625,-0.445276 -1.0625,-1.03125 0,-0.585967 0.476528,-1.0625 1.0625,-1.0625 z m -6.6875,8.25 c 0.585968,0 1.03125,0.477132 1.03125,1.0625 0,0.586573 -0.445282,1.03125 -1.03125,1.03125 -0.58597,0 -1.0625,-0.444677 -1.0625,-1.03125 0,-0.585368 0.47653,-1.0625 1.0625,-1.0625 z m 13.75,0 c 0.585969,0 1.0625,0.477132 1.0625,1.0625 0,0.586573 -0.476531,1.03125 -1.0625,1.03125 -0.585968,0 -1.0625,-0.444677 -1.0625,-1.03125 0,-0.585368 0.476532,-1.0625 1.0625,-1.0625 z m -30.15625,2.625 0,7.875 4.46875,0 0,-5.5 4.3125,0 0,0.90625 c -1.13359,0.272621 -1.9375,1.283726 -1.9375,2.5 0,1.141987 0.658158,2.12903 1.6875,2.46875 l 0,0.8125 -23.9375,0 0,1.15625 25.125,0 0,-1.8125 c 0.920299,-0.143175 1.765417,-0.748944 2.09375,-1.59375 l 8.90625,0 c 0.373855,0.964636 1.404754,1.59375 2.5,1.59375 1.423582,0 2.46875,-1.202012 2.46875,-2.625 0,-1.423577 -1.045168,-2.5 -2.46875,-2.5 -1.330717,0 -2.487796,0.923982 -2.625,2.21875 l -8.65625,0 C 27.227497,20.719068 26.423512,19.845392 25.375,19.59375 l 0,-2.09375 -5.5,0 0,-1.1875 z m 35.78125,2.09375 -10.09375,9.96875 0,21.75 c -1.114418,0.285791 -1.9375,1.298102 -1.9375,2.5 0,1.422987 1.170767,2.625 2.59375,2.625 1.423583,0 2.625,-1.202013 2.625,-2.625 0,-1.230058 -0.940382,-2.242968 -2.09375,-2.5 l 0,-21.21875 c 0.331919,-0.33192 9.104973,-8.980573 9.4375,-9.3125 l 12.28125,0 0,-1.1875 z M 39.15625,52.625 l 0,-4.34375 1.15625,0 0,-12.3125 -3.65625,0 0,12.3125 1.3125,0 0,9.3125 C 36.919035,57.880715 36.062912,58.845341 36,59.96875 l -15.21875,0 c -0.07612,-1.354678 -1.219898,-2.5 -2.59375,-2.5 -1.423588,0 -2.5,1.202012 -2.5,2.625 0,1.423583 1.076412,2.625 2.5,2.625 1.047312,0 1.93932,-0.695618 2.34375,-1.59375 l 15.71875,0 c 0.404425,0.898132 1.328282,1.59375 2.375,1.59375 1.062291,0 1.948313,-0.675252 2.34375,-1.59375 l 21.625,0 c 0.154749,0.154749 0.678417,0.7098 1.125,1.15625 L 64,62 l 0,-1.15625 -0.875,-0.875 -22.03125,0 c -0.08268,-1.161134 -0.823077,-2.144327 -1.9375,-2.375 z M 24.71875,21.03125 c 0.585971,0 1.0625,0.476527 1.0625,1.0625 0,0.58597 -0.476529,1.15625 -1.0625,1.15625 -0.58597,0 -1.03125,-0.57028 -1.03125,-1.15625 0,-0.585973 0.44528,-1.0625 1.03125,-1.0625 z m 13.90625,0 c 0.586568,0 1.03125,0.476527 1.03125,1.0625 0,0.58597 -0.444682,1.15625 -1.03125,1.15625 -0.585973,0 -1.0625,-0.57028 -1.0625,-1.15625 0,-0.585973 0.476527,-1.0625 1.0625,-1.0625 z m 17.6875,0.9375 -11.15625,11.125 0,2.875 -1.15625,0 0,12.3125 3.53125,0 0,-12.3125 -1.1875,0 0,-2.34375 c 0.33431,-0.333723 10.16627,-10.166273 10.5,-10.5 l 7.15625,0 0,-1.15625 z m 2.875,3.90625 -7.0625,7.21875 0,2.875 -1.4375,0 0,12.3125 3.53125,0 0,-12.3125 -0.9375,0 0,-2.34375 c 0.324791,-0.324159 6.11336,-6.237759 6.4375,-6.5625 l 4.28125,0 0,-1.1875 z M 0,29.5625 l 0,1.15625 17.53125,0 0,5.25 -0.9375,0 0,12.3125 3.53125,0 0,-12.3125 -1.4375,0 0,-6.40625 z m 62.71875,0.53125 -3.65625,3.65625 0,2.21875 -1.1875,0 0,12.3125 3.53125,0 0,-12.3125 -1.15625,0 0,-1.6875 c 0.29774,-0.297783 2.70222,-2.73407 3,-3.03125 l 0.75,0 0,-1.15625 z M 0,33.21875 0,34 l 0,0.40625 3.625,0 0,1.5625 -1.1875,0 0,12.3125 3.5625,0 0,-12.3125 -1.1875,0 0,-2.75 z m 9.125,2.75 0,12.3125 1.4375,0 -5.5,6.03125 c -0.240834,-0.07427 -0.517023,-0.125 -0.78125,-0.125 -1.423583,0 -2.625,1.201417 -2.625,2.625 0,1.422984 1.201417,2.5 2.625,2.5 1.422984,0 2.625,-1.077018 2.625,-2.5 0,-0.718982 -0.306729,-1.375217 -0.78125,-1.84375 l 6.03125,-6.6875 0.5,0 0,-0.65625 0,-0.125 0,-11.53125 z m 14.15625,0 0,12.3125 0.90625,0 0,0.8125 -6.28125,6.28125 -7.0625,0 -8,8 -1.46875,0 L 2,64 3.90625,64 c 0.8909032,-0.890837 7.124343,-7.123785 7.4375,-7.4375 l 6.96875,0 7.0625,-6.96875 0,-1.3125 1.4375,0 0,-12.3125 z m 6.8125,0 0,12.3125 3.53125,0 0,-12.3125 z M 41.75,51.5625 c 0.585968,0 1.0625,0.475928 1.0625,1.0625 0,0.585968 -0.476532,1.03125 -1.0625,1.03125 -0.585969,0 -1.03125,-0.445282 -1.03125,-1.03125 0,-0.586572 0.445281,-1.0625 1.03125,-1.0625 z M 4.28125,55.75 c 0.585973,0 1.0625,0.476528 1.0625,1.0625 0,0.585968 -0.476527,1.0625 -1.0625,1.0625 -0.585968,0 -1.0625,-0.476532 -1.0625,-1.0625 0,-0.585972 0.476532,-1.0625 1.0625,-1.0625 z m 13.90625,3.28125 c 0.585967,0 1.15625,0.475931 1.15625,1.0625 0,0.585974 -0.570283,1.03125 -1.15625,1.03125 -0.585973,0 -1.0625,-0.445276 -1.0625,-1.03125 0,-0.586569 0.476527,-1.0625 1.0625,-1.0625 z m 20.4375,0 c 0.586568,0 1.03125,0.475931 1.03125,1.0625 0,0.585974 -0.444682,1.03125 -1.03125,1.03125 -0.585973,0 -1.0625,-0.445276 -1.0625,-1.03125 0,-0.586569 0.476527,-1.0625 1.0625,-1.0625 z"
     style="fill:#ede126;fill-opacity:1;fill-rule:nonzero;stroke:none;opacity:1;stroke-width:1;stroke-linecap:butt;stroke-linejoin:miter;stroke-miterlimit:4;stroke-dasharray:none;stroke-dashoffset:0;stroke-opacity:1"
     inkscape:connector-curvature="0"
     sodipodi:nodetypes="cccccccccccccccsccccccsccccccccccccccccccsccccccscccccccccccccccsssccccsssssssssssssssccccccsccccccccsssccccccccccsssccccccccccccccccsssccscccccccccssssssssssccccccccccccccccccccccccccccccccccccccccccccccccccccccccccccccccccsssscccccccccccccccccccccccccccccssssssssssssssssssss" />
  <path
     sodipodi:nodetypes="ccccccccc"
     id="path4090"
     d="M 2,0 0,1 0,2 32,2 64,2 64,1 62,0 32,0 z"
     style="color:#000000;fill:#b5f42d;fill-opacity:1;fill-rule:nonzero;stroke:none;stroke-width:2.28571415000000000;marker:none;visibility:visible;display:inline;overflow:visible;enable-background:accumulate"
     inkscape:connector-curvature="0" />
  <g
     transform="translate(-0.62500009,0.082283)"
     inkscape:export-ydpi="90"
     inkscape:export-xdpi="90"
     inkscape:export-filename="folder.png"
     id="g3043" />
  <g
     style="fill:#ffffff"
     inkscape:label="#g3701"
     transform="matrix(1.0385892,0,0,1.0385892,1214.7222,1878.8121)"
     id="scalable" />
  <path
     style="color:#000000;fill:#fff777;fill-opacity:1;fill-rule:nonzero;stroke:none;stroke-width:2;marker:none;visibility:visible;display:inline;overflow:visible;enable-background:accumulate"
     d="M 30 0 L 30 2 L 35 2 L 35 0 L 30 0 z M 42 0 L 42 2 L 47 2 L 47 0 L 42 0 z M 55 0 L 55 2 L 64 2 L 64 1 L 62 0 L 55 0 z "
     id="rect4275" />
  <path
     sodipodi:nodetypes="cccc"
     inkscape:connector-curvature="0"
     style="fill:#ece461;fill-opacity:1"
     id="path3028"
     d="M 64,4 62,2 64,1 z" />
  <path
     sodipodi:nodetypes="cccc"
     inkscape:connector-curvature="0"
     id="path4298"
     d="M 0,1 0,4 2,2 Z"
     style="color:#000000;display:inline;overflow:visible;visibility:visible;fill:#c7f75f;fill-opacity:1;fill-rule:nonzero;stroke-width:1;stroke-linecap:butt;stroke-linejoin:miter;stroke-miterlimit:4;stroke-dasharray:none;stroke-dashoffset:0;stroke-opacity:1;marker:none;enable-background:accumulate" />
</svg>
