<svg xmlns="http://www.w3.org/2000/svg" viewBox="0 0 64 64"><g color="#000"><path d="m0 4v30 28l2 2h30 30l2-2v-28-30h-32-32" fill="#16a8c7"/><path d="m2 0l-2 1v3h32 32v-3l-2-1h-30-30" fill="#41d9f3"/></g><path d="m0 3v3l2-2" fill="#65e0f5"/><path d="m64 6l-2-2 2-1z" fill="#2abfdb"/><path d="m21.625 18.938l7.625 20.06v.031 8.03h5.531v-8.03-.031l-7.625-20.06h-5.531m15.219 0l7.625 28.13h5.531l-7.625-28.12h-5.531" fill="#9ccd1e"/><g fill="#83a910"><path d="m42.42 18.925l-1.99 13.152-1.713-6.124z" opacity=".8"/><path d="m27.19 18.925l-.517 13.152-2.176-5.661z" opacity=".8"/></g><path d="m21.625 18.938l-7.625 28.13h5.531l7.625-28.12h-5.531m15.25 0l-4.875 12.813 2.781 7.281 7.656-20.09h-5.563" fill="#cff539"/></svg>