<?xml version="1.0" encoding="UTF-8" standalone="no"?>
<!-- Created with Inkscape (http://www.inkscape.org/) -->

<svg
   xmlns:dc="http://purl.org/dc/elements/1.1/"
   xmlns:cc="http://creativecommons.org/ns#"
   xmlns:rdf="http://www.w3.org/1999/02/22-rdf-syntax-ns#"
   xmlns:svg="http://www.w3.org/2000/svg"
   xmlns="http://www.w3.org/2000/svg"
   xmlns:sodipodi="http://sodipodi.sourceforge.net/DTD/sodipodi-0.dtd"
   xmlns:inkscape="http://www.inkscape.org/namespaces/inkscape"
   width="64"
   height="64"
   id="svg13094"
   version="1.1"
   inkscape:version="0.91+devel r"
   sodipodi:docname="nvidia.svg">
  <sodipodi:namedview
     id="base"
     pagecolor="#ffffff"
     bordercolor="#666666"
     borderopacity="1.0"
     inkscape:pageopacity="0"
     inkscape:pageshadow="2"
     inkscape:zoom="11.313709"
     inkscape:cx="33.522817"
     inkscape:cy="32.434274"
     inkscape:document-units="px"
     inkscape:current-layer="svg13094"
     showgrid="true"
     inkscape:snap-bbox="true"
     inkscape:bbox-paths="true"
     inkscape:bbox-nodes="true"
     inkscape:snap-bbox-edge-midpoints="true"
     inkscape:snap-bbox-midpoints="true"
     inkscape:object-paths="true"
     inkscape:snap-intersection-paths="true"
     inkscape:object-nodes="true"
     inkscape:snap-smooth-nodes="true"
     inkscape:snap-midpoints="true"
     inkscape:snap-object-midpoints="true"
     inkscape:snap-center="true"
     showguides="true"
     inkscape:guide-bbox="true"
     inkscape:window-width="1920"
     inkscape:window-height="1023"
     inkscape:window-x="-10"
     inkscape:window-y="35"
     inkscape:window-maximized="1"
     inkscape:snap-global="true"
     fit-margin-top="0"
     fit-margin-left="0"
     fit-margin-right="0"
     fit-margin-bottom="0"
     showborder="true"
     inkscape:showpageshadow="false"
     inkscape:snap-page="true">
    <inkscape:grid
       type="xygrid"
       id="grid3075"
       empspacing="5"
       visible="true"
       enabled="true"
       snapvisiblegridlinesonly="true"
       originx="0px"
       originy="18px" />
  </sodipodi:namedview>
  <defs
     id="defs13096" />
  <metadata
     id="metadata13099">
    <rdf:RDF>
      <cc:Work
         rdf:about="">
        <dc:format>image/svg+xml</dc:format>
        <dc:type
           rdf:resource="http://purl.org/dc/dcmitype/StillImage" />
        <dc:title></dc:title>
      </cc:Work>
    </rdf:RDF>
  </metadata>
  <path
     id="path3056"
     d="m 32,4 0,60 30,0 2,-2 0,-28 0,-30 -32,0 z"
     style="color:#000000;fill:#78bd21;fill-opacity:1;fill-rule:nonzero;stroke:none;stroke-width:2.28571415;marker:none;visibility:visible;display:inline;overflow:visible;enable-background:accumulate"
     inkscape:connector-curvature="0" />
  <path
     style="color:#000000;fill:#3a4e27;fill-opacity:1;fill-rule:nonzero;stroke:none;stroke-width:2.28571415;marker:none;visibility:visible;display:inline;overflow:visible;enable-background:accumulate"
     d="M 0 4 L 0 34 L 0 62 L 2 64 L 32 64 L 32 4 L 0 4 z "
     id="path3443" />
  <path
     style="color:#000000;fill:#acff38;fill-opacity:1;fill-rule:nonzero;stroke:none;stroke-width:2.28571415;marker:none;visibility:visible;display:inline;overflow:visible;enable-background:accumulate"
     d="M 32 0 L 32 4 L 64 4 L 64 1 L 62 0 L 32 0 z "
     id="path3029" />
  <path
     style="color:#000000;fill:#70a14a;fill-opacity:1;fill-rule:nonzero;stroke:none;stroke-width:2.28571415000000000;marker:none;visibility:visible;display:inline;overflow:visible;enable-background:accumulate"
     d="M 2 0 L 0 1 L 0 4 L 32 4 L 32 0 L 2 0 z "
     id="path3447" />
  <path
     style="fill:#85b55f;fill-opacity:1;fill-rule:nonzero"
     d="M 0,3 0,6 2,4 Z"
     id="path4298"
     inkscape:connector-curvature="0"
     sodipodi:nodetypes="cccc" />
  <path
     d="M 64,6 62,4 64,3 z"
     id="path3028"
     style="fill:#91dd2c;fill-opacity:1"
     inkscape:connector-curvature="0" />
  <g
     id="g3043"
     inkscape:export-filename="folder.png"
     inkscape:export-xdpi="90"
     inkscape:export-ydpi="90"
     transform="translate(-0.625,0.082283)" />
  <g
     id="scalable"
     transform="matrix(1.0385892,0,0,1.0385892,1214.7222,1878.8121)"
     inkscape:label="#g3701"
     style="fill:#ffffff" />
  <path
     style="fill:#78bd21;fill-opacity:1;fill-rule:evenodd;stroke:none"
     d="M 28.15625 17.5 L 28.15625 17.9375 C 28.15625 17.791763 28.17582 17.641983 28.1875 17.5 C 28.1809 17.4977 28.1629 17.5022 28.15625 17.5 z M 29.6875 21.53125 C 29.497526 21.53245 29.285835 21.55603 29.09375 21.5625 C 28.774593 21.57337 28.473681 21.60045 28.15625 21.625 C 17.343077 22.493418 8 31.65625 8 31.65625 C 8 31.65625 13.282784 46.971237 28.15625 48.375 C 28.870188 48.44387 29.618691 48.5 30.375 48.5 C 30.892899 48.5 31.433865 48.502964 32 48.46875 L 32 45.65625 C 31.420089 45.696483 30.820344 45.71875 30.21875 45.71875 C 29.504158 45.71875 28.816738 45.67762 28.15625 45.59375 C 17.241176 44.220404 13.5 32.1875 13.5 32.1875 C 13.5 32.1875 18.393783 24.964846 28.15625 24.21875 C 28.470424 24.19681 28.770459 24.19771 29.09375 24.1875 C 29.23188 24.1832 29.394615 24.1879 29.53125 24.1875 C 30.382958 24.18485 31.20951 24.273959 32 24.40625 L 32 21.625 C 31.246475 21.54612 30.478938 21.526159 29.6875 21.53125 z M 29.9375 27.34375 C 29.321541 27.34375 28.734404 27.40683 28.15625 27.46875 C 21.578049 28.180083 17.625 32.5625 17.625 32.5625 C 17.625 32.5625 19.907047 41.123067 28.15625 42.59375 C 28.928635 42.730411 29.74659 42.8125 30.625 42.8125 C 31.085417 42.8125 31.54235 42.767765 32 42.71875 L 32 40.40625 C 31.595409 40.467073 31.190602 40.5 30.78125 40.5 C 29.814622 40.5 28.936236 40.324741 28.15625 40.0625 C 23.50543 38.499913 22 33.0625 22 33.0625 C 22 33.0625 24.703657 29.835672 28.15625 30.25 C 30.027044 30.476054 31.086932 31.045647 32 32.0625 L 32 27.53125 C 31.348391 27.403608 30.667705 27.34375 29.9375 27.34375 z "
     id="rect4933" />
  <path
     inkscape:connector-curvature="0"
     style="color:#000000;fill:#3a4e27;fill-opacity:1;fill-rule:nonzero;stroke:none;stroke-width:2.28571415;marker:none;visibility:visible;display:inline;overflow:visible;enable-background:accumulate"
     d="m 32,21.625 0,2.78125 c 7.198866,1.204755 11.75,7.375 11.75,7.375 0,0 -5.516098,7.687844 -11.75,8.625 l 0,2.3125 c 9.069288,-0.971334 17.40625,-11.0625 17.40625,-11.0625 0,0 -6.764535,-8.917259 -17.40625,-10.03125 z m 0,5.90625 0,4.53125 c 0.766616,0.853753 1.430684,2.019556 2.375,3.59375 L 38.96875,31.75 c 0,0 -2.567229,-3.356546 -6.96875,-4.21875 z m 19.84375,8.25 C 46.019455,40.808674 40.017663,45.100004 32,45.65625 l 0,2.8125 C 40.010821,47.98462 52.453624,44.143561 58,39.5 57.12855,38.616591 52.879252,36.61056 51.84375,35.78125 z"
     id="path3056-3" />
</svg>
