<svg xmlns="http://www.w3.org/2000/svg" viewBox="0 0 64 64"><g color="#000"><path d="m0 4v30 28l2 2h30 30l2-2v-28-30h-32-32" fill="#dd2929"/><path d="m2 0l-2 1v3h32 32v-3l-2-1h-30-30" fill="#ff7f78"/></g><path d="m0 3v3l2-2z" fill="#ff918b"/><path d="m64 6l-2-2 2-1z" fill="#e75653"/><path d="m31.929 49.5c6.314 0 6.883-9.564 6.883-15.999 0-7.407-1.108-15.487-6.883-15.487-5.773 0-6.74 8.591-6.74 15.487-.001 6.376.517 15.999 6.74 15.999m-.002-34.595c10.337 0 18.07 7.476 18.07 18.915 0 10.1-7.328 19.27-18.07 19.27-10.639 0-17.929-9.171-17.929-19.27 0-11.349 7.496-18.915 17.927-18.915" fill="#ffdbdb" fill-rule="evenodd"/><path d="m32.5 18.06c-1.05.125-2.06.311-3.03.594-.022.006-.041.025-.063.031-3.555 2.156-4.219 9.07-4.219 14.813-.001 5.685.407 13.93 4.906 15.656-1.689-3.378-1.907-8.655-1.906-12.656 0-6.896.977-15.469 6.75-15.469.71 0 1.33.115 1.906.344-.956-1.861-2.34-3.114-4.344-3.313m13.656 3.531c2.431 3.168 3.844 7.324 3.844 12.219 0 10.1-7.32 19.281-18.06 19.281-4.13 0-7.735-1.405-10.625-3.688 3.171 4.01 7.911 6.688 13.625 6.688 10.743 0 18.06-9.18 18.06-19.281 0-6.648-2.626-11.937-6.844-15.219" fill="#7e0000" fill-opacity=".197" color="#000"/></svg>