<svg xmlns="http://www.w3.org/2000/svg" viewBox="0 0 64 64"><g color="#000"><path d="m0 4v30 28l2 2h30 30l2-2v-28-30h-32-32" fill="#6440c8"/><path d="m2 0l-2 1v3h32 32v-3l-2-1h-30-30" fill="#a147ff"/></g><path d="m0 3v3l2-2z" fill="#af63ff"/><path d="m64 6l-2-2 2-1z" fill="#7e43df"/><g transform="translate(.02-.781)"><path d="m10.613 23.847v24.962h.548 1.752v-17.08l2.916-.243v1.124c.162-.162.334-.317.517-.465.189-.155.385-.291.587-.405.209-.122.429-.219.658-.294.23-.074.465-.111.708-.111.533 0 .979.095 1.336.284.365.182.662.429.891.739.23.311.401.671.516 1.083.122.405.206.83.253 1.276.047.439.07.884.07 1.336.007.446.01.868.01 1.266 0 .365-.007.77-.02 1.215-.014.446-.054.894-.122 1.346-.061.452-.159.891-.294 1.317-.135.425-.327.803-.577 1.134-.243.331-.55.597-.922.8-.371.196-.827.294-1.367.294-.378 0-.705-.067-.982-.202-.277-.128-.51-.274-.699-.436-.223-.182-.412-.395-.567-.638v6.659h14.684v-17.08l2.916-.243v1.124c.162-.162.334-.317.517-.465.189-.155.385-.291.587-.405.209-.122.429-.219.658-.294.23-.074.465-.111.708-.111.533 0 .979.095 1.336.284.365.182.662.429.891.739.23.311.401.671.516 1.083.122.405.206.83.253 1.276.047.439.07.884.07 1.336.007.446.01.868.01 1.266 0 .365-.007.77-.02 1.215-.014.446-.054.894-.122 1.346-.061.452-.159.891-.294 1.317-.135.425-.327.803-.577 1.134-.243.331-.55.597-.922.8-.371.196-.827.294-1.367.294-.378 0-.705-.067-.982-.202-.277-.128-.51-.274-.699-.436-.223-.182-.412-.395-.567-.638v6.659h3.461c8.913-8.883 8.185-11.496 4.5-14.243-3.995-3.647-4.834-7.481-4.851-10.719h-12.159v9.262c.55-.513 1.078-.889 1.585-1.127.507-.238.986-.358 1.438-.358.33 0 .632.064.907.192.275.122.51.299.706.532.202.226.357.504.467.834.116.33.174.699.174 1.108v8.447h-2.639v-7.503c0-.483-.088-.831-.266-1.044-.171-.214-.388-.321-.651-.321-.244 0-.501.067-.77.202-.269.128-.587.302-.953.522v8.144h-2.639v-18.89h-10.581-.548m6.462 9.586c-.189 0-.361.044-.516.132-.148.081-.277.172-.385.273-.128.122-.243.256-.344.405v6.03c.081.176.183.33.304.465.101.115.229.223.385.324.162.094.355.142.577.142.203 0 .384-.051.546-.152.169-.101.314-.294.436-.577.122-.284.216-.678.283-1.184.067-.506.101-1.161.101-1.964 0-.729-.03-1.34-.091-1.833-.061-.5-.149-.901-.263-1.205-.115-.304-.26-.52-.435-.648-.176-.135-.375-.202-.598-.202m17.6 0c-.189 0-.361.044-.516.132-.149.081-.277.172-.385.273-.128.122-.243.256-.344.405v6.03c.081.176.183.33.304.465.101.115.229.223.385.324.162.094.355.142.577.142.203 0 .384-.051.546-.152.169-.101.314-.294.436-.577.122-.284.216-.678.283-1.184.068-.506.101-1.161.101-1.964 0-.729-.03-1.34-.091-1.833-.061-.5-.149-.901-.263-1.205-.115-.304-.26-.52-.435-.648-.176-.135-.375-.202-.598-.202" fill="#e4ddf8"/><path d="m42.761 13.75c-3.388 3.526-4.477 7.483-4.477 9.984 0 3.274.749 6.58 4.791 10.269 2.01 1.586 6.495 4.776-4.438 14.806h11.07c5.05-5.145 7.289-12.904-.177-20.37-6.491-6.386 1.894-11.523 4.507-14.689h-11.279" fill="#ef8d46"/></g></svg>