<svg xmlns="http://www.w3.org/2000/svg" viewBox="0 0 64 64"><g color="#000"><path d="m0 1l2-1h60l2 1v61l-2 2h-60l-2-2" fill="#3b577a"/><path d="m0 1l2-1h60l2 1v3h-64" fill="#668cbb"/></g><path d="m64 6l-2-2 2-1" fill="#162f4d" fill-opacity=".352"/><path d="m0 6l2-2-2-1" fill="#87bde7" fill-opacity=".547"/><g color="#000"><path d="m6 10h52v47h-52z" fill="#2c8fe4"/><g fill="#6ce3ff"><path d="m6 10v47h18.688l18-47h-36.688" fill-opacity=".177"/><g fill-opacity=".653"><path d="m39.531 10c-.375 6.23-1.802 12.177.094 16.344-1.2-4.478.95-10.311 2.094-16.344h-2.188"/><path d="m35.19 10c1.369 6.311 1.434 12.695 4.438 16.344-2.32-4.02-1.76-10.214-2.219-16.344h-2.219"/><path d="m30.19 10c3.561 6.181 5.208 13.323 9.438 16.344-3.495-3.495-4.47-10.225-6.781-16.344h-2.656"/><path d="m22.781 10c7.128 5.04 10.929 14.13 16.844 16.344-4.925-2.843-7.741-10.68-12.594-16.344h-4.25"/><path d="m13.844 10.438c-2.378-.063-4.971.476-7.844 1.781v2.813c15.72-5.89 24.409 10.419 33.625 11.313-7.969-2.135-14.385-15.605-25.781-15.906"/><path d="m13.625 17.25c-2.461.073-5.02.764-7.625 2.344v3.375c12.975-7.468 24.888 4.831 33.625 3.375-7.5 0-16.16-9.387-26-9.09"/><path d="m16.469 23.625c-3.668.133-7.244 1.271-10.469 4.344v4.094c10.618-10.98 25.497-2.02 33.625-5.719-6.158 1.65-14.883-3.02-23.16-2.719"/><path d="m39.625 26.344c-8.58 4.954-27.09-3.208-33.625 13.469v7.906c4.895-22.18 25.716-14.864 33.625-21.375"/><path d="m39.625 26.344c-8 8-32.951 2.812-28.656 30.656h1.813c-1.914-24.05 20.779-22.17 26.844-30.656"/><path d="m39.625 26.344c-5.15 8.919-26.694 10.932-21.969 30.656h2.438c-2.561-17.653 16.211-21.794 19.531-30.656"/><path d="m39.625 26.344c-2.423 9.04-19.407 16.06-15.219 30.656h3.03c-2.962-13.877 11.352-22.04 12.188-30.656"/><path d="m39.625 26.344c0 8.657-12.459 18.877-8.156 30.656h3.406c-4.275-11.819 6.094-22.589 4.75-30.656"/><path d="m39.625 26.344c2.164 8.08-6.523 20.563-.625 30.656h3.813c-6.955-10.278.177-23.261-3.188-30.656"/><path d="m39.625 26.344c4.33 7.5-1.381 22.609 8.25 30.656h5.344c-12.607-7.577-8.01-23.868-13.594-30.656"/><path d="m39.625 26.344c6.531 6.531 4.287 24.373 18.375 28.375v-3.281c-11.443-5.308-11.708-20.331-18.375-25.09"/><path d="m39.625 26.344c6.587 3.803 9.411 16.555 18.375 21.06v-3.75c-8.126-4.742-12.06-14.945-18.375-17.313"/><path d="m39.625 26.344c6.066 1.625 11.23 9.8 18.375 13.75v-3.219c-7.128-3.445-12.649-9.976-18.375-10.531"/><path d="m40.781 26.22c-.387.014-.781.063-1.156.125 5.497 0 11.62 5.02 18.375 7.594v-2.656c-6.436-1.705-12.287-5.246-17.219-5.063"/><path d="m44.31 25.406c-1.721.055-3.303.308-4.688.938 4.978-1.334 11.635 1.443 18.375 2.406v-2.406c-4.868-.073-9.668-1.065-13.688-.938"/><path d="m58 21.406c-6.929 1.877-14.337 1.614-18.375 4.938 4.463-2.577 11.616-1.592 18.375-2.406v-2.531"/><path d="m58 15.625c-6.559 4.496-15.02 6.02-18.375 10.719 3.888-3.888 11.776-4.666 18.375-7.625v-3.094"/><path d="m55.59 10c-5.106 6.805-13.806 10.571-15.969 16.344 3.199-5.54 12.744-8.394 18.375-14.5v-1.844h-2.406"/><path d="m49.06 10c-3.572 6.177-8.936 11.169-9.438 16.344 1.468-5.478 8.283-10.216 12.5-16.344h-3.063"/><path d="m43.938 10c-1.971 6.134-5.088 11.692-4.313 16.344 0-4.942 4.057-10.384 6.75-16.344h-2.438"/></g></g></g></svg>