<svg xmlns="http://www.w3.org/2000/svg" viewBox="0 0 64 64"><g color="#000"><path d="m0 4v30 28l2 2h30 30l2-2v-28-30h-32-32" fill="#1fa4d6"/><path d="m2 0l-2 1v3h32 32v-3l-2-1h-30-30" fill="#8cdeff"/></g><path d="m0 3v3l2-2" fill="#ace7ff"/><path d="m64 6l-2-2 2-1z" fill="#56c1eb"/><path d="m21.5 11c-6.9 0-12.5 5.6-12.5 12.5 0 2.131.527 4.15 1.469 5.906-.314 1.48-.469 3.02-.469 4.594 0 12.144 9.856 22 22 22 1.573 0 3.114-.154 4.594-.469 1.762.95 3.765 1.469 5.906 1.469 6.9 0 12.5-5.6 12.5-12.5 0-2.141-.519-4.144-1.469-5.906.314-1.48.469-3.02.469-4.594 0-12.144-9.856-22-22-22-1.574 0-3.113.185-4.594.5-1.757-.942-3.775-1.5-5.906-1.5" fill="#48c4f2"/><path d="m31.594 20.11c-6.875 0-10.938 3.094-10.938 8.406 0 5.779 7.533 7.272 12.188 7.906 4.357 1.167 4.5 1.847 4.5 3.75 0 2.372-2.995 3.281-5.03 3.281-6.147 0-5.693-4.469-8.969-4.469-1.688 0-2.5.563-2.5 2.688 0 2.125 4.375 6.219 11.25 6.219 6.875 0 11.25-2.656 11.25-7.969 0-5.469-4.525-7.087-10.5-8.688-3.974-.965-6.188-1.659-6.188-3.563 0-2.372 2.527-3.281 4.563-3.281 6.147 0 4.787 3.938 8.06 3.938 1.688 0 2.719-.344 2.719-2.469 0-2.125-3.531-5.75-10.406-5.75" fill="#fff" fill-rule="evenodd" fill-opacity=".901"/></svg>