<svg xmlns="http://www.w3.org/2000/svg" viewBox="0 0 64 64"><g color="#000"><path d="m0 4v30 28l2 2h30 30l2-2v-28-30h-32-32" fill="#2684ec"/><path d="m2 0l-2 1v3h19.563 19.563 24.875v-3l-2-1h-22.875-19.563-17.563" fill="#66b9ff"/></g><path d="m64 6l-2-2 2-1z" fill="#459df5"/><path d="m0 3v3l2-2" fill="#98d0ff"/><g color="#000"><path d="m49.25 16.841l-38 15.545 10.364 3.455 4.318 12.09 5.371-6.261 11.04 7.989 6.909-32.818" fill="#eff0f4"/><path d="m26.795 38.432l-.864 9.5 5.371-6.261-4.507-3.239" fill="#a1adc0"/><path d="m21.614 35.841l20.727-12.955-15.545 15.545-.864 9.5z" fill="#c3cad7"/></g></svg>