<svg xmlns="http://www.w3.org/2000/svg" viewBox="0 0 64 64"><g color="#000"><path d="m0 2v32 28l2 2h30 30l2-2v-28-32h-32zm4 3h7v8h-7zm49 0h7v8h-7zm-49 12h7v8h-7zm49 0h7v8h-7zm-49 12h7v8h-7zm49 0h7v8h-7zm-49 12h7v8h-7zm49 0h7v8h-7zm-49 12h7v8h-7zm49 0h7v8h-7z" fill="#aa3511"/><path d="m2 0l-2 1v1h32 32v-1l-2-1h-30z" fill="#e58c25"/></g><path d="m0 1v3l2-2" fill="#f2a144"/><path d="m64 4l-2-2 2-1z" fill="#c65e1c"/><g color="#000"><path d="m4 11v2h7v-2zm49 0v2h7v-2zm-49 12v2h7v-2zm49 0v2h7v-2zm-49 12v2h7v-2zm49 0v2h7v-2zm-49 12v2h7v-2zm49 0v2h7v-2zm-49 12v2h7v-2zm49 0v2h7v-2z" fill="#e58c25"/><path d="m33.09 7.5c-.051-.016-.091-.002-.125.031-.527.527-1.883.703-2.656.875-.656.146-1.279.592-1.844.875-.141.07-.514-.369-.719-.438-.458-.153-2.545.545-2.813.813-.289.289-.282.876-.531 1.125-.194.194-.78.372-.906.625-.114.229-.205.58-.344.719-.249.249.206 1.106-.094 1.406-.133.133-.649-.133-.781 0-.124.124-.355.273-.438.438-.248.495-.254-.129-.375-.25-.196-.196-.883-.644-1.219-.813-.474-.237-2.724.737-3.188.969-.74.37-.243 2.111-.344 2.313-.02.039-.329-.023-.375 0-.258.129-.725.324-.875.625-.184.368.108 1.299-.188 1.594-.515.515-1.724 1-2.469 1.5-.308.205-.339.674-.438.969-.124.373-.833 1.083-1.063 1.313-.375.375.25 2.062.188 2.125-.144.144-.32.221-.5.281v.406h-.969c-.053.055-.086.11-.125.188-.214.429.575 1.756.781 2.031.2.267.035.233.094.469.051.202.291.488.344.594.284.569.248 1.214.531 1.781.558 1.117.809.811 1.5 1.156.252.126.502.752.719.969.672.672 2.311.723 3.188.781.692-.138 1.767-.627 2.031-1.156.093-.185.202-.546.344-.688.303-.303.836-.324 1.25-.531.615-.308 1.149-.762 1.75-1.063.298-.149 1.572-.101 1.875 0 .492.164 1.222.065 1.688.344.677.406 1.679.826 2.625 1.063 1.212.303 2.773-.094 4-.094.616 0 2.114.271 2.656 0 .657-.329 3.378-1.103 4.063-.875 1.05.35 2.062.719 3.094 1.063.285.095.485.363.781.438 1.352.338 2.565.767 3.531 1.25.591.295 1.715.28 2.469.531.265.088.641-.088.906 0 .78.26 1.917.503 2.875.25v-4.5h1.594c-.173-.225-.341-.495-.5-.813-.119-.238.166-.793 0-1.125-.614-1.229-.799-1.424-1.781-2.406-.055-.055.179-.963.094-1.219-.148-.444-.719-1-.969-1.25-.016-.016.136-.935.094-1.063-.155-.465-.287-.88-.625-1.219-.767-.767-3.26-1.406-3.625-2.5-.153-.459.094-1.036.094-1.5 0-1.748.332-1.697-1.406-3-.338-.254-.806-.368-1.063-.625-.015-.015.136-.263.156-.344.04-.16.043-.609 0-.781-.258-1.03-1.644-2.27-2.813-2.563-.894-.224-1.586.239-2.219.781-.039.034-.824.676-.875.625-.313-.313-1.728-.135-1.938-.344-.088-.088-.099-.287-.188-.375-.206-.206-.516-.117-.781-.25-.354-.177-.802-.663-1.25-.813-.49-.163-1.011-.242-1.5-.438-.05-.02-.254-.232-.406-.281" fill="#e9d25f"/><g fill="#d99a32"><path d="m18.208 55.691c-.401-1.188-.156-2.761.619-3.536.219-.219.829-.099.972-.53.159-.478.023-1.042.177-1.503.192-.576 1.429-.559 1.591-.884.121-.242.052-.811.265-1.237.244-.487 1.404-.52 1.768-.884.116-.116.036-.593.442-.795.391-.196 1.199-.227 1.503-.53.234-.234-.343-1.38-.265-1.768.156-.782.984-.488 1.237-1.503.122-.49-.041-1.095-.177-1.503-.269-.806.458-1.63.177-2.475-.101-.302-.388-.599-.53-.884-.181-.362.04-.851-.088-1.237-.101-.303-.221-.618-.354-.884-.153-.306.153-.843 0-1.149-.097-.194-.327-.415-.442-.53-.068-.068-.039-.431-.088-.53-.238-.476.249-1.331-.265-1.503-.222-.074-.077-.165-.177-.265-.042-.042-.135.042-.177 0-.337-.337 1.2-1.191.265-1.503-.78-.26-1.295.676-1.679 1.061-.15.15-.585.054-.707.177-.061.061-.378.366-.53.442-.076.038-1.083.265-1.149.265-.355 0-.375-.481-.884-.354-.561.14-.726.922-.884 1.237-.026.053-.646.235-.707.265-1.124.562-1.256-1.246-1.591-1.414-.282-.141-.757.063-1.061-.088-.462-.231-.551-.993-.884-1.326-.14-.14-.408-.054-.53-.177-.075-.075-.088-.669-.088-.795 0-.966-.221-.984.707-1.679.106-.079.478-.125.53-.177.225-.225.219-.463.53-.619.25-.125.677-.058.884-.265.382-.382-.443-1.677-.177-2.21.369-.738 1.427-.897 1.945-1.414.066-.066.613 0 .707 0 .843 0 2.362-.273 3.182 0 .523.174 1.468.63 2.033.442 1.731-.577 2.36-.354 4.419-.354.121 0 .704.091.795 0 .24-.24.379-.909.619-1.149.04-.04.653-.159.707-.177.215-.072.57-.265.795-.265.207 0 .331.138.53.088.595-.149.001-.001.177-.177.4-.4 2.438.346 2.917.442 1.311.262 2.887-.246 4.154.177.804.268 1.497.794 2.298 1.061.367.122 1.535.033 1.768.265 1.12 1.12.987 1.156 2.21 1.768.318.159.638.78.884 1.149.18.269.715.538.884.707.138.138.195 1.028.265 1.237.133.398.683.671.884.972.372.558.512 1.289.795 1.856.178.355.286.918-.177 1.149-.275.138-5.32.26-5.568.177-.153-.051-.365-.315-.442-.354-.121-.061-.315-.025-.442-.088-.836-.418-1.527-1.32-2.563-1.061-.927.232-.925 1.013-1.414 1.503-.359.359-.996.843-1.237 1.326-.269.539-1.317 1.794-1.061 2.563.225.674.888 1.225.619 2.033-.136.408-.256.866-.442 1.237-.27.539.192 1.456 0 2.033-.109.326-.462 1.02-.265 1.414.392.784.784 1.845 1.237 2.298.193.193.058.734.177.972.131.261.458.651.619.972.314.628 1.148.706 1.503 1.061.336.336.383.971.53 1.414.158.475.614.879.972 1.237.896.896 2.182 1.829 3.01 2.652.399.399 1.1.521 1.414 1.149.116.231.226 1.227.088 1.503-.814 1.627-2.496 1.591-4.154 2.033-.66.176-1.263.394-1.945.53-1.338.268-2.64.721-3.977.972-.716.134-1.408.009-2.121.088-2.542.282-5.02.354-7.601.354-.578 0-.95.098-1.503.177-1.647.235-3.425-.11-4.95-.619-.459-.153-1.031-.412-1.414-.795-.186-.186-.865-2.158-.707-2.475.136-.272.423-.534.619-.795"/><path d="m28.2 32.887c-.328.982-.907 3.02-.53 4.154.183.55.354.875.354 1.503 0 .556-.558 1.067-.354 1.679.224.671.582 1.34.884 1.945.105.211-.088.708-.088.972 0 .171.075.557 0 .707-.234.469-.659.747-.972 1.061-.135.135-.112.953-.177 1.149-.149.447-.812.563-.972.884-.087.174.33.136.265.265-.161.322-.109.821 0 1.149.383 1.15.953-.55 1.237-.265.133.133.398.133.53.265.074.074.093.358.177.442.102.102-.486.575-.265.795.096.096 2.623-.268 2.121 1.237-.384 1.153-2.151 1.474-2.386 1.945-.007.013.647 1.032.53 1.149-.352.352-1.24-.078-1.414.619-.034.135-.109 1.129 0 1.237.387.387 2.035.357 2.298.884.053.106.735.414.884.265.476-.476-.125-2.01.088-2.652.124-.371.563-.712.795-1.061.144-.217.306-.595.53-.707.101-.051.559-.413.707-.265.505.505.716 1.423 1.237 1.945.171.171-.032.852.177 1.061.541.541 2.043.109 2.475.972.333.667-.976 2.21.354 2.21.156 0 .666.086.795 0 .573-.382 1.592-.885 2.033-1.326.064-.064 0-.428 0-.53 0-.501-.385-1.85-.265-2.21.18-.54 2.475-1.247 2.475-1.326 0-.23-2.599-.389-2.917-.707-.471-.471-1-1.21-1.326-1.856-.184-.368-.174-1.231-.442-1.768-.118-.236-.483-.041-.619-.177-.365-.365-.918-.565-1.237-.884-.306-.306.09-1.504.265-1.679.109-.109-.15-.625-.177-.707-.184-.553-.077-1.17-.177-1.768-.085-.508-.252-.996-.354-1.503-.158-.789.195-1.696 0-2.475-.183-.732-.733-1.314-.972-2.033-.1-.299-.099-.662-.177-.972-.18-.719.298-2.408 0-3.01-.215-.429-.583-.697-.884-1.149-.345-.518-.973-1.723-1.945-1.237-.212.106-.382.363-.619.442-.893.298-1.4.645-1.945 1.326"/></g><path d="m44.09 48.813c-.289 0-.211.812-.25.969-.259 1.034-.808 1.905-1.594 2.625-.538.493-1.106.983-1.594 1.531-.125.141-.532.438-.344.438.121 0-.26.055-.375.094-.747.249-1.512.409-2.281.594-.799.192-5.422.953-6.094.281-.058-.058-.066-.22-.188-.281-.278-.139-.419.206-.875-.25-.046-.046-.271-.541-.375-.438-.159.159-.289.558-.438.781-.928 1.391-2.357 1.054-3.688.813-.948-.172-1.429-.822-2.125-1.344-.08-.06-.776-.755-.906-.625-.069.069-.033.288-.063.375-.221.662-1.186 1.802-1.875 2.031-.516.172-.836-.973-1.156-.813-.291.146-1.297 1.211-1.594 1.063-.728-.364-1.066-2.388-1.125-3.094-.037-.446.026-1.219 0-1.219-.187 0-.351.458-.531.594-1.164.873-1.616 1.027-2.938 1.688-.483.241-1.34-1.406-1.656-1.406-.066 0 .033.129.063.188.066.132 0 .29 0 .438 0 .12.122 2.404-.156 2.125-.062-.062-.282-.125-.344-.188-.112-.112-.09-.312-.188-.438-.126-.162-.273-.311-.406-.469v6.125h-7v-7.938c-.009-.003-.022.003-.031 0 .002-.026-.042-.073-.094-.125-.4-.4-1.381-.088-1.75.281-.876.876-.681 2.082-.344 3.094.135.405 1.657 1.459 1.938 1.594-.805-.161-1.092-.217-1.688-.813-.731-.731-1.408-1.545-2.031-2.375v.188l.531 1.063c.256.512 2.557 3.068 2.375 3.25-.008.008-.771-.248-.781-.25-.809-.202-1.468-.674-2.125-1.125v4.156l2 2h30 30l2-2v-2.688c-1.098.352-2.146.932-3.375.625-.046-.011-.419.037-.438 0-.106-.212.1-.848.281-.969.714-.476 2.131-1.626 3.531-2.594v-.656c-.722.135-1.491.243-2.031.063-.636-.212.644-1.613.875-1.844.049-.049.316-.375.25-.375-.838 0-1.927 1.56-3.094 2.5v4.938h-7v-6.188c-.867.805-3.397 2.826-4.469 2.469-.434-.145.303-1.807.344-2.031.094-.52.356-.972.438-1.5.003-.02-.001-.042 0-.063-.157.159-.322.329-.438.406-.159.106-.967.783-1.219.531-.047-.047-.028-.156-.094-.156-.172 0-.178.3-.281.438-.227.303-.655.531-.969.688-.54.27-.481-.32-.406-.75-.036.107-.067.216-.125.313-.268.446-1.123 1.813-1.938 1.406-.048-.024-.265-.2-.281-.25-.15-.449.275-5.904.281-5.938.003-.013.359-1.563.25-1.563m1.813 6.03c.015-.044.048-.081.063-.125.006-.017-.005-.25 0-.25.029 0-.026.164-.063.375m3.406-1.156c.683-.69 1.618-1.94 1.938-2.5.194-.34.341-.746.531-1.063.054-.089.23-.274.281-.344-.488.244-2.536 2.788-2.75 3.344-.067.173.006.376 0 .563m-42.31-4.688c.034 1.262.738 3.21 1.031 4h1.406c-.476-.627-.882-1.317-1.125-2.094-.057-.181-.318-1.13-.563-1.906h-.75m50.625.938c-.097.073-.247.021-.344.094-.606.455-1.24 1.24-1.781 1.781-.365.365-.691.768-1 1.188h2.25c-.16-.297.689-2.34.875-3.063m-52.594.625c-.042-.042.026.135 0 .188-.09.179-.212.306-.344.438-.302.302.098 1.27-.063 1.813h2.094c-.379-.504-.749-1.054-1.156-1.563-.2-.249-.313-.657-.531-.875m57.09.281c-.349 0-.667.482-.938.75.23-.065.454-.126.594-.219.177-.118.556-.531.344-.531m-.938.75c-.296.084-.6.161-.813.219-.335.091-1.336.121-1.594.25-.177.088-1.106.725-1.656.938h2.344c.191-.256.382-.513.469-.594.346-.32.748-.414 1.125-.688.035-.025.088-.088.125-.125" fill="#ce5926"/><path d="m7.594 51.719c-.312.156-.371.656-.313 1.281h.844c-.208-.688-.453-1.32-.531-1.281m36.781.781c-.289 0-.242.812-.281.969-.259 1.034-.808 1.936-1.594 2.656-.538.493-1.075.951-1.563 1.5-.11.123-.451.378-.406.438.041.007-.207.059-.313.094-.747.249-1.543.44-2.313.625-.799.192-5.422.953-6.094.281-.058-.058-.034-.22-.156-.281-.278-.139-.45.206-.906-.25-.046-.046-.24-.573-.344-.469-.159.159-.289.589-.438.813-.928 1.391-2.388 1.023-3.719.781-.948-.172-1.429-.791-2.125-1.313-.08-.06-.745-.755-.875-.625-.069.069-.065.256-.094.344-.221.662-1.155 1.833-1.844 2.063-.516.172-.836-.973-1.156-.813-.291.146-1.297 1.211-1.594 1.063-.728-.364-1.097-2.388-1.156-3.094-.037-.446.026-1.25 0-1.25-.187 0-.351.489-.531.625-1.164.873-1.585 1.027-2.906 1.688-.483.241-1.372-1.406-1.688-1.406-.066 0 .064.097.094.156.066.132 0 .321 0 .469 0 .12.091 2.372-.188 2.094-.062-.062-.282-.094-.344-.156-.112-.112-.09-.312-.188-.438-.212-.272-.428-.549-.656-.813v2.75h-7v-4.438c-.457-.239-1.293.043-1.625.375-.876.876-.681 2.082-.344 3.094.135.405 1.657 1.459 1.938 1.594-.805-.161-1.061-.217-1.656-.813-.731-.731-1.44-1.545-2.063-2.375-.088-.118-.103-.375-.25-.375v.125c.049.079.152.18.188.25l.594 1.219c.256.512 2.588 3.1 2.406 3.281-.008.008-.803-.248-.813-.25-.912-.228-1.635-.779-2.375-1.281v.594l2 2h30 30l.375-.375c-.473.107-.945.162-1.469.031-.046-.011-.419.037-.438 0-.106-.212.069-.848.25-.969.665-.443 1.976-1.486 3.281-2.406v-.781c-.647.106-1.309.157-1.781 0-.636-.212.644-1.644.875-1.875.049-.049.347-.344.281-.344-.907 0-2.1 1.829-3.375 2.719v1h-7v-2.25c-1.033.904-3.232 2.579-4.219 2.25-.434-.145.334-1.807.375-2.031.094-.52.356-.972.438-1.5.003-.02-.001-.042 0-.063-.163.166-.319.327-.438.406-.159.106-.998.783-1.25.531-.047-.047-.028-.188-.094-.188-.172 0-.147.3-.25.438-.227.303-.655.562-.969.719-.579.29-.453-.416-.375-.844-.047.141-.08.279-.156.406-.268.446-1.155 1.813-1.969 1.406-.048-.024-.233-.2-.25-.25-.15-.449.244-5.904.25-5.938.003-.013.39-1.594.281-1.594m5.219 4.906c.682-.693 1.62-1.944 1.938-2.5.194-.34.341-.746.531-1.063.076-.126.382-.441.25-.375-.488.244-2.505 2.819-2.719 3.375-.067.173.007.376 0 .563m12.813-2.875c-.349 0-.667.513-.938.781.23-.065.454-.157.594-.25.177-.118.556-.531.344-.531m-.938.781c-.296.084-.631.13-.844.188-.129.035-.38.065-.625.094v.781c.057-.067.151-.217.188-.25.346-.32.78-.414 1.156-.688.035-.025.088-.088.125-.125" fill="#9d3c1e"/><path d="m28.373 28.91c.094.555-.604 2.747-.265 2.917.549.275.752.842.972 1.503.177.531-.733.833-.442 1.414.653 1.305.116 2.47.442 3.447.179.537.466 1.07.619 1.679.082.327.191 2.828.442 2.828.206 0 0-.412 0-.619 0-.737 0-1.473 0-2.21 0-1.901-.052-3.608.795-5.303.33-.659 1.237 2.255 1.237 2.563 0 .338-.056 1.39.088 1.679.363.727.809 1.543 1.061 2.298.379 1.136-.286 2.589.088 3.712.063.19.177.509.177.707 0 .417 1.211 1.705 1.414 1.503.248-.248-.318-1.393-.354-1.679-.096-.772-.2-1.692-.088-2.475.056-.389.493-2.373.265-2.828-.356-.712-.421-1.508-.619-2.298-.165-.659.612-2.727.884-3.27.371-.743-.288-1.988.088-2.74.321-.642 1.167-1.485.442-2.21-.467-.467-1.266-.803-1.945-.972-.428-.107-1.448.231-1.768-.088-.052-.052-2.784-.133-2.917 0-.195.195-.167.261-.619.442" fill="#e9d25f"/><g fill="#d99a32"><path d="m20.683 28.821c-.466.171-1.346.653-1.945.354-.19-.095-.541-.409-.707-.354-.337.112-1.877.686-2.21.354-.386-.386-1.1-.851-1.679-1.237-.315-.21-.334-.688-.53-.884-.042-.042-.135.042-.177 0-.057-.057.013-.554 0-.619-.392-1.962.616-1.412 1.591-2.386.24-.24-.157-1.189 0-1.503.759-1.518 1.814-.554 2.121-.707.402-.201.541-.546 1.061-.442.422.084 1.569 1.039 1.856 1.326.155.155.203-.826.619-.619.426.213.712.623.972.884.28.28 1.285-.19 1.591-.088.545.182 1.117.972 1.591.972.731 0 1.493-.732 2.298-.53.207.052 1.397.724 1.414.707.056-.056-.006-.658 0-.707.056-.501.431-2.479.619-2.917.391-.912 1.07-1.768 2.033-1.768.171 0 .557.075.707 0 .249-.125.481-.449.707-.619.948-.711 2.928-.773 3.977-.354.286.114.704.174.884.354.035.035-.017.215 0 .265.364 1.093-.442 1.306-.442 2.033 0 .091-.154.111-.088.177.27.27 1.087.557 1.414.884.177.177-.177.884 0 1.061.159.159 1.896-1.021 2.386-.53.077.077.368.293.442.442.063.125.004.623.088.707.201.201 2.071-.05 2.21.088.216.216.634.45.972.619.094.047.275.01.354.088.503.503.165 1.116 1.061 1.414.064.021.392.039.442.088.409.409 2.559 3.275 2.033 3.801-.919.919-4.864.795-6.276.795-.376 0-1.128-.276-1.503-.088-.95.475-2.166 1.105-3.359.707-.83-.277-1.961-.712-2.652-1.326-.22-.195-.792-1.03-.884-1.061-.387-.129-1.877.939-2.298 1.149-.577.289-1.912-.472-2.74-.265-2.47.617-2.477.412-4.773-.354-.416-.139-.84.074-1.149.177-.502.167-1.538.011-2.033-.088"/><path d="m13.875 19.906c-.383 0-.831.067-1.25.219-.132.231-.179.537-.25.75-.124.373-.833 1.083-1.063 1.313-.375.375.25 2.062.188 2.125-.144.144-.319.223-.5.281v.406h-.969c-.053.054-.086.11-.125.188-.214.429.575 1.756.781 2.031.2.267.035.233.094.469.051.202.291.488.344.594.01.021.022.041.031.063.051.011.106.019.156.031.171.043.373-.079.531 0 .08.04.073.472.25.531 1.044.348 3.727 1.485 2.5-.969-.033-.066.506-.163.781-.438.243-.243.466-1.567.281-1.938-.155-.309-.409-.287-.531-.531-.077-.154.26-.333.156-.438-.222-.222-.56-.217-.875-.375-.496-.248-1-.659-1.313-.969-.204-.204.185-.81.25-.875.039-.039.453-.008.719 0-.175-.088-.74-.574-.813-.719-.089-.177-.232-1.081 0-1.313.151-.151.364-.33.625-.438"/></g><path d="m45.785 18.834c.641-.041 2.043.599 1.591 1.503-.099.198-.442.293-.442.53 0 1.282.159 1.378.619 2.298.158.317-.405.921-.354.972.164.164 1.696.426 1.945.177.075-.075-.177-.118-.265-.177-.195-.13-.07-.866.088-.972.283-.189 1.149-.932 1.149-.972 0-.622-1.651-.679-1.945-.972-.576-.576-.212-1.572-.354-1.856-.134-.268-1.325-1.061-1.591-.884-.157.105-.295.236-.442.354" fill="#ce5926"/><g fill="#e9d25f"><path d="m24.749 13.619c-.288 1.096-.037 2.574 1.237 2.828.114.023 1.101-.096 1.149 0 .089.177.283.495.53.619.291.145.842.188 1.149.265.168.042.745.379.795.354.43-.215 1.068-2.081 2.033-2.563.811-.405 2.472 1.033 3.359.442.598-.399.512-1.661.972-2.121.118-.118 1.366-.152 1.591-.177.031-.003.975-.085 1.061 0 .207.207.14.545.265.795.153.306.566.919.795 1.149.208.208 1.732.495 1.945.177.249-.374.508-1.482.354-1.945-.064-.193-.527-.524-.619-.707-.136-.272-.184-.887-.53-1.061-.935-.468-3.131-.196-3.624-.442-1.203-.601-2.43-.619-3.889-.619-.956 0-1.76.435-2.386 1.061-.268.268-2.908-.093-3.447.177-.705.353-1.52.937-2.121 1.237-.012.006-.172.529-.177.53-.144.029-.295 0-.442 0"/><path d="m22.893 16.01c-.92.416-1.952-.085-2.652.265-.298.149-.736-.413-1.326.177-.259.259-.011.89-.354 1.061-.36.18-1.148.352-1.414.619-.271.271.862 1.371.972 1.591.09.18.26.083.354.177.061.061-.067 2.075.088 2.386.372.745 1.142 1.057 1.679 1.326.312.156.833-.07 1.149.088.299.149 1.549.949 1.856.795 1.187-.593.413-2 .884-2.475.332-.332 1.043-.566 1.503-.795.293-.147 1.106.22 1.326 0 .124-.124.182-.764.265-.972.136-.34.776-.826.795-.884.097-.291-.283-.318-.354-.53-.412-1.237-.836-1.455-1.591-2.21-.099-.099-.341-.896-.177-1.061.291-.291.864-.496.795-.53-.028-.014-2.092.501-2.121.53-.042.042.042.135 0 .177-.18.18-1.409.211-1.679.265"/><path d="m37.477 20.248c-.464-1.86.81-2.067 2.033-2.475.275-.092.713.041.972-.088.247-.123.748-.421 1.061-.265.723.362 1.104.95 1.679 1.237.732.366 1.484.335 2.033.884.074.074.28.015.354.088.11.11.096 1.172.177 1.414.522 1.565.529 1.622-.884 2.563-.757.505-1.599.795-2.475.795-1.4 0-1.14-.521-1.945-1.326-.131-.131-.414-.21-.53-.442-.093-.186-.28-.979-.442-1.061-.058-.029-.773-.332-.795-.354-.202-.202-.472-.472-.707-.707-.066-.066.003-.247-.088-.265-.144-.029-.295 0-.442 0"/><path d="m31.643 30.501c-.174.722-.352 1.946.088 2.386.143.143-.066.864 0 1.061.114.342.228.897.354 1.149.13.259-.13.713 0 .972.231.463.486.971.707 1.414.173.346.362 1.495.884.972.487-.487-.181-1.514-.354-1.945-.364-.91-.978-1.92-.707-3.01.083-.331.584-3.216.442-3.359-.056-.056-.28.037-.354 0-.501-.251-.648.024-1.061.354"/><path d="m31.643 47.03c-1.425 2.214.105 1.819.354 2.563.044.133-.044.309 0 .442.454 1.361 1.719 2.7 3.182 1.237.162-.162.115-.887 0-1.061-.189-.283-.664-.774-.884-.884-.109-.054-.002-.268-.088-.354-.413-.413-.922-1.522-1.414-1.768-.271-.135-.834-.114-1.149-.177"/><path d="m24.837 53.659c-.691-.174-1.278-.709-1.945-.265-.94.627-1.432 1.714-1.061 2.828.046.138.519.63.707.442 1.256-1.256.166-2.152 2.298-3.01"/></g><g fill="#ce5926"><path d="m17.06 25.06c-.86.354-3.223.107-3.563 1.125-.136.408.322 1.572.563 1.813.15.15.356.169.5.313.174.174.05.674.25.875.792.792 3.02 1.57 4.313 1.313.941-.188.504-.757.875-1.313.262-.394 1.194-1.556.688-2.063-.134-.134-.489-.353-.625-.625-.187-.373-.304-.808-.688-1-.424-.212-1.149.144-1.563-.063-.271-.136-.399-.235-.75-.375"/><path d="m27.813 25.625c.567.342 1.078.717 1.75.813.098.014.783-.092.875 0 .422.422 1.55 1.067 2.313.813.462-.154.878-.345 1.313-.563.255-.128.621-.061.875-.188.302-.151.416-.479.688-.75.252-.252.673-.361.938-.625.042-.042.14-.423.125-.438-.317-.317-.271-1.188 0-1.188.059 0 .128 1.865.063 2.063-.056.167-.186.561-.313.688-.392.392-1.049.549-1.438.938-.252.252-.884 1.024-1.188 1.125-.302.101-.783.126-1.063.313-.151.1-.9.213-.938.25-.029.029.029.096 0 .125-.21.21-1.316.202-1.625.125-.287-.072-1.875-.937-2.063-1.125-.17-.17-.338-.276-.5-.438-.084-.084-.132-.359-.25-.438-.307-.205-.815-1.245-.563-1.75.311-.621.914-2.273 1.813-1.375.184.184-.392.535-.438.625-.046.092.07.367 0 .438-.153.153-.212.291-.375.563"/><path d="m38.75 30.625c.741-.166 1.438-.751 1.75-1.375.21-.42.028-.993.25-1.438.311-.623 1.22-.845 1.563-1.188.055-.055.133-.516.188-.625.184-.369.471-.36.75-.5.156-.078.545-.227.75-.125.125.063 1.355 1.147 1.375 1.188.1.201.173.548.375.75.123.123.413.163.563.313.162.162.221.504.313.688.295.589.54 1.272-.125 1.938-.035.035-.182.247-.188.25-.395.197-.942.204-1.375.313-.159.04-.408.204-.5.25-.149.075-.427-.029-.563-.063-.216-.054-.472.054-.688 0-.573-.143-1.085-.32-1.625-.5-.705-.235-2.184-.084-2.813.125"/></g></g></svg>