<svg xmlns="http://www.w3.org/2000/svg" viewBox="0 0 64 64"><g color="#000"><path d="m0 4v30 28l2 2h30 30l2-2v-28-30h-32-32" fill="#5c3ed2"/><path d="m2 0l-2 1v3h32 32v-3l-2-1h-30-30" fill="#a279ff"/></g><path d="m0 3v3l2-2z" fill="#b696ff"/><path d="m64 6l-2-2 2-1z" fill="#7a58e5"/><g fill="#dddcef" color="#000"><path d="m36 19.05c-6.293 0-7.634 4.616-7.493 7.351l.212 2.333c-1.761.021-.908 4.757.353 4.595.555 2.01 1.584 3.282 2.686 4.241.235 1.558.148 2.653.071 4.03-4.301 2.854-11.663 3.405-11.663 4.595 0 2.725 6.343 4.807 15.834 4.807 9.491 0 15.834-2.081 15.834-4.807 0-1.189-7.362-1.74-11.663-4.595-.077-1.377-.164-2.471.071-4.03 1.102-.959 2.131-2.231 2.686-4.241 1.262.162 2.114-4.572.353-4.595l.212-2.333c.141-2.735-1.2-7.351-7.493-7.351"/><path d="m22.719 16.219c-5.355 0-6.495 3.954-6.375 6.281l.156 1.969c-1.498.018-.761 4.04.313 3.906.473 1.711 1.344 2.809 2.281 3.625.2 1.326.128 2.235.063 3.406-3.66 2.429-9.938 2.925-9.938 3.938 0 2.163 4.751 3.814 11.938 4.03.812-.259 1.72-.511 2.719-.781 2.02-.545 4.208-1.289 5.938-2.219.028-.664.049-1.352-.031-2.063-.493-.507-.933-1.099-1.344-1.781-.776-.325-1.529-.688-2.188-1.125-.046-.824-.075-1.536-.031-2.344-.225-.558-.36-1.122-.438-1.719-.103-.795-.111-1.602.188-2.5.116-.348.365-.709.656-1.063l-.125-1.188v-.063-.031c-.09-1.751.252-4.01 1.719-6 .153-.207.321-.4.5-.594-.679-1.885-2.376-3.688-6-3.688" fill-opacity=".513"/></g></svg>