<svg xmlns="http://www.w3.org/2000/svg" viewBox="0 0 64 64"><g color="#000"><path d="m0 4v30 28l2 2h30 30l2-2v-28-30h-32-32" fill="#aeb4c3"/><path d="m2 0l-2 1v3h19.563 19.563 24.875v-3l-2-1h-22.875-19.563-17.563" fill="#e7ecf0"/></g><path d="m0 3v3l2-2" fill="#f2f5f7"/><path d="m64 6l-2-2 2-1" fill="#ccd1db"/><g color="#000"><path d="m17.508 22.08c-2.498 0-4.508 2.01-4.508 4.508v21.898c0 2.498 2.01 4.508 4.508 4.508h21.898c2.498 0 4.508-2.01 4.508-4.508v-21.898c0-2.498-2.01-4.508-4.508-4.508zm6.441 7.085h9.02c2.141 0 3.864 1.724 3.864 3.864v9.02c0 2.141-1.724 3.864-3.864 3.864h-8.373c-2.141 0-4.508-3.01-4.508-5.153v-7.729c0-2.141 1.724-3.864 3.864-3.864" fill="#e78121"/><path d="m24.594 15c-2.498 0-4.5 2-4.5 4.5v2.594h10.938 8.375c.134 0 .271.013.406.031.074.007.146.021.219.031.062.012.125.015.188.031 1.838.335 3.259 1.756 3.594 3.594.034.135.045.271.063.406.012.136.031.267.031.406v6.438 1.938c0 2.141-1.703 3.875-3.844 3.875h-9.03c-2.141 0-3.875-1.734-3.875-3.875v-5.813h-3.219c-2.141 0-3.844 1.734-3.844 3.875v8.375c0 2.498 2 4.5 4.5 4.5h21.906c2.498 0 4.5-2 4.5-4.5v-21.906c0-2.498-2-4.5-4.5-4.5h-21.906" fill="#3e7ce2" fill-rule="evenodd"/></g></svg>