<?xml version="1.0" encoding="UTF-8" standalone="no"?>
<!-- Created with Inkscape (http://www.inkscape.org/) -->

<svg
   xmlns:dc="http://purl.org/dc/elements/1.1/"
   xmlns:cc="http://creativecommons.org/ns#"
   xmlns:rdf="http://www.w3.org/1999/02/22-rdf-syntax-ns#"
   xmlns:svg="http://www.w3.org/2000/svg"
   xmlns="http://www.w3.org/2000/svg"
   xmlns:sodipodi="http://sodipodi.sourceforge.net/DTD/sodipodi-0.dtd"
   xmlns:inkscape="http://www.inkscape.org/namespaces/inkscape"
   width="64"
   height="64"
   id="svg13094"
   version="1.1"
   inkscape:version="0.91+devel r"
   sodipodi:docname="whatsapp.svg">
  <sodipodi:namedview
     id="base"
     pagecolor="#ffffff"
     bordercolor="#666666"
     borderopacity="1.0"
     inkscape:pageopacity="0"
     inkscape:pageshadow="2"
     inkscape:zoom="11.313709"
     inkscape:cx="20.08507"
     inkscape:cy="30.560808"
     inkscape:document-units="px"
     inkscape:current-layer="svg13094"
     showgrid="false"
     inkscape:snap-bbox="true"
     inkscape:bbox-paths="true"
     inkscape:bbox-nodes="true"
     inkscape:snap-bbox-edge-midpoints="true"
     inkscape:snap-bbox-midpoints="true"
     inkscape:object-paths="true"
     inkscape:snap-intersection-paths="true"
     inkscape:object-nodes="true"
     inkscape:snap-smooth-nodes="true"
     inkscape:snap-midpoints="true"
     inkscape:snap-object-midpoints="true"
     inkscape:snap-center="true"
     showguides="false"
     inkscape:guide-bbox="true"
     inkscape:window-width="1920"
     inkscape:window-height="1025"
     inkscape:window-x="-2"
     inkscape:window-y="32"
     inkscape:window-maximized="1"
     inkscape:snap-global="false"
     fit-margin-top="0"
     fit-margin-left="0"
     fit-margin-right="0"
     fit-margin-bottom="0"
     showborder="true"
     inkscape:showpageshadow="false"
     inkscape:snap-page="true">
    <inkscape:grid
       type="xygrid"
       id="grid3075"
       empspacing="5"
       visible="true"
       enabled="true"
       snapvisiblegridlinesonly="true"
       originx="1.6362304e-08px"
       originy="18px" />
    <sodipodi:guide
       orientation="0,1"
       position="-11,30"
       id="guide9148" />
    <sodipodi:guide
       orientation="1,0"
       position="32,70"
       id="guide9150" />
  </sodipodi:namedview>
  <defs
     id="defs13096" />
  <metadata
     id="metadata13099">
    <rdf:RDF>
      <cc:Work
         rdf:about="">
        <dc:format>image/svg+xml</dc:format>
        <dc:type
           rdf:resource="http://purl.org/dc/dcmitype/StillImage" />
        <dc:title></dc:title>
      </cc:Work>
    </rdf:RDF>
  </metadata>
  <path
     id="path6538"
     d="m 0,4 0,30 0,28 2,2 30,0 30,0 2,-2 L 64,34 64,4 32,4 0,4 z"
     style="color:#000000;fill:#3cc236;fill-opacity:1;fill-rule:nonzero;stroke:none;stroke-width:2.28571415;marker:none;visibility:visible;display:inline;overflow:visible;enable-background:accumulate"
     inkscape:connector-curvature="0" />
  <path
     style="color:#000000;fill:#8aff71;fill-opacity:1;fill-rule:nonzero;stroke:none;marker:none;visibility:visible;display:inline;overflow:visible;enable-background:accumulate"
     d="M 2 0 L 0 1 L 0 4 L 19.5625 4 L 39.125 4 L 64 4 L 64 1 L 62 0 L 39.125 0 L 19.5625 0 L 2 0 z "
     id="path6688" />
  <path
     id="path3007"
     d="m 11.813286,45.885107 c -8.7760808,13.000795 -4.3880405,6.500398 0,0 z M 32.55576,13.023802 c 11.228157,0 20.35049,9.122333 20.35049,20.35049 0,11.229126 -9.122333,20.383156 -20.35049,20.383156 -4.136155,0 -7.988484,-1.237169 -11.204203,-3.364527 l -7.839675,2.482563 2.547895,-7.545687 c -2.438042,-3.357027 -3.887173,-7.498504 -3.887173,-11.955505 0,-11.228157 9.154515,-20.35049 20.383156,-20.35049 z"
     style="color:#000000;fill:#3cc236;fill-opacity:1;fill-rule:nonzero;stroke:none;stroke-width:2;marker:none;visibility:visible;display:inline;overflow:visible;enable-background:accumulate"
     inkscape:connector-curvature="0"
     sodipodi:nodetypes="ccssscccss" />
  <path
     d="M 64,6 62,4 64,3 z"
     id="path3028"
     style="fill:#65cf58;fill-opacity:1"
     inkscape:connector-curvature="0" />
  <g
     id="g3043"
     inkscape:export-filename="folder.png"
     inkscape:export-xdpi="90"
     inkscape:export-ydpi="90"
     transform="translate(-0.62500009,0.082283)" />
  <g
     id="scalable"
     transform="matrix(1.0385892,0,0,1.0385892,1214.7222,1878.8121)"
     inkscape:label="#g3701"
     style="fill:#ffffff" />
  <path
     style="fill:#a6ff93;fill-opacity:1;fill-rule:nonzero"
     d="M 0,3 0,6 2,4 Z"
     id="path4298"
     inkscape:connector-curvature="0"
     sodipodi:nodetypes="cccc" />
  <g
     style="opacity:0.119995"
     id="g3053"
     transform="matrix(0.46296297,0,0,-0.46296297,3.296296,62.703704)" />
  <path
     inkscape:connector-curvature="0"
     style="color:#000000;fill:#eaffe2;fill-opacity:1;fill-rule:nonzero;stroke:none;stroke-width:2;marker:none;visibility:visible;display:inline;overflow:visible;enable-background:accumulate"
     d="M 32.4375,10.21875 C 19.639815,10.21875 9.25,20.577315 9.25,33.375 c 0,4.377778 1.233565,8.476158 3.34375,11.96875 l -4.1875,12.4375 12.8125,-4.09375 c 3.319907,1.836575 7.15625,2.875 11.21875,2.875 12.797222,0 23.15625,-10.390277 23.15625,-23.1875 0,-12.797685 -10.359028,-23.15625 -23.15625,-23.15625 z m 0,3.6875 c 10.741667,0 19.46875,8.727083 19.46875,19.46875 0,10.742593 -8.727083,19.5 -19.46875,19.5 -3.956945,0 -7.642361,-1.183565 -10.71875,-3.21875 l -7.5,2.375 2.4375,-7.21875 C 14.323843,41.600925 12.9375,37.638889 12.9375,33.375 c 0,-10.741667 8.75787,-19.46875 19.5,-19.46875 z M 24.625,22.8125 c -0.378703,0 -0.979629,0.150231 -1.5,0.71875 -0.520833,0.568518 -2,1.924305 -2,4.71875 0,2.794907 2.028704,5.496296 2.3125,5.875 0.284259,0.379167 3.944213,6.319676 9.71875,8.59375 5.775,2.273611 5.771296,1.500694 6.8125,1.40625 1.041203,-0.09491 3.370139,-1.361574 3.84375,-2.6875 0.473148,-1.326388 0.454167,-2.481712 0.3125,-2.71875 -0.142129,-0.237037 -0.525695,-0.371528 -1.09375,-0.65625 -0.567593,-0.283797 -3.354167,-1.654398 -3.875,-1.84375 C 38.635417,36.029398 38.253704,35.931481 37.875,36.5 c -0.378703,0.568518 -1.449768,1.840047 -1.78125,2.21875 -0.331481,0.378704 -0.682408,0.440046 -1.25,0.15625 -0.568056,-0.284722 -2.392593,-0.878241 -4.5625,-2.8125 -1.688426,-1.505556 -2.824769,-3.368981 -3.15625,-3.9375 -0.331482,-0.568518 -0.03426,-0.87338 0.25,-1.15625 0.255555,-0.25463 0.559953,-0.668055 0.84375,-1 C 28.503009,29.637269 28.591898,29.37963 28.78125,29 28.970602,28.621297 28.89213,28.315509 28.75,28.03125 28.60787,27.746991 27.473148,24.949537 27,23.8125 c -0.473148,-1.137037 -0.949768,-0.96875 -1.28125,-0.96875 -0.331481,0 -0.715046,-0.03125 -1.09375,-0.03125 z"
     id="path3780" />
</svg>
