<svg xmlns="http://www.w3.org/2000/svg" viewBox="0 0 64 64"><g color="#000"><path d="m0 4v30 28l2 2h30 30l2-2v-28-30h-32-32" fill="#aeb4c3"/><path d="m2 0l-2 1v3h19.563 19.563 24.875v-3l-2-1h-22.875-19.563-17.563" fill="#e7ecf0"/></g><path d="m0 3v3l2-2z" fill="#f2f5f7"/><path d="m41.28 0v4h22.719v-3l-2-1h-20.719" fill="#ee719a"/><path d="m41.28 4v.125c3.98.377 7.811 2.055 10.844 4.656.062.053.126.103.188.156 6.077 4.32 10.419 10.927 11.688 18.594v-23.531h-22.719m22.719 32.938c-2.242 13.555-14.01 24.411-28.19 23.875-18.16-.687-28.965-11.777-35.813-19.656v20.844l2 2h30 30l2-2v-25.06" fill="#9f254d"/><path d="m64 6l-2-2 2-1z" fill="#c2476f"/><path d="m19 47l26-26m-26 0l26 26" fill="none" stroke="#9f254d" color="#000" stroke-width="4"/></svg>