<svg xmlns="http://www.w3.org/2000/svg" viewBox="0 0 64 64"><g color="#000"><path d="m0 4v30 28l2 2h30 30l2-2v-28-30h-32-32" fill="#e26f28"/><path d="m2 0l-2 1v3h32 32v-3l-2-1h-30-30" fill="#ffa949"/></g><path d="m64 6l-2-2 2-1z" fill="#f18c39"/><path d="m0 3v3l2-2" fill="#ffb665"/><path d="m32 14c-11.05 0-20 8.954-20 20 0 4.801 1.68 9.209 4.5 12.656l13.06-13.06-5.969-10.594h4.406l4.344 7.813 12.313-12.313c-3.447-2.82-7.855-4.5-12.656-4.5m15.5 7.344l-13.06 13.06 5.969 10.594h-4.406l-4.344-7.813-12.313 12.313-9.5 9.5 14.656-6.469c2.317.935 4.847 1.469 7.5 1.469 11.05 0 20-8.954 20-20 0-4.801-1.68-9.209-4.5-12.656" fill="#ffe6bd" color="#000"/></svg>