<svg xmlns="http://www.w3.org/2000/svg" viewBox="0 0 64 64"><g color="#000"><path d="m0 4v30 28l2 2h30 30l2-2v-28-30h-32-32" fill="#a5dc85"/><path d="m2 0l-2 1v3h32 32v-3l-2-1h-30-30" fill="#e4ffcf"/></g><path d="m0 3v3l2-2z" fill="#eaffda"/><path d="m64 6l-2-2 2-1z" fill="#c6eeac"/><g color="#000"><path d="m32 11c-5.811 0-11.11 2.164-15.16 5.719l12.313 12.344c1.567 1.567 4.121 1.567 5.688 0l12.313-12.344c-4.049-3.555-9.345-5.719-15.16-5.719m-17.281 7.844c-3.555 4.049-5.719 9.345-5.719 15.16 0 5.811 2.164 11.11 5.719 15.16l12.344-12.313c1.567-1.567 1.567-4.121 0-5.688l-12.344-12.313m34.563 0l-12.344 12.313c-1.567 1.567-1.567 4.121 0 5.688l12.344 12.313c3.555-4.049 5.719-9.345 5.719-15.16 0-5.811-2.164-11.11-5.719-15.16m-17.281 18.938c-1.022 0-2.06.373-2.844 1.156l-12.313 12.344c4.049 3.555 9.345 5.719 15.16 5.719 5.811 0 11.11-2.164 15.16-5.719l-12.313-12.344c-.783-.783-1.821-1.156-2.844-1.156" fill="#5aa72a"/><path d="m32 11c-12.703 0-23 10.297-23 23 0 12.703 10.297 23 23 23 12.703 0 23-10.297 23-23 0-12.703-10.297-23-23-23m0 3c11.05 0 20 8.954 20 20 0 11.05-8.954 20-20 20-11.05 0-20-8.954-20-20 0-11.05 8.954-20 20-20" fill="#8fce6b"/></g></svg>