<?xml version="1.0" encoding="UTF-8" standalone="no"?>
<!-- Created with Inkscape (http://www.inkscape.org/) -->

<svg
   xmlns:dc="http://purl.org/dc/elements/1.1/"
   xmlns:cc="http://creativecommons.org/ns#"
   xmlns:rdf="http://www.w3.org/1999/02/22-rdf-syntax-ns#"
   xmlns:svg="http://www.w3.org/2000/svg"
   xmlns="http://www.w3.org/2000/svg"
   xmlns:xlink="http://www.w3.org/1999/xlink"
   xmlns:sodipodi="http://sodipodi.sourceforge.net/DTD/sodipodi-0.dtd"
   xmlns:inkscape="http://www.inkscape.org/namespaces/inkscape"
   width="64"
   height="64"
   id="svg13094"
   version="1.1"
   inkscape:version="0.48.3.1 r9886"
   sodipodi:docname="nerolinux.svg">
  <sodipodi:namedview
     id="base"
     pagecolor="#cbcdd6"
     bordercolor="#666666"
     borderopacity="1.0"
     inkscape:pageopacity="1"
     inkscape:pageshadow="2"
     inkscape:zoom="8.0000005"
     inkscape:cx="21.954273"
     inkscape:cy="37.990687"
     inkscape:document-units="px"
     inkscape:current-layer="svg13094"
     showgrid="true"
     inkscape:snap-bbox="true"
     inkscape:bbox-paths="true"
     inkscape:bbox-nodes="true"
     inkscape:snap-bbox-edge-midpoints="true"
     inkscape:snap-bbox-midpoints="true"
     inkscape:object-paths="true"
     inkscape:snap-intersection-paths="true"
     inkscape:object-nodes="true"
     inkscape:snap-smooth-nodes="true"
     inkscape:snap-midpoints="true"
     inkscape:snap-object-midpoints="true"
     inkscape:snap-center="true"
     showguides="false"
     inkscape:guide-bbox="true"
     inkscape:window-width="1920"
     inkscape:window-height="1023"
     inkscape:window-x="-10"
     inkscape:window-y="35"
     inkscape:window-maximized="1"
     inkscape:snap-global="true"
     fit-margin-top="0"
     fit-margin-left="0"
     fit-margin-right="0"
     fit-margin-bottom="0"
     showborder="true"
     inkscape:showpageshadow="false"
     inkscape:snap-page="true">
    <inkscape:grid
       type="xygrid"
       id="grid3075"
       empspacing="5"
       visible="true"
       enabled="true"
       snapvisiblegridlinesonly="true"
       originx="1.6362304e-08px"
       originy="18px" />
    <sodipodi:guide
       orientation="0,1"
       position="-11,30"
       id="guide9148" />
    <sodipodi:guide
       orientation="1,0"
       position="32,70"
       id="guide9150" />
  </sodipodi:namedview>
  <defs
     id="defs13096">
    <linearGradient
       id="linearGradient3810">
      <stop
         style="stop-color:#a13434;stop-opacity:1;"
         offset="0"
         id="stop3812" />
      <stop
         style="stop-color:#873636;stop-opacity:1;"
         offset="1"
         id="stop3814" />
    </linearGradient>
    <linearGradient
       id="linearGradient3094">
      <stop
         offset="0"
         style="stop-color:#bdc4cf;stop-opacity:1;"
         id="stop3096" />
      <stop
         offset="1"
         style="stop-color:#a1a8ba;stop-opacity:1;"
         id="stop3104" />
    </linearGradient>
    <radialGradient
       inkscape:collect="always"
       xlink:href="#linearGradient3094"
       id="radialGradient3886"
       cx="30.739782"
       cy="17.037395"
       fx="30.739782"
       fy="17.037395"
       r="32"
       gradientTransform="matrix(7.2208899e-8,1.5625002,-1.4375,6.6432177e-8,57.491254,-34.030915)"
       gradientUnits="userSpaceOnUse" />
    <linearGradient
       gradientTransform="translate(1.4259582,9.7046911)"
       inkscape:collect="always"
       xlink:href="#linearGradient3969-2"
       id="linearGradient4049"
       gradientUnits="userSpaceOnUse"
       x1="19.7106"
       y1="28.998215"
       x2="39.332809"
       y2="54.542446" />
    <linearGradient
       id="linearGradient3969-2">
      <stop
         style="stop-color:#e9af44;stop-opacity:1;"
         offset="0"
         id="stop3971-0" />
      <stop
         style="stop-color:#c66b1a;stop-opacity:0;"
         offset="1"
         id="stop3973-4" />
    </linearGradient>
    <linearGradient
       gradientTransform="translate(1.4259582,9.7046911)"
       y2="54.542446"
       x2="39.332809"
       y1="28.998215"
       x1="19.7106"
       gradientUnits="userSpaceOnUse"
       id="linearGradient3040"
       xlink:href="#linearGradient3969-2"
       inkscape:collect="always" />
    <radialGradient
       inkscape:collect="always"
       xlink:href="#linearGradient3810"
       id="radialGradient3816"
       cx="33"
       cy="14.000002"
       fx="33"
       fy="14.000002"
       r="27"
       gradientUnits="userSpaceOnUse"
       gradientTransform="matrix(7.4637823e-8,1.8518521,-1.7037037,6.8666786e-8,56.851853,-47.111118)" />
  </defs>
  <metadata
     id="metadata13099">
    <rdf:RDF>
      <cc:Work
         rdf:about="">
        <dc:format>image/svg+xml</dc:format>
        <dc:type
           rdf:resource="http://purl.org/dc/dcmitype/StillImage" />
        <dc:title />
      </cc:Work>
    </rdf:RDF>
  </metadata>
  <path
     id="path6538"
     d="m 0,4 0,30 0,28 2,2 30,0 30,0 2,-2 L 64,34 64,4 32,4 0,4 z"
     style="color:#000000;fill:url(#radialGradient3886);fill-opacity:1;fill-rule:nonzero;stroke:none;stroke-width:2.28571415000000000;marker:none;visibility:visible;display:inline;overflow:visible;enable-background:accumulate"
     inkscape:connector-curvature="0" />
  <path
     style="color:#000000;fill:#e7ecf0;fill-opacity:1;fill-rule:nonzero;stroke:none;marker:none;visibility:visible;display:inline;overflow:visible;enable-background:accumulate"
     d="M 2 0 L 0 1 L 0 4 L 19.5625 4 L 39.125 4 L 64 4 L 64 1 L 62 0 L 39.125 0 L 19.5625 0 L 2 0 z "
     id="path6688" />
  <path
     d="M 64,6 62,4 64,3 z"
     id="path3028"
     style="fill:#000000;fill-opacity:0.10215054"
     inkscape:connector-curvature="0" />
  <g
     id="g3043"
     inkscape:export-filename="folder.png"
     inkscape:export-xdpi="90"
     inkscape:export-ydpi="90"
     transform="translate(-0.62500009,0.082283)" />
  <g
     id="scalable"
     transform="matrix(1.0385892,0,0,1.0385892,1214.7222,1878.8121)"
     inkscape:label="#g3701"
     style="fill:#ffffff" />
  <path
     style="fill:#ffffff;fill-opacity:0.16077739;fill-rule:nonzero"
     d="M 0 3 L 0 6 L 2 4 L 32 4 L 62 4 L 64 3 L 32 3 L 0 3 z "
     id="path4298" />
  <path
     style="fill:#000000;fill-opacity:0.10215054;fill-rule:nonzero"
     d="M 2 0 L 0 1 L 32 1 L 64 1 L 62 0 L 32 0 L 2 0 z "
     id="path4444" />
  <path
     style="fill:#000000;fill-opacity:0.10215054;fill-rule:nonzero"
     d="M 63 0.5 L 63 34 L 63 63 L 64 62 L 64 34 L 64 1 L 63 0.5 z M 63 63 L 32 63 L 1 63 L 2 64 L 32 64 L 62 64 L 63 63 z "
     id="path4366" />
  <path
     style="fill:#ffffff;fill-opacity:0.30107528;fill-rule:nonzero"
     d="M 0 1 L 0 34 L 0 62 L 1 63 L 1 34 L 1 5 L 2 4 L 1 3.46875 L 1 1 L 0 1 z "
     id="path3864" />
  <path
     style="color:#000000;fill:url(#radialGradient3816);fill-opacity:1;fill-rule:nonzero;stroke:none;stroke-width:2;marker:none;visibility:visible;display:inline;overflow:visible;enable-background:accumulate"
     d="M 32 7 C 17.088312 7 5 19.088312 5 34 C 5 45.183766 11.809294 54.776177 21.5 58.875 C 13.731712 53.237412 16.8109 42.789233 18.5625 35.3125 C 22.723169 45.494513 43.215236 43.303787 46.09375 57.03125 C 46.745262 56.631667 47.386545 56.201776 48 55.75 C 44.049121 38.44779 11.261716 42.572965 23.6875 19.03125 C 29.705942 30.611648 40.53451 27.338091 41.4375 39.28125 C 42.865492 34.993669 42.674459 30.543392 37.9375 27.71875 C 49.300462 31.654869 51.610216 38.416044 48.65625 55.25 C 54.956413 50.307197 59 42.628704 59 34 C 59 19.088312 46.911688 7 32 7 z M 25.84375 50.1875 C 22.530269 54.73102 28.495688 58.38404 32.6875 61 C 36.848598 60.894632 40.793076 59.845677 44.28125 58.0625 C 40.574586 53.705018 32.656852 50.502749 25.84375 50.1875 z "
     id="path3039" />
</svg>
