<?xml version="1.0" encoding="UTF-8" standalone="no"?>
<!-- Created with Inkscape (http://www.inkscape.org/) -->

<svg
   xmlns:dc="http://purl.org/dc/elements/1.1/"
   xmlns:cc="http://creativecommons.org/ns#"
   xmlns:rdf="http://www.w3.org/1999/02/22-rdf-syntax-ns#"
   xmlns:svg="http://www.w3.org/2000/svg"
   xmlns="http://www.w3.org/2000/svg"
   xmlns:xlink="http://www.w3.org/1999/xlink"
   xmlns:sodipodi="http://sodipodi.sourceforge.net/DTD/sodipodi-0.dtd"
   xmlns:inkscape="http://www.inkscape.org/namespaces/inkscape"
   width="64"
   height="64"
   id="svg13094"
   version="1.1"
   inkscape:version="0.48.3.1 r9886"
   sodipodi:docname="BAC4_steam.0.svg">
  <sodipodi:namedview
     id="base"
     pagecolor="#cbcdd6"
     bordercolor="#666666"
     borderopacity="1.0"
     inkscape:pageopacity="1"
     inkscape:pageshadow="2"
     inkscape:zoom="11.313709"
     inkscape:cx="36.388158"
     inkscape:cy="35.641885"
     inkscape:document-units="px"
     inkscape:current-layer="svg13094"
     showgrid="true"
     inkscape:snap-bbox="true"
     inkscape:bbox-paths="true"
     inkscape:bbox-nodes="true"
     inkscape:snap-bbox-edge-midpoints="true"
     inkscape:snap-bbox-midpoints="true"
     inkscape:object-paths="true"
     inkscape:snap-intersection-paths="true"
     inkscape:object-nodes="true"
     inkscape:snap-smooth-nodes="true"
     inkscape:snap-midpoints="true"
     inkscape:snap-object-midpoints="true"
     inkscape:snap-center="true"
     showguides="true"
     inkscape:guide-bbox="true"
     inkscape:window-width="1920"
     inkscape:window-height="1033"
     inkscape:window-x="-10"
     inkscape:window-y="25"
     inkscape:window-maximized="1"
     inkscape:snap-global="true"
     fit-margin-top="0"
     fit-margin-left="0"
     fit-margin-right="0"
     fit-margin-bottom="0"
     showborder="true"
     inkscape:showpageshadow="false"
     inkscape:snap-page="true">
    <inkscape:grid
       type="xygrid"
       id="grid3075"
       empspacing="5"
       visible="true"
       enabled="true"
       snapvisiblegridlinesonly="true"
       originx="1.6362304e-08px"
       originy="18px" />
  </sodipodi:namedview>
  <defs
     id="defs13096">
    <linearGradient
       inkscape:collect="always"
       id="linearGradient3765">
      <stop
         style="stop-color:#d8dce1;stop-opacity:1"
         offset="0"
         id="stop3767" />
      <stop
         style="stop-color:#9ba6b2;stop-opacity:1"
         offset="1"
         id="stop3769" />
    </linearGradient>
    <linearGradient
       id="linearGradient4059">
      <stop
         id="stop4061"
         offset="0"
         style="stop-color:#626c7c;stop-opacity:1;" />
      <stop
         id="stop4063"
         offset="1"
         style="stop-color:#3a424b;stop-opacity:1;" />
    </linearGradient>
    <radialGradient
       inkscape:collect="always"
       xlink:href="#linearGradient4059"
       id="radialGradient3943"
       cx="28.378605"
       cy="23.333334"
       fx="28.378605"
       fy="23.333334"
       r="32"
       gradientTransform="matrix(0,1.75,-1.640625,0,70.281251,-31.999997)"
       gradientUnits="userSpaceOnUse" />
    <radialGradient
       inkscape:collect="always"
       xlink:href="#linearGradient3765"
       id="radialGradient3771"
       cx="-2.4895771"
       cy="13.086837"
       fx="-2.4895771"
       fy="13.086837"
       r="34.423156"
       gradientTransform="matrix(0,1.8752004,-1.6558621,0,53.669997,20.918456)"
       gradientUnits="userSpaceOnUse" />
  </defs>
  <metadata
     id="metadata13099">
    <rdf:RDF>
      <cc:Work
         rdf:about="">
        <dc:format>image/svg+xml</dc:format>
        <dc:type
           rdf:resource="http://purl.org/dc/dcmitype/StillImage" />
        <dc:title />
      </cc:Work>
    </rdf:RDF>
  </metadata>
  <path
     inkscape:connector-curvature="0"
     style="color:#000000;fill:url(#radialGradient3943);fill-opacity:1;fill-rule:nonzero;stroke:none;stroke-width:2.28571415000000000;marker:none;visibility:visible;display:inline;overflow:visible;enable-background:accumulate"
     d="m 0,4 0,30 0,28 2,2 30,0 30,0 2,-2 L 64,34 64,4 32,4 0,4 z"
     id="path4095" />
  <path
     inkscape:connector-curvature="0"
     style="color:#000000;fill:#838f9b;fill-opacity:1;fill-rule:nonzero;stroke:none;stroke-width:2.28571415000000000;marker:none;visibility:visible;display:inline;overflow:visible;enable-background:accumulate"
     d="M 2,0 0,1 0,4 32,4 64,4 64,1 62,0 32,0 2,0 z"
     id="path4090" />
  <path
     style="fill:#ffffff;fill-opacity:0.14487633;fill-rule:nonzero"
     d="M 0 3 L 0 6 L 2 4 L 32 4 L 62 4 L 64 3 L 32 3 L 0 3 z "
     id="path4298" />
  <path
     style="fill:#1f0700;fill-opacity:0.06978802;fill-rule:nonzero"
     d="M 2 0 L 0 1 L 32 1 L 64 1 L 62 0 L 32 0 L 2 0 z "
     id="path4444" />
  <path
     d="M 64,6 62,4 64,3 z"
     id="path3028"
     style="fill:#1f0700;fill-opacity:0.13759861"
     inkscape:connector-curvature="0" />
  <path
     style="fill:#000000;fill-opacity:0.11130587;fill-rule:nonzero"
     d="M 63 0.5 L 63 34 L 63 63 L 64 62 L 64 34 L 64 1 L 63 0.5 z M 63 63 L 32 63 L 1 63 L 2 64 L 32 64 L 62 64 L 63 63 z "
     id="path4366" />
  <g
     id="g3043"
     inkscape:export-filename="folder.png"
     inkscape:export-xdpi="90"
     inkscape:export-ydpi="90"
     transform="translate(-0.62500009,0.082283)" />
  <path
     style="fill:#ffffff;fill-opacity:0.35070675;fill-rule:nonzero"
     d="M 0 1 L 0 34 L 0 62 L 1 63 L 1 34 L 1 5 L 2 4 L 1 3.46875 L 1 1 L 0 1 z "
     id="path3864" />
  <g
     id="scalable"
     transform="matrix(1.0385892,0,0,1.0385892,1214.7222,1878.8121)"
     inkscape:label="#g3701"
     style="fill:#ffffff" />
  <path
     style="fill:url(#radialGradient3771);fill-opacity:1;fill-rule:nonzero;stroke:none"
     id="path3008"
     d="m 46.691366,26.213745 c 0,2.758085 -2.238459,4.996519 -4.99656,4.996519 -2.758098,0 -4.996318,-2.238434 -4.996318,-4.996519 0,-2.758066 2.23822,-4.996497 4.996318,-4.996497 2.758101,0 4.99656,2.238431 4.99656,4.996497 z m -5.02148,-9.301182 c -5.12275,0 -9.283596,4.131398 -9.330037,9.243529 l -5.813126,8.330718 c -0.236878,-0.0246 -0.477707,-0.03843 -0.720756,-0.03843 -1.298706,0 -2.512441,0.357031 -3.555205,0.980078 L -4.0770199,24.839719 c -0.6879227,-3.12362 -3.479409,-5.476951 -6.8028781,-5.476951 -3.837177,0 -6.966414,3.138765 -6.966414,6.975902 0,3.837106 3.129237,6.966272 6.966414,6.966272 1.2987063,0 2.512599,-0.357007 3.5552035,-0.980078 L 19.003088,42.894402 c 0.681039,3.130893 3.472763,5.48654 6.802879,5.48654 3.607263,0 6.583093,-2.764999 6.927961,-6.28407 l 8.935958,-6.533886 C 46.820483,35.562986 51,31.391703 51,26.242577 51,21.090498 46.82096,16.912563 41.669886,16.912563 z m 0,3.074764 c 3.451005,0 6.255231,2.804091 6.255231,6.25525 0,3.451154 -2.804226,6.245633 -6.255231,6.245633 -3.451008,0 -6.255155,-2.794479 -6.255155,-6.245633 0,-3.451159 2.804147,-6.25525 6.255155,-6.25525 z m -52.549784,1.220303 c 1.9670878,0 3.6670753,1.098991 4.5255721,2.719253 l -2.5461419,-1.01852 0,0.0096 c -2.0515862,-0.736701 -4.3305522,0.265989 -5.1502832,2.306083 -0.819732,2.040113 0.12326,4.34935 2.113929,5.236727 l 0,0.0096 2.1619528,0.864772 c -0.3553938,0.07741 -0.7256638,0.124935 -1.1050288,0.124935 -2.838955,0 -5.121406,-2.28249 -5.121406,-5.121415 0,-2.838958 2.282451,-5.131042 5.121406,-5.131042 z m 36.685865,15.085611 c 2.839114,0 5.121405,2.282315 5.121405,5.121422 0,2.839114 -2.282291,5.121419 -5.121405,5.121419 -1.97476,0 -3.679814,-1.101086 -4.535226,-2.728866 0.842201,0.339856 1.685905,0.676248 2.527077,1.01853 2.087425,0.838792 4.464815,-0.169969 5.303927,-2.258039 0.839118,-2.087464 -0.179754,-4.455596 -2.267651,-5.294387 L 24.70094,36.418167 c 0.355394,-0.07741 0.72566,-0.124933 1.105027,-0.124933 z"
     inkscape:connector-curvature="0" />
  <path
     style="color:#000000;fill:#000000;fill-opacity:0.21908127;fill-rule:evenodd;stroke:none;stroke-width:1.3333329;marker:none;visibility:visible;display:inline;overflow:visible;enable-background:accumulate"
     d="m 41.65625,20 c -3.451008,0 -6.25,2.798841 -6.25,6.25 0,1.971472 0.915763,3.730626 2.34375,4.875 -0.843009,-1.063966 -1.34375,-2.412468 -1.34375,-3.875 0,-0.936171 0.224132,-1.827111 0.59375,-2.625 0.51607,-1.51322 1.715131,-2.68852 3.25,-3.15625 0.187047,-0.0792 0.366713,-0.126519 0.5625,-0.1875 C 41.399861,21.098306 42.009186,21 42.65625,21 c 1.469767,0 2.837784,0.493134 3.90625,1.34375 C 45.415852,20.903472 43.637488,20 41.65625,20 z M 48.875,20.3125 C 50.206233,21.925334 51,23.995965 51,26.25 c 0,5.149126 -4.193153,9.3125 -9.34375,9.3125 l -8.9375,6.53125 c -0.344868,3.519071 -3.298987,6.28125 -6.90625,6.28125 -1.649619,0 -3.180728,-0.567273 -4.375,-1.53125 1.278012,1.542081 3.222094,2.53125 5.375,2.53125 3.607263,0 6.561382,-2.762179 6.90625,-6.28125 l 8.9375,-6.53125 C 47.806847,36.5625 52,32.399126 52,27.25 52,24.489645 50.780999,22.020857 48.875,20.3125 z m -60.28125,0.90625 C -13.996234,21.480962 -16,23.682227 -16,26.34375 c 0,1.676886 0.794256,3.160859 2.03125,4.09375 C -14.615214,29.580291 -15,28.505789 -15,27.34375 c 0,-2.838958 2.286045,-5.125 5.125,-5.125 1.1607181,0 2.2057901,0.384646 3.0625,1.03125 -0.9331233,-1.235812 -2.3884474,-2.03125 -4.0625,-2.03125 -0.177435,0 -0.358584,-0.01748 -0.53125,0 z M -5.5,21.9375 c 0.6768823,0.830915 1.1994111,1.825171 1.4375,2.90625 l 0.8125,0.3125 C -3.6714671,23.874933 -4.4763409,22.772942 -5.5,21.9375 z m 51.1875,1.28125 c 0.625782,0.834524 1,1.877402 1,3 0,2.758085 -2.241899,5 -5,5 -1.122225,0 -2.134411,-0.405865 -2.96875,-1.03125 0.911567,1.216279 2.332877,2.03125 3.96875,2.03125 0.564061,0 1.087859,-0.139958 1.59375,-0.3125 1.408137,-0.650493 2.54956,-1.787707 3.15625,-3.21875 0.02975,-0.07017 0.06652,-0.147291 0.09375,-0.21875 0.02183,-0.08387 0.04499,-0.164483 0.0625,-0.25 0.06659,-0.325165 0.09375,-0.655239 0.09375,-1 0,-1.635468 -0.7842,-3.088335 -2,-4 z m -58.25,6.875 c 0.407428,0.570694 0.942201,1.07063 1.625,1.375 0.02074,2.44e-4 0.0417,0 0.0625,0 0.379365,0 0.738356,-0.04759 1.09375,-0.125 l -2.15625,-0.875 c -0.227113,-0.10124 -0.426222,-0.239257 -0.625,-0.375 z m -2.65625,1.71875 c 1.279602,1.519173 3.209745,2.5 5.34375,2.5 1.2987063,0 2.5198955,-0.376929 3.5625,-1 l 25.5,10.28125 C 19.111995,43.365332 19.051787,43.144328 19,42.90625 L -7.3125,32.3125 c -1.0426045,0.623071 -2.2637937,1 -3.5625,1 -1.631638,0 -3.154277,-0.554581 -4.34375,-1.5 z m 41.03125,4.46875 c -0.379367,0 -0.769606,0.04759 -1.125,0.125 l 2.125,0.875 0.03125,0 c 1.15005,0.0068 2.212976,0.390588 3.0625,1.03125 -0.932853,-1.236986 -2.416753,-2.03125 -4.09375,-2.03125 z m 2.875,2.5 c 0.734488,1.08204 0.930699,2.476585 0.40625,3.78125 -0.839112,2.08807 -3.193825,3.088792 -5.28125,2.25 -0.841172,-0.342282 -1.689049,-0.660144 -2.53125,-1 0.331407,0.630641 0.791009,1.154621 1.34375,1.59375 -0.132345,-0.185891 -0.236823,-0.390278 -0.34375,-0.59375 0.842201,0.339856 1.690078,0.657718 2.53125,1 2.087425,0.838792 4.442138,-0.16193 5.28125,-2.25 0.711204,-1.769253 0.07159,-3.710786 -1.40625,-4.78125 z"
     id="path3033"
     inkscape:connector-curvature="0" />
</svg>
