<?xml version="1.0" encoding="UTF-8" standalone="no"?>
<!-- Created with Inkscape (http://www.inkscape.org/) -->

<svg
   xmlns:dc="http://purl.org/dc/elements/1.1/"
   xmlns:cc="http://creativecommons.org/ns#"
   xmlns:rdf="http://www.w3.org/1999/02/22-rdf-syntax-ns#"
   xmlns:svg="http://www.w3.org/2000/svg"
   xmlns="http://www.w3.org/2000/svg"
   xmlns:sodipodi="http://sodipodi.sourceforge.net/DTD/sodipodi-0.dtd"
   xmlns:inkscape="http://www.inkscape.org/namespaces/inkscape"
   width="24"
   height="24"
   id="svg13094"
   version="1.1"
   inkscape:version="0.48.4 r9939"
   sodipodi:docname="edit-paste.svg">
  <sodipodi:namedview
     id="base"
     pagecolor="#ffffff"
     bordercolor="#666666"
     borderopacity="1.0"
     inkscape:pageopacity="0.0"
     inkscape:pageshadow="2"
     inkscape:zoom="22.627417"
     inkscape:cx="13.923578"
     inkscape:cy="12.54339"
     inkscape:document-units="px"
     inkscape:current-layer="layer1"
     showgrid="true"
     inkscape:snap-bbox="true"
     inkscape:bbox-paths="true"
     inkscape:bbox-nodes="true"
     inkscape:snap-bbox-edge-midpoints="true"
     inkscape:snap-bbox-midpoints="true"
     inkscape:object-paths="true"
     inkscape:snap-intersection-paths="true"
     inkscape:object-nodes="true"
     inkscape:snap-smooth-nodes="true"
     inkscape:snap-midpoints="true"
     inkscape:snap-object-midpoints="true"
     inkscape:snap-center="true"
     showguides="false"
     inkscape:guide-bbox="true"
     inkscape:window-width="1920"
     inkscape:window-height="1018"
     inkscape:window-x="-5"
     inkscape:window-y="25"
     inkscape:window-maximized="1"
     inkscape:snap-global="true"
     fit-margin-top="0"
     fit-margin-left="0"
     fit-margin-right="0"
     fit-margin-bottom="0"
     showborder="true"
     inkscape:showpageshadow="false">
    <sodipodi:guide
       orientation="0,1"
       position="-20.000165,933.61275"
       id="guide4700" />
    <sodipodi:guide
       orientation="0,1"
       position="581.7187,331.89377"
       id="guide4702" />
    <sodipodi:guide
       orientation="1,0"
       position="581.71882,492.70384"
       id="guide4706" />
    <sodipodi:guide
       orientation="1,0"
       position="59.999836,933.61275"
       id="guide4708" />
    <sodipodi:guide
       orientation="0,1"
       position="-20.000165,853.61285"
       id="guide4710" />
    <sodipodi:guide
       orientation="0,1"
       position="541.7187,411.89369"
       id="guide4712" />
    <sodipodi:guide
       orientation="1,0"
       position="501.7187,411.89369"
       id="guide4714" />
    <inkscape:grid
       type="xygrid"
       id="grid3216"
       empspacing="5"
       visible="true"
       enabled="true"
       snapvisiblegridlinesonly="true"
       originx="-20.000111px"
       originy="-216.00016px" />
    <sodipodi:guide
       orientation="-0.70710664,0.70710692"
       position="8.9998902,-243.00016"
       id="guide3847" />
    <sodipodi:guide
       orientation="0.70710594,0.70710762"
       position="9.9998902,-242.00016"
       id="guide3849" />
    <sodipodi:guide
       orientation="-0.70710681,0.70710676"
       position="11.99989,-209.00016"
       id="guide3851" />
  </sodipodi:namedview>
  <defs
     id="defs13096" />
  <metadata
     id="metadata13099">
    <rdf:RDF>
      <cc:Work
         rdf:about="">
        <dc:format>image/svg+xml</dc:format>
        <dc:type
           rdf:resource="http://purl.org/dc/dcmitype/StillImage" />
        <dc:title />
      </cc:Work>
    </rdf:RDF>
  </metadata>
  <g
     transform="translate(9384.3076,-4838.1987)"
     id="layer1"
     inkscape:groupmode="layer"
     inkscape:label="Camada 1">
    <path
       style="font-size:medium;font-style:normal;font-variant:normal;font-weight:normal;font-stretch:normal;text-indent:0;text-align:start;text-decoration:none;line-height:normal;letter-spacing:normal;word-spacing:normal;text-transform:none;direction:ltr;block-progression:tb;writing-mode:lr-tb;text-anchor:start;baseline-shift:baseline;color:#000000;fill:#dbdde3;fill-opacity:0.78315411999999995;stroke:none;stroke-width:2;marker:none;visibility:visible;display:inline;overflow:visible;enable-background:accumulate;font-family:Sans;-inkscape-font-specification:Sans;fill-rule:nonzero"
       d="M 7.3125 3 A 0.50004997 0.50004997 0 0 0 7 3.5 L 7 5 L 4.5 5 A 0.50005 0.50005 0 0 0 4.46875 5 A 0.50005 0.50005 0 0 0 4 5.5 L 4 19.5 A 0.50005 0.50005 0 0 0 4.5 20 L 8 20 L 8 19 L 6 19 L 5 19 L 5 18 L 5 7 L 5 6 L 6 6 L 7 6 C 7.1385 6 7.2552813 5.9567188 7.375 5.90625 C 7.7341563 5.7548438 8 5.4155 8 5 L 8 4 L 9 4 L 14 4 L 15 4 L 15 5 C 15 5.554 15.446 6 16 6 L 17 6 L 18 6 L 18 7 L 19 7 L 19 5.5 A 0.50005 0.50005 0 0 0 18.5 5 L 16 5 L 16 3.5 A 0.50004997 0.50004997 0 0 0 15.5 3 L 7.5 3 A 0.50004997 0.50004997 0 0 0 7.46875 3 A 0.50004997 0.50004997 0 0 0 7.375 3 A 0.50004997 0.50004997 0 0 0 7.3125 3 z M 10.5 6 C 10.223 6 10 6.223 10 6.5 C 10 6.70775 10.132922 6.8930469 10.3125 6.96875 C 10.372359 6.9939844 10.43075 7 10.5 7 L 12.5 7 C 12.777 7 13 6.777 13 6.5 C 13 6.223 12.777 6 12.5 6 L 10.5 6 z M 18.15625 8 A 1.0001001 1.0001001 0 0 1 19 9 L 19 19 A 1.0001001 1.0001001 0 0 1 19 19.15625 L 19 20 L 18.09375 20 L 18 20 L 10 20 A 1.0001001 1.0001001 0 0 1 9 19.09375 L 9 20 L 9 20.5 A 0.50005 0.50005 0 0 0 9 20.59375 A 0.50005 0.50005 0 0 0 9.5 21 L 19.5 21 A 0.50005 0.50005 0 0 0 20 20.5 L 20 8.5 A 0.50005 0.50005 0 0 0 19.59375 8 L 19.5 8 L 18.15625 8 z M 11.3125 10 A 0.50004997 0.50004997 0 0 0 11 10.375 A 0.50004997 0.50004997 0 0 0 11 10.5 L 11 17.5 A 0.50004997 0.50004997 0 0 0 11 17.59375 A 0.50004997 0.50004997 0 0 0 11.40625 18 L 16.59375 18 A 0.50004997 0.50004997 0 0 0 17 17.59375 A 0.50004997 0.50004997 0 0 0 17 17.5 L 17 10.5 A 0.50004997 0.50004997 0 0 0 17 10.40625 A 0.50004997 0.50004997 0 0 0 16.59375 10 L 11.3125 10 z M 12 11 L 16 11 L 16 17 L 12 17 L 12 11 z "
       transform="translate(-9384.3076,4838.1987)"
       id="rect3909" />
    <path
       class="ColorScheme-Text"
       style="color:#000000;fill:#434a54;fill-opacity:0.67450980000000005;fill-rule:nonzero;stroke:none;stroke-width:57.89288330000000116;marker:none;visibility:visible;display:inline;overflow:visible;enable-background:accumulate"
       id="path4008"
       d="m -9375.3076,4842.1987 c -0.554,0 -1,0.446 -1,1 0,0.554 -0.446,1 -1,1 l -1,0 c -0.554,0 -1,0.446 -1,1 l 0,11 c 0,0.554 0.446,1 1,1 l 3,0 a 1.0001001,1.0001001 0 0 0 1,1 l 8,0 a 1.0001001,1.0001001 0 0 0 1,-1 l 0,-10 a 1.0001001,1.0001001 0 0 0 -1,-1 l 0,-1 c 0,-0.554 -0.446,-1 -1,-1 l -1,0 c -0.554,0 -1,-0.446 -1,-1 0,-0.554 -0.446,-1 -1,-1 l -5,0 z m 1.5,2 2,0 c 0.277,0 0.5,0.223 0.5,0.5 0,0.277 -0.223,0.5 -0.5,0.5 l -2,0 c -0.277,0 -0.5,-0.223 -0.5,-0.5 0,-0.277 0.223,-0.5 0.5,-0.5 z m 0.5,4 6,0 0,8 -6,0 0,-8 z"
       inkscape:connector-curvature="0" />
  </g>
</svg>
