<?xml version="1.0" encoding="UTF-8" standalone="no"?>
<!-- Created with Inkscape (http://www.inkscape.org/) -->

<svg
   xmlns:dc="http://purl.org/dc/elements/1.1/"
   xmlns:cc="http://creativecommons.org/ns#"
   xmlns:rdf="http://www.w3.org/1999/02/22-rdf-syntax-ns#"
   xmlns:svg="http://www.w3.org/2000/svg"
   xmlns="http://www.w3.org/2000/svg"
   xmlns:xlink="http://www.w3.org/1999/xlink"
   xmlns:sodipodi="http://sodipodi.sourceforge.net/DTD/sodipodi-0.dtd"
   xmlns:inkscape="http://www.inkscape.org/namespaces/inkscape"
   width="64"
   height="64"
   id="svg13094"
   version="1.1"
   inkscape:version="0.48.3.1 r9886"
   sodipodi:docname="gloobus-preview.svg">
  <sodipodi:namedview
     id="base"
     pagecolor="#cbcdd6"
     bordercolor="#666666"
     borderopacity="1.0"
     inkscape:pageopacity="1"
     inkscape:pageshadow="2"
     inkscape:zoom="11.313709"
     inkscape:cx="25.187135"
     inkscape:cy="32.023769"
     inkscape:document-units="px"
     inkscape:current-layer="svg13094"
     showgrid="true"
     inkscape:snap-bbox="true"
     inkscape:bbox-paths="true"
     inkscape:bbox-nodes="true"
     inkscape:snap-bbox-edge-midpoints="true"
     inkscape:snap-bbox-midpoints="true"
     inkscape:object-paths="true"
     inkscape:snap-intersection-paths="true"
     inkscape:object-nodes="true"
     inkscape:snap-smooth-nodes="true"
     inkscape:snap-midpoints="true"
     inkscape:snap-object-midpoints="true"
     inkscape:snap-center="true"
     showguides="true"
     inkscape:guide-bbox="true"
     inkscape:window-width="1920"
     inkscape:window-height="1023"
     inkscape:window-x="-10"
     inkscape:window-y="35"
     inkscape:window-maximized="1"
     inkscape:snap-global="true"
     fit-margin-top="0"
     fit-margin-left="0"
     fit-margin-right="0"
     fit-margin-bottom="0"
     showborder="true"
     inkscape:showpageshadow="false"
     inkscape:snap-page="true">
    <inkscape:grid
       type="xygrid"
       id="grid3075"
       empspacing="5"
       visible="true"
       enabled="true"
       snapvisiblegridlinesonly="true"
       originx="1.6362304e-08px"
       originy="18px" />
  </sodipodi:namedview>
  <defs
     id="defs13096">
    <linearGradient
       id="linearGradient5602">
      <stop
         id="stop5604"
         style="stop-color:#4b96c2;stop-opacity:1;"
         offset="0" />
      <stop
         id="stop5606"
         style="stop-color:#3e71aa;stop-opacity:1;"
         offset="1" />
    </linearGradient>
    <radialGradient
       r="32"
       fy="14.8"
       fx="32"
       cy="14.8"
       cx="32"
       gradientTransform="matrix(1.25,0,0,1.171875,-8,-1.3437501)"
       gradientUnits="userSpaceOnUse"
       id="radialGradient3018"
       xlink:href="#linearGradient5602"
       inkscape:collect="always" />
  </defs>
  <metadata
     id="metadata13099">
    <rdf:RDF>
      <cc:Work
         rdf:about="">
        <dc:format>image/svg+xml</dc:format>
        <dc:type
           rdf:resource="http://purl.org/dc/dcmitype/StillImage" />
        <dc:title />
      </cc:Work>
    </rdf:RDF>
  </metadata>
  <path
     inkscape:connector-curvature="0"
     style="color:#000000;fill:url(#radialGradient3018);fill-opacity:1;fill-rule:nonzero;stroke:none;stroke-width:2.28571415;marker:none;visibility:visible;display:inline;overflow:visible;enable-background:accumulate"
     d="m 0,4 0,30 0,28 2,2 30,0 30,0 2,-2 L 64,34 64,4 32,4 0,4 z"
     id="path6498" />
  <path
     inkscape:connector-curvature="0"
     style="color:#000000;fill:#7bc4e6;fill-opacity:1;fill-rule:nonzero;stroke:none;stroke-width:2.28571415;marker:none;visibility:visible;display:inline;overflow:visible;enable-background:accumulate"
     d="M 2,0 0,1 0,4 32,4 64,4 64,1 62,0 32,0 2,0 z"
     id="path6502" />
  <path
     inkscape:connector-curvature="0"
     style="fill:#ffffff;fill-opacity:0.14487634;fill-rule:nonzero"
     d="M 0,3 0,6 2,4 32,4 62,4 64,3 32,3 0,3 z"
     id="path4298" />
  <path
     inkscape:connector-curvature="0"
     style="fill:#1f0700;fill-opacity:0.06978802;fill-rule:nonzero"
     d="M 2,0 0,1 32,1 64,1 62,0 32,0 2,0 z"
     id="path4444" />
  <path
     d="M 64,6 62,4 64,3 z"
     id="path3028"
     style="fill:#1f0700;fill-opacity:0.13759861"
     inkscape:connector-curvature="0" />
  <path
     inkscape:connector-curvature="0"
     style="fill:#000000;fill-opacity:0.11130587;fill-rule:nonzero"
     d="M 63,0.5 63,34 63,63 64,62 64,34 64,1 63,0.5 z m 0,62.5 -31,0 -31,0 1,1 30,0 30,0 1,-1 z"
     id="path4366" />
  <path
     inkscape:connector-curvature="0"
     style="fill:#ffffff;fill-opacity:0.35070675;fill-rule:nonzero"
     d="M 0,1 0,34 0,62 1,63 1,34 1,5 2,4 1,3.46875 1,1 0,1 z"
     id="path3864" />
  <path
     id="path3831"
     d="m 32.558803,35.127859 c -0.31678,-1.381849 1.343336,-2.182379 2.473698,-2.034672 2.209428,0.289277 3.257135,2.766587 2.748552,4.752265 -0.773664,3.018783 -4.201411,4.377397 -7.011859,3.47322 -3.818242,-1.228846 -5.492211,-5.659574 -4.184313,-9.298918 1.666639,-4.635496 7.098597,-6.634655 11.549618,-4.911769 5.436023,2.104372 7.754579,8.567004 5.620075,13.845571 C 41.22387,47.212503 33.751877,49.859913 27.667203,47.303875 20.609329,44.33902 17.642526,35.825104 20.61136,28.911286 23.997586,21.026478 33.521409,17.72793 41.236899,21.122782 49.918248,24.942339 53.534115,35.514643 49.726861,44.062026 45.490839,53.575947 33.91028,57.525272 24.564804,53.290399 14.258753,48.617585 9.989746,35.983043 14.637847,25.803301 18.282224,17.821346 26.614205,12.798585 35.333414,13.025021"
     style="color:#000000;fill:#c4d3de;fill-opacity:1;fill-rule:evenodd;stroke:none;stroke-width:1.5;marker:none;visibility:visible;display:inline;overflow:visible;enable-background:accumulate"
     inkscape:connector-curvature="0" />
  <path
     style="color:#000000;fill:#001855;fill-opacity:0.16039428999999999;fill-rule:nonzero;stroke:none;stroke-width:2;marker:none;visibility:visible;display:inline;overflow:visible;enable-background:accumulate"
     d="M 35.21875 14.03125 L 34.5 19.8125 C 34.8748 19.803456 35.249184 19.826486 35.625 19.84375 L 36.34375 14.03125 C 35.966477 14.021452 35.594225 14.021578 35.21875 14.03125 z M 34.5 19.8125 C 28.66948 19.953193 23.061053 23.233915 20.625 28.90625 C 18.254678 34.426255 19.679302 40.953521 23.9375 44.875 C 20.458453 40.903292 19.447978 34.976098 21.625 29.90625 C 23.904733 24.597904 28.956206 21.382937 34.375 20.875 L 34.5 19.8125 z M 46.75 25.125 C 51.250942 30.110495 52.574191 37.651963 49.71875 44.0625 C 45.482728 53.576421 33.907976 57.516123 24.5625 53.28125 C 22.630115 52.405097 20.92642 51.273548 19.4375 49.90625 C 21.136554 51.702459 23.186284 53.203862 25.5625 54.28125 C 34.907976 58.516123 46.482728 54.576421 50.71875 45.0625 C 53.774572 38.2021 52.039323 30.055716 46.75 25.125 z M 34.78125 26.5 L 34.625 27.59375 C 36.121891 27.40071 37.67207 27.531355 39.125 28.09375 C 40.144254 28.48832 41.052497 29.054274 41.84375 29.71875 C 40.849834 28.601715 39.614514 27.670365 38.125 27.09375 C 37.042013 26.674551 35.912015 26.494142 34.78125 26.5 z M 34.625 27.59375 C 34.232797 27.644329 33.849669 27.713332 33.46875 27.8125 L 32.6875 34.1875 C 32.927118 33.726733 33.402018 33.38878 33.9375 33.21875 L 34.625 27.59375 z M 32.6875 34.1875 C 32.54415 34.463151 32.479498 34.762929 32.5625 35.125 L 32.6875 34.1875 z M 37.25 34.5625 C 37.855353 35.508457 38.062787 36.744535 37.78125 37.84375 C 37.007586 40.862533 33.591698 42.216677 30.78125 41.3125 C 30.06533 41.082091 29.40338 40.741718 28.84375 40.3125 C 29.594596 41.209299 30.579336 41.925681 31.78125 42.3125 C 34.591698 43.216677 38.007586 41.862533 38.78125 38.84375 C 39.183878 37.271755 38.602366 35.421183 37.25 34.5625 z "
     id="path3809" />
  <path
     style="color:#000000;fill:#ffffff;fill-opacity:0.31272402999999999;fill-rule:nonzero;stroke:none;stroke-width:2;marker:none;visibility:visible;display:inline;overflow:visible;enable-background:accumulate"
     d="M 33.71875,13.03125 C 25.605618,13.42572 18.041603,18.329417 14.625,25.8125 10.934913,33.89411 12.890902,43.504821 19,49.46875 13.669356,43.466766 12.138924,34.447307 15.625,26.8125 19.111688,19.175918 26.916578,14.245112 35.21875,14.03125 l 0.125,-1 c -0.544951,-0.01415 -1.084125,-0.0263 -1.625,0 z M 35.625,19.84375 35.5,20.8125 c 2.274173,-0.05488 4.585037,0.359906 6.75,1.3125 1.627753,0.716167 3.056455,1.679391 4.3125,2.8125 C 45.094663,23.363076 43.334666,22.042196 41.25,21.125 39.441838,20.3294 37.529522,19.931239 35.625,19.84375 z M 35.5,20.8125 c -0.37414,0.009 -0.753438,0.02767 -1.125,0.0625 l -0.75,5.71875 C 34.006136,26.5446 34.394987,26.502 34.78125,26.5 L 35.5,20.8125 z m -1.875,5.78125 c -3.088804,0.398334 -5.908646,2.315151 -7.03125,5.4375 -1.052489,2.928645 -0.185471,6.346089 2.1875,8.21875 -1.59002,-1.950303 -2.073415,-4.753611 -1.1875,-7.21875 0.980061,-2.725886 3.255986,-4.53692 5.875,-5.21875 L 33.625,26.59375 z m 8.34375,3.25 c 2.542061,2.959023 3.308267,7.34873 1.78125,11.125 -2.530704,6.258947 -10.009076,8.899788 -16.09375,6.34375 -1.422855,-0.59771 -2.643546,-1.447318 -3.71875,-2.4375 1.265375,1.444562 2.836359,2.64675 4.71875,3.4375 6.084674,2.556038 13.563046,-0.0848 16.09375,-6.34375 1.711127,-4.231568 0.543024,-9.226841 -2.78125,-12.125 z m -7.375,3.25 c -0.214136,0.01463 -0.442292,0.05706 -0.65625,0.125 l -0.25,1.96875 c 0.403748,-0.776374 1.509565,-1.202755 2.34375,-1.09375 0.460298,0.06027 0.862864,0.242781 1.21875,0.46875 -0.488188,-0.762868 -1.232398,-1.339608 -2.21875,-1.46875 -0.141295,-0.01846 -0.284546,-0.01045 -0.4375,0 z M 33.6875,35.1875 c -0.14335,0.275651 -0.208002,0.575429 -0.125,0.9375 l 0.125,-0.9375 z"
     id="path3022"
     inkscape:connector-curvature="0" />
</svg>
