<?xml version="1.0" encoding="UTF-8" standalone="no"?>
<!-- Created with Inkscape (http://www.inkscape.org/) -->

<svg
   xmlns:dc="http://purl.org/dc/elements/1.1/"
   xmlns:cc="http://creativecommons.org/ns#"
   xmlns:rdf="http://www.w3.org/1999/02/22-rdf-syntax-ns#"
   xmlns:svg="http://www.w3.org/2000/svg"
   xmlns="http://www.w3.org/2000/svg"
   xmlns:sodipodi="http://sodipodi.sourceforge.net/DTD/sodipodi-0.dtd"
   xmlns:inkscape="http://www.inkscape.org/namespaces/inkscape"
   width="16"
   height="16"
   id="svg13094"
   version="1.1"
   inkscape:version="0.48.4 r9939"
   sodipodi:docname="application-x-theme.svg">
  <sodipodi:namedview
     id="base"
     pagecolor="#ffffff"
     bordercolor="#666666"
     borderopacity="1.0"
     inkscape:pageopacity="0.0"
     inkscape:pageshadow="2"
     inkscape:zoom="45.254834"
     inkscape:cx="8.4388361"
     inkscape:cy="8.1008468"
     inkscape:document-units="px"
     inkscape:current-layer="layer1"
     showgrid="true"
     inkscape:snap-bbox="true"
     inkscape:bbox-paths="true"
     inkscape:bbox-nodes="true"
     inkscape:snap-bbox-edge-midpoints="true"
     inkscape:snap-bbox-midpoints="true"
     inkscape:object-paths="true"
     inkscape:snap-intersection-paths="true"
     inkscape:object-nodes="true"
     inkscape:snap-smooth-nodes="true"
     inkscape:snap-midpoints="true"
     inkscape:snap-object-midpoints="true"
     inkscape:snap-center="true"
     showguides="false"
     inkscape:guide-bbox="true"
     inkscape:window-width="1920"
     inkscape:window-height="1025"
     inkscape:window-x="-2"
     inkscape:window-y="32"
     inkscape:window-maximized="1"
     inkscape:snap-global="true"
     fit-margin-top="0"
     fit-margin-left="0"
     fit-margin-right="0"
     fit-margin-bottom="0"
     showborder="true"
     inkscape:showpageshadow="false">
    <sodipodi:guide
       orientation="0,1"
       position="-20.000165,933.61275"
       id="guide4700" />
    <sodipodi:guide
       orientation="0,1"
       position="581.7187,331.89377"
       id="guide4702" />
    <sodipodi:guide
       orientation="1,0"
       position="581.71882,492.70384"
       id="guide4706" />
    <sodipodi:guide
       orientation="1,0"
       position="59.999836,933.61275"
       id="guide4708" />
    <sodipodi:guide
       orientation="0,1"
       position="-20.000165,853.61285"
       id="guide4710" />
    <sodipodi:guide
       orientation="0,1"
       position="541.7187,411.89369"
       id="guide4712" />
    <sodipodi:guide
       orientation="1,0"
       position="501.7187,411.89369"
       id="guide4714" />
    <inkscape:grid
       type="xygrid"
       id="grid3216"
       empspacing="5"
       visible="true"
       enabled="true"
       snapvisiblegridlinesonly="true"
       originx="-20.000111px"
       originy="-216.00016px" />
    <sodipodi:guide
       orientation="-0.70710664,0.70710692"
       position="8.9998902,-243.00016"
       id="guide3847" />
    <sodipodi:guide
       orientation="0.70710594,0.70710762"
       position="9.9998902,-242.00016"
       id="guide3849" />
    <sodipodi:guide
       orientation="-0.70710681,0.70710676"
       position="11.99989,-209.00016"
       id="guide3851" />
  </sodipodi:namedview>
  <defs
     id="defs13096" />
  <metadata
     id="metadata13099">
    <rdf:RDF>
      <cc:Work
         rdf:about="">
        <dc:format>image/svg+xml</dc:format>
        <dc:type
           rdf:resource="http://purl.org/dc/dcmitype/StillImage" />
        <dc:title />
      </cc:Work>
    </rdf:RDF>
  </metadata>
  <g
     transform="translate(9384.3076,-4846.1987)"
     id="layer1"
     inkscape:groupmode="layer"
     inkscape:label="Camada 1">
    <path
       style="fill:#27303a;fill-opacity:0.753280819999999968;fill-rule:nonzero"
       d="m 1,1 0,14 9,0 5,-5 0,-9 z M 6,3 C 6.5523,3 7,3.4477 7,4 7,4.5522 6.5523,5 6,5 5.4477,5 5,4.5522 5,4 5,3.4477 5.4477,3 6,3 z M 4,5 C 4.5522,5 5,5.4478 5,6 5,6.5521 4.5522,7 4,7 3.4478,7 3,6.5521 3,6 3,5.4478 3.4478,5 4,5 z M 8,5 C 8.5522,5 9,5.4478 9,6 9,6.5521 8.5522,7 8,7 7.4478,7 7,6.5521 7,6 7,5.4478 7.4478,5 8,5 z M 6,7 C 6.5522,7 7,7.4478 7,8 7,8.5521 6.5522,9 6,9 5.4478,9 5,8.5521 5,8 5,7.4478 5.4478,7 6,7 z m 3,2 5,0 -5,5 z"
       transform="translate(-9384.3076,4846.1987)"
       id="path3789-4"
       inkscape:connector-curvature="0"
       sodipodi:nodetypes="ccccccsssssssssssssssssssscccc" />
    <path
       style="color:#000000;fill:#8a929e;fill-opacity:0.60931899;fill-rule:nonzero;stroke:none;stroke-width:1;marker:none;visibility:visible;display:inline;overflow:visible;enable-background:accumulate"
       d="m 9.999889,15.00016 5,0 0,-5 z"
       id="path3005"
       inkscape:connector-curvature="0"
       transform="translate(-9384.3076,4846.1987)"
       sodipodi:nodetypes="cccc" />
    <path
       style="font-size:medium;font-style:normal;font-variant:normal;font-weight:normal;font-stretch:normal;text-indent:0;text-align:start;text-decoration:none;line-height:normal;letter-spacing:normal;word-spacing:normal;text-transform:none;direction:ltr;block-progression:tb;writing-mode:lr-tb;text-anchor:start;baseline-shift:baseline;color:#000000;fill:#f1f3f5;fill-opacity:0.90288714000000003;fill-rule:nonzero;stroke:none;stroke-width:2;marker:none;visibility:visible;display:inline;overflow:visible;enable-background:accumulate;font-family:Sans;-inkscape-font-specification:Sans"
       d="m 0,0 0,1 0,14 0,1 1,0 7,0 0.40625,0 2,0 0.5625,-0.03125 5,-5 L 16,10.40625 16,10 16,9 16,8.40625 16,8 16,7 16,1 16,0 15,0 1,0 z m 1,1 14,0 0,9 -3,3 -2,2 -9,0 z M 6,3 C 5.4477,3 5,3.4477 5,4 5,4.5522 5.4477,5 6,5 6.5523,5 7,4.5522 7,4 7,3.4477 6.5523,3 6,3 z M 4,5 C 3.4478,5 3,5.4478 3,6 3,6.5521 3.4478,7 4,7 4.5522,7 5,6.5521 5,6 5,5.4478 4.5522,5 4,5 z M 8,5 C 7.4478,5 7,5.4478 7,6 7,6.5521 7.4478,7 8,7 8.5522,7 9,6.5521 9,6 9,5.4478 8.5522,5 8,5 z M 6,7 C 5.4478,7 5,7.4478 5,8 5,8.5521 5.4478,9 6,9 6.5522,9 7,8.5521 7,8 7,7.4478 6.5522,7 6,7 z m 3,2 0,5 1,-1 0,-2 0,-1 3,0 1,-1 z"
       transform="translate(-9384.3076,4846.1987)"
       id="path3789-4-3"
       inkscape:connector-curvature="0"
       sodipodi:nodetypes="ccccccccccccccccccccccccccccsssssssssssssssssssscccccccc" />
  </g>
</svg>
