<?xml version="1.0" encoding="UTF-8" standalone="no"?>
<!-- Created with Inkscape (http://www.inkscape.org/) -->

<svg
   xmlns:dc="http://purl.org/dc/elements/1.1/"
   xmlns:cc="http://creativecommons.org/ns#"
   xmlns:rdf="http://www.w3.org/1999/02/22-rdf-syntax-ns#"
   xmlns:svg="http://www.w3.org/2000/svg"
   xmlns="http://www.w3.org/2000/svg"
   xmlns:xlink="http://www.w3.org/1999/xlink"
   xmlns:sodipodi="http://sodipodi.sourceforge.net/DTD/sodipodi-0.dtd"
   xmlns:inkscape="http://www.inkscape.org/namespaces/inkscape"
   version="1.1"
   width="64"
   height="64"
   id="svg13094"
   inkscape:version="0.91+devel r"
   sodipodi:docname="ms-office-document.svg">
  <sodipodi:namedview
     pagecolor="#ffffff"
     bordercolor="#666666"
     borderopacity="1"
     objecttolerance="10"
     gridtolerance="10"
     guidetolerance="10"
     inkscape:pageopacity="0"
     inkscape:pageshadow="2"
     inkscape:window-width="1920"
     inkscape:window-height="1023"
     id="namedview68"
     showgrid="true"
     inkscape:zoom="10.429825"
     inkscape:cx="37.471847"
     inkscape:cy="36.226391"
     inkscape:window-x="-10"
     inkscape:window-y="35"
     inkscape:window-maximized="1"
     inkscape:current-layer="svg13094"
     inkscape:snap-bbox="true"
     inkscape:bbox-paths="true"
     inkscape:bbox-nodes="true"
     inkscape:snap-bbox-edge-midpoints="true"
     inkscape:snap-bbox-midpoints="true"
     inkscape:snap-nodes="true"
     inkscape:object-paths="true"
     inkscape:snap-intersection-paths="true"
     inkscape:object-nodes="true"
     inkscape:snap-smooth-nodes="true"
     inkscape:snap-midpoints="true"
     inkscape:snap-others="true">
    <inkscape:grid
       type="xygrid"
       id="grid4173" />
  </sodipodi:namedview>
  <defs
     id="defs11">
    <linearGradient
       x1="31"
       y1="64"
       x2="31"
       y2="2"
       id="linearGradient3984-5-4"
       gradientUnits="userSpaceOnUse">
      <stop
         id="stop3099-8-9"
         style="stop-color:#3e92e6;stop-opacity:1"
         offset="0" />
      <stop
         id="stop3875-8-7"
         style="stop-color:#3e92e6;stop-opacity:1"
         offset="0.5" />
      <stop
         id="stop3873-3"
         style="stop-color:#2980d9;stop-opacity:1"
         offset="0.5" />
      <stop
         id="stop3101-0-0"
         style="stop-color:#2980d9;stop-opacity:1"
         offset="1" />
    </linearGradient>
    <linearGradient
       gradientTransform="translate(0,-4)"
       inkscape:collect="always"
       xlink:href="#linearGradient3828"
       id="linearGradient3058"
       x1="22.723297"
       y1="67.999992"
       x2="22.723297"
       y2="6"
       gradientUnits="userSpaceOnUse" />
    <linearGradient
       gradientUnits="userSpaceOnUse"
       id="linearGradient3828"
       y2="2"
       x2="31"
       y1="64"
       x1="31">
      <stop
         offset="0"
         style="stop-color:#efefef;stop-opacity:1"
         id="stop3830" />
      <stop
         offset="0.50050378"
         style="stop-color:#efefef;stop-opacity:1"
         id="stop3832" />
      <stop
         offset="0.49999994"
         style="stop-color:#e0e4e6;stop-opacity:1"
         id="stop3834" />
      <stop
         offset="1"
         style="stop-color:#e0e4e6;stop-opacity:1"
         id="stop3836" />
    </linearGradient>
    <linearGradient
       inkscape:collect="always"
       xlink:href="#linearGradient3828"
       id="linearGradient4161"
       gradientUnits="userSpaceOnUse"
       gradientTransform="translate(0,-4)"
       x1="22.723297"
       y1="67.999992"
       x2="22.723297"
       y2="6" />
  </defs>
  <metadata
     id="metadata13099">
    <rdf:RDF>
      <cc:Work
         rdf:about="">
        <dc:format>image/svg+xml</dc:format>
        <dc:type
           rdf:resource="http://purl.org/dc/dcmitype/StillImage" />
        <dc:title></dc:title>
      </cc:Work>
    </rdf:RDF>
  </metadata>
  <path
     inkscape:connector-curvature="0"
     d="M 4,0 64,0 64,62 4,62 z"
     id="path3960"
     style="fill:#2169b2;fill-opacity:1;fill-rule:nonzero" />
  <path
     style="fill:#002f5f;fill-rule:nonzero;fill-opacity:0.18872987"
     d="M 60 2 L 60 33 L 35.677734 62 L 64 62 L 64 37 L 64 6 L 60 2 z "
     id="path3900" />
  <path
     inkscape:connector-curvature="0"
     d="M 0,2 60,2 60,33 34,64 0,64 z"
     id="path3982"
     style="fill:url(#linearGradient3984-5-4);fill-rule:nonzero" />
  <path
     inkscape:connector-curvature="0"
     d="M 34,64 60,33 c -2.328567,2.776369 -4.36141,3 -11,3 H 37 v 15 c 0,6.64407 0.04437,9.37018 -3,13 z"
     id="path4278"
     style="fill:#2170c1;fill-rule:nonzero;fill-opacity:1" />
  <path
     style="color:#000000;display:inline;overflow:visible;visibility:visible;opacity:1;fill:url(#linearGradient4161);fill-opacity:1;fill-rule:nonzero;stroke:none;stroke-width:1;stroke-linecap:butt;stroke-linejoin:miter;stroke-miterlimit:4;stroke-dasharray:none;stroke-dashoffset:0;stroke-opacity:1;marker:none;enable-background:accumulate"
     d="m 46,8 c -0.554,0 -1,0.446 -1,1 l 0,3 2,0 0,-2 5,0 0,5 -2,0 0,2 3,0 c 0.554,0 1,-0.446 1,-1 L 54,9 C 54,8.446 53.554,8 53,8 Z m 0.5,6 C 45.67157,14 45,14.67157 45,15.5 45,16.32843 45.67157,17 46.5,17 47.32843,17 48,16.32843 48,15.5 48,14.67157 47.32843,14 46.5,14 Z M 6,8 l 0,3 16.75,0 0,-3 z m 0,6 0,3 16.75,0 0,-3 z m 0,6 0,3 16.75,0 0,-3 z"
     id="path3548"
     inkscape:connector-curvature="0"
     sodipodi:nodetypes="sscccccccssssssssssccccccccccccccc" />
</svg>
