<?xml version="1.0" encoding="UTF-8" standalone="no"?>
<!-- Created with Inkscape (http://www.inkscape.org/) -->

<svg
   xmlns:dc="http://purl.org/dc/elements/1.1/"
   xmlns:cc="http://creativecommons.org/ns#"
   xmlns:rdf="http://www.w3.org/1999/02/22-rdf-syntax-ns#"
   xmlns:svg="http://www.w3.org/2000/svg"
   xmlns="http://www.w3.org/2000/svg"
   xmlns:sodipodi="http://sodipodi.sourceforge.net/DTD/sodipodi-0.dtd"
   xmlns:inkscape="http://www.inkscape.org/namespaces/inkscape"
   version="1.1"
   width="64"
   height="64"
   id="svg13094"
   inkscape:version="0.91+devel r"
   sodipodi:docname="package-rar.svg">
  <sodipodi:namedview
     pagecolor="#ffffff"
     bordercolor="#666666"
     borderopacity="1"
     objecttolerance="10"
     gridtolerance="10"
     guidetolerance="10"
     inkscape:pageopacity="0"
     inkscape:pageshadow="2"
     inkscape:window-width="640"
     inkscape:window-height="480"
     id="namedview69"
     showgrid="false"
     inkscape:zoom="9.21875"
     inkscape:cx="43.112985"
     inkscape:cy="22.124251"
     inkscape:current-layer="svg13094" />
  <defs
     id="defs11" />
  <metadata
     id="metadata13099">
    <rdf:RDF>
      <cc:Work
         rdf:about="">
        <dc:format>image/svg+xml</dc:format>
        <dc:type
           rdf:resource="http://purl.org/dc/dcmitype/StillImage" />
        <dc:title></dc:title>
      </cc:Work>
    </rdf:RDF>
  </metadata>
  <path
     d="M 0,1 2,0 62,0 64,1 64,16 0,16 z"
     id="path3029"
     style="fill:#d075d2;fill-opacity:1;fill-rule:nonzero" />
  <path
     inkscape:connector-curvature="0"
     style="fill:#4b8736;fill-opacity:1;fill-rule:nonzero"
     id="path3053"
     d="m 0,48 64,0 0,14 -2,2 -60,0 -2,-2 z" />
  <path
     inkscape:connector-curvature="0"
     style="fill:#3e7fc4;fill-opacity:1;fill-rule:nonzero"
     id="path3055"
     d="m 0,31 64,0 0,17 -64,0 z" />
  <path
     inkscape:connector-curvature="0"
     style="fill:#7840a3;fill-opacity:1;fill-rule:nonzero"
     id="path3809"
     d="M 0,31 64,31 64,15 0,15 Z" />
  <path
     inkscape:connector-curvature="0"
     style="fill:#5d962f;fill-rule:nonzero;fill-opacity:1"
     id="path3053-2"
     d="m 0,48 64,0 0,14 -2,2 -60,0 -2,-2 z" />
  <path
     inkscape:connector-curvature="0"
     style="fill:#2c7bd0;fill-rule:nonzero;fill-opacity:1"
     id="path3055-5"
     d="m 0,31 64,0 0,17 -64,0 z" />
  <path
     inkscape:connector-curvature="0"
     style="fill:#9741bd;fill-rule:nonzero;fill-opacity:1"
     id="path3809-9"
     d="M 0,31 64,31 64,15 0,15 Z" />
  <path
     d="m 64,15 -32,0 0,-7.346939 32,0 z"
     id="path3813"
     style="fill:#cf5de5;fill-rule:nonzero;fill-opacity:1" />
  <path
     d="m 0,15 32,0 0,-7.346939 -32,0 z"
     id="path3811"
     style="fill:#cb4fe3;fill-rule:nonzero;fill-opacity:1" />
  <path
     d="m 64,1 -2,-1 -30,0 0,7.653061 32,0 z"
     id="path3815"
     style="fill:#cb4fe3;fill-rule:nonzero;fill-opacity:1" />
  <path
     d="m 0,1 2,-1 30,0 0,7.653061 -32,0 z"
     id="path3960"
     style="fill:#cf5de5;fill-rule:nonzero;fill-opacity:1" />
  <path
     d="m 64,17 -2,-2 2,-1 z"
     id="path3028"
     style="fill:#b24fd0;fill-opacity:1" />
  <path
     style="fill:#e2d0ef;fill-opacity:1"
     id="path4208"
     d="m 5,19 0,8 1.46875,0 0,-3.4375 1.21875,0.03125 c 0.348533,0 0.563276,-0.004 0.625,0 0.083499,0.13796 0.304078,0.5646 0.65625,1.3125 L 9.90625,27 11.5,27 10.3125,24.53125 C 10.02205,23.93221 9.789796,23.53397 9.59375,23.3125 c 0.9621,-0.33401 1.43749,-1.03361 1.4375,-2.09375 -10e-6,-0.35942 -0.05823,-0.67609 -0.15625,-0.9375 C 10.7806,20.01622 10.667,19.81963 10.5,19.65625 10.33662,19.49293 10.11241,19.3444 9.84375,19.25 9.578712,19.15198 9.297703,19.09881 9,19.0625 8.705918,19.0262 8.371741,19.00001 7.96875,19 L 5,19 Z m 14.96875,0 0,8 1.46875,0 0,-3.4375 1.21875,0.03125 c 0.34853,0 0.56328,-0.004 0.625,0 0.0835,0.13796 0.30408,0.5646 0.65625,1.3125 L 24.875,27 l 1.59375,0 -1.1875,-2.46875 C 24.9908,23.93221 24.75855,23.53397 24.5625,23.3125 25.5246,22.97849 25.99999,22.27889 26,21.21875 c -10e-6,-0.35942 -0.05823,-0.67609 -0.15625,-0.9375 -0.0944,-0.26503 -0.208,-0.46162 -0.375,-0.625 C 25.30537,19.49288 25.08116,19.3444 24.8125,19.25 24.54746,19.15198 24.26645,19.09881 23.96875,19.0625 23.67467,19.0262 23.34049,19.00001 22.9375,19 l -2.96875,0 z M 14.6875,19.03125 11.75,27 l 1.5625,0 0.78125,-2.25 2.8125,0 0.78125,2.25 1.5,0 -2.875,-7.96875 -1.625,0 z m -8.21875,1.0625 1.6875,0 c 0.515539,10e-6 0.905734,0.0961 1.15625,0.28125 0.250505,0.18517 0.374994,0.4829 0.375,0.875 -6e-6,0.44657 -0.128125,0.76544 -0.375,0.96875 C 9.065615,22.41843 8.660117,22.50001 8.09375,22.5 l -0.8125,0 c -0.486501,-0.004 -0.758044,10e-6 -0.8125,0 l 0,-2.40625 z m 14.96875,0 1.6875,0 c 0.51554,10e-6 0.90574,0.0961 1.15625,0.28125 0.25051,0.18517 0.37499,0.4829 0.375,0.875 -10e-6,0.44657 -0.12813,0.76544 -0.375,0.96875 -0.24689,0.19968 -0.65238,0.28126 -1.21875,0.28125 l -0.8125,0 c -0.4865,-0.004 -0.75804,10e-6 -0.8125,0 l 0,-2.40625 z M 15.5,20.40625 c 0.01815,0.069 0.37774,1.15516 1.03125,3.25 l -2.0625,0 1.03125,-3.25 z"
     inkscape:connector-curvature="0" />
  <path
     style="fill:#390053;fill-opacity:0.15921289"
     d="M 16.673828 20.03125 L 19.1875 27 L 18.339844 27 L 18.6875 28 L 20.1875 28 L 17.3125 20.03125 L 16.673828 20.03125 z M 6.46875 20.09375 L 6.46875 22.5 C 6.523206 22.50001 6.794749 22.496 7.28125 22.5 L 7.46875 22.5 L 7.46875 21.09375 L 9.15625 21.09375 C 9.3553492 21.093754 9.5188035 21.120178 9.6796875 21.148438 C 9.6588452 20.808391 9.5399248 20.543109 9.3125 20.375 C 9.061984 20.18985 8.671789 20.09376 8.15625 20.09375 L 6.46875 20.09375 z M 21.4375 20.09375 L 21.4375 22.5 C 21.49196 22.50001 21.7635 22.496 22.25 22.5 L 22.4375 22.5 L 22.4375 21.09375 L 24.125 21.09375 C 24.3241 21.093754 24.487553 21.120178 24.648438 21.148438 C 24.627594 20.808391 24.508679 20.543109 24.28125 20.375 C 24.03074 20.18985 23.64054 20.09376 23.125 20.09375 L 21.4375 20.09375 z M 10.865234 20.259766 C 10.868155 20.267734 10.872117 20.273155 10.875 20.28125 C 10.97302 20.54266 11.03124 20.85933 11.03125 21.21875 C 11.031245 21.754529 10.908368 22.195922 10.664062 22.546875 C 10.617855 22.840758 10.500358 23.064042 10.3125 23.21875 C 10.165903 23.337318 9.9444652 23.402382 9.6855469 23.445312 C 9.8630086 23.67881 10.063188 24.017055 10.3125 24.53125 L 11.5 27 L 10.458984 27 L 10.90625 28 L 12.5 28 L 12.019531 27 L 11.75 27 L 11.867188 26.683594 L 11.3125 25.53125 C 11.02205 24.93221 10.789796 24.53397 10.59375 24.3125 C 11.55585 23.97849 12.03124 23.27889 12.03125 22.21875 C 12.03124 21.85933 11.97302 21.54266 11.875 21.28125 C 11.7806 21.01622 11.667 20.81963 11.5 20.65625 C 11.341344 20.497653 11.123616 20.354444 10.865234 20.259766 z M 25.833984 20.259766 C 25.836905 20.267734 25.840867 20.273155 25.84375 20.28125 C 25.94177 20.54266 25.99999 20.85933 26 21.21875 C 25.999995 21.754529 25.877118 22.195922 25.632812 22.546875 C 25.586603 22.840758 25.469104 23.064042 25.28125 23.21875 C 25.13465 23.337318 24.913214 23.402382 24.654297 23.445312 C 24.83176 23.67881 25.031938 24.017055 25.28125 24.53125 L 26.46875 27 L 25.427734 27 L 25.875 28 L 27.46875 28 L 26.28125 25.53125 C 25.9908 24.93221 25.75855 24.53397 25.5625 24.3125 C 26.5246 23.97849 26.99999 23.27889 27 22.21875 C 26.99999 21.85933 26.94177 21.54266 26.84375 21.28125 C 26.74935 21.01622 26.63575 20.81963 26.46875 20.65625 C 26.310094 20.497604 26.092366 20.354441 25.833984 20.259766 z M 15.523438 20.478516 L 15.195312 21.365234 L 14.46875 23.65625 L 15.785156 23.65625 L 16.158203 22.482422 C 15.890052 21.640911 15.543992 20.548994 15.523438 20.478516 z M 6.46875 23.5625 L 6.46875 27 L 6 27 L 6 28 L 7.46875 28 L 7.46875 24.5625 L 8.6875 24.59375 C 8.7572066 24.59375 8.7536504 24.593974 8.8125 24.59375 C 8.592159 24.139071 8.3761183 23.698862 8.3125 23.59375 C 8.250776 23.58975 8.036033 23.59375 7.6875 23.59375 L 6.46875 23.5625 z M 21.4375 23.5625 L 21.4375 27 L 20.96875 27 L 20.96875 28 L 22.4375 28 L 22.4375 24.5625 L 23.65625 24.59375 C 23.725956 24.59375 23.7224 24.593974 23.78125 24.59375 C 23.56091 24.139071 23.344869 23.698862 23.28125 23.59375 C 23.21953 23.58975 23.00478 23.59375 22.65625 23.59375 L 21.4375 23.5625 z M 14.09375 24.75 L 13.3125 27 L 13.119141 27 L 12.75 28 L 14.3125 28 L 15.09375 25.75 L 17.253906 25.75 L 16.90625 24.75 L 14.09375 24.75 z "
     id="path3982" />
  <path
     d="M 0,17 2,15 0,14 z"
     id="path3028-3"
     style="fill:#dd65f5;fill-opacity:1" />
</svg>
