<svg xmlns="http://www.w3.org/2000/svg" viewBox="0 0 64 64"><defs><linearGradient x1="48.918" y1="46.21" x2="32.67" y2="24" id="0" gradientUnits="userSpaceOnUse"><stop stop-color="#e68262" stop-opacity=".665"/><stop offset="1" stop-color="#e1715d" stop-opacity="0"/></linearGradient></defs><path d="m4 0h60v62h-60z" fill="#99214f"/><path d="m63 0v61h-59v1h60v-62h-1" fill-opacity=".079"/><path d="m0 2h60v31l-26 31h-34z" fill="url(#0)"/><path d="m0 2h60v31l-26 31h-34z" fill="#c91949" color="#000"/><path d="m0 63h35l-1 1h-34z" fill-opacity=".103"/><g color="#000"><path d="m0 64v-31h12.06v18.535h.563l-11.688 12.465h-.938" fill="#d72d6f"/><path d="m12.06 51.54v-18.535h17.938l-17.375 18.535h-.563" fill="#e54d86"/><path d="m47.938 33v-18.535h-.563l11.688-12.465h.938v31h-12.06" fill="#d7366e"/><path d="m30 33l17.375-18.535h.563v18.535h-17.938" fill="#e23e7a"/><path d="m30 51.53v12.469h4l10.469-12.469h-14.469" fill="#f478b0"/><path d="m30 33v18.531h14.469l1.594-1.938-16.06-16.594" fill="#e65088"/><path d="m12.06 14.465l-12.06-12.465h30v12.465h-17.938" fill="#d63975"/><path d="m30 33l-17.938-18.535h17.938v18.535" fill="#e04876"/><path d="m0 33v-31h.938l11.688 12.465h-.563v18.535h-12.06" fill="#c62161"/><path d="m12.06 33v-18.535h.563l17.375 18.535h-17.938" fill="#d8315e"/><path d="m47.938 33v14.375l12.06-14.375h-12.06" fill="#f584c0"/><path d="m30 33l15.844 16.875 2.094-2.5v-14.375h-17.938" fill="#f26d9d"/><path d="m0 64l12.06-12.465h17.938v12.465h-30" fill="#e84c91"/><path d="m12.06 51.54l17.938-18.535v18.535h-17.938" fill="#de4078"/><path d="m30 14.465v-12.465h30l-12.06 12.465h-17.938" fill="#c82170"/><path d="m30 33v-18.535h17.938l-17.938 18.535" fill="#d33069"/></g><path d="m60 33l-8 3-15 18-3 10 26-31" fill="#c11a5b"/><path d="m52 36h-15v18z" fill="#d51e73"/><path d="m10.594 8l-.313.281-4.281 4.281v2.844l12.281 12.281.719.719.719-.719 12.281-12.281v-2.844l-4.281-4.281-.313-.281zm16.281 2.25l2.75 2.75h-9.625v-3h6zm-18.438 4.75h9.563v9.563z" color="#000" fill="#ffd6e9"/></svg>