<?xml version="1.0" encoding="UTF-8" standalone="no"?>
<!-- Created with Inkscape (http://www.inkscape.org/) -->
<svg xmlns:dc="http://purl.org/dc/elements/1.1/" xmlns:cc="http://creativecommons.org/ns#" xmlns:rdf="http://www.w3.org/1999/02/22-rdf-syntax-ns#" xmlns:svg="http://www.w3.org/2000/svg" xmlns="http://www.w3.org/2000/svg" xmlns:sodipodi="http://sodipodi.sourceforge.net/DTD/sodipodi-0.dtd" xmlns:inkscape="http://www.inkscape.org/namespaces/inkscape" width="18" height="18" id="svg27665" version="1.1" inkscape:version="0.48.3.1 r9886" sodipodi:docname="btsync.svg">
  <defs id="defs27667"/>
  <sodipodi:namedview id="base" pagecolor="#ffffff" bordercolor="#666666" borderopacity="1.0" inkscape:pageopacity="0" inkscape:pageshadow="2" inkscape:zoom="32.000001" inkscape:cx="2.5547871" inkscape:cy="11.748867" inkscape:document-units="px" inkscape:current-layer="layer1" showgrid="true" inkscape:window-width="1920" inkscape:window-height="1023" inkscape:window-x="-10" inkscape:window-y="35" inkscape:window-maximized="1" inkscape:snap-bbox="true" inkscape:bbox-paths="true" inkscape:bbox-nodes="true" inkscape:snap-bbox-edge-midpoints="true" inkscape:snap-bbox-midpoints="true" inkscape:object-paths="true" inkscape:snap-intersection-paths="true" inkscape:object-nodes="true" inkscape:snap-smooth-nodes="true" inkscape:snap-midpoints="true" inkscape:snap-object-midpoints="true" inkscape:snap-center="true" inkscape:snap-global="true" showguides="true" inkscape:guide-bbox="true" fit-margin-top="0" fit-margin-left="0" fit-margin-right="0" fit-margin-bottom="0" inkscape:showpageshadow="false">
    <inkscape:grid type="xygrid" id="grid3070" empspacing="5" visible="true" enabled="true" snapvisiblegridlinesonly="true" originx="-47.999653px" originy="-0.00031276823px"/>
  </sodipodi:namedview>
  <metadata id="metadata27670">
    <rdf:RDF>
      <cc:Work rdf:about="">
        <dc:format>image/svg+xml</dc:format>
        <dc:type rdf:resource="http://purl.org/dc/dcmitype/StillImage"/>
        <dc:title/>
      </cc:Work>
    </rdf:RDF>
  </metadata>
  <g inkscape:label="Camada 1" inkscape:groupmode="layer" id="layer1" transform="translate(3316.4171,-2100.7186)">
    <path inkscape:connector-curvature="0" id="path3799" d="m -3308.3846,2101.7165 c -2.4172,0 -4.7744,1.2251 -6.0726,3.4314 l 1.7237,1.0142 c 1.3792,-2.3437 4.4306,-3.1493 6.8296,-1.7876 0.9063,0.5144 1.603,1.2784 2.0255,2.1708 l -0.6969,-0.5003 -1.1665,1.6247 2.7375,1.9653 a 1.0001348,1.0001348 0 0 0 1.5824,-0.7738 c 0.1,-2.5548 -1.2538,-4.9543 -3.4945,-6.2261 -1.0928,-0.6205 -2.2876,-0.9165 -3.4682,-0.9186 z m -6.0059,5.8921 a 1.0001348,1.0001348 0 0 0 -1.022,0.9609 c -0.098,2.555 1.254,4.9545 3.4947,6.2263 3.3306,1.8905 7.6085,0.771 9.5406,-2.5128 l -1.7237,-1.0142 c -1.379,2.3437 -4.4304,3.1495 -6.8296,1.7878 -0.9059,-0.5143 -1.6026,-1.2783 -2.0249,-2.1706 l 0.6965,0.5001 1.1665,-1.6249 -2.7375,-1.9651 a 1.0001348,1.0001348 0 0 0 -0.5606,-0.1875 z" style="font-size:medium;font-style:normal;font-variant:normal;font-weight:normal;font-stretch:normal;text-indent:0;text-align:start;text-decoration:none;line-height:normal;letter-spacing:normal;word-spacing:normal;text-transform:none;direction:ltr;block-progression:tb;writing-mode:lr-tb;text-anchor:start;baseline-shift:baseline;color:#000000;fill:#434a55;fill-opacity:0.6745098;fill-rule:nonzero;stroke:none;stroke-width:288.20413208;marker:none;visibility:visible;display:inline;overflow:visible;enable-background:accumulate;font-family:Sans;-inkscape-font-specification:Sans" transform="translate(1,1)"/>
  </g>
</svg>
