<?xml version="1.0" encoding="UTF-8" standalone="no"?>
<!-- Created with Inkscape (http://www.inkscape.org/) -->
<svg xmlns:dc="http://purl.org/dc/elements/1.1/" xmlns:cc="http://creativecommons.org/ns#" xmlns:rdf="http://www.w3.org/1999/02/22-rdf-syntax-ns#" xmlns:svg="http://www.w3.org/2000/svg" xmlns="http://www.w3.org/2000/svg" xmlns:sodipodi="http://sodipodi.sourceforge.net/DTD/sodipodi-0.dtd" xmlns:inkscape="http://www.inkscape.org/namespaces/inkscape" width="18" height="18" id="svg27665" version="1.1" inkscape:version="0.48.3.1 r9886" sodipodi:docname="btsync.svg">
  <defs id="defs27667"/>
  <sodipodi:namedview id="base" pagecolor="#ffffff" bordercolor="#666666" borderopacity="1.0" inkscape:pageopacity="0" inkscape:pageshadow="2" inkscape:zoom="32.000001" inkscape:cx="2.5547871" inkscape:cy="11.748867" inkscape:document-units="px" inkscape:current-layer="layer1" showgrid="true" inkscape:window-width="1920" inkscape:window-height="1023" inkscape:window-x="-10" inkscape:window-y="35" inkscape:window-maximized="1" inkscape:snap-bbox="true" inkscape:bbox-paths="true" inkscape:bbox-nodes="true" inkscape:snap-bbox-edge-midpoints="true" inkscape:snap-bbox-midpoints="true" inkscape:object-paths="true" inkscape:snap-intersection-paths="true" inkscape:object-nodes="true" inkscape:snap-smooth-nodes="true" inkscape:snap-midpoints="true" inkscape:snap-object-midpoints="true" inkscape:snap-center="true" inkscape:snap-global="true" showguides="true" inkscape:guide-bbox="true" fit-margin-top="0" fit-margin-left="0" fit-margin-right="0" fit-margin-bottom="0" inkscape:showpageshadow="false">
    <inkscape:grid type="xygrid" id="grid3070" empspacing="5" visible="true" enabled="true" snapvisiblegridlinesonly="true" originx="-47.999653px" originy="-0.00031276823px"/>
  </sodipodi:namedview>
  <metadata id="metadata27670">
    <rdf:RDF>
      <cc:Work rdf:about="">
        <dc:format>image/svg+xml</dc:format>
        <dc:type rdf:resource="http://purl.org/dc/dcmitype/StillImage"/>
        <dc:title/>
      </cc:Work>
    </rdf:RDF>
  </metadata>
  <g inkscape:label="Camada 1" inkscape:groupmode="layer" id="layer1" transform="translate(3316.4171,-2100.7186)">
    <path inkscape:connector-curvature="0" id="path3799" d="m -3308.3846,2101.7165 c -2.4172,0 -4.7744,1.2251 -6.0726,3.4314 l 1.7237,1.0142 c 1.3792,-2.3437 4.4306,-3.1493 6.8296,-1.7876 0.9063,0.5144 1.603,1.2784 2.0255,2.1708 l -0.6969,-0.5003 -1.1665,1.6247 2.7375,1.9653 a 1.0001348,1.0001348 0 0 0 1.5824,-0.7738 c 0.1,-2.5548 -1.2538,-4.9543 -3.4945,-6.2261 -1.0928,-0.6205 -2.2876,-0.9165 -3.4682,-0.9186 z m -6.0059,5.8921 a 1.0001348,1.0001348 0 0 0 -1.022,0.9609 c -0.098,2.555 1.254,4.9545 3.4947,6.2263 3.3306,1.8905 7.6085,0.771 9.5406,-2.5128 l -1.7237,-1.0142 c -1.379,2.3437 -4.4304,3.1495 -6.8296,1.7878 -0.9059,-0.5143 -1.6026,-1.2783 -2.0249,-2.1706 l 0.6965,0.5001 1.1665,-1.6249 -2.7375,-1.9651 a 1.0001348,1.0001348 0 0 0 -0.5606,-0.1875 z" style="font-size:medium;font-style:normal;font-variant:normal;font-weight:normal;font-stretch:normal;text-indent:0;text-align:start;text-decoration:none;line-height:normal;letter-spacing:normal;word-spacing:normal;text-transform:none;direction:ltr;block-progression:tb;writing-mode:lr-tb;text-anchor:start;baseline-shift:baseline;color:#000000;fill:#27303a;fill-opacity:0.753280819999999968;fill-rule:nonzero;stroke:none;stroke-width:288.20413208;marker:none;visibility:visible;display:inline;overflow:visible;enable-background:accumulate;font-family:Sans;-inkscape-font-specification:Sans" transform="translate(1,1)"/>
    <path style="font-size:medium;font-style:normal;font-variant:normal;font-weight:normal;font-stretch:normal;text-indent:0;text-align:start;text-decoration:none;line-height:normal;letter-spacing:normal;word-spacing:normal;text-transform:none;direction:ltr;block-progression:tb;writing-mode:lr-tb;text-anchor:start;baseline-shift:baseline;color:#000000;fill:#f1f3f5;fill-opacity:0.90288714000000003;fill-rule:nonzero;stroke:none;stroke-width:2;marker:none;visibility:visible;display:inline;overflow:visible;enable-background:accumulate;font-family:Sans;-inkscape-font-specification:Sans" d="M 8.03125 -0.1875 C 5.20855 -0.1875 2.42795 1.2264 0.90625 3.8125 A 1.20012 1.20012 0 0 0 1.34375 5.46875 L 1.84375 5.75 C 0.71255 5.825 -0.17335 6.6495 -0.21875 7.8125 C -0.33405 10.8187 1.28225 13.6356 3.90625 15.125 C 7.79735 17.3336 12.7983 16.0359 15.0625 12.1875 A 1.20012 1.20012 0 0 0 14.625 10.53125 L 14.09375 10.21875 C 14.38585 10.19075 14.6914 10.15175 14.9375 10.03125 C 15.5766 9.71875 16.153 9.0761 16.1875 8.1875 C 16.3053 5.1805 14.71755 2.3642 12.09375 0.875 C 10.81685 0.1499 9.41095 -0.185 8.03125 -0.1875 z M 8.03125 1 C 9.21185 1.0021 10.4072 1.28575 11.5 1.90625 C 13.7407 3.17805 15.1 5.60145 15 8.15625 A 1.0001348 1.0001348 0 0 1 13.40625 8.90625 L 10.6875 6.9375 L 11.84375 5.3125 L 12.53125 5.8125 C 12.10875 4.9201 11.4063 4.17065 10.5 3.65625 C 8.101 2.29455 5.0667 3.0938 3.6875 5.4375 L 1.96875 4.4375 C 3.26695 2.2312 5.61405 1 8.03125 1 z M 7.9375 4.1875 C 8.1210471 4.1835686 8.2841375 4.19575 8.46875 4.21875 C 8.96105 4.27975 9.44565 4.4261 9.90625 4.6875 C 10.13015 4.8146 10.21895 5.05625 10.40625 5.21875 L 9.6875 6.25 A 1.20012 1.20012 0 0 0 9.96875 7.9375 L 12 9.40625 A 1.20012 1.20012 0 0 0 11.28125 9.9375 C 10.23365 11.718 7.9051 12.32705 6.0625 11.28125 C 5.8365 11.15295 5.7513 10.9145 5.5625 10.75 L 6.28125 9.75 A 1.20012 1.20012 0 0 0 6 8.0625 L 4 6.59375 A 1.20012 1.20012 0 0 0 4.71875 6.0625 C 5.406325 4.8941125 6.6526705 4.2150201 7.9375 4.1875 z M 2.03125 6.875 A 1.0001348 1.0001348 0 0 1 2.59375 7.0625 L 5.3125 9.03125 L 4.15625 10.65625 L 3.46875 10.15625 C 3.89105 11.04855 4.5941 11.82945 5.5 12.34375 C 7.8992 13.70545 10.9335 12.9062 12.3125 10.5625 L 14.03125 11.5625 C 12.09915 14.8463 7.8306 15.953 4.5 14.0625 C 2.2593 12.7907 0.902 10.39875 1 7.84375 A 1.0001348 1.0001348 0 0 1 2.03125 6.875 z " transform="translate(-3315.4171,2101.7186)" id="path2989"/>
  </g>
</svg>
