<?xml version="1.0" encoding="UTF-8" standalone="no"?>
<!-- Created with Inkscape (http://www.inkscape.org/) -->
<svg xmlns:dc="http://purl.org/dc/elements/1.1/" xmlns:cc="http://creativecommons.org/ns#" xmlns:rdf="http://www.w3.org/1999/02/22-rdf-syntax-ns#" xmlns:svg="http://www.w3.org/2000/svg" xmlns="http://www.w3.org/2000/svg" xmlns:sodipodi="http://sodipodi.sourceforge.net/DTD/sodipodi-0.dtd" xmlns:inkscape="http://www.inkscape.org/namespaces/inkscape" width="18" height="18" id="svg27665" version="1.1" inkscape:version="0.91+devel r" sodipodi:docname="viber.svg">
  <defs id="defs27667"/>
  <sodipodi:namedview id="base" pagecolor="#ffffff" bordercolor="#666666" borderopacity="1.0" inkscape:pageopacity="0.0" inkscape:pageshadow="2" inkscape:zoom="31.678384" inkscape:cx="12.284212" inkscape:cy="8.0461693" inkscape:document-units="px" inkscape:current-layer="layer1" showgrid="true" inkscape:window-width="1920" inkscape:window-height="1033" inkscape:window-x="-10" inkscape:window-y="25" inkscape:window-maximized="1" inkscape:snap-bbox="true" inkscape:bbox-paths="true" inkscape:bbox-nodes="true" inkscape:snap-bbox-edge-midpoints="true" inkscape:snap-bbox-midpoints="true" inkscape:object-paths="true" inkscape:snap-intersection-paths="true" inkscape:object-nodes="true" inkscape:snap-smooth-nodes="true" inkscape:snap-midpoints="true" inkscape:snap-object-midpoints="true" inkscape:snap-center="true" inkscape:snap-global="true" showguides="false" inkscape:guide-bbox="true" fit-margin-top="0" fit-margin-left="0" fit-margin-right="0" fit-margin-bottom="0" inkscape:showpageshadow="false">
    <sodipodi:guide orientation="0,1" position="-1494.2276,523.03618" id="guide4179"/>
    <sodipodi:guide orientation="1,0" position="-1492.0847,520.17904" id="guide4181"/>
    <inkscape:grid type="xygrid" id="grid4279" empspacing="5" visible="true" enabled="true" snapvisiblegridlinesonly="true" originx="6.6056504e-05px" originy="592.00001px"/>
  </sodipodi:namedview>
  <metadata id="metadata27670">
    <rdf:RDF>
      <cc:Work rdf:about="">
        <dc:format>image/svg+xml</dc:format>
        <dc:type rdf:resource="http://purl.org/dc/dcmitype/StillImage"/>
        <dc:title/>
      </cc:Work>
    </rdf:RDF>
  </metadata>
  <g inkscape:label="Camada 1" inkscape:groupmode="layer" id="layer1" transform="translate(3393.2465,-1650.2411)">
    <path inkscape:connector-curvature="0" style="color:#000000;display:inline;overflow:visible;visibility:visible;opacity:1;fill:#27303a;fill-opacity:0.75328081999999996;fill-rule:nonzero;stroke:none;stroke-width:1;stroke-linecap:butt;stroke-linejoin:miter;stroke-miterlimit:4;stroke-dasharray:none;stroke-dashoffset:0;stroke-opacity:1;marker:none;enable-background:accumulate" d="m -3385.2465,1651.2411 c -2.9329,0 -4.8657,0.7622 -5.6289,1.5254 -1.2368,1.2368 -1.3711,3.8615 -1.3711,4.9746 0,1.1131 0.1343,3.7378 1.3711,4.9746 0.4606,0.4606 1.3536,0.9184 2.6289,1.2109 l 0,2.3145 1,0 1.3477,-2.0215 c 0.2151,0.01 0.4251,0.022 0.6523,0.022 2.9329,0 4.8657,-0.7622 5.6289,-1.5254 1.2368,-1.2368 1.3711,-3.8615 1.3711,-4.9746 0,-1.1131 -0.1343,-3.7378 -1.3711,-4.9746 -0.7632,-0.7632 -2.696,-1.5254 -5.6289,-1.5254 z m -0.1836,2.4375 0,0 c 0.092,-0.016 0.2275,-0.011 0.4355,0.01 0.9438,0.093 1.7178,0.4351 2.3574,1.039 0.3782,0.357 0.5819,0.6179 0.7813,1.0039 0.2755,0.5336 0.4306,1.131 0.4726,1.8243 0.022,0.3542 0.019,0.3702 -0.055,0.4492 -0.1032,0.1049 -0.2371,0.1032 -0.3261,-0.01 -0.053,-0.068 -0.068,-0.1338 -0.068,-0.3008 0,-0.3063 -0.088,-0.8667 -0.1875,-1.1797 -0.424,-1.3445 -1.5743,-2.2427 -3.0371,-2.373 -0.4479,-0.04 -0.4769,-0.05 -0.5469,-0.1738 -0.044,-0.079 -0.044,-0.098 0,-0.1758 0.035,-0.063 0.084,-0.1012 0.1758,-0.1172 z m -2.8926,0.1133 0,0 c 0.3634,-0.026 0.6116,0.1738 1.2266,0.9903 0.4618,0.6129 0.6603,1.0234 0.6133,1.2715 -0.026,0.1389 -0.1984,0.3389 -0.5039,0.582 -0.2547,0.2028 -0.3067,0.297 -0.3067,0.5469 0,0.4107 0.3182,1.0163 0.791,1.5117 0.7249,0.7597 1.606,1.22 2.0118,1.0508 0.067,-0.028 0.1962,-0.156 0.3398,-0.336 0.2719,-0.3411 0.39,-0.4118 0.6797,-0.4121 0.1627,-10e-5 0.2399,0.019 0.4082,0.1074 0.5246,0.2749 1.5721,1.0703 1.6992,1.2891 0.088,0.1503 0.083,0.4254 -0.01,0.6094 -0.118,0.2326 -0.2607,0.427 -0.4921,0.6699 -0.256,0.2687 -0.4848,0.4231 -0.7305,0.4961 -0.098,0.029 -0.2299,0.051 -0.2949,0.051 -0.3463,0 -1.6692,-0.6404 -2.5586,-1.2344 -1.2463,-0.8323 -2.432,-2.0538 -3.2344,-3.3359 -0.4566,-0.7296 -0.9449,-1.7959 -1.0469,-2.2852 -0.1031,-0.4942 0.107,-0.8115 0.8887,-1.3418 0.291,-0.1974 0.3424,-0.2194 0.5195,-0.2324 z m 3.3477,0.8867 c 0.347,0.01 0.9482,0.1752 1.332,0.4004 0.2793,0.1639 0.6849,0.5619 0.8535,0.8398 0.2428,0.4002 0.3887,0.9197 0.3887,1.3887 0,0.2012 -0.012,0.2585 -0.066,0.3125 -0.082,0.085 -0.2009,0.087 -0.2969,0.01 -0.062,-0.051 -0.077,-0.108 -0.1015,-0.4219 -0.051,-0.6368 -0.2148,-0.9992 -0.6407,-1.4219 -0.3862,-0.3833 -0.7826,-0.5636 -1.4121,-0.6426 -0.141,-0.018 -0.2579,-0.054 -0.2969,-0.088 -0.078,-0.074 -0.08,-0.2493 0,-0.3223 0.041,-0.038 0.1285,-0.051 0.2442,-0.051 l 0,0 z m 0.1308,1.0449 c 0.068,-0.017 0.1652,-0.013 0.3028,0.01 0.6087,0.1005 0.988,0.4603 1.1152,1.0566 0.059,0.278 0.047,0.4141 -0.041,0.4961 -0.093,0.087 -0.1892,0.093 -0.2852,0.016 -0.053,-0.043 -0.079,-0.1186 -0.1015,-0.2832 -0.04,-0.2814 -0.1052,-0.4393 -0.2403,-0.582 -0.1321,-0.1393 -0.317,-0.2239 -0.5527,-0.2539 -0.1001,-0.013 -0.2102,-0.038 -0.2422,-0.055 -0.088,-0.044 -0.1259,-0.1751 -0.088,-0.2754 0.026,-0.067 0.065,-0.1079 0.1328,-0.1269 l 0,0 z" id="path4329" transform="translate(1,1)"/>
    <path style="color:#000000;font-style:normal;font-variant:normal;font-weight:normal;font-stretch:normal;font-size:medium;line-height:normal;font-family:sans-serif;text-indent:0;text-align:start;text-decoration:none;text-decoration-line:none;text-decoration-style:solid;text-decoration-color:#000000;letter-spacing:normal;word-spacing:normal;text-transform:none;direction:ltr;block-progression:tb;writing-mode:lr-tb;baseline-shift:baseline;text-anchor:start;white-space:normal;shape-padding:0;clip-rule:nonzero;display:inline;overflow:visible;visibility:visible;opacity:1;isolation:auto;mix-blend-mode:normal;color-interpolation:sRGB;color-interpolation-filters:linearRGB;solid-color:#000000;solid-opacity:1;fill:#f1f3f5;fill-opacity:0.90288714000000003;fill-rule:nonzero;stroke:none;stroke-width:2;stroke-linecap:butt;stroke-linejoin:miter;stroke-miterlimit:4;stroke-dasharray:none;stroke-dashoffset:0;stroke-opacity:1;marker:none;color-rendering:auto;image-rendering:auto;shape-rendering:auto;text-rendering:auto;enable-background:accumulate" d="M 8 -0.0078125 L 8 -0.00390625 C 4.8938 -0.00390625 2.7106375 0.5627 1.5859375 1.6875 C 0.7302375 2.5432 0.44833437 3.8110281 0.24023438 4.8613281 C 0.032234375 5.9116281 0 6.8992937 0 7.4960938 C 0 8.0928938 0.032034375 9.0805594 0.24023438 10.130859 C 0.44833437 11.181159 0.7614875 12.400159 1.6171875 13.255859 C 2.1298875 13.768559 2.6931688 13.986309 3.6054688 14.287109 L 3.8261719 15.996094 C 3.8261719 15.99741 3.8261648 15.998685 3.8261719 16 L 5 16 L 5 13.685547 C 3.7247 13.393047 2.8316938 12.935209 2.3710938 12.474609 C 1.1342937 11.237809 1 8.6131 1 7.5 C 1 6.3869 1.1342938 3.7621906 2.3710938 2.5253906 C 3.1342937 1.7621906 5.0671 1 8 1 C 10.9329 1 12.865706 1.7621906 13.628906 2.5253906 C 14.865706 3.7621906 15 6.3869 15 7.5 C 15 8.6131 14.865706 11.237809 13.628906 12.474609 C 12.865706 13.237809 10.9329 14 8 14 C 7.7728 14 7.5627563 13.988516 7.3476562 13.978516 L 6 16 L 7.5566406 16 L 8.3925781 14.992188 C 8.4395781 14.992988 8.4725844 14.992188 8.5214844 14.992188 C 11.627684 14.992188 13.338191 14.409956 14.462891 13.285156 C 15.318591 12.429456 15.551666 11.177253 15.759766 10.126953 C 15.967766 9.0766531 16 8.0889875 16 7.4921875 C 16 6.8953875 15.967966 5.9077219 15.759766 4.8574219 C 15.551666 3.8071219 15.254138 2.5724969 14.398438 1.7167969 C 13.273738 0.59199687 11.1062 -0.0078125 8 -0.0078125 z M 7.8183594 3.4335938 C 7.7263594 3.4495938 7.6775781 3.4875813 7.6425781 3.5507812 C 7.5985781 3.6287812 7.5985781 3.6477625 7.6425781 3.7265625 C 7.7125781 3.8503625 7.7415531 3.8603906 8.1894531 3.9003906 C 9.6522531 4.0306906 10.802563 4.9289375 11.226562 6.2734375 C 11.325563 6.5864375 11.414062 7.146825 11.414062 7.453125 C 11.414062 7.620125 11.429422 7.6859063 11.482422 7.7539062 C 11.571422 7.8671063 11.705394 7.8683719 11.808594 7.7636719 C 11.882594 7.6846719 11.885281 7.6686531 11.863281 7.3144531 C 11.821281 6.6211531 11.666125 6.0238344 11.390625 5.4902344 C 11.191225 5.1042344 10.987575 4.8433281 10.609375 4.4863281 C 9.969775 3.8824281 9.1957531 3.5402656 8.2519531 3.4472656 C 8.0439531 3.4262656 7.9084062 3.4215 7.8164062 3.4375 L 7.8183594 3.4335938 z M 4.9238281 3.5488281 C 4.7467281 3.5618281 4.6952969 3.58375 4.4042969 3.78125 C 3.6225969 4.31145 3.412525 4.6288469 3.515625 5.1230469 C 3.617625 5.6123469 4.1059 6.6786031 4.5625 7.4082031 C 5.3649 8.6903031 6.550575 9.9118406 7.796875 10.744141 C 8.686275 11.338141 10.009169 11.978516 10.355469 11.978516 C 10.420469 11.978516 10.552391 11.956734 10.650391 11.927734 C 10.896091 11.854734 11.124859 11.700341 11.380859 11.431641 C 11.612259 11.188741 11.755047 10.994319 11.873047 10.761719 C 11.966047 10.577719 11.970812 10.302644 11.882812 10.152344 C 11.755712 9.9335437 10.708194 9.1381812 10.183594 8.8632812 C 10.015294 8.7752813 9.9380906 8.7557594 9.7753906 8.7558594 C 9.4856906 8.7561594 9.3676031 8.8268687 9.0957031 9.1679688 C 8.9521031 9.3479688 8.8228594 9.4759062 8.7558594 9.5039062 C 8.3500594 9.6731063 7.4690406 9.212825 6.7441406 8.453125 C 6.2713406 7.957725 5.953125 7.3521062 5.953125 6.9414062 C 5.953125 6.6915062 6.0050656 6.5973313 6.2597656 6.3945312 C 6.5652656 6.1514313 6.7376719 5.9514 6.7636719 5.8125 C 6.8106719 5.5644 6.6121906 5.1539156 6.1503906 4.5410156 C 5.5353906 3.7245156 5.2872281 3.5247812 4.9238281 3.5507812 L 4.9238281 3.5488281 z M 8.2675781 4.4335938 L 8.2714844 4.4375 C 8.1557844 4.4375 8.0683437 4.4502812 8.0273438 4.4882812 C 7.9473438 4.5612813 7.9493438 4.7365469 8.0273438 4.8105469 C 8.0663438 4.8445469 8.1832187 4.8804375 8.3242188 4.8984375 C 8.9537188 4.9774375 9.3501281 5.1577156 9.7363281 5.5410156 C 10.162228 5.9637156 10.325953 6.3260906 10.376953 6.9628906 C 10.400953 7.2767906 10.416016 7.3337656 10.478516 7.3847656 C 10.574516 7.4617656 10.693391 7.46 10.775391 7.375 C 10.829391 7.321 10.841797 7.2637 10.841797 7.0625 C 10.841797 6.5935 10.695925 6.0740281 10.453125 5.6738281 C 10.284525 5.3959281 9.8789094 4.9978844 9.5996094 4.8339844 C 9.2158094 4.6087844 8.6145781 4.4435937 8.2675781 4.4335938 z M 8.4023438 5.4804688 L 8.4023438 5.4824219 C 8.3343437 5.5014219 8.2955312 5.542475 8.2695312 5.609375 C 8.2315312 5.709675 8.2693219 5.8407656 8.3574219 5.8847656 C 8.3894219 5.9017656 8.4995094 5.9264531 8.5996094 5.9394531 C 8.8353094 5.9694531 9.0202437 6.0540594 9.1523438 6.1933594 C 9.2874437 6.3360594 9.3525781 6.4939906 9.3925781 6.7753906 C 9.4155781 6.9399906 9.4406406 7.0155937 9.4941406 7.0585938 C 9.5901406 7.1355937 9.6862969 7.1299687 9.7792969 7.0429688 C 9.8672969 6.9609687 9.8793125 6.824875 9.8203125 6.546875 C 9.6931125 5.950575 9.3137781 5.5907344 8.7050781 5.4902344 C 8.5674781 5.4672344 8.4703437 5.4634687 8.4023438 5.4804688 z " transform="translate(-3392.2465,1651.2411)" id="rect4210"/>
  </g>
</svg>
