<?xml version="1.0" encoding="UTF-8" standalone="no"?>
<!-- Created with Inkscape (http://www.inkscape.org/) -->

<svg
   xmlns:dc="http://purl.org/dc/elements/1.1/"
   xmlns:cc="http://creativecommons.org/ns#"
   xmlns:rdf="http://www.w3.org/1999/02/22-rdf-syntax-ns#"
   xmlns:svg="http://www.w3.org/2000/svg"
   xmlns="http://www.w3.org/2000/svg"
   xmlns:xlink="http://www.w3.org/1999/xlink"
   xmlns:sodipodi="http://sodipodi.sourceforge.net/DTD/sodipodi-0.dtd"
   xmlns:inkscape="http://www.inkscape.org/namespaces/inkscape"
   width="64"
   height="64"
   id="svg13094"
   version="1.1"
   inkscape:version="0.48.3.1 r9886"
   sodipodi:docname="half-life.svg">
  <sodipodi:namedview
     id="base"
     pagecolor="#cbcdd6"
     bordercolor="#666666"
     borderopacity="1.0"
     inkscape:pageopacity="1"
     inkscape:pageshadow="2"
     inkscape:zoom="11.313709"
     inkscape:cx="28.084891"
     inkscape:cy="30.368595"
     inkscape:document-units="px"
     inkscape:current-layer="svg13094"
     showgrid="true"
     inkscape:snap-bbox="true"
     inkscape:bbox-paths="true"
     inkscape:bbox-nodes="true"
     inkscape:snap-bbox-edge-midpoints="true"
     inkscape:snap-bbox-midpoints="true"
     inkscape:object-paths="true"
     inkscape:snap-intersection-paths="true"
     inkscape:object-nodes="true"
     inkscape:snap-smooth-nodes="true"
     inkscape:snap-midpoints="true"
     inkscape:snap-object-midpoints="true"
     inkscape:snap-center="true"
     showguides="true"
     inkscape:guide-bbox="true"
     inkscape:window-width="1920"
     inkscape:window-height="1023"
     inkscape:window-x="-10"
     inkscape:window-y="35"
     inkscape:window-maximized="1"
     inkscape:snap-global="true"
     fit-margin-top="0"
     fit-margin-left="0"
     fit-margin-right="0"
     fit-margin-bottom="0"
     showborder="true"
     inkscape:showpageshadow="false"
     inkscape:snap-page="true">
    <inkscape:grid
       type="xygrid"
       id="grid3075"
       empspacing="5"
       visible="true"
       enabled="true"
       snapvisiblegridlinesonly="true"
       originx="1.6362304e-08px"
       originy="18px" />
  </sodipodi:namedview>
  <defs
     id="defs13096">
    <linearGradient
       id="linearGradient3952">
      <stop
         id="stop3954"
         offset="0"
         style="stop-color:#ffc21b;stop-opacity:0.44537815;" />
      <stop
         id="stop3956"
         offset="1"
         style="stop-color:#e24f00;stop-opacity:0;" />
    </linearGradient>
    <linearGradient
       id="linearGradient3897">
      <stop
         style="stop-color:#ffffff;stop-opacity:0.34906271;"
         offset="0"
         id="stop3899" />
      <stop
         style="stop-color:#000000;stop-opacity:0.27278605;"
         offset="1"
         id="stop3901" />
    </linearGradient>
    <linearGradient
       id="linearGradient4059">
      <stop
         id="stop4061"
         offset="0"
         style="stop-color:#626c7c;stop-opacity:1;" />
      <stop
         id="stop4063"
         offset="1"
         style="stop-color:#3a424b;stop-opacity:1" />
    </linearGradient>
    <radialGradient
       inkscape:collect="always"
       xlink:href="#linearGradient4059"
       id="radialGradient3943"
       cx="28.378605"
       cy="23.333334"
       fx="28.378605"
       fy="23.333334"
       r="32"
       gradientTransform="matrix(-2.5792129e-8,1.75,-1.640625,-2.4180121e-8,70.281252,-31.999996)"
       gradientUnits="userSpaceOnUse" />
    <linearGradient
       id="linearGradient6441">
      <stop
         style="stop-color:#d29942;stop-opacity:1;"
         offset="0"
         id="stop6443" />
      <stop
         style="stop-color:#ce7431;stop-opacity:0.76793796;"
         offset="1"
         id="stop6445" />
    </linearGradient>
    <radialGradient
       inkscape:collect="always"
       xlink:href="#linearGradient6441"
       id="radialGradient3832"
       gradientUnits="userSpaceOnUse"
       gradientTransform="matrix(0,0.21753325,-0.21530912,0,127.00938,-37.458288)"
       cx="256"
       cy="128.00383"
       fx="256"
       fy="128.00383"
       r="204.78125" />
    <radialGradient
       inkscape:collect="always"
       xlink:href="#linearGradient6441"
       id="radialGradient3804"
       cx="33"
       cy="11.834183"
       fx="33"
       fy="11.834183"
       r="26.030066"
       gradientTransform="matrix(0,2.1129413,-1.8111551,0,54.43354,-54.727062)"
       gradientUnits="userSpaceOnUse" />
    <radialGradient
       inkscape:collect="always"
       xlink:href="#linearGradient3897"
       id="radialGradient3903"
       cx="32"
       cy="14.800001"
       fx="32"
       fy="14.800001"
       r="32"
       gradientTransform="matrix(0,1.6875,-1.5820312,0,55.414063,-38)"
       gradientUnits="userSpaceOnUse" />
    <radialGradient
       inkscape:collect="always"
       xlink:href="#linearGradient3897"
       id="radialGradient3932"
       gradientUnits="userSpaceOnUse"
       gradientTransform="matrix(0,1.6875,-1.5820312,0,55.414063,-38)"
       cx="32"
       cy="14.800001"
       fx="32"
       fy="14.800001"
       r="32" />
    <radialGradient
       r="26.030066"
       fy="11.834183"
       fx="33"
       cy="11.834183"
       cx="33"
       gradientTransform="matrix(0,2.1129413,-1.8111551,0,54.43354,-54.727062)"
       gradientUnits="userSpaceOnUse"
       id="radialGradient3928"
       xlink:href="#linearGradient3952"
       inkscape:collect="always" />
    <radialGradient
       inkscape:collect="always"
       xlink:href="#linearGradient3952"
       id="radialGradient3958"
       gradientUnits="userSpaceOnUse"
       gradientTransform="matrix(0,1.8823736,-1.6135188,0,51.985554,-46.490899)"
       cx="35.72123"
       cy="12.386316"
       fx="35.72123"
       fy="12.386316"
       r="26.030066" />
    <radialGradient
       inkscape:collect="always"
       xlink:href="#linearGradient6441"
       id="radialGradient3962"
       gradientUnits="userSpaceOnUse"
       gradientTransform="matrix(0,2.1129413,-1.8111551,0,55.43354,-53.727062)"
       cx="33"
       cy="11.834183"
       fx="33"
       fy="11.834183"
       r="26.030066" />
    <radialGradient
       inkscape:collect="always"
       xlink:href="#linearGradient6441"
       id="radialGradient3966"
       gradientUnits="userSpaceOnUse"
       gradientTransform="matrix(0,2.1129413,-1.8111551,0,54.43354,-54.727062)"
       cx="33"
       cy="11.834183"
       fx="33"
       fy="11.834183"
       r="26.030066" />
    <radialGradient
       inkscape:collect="always"
       xlink:href="#linearGradient6441"
       id="radialGradient3968"
       gradientUnits="userSpaceOnUse"
       gradientTransform="matrix(0,2.1129413,-1.8111551,0,53.43354,-55.727062)"
       cx="33"
       cy="11.834183"
       fx="33"
       fy="11.834183"
       r="26.030066" />
    <radialGradient
       inkscape:collect="always"
       xlink:href="#linearGradient6441"
       id="radialGradient3975"
       gradientUnits="userSpaceOnUse"
       gradientTransform="matrix(0,2.1129413,-1.8111551,0,54.43354,-54.727062)"
       cx="33"
       cy="11.834183"
       fx="33"
       fy="11.834183"
       r="26.030066" />
    <radialGradient
       inkscape:collect="always"
       xlink:href="#linearGradient6441"
       id="radialGradient3979"
       gradientUnits="userSpaceOnUse"
       gradientTransform="matrix(0,2.1129413,-1.8111551,0,54.43354,-54.727062)"
       cx="33"
       cy="11.834183"
       fx="33"
       fy="11.834183"
       r="26.030066" />
    <radialGradient
       inkscape:collect="always"
       xlink:href="#linearGradient3952"
       id="radialGradient3984"
       gradientUnits="userSpaceOnUse"
       gradientTransform="matrix(0,1.8823736,-1.6135188,0,51.985554,-46.490899)"
       cx="33.197926"
       cy="12.386316"
       fx="33.197926"
       fy="12.386316"
       r="26.030066" />
  </defs>
  <metadata
     id="metadata13099">
    <rdf:RDF>
      <cc:Work
         rdf:about="">
        <dc:format>image/svg+xml</dc:format>
        <dc:type
           rdf:resource="http://purl.org/dc/dcmitype/StillImage" />
        <dc:title />
      </cc:Work>
    </rdf:RDF>
  </metadata>
  <path
     inkscape:connector-curvature="0"
     style="color:#000000;fill:url(#radialGradient3943);fill-opacity:1;fill-rule:nonzero;stroke:none;stroke-width:2.28571415000000000;marker:none;visibility:visible;display:inline;overflow:visible;enable-background:accumulate"
     d="m 0,4 0,30 0,28 2,2 30,0 30,0 2,-2 L 64,34 64,4 32,4 0,4 z"
     id="path4095" />
  <path
     inkscape:connector-curvature="0"
     style="color:#000000;fill:#838f9b;fill-opacity:1;fill-rule:nonzero;stroke:none;stroke-width:2.28571415000000000;marker:none;visibility:visible;display:inline;overflow:visible;enable-background:accumulate"
     d="M 2,0 0,1 0,4 32,4 64,4 64,1 62,0 32,0 2,0 z"
     id="path4090" />
  <path
     style="fill:#ffffff;fill-opacity:0.14487633;fill-rule:nonzero"
     d="M 0 3 L 0 6 L 2 4 L 32 4 L 62 4 L 64 3 L 32 3 L 0 3 z "
     id="path4298" />
  <path
     style="fill:#1f0700;fill-opacity:0.06978802;fill-rule:nonzero"
     d="M 2 0 L 0 1 L 32 1 L 64 1 L 62 0 L 32 0 L 2 0 z "
     id="path4444" />
  <path
     d="M 64,6 62,4 64,3 z"
     id="path3028"
     style="fill:#1f0700;fill-opacity:0.13759861"
     inkscape:connector-curvature="0" />
  <path
     style="fill:#000000;fill-opacity:0.11130587;fill-rule:nonzero"
     d="M 63 0.5 L 63 34 L 63 63 L 64 62 L 64 34 L 64 1 L 63 0.5 z M 63 63 L 32 63 L 1 63 L 2 64 L 32 64 L 62 64 L 63 63 z "
     id="path4366" />
  <g
     id="g3043"
     inkscape:export-filename="folder.png"
     inkscape:export-xdpi="90"
     inkscape:export-ydpi="90"
     transform="translate(-0.62500009,0.082283)" />
  <path
     style="fill:#ffffff;fill-opacity:0.35070675;fill-rule:nonzero"
     d="M 0 1 L 0 34 L 0 62 L 1 63 L 1 34 L 1 5 L 2 4 L 1 3.46875 L 1 1 L 0 1 z "
     id="path3864" />
  <g
     id="scalable"
     transform="matrix(1.0385892,0,0,1.0385892,1214.7222,1878.8121)"
     inkscape:label="#g3701"
     style="fill:#ffffff" />
  <path
     style="opacity:1;fill:#ffffff;fill-opacity:0.24462366;fill-rule:nonzero;stroke:none"
     d="M 2.71875 0 L 1.90625 0.46875 L 5.71875 0.46875 L 4.90625 0 L 2.71875 0 z M 5.71875 0.46875 L 9.53125 0.46875 L 8.71875 0 L 6.53125 0 L 5.71875 0.46875 z M 5.71875 0.46875 L 3.8125 1.53125 L 7.625 1.53125 L 5.71875 0.46875 z M 7.625 1.53125 L 11.4375 1.53125 L 9.53125 0.46875 L 7.625 1.53125 z M 7.625 1.53125 L 5.71875 2.625 L 9.53125 2.625 L 7.625 1.53125 z M 9.53125 2.625 L 13.34375 2.625 L 11.4375 1.53125 L 9.53125 2.625 z M 9.53125 2.625 L 7.625 3.71875 L 11.4375 3.71875 L 9.53125 2.625 z M 11.4375 3.71875 L 15.25 3.71875 L 13.34375 2.625 L 11.4375 3.71875 z M 11.4375 3.71875 L 10.9375 4 L 11.9375 4 L 11.4375 3.71875 z M 13.34375 2.625 L 17.15625 2.625 L 15.25 1.53125 L 13.34375 2.625 z M 15.25 1.53125 L 13.34375 0.46875 L 11.4375 1.53125 L 15.25 1.53125 z M 15.25 1.53125 L 19.0625 1.53125 L 17.15625 0.46875 L 15.25 1.53125 z M 17.15625 0.46875 L 16.34375 0 L 14.15625 0 L 13.34375 0.46875 L 17.15625 0.46875 z M 17.15625 0.46875 L 20.96875 0.46875 L 20.15625 0 L 17.96875 0 L 17.15625 0.46875 z M 20.96875 0.46875 L 24.78125 0.46875 L 23.96875 0 L 21.8125 0 L 20.96875 0.46875 z M 20.96875 0.46875 L 19.0625 1.53125 L 22.90625 1.53125 L 20.96875 0.46875 z M 22.90625 1.53125 L 26.71875 1.53125 L 24.78125 0.46875 L 22.90625 1.53125 z M 22.90625 1.53125 L 20.96875 2.625 L 24.78125 2.625 L 22.90625 1.53125 z M 24.78125 2.625 L 28.625 2.625 L 26.71875 1.53125 L 24.78125 2.625 z M 24.78125 2.625 L 22.90625 3.71875 L 26.71875 3.71875 L 24.78125 2.625 z M 26.71875 3.71875 L 30.53125 3.71875 L 28.625 2.625 L 26.71875 3.71875 z M 26.71875 3.71875 L 26.21875 4 L 27.21875 4 L 26.71875 3.71875 z M 28.625 2.625 L 32.4375 2.625 L 30.53125 1.53125 L 28.625 2.625 z M 30.53125 1.53125 L 28.625 0.46875 L 26.71875 1.53125 L 30.53125 1.53125 z M 30.53125 1.53125 L 34.34375 1.53125 L 32.4375 0.46875 L 30.53125 1.53125 z M 32.4375 0.46875 L 31.625 0 L 29.4375 0 L 28.625 0.46875 L 32.4375 0.46875 z M 32.4375 0.46875 L 36.25 0.46875 L 35.4375 0 L 33.25 0 L 32.4375 0.46875 z M 36.25 0.46875 L 40.0625 0.46875 L 39.25 0 L 37.0625 0 L 36.25 0.46875 z M 36.25 0.46875 L 34.34375 1.53125 L 38.15625 1.53125 L 36.25 0.46875 z M 38.15625 1.53125 L 42 1.53125 L 40.0625 0.46875 L 38.15625 1.53125 z M 38.15625 1.53125 L 36.25 2.625 L 40.0625 2.625 L 38.15625 1.53125 z M 40.0625 2.625 L 43.90625 2.625 L 42 1.53125 L 40.0625 2.625 z M 40.0625 2.625 L 38.15625 3.71875 L 42 3.71875 L 40.0625 2.625 z M 42 3.71875 L 45.8125 3.71875 L 43.90625 2.625 L 42 3.71875 z M 42 3.71875 L 41.5 4 L 42.5 4 L 42 3.71875 z M 43.90625 2.625 L 47.71875 2.625 L 45.8125 1.53125 L 43.90625 2.625 z M 45.8125 1.53125 L 43.90625 0.46875 L 42 1.53125 L 45.8125 1.53125 z M 45.8125 1.53125 L 49.625 1.53125 L 47.71875 0.46875 L 45.8125 1.53125 z M 47.71875 0.46875 L 46.90625 0 L 44.71875 0 L 43.90625 0.46875 L 47.71875 0.46875 z M 47.71875 0.46875 L 51.53125 0.46875 L 50.71875 0 L 48.53125 0 L 47.71875 0.46875 z M 51.53125 0.46875 L 55.34375 0.46875 L 54.53125 0 L 52.34375 0 L 51.53125 0.46875 z M 51.53125 0.46875 L 49.625 1.53125 L 53.4375 1.53125 L 51.53125 0.46875 z M 53.4375 1.53125 L 57.28125 1.53125 L 55.34375 0.46875 L 53.4375 1.53125 z M 53.4375 1.53125 L 51.53125 2.625 L 55.34375 2.625 L 53.4375 1.53125 z M 55.34375 2.625 L 59.1875 2.625 L 57.28125 1.53125 L 55.34375 2.625 z M 55.34375 2.625 L 53.4375 3.71875 L 57.28125 3.71875 L 55.34375 2.625 z M 57.28125 3.71875 L 61.0625 3.71875 L 59.1875 2.625 L 57.28125 3.71875 z M 57.28125 3.71875 L 56.78125 4 L 57.78125 4 L 57.28125 3.71875 z M 59.1875 2.625 L 63 2.625 L 61.0625 1.53125 L 59.1875 2.625 z M 61.0625 1.53125 L 59.1875 0.46875 L 57.28125 1.53125 L 61.0625 1.53125 z M 61.0625 1.53125 L 64 1.53125 L 64 1.03125 L 63.53125 0.78125 L 62.96875 0.5 L 61.0625 1.53125 z M 59.1875 0.46875 L 58.375 0 L 56.1875 0 L 55.34375 0.46875 L 59.1875 0.46875 z M 59.1875 0.46875 L 62.9375 0.46875 L 62 0 L 60 0 L 59.1875 0.46875 z M 63 2.625 L 64 2.625 L 64 2.0625 L 63 2.625 z M 63 2.625 L 61.0625 3.71875 L 64 3.71875 L 64 3.1875 L 63 2.625 z M 61.0625 3.71875 L 60.59375 4 L 61.5625 4 L 61.0625 3.71875 z M 53.4375 3.71875 L 52.9375 4 L 53.9375 4 L 53.4375 3.71875 z M 53.4375 3.71875 L 51.53125 2.625 L 49.625 3.71875 L 53.4375 3.71875 z M 49.625 3.71875 L 49.125 4 L 50.125 4 L 49.625 3.71875 z M 49.625 3.71875 L 47.71875 2.625 L 45.8125 3.71875 L 49.625 3.71875 z M 45.8125 3.71875 L 45.3125 4 L 46.3125 4 L 45.8125 3.71875 z M 47.71875 2.625 L 51.53125 2.625 L 49.625 1.53125 L 47.71875 2.625 z M 43.90625 0.46875 L 43.09375 0 L 40.90625 0 L 40.0625 0.46875 L 43.90625 0.46875 z M 38.15625 3.71875 L 37.65625 4 L 38.65625 4 L 38.15625 3.71875 z M 38.15625 3.71875 L 36.25 2.625 L 34.34375 3.71875 L 38.15625 3.71875 z M 34.34375 3.71875 L 33.84375 4 L 34.84375 4 L 34.34375 3.71875 z M 34.34375 3.71875 L 32.4375 2.625 L 30.53125 3.71875 L 34.34375 3.71875 z M 30.53125 3.71875 L 30.03125 4 L 31.03125 4 L 30.53125 3.71875 z M 32.4375 2.625 L 36.25 2.625 L 34.34375 1.53125 L 32.4375 2.625 z M 28.625 0.46875 L 27.8125 0 L 25.625 0 L 24.78125 0.46875 L 28.625 0.46875 z M 22.90625 3.71875 L 22.40625 4 L 23.375 4 L 22.90625 3.71875 z M 22.90625 3.71875 L 20.96875 2.625 L 19.0625 3.71875 L 22.90625 3.71875 z M 19.0625 3.71875 L 18.5625 4 L 19.5625 4 L 19.0625 3.71875 z M 19.0625 3.71875 L 17.15625 2.625 L 15.25 3.71875 L 19.0625 3.71875 z M 15.25 3.71875 L 14.75 4 L 15.75 4 L 15.25 3.71875 z M 17.15625 2.625 L 20.96875 2.625 L 19.0625 1.53125 L 17.15625 2.625 z M 13.34375 0.46875 L 12.53125 0 L 10.34375 0 L 9.53125 0.46875 L 13.34375 0.46875 z M 7.625 3.71875 L 7.125 4 L 8.125 4 L 7.625 3.71875 z M 7.625 3.71875 L 5.71875 2.625 L 3.8125 3.71875 L 7.625 3.71875 z M 3.8125 3.71875 L 3.3125 4 L 4.3125 4 L 3.8125 3.71875 z M 3.8125 3.71875 L 1.90625 2.625 L 0 3.6875 L 0 3.71875 L 3.8125 3.71875 z M 1.90625 2.625 L 0 1.5625 L 0 2.625 L 1.90625 2.625 z M 1.90625 2.625 L 5.71875 2.625 L 3.8125 1.53125 L 1.90625 2.625 z M 3.8125 1.53125 L 1.90625 0.46875 L 0 1.5 L 0 1.53125 L 3.8125 1.53125 z M 1.90625 0.46875 L 1.5 0.25 L 1.0625 0.46875 L 1.90625 0.46875 z M 0 3.75 L 0 4 L 0.46875 4 L 0 3.75 z "
     id="path3887" />
  <path
     style="opacity:1;fill:url(#radialGradient3932);fill-opacity:1;fill-rule:nonzero;stroke:none"
     d="M 0 4 L 0 6.28125 L 1.90625 6.28125 L 0.5625 4 L 0 4 z M 1.90625 6.28125 L 5.71875 6.28125 L 4.40625 4 L 3.21875 4 L 1.90625 6.28125 z M 1.90625 6.28125 L 0 9.5 L 0 9.5625 L 3.8125 9.5625 L 1.90625 6.28125 z M 3.8125 9.5625 L 7.625 9.5625 L 5.71875 6.28125 L 3.8125 9.5625 z M 3.8125 9.5625 L 1.90625 12.875 L 5.71875 12.875 L 3.8125 9.5625 z M 5.71875 12.875 L 9.53125 12.875 L 7.625 9.5625 L 5.71875 12.875 z M 5.71875 12.875 L 3.8125 16.1875 L 7.625 16.1875 L 5.71875 12.875 z M 7.625 16.1875 L 11.4375 16.1875 L 9.53125 12.875 L 7.625 16.1875 z M 7.625 16.1875 L 5.71875 19.5 L 9.53125 19.5 L 7.625 16.1875 z M 9.53125 19.5 L 13.34375 19.5 L 11.4375 16.1875 L 9.53125 19.5 z M 9.53125 19.5 L 7.625 22.8125 L 11.4375 22.8125 L 9.53125 19.5 z M 11.4375 22.8125 L 15.25 22.8125 L 13.34375 19.5 L 11.4375 22.8125 z M 11.4375 22.8125 L 9.53125 26.09375 L 13.34375 26.09375 L 11.4375 22.8125 z M 13.34375 26.09375 L 13.875 26.09375 C 14.365234 25.125116 14.955221 24.236745 15.59375 23.40625 L 15.25 22.8125 L 13.34375 26.09375 z M 13.34375 26.09375 L 11.4375 29.40625 L 12.6875 29.40625 C 12.934949 28.410655 13.25812 27.488006 13.65625 26.625 L 13.34375 26.09375 z M 11.4375 29.40625 L 9.53125 32.71875 L 12.1875 32.71875 C 12.198153 32.529157 12.203164 32.34888 12.21875 32.15625 C 12.250117 31.76859 12.321526 31.40009 12.375 31.03125 L 11.4375 29.40625 z M 11.4375 29.40625 L 9.53125 26.09375 L 7.625 29.40625 L 11.4375 29.40625 z M 7.625 29.40625 L 5.71875 32.71875 L 9.53125 32.71875 L 7.625 29.40625 z M 7.625 29.40625 L 5.71875 26.09375 L 3.8125 29.40625 L 7.625 29.40625 z M 3.8125 29.40625 L 1.90625 32.71875 L 5.71875 32.71875 L 3.8125 29.40625 z M 3.8125 29.40625 L 1.90625 26.09375 L 0 29.34375 L 0 29.40625 L 3.8125 29.40625 z M 1.90625 26.09375 L 0 22.875 L 0 26.09375 L 1.90625 26.09375 z M 1.90625 26.09375 L 5.71875 26.09375 L 3.8125 22.8125 L 1.90625 26.09375 z M 3.8125 22.8125 L 1.90625 19.5 L 0 22.75 L 0 22.8125 L 3.8125 22.8125 z M 3.8125 22.8125 L 7.625 22.8125 L 5.71875 19.5 L 3.8125 22.8125 z M 5.71875 19.5 L 3.8125 16.1875 L 1.90625 19.5 L 5.71875 19.5 z M 1.90625 19.5 L 0 16.25 L 0 19.5 L 1.90625 19.5 z M 3.8125 16.1875 L 1.90625 12.875 L 0 16.125 L 0 16.1875 L 3.8125 16.1875 z M 1.90625 12.875 L 0 9.625 L 0 12.875 L 1.90625 12.875 z M 7.625 22.8125 L 5.71875 26.09375 L 9.53125 26.09375 L 7.625 22.8125 z M 5.71875 32.71875 L 3.8125 36.03125 L 7.625 36.03125 L 5.71875 32.71875 z M 7.625 36.03125 L 11.4375 36.03125 L 9.53125 32.71875 L 7.625 36.03125 z M 7.625 36.03125 L 5.71875 39.34375 L 9.53125 39.34375 L 7.625 36.03125 z M 9.53125 39.34375 L 12.875 39.34375 C 12.749102 38.911563 12.657031 38.456512 12.5625 38 L 11.4375 36.03125 L 9.53125 39.34375 z M 9.53125 39.34375 L 7.625 42.65625 L 11.4375 42.65625 L 9.53125 39.34375 z M 11.4375 42.65625 L 14.25 42.65625 C 13.784545 41.789412 13.356164 40.871485 13.03125 39.875 L 11.4375 42.65625 z M 11.4375 42.65625 L 9.53125 45.9375 L 13.34375 45.9375 L 11.4375 42.65625 z M 13.34375 45.9375 L 16.53125 45.9375 C 15.882397 45.203519 15.288651 44.406981 14.75 43.53125 L 13.34375 45.9375 z M 13.34375 45.9375 L 11.4375 49.25 L 15.25 49.25 L 13.34375 45.9375 z M 15.25 49.25 L 19.0625 49.25 L 18.03125 47.46875 C 17.646956 47.125202 17.26877 46.759421 16.90625 46.375 L 15.25 49.25 z M 15.25 49.25 L 13.34375 52.5625 L 17.15625 52.5625 L 15.25 49.25 z M 17.15625 52.5625 L 20.96875 52.5625 L 19.0625 49.25 L 17.15625 52.5625 z M 17.15625 52.5625 L 15.25 55.875 L 19.0625 55.875 L 17.15625 52.5625 z M 19.0625 55.875 L 22.90625 55.875 L 20.96875 52.5625 L 19.0625 55.875 z M 19.0625 55.875 L 17.15625 59.1875 L 20.96875 59.1875 L 19.0625 55.875 z M 20.96875 59.1875 L 24.78125 59.1875 L 22.90625 55.875 L 20.96875 59.1875 z M 20.96875 59.1875 L 19.0625 62.46875 L 22.90625 62.46875 L 20.96875 59.1875 z M 22.90625 62.46875 L 26.71875 62.46875 L 24.78125 59.1875 L 22.90625 62.46875 z M 22.90625 62.46875 L 22 64 L 23.78125 64 L 22.90625 62.46875 z M 24.78125 59.1875 L 28.625 59.1875 L 26.71875 55.875 L 24.78125 59.1875 z M 26.71875 55.875 L 24.78125 52.5625 L 22.90625 55.875 L 26.71875 55.875 z M 26.71875 55.875 L 30.53125 55.875 L 28.625 52.5625 L 26.71875 55.875 z M 28.625 52.5625 L 28.3125 52 C 27.323382 51.897141 26.353101 51.753254 25.40625 51.5 L 24.78125 52.5625 L 28.625 52.5625 z M 28.625 52.5625 L 32.4375 52.5625 L 32.125 52 C 31.052478 52.106367 29.971138 52.139522 28.90625 52.0625 L 28.625 52.5625 z M 32.4375 52.5625 L 36.25 52.5625 L 35.53125 51.34375 C 34.63311 51.615089 33.734812 51.810786 32.8125 51.9375 L 32.78125 51.9375 L 32.4375 52.5625 z M 32.4375 52.5625 L 30.53125 55.875 L 34.34375 55.875 L 32.4375 52.5625 z M 34.34375 55.875 L 38.15625 55.875 L 36.25 52.5625 L 34.34375 55.875 z M 34.34375 55.875 L 32.4375 59.1875 L 36.25 59.1875 L 34.34375 55.875 z M 36.25 59.1875 L 40.0625 59.1875 L 38.15625 55.875 L 36.25 59.1875 z M 36.25 59.1875 L 34.34375 62.46875 L 38.15625 62.46875 L 36.25 59.1875 z M 38.15625 62.46875 L 42 62.46875 L 40.0625 59.1875 L 38.15625 62.46875 z M 38.15625 62.46875 L 37.28125 64 L 39.03125 64 L 38.15625 62.46875 z M 40.0625 59.1875 L 43.90625 59.1875 L 42 55.875 L 40.0625 59.1875 z M 42 55.875 L 40.0625 52.5625 L 38.15625 55.875 L 42 55.875 z M 42 55.875 L 45.8125 55.875 L 43.90625 52.5625 L 42 55.875 z M 43.90625 52.5625 L 42 49.25 L 40.0625 52.5625 L 43.90625 52.5625 z M 43.90625 52.5625 L 47.71875 52.5625 L 45.8125 49.25 L 43.90625 52.5625 z M 45.8125 49.25 L 43.90625 45.9375 L 42 49.25 L 45.8125 49.25 z M 45.8125 49.25 L 49.625 49.25 L 47.71875 45.9375 L 45.8125 49.25 z M 47.71875 45.9375 L 46 43 C 45.413026 44.053561 44.707027 45.027218 43.90625 45.9375 L 47.71875 45.9375 z M 47.71875 45.9375 L 51.53125 45.9375 L 49.625 42.65625 L 47.71875 45.9375 z M 49.625 42.65625 L 47.71875 39.34375 L 47.25 40.15625 C 46.951517 41.027925 46.608379 41.858552 46.1875 42.65625 L 49.625 42.65625 z M 49.625 42.65625 L 53.4375 42.65625 L 51.53125 39.34375 L 49.625 42.65625 z M 51.53125 39.34375 L 49.625 36.03125 L 47.71875 39.34375 L 51.53125 39.34375 z M 51.53125 39.34375 L 55.34375 39.34375 L 53.4375 36.03125 L 51.53125 39.34375 z M 53.4375 36.03125 L 51.53125 32.71875 L 49.625 36.03125 L 53.4375 36.03125 z M 53.4375 36.03125 L 57.28125 36.03125 L 55.34375 32.71875 L 53.4375 36.03125 z M 55.34375 32.71875 L 53.4375 29.40625 L 51.53125 32.71875 L 55.34375 32.71875 z M 55.34375 32.71875 L 59.1875 32.71875 L 57.28125 29.40625 L 55.34375 32.71875 z M 57.28125 29.40625 L 55.34375 26.09375 L 53.4375 29.40625 L 57.28125 29.40625 z M 57.28125 29.40625 L 61.0625 29.40625 L 59.1875 26.09375 L 57.28125 29.40625 z M 59.1875 26.09375 L 57.28125 22.8125 L 55.34375 26.09375 L 59.1875 26.09375 z M 59.1875 26.09375 L 63 26.09375 L 61.0625 22.8125 L 59.1875 26.09375 z M 61.0625 22.8125 L 59.1875 19.5 L 57.28125 22.8125 L 61.0625 22.8125 z M 61.0625 22.8125 L 64 22.8125 L 64 21.25 L 63 19.5 L 61.0625 22.8125 z M 63 19.5 L 61.0625 16.1875 L 59.1875 19.5 L 63 19.5 z M 63 19.5 L 64 19.5 L 64 17.75 L 63 19.5 z M 59.1875 19.5 L 57.28125 16.1875 L 55.34375 19.5 L 59.1875 19.5 z M 55.34375 19.5 L 53.4375 22.8125 L 57.28125 22.8125 L 55.34375 19.5 z M 55.34375 19.5 L 53.4375 16.1875 L 51.53125 19.5 L 55.34375 19.5 z M 51.53125 19.5 L 49.625 22.8125 L 53.4375 22.8125 L 51.53125 19.5 z M 51.53125 19.5 L 49.625 16.1875 L 47.71875 19.5 L 51.53125 19.5 z M 47.71875 19.5 L 45.8125 22.8125 L 49.625 22.8125 L 47.71875 19.5 z M 47.71875 19.5 L 45.8125 16.1875 L 43.90625 19.5 L 47.71875 19.5 z M 43.90625 19.5 L 42.96875 21.15625 C 43.470348 21.648062 43.935563 22.19577 44.40625 22.8125 L 45.8125 22.8125 L 43.90625 19.5 z M 43.90625 19.5 L 42 16.1875 L 40.34375 19.03125 C 40.564334 19.178097 40.758976 19.347138 40.96875 19.5 L 43.90625 19.5 z M 42 16.1875 L 40.0625 12.875 L 38.15625 16.1875 L 42 16.1875 z M 42 16.1875 L 45.8125 16.1875 L 43.90625 12.875 L 42 16.1875 z M 43.90625 12.875 L 42 9.5625 L 40.0625 12.875 L 43.90625 12.875 z M 43.90625 12.875 L 47.71875 12.875 L 45.8125 9.5625 L 43.90625 12.875 z M 45.8125 9.5625 L 43.90625 6.28125 L 42 9.5625 L 45.8125 9.5625 z M 45.8125 9.5625 L 49.625 9.5625 L 47.71875 6.28125 L 45.8125 9.5625 z M 47.71875 6.28125 L 46.40625 4 L 45.21875 4 L 43.90625 6.28125 L 47.71875 6.28125 z M 47.71875 6.28125 L 51.53125 6.28125 L 50.21875 4 L 49.03125 4 L 47.71875 6.28125 z M 51.53125 6.28125 L 55.34375 6.28125 L 54.03125 4 L 52.84375 4 L 51.53125 6.28125 z M 51.53125 6.28125 L 49.625 9.5625 L 53.4375 9.5625 L 51.53125 6.28125 z M 53.4375 9.5625 L 57.28125 9.5625 L 55.34375 6.28125 L 53.4375 9.5625 z M 53.4375 9.5625 L 51.53125 12.875 L 55.34375 12.875 L 53.4375 9.5625 z M 55.34375 12.875 L 59.1875 12.875 L 57.28125 9.5625 L 55.34375 12.875 z M 55.34375 12.875 L 53.4375 16.1875 L 57.28125 16.1875 L 55.34375 12.875 z M 57.28125 16.1875 L 61.0625 16.1875 L 59.1875 12.875 L 57.28125 16.1875 z M 59.1875 12.875 L 63 12.875 L 61.0625 9.5625 L 59.1875 12.875 z M 61.0625 9.5625 L 59.1875 6.28125 L 57.28125 9.5625 L 61.0625 9.5625 z M 61.0625 9.5625 L 64 9.5625 L 64 8 L 63 6.28125 L 61.0625 9.5625 z M 63 6.28125 L 61.65625 4 L 60.46875 4 L 59.1875 6.28125 L 63 6.28125 z M 63 6.28125 L 64 6.28125 L 64 4.53125 L 63 6.28125 z M 59.1875 6.28125 L 57.875 4 L 56.6875 4 L 55.34375 6.28125 L 59.1875 6.28125 z M 63 12.875 L 64 12.875 L 64 11.125 L 63 12.875 z M 63 12.875 L 61.0625 16.1875 L 64 16.1875 L 64 14.625 L 63 12.875 z M 53.4375 16.1875 L 51.53125 12.875 L 49.625 16.1875 L 53.4375 16.1875 z M 49.625 16.1875 L 47.71875 12.875 L 45.8125 16.1875 L 49.625 16.1875 z M 47.71875 12.875 L 51.53125 12.875 L 49.625 9.5625 L 47.71875 12.875 z M 43.90625 6.28125 L 42.59375 4 L 41.40625 4 L 40.0625 6.28125 L 43.90625 6.28125 z M 40.0625 6.28125 L 38.1875 9.5625 L 42 9.5625 L 40.0625 6.28125 z M 40.0625 6.28125 L 38.78125 4 L 37.59375 4 L 36.25 6.28125 L 40.0625 6.28125 z M 36.25 6.28125 L 34.34375 9.5625 L 38.15625 9.5625 L 38.15625 9.59375 L 36.25 12.875 L 40.0625 12.875 L 38.1875 9.5625 L 36.25 6.28125 z M 36.25 6.28125 L 34.9375 4 L 33.75 4 L 32.4375 6.28125 L 36.25 6.28125 z M 32.4375 6.28125 L 30.53125 9.5625 L 34.34375 9.5625 L 32.4375 6.28125 z M 32.4375 6.28125 L 31.125 4 L 29.9375 4 L 28.625 6.28125 L 32.4375 6.28125 z M 28.625 6.28125 L 26.71875 9.5625 L 30.53125 9.5625 L 28.625 6.28125 z M 28.625 6.28125 L 27.3125 4 L 26.125 4 L 24.78125 6.28125 L 28.625 6.28125 z M 24.78125 6.28125 L 22.90625 9.5625 L 26.71875 9.5625 L 24.78125 6.28125 z M 24.78125 6.28125 L 23.5 4 L 22.3125 4 L 20.96875 6.28125 L 24.78125 6.28125 z M 20.96875 6.28125 L 19.0625 9.5625 L 22.90625 9.5625 L 20.96875 6.28125 z M 20.96875 6.28125 L 19.65625 4 L 18.46875 4 L 17.15625 6.28125 L 20.96875 6.28125 z M 17.15625 6.28125 L 15.25 9.5625 L 19.0625 9.5625 L 17.15625 6.28125 z M 17.15625 6.28125 L 15.84375 4 L 14.65625 4 L 13.34375 6.28125 L 17.15625 6.28125 z M 13.34375 6.28125 L 11.4375 9.5625 L 15.25 9.5625 L 13.34375 6.28125 z M 13.34375 6.28125 L 12.03125 4 L 10.84375 4 L 9.53125 6.28125 L 13.34375 6.28125 z M 9.53125 6.28125 L 7.625 9.5625 L 11.4375 9.5625 L 9.53125 6.28125 z M 9.53125 6.28125 L 8.21875 4 L 7.03125 4 L 5.71875 6.28125 L 9.53125 6.28125 z M 11.4375 9.5625 L 9.53125 12.875 L 13.34375 12.875 L 11.4375 9.5625 z M 13.34375 12.875 L 17.15625 12.875 L 15.25 9.5625 L 13.34375 12.875 z M 13.34375 12.875 L 11.4375 16.1875 L 15.25 16.1875 L 13.34375 12.875 z M 15.25 16.1875 L 19.0625 16.1875 L 17.15625 12.875 L 15.25 16.1875 z M 15.25 16.1875 L 13.34375 19.5 L 17.15625 19.5 L 15.25 16.1875 z M 17.15625 19.5 L 19.53125 19.5 C 19.865442 19.251298 20.201099 19.011267 20.5625 18.78125 L 19.0625 16.1875 L 17.15625 19.5 z M 17.15625 19.5 L 15.25 22.8125 L 16.0625 22.8125 C 16.459455 22.335054 16.880475 21.878839 17.3125 21.4375 C 17.508762 21.236994 17.728586 21.039573 17.9375 20.84375 L 17.15625 19.5 z M 19.0625 16.1875 L 22.90625 16.1875 L 20.96875 12.875 L 19.0625 16.1875 z M 20.96875 12.875 L 19.0625 9.5625 L 17.15625 12.875 L 20.96875 12.875 z M 20.96875 12.875 L 24.78125 12.875 L 22.90625 9.5625 L 20.96875 12.875 z M 24.78125 12.875 L 28.625 12.875 L 26.71875 9.5625 L 24.78125 12.875 z M 24.78125 12.875 L 22.90625 16.1875 L 26.71875 16.1875 L 24.78125 12.875 z M 26.71875 16.1875 L 28.40625 16.1875 C 29.103531 16.126264 29.788295 16.091583 30.4375 16.09375 C 30.448088 16.093785 30.458174 16.093698 30.46875 16.09375 L 28.625 12.875 L 26.71875 16.1875 z M 26.71875 16.1875 L 26.5625 16.4375 C 26.652699 16.420672 26.752489 16.421841 26.84375 16.40625 L 26.71875 16.1875 z M 28.625 12.875 L 32.4375 12.875 L 30.53125 9.5625 L 28.625 12.875 z M 32.4375 12.875 L 36.25 12.875 L 34.34375 9.5625 L 32.4375 12.875 z M 32.4375 12.875 L 30.59375 16.09375 C 31.215706 16.10065 31.82384 16.126816 32.40625 16.1875 L 34.34375 16.1875 L 32.4375 12.875 z M 34.34375 16.1875 L 38.15625 16.1875 L 36.25 12.875 L 34.34375 16.1875 z M 34.34375 16.1875 L 34.1875 16.46875 C 34.314839 16.495048 34.437248 16.533753 34.5625 16.5625 L 34.34375 16.1875 z M 38.15625 16.1875 L 37.40625 17.46875 C 38.155835 17.783278 38.841161 18.142516 39.5 18.53125 L 38.15625 16.1875 z M 22.90625 16.1875 L 21.78125 18.09375 C 22.331979 17.804458 22.921858 17.547998 23.53125 17.3125 L 22.90625 16.1875 z M 45.8125 22.8125 L 45.1875 23.90625 C 45.627829 24.583528 46.036508 25.317741 46.40625 26.09375 L 47.71875 26.09375 L 45.8125 22.8125 z M 47.71875 26.09375 L 51.53125 26.09375 L 49.625 22.8125 L 47.71875 26.09375 z M 47.71875 26.09375 L 46.96875 27.40625 C 47.220748 28.052581 47.439116 28.713274 47.625 29.40625 L 49.625 29.40625 L 47.71875 26.09375 z M 49.625 29.40625 L 53.4375 29.40625 L 51.53125 26.09375 L 49.625 29.40625 z M 49.625 29.40625 L 48.15625 31.96875 C 48.186833 32.216298 48.198178 32.467589 48.21875 32.71875 L 51.53125 32.71875 L 49.625 29.40625 z M 51.53125 26.09375 L 55.34375 26.09375 L 53.4375 22.8125 L 51.53125 26.09375 z M 63 26.09375 L 64 26.09375 L 64 24.375 L 63 26.09375 z M 63 26.09375 L 61.0625 29.40625 L 64 29.40625 L 64 27.84375 L 63 26.09375 z M 61.0625 29.40625 L 59.1875 32.71875 L 63 32.71875 L 61.0625 29.40625 z M 63 32.71875 L 64 32.71875 L 64 30.96875 L 63 32.71875 z M 63 32.71875 L 61.0625 36.03125 L 64 36.03125 L 64 34.46875 L 63 32.71875 z M 61.0625 36.03125 L 59.1875 39.34375 L 63 39.34375 L 61.0625 36.03125 z M 61.0625 36.03125 L 59.1875 32.71875 L 57.28125 36.03125 L 61.0625 36.03125 z M 57.28125 36.03125 L 55.34375 39.34375 L 59.1875 39.34375 L 57.28125 36.03125 z M 59.1875 39.34375 L 57.28125 42.65625 L 61.0625 42.65625 L 59.1875 39.34375 z M 61.0625 42.65625 L 64 42.65625 L 64 41.09375 L 63 39.34375 L 61.0625 42.65625 z M 61.0625 42.65625 L 59.1875 45.9375 L 63 45.9375 L 61.0625 42.65625 z M 63 45.9375 L 64 45.9375 L 64 44.21875 L 63 45.9375 z M 63 45.9375 L 61.0625 49.25 L 64 49.25 L 64 47.6875 L 63 45.9375 z M 61.0625 49.25 L 59.1875 52.5625 L 63 52.5625 L 61.0625 49.25 z M 61.0625 49.25 L 59.1875 45.9375 L 57.28125 49.25 L 61.0625 49.25 z M 57.28125 49.25 L 55.34375 52.5625 L 59.1875 52.5625 L 57.28125 49.25 z M 57.28125 49.25 L 55.34375 45.9375 L 53.4375 49.25 L 57.28125 49.25 z M 53.4375 49.25 L 51.53125 52.5625 L 55.34375 52.5625 L 53.4375 49.25 z M 53.4375 49.25 L 51.53125 45.9375 L 49.625 49.25 L 53.4375 49.25 z M 49.625 49.25 L 47.71875 52.5625 L 51.53125 52.5625 L 49.625 49.25 z M 51.53125 52.5625 L 49.625 55.875 L 53.4375 55.875 L 51.53125 52.5625 z M 53.4375 55.875 L 57.28125 55.875 L 55.34375 52.5625 L 53.4375 55.875 z M 53.4375 55.875 L 51.53125 59.1875 L 55.34375 59.1875 L 53.4375 55.875 z M 55.34375 59.1875 L 59.1875 59.1875 L 57.28125 55.875 L 55.34375 59.1875 z M 55.34375 59.1875 L 53.4375 62.46875 L 57.28125 62.46875 L 55.34375 59.1875 z M 57.28125 62.46875 L 61.0625 62.46875 L 59.1875 59.1875 L 57.28125 62.46875 z M 57.28125 62.46875 L 56.375 64 L 58.15625 64 L 57.28125 62.46875 z M 59.1875 59.1875 L 63 59.1875 L 61.0625 55.875 L 59.1875 59.1875 z M 61.0625 55.875 L 59.1875 52.5625 L 57.28125 55.875 L 61.0625 55.875 z M 61.0625 55.875 L 64 55.875 L 64 54.3125 L 63 52.5625 L 61.0625 55.875 z M 63 52.5625 L 64 52.5625 L 64 50.8125 L 63 52.5625 z M 63 59.1875 L 64 59.1875 L 64 57.4375 L 63 59.1875 z M 63 59.1875 L 61.0625 62.46875 L 63.53125 62.46875 L 64 62 L 64 60.90625 L 63 59.1875 z M 61.0625 62.46875 L 60.1875 64 L 61.96875 64 L 61.0625 62.46875 z M 53.4375 62.46875 L 52.5625 64 L 54.3125 64 L 53.4375 62.46875 z M 53.4375 62.46875 L 51.53125 59.1875 L 49.625 62.46875 L 53.4375 62.46875 z M 49.625 62.46875 L 48.75 64 L 50.5 64 L 49.625 62.46875 z M 49.625 62.46875 L 47.71875 59.1875 L 45.8125 62.46875 L 49.625 62.46875 z M 45.8125 62.46875 L 44.9375 64 L 46.6875 64 L 45.8125 62.46875 z M 45.8125 62.46875 L 43.90625 59.1875 L 42 62.46875 L 45.8125 62.46875 z M 42 62.46875 L 41.09375 64 L 42.875 64 L 42 62.46875 z M 43.90625 59.1875 L 47.71875 59.1875 L 45.8125 55.875 L 43.90625 59.1875 z M 45.8125 55.875 L 49.625 55.875 L 47.71875 52.5625 L 45.8125 55.875 z M 49.625 55.875 L 47.71875 59.1875 L 51.53125 59.1875 L 49.625 55.875 z M 51.53125 45.9375 L 55.34375 45.9375 L 53.4375 42.65625 L 51.53125 45.9375 z M 53.4375 42.65625 L 57.28125 42.65625 L 55.34375 39.34375 L 53.4375 42.65625 z M 57.28125 42.65625 L 55.34375 45.9375 L 59.1875 45.9375 L 57.28125 42.65625 z M 63 39.34375 L 64 39.34375 L 64 37.59375 L 63 39.34375 z M 49.625 36.03125 L 48.25 33.65625 C 48.272944 34.433672 48.240276 35.229218 48.15625 36.03125 L 49.625 36.03125 z M 47.71875 39.34375 L 47.5625 39.09375 C 47.539642 39.176126 47.523902 39.261962 47.5 39.34375 L 47.71875 39.34375 z M 42 49.25 L 41.4375 48.28125 C 40.993859 48.624933 40.515697 48.938497 40.03125 49.25 L 42 49.25 z M 40.0625 52.5625 L 38.625 50.0625 C 38.203646 50.288053 37.77948 50.500656 37.34375 50.6875 L 37.3125 50.6875 L 36.25 52.5625 L 40.0625 52.5625 z M 34.34375 62.46875 L 33.46875 64 L 35.21875 64 L 34.34375 62.46875 z M 34.34375 62.46875 L 32.4375 59.1875 L 30.53125 62.46875 L 34.34375 62.46875 z M 30.53125 62.46875 L 29.65625 64 L 31.40625 64 L 30.53125 62.46875 z M 30.53125 62.46875 L 28.625 59.1875 L 26.71875 62.46875 L 30.53125 62.46875 z M 26.71875 62.46875 L 25.8125 64 L 27.59375 64 L 26.71875 62.46875 z M 28.625 59.1875 L 32.4375 59.1875 L 30.53125 55.875 L 28.625 59.1875 z M 24.78125 52.5625 L 23.90625 51.03125 C 23.34908 50.829502 22.808268 50.566512 22.28125 50.3125 L 20.96875 52.5625 L 24.78125 52.5625 z M 19.0625 62.46875 L 18.1875 64 L 19.9375 64 L 19.0625 62.46875 z M 19.0625 62.46875 L 17.15625 59.1875 L 15.25 62.46875 L 19.0625 62.46875 z M 15.25 62.46875 L 14.375 64 L 16.125 64 L 15.25 62.46875 z M 15.25 62.46875 L 13.34375 59.1875 L 11.4375 62.46875 L 15.25 62.46875 z M 11.4375 62.46875 L 9.53125 59.1875 L 7.625 62.46875 L 5.71875 59.1875 L 3.8125 62.5 L 7.59375 62.5 L 6.75 64 L 8.5 64 L 7.625 62.5 L 11.40625 62.5 L 10.5625 64 L 12.3125 64 L 11.4375 62.5 L 11.4375 62.46875 z M 3.8125 62.5 L 2.9375 64 L 4.6875 64 L 3.8125 62.5 z M 3.8125 62.5 L 1.90625 59.1875 L 0.15625 62.15625 L 0.5 62.5 L 3.8125 62.5 z M 1.90625 59.1875 L 0 55.9375 L 0 59.1875 L 1.90625 59.1875 z M 1.90625 59.1875 L 5.71875 59.1875 L 3.8125 55.875 L 1.90625 59.1875 z M 3.8125 55.875 L 1.90625 52.59375 L 0 55.8125 L 0 55.875 L 3.8125 55.875 z M 3.8125 55.875 L 7.625 55.875 L 5.71875 52.59375 L 3.8125 55.875 z M 5.71875 52.59375 L 3.8125 49.25 L 1.90625 52.59375 L 5.71875 52.59375 z M 5.71875 52.59375 L 9.53125 52.59375 L 9.53125 52.5625 L 7.625 49.25 L 5.71875 52.59375 z M 7.625 49.25 L 5.71875 45.9375 L 3.8125 49.25 L 7.625 49.25 z M 7.625 49.25 L 11.4375 49.25 L 9.53125 45.9375 L 7.625 49.25 z M 9.53125 45.9375 L 7.625 42.65625 L 5.71875 45.9375 L 9.53125 45.9375 z M 5.71875 45.9375 L 3.8125 42.65625 L 1.90625 45.9375 L 5.71875 45.9375 z M 1.90625 45.9375 L 0 49.1875 L 0 49.25 L 3.8125 49.25 L 1.90625 45.9375 z M 1.90625 45.9375 L 0 42.71875 L 0 45.9375 L 1.90625 45.9375 z M 3.8125 42.65625 L 1.90625 39.34375 L 0 42.59375 L 0 42.65625 L 3.8125 42.65625 z M 3.8125 42.65625 L 7.625 42.65625 L 5.71875 39.34375 L 3.8125 42.65625 z M 5.71875 39.34375 L 3.8125 36.03125 L 1.90625 39.34375 L 5.71875 39.34375 z M 1.90625 39.34375 L 0 36.09375 L 0 39.34375 L 1.90625 39.34375 z M 3.8125 36.03125 L 1.90625 32.71875 L 0 35.96875 L 0 36.03125 L 3.8125 36.03125 z M 1.90625 32.71875 L 0 29.46875 L 0 32.71875 L 1.90625 32.71875 z M 11.4375 49.25 L 9.53125 52.5625 L 13.34375 52.5625 L 11.4375 49.25 z M 13.34375 52.5625 L 11.4375 55.875 L 15.25 55.875 L 13.34375 52.5625 z M 15.25 55.875 L 13.34375 59.1875 L 17.15625 59.1875 L 15.25 55.875 z M 13.34375 59.1875 L 11.4375 55.875 L 9.53125 59.1875 L 13.34375 59.1875 z M 9.53125 59.1875 L 7.625 55.875 L 5.71875 59.1875 L 9.53125 59.1875 z M 7.625 55.875 L 11.4375 55.875 L 9.53125 52.59375 L 7.625 55.875 z M 1.90625 52.59375 L 0 49.3125 L 0 52.59375 L 1.90625 52.59375 z M 19.0625 49.25 L 20.40625 49.25 C 20.082687 49.040676 19.75536 48.827805 19.4375 48.59375 L 19.0625 49.25 z M 11.4375 36.03125 L 12.25 36.03125 C 12.207626 35.612483 12.203667 35.186601 12.1875 34.75 L 11.4375 36.03125 z "
     id="path3930" />
  <path
     id="path3982"
     d="m 30.4375,16.09375 c -0.649205,-0.0022 -1.333969,0.03251 -2.03125,0.09375 l 2.125,0 -0.0625,-0.09375 c -0.01058,-5.2e-5 -0.02066,3.5e-5 -0.03125,0 z m 0.09375,0.09375 1.875,0 c -0.58241,-0.06068 -1.190544,-0.08685 -1.8125,-0.09375 l -0.0625,0.09375 z m 0,0 -1.90625,3.3125 3.8125,0 -1.90625,-3.3125 z m 1.90625,3.3125 3.8125,0 -1.6875,-2.9375 c -0.125252,-0.02875 -0.247661,-0.06745 -0.375,-0.09375 L 32.4375,19.5 z m 0,0 -1.90625,3.3125 3.8125,0 L 32.4375,19.5 z m 1.90625,3.3125 3.8125,0 L 36.25,19.5 34.34375,22.8125 z m 0,0 -1.90625,3.28125 3.8125,0 -1.90625,-3.28125 z m 1.90625,3.28125 3.8125,0 L 38.15625,22.8125 36.25,26.09375 z m 0,0 -1.90625,3.3125 3.8125,0 -1.90625,-3.3125 z m 1.90625,3.3125 3.84375,0 -1.9375,-3.3125 -1.90625,3.3125 z m 0,0 -1.90625,3.3125 3.8125,0 -1.90625,-3.3125 z m 1.90625,3.3125 3.84375,0 L 42,29.40625 l -1.9375,3.3125 z m 0,0 -1.90625,3.3125 3.84375,0 -1.9375,-3.3125 z m 1.9375,3.3125 3.8125,0 -1.90625,-3.3125 L 42,36.03125 z m 0,0 -1.9375,3.3125 3.84375,0 L 42,36.03125 z m 1.90625,3.3125 3.59375,0 c 0.0239,-0.08179 0.03964,-0.167624 0.0625,-0.25 l -1.75,-3.0625 -1.90625,3.3125 z m 0,0 -1.90625,3.3125 3.8125,0 -1.90625,-3.3125 z m 1.90625,3.3125 0.375,0 c 0.420879,-0.797698 0.764017,-1.628325 1.0625,-2.5 l -1.4375,2.5 z m 0,0 -1.90625,3.28125 C 44.707027,45.027218 45.413026,44.053561 46,43 L 45.8125,42.65625 z M 43.90625,45.9375 42,42.65625 l -1.9375,3.28125 3.84375,0 z m -3.84375,0 -1.90625,3.3125 1.875,0 c 0.484447,-0.311503 0.962609,-0.625067 1.40625,-0.96875 l -1.375,-2.34375 z m 0,0 -1.90625,-3.28125 -1.90625,3.28125 3.8125,0 z m -3.8125,0 -1.90625,3.3125 3.8125,0 L 36.25,45.9375 z m 0,0 -1.90625,-3.28125 -1.90625,3.28125 3.8125,0 z m -3.8125,0 -1.90625,3.3125 3.8125,0 -1.90625,-3.3125 z m 0,0 -1.90625,-3.28125 -1.90625,3.28125 3.8125,0 z m -3.8125,0 -1.90625,3.3125 3.8125,0 -1.90625,-3.3125 z m 0,0 -1.90625,-3.28125 -1.9375,3.28125 3.84375,0 z m -3.84375,0 -1.875,3.3125 3.8125,0 -1.9375,-3.3125 z m 0,0 -1.875,-3.28125 -1.9375,3.28125 3.8125,0 z m -3.8125,0 -1.53125,2.65625 c 0.31786,0.234055 0.645187,0.446926 0.96875,0.65625 l 2.5,0 -1.9375,-3.3125 z m 0,0 -1.90625,-3.28125 -1.90625,3.28125 3.8125,0 z m -3.8125,0 -0.25,0.4375 c 0.36252,0.384421 0.740706,0.750202 1.125,1.09375 l -0.875,-1.53125 z m 0,0 -1.90625,-3.28125 -0.5,0.875 c 0.538651,0.875731 1.132397,1.672269 1.78125,2.40625 l 0.625,0 z M 15.25,42.65625 13.34375,39.34375 13.03125,39.875 c 0.324914,0.996485 0.753295,1.914412 1.21875,2.78125 l 1,0 z m 0,0 3.8125,0 -1.90625,-3.3125 -1.90625,3.3125 z m 1.90625,-3.3125 -1.90625,-3.3125 -1.90625,3.3125 3.8125,0 z m 0,0 3.8125,0 -1.90625,-3.3125 -1.90625,3.3125 z m 1.90625,-3.3125 -1.90625,-3.3125 -1.90625,3.3125 3.8125,0 z m 0,0 3.84375,0 -1.9375,-3.3125 -1.90625,3.3125 z m 1.90625,-3.3125 -1.90625,-3.3125 -1.90625,3.3125 3.8125,0 z m 0,0 3.8125,0 -1.875,-3.3125 -1.9375,3.3125 z m 1.9375,-3.3125 -1.9375,-3.3125 -1.90625,3.3125 3.84375,0 z m 0,0 3.8125,0 -1.9375,-3.3125 -1.875,3.3125 z m 1.875,-3.3125 -1.875,-3.28125 -1.9375,3.28125 3.8125,0 z m 0,0 3.84375,0 -1.90625,-3.28125 -1.9375,3.28125 z m 1.9375,-3.28125 -1.9375,-3.3125 -1.875,3.3125 3.8125,0 z m 0,0 3.8125,0 L 28.625,19.5 26.71875,22.8125 z M 28.625,19.5 26.84375,16.40625 c -0.09126,0.01559 -0.191051,0.01442 -0.28125,0.03125 l -1.78125,3.0625 3.84375,0 z m -3.84375,0 -1.25,-2.1875 c -0.609392,0.235498 -1.199271,0.491958 -1.75,0.78125 l -0.8125,1.40625 3.8125,0 z m -3.8125,0 -1.90625,3.3125 3.84375,0 -1.9375,-3.3125 z m 0,0 -0.40625,-0.71875 C 20.201099,19.011267 19.865442,19.251298 19.53125,19.5 l 1.4375,0 z m -1.90625,3.3125 -1.90625,3.28125 3.8125,0 -1.90625,-3.28125 z m 0,0 -1.125,-1.96875 c -0.208914,0.195823 -0.428738,0.393244 -0.625,0.59375 -0.432025,0.441339 -0.853045,0.897554 -1.25,1.375 l 3,0 z m -1.90625,3.28125 -1.90625,3.3125 3.8125,0 -1.90625,-3.3125 z m 0,0 -1.5625,-2.6875 c -0.638529,0.830495 -1.228516,1.718866 -1.71875,2.6875 l 3.28125,0 z m -1.90625,3.3125 -1.90625,3.3125 3.8125,0 -1.90625,-3.3125 z m 0,0 -1.59375,-2.78125 c -0.39813,0.863006 -0.721301,1.785655 -0.96875,2.78125 l 2.5625,0 z M 13.34375,32.71875 12.1875,34.75 c 0.01617,0.436601 0.02013,0.862483 0.0625,1.28125 l 3,0 -1.90625,-3.3125 z m 0,0 -0.96875,-1.6875 c -0.05347,0.36884 -0.124883,0.73734 -0.15625,1.125 -0.01559,0.19263 -0.0206,0.372907 -0.03125,0.5625 l 1.15625,0 z m 17.1875,-9.90625 -1.90625,3.28125 3.8125,0 -1.90625,-3.28125 z m 1.90625,3.28125 -1.90625,3.3125 3.8125,0 -1.90625,-3.3125 z m 1.90625,3.3125 -1.90625,3.3125 3.8125,0 -1.90625,-3.3125 z m 1.90625,3.3125 -1.90625,3.3125 3.8125,0 -1.90625,-3.3125 z m 1.90625,3.3125 -1.90625,3.3125 3.8125,0 -1.90625,-3.3125 z m 1.90625,3.3125 -1.90625,3.3125 3.84375,0 -1.9375,-3.3125 z m -1.90625,3.3125 -1.90625,-3.3125 -1.90625,3.3125 3.8125,0 z m -3.8125,0 -1.90625,-3.3125 -1.90625,3.3125 3.8125,0 z m -3.8125,0 -1.90625,-3.3125 -1.90625,3.3125 3.8125,0 z m -3.8125,0 -1.9375,-3.3125 -1.875,3.3125 3.8125,0 z m -3.8125,0 -1.9375,-3.3125 -1.90625,3.3125 3.84375,0 z m -1.9375,-3.3125 3.8125,0 -1.875,-3.3125 -1.9375,3.3125 z m 1.9375,-3.3125 3.8125,0 -1.9375,-3.3125 -1.875,3.3125 z m 1.875,-3.3125 3.84375,0 -1.90625,-3.3125 -1.9375,3.3125 z m 1.9375,-3.3125 3.8125,0 -1.90625,-3.3125 -1.90625,3.3125 z m 3.8125,0 -1.90625,3.3125 3.8125,0 -1.90625,-3.3125 z m 1.90625,3.3125 -1.90625,3.3125 3.8125,0 -1.90625,-3.3125 z m 1.90625,3.3125 -1.90625,3.3125 3.8125,0 -1.90625,-3.3125 z m -1.90625,3.3125 -1.90625,-3.3125 -1.90625,3.3125 3.8125,0 z m -3.8125,0 -1.90625,-3.3125 -1.9375,3.3125 3.84375,0 z m -1.90625,-3.3125 3.8125,0 -1.90625,-3.3125 -1.90625,3.3125 z m -13.375,3.3125 -0.78125,-1.375 c 0.09704,0.466605 0.183821,0.933267 0.3125,1.375 l 0.46875,0 z m 9.5625,9.90625 -0.625,1.0625 c 0.527018,0.254012 1.06783,0.517002 1.625,0.71875 l -1,-1.78125 z m 3.8125,0 -1.3125,2.25 c 0.946851,0.253254 1.917132,0.397141 2.90625,0.5 l -1.59375,-2.75 z m 3.8125,0 -1.625,2.8125 c 1.064888,0.07702 2.146228,0.04387 3.21875,-0.0625 l -1.59375,-2.75 z m 3.8125,0 -1.5625,2.6875 c 0.933103,-0.126668 1.841871,-0.319393 2.75,-0.59375 L 34.34375,49.25 z m 3.8125,0 -0.84375,1.4375 c 0.444603,-0.189953 0.882806,-0.394983 1.3125,-0.625 L 38.15625,49.25 z m 7.65625,-13.21875 2.34375,0 c 0.08403,-0.802032 0.116694,-1.597578 0.09375,-2.375 l -0.53125,-0.9375 -1.90625,3.3125 z m 1.90625,-3.3125 -1.90625,-3.3125 -1.90625,3.3125 3.8125,0 z m 0,0 0.5,0 c -0.02057,-0.251161 -0.03192,-0.502452 -0.0625,-0.75 l -0.4375,0.75 z M 45.8125,29.40625 43.90625,26.09375 42,29.40625 l 3.8125,0 z m 0,0 1.8125,0 c -0.185884,-0.692976 -0.404252,-1.353669 -0.65625,-2 l -1.15625,2 z M 43.90625,26.09375 42,22.8125 l -1.9375,3.28125 3.84375,0 z m 0,0 2.5,0 c -0.369742,-0.776009 -0.778421,-1.510222 -1.21875,-2.1875 l -1.28125,2.1875 z M 42,22.8125 40.0625,19.5 l -1.90625,3.3125 3.84375,0 z m 0,0 2.40625,0 c -0.470687,-0.61673 -0.935902,-1.164438 -1.4375,-1.65625 L 42,22.8125 z M 40.0625,19.5 39.5,18.53125 c -0.658839,-0.388734 -1.344165,-0.747972 -2.09375,-1.0625 L 36.25,19.5 l 3.8125,0 z m 0,0 0.90625,0 c -0.209774,-0.152862 -0.404416,-0.321903 -0.625,-0.46875 L 40.0625,19.5 z"
     style="fill:url(#radialGradient3984);fill-opacity:1"
     inkscape:connector-curvature="0" />
  <path
     inkscape:connector-curvature="0"
     style="fill:url(#radialGradient3975);fill-opacity:1"
     d="m 49.5625,11.6875 c -2.355179,0.0077 -4.858778,0.15625 -7.03125,0.15625 -4.848373,0 -9.604827,-0.154879 -13.8125,0.15625 C 22.217915,12.480673 17.39464,15.319793 14.0625,18.90625 10.658675,22.570043 8,27.760396 8,34.125 c 0,6.634685 2.581785,11.59541 6.0625,15.21875 3.311319,3.446807 8.213552,6.492948 14.375,6.90625 11.363931,0.761611 18.915629,-5.620463 22.25,-13.6875 2.165111,-5.238622 4.799381,-11.51987 7.0625,-17.03125 0.683829,-1.665104 2.024239,-3.785683 2.25,-5.78125 0.449739,-3.977152 -1.683856,-6.253294 -4.375,-7.3125 -1.510655,-0.594595 -3.707321,-0.757734 -6.0625,-0.75 z m 2.3125,2.53125 c 1.501508,0.0633 2.939994,1.144232 2.75,3.125 C 54.39552,19.736555 52.010704,21.429335 50.96875,23 l 3.65625,0 c 0.22011,0.323175 0.22011,1.364474 0,1.6875 -1.838663,-0.18085 -3.880344,-0.16245 -5.90625,-0.15625 -0.862445,-3.162894 4.477514,-5.272346 3.9375,-7.875 -0.254762,-1.22756 -2.005023,-1.26724 -1.6875,0.5625 l -2.09375,0 c -0.03904,-2.093128 1.498492,-3.0633 3,-3 z m -21.4375,1.875 c 5.426344,0.01811 9.340142,2.185421 12.09375,4.65625 3.455581,3.100728 6.659445,9.415931 5.5,16.34375 -0.946622,5.655641 -4.136491,10.126782 -9.3125,12.9375 -5.632441,3.058936 -12.701743,2.61848 -17.75,-0.40625 -4.871722,-2.918988 -9.469969,-8.570797 -8.75,-17.46875 0.382813,-4.731178 2.458526,-8.026713 5.09375,-10.71875 2.455418,-2.508512 5.885083,-4.705358 10.6875,-5.21875 0.837962,-0.08961 1.662308,-0.127587 2.4375,-0.125 z m -6.21875,4.78125 0,3.8125 3.21875,0 c 0.31098,1.098023 0.881391,1.928208 1.125,3.09375 -2.779932,4.744713 -5.951013,9.906687 -8.71875,14.5 -0.358125,0.594297 -0.88792,1.331043 -0.84375,2 l 4.78125,0 c 2.439505,-3.478484 4.523184,-7.308827 7.03125,-10.71875 1.393089,3.961239 3.059842,7.648181 4.375,11.6875 2.667349,-0.667023 5.37824,-1.318341 7.625,-2.40625 C 42.178791,41.786478 42.080412,40.204023 41.40625,39.1875 40.343177,39.627274 39.218488,40.028141 38,40.3125 35.722604,33.666065 32.965045,27.521137 30.6875,20.875 l -6.46875,0 z"
     id="path3973" />
  <path
     style="fill:#000000;fill-opacity:0.23655914"
     d="M 51.875 14.21875 C 50.373492 14.15545 48.83596 15.125622 48.875 17.21875 L 50.03125 17.21875 C 50.420563 15.828856 51.64263 15.166796 52.875 15.21875 C 53.367682 15.23952 53.857443 15.389262 54.28125 15.625 C 53.791111 14.745898 52.857067 14.260152 51.875 14.21875 z M 58.71875 14.65625 C 59.700701 15.895789 60.247811 17.55855 60 19.75 C 59.774239 21.745567 58.433829 23.866146 57.75 25.53125 C 55.486881 31.04263 52.852611 37.323878 50.6875 42.5625 C 47.353129 50.629537 39.801431 57.011611 28.4375 56.25 C 23.046233 55.888361 18.615882 53.522792 15.375 50.625 C 18.67974 53.949069 23.452445 56.84853 29.4375 57.25 C 40.801431 58.011611 48.353129 51.629537 51.6875 43.5625 C 53.852611 38.323878 56.486881 32.04263 58.75 26.53125 C 59.433829 24.866146 60.774239 22.745567 61 20.75 C 61.322087 17.901708 60.3025 15.937485 58.71875 14.65625 z M 30.4375 16.09375 C 29.662308 16.091163 28.837962 16.12914 28 16.21875 C 23.197583 16.732142 19.767918 18.928988 17.3125 21.4375 C 14.677276 24.129537 12.601563 27.425072 12.21875 32.15625 C 11.669235 38.947593 14.221324 43.824983 17.625 47.0625 C 14.731897 43.846973 12.723771 39.273593 13.21875 33.15625 C 13.601563 28.425072 15.677276 25.129537 18.3125 22.4375 C 20.767918 19.928988 24.197583 17.732142 29 17.21875 C 29.837962 17.12914 30.662308 17.091163 31.4375 17.09375 C 36.863844 17.11186 40.777642 19.279171 43.53125 21.75 C 43.205458 21.392313 42.865472 21.049901 42.53125 20.75 C 39.777642 18.279171 35.863844 16.11186 30.4375 16.09375 z M 52.65625 16.78125 C 52.998681 19.325041 47.870615 21.420838 48.71875 24.53125 C 49.032034 24.530291 49.34302 24.53201 49.65625 24.53125 C 49.975856 21.907441 54.136676 19.971715 53.65625 17.65625 C 53.534612 17.07014 53.071892 16.751582 52.65625 16.78125 z M 31.0625 21.875 C 33.267758 28.135021 35.839094 34.006034 38 40.3125 C 38.195418 40.266895 38.371775 40.207528 38.5625 40.15625 C 36.369616 33.955891 33.830199 28.127641 31.6875 21.875 L 31.0625 21.875 z M 52.75 23 C 52.451804 23.33914 52.183492 23.676293 51.96875 24 L 54.78125 24 C 54.801045 23.610844 54.752184 23.186737 54.625 23 L 52.75 23 z M 25.21875 24.6875 L 25.21875 25.6875 L 27.8125 25.6875 C 27.677572 25.368187 27.538016 25.042408 27.4375 24.6875 L 25.21875 24.6875 z M 30.8125 33.5625 C 28.304434 36.972423 26.220755 40.802766 23.78125 44.28125 L 20.28125 44.28125 C 20.116398 44.615182 19.97847 44.955183 20 45.28125 L 24.78125 45.28125 C 27.083211 41.99889 29.082411 38.416334 31.40625 35.15625 C 31.208771 34.627448 31.001469 34.099832 30.8125 33.5625 z M 42.40625 40.1875 C 42.245911 40.253829 42.069503 40.310707 41.90625 40.375 C 42.179303 41.219269 42.392616 42.14322 42.8125 42.84375 C 40.733008 43.850666 38.253415 44.47623 35.78125 45.09375 C 35.915567 45.48142 36.059287 45.856212 36.1875 46.25 C 38.854849 45.582977 41.56574 44.931659 43.8125 43.84375 C 43.178791 42.786478 43.080412 41.204023 42.40625 40.1875 z "
     id="path3960" />
  <path
     style="fill:#ffde5b;fill-opacity:0.38620073"
     d="m 49.5625,11.6875 c -2.355179,0.0077 -4.858778,0.15625 -7.03125,0.15625 -4.848373,0 -9.604827,-0.154879 -13.8125,0.15625 C 22.217915,12.480673 17.39464,15.319793 14.0625,18.90625 10.658675,22.570043 8,27.760396 8,34.125 c 0,6.634685 2.581785,11.59541 6.0625,15.21875 0.274301,0.285525 0.579054,0.564993 0.875,0.84375 C 11.526011,46.577007 9,41.672645 9,35.125 9,28.760396 11.658675,23.570043 15.0625,19.90625 18.39464,16.319793 23.217915,13.480673 29.71875,13 c 4.207673,-0.311129 8.964127,-0.15625 13.8125,-0.15625 2.172472,0 4.676071,-0.14855 7.03125,-0.15625 2.355179,-0.0077 4.551845,0.155405 6.0625,0.75 0.763844,0.300641 1.466065,0.71096 2.09375,1.21875 -0.800142,-1.010037 -1.885453,-1.743177 -3.09375,-2.21875 -1.510655,-0.594595 -3.707321,-0.757734 -6.0625,-0.75 z m 4.71875,3.9375 c 0.259247,0.464979 0.409478,1.033511 0.34375,1.71875 C 54.39552,19.736555 52.010704,21.429335 50.96875,23 L 52.75,23 c 1.148686,-1.306407 2.692815,-2.756592 2.875,-4.65625 0.127652,-1.330829 -0.475954,-2.236049 -1.34375,-2.71875 z m -2.6875,0.15625 c -0.42972,0.06535 -0.783762,0.52263 -0.625,1.4375 l -0.9375,0 c -0.08502,0.30354 -0.163248,0.624817 -0.15625,1 l 2.09375,0 c -0.165919,-0.956114 0.232613,-1.405031 0.6875,-1.4375 -0.0058,-0.04292 0.009,-0.08181 0,-0.125 -0.127381,-0.61378 -0.63278,-0.940352 -1.0625,-0.875 z m -27.375,5.09375 0,3.8125 1,0 0,-2.8125 5.84375,0 c -0.118881,-0.337466 -0.258502,-0.660046 -0.375,-1 l -6.46875,0 z m 19.3125,0.875 c 3.042634,3.340506 5.547304,9.085986 4.5,15.34375 -0.946622,5.655641 -4.136491,10.126782 -9.3125,12.9375 -5.632441,3.058936 -12.701743,2.61848 -17.75,-0.40625 -1.094923,-0.656045 -2.177477,-1.468292 -3.1875,-2.40625 1.278345,1.385977 2.722516,2.528476 4.1875,3.40625 5.048257,3.02473 12.117559,3.465186 17.75,0.40625 5.176009,-2.810718 8.365878,-7.281859 9.3125,-12.9375 1.159445,-6.927819 -2.044419,-13.243022 -5.5,-16.34375 z m 11.25,2.25 c -0.01446,0.284333 -0.06332,0.551125 -0.15625,0.6875 -1.554334,-0.152884 -3.256427,-0.160406 -4.96875,-0.15625 -0.03964,0.325434 -0.03267,0.650991 0.0625,1 2.025906,-0.0062 4.067587,-0.0246 5.90625,0.15625 0.22011,-0.323026 0.22011,-1.364325 0,-1.6875 l -0.84375,0 z M 27.8125,25.6875 c 0.282515,0.668585 0.585131,1.30494 0.75,2.09375 -2.779932,4.744713 -5.951013,9.906687 -8.71875,14.5 -0.358125,0.594297 -0.88792,1.331043 -0.84375,2 l 1.28125,0 c 0.173358,-0.35116 0.378934,-0.695379 0.5625,-1 2.767737,-4.593313 5.938818,-9.755287 8.71875,-14.5 -0.243609,-1.165542 -0.81402,-1.995727 -1.125,-3.09375 l -0.625,0 z m 4,8.875 c -0.14141,0.192258 -0.267399,0.398957 -0.40625,0.59375 1.258348,3.369552 2.64449,6.602355 3.78125,10.09375 0.19858,-0.04966 0.394897,-0.106579 0.59375,-0.15625 C 34.537798,41.504851 33.069779,38.137563 31.8125,34.5625 z m 9.59375,4.625 c -0.89258,0.369244 -1.845246,0.700294 -2.84375,0.96875 0.138004,0.390206 0.302663,0.762736 0.4375,1.15625 1.034709,-0.24147 1.987111,-0.575521 2.90625,-0.9375 -0.139051,-0.429941 -0.272526,-0.844507 -0.5,-1.1875 z"
     id="path3035"
     inkscape:connector-curvature="0" />
</svg>
