<?xml version="1.0" encoding="UTF-8" standalone="no"?>
<!-- Created with Inkscape (http://www.inkscape.org/) -->

<svg
   xmlns:dc="http://purl.org/dc/elements/1.1/"
   xmlns:cc="http://creativecommons.org/ns#"
   xmlns:rdf="http://www.w3.org/1999/02/22-rdf-syntax-ns#"
   xmlns:svg="http://www.w3.org/2000/svg"
   xmlns="http://www.w3.org/2000/svg"
   xmlns:xlink="http://www.w3.org/1999/xlink"
   xmlns:sodipodi="http://sodipodi.sourceforge.net/DTD/sodipodi-0.dtd"
   xmlns:inkscape="http://www.inkscape.org/namespaces/inkscape"
   id="svg13094"
   height="64"
   width="64"
   version="1.1"
   inkscape:version="0.48.3.1 r9886"
   sodipodi:docname="folder-preview.svg"
   inkscape:export-filename="folder.png"
   inkscape:export-xdpi="90"
   inkscape:export-ydpi="90">
  <sodipodi:namedview
     pagecolor="#ffffff"
     bordercolor="#666666"
     borderopacity="1"
     objecttolerance="10"
     gridtolerance="10"
     guidetolerance="10"
     inkscape:pageopacity="0"
     inkscape:pageshadow="2"
     inkscape:window-width="1920"
     inkscape:window-height="1023"
     id="namedview46"
     showgrid="true"
     inkscape:snap-bbox="true"
     inkscape:bbox-paths="true"
     inkscape:bbox-nodes="true"
     inkscape:snap-bbox-edge-midpoints="true"
     inkscape:snap-bbox-midpoints="true"
     inkscape:snap-nodes="true"
     inkscape:object-paths="true"
     inkscape:snap-intersection-paths="true"
     inkscape:object-nodes="true"
     inkscape:snap-smooth-nodes="true"
     inkscape:snap-midpoints="true"
     inkscape:snap-object-midpoints="true"
     inkscape:snap-center="true"
     fit-margin-top="0"
     fit-margin-left="0"
     fit-margin-right="0"
     fit-margin-bottom="0"
     inkscape:zoom="14.75"
     inkscape:cx="30.855053"
     inkscape:cy="23.561244"
     inkscape:window-x="-10"
     inkscape:window-y="35"
     inkscape:window-maximized="1"
     inkscape:current-layer="svg13094"
     showguides="true"
     inkscape:guide-bbox="true"
     inkscape:snap-page="false"
     inkscape:snap-global="true">
    <inkscape:grid
       type="xygrid"
       id="grid3023"
       empspacing="5"
       visible="true"
       enabled="true"
       snapvisiblegridlinesonly="true"
       originx="-80px"
       originy="-75px" />
  </sodipodi:namedview>
  <defs
     id="defs11">
    <linearGradient
       id="linearGradient3841-4-5-4-9">
      <stop
         style="stop-color:#41444b;stop-opacity:1;"
         offset="0"
         id="stop3843-9-6-6-2" />
      <stop
         style="stop-color:#5b626b;stop-opacity:1;"
         offset="1"
         id="stop3845-3-04-5-4" />
    </linearGradient>
    <linearGradient
       inkscape:collect="always"
       xlink:href="#linearGradient3969-2-4-7"
       id="linearGradient3918-8-4-9"
       gradientUnits="userSpaceOnUse"
       x1="29.875"
       y1="64.082283"
       x2="29.875"
       y2="12.082283" />
    <linearGradient
       id="linearGradient3969-2-4-7">
      <stop
         style="stop-color:#454a50;stop-opacity:1;"
         offset="0"
         id="stop3971-0-5-4" />
      <stop
         id="stop3977-2-1-8"
         offset="0.08245245"
         style="stop-color:#555d66;stop-opacity:1;" />
      <stop
         style="stop-color:#59616a;stop-opacity:1;"
         offset="0.49040774"
         id="stop3979-9-2-8" />
      <stop
         id="stop3981-6-7-2"
         offset="0.51108748"
         style="stop-color:#51585f;stop-opacity:1;" />
      <stop
         style="stop-color:#5b636b;stop-opacity:1;"
         offset="1"
         id="stop3973-1-8-8" />
    </linearGradient>
    <linearGradient
       y2="32.976402"
       x2="77.278381"
       y1="48.976402"
       x1="77.278381"
       gradientTransform="translate(-33.625,-31.894117)"
       gradientUnits="userSpaceOnUse"
       id="linearGradient3060"
       xlink:href="#linearGradient3841-4-5-4-9"
       inkscape:collect="always" />
    <linearGradient
       inkscape:collect="always"
       xlink:href="#linearGradient3841-4-5-8-8"
       id="linearGradient3792"
       gradientUnits="userSpaceOnUse"
       gradientTransform="translate(-33.625,-31.894117)"
       x1="77.278381"
       y1="48.976402"
       x2="77.278381"
       y2="32.976402" />
    <linearGradient
       id="linearGradient3841-4-5-8-8">
      <stop
         style="stop-color:#252833;stop-opacity:1"
         offset="0"
         id="stop3843-9-6-9-9" />
      <stop
         style="stop-color:#343f4a;stop-opacity:1"
         offset="1"
         id="stop3845-3-04-3-2" />
    </linearGradient>
    <linearGradient
       inkscape:collect="always"
       xlink:href="#linearGradient3969-2-5-1"
       id="linearGradient3784"
       gradientUnits="userSpaceOnUse"
       x1="29.875"
       y1="64.082283"
       x2="29.875"
       y2="12.082283" />
    <linearGradient
       id="linearGradient3969-2-5-1">
      <stop
         style="stop-color:#28323c;stop-opacity:1"
         offset="0"
         id="stop3971-0-1-6" />
      <stop
         id="stop3977-2-8-2"
         offset="0.08245245"
         style="stop-color:#38414b;stop-opacity:1" />
      <stop
         style="stop-color:#3b4657;stop-opacity:1"
         offset="1"
         id="stop3973-1-8-1" />
    </linearGradient>
    <linearGradient
       inkscape:collect="always"
       xlink:href="#linearGradient3969-2-5-1"
       id="linearGradient3152"
       gradientUnits="userSpaceOnUse"
       x1="29.875"
       y1="64.082283"
       x2="29.875"
       y2="12.082283"
       gradientTransform="translate(0.625,-0.082283)" />
    <linearGradient
       inkscape:collect="always"
       xlink:href="#linearGradient3841-4-5-8-8"
       id="linearGradient3160"
       gradientUnits="userSpaceOnUse"
       gradientTransform="translate(-33,-31.9764)"
       x1="77.278381"
       y1="48.976402"
       x2="77.278381"
       y2="32.976402" />
  </defs>
  <metadata
     id="metadata13099">
    <rdf:RDF>
      <cc:Work
         rdf:about="">
        <dc:format>image/svg+xml</dc:format>
        <dc:type
           rdf:resource="http://purl.org/dc/dcmitype/StillImage" />
        <dc:title />
      </cc:Work>
    </rdf:RDF>
  </metadata>
  <path
     style="color:#000000;fill:url(#linearGradient3160);fill-opacity:1;fill-rule:nonzero;stroke:none;marker:none;visibility:visible;display:inline;overflow:visible;enable-background:accumulate"
     d="m 3,6 -10e-8,58.000001 L 60,64 64,60 64,1 63,0 37,0 32,4.9999999 4,5 z"
     id="path3833"
     inkscape:connector-curvature="0"
     sodipodi:nodetypes="cccccccccc" />
  <path
     style="color:#000000;fill:#b6e1ff;fill-opacity:0.33915776;fill-rule:nonzero;stroke:none;stroke-width:1;marker:none;visibility:visible;display:inline;overflow:visible;enable-background:accumulate"
     d="M 37,0 32,5 4,5 3,6 3,7 4,6 32,6 37,1 63,1 64,2 64,1 63,0 37,0 z"
     id="path3800"
     inkscape:connector-curvature="0" />
  <path
     sodipodi:nodetypes="ccccc"
     d="m 7,13 51,0 0,31 -51,0 z"
     id="path3920"
     inkscape:connector-curvature="0"
     style="fill:#cad1d4;fill-opacity:1;fill-rule:nonzero" />
  <path
     sodipodi:nodetypes="cccccccc"
     id="path3802"
     d="m 58,13 0,51 2,0 4,-4 0,-59 -1,-1 0,18 z"
     inkscape:connector-curvature="0"
     style="fill:#000000;fill-opacity:0.16308247" />
  <path
     inkscape:connector-curvature="0"
     id="path4253"
     d="m 7,13 51,0 0,1 -51,0 z"
     style="fill:#ffffff;fill-opacity:1;fill-rule:nonzero"
     sodipodi:nodetypes="ccccc" />
  <path
     style="color:#000000;fill:#3e4959;fill-opacity:0.22968199;fill-rule:nonzero;stroke-width:1;stroke-linecap:butt;stroke-linejoin:miter;stroke-miterlimit:4;stroke-opacity:1;stroke-dasharray:none;stroke-dashoffset:0;marker:none;visibility:visible;display:inline;overflow:visible;enable-background:accumulate"
     d="m 30,13 4,4 2,0 -4,-4 z"
     id="path3982"
     inkscape:connector-curvature="0"
     sodipodi:nodetypes="ccccc" />
  <path
     id="path3916"
     d="m 0,13 0,50 1,1 59,0 1,-1 0,-45 -1,-1 -26,1e-6 -5,-5 L 1,12 z"
     inkscape:connector-curvature="0"
     style="color:#000000;fill:url(#linearGradient3152);fill-opacity:1;fill-rule:nonzero;stroke-width:1;stroke-linecap:butt;stroke-linejoin:miter;stroke-miterlimit:4;stroke-opacity:1;stroke-dasharray:none;stroke-dashoffset:0;marker:none;visibility:visible;display:inline;overflow:visible;enable-background:accumulate"
     sodipodi:nodetypes="ccccccccccc"
     inkscape:export-xdpi="90"
     inkscape:export-ydpi="90" />
  <path
     style="fill:#b6e1ff;fill-opacity:0.33915776;fill-rule:nonzero"
     d="m 1,12 -1,1 0,1 1,-1 28,0 5,5 26,0 1,1 0,-1 -1,-1 -26,0 -5,-5 -28,0 z"
     id="path3046"
     inkscape:connector-curvature="0" />
  <path
     style="font-size:medium;font-style:normal;font-variant:normal;font-weight:normal;font-stretch:normal;text-indent:0;text-align:start;text-decoration:none;line-height:normal;letter-spacing:normal;word-spacing:normal;text-transform:none;direction:ltr;block-progression:tb;writing-mode:lr-tb;text-anchor:start;baseline-shift:baseline;color:#000000;fill:#000000;fill-opacity:0.16308247;fill-rule:nonzero;stroke:none;stroke-width:1;marker:none;visibility:visible;display:inline;overflow:visible;enable-background:accumulate;font-family:Sans;-inkscape-font-specification:Sans"
     d="m 18.785745,24.999893 c 6.483777,0 11.785745,5.301968 11.785745,11.785745 0,2.464298 -0.770308,4.732806 -2.075931,6.629656 L 37,51.919735 33.919628,55.000107 25.415187,46.495666 c -1.896636,1.305409 -4.165144,2.075717 -6.629442,2.075717 C 12.301968,48.571383 7,43.269415 7,36.785638 7,30.301861 12.301968,24.999893 18.785745,24.999893 z m 0,4.285745 c -4.1675,0 -7.5,3.3325 -7.5,7.5 0,4.167499 3.3325,7.5 7.5,7.5 4.167499,0 7.5,-3.332501 7.5,-7.5 0,-4.1675 -3.332501,-7.5 -7.5,-7.5 z"
     id="path3193"
     inkscape:connector-curvature="0"
     sodipodi:nodetypes="ssccccssssssss" />
  <path
     sodipodi:nodetypes="ssccccssssssss"
     inkscape:connector-curvature="0"
     id="path3104"
     d="m 17.785745,23.999893 c 6.483777,0 11.785745,5.301968 11.785745,11.785745 0,2.464298 -0.770308,4.732806 -2.075931,6.629656 L 36,50.919735 32.919628,54.000107 24.415187,45.495666 c -1.896636,1.305409 -4.165144,2.075717 -6.629442,2.075717 C 11.301968,47.571383 6,42.269415 6,35.785638 6,29.301861 11.301968,23.999893 17.785745,23.999893 z m 0,4.285745 c -4.1675,0 -7.5,3.3325 -7.5,7.5 0,4.167499 3.3325,7.5 7.5,7.5 4.167499,0 7.5,-3.332501 7.5,-7.5 0,-4.1675 -3.332501,-7.5 -7.5,-7.5 z"
     style="font-size:medium;font-style:normal;font-variant:normal;font-weight:normal;font-stretch:normal;text-indent:0;text-align:start;text-decoration:none;line-height:normal;letter-spacing:normal;word-spacing:normal;text-transform:none;direction:ltr;block-progression:tb;writing-mode:lr-tb;text-anchor:start;baseline-shift:baseline;color:#000000;fill:#cad1d4;fill-opacity:1;fill-rule:nonzero;stroke:none;stroke-width:1;marker:none;visibility:visible;display:inline;overflow:visible;enable-background:accumulate;font-family:Sans;-inkscape-font-specification:Sans" />
</svg>
