<?xml version="1.0" encoding="UTF-8" standalone="no"?>
<!-- Created with Inkscape (http://www.inkscape.org/) -->

<svg
   xmlns:dc="http://purl.org/dc/elements/1.1/"
   xmlns:cc="http://creativecommons.org/ns#"
   xmlns:rdf="http://www.w3.org/1999/02/22-rdf-syntax-ns#"
   xmlns:svg="http://www.w3.org/2000/svg"
   xmlns="http://www.w3.org/2000/svg"
   xmlns:sodipodi="http://sodipodi.sourceforge.net/DTD/sodipodi-0.dtd"
   xmlns:inkscape="http://www.inkscape.org/namespaces/inkscape"
   version="1.1"
   width="22"
   height="22"
   id="svg2"
   inkscape:version="0.48.3.1 r9886"
   sodipodi:docname="deb.svg">
  <sodipodi:namedview
     pagecolor="#ffffff"
     bordercolor="#666666"
     borderopacity="1"
     objecttolerance="10"
     gridtolerance="10"
     guidetolerance="10"
     inkscape:pageopacity="0"
     inkscape:pageshadow="2"
     inkscape:window-width="1920"
     inkscape:window-height="1023"
     id="namedview6"
     showgrid="true"
     inkscape:zoom="29.5"
     inkscape:cx="17.310007"
     inkscape:cy="11.388786"
     inkscape:window-x="-10"
     inkscape:window-y="35"
     inkscape:window-maximized="1"
     inkscape:current-layer="svg2"
     inkscape:snap-bbox="true"
     inkscape:bbox-paths="true"
     inkscape:bbox-nodes="true"
     inkscape:snap-bbox-edge-midpoints="true"
     inkscape:snap-bbox-midpoints="true"
     inkscape:object-paths="true"
     inkscape:snap-intersection-paths="true"
     inkscape:object-nodes="true"
     inkscape:snap-smooth-nodes="true"
     inkscape:snap-object-midpoints="true"
     inkscape:snap-center="true"
     inkscape:snap-midpoints="true">
    <inkscape:grid
       type="xygrid"
       id="grid2982"
       empspacing="5"
       visible="true"
       enabled="true"
       snapvisiblegridlinesonly="true" />
  </sodipodi:namedview>
  <defs
     id="defs4" />
  <metadata
     id="metadata7">
    <rdf:RDF>
      <cc:Work
         rdf:about="">
        <dc:format>image/svg+xml</dc:format>
        <dc:type
           rdf:resource="http://purl.org/dc/dcmitype/StillImage" />
        <dc:title />
      </cc:Work>
    </rdf:RDF>
  </metadata>
  <path
     style="color:#000000;fill:#434a55;fill-opacity:0.6745098;fill-rule:nonzero;stroke:none;stroke-width:1;marker:none;visibility:visible;display:inline;overflow:visible;enable-background:accumulate"
     d="M 3,3 3,7 19,7 19,3 3,3 z M 3,8 3,19 19,19 19,8 3,8 z m 4,1 1,0 0,0.9375 c 0.1170124,0.022 0.2328968,0.05575 0.34375,0.09375 l 0.46875,-0.8125 0.875,0.5 -0.46875,0.8125 c 0.0877,0.077 0.17325,0.1623 0.25,0.25 l 0.8125,-0.46875 0.5,0.875 -0.8125,0.46875 C 10.00607,11.76705 10.04008,11.883 10.0625,12 L 11,12 l 0,1 -0.9375,0 c -0.02242,0.117 -0.05643,0.23285 -0.09375,0.34375 l 0.8125,0.46875 -0.5,0.875 -0.8125,-0.46875 c -0.07675,0.088 -0.1623,0.1732 -0.25,0.25 l 0.46875,0.8125 -0.875,0.5 -0.46875,-0.8125 C 8.2328968,15.00575 8.1170124,15.0395 8,15.0625 L 8,16 7,16 7,15.0625 C 6.8829876,15.0405 6.7671032,15.00675 6.65625,14.96875 l -0.46875,0.8125 -0.875,-0.5 0.46875,-0.8125 c -0.087699,-0.077 -0.173254,-0.1624 -0.25,-0.25 l -0.8125,0.46875 -0.5,-0.875 0.8125,-0.46875 C 4.99393,13.23285 4.959921,13.117 4.9375,13 L 4,13 4,12 4.9375,12 c 0.022421,-0.117 0.05643,-0.23295 0.09375,-0.34375 l -0.8125,-0.46875 0.5,-0.875 0.8125,0.46875 c 0.076746,-0.088 0.162301,-0.1733 0.25,-0.25 l -0.46875,-0.8125 0.875,-0.5 0.46875,0.8125 C 6.7671032,9.99425 6.8829876,9.9605 7,9.9375 L 7,9 z m 0.5,2.15625 c -0.7429999,0 -1.34375,0.60075 -1.34375,1.34375 0,0.743 0.6007501,1.34375 1.34375,1.34375 0.7429999,0 1.34375,-0.60075 1.34375,-1.34375 0,-0.743 -0.6007501,-1.34375 -1.34375,-1.34375 z"
     id="path2983"
     inkscape:connector-curvature="0" />
</svg>
