<?xml version="1.0" encoding="UTF-8" standalone="no"?>
<!-- Created with Inkscape (http://www.inkscape.org/) -->

<svg
   xmlns:dc="http://purl.org/dc/elements/1.1/"
   xmlns:cc="http://creativecommons.org/ns#"
   xmlns:rdf="http://www.w3.org/1999/02/22-rdf-syntax-ns#"
   xmlns:svg="http://www.w3.org/2000/svg"
   xmlns="http://www.w3.org/2000/svg"
   xmlns:xlink="http://www.w3.org/1999/xlink"
   xmlns:sodipodi="http://sodipodi.sourceforge.net/DTD/sodipodi-0.dtd"
   xmlns:inkscape="http://www.inkscape.org/namespaces/inkscape"
   width="64"
   height="64"
   id="svg13094"
   version="1.1"
   inkscape:version="0.48.3.1 r9886"
   sodipodi:docname="call-stop.svg">
  <sodipodi:namedview
     id="base"
     pagecolor="#cbcdd6"
     bordercolor="#666666"
     borderopacity="1.0"
     inkscape:pageopacity="1"
     inkscape:pageshadow="2"
     inkscape:zoom="11.313709"
     inkscape:cx="32.709734"
     inkscape:cy="30.620402"
     inkscape:document-units="px"
     inkscape:current-layer="svg13094"
     showgrid="true"
     inkscape:snap-bbox="true"
     inkscape:bbox-paths="true"
     inkscape:bbox-nodes="true"
     inkscape:snap-bbox-edge-midpoints="true"
     inkscape:snap-bbox-midpoints="true"
     inkscape:object-paths="true"
     inkscape:snap-intersection-paths="true"
     inkscape:object-nodes="true"
     inkscape:snap-smooth-nodes="true"
     inkscape:snap-midpoints="true"
     inkscape:snap-object-midpoints="true"
     inkscape:snap-center="true"
     showguides="true"
     inkscape:guide-bbox="true"
     inkscape:window-width="1920"
     inkscape:window-height="1023"
     inkscape:window-x="-10"
     inkscape:window-y="35"
     inkscape:window-maximized="1"
     inkscape:snap-global="true"
     fit-margin-top="0"
     fit-margin-left="0"
     fit-margin-right="0"
     fit-margin-bottom="0"
     showborder="true"
     inkscape:showpageshadow="false"
     inkscape:snap-page="true">
    <inkscape:grid
       type="xygrid"
       id="grid3075"
       empspacing="5"
       visible="true"
       enabled="true"
       snapvisiblegridlinesonly="true"
       originx="1.6362304e-08px"
       originy="18px" />
  </sodipodi:namedview>
  <defs
     id="defs13096">
    <linearGradient
       id="linearGradient5602">
      <stop
         id="stop5604"
         style="stop-color:#74b552;stop-opacity:1;"
         offset="0" />
      <stop
         id="stop5606"
         style="stop-color:#4d8441;stop-opacity:1;"
         offset="1" />
    </linearGradient>
    <radialGradient
       inkscape:collect="always"
       xlink:href="#linearGradient5602"
       id="radialGradient4097"
       gradientUnits="userSpaceOnUse"
       gradientTransform="matrix(0,1.875,-1.7578128,0,63.640638,-40.33334)"
       cx="28.444447"
       cy="18.000002"
       fx="28.444447"
       fy="18.000002"
       r="32" />
    <linearGradient
       id="linearGradient5602-41-4">
      <stop
         id="stop5604-6-7"
         style="stop-color:#c75c5c;stop-opacity:1;"
         offset="0" />
      <stop
         id="stop5606-8-7"
         style="stop-color:#8d4242;stop-opacity:1;"
         offset="1" />
    </linearGradient>
    <radialGradient
       r="32"
       fy="34"
       fx="13"
       cy="34"
       cx="13"
       gradientTransform="matrix(0,1.5666667,-1.46875,0,81.9375,-5.3666667)"
       gradientUnits="userSpaceOnUse"
       id="radialGradient3023"
       xlink:href="#linearGradient5602-41-4"
       inkscape:collect="always" />
  </defs>
  <metadata
     id="metadata13099">
    <rdf:RDF>
      <cc:Work
         rdf:about="">
        <dc:format>image/svg+xml</dc:format>
        <dc:type
           rdf:resource="http://purl.org/dc/dcmitype/StillImage" />
        <dc:title />
      </cc:Work>
    </rdf:RDF>
  </metadata>
  <path
     inkscape:connector-curvature="0"
     style="color:#000000;fill:url(#radialGradient3023);fill-opacity:1;fill-rule:nonzero;stroke:none;stroke-width:2.28571415;marker:none;visibility:visible;display:inline;overflow:visible;enable-background:accumulate"
     d="m 0,4 0,30 0,28 2,2 30,0 30,0 2,-2 L 64,34 64,4 32,4 0,4 z"
     id="path6498" />
  <path
     inkscape:connector-curvature="0"
     style="color:#000000;fill:#ed8383;fill-opacity:1;fill-rule:nonzero;stroke:none;marker:none;visibility:visible;display:inline;overflow:visible;enable-background:accumulate"
     d="M 2,0 0,1 0,4 32,4 64,4 64,1 62,0 32,0 2,0 z"
     id="path6502" />
  <path
     inkscape:connector-curvature="0"
     style="fill:#ffffff;fill-opacity:0.21554769;fill-rule:nonzero"
     d="M 0,3 0,6 2,4 32,4 62,4 64,3 32,3 0,3 z"
     id="path4298" />
  <path
     inkscape:connector-curvature="0"
     style="fill:#1f0700;fill-opacity:0.06978802;fill-rule:nonzero"
     d="M 2,0 0,1 32,1 64,1 62,0 32,0 2,0 z"
     id="path4444" />
  <path
     d="M 64,6 62,4 64,3 z"
     id="path3028"
     style="fill:#1f0700;fill-opacity:0.13759861"
     inkscape:connector-curvature="0" />
  <path
     inkscape:connector-curvature="0"
     style="fill:#000000;fill-opacity:0.11130587;fill-rule:nonzero"
     d="M 63,0.5 63,34 63,63 64,62 64,34 64,1 63,0.5 z m 0,62.5 -31,0 -31,0 1,1 30,0 30,0 1,-1 z"
     id="path4366" />
  <g
     id="g3043"
     inkscape:export-filename="folder.png"
     inkscape:export-xdpi="90"
     inkscape:export-ydpi="90"
     transform="translate(-0.62500009,0.082283)" />
  <path
     inkscape:connector-curvature="0"
     style="fill:#ffffff;fill-opacity:0.35070675;fill-rule:nonzero"
     d="M 0,1 0,34 0,62 1,63 1,34 1,5 2,4 1,3.46875 1,1 0,1 z"
     id="path3864" />
  <g
     id="scalable"
     transform="matrix(1.0385892,0,0,1.0385892,1214.7222,1878.8121)"
     inkscape:label="#g3701"
     style="fill:#ffffff" />
  <path
     inkscape:connector-curvature="0"
     id="path3066"
     d="m 52.263326,42.155787 1.363817,-2.927827 c 0.03577,-0.08226 0.06031,-0.165362 0.06132,-0.250348 0.0088,-0.251728 -0.126542,-0.495471 -0.3702,-0.608413 l -9.703885,-4.500205 c -0.324545,-0.150691 -0.703313,-0.0012 -0.8537,0.323645 l -1.363783,2.927767 c -0.150996,0.324473 -0.0011,0.703197 0.32365,0.85369 l 9.693949,4.494468 c 0.324457,0.15064 0.697166,0.01123 0.847689,-0.313437 z m 1.59868,-4.466078 c 0.406841,-0.82649 0.683053,-1.811848 0.6822,-2.831383 -5.17e-4,-0.865611 -0.196108,-1.752293 -0.674198,-2.580289 -1.959375,-3.393778 -10.523435,-9.254274 -21.87445,-9.254224 -11.350985,-4e-6 -19.90679,5.864485 -21.866205,9.258291 -1.0410907,1.80302 -0.7450297,3.877776 0.008,5.407268 0.05953,-0.04017 0.119437,-0.07897 0.186231,-0.110196 L 19.96366,33.115314 C 19.832207,30.963754 24.176326,26.99996 31.999784,27 c 7.823282,-6e-5 12.166908,3.967136 12.035672,6.11871 l 9.642792,4.464919 c 0.06685,0.0304 0.12516,0.06522 0.183737,0.10608 z m -31.291961,0.03314 c 0.06195,-0.107306 0.09001,-0.233035 0.085,-0.359179 l 0.0097,0.0056 c -0.003,-0.08413 -0.02123,-0.170521 -0.05887,-0.251706 l -1.371363,-2.928398 c -0.150476,-0.324685 -0.527489,-0.465507 -0.852188,-0.315049 l -9.700237,4.497207 c -0.324703,0.150467 -0.455569,0.533462 -0.305093,0.858147 l 1.350973,2.916555 c 0.150569,0.324728 0.537796,0.471611 0.862448,0.321032 L 22.284852,37.9801 c 0.121721,-0.05653 0.220602,-0.151457 0.284758,-0.257503 z"
     style="color:#000000;fill:#ffffff;fill-opacity:0.72043014;fill-rule:nonzero;stroke:none;stroke-width:1.20000005;marker:none;visibility:visible;display:inline;overflow:visible;enable-background:accumulate"
     inkscape:export-filename="../imagens/simbolo-telefone-rodape.png"
     inkscape:export-xdpi="90"
     inkscape:export-ydpi="90"
     sodipodi:nodetypes="ccccccccccccccsccccccccccccccccccccc" />
  <path
     style="color:#000000;fill:#000000;fill-opacity:0.18996414000000000;fill-rule:nonzero;stroke:none;stroke-width:1.20000005000000010;marker:none;visibility:visible;display:inline;overflow:visible;enable-background:accumulate"
     d="M 32 27 C 24.176542 26.99996 19.837297 30.97344 19.96875 33.125 L 10.6875 37.4375 C 10.761521 37.71355 10.833277 37.994101 10.9375 38.25 L 20.375 33.875 C 20.582308 33.778938 20.822616 33.792797 21 33.90625 C 21.144037 31.717523 25.422266 27.999961 33 28 C 37.809053 27.999963 41.301821 29.501328 43.25 31.15625 C 41.672882 29.155859 37.785248 26.999956 32 27 z M 52.9375 31.03125 C 53.329472 31.472169 53.65058 31.892538 53.875 32.28125 C 54.35309 33.109246 54.530733 33.978139 54.53125 34.84375 C 54.532103 35.863285 54.281841 36.86101 53.875 37.6875 C 53.816423 37.64664 53.75435 37.62415 53.6875 37.59375 L 44.96875 33.5625 C 45.015262 33.7554 45.041774 33.952468 45.03125 34.125 L 54.6875 38.59375 C 54.75435 38.62415 54.816423 38.64664 54.875 38.6875 C 55.281841 37.86101 55.532103 36.863285 55.53125 35.84375 C 55.530733 34.978139 55.35309 34.109246 54.875 33.28125 C 54.486367 32.608109 53.816013 31.833499 52.9375 31.03125 z M 21.625 34.8125 C 21.593128 34.813602 21.563196 34.837722 21.53125 34.84375 L 22.59375 37.125 C 22.63139 37.206185 22.65325 37.29087 22.65625 37.375 C 22.66126 37.501144 22.62445 37.611444 22.5625 37.71875 C 22.498344 37.824796 22.402971 37.91222 22.28125 37.96875 L 12.59375 42.46875 C 12.54362 42.492001 12.489512 42.490493 12.4375 42.5 L 12.71875 43.15625 C 12.869319 43.480978 13.269098 43.619329 13.59375 43.46875 L 23.28125 38.96875 C 23.402971 38.91222 23.498344 38.824796 23.5625 38.71875 C 23.62445 38.611444 23.66126 38.501144 23.65625 38.375 C 23.65325 38.29087 23.63139 38.206185 23.59375 38.125 L 22.25 35.1875 C 22.137143 34.943986 21.875071 34.803851 21.625 34.8125 z M 42.375 38.28125 C 42.323353 38.564092 42.444145 38.841495 42.71875 38.96875 L 52.40625 43.46875 C 52.730707 43.61939 53.099477 43.480917 53.25 43.15625 L 54.625 40.21875 C 54.66077 40.13649 54.68649 40.053736 54.6875 39.96875 C 54.6963 39.717022 54.556158 39.487942 54.3125 39.375 L 53.65625 39.0625 C 53.645623 39.114196 53.647093 39.167942 53.625 39.21875 L 52.25 42.15625 C 52.099477 42.480917 51.730707 42.61939 51.40625 42.46875 L 42.375 38.28125 z "
     id="path3044" />
  <path
     style="color:#000000;fill:#ffffff;fill-opacity:0.67741938999999995;fill-rule:nonzero;stroke:none;stroke-width:1.20000005000000010;marker:none;visibility:visible;display:inline;overflow:visible;enable-background:accumulate"
     d="m 32,23.03125 c -11.350985,-4e-6 -19.915585,5.856194 -21.875,9.25 -1.0410907,1.80302 -0.7530297,3.876758 0,5.40625 0.05953,-0.04017 0.120706,-0.06252 0.1875,-0.09375 l 0.375,-0.15625 c -0.35215,-1.313296 -0.343318,-2.803985 0.4375,-4.15625 1.959415,-3.393806 10.524015,-9.250004 21.875,-9.25 9.099591,-4e-5 16.386811,3.757548 19.9375,7 -3.030275,-3.408675 -10.886591,-8.000044 -20.9375,-8 z M 43.3125,31.25 c 0.510999,0.674489 0.751559,1.337107 0.71875,1.875 l 0.9375,0.4375 C 44.796645,32.848726 44.232496,32.050752 43.3125,31.25 z m 0.0625,2.5625 c -0.250495,-0.0063 -0.51221,0.131366 -0.625,0.375 l -1.34375,2.9375 c -0.150996,0.324473 -0.01225,0.693257 0.3125,0.84375 l 0.65625,0.3125 C 42.3844,38.2296 42.3829,38.175102 42.40625,38.125 L 43.75,35.1875 c 0.150387,-0.324845 0.550455,-0.463191 0.875,-0.3125 l 9.03125,4.1875 c 0.0066,-0.032 0.03086,-0.06126 0.03125,-0.09375 0.0088,-0.251728 -0.131342,-0.480808 -0.375,-0.59375 l -9.6875,-4.5 c -0.08114,-0.03767 -0.166502,-0.0604 -0.25,-0.0625 z M 21,33.90625 c -0.0047,0.07097 -0.03538,0.151172 -0.03125,0.21875 L 11.3125,38.59375 C 11.24571,38.62498 11.18453,38.64733 11.125,38.6875 11.05546,38.546247 10.998556,38.399911 10.9375,38.25 l -0.25,0.125 c -0.324703,0.150467 -0.462976,0.519065 -0.3125,0.84375 l 1.34375,2.9375 c 0.127319,0.274586 0.43392,0.395811 0.71875,0.34375 L 11.375,40.21875 C 11.224524,39.894065 11.3628,39.525467 11.6875,39.375 l 9.6875,-4.5 c 0.05014,-0.02323 0.104645,-0.02151 0.15625,-0.03125 L 21.25,34.1875 C 21.1956,34.070114 21.100447,33.970494 21,33.90625 z"
     id="path4174"
     inkscape:connector-curvature="0" />
</svg>
