<?xml version="1.0" encoding="UTF-8" standalone="no"?>
<!-- Created with Inkscape (http://www.inkscape.org/) -->

<svg
   xmlns:dc="http://purl.org/dc/elements/1.1/"
   xmlns:cc="http://creativecommons.org/ns#"
   xmlns:rdf="http://www.w3.org/1999/02/22-rdf-syntax-ns#"
   xmlns:svg="http://www.w3.org/2000/svg"
   xmlns="http://www.w3.org/2000/svg"
   xmlns:xlink="http://www.w3.org/1999/xlink"
   xmlns:sodipodi="http://sodipodi.sourceforge.net/DTD/sodipodi-0.dtd"
   xmlns:inkscape="http://www.inkscape.org/namespaces/inkscape"
   version="1.1"
   width="64"
   height="64"
   id="svg13094"
   inkscape:version="0.48.4 r9939"
   sodipodi:docname="cdr.svg">
  <sodipodi:namedview
     pagecolor="#ffffff"
     bordercolor="#666666"
     borderopacity="1"
     objecttolerance="10"
     gridtolerance="10"
     guidetolerance="10"
     inkscape:pageopacity="0"
     inkscape:pageshadow="2"
     inkscape:window-width="1366"
     inkscape:window-height="707"
     id="namedview49"
     showgrid="false"
     inkscape:zoom="5.2149125"
     inkscape:cx="23.693109"
     inkscape:cy="32.590859"
     inkscape:window-x="-5"
     inkscape:window-y="26"
     inkscape:window-maximized="1"
     inkscape:current-layer="svg13094" />
  <defs
     id="defs11">
    <radialGradient
       cx="60.561817"
       cy="21.045019"
       r="2"
       fx="59.603962"
       fy="21.240686"
       id="radialGradient3811-3"
       xlink:href="#radialGradient3996"
       gradientUnits="userSpaceOnUse"
       gradientTransform="matrix(0,19.318815,-3.4300596,0,132.74749,-1136.9636)" />
    <radialGradient
       cx="48.30785"
       cy="47.141338"
       r="14.16129"
       id="radialGradient3996"
       gradientUnits="userSpaceOnUse"
       gradientTransform="matrix(0.93962333,0.77477937,-1.7975241,2.1799696,88.130548,-93.365748)">
      <stop
         id="stop3954"
         style="stop-color:#000000;stop-opacity:0.22264875"
         offset="0" />
      <stop
         id="stop3958"
         style="stop-color:#000000;stop-opacity:0.0678183"
         offset="0.5" />
      <stop
         id="stop3956"
         style="stop-color:#000000;stop-opacity:0.02431222"
         offset="1" />
    </radialGradient>
    <linearGradient
       x1="45"
       y1="52"
       x2="73"
       y2="4"
       id="linearGradient4308"
       gradientUnits="userSpaceOnUse">
      <stop
         id="stop4304"
         style="stop-color:#000000;stop-opacity:0.10677083"
         offset="0" />
      <stop
         id="stop4306"
         style="stop-color:#000000;stop-opacity:0"
         offset="1" />
    </linearGradient>
    <linearGradient
       x1="48.917568"
       y1="46.213669"
       x2="32.669781"
       y2="24"
       id="linearGradient4259"
       gradientUnits="userSpaceOnUse">
      <stop
         id="stop3988"
         style="stop-color:#ffffff;stop-opacity:0.52975047"
         offset="0" />
      <stop
         id="stop3990"
         style="stop-color:#ffffff;stop-opacity:0"
         offset="1" />
    </linearGradient>
    <linearGradient
       x1="31"
       y1="64"
       x2="31"
       y2="2"
       id="linearGradient3984"
       gradientUnits="userSpaceOnUse">
      <stop
         id="stop3099"
         style="stop-color:#829d6b;stop-opacity:1;"
         offset="0" />
      <stop
         id="stop3875"
         style="stop-color:#89a274;stop-opacity:1;"
         offset="0.5" />
      <stop
         id="stop3873"
         style="stop-color:#769060;stop-opacity:1;"
         offset="0.51612902" />
      <stop
         id="stop3101"
         style="stop-color:#849f6e;stop-opacity:1;"
         offset="1" />
    </linearGradient>
    <linearGradient
       x1="48.992088"
       y1="46.124821"
       x2="37"
       y2="36"
       id="linearGradient4280"
       gradientUnits="userSpaceOnUse">
      <stop
         id="stop4293"
         style="stop-color:#70865f;stop-opacity:1;"
         offset="0" />
      <stop
         id="stop4295"
         style="stop-color:#5e704f;stop-opacity:1;"
         offset="0.2098622" />
      <stop
         id="stop4297"
         style="stop-color:#6d825c;stop-opacity:1;"
         offset="1" />
    </linearGradient>
    <radialGradient
       cx="48.30785"
       cy="47.141338"
       r="14.16129"
       id="radialGradient3220"
       xlink:href="#radialGradient3996"
       gradientUnits="userSpaceOnUse"
       gradientTransform="matrix(0.93962333,0.77477937,-1.7975241,2.1799696,88.130548,-93.365748)" />
    <linearGradient
       inkscape:collect="always"
       xlink:href="#linearGradient3918-5-0"
       id="linearGradient4549-8-1-2"
       gradientUnits="userSpaceOnUse"
       gradientTransform="translate(-3117.6016,-1600.2279)"
       x1="3113.439"
       y1="1664.3622"
       x2="3113.439"
       y2="1602.3622" />
    <linearGradient
       x1="31"
       y1="64"
       x2="31"
       y2="2"
       id="linearGradient3918-5-0"
       gradientUnits="userSpaceOnUse">
      <stop
         id="stop3920-82-1"
         style="stop-color:#d4d4d4;stop-opacity:1"
         offset="0" />
      <stop
         id="stop3922-01-4"
         style="stop-color:#e4e4e4;stop-opacity:1"
         offset="0.50050378" />
      <stop
         id="stop3924-5-3"
         style="stop-color:#d4d4d4;stop-opacity:1"
         offset="0.51612902" />
      <stop
         id="stop3926-5-5"
         style="stop-color:#e4e4e4;stop-opacity:1"
         offset="1" />
    </linearGradient>
  </defs>
  <metadata
     id="metadata13099">
    <rdf:RDF>
      <cc:Work
         rdf:about="">
        <dc:format>image/svg+xml</dc:format>
        <dc:type
           rdf:resource="http://purl.org/dc/dcmitype/StillImage" />
        <dc:title />
      </cc:Work>
    </rdf:RDF>
  </metadata>
  <path
     d="M 4,0 64,0 64,62 4,62 z"
     id="path3960"
     style="fill:#596a4b;fill-opacity:1;fill-rule:nonzero" />
  <path
     d="m 60,2 4,4 0,31 -4,-4 z"
     id="path3900"
     style="fill:url(#radialGradient3811-3);fill-rule:nonzero" />
  <path
     d="M 63,0 V 61 H 4 v 1 h 59 1 V 61 0 h -1 z"
     id="path4299"
     style="fill:#000000;fill-opacity:0.0715548;fill-rule:nonzero" />
  <path
     d="M 60,2 60,33 35,62 37,62 60.78125,33.65625 61,33.375 61,33 61,3 z"
     id="path3922"
     style="fill:url(#linearGradient4308);fill-rule:nonzero" />
  <path
     d="M 0,2 60,2 60,33 34,64 0,64 z"
     id="path4257"
     style="fill:url(#linearGradient4259);fill-rule:nonzero" />
  <path
     d="M 0,2 60,2 60,33 34,64 0,64 z"
     id="path3982"
     style="fill:url(#linearGradient3984);fill-rule:nonzero" />
  <path
     d="M 0,2 60,2 60,3 0,3 z"
     id="path4253"
     style="fill:#aacc83;fill-opacity:1;fill-rule:nonzero" />
  <path
     d="m 0,63 35,0 -1,1 -34,0 z"
     id="path4255"
     style="fill:#000000;fill-opacity:0.15547707;fill-rule:nonzero" />
  <path
     d="M 4,0 64,0 64,1 4,1 z"
     id="path3878"
     style="fill:#aacc83;fill-opacity:1;fill-rule:nonzero" />
  <g
     id="g3079">
    <path
       d="m 0,2 0,3 0,1 0,4 0,1 0,4 0,1 0,4 0,1 0,4 0,1 0,4 0,1 0,4 0,1 0,4 0,1 0,4 0,1 0,4 0,1 0,4 0,1 0,4 0,1 0,3 1,0 0,-3 4,0 0,3 1,0 0,-3 4,0 0,3 1,0 0,-3 4,0 0,3 1,0 0,-3 4,0 0,3 1,0 0,-3 4,0 0,3 1,0 0,-3 4,0 0,3 1,0 0,-3 4,0 0,1.8125 1,-1.1875 0,-0.625 0.53125,0 0.8125,-1 L 36,60 l 0,-4 4,0 0,0.84375 L 41.5625,55 41,55 41,51 44.90625,51 46,49.6875 46,46 49.09375,46 49.9375,45 46,45 l 0,-4 4,0 0,3.9375 1,-1.21875 L 51,41 53.28125,41 54.125,40 51,40 l 0,-4 4,0 0,2.96875 1,-1.1875 L 56,36 57.46875,36 58.3125,35 56,35 l 0,-4 4,0 0,-1 -4,0 0,-4 4,0 0,-1 -4,0 0,-4 4,0 0,-1 -4,0 0,-4 4,0 0,-1 -4,0 0,-4 4,0 0,-1 -4,0 0,-4 4,0 0,-1 -4,0 0,-3 -1,0 0,3 -4,0 0,-3 -1,0 0,3 -4,0 0,-3 -1,0 0,3 -4,0 0,-3 -1,0 0,3 -4,0 0,-3 -1,0 0,3 -4,0 0,-3 -1,0 0,3 -4,0 0,-3 -1,0 0,3 -4,0 0,-3 -1,0 0,3 -4,0 0,-3 -1,0 0,3 -4,0 0,-3 -1,0 0,3 L 6,5 6,2 5,2 5,5 1,5 1,2 0,2 z m 1,4 4,0 0,4 -4,0 0,-4 z m 5,0 4,0 0,4 -4,0 0,-4 z m 5,0 4,0 0,4 -4,0 0,-4 z m 5,0 4,0 0,4 -4,0 0,-4 z m 5,0 4,0 0,4 -4,0 0,-4 z m 5,0 4,0 0,4 -4,0 0,-4 z m 5,0 4,0 0,4 -4,0 0,-4 z m 5,0 4,0 0,4 -4,0 0,-4 z m 5,0 4,0 0,4 -4,0 0,-4 z m 5,0 4,0 0,4 -4,0 0,-4 z m 5,0 4,0 0,4 -4,0 0,-4 z m -50,5 4,0 0,4 -4,0 0,-4 z m 5,0 4,0 0,4 -4,0 0,-4 z m 5,0 4,0 0,4 -4,0 0,-4 z m 5,0 4,0 0,4 -4,0 0,-4 z m 5,0 4,0 0,4 -4,0 0,-4 z m 5,0 4,0 0,4 -4,0 0,-4 z m 5,0 4,0 0,4 -4,0 0,-4 z m 5,0 4,0 0,4 -4,0 0,-4 z m 5,0 4,0 0,4 -4,0 0,-4 z m 5,0 4,0 0,4 -4,0 0,-4 z m 5,0 4,0 0,4 -4,0 0,-4 z m -50,5 4,0 0,4 -4,0 0,-4 z m 5,0 4,0 0,4 -4,0 0,-4 z m 5,0 4,0 0,4 -4,0 0,-4 z m 5,0 4,0 0,4 -4,0 0,-4 z m 5,0 4,0 0,4 -4,0 0,-4 z m 5,0 4,0 0,4 -4,0 0,-4 z m 5,0 4,0 0,4 -4,0 0,-4 z m 5,0 4,0 0,4 -4,0 0,-4 z m 5,0 4,0 0,4 -4,0 0,-4 z m 5,0 4,0 0,4 -4,0 0,-4 z m 5,0 4,0 0,4 -4,0 0,-4 z m -50,5 4,0 0,4 -4,0 0,-4 z m 5,0 4,0 0,4 -4,0 0,-4 z m 5,0 4,0 0,4 -4,0 0,-4 z m 5,0 4,0 0,4 -4,0 0,-4 z m 5,0 4,0 0,4 -4,0 0,-4 z m 5,0 4,0 0,4 -4,0 0,-4 z m 5,0 4,0 0,4 -4,0 0,-4 z m 5,0 4,0 0,4 -4,0 0,-4 z m 5,0 4,0 0,4 -4,0 0,-4 z m 5,0 4,0 0,4 -4,0 0,-4 z m 5,0 4,0 0,4 -4,0 0,-4 z m -50,5 4,0 0,4 -4,0 0,-4 z m 5,0 4,0 0,4 -4,0 0,-4 z m 5,0 4,0 0,4 -4,0 0,-4 z m 5,0 4,0 0,4 -4,0 0,-4 z m 5,0 4,0 0,4 -4,0 0,-4 z m 5,0 4,0 0,4 -4,0 0,-4 z m 5,0 4,0 0,4 -4,0 0,-4 z m 5,0 4,0 0,4 -4,0 0,-4 z m 5,0 4,0 0,4 -4,0 0,-4 z m 5,0 4,0 0,4 -4,0 0,-4 z m 5,0 4,0 0,4 -4,0 0,-4 z m -50,5 4,0 0,4 -4,0 0,-4 z m 5,0 4,0 0,4 -4,0 0,-4 z m 5,0 4,0 0,4 -4,0 0,-4 z m 5,0 4,0 0,4 -4,0 0,-4 z m 5,0 4,0 0,4 -4,0 0,-4 z m 5,0 4,0 0,4 -4,0 0,-4 z m 5,0 4,0 0,4 -4,0 0,-4 z m 5,0 4,0 0,4 -4,0 0,-4 z m 5,0 4,0 0,4 -4,0 0,-4 z m 5,0 4,0 0,4 -4,0 0,-4 z m 5,0 4,0 0,4 -4,0 0,-4 z m -50,5 4,0 0,4 -4,0 0,-4 z m 5,0 4,0 0,4 -4,0 0,-4 z m 5,0 4,0 0,4 -4,0 0,-4 z m 5,0 4,0 0,4 -4,0 0,-4 z m 5,0 4,0 0,4 -4,0 0,-4 z m 5,0 4,0 0,4 -4,0 0,-4 z m 5,0 4,0 0,4 -4,0 0,-4 z m 5,0 4,0 0,4 -4,0 0,-4 z m 5,0 4,0 0,4 -4,0 0,-4 z m 5,0 4,0 0,4 -4,0 0,-4 z m -45,5 4,0 0,4 -4,0 0,-4 z m 5,0 4,0 0,4 -4,0 0,-4 z m 5,0 4,0 0,4 -4,0 0,-4 z m 5,0 4,0 0,4 -4,0 0,-4 z m 5,0 4,0 0,4 -4,0 0,-4 z m 5,0 4,0 0,4 -4,0 0,-4 z m 5,0 4,0 0,4 -4,0 0,-4 z m 5,0 4,0 0,4 -4,0 0,-4 z m 5,0 4,0 0,4 -4,0 0,-4 z m -40,5 4,0 0,4 -4,0 0,-4 z m 5,0 4,0 0,4 -4,0 0,-4 z m 5,0 4,0 0,4 -4,0 0,-4 z m 5,0 4,0 0,4 -4,0 0,-4 z m 5,0 4,0 0,4 -4,0 0,-4 z m 5,0 4,0 0,4 -4,0 0,-4 z m 5,0 4,0 0,4 -4,0 0,-4 z m 5,0 4,0 0,4 -4,0 0,-4 z m 5,0 4,0 0,4 -4,0 0,-4 z m -40,5 4,0 0,4 -4,0 0,-4 z m 5,0 4,0 0,4 -4,0 0,-4 z m 5,0 4,0 0,4 -4,0 0,-4 z m 5,0 4,0 0,4 -4,0 0,-4 z m 5,0 4,0 0,4 -4,0 0,-4 z m 5,0 4,0 0,4 -4,0 0,-4 z m 5,0 4,0 0,4 -4,0 0,-4 z m 5,0 4,0 0,4 -4,0 0,-4 z m -35,5 4,0 0,4 -4,0 0,-4 z m 5,0 4,0 0,4 -4,0 0,-4 z m 5,0 4,0 0,4 -4,0 0,-4 z m 5,0 4,0 0,4 -4,0 0,-4 z m 5,0 4,0 0,4 -4,0 0,-4 z m 5,0 4,0 0,4 -4,0 0,-4 z m 5,0 4,0 0,4 -4,0 0,-4 z"
       id="path3948"
       style="fill:#ffffff;fill-opacity:0.04151943;fill-rule:nonzero" />
  </g>
  <path
     d="m 60,33 4,4 0,25 -28.32258,0 z"
     id="path3934"
     style="fill:url(#radialGradient3220);fill-rule:nonzero" />
  <path
     d="M 34,64 60,33 c -2.328567,2.776369 -4.36141,3 -11,3 H 37 v 15 c 0,6.644068 0.04437,9.370179 -3,13 z"
     id="path4278"
     style="fill:url(#linearGradient4280);fill-rule:nonzero" />
  <path
     d="m 59,32 c -2.328567,2.776369 -4.36141,3 -11,3 H 36 v 15 c 0,6.644068 0.04437,9.370179 -3,13 4,-5 4.000382,-8.356667 4,-13 V 36 h 11 c 5,0 8.041405,-0.381883 11,-4 z"
     id="path4282"
     style="fill:#aacc83;fill-opacity:1;fill-rule:nonzero"
     inkscape:connector-curvature="0" />
  <path
     inkscape:connector-curvature="0"
     style="color:#000000;fill:url(#linearGradient4549-8-1-2);fill-opacity:1;fill-rule:nonzero;stroke:none;marker:none;visibility:visible;display:inline;overflow:visible;enable-background:accumulate;stroke-width:1"
     d="M 0,2 0,64 C 4.9319343,55.088728 18.182702,12.140082 0,2 z M 3.75,2.125 C 22.989324,16.764885 9.5602378,48.269063 2.21875,64 L 3.75,64 C 7.0721755,58.130978 13.43764,48.819134 17.875,37.625 22.573983,25.771088 24.792618,12.756359 7.8125,2.5625 6.5364004,2.3685315 5.1780783,2.2173856 3.75,2.125 z m 7.1875,1.03125 C 21.784896,8.5848326 24.767085,15.701139 24.625,23.5 24.339552,39.171183 10.133326,57.036258 4,64 l 0.0625,0 C 17.544928,52.88335 26.954276,34.349666 26.65625,23.90625 26.495657,18.276979 25.760695,10.3466 13.65625,3.9375 12.793576,3.6505317 11.897314,3.3844058 10.9375,3.15625 z"
     id="path3136-9" />
  <path
     inkscape:connector-curvature="0"
     style="color:#000000;fill:#ffffff;fill-opacity:0.39903846;fill-rule:nonzero;stroke:none;stroke-width:1;marker:none;visibility:visible;display:inline;overflow:visible;enable-background:accumulate"
     d="M 0,2 0,64 1,64 1,2 z"
     id="rect4581"
     sodipodi:nodetypes="ccccc" />
</svg>
