<?xml version="1.0" encoding="UTF-8" standalone="no"?>
<!-- Created with Inkscape (http://www.inkscape.org/) -->

<svg
   xmlns:dc="http://purl.org/dc/elements/1.1/"
   xmlns:cc="http://creativecommons.org/ns#"
   xmlns:rdf="http://www.w3.org/1999/02/22-rdf-syntax-ns#"
   xmlns:svg="http://www.w3.org/2000/svg"
   xmlns="http://www.w3.org/2000/svg"
   xmlns:sodipodi="http://sodipodi.sourceforge.net/DTD/sodipodi-0.dtd"
   xmlns:inkscape="http://www.inkscape.org/namespaces/inkscape"
   width="16"
   height="16"
   id="svg27665"
   version="1.1"
   inkscape:version="0.48.4 r9939"
   sodipodi:docname="audio-output-none-panel.svg">
  <defs
     id="defs27667" />
  <sodipodi:namedview
     id="base"
     pagecolor="#cbcdd6"
     bordercolor="#666666"
     borderopacity="1.0"
     inkscape:pageopacity="1"
     inkscape:pageshadow="2"
     inkscape:zoom="32.000001"
     inkscape:cx="9.7619917"
     inkscape:cy="8.1703626"
     inkscape:document-units="px"
     inkscape:current-layer="layer1"
     showgrid="true"
     inkscape:window-width="1920"
     inkscape:window-height="1018"
     inkscape:window-x="-5"
     inkscape:window-y="25"
     inkscape:window-maximized="1"
     inkscape:snap-bbox="true"
     inkscape:bbox-paths="true"
     inkscape:bbox-nodes="true"
     inkscape:snap-bbox-edge-midpoints="true"
     inkscape:snap-bbox-midpoints="true"
     inkscape:object-paths="true"
     inkscape:snap-intersection-paths="true"
     inkscape:object-nodes="true"
     inkscape:snap-smooth-nodes="true"
     inkscape:snap-midpoints="true"
     inkscape:snap-object-midpoints="true"
     inkscape:snap-center="true"
     inkscape:snap-global="false"
     showguides="true"
     inkscape:guide-bbox="true"
     fit-margin-top="0"
     fit-margin-left="0"
     fit-margin-right="0"
     fit-margin-bottom="0"
     inkscape:showpageshadow="false">
    <inkscape:grid
       type="xygrid"
       id="grid3070"
       empspacing="5"
       visible="true"
       enabled="true"
       snapvisiblegridlinesonly="true"
       originx="-47.999653px"
       originy="-0.00031276823px" />
  </sodipodi:namedview>
  <metadata
     id="metadata27670">
    <rdf:RDF>
      <cc:Work
         rdf:about="">
        <dc:format>image/svg+xml</dc:format>
        <dc:type
           rdf:resource="http://purl.org/dc/dcmitype/StillImage" />
        <dc:title />
      </cc:Work>
    </rdf:RDF>
  </metadata>
  <g
     inkscape:label="Camada 1"
     inkscape:groupmode="layer"
     id="layer1"
     transform="translate(3316.4171,-2100.7186)">
    <path
       style="font-size:medium;font-style:normal;font-variant:normal;font-weight:normal;font-stretch:normal;text-indent:0;text-align:start;text-decoration:none;line-height:normal;letter-spacing:normal;word-spacing:normal;text-transform:none;direction:ltr;block-progression:tb;writing-mode:lr-tb;text-anchor:start;baseline-shift:baseline;color:#000000;fill:#27303a;fill-opacity:0.75328081999999996;fill-rule:nonzero;stroke:none;stroke-width:2;marker:none;visibility:visible;display:inline;overflow:visible;enable-background:accumulate;font-family:Sans;-inkscape-font-specification:Sans"
       d="M 7.71875 1 A 1.0000999 1.0000999 0 0 0 7.03125 1.46875 L 5.5625 3.90625 L 2.625 5 A 1.0000999 1.0000999 0 0 0 2 5.9375 L 2 10.0625 A 1.0000999 1.0000999 0 0 0 2.625 11 L 3.53125 11.34375 L 5.09375 9.78125 L 4 9.375 L 4 6.625 L 6.625 5.625 A 1.0000999 1.0000999 0 0 0 7.125 5.21875 L 8.46875 3 L 10.375 3 C 10.446596 3.2772424 10.558969 3.7178422 10.65625 4.21875 L 12.34375 2.53125 C 12.228853 2.0598981 12.124969 1.71875 12.125 1.71875 A 1.0000999 1.0000999 0 0 0 11.15625 1 L 7.90625 1 A 1.0000999 1.0000999 0 0 0 7.8125 1 A 1.0000999 1.0000999 0 0 0 7.71875 1 z M 14.625 1.65625 L 12.59375 3.6875 L 10.84375 5.4375 L 6.09375 10.1875 L 4.5625 11.71875 L 2.125 14.15625 L 2.84375 14.84375 L 5.5625 12.125 L 7.03125 14.53125 A 1.0000999 1.0000999 0 0 0 7.90625 15 L 11.15625 15 A 1.0000999 1.0000999 0 0 0 12.125 14.28125 C 12.125 14.28125 13 11.4624 13 8 C 13 6.8515563 12.906831 5.8286647 12.78125 4.90625 L 15.34375 2.34375 L 14.625 1.65625 z M 10.96875 6.71875 C 10.992714 7.1185472 11 7.5405404 11 8 C 11 10.4653 10.5794 12.2083 10.375 13 L 8.46875 13 L 7.125 10.78125 A 1.0000999 1.0000999 0 0 0 7.03125 10.65625 L 10.96875 6.71875 z "
       transform="translate(-3316.4171,2100.7186)"
       id="path3049" />
    <path
       style="font-size:medium;font-style:normal;font-variant:normal;font-weight:normal;font-stretch:normal;text-indent:0;text-align:start;text-decoration:none;line-height:normal;letter-spacing:normal;word-spacing:normal;text-transform:none;direction:ltr;block-progression:tb;writing-mode:lr-tb;text-anchor:start;baseline-shift:baseline;color:#000000;fill:#f1f3f5;fill-opacity:0.90288714000000003;fill-rule:nonzero;stroke:none;stroke-width:2;marker:none;visibility:visible;display:inline;overflow:visible;enable-background:accumulate;font-family:Sans;-inkscape-font-specification:Sans"
       d="M 14.9375 -0.0625 L 12.84375 2.03125 C 12.701564 1.6658177 12.59375 1.4375 12.59375 1.4375 C 12.33665 0.5606 11.57005 -0.0084 10.65625 0 L 7.96875 0 C 7.95075 -0.0009 7.92225 0.0003 7.90625 0 C 7.87925 -0.0006 7.8395 -0.0006 7.8125 0 C 7.7945 0.0003 7.767 -0.0009 7.75 0 C 7.0994 0.044 6.5325 0.3843 6.1875 0.9375 L 5.375 3.09375 L 2.28125 4.0625 L 2.25 4.0625 C 1.4723 4.3771 0.9913 5.0987 1 5.9375 L 1 10.0625 C 0.99 10.9015 1.4721 11.6229 2.25 11.9375 L 2.28125 11.9375 L 2.78125 12.09375 L 0.1875 14.6875 L 0.90625 15.375 L 2.125 14.15625 L 3.84375 12.4375 L 4.5625 11.71875 L 12.59375 3.6875 L 13.1875 3.09375 L 14.625 1.65625 L 15.65625 0.625 L 14.9375 -0.0625 z M 7.71875 1 L 7.8125 1 L 7.90625 1 L 11.15625 1 C 11.58785 1 12.0035 1.30455 12.125 1.71875 C 12.124969 1.71875 12.19458 2.0761908 12.3125 2.5625 L 3.53125 11.34375 L 2.625 11 C 2.2551 10.8503 1.9958 10.4614 2 10.0625 L 2 5.9375 C 2 5.5385 2.2551 5.1496 2.625 5 L 5.5625 3.90625 L 7.03125 1.46875 C 7.17915 1.22385 7.43675 1.0482 7.71875 1 z M 13.5 4.1875 L 12.78125 4.90625 C 12.906831 5.8286647 13 6.8515563 13 8 C 13 11.4624 12.125 14.28125 12.125 14.28125 C 12.0035 14.69545 11.58785 15.0038 11.15625 15 L 7.90625 15 C 7.56015 15.01 7.21505 14.82465 7.03125 14.53125 L 5.5625 12.125 L 4.90625 12.78125 L 5.375 12.90625 L 6.1875 15.0625 C 6.5642 15.6639 7.19915 16.0087 7.90625 16 C 7.91725 15.9998 7.9275 16.0002 7.9375 16 L 10.65625 16 C 11.57015 16.01 12.33675 15.4396 12.59375 14.5625 C 12.59375 14.5625 14 11.6308 14 8 C 14 6.5627445 13.772235 5.2590919 13.5 4.1875 z "
       transform="translate(-3316.4171,2100.7186)"
       id="path3856-4" />
  </g>
</svg>
