<?xml version="1.0" encoding="UTF-8" standalone="no"?>
<!-- Created with Inkscape (http://www.inkscape.org/) -->

<svg
   xmlns:dc="http://purl.org/dc/elements/1.1/"
   xmlns:cc="http://creativecommons.org/ns#"
   xmlns:rdf="http://www.w3.org/1999/02/22-rdf-syntax-ns#"
   xmlns:svg="http://www.w3.org/2000/svg"
   xmlns="http://www.w3.org/2000/svg"
   xmlns:xlink="http://www.w3.org/1999/xlink"
   xmlns:sodipodi="http://sodipodi.sourceforge.net/DTD/sodipodi-0.dtd"
   xmlns:inkscape="http://www.inkscape.org/namespaces/inkscape"
   width="64"
   height="64"
   id="svg13094"
   version="1.1"
   inkscape:version="0.48.3.1 r9886"
   sodipodi:docname="bleachbit.svg">
  <sodipodi:namedview
     id="base"
     pagecolor="#cbcdd6"
     bordercolor="#666666"
     borderopacity="1.0"
     inkscape:pageopacity="1"
     inkscape:pageshadow="2"
     inkscape:zoom="5.6568545"
     inkscape:cx="20.222619"
     inkscape:cy="32.289923"
     inkscape:document-units="px"
     inkscape:current-layer="svg13094"
     showgrid="true"
     inkscape:snap-bbox="true"
     inkscape:bbox-paths="true"
     inkscape:bbox-nodes="true"
     inkscape:snap-bbox-edge-midpoints="true"
     inkscape:snap-bbox-midpoints="true"
     inkscape:object-paths="true"
     inkscape:snap-intersection-paths="true"
     inkscape:object-nodes="true"
     inkscape:snap-smooth-nodes="true"
     inkscape:snap-midpoints="true"
     inkscape:snap-object-midpoints="true"
     inkscape:snap-center="true"
     showguides="true"
     inkscape:guide-bbox="true"
     inkscape:window-width="1920"
     inkscape:window-height="1023"
     inkscape:window-x="-10"
     inkscape:window-y="35"
     inkscape:window-maximized="1"
     inkscape:snap-global="true"
     fit-margin-top="0"
     fit-margin-left="0"
     fit-margin-right="0"
     fit-margin-bottom="0"
     showborder="true"
     inkscape:showpageshadow="false"
     inkscape:snap-page="true">
    <inkscape:grid
       type="xygrid"
       id="grid3075"
       empspacing="5"
       visible="true"
       enabled="true"
       snapvisiblegridlinesonly="true"
       originx="1.6362304e-08px"
       originy="18px" />
  </sodipodi:namedview>
  <defs
     id="defs13096">
    <linearGradient
       inkscape:collect="always"
       id="linearGradient3765">
      <stop
         style="stop-color:#d8dce1;stop-opacity:1"
         offset="0"
         id="stop3767" />
      <stop
         style="stop-color:#9ba6b2;stop-opacity:1"
         offset="1"
         id="stop3769" />
    </linearGradient>
    <linearGradient
       id="linearGradient4059">
      <stop
         id="stop4061"
         offset="0"
         style="stop-color:#626c7c;stop-opacity:1;" />
      <stop
         id="stop4063"
         offset="1"
         style="stop-color:#3a424b;stop-opacity:1;" />
    </linearGradient>
    <radialGradient
       inkscape:collect="always"
       xlink:href="#linearGradient4059"
       id="radialGradient3943"
       cx="28.378605"
       cy="23.333334"
       fx="28.378605"
       fy="23.333334"
       r="32"
       gradientTransform="matrix(0,1.75,-1.640625,0,70.281251,-31.999997)"
       gradientUnits="userSpaceOnUse" />
    <radialGradient
       inkscape:collect="always"
       xlink:href="#linearGradient3765"
       id="radialGradient3771"
       cx="-2.4895771"
       cy="13.086837"
       fx="-2.4895771"
       fy="13.086837"
       r="34.423156"
       gradientTransform="matrix(0,1.8752004,-1.6558621,0,142.9825,20.918456)"
       gradientUnits="userSpaceOnUse" />
    <radialGradient
       inkscape:collect="always"
       xlink:href="#linearGradient3765-1"
       id="radialGradient3771-7"
       cx="-2.4895771"
       cy="13.086837"
       fx="-2.4895771"
       fy="13.086837"
       r="34.423157"
       gradientTransform="matrix(0,1.8752004,-1.6558621,0,52.669997,19.918456)"
       gradientUnits="userSpaceOnUse" />
    <linearGradient
       id="linearGradient3765-1">
      <stop
         style="stop-color:#d8dce1;stop-opacity:1"
         offset="0"
         id="stop3767-3" />
      <stop
         style="stop-color:#9ba6b2;stop-opacity:1"
         offset="1"
         id="stop3769-1" />
    </linearGradient>
    <radialGradient
       inkscape:collect="always"
       xlink:href="#linearGradient3765-1"
       id="radialGradient6178"
       gradientUnits="userSpaceOnUse"
       gradientTransform="matrix(0,1.8752004,-1.6558621,0,54.669997,21.918456)"
       cx="-2.4895771"
       cy="13.086837"
       fx="-2.4895771"
       fy="13.086837"
       r="34.423157" />
    <radialGradient
       inkscape:collect="always"
       xlink:href="#linearGradient3765-1"
       id="radialGradient6182"
       gradientUnits="userSpaceOnUse"
       gradientTransform="matrix(0,1.8752004,-1.6558621,0,53.669997,20.918456)"
       cx="-2.4895771"
       cy="13.086837"
       fx="-2.4895771"
       fy="13.086837"
       r="34.423157" />
    <radialGradient
       inkscape:collect="always"
       xlink:href="#linearGradient3765-1"
       id="radialGradient6189"
       gradientUnits="userSpaceOnUse"
       gradientTransform="matrix(0,1.8752004,-1.6558621,0,53.669997,20.918456)"
       cx="-2.4895771"
       cy="13.086837"
       fx="-2.4895771"
       fy="13.086837"
       r="34.423157" />
    <radialGradient
       inkscape:collect="always"
       xlink:href="#linearGradient3765-1"
       id="radialGradient6193"
       gradientUnits="userSpaceOnUse"
       gradientTransform="matrix(0,1.8752004,-1.6558621,0,53.669997,20.918456)"
       cx="-2.4895771"
       cy="13.086837"
       fx="-2.4895771"
       fy="13.086837"
       r="34.423157" />
  </defs>
  <metadata
     id="metadata13099">
    <rdf:RDF>
      <cc:Work
         rdf:about="">
        <dc:format>image/svg+xml</dc:format>
        <dc:type
           rdf:resource="http://purl.org/dc/dcmitype/StillImage" />
        <dc:title />
      </cc:Work>
    </rdf:RDF>
  </metadata>
  <path
     inkscape:connector-curvature="0"
     style="color:#000000;fill:url(#radialGradient3943);fill-opacity:1;fill-rule:nonzero;stroke:none;stroke-width:2.28571415000000000;marker:none;visibility:visible;display:inline;overflow:visible;enable-background:accumulate"
     d="m 0,4 0,30 0,28 2,2 30,0 30,0 2,-2 L 64,34 64,4 32,4 0,4 z"
     id="path4095" />
  <path
     inkscape:connector-curvature="0"
     style="color:#000000;fill:#838f9b;fill-opacity:1;fill-rule:nonzero;stroke:none;stroke-width:2.28571415000000000;marker:none;visibility:visible;display:inline;overflow:visible;enable-background:accumulate"
     d="M 2,0 0,1 0,4 32,4 64,4 64,1 62,0 32,0 2,0 z"
     id="path4090" />
  <path
     style="font-size:5.62562608999999991px;font-style:normal;font-variant:normal;font-weight:normal;font-stretch:normal;line-height:125%;letter-spacing:0px;word-spacing:0px;fill:#ffffff;fill-opacity:0.52419353;stroke:none;font-family:Monospace;-inkscape-font-specification:Monospace"
     d="m 11.75,7.3125 c -0.851536,4.1e-6 -1.28125,0.685397 -1.28125,2.0625 0,0.670242 0.127661,1.207237 0.34375,1.5625 0.216088,0.353433 0.518141,0.53125 0.9375,0.53125 0.858858,0 1.281247,-0.714812 1.28125,-2.09375 -3e-6,-0.6684067 -0.09458,-1.1778139 -0.3125,-1.53125 C 12.502659,7.4884898 12.17485,7.3125041 11.75,7.3125 z m 20.25,0 c -0.851536,4.1e-6 -1.28125,0.685397 -1.28125,2.0625 0,0.670242 0.09641,1.207237 0.3125,1.5625 0.216087,0.353433 0.54939,0.53125 0.96875,0.53125 0.858858,0 1.281247,-0.714812 1.28125,-2.09375 -3e-6,-0.6684067 -0.09458,-1.1778139 -0.3125,-1.53125 C 32.752659,7.4884898 32.42485,7.3125041 32,7.3125 z m 26.96875,0 c -0.851536,4.1e-6 -1.28125,0.685397 -1.28125,2.0625 0,0.670242 0.127661,1.207237 0.34375,1.5625 0.216087,0.353433 0.51814,0.53125 0.9375,0.53125 0.858857,0 1.312497,-0.714812 1.3125,-2.09375 C 60.281247,8.7065933 60.155417,8.1971861 59.9375,7.84375 59.72141,7.4884898 59.3936,7.3125041 58.96875,7.3125 z M 5,7.375 3.9375,8.21875 4.21875,8.53125 4.625,8.21875 c 0.1501618,-0.1281847 0.2410794,-0.2337524 0.3125,-0.3125 -0.014652,0.4376739 -1.6e-6,0.7765892 0,1 l 0,2.5 0.46875,0 0,-4.03125 z m 13.5,0 -1.0625,0.84375 0.28125,0.3125 0.375,-0.3125 c 0.150162,-0.1281847 0.27233,-0.233752 0.34375,-0.3125 -0.01467,0.4376739 -0.03125,0.7765892 -0.03125,1 l 0,2.5 0.5,0 0,-4.03125 z m 6.75,0 -1.0625,0.84375 0.25,0.3125 0.40625,-0.3125 c 0.150162,-0.1281847 0.27233,-0.233752 0.34375,-0.3125 -0.01467,0.4376739 -0.03125,0.7765892 -0.03125,1 l 0,2.5 0.5,0 0,-4.03125 z m 13.46875,0 -1.03125,0.84375 0.25,0.3125 0.40625,-0.3125 c 0.150162,-0.1281847 0.27233,-0.233752 0.34375,-0.3125 -0.01468,0.4376739 -0.03125,0.7765892 -0.03125,1 l 0,2.5 0.5,0 0,-4.03125 z m 6.75,0 -1.03125,0.84375 0.25,0.3125 0.40625,-0.3125 c 0.150162,-0.1281847 0.27233,-0.233752 0.34375,-0.3125 -0.01468,0.4376739 -0.03125,0.7765892 -0.03125,1 l 0,2.5 0.46875,0 0,-4.03125 z m 6.75,0 -1.0625,0.84375 0.28125,0.3125 0.40625,-0.3125 c 0.150162,-0.1281847 0.27233,-0.233752 0.34375,-0.3125 -0.01467,0.4376739 -0.03125,0.7765892 -0.03125,1 l 0,2.5 0.46875,0 0,-4.03125 z M 11.75,7.75 c 0.269193,3.7e-6 0.467391,0.1167961 0.59375,0.375 0.126355,0.2563792 0.187498,0.6731562 0.1875,1.25 -2e-6,0.5805104 -0.06115,1.023044 -0.1875,1.28125 -0.126359,0.256377 -0.324557,0.375 -0.59375,0.375 -0.265534,0 -0.469226,-0.118623 -0.59375,-0.375 C 11.033558,10.399875 11,9.9573416 11,9.375 11,8.7944937 11.033555,8.3795479 11.15625,8.125 11.280774,7.8686273 11.484466,7.7500037 11.75,7.75 z m 20.25,0 c 0.269193,3.7e-6 0.467391,0.1167961 0.59375,0.375 0.126355,0.2563792 0.187497,0.6731562 0.1875,1.25 -3e-6,0.5805104 -0.06115,1.023044 -0.1875,1.28125 -0.126359,0.256377 -0.324557,0.375 -0.59375,0.375 -0.265534,0 -0.469226,-0.118623 -0.59375,-0.375 -0.122692,-0.256375 -0.187501,-0.6989084 -0.1875,-1.28125 -1e-6,-0.5805063 0.0648,-0.9954521 0.1875,-1.25 C 31.530774,7.8686273 31.734466,7.7500037 32,7.75 z m 26.96875,0 c 0.269193,3.7e-6 0.467391,0.1167961 0.59375,0.375 0.126354,0.2563792 0.187497,0.6731562 0.1875,1.25 -3e-6,0.5805104 -0.06115,1.023044 -0.1875,1.28125 -0.126359,0.256377 -0.324557,0.375 -0.59375,0.375 -0.265534,0 -0.437976,-0.118623 -0.5625,-0.375 -0.122692,-0.256375 -0.187501,-0.6989084 -0.1875,-1.28125 -10e-7,-0.5805063 0.0648,-0.9954521 0.1875,-1.25 0.124524,-0.2563727 0.296966,-0.3749963 0.5625,-0.375 z M 5,14.34375 c -0.8515361,4e-6 -1.2812504,0.685397 -1.28125,2.0625 -4e-7,0.670242 0.127661,1.207236 0.34375,1.5625 C 4.2785876,18.322183 4.5806405,18.5 5,18.5 5.8588577,18.5 6.312497,17.785188 6.3125,16.40625 6.312497,15.737843 6.1866669,15.228436 5.96875,14.875 5.752659,14.51974 5.4248498,14.343754 5,14.34375 z m 13.5,0 c -0.851536,4e-6 -1.28125,0.685397 -1.28125,2.0625 0,0.670242 0.127661,1.207236 0.34375,1.5625 C 17.778588,18.322183 18.080641,18.5 18.5,18.5 c 0.858858,0 1.281247,-0.714812 1.28125,-2.09375 -3e-6,-0.668407 -0.09458,-1.177814 -0.3125,-1.53125 C 19.252659,14.51974 18.92485,14.343754 18.5,14.34375 z m 13.5,0 c -0.851536,4e-6 -1.28125,0.685397 -1.28125,2.0625 0,0.670242 0.09641,1.207236 0.3125,1.5625 C 31.247337,18.322183 31.58064,18.5 32,18.5 c 0.858858,0 1.281247,-0.714812 1.28125,-2.09375 -3e-6,-0.668407 -0.09458,-1.177814 -0.3125,-1.53125 C 32.752659,14.51974 32.42485,14.343754 32,14.34375 z m 20.21875,0 c -0.851536,4e-6 -1.25,0.685397 -1.25,2.0625 0,0.670242 0.09641,1.207236 0.3125,1.5625 0.216088,0.353433 0.518141,0.53125 0.9375,0.53125 0.858858,0 1.312497,-0.714812 1.3125,-2.09375 -3e-6,-0.668407 -0.125833,-1.177814 -0.34375,-1.53125 -0.216091,-0.35526 -0.5439,-0.531246 -0.96875,-0.53125 z m 6.75,0 c -0.851536,4e-6 -1.28125,0.685397 -1.28125,2.0625 0,0.670242 0.127661,1.207236 0.34375,1.5625 0.216087,0.353433 0.51814,0.53125 0.9375,0.53125 0.858857,0 1.312497,-0.714812 1.3125,-2.09375 -3e-6,-0.668407 -0.125833,-1.177814 -0.34375,-1.53125 -0.21609,-0.35526 -0.5439,-0.531246 -0.96875,-0.53125 z M 11.75,14.40625 10.6875,15.25 10.96875,15.5625 11.375,15.25 c 0.150162,-0.128185 0.24108,-0.23375 0.3125,-0.3125 -0.01467,0.437674 -10e-7,0.776589 0,1 l 0,2.5 0.46875,0 0,-4.03125 z m 13.5,0 -1.0625,0.84375 0.25,0.3125 0.40625,-0.3125 c 0.150162,-0.128185 0.27233,-0.23375 0.34375,-0.3125 -0.01467,0.437674 -0.03125,0.776589 -0.03125,1 l 0,2.5 0.5,0 0,-4.03125 z m 13.46875,0 -1.03125,0.84375 0.25,0.3125 0.40625,-0.3125 c 0.150162,-0.128185 0.27233,-0.23375 0.34375,-0.3125 -0.01468,0.437674 -0.03125,0.776589 -0.03125,1 l 0,2.5 0.5,0 0,-4.03125 z m 6.75,0 -1.03125,0.84375 0.25,0.3125 0.40625,-0.3125 c 0.150162,-0.128185 0.27233,-0.23375 0.34375,-0.3125 -0.01468,0.437674 -0.03125,0.776589 -0.03125,1 l 0,2.5 0.46875,0 0,-4.03125 z M 5,14.78125 c 0.269193,3e-6 0.467391,0.116796 0.59375,0.375 0.1263543,0.256379 0.1874975,0.673156 0.1875,1.25 -2.5e-6,0.58051 -0.061146,1.023044 -0.1875,1.28125 C 5.467391,17.943877 5.269193,18.062501 5,18.0625 4.7344661,18.062501 4.5620243,17.943877 4.4375,17.6875 4.3148045,17.431125 4.2499991,16.988591 4.25,16.40625 c -9e-7,-0.580507 0.064805,-0.995452 0.1875,-1.25 C 4.5620243,14.899877 4.7344661,14.781253 5,14.78125 z m 13.5,0 c 0.269193,3e-6 0.467391,0.116796 0.59375,0.375 0.126355,0.256379 0.187498,0.673156 0.1875,1.25 -2e-6,0.58051 -0.06115,1.023044 -0.1875,1.28125 -0.126359,0.256377 -0.324557,0.375001 -0.59375,0.375 -0.265534,1e-6 -0.469226,-0.118623 -0.59375,-0.375 -0.122692,-0.256375 -0.1875,-0.698909 -0.1875,-1.28125 0,-0.580507 0.0648,-0.995452 0.1875,-1.25 0.124524,-0.256373 0.328216,-0.374997 0.59375,-0.375 z m 13.5,0 c 0.269193,3e-6 0.467391,0.116796 0.59375,0.375 0.126355,0.256379 0.187497,0.673156 0.1875,1.25 -3e-6,0.58051 -0.06115,1.023044 -0.1875,1.28125 -0.126359,0.256377 -0.324557,0.375001 -0.59375,0.375 -0.265534,1e-6 -0.469226,-0.118623 -0.59375,-0.375 -0.122692,-0.256375 -0.187501,-0.698909 -0.1875,-1.28125 -1e-6,-0.580507 0.0648,-0.995452 0.1875,-1.25 0.124524,-0.256373 0.328216,-0.374997 0.59375,-0.375 z m 20.21875,0 c 0.269193,3e-6 0.467391,0.116796 0.59375,0.375 0.126355,0.256379 0.218748,0.673156 0.21875,1.25 -2e-6,0.58051 -0.0924,1.023044 -0.21875,1.28125 -0.126359,0.256377 -0.324557,0.375001 -0.59375,0.375 -0.265534,1e-6 -0.437976,-0.118623 -0.5625,-0.375 -0.122692,-0.256375 -0.1875,-0.698909 -0.1875,-1.28125 0,-0.580507 0.0648,-0.995452 0.1875,-1.25 0.124524,-0.256373 0.296966,-0.374997 0.5625,-0.375 z m 6.75,0 c 0.269193,3e-6 0.467391,0.116796 0.59375,0.375 0.126355,0.256379 0.187497,0.673156 0.1875,1.25 -3e-6,0.58051 -0.06115,1.023044 -0.1875,1.28125 -0.126359,0.256377 -0.324557,0.375001 -0.59375,0.375 -0.265534,1e-6 -0.437976,-0.118623 -0.5625,-0.375 -0.122692,-0.256375 -0.187501,-0.698909 -0.1875,-1.28125 -10e-7,-0.580507 0.0648,-0.995452 0.1875,-1.25 0.124524,-0.256373 0.296966,-0.374997 0.5625,-0.375 z M 11.75,21.375 c -0.851536,4e-6 -1.28125,0.685397 -1.28125,2.0625 0,0.670242 0.127661,1.207237 0.34375,1.5625 0.216088,0.353433 0.518141,0.53125 0.9375,0.53125 0.858858,0 1.281247,-0.714812 1.28125,-2.09375 -3e-6,-0.668406 -0.09458,-1.177814 -0.3125,-1.53125 C 12.502659,21.55099 12.17485,21.375004 11.75,21.375 z m 20.25,0 c -0.851536,4e-6 -1.28125,0.685397 -1.28125,2.0625 0,0.670242 0.09641,1.207237 0.3125,1.5625 0.216087,0.353433 0.54939,0.53125 0.96875,0.53125 0.858858,0 1.281247,-0.714812 1.28125,-2.09375 -3e-6,-0.668406 -0.09458,-1.177814 -0.3125,-1.53125 C 32.752659,21.55099 32.42485,21.375004 32,21.375 z m 6.75,0 c -0.851536,4e-6 -1.28125,0.685397 -1.28125,2.0625 0,0.670242 0.09641,1.207237 0.3125,1.5625 0.216088,0.353433 0.549391,0.53125 0.96875,0.53125 0.858858,0 1.281247,-0.714812 1.28125,-2.09375 -3e-6,-0.668406 -0.125833,-1.177814 -0.34375,-1.53125 C 39.471409,21.55099 39.17485,21.375004 38.75,21.375 z m 13.46875,0 c -0.851536,4e-6 -1.25,0.685397 -1.25,2.0625 0,0.670242 0.09641,1.207237 0.3125,1.5625 0.216088,0.353433 0.518141,0.53125 0.9375,0.53125 0.858858,0 1.312497,-0.714812 1.3125,-2.09375 -3e-6,-0.668406 -0.125833,-1.177814 -0.34375,-1.53125 -0.216091,-0.35526 -0.5439,-0.531246 -0.96875,-0.53125 z m 6.75,0 c -0.851536,4e-6 -1.28125,0.685397 -1.28125,2.0625 0,0.670242 0.127661,1.207237 0.34375,1.5625 0.216087,0.353433 0.51814,0.53125 0.9375,0.53125 0.858857,0 1.312497,-0.714812 1.3125,-2.09375 -3e-6,-0.668406 -0.125833,-1.177814 -0.34375,-1.53125 C 59.72141,21.55099 59.3936,21.375004 58.96875,21.375 z M 5,21.4375 3.9375,22.28125 4.21875,22.59375 4.625,22.28125 c 0.1501618,-0.128185 0.241079,-0.23375 0.3125,-0.3125 -0.014655,0.437674 -1.6e-6,0.77659 0,1 l 0,2.5 0.46875,0 0,-4.03125 z m 13.5,0 -1.0625,0.84375 0.28125,0.3125 0.375,-0.3125 c 0.150162,-0.128185 0.27233,-0.23375 0.34375,-0.3125 -0.01467,0.437674 -0.03125,0.77659 -0.03125,1 l 0,2.5 0.5,0 0,-4.03125 z m 6.75,0 -1.0625,0.84375 0.25,0.3125 0.40625,-0.3125 c 0.150162,-0.128185 0.27233,-0.23375 0.34375,-0.3125 -0.01467,0.437674 -0.03125,0.77659 -0.03125,1 l 0,2.5 0.5,0 0,-4.03125 z m 20.21875,0 -1.03125,0.84375 0.25,0.3125 0.40625,-0.3125 c 0.150162,-0.128185 0.27233,-0.23375 0.34375,-0.3125 -0.01468,0.437674 -0.03125,0.77659 -0.03125,1 l 0,2.5 0.46875,0 0,-4.03125 z M 11.75,21.8125 c 0.269193,4e-6 0.467391,0.116796 0.59375,0.375 0.126355,0.256379 0.187498,0.673156 0.1875,1.25 -2e-6,0.580511 -0.06115,1.023043 -0.1875,1.28125 -0.126359,0.256376 -0.324557,0.375 -0.59375,0.375 -0.265534,0 -0.469226,-0.118624 -0.59375,-0.375 C 11.033558,24.462375 11,24.019842 11,23.4375 c 0,-0.580506 0.03355,-0.995452 0.15625,-1.25 0.124524,-0.256372 0.328216,-0.374996 0.59375,-0.375 z m 20.25,0 c 0.269193,4e-6 0.467391,0.116796 0.59375,0.375 0.126355,0.256379 0.187497,0.673156 0.1875,1.25 -3e-6,0.580511 -0.06115,1.023043 -0.1875,1.28125 -0.126359,0.256376 -0.324557,0.375 -0.59375,0.375 -0.265534,0 -0.469226,-0.118624 -0.59375,-0.375 -0.122692,-0.256375 -0.187501,-0.698908 -0.1875,-1.28125 -1e-6,-0.580506 0.0648,-0.995452 0.1875,-1.25 0.124524,-0.256372 0.328216,-0.374996 0.59375,-0.375 z m 6.75,0 c 0.269193,4e-6 0.467391,0.116796 0.59375,0.375 0.126355,0.256379 0.187498,0.673156 0.1875,1.25 -2e-6,0.580511 -0.06115,1.023043 -0.1875,1.28125 -0.126359,0.256376 -0.324557,0.375 -0.59375,0.375 -0.265534,0 -0.469226,-0.118624 -0.59375,-0.375 -0.122692,-0.256375 -0.1875,-0.698908 -0.1875,-1.28125 0,-0.580506 0.0648,-0.995452 0.1875,-1.25 0.124524,-0.256372 0.328216,-0.374996 0.59375,-0.375 z m 13.46875,0 c 0.269193,4e-6 0.467391,0.116796 0.59375,0.375 0.126355,0.256379 0.218748,0.673156 0.21875,1.25 -2e-6,0.580511 -0.0924,1.023043 -0.21875,1.28125 -0.126359,0.256376 -0.324557,0.375 -0.59375,0.375 -0.265534,0 -0.437976,-0.118624 -0.5625,-0.375 -0.122692,-0.256375 -0.1875,-0.698908 -0.1875,-1.28125 0,-0.580506 0.0648,-0.995452 0.1875,-1.25 0.124524,-0.256372 0.296966,-0.374996 0.5625,-0.375 z m 6.75,0 c 0.269193,4e-6 0.467391,0.116796 0.59375,0.375 0.126355,0.256379 0.187497,0.673156 0.1875,1.25 -3e-6,0.580511 -0.06115,1.023043 -0.1875,1.28125 -0.126359,0.256376 -0.324557,0.375 -0.59375,0.375 -0.265534,0 -0.437976,-0.118624 -0.5625,-0.375 -0.122692,-0.256375 -0.187501,-0.698908 -0.1875,-1.28125 -10e-7,-0.580506 0.0648,-0.995452 0.1875,-1.25 0.124524,-0.256372 0.296966,-0.374996 0.5625,-0.375 z M 11.75,28.40625 c -0.851536,4e-6 -1.28125,0.685397 -1.28125,2.0625 0,0.670242 0.127661,1.207237 0.34375,1.5625 0.216088,0.353433 0.518141,0.53125 0.9375,0.53125 0.858858,0 1.281247,-0.714812 1.28125,-2.09375 -3e-6,-0.668407 -0.09458,-1.177813 -0.3125,-1.53125 -0.216091,-0.35526 -0.5439,-0.531246 -0.96875,-0.53125 z m 20.25,0 c -0.851536,4e-6 -1.28125,0.685397 -1.28125,2.0625 0,0.670242 0.09641,1.207237 0.3125,1.5625 0.216087,0.353433 0.54939,0.53125 0.96875,0.53125 0.858858,0 1.281247,-0.714812 1.28125,-2.09375 -3e-6,-0.668407 -0.09458,-1.177813 -0.3125,-1.53125 C 32.752659,28.58224 32.42485,28.406254 32,28.40625 z m 6.75,0 c -0.851536,4e-6 -1.28125,0.685397 -1.28125,2.0625 0,0.670242 0.09641,1.207237 0.3125,1.5625 0.216088,0.353433 0.549391,0.53125 0.96875,0.53125 0.858858,0 1.281247,-0.714812 1.28125,-2.09375 -3e-6,-0.668407 -0.125833,-1.177813 -0.34375,-1.53125 -0.216091,-0.35526 -0.51265,-0.531246 -0.9375,-0.53125 z m 13.46875,0 c -0.851536,4e-6 -1.25,0.685397 -1.25,2.0625 0,0.670242 0.09641,1.207237 0.3125,1.5625 0.216088,0.353433 0.518141,0.53125 0.9375,0.53125 0.858858,0 1.312497,-0.714812 1.3125,-2.09375 -3e-6,-0.668407 -0.125833,-1.177813 -0.34375,-1.53125 -0.216091,-0.35526 -0.5439,-0.531246 -0.96875,-0.53125 z M 5,28.46875 3.9375,29.3125 4.21875,29.625 4.625,29.3125 C 4.7751618,29.184315 4.866079,29.07875 4.9375,29 c -0.014655,0.437673 -1.6e-6,0.776589 0,1 l 0,2.5 0.46875,0 0,-4.03125 z m 13.5,0 -1.0625,0.84375 0.28125,0.3125 0.375,-0.3125 C 18.243912,29.184315 18.36608,29.07875 18.4375,29 c -0.01467,0.437673 -0.03125,0.776589 -0.03125,1 l 0,2.5 0.5,0 0,-4.03125 z m 6.75,0 -1.0625,0.84375 0.25,0.3125 0.40625,-0.3125 C 24.993912,29.184315 25.11608,29.07875 25.1875,29 c -0.01467,0.437673 -0.03125,0.776589 -0.03125,1 l 0,2.5 0.5,0 0,-4.03125 z m 20.21875,0 -1.03125,0.84375 0.25,0.3125 0.40625,-0.3125 C 45.243912,29.184315 45.36608,29.07875 45.4375,29 c -0.01468,0.437673 -0.03125,0.776589 -0.03125,1 l 0,2.5 0.46875,0 0,-4.03125 z m 13.5,0 -1.0625,0.84375 0.28125,0.3125 0.40625,-0.3125 c 0.150162,-0.128185 0.24108,-0.23375 0.3125,-0.3125 -0.01467,0.437673 -10e-7,0.776589 0,1 l 0,2.5 0.46875,0 0,-4.03125 z M 11.75,28.84375 c 0.269193,3e-6 0.467391,0.116796 0.59375,0.375 0.126355,0.256379 0.187498,0.673156 0.1875,1.25 -2e-6,0.58051 -0.06115,1.023044 -0.1875,1.28125 -0.126359,0.256377 -0.324557,0.375 -0.59375,0.375 -0.265534,0 -0.469226,-0.118623 -0.59375,-0.375 C 11.033558,31.493625 11,31.051091 11,30.46875 c 0,-0.580507 0.03355,-0.995452 0.15625,-1.25 0.124524,-0.256373 0.328216,-0.374997 0.59375,-0.375 z m 20.25,0 c 0.269193,3e-6 0.467391,0.116796 0.59375,0.375 0.126355,0.256379 0.187497,0.673156 0.1875,1.25 -3e-6,0.58051 -0.06115,1.023044 -0.1875,1.28125 -0.126359,0.256377 -0.324557,0.375 -0.59375,0.375 -0.265534,0 -0.469226,-0.118623 -0.59375,-0.375 -0.122692,-0.256375 -0.187501,-0.698909 -0.1875,-1.28125 -1e-6,-0.580507 0.0648,-0.995452 0.1875,-1.25 0.124524,-0.256373 0.328216,-0.374997 0.59375,-0.375 z m 6.75,0 c 0.269193,3e-6 0.467391,0.116796 0.59375,0.375 0.126355,0.256379 0.187498,0.673156 0.1875,1.25 -2e-6,0.58051 -0.06115,1.023044 -0.1875,1.28125 -0.126359,0.256377 -0.324557,0.375 -0.59375,0.375 -0.265534,0 -0.469226,-0.118623 -0.59375,-0.375 -0.122692,-0.256375 -0.1875,-0.698909 -0.1875,-1.28125 0,-0.580507 0.0648,-0.995452 0.1875,-1.25 0.124524,-0.256373 0.328216,-0.374997 0.59375,-0.375 z m 13.46875,0 c 0.269193,3e-6 0.467391,0.116796 0.59375,0.375 0.126355,0.256379 0.218748,0.673156 0.21875,1.25 -2e-6,0.58051 -0.0924,1.023044 -0.21875,1.28125 -0.126359,0.256377 -0.324557,0.375 -0.59375,0.375 -0.265534,0 -0.437976,-0.118623 -0.5625,-0.375 -0.122692,-0.256375 -0.1875,-0.698909 -0.1875,-1.28125 0,-0.580507 0.0648,-0.995452 0.1875,-1.25 0.124524,-0.256373 0.296966,-0.374997 0.5625,-0.375 z M 5,35.4375 c -0.8515361,4e-6 -1.2812504,0.685397 -1.28125,2.0625 -4e-7,0.670242 0.127661,1.207236 0.34375,1.5625 0.2160876,0.353433 0.5181405,0.53125 0.9375,0.53125 0.8588577,0 1.312497,-0.714811 1.3125,-2.09375 -3e-6,-0.668406 -0.1258331,-1.177814 -0.34375,-1.53125 C 5.752659,35.61349 5.4248498,35.437504 5,35.4375 z m 6.75,0 c -0.851536,4e-6 -1.28125,0.685397 -1.28125,2.0625 0,0.670242 0.127661,1.207236 0.34375,1.5625 0.216088,0.353433 0.518141,0.53125 0.9375,0.53125 0.858858,0 1.281247,-0.714811 1.28125,-2.09375 -3e-6,-0.668406 -0.09458,-1.177814 -0.3125,-1.53125 C 12.502659,35.61349 12.17485,35.437504 11.75,35.4375 z m 20.25,0 c -0.851536,4e-6 -1.28125,0.685397 -1.28125,2.0625 0,0.670242 0.09641,1.207236 0.3125,1.5625 0.216087,0.353433 0.54939,0.53125 0.96875,0.53125 0.858858,0 1.281247,-0.714811 1.28125,-2.09375 -3e-6,-0.668406 -0.09458,-1.177814 -0.3125,-1.53125 C 32.752659,35.61349 32.42485,35.437504 32,35.4375 z m 6.75,0 c -0.851536,4e-6 -1.28125,0.685397 -1.28125,2.0625 0,0.670242 0.09641,1.207236 0.3125,1.5625 0.216088,0.353433 0.549391,0.53125 0.96875,0.53125 0.858858,0 1.281247,-0.714811 1.28125,-2.09375 -3e-6,-0.668406 -0.125833,-1.177814 -0.34375,-1.53125 C 39.471409,35.61349 39.17485,35.437504 38.75,35.4375 z m 6.75,0 c -0.851536,4e-6 -1.28125,0.685397 -1.28125,2.0625 0,0.670242 0.09641,1.207236 0.3125,1.5625 0.216087,0.353433 0.54939,0.53125 0.96875,0.53125 0.858858,0 1.281247,-0.714811 1.28125,-2.09375 -3e-6,-0.668406 -0.125834,-1.177814 -0.34375,-1.53125 C 46.221409,35.61349 45.92485,35.437504 45.5,35.4375 z m 6.71875,0 c -0.851536,4e-6 -1.25,0.685397 -1.25,2.0625 0,0.670242 0.09641,1.207236 0.3125,1.5625 0.216088,0.353433 0.518141,0.53125 0.9375,0.53125 0.858858,0 1.312497,-0.714811 1.3125,-2.09375 -3e-6,-0.668406 -0.125833,-1.177814 -0.34375,-1.53125 -0.216091,-0.35526 -0.5439,-0.531246 -0.96875,-0.53125 z M 18.5,35.5 l -1.0625,0.84375 0.28125,0.3125 0.375,-0.3125 c 0.150162,-0.128184 0.27233,-0.23375 0.34375,-0.3125 -0.01467,0.437674 -0.03125,0.776589 -0.03125,1 l 0,2.5 0.5,0 0,-4.03125 z m 6.75,0 -1.0625,0.84375 0.25,0.3125 0.40625,-0.3125 c 0.150162,-0.128184 0.27233,-0.23375 0.34375,-0.3125 -0.01467,0.437674 -0.03125,0.776589 -0.03125,1 l 0,2.5 0.5,0 0,-4.03125 z m 33.71875,0 -1.0625,0.84375 0.28125,0.3125 0.40625,-0.3125 c 0.150162,-0.128184 0.24108,-0.23375 0.3125,-0.3125 -0.01467,0.437674 -10e-7,0.776589 0,1 l 0,2.5 0.46875,0 0,-4.03125 z M 5,35.875 c 0.269193,4e-6 0.467391,0.116796 0.59375,0.375 0.1263543,0.256379 0.1874975,0.673157 0.1875,1.25 -2.5e-6,0.580511 -0.061146,1.023044 -0.1875,1.28125 C 5.467391,39.037627 5.269193,39.156251 5,39.15625 4.7344661,39.156251 4.5620243,39.037627 4.4375,38.78125 4.3148045,38.524875 4.2499991,38.082342 4.25,37.5 4.2499991,36.919494 4.314805,36.504548 4.4375,36.25 4.5620243,35.993627 4.7344661,35.875004 5,35.875 z m 6.75,0 c 0.269193,4e-6 0.467391,0.116796 0.59375,0.375 0.126355,0.256379 0.187498,0.673157 0.1875,1.25 -2e-6,0.580511 -0.06115,1.023044 -0.1875,1.28125 -0.126359,0.256377 -0.324557,0.375001 -0.59375,0.375 -0.265534,10e-7 -0.469226,-0.118623 -0.59375,-0.375 C 11.033558,38.524875 11,38.082342 11,37.5 c 0,-0.580506 0.03355,-0.995452 0.15625,-1.25 0.124524,-0.256373 0.328216,-0.374996 0.59375,-0.375 z m 20.25,0 c 0.269193,4e-6 0.467391,0.116796 0.59375,0.375 0.126355,0.256379 0.187497,0.673157 0.1875,1.25 -3e-6,0.580511 -0.06115,1.023044 -0.1875,1.28125 -0.126359,0.256377 -0.324557,0.375001 -0.59375,0.375 -0.265534,10e-7 -0.469226,-0.118623 -0.59375,-0.375 -0.122692,-0.256375 -0.187501,-0.698908 -0.1875,-1.28125 -1e-6,-0.580506 0.0648,-0.995452 0.1875,-1.25 C 31.530774,35.993627 31.734466,35.875004 32,35.875 z m 6.75,0 c 0.269193,4e-6 0.467391,0.116796 0.59375,0.375 0.126355,0.256379 0.187498,0.673157 0.1875,1.25 -2e-6,0.580511 -0.06115,1.023044 -0.1875,1.28125 -0.126359,0.256377 -0.324557,0.375001 -0.59375,0.375 -0.265534,10e-7 -0.469226,-0.118623 -0.59375,-0.375 -0.122692,-0.256375 -0.1875,-0.698908 -0.1875,-1.28125 0,-0.580506 0.0648,-0.995452 0.1875,-1.25 0.124524,-0.256373 0.328216,-0.374996 0.59375,-0.375 z m 6.75,0 c 0.269193,4e-6 0.467391,0.116796 0.59375,0.375 0.126355,0.256379 0.187497,0.673157 0.1875,1.25 -3e-6,0.580511 -0.06115,1.023044 -0.1875,1.28125 -0.126359,0.256377 -0.324557,0.375001 -0.59375,0.375 -0.265534,10e-7 -0.469226,-0.118623 -0.59375,-0.375 -0.122692,-0.256375 -0.187501,-0.698908 -0.1875,-1.28125 -10e-7,-0.580506 0.0648,-0.995452 0.1875,-1.25 0.124524,-0.256373 0.328216,-0.374996 0.59375,-0.375 z m 6.71875,0 c 0.269193,4e-6 0.467391,0.116796 0.59375,0.375 0.126355,0.256379 0.218748,0.673157 0.21875,1.25 -2e-6,0.580511 -0.0924,1.023044 -0.21875,1.28125 -0.126359,0.256377 -0.324557,0.375001 -0.59375,0.375 -0.265534,10e-7 -0.437976,-0.118623 -0.5625,-0.375 -0.122692,-0.256375 -0.1875,-0.698908 -0.1875,-1.28125 0,-0.580506 0.0648,-0.995452 0.1875,-1.25 0.124524,-0.256373 0.296966,-0.374996 0.5625,-0.375 z M 25.25,42.46875 c -0.851536,5e-6 -1.28125,0.685397 -1.28125,2.0625 0,0.670242 0.09641,1.207237 0.3125,1.5625 0.216087,0.353433 0.54939,0.531249 0.96875,0.53125 0.858858,-10e-7 1.281247,-0.714812 1.28125,-2.09375 C 26.531247,43.862843 26.43667,43.353436 26.21875,43 26.002659,42.644739 25.67485,42.468755 25.25,42.46875 z m 6.75,0 c -0.851536,5e-6 -1.28125,0.685397 -1.28125,2.0625 0,0.670242 0.09641,1.207237 0.3125,1.5625 0.216087,0.353433 0.54939,0.531249 0.96875,0.53125 0.858858,-10e-7 1.281247,-0.714812 1.28125,-2.09375 C 33.281247,43.862843 33.18667,43.353436 32.96875,43 32.752659,42.644739 32.42485,42.468755 32,42.46875 z m 13.5,0 c -0.851536,5e-6 -1.28125,0.685397 -1.28125,2.0625 0,0.670242 0.09641,1.207237 0.3125,1.5625 0.216087,0.353433 0.54939,0.531249 0.96875,0.53125 0.858858,-10e-7 1.281247,-0.714812 1.28125,-2.09375 C 46.781247,43.862843 46.655416,43.353436 46.4375,43 46.221409,42.644739 45.92485,42.468755 45.5,42.46875 z m 13.46875,0 c -0.851536,5e-6 -1.28125,0.685397 -1.28125,2.0625 0,0.670242 0.127661,1.207237 0.34375,1.5625 0.216087,0.353433 0.51814,0.531249 0.9375,0.53125 0.858857,-10e-7 1.312497,-0.714812 1.3125,-2.09375 C 60.281247,43.862843 60.155417,43.353436 59.9375,43 59.72141,42.644739 59.3936,42.468755 58.96875,42.46875 z M 5,42.53125 3.9375,43.375 4.21875,43.71875 4.625,43.375 c 0.1501618,-0.128185 0.241079,-0.23375 0.3125,-0.3125 -0.014655,0.437674 -1.6e-6,0.776589 0,1 l 0,2.5 0.46875,0 0,-4.03125 z m 6.75,0 -1.0625,0.84375 0.28125,0.34375 L 11.375,43.375 c 0.150162,-0.128185 0.24108,-0.23375 0.3125,-0.3125 -0.01467,0.437674 -10e-7,0.776589 0,1 l 0,2.5 0.46875,0 0,-4.03125 z m 6.75,0 -1.0625,0.84375 0.28125,0.34375 0.375,-0.34375 c 0.150162,-0.128185 0.27233,-0.23375 0.34375,-0.3125 -0.01467,0.437674 -0.03125,0.776589 -0.03125,1 l 0,2.5 0.5,0 0,-4.03125 z m 20.21875,0 -1.03125,0.84375 0.25,0.34375 0.40625,-0.34375 c 0.150162,-0.128185 0.27233,-0.23375 0.34375,-0.3125 -0.01468,0.437674 -0.03125,0.776589 -0.03125,1 l 0,2.5 0.5,0 0,-4.03125 z m 13.5,0 -1.0625,0.84375 0.28125,0.34375 0.40625,-0.34375 c 0.150162,-0.128185 0.27233,-0.23375 0.34375,-0.3125 -0.01467,0.437674 -0.03125,0.776589 -0.03125,1 l 0,2.5 0.46875,0 0,-4.03125 z M 25.25,42.90625 c 0.269193,4e-6 0.467391,0.116796 0.59375,0.375 0.126355,0.256379 0.187497,0.673156 0.1875,1.25 -3e-6,0.58051 -0.06115,1.023043 -0.1875,1.28125 -0.126359,0.256376 -0.324557,0.375 -0.59375,0.375 -0.265534,0 -0.469226,-0.118624 -0.59375,-0.375 -0.122692,-0.256376 -0.187501,-0.698908 -0.1875,-1.28125 -1e-6,-0.580506 0.0648,-0.995452 0.1875,-1.25 0.124524,-0.256372 0.328216,-0.374996 0.59375,-0.375 z m 6.75,0 c 0.269193,4e-6 0.467391,0.116796 0.59375,0.375 0.126355,0.256379 0.187497,0.673156 0.1875,1.25 -3e-6,0.58051 -0.06115,1.023043 -0.1875,1.28125 -0.126359,0.256376 -0.324557,0.375 -0.59375,0.375 -0.265534,0 -0.469226,-0.118624 -0.59375,-0.375 -0.122692,-0.256376 -0.187501,-0.698908 -0.1875,-1.28125 -1e-6,-0.580506 0.0648,-0.995452 0.1875,-1.25 0.124524,-0.256372 0.328216,-0.374996 0.59375,-0.375 z m 13.5,0 c 0.269193,4e-6 0.467391,0.116796 0.59375,0.375 0.126355,0.256379 0.187497,0.673156 0.1875,1.25 -3e-6,0.58051 -0.06115,1.023043 -0.1875,1.28125 -0.126359,0.256376 -0.324557,0.375 -0.59375,0.375 -0.265534,0 -0.469226,-0.118624 -0.59375,-0.375 -0.122692,-0.256376 -0.187501,-0.698908 -0.1875,-1.28125 -10e-7,-0.580506 0.0648,-0.995452 0.1875,-1.25 0.124524,-0.256372 0.328216,-0.374996 0.59375,-0.375 z m 13.46875,0 c 0.269193,4e-6 0.467391,0.116796 0.59375,0.375 0.126355,0.256379 0.187497,0.673156 0.1875,1.25 -3e-6,0.58051 -0.06115,1.023043 -0.1875,1.28125 -0.126359,0.256376 -0.324557,0.375 -0.59375,0.375 -0.265534,0 -0.437976,-0.118624 -0.5625,-0.375 -0.122692,-0.256376 -0.187501,-0.698908 -0.1875,-1.28125 -10e-7,-0.580506 0.0648,-0.995452 0.1875,-1.25 0.124524,-0.256372 0.296966,-0.374996 0.5625,-0.375 z M 11.75,49.5 c -0.851536,4e-6 -1.28125,0.716647 -1.28125,2.09375 0,0.670242 0.127661,1.175986 0.34375,1.53125 0.216088,0.353433 0.518141,0.53125 0.9375,0.53125 0.858858,0 1.281247,-0.683562 1.28125,-2.0625 -3e-6,-0.668407 -0.09458,-1.209064 -0.3125,-1.5625 C 12.502659,49.67599 12.17485,49.500004 11.75,49.5 z m 20.25,0 c -0.851536,4e-6 -1.28125,0.716647 -1.28125,2.09375 0,0.670242 0.09641,1.175986 0.3125,1.53125 0.216087,0.353433 0.54939,0.53125 0.96875,0.53125 0.858858,0 1.281247,-0.683562 1.28125,-2.0625 -3e-6,-0.668407 -0.09458,-1.209064 -0.3125,-1.5625 C 32.752659,49.67599 32.42485,49.500004 32,49.5 z m 26.96875,0 c -0.851536,4e-6 -1.28125,0.716647 -1.28125,2.09375 0,0.670242 0.127661,1.175986 0.34375,1.53125 0.216087,0.353433 0.51814,0.53125 0.9375,0.53125 0.858857,0 1.312497,-0.683562 1.3125,-2.0625 -3e-6,-0.668407 -0.125833,-1.209064 -0.34375,-1.5625 C 59.72141,49.67599 59.3936,49.500004 58.96875,49.5 z M 5,49.5625 3.9375,50.40625 4.21875,50.75 4.625,50.40625 c 0.1501618,-0.128185 0.241079,-0.23375 0.3125,-0.3125 -0.014655,0.437674 -1.6e-6,0.776589 0,1 l 0,2.5 0.46875,0 0,-4.03125 z m 13.5,0 -1.0625,0.84375 0.28125,0.34375 0.375,-0.34375 c 0.150162,-0.128185 0.27233,-0.23375 0.34375,-0.3125 -0.01467,0.437674 -0.03125,0.776589 -0.03125,1 l 0,2.5 0.5,0 0,-4.03125 z m 6.75,0 -1.0625,0.84375 0.25,0.34375 0.40625,-0.34375 c 0.150162,-0.128185 0.27233,-0.23375 0.34375,-0.3125 -0.01467,0.437674 -0.03125,0.776589 -0.03125,1 l 0,2.5 0.5,0 0,-4.03125 z m 13.46875,0 -1.03125,0.84375 0.25,0.34375 0.40625,-0.34375 c 0.150162,-0.128185 0.27233,-0.23375 0.34375,-0.3125 -0.01468,0.437674 -0.03125,0.776589 -0.03125,1 l 0,2.5 0.5,0 0,-4.03125 z m 6.75,0 -1.03125,0.84375 0.25,0.34375 0.40625,-0.34375 c 0.150162,-0.128185 0.27233,-0.23375 0.34375,-0.3125 -0.01468,0.437674 -0.03125,0.776589 -0.03125,1 l 0,2.5 0.46875,0 0,-4.03125 z m 6.75,0 -1.0625,0.84375 0.28125,0.34375 0.40625,-0.34375 c 0.150162,-0.128185 0.27233,-0.23375 0.34375,-0.3125 -0.01467,0.437674 -0.03125,0.776589 -0.03125,1 l 0,2.5 0.46875,0 0,-4.03125 z M 11.75,49.9375 c 0.269193,3e-6 0.467391,0.148046 0.59375,0.40625 0.126355,0.256379 0.187498,0.673156 0.1875,1.25 -2e-6,0.58051 -0.06115,0.991794 -0.1875,1.25 -0.126359,0.256377 -0.324557,0.375 -0.59375,0.375 -0.265534,0 -0.469226,-0.118623 -0.59375,-0.375 C 11.033558,52.587375 11,52.176091 11,51.59375 c 0,-0.580507 0.03355,-1.026702 0.15625,-1.28125 0.124524,-0.256373 0.328216,-0.374997 0.59375,-0.375 z m 20.25,0 c 0.269193,3e-6 0.467391,0.148046 0.59375,0.40625 0.126355,0.256379 0.187497,0.673156 0.1875,1.25 -3e-6,0.58051 -0.06115,0.991794 -0.1875,1.25 -0.126359,0.256377 -0.324557,0.375 -0.59375,0.375 -0.265534,0 -0.469226,-0.118623 -0.59375,-0.375 -0.122692,-0.256375 -0.187501,-0.667659 -0.1875,-1.25 -1e-6,-0.580507 0.0648,-1.026702 0.1875,-1.28125 0.124524,-0.256373 0.328216,-0.374997 0.59375,-0.375 z m 26.96875,0 c 0.269193,3e-6 0.467391,0.148046 0.59375,0.40625 0.126355,0.256379 0.187497,0.673156 0.1875,1.25 -3e-6,0.58051 -0.06115,0.991794 -0.1875,1.25 -0.126359,0.256377 -0.324557,0.375 -0.59375,0.375 -0.265534,0 -0.437976,-0.118623 -0.5625,-0.375 -0.122692,-0.256375 -0.187501,-0.667659 -0.1875,-1.25 -10e-7,-0.580507 0.0648,-1.026702 0.1875,-1.28125 0.124524,-0.256373 0.296966,-0.374997 0.5625,-0.375 z M 5,56.53125 c -0.8515361,4e-6 -1.2812504,0.716647 -1.28125,2.09375 -4e-7,0.670242 0.127661,1.175987 0.34375,1.53125 0.2160876,0.353433 0.5181405,0.53125 0.9375,0.53125 0.8588577,0 1.312497,-0.683561 1.3125,-2.0625 -3e-6,-0.668406 -0.1258331,-1.209064 -0.34375,-1.5625 C 5.752659,56.70724 5.4248498,56.531254 5,56.53125 z m 13.5,0 c -0.851536,4e-6 -1.28125,0.716647 -1.28125,2.09375 0,0.670242 0.127661,1.175987 0.34375,1.53125 0.216088,0.353433 0.518141,0.53125 0.9375,0.53125 0.858858,0 1.281247,-0.683561 1.28125,-2.0625 -3e-6,-0.668406 -0.09458,-1.209064 -0.3125,-1.5625 C 19.252659,56.70724 18.92485,56.531254 18.5,56.53125 z m 13.5,0 c -0.851536,4e-6 -1.28125,0.716647 -1.28125,2.09375 0,0.670242 0.09641,1.175987 0.3125,1.53125 0.216087,0.353433 0.54939,0.53125 0.96875,0.53125 0.858858,0 1.281247,-0.683561 1.28125,-2.0625 -3e-6,-0.668406 -0.09458,-1.209064 -0.3125,-1.5625 C 32.752659,56.70724 32.42485,56.531254 32,56.53125 z m 20.21875,0 c -0.851536,4e-6 -1.25,0.716647 -1.25,2.09375 0,0.670242 0.09641,1.175987 0.3125,1.53125 0.216088,0.353433 0.518141,0.53125 0.9375,0.53125 0.858858,0 1.312497,-0.683561 1.3125,-2.0625 -3e-6,-0.668406 -0.125833,-1.209064 -0.34375,-1.5625 -0.216091,-0.35526 -0.5439,-0.531246 -0.96875,-0.53125 z m 6.75,0 c -0.851536,4e-6 -1.28125,0.716647 -1.28125,2.09375 0,0.670242 0.127661,1.175987 0.34375,1.53125 0.216087,0.353433 0.51814,0.53125 0.9375,0.53125 0.858857,0 1.312497,-0.683561 1.3125,-2.0625 -3e-6,-0.668406 -0.125833,-1.209064 -0.34375,-1.5625 -0.21609,-0.35526 -0.5439,-0.531246 -0.96875,-0.53125 z M 11.75,56.59375 10.6875,57.4375 10.96875,57.78125 11.375,57.4375 c 0.150162,-0.128184 0.24108,-0.23375 0.3125,-0.3125 -0.01467,0.437674 -10e-7,0.77659 0,1 l 0,2.5 0.46875,0 0,-4.03125 z m 13.5,0 -1.0625,0.84375 0.25,0.34375 0.40625,-0.34375 c 0.150162,-0.128184 0.27233,-0.23375 0.34375,-0.3125 -0.01467,0.437674 -0.03125,0.77659 -0.03125,1 l 0,2.5 0.5,0 0,-4.03125 z m 13.46875,0 -1.03125,0.84375 0.25,0.34375 0.40625,-0.34375 c 0.150162,-0.128184 0.27233,-0.23375 0.34375,-0.3125 -0.01468,0.437674 -0.03125,0.77659 -0.03125,1 l 0,2.5 0.5,0 0,-4.03125 z m 6.75,0 -1.03125,0.84375 0.25,0.34375 0.40625,-0.34375 c 0.150162,-0.128184 0.27233,-0.23375 0.34375,-0.3125 -0.01468,0.437674 -0.03125,0.77659 -0.03125,1 l 0,2.5 0.46875,0 0,-4.03125 z M 5,56.96875 c 0.269193,4e-6 0.467391,0.148046 0.59375,0.40625 0.1263543,0.25638 0.1874975,0.673156 0.1875,1.25 -2.5e-6,0.580511 -0.061146,0.991793 -0.1875,1.25 C 5.467391,60.131377 5.269193,60.25 5,60.25 4.7344661,60.25 4.5620243,60.131377 4.4375,59.875 4.3148045,59.618625 4.2499991,59.207342 4.25,58.625 4.2499991,58.044494 4.314805,57.598298 4.4375,57.34375 4.5620243,57.087378 4.7344661,56.968754 5,56.96875 z m 13.5,0 c 0.269193,4e-6 0.467391,0.148046 0.59375,0.40625 0.126355,0.25638 0.187498,0.673156 0.1875,1.25 -2e-6,0.580511 -0.06115,0.991793 -0.1875,1.25 -0.126359,0.256377 -0.324557,0.375 -0.59375,0.375 -0.265534,0 -0.469226,-0.118623 -0.59375,-0.375 -0.122692,-0.256375 -0.1875,-0.667658 -0.1875,-1.25 0,-0.580506 0.0648,-1.026702 0.1875,-1.28125 0.124524,-0.256372 0.328216,-0.374996 0.59375,-0.375 z m 13.5,0 c 0.269193,4e-6 0.467391,0.148046 0.59375,0.40625 0.126355,0.25638 0.187497,0.673156 0.1875,1.25 -3e-6,0.580511 -0.06115,0.991793 -0.1875,1.25 C 32.467391,60.131377 32.269193,60.25 32,60.25 c -0.265534,0 -0.469226,-0.118623 -0.59375,-0.375 -0.122692,-0.256375 -0.187501,-0.667658 -0.1875,-1.25 -1e-6,-0.580506 0.0648,-1.026702 0.1875,-1.28125 0.124524,-0.256372 0.328216,-0.374996 0.59375,-0.375 z m 20.21875,0 c 0.269193,4e-6 0.467391,0.148046 0.59375,0.40625 0.126355,0.25638 0.218748,0.673156 0.21875,1.25 -2e-6,0.580511 -0.0924,0.991793 -0.21875,1.25 -0.126359,0.256377 -0.324557,0.375 -0.59375,0.375 -0.265534,0 -0.437976,-0.118623 -0.5625,-0.375 -0.122692,-0.256375 -0.1875,-0.667658 -0.1875,-1.25 0,-0.580506 0.0648,-1.026702 0.1875,-1.28125 0.124524,-0.256372 0.296966,-0.374996 0.5625,-0.375 z m 6.75,0 c 0.269193,4e-6 0.467391,0.148046 0.59375,0.40625 0.126355,0.25638 0.187497,0.673156 0.1875,1.25 -3e-6,0.580511 -0.06115,0.991793 -0.1875,1.25 -0.126359,0.256377 -0.324557,0.375 -0.59375,0.375 -0.265534,0 -0.437976,-0.118623 -0.5625,-0.375 -0.122692,-0.256375 -0.187501,-0.667658 -0.1875,-1.25 -10e-7,-0.580506 0.0648,-1.026702 0.1875,-1.28125 0.124524,-0.256372 0.296966,-0.374996 0.5625,-0.375 z"
     id="path3992"
     inkscape:connector-curvature="0"
     sodipodi:nodetypes="cscsscccscsscccscsscccccccscccccccccscccccccccscccccccccscccccccccscccccccccsccccccscscsccccccscsccccccscscccscsscccscsscccscsscccscsscccscsscccccccscccccccccscccccccccscccccccccsccccccscscsccccscscsccccccscsccccscscsccccccscscccscsscccscsscccscsscccscsscccscsscccccccscccccccccscccccccccscccccccccsccccccscscsccccccscsccccscscsccccscscsccccccscscccscsscccscsscccscsscccscsscccccccscccccccccscccccccccscccccccccscccccccccsccccccscscsccccccscsccccscscsccccscscscccscsscccscsscccscsscccscsscccscsscccscsscccccccscccccccccscccccccccsccccccscscsccccscscsccccccscsccccscscsccccccscsccccscscscccscsscccscsscccscsscccscsscccccccscccccccccscccccccccscccccccccscccccccccsccccccccscsccccccscsccccccscsccccccscscccscsscccscsscccscsscccccccscccccccccscccccccccscccccccccscccccccccscccccccccsccccccscscsccccccscsccccccscscccscsscccscsscccscsscccscsscccscsscccccccscccccccccscccccccccscccccccccsccccccscscsccccscscsccccccscsccccscscsccccccscscc" />
  <text
     sodipodi:linespacing="125%"
     id="text5091"
     y="-30.760181"
     x="-169.40381"
     style="font-size:5.62562609px;font-style:normal;font-variant:normal;font-weight:normal;font-stretch:normal;line-height:125%;letter-spacing:0px;word-spacing:0px;fill:#ffffff;fill-opacity:1;stroke:none;font-family:Monospace;-inkscape-font-specification:Monospace"
     xml:space="preserve"><tspan
       id="tspan5093"
       y="-30.760181"
       x="-169.40381"
       sodipodi:role="line">0 1 1 0 0 0 1 0 1 0 1 1 0 0 1 0 1 1 0</tspan><tspan
       id="tspan5095"
       y="-23.728149"
       x="-169.40381"
       sodipodi:role="line">0 1 1 1 0 1 0 1 1 0 0 1 0 0 1 1 0 1 0</tspan><tspan
       id="tspan5097"
       y="-16.696117"
       x="-169.40381"
       sodipodi:role="line">1 1 0 0 0 1 0 1 1 0 0 1 0 1 1 0 1 1 0</tspan><tspan
       id="tspan5099"
       y="-9.6640844"
       x="-169.40381"
       sodipodi:role="line">1 1 0 0 1 0 0 1 1 0 0 0 0 1 0 1 1 0 1</tspan><tspan
       id="tspan5101"
       y="-2.6320515"
       x="-169.40381"
       sodipodi:role="line">0 0 1 0 0 1 1 1 0 0 1 0 1 0 1 0 1 1 0</tspan><tspan
       id="tspan5103"
       y="4.399981"
       x="-169.40381"
       sodipodi:role="line">1 1 1 0 0 1 0 1 1 0 1 1 1 0 0 1 0 1 1</tspan><tspan
       id="tspan5105"
       y="11.432014"
       x="-169.40381"
       sodipodi:role="line">0 1 1 0 0 0 1 0 1 0 1 1 0 0 1 0 1 1 0</tspan><tspan
       id="tspan5107"
       y="18.464046"
       x="-169.40381"
       sodipodi:role="line">0 1 1 1 0 1 0 1 1 0 0 1 0 0 1 1 0 1 0</tspan><tspan
       id="tspan5109"
       y="25.49608"
       x="-169.40381"
       sodipodi:role="line">1 1 0 0 0 1 0 1 1 0 0 1 0 1 1 0 1 1 0</tspan><tspan
       id="tspan5111"
       y="32.528111"
       x="-169.40381"
       sodipodi:role="line">1 1 0 0 1 0 0 1 1 0 0 0 0 1 0 1 1 0 1</tspan><tspan
       id="tspan5113"
       y="39.560143"
       x="-169.40381"
       sodipodi:role="line">0 0 1 0 0 1 1 1 0 0 1 0 1 0 1 0 1 1 0</tspan><tspan
       id="tspan5115"
       y="46.592175"
       x="-169.40381"
       sodipodi:role="line">1 1 1 0 0 1 0 1 1 0 1 1 1 0 0 1 0 1 1</tspan><tspan
       id="tspan5117"
       y="53.624207"
       x="-169.40381"
       sodipodi:role="line">0 1 1 0 0 0 1 0 1 0 1 1 0 0 1 0 1 1 0</tspan><tspan
       id="tspan5119"
       y="60.656242"
       x="-169.40381"
       sodipodi:role="line">0 1 1 1 0 1 0 1 1 0 0 1 0 0 1 1 0 1 0</tspan><tspan
       id="tspan5121"
       y="67.688271"
       x="-169.40381"
       sodipodi:role="line">1 1 0 0 0 1 0 1 1 0 0 1 0 1 1 0 1 1 0</tspan><tspan
       id="tspan5123"
       y="74.720306"
       x="-169.40381"
       sodipodi:role="line">1 1 0 0 1 0 0 1 1 0 0 0 0 1 0 1 1 0 1</tspan><tspan
       id="tspan5125"
       y="81.752335"
       x="-169.40381"
       sodipodi:role="line">0 0 1 0 0 1 1 1 0 0 1 0 1 0 1 0 1 1 0</tspan><tspan
       id="tspan5127"
       y="88.78437"
       x="-169.40381"
       sodipodi:role="line">1 1 1 0 0 1 0 1 1 0 1 1 1 0 0 1 0 1 1</tspan></text>
  <path
     style="font-size:2.67671775999999983px;font-style:normal;font-variant:normal;font-weight:normal;font-stretch:normal;line-height:125%;letter-spacing:0px;word-spacing:0px;fill:#ffffff;fill-opacity:0.62903225;stroke:none;font-family:Monospace;-inkscape-font-specification:Monospace"
     d="M 4.9375 0 L 4.9375 0.28125 L 5.40625 0.28125 L 5.40625 0 L 4.9375 0 z M 11.6875 0 L 11.6875 0.28125 L 12.15625 0.28125 L 12.15625 0 L 11.6875 0 z M 18.40625 0 L 18.40625 0.28125 L 18.90625 0.28125 L 18.90625 0 L 18.40625 0 z M 24.03125 0 C 24.080787 0.068558375 24.156998 0.14125321 24.28125 0.1875 C 24.497337 0.26751482 24.83064 0.31249998 25.25 0.3125 C 25.957076 0.31249998 26.345477 0.21170606 26.46875 0 L 26 0 C 25.968919 0.046577525 25.906926 0.09577191 25.84375 0.125 C 25.71739 0.183042 25.519193 0.21875008 25.25 0.21875 C 24.984466 0.21875 24.780775 0.183042 24.65625 0.125 C 24.594902 0.0959792 24.562788 0.046577524 24.53125 0 L 24.03125 0 z M 30.78125 0 C 30.830787 0.068558375 30.906999 0.14125321 31.03125 0.1875 C 31.247339 0.26751482 31.580642 0.31249998 32 0.3125 C 32.707078 0.31249998 33.095478 0.21170606 33.21875 0 L 32.75 0 C 32.718919 0.046577525 32.656927 0.09577191 32.59375 0.125 C 32.467392 0.183042 32.269193 0.21875008 32 0.21875 C 31.734466 0.21875 31.530775 0.183042 31.40625 0.125 C 31.344902 0.0959792 31.312788 0.046577524 31.28125 0 L 30.78125 0 z M 38.65625 0 L 38.65625 0.28125 L 39.15625 0.28125 L 39.15625 0 L 38.65625 0 z M 44.28125 0 C 44.330787 0.068558375 44.406999 0.14125321 44.53125 0.1875 C 44.747337 0.26751482 45.080642 0.31249998 45.5 0.3125 C 46.207078 0.31249998 46.595478 0.21170606 46.71875 0 L 46.25 0 C 46.218919 0.046577525 46.156927 0.09577191 46.09375 0.125 C 45.967392 0.183042 45.769193 0.21875008 45.5 0.21875 C 45.234467 0.21875 45.030775 0.183042 44.90625 0.125 C 44.844903 0.0959792 44.812789 0.046577524 44.78125 0 L 44.28125 0 z M 52.15625 0 L 52.15625 0.28125 L 52.625 0.28125 L 52.625 0 L 52.15625 0 z M 57.75 0 C 57.807511 0.07263244 57.901597 0.13924248 58.03125 0.1875 C 58.247337 0.26751482 58.549391 0.31249998 58.96875 0.3125 C 59.675826 0.31249998 60.087991 0.21170606 60.21875 0 L 59.71875 0 C 59.687669 0.046577525 59.625677 0.09577191 59.5625 0.125 C 59.436142 0.183042 59.237942 0.21875008 58.96875 0.21875 C 58.703216 0.21875 58.530775 0.183042 58.40625 0.125 C 58.344903 0.0959792 58.312788 0.046577524 58.28125 0 L 57.75 0 z M 5 0.96875 L 3.9375 1.15625 L 4.21875 1.25 L 4.625 1.15625 C 4.7751612 1.12723 4.866078 1.111578 4.9375 1.09375 C 4.922835 1.1928364 4.9374983 1.261921 4.9375 1.3125 L 4.9375 1.875 L 5.40625 1.875 L 5.40625 0.96875 L 5 0.96875 z M 11.75 0.96875 C 10.898464 0.96875096 10.468749 1.1257332 10.46875 1.4375 C 10.468749 1.5892382 10.596411 1.700821 10.8125 1.78125 C 11.028588 1.8612652 11.330641 1.90625 11.75 1.90625 C 12.608858 1.90625 13.031247 1.7496823 13.03125 1.4375 C 13.031247 1.2861772 12.936667 1.173766 12.71875 1.09375 C 12.502659 1.0133217 12.17485 0.96875096 11.75 0.96875 z M 18.5 0.96875 L 17.4375 1.15625 L 17.71875 1.25 L 18.09375 1.15625 C 18.243911 1.12723 18.36608 1.111578 18.4375 1.09375 C 18.42283 1.1928364 18.406248 1.261921 18.40625 1.3125 L 18.40625 1.875 L 18.90625 1.875 L 18.90625 0.96875 L 18.5 0.96875 z M 25.25 0.96875 L 24.1875 1.15625 L 24.4375 1.25 L 24.84375 1.15625 C 24.993907 1.12723 25.11609 1.111578 25.1875 1.09375 C 25.17292 1.1928364 25.156248 1.261921 25.15625 1.3125 L 25.15625 1.875 L 25.65625 1.875 L 25.65625 0.96875 L 25.25 0.96875 z M 32 0.96875 C 31.148465 0.96875096 30.71875 1.1257332 30.71875 1.4375 C 30.71875 1.5892382 30.815161 1.700821 31.03125 1.78125 C 31.247339 1.8612652 31.580642 1.90625 32 1.90625 C 32.858859 1.90625 33.281248 1.7496823 33.28125 1.4375 C 33.281248 1.2861772 33.186668 1.173766 32.96875 1.09375 C 32.752659 1.0133217 32.42485 0.96875096 32 0.96875 z M 38.71875 0.96875 L 37.6875 1.15625 L 37.9375 1.25 L 38.34375 1.15625 C 38.493907 1.12723 38.61608 1.111578 38.6875 1.09375 C 38.67292 1.1928364 38.656248 1.261921 38.65625 1.3125 L 38.65625 1.875 L 39.15625 1.875 L 39.15625 0.96875 L 38.71875 0.96875 z M 45.46875 0.96875 L 44.4375 1.15625 L 44.6875 1.25 L 45.09375 1.15625 C 45.243907 1.12723 45.36608 1.111578 45.4375 1.09375 C 45.42292 1.1928364 45.40625 1.261921 45.40625 1.3125 L 45.40625 1.875 L 45.875 1.875 L 45.875 0.96875 L 45.46875 0.96875 z M 52.21875 0.96875 L 51.15625 1.15625 L 51.4375 1.25 L 51.84375 1.15625 C 51.993907 1.12723 52.11608 1.111578 52.1875 1.09375 C 52.17292 1.1928364 52.156248 1.261921 52.15625 1.3125 L 52.15625 1.875 L 52.625 1.875 L 52.625 0.96875 L 52.21875 0.96875 z M 58.96875 0.96875 C 58.117213 0.96875096 57.6875 1.1257332 57.6875 1.4375 C 57.6875 1.5892382 57.815161 1.700821 58.03125 1.78125 C 58.247337 1.8612652 58.549391 1.90625 58.96875 1.90625 C 59.827607 1.90625 60.281248 1.7496823 60.28125 1.4375 C 60.281248 1.2861772 60.155417 1.173766 59.9375 1.09375 C 59.721408 1.0133217 59.3936 0.96875096 58.96875 0.96875 z M 11.75 1.0625 C 12.019193 1.062501 12.217391 1.097794 12.34375 1.15625 C 12.470105 1.2142925 12.531248 1.3069065 12.53125 1.4375 C 12.531248 1.5689236 12.470104 1.660294 12.34375 1.71875 C 12.217391 1.776792 12.019193 1.8125001 11.75 1.8125 C 11.484467 1.8125 11.280775 1.776792 11.15625 1.71875 C 11.03356 1.6607083 10.999999 1.5693382 11 1.4375 C 10.999998 1.3060773 11.033556 1.213878 11.15625 1.15625 C 11.280775 1.098209 11.484467 1.0625008 11.75 1.0625 z M 32 1.0625 C 32.269193 1.062501 32.467396 1.097794 32.59375 1.15625 C 32.7201 1.2142925 32.781248 1.3069065 32.78125 1.4375 C 32.78125 1.5689236 32.720103 1.660294 32.59375 1.71875 C 32.467392 1.776792 32.269193 1.8125001 32 1.8125 C 31.734466 1.8125 31.530775 1.776792 31.40625 1.71875 C 31.283555 1.6607083 31.218748 1.5693382 31.21875 1.4375 C 31.21875 1.3060773 31.283554 1.213878 31.40625 1.15625 C 31.530775 1.098209 31.734466 1.0625008 32 1.0625 z M 58.96875 1.0625 C 59.237942 1.062501 59.436147 1.097794 59.5625 1.15625 C 59.68885 1.2142925 59.749996 1.3069065 59.75 1.4375 C 59.75 1.5689236 59.688854 1.660294 59.5625 1.71875 C 59.436142 1.776792 59.237942 1.8125001 58.96875 1.8125 C 58.703216 1.8125 58.530775 1.776792 58.40625 1.71875 C 58.283555 1.6607083 58.218748 1.5693382 58.21875 1.4375 C 58.21875 1.3060773 58.283553 1.213878 58.40625 1.15625 C 58.530775 1.098209 58.703216 1.0625008 58.96875 1.0625 z M 5 2.5625 C 4.1484641 2.5625009 3.7187496 2.7194833 3.71875 3.03125 C 3.7187496 3.1829883 3.8464111 3.2945707 4.0625 3.375 C 4.2785876 3.4550151 4.5806407 3.5 5 3.5 C 5.8588578 3.5 6.3124969 3.3434323 6.3125 3.03125 C 6.3124969 2.8799273 6.1866669 2.767516 5.96875 2.6875 C 5.752659 2.6070719 5.42485 2.5625009 5 2.5625 z M 11.75 2.5625 L 10.6875 2.75 L 10.96875 2.84375 L 11.375 2.75 C 11.525161 2.72098 11.61608 2.705328 11.6875 2.6875 C 11.67283 2.7865864 11.687498 2.855671 11.6875 2.90625 L 11.6875 3.46875 L 12.15625 3.46875 L 12.15625 2.5625 L 11.75 2.5625 z M 18.5 2.5625 C 17.648464 2.5625009 17.218749 2.7194833 17.21875 3.03125 C 17.218749 3.1829883 17.346411 3.294571 17.5625 3.375 C 17.778588 3.4550151 18.080641 3.5 18.5 3.5 C 19.358858 3.5 19.781247 3.3434323 19.78125 3.03125 C 19.781247 2.8799273 19.686667 2.767516 19.46875 2.6875 C 19.252659 2.6070719 18.92485 2.5625009 18.5 2.5625 z M 25.25 2.5625 L 24.1875 2.75 L 24.4375 2.84375 L 24.84375 2.75 C 24.993907 2.72098 25.11609 2.705328 25.1875 2.6875 C 25.17292 2.7865864 25.156248 2.855671 25.15625 2.90625 L 25.15625 3.46875 L 25.65625 3.46875 L 25.65625 2.5625 L 25.25 2.5625 z M 32 2.5625 C 31.148465 2.5625009 30.71875 2.7194833 30.71875 3.03125 C 30.71875 3.1829883 30.815161 3.294571 31.03125 3.375 C 31.247339 3.4550151 31.580642 3.5 32 3.5 C 32.858859 3.5 33.281248 3.3434323 33.28125 3.03125 C 33.281248 2.8799273 33.186668 2.767516 32.96875 2.6875 C 32.752659 2.6070719 32.42485 2.5625009 32 2.5625 z M 38.71875 2.5625 L 37.6875 2.75 L 37.9375 2.84375 L 38.34375 2.75 C 38.493907 2.72098 38.61608 2.705328 38.6875 2.6875 C 38.67292 2.7865864 38.656248 2.855671 38.65625 2.90625 L 38.65625 3.46875 L 39.15625 3.46875 L 39.15625 2.5625 L 38.71875 2.5625 z M 45.46875 2.5625 L 44.4375 2.75 L 44.6875 2.84375 L 45.09375 2.75 C 45.243907 2.72098 45.36608 2.705328 45.4375 2.6875 C 45.42292 2.7865864 45.40625 2.855671 45.40625 2.90625 L 45.40625 3.46875 L 45.875 3.46875 L 45.875 2.5625 L 45.46875 2.5625 z M 52.21875 2.5625 C 51.367213 2.5625009 50.96875 2.7194833 50.96875 3.03125 C 50.96875 3.1829883 51.065161 3.294571 51.28125 3.375 C 51.497337 3.4550151 51.79939 3.5 52.21875 3.5 C 53.077607 3.5 53.531246 3.3434323 53.53125 3.03125 C 53.531246 2.8799273 53.405416 2.767516 53.1875 2.6875 C 52.971409 2.6070719 52.6436 2.5625009 52.21875 2.5625 z M 58.96875 2.5625 C 58.117213 2.5625009 57.6875 2.7194833 57.6875 3.03125 C 57.6875 3.1829883 57.815161 3.294571 58.03125 3.375 C 58.247337 3.4550151 58.549391 3.5 58.96875 3.5 C 59.827607 3.5 60.281248 3.3434323 60.28125 3.03125 C 60.281248 2.8799273 60.155417 2.767516 59.9375 2.6875 C 59.721408 2.6070719 59.3936 2.5625009 58.96875 2.5625 z M 4.65625 2.65625 C 4.7537645 2.6417395 4.8672331 2.6562504 5 2.65625 C 5.2691931 2.6562508 5.4673902 2.6915444 5.59375 2.75 C 5.7201035 2.8080425 5.7812483 2.9006565 5.78125 3.03125 C 5.7812479 3.1626737 5.7201035 3.2540442 5.59375 3.3125 C 5.4673911 3.370542 5.2691931 3.40625 5 3.40625 C 4.7344662 3.40625 4.5620251 3.370542 4.4375 3.3125 C 4.3148054 3.2544584 4.2499992 3.1630882 4.25 3.03125 C 4.2499979 2.8998273 4.3148056 2.807628 4.4375 2.75 C 4.4997622 2.7209795 4.5587355 2.6707605 4.65625 2.65625 z M 18.15625 2.65625 C 18.253764 2.6417395 18.367233 2.6562504 18.5 2.65625 C 18.769194 2.656251 18.96739 2.691544 19.09375 2.75 C 19.220105 2.8080425 19.281248 2.9006565 19.28125 3.03125 C 19.281248 3.1626737 19.220104 3.254044 19.09375 3.3125 C 18.967391 3.370542 18.769194 3.40625 18.5 3.40625 C 18.234466 3.40625 18.030775 3.370542 17.90625 3.3125 C 17.78356 3.2544584 17.718749 3.1630882 17.71875 3.03125 C 17.718748 2.8998273 17.783556 2.807628 17.90625 2.75 C 17.968513 2.7209795 18.058736 2.6707605 18.15625 2.65625 z M 31.65625 2.65625 C 31.753764 2.6417395 31.867233 2.6562504 32 2.65625 C 32.269193 2.656251 32.467396 2.691544 32.59375 2.75 C 32.7201 2.8080425 32.781248 2.9006565 32.78125 3.03125 C 32.78125 3.1626737 32.720103 3.254044 32.59375 3.3125 C 32.467392 3.370542 32.269193 3.40625 32 3.40625 C 31.734466 3.40625 31.530775 3.370542 31.40625 3.3125 C 31.283555 3.2544584 31.218748 3.1630882 31.21875 3.03125 C 31.21875 2.8998273 31.283554 2.807628 31.40625 2.75 C 31.468513 2.7209795 31.558736 2.6707605 31.65625 2.65625 z M 51.875 2.65625 C 51.972515 2.6417395 52.085983 2.6562504 52.21875 2.65625 C 52.487943 2.656251 52.686146 2.691544 52.8125 2.75 C 52.93885 2.8080425 53.031248 2.9006565 53.03125 3.03125 C 53.03125 3.1626737 52.938853 3.254044 52.8125 3.3125 C 52.68614 3.370542 52.487943 3.40625 52.21875 3.40625 C 51.953217 3.40625 51.780775 3.370542 51.65625 3.3125 C 51.533556 3.2544584 51.46875 3.1630882 51.46875 3.03125 C 51.46875 2.8998273 51.533554 2.807628 51.65625 2.75 C 51.718511 2.7209795 51.777485 2.6707605 51.875 2.65625 z M 58.625 2.65625 C 58.722514 2.6417395 58.835983 2.6562504 58.96875 2.65625 C 59.237942 2.656251 59.436147 2.691544 59.5625 2.75 C 59.68885 2.8080425 59.749996 2.9006565 59.75 3.03125 C 59.75 3.1626737 59.688854 3.254044 59.5625 3.3125 C 59.436142 3.370542 59.237942 3.40625 58.96875 3.40625 C 58.703216 3.40625 58.530775 3.370542 58.40625 3.3125 C 58.283555 3.2544584 58.218748 3.1630882 58.21875 3.03125 C 58.21875 2.8998273 58.283553 2.807628 58.40625 2.75 C 58.468512 2.7209795 58.527486 2.6707605 58.625 2.65625 z "
     id="path5130" />
  <path
     style="fill:#1f0700;fill-opacity:0.06978802;fill-rule:nonzero"
     d="M 2 0 L 0 1 L 32 1 L 64 1 L 62 0 L 32 0 L 2 0 z "
     id="path4444" />
  <path
     d="M 64,6 62,4 64,3 z"
     id="path3028"
     style="fill:#1f0700;fill-opacity:0.13759861"
     inkscape:connector-curvature="0" />
  <path
     style="fill:#000000;fill-opacity:0.11130587;fill-rule:nonzero"
     d="M 63 0.5 L 63 34 L 63 63 L 64 62 L 64 34 L 64 1 L 63 0.5 z M 63 63 L 32 63 L 1 63 L 2 64 L 32 64 L 62 64 L 63 63 z "
     id="path4366" />
  <g
     id="g3043"
     inkscape:export-filename="folder.png"
     inkscape:export-xdpi="90"
     inkscape:export-ydpi="90"
     transform="translate(-0.62500009,0.082283)" />
  <path
     style="fill:#ffffff;fill-opacity:0.35070675;fill-rule:nonzero"
     d="M 0 1 L 0 34 L 0 62 L 1 63 L 1 34 L 1 5 L 2 4 L 1 3.46875 L 1 1 L 0 1 z "
     id="path3864" />
  <g
     id="scalable"
     transform="matrix(1.0385892,0,0,1.0385892,1214.7222,1878.8121)"
     inkscape:label="#g3701"
     style="fill:#ffffff" />
  <path
     style="color:#000000;fill:url(#radialGradient6189);fill-opacity:1;fill-rule:nonzero;stroke:none;marker:none;visibility:visible;display:inline;overflow:visible;enable-background:accumulate"
     d="m 38.640488,15.609579 -10.926647,0.02249 c 1.189509,0.710874 2.761075,2.301946 4.060612,4.125622 1.45153,2.036975 2.611768,4.380358 3.480526,6.428469 l -3.085465,1.685253 9.853983,-0.02249 4.570689,-8.141228 -2.427865,1.550234 -1.570238,-2.762916 c -1.040505,-1.564788 -1.993628,-2.709298 -3.955595,-2.885434 z m -13.424523,0.217532 c -0.620318,0.0083 -1.28775,0.131881 -2.007803,0.40006 l -4.318148,6.473476 8.396263,5.270794 4.070613,-7.813676 c -1.268365,-1.758369 -3.152125,-4.370756 -6.140925,-4.330654 z m 22.690919,12.086823 -8.453774,5.11827 4.18563,7.711164 3.350507,0.03751 C 48.955115,40.802118 52.123885,38.071885 52,36.110174 L 47.906884,27.91394 z m -35.830398,0.170025 3.160476,1.735261 -3.240489,6.608494 c 0.809023,2.076515 2.36399,3.834761 4.598194,4.35566 l 3.435517,0.06 2.98795,-6.305951 3.102967,1.85778 -4.575689,-8.311252 -9.468926,0 z m 25.398826,10.254044 -4.505678,8.083719 4.505678,7.9687 0.02249,-3.285494 2.190331,0 c 7.1237,-0.003 8.113323,-4.973462 11.54674,-11.996808 -1.075785,1.295209 -2.561265,1.985729 -4.255642,2.165325 l -9.481429,0.02 -0.02249,-2.955446 z m -25.113783,0.650098 c 2.318751,4.401203 4.684277,10.647633 9.753969,12.189337 l 7.768671,0 0.02249,-0.03001 0.02249,-9.796476 -6.713512,0 c -2.215536,-0.0047 -4.430469,-0.0073 -6.646002,-0.0125 -1.155166,-1.17e-4 -3.145359,-1.38409 -4.208133,-2.350355 z"
     id="path6187"
     inkscape:connector-curvature="0" />
  <path
     style="color:#000000;fill:#000000;fill-opacity:0.16218638;fill-rule:nonzero;stroke:none;marker:none;visibility:visible;display:inline;overflow:visible;enable-background:accumulate"
     d="M 28.71875 16.625 C 29.141606 16.877707 29.603716 17.272671 30.09375 17.71875 C 29.722271 17.316634 29.360573 16.946894 29 16.625 L 28.71875 16.625 z M 41.84375 17.4375 C 42.100729 17.75907 42.34206 18.12149 42.59375 18.5 L 44.15625 21.25 L 44.46875 21.0625 L 43.59375 19.5 C 43.040033 18.66728 42.513183 17.949577 41.84375 17.4375 z M 29.9375 18.3125 C 30.485086 18.934884 30.938085 19.593865 31.34375 20.15625 L 27.28125 27.96875 L 20.0625 23.4375 L 19.875 23.6875 L 28.28125 28.96875 L 32.34375 21.15625 C 31.709567 20.277065 30.940586 19.18038 29.9375 18.3125 z M 47.59375 20.71875 L 45.1875 22.21875 L 45.15625 22.25 L 42.03125 27.84375 L 35 27.875 L 33.15625 28.875 L 43.03125 28.84375 L 47.59375 20.71875 z M 48.90625 28.90625 L 48.53125 29.125 L 52 36.125 C 52.123885 38.086711 48.965868 40.80249 47 40.78125 L 44.09375 40.75 L 44.375 41.28125 L 46.96875 41.28125 C 48.663127 41.101654 50.174215 40.388959 51.25 39.09375 C 50.942535 39.722697 50.64943 40.312322 50.375 40.90625 C 51.812737 39.943668 53.079205 38.379201 53 37.125 L 48.90625 28.90625 z M 13.0625 29.09375 L 15.0625 30.1875 L 15.25 29.8125 L 13.90625 29.09375 L 13.0625 29.09375 z M 22.09375 29.09375 L 26.125 36.40625 L 23.03125 34.53125 L 20.03125 40.84375 L 16.59375 40.78125 C 15.687827 40.570036 14.896875 40.150565 14.21875 39.59375 C 14.788004 40.309377 15.495199 40.897002 16.3125 41.3125 C 16.396313 41.32425 16.485573 41.343742 16.5625 41.34375 C 18.133136 41.347436 19.710788 41.341002 21.28125 41.34375 L 24.03125 35.53125 L 27.125 37.40625 L 22.53125 29.09375 L 22.09375 29.09375 z M 38.46875 39.34375 L 37.5 41.09375 L 37.5 41.28125 L 38.5 41.28125 L 38.46875 39.34375 z M 52.25 40.09375 C 51.623383 40.848176 50.833685 41.387358 49.96875 41.75 C 47.418086 47.333247 45.871864 51.091146 39.6875 51.09375 L 37.5 51.09375 L 37.46875 53.625 L 38.46875 55.375 L 38.5 52.09375 L 40.6875 52.09375 C 47.8112 52.09075 48.816583 47.117096 52.25 40.09375 z M 29.9375 42.34375 L 29.90625 51.15625 L 29.875 51.1875 L 22.125 51.1875 C 20.872118 50.806496 19.775182 50.138067 18.8125 49.28125 C 20.006371 50.61365 21.421083 51.669335 23.125 52.1875 L 30.875 52.1875 L 30.90625 52.15625 L 30.9375 42.34375 L 29.9375 42.34375 z "
     id="path6176" />
  <path
     style="color:#000000;fill:#ffffff;fill-opacity:0.37007168;fill-rule:nonzero;stroke:none;marker:none;visibility:visible;display:inline;overflow:visible;enable-background:accumulate"
     d="m 27.71875,15.625 c 0.395004,0.236062 0.825937,0.593528 1.28125,1 l 10.625,0 c 0.900319,0.08083 1.606129,0.345553 2.1875,0.78125 C 41.013504,16.415955 40.096475,15.757102 38.625,15.625 l -10.90625,0 z m -2.5,0.1875 c -0.620318,0.0083 -1.279947,0.138071 -2,0.40625 l -4.34375,6.46875 1.1875,0.75 4.15625,-6.21875 c 0.720053,-0.268179 1.379682,-0.39795 2,-0.40625 1.478188,-0.01983 2.690674,0.615161 3.6875,1.46875 -1.160643,-1.310154 -2.67191,-2.495794 -4.6875,-2.46875 z m 4.875,1.90625 c 0.57203,0.619207 1.161252,1.292752 1.6875,2.03125 1.45153,2.036975 2.599992,4.389389 3.46875,6.4375 l -3.09375,1.6875 2.84375,0 1.25,-0.6875 C 35.381242,25.139389 34.23278,22.786975 32.78125,20.75 31.943683,19.574619 30.9822,18.527507 30.09375,17.71875 z m 16.5,2 -2.125,1.34375 0.6875,1.1875 0.03125,-0.03125 1.40625,-2.5 z m 1.3125,8.1875 -8.46875,5.125 4.1875,7.71875 0.46875,0 -3.65625,-6.71875 8.09375,-4.90625 -0.625,-1.21875 z m -35.84375,0.1875 1.84375,1 8.1875,0 -0.5625,-1 -9.46875,0 z m 3,2.09375 -3.0625,6.25 c 0.478486,1.228128 1.232206,2.309674 2.21875,3.125 C 13.716435,38.926511 13.300246,38.208139 13,37.4375 l 3.25,-6.625 -1.1875,-0.625 z m 22.40625,8.15625 -4.5,8.0625 4.5,7.96875 0,-0.75 -3.5,-6.21875 3.53125,-6.3125 -0.03125,-2.75 z M 12.375,39 c 1.739063,3.300902 3.493478,7.636479 6.40625,10.25 C 16.43941,46.619932 14.908009,42.909792 13.375,40 c 1.062774,0.966265 3.032334,2.343633 4.1875,2.34375 2.215533,0.0052 4.440714,-0.0047 6.65625,0 l 5.71875,0 0,-1 -6.71875,0 c -0.644898,-0.0014 -1.292675,0.0011 -1.9375,0 l -0.25,0.5 -3.4375,-0.0625 C 17.13316,41.673865 16.714771,41.517006 16.3125,41.3125 15.137747,41.14781 13.367,39.901918 12.375,39 z m 38,1.90625 c -0.811046,0.543005 -1.66599,0.88266 -2.375,0.875 L 44.625,41.75 l -0.25,-0.46875 -5.875,0 0,1 9.46875,0 c 0.707446,-0.07499 1.380002,-0.271303 2,-0.53125 0.12431,-0.272106 0.276591,-0.563139 0.40625,-0.84375 z"
     id="path4697"
     inkscape:connector-curvature="0" />
  <path
     style="fill:#ffffff;fill-opacity:0.14487633;fill-rule:nonzero"
     d="M 0 3 L 0 6 L 2 4 L 32 4 L 62 4 L 64 3 L 32 3 L 0 3 z "
     id="path4298" />
</svg>
