<?xml version="1.0" encoding="UTF-8" standalone="no"?>
<!-- Created with Inkscape (http://www.inkscape.org/) -->

<svg
   xmlns:dc="http://purl.org/dc/elements/1.1/"
   xmlns:cc="http://creativecommons.org/ns#"
   xmlns:rdf="http://www.w3.org/1999/02/22-rdf-syntax-ns#"
   xmlns:svg="http://www.w3.org/2000/svg"
   xmlns="http://www.w3.org/2000/svg"
   xmlns:xlink="http://www.w3.org/1999/xlink"
   xmlns:sodipodi="http://sodipodi.sourceforge.net/DTD/sodipodi-0.dtd"
   xmlns:inkscape="http://www.inkscape.org/namespaces/inkscape"
   width="64"
   height="64"
   id="svg13094"
   version="1.1"
   inkscape:version="0.48.3.1 r9886"
   sodipodi:docname="calligrastage.svg">
  <sodipodi:namedview
     id="base"
     pagecolor="#cbcdd6"
     bordercolor="#666666"
     borderopacity="1.0"
     inkscape:pageopacity="1"
     inkscape:pageshadow="2"
     inkscape:zoom="11.313709"
     inkscape:cx="14.658422"
     inkscape:cy="31.053593"
     inkscape:document-units="px"
     inkscape:current-layer="g4027"
     showgrid="true"
     inkscape:snap-bbox="true"
     inkscape:bbox-paths="true"
     inkscape:bbox-nodes="true"
     inkscape:snap-bbox-edge-midpoints="true"
     inkscape:snap-bbox-midpoints="true"
     inkscape:object-paths="true"
     inkscape:snap-intersection-paths="true"
     inkscape:object-nodes="true"
     inkscape:snap-smooth-nodes="true"
     inkscape:snap-midpoints="true"
     inkscape:snap-object-midpoints="true"
     inkscape:snap-center="true"
     showguides="true"
     inkscape:guide-bbox="true"
     inkscape:window-width="1920"
     inkscape:window-height="1023"
     inkscape:window-x="-10"
     inkscape:window-y="35"
     inkscape:window-maximized="1"
     inkscape:snap-global="true"
     fit-margin-top="0"
     fit-margin-left="0"
     fit-margin-right="0"
     fit-margin-bottom="0"
     showborder="true"
     inkscape:showpageshadow="false"
     inkscape:snap-page="true">
    <inkscape:grid
       originy="18px"
       originx="1.6362304e-08px"
       snapvisiblegridlinesonly="true"
       enabled="true"
       visible="true"
       empspacing="5"
       id="grid3075"
       type="xygrid" />
  </sodipodi:namedview>
  <defs
     id="defs13096">
    <linearGradient
       id="linearGradient3794">
      <stop
         style="stop-color:#5f7d53;stop-opacity:1;"
         offset="0"
         id="stop3796" />
      <stop
         id="stop3802"
         offset="0.67116416"
         style="stop-color:#8cc377;stop-opacity:1;" />
      <stop
         style="stop-color:#6e9c5b;stop-opacity:1;"
         offset="1"
         id="stop3798" />
    </linearGradient>
    <linearGradient
       id="linearGradient4024">
      <stop
         style="stop-color:#efd9c0;stop-opacity:1;"
         offset="0"
         id="stop4026" />
      <stop
         style="stop-color:#e6d6c9;stop-opacity:0;"
         offset="1"
         id="stop4028" />
    </linearGradient>
    <linearGradient
       id="linearGradient4006">
      <stop
         style="stop-color:#cd8c54;stop-opacity:0.60892051;"
         offset="0"
         id="stop4008" />
      <stop
         style="stop-color:#a26643;stop-opacity:0.90109891;"
         offset="1"
         id="stop4010" />
    </linearGradient>
    <linearGradient
       id="linearGradient4059">
      <stop
         style="stop-color:#c59364;stop-opacity:1;"
         offset="0"
         id="stop4061" />
      <stop
         style="stop-color:#a36944;stop-opacity:1;"
         offset="1"
         id="stop4063" />
    </linearGradient>
    <radialGradient
       gradientUnits="userSpaceOnUse"
       gradientTransform="matrix(0,1.4825776,-1.5404625,0,67.944126,-21.932314)"
       r="32"
       fy="23.333334"
       fx="25.47035"
       cy="23.333334"
       cx="25.47035"
       id="radialGradient3943"
       xlink:href="#linearGradient4059"
       inkscape:collect="always" />
    <linearGradient
       gradientTransform="matrix(0.82258065,0,0,0.82258065,6.354839,8.5887097)"
       gradientUnits="userSpaceOnUse"
       id="linearGradient3984-8-7-3"
       y2="2"
       x2="31"
       y1="64"
       x1="31">
      <stop
         offset="0"
         style="stop-color:#b6b6b6;stop-opacity:1;"
         id="stop3099-1-3-0" />
      <stop
         offset="1"
         style="stop-color:#d7d7d7;stop-opacity:1;"
         id="stop3101-06-4-6" />
    </linearGradient>
    <linearGradient
       y2="0.78431338"
       x2="32.039215"
       y1="53.058823"
       x1="32.039215"
       gradientTransform="matrix(0.82258065,0,0,0.82258065,4.645161,7.354839)"
       gradientUnits="userSpaceOnUse"
       id="linearGradient4037"
       xlink:href="#linearGradient3984-8-7-3"
       inkscape:collect="always" />
    <radialGradient
       inkscape:collect="always"
       xlink:href="#linearGradient4024"
       id="radialGradient4033"
       gradientUnits="userSpaceOnUse"
       gradientTransform="matrix(2.1915937,-0.67433658,0.25000003,0.81250002,-47.994813,26.148274)"
       cx="24.321024"
       cy="50.772038"
       fx="24.321024"
       fy="50.772038"
       r="32" />
    <radialGradient
       inkscape:collect="always"
       xlink:href="#linearGradient4006"
       id="radialGradient4037"
       gradientUnits="userSpaceOnUse"
       gradientTransform="matrix(0,0.53125001,-1,0,36.363635,29.417816)"
       cx="33.095875"
       cy="3.3636351"
       fx="33.095875"
       fy="3.3636351"
       r="32" />
    <linearGradient
       inkscape:collect="always"
       xlink:href="#linearGradient3794"
       id="linearGradient3800"
       x1="25"
       y1="11"
       x2="25"
       y2="7"
       gradientUnits="userSpaceOnUse" />
  </defs>
  <metadata
     id="metadata13099">
    <rdf:RDF>
      <cc:Work
         rdf:about="">
        <dc:format>image/svg+xml</dc:format>
        <dc:type
           rdf:resource="http://purl.org/dc/dcmitype/StillImage" />
        <dc:title />
      </cc:Work>
    </rdf:RDF>
  </metadata>
  <path
     sodipodi:nodetypes="ccccccccccc"
     id="path4095"
     d="m 0,2 0,32 0,28 2,2 30,0 30,0 2,-2 0,-28 0,-32 -32,0 z"
     style="color:#000000;fill:url(#radialGradient3943);fill-opacity:1;fill-rule:nonzero;stroke:none;stroke-width:2.28571415000000000;marker:none;visibility:visible;display:inline;overflow:visible;enable-background:accumulate"
     inkscape:connector-curvature="0" />
  <path
     sodipodi:nodetypes="ccccccccc"
     id="path4090"
     d="M 2,0 0,1 0,2 32,2 64,2 64,1 62,0 32,0 z"
     style="color:#000000;fill:#dba870;fill-opacity:1;fill-rule:nonzero;stroke:none;stroke-width:2.28571415000000000;marker:none;visibility:visible;display:inline;overflow:visible;enable-background:accumulate"
     inkscape:connector-curvature="0" />
  <path
     sodipodi:nodetypes="cccccccc"
     inkscape:connector-curvature="0"
     id="path4298"
     d="M 0,1 0,4 2,2 32,2 62,2 64,1 32,1 z"
     style="fill:#ffffff;fill-opacity:0.14487634;fill-rule:nonzero" />
  <path
     sodipodi:nodetypes="cccc"
     inkscape:connector-curvature="0"
     style="fill:#1f0700;fill-opacity:0.13759861"
     id="path3028"
     d="M 64,4 62,2 64,1 z" />
  <path
     sodipodi:nodetypes="cccccccccccccc"
     inkscape:connector-curvature="0"
     id="path4366"
     d="m 63,0.5 0,33.5 0,29 1,-1 0,-28 0,-33 z m 0,62.5 -31,0 -31,0 1,1 30,0 30,0 z"
     style="fill:#000000;fill-opacity:0.11130587;fill-rule:nonzero" />
  <g
     transform="translate(-0.62500009,0.082283)"
     inkscape:export-ydpi="90"
     inkscape:export-xdpi="90"
     inkscape:export-filename="folder.png"
     id="g3043" />
  <path
     sodipodi:nodetypes="cccccccccc"
     inkscape:connector-curvature="0"
     id="path3864"
     d="M 0,1 0,34 0,62 1,63 1,34 1,3 2,2 1,1.46875 1,1 z"
     style="fill:#ffffff;fill-opacity:0.35070675;fill-rule:nonzero" />
  <g
     style="fill:#ffffff"
     inkscape:label="#g3701"
     transform="matrix(1.0385892,0,0,1.0385892,1214.7222,1878.8121)"
     id="scalable" />
  <path
     sodipodi:nodetypes="ccccccccccc"
     inkscape:connector-curvature="0"
     id="path3960-6"
     d="m 60,7 -50,4 -1,0 -2,41 2,2 50,0 0,-2 0,-39 3,0 0,-4 z"
     style="fill:#000000;fill-opacity:0.17025093;fill-rule:nonzero" />
  <g
     transform="translate(2,-2)"
     id="g4027">
    <path
       style="color:#000000;fill:url(#linearGradient4037);fill-opacity:1;fill-rule:nonzero;stroke-width:1;stroke-linecap:butt;stroke-linejoin:miter;stroke-miterlimit:4;stroke-opacity:1;stroke-dasharray:none;stroke-dashoffset:0;marker:none;visibility:visible;display:inline;overflow:visible;enable-background:accumulate"
       d="M 7,8 7,51 57,51 57,8 z"
       transform="translate(-2,3)"
       id="path3960-9"
       inkscape:connector-curvature="0"
       sodipodi:nodetypes="ccccc" />
    <path
       inkscape:connector-curvature="0"
       d="m 6,11 46,0 0,1 -46,0 z"
       id="path3878"
       style="fill:#ffffff;fill-opacity:0.56095402;fill-rule:nonzero" />
    <path
       inkscape:connector-curvature="0"
       d="m 54,11 0,42 -49,0 0,1 49,0 1,0 0,-1 0,-42 z"
       id="path4299"
       style="fill:#000000;fill-opacity:0.0715548;fill-rule:nonzero"
       sodipodi:nodetypes="ccccccccc" />
    <path
       style="color:#000000;fill:#ffffff;fill-opacity:0.27150538;fill-rule:nonzero;stroke:none;stroke-width:1;marker:none;visibility:visible;display:inline;overflow:visible;enable-background:accumulate"
       d="m 5,11 1,0 0,43 -1,0 z"
       id="rect3804" />
    <path
       transform="translate(-2,2)"
       style="color:#000000;fill:#000000;fill-opacity:0.17025093;fill-rule:nonzero;stroke:none;stroke-width:1;marker:none;visibility:visible;display:inline;overflow:visible;enable-background:accumulate"
       d="m 7,11 50,0 0,1 -50,0 z"
       id="rect3806" />
    <g
       id="g3869"
       transform="matrix(1,0,0,0.53571429,-0.5,8.8214286)">
      <path
         inkscape:connector-curvature="0"
         d="m 48,19 0,27.999957 M 13,19 13,47 m 7,-28 0,28 m 7,-28 0,28 m 7,-28 0,28 m 7,-28 0,28"
         style="color:#000000;fill:none;stroke:#000000;stroke-width:1.36626005;stroke-linecap:butt;stroke-linejoin:miter;stroke-miterlimit:4;stroke-opacity:0.40949821;stroke-dasharray:none;stroke-dashoffset:0;marker:none;visibility:visible;display:inline;overflow:visible;enable-background:accumulate"
         id="path3840" />
      <path
         transform="translate(-2,2)"
         inkscape:connector-curvature="0"
         id="path3855"
         d="m 10,45 5,-9 7,5 7,-16 7,4 7,9 7,-15"
         style="color:#000000;fill:none;stroke:#000000;stroke-width:1.36626005;stroke-linecap:butt;stroke-linejoin:miter;stroke-miterlimit:4;stroke-opacity:0.56362011;stroke-dasharray:none;stroke-dashoffset:0;marker:none;visibility:visible;display:inline;overflow:visible;enable-background:accumulate" />
      <path
         transform="matrix(1.9999999,0,0,3.7333321,11.000002,-94.86662)"
         d="m 16,36 c 0,0.552285 -0.447715,1 -1,1 -0.552285,0 -1,-0.447715 -1,-1 0,-0.552285 0.447715,-1 1,-1 0.552285,0 1,0.447715 1,1 z"
         sodipodi:ry="1"
         sodipodi:rx="1"
         sodipodi:cy="36"
         sodipodi:cx="15"
         id="path3885"
         style="color:#000000;fill:#47769f;fill-opacity:0.54749104;stroke:none;stroke-width:1;marker:none;visibility:visible;display:inline;overflow:visible;enable-background:accumulate"
         sodipodi:type="arc" />
      <path
         transform="matrix(1.9999999,0,0,3.7333321,18.000002,-109.39996)"
         d="m 16,36 c 0,0.552285 -0.447715,1 -1,1 -0.552285,0 -1,-0.447715 -1,-1 0,-0.552285 0.447715,-1 1,-1 0.552285,0 1,0.447715 1,1 z"
         sodipodi:ry="1"
         sodipodi:rx="1"
         sodipodi:cy="36"
         sodipodi:cx="15"
         id="path3887"
         style="color:#000000;fill:#47769f;fill-opacity:0.54749104;stroke:none;stroke-width:1;marker:none;visibility:visible;display:inline;overflow:visible;enable-background:accumulate"
         sodipodi:type="arc" />
      <path
         transform="matrix(1.9999999,0,0,3.7333321,4.0000015,-103.39996)"
         d="m 16,36 c 0,0.552285 -0.447715,1 -1,1 -0.552285,0 -1,-0.447715 -1,-1 0,-0.552285 0.447715,-1 1,-1 0.552285,0 1,0.447715 1,1 z"
         sodipodi:ry="1"
         sodipodi:rx="1"
         sodipodi:cy="36"
         sodipodi:cx="15"
         id="path3889"
         style="color:#000000;fill:#47769f;fill-opacity:0.54749104;stroke:none;stroke-width:1;marker:none;visibility:visible;display:inline;overflow:visible;enable-background:accumulate"
         sodipodi:type="arc" />
      <path
         transform="matrix(1.9999999,0,0,3.7333321,-2.9999985,-107.39996)"
         d="m 16,36 c 0,0.552285 -0.447715,1 -1,1 -0.552285,0 -1,-0.447715 -1,-1 0,-0.552285 0.447715,-1 1,-1 0.552285,0 1,0.447715 1,1 z"
         sodipodi:ry="1"
         sodipodi:rx="1"
         sodipodi:cy="36"
         sodipodi:cx="15"
         id="path3891"
         style="color:#000000;fill:#47769f;fill-opacity:0.54749104;stroke:none;stroke-width:1;marker:none;visibility:visible;display:inline;overflow:visible;enable-background:accumulate"
         sodipodi:type="arc" />
      <path
         transform="matrix(1.9999999,0,0,3.7333321,-9.9999985,-91.399956)"
         d="m 16,36 c 0,0.552285 -0.447715,1 -1,1 -0.552285,0 -1,-0.447715 -1,-1 0,-0.552285 0.447715,-1 1,-1 0.552285,0 1,0.447715 1,1 z"
         sodipodi:ry="1"
         sodipodi:rx="1"
         sodipodi:cy="36"
         sodipodi:cx="15"
         id="path3893"
         style="color:#000000;fill:#47769f;fill-opacity:0.54749104;stroke:none;stroke-width:1;marker:none;visibility:visible;display:inline;overflow:visible;enable-background:accumulate"
         sodipodi:type="arc" />
      <path
         sodipodi:type="arc"
         style="color:#000000;fill:#47769f;fill-opacity:0.54749104;stroke:none;stroke-width:1;marker:none;visibility:visible;display:inline;overflow:visible;enable-background:accumulate"
         id="path3867"
         sodipodi:cx="15"
         sodipodi:cy="36"
         sodipodi:rx="1"
         sodipodi:ry="1"
         d="m 16,36 c 0,0.552285 -0.447715,1 -1,1 -0.552285,0 -1,-0.447715 -1,-1 0,-0.552285 0.447715,-1 1,-1 0.552285,0 1,0.447715 1,1 z"
         transform="matrix(1.9999999,0,0,3.7333321,-16.999998,-96.399957)" />
    </g>
    <g
       id="g3037"
       transform="matrix(-1,0,0,1,39,0)">
      <rect
         transform="scale(-1,1)"
         style="color:#000000;fill:#47769f;fill-opacity:1;fill-rule:nonzero;stroke:none;stroke-width:1;marker:none;visibility:visible;display:inline;overflow:visible;enable-background:accumulate"
         id="rect3881"
         width="17"
         height="3"
         x="-30"
         y="37" />
      <rect
         transform="scale(-1,1)"
         style="color:#000000;fill:#769f47;fill-opacity:1;fill-rule:nonzero;stroke:none;stroke-width:1;marker:none;visibility:visible;display:inline;overflow:visible;enable-background:accumulate"
         id="rect3883"
         width="10"
         height="3"
         x="-30"
         y="41" />
      <rect
         transform="scale(-1,1)"
         y="45"
         x="-30"
         height="3"
         width="14"
         id="rect3879"
         style="color:#000000;fill:#9f6447;fill-opacity:1;fill-rule:nonzero;stroke:none;stroke-width:1;marker:none;visibility:visible;display:inline;overflow:visible;enable-background:accumulate" />
    </g>
    <g
       id="g3906"
       transform="matrix(1,0,0,0.53571429,-0.49999998,8.8214289)">
      <path
         sodipodi:type="arc"
         style="color:#000000;fill:#bc983a;fill-opacity:1;fill-rule:nonzero;stroke:none;stroke-width:2.28571415;marker:none;visibility:visible;display:inline;overflow:visible;enable-background:accumulate"
         id="path4044"
         sodipodi:cx="39"
         sodipodi:cy="46"
         sodipodi:rx="12"
         sodipodi:ry="12"
         d="m 51,46 c 0,6.627417 -5.372583,12 -12,12 -6.627417,0 -12,-5.372583 -12,-12 0,-2.10644 0.554475,-4.175769 1.607695,-6 L 39,46 z"
         transform="matrix(0.5,0,0,0.93333335,26,20.866666)"
         sodipodi:start="0"
         sodipodi:end="3.6651914" />
      <path
         sodipodi:type="arc"
         style="color:#000000;fill:#729052;fill-opacity:1;fill-rule:nonzero;stroke:none;stroke-width:2.28571415;marker:none;visibility:visible;display:inline;overflow:visible;enable-background:accumulate"
         id="path4046"
         sodipodi:cx="39"
         sodipodi:cy="46"
         sodipodi:rx="12"
         sodipodi:ry="12"
         d="m 28.607695,40 c 2.715634,-4.703616 8.251932,-6.996826 13.498134,-5.59111 L 39,46 z"
         transform="matrix(0.5,0,0,0.93333335,26,20.866666)"
         sodipodi:start="3.6651914"
         sodipodi:end="4.9741884" />
      <path
         sodipodi:end="6.2831853"
         sodipodi:start="4.9741884"
         transform="matrix(0.5,0,0,0.93333335,26,20.866666)"
         d="M 42.105829,34.40889 C 47.352031,35.814606 51,40.568732 51,46 l -12,0 z"
         sodipodi:ry="12"
         sodipodi:rx="12"
         sodipodi:cy="46"
         sodipodi:cx="39"
         id="path4042"
         style="color:#000000;fill:#8e6749;fill-opacity:1;fill-rule:nonzero;stroke:none;stroke-width:2.28571415;marker:none;visibility:visible;display:inline;overflow:visible;enable-background:accumulate"
         sodipodi:type="arc" />
    </g>
  </g>
  <path
     sodipodi:nodetypes="ccccccc"
     inkscape:connector-curvature="0"
     id="path4035"
     d="M 1.6362304e-8,57 64,37 64,62 62,64 2,64 1.6362304e-8,62 z"
     style="fill:url(#radialGradient4037);fill-opacity:1;fill-rule:evenodd;stroke:none" />
  <path
     style="color:#000000;fill:url(#radialGradient4033);fill-opacity:1;fill-rule:nonzero;stroke:none;stroke-width:2;marker:none;visibility:visible;display:inline;overflow:visible;enable-background:accumulate"
     d="M 1.6362304e-8,57 64,37 64,38 1.6362304e-8,58 z"
     id="rect4014"
     inkscape:connector-curvature="0"
     sodipodi:nodetypes="ccccc" />
  <rect
     style="color:#000000;fill:url(#linearGradient3800);fill-opacity:1;fill-rule:nonzero;stroke:none;stroke-width:1;marker:none;visibility:visible;display:inline;overflow:visible;enable-background:accumulate"
     id="rect3024"
     width="56"
     height="4"
     x="4"
     y="7" />
</svg>
