<?xml version="1.0" encoding="UTF-8" standalone="no"?>
<!-- Created with Inkscape (http://www.inkscape.org/) -->

<svg
   xmlns:dc="http://purl.org/dc/elements/1.1/"
   xmlns:cc="http://creativecommons.org/ns#"
   xmlns:rdf="http://www.w3.org/1999/02/22-rdf-syntax-ns#"
   xmlns:svg="http://www.w3.org/2000/svg"
   xmlns="http://www.w3.org/2000/svg"
   xmlns:xlink="http://www.w3.org/1999/xlink"
   xmlns:sodipodi="http://sodipodi.sourceforge.net/DTD/sodipodi-0.dtd"
   xmlns:inkscape="http://www.inkscape.org/namespaces/inkscape"
   version="1.1"
   width="64"
   height="64"
   id="svg13094"
   inkscape:version="0.48.3.1 r9886"
   sodipodi:docname="gnome-mime-application-x-desktop.svg">
  <sodipodi:namedview
     pagecolor="#c7cad3"
     bordercolor="#666666"
     borderopacity="1"
     objecttolerance="10"
     gridtolerance="10"
     guidetolerance="10"
     inkscape:pageopacity="1"
     inkscape:pageshadow="2"
     inkscape:window-width="1920"
     inkscape:window-height="1033"
     id="namedview68"
     showgrid="true"
     inkscape:zoom="10.429825"
     inkscape:cx="32.242045"
     inkscape:cy="34.550914"
     inkscape:window-x="-2"
     inkscape:window-y="25"
     inkscape:window-maximized="1"
     inkscape:current-layer="svg13094"
     inkscape:snap-bbox="true"
     inkscape:bbox-paths="true"
     inkscape:bbox-nodes="true"
     inkscape:snap-bbox-edge-midpoints="true"
     inkscape:snap-bbox-midpoints="true"
     inkscape:object-paths="true"
     inkscape:snap-intersection-paths="true"
     inkscape:object-nodes="true"
     inkscape:snap-smooth-nodes="true"
     inkscape:snap-midpoints="true"
     inkscape:snap-object-midpoints="true"
     inkscape:snap-center="true">
    <inkscape:grid
       type="xygrid"
       id="grid3142"
       empspacing="5"
       visible="true"
       enabled="true"
       snapvisiblegridlinesonly="true" />
  </sodipodi:namedview>
  <defs
     id="defs11">
    <linearGradient
       x1="31"
       y1="64"
       x2="31"
       y2="2"
       id="linearGradient3984"
       gradientUnits="userSpaceOnUse">
      <stop
         id="stop3099"
         style="stop-color:#9a7db7;stop-opacity:1;"
         offset="0" />
      <stop
         id="stop3875"
         style="stop-color:#a78ec1;stop-opacity:1;"
         offset="0.5" />
      <stop
         id="stop3873"
         style="stop-color:#936dab;stop-opacity:1;"
         offset="0.51612902" />
      <stop
         id="stop3101"
         style="stop-color:#a988b8;stop-opacity:1;"
         offset="1" />
    </linearGradient>
    <radialGradient
       cx="48.30785"
       cy="47.141338"
       r="14.16129"
       id="radialGradient3996"
       gradientUnits="userSpaceOnUse"
       gradientTransform="matrix(0.93962333,0.77477937,-1.7975241,2.1799696,88.130548,-93.365748)">
      <stop
         id="stop3954"
         style="stop-color:#39005b;stop-opacity:0.36788228;"
         offset="0" />
      <stop
         id="stop3958"
         style="stop-color:#40006a;stop-opacity:0.10492642;"
         offset="0.5" />
      <stop
         id="stop3956"
         style="stop-color:#540084;stop-opacity:0;"
         offset="1" />
    </radialGradient>
    <linearGradient
       x1="48.992088"
       y1="46.124821"
       x2="37"
       y2="36"
       id="linearGradient4280"
       gradientUnits="userSpaceOnUse">
      <stop
         id="stop4293"
         style="stop-color:#8d69a9;stop-opacity:1;"
         offset="0" />
      <stop
         id="stop4295"
         style="stop-color:#77578d;stop-opacity:1;"
         offset="0.2098622" />
      <stop
         id="stop4297"
         style="stop-color:#8d69a4;stop-opacity:1;"
         offset="1" />
    </linearGradient>
    <linearGradient
       x1="45"
       y1="52"
       x2="73"
       y2="4"
       id="linearGradient4308"
       gradientUnits="userSpaceOnUse">
      <stop
         id="stop4304"
         style="stop-color:#000000;stop-opacity:0.10677083"
         offset="0" />
      <stop
         id="stop4306"
         style="stop-color:#000000;stop-opacity:0"
         offset="1" />
    </linearGradient>
    <radialGradient
       cx="48.24176"
       cy="40.919418"
       r="14.16129"
       fx="40.959122"
       fy="40.608799"
       id="radialGradient3822"
       xlink:href="#radialGradient3996"
       gradientUnits="userSpaceOnUse"
       gradientTransform="matrix(-2.0491578e-7,2.1591248,-0.51856169,-3.8905836e-8,81.125244,-70.945917)" />
    <radialGradient
       cx="48.30785"
       cy="47.141338"
       r="14.16129"
       id="radialGradient3373"
       xlink:href="#radialGradient3996"
       gradientUnits="userSpaceOnUse"
       gradientTransform="matrix(0.93962333,0.77477937,-1.7975241,2.1799696,88.130548,-93.365748)" />
    <linearGradient
       x1="47.832821"
       y1="-16.837179"
       x2="31.585039"
       y2="-39.05085"
       id="linearGradient3554"
       gradientUnits="userSpaceOnUse"
       gradientTransform="translate(0,64)">
      <stop
         id="stop3988"
         style="stop-color:#bf95d4;stop-opacity:1;"
         offset="0" />
      <stop
         id="stop3990"
         style="stop-color:#b979c8;stop-opacity:0;"
         offset="1" />
    </linearGradient>
    <linearGradient
       inkscape:collect="always"
       xlink:href="#linearGradient3051-2-8"
       id="linearGradient3238"
       gradientUnits="userSpaceOnUse"
       gradientTransform="translate(-55.89739,0)"
       x1="18.312868"
       y1="2.3480074"
       x2="18.312868"
       y2="63.818436" />
    <linearGradient
       id="linearGradient3051-2-8">
      <stop
         id="stop3053-6-1"
         style="stop-color:#d8d8d8;stop-opacity:1;"
         offset="0" />
      <stop
         id="stop3059-8-7"
         style="stop-color:#c5c5c5;stop-opacity:1;"
         offset="0.47965544" />
      <stop
         id="stop3061-2-5"
         style="stop-color:#e4e4e4;stop-opacity:1;"
         offset="0.50227195" />
      <stop
         id="stop3055-1-9"
         style="stop-color:#e7e7e7;stop-opacity:1;"
         offset="1" />
    </linearGradient>
  </defs>
  <metadata
     id="metadata13099">
    <rdf:RDF>
      <cc:Work
         rdf:about="">
        <dc:format>image/svg+xml</dc:format>
        <dc:type
           rdf:resource="http://purl.org/dc/dcmitype/StillImage" />
        <dc:title />
      </cc:Work>
    </rdf:RDF>
  </metadata>
  <path
     d="M 4,0 64,0 64,62 4,62 z"
     id="path3960"
     style="fill:#6c507f;fill-rule:nonzero;fill-opacity:1" />
  <path
     d="m 60,2 4,4 0,31 -4,-4 z"
     id="path3900"
     style="fill:url(#radialGradient3822);fill-rule:nonzero" />
  <path
     d="m 60,33 4,4 0,25 -28.32258,0 z"
     id="path3934"
     style="fill:url(#radialGradient3373);fill-rule:nonzero" />
  <path
     d="M 63,0 V 61 H 4 v 1 H 64 V 0 h -1 z"
     id="path4299"
     style="fill:#000000;fill-opacity:0.07887819;fill-rule:nonzero" />
  <path
     d="M 60,2 60,33 35,62 37,62 60.78125,33.65625 61,33.375 61,33 61,3 z"
     id="path3922"
     style="fill:url(#linearGradient4308);fill-rule:nonzero" />
  <path
     d="M 0,2 60,2 60,33 34,64 0,64 z"
     id="path3982"
     style="fill:url(#linearGradient3984);fill-rule:nonzero" />
  <path
     inkscape:connector-curvature="0"
     id="path3184"
     d="m 21,7 c -0.554,0 -1,0.446 -1,1 l 0,4.5625 c -1.196705,0.330046 -2.318172,0.807046 -3.375,1.40625 L 13.40625,10.75 c -0.195869,-0.195869 -0.463131,-0.3125 -0.71875,-0.3125 -0.255619,0 -0.522881,0.116631 -0.71875,0.3125 L 7.75,14.96875 c -0.391737,0.391737 -0.391737,1.045763 0,1.4375 L 10.96875,19.625 C 10.369546,20.681828 9.892546,21.803295 9.5625,23 L 5,23 c -0.554,0 -1,0.446 -1,1 l 0,6 c 0,0.554 0.446,1 1,1 l 4.5625,0 c 0.330046,1.19671 0.807046,2.31817 1.40625,3.375 L 7.75,37.59375 c -0.391737,0.39174 -0.391737,1.04576 0,1.4375 L 11.96875,43.25 c 0.391737,0.39174 1.045763,0.39174 1.4375,0 L 16.625,40.03125 c 1.056828,0.5992 2.178295,1.0762 3.375,1.40625 L 20,46 c 0,0.554 0.446,1 1,1 l 6,0 c 0.554,0 1,-0.446 1,-1 l 0,-4.5625 c 1.196705,-0.33005 2.318172,-0.80705 3.375,-1.40625 L 34.59375,43.25 c 0.391737,0.39174 1.045763,0.39174 1.4375,0 L 40.25,39.03125 c 0.391737,-0.39174 0.391737,-1.04576 0,-1.4375 L 37.03125,34.375 C 37.630454,33.31817 38.107454,32.19671 38.4375,31 L 43,31 c 0.554,0 1,-0.446 1,-1 l 0,-6 c 0,-0.554 -0.446,-1 -1,-1 l -4.5625,0 C 38.107454,21.803295 37.630454,20.681828 37.03125,19.625 L 40.25,16.40625 c 0.391737,-0.391737 0.391737,-1.045763 0,-1.4375 L 36.03125,10.75 c -0.195869,-0.195869 -0.463131,-0.3125 -0.71875,-0.3125 -0.255619,0 -0.522881,0.116631 -0.71875,0.3125 L 31.375,13.96875 C 30.318172,13.369546 29.196705,12.892546 28,12.5625 L 28,8 C 28,7.446 27.554,7 27,7 l -6,0 z m 3,11 c 4.970562,0 9,4.029438 9,9 0,4.97056 -4.029438,9 -9,9 -4.970562,0 -9,-4.02944 -9,-9 0,-4.970562 4.029438,-9 9,-9 z m -3,5 0,8 8,-4 -8,-4 z"
     style="color:#000000;fill:url(#linearGradient3238);fill-opacity:1;fill-rule:nonzero;stroke:none;stroke-width:1;marker:none;visibility:visible;display:inline;overflow:visible;enable-background:accumulate" />
  <path
     d="M 0,2 60,2 60,3 0,3 z"
     id="path4052"
     style="fill:#cdb6d7;fill-rule:nonzero;color:#000000;fill-opacity:1;stroke-width:1;stroke-linecap:butt;stroke-linejoin:miter;stroke-miterlimit:4;stroke-opacity:1;stroke-dasharray:none;stroke-dashoffset:0;marker:none;visibility:visible;display:inline;overflow:visible;enable-background:accumulate" />
  <path
     d="m 0,63 35,0 -1,1 -34,0 z"
     id="path4255"
     style="fill:#000000;fill-opacity:0.10341803;fill-rule:nonzero" />
  <path
     d="M 4,0 64,0 64,1 4,1 z"
     id="path3878"
     style="fill:#cdb6d7;fill-rule:nonzero;color:#000000;fill-opacity:1;stroke-width:1;stroke-linecap:butt;stroke-linejoin:miter;stroke-miterlimit:4;stroke-opacity:1;stroke-dasharray:none;stroke-dashoffset:0;marker:none;visibility:visible;display:inline;overflow:visible;enable-background:accumulate" />
  <path
     d="M 34,64 60,33 c -2.328567,2.776369 -4.36141,3 -11,3 H 37 v 15 c 0,6.64407 0.04437,9.37018 -3,13 z"
     id="path4278"
     style="fill:url(#linearGradient4280);fill-rule:nonzero" />
  <path
     d="m 59,32 c -2.328567,2.776369 -4.36141,3 -11,3 H 36 v 15 c 0,6.64407 0.04437,9.37018 -3,13 4,-5 4.000382,-8.35667 4,-13 V 36 h 11 c 5,0 8.041405,-0.38188 11,-4 z"
     id="path4282"
     style="fill:#cdb6d7;fill-opacity:1;fill-rule:nonzero"
     inkscape:connector-curvature="0" />
</svg>
