<?xml version="1.0" encoding="UTF-8" standalone="no"?>
<!-- Created with Inkscape (http://www.inkscape.org/) -->

<svg
   xmlns:dc="http://purl.org/dc/elements/1.1/"
   xmlns:cc="http://creativecommons.org/ns#"
   xmlns:rdf="http://www.w3.org/1999/02/22-rdf-syntax-ns#"
   xmlns:svg="http://www.w3.org/2000/svg"
   xmlns="http://www.w3.org/2000/svg"
   xmlns:sodipodi="http://sodipodi.sourceforge.net/DTD/sodipodi-0.dtd"
   xmlns:inkscape="http://www.inkscape.org/namespaces/inkscape"
   width="22"
   height="22"
   id="svg2"
   version="1.1"
   inkscape:version="0.48.3.1 r9886"
   sodipodi:docname="chrome_app_indicator_99781b8573ce6f47eb026ec5e2d26243.svg">
  <sodipodi:namedview
     id="base"
     pagecolor="#cbced6"
     bordercolor="#666666"
     borderopacity="1.0"
     inkscape:pageopacity="1"
     inkscape:pageshadow="2"
     inkscape:zoom="32"
     inkscape:cx="8.2257407"
     inkscape:cy="10.518423"
     inkscape:document-units="px"
     inkscape:current-layer="layer1"
     showgrid="true"
     inkscape:window-width="1920"
     inkscape:window-height="1023"
     inkscape:window-x="-10"
     inkscape:window-y="35"
     inkscape:window-maximized="1"
     showguides="true"
     inkscape:guide-bbox="true"
     fit-margin-top="0"
     fit-margin-left="0"
     fit-margin-right="0"
     fit-margin-bottom="0"
     inkscape:snap-bbox="true"
     inkscape:bbox-paths="true"
     inkscape:bbox-nodes="true"
     inkscape:snap-bbox-edge-midpoints="true"
     inkscape:snap-bbox-midpoints="true"
     inkscape:snap-nodes="true"
     inkscape:object-paths="true"
     inkscape:snap-intersection-paths="true"
     inkscape:object-nodes="true"
     inkscape:snap-smooth-nodes="true"
     inkscape:snap-midpoints="true"
     inkscape:snap-object-midpoints="true"
     inkscape:snap-center="true"
     inkscape:snap-page="true"
     inkscape:snap-global="true">
    <inkscape:grid
       snapvisiblegridlinesonly="true"
       enabled="true"
       visible="true"
       empspacing="5"
       id="grid2816"
       type="xygrid"
       originx="-410px"
       originy="18.999958px" />
  </sodipodi:namedview>
  <defs
     id="defs4" />
  <metadata
     id="metadata7">
    <rdf:RDF>
      <cc:Work
         rdf:about="">
        <dc:format>image/svg+xml</dc:format>
        <dc:type
           rdf:resource="http://purl.org/dc/dcmitype/StillImage" />
        <dc:title />
      </cc:Work>
    </rdf:RDF>
  </metadata>
  <g
     transform="translate(-410,-1049.3622)"
     id="layer1"
     inkscape:groupmode="layer"
     inkscape:label="Layer 1">
    <path
       style="color:#000000;fill:#27303a;fill-opacity:0.753280819999999968;fill-rule:nonzero;stroke:none;stroke-width:22.13853836;marker:none;visibility:visible;display:inline;overflow:visible;enable-background:accumulate"
       d="M 10.4375 2 C 10.4285 2.021 10.3912 2.03225 10.375 2.03125 C 10.09768 2.05625 9.80496 2.073 9.53125 2.125 C 7.52962 2.5044 5.89741 3.4749 4.625 5.0625 C 3.5785 6.368 2.99952 7.8926 2.875 9.5625 C 2.86 9.7635 2.84395 9.95615 2.84375 10.15625 L 2.84375 10.1875 C 2.84468 10.7838 2.93115 11.3516 3.0625 11.9375 C 3.19434 12.526 3.39174 13.11275 3.65625 13.65625 C 3.67945 13.70225 3.69525 13.73525 3.71875 13.78125 C 4.15331 14.63695 4.70562 15.4039 5.40625 16.0625 C 5.77515 16.4092 6.16682 16.729 6.59375 17 C 7.90125 17.8299 9.32445 18.26175 10.875 18.28125 C 10.97 18.28125 11.00041 18.30925 11 18.40625 C 10.996 19.23615 10.999 20.07635 11 20.90625 C 11.0001 20.93825 10.999 20.959 11 21 C 11.0269 20.989 11.0463 20.97675 11.0625 20.96875 C 12.62121 20.23645 14.06774 19.31625 15.34375 18.15625 C 15.59753 17.92545 15.82875 17.6892 16.0625 17.4375 C 16.16254 17.3297 16.27464 17.20105 16.375 17.09375 C 16.52986 16.92795 16.63526 16.76795 16.78125 16.59375 C 16.94985 16.39265 17.10071 16.1527 17.25 15.9375 C 17.58018 15.462 17.87721 14.99285 18.125 14.46875 C 18.25035 14.20375 18.39438 13.92945 18.5 13.65625 C 18.504 13.64625 18.498 13.63 18.5 13.625 C 18.78785 12.8766 18.9641 12.1069 19.0625 11.3125 C 19.0968 11.0358 19.1111 10.7782 19.125 10.5 C 19.131 10.3742 19.15625 10.21915 19.15625 10.09375 C 19.15542 9.63095 19.11505 9.1443 19.03125 8.6875 C 18.74288 7.1153 18.05635 5.76565 16.96875 4.59375 C 16.50972 4.09905 15.974 3.64625 15.40625 3.28125 C 14.34891 2.60145 13.21793 2.21 11.96875 2.0625 C 11.81647 2.0445 11.65012 2.036 11.5 2 L 10.4375 2 z M 6 9 L 8 9 L 8 11 L 6 11 L 6 9 z M 10 9 L 12 9 L 12 11 L 10 11 L 10 9 z M 14 9 L 16 9 L 16 11 L 14 11 L 14 9 z "
       transform="translate(410,1049.3622)"
       id="path3840" />
    <path
       style="font-size:medium;font-style:normal;font-variant:normal;font-weight:normal;font-stretch:normal;text-indent:0;text-align:start;text-decoration:none;line-height:normal;letter-spacing:normal;word-spacing:normal;text-transform:none;direction:ltr;block-progression:tb;writing-mode:lr-tb;text-anchor:start;baseline-shift:baseline;color:#000000;fill:#f1f3f5;fill-opacity:0.90288714000000003;fill-rule:nonzero;stroke:none;stroke-width:2;marker:none;visibility:visible;display:inline;overflow:visible;enable-background:accumulate;font-family:Sans;-inkscape-font-specification:Sans"
       d="M 10.1875 0.8125 C 10.14467 0.8308823 10.10291 0.8517628 10.0625 0.875 C 9.84263 0.892 9.60698 0.8855 9.3125 0.9375 C 7.06026 1.3644 5.12385 2.5203 3.6875 4.3125 C 2.49093 5.8052 1.8285 7.57775 1.6875 9.46875 C 1.673 9.66345 1.65655 9.89345 1.65625 10.15625 L 1.65625 10.1875 C 1.65725 10.8986 1.76331 11.5498 1.90625 12.1875 C 2.05675 12.8593 2.25208 13.5497 2.5625 14.1875 C 2.572916 14.187636 2.583334 14.187636 2.59375 14.1875 C 2.60805 14.2155 2.63395 14.2685 2.65625 14.3125 C 2.66325 14.3255 2.6809 14.33075 2.6875 14.34375 C 3.17418 15.29235 3.79453 16.1862 4.59375 16.9375 C 5.00318 17.3223 5.4303 17.678 5.9375 18 C 7.11152 18.7452 8.44989 19.1377 9.8125 19.3125 C 9.81243 19.8469 9.81186 20.37835 9.8125 20.90625 C 9.81251 20.90625 9.8105 20.95825 9.8125 21.03125 C 9.823057 21.810142 10.748271 22.421133 11.46875 22.125 C 11.56145 22.087 11.5587 22.0655 11.5625 22.0625 C 11.5645 22.0625 11.61585 22.02025 11.59375 22.03125 C 13.22949 21.25875 14.79078 20.27255 16.15625 19.03125 C 16.44317 18.77025 16.69002 18.5165 16.9375 18.25 C 17.05731 18.1209 17.17199 17.98965 17.25 17.90625 C 17.48233 17.65745 17.59122 17.4899 17.6875 17.375 C 17.93161 17.0838 18.12303 16.808 18.25 16.625 C 18.59879 16.1227 18.93085 15.57765 19.21875 14.96875 C 19.32105 14.75245 19.46129 14.48435 19.59375 14.15625 C 19.59371 14.15625 19.6175 14.11575 19.625 14.09375 C 19.625136 14.08333 19.625136 14.07292 19.625 14.0625 C 19.632 14.0425 19.619 14.04925 19.625 14.03125 C 19.65631 13.93531 19.67646 13.879442 19.6875 13.8125 C 19.96127 13.0395 20.15219 12.25835 20.25 11.46875 C 20.2905 11.14215 20.2984 10.8448 20.3125 10.5625 C 20.3131 10.5495 20.34375 10.38015 20.34375 10.09375 C 20.3428 9.56255 20.31745 9.00695 20.21875 8.46875 C 19.89139 6.68395 19.07257 5.10525 17.84375 3.78125 C 17.31641 3.21285 16.72115 2.70465 16.0625 2.28125 C 14.854 1.50425 13.53595 1.0416 12.125 0.875 C 11.91528 0.85 11.77754 0.84275 11.78125 0.84375 C 11.689168 0.82230327 11.594544 0.81178954 11.5 0.8125 L 10.4375 0.8125 C 10.35447 0.803805 10.270531 0.803805 10.1875 0.8125 z M 10.4375 2 L 11.5 2 C 11.65012 2.036 11.81647 2.0445 11.96875 2.0625 C 13.21793 2.21 14.34891 2.60145 15.40625 3.28125 C 15.974 3.64625 16.50972 4.09905 16.96875 4.59375 C 18.05635 5.76565 18.74288 7.1153 19.03125 8.6875 C 19.11505 9.1443 19.15542 9.63095 19.15625 10.09375 C 19.15625 10.21915 19.131 10.3742 19.125 10.5 C 19.1111 10.7782 19.0968 11.0358 19.0625 11.3125 C 18.9641 12.1069 18.78785 12.8766 18.5 13.625 C 18.498 13.63 18.504 13.64625 18.5 13.65625 C 18.39438 13.92945 18.25035 14.20375 18.125 14.46875 C 17.87721 14.99285 17.58018 15.462 17.25 15.9375 C 17.10071 16.1527 16.94985 16.39265 16.78125 16.59375 C 16.63526 16.76795 16.52986 16.92795 16.375 17.09375 C 16.27464 17.20105 16.16254 17.3297 16.0625 17.4375 C 15.82875 17.6892 15.59753 17.92545 15.34375 18.15625 C 14.06774 19.31625 12.62121 20.23645 11.0625 20.96875 C 11.0463 20.97675 11.0269 20.989 11 21 C 10.999 20.959 11.0001 20.93825 11 20.90625 C 10.999 20.07635 10.996 19.23615 11 18.40625 C 11.00041 18.30925 10.97 18.28125 10.875 18.28125 C 9.32445 18.26175 7.90125 17.8299 6.59375 17 C 6.16682 16.729 5.77515 16.4092 5.40625 16.0625 C 4.70562 15.4039 4.15331 14.63695 3.71875 13.78125 C 3.69525 13.73525 3.67945 13.70225 3.65625 13.65625 C 3.39174 13.11275 3.19434 12.526 3.0625 11.9375 C 2.93115 11.3516 2.84468 10.7838 2.84375 10.1875 L 2.84375 10.15625 C 2.84395 9.95615 2.86 9.7635 2.875 9.5625 C 2.99952 7.8926 3.5785 6.368 4.625 5.0625 C 5.89741 3.4749 7.52962 2.5044 9.53125 2.125 C 9.80496 2.073 10.09768 2.05625 10.375 2.03125 C 10.3912 2.03225 10.4285 2.021 10.4375 2 z M 6 9 L 6 11 L 8 11 L 8 9 L 6 9 z M 10 9 L 10 11 L 12 11 L 12 9 L 10 9 z M 14 9 L 14 11 L 16 11 L 16 9 L 14 9 z "
       transform="translate(410,1049.3622)"
       id="path3813" />
  </g>
</svg>
