<?xml version="1.0" encoding="UTF-8" standalone="no"?>
<!-- Created with Inkscape (http://www.inkscape.org/) -->

<svg
   xmlns:dc="http://purl.org/dc/elements/1.1/"
   xmlns:cc="http://creativecommons.org/ns#"
   xmlns:rdf="http://www.w3.org/1999/02/22-rdf-syntax-ns#"
   xmlns:svg="http://www.w3.org/2000/svg"
   xmlns="http://www.w3.org/2000/svg"
   xmlns:sodipodi="http://sodipodi.sourceforge.net/DTD/sodipodi-0.dtd"
   xmlns:inkscape="http://www.inkscape.org/namespaces/inkscape"
   version="1.0"
   width="22"
   height="22"
   id="svg2"
   inkscape:version="0.48.4 r9939"
   sodipodi:docname="help-contents.svg">
  <sodipodi:namedview
     pagecolor="#ffffff"
     bordercolor="#666666"
     borderopacity="1"
     objecttolerance="10"
     gridtolerance="10"
     guidetolerance="10"
     inkscape:pageopacity="0"
     inkscape:pageshadow="2"
     inkscape:window-width="1920"
     inkscape:window-height="1019"
     id="namedview32"
     showgrid="true"
     inkscape:zoom="32.000001"
     inkscape:cx="15.559926"
     inkscape:cy="11.286473"
     inkscape:window-x="-5"
     inkscape:window-y="30"
     inkscape:window-maximized="1"
     inkscape:current-layer="svg2"
     inkscape:snap-bbox="true"
     inkscape:bbox-paths="true"
     inkscape:bbox-nodes="true"
     inkscape:snap-bbox-edge-midpoints="true"
     inkscape:snap-bbox-midpoints="true"
     inkscape:object-paths="true"
     inkscape:snap-intersection-paths="true"
     inkscape:object-nodes="true"
     inkscape:snap-smooth-nodes="true"
     inkscape:snap-midpoints="true"
     inkscape:snap-object-midpoints="true"
     inkscape:snap-center="true"
     fit-margin-top="0"
     fit-margin-left="0"
     fit-margin-right="0"
     fit-margin-bottom="0"
     inkscape:snap-global="true">
    <inkscape:grid
       type="xygrid"
       id="grid3218"
       empspacing="5"
       visible="true"
       enabled="true"
       snapvisiblegridlinesonly="true"
       originx="-11px"
       originy="18px" />
  </sodipodi:namedview>
  <metadata
     id="metadata11">
    <rdf:RDF>
      <cc:Work
         rdf:about="">
        <dc:format>image/svg+xml</dc:format>
        <dc:type
           rdf:resource="http://purl.org/dc/dcmitype/StillImage" />
        <dc:title />
      </cc:Work>
    </rdf:RDF>
  </metadata>
  <defs
     id="defs4" />
  <path
     id="path3882"
     d="m 11,3 c -4.418278,0 -8,3.581722 -8,8 0,4.418278 3.581722,8 8,8 4.418278,0 8,-3.581722 8,-8 0,-4.418278 -3.581722,-8 -8,-8 z m 0,2.875 c 1.762693,1e-7 3.21875,1.456057 3.21875,3.21875 0,1.762693 -1.456057,3.21875 -3.21875,3.21875 -0.280045,0 -0.573248,-0.05252 -0.84375,-0.125 l 0.3125,-1.15625 c 0.169208,0.04534 0.356073,0.0625 0.53125,0.0625 1.114164,0 2,-0.885836 2,-2 0,-1.114164 -0.885836,-2 -2,-2 -1.114164,0 -2,0.885836 -2,2 l -1.21875,0 C 7.7812501,7.331057 9.237307,5.8749999 11,5.875 z M 11,14 c 0.552285,0 1,0.447715 1,1 0,0.552285 -0.447715,1 -1,1 -0.552285,0 -1,-0.447715 -1,-1 0,-0.552285 0.447715,-1 1,-1 z"
     style="color:#000000;fill:#27303a;fill-opacity:0.753280819999999968;stroke:none;stroke-width:2;marker:none;visibility:visible;display:inline;overflow:visible;enable-background:accumulate"
     inkscape:connector-curvature="0" />
  <path
     style="font-size:medium;font-style:normal;font-variant:normal;font-weight:normal;font-stretch:normal;text-indent:0;text-align:start;text-decoration:none;line-height:normal;letter-spacing:normal;word-spacing:normal;text-transform:none;direction:ltr;block-progression:tb;writing-mode:lr-tb;text-anchor:start;baseline-shift:baseline;color:#000000;fill:#f1f3f5;fill-opacity:0.90288714000000003;fill-rule:nonzero;stroke:none;stroke-width:2;marker:none;visibility:visible;display:inline;overflow:visible;enable-background:accumulate;font-family:Sans;-inkscape-font-specification:Sans"
     d="m 11,1.90625 c -5.0127621,0 -9.09375,4.0809879 -9.09375,9.09375 0,5.012762 4.0809879,9.09375 9.09375,9.09375 5.012762,0 9.09375,-4.080988 9.09375,-9.09375 C 20.09375,5.9872379 16.012762,1.90625 11,1.90625 z M 11,3 c 4.418278,0 8,3.581722 8,8 0,4.418278 -3.581722,8 -8,8 C 6.581722,19 3,15.418278 3,11 3,6.581722 6.581722,3 11,3 z m 0,2.875 c -1.762693,-1e-7 -3.2187499,1.456057 -3.21875,3.21875 l 1.21875,0 c 0,-1.114164 0.885836,-2 2,-2 1.114164,0 2,0.885836 2,2 0,1.114164 -0.885836,2 -2,2 -0.175177,0 -0.362042,-0.01716 -0.53125,-0.0625 l -0.3125,1.15625 c 0.270502,0.07248 0.563705,0.125 0.84375,0.125 1.762693,0 3.21875,-1.456057 3.21875,-3.21875 C 14.21875,7.331057 12.762693,5.8750001 11,5.875 z M 11,14 c -0.552285,0 -1,0.447715 -1,1 0,0.552285 0.447715,1 1,1 0.552285,0 1,-0.447715 1,-1 0,-0.552285 -0.447715,-1 -1,-1 z"
     id="path3753"
     inkscape:connector-curvature="0"
     sodipodi:nodetypes="sssssssssssccsssccssssssss" />
</svg>
