<?xml version="1.0" encoding="UTF-8" standalone="no"?>
<!-- Created with Inkscape (http://www.inkscape.org/) -->

<svg
   xmlns:dc="http://purl.org/dc/elements/1.1/"
   xmlns:cc="http://creativecommons.org/ns#"
   xmlns:rdf="http://www.w3.org/1999/02/22-rdf-syntax-ns#"
   xmlns:svg="http://www.w3.org/2000/svg"
   xmlns="http://www.w3.org/2000/svg"
   xmlns:sodipodi="http://sodipodi.sourceforge.net/DTD/sodipodi-0.dtd"
   xmlns:inkscape="http://www.inkscape.org/namespaces/inkscape"
   version="1.1"
   width="22"
   height="22"
   id="svg2"
   inkscape:version="0.91+devel r"
   sodipodi:docname="p10-plug.svg">
  <sodipodi:namedview
     pagecolor="#ffffff"
     bordercolor="#666666"
     borderopacity="1"
     objecttolerance="10"
     gridtolerance="10"
     guidetolerance="10"
     inkscape:pageopacity="0"
     inkscape:pageshadow="2"
     inkscape:window-width="1920"
     inkscape:window-height="1033"
     id="namedview6"
     showgrid="true"
     inkscape:zoom="29.5"
     inkscape:cx="8.7097374"
     inkscape:cy="13.592003"
     inkscape:window-x="-10"
     inkscape:window-y="25"
     inkscape:window-maximized="1"
     inkscape:current-layer="svg2"
     inkscape:snap-global="true"
     inkscape:snap-bbox="true"
     inkscape:bbox-paths="true"
     inkscape:bbox-nodes="true"
     inkscape:snap-bbox-edge-midpoints="true"
     inkscape:snap-bbox-midpoints="true"
     inkscape:object-paths="true"
     inkscape:snap-intersection-paths="true"
     inkscape:object-nodes="true"
     inkscape:snap-smooth-nodes="true"
     inkscape:snap-midpoints="true">
    <inkscape:grid
       type="xygrid"
       id="grid2982"
       empspacing="5"
       visible="true"
       enabled="true"
       snapvisiblegridlinesonly="true" />
  </sodipodi:namedview>
  <defs
     id="defs4" />
  <metadata
     id="metadata7">
    <rdf:RDF>
      <cc:Work
         rdf:about="">
        <dc:format>image/svg+xml</dc:format>
        <dc:type
           rdf:resource="http://purl.org/dc/dcmitype/StillImage" />
        <dc:title></dc:title>
      </cc:Work>
    </rdf:RDF>
  </metadata>
  <path
     id="path4163"
     d="m 7.0000477,13 1,1 4.0000003,0 0,3 -4.0000003,0 -1,1 -5,0 0,-5 z m 12.0000003,1 1,1.5 -1,1.5 -1,0 0,-1 -1,0 -1,1 -1,0 0,-3 1,0 1,1 1,0 0,-1 z m -5,0 0,3 -1,0 0,-3 z"
     style="color:#000000;display:inline;overflow:visible;visibility:visible;opacity:1;fill:#27303a;fill-opacity:0.753280819999999968;fill-rule:nonzero;stroke:none;stroke-width:1;stroke-linecap:butt;stroke-linejoin:miter;stroke-miterlimit:4;stroke-dasharray:none;stroke-dashoffset:0;stroke-opacity:1;marker:none;enable-background:accumulate"
     inkscape:connector-curvature="0"
     sodipodi:nodetypes="cccccccccccccccccccccccccccc" />
  <path
     style="color:#000000;font-style:normal;font-variant:normal;font-weight:normal;font-stretch:normal;font-size:medium;line-height:normal;font-family:sans-serif;text-indent:0;text-align:start;text-decoration:none;text-decoration-line:none;text-decoration-style:solid;text-decoration-color:#000000;letter-spacing:normal;word-spacing:normal;text-transform:none;direction:ltr;block-progression:tb;writing-mode:lr-tb;baseline-shift:baseline;text-anchor:start;white-space:normal;shape-padding:0;clip-rule:nonzero;display:inline;overflow:visible;visibility:visible;opacity:1;isolation:auto;mix-blend-mode:normal;color-interpolation:sRGB;color-interpolation-filters:linearRGB;solid-color:#000000;solid-opacity:1;fill:#f1f3f5;fill-opacity:0.90288714000000003;fill-rule:nonzero;stroke:none;stroke-width:2;stroke-linecap:butt;stroke-linejoin:miter;stroke-miterlimit:4;stroke-dasharray:none;stroke-dashoffset:0;stroke-opacity:1;marker:none;color-rendering:auto;image-rendering:auto;shape-rendering:auto;text-rendering:auto;enable-background:accumulate"
     d="m 7.0000477,12 a 1.0001,1.0001 0 0 1 0.707031,0.292969 L 8.4141097,13 12.000048,13 a 1.0001,1.0001 0 0 1 0.5,0.134766 1.0001,1.0001 0 0 1 0.5,-0.134766 l 1,0 a 1.0001,1.0001 0 0 1 0.5,0.134766 1.0001,1.0001 0 0 1 0.5,-0.134766 l 1,0 a 1.0001,1.0001 0 0 1 0.707031,0.292969 l 0.357422,0.357422 A 1.0001,1.0001 0 0 1 18.000048,13 l 1,0 a 1.0001,1.0001 0 0 1 0.832031,0.445312 l 1,1.5 a 1.0001,1.0001 0 0 1 0,1.109375 l -1,1.5 A 1.0001,1.0001 0 0 1 19.000048,18 l -1,0 a 1.0001,1.0001 0 0 1 -0.935547,-0.650391 l -0.357422,0.357422 A 1.0001,1.0001 0 0 1 16.000048,18 l -1,0 a 1.0001,1.0001 0 0 1 -0.5,-0.134766 1.0001,1.0001 0 0 1 -0.5,0.134766 l -1,0 a 1.0001,1.0001 0 0 1 -0.5,-0.134766 1.0001,1.0001 0 0 1 -0.5,0.134766 l -3.5859383,0 -0.707031,0.707031 A 1.0001,1.0001 0 0 1 7.0000477,19 l -5,0 a 1.0001,1.0001 0 0 1 -1,-1 l 0,-5 a 1.0001,1.0001 0 0 1 1,-1 l 5,0 z m 0,1 -5,0 0,5 5,0 1,-1 4.0000003,0 0,-3 -4.0000003,0 -1,-1 z m 12.0000003,1 -1,0 0,1 -1,0 -1,-1 -1,0 0,3 1,0 1,-1 1,0 0,1 1,0 1,-1.5 -1,-1.5 z m -5,0 -1,0 0,3 1,0 0,-3 z"
     id="path4152"
     inkscape:connector-curvature="0" />
  <path
     sodipodi:nodetypes="cccccccccccccccccccccccccccc"
     inkscape:connector-curvature="0"
     style="color:#000000;display:inline;overflow:visible;visibility:visible;opacity:1;fill:#27303a;fill-opacity:0.753280819999999968;fill-rule:nonzero;stroke:none;stroke-width:1;stroke-linecap:butt;stroke-linejoin:miter;stroke-miterlimit:4;stroke-dasharray:none;stroke-dashoffset:0;stroke-opacity:1;marker:none;enable-background:accumulate"
     d="m 15,4 -1,1 -4,0 0,3 4,0 1,1 5,0 0,-5 z M 3,5 2,6.5 3,8 4,8 4,7 5,7 6,8 7,8 7,5 6,5 5,6 4,6 4,5 Z M 8,5 8,8 9,8 9,5 Z"
     id="path4175" />
  <path
     id="path4177"
     d="M 15,3 A 1.0001,1.0001 0 0 0 14.292969,3.2929688 L 13.585938,4 10,4 A 1.0001,1.0001 0 0 0 9.5,4.1347656 1.0001,1.0001 0 0 0 9,4 L 8,4 A 1.0001,1.0001 0 0 0 7.5,4.1347656 1.0001,1.0001 0 0 0 7,4 L 6,4 A 1.0001,1.0001 0 0 0 5.2929688,4.2929688 L 4.9355469,4.6503906 A 1.0001,1.0001 0 0 0 4,4 L 3,4 A 1.0001,1.0001 0 0 0 2.1679688,4.4453125 l -1,1.5 a 1.0001,1.0001 0 0 0 0,1.109375 l 1,1.5000005 A 1.0001,1.0001 0 0 0 3,9 L 4,9 A 1.0001,1.0001 0 0 0 4.9355469,8.349609 L 5.2929688,8.707031 A 1.0001,1.0001 0 0 0 6,9 L 7,9 A 1.0001,1.0001 0 0 0 7.5,8.865234 1.0001,1.0001 0 0 0 8,9 L 9,9 A 1.0001,1.0001 0 0 0 9.5,8.865234 1.0001,1.0001 0 0 0 10,9 l 3.585938,0 0.707031,0.707031 A 1.0001,1.0001 0 0 0 15,10 l 5,0 A 1.0001,1.0001 0 0 0 21,9 L 21,4 A 1.0001,1.0001 0 0 0 20,3 l -5,0 z m 0,1 5,0 0,5 -5,0 -1,-1 -4,0 0,-3 4,0 1,-1 z M 3,5 4,5 4,6 5,6 6,5 7,5 7,8 6,8 5,7 4,7 4,8 3,8 2,6.5 3,5 Z M 8,5 9,5 9,8 8,8 8,5 Z"
     style="color:#000000;font-style:normal;font-variant:normal;font-weight:normal;font-stretch:normal;font-size:medium;line-height:normal;font-family:sans-serif;text-indent:0;text-align:start;text-decoration:none;text-decoration-line:none;text-decoration-style:solid;text-decoration-color:#000000;letter-spacing:normal;word-spacing:normal;text-transform:none;direction:ltr;block-progression:tb;writing-mode:lr-tb;baseline-shift:baseline;text-anchor:start;white-space:normal;shape-padding:0;clip-rule:nonzero;display:inline;overflow:visible;visibility:visible;opacity:1;isolation:auto;mix-blend-mode:normal;color-interpolation:sRGB;color-interpolation-filters:linearRGB;solid-color:#000000;solid-opacity:1;fill:#f1f3f5;fill-opacity:0.90288714000000003;fill-rule:nonzero;stroke:none;stroke-width:2;stroke-linecap:butt;stroke-linejoin:miter;stroke-miterlimit:4;stroke-dasharray:none;stroke-dashoffset:0;stroke-opacity:1;marker:none;color-rendering:auto;image-rendering:auto;shape-rendering:auto;text-rendering:auto;enable-background:accumulate"
     inkscape:connector-curvature="0" />
</svg>
