<?xml version="1.0" encoding="UTF-8" standalone="no"?>
<!-- Created with Inkscape (http://www.inkscape.org/) -->

<svg
   xmlns:dc="http://purl.org/dc/elements/1.1/"
   xmlns:cc="http://creativecommons.org/ns#"
   xmlns:rdf="http://www.w3.org/1999/02/22-rdf-syntax-ns#"
   xmlns:svg="http://www.w3.org/2000/svg"
   xmlns="http://www.w3.org/2000/svg"
   xmlns:sodipodi="http://sodipodi.sourceforge.net/DTD/sodipodi-0.dtd"
   xmlns:inkscape="http://www.inkscape.org/namespaces/inkscape"
   width="22"
   height="22"
   id="svg27665"
   version="1.1"
   inkscape:version="0.91+devel r"
   sodipodi:docname="urserver.svg">
  <defs
     id="defs27667" />
  <sodipodi:namedview
     id="base"
     pagecolor="#ffffff"
     bordercolor="#666666"
     borderopacity="1.0"
     inkscape:pageopacity="0.0"
     inkscape:pageshadow="2"
     inkscape:zoom="22.4"
     inkscape:cx="7.8247471"
     inkscape:cy="8.2413729"
     inkscape:document-units="px"
     inkscape:current-layer="layer1"
     showgrid="true"
     inkscape:window-width="1920"
     inkscape:window-height="1033"
     inkscape:window-x="-10"
     inkscape:window-y="25"
     inkscape:window-maximized="1"
     inkscape:snap-bbox="false"
     inkscape:bbox-paths="true"
     inkscape:bbox-nodes="true"
     inkscape:snap-bbox-edge-midpoints="true"
     inkscape:snap-bbox-midpoints="true"
     inkscape:object-paths="true"
     inkscape:snap-intersection-paths="true"
     inkscape:object-nodes="true"
     inkscape:snap-smooth-nodes="true"
     inkscape:snap-midpoints="true"
     inkscape:snap-object-midpoints="true"
     inkscape:snap-center="true"
     inkscape:snap-global="true"
     showguides="false"
     inkscape:guide-bbox="true"
     fit-margin-top="0"
     fit-margin-left="0"
     fit-margin-right="0"
     fit-margin-bottom="0"
     inkscape:showpageshadow="false"
     inkscape:snap-nodes="true">
    <sodipodi:guide
       orientation="0,1"
       position="-1494.2276,523.03618"
       id="guide4179" />
    <sodipodi:guide
       orientation="1,0"
       position="-1492.0847,520.17904"
       id="guide4181" />
    <inkscape:grid
       type="xygrid"
       id="grid4279"
       empspacing="5"
       visible="true"
       enabled="true"
       snapvisiblegridlinesonly="true"
       originx="6.6056504e-05px"
       originy="592.00001px" />
  </sodipodi:namedview>
  <metadata
     id="metadata27670">
    <rdf:RDF>
      <cc:Work
         rdf:about="">
        <dc:format>image/svg+xml</dc:format>
        <dc:type
           rdf:resource="http://purl.org/dc/dcmitype/StillImage" />
        <dc:title></dc:title>
      </cc:Work>
    </rdf:RDF>
  </metadata>
  <g
     inkscape:label="Camada 1"
     inkscape:groupmode="layer"
     id="layer1"
     transform="translate(3393.2465,-1644.2411)">
    <circle
       style="color:#000000;display:inline;overflow:visible;visibility:visible;opacity:1;fill:#27303a;fill-opacity:0.753280819999999968;fill-rule:nonzero;stroke:none;stroke-width:1.24997604;stroke-linecap:butt;stroke-linejoin:miter;stroke-miterlimit:4;stroke-dasharray:none;stroke-dashoffset:0;stroke-opacity:1;marker:none;enable-background:accumulate"
       id="circle4149"
       cx="-3418.1223"
       cy="1661.9377"
       r="2.4999521" />
    <path
       style="color:#000000;display:inline;overflow:visible;visibility:visible;opacity:1;fill:#27303a;fill-opacity:0.753280819999999968;fill-rule:nonzero;stroke:none;stroke-width:1;stroke-linecap:butt;stroke-linejoin:miter;stroke-miterlimit:4;stroke-dasharray:none;stroke-dashoffset:0;stroke-opacity:1;marker:none;enable-background:accumulate"
       d="M 12.576172,2 C 15.951079,3.3715883 18.628412,6.0489209 20,9.4238281 L 20,5.0292969 C 19.141568,3.8800683 18.122729,2.8599143 16.974609,2 Z M 7,4 C 5.2607283,4.0039631 3.5471854,4.4203005 2,5.2148438 L 2,7.1425781 C 3.3824171,6.3954062 4.9285883,6.0028236 6.5,6 c 5.246688,4.11e-5 9.499959,4.253312 9.5,9.5 -0.001,1.570912 -0.391585,3.117054 -1.136719,4.5 l 1.933594,0 C 17.587356,18.45181 17.999664,16.738319 18,15 18.000001,8.9248675 13.075132,3.9999994 7,4 Z M 6,9 C 4.569465,9.0006967 3.1734858,9.4396665 2,10.257812 l 0,2.00586 C 2.9844058,11.448583 4.2219461,11.00177 5.5,11 c 3.0375831,-4.1e-5 5.500041,2.462417 5.5,5.5 -6.71e-4,1.277571 -0.446083,2.515058 -1.2597656,3.5 l 1.9941406,0 C 12.555292,18.827425 12.997012,17.431373 13,16 13.000001,12.134007 9.8659935,8.9999994 6,9 Z m -1,5 c -1.6568655,-2.7e-5 -3.0000271,1.343135 -3,3 -2.71e-5,1.656865 1.3431345,3.000027 3,3 1.6568655,2.7e-5 3.0000271,-1.343135 3,-3 2.71e-5,-1.656865 -1.3431345,-3.000027 -3,-3 z"
       transform="translate(-3393.2465,1644.2411)"
       id="circle4175"
       inkscape:connector-curvature="0"
       sodipodi:nodetypes="cccccccccccccccccccccccccccc" />
    <path
       style="color:#000000;display:inline;overflow:visible;visibility:visible;opacity:1;fill:#27303a;fill-opacity:0.753280819999999968;fill-rule:nonzero;stroke:none;stroke-width:1.24997604;stroke-linecap:butt;stroke-linejoin:miter;stroke-miterlimit:4;stroke-dasharray:none;stroke-dashoffset:0;stroke-opacity:1;marker:none;enable-background:accumulate"
       d="m -3417.8726,1655.1878 a 6.4999704,6.4999704 0 0 0 -6.5,6.5 6.4999704,6.4999704 0 0 0 6.5,6.5 6.4999704,6.4999704 0 0 0 6.5,-6.5 6.4999704,6.4999704 0 0 0 -6.5,-6.5 z m -0.5,2 a 5,5 0 0 1 5,5 5,5 0 0 1 -5,5 5,5 0 0 1 -5,-5 5,5 0 0 1 5,-5 z"
       id="circle4173"
       inkscape:connector-curvature="0" />
    <path
       style="color:#000000;display:inline;overflow:visible;visibility:visible;opacity:1;fill:#27303a;fill-opacity:0.753280819999999968;fill-rule:nonzero;stroke:none;stroke-width:1.24997604;stroke-linecap:butt;stroke-linejoin:miter;stroke-miterlimit:4;stroke-dasharray:none;stroke-dashoffset:0;stroke-opacity:1;marker:none;enable-background:accumulate"
       d="m -3417.6226,1650.9378 a 10.49997,10.49997 0 0 0 -10.5,10.5 10.49997,10.49997 0 0 0 10.5,10.5 10.49997,10.49997 0 0 0 10.5,-10.5 10.49997,10.49997 0 0 0 -10.5,-10.5 z m -0.5,2 a 8.9999704,8.9999704 0 0 1 9,9 8.9999704,8.9999704 0 0 1 -9,9 8.9999704,8.9999704 0 0 1 -9,-9 8.9999704,8.9999704 0 0 1 9,-9 z"
       id="circle4177"
       inkscape:connector-curvature="0" />
    <path
       style="color:#000000;display:inline;overflow:visible;visibility:visible;opacity:1;fill:#27303a;fill-opacity:0.753280819999999968;fill-rule:nonzero;stroke:none;stroke-width:1.24997604;stroke-linecap:butt;stroke-linejoin:miter;stroke-miterlimit:4;stroke-dasharray:none;stroke-dashoffset:0;stroke-opacity:1;marker:none;enable-background:accumulate"
       d="m -3417.3726,1646.6878 a 14.49997,14.49997 0 0 0 -14.5,14.5 14.49997,14.49997 0 0 0 14.5,14.5 14.49997,14.49997 0 0 0 14.5,-14.5 14.49997,14.49997 0 0 0 -14.5,-14.5 z m -0.5,2 a 12.99997,12.99997 0 0 1 13,13 12.99997,12.99997 0 0 1 -13,13 12.99997,12.99997 0 0 1 -13,-13 12.99997,12.99997 0 0 1 13,-13 z"
       id="path4153"
       inkscape:connector-curvature="0" />
    <path
       style="color:#000000;font-style:normal;font-variant:normal;font-weight:normal;font-stretch:normal;font-size:medium;line-height:normal;font-family:sans-serif;text-indent:0;text-align:start;text-decoration:none;text-decoration-line:none;text-decoration-style:solid;text-decoration-color:#000000;letter-spacing:normal;word-spacing:normal;text-transform:none;direction:ltr;block-progression:tb;writing-mode:lr-tb;baseline-shift:baseline;text-anchor:start;white-space:normal;shape-padding:0;clip-rule:nonzero;display:inline;overflow:visible;visibility:visible;opacity:1;isolation:auto;mix-blend-mode:normal;color-interpolation:sRGB;color-interpolation-filters:linearRGB;solid-color:#000000;solid-opacity:1;fill:#f1f3f5;fill-opacity:0.90288714000000003;fill-rule:nonzero;stroke:none;stroke-width:2;stroke-linecap:butt;stroke-linejoin:miter;stroke-miterlimit:4;stroke-dasharray:none;stroke-dashoffset:0;stroke-opacity:1;marker:none;color-rendering:auto;image-rendering:auto;shape-rendering:auto;text-rendering:auto;enable-background:accumulate"
       d="M 15.458984,1 C 17.766086,2.3271772 19.678512,4.2443218 21,6.5546875 L 21,4.5410156 C 20.009759,3.1836747 18.816323,1.9902474 17.458984,1 Z M 7,2.9003906 c -2.1836812,0 -4.2291479,0.5903411 -6,1.6074219 L 1,5.7851562 C 2.7849001,4.6215671 4.869318,4.0013985 7,4 c 6.075132,-6e-7 11.000001,4.9248675 11,11 -0.0037,2.131472 -0.626624,4.215953 -1.792969,6 l 1.285157,0 c 1.01708,-1.771134 1.607421,-3.816319 1.607421,-6 C 19.099609,8.3304 13.6696,2.9003906 7,2.9003906 Z m -1,5 c -1.8860048,0 -3.6206893,0.6559269 -5,1.7441406 L 1,11.111328 C 2.314902,9.7637673 4.1172149,9.0027126 6,9 c 3.8659935,-6e-7 7.000001,3.134007 7,7 -6.57e-4,1.881645 -0.758827,3.683794 -2.103516,5 l 1.460938,0 c 1.08732,-1.379417 1.742187,-3.114841 1.742187,-5 C 14.099609,11.5396 10.4605,7.9003906 6,7.9003906 Z M 5,12.900391 c -1.9512979,0 -3.5952866,1.3906 -4,3.226562 l 0,1.746094 C 1.3420427,19.425037 2.5702728,20.655298 4.1210938,21 l 1.7578124,0 C 7.7118445,20.592591 9.0996094,18.949137 9.0996094,17 9.0996094,14.7487 7.2513,12.900391 5,12.900391 Z M 5,14 c 1.6568655,-2.7e-5 3.0000271,1.343135 3,3 2.71e-5,1.656865 -1.3431345,3.000027 -3,3 -1.6568655,2.7e-5 -3.0000271,-1.343135 -3,-3 -2.71e-5,-1.656865 1.3431345,-3.000027 3,-3 z"
       transform="translate(-3393.2465,1644.2411)"
       id="circle4151"
       inkscape:connector-curvature="0"
       sodipodi:nodetypes="cccccsccccccsssccccccsssccccssccccc" />
  </g>
</svg>
