<?xml version="1.0" encoding="UTF-8" standalone="no"?>
<!-- Created with Inkscape (http://www.inkscape.org/) -->

<svg
   xmlns:dc="http://purl.org/dc/elements/1.1/"
   xmlns:cc="http://creativecommons.org/ns#"
   xmlns:rdf="http://www.w3.org/1999/02/22-rdf-syntax-ns#"
   xmlns:svg="http://www.w3.org/2000/svg"
   xmlns="http://www.w3.org/2000/svg"
   xmlns:sodipodi="http://sodipodi.sourceforge.net/DTD/sodipodi-0.dtd"
   xmlns:inkscape="http://www.inkscape.org/namespaces/inkscape"
   version="1.1"
   width="22"
   height="22"
   id="svg2"
   inkscape:version="0.48.4 r9939"
   sodipodi:docname="xorg.svg">
  <sodipodi:namedview
     pagecolor="#ffffff"
     bordercolor="#666666"
     borderopacity="1"
     objecttolerance="10"
     gridtolerance="10"
     guidetolerance="10"
     inkscape:pageopacity="0"
     inkscape:pageshadow="2"
     inkscape:window-width="1920"
     inkscape:window-height="1022"
     id="namedview6"
     showgrid="true"
     inkscape:zoom="29.5"
     inkscape:cx="11.377822"
     inkscape:cy="12.725405"
     inkscape:window-x="-5"
     inkscape:window-y="23"
     inkscape:window-maximized="1"
     inkscape:current-layer="svg2"
     inkscape:snap-global="true"
     inkscape:snap-bbox="true"
     inkscape:bbox-paths="true"
     inkscape:bbox-nodes="true"
     inkscape:snap-bbox-edge-midpoints="true"
     inkscape:snap-bbox-midpoints="true"
     inkscape:object-paths="true"
     inkscape:snap-intersection-paths="true"
     inkscape:object-nodes="true"
     inkscape:snap-smooth-nodes="true"
     inkscape:snap-midpoints="true"
     inkscape:snap-object-midpoints="true"
     inkscape:snap-center="true">
    <inkscape:grid
       type="xygrid"
       id="grid2982"
       empspacing="5"
       visible="true"
       enabled="true"
       snapvisiblegridlinesonly="true" />
  </sodipodi:namedview>
  <defs
     id="defs4" />
  <metadata
     id="metadata7">
    <rdf:RDF>
      <cc:Work
         rdf:about="">
        <dc:format>image/svg+xml</dc:format>
        <dc:type
           rdf:resource="http://purl.org/dc/dcmitype/StillImage" />
        <dc:title />
      </cc:Work>
    </rdf:RDF>
  </metadata>
  <style
     id="style2986"
     type="text/css">
#P1 {fill:url(#LO)}
rect {opacity:.40740739;fill:#000cff;width:.50507629;height:0}
</style>
  <rect
     style="opacity:0.40740739;fill:#000cff"
     x="16.618153"
     y="14.327621"
     width="0.019497991"
     height="0"
     id="rect3002" />
  <style
     id="style2989"
     type="text/css">
#P1 {fill:url(#LO)}
rect {opacity:.40740739;fill:#000cff;width:.50507629;height:0}
</style>
  <path
     style="font-size:medium;font-style:normal;font-variant:normal;font-weight:normal;font-stretch:normal;text-indent:0;text-align:start;text-decoration:none;line-height:normal;letter-spacing:normal;word-spacing:normal;text-transform:none;direction:ltr;block-progression:tb;writing-mode:lr-tb;text-anchor:start;baseline-shift:baseline;color:#000000;fill:#f1f3f5;fill-opacity:0.90288714000000003;fill-rule:nonzero;stroke:none;stroke-width:2;marker:none;visibility:visible;display:inline;overflow:visible;enable-background:accumulate;font-family:Sans;-inkscape-font-specification:Sans"
     d="m 0.03125,1 1.15625,1.59375 6.28125,8.5625 -2.875,3.78125 c 0.2170744,0.253555 0.4555503,0.491726 0.71875,0.71875 L 8.71875,11.1875 2,2 l 4.5,0 5.28125,7.15625 -5.5,7.21875 c 0.2821692,0.176128 0.5627351,0.320734 0.875,0.46875 l 0.03125,0 2.40625,-3.15625 3,4.125 c 0.384223,-0.02761 0.757999,-0.0921 1.125,-0.15625 L 10.1875,12.84375 18.53125,2 20,2 l -6.75,8.84375 4.03125,5.46875 c 0.280673,-0.180864 0.566712,-0.387129 0.8125,-0.59375 L 14.5,10.84375 20.78125,2.59375 22.03125,1 20,1 18.53125,1 18.03125,1 17.75,1.375 12.40625,8.3125 7.3125,1.40625 7,1 6.5,1 2,1 0.03125,1 z m 18.625,15.5 c -0.2547,0.212325 -0.524025,0.40406 -0.8125,0.59375 L 20,20 15.4375,20 14.40625,18.5625 c -0.350975,0.08898 -0.725766,0.157351 -1.09375,0.21875 l 1.3125,1.8125 0.3125,0.40625 0.5,0 L 20,21 21.96875,21 20.8125,19.40625 18.65625,16.5 z M 3.375,16.53125 1.21875,19.40625 -0.03125,21 2,21 3.53125,21 4,21 4.3125,20.59375 6.1875,18.125 C 5.8686935,18.001767 5.5463304,17.864805 5.25,17.71875 L 3.53125,20 2,20 4.1875,17.125 C 3.8981077,16.936598 3.6308549,16.742313 3.375,16.53125 z"
     id="path3002-1"
     inkscape:connector-curvature="0" />
  <path
     style="color:#000000;fill:#27303a;fill-opacity:0.75328081999999996;fill-rule:nonzero;stroke:none;stroke-width:1;marker:none;visibility:visible;display:inline;overflow:visible;enable-background:accumulate"
     d="m 2,2 6.71875,9.1875 -3.40625,4.46875 c 0.2956727,0.255034 0.6212877,0.501867 0.96875,0.71875 l 5.5,-7.21875 L 6.5,2 2,2 z m 16.53125,0 -8.34375,10.84375 3.53125,4.8125 c 1.350675,-0.236086 2.553566,-0.693599 3.5625,-1.34375 L 13.25,10.84375 20,2 18.53125,2 z m -0.6875,15.09375 c -0.981039,0.645094 -2.146839,1.141529 -3.4375,1.46875 L 15.4375,20 20,20 17.84375,17.09375 z M 4.1875,17.125 2,20 3.53125,20 5.25,17.71875 C 4.8780986,17.535447 4.5196939,17.341268 4.1875,17.125 z"
     id="path3883"
     inkscape:connector-curvature="0" />
  <path
     style="color:#000000;fill:#8a929e;fill-opacity:0.60931899;fill-rule:nonzero;stroke:none;stroke-width:1;marker:none;visibility:visible;display:inline;overflow:visible;enable-background:accumulate"
     d="m 11,5 c -0.332311,0 -0.663699,0.03573 -1,0.0625 l 0.71875,0.96875 C 10.72315,5.954626 10.77268,5.8751705 10.8125,5.8125 11.127795,5.3162149 11.705749,5.40625 11.75,5.40625 c 0.931377,0 1.818073,0.1073474 2.65625,0.3125 l 0,-0.03125 0.1875,-0.25 C 13.475842,5.1342401 12.269743,5 11,5 z m 6.625,1.75 -0.21875,0.28125 c 1.701065,1.138999 2.78125,2.76931 2.78125,4.59375 0,1.565206 -0.796262,3.000003 -2.09375,4.09375 l 0.5625,0.75 C 20.114016,15.250105 21,13.714325 21,12 21,9.915614 19.684642,8.035456 17.625,6.75 z M 4.28125,6.8125 C 2.2761929,8.095501 1.0000005,9.947282 1,12 c 0,1.740021 0.9094512,3.305109 2.40625,4.53125 l 1.1875,-1.5625 C 3.7634822,14.006138 3.28125,12.84889 3.28125,11.625 c 5e-7,-1.429474 0.6475605,-2.729978 1.75,-3.78125 l -0.75,-1.03125 z m 2.875,10.03125 -0.96875,1.3125 C 7.6108029,18.702821 9.263799,19 11,19 c 0.801942,0 1.564966,-0.09353 2.3125,-0.21875 L 12.59375,17.8125 c -0.284073,0.02125 -0.552095,0.03125 -0.84375,0.03125 -1.687333,0 -3.2735949,-0.372356 -4.59375,-1 z"
     id="P1"
     inkscape:connector-curvature="0" />
  <rect
     style="opacity:0.40740739;fill:#000cff"
     x="26.114241"
     y="9.9903183"
     width="0.030639701"
     height="0"
     id="rect3005" />
</svg>
