<?xml version="1.0" encoding="UTF-8" standalone="no"?>
<!-- Created with Inkscape (http://www.inkscape.org/) -->

<svg
   xmlns:dc="http://purl.org/dc/elements/1.1/"
   xmlns:cc="http://creativecommons.org/ns#"
   xmlns:rdf="http://www.w3.org/1999/02/22-rdf-syntax-ns#"
   xmlns:svg="http://www.w3.org/2000/svg"
   xmlns="http://www.w3.org/2000/svg"
   xmlns:xlink="http://www.w3.org/1999/xlink"
   xmlns:sodipodi="http://sodipodi.sourceforge.net/DTD/sodipodi-0.dtd"
   xmlns:inkscape="http://www.inkscape.org/namespaces/inkscape"
   width="64"
   height="64"
   id="svg13094"
   version="1.1"
   inkscape:version="0.48.3.1 r9886"
   sodipodi:docname="geogebra.svg">
  <sodipodi:namedview
     id="base"
     pagecolor="#ffffff"
     bordercolor="#666666"
     borderopacity="1.0"
     inkscape:pageopacity="0"
     inkscape:pageshadow="2"
     inkscape:zoom="11.313709"
     inkscape:cx="32.188161"
     inkscape:cy="30.900729"
     inkscape:document-units="px"
     inkscape:current-layer="svg13094"
     showgrid="false"
     inkscape:snap-bbox="true"
     inkscape:bbox-paths="true"
     inkscape:bbox-nodes="true"
     inkscape:snap-bbox-edge-midpoints="true"
     inkscape:snap-bbox-midpoints="true"
     inkscape:object-paths="true"
     inkscape:snap-intersection-paths="true"
     inkscape:object-nodes="true"
     inkscape:snap-smooth-nodes="true"
     inkscape:snap-midpoints="true"
     inkscape:snap-object-midpoints="true"
     inkscape:snap-center="true"
     showguides="true"
     inkscape:guide-bbox="true"
     inkscape:window-width="1920"
     inkscape:window-height="1023"
     inkscape:window-x="-10"
     inkscape:window-y="35"
     inkscape:window-maximized="1"
     inkscape:snap-global="false"
     fit-margin-top="0"
     fit-margin-left="0"
     fit-margin-right="0"
     fit-margin-bottom="0"
     showborder="true"
     inkscape:showpageshadow="false"
     inkscape:snap-page="true">
    <inkscape:grid
       type="xygrid"
       id="grid3075"
       empspacing="5"
       visible="true"
       enabled="true"
       snapvisiblegridlinesonly="true"
       originx="1.6362304e-08px"
       originy="18px" />
  </sodipodi:namedview>
  <defs
     id="defs13096">
    <linearGradient
       id="linearGradient5602">
      <stop
         id="stop5604"
         style="stop-color:#5b5fce;stop-opacity:1;"
         offset="0" />
      <stop
         id="stop5606"
         style="stop-color:#3f41b5;stop-opacity:1;"
         offset="1" />
    </linearGradient>
    <radialGradient
       inkscape:collect="always"
       xlink:href="#linearGradient5602"
       id="radialGradient3921"
       cx="32"
       cy="15.866668"
       fx="32"
       fy="15.866668"
       r="32"
       gradientTransform="matrix(0,1.625,-1.625,0,57.783335,-35)"
       gradientUnits="userSpaceOnUse" />
  </defs>
  <metadata
     id="metadata13099">
    <rdf:RDF>
      <cc:Work
         rdf:about="">
        <dc:format>image/svg+xml</dc:format>
        <dc:type
           rdf:resource="http://purl.org/dc/dcmitype/StillImage" />
        <dc:title />
      </cc:Work>
    </rdf:RDF>
  </metadata>
  <path
     style="color:#000000;fill:url(#radialGradient3921);fill-opacity:1;fill-rule:nonzero;stroke:none;stroke-width:2.28571415000000000;marker:none;visibility:visible;display:inline;overflow:visible;enable-background:accumulate"
     d="M 0 4 L 0 34 L 0 62 L 2 64 L 32 64 L 62 64 L 64 62 L 64 34 L 64 4 L 32 4 L 0 4 z "
     id="path6498" />
  <path
     style="color:#000000;fill:#888cff;fill-opacity:1;fill-rule:nonzero;stroke:none;marker:none;visibility:visible;display:inline;overflow:visible;enable-background:accumulate;stroke-width:2.28571415000000000"
     d="M 2 0 L 0 1 L 0 4 L 32 4 L 64 4 L 64 1 L 62 0 L 32 0 L 2 0 z "
     id="path6502" />
  <path
     style="fill:#ffffff;fill-opacity:0.28673837;fill-rule:nonzero"
     d="M 0 3 L 0 6 L 2 4 L 32 4 L 62 4 L 64 3 L 32 3 L 0 3 z "
     id="path4298" />
  <path
     style="fill:#1f0700;fill-opacity:0.06978802;fill-rule:nonzero"
     d="M 2 0 L 0 1 L 32 1 L 64 1 L 62 0 L 32 0 L 2 0 z "
     id="path4444" />
  <path
     d="M 64,6 62,4 64,3 z"
     id="path3028"
     style="fill:#1f0700;fill-opacity:0.13759861"
     inkscape:connector-curvature="0" />
  <path
     style="fill:#000000;fill-opacity:0.11130587;fill-rule:nonzero"
     d="M 63 0.5 L 63 34 L 63 63 L 64 62 L 64 34 L 64 1 L 63 0.5 z M 63 63 L 32 63 L 1 63 L 2 64 L 32 64 L 62 64 L 63 63 z "
     id="path4366" />
  <g
     id="g3043"
     inkscape:export-filename="folder.png"
     inkscape:export-xdpi="90"
     inkscape:export-ydpi="90"
     transform="translate(-0.62500009,0.082283)" />
  <path
     style="fill:#ffffff;fill-opacity:0.35070675;fill-rule:nonzero"
     d="M 0 1 L 0 34 L 0 62 L 1 63 L 1 34 L 1 5 L 2 4 L 1 3.46875 L 1 1 L 0 1 z "
     id="path3864" />
  <g
     id="scalable"
     transform="matrix(1.0385892,0,0,1.0385892,1214.7222,1878.8121)"
     inkscape:label="#g3701"
     style="fill:#ffffff" />
  <g
     id="g3859"
     transform="translate(-0.77563952,-1.0262539)">
    <path
       sodipodi:type="arc"
       style="color:#000000;fill:none;stroke:#dadaea;stroke-width:2.56619071999999981;stroke-miterlimit:4;stroke-opacity:1;stroke-dasharray:none;marker:none;visibility:visible;display:inline;overflow:visible;enable-background:accumulate"
       id="path3808"
       sodipodi:cx="35.266949"
       sodipodi:cy="36.864777"
       sodipodi:rx="24.395184"
       sodipodi:ry="20.329319"
       d="m 59.662132,36.864777 c 0,11.227572 -10.922095,20.329319 -24.395183,20.329319 -13.473088,0 -24.395184,-9.101747 -24.395184,-20.329319 0,-11.227573 10.922096,-20.329319 24.395184,-20.329319 13.473088,0 24.395183,9.101746 24.395183,20.329319 z"
       transform="matrix(0.78442029,0,0,0.7743429,5.0837706,6.0207016)" />
    <g
       id="g3848">
      <path
         sodipodi:type="arc"
         style="color:#000000;fill:#dadaea;fill-opacity:1;fill-rule:nonzero;stroke:none;stroke-width:1.76776683000000001;marker:none;visibility:visible;display:inline;overflow:visible;enable-background:accumulate"
         id="path3831"
         sodipodi:cx="13.611805"
         sodipodi:cy="16.53546"
         sodipodi:rx="3.5355337"
         sodipodi:ry="3.5355337"
         d="m 17.147339,16.53546 c 0,1.952621 -1.582913,3.535533 -3.535534,3.535533 -1.952621,0 -3.535534,-1.582912 -3.535534,-3.535533 0,-1.952622 1.582913,-3.535534 3.535534,-3.535534 1.952621,0 3.535534,1.582912 3.535534,3.535534 z"
         transform="matrix(1.3720563,0,0,1.3720563,32.920627,14.626438)" />
    </g>
    <use
       x="0"
       y="0"
       xlink:href="#g3848"
       id="use3853"
       transform="translate(-10.32027,-16.888252)"
       width="64"
       height="64" />
    <use
       x="0"
       y="0"
       xlink:href="#g3848"
       id="use3855"
       transform="translate(-31.608203,-14.598545)"
       width="64"
       height="64" />
    <use
       x="0"
       y="0"
       xlink:href="#g3848"
       id="use3857"
       transform="translate(-35.697757,4.8402377)"
       width="64"
       height="64" />
    <use
       height="64"
       width="64"
       transform="translate(-16.176967,12.843051)"
       id="use3851"
       xlink:href="#g3848"
       y="0"
       x="0" />
  </g>
</svg>
