<svg xmlns="http://www.w3.org/2000/svg" xmlns:xlink="http://www.w3.org/1999/xlink" viewBox="0 0 64 64"><g color="#000"><path d="m0 4v30 28l2 2h30 30l2-2v-28-30h-32-32" fill="#2278d2"/><path d="m32.35 12.397c-10.588 0-19.16 9.849-19.16 20.438 0 2.388 3.071 1.988 2.656 5.906-.789 7.457 3.818 14.02 11.781 15.344 1.356-.778-5.642-13.875-8.313-16.5-1.818-1.787-3.135-.611-3.906-4.469-1.811-9.06 7.793-16.938 16.938-16.938 9.144 0 18.748 7.879 16.938 16.938-.771 3.858-2.088 2.682-3.906 4.469-2.671 2.625-9.669 15.722-8.313 16.5 7.963-1.327 12.57-7.886 11.781-15.344-.415-3.919 2.656-3.518 2.656-5.906 0-10.588-8.568-20.438-19.16-20.438" fill="#cbdff4"/><path d="m2 0l-2 1v3h32 32v-3l-2-1h-30-30" fill="#67c9ff"/></g><path d="m64 6l-2-2 2-1z" fill="#49a0e4"/><path d="m0 3v3l2-2" fill="#86daff"/><g id="0" transform="matrix(.70024 0 0 .70024-10.635 18.06)" color="#000"><path d="m27.53025 29.90539a12.551543 10.341765 45 0 0 -2.641192 1.796411 12.551543 10.341765 45 0 0 1.562678 16.187731 12.551543 10.341765 45 0 0 16.18773 1.562678 12.551543 10.341765 45 0 0 -1.562676 -16.187731 12.551543 10.341765 45 0 0 -3.990168 -2.844875 8.839115 8.839115 0 0 1 3.659601 7.152253 8.839115 8.839115 0 0 1 -8.838473 8.838475 8.839115 8.839115 0 0 1 -8.838476 -8.838475 8.839115 8.839115 0 0 1 4.460976 -7.666467" fill="#0041a2" fill-opacity=".213"/><circle cx="29.13" cy="33.939" r="3.71" fill="#70e1ff" fill-opacity=".355"/></g><use height="64" width="64" transform="matrix(.53897 0 0 .53897.605-5.591)" xlink:href="#0"/><use xlink:href="#0" transform="matrix(.53897 0 0 .53897 5.555-13.01)" width="64" height="64"/><use xlink:href="#0" transform="matrix(.50606 0 0 .50606 46.819-7.424)" width="64" height="64"/><use xlink:href="#0" transform="matrix(.53897 0 0 .53897 48.777 25.17)" width="64" height="64"/><use xlink:href="#0" transform="matrix(.50606 0 0 .50606 31.351 26.16)" width="64" height="64"/><use xlink:href="#0" transform="matrix(1.30731 0 0 1.30731 17.13-26.883)" width="64" height="64"/><use xlink:href="#0" transform="matrix(.53897 0 0 .53897 11.301 4.663)" width="64" height="64"/><use height="64" width="64" transform="matrix(.58293 0 0 .58293 10.287 31.17)" xlink:href="#0"/><use xlink:href="#0" transform="matrix(.75853 0 0 .75853 11.185-18.772)" width="64" height="64"/></svg>