<?xml version="1.0" encoding="UTF-8" standalone="no"?>
<!-- Created with Inkscape (http://www.inkscape.org/) -->

<svg
   xmlns:dc="http://purl.org/dc/elements/1.1/"
   xmlns:cc="http://creativecommons.org/ns#"
   xmlns:rdf="http://www.w3.org/1999/02/22-rdf-syntax-ns#"
   xmlns:svg="http://www.w3.org/2000/svg"
   xmlns="http://www.w3.org/2000/svg"
   xmlns:sodipodi="http://sodipodi.sourceforge.net/DTD/sodipodi-0.dtd"
   xmlns:inkscape="http://www.inkscape.org/namespaces/inkscape"
   width="64"
   height="64"
   id="svg13094"
   version="1.1"
   inkscape:version="0.91+devel r"
   sodipodi:docname="atom.svg">
  <sodipodi:namedview
     id="base"
     pagecolor="#ffffff"
     bordercolor="#666666"
     borderopacity="1.0"
     inkscape:pageopacity="0"
     inkscape:pageshadow="2"
     inkscape:zoom="11.313709"
     inkscape:cx="34.637151"
     inkscape:cy="31.156487"
     inkscape:document-units="px"
     inkscape:current-layer="svg13094"
     showgrid="true"
     inkscape:snap-bbox="true"
     inkscape:bbox-paths="true"
     inkscape:bbox-nodes="true"
     inkscape:snap-bbox-edge-midpoints="true"
     inkscape:snap-bbox-midpoints="true"
     inkscape:object-paths="true"
     inkscape:snap-intersection-paths="true"
     inkscape:object-nodes="true"
     inkscape:snap-smooth-nodes="true"
     inkscape:snap-midpoints="true"
     inkscape:snap-object-midpoints="true"
     inkscape:snap-center="true"
     showguides="false"
     inkscape:guide-bbox="true"
     inkscape:window-width="1920"
     inkscape:window-height="1023"
     inkscape:window-x="-10"
     inkscape:window-y="35"
     inkscape:window-maximized="1"
     inkscape:snap-global="true"
     fit-margin-top="0"
     fit-margin-left="0"
     fit-margin-right="0"
     fit-margin-bottom="0"
     showborder="true"
     inkscape:showpageshadow="false"
     inkscape:snap-page="true">
    <inkscape:grid
       type="xygrid"
       id="grid3075"
       empspacing="5"
       visible="true"
       enabled="true"
       snapvisiblegridlinesonly="true"
       originx="1.6362304e-08px"
       originy="18px" />
    <sodipodi:guide
       orientation="0,1"
       position="-11,30"
       id="guide9148" />
    <sodipodi:guide
       orientation="1,0"
       position="32,70"
       id="guide9150" />
  </sodipodi:namedview>
  <defs
     id="defs13096" />
  <metadata
     id="metadata13099">
    <rdf:RDF>
      <cc:Work
         rdf:about="">
        <dc:format>image/svg+xml</dc:format>
        <dc:type
           rdf:resource="http://purl.org/dc/dcmitype/StillImage" />
        <dc:title></dc:title>
      </cc:Work>
    </rdf:RDF>
  </metadata>
  <path
     id="path6538"
     d="m 0,4 0,30 0,28 2,2 30,0 30,0 2,-2 L 64,34 64,4 32,4 0,4 z"
     style="color:#000000;fill:#c4b280;fill-opacity:1;fill-rule:nonzero;stroke:none;stroke-width:2.28571415;marker:none;visibility:visible;display:inline;overflow:visible;enable-background:accumulate"
     inkscape:connector-curvature="0" />
  <path
     style="color:#000000;fill:#f4e4a6;fill-opacity:1;fill-rule:nonzero;stroke:none;marker:none;visibility:visible;display:inline;overflow:visible;enable-background:accumulate"
     d="M 2 0 L 0 1 L 0 4 L 19.5625 4 L 39.125 4 L 64 4 L 64 1 L 62 0 L 39.125 0 L 19.5625 0 L 2 0 z "
     id="path6688" />
  <g
     id="g3043"
     inkscape:export-filename="folder.png"
     inkscape:export-xdpi="90"
     inkscape:export-ydpi="90"
     transform="translate(-0.62500009,0.082283)" />
  <g
     id="scalable"
     transform="matrix(1.0385892,0,0,1.0385892,1214.7222,1878.8121)"
     inkscape:label="#g3701"
     style="fill:#ffffff" />
  <path
     d="M 64,6 62,4 64,3 z"
     id="path3028"
     style="fill:#ddcc94;fill-opacity:1"
     inkscape:connector-curvature="0" />
  <path
     style="fill:#faecb8;fill-opacity:1;fill-rule:nonzero"
     d="M 0,3 0,6 2,4 Z"
     id="path4298"
     inkscape:connector-curvature="0"
     sodipodi:nodetypes="cccc" />
  <path
     style="font-size:medium;font-style:normal;font-variant:normal;font-weight:normal;font-stretch:normal;text-indent:0;text-align:start;text-decoration:none;line-height:normal;letter-spacing:normal;word-spacing:normal;text-transform:none;direction:ltr;block-progression:tb;writing-mode:lr-tb;text-anchor:start;baseline-shift:baseline;color:#000000;fill:#633c00;fill-opacity:0.5;fill-rule:nonzero;stroke:none;stroke-width:4.61538458;marker:none;visibility:visible;display:inline;overflow:visible;enable-background:accumulate;font-family:Sans;-inkscape-font-specification:Sans"
     d="m 21.967951,11.344501 c -0.612215,-0.02527 -1.210695,0.04477 -1.78125,0.21875 -1.588055,0.484246 -2.682423,1.800189 -3.21875,3.4375 -0.536328,1.63731 -0.608642,3.6603 -0.34375,5.9375 0.170933,1.469464 0.509024,3.069654 0.96875,4.75 -0.310896,0.08132 -0.633309,0.16283 -0.9375,0.25 -5.437595,1.558216 -8.9039439,3.704628 -9.8750005,6.65625 -0.4855282,1.47581 -0.1560623,3.098317 0.84375,4.4375 0.9998123,1.339183 2.5979445,2.455353 4.7812505,3.46875 a 1.1557957,1.1557957 0 1 0 0.96875,-2.09375 c -1.96064,-0.910044 -3.216984,-1.89988 -3.8750005,-2.78125 -0.6580169,-0.881369 -0.7549985,-1.537408 -0.5,-2.3125 0.509997,-1.550185 3.2021915,-3.691823 8.3125005,-5.15625 0.303942,-0.0871 0.624999,-0.169333 0.9375,-0.25 0.646317,1.94961 1.480971,3.959248 2.46875,6.0625 -1.584384,3.395372 -2.831653,6.831063 -3.5625,10.0625 -0.609517,2.694975 -0.795485,4.988145 -0.59375,6.90625 0.201735,1.918105 0.797267,3.490624 1.9375,4.53125 1.140233,1.040627 2.756817,1.384173 4.4375,1.0625 1.680683,-0.321673 3.514743,-1.232556 5.5,-2.71875 a 1.1594129,1.1594129 0 1 0 -1.40625,-1.84375 c -1.801996,1.349001 -3.362571,2.057571 -4.53125,2.28125 -1.168679,0.223678 -1.868793,0.05028 -2.4375,-0.46875 -0.568707,-0.519027 -1.054499,-1.532035 -1.21875,-3.09375 -0.164252,-1.561714 -0.0075,-3.636079 0.5625,-6.15625 0.563596,-2.491937 1.486656,-5.153391 2.65625,-7.84375 0.08692,0.16505 0.161127,0.334497 0.25,0.5 3.217592,5.99193 7.110722,11.097335 10.875,14.59375 1.88214,1.748206 3.72828,3.132135 5.5,3.96875 1.77172,0.836615 3.505695,1.171746 5.09375,0.6875 1.588054,-0.484246 2.713673,-1.80019 3.25,-3.4375 0.536328,-1.63731 0.608642,-3.629049 0.34375,-5.90625 -0.529784,-4.554401 -2.469908,-10.28932 -5.6875,-16.28125 a 1.1557957,1.1557957 0 1 0 -2.03125,1.09375 c 3.109162,5.790007 4.957882,11.314366 5.4375,15.4375 0.239809,2.061567 0.12803,3.783442 -0.25,4.9375 -0.37803,1.154058 -0.913575,1.691978 -1.71875,1.9375 -0.805176,0.245522 -2.007373,0.09632 -3.46875,-0.59375 -1.461378,-0.690069 -3.146978,-1.865916 -4.90625,-3.5 -3.518545,-3.268166 -7.297087,-8.241243 -10.40625,-14.03125 -0.372933,-0.694491 -0.726088,-1.37729 -1.0625,-2.0625 1.286589,-2.610397 2.795471,-5.15914 4.40625,-7.5625 8.433234,-0.538031 17.453079,0.562623 22.90625,3.09375 1.676982,0.778383 2.907798,1.649391 3.625,2.4375 0.717201,0.788109 0.933001,1.425792 0.90625,2.0625 -0.02675,0.636708 -0.32536,1.36003 -1.125,2.15625 -0.799639,0.796219 -2.094323,1.643553 -3.84375,2.40625 a 1.1613065,1.1613065 0 1 0 0.9375,2.125 c 1.933458,-0.842928 3.44425,-1.792648 4.53125,-2.875 1.087001,-1.082352 1.756218,-2.347919 1.8125,-3.6875 0.05628,-1.339581 -0.520516,-2.639337 -1.53125,-3.75 -1.010734,-1.110663 -2.443216,-2.069859 -4.3125,-2.9375 -5.637694,-2.616775 -14.02942,-3.824981 -22.1875,-3.5 2.433695,-3.27476 5.024254,-6.091976 7.53125,-7.96875 1.611471,-1.206371 3.0318,-1.926107 4.15625,-2.21875 1.124449,-0.292643 1.930622,-0.181378 2.5,0.15625 0.569378,0.337628 1.04516,0.98325 1.34375,2.125 0.29859,1.14175 0.378471,2.735979 0.125,4.75 a 1.1557957,1.1557957 0 1 0 2.28125,0.3125 c 0.278851,-2.215687 0.217346,-4.076946 -0.1875,-5.625 -0.404847,-1.548054 -1.206879,-2.82005 -2.40625,-3.53125 -1.199372,-0.7112 -2.679584,-0.838075 -4.21875,-0.4375 -1.539166,0.400575 -3.160934,1.295036 -4.9375,2.625 -3.189803,2.387934 -6.397243,5.945037 -9.25,10.03125 -2.240727,0.196558 -4.415107,0.503365 -6.5,0.9375 -0.451345,-1.624776 -0.779405,-3.140903 -0.9375,-4.5 -0.239809,-2.061567 -0.128031,-3.752192 0.25,-4.90625 0.37803,-1.154057 0.913575,-1.723228 1.71875,-1.96875 1.139046,-0.347329 3.185808,0.138919 5.71875,1.9375 a 1.1557957,1.1557957 0 1 0 1.34375,-1.875 c -2.116478,-1.50286 -4.132105,-2.424189 -5.96875,-2.5 z m 2.6875,15.40625 c -0.926393,1.471791 -1.814959,2.986168 -2.625,4.53125 -0.578524,-1.345507 -1.074573,-2.645344 -1.5,-3.90625 1.328646,-0.263691 2.709513,-0.462415 4.125,-0.625 z m 7.21875,4.25 c -1.65039,0 -3,1.34961 -3,3 0,1.65039 1.34961,3 3,3 1.65039,0 2.96875,-1.34961 2.96875,-3 0,-1.65039 -1.31836,-3 -2.96875,-3 z"
     id="path3861"
     inkscape:connector-curvature="0" />
  <path
     style="font-size:medium;font-style:normal;font-variant:normal;font-weight:normal;font-stretch:normal;text-indent:0;text-align:start;text-decoration:none;line-height:normal;letter-spacing:normal;word-spacing:normal;text-transform:none;direction:ltr;block-progression:tb;writing-mode:lr-tb;text-anchor:start;baseline-shift:baseline;color:#000000;fill:#472b00;fill-opacity:0.17647059;fill-rule:nonzero;stroke:none;stroke-width:4.61538458;marker:none;visibility:visible;display:inline;overflow:visible;enable-background:accumulate;font-family:Sans;-inkscape-font-specification:Sans;opacity:1;stroke-linecap:butt;stroke-linejoin:miter;stroke-miterlimit:4;stroke-dasharray:none;stroke-dashoffset:0;stroke-opacity:1"
     d="m 21.96875,11.34375 c -0.612215,-0.02527 -1.210695,0.04477 -1.78125,0.21875 -1.588055,0.484246 -2.682423,1.800189 -3.21875,3.4375 -0.536328,1.63731 -0.608642,3.6603 -0.34375,5.9375 0.170933,1.469464 0.509024,3.069654 0.96875,4.75 -0.310896,0.08132 -0.633309,0.16283 -0.9375,0.25 -5.437595,1.558216 -8.9039434,3.704628 -9.875,6.65625 C 6.2957218,34.06956 6.6251877,35.692067 7.625,37.03125 7.9476198,37.463378 8.3657245,37.860273 8.8125,38.25 8.752894,38.17654 8.6808719,38.106087 8.625,38.03125 7.6251877,36.692067 7.2957218,35.06956 7.78125,33.59375 c 0.9710566,-2.951622 4.437405,-5.098034 9.875,-6.65625 0.304191,-0.08717 0.626604,-0.16868 0.9375,-0.25 -0.459726,-1.680346 -0.797817,-3.280536 -0.96875,-4.75 -0.264892,-2.2772 -0.192578,-4.30019 0.34375,-5.9375 0.536327,-1.637311 1.630695,-2.953254 3.21875,-3.4375 0.570555,-0.17398 1.169035,-0.24402 1.78125,-0.21875 1.690714,0.06979 3.535644,0.890653 5.46875,2.1875 a 1.1557957,1.1557957 0 0 0 -0.5,-0.6875 c -2.116478,-1.50286 -4.132105,-2.424189 -5.96875,-2.5 z m 20.25,0 c -0.548905,-0.0011 -1.110313,0.06853 -1.6875,0.21875 -1.539166,0.400575 -3.160934,1.295036 -4.9375,2.625 -3.189803,2.387934 -6.397243,5.945037 -9.25,10.03125 -1.989153,0.17449 -3.912856,0.452297 -5.78125,0.8125 0.09341,0.376473 0.173013,0.735363 0.28125,1.125 2.084893,-0.434135 4.259273,-0.740942 6.5,-0.9375 2.852757,-4.086213 6.060197,-7.643316 9.25,-10.03125 1.776566,-1.329964 3.398334,-2.224425 4.9375,-2.625 1.539166,-0.400575 3.019378,-0.2737 4.21875,0.4375 0.10987,0.06515 0.209298,0.144406 0.3125,0.21875 C 45.693781,12.728444 45.265529,12.305697 44.75,12 44.000393,11.5555 43.133592,11.345632 42.21875,11.34375 z m 2.25,3.5625 c 0.184494,0.32046 0.341849,0.702256 0.46875,1.1875 0.29859,1.14175 0.378471,2.735979 0.125,4.75 a 1.1557957,1.1557957 0 0 0 1,1.40625 1.1557957,1.1557957 0 0 1 0,-0.40625 c 0.253471,-2.014021 0.17359,-3.60825 -0.125,-4.75 -0.29859,-1.14175 -0.774372,-1.787372 -1.34375,-2.125 -0.03844,-0.0228 -0.08437,-0.04182 -0.125,-0.0625 z m -12,9.03125 c -0.416866,-0.0029 -0.832803,0.02621 -1.25,0.03125 -0.269089,0.345943 -0.546836,0.673775 -0.8125,1.03125 8.15808,-0.324981 16.549806,0.883225 22.1875,3.5 1.385607,0.643139 2.525765,1.3256 3.4375,2.09375 -0.04366,-0.05068 -0.07957,-0.106323 -0.125,-0.15625 -1.010734,-1.110663 -2.443216,-2.069859 -4.3125,-2.9375 -4.932982,-2.289678 -11.976417,-3.513177 -19.125,-3.5625 z m -6.8125,3.8125 c -0.590819,0.06786 -1.172524,0.136199 -1.75,0.21875 -0.537925,0.890373 -1.036692,1.80295 -1.53125,2.71875 0.207866,0.529923 0.422163,1.049319 0.65625,1.59375 0.810041,-1.545082 1.698607,-3.059459 2.625,-4.53125 z M 19.25,28.90625 c -0.197744,0.05104 -0.395658,0.103115 -0.59375,0.15625 0.577842,1.58715 1.268481,3.215565 2.0625,4.90625 -1.584384,3.395372 -2.831653,6.831063 -3.5625,10.0625 -0.609517,2.694975 -0.795485,4.988145 -0.59375,6.90625 0.201735,1.918105 0.797267,3.490624 1.9375,4.53125 0.120048,0.109561 0.244873,0.187105 0.375,0.28125 -0.730491,-0.993503 -1.152526,-2.291459 -1.3125,-3.8125 -0.201735,-1.918105 -0.01577,-4.211275 0.59375,-6.90625 0.730847,-3.231437 1.978116,-6.667128 3.5625,-10.0625 -0.987779,-2.103252 -1.822433,-4.11289 -2.46875,-6.0625 z m 21.1875,1.25 a 1.1557957,1.1557957 0 0 0 -0.78125,1.75 c 3.109162,5.790007 4.957882,11.314366 5.4375,15.4375 0.239809,2.061567 0.12803,3.783442 -0.25,4.9375 -0.37803,1.154058 -0.913575,1.691978 -1.71875,1.9375 -0.805176,0.245522 -2.007373,0.09632 -3.46875,-0.59375 -1.461378,-0.690069 -3.146978,-1.865916 -4.90625,-3.5 0.334942,0.337006 0.668889,0.69245 1,1 1.759272,1.634084 3.444872,2.809931 4.90625,3.5 1.461377,0.69007 2.663574,0.839272 3.46875,0.59375 0.805175,-0.245522 1.34072,-0.783442 1.71875,-1.9375 0.37803,-1.154058 0.489809,-2.875933 0.25,-4.9375 -0.479618,-4.123134 -2.328338,-9.647493 -5.4375,-15.4375 A 1.1557957,1.1557957 0 0 1 41.875,31.1875 c -0.06627,-0.12526 -0.120111,-0.249506 -0.1875,-0.375 a 1.1557957,1.1557957 0 0 0 -1.25,-0.65625 z M 31.875,31 c -1.65039,0 -3,1.34961 -3,3 0,1.080585 0.574758,2.034188 1.4375,2.5625 C 30.033915,36.107566 29.875,35.569805 29.875,35 c 0,-1.65039 1.34961,-3 3,-3 0.567322,0 1.08246,0.161152 1.53125,0.4375 C 33.886853,31.576268 32.954444,31 31.875,31 z m 22.59375,1.3125 c 0.499887,0.643697 0.679246,1.202676 0.65625,1.75 -0.02675,0.636708 -0.32536,1.36003 -1.125,2.15625 -0.799639,0.796219 -2.094323,1.643553 -3.84375,2.40625 a 1.1613065,1.1613065 0 0 0 0.3125,2.21875 1.1613065,1.1613065 0 0 1 0.6875,-1.21875 C 52.905677,38.862303 54.200361,38.014969 55,37.21875 55.79964,36.42253 56.09825,35.699208 56.125,35.0625 56.15175,34.425792 55.935951,33.788109 55.21875,33 c -0.205981,-0.226346 -0.460886,-0.451637 -0.75,-0.6875 z m -43.90625,4.375 c 0.633847,0.817801 1.791521,1.715653 3.53125,2.5625 A 1.1557957,1.1557957 0 0 0 13.375,38.40625 C 12.174856,37.849195 11.259164,37.261172 10.5625,36.6875 z m 12.5,1 c -0.06799,0.156403 -0.121195,0.31257 -0.1875,0.46875 2.914573,5.22077 6.309968,9.704849 9.65625,12.96875 -3.226956,-3.372091 -6.475391,-7.828706 -9.21875,-12.9375 -0.08887,-0.165503 -0.16308,-0.33495 -0.25,-0.5 z m 4.65625,14.03125 a 1.1594129,1.1594129 0 0 0 -0.6875,0.25 C 25.229254,53.317751 23.668679,54.026321 22.5,54.25 c -0.861227,0.164833 -1.45026,0.0896 -1.9375,-0.15625 0.159996,0.2776 0.313878,0.517637 0.5,0.6875 0.568707,0.51903 1.268821,0.692428 2.4375,0.46875 1.168679,-0.223679 2.729254,-0.932249 4.53125,-2.28125 A 1.1594129,1.1594129 0 0 1 28.875,52.75 1.1594129,1.1594129 0 0 0 27.71875,51.71875 z"
     id="path3850"
     inkscape:connector-curvature="0" />
</svg>
