<svg xmlns="http://www.w3.org/2000/svg" xmlns:xlink="http://www.w3.org/1999/xlink" viewBox="0 0 64 64"><defs><linearGradient id="1" gradientUnits="userSpaceOnUse" y1="59" x2="0" y2="15"><stop stop-color="#ebebeb"/><stop offset=".5" stop-color="#ebebeb"/><stop offset=".503" stop-color="#d6d6d6"/><stop offset="1" stop-color="#d6d6d6"/></linearGradient></defs><g color="#000"><path d="m0 15h64v46l-3 3h-58l-3-3" fill="#d13c2f"/><path d="m6 15v44h24l33 2-3-7v-39z" fill-opacity=".215" fill="#500"/><path d="m5 14v44h54v-44z" fill="#bcbcbc"/><path d="m5 15v44h25l29-6v-38z" fill="url(#1)"/><path d="m0 4c0 18.15 0 43.3 0 11h64c0 32.3 0 7.154 0-11h-32" fill="#d13c2f"/><path d="m0 18c0-4.951 0-11.808 0-3h64c0-8.808 0-1.951 0 3h-32z" fill-opacity=".215" fill="#500"/><path d="m2 1l-2 1v2h19.563 19.563 24.875v-2l-2-1h-22.875-19.563" fill="#ff6755"/></g><path d="m0 3v3l2-2" fill="#ff9285"/><g transform="translate(4)"><path fill="#dee6ee" color="#000" d="m9 0h4v11h-4z" id="2"/><path d="m13 1v3.781c.447.725.719 1.522.719 2.219 0 .696-.273 1.167-.719 1.375v2.625h-3.781c.605.521 1.247.994 1.906 1.375 3.802 2.195 6.875.896 6.875-2.906 0-1.707-.629-3.615-1.664-5.402-.9-1.149-2.02-2.168-3.336-3.067" fill-opacity=".215" color="#000" fill="#500" id="3"/></g><g transform="translate(38)"><use xlink:href="#2"/><use xlink:href="#3"/></g><path d="m64 6l-2-2 2-1" fill="#e75747"/><g id="0" transform="translate(3-1)"><rect y="22" x="9" height="4" width="4" rx="1" fill-opacity=".196" color="#000"/></g><use xlink:href="#0" transform="translate(12)" width="64" height="64"/><use height="64" width="64" transform="translate(12 9)" xlink:href="#0"/><use xlink:href="#0" transform="translate(0 9)" width="64" height="64"/><use height="64" width="64" transform="translate(12 18)" xlink:href="#0"/><use xlink:href="#0" transform="translate(0 18)" width="64" height="64"/><use xlink:href="#0" transform="translate(12 27)" width="64" height="64"/><use height="64" width="64" transform="translate(0 27)" xlink:href="#0"/><use xlink:href="#0" transform="translate(24)" width="64" height="64"/><use xlink:href="#0" transform="translate(24 9)" width="64" height="64"/><use xlink:href="#0" transform="translate(24 18)" width="64" height="64"/><use height="64" width="64" transform="translate(24 27)" xlink:href="#0"/><use height="64" width="64" transform="translate(36)" xlink:href="#0"/><use height="64" width="64" transform="translate(36 9)" xlink:href="#0"/><use height="64" width="64" transform="translate(36 18)" xlink:href="#0"/><use xlink:href="#0" transform="translate(36 27)" width="64" height="64"/><g color="#000"><path d="m59 53l-29 6 28-7" fill="#a6a6a6"/><circle r="17.875" cy="45.875" cx="21.13" fill-opacity=".123" fill="#500"/><g transform="matrix(.68421 0 0 .68421-2.77 21.296)"><g fill-rule="evenodd"><circle r="24" cy="35" cx="33" transform="matrix(1.08854 0 0 1.08854-3.922-5.099)" fill="#2d405c"/><circle r="24" cy="35" cx="33" transform="matrix(.95833 0 0 .95833.375-.542)" fill="#e0e4ec"/></g><path d="m31 15h2v18h-2z" fill="#448cf2"/><g fill="#26436c" fill-opacity=".784"><path d="m31 11h2l-1 3z"/><path d="m54 32v2l-3-1z"/><path d="m33 55h-2l1-3z"/><path d="m10 34v-2l3 1z"/></g><g fill="#26436c" fill-opacity=".515"><path d="m21.65 52.43l-1.299-.75 2.15-2.223"/><path d="m13.322 44.65l-.75-1.299 2.973-.85"/><path d="m12.572 22.65l.75-1.299 2.223 2.15"/><path d="m20.35 14.322l1.299-.75.85 2.973"/><path d="m42.35 13.572l1.299.75-2.15 2.223"/><path d="m50.678 21.35l.75 1.299-2.973.85"/><path d="m51.43 43.35l-.75 1.299-2.223-2.15"/><path d="m43.65 51.678l-1.299.75-.85-2.973"/></g><g fill="#003d92" fill-opacity=".083"><path d="m27.03 54.44l-1.449-.388 1.501-2.704z"/><path d="m16.974 49.09l-1.061-1.061 2.652-1.591z"/><path d="m10.944 39.42l-.388-1.449 3.092-.052z"/><path d="m10.556 28.03l.388-1.449 2.704 1.501z"/><path d="m15.913 17.974l1.061-1.061 1.591 2.652z"/><path d="m25.582 11.944l1.449-.388.052 3.092z"/><path d="m36.97 11.556l1.449.388-1.501 2.704z"/><path d="m47.03 16.913l1.061 1.061-2.652 1.591z"/><path d="m53.06 26.582l.388 1.449-3.092.052z"/><path d="m53.44 37.97l-.388 1.449-2.704-1.501z"/><path d="m48.09 48.03l-1.061 1.061-1.591-2.652z"/><path d="m38.418 54.06l-1.449.388-.052-3.092z"/></g><g fill-opacity="1"><path d="m42 50.32l-10.866-16.821 1.732-1z" fill="#2d405c"/><path d="m43.624 40.866l-12.12-7 1-1.732 12.12 7z" fill="#f58036"/><circle r="2" cy="32" cx="32" transform="translate(0 1)" fill="#2d405c"/></g></g></g></svg>