<svg xmlns="http://www.w3.org/2000/svg" xmlns:xlink="http://www.w3.org/1999/xlink" viewBox="0 0 64 64"><defs><clipPath><rect rx="3.453" y="-59.679" x="-8502.88" height="6.905" width="48.06" fill="none"/></clipPath><linearGradient y2="9" x2="0" y1="59" gradientUnits="userSpaceOnUse" id="0"><stop stop-color="#ebebeb"/><stop offset=".5" stop-color="#ebebeb"/><stop offset=".503" stop-color="#d6d6d6"/><stop offset="1" stop-color="#d6d6d6"/></linearGradient></defs><path d="m0 2v32 28l2 2h30 30l2-2v-28-32h-32z" fill="#2184da" color="#000"/><path d="m11 9v2h-1l-2 48 2 2h47v-2h1v-50l-2-2z" fill="#003159" fill-opacity=".219"/><g color="#000"><path d="m9 7h47v50h-47" fill="#bcbcbc"/><path d="m8 9h47v50h-47" fill="url(#0)"/><path d="m2 0l-2 1v1h32 32v-1l-2-1h-30z" fill="#4cb4ff"/></g><path d="m0 1v3l2-2" fill="#74c4ff"/><path d="m64 4l-2-2 2-1z" fill="#369beb"/><g color="#000"><path d="m12 15v3h9v-3h-9m11 0v3h13v-3h-13m15 0v3h13v-3h-13m-26 5v3h9v-3h-9m0 5v3h9v-3h-9m0 5v3h9v-3h-9m0 5v3h9v-3h-9m0 5v3h9v-3h-9m0 5v3h9v-3h-9m0 5v3h9v-3h-9" fill="#3387ce"/><g fill="#434a55" fill-opacity=".244"><path d="m23 20v3h13v-3h-13m15 0v3h13v-3h-13"/><path d="m23 30v3h13v-3h-13m15 0v3h13v-3h-13"/><path d="m23 40v3h13v-3h-13m15 0v3h13v-3h-13"/><path d="m23 25v3h13v-3h-13m15 0v3h13v-3h-13"/><path d="m23 35v3h13v-3h-13m15 0v3h13v-3h-13"/><path d="m23 45v3h13v-3h-13m15 0v3h13v-3h-13"/><path d="m23 50v3h13v-3h-13m15 0v3h13v-3h-13"/></g><g transform="translate(1-2)"><path d="m51 46c0 6.627-5.373 12-12 12-6.627 0-12-5.373-12-12 0-2.106.554-4.176 1.608-6l10.392 6z" fill="#f6b200"/><path d="m28.608 40c2.716-4.704 8.252-6.997 13.498-5.591l-3.106 11.591z" fill="#70b625"/><path d="m42.11 34.409c5.246 1.406 8.894 6.16 8.894 11.591h-12z" fill="#c26115"/></g></g><g transform="translate(-39.24 1.503)"><path d="m93.45 6.73l-.313.156c0 0-1.232 2.698-1.844 5.406-1.035 4.584-.635 6.483-.844 7.406-.061.271-.349.62-.344.75.007.179.188.281.188.281l.25-.188c.019-.023.159-.192.344-.844.198-.698.16-5.748 2.094-9.844.032-.067.121-.101.219-.125l-2.781 12.219c-.023.102.054.196.156.219h-.063c-.065-.015-.142.029-.156.094l-6.469 28.656c-.015.065.029.142.094.156l.156.031v.031l-.531 2.375c-.031.137.028.257.125.344-.117-.011-.223.039-.25.156-.029.128.06.252.188.281l.5.125c-.271 1.183-.673 2.253-1.063 3.313-.059.261.37 1.134.469 2.813l.438-1.969c.023.005.044.012.063 0l-.469 2.125c.167-.328.323-.614.469-.844.099-.156.193-.255.281-.375.645-.88 1.01-.897 1.125-1.406.132-.586.187-1.783.406-2.969.17.048.346.012.406-.125.013-.029.03-.063.031-.094l.094.031c.128.029.252-.028.281-.156.024-.106-.034-.232-.125-.281.117-.041.221-.12.25-.25l.438-2 .094-.375.156.031c.065.015.142-.029.156-.094l6.469-28.688c.015-.065-.029-.142-.094-.156.074-.011.139-.078.156-.156l3.375-14.875c.002-.009-.001-.022 0-.031.004-.007-.002-.023 0-.031.048-.214-.741-.578-1.781-.813-.846-.191-1.6-.229-1.875-.125-.12-.061-.294-.147-.469-.188m-9.219 50.844c.01.009.017.028.031.031l-.063.344c-.01-.009-.017-.028-.031-.031-.009 0-.022-.003-.031 0l.094-.344m-.125.5c.009.007.02.029.031.031.014.003.018-.028.031-.031l-.063.375c-.012-.019-.008-.026-.031-.031-.006-.001-.025 0-.031 0l.063-.344" fill="#003159" fill-opacity=".219"/><g transform="matrix(.06689.0151-.0151.06689 648.53 183.76)"><g transform="translate(173.59)"><path d="m-8639.32-54.13l-26.531.531c0 18.04-1.944 34.783-4.125 51.38 0 3.909 8.96 14.723 15.75 38.28l-.531-44.625h1l.563 46.688c8.607-33.877 18.281-33.23 18.281-43.37 0-9.703-4.406-29.361-4.406-48.875m-14.156 92.78c.026.095.037.186.062.281.024-.096.039-.186.062-.281h-.125z" fill="#e3e5e6"/><path transform="translate(-8132.47 428.5)" d="m-532.03-461c-.113 0-.207.034-.313.063l-.25 2.313c.179.091.348.188.563.188.701 0 1.281-.549 1.281-1.25 0-.701-.58-1.313-1.281-1.313m5.156 0c-.701 0-1.25.611-1.25 1.313 0 .701.549 1.25 1.25 1.25.701 0 1.281-.549 1.281-1.25 0-.701-.58-1.313-1.281-1.313m5.188 0c-.701 0-1.281.611-1.281 1.313 0 .701.58 1.25 1.281 1.25.701 0 1.281-.549 1.281-1.25 0-.701-.58-1.313-1.281-1.313m5.188 0c-.701 0-1.281.611-1.281 1.313 0 .701.58 1.25 1.281 1.25.701 0 1.25-.549 1.25-1.25 0-.701-.549-1.313-1.25-1.313m5.156 0c-.701 0-1.25.611-1.25 1.313 0 .701.549 1.25 1.25 1.25.701 0 1.281-.549 1.281-1.25 0-.701-.58-1.313-1.281-1.313m-18.12 3.688c-.701 0-1.25.611-1.25 1.313 0 .701.549 1.25 1.25 1.25.701 0 1.281-.549 1.281-1.25 0-.701-.58-1.313-1.281-1.313m5.188 0c-.701 0-1.281.611-1.281 1.313 0 .701.58 1.25 1.281 1.25.701 0 1.281-.549 1.281-1.25 0-.701-.58-1.313-1.281-1.313m5.188 0c-.701 0-1.281.611-1.281 1.313 0 .701.58 1.25 1.281 1.25.701 0 1.25-.549 1.25-1.25 0-.701-.549-1.313-1.25-1.313m5.156 0c-.701 0-1.25.611-1.25 1.313 0 .701.549 1.25 1.25 1.25.701 0 1.281-.549 1.281-1.25 0-.701-.58-1.313-1.281-1.313m5.188 0c-.701 0-1.281.611-1.281 1.313 0 .701.58 1.25 1.281 1.25.124 0 .261-.03.375-.063l-.094-2.469c-.083-.017-.194-.031-.281-.031m-23.281 3.687c-.526 0-.96.354-1.156.813l-.094.75c.002.01-.002.021 0 .031.132.56.647.969 1.25.969.701 0 1.281-.549 1.281-1.25 0-.701-.58-1.313-1.281-1.313m5.156 0c-.701 0-1.25.611-1.25 1.313 0 .701.549 1.25 1.25 1.25.701 0 1.281-.549 1.281-1.25 0-.701-.58-1.313-1.281-1.313m5.188 0c-.701 0-1.281.611-1.281 1.313 0 .701.58 1.25 1.281 1.25.701 0 1.281-.549 1.281-1.25 0-.701-.58-1.313-1.281-1.313m5.188 0c-.701 0-1.281.611-1.281 1.313 0 .701.58 1.25 1.281 1.25.701 0 1.25-.549 1.25-1.25 0-.701-.549-1.313-1.25-1.313m5.156 0c-.701 0-1.25.611-1.25 1.313 0 .701.549 1.25 1.25 1.25.701 0 1.281-.549 1.281-1.25 0-.701-.58-1.313-1.281-1.313m-18.12 3.688c-.701 0-1.25.611-1.25 1.313 0 .701.549 1.25 1.25 1.25.701 0 1.281-.549 1.281-1.25 0-.701-.58-1.313-1.281-1.313m5.188 0c-.701 0-1.281.611-1.281 1.313 0 .701.58 1.25 1.281 1.25.701 0 1.281-.549 1.281-1.25 0-.701-.58-1.313-1.281-1.313m5.188 0c-.701 0-1.281.611-1.281 1.313 0 .701.58 1.25 1.281 1.25.701 0 1.25-.549 1.25-1.25 0-.701-.549-1.313-1.25-1.313m5.156 0c-.701 0-1.25.611-1.25 1.313 0 .701.549 1.25 1.25 1.25.701 0 1.281-.549 1.281-1.25 0-.701-.58-1.313-1.281-1.313m5.188 0c-.701 0-1.281.611-1.281 1.313 0 .701.58 1.25 1.281 1.25.258 0 .485-.121.688-.25l-.094-2.125c-.179-.096-.379-.188-.594-.188m-24.813.656l-.156 1.5c.222-.223.375-.502.375-.844 0-.246-.096-.46-.219-.656m1.531 3.03c-.701 0-1.281.611-1.281 1.313 0 .701.58 1.25 1.281 1.25.701 0 1.281-.549 1.281-1.25 0-.701-.58-1.313-1.281-1.313m5.156 0c-.701 0-1.25.611-1.25 1.313 0 .701.549 1.25 1.25 1.25.701 0 1.281-.549 1.281-1.25 0-.701-.58-1.313-1.281-1.313m5.188 0c-.701 0-1.281.611-1.281 1.313 0 .701.58 1.25 1.281 1.25.701 0 1.281-.549 1.281-1.25 0-.701-.58-1.313-1.281-1.313m5.188 0c-.701 0-1.281.611-1.281 1.313 0 .701.58 1.25 1.281 1.25.701 0 1.25-.549 1.25-1.25 0-.701-.549-1.313-1.25-1.313m5.156 0c-.701 0-1.25.611-1.25 1.313 0 .701.549 1.25 1.25 1.25.701 0 1.281-.549 1.281-1.25 0-.701-.58-1.313-1.281-1.313m-18.375 3.75c-.575.121-1 .637-1 1.25 0 .701.549 1.25 1.25 1.25.701 0 1.281-.549 1.281-1.25 0-.701-.58-1.25-1.281-1.25-.088 0-.168-.017-.25 0m5.188 0c-.581.121-1.031.637-1.031 1.25 0 .701.58 1.25 1.281 1.25.701 0 1.281-.549 1.281-1.25 0-.701-.58-1.25-1.281-1.25-.088 0-.167-.017-.25 0m5.188 0c-.581.121-1.031.637-1.031 1.25 0 .701.58 1.25 1.281 1.25.701 0 1.25-.549 1.25-1.25 0-.701-.549-1.25-1.25-1.25-.088 0-.167-.017-.25 0m5.156 0c-.575.121-1 .637-1 1.25 0 .701.549 1.25 1.25 1.25.701 0 1.281-.549 1.281-1.25 0-.701-.58-1.25-1.281-1.25-.088 0-.168-.017-.25 0m5.188 0c-.581.121-1.031.637-1.031 1.25 0 .701.58 1.25 1.281 1.25.406 0 .764-.178 1-.469l-.063-1.625c-.235-.251-.572-.406-.938-.406-.088 0-.167-.017-.25 0m-25.25.031l-.25 2.469c.648-.056 1.156-.588 1.156-1.25 0-.577-.376-1.062-.906-1.219m1.969 3.656c-.581.121-1.031.668-1.031 1.281 0 .701.58 1.25 1.281 1.25.701 0 1.281-.549 1.281-1.25 0-.701-.58-1.281-1.281-1.281-.088 0-.167-.017-.25 0m5.156 0c-.575.121-1 .668-1 1.281 0 .701.549 1.25 1.25 1.25.701 0 1.281-.549 1.281-1.25 0-.701-.58-1.281-1.281-1.281-.088 0-.168-.017-.25 0m5.188 0c-.581.121-1.031.668-1.031 1.281 0 .701.58 1.25 1.281 1.25.701 0 1.281-.549 1.281-1.25 0-.701-.58-1.281-1.281-1.281-.088 0-.167-.017-.25 0m5.188 0c-.581.121-1.031.668-1.031 1.281 0 .701.58 1.25 1.281 1.25.701 0 1.25-.549 1.25-1.25 0-.701-.549-1.281-1.25-1.281-.088 0-.167-.017-.25 0m5.156 0c-.575.121-1 .668-1 1.281 0 .701.549 1.25 1.25 1.25.701 0 1.281-.549 1.281-1.25 0-.701-.58-1.281-1.281-1.281-.088 0-.168-.017-.25 0m-23.281 3.688c-.049.01-.078.047-.125.063l-.156 1.406.625 1.063c.662-.043 1.188-.578 1.188-1.25 0-.701-.58-1.281-1.281-1.281-.088 0-.167-.017-.25 0m5.156 0c-.575.121-1 .668-1 1.281 0 .701.549 1.25 1.25 1.25.701 0 1.281-.549 1.281-1.25 0-.701-.58-1.281-1.281-1.281-.088 0-.168-.017-.25 0m5.188 0c-.581.121-1.031.668-1.031 1.281 0 .701.58 1.25 1.281 1.25.701 0 1.281-.549 1.281-1.25 0-.701-.58-1.281-1.281-1.281-.088 0-.167-.017-.25 0m5.188 0c-.581.121-1.031.668-1.031 1.281 0 .701.58 1.25 1.281 1.25.701 0 1.25-.549 1.25-1.25 0-.701-.549-1.281-1.25-1.281-.088 0-.167-.017-.25 0m5.156 0c-.575.121-1 .668-1 1.281 0 .701.549 1.25 1.25 1.25.701 0 1.281-.549 1.281-1.25 0-.701-.58-1.281-1.281-1.281-.088 0-.168-.017-.25 0m5.188 0c-.581.121-1.031.668-1.031 1.281 0 .701.58 1.25 1.281 1.25.701 0 1.281-.549 1.281-1.25 0-.058.008-.131 0-.188v-.094c-.121-.581-.668-1-1.281-1-.088 0-.167-.017-.25 0m-23.281 3.687c-.498.103-.897.502-1 1l.844 1.438c.134.046.257.094.406.094.701 0 1.281-.549 1.281-1.25 0-.701-.58-1.281-1.281-1.281-.088 0-.167-.017-.25 0m5.156 0c-.575.121-1 .668-1 1.281 0 .701.549 1.25 1.25 1.25.701 0 1.281-.549 1.281-1.25 0-.701-.58-1.281-1.281-1.281-.088 0-.168-.017-.25 0m5.188 0c-.581.121-1.031.668-1.031 1.281 0 .701.58 1.25 1.281 1.25.701 0 1.281-.549 1.281-1.25 0-.701-.58-1.281-1.281-1.281-.088 0-.167-.017-.25 0m5.188 0c-.581.121-1.031.668-1.031 1.281 0 .701.58 1.25 1.281 1.25.701 0 1.25-.549 1.25-1.25 0-.701-.549-1.281-1.25-1.281-.088 0-.167-.017-.25 0m5.156 0c-.575.121-1 .668-1 1.281 0 .701.549 1.25 1.25 1.25.701 0 1.281-.549 1.281-1.25 0-.701-.58-1.281-1.281-1.281-.088 0-.168-.017-.25 0m4.281.813c-.045.111-.114.22-.125.344l.125-.156v-.188m-22.406 2.875c-.575.121-1 .668-1 1.281 0 .701.549 1.25 1.25 1.25.701 0 1.281-.549 1.281-1.25 0-.701-.58-1.281-1.281-1.281-.088 0-.168-.017-.25 0m5.188 0c-.581.121-1.031.668-1.031 1.281 0 .701.58 1.25 1.281 1.25.701 0 1.281-.549 1.281-1.25 0-.701-.58-1.281-1.281-1.281-.088 0-.167-.017-.25 0m5.188 0c-.581.121-1.031.668-1.031 1.281 0 .701.58 1.25 1.281 1.25.701 0 1.25-.549 1.25-1.25 0-.701-.549-1.281-1.25-1.281-.088 0-.167-.017-.25 0m5.156 0c-.575.121-1 .668-1 1.281 0 .701.549 1.25 1.25 1.25.701 0 1.281-.549 1.281-1.25 0-.701-.58-1.281-1.281-1.281-.088 0-.168-.017-.25 0m4.906.125c-.402.197-.718.596-.75 1.063l.75-1.063m-17.844 3.594c-.575.121-1 .668-1 1.281 0 .701.549 1.25 1.25 1.25.701 0 1.281-.549 1.281-1.25 0-.701-.58-1.281-1.281-1.281-.088 0-.168-.017-.25 0m5.188 0c-.581.121-1.031.668-1.031 1.281 0 .701.58 1.25 1.281 1.25.701 0 1.281-.549 1.281-1.25 0-.701-.58-1.281-1.281-1.281-.088 0-.167-.017-.25 0m5.188 0c-.581.121-1.031.668-1.031 1.281 0 .701.58 1.25 1.281 1.25.701 0 1.25-.549 1.25-1.25 0-.701-.549-1.281-1.25-1.281-.088 0-.167-.017-.25 0m4.875.125c-.361.192-.629.544-.688.969l.688-.969m-12.656 3.563c-.581.121-1.031.668-1.031 1.281 0 .701.58 1.25 1.281 1.25.701 0 1.281-.549 1.281-1.25 0-.701-.58-1.281-1.281-1.281-.088 0-.167-.017-.25 0m5.188 0c-.581.121-1.031.668-1.031 1.281 0 .701.58 1.25 1.281 1.25.701 0 1.25-.549 1.25-1.25 0-.701-.549-1.281-1.25-1.281-.088 0-.167-.017-.25 0m4.906.125c-.396.19-.71.569-.75 1.031l.75-1.031" opacity=".724" fill="#8f9598"/></g><g fill="#e3e5e6"><path d="m-8478.84-763.94c-15.56 0-28.19 2.609-28.19 5.813 0 .112.032.202.062.313-.023.143-.062.288-.062.438v222.63c0 1.53 1.251 2.75 2.781 2.75h50.813c1.53 0 2.75-1.22 2.75-2.75v-222.62c0-.138-.012-.274-.031-.406.034-.117.031-.225.031-.344 0-3.203-12.596-5.813-28.16-5.813"/><path d="m-8503.71-718.71v-40.603c0 0-5.469-1.634-9.391-1.657-7.788 30.19-10.22 63.16-10.22 95.02 0 48.772 11.734 87.71 12.153 97.5.205 4.787-2.917 10.632-2.486 11.877 1.056 3.05 1.781 2.889 3.591 1.657 0 0 1.635-2.97 2.21-13.534.574-10.565-16.296-81.914-1.933-146.39.522-2.343 6.077-3.867 6.077-3.867"/></g><rect rx="3.453" y="-59.679" x="-8502.88" height="6.905" width="48.06" fill="#31647f"/><g><rect width="48.06" height="48.06" x="-8502.88" y="-106.64" rx="5.424" fill="#e3e5e6"/><path d="m-8353.53 1308.86l1.547 9.14-49.29-.915z" transform="matrix(.98605.16645-.16645.98605 0 0)" fill="#2a3c45" fill-opacity=".381"/></g><g fill="#31647f"><rect width="56.34" height="432.27" x="-8507.02" y="-532" rx="1.752" id="1"/><use xlink:href="#1"/></g></g></g><path d="m0 57l64-20v25l-2 2h-60l-2-2z" fill="#2e94e9" fill-rule="evenodd"/></svg>