<svg xmlns="http://www.w3.org/2000/svg" xmlns:xlink="http://www.w3.org/1999/xlink" viewBox="0 0 64 64"><g color="#000"><path d="m0 4v30 28l2 2h30 30l2-2v-28-30h-32-32" fill="#494dcb"/><path d="m2 0l-2 1v3h32 32v-3l-2-1h-30-30" fill="#888cff"/></g><path d="m0 3v3l2-2" fill="#b4b7ff"/><path d="m64 6l-2-2 2-1z" fill="#6c70e1"/><g transform="translate(-.776-1.026)"><path d="M59.662132 36.864777A24.395184 20.329319 0 0 1 35.26695 57.1941 24.395184 20.329319 0 0 1 10.871765 36.864777 24.395184 20.329319 0 0 1 35.26695 16.535458 24.395184 20.329319 0 0 1 59.662132 36.864777" transform="matrix(.78442 0 0 .77434 5.084 6.02)" fill="none" stroke="#e6e6f1" color="#000" stroke-width="2.566"/><g id="0" fill="#e6e6f1"><path d="m17.14734 16.53546a3.535534 3.535534 0 0 1 -3.535534 3.535533 3.535534 3.535534 0 0 1 -3.535534 -3.535533 3.535534 3.535534 0 0 1 3.535534 -3.535534 3.535534 3.535534 0 0 1 3.535534 3.535534" transform="matrix(1.37206 0 0 1.37206 32.921 14.626)" color="#000"/></g><use xlink:href="#0" transform="translate(-10.32-16.888)" width="64" height="64"/><use xlink:href="#0" transform="translate(-31.608-14.599)" width="64" height="64"/><use xlink:href="#0" transform="translate(-35.698 4.84)" width="64" height="64"/><use height="64" width="64" transform="translate(-16.177 12.843)" xlink:href="#0"/></g></svg>