<svg xmlns="http://www.w3.org/2000/svg" viewBox="0 0 64 64"><g color="#000"><path d="m0 4v30 28l2 2h30 30l2-2v-28-30h-32-32" fill="#aeb4c3"/><path d="m2 0l-2 1v3h19.563 19.563 24.875v-3l-2-1h-22.875-19.563-17.563" fill="#e7ecf0"/></g><path d="m0 3v3l2-2" fill="#f2f5f7"/><path d="m64 6l-2-2 2-1" fill="#ccd1db"/><g fill-rule="evenodd"><path d="m38.938 15.813l-20.844 36.13 12.06 12.06h1.844 28.719l3.281-5.656v-9.281l-11.25-19.438-13.813-13.813" fill-opacity=".094"/><g transform="matrix(.00031 0 0 .00031 11.148 15.813)"><path fill="#3176d5" d="m44385 76894h88771l-22193 38447h-88769z"/><path fill="#f3ba3c" d="M133156 76894 88772 0 44385 0 88772 76894z"/><path fill="#20a869" d="M22194 115341 66578 38447 44385 0 0 76894z"/></g></g></svg>