<svg xmlns="http://www.w3.org/2000/svg" xmlns:xlink="http://www.w3.org/1999/xlink" viewBox="0 0 64 64"><defs><clipPath><rect rx="3.453" y="-59.679" x="-8502.88" height="6.905" width="48.06" fill="none"/></clipPath><linearGradient id="0" gradientUnits="userSpaceOnUse" y1="61" x2="0" y2="11"><stop stop-color="#ebebeb"/><stop offset=".5" stop-color="#ebebeb"/><stop offset=".503" stop-color="#d6d6d6"/><stop offset="1" stop-color="#d6d6d6"/></linearGradient><linearGradient id="2" gradientUnits="userSpaceOnUse" x1="147141.25" y1="147924.61" x2="146546.61" y2="-31117.59"><stop stop-color="#20a869"/><stop offset=".5" stop-color="#20a869"/><stop offset=".5" stop-color="#21a065"/><stop offset="1" stop-color="#21a065"/></linearGradient><linearGradient id="1" gradientUnits="userSpaceOnUse" x1="147013.44" y1="146514.79" x2="144819.63" y2="-28954.37"><stop stop-color="#f3ba3c"/><stop offset=".501" stop-color="#f3ba3c"/><stop offset=".501" stop-color="#f0b125"/><stop offset="1" stop-color="#f0b125"/></linearGradient></defs><g color="#000"><path d="m0 2v32 28l2 2h30 30l2-2v-28-32h-32z" fill="#9e6e31"/><path d="m2 0l-2 1v1h32 32v-1l-2-1h-30" fill="#ffbc35"/></g><path d="m64 4l-2-2 2-1" fill="#1f0700" fill-opacity=".138"/><g fill="#fc0" color="#000"><g fill-opacity=".036"><path d="m2 0l-2 1v3 18.5h2v-22.5m2 0v3.5h2v-3.5h-2m4 0v17.5h2v-17.5h-2m4 0v32.5h2v-32.5h-2m8 0v27.5h2v-27.5h-2m16 0v.5h2v-.5h-2zm12 0v19.5h2v-19.5h-2m4 0v33.5h2v-33.5h-2m4 0v14.5h2v-14.5h-2m4 0v30.5h2v-30.5h-2m-20 .5v37h2v-37h-2zm-36 5v37h2v-37h-2m28 0v37h2v-37h-2m-8 1v37h2v-37h-2m-8 3v37h2v-37h-2m12 2v37h2v-37h-2m16 5v37h2v-37h-2m-36 3v37h2v-37h-2m28 0v37h2v-37h-2m12 2v37h2v-37h-2m-48 3v9.5 27.5h2v-37h-2m60 8v31.5h2v-31.5h-2m-8 5v26.5h2v-26.5h-2m4 14v12.5h2v-12.5h-2"/><path d="m2 0l-2 1v3 26h2v-30m2 0v14h2v-14h-2m4 0v33h2v-33h-2zm4 0v19h2v-19h-2m8 0v37h2v-37h-2m20 0v27h2v-27h-2m8 0v32h2v-32h-2m4 0v17h2v-17h-2m4 0v3h2v-3h-2m4 0v22h2v-22h-2m-32 5v37h2v-37h-2m28 0v37h2v-37h-2m-20 1v37h2v-37h-2m8 3v37h2v-37h-2m-12 2v37h2v-37h-2m-16 5v37h2v-37h-2m8 3v37h2v-37h-2m28 0v37h2v-37h-2m-40 2v37h2v-37h-2m48 3v37h2v-37h-2m-60 8v2 28l2 2v-32h-2m8 5v27h2v-27h-2m-4 14v13h2v-13h-2"/><path d="m2 0l-2 1v3 24.5h2v-28.5m2 0v12.5h2v-12.5h-2m4 0v31.5h2v-31.5h-2m4 0v17.5h2v-17.5h-2m8 0v35.5h2v-35.5h-2m20 0v25.5h2v-25.5h-2m8 0v30.5h2v-30.5h-2m4 0v15.5h2v-15.5h-2m4 0v1.5h2v-1.5h-2zm4 0v20.5h2v-20.5h-2m-32 3.5v37h2v-37h-2zm28 0v37h2v-37h-2m-20 1v37h2v-37h-2m8 3v37h2v-37h-2m-12 2v37h2v-37h-2m-16 5v37h2v-37h-2m8 3v37h2v-37h-2m28 0v37h2v-37h-2m-40 2v37h2v-37h-2m48 3v37h2v-37h-2m-60 8v3.5 28l2 2v-33.5h-2m8 5v28.5h2v-28.5h-2m-4 14v14.5h2v-14.5h-2"/><path d="m2 0l-2 1v19h2v-20m2 0v1h2v-1h-2m4 0v15h2v-15h-2zm4 0v30h2v-30h-2m8 0v25h2v-25h-2m20 0v35h2v-35h-2m8 0v17h2v-17h-2m4 0v31h2v-31h-2m4 0v12h2v-12h-2m4 0v28h2v-28h-2m-56 3v37h2v-37h-2m28 0v37h2v-37h-2zm-8 1v37h2v-37h-2m-8 3v37h2v-37h-2m12 2v37h2v-37h-2m16 5v37h2v-37h-2m-36 3v37h2v-37h-2m28 0v37h2v-37h-2m12 2v37h2v-37h-2m-48 3v12 25h2v-37h-2m60 8v34h2v-34h-2zm-8 5v29h2v-29h-2m4 14v15h2v-15h-2"/><path d="m2 0l-2 1v3 29.5h2v-33.5m2 0v14.5h2v-14.5h-2m4 0v28.5h2v-28.5h-2m16 0v9.5h2v-9.5h-2zm8 0v6.5h2v-6.5h-2m4 0v11.5h2v-11.5h-2m12 0v30.5h2v-30.5h-2m8 0v25.5h2v-25.5h-2m-36 1.5v37h2v-37h-2zm40 3v37h2v-37h-2m-48 2v37h2v-37h-2m40 1v37h2v-37h-2m-12 4v37h2v-37h-2m-36 5v37h2v-37h-2m28 0v37h2v-37h-2m-8 1v37h2v-37h-2m-8 3v37h2v-37h-2m12 2v37h2v-37h-2m16 5v36.5h2v-36.5h-2m-36 3v33.5h2v-33.5h-2m28 0v33.5h2v-33.5h-2m12 2v31.5h2v-31.5h-2m-48 3v26.5l2 2v-28.5h-2m60 8v20.5h2v-20.5h-2m-8 5v15.5h2v-15.5h-2m4 14v1.5h2v-1.5h-2"/><path d="m4 0v25h2v-25h-2m8 0v30h2v-30h-2zm12 0v11h2v-11h-2m4 0v6h2v-6h-2m8 0v9h2v-9h-2m16 0v28h2v-28h-2m4 0v14h2v-14h-2m4 0v33h2v-33h-2m-20 1v37h2v-37h-2m-40 3v30 7h2v-37h-2m48 2v37h2v-37h-2zm-40 1v37h2v-37h-2m12 4v37h2v-37h-2zm8 5v37h2v-37h-2m28 0v37h2v-37h-2m-20 1v37h2v-37h-2m8 3v37h2v-37h-2m-12 2v37h2v-37h-2m-16 5v37h2v-37h-2m8 3v34h2v-34h-2m28 0v34h2v-34h-2m-40 2v32h2v-32h-2m48 3v29h2v-29h-2m-60 8v19l2 2v-21h-2m8 5v16h2v-16h-2zm-4 14v2h2v-2h-2"/></g><g transform="translate(2)" fill-opacity=".015"><path d="m2 0l-2 1v3 18.5h2v-22.5m2 0v3.5h2v-3.5h-2m4 0v17.5h2v-17.5h-2m4 0v32.5h2v-32.5h-2m8 0v27.5h2v-27.5h-2m16 0v.5h2v-.5h-2zm12 0v19.5h2v-19.5h-2m4 0v33.5h2v-33.5h-2m4 0v14.5h2v-14.5h-2m4 0v30.5h2v-30.5h-2m-20 .5v37h2v-37h-2zm-36 5v37h2v-37h-2m28 0v37h2v-37h-2m-8 1v37h2v-37h-2m-8 3v37h2v-37h-2m12 2v37h2v-37h-2m16 5v37h2v-37h-2m-36 3v37h2v-37h-2m28 0v37h2v-37h-2m12 2v37h2v-37h-2m-48 3v9.5 27.5h2v-37h-2m60 8v31.5h2v-31.5h-2m-8 5v26.5h2v-26.5h-2m4 14v12.5h2v-12.5h-2"/><path d="m2 0l-2 1v3 26h2v-30m2 0v14h2v-14h-2m4 0v33h2v-33h-2zm4 0v19h2v-19h-2m8 0v37h2v-37h-2m20 0v27h2v-27h-2m8 0v32h2v-32h-2m4 0v17h2v-17h-2m4 0v3h2v-3h-2m4 0v22h2v-22h-2m-32 5v37h2v-37h-2m28 0v37h2v-37h-2m-20 1v37h2v-37h-2m8 3v37h2v-37h-2m-12 2v37h2v-37h-2m-16 5v37h2v-37h-2m8 3v37h2v-37h-2m28 0v37h2v-37h-2m-40 2v37h2v-37h-2m48 3v37h2v-37h-2m-60 8v2 28l2 2v-32h-2m8 5v27h2v-27h-2m-4 14v13h2v-13h-2"/><path d="m2 0l-2 1v3 24.5h2v-28.5m2 0v12.5h2v-12.5h-2m4 0v31.5h2v-31.5h-2m4 0v17.5h2v-17.5h-2m8 0v35.5h2v-35.5h-2m20 0v25.5h2v-25.5h-2m8 0v30.5h2v-30.5h-2m4 0v15.5h2v-15.5h-2m4 0v1.5h2v-1.5h-2zm4 0v20.5h2v-20.5h-2m-32 3.5v37h2v-37h-2zm28 0v37h2v-37h-2m-20 1v37h2v-37h-2m8 3v37h2v-37h-2m-12 2v37h2v-37h-2m-16 5v37h2v-37h-2m8 3v37h2v-37h-2m28 0v37h2v-37h-2m-40 2v37h2v-37h-2m48 3v37h2v-37h-2m-60 8v3.5 28l2 2v-33.5h-2m8 5v28.5h2v-28.5h-2m-4 14v14.5h2v-14.5h-2"/><path d="m2 0l-2 1v19h2v-20m2 0v1h2v-1h-2m4 0v15h2v-15h-2zm4 0v30h2v-30h-2m8 0v25h2v-25h-2m20 0v35h2v-35h-2m8 0v17h2v-17h-2m4 0v31h2v-31h-2m4 0v12h2v-12h-2m4 0v28h2v-28h-2m-56 3v37h2v-37h-2m28 0v37h2v-37h-2zm-8 1v37h2v-37h-2m-8 3v37h2v-37h-2m12 2v37h2v-37h-2m16 5v37h2v-37h-2m-36 3v37h2v-37h-2m28 0v37h2v-37h-2m12 2v37h2v-37h-2m-48 3v12 25h2v-37h-2m60 8v34h2v-34h-2zm-8 5v29h2v-29h-2m4 14v15h2v-15h-2"/><path d="m2 0l-2 1v3 29.5h2v-33.5m2 0v14.5h2v-14.5h-2m4 0v28.5h2v-28.5h-2m16 0v9.5h2v-9.5h-2zm8 0v6.5h2v-6.5h-2m4 0v11.5h2v-11.5h-2m12 0v30.5h2v-30.5h-2m8 0v25.5h2v-25.5h-2m-36 1.5v37h2v-37h-2zm40 3v37h2v-37h-2m-48 2v37h2v-37h-2m40 1v37h2v-37h-2m-12 4v37h2v-37h-2m-36 5v37h2v-37h-2m28 0v37h2v-37h-2m-8 1v37h2v-37h-2m-8 3v37h2v-37h-2m12 2v37h2v-37h-2m16 5v36.5h2v-36.5h-2m-36 3v33.5h2v-33.5h-2m28 0v33.5h2v-33.5h-2m12 2v31.5h2v-31.5h-2m-48 3v26.5l2 2v-28.5h-2m60 8v20.5h2v-20.5h-2m-8 5v15.5h2v-15.5h-2m4 14v1.5h2v-1.5h-2"/><path d="m4 0v25h2v-25h-2m8 0v30h2v-30h-2zm12 0v11h2v-11h-2m4 0v6h2v-6h-2m8 0v9h2v-9h-2m16 0v28h2v-28h-2m4 0v14h2v-14h-2m4 0v33h2v-33h-2m-20 1v37h2v-37h-2m-40 3v30 7h2v-37h-2m48 2v37h2v-37h-2zm-40 1v37h2v-37h-2m12 4v37h2v-37h-2zm8 5v37h2v-37h-2m28 0v37h2v-37h-2m-20 1v37h2v-37h-2m8 3v37h2v-37h-2m-12 2v37h2v-37h-2m-16 5v37h2v-37h-2m8 3v34h2v-34h-2m28 0v34h2v-34h-2m-40 2v32h2v-32h-2m48 3v29h2v-29h-2m-60 8v19l2 2v-21h-2m8 5v16h2v-16h-2zm-4 14v2h2v-2h-2"/></g></g><path d="m49.13 6.383l-8.271 4.676-28.375 1.25v2h-1l-.188 4.656-5.469 1.469 4.688 17.469-1.031 24.406 1.691 1.691h20.824 26.484v-1.691h1v-4.469l4.516-1.213v-.563l-4.516-16.85v-26.906l-2-2-5.656.25-.625-2.281-2.072-1.895" fill="#421300" fill-opacity=".164"/><path d="m0 1v3l2-2" fill="#fff38e" fill-opacity=".552"/><g transform="matrix(1.12077 0 0 1.12077-7.641-7.623)" color="#000"><path d="m10 8h47v50h-47z" fill="#bcbcbc" stroke-width="1.099" transform="matrix(.81217 0 0 .81217 11.814 9.503)"/><path d="m18.728 17.52l37.983 3.8-4.04 40.41-37.983-3.8z" fill="#421300" fill-opacity=".164" stroke-width=".892"/><path d="m6 11h47v50h-47z" fill="#cecece" stroke-width="1.099" transform="matrix(.80814.08086-.08086.80814 13.769 8.04)"/><path d="m12.289 17.976l37.719-5.863 6.237 40.13-37.719 5.863z" fill="#421300" fill-opacity=".164" stroke-width=".892"/><g transform="matrix(.80254-.12475.12475.80254 5.101 8.896)"><path d="m6 11h47v50h-47z" fill="url(#0)"/><g transform="matrix(.00029 0 0 .00029 10.82 18.913)"><path fill="#3d7ed8" d="m44385 76894h88771l-22193 38447h-88769z"/><path fill="url(#1)" d="M133156 76894 88772 0 44385 0 88772 76894z"/><path fill="url(#2)" d="M22194 115341 66578 38447 44385 0 0 76894z"/></g></g></g><g transform="translate(-40.756.985)"><path d="m93.45 6.73l-.313.156c0 0-1.232 2.698-1.844 5.406-1.035 4.584-.635 6.483-.844 7.406-.061.271-.349.62-.344.75.007.179.188.281.188.281l.25-.188c.019-.023.159-.192.344-.844.198-.698.16-5.748 2.094-9.844.032-.067.121-.101.219-.125l-2.781 12.219c-.023.102.054.196.156.219h-.063c-.065-.015-.142.029-.156.094l-6.469 28.656c-.015.065.029.142.094.156l.156.031v.031l-.531 2.375c-.031.137.028.257.125.344-.117-.011-.223.039-.25.156-.029.128.06.252.188.281l.5.125c-.271 1.183-.673 2.253-1.063 3.313-.059.261.37 1.134.469 2.813l.438-1.969c.023.005.044.012.063 0l-.469 2.125c.167-.328.323-.614.469-.844.099-.156.193-.255.281-.375.645-.88 1.01-.897 1.125-1.406.132-.586.187-1.783.406-2.969.17.048.346.012.406-.125.013-.029.03-.063.031-.094l.094.031c.128.029.252-.028.281-.156.024-.106-.034-.232-.125-.281.117-.041.221-.12.25-.25l.438-2 .094-.375.156.031c.065.015.142-.029.156-.094l6.469-28.688c.015-.065-.029-.142-.094-.156.074-.011.139-.078.156-.156l3.375-14.875c.002-.009-.001-.022 0-.031.004-.007-.002-.023 0-.031.048-.214-.741-.578-1.781-.813-.846-.191-1.6-.229-1.875-.125-.12-.061-.294-.147-.469-.188m-9.219 50.844c.01.009.017.028.031.031l-.063.344c-.01-.009-.017-.028-.031-.031-.009 0-.022-.003-.031 0l.094-.344m-.125.5c.009.007.02.029.031.031.014.003.018-.028.031-.031l-.063.375c-.012-.019-.008-.026-.031-.031-.006-.001-.025 0-.031 0l.063-.344" fill="#003159" fill-opacity=".219"/><g transform="matrix(.06689.0151-.0151.06689 648.53 183.76)"><g transform="translate(173.59)"><path d="m-8639.32-54.13l-26.531.531c0 18.04-1.944 34.783-4.125 51.38 0 3.909 8.96 14.723 15.75 38.28l-.531-44.625h1l.563 46.688c8.607-33.877 18.281-33.23 18.281-43.37 0-9.703-4.406-29.361-4.406-48.875m-14.156 92.78c.026.095.037.186.062.281.024-.096.039-.186.062-.281h-.125z" fill="#e3e5e6"/><path d="m-532.03-461c-.113 0-.207.034-.313.063l-.25 2.313c.179.091.348.188.563.188.701 0 1.281-.549 1.281-1.25 0-.701-.58-1.313-1.281-1.313m5.156 0c-.701 0-1.25.611-1.25 1.313 0 .701.549 1.25 1.25 1.25.701 0 1.281-.549 1.281-1.25 0-.701-.58-1.313-1.281-1.313m5.188 0c-.701 0-1.281.611-1.281 1.313 0 .701.58 1.25 1.281 1.25.701 0 1.281-.549 1.281-1.25 0-.701-.58-1.313-1.281-1.313m5.188 0c-.701 0-1.281.611-1.281 1.313 0 .701.58 1.25 1.281 1.25.701 0 1.25-.549 1.25-1.25 0-.701-.549-1.313-1.25-1.313m5.156 0c-.701 0-1.25.611-1.25 1.313 0 .701.549 1.25 1.25 1.25.701 0 1.281-.549 1.281-1.25 0-.701-.58-1.313-1.281-1.313m-18.12 3.688c-.701 0-1.25.611-1.25 1.313 0 .701.549 1.25 1.25 1.25.701 0 1.281-.549 1.281-1.25 0-.701-.58-1.313-1.281-1.313m5.188 0c-.701 0-1.281.611-1.281 1.313 0 .701.58 1.25 1.281 1.25.701 0 1.281-.549 1.281-1.25 0-.701-.58-1.313-1.281-1.313m5.188 0c-.701 0-1.281.611-1.281 1.313 0 .701.58 1.25 1.281 1.25.701 0 1.25-.549 1.25-1.25 0-.701-.549-1.313-1.25-1.313m5.156 0c-.701 0-1.25.611-1.25 1.313 0 .701.549 1.25 1.25 1.25.701 0 1.281-.549 1.281-1.25 0-.701-.58-1.313-1.281-1.313m5.188 0c-.701 0-1.281.611-1.281 1.313 0 .701.58 1.25 1.281 1.25.124 0 .261-.03.375-.063l-.094-2.469c-.083-.017-.194-.031-.281-.031m-23.281 3.687c-.526 0-.96.354-1.156.813l-.094.75c.002.01-.002.021 0 .031.132.56.647.969 1.25.969.701 0 1.281-.549 1.281-1.25 0-.701-.58-1.313-1.281-1.313m5.156 0c-.701 0-1.25.611-1.25 1.313 0 .701.549 1.25 1.25 1.25.701 0 1.281-.549 1.281-1.25 0-.701-.58-1.313-1.281-1.313m5.188 0c-.701 0-1.281.611-1.281 1.313 0 .701.58 1.25 1.281 1.25.701 0 1.281-.549 1.281-1.25 0-.701-.58-1.313-1.281-1.313m5.188 0c-.701 0-1.281.611-1.281 1.313 0 .701.58 1.25 1.281 1.25.701 0 1.25-.549 1.25-1.25 0-.701-.549-1.313-1.25-1.313m5.156 0c-.701 0-1.25.611-1.25 1.313 0 .701.549 1.25 1.25 1.25.701 0 1.281-.549 1.281-1.25 0-.701-.58-1.313-1.281-1.313m-18.12 3.688c-.701 0-1.25.611-1.25 1.313 0 .701.549 1.25 1.25 1.25.701 0 1.281-.549 1.281-1.25 0-.701-.58-1.313-1.281-1.313m5.188 0c-.701 0-1.281.611-1.281 1.313 0 .701.58 1.25 1.281 1.25.701 0 1.281-.549 1.281-1.25 0-.701-.58-1.313-1.281-1.313m5.188 0c-.701 0-1.281.611-1.281 1.313 0 .701.58 1.25 1.281 1.25.701 0 1.25-.549 1.25-1.25 0-.701-.549-1.313-1.25-1.313m5.156 0c-.701 0-1.25.611-1.25 1.313 0 .701.549 1.25 1.25 1.25.701 0 1.281-.549 1.281-1.25 0-.701-.58-1.313-1.281-1.313m5.188 0c-.701 0-1.281.611-1.281 1.313 0 .701.58 1.25 1.281 1.25.258 0 .485-.121.688-.25l-.094-2.125c-.179-.096-.379-.188-.594-.188m-24.813.656l-.156 1.5c.222-.223.375-.502.375-.844 0-.246-.096-.46-.219-.656m1.531 3.03c-.701 0-1.281.611-1.281 1.313 0 .701.58 1.25 1.281 1.25.701 0 1.281-.549 1.281-1.25 0-.701-.58-1.313-1.281-1.313m5.156 0c-.701 0-1.25.611-1.25 1.313 0 .701.549 1.25 1.25 1.25.701 0 1.281-.549 1.281-1.25 0-.701-.58-1.313-1.281-1.313m5.188 0c-.701 0-1.281.611-1.281 1.313 0 .701.58 1.25 1.281 1.25.701 0 1.281-.549 1.281-1.25 0-.701-.58-1.313-1.281-1.313m5.188 0c-.701 0-1.281.611-1.281 1.313 0 .701.58 1.25 1.281 1.25.701 0 1.25-.549 1.25-1.25 0-.701-.549-1.313-1.25-1.313m5.156 0c-.701 0-1.25.611-1.25 1.313 0 .701.549 1.25 1.25 1.25.701 0 1.281-.549 1.281-1.25 0-.701-.58-1.313-1.281-1.313m-18.375 3.75c-.575.121-1 .637-1 1.25 0 .701.549 1.25 1.25 1.25.701 0 1.281-.549 1.281-1.25 0-.701-.58-1.25-1.281-1.25-.088 0-.168-.017-.25 0m5.188 0c-.581.121-1.031.637-1.031 1.25 0 .701.58 1.25 1.281 1.25.701 0 1.281-.549 1.281-1.25 0-.701-.58-1.25-1.281-1.25-.088 0-.167-.017-.25 0m5.188 0c-.581.121-1.031.637-1.031 1.25 0 .701.58 1.25 1.281 1.25.701 0 1.25-.549 1.25-1.25 0-.701-.549-1.25-1.25-1.25-.088 0-.167-.017-.25 0m5.156 0c-.575.121-1 .637-1 1.25 0 .701.549 1.25 1.25 1.25.701 0 1.281-.549 1.281-1.25 0-.701-.58-1.25-1.281-1.25-.088 0-.168-.017-.25 0m5.188 0c-.581.121-1.031.637-1.031 1.25 0 .701.58 1.25 1.281 1.25.406 0 .764-.178 1-.469l-.063-1.625c-.235-.251-.572-.406-.938-.406-.088 0-.167-.017-.25 0m-25.25.031l-.25 2.469c.648-.056 1.156-.588 1.156-1.25 0-.577-.376-1.062-.906-1.219m1.969 3.656c-.581.121-1.031.668-1.031 1.281 0 .701.58 1.25 1.281 1.25.701 0 1.281-.549 1.281-1.25 0-.701-.58-1.281-1.281-1.281-.088 0-.167-.017-.25 0m5.156 0c-.575.121-1 .668-1 1.281 0 .701.549 1.25 1.25 1.25.701 0 1.281-.549 1.281-1.25 0-.701-.58-1.281-1.281-1.281-.088 0-.168-.017-.25 0m5.188 0c-.581.121-1.031.668-1.031 1.281 0 .701.58 1.25 1.281 1.25.701 0 1.281-.549 1.281-1.25 0-.701-.58-1.281-1.281-1.281-.088 0-.167-.017-.25 0m5.188 0c-.581.121-1.031.668-1.031 1.281 0 .701.58 1.25 1.281 1.25.701 0 1.25-.549 1.25-1.25 0-.701-.549-1.281-1.25-1.281-.088 0-.167-.017-.25 0m5.156 0c-.575.121-1 .668-1 1.281 0 .701.549 1.25 1.25 1.25.701 0 1.281-.549 1.281-1.25 0-.701-.58-1.281-1.281-1.281-.088 0-.168-.017-.25 0m-23.281 3.688c-.049.01-.078.047-.125.063l-.156 1.406.625 1.063c.662-.043 1.188-.578 1.188-1.25 0-.701-.58-1.281-1.281-1.281-.088 0-.167-.017-.25 0m5.156 0c-.575.121-1 .668-1 1.281 0 .701.549 1.25 1.25 1.25.701 0 1.281-.549 1.281-1.25 0-.701-.58-1.281-1.281-1.281-.088 0-.168-.017-.25 0m5.188 0c-.581.121-1.031.668-1.031 1.281 0 .701.58 1.25 1.281 1.25.701 0 1.281-.549 1.281-1.25 0-.701-.58-1.281-1.281-1.281-.088 0-.167-.017-.25 0m5.188 0c-.581.121-1.031.668-1.031 1.281 0 .701.58 1.25 1.281 1.25.701 0 1.25-.549 1.25-1.25 0-.701-.549-1.281-1.25-1.281-.088 0-.167-.017-.25 0m5.156 0c-.575.121-1 .668-1 1.281 0 .701.549 1.25 1.25 1.25.701 0 1.281-.549 1.281-1.25 0-.701-.58-1.281-1.281-1.281-.088 0-.168-.017-.25 0m5.188 0c-.581.121-1.031.668-1.031 1.281 0 .701.58 1.25 1.281 1.25.701 0 1.281-.549 1.281-1.25 0-.058.008-.131 0-.188v-.094c-.121-.581-.668-1-1.281-1-.088 0-.167-.017-.25 0m-23.281 3.687c-.498.103-.897.502-1 1l.844 1.438c.134.046.257.094.406.094.701 0 1.281-.549 1.281-1.25 0-.701-.58-1.281-1.281-1.281-.088 0-.167-.017-.25 0m5.156 0c-.575.121-1 .668-1 1.281 0 .701.549 1.25 1.25 1.25.701 0 1.281-.549 1.281-1.25 0-.701-.58-1.281-1.281-1.281-.088 0-.168-.017-.25 0m5.188 0c-.581.121-1.031.668-1.031 1.281 0 .701.58 1.25 1.281 1.25.701 0 1.281-.549 1.281-1.25 0-.701-.58-1.281-1.281-1.281-.088 0-.167-.017-.25 0m5.188 0c-.581.121-1.031.668-1.031 1.281 0 .701.58 1.25 1.281 1.25.701 0 1.25-.549 1.25-1.25 0-.701-.549-1.281-1.25-1.281-.088 0-.167-.017-.25 0m5.156 0c-.575.121-1 .668-1 1.281 0 .701.549 1.25 1.25 1.25.701 0 1.281-.549 1.281-1.25 0-.701-.58-1.281-1.281-1.281-.088 0-.168-.017-.25 0m4.281.813c-.045.111-.114.22-.125.344l.125-.156v-.188m-22.406 2.875c-.575.121-1 .668-1 1.281 0 .701.549 1.25 1.25 1.25.701 0 1.281-.549 1.281-1.25 0-.701-.58-1.281-1.281-1.281-.088 0-.168-.017-.25 0m5.188 0c-.581.121-1.031.668-1.031 1.281 0 .701.58 1.25 1.281 1.25.701 0 1.281-.549 1.281-1.25 0-.701-.58-1.281-1.281-1.281-.088 0-.167-.017-.25 0m5.188 0c-.581.121-1.031.668-1.031 1.281 0 .701.58 1.25 1.281 1.25.701 0 1.25-.549 1.25-1.25 0-.701-.549-1.281-1.25-1.281-.088 0-.167-.017-.25 0m5.156 0c-.575.121-1 .668-1 1.281 0 .701.549 1.25 1.25 1.25.701 0 1.281-.549 1.281-1.25 0-.701-.58-1.281-1.281-1.281-.088 0-.168-.017-.25 0m4.906.125c-.402.197-.718.596-.75 1.063l.75-1.063m-17.844 3.594c-.575.121-1 .668-1 1.281 0 .701.549 1.25 1.25 1.25.701 0 1.281-.549 1.281-1.25 0-.701-.58-1.281-1.281-1.281-.088 0-.168-.017-.25 0m5.188 0c-.581.121-1.031.668-1.031 1.281 0 .701.58 1.25 1.281 1.25.701 0 1.281-.549 1.281-1.25 0-.701-.58-1.281-1.281-1.281-.088 0-.167-.017-.25 0m5.188 0c-.581.121-1.031.668-1.031 1.281 0 .701.58 1.25 1.281 1.25.701 0 1.25-.549 1.25-1.25 0-.701-.549-1.281-1.25-1.281-.088 0-.167-.017-.25 0m4.875.125c-.361.192-.629.544-.688.969l.688-.969m-12.656 3.563c-.581.121-1.031.668-1.031 1.281 0 .701.58 1.25 1.281 1.25.701 0 1.281-.549 1.281-1.25 0-.701-.58-1.281-1.281-1.281-.088 0-.167-.017-.25 0m5.188 0c-.581.121-1.031.668-1.031 1.281 0 .701.58 1.25 1.281 1.25.701 0 1.25-.549 1.25-1.25 0-.701-.549-1.281-1.25-1.281-.088 0-.167-.017-.25 0m4.906.125c-.396.19-.71.569-.75 1.031l.75-1.031" transform="translate(-8132.47 428.5)" opacity=".724" fill="#8f9598"/></g><g fill="#e3e5e6"><path d="m-8478.84-763.94c-15.56 0-28.19 2.609-28.19 5.813 0 .112.032.202.062.313-.023.143-.062.288-.062.438v222.63c0 1.53 1.251 2.75 2.781 2.75h50.813c1.53 0 2.75-1.22 2.75-2.75v-222.62c0-.138-.012-.274-.031-.406.034-.117.031-.225.031-.344 0-3.203-12.596-5.813-28.16-5.813"/><path d="m-8503.71-718.71v-40.603c0 0-5.469-1.634-9.391-1.657-7.788 30.19-10.22 63.16-10.22 95.02 0 48.772 11.734 87.71 12.153 97.5.205 4.787-2.917 10.632-2.486 11.877 1.056 3.05 1.781 2.889 3.591 1.657 0 0 1.635-2.97 2.21-13.534.574-10.565-16.296-81.914-1.933-146.39.522-2.343 6.077-3.867 6.077-3.867"/></g><rect width="48.06" height="6.905" x="-8502.88" y="-59.679" rx="3.453" fill="#31647f"/><g><rect rx="5.424" y="-106.64" x="-8502.88" height="48.06" width="48.06" fill="#e3e5e6"/><path transform="matrix(.98605.16645-.16645.98605 0 0)" d="m-8353.53 1308.86l1.547 9.14-49.29-.915z" fill="#2a3c45" fill-opacity=".381"/></g><g fill="#31647f"><rect rx="1.752" y="-532" x="-8507.02" height="432.27" width="56.34" id="3"/><use xlink:href="#3"/></g></g></g></svg>