<svg xmlns="http://www.w3.org/2000/svg" viewBox="0 0 64 64"><g color="#000"><path d="m0 4v30 28l2 2h30 30l2-2v-28-30h-32-32" fill="#2e589b"/><path d="m2 0l-2 1v3h32 32v-3l-2-1h-30-30" fill="#4681ca"/></g><path d="m2.719 0l-.813.469h3.813l-.813-.469h-2.188m3 .469h3.813l-.813-.469h-2.188l-.813.469m0 0l-1.906 1.063h3.813l-1.906-1.063m1.906 1.063h3.813l-1.906-1.063-1.906 1.063m0 0l-1.906 1.094h3.813l-1.906-1.094m1.906 1.094h3.813l-1.906-1.094-1.906 1.094m0 0l-1.906 1.094h3.813l-1.906-1.094m1.906 1.094h3.813l-1.906-1.094-1.906 1.094m0 0l-.5.281h1l-.5-.281m1.906-1.094h3.813l-1.906-1.094-1.906 1.094m1.906-1.094l-1.906-1.063-1.906 1.063h3.813m0 0h3.813l-1.906-1.063-1.906 1.063m1.906-1.063l-.813-.469h-2.188l-.813.469h3.813m0 0h3.813l-.813-.469h-2.188l-.813.469m3.813 0h3.813l-.813-.469h-2.156l-.844.469m0 0l-1.906 1.063h3.844l-1.938-1.063m1.938 1.063h3.813l-1.938-1.063-1.875 1.063m0 0l-1.938 1.094h3.813l-1.875-1.094m1.875 1.094h3.844l-1.906-1.094-1.938 1.094m0 0l-1.875 1.094h3.813l-1.938-1.094m1.938 1.094h3.813l-1.906-1.094-1.906 1.094m0 0l-.5.281h1l-.5-.281m1.906-1.094h3.813l-1.906-1.094-1.906 1.094m1.906-1.094l-1.906-1.063-1.906 1.063h3.813m0 0h3.813l-1.906-1.063-1.906 1.063m1.906-1.063l-.813-.469h-2.188l-.813.469h3.813m0 0h3.813l-.813-.469h-2.188l-.813.469m3.813 0h3.813l-.813-.469h-2.188l-.813.469m0 0l-1.906 1.063h3.813l-1.906-1.063m1.906 1.063h3.844l-1.938-1.063-1.906 1.063m0 0l-1.906 1.094h3.813l-1.906-1.094m1.906 1.094h3.844l-1.906-1.094-1.938 1.094m0 0l-1.906 1.094h3.844l-1.938-1.094m1.938 1.094h3.813l-1.906-1.094-1.906 1.094m0 0l-.5.281h1l-.5-.281m1.906-1.094h3.813l-1.906-1.094-1.906 1.094m1.906-1.094l-1.906-1.063-1.906 1.063h3.813m0 0h3.813l-1.906-1.063-1.906 1.063m1.906-1.063l-.813-.469h-2.188l-.813.469h3.813m0 0h3.813l-.813-.469h-2.188l-.813.469m3.813 0h3.813l-.813-.469h-2.188l-.813.469m0 0l-1.906 1.063h3.813l-1.906-1.063m1.906 1.063h3.844l-1.938-1.063-1.906 1.063m0 0l-1.906 1.094h3.813l-1.906-1.094m1.906 1.094h3.844l-1.906-1.094-1.938 1.094m0 0l-1.906 1.094h3.844l-1.938-1.094m1.938 1.094h3.781l-1.875-1.094-1.906 1.094m0 0l-.5.281h1l-.5-.281m1.906-1.094h3.813l-1.938-1.094-1.875 1.094m1.875-1.094l-1.875-1.063-1.906 1.063h3.781m0 0h2.938v-.5l-.469-.25-.563-.281-1.906 1.031m-1.875-1.063l-.813-.469h-2.188l-.844.469h3.844m0 0h3.75l-.938-.469h-2l-.813.469m3.813 2.156h1v-.563l-1 .563m0 0l-1.938 1.094h2.938v-.531l-1-.563m-1.938 1.094l-.469.281h.969l-.5-.281m-7.625 0l-.5.281h1l-.5-.281m0 0l-1.906-1.094-1.906 1.094h3.813m-3.813 0l-.5.281h1l-.5-.281m0 0l-1.906-1.094-1.906 1.094h3.813m-3.813 0l-.5.281h1l-.5-.281m1.906-1.094h3.813l-1.906-1.094-1.906 1.094m-3.813-2.156l-.813-.469h-2.188l-.844.469h3.844m-5.75 3.25l-.5.281h1l-.5-.281m0 0l-1.906-1.094-1.906 1.094h3.813m-3.813 0l-.5.281h1l-.5-.281m0 0l-1.906-1.094-1.906 1.094h3.813m-3.813 0l-.5.281h1l-.5-.281m1.906-1.094h3.813l-1.906-1.094-1.906 1.094m-3.813-2.156l-.813-.469h-2.188l-.844.469h3.844m-5.719 3.25l-.5.281h.969l-.469-.281m0 0l-1.938-1.094-1.906 1.094h3.844m-3.844 0l-.5.281h1l-.5-.281m0 0l-1.906-1.094-1.906 1.094h3.813m-3.813 0l-.5.281h1l-.5-.281m1.906-1.094h3.813l-1.906-1.094-1.906 1.094m-3.813-2.156l-.813-.469h-2.188l-.813.469h3.813m-5.719 3.25l-.5.281h1l-.5-.281m0 0l-1.906-1.094-1.906 1.094h3.813m-3.813 0l-.5.281h1l-.5-.281m0 0l-1.906-1.094-1.906 1.063v.031h3.813m-1.906-1.094l-1.906-1.063v1.063h1.906m0 0h3.813l-1.906-1.094-1.906 1.094m1.906-1.094l-1.906-1.063-1.906 1.031v.031h3.813m-1.906-1.063l-.406-.219-.438.219h.844m-1.906 3.281v.25h.469l-.469-.25" fill="#84caff" fill-opacity=".343"/><path d="m0 4v2.281h1.906l-1.344-2.281h-.563m1.906 2.281h3.813l-1.313-2.281h-1.188l-1.313 2.281m0 0l-1.906 3.219v.063h3.813l-1.906-3.281m1.906 3.281h3.813l-1.906-3.281-1.906 3.281m0 0l-1.906 3.313h3.813l-1.906-3.313m1.906 3.313h3.813l-1.906-3.313-1.906 3.313m0 0l-1.906 3.313h3.813l-1.906-3.313m1.906 3.313h3.813l-1.906-3.313-1.906 3.313m0 0l-1.906 3.313h3.813l-1.906-3.313m1.906 3.313h3.813l-1.906-3.313-1.906 3.313m0 0l-1.906 3.313h3.813l-1.906-3.313m1.906 3.313h3.813l-1.906-3.313-1.906 3.313m0 0l-1.906 3.281h3.813l-1.906-3.281m1.906 3.281h.531c.49-.969 1.08-1.857 1.719-2.688l-.344-.594-1.906 3.281m0 0l-1.906 3.313h1.25c.247-.996.571-1.918.969-2.781l-.313-.531m-1.906 3.313l-1.906 3.313h2.656c.011-.19.016-.37.031-.563.031-.388.103-.756.156-1.125l-.938-1.625m0 0l-1.906-3.313-1.906 3.313h3.813m-3.813 0l-1.906 3.313h3.813l-1.906-3.313m0 0l-1.906-3.313-1.906 3.313h3.813m-3.813 0l-1.906 3.313h3.813l-1.906-3.313m0 0l-1.906-3.313-1.906 3.25v.063h3.813m-1.906-3.313l-1.906-3.219v3.219h1.906m0 0h3.813l-1.906-3.281-1.906 3.281m1.906-3.281l-1.906-3.313-1.906 3.25v.063h3.813m0 0h3.813l-1.906-3.313-1.906 3.313m1.906-3.313l-1.906-3.313-1.906 3.313h3.813m-3.813 0l-1.906-3.25v3.25h1.906m1.906-3.313l-1.906-3.313-1.906 3.25v.063h3.813m-1.906-3.313l-1.906-3.25v3.25h1.906m5.719 9.938l-1.906 3.281h3.813l-1.906-3.281m-1.906 9.906l-1.906 3.313h3.813l-1.906-3.313m1.906 3.313h3.813l-1.906-3.313-1.906 3.313m0 0l-1.906 3.313h3.813l-1.906-3.313m1.906 3.313h3.344c-.126-.432-.218-.887-.313-1.344l-1.125-1.969-1.906 3.313m0 0l-1.906 3.313h3.813l-1.906-3.313m1.906 3.313h2.813c-.465-.867-.894-1.785-1.219-2.781l-1.594 2.781m0 0l-1.906 3.281h3.813l-1.906-3.281m1.906 3.281h3.188c-.649-.734-1.243-1.531-1.781-2.406l-1.406 2.406m0 0l-1.906 3.313h3.813l-1.906-3.313m1.906 3.313h3.813l-1.031-1.781c-.384-.344-.762-.709-1.125-1.094l-1.656 2.875m0 0l-1.906 3.313h3.813l-1.906-3.313m1.906 3.313h3.813l-1.906-3.313-1.906 3.313m0 0l-1.906 3.313h3.813l-1.906-3.313m1.906 3.313h3.844l-1.938-3.313-1.906 3.313m0 0l-1.906 3.313h3.813l-1.906-3.313m1.906 3.313h3.813l-1.875-3.313-1.938 3.313m0 0l-1.906 3.281h3.844l-1.938-3.281m1.938 3.281h3.813l-1.938-3.281-1.875 3.281m0 0l-.906 1.531h1.781l-.875-1.531m1.875-3.281h3.844l-1.906-3.313-1.938 3.313m1.938-3.313l-1.938-3.313-1.875 3.313h3.813m0 0h3.813l-1.906-3.313-1.906 3.313m1.906-3.313l-.313-.563c-.989-.103-1.959-.247-2.906-.5l-.625 1.063h3.844m0 0h3.813l-.313-.563c-1.073.106-2.154.14-3.219.063l-.281.5m3.813 0h3.813l-.719-1.219c-.898.271-1.796.467-2.719.594h-.031l-.344.625m0 0l-1.906 3.313h3.813l-1.906-3.313m1.906 3.313h3.813l-1.906-3.313-1.906 3.313m0 0l-1.906 3.313h3.813l-1.906-3.313m1.906 3.313h3.813l-1.906-3.313-1.906 3.313m0 0l-1.906 3.281h3.813l-1.906-3.281m1.906 3.281h3.844l-1.938-3.281-1.906 3.281m0 0l-.875 1.531h1.75l-.875-1.531m1.906-3.281h3.844l-1.906-3.313-1.938 3.313m1.938-3.313l-1.938-3.313-1.906 3.313h3.844m0 0h3.813l-1.906-3.313-1.906 3.313m1.906-3.313l-1.906-3.313-1.938 3.313h3.844m0 0h3.813l-1.906-3.313-1.906 3.313m1.906-3.313l-1.906-3.313-1.906 3.313h3.813m0 0h3.813l-1.906-3.313-1.906 3.313m1.906-3.313l-1.719-2.938c-.587 1.054-1.293 2.027-2.094 2.938h3.813m0 0h3.813l-1.906-3.281-1.906 3.281m1.906-3.281l-1.906-3.313-.469.813c-.298.872-.642 1.702-1.063 2.5h3.438m0 0h3.813l-1.906-3.313-1.906 3.313m1.906-3.313l-1.906-3.313-1.906 3.313h3.813m0 0h3.813l-1.906-3.313-1.906 3.313m1.906-3.313l-1.906-3.313-1.906 3.313h3.813m0 0h3.844l-1.938-3.313-1.906 3.313m1.906-3.313l-1.906-3.313-1.906 3.313h3.813m0 0h3.844l-1.906-3.313-1.938 3.313m1.938-3.313l-1.938-3.313-1.906 3.313h3.844m0 0h3.781l-1.875-3.313-1.906 3.313m1.906-3.313l-1.906-3.281-1.938 3.281h3.844m0 0h3.813l-1.938-3.281-1.875 3.281m1.875-3.281l-1.875-3.313-1.906 3.313h3.781m0 0h2.938v-1.563l-1-1.75-1.938 3.313m1.938-3.313l-1.938-3.313-1.875 3.313h3.813m0 0h1v-1.75l-1 1.75m-3.813 0l-1.906-3.313-1.938 3.313h3.844m-3.844 0l-1.906 3.313h3.844l-1.938-3.313m0 0l-1.906-3.313-1.906 3.313h3.813m-3.813 0l-1.906 3.313h3.813l-1.906-3.313m0 0l-1.906-3.313-1.906 3.313h3.813m-3.813 0l-1.906 3.313h3.813l-1.906-3.313m0 0l-1.906-3.313-1.906 3.313h3.813m-3.813 0l-.938 1.656c.502.492.967 1.04 1.438 1.656h1.406l-1.906-3.313m0 0l-1.906-3.313-1.656 2.844c.221.147.415.316.625.469h2.938m-1.906-3.313l-1.938-3.313-1.906 3.313h3.844m0 0h3.813l-1.906-3.313-1.906 3.313m1.906-3.313l-1.906-3.313-1.938 3.313h3.844m0 0h3.813l-1.906-3.313-1.906 3.313m1.906-3.313l-1.906-3.281-1.906 3.281h3.813m0 0h3.813l-1.906-3.281-1.906 3.281m1.906-3.281l-1.313-2.281h-1.188l-1.313 2.281h3.813m0 0h3.813l-1.313-2.281h-1.188l-1.313 2.281m3.813 0h3.813l-1.313-2.281h-1.188l-1.313 2.281m0 0l-1.906 3.281h3.813l-1.906-3.281m1.906 3.281h3.844l-1.938-3.281-1.906 3.281m0 0l-1.906 3.313h3.813l-1.906-3.313m1.906 3.313h3.844l-1.906-3.313-1.938 3.313m0 0l-1.906 3.313h3.844l-1.938-3.313m1.938 3.313h3.781l-1.875-3.313-1.906 3.313m1.906-3.313h3.813l-1.938-3.313-1.875 3.313m1.875-3.313l-1.875-3.281-1.906 3.281h3.781m0 0h2.938v-1.563l-1-1.719-1.938 3.281m1.938-3.281l-1.344-2.281h-1.188l-1.281 2.281h3.813m0 0h1v-1.75l-1 1.75m-3.813 0l-1.313-2.281h-1.188l-1.344 2.281h3.844m3.813 6.594h1v-1.75l-1 1.75m0 0l-1.938 3.313h2.938v-1.563l-1-1.75m-9.563 3.313l-1.906-3.313-1.906 3.313h3.813m-3.813 0l-1.906-3.313-1.906 3.313h3.813m-1.906-3.313h3.813l-1.906-3.313-1.906 3.313m-3.813-6.594l-1.313-2.281h-1.188l-1.344 2.281h3.844m-3.844 0l-1.875 3.281h3.813l-1.938-3.281m0 0l-1.281-2.281h-1.188l-1.344 2.281h3.813m-3.813 0l-1.906 3.281h3.813v.031l-1.906 3.281h3.813l-1.875-3.313-1.938-3.281m0 0l-1.313-2.281h-1.188l-1.313 2.281h3.813m-3.813 0l-1.906 3.281h3.813l-1.906-3.281m0 0l-1.313-2.281h-1.188l-1.313 2.281h3.813m-3.813 0l-1.906 3.281h3.813l-1.906-3.281m0 0l-1.313-2.281h-1.188l-1.344 2.281h3.844m-3.844 0l-1.875 3.281h3.813l-1.938-3.281m0 0l-1.281-2.281h-1.188l-1.344 2.281h3.813m-3.813 0l-1.906 3.281h3.844l-1.938-3.281m0 0l-1.313-2.281h-1.188l-1.313 2.281h3.813m-3.813 0l-1.906 3.281h3.813l-1.906-3.281m0 0l-1.313-2.281h-1.188l-1.313 2.281h3.813m-3.813 0l-1.906 3.281h3.813l-1.906-3.281m0 0l-1.313-2.281h-1.188l-1.313 2.281h3.813m-3.813 0l-1.906 3.281h3.813l-1.906-3.281m0 0l-1.313-2.281h-1.188l-1.313 2.281h3.813m1.906 3.281l-1.906 3.313h3.813l-1.906-3.313m1.906 3.313h3.813l-1.906-3.313-1.906 3.313m0 0l-1.906 3.313h3.813l-1.906-3.313m1.906 3.313h3.813l-1.906-3.313-1.906 3.313m0 0l-1.906 3.313h3.813l-1.906-3.313m1.906 3.313h2.375c.334-.249.67-.489 1.031-.719l-1.5-2.594-1.906 3.313m0 0l-1.906 3.313h.813c.397-.477.818-.934 1.25-1.375.196-.201.416-.398.625-.594l-.781-1.344m1.906-3.313h3.844l-1.938-3.313-1.906 3.313m1.906-3.313l-1.906-3.313-1.906 3.313h3.813m0 0h3.813l-1.875-3.313-1.938 3.313m3.813 0h3.844l-1.906-3.313-1.938 3.313m0 0l-1.875 3.313h3.813l-1.938-3.313m1.938 3.313h1.688c.697-.061 1.382-.096 2.031-.094.011 0 .021 0 .031 0l-1.844-3.219-1.906 3.313m0 0l-.156.25c.09-.017.19-.016.281-.031l-.125-.219m1.906-3.313h3.813l-1.906-3.313-1.906 3.313m3.813 0h3.813l-1.906-3.313-1.906 3.313m0 0l-1.844 3.219c.622.007 1.23.033 1.813.094h1.938l-1.906-3.313m1.906 3.313h3.813l-1.906-3.313-1.906 3.313m0 0l-.156.281c.127.026.25.065.375.094l-.219-.375m3.813 0l-.75 1.281c.75.315 1.435.674 2.094 1.063l-1.344-2.344m-15.25 0l-1.125 1.906c.551-.289 1.141-.546 1.75-.781l-.625-1.125m22.906 6.625l-.625 1.094c.44.677.849 1.411 1.219 2.188h1.313l-1.906-3.281m1.906 3.281h3.813l-1.906-3.281-1.906 3.281m0 0l-.75 1.313c.252.646.47 1.307.656 2h2l-1.906-3.313m1.906 3.313h3.813l-1.906-3.313-1.906 3.313m0 0l-1.469 2.563c.031.248.042.499.063.75h3.313l-1.906-3.313m1.906-3.313h3.813l-1.906-3.281-1.906 3.281m11.469 0h1v-1.719l-1 1.719m0 0l-1.938 3.313h2.938v-1.563l-1-1.75m-1.938 3.313l-1.875 3.313h3.813l-1.938-3.313m1.938 3.313h1v-1.75l-1 1.75m0 0l-1.938 3.313h2.938v-1.563l-1-1.75m-1.938 3.313l-1.875 3.313h3.813l-1.938-3.313m0 0l-1.875-3.313-1.906 3.313h3.781m-3.781 0l-1.938 3.313h3.844l-1.906-3.313m1.906 3.313l-1.906 3.313h3.781l-1.875-3.313m1.875 3.313h2.938v-1.563l-1-1.75-1.938 3.313m0 0l-1.875 3.281h3.813l-1.938-3.281m1.938 3.281h1v-1.719l-1 1.719m0 0l-1.938 3.313h2.938v-1.563l-1-1.75m-1.938 3.313l-1.875 3.313h3.813l-1.938-3.313m0 0l-1.875-3.313-1.906 3.313h3.781m-3.781 0l-1.938 3.313h3.844l-1.906-3.313m0 0l-1.938-3.313-1.906 3.313h3.844m-3.844 0l-1.906 3.313h3.813l-1.906-3.313m0 0l-1.906-3.313-1.906 3.313h3.813m-3.813 0l-1.906 3.313h3.813l-1.906-3.313m1.906 3.313l-1.906 3.313h3.813l-1.906-3.313m1.906 3.313h3.844l-1.938-3.313-1.906 3.313m0 0l-1.906 3.313h3.813l-1.906-3.313m1.906 3.313h3.844l-1.906-3.313-1.938 3.313m0 0l-1.906 3.281h3.844l-1.938-3.281m1.938 3.281h3.781l-1.875-3.281-1.906 3.281m0 0l-.906 1.531h1.781l-.875-1.531m1.906-3.281h3.813l-1.938-3.313-1.875 3.313m1.875-3.313l-1.875-3.313-1.906 3.313h3.781m0 0h2.938v-1.563l-1-1.75-1.938 3.313m1.938-3.313h1v-1.75l-1 1.75m0 6.625h1v-1.75l-1 1.75m0 0l-1.938 3.281h2.469l.469-.469v-1.094l-1-1.719m-1.938 3.281l-.875 1.531h1.781l-.906-1.531m-7.625 0l-.875 1.531h1.75l-.875-1.531m0 0l-1.906-3.281-1.906 3.281h3.813m-3.813 0l-.875 1.531h1.75l-.875-1.531m0 0l-1.906-3.281-1.906 3.281h3.813m-3.813 0l-.875 1.531h1.75l-.875-1.531m0 0l-1.906-3.281-1.906 3.281h3.813m-3.813 0l-.906 1.531h1.781l-.875-1.531m1.906-3.281h3.813l-1.906-3.313-1.906 3.313m1.906-3.313h3.813l-1.906-3.313-1.906 3.313m3.813 0l-1.906 3.313h3.813l-1.906-3.313m1.906-9.938h3.813l-1.906-3.281-1.906 3.281m1.906-3.281h3.844l-1.938-3.313-1.906 3.313m3.844 0l-1.938 3.281h3.844l-1.906-3.281m5.719-3.313h1v-1.75l-1 1.75m-13.375-3.313l-1.375-2.375c.023.777-.01 1.573-.094 2.375h1.469m-1.906 3.313l-.156-.25c-.023.082-.039.168-.063.25h.219m-5.719 9.906l-.563-.969c-.444.344-.922.657-1.406.969h1.969m-1.938 3.313l-1.438-2.5c-.421.226-.846.438-1.281.625h-.031l-1.063 1.875h3.813m-5.719 9.906l-.875 1.531h1.75l-.875-1.531m0 0l-1.906-3.281-1.906 3.281h3.813m-3.813 0l-.875 1.531h1.75l-.875-1.531m0 0l-1.906-3.281-1.906 3.281h3.813m-3.813 0l-.906 1.531h1.781l-.875-1.531m1.906-3.281h3.813l-1.906-3.313-1.906 3.313m-3.844-6.625l-.875-1.531c-.557-.202-1.098-.465-1.625-.719l-1.313 2.25h3.813m-5.719 9.906l-.875 1.531h1.75l-.875-1.531m0 0l-1.906-3.281-1.906 3.281h3.813m-3.813 0l-.875 1.531h1.75l-.875-1.531m0 0l-1.906-3.281-1.906 3.281h3.813m-3.813 0l-1.906-3.281-1.906 3.281-1.906-3.281-1.906 3.313h3.781l-.844 1.5h1.75l-.875-1.5h3.781l-.844 1.5h1.75l-.875-1.5v-.031m-7.625.031l-.875 1.5h1.75l-.875-1.5m0 0l-1.906-3.313-1.75 2.969.344.344h3.313m-1.906-3.313l-1.906-3.25v3.25h1.906m0 0h3.813l-1.906-3.313-1.906 3.313m1.906-3.313l-1.906-3.281-1.906 3.219v.063h3.813m0 0h3.813l-1.906-3.281-1.906 3.281m1.906-3.281l-1.906-3.344-1.906 3.344h3.813m0 0h3.813v-.031l-1.906-3.313-1.906 3.344m1.906-3.344l-1.906-3.313-1.906 3.313h3.813m0 0h3.813l-1.906-3.313-1.906 3.313m1.906-3.313l-1.906-3.281-1.906 3.281h3.813m-3.813 0l-1.906-3.281-1.906 3.281h3.813m-3.813 0l-1.906 3.25v.063h3.813l-1.906-3.313m0 0l-1.906-3.219v3.219h1.906m1.906-3.281l-1.906-3.313-1.906 3.25v.063h3.813m0 0h3.813l-1.906-3.313-1.906 3.313m1.906-3.313l-1.906-3.313-1.906 3.313h3.813m-3.813 0l-1.906-3.25v3.25h1.906m1.906-3.313l-1.906-3.313-1.906 3.25v.063h3.813m-1.906-3.313l-1.906-3.25v3.25h1.906m9.531 16.531l-1.906 3.313h3.813l-1.906-3.313m1.906 3.313l-1.906 3.313h3.813l-1.906-3.313m1.906 3.313l-1.906 3.313h3.813l-1.906-3.313m-1.906 3.313l-1.906-3.313-1.906 3.313h3.813m-3.813 0l-1.906-3.313-1.906 3.313h3.813m-1.906-3.313h3.813l-1.906-3.281-1.906 3.281m-5.719-3.281l-1.906-3.281v3.281h1.906m17.16-3.344h1.344c-.324-.209-.651-.422-.969-.656l-.375.656m-7.625-13.219h.813c-.042-.419-.046-.845-.063-1.281l-.75 1.281" fill="#001942" fill-opacity=".127"/><path d="m49.563 11.688c-2.355.008-4.859.156-7.03.156-4.848 0-9.605-.155-13.813.156-6.501.481-11.324 3.32-14.656 6.906-3.404 3.664-6.06 8.854-6.06 15.219 0 6.635 2.582 11.595 6.06 15.219 3.311 3.447 8.214 6.493 14.375 6.906 11.364.762 18.916-5.62 22.25-13.688 2.165-5.239 4.799-11.52 7.06-17.03.684-1.665 2.024-3.786 2.25-5.781.45-3.977-1.684-6.253-4.375-7.313-1.511-.595-3.707-.758-6.06-.75m2.313 2.531c1.502.063 2.94 1.144 2.75 3.125-.229 2.393-2.614 4.086-3.656 5.656h3.656c.22.323.22 1.364 0 1.688-1.839-.181-3.88-.162-5.906-.156-.862-3.163 4.478-5.272 3.938-7.875-.255-1.228-2.01-1.267-1.688.563h-2.094c-.039-2.093 1.498-3.063 3-3m-21.438 1.875c5.426.018 9.34 2.185 12.09 4.656 3.456 3.101 6.659 9.416 5.5 16.344-.947 5.656-4.136 10.127-9.313 12.938-5.632 3.059-12.702 2.618-17.75-.406-4.872-2.919-9.47-8.571-8.75-17.469.383-4.731 2.459-8.03 5.094-10.719 2.455-2.509 5.885-4.705 10.688-5.219.838-.09 1.662-.128 2.438-.125m-6.219 4.781v3.813h3.219c.311 1.098.881 1.928 1.125 3.094-2.78 4.745-5.951 9.907-8.719 14.5-.358.594-.888 1.331-.844 2h4.781c2.44-3.478 4.523-7.309 7.03-10.719 1.393 3.961 3.06 7.648 4.375 11.688 2.667-.667 5.378-1.318 7.625-2.406-.634-1.057-.732-2.64-1.406-3.656-1.063.44-2.188.841-3.406 1.125-2.277-6.646-5.03-12.791-7.313-19.438h-6.469" fill="#f5b52c"/><path d="m0 3v3l2-2" fill="#79ace2"/><path d="m64 6l-2-2 2-1" fill="#396aae"/></svg>