<?xml version="1.0" encoding="UTF-8" standalone="no"?>
<!-- Created with Inkscape (http://www.inkscape.org/) -->

<svg
   xmlns:dc="http://purl.org/dc/elements/1.1/"
   xmlns:cc="http://creativecommons.org/ns#"
   xmlns:rdf="http://www.w3.org/1999/02/22-rdf-syntax-ns#"
   xmlns:svg="http://www.w3.org/2000/svg"
   xmlns="http://www.w3.org/2000/svg"
   xmlns:sodipodi="http://sodipodi.sourceforge.net/DTD/sodipodi-0.dtd"
   xmlns:inkscape="http://www.inkscape.org/namespaces/inkscape"
   width="64"
   height="64"
   id="svg13094"
   version="1.1"
   inkscape:version="0.91+devel r"
   sodipodi:docname="half-life-2.svg">
  <sodipodi:namedview
     id="base"
     pagecolor="#ffffff"
     bordercolor="#666666"
     borderopacity="1.0"
     inkscape:pageopacity="0"
     inkscape:pageshadow="2"
     inkscape:zoom="11.313709"
     inkscape:cx="34.184548"
     inkscape:cy="31.309512"
     inkscape:document-units="px"
     inkscape:current-layer="svg13094"
     showgrid="true"
     inkscape:snap-bbox="true"
     inkscape:bbox-paths="true"
     inkscape:bbox-nodes="true"
     inkscape:snap-bbox-edge-midpoints="true"
     inkscape:snap-bbox-midpoints="true"
     inkscape:object-paths="true"
     inkscape:snap-intersection-paths="true"
     inkscape:object-nodes="true"
     inkscape:snap-smooth-nodes="true"
     inkscape:snap-midpoints="true"
     inkscape:snap-object-midpoints="true"
     inkscape:snap-center="true"
     showguides="true"
     inkscape:guide-bbox="true"
     inkscape:window-width="1920"
     inkscape:window-height="1023"
     inkscape:window-x="-10"
     inkscape:window-y="35"
     inkscape:window-maximized="1"
     inkscape:snap-global="false"
     fit-margin-top="0"
     fit-margin-left="0"
     fit-margin-right="0"
     fit-margin-bottom="0"
     showborder="true"
     inkscape:showpageshadow="false"
     inkscape:snap-page="true">
    <inkscape:grid
       type="xygrid"
       id="grid3075"
       empspacing="5"
       visible="true"
       enabled="true"
       snapvisiblegridlinesonly="true"
       originx="1.6362304e-08px"
       originy="18px" />
  </sodipodi:namedview>
  <defs
     id="defs13096" />
  <metadata
     id="metadata13099">
    <rdf:RDF>
      <cc:Work
         rdf:about="">
        <dc:format>image/svg+xml</dc:format>
        <dc:type
           rdf:resource="http://purl.org/dc/dcmitype/StillImage" />
        <dc:title></dc:title>
      </cc:Work>
    </rdf:RDF>
  </metadata>
  <path
     inkscape:connector-curvature="0"
     style="color:#000000;display:inline;overflow:visible;visibility:visible;fill:#2e589b;fill-opacity:1;fill-rule:nonzero;stroke:none;stroke-width:2.28571415;marker:none;enable-background:accumulate"
     d="m 0,4 0,30 0,28 2,2 30,0 30,0 2,-2 L 64,34 64,4 32,4 0,4 Z"
     id="path4095" />
  <path
     inkscape:connector-curvature="0"
     style="color:#000000;display:inline;overflow:visible;visibility:visible;fill:#4681ca;fill-opacity:1;fill-rule:nonzero;stroke:none;stroke-width:2.28571415;marker:none;enable-background:accumulate"
     d="M 2,0 0,1 0,4 32,4 64,4 64,1 62,0 32,0 2,0 Z"
     id="path4090" />
  <g
     id="g3043"
     inkscape:export-filename="folder.png"
     inkscape:export-xdpi="90"
     inkscape:export-ydpi="90"
     transform="translate(-0.62500009,0.082283)" />
  <g
     id="scalable"
     transform="matrix(1.0385892,0,0,1.0385892,1214.7222,1878.8121)"
     inkscape:label="#g3701"
     style="fill:#ffffff" />
  <path
     style="opacity:1;fill:#84caff;fill-opacity:0.34257603;fill-rule:nonzero;stroke:none"
     d="M 2.71875 0 L 1.90625 0.46875 L 5.71875 0.46875 L 4.90625 0 L 2.71875 0 z M 5.71875 0.46875 L 9.53125 0.46875 L 8.71875 0 L 6.53125 0 L 5.71875 0.46875 z M 5.71875 0.46875 L 3.8125 1.53125 L 7.625 1.53125 L 5.71875 0.46875 z M 7.625 1.53125 L 11.4375 1.53125 L 9.53125 0.46875 L 7.625 1.53125 z M 7.625 1.53125 L 5.71875 2.625 L 9.53125 2.625 L 7.625 1.53125 z M 9.53125 2.625 L 13.34375 2.625 L 11.4375 1.53125 L 9.53125 2.625 z M 9.53125 2.625 L 7.625 3.71875 L 11.4375 3.71875 L 9.53125 2.625 z M 11.4375 3.71875 L 15.25 3.71875 L 13.34375 2.625 L 11.4375 3.71875 z M 11.4375 3.71875 L 10.9375 4 L 11.9375 4 L 11.4375 3.71875 z M 13.34375 2.625 L 17.15625 2.625 L 15.25 1.53125 L 13.34375 2.625 z M 15.25 1.53125 L 13.34375 0.46875 L 11.4375 1.53125 L 15.25 1.53125 z M 15.25 1.53125 L 19.0625 1.53125 L 17.15625 0.46875 L 15.25 1.53125 z M 17.15625 0.46875 L 16.34375 0 L 14.15625 0 L 13.34375 0.46875 L 17.15625 0.46875 z M 17.15625 0.46875 L 20.96875 0.46875 L 20.15625 0 L 17.96875 0 L 17.15625 0.46875 z M 20.96875 0.46875 L 24.78125 0.46875 L 23.96875 0 L 21.8125 0 L 20.96875 0.46875 z M 20.96875 0.46875 L 19.0625 1.53125 L 22.90625 1.53125 L 20.96875 0.46875 z M 22.90625 1.53125 L 26.71875 1.53125 L 24.78125 0.46875 L 22.90625 1.53125 z M 22.90625 1.53125 L 20.96875 2.625 L 24.78125 2.625 L 22.90625 1.53125 z M 24.78125 2.625 L 28.625 2.625 L 26.71875 1.53125 L 24.78125 2.625 z M 24.78125 2.625 L 22.90625 3.71875 L 26.71875 3.71875 L 24.78125 2.625 z M 26.71875 3.71875 L 30.53125 3.71875 L 28.625 2.625 L 26.71875 3.71875 z M 26.71875 3.71875 L 26.21875 4 L 27.21875 4 L 26.71875 3.71875 z M 28.625 2.625 L 32.4375 2.625 L 30.53125 1.53125 L 28.625 2.625 z M 30.53125 1.53125 L 28.625 0.46875 L 26.71875 1.53125 L 30.53125 1.53125 z M 30.53125 1.53125 L 34.34375 1.53125 L 32.4375 0.46875 L 30.53125 1.53125 z M 32.4375 0.46875 L 31.625 0 L 29.4375 0 L 28.625 0.46875 L 32.4375 0.46875 z M 32.4375 0.46875 L 36.25 0.46875 L 35.4375 0 L 33.25 0 L 32.4375 0.46875 z M 36.25 0.46875 L 40.0625 0.46875 L 39.25 0 L 37.0625 0 L 36.25 0.46875 z M 36.25 0.46875 L 34.34375 1.53125 L 38.15625 1.53125 L 36.25 0.46875 z M 38.15625 1.53125 L 42 1.53125 L 40.0625 0.46875 L 38.15625 1.53125 z M 38.15625 1.53125 L 36.25 2.625 L 40.0625 2.625 L 38.15625 1.53125 z M 40.0625 2.625 L 43.90625 2.625 L 42 1.53125 L 40.0625 2.625 z M 40.0625 2.625 L 38.15625 3.71875 L 42 3.71875 L 40.0625 2.625 z M 42 3.71875 L 45.8125 3.71875 L 43.90625 2.625 L 42 3.71875 z M 42 3.71875 L 41.5 4 L 42.5 4 L 42 3.71875 z M 43.90625 2.625 L 47.71875 2.625 L 45.8125 1.53125 L 43.90625 2.625 z M 45.8125 1.53125 L 43.90625 0.46875 L 42 1.53125 L 45.8125 1.53125 z M 45.8125 1.53125 L 49.625 1.53125 L 47.71875 0.46875 L 45.8125 1.53125 z M 47.71875 0.46875 L 46.90625 0 L 44.71875 0 L 43.90625 0.46875 L 47.71875 0.46875 z M 47.71875 0.46875 L 51.53125 0.46875 L 50.71875 0 L 48.53125 0 L 47.71875 0.46875 z M 51.53125 0.46875 L 55.34375 0.46875 L 54.53125 0 L 52.34375 0 L 51.53125 0.46875 z M 51.53125 0.46875 L 49.625 1.53125 L 53.4375 1.53125 L 51.53125 0.46875 z M 53.4375 1.53125 L 57.28125 1.53125 L 55.34375 0.46875 L 53.4375 1.53125 z M 53.4375 1.53125 L 51.53125 2.625 L 55.34375 2.625 L 53.4375 1.53125 z M 55.34375 2.625 L 59.1875 2.625 L 57.28125 1.53125 L 55.34375 2.625 z M 55.34375 2.625 L 53.4375 3.71875 L 57.28125 3.71875 L 55.34375 2.625 z M 57.28125 3.71875 L 61.0625 3.71875 L 59.1875 2.625 L 57.28125 3.71875 z M 57.28125 3.71875 L 56.78125 4 L 57.78125 4 L 57.28125 3.71875 z M 59.1875 2.625 L 63 2.625 L 61.0625 1.53125 L 59.1875 2.625 z M 61.0625 1.53125 L 59.1875 0.46875 L 57.28125 1.53125 L 61.0625 1.53125 z M 61.0625 1.53125 L 64 1.53125 L 64 1.03125 L 63.53125 0.78125 L 62.96875 0.5 L 61.0625 1.53125 z M 59.1875 0.46875 L 58.375 0 L 56.1875 0 L 55.34375 0.46875 L 59.1875 0.46875 z M 59.1875 0.46875 L 62.9375 0.46875 L 62 0 L 60 0 L 59.1875 0.46875 z M 63 2.625 L 64 2.625 L 64 2.0625 L 63 2.625 z M 63 2.625 L 61.0625 3.71875 L 64 3.71875 L 64 3.1875 L 63 2.625 z M 61.0625 3.71875 L 60.59375 4 L 61.5625 4 L 61.0625 3.71875 z M 53.4375 3.71875 L 52.9375 4 L 53.9375 4 L 53.4375 3.71875 z M 53.4375 3.71875 L 51.53125 2.625 L 49.625 3.71875 L 53.4375 3.71875 z M 49.625 3.71875 L 49.125 4 L 50.125 4 L 49.625 3.71875 z M 49.625 3.71875 L 47.71875 2.625 L 45.8125 3.71875 L 49.625 3.71875 z M 45.8125 3.71875 L 45.3125 4 L 46.3125 4 L 45.8125 3.71875 z M 47.71875 2.625 L 51.53125 2.625 L 49.625 1.53125 L 47.71875 2.625 z M 43.90625 0.46875 L 43.09375 0 L 40.90625 0 L 40.0625 0.46875 L 43.90625 0.46875 z M 38.15625 3.71875 L 37.65625 4 L 38.65625 4 L 38.15625 3.71875 z M 38.15625 3.71875 L 36.25 2.625 L 34.34375 3.71875 L 38.15625 3.71875 z M 34.34375 3.71875 L 33.84375 4 L 34.84375 4 L 34.34375 3.71875 z M 34.34375 3.71875 L 32.4375 2.625 L 30.53125 3.71875 L 34.34375 3.71875 z M 30.53125 3.71875 L 30.03125 4 L 31.03125 4 L 30.53125 3.71875 z M 32.4375 2.625 L 36.25 2.625 L 34.34375 1.53125 L 32.4375 2.625 z M 28.625 0.46875 L 27.8125 0 L 25.625 0 L 24.78125 0.46875 L 28.625 0.46875 z M 22.90625 3.71875 L 22.40625 4 L 23.375 4 L 22.90625 3.71875 z M 22.90625 3.71875 L 20.96875 2.625 L 19.0625 3.71875 L 22.90625 3.71875 z M 19.0625 3.71875 L 18.5625 4 L 19.5625 4 L 19.0625 3.71875 z M 19.0625 3.71875 L 17.15625 2.625 L 15.25 3.71875 L 19.0625 3.71875 z M 15.25 3.71875 L 14.75 4 L 15.75 4 L 15.25 3.71875 z M 17.15625 2.625 L 20.96875 2.625 L 19.0625 1.53125 L 17.15625 2.625 z M 13.34375 0.46875 L 12.53125 0 L 10.34375 0 L 9.53125 0.46875 L 13.34375 0.46875 z M 7.625 3.71875 L 7.125 4 L 8.125 4 L 7.625 3.71875 z M 7.625 3.71875 L 5.71875 2.625 L 3.8125 3.71875 L 7.625 3.71875 z M 3.8125 3.71875 L 3.3125 4 L 4.3125 4 L 3.8125 3.71875 z M 3.8125 3.71875 L 1.90625 2.625 L 0 3.6875 L 0 3.71875 L 3.8125 3.71875 z M 1.90625 2.625 L 0 1.5625 L 0 2.625 L 1.90625 2.625 z M 1.90625 2.625 L 5.71875 2.625 L 3.8125 1.53125 L 1.90625 2.625 z M 3.8125 1.53125 L 1.90625 0.46875 L 0 1.5 L 0 1.53125 L 3.8125 1.53125 z M 1.90625 0.46875 L 1.5 0.25 L 1.0625 0.46875 L 1.90625 0.46875 z M 0 3.75 L 0 4 L 0.46875 4 L 0 3.75 z "
     id="path3887" />
  <path
     style="opacity:1;fill:#001942;fill-opacity:0.12701252;fill-rule:nonzero;stroke:none"
     d="M 0 4 L 0 6.28125 L 1.90625 6.28125 L 0.5625 4 L 0 4 z M 1.90625 6.28125 L 5.71875 6.28125 L 4.40625 4 L 3.21875 4 L 1.90625 6.28125 z M 1.90625 6.28125 L 0 9.5 L 0 9.5625 L 3.8125 9.5625 L 1.90625 6.28125 z M 3.8125 9.5625 L 7.625 9.5625 L 5.71875 6.28125 L 3.8125 9.5625 z M 3.8125 9.5625 L 1.90625 12.875 L 5.71875 12.875 L 3.8125 9.5625 z M 5.71875 12.875 L 9.53125 12.875 L 7.625 9.5625 L 5.71875 12.875 z M 5.71875 12.875 L 3.8125 16.1875 L 7.625 16.1875 L 5.71875 12.875 z M 7.625 16.1875 L 11.4375 16.1875 L 9.53125 12.875 L 7.625 16.1875 z M 7.625 16.1875 L 5.71875 19.5 L 9.53125 19.5 L 7.625 16.1875 z M 9.53125 19.5 L 13.34375 19.5 L 11.4375 16.1875 L 9.53125 19.5 z M 9.53125 19.5 L 7.625 22.8125 L 11.4375 22.8125 L 9.53125 19.5 z M 11.4375 22.8125 L 15.25 22.8125 L 13.34375 19.5 L 11.4375 22.8125 z M 11.4375 22.8125 L 9.53125 26.09375 L 13.34375 26.09375 L 11.4375 22.8125 z M 13.34375 26.09375 L 13.875 26.09375 C 14.365234 25.125116 14.955221 24.236745 15.59375 23.40625 L 15.25 22.8125 L 13.34375 26.09375 z M 13.34375 26.09375 L 11.4375 29.40625 L 12.6875 29.40625 C 12.934949 28.410655 13.25812 27.488006 13.65625 26.625 L 13.34375 26.09375 z M 11.4375 29.40625 L 9.53125 32.71875 L 12.1875 32.71875 C 12.198153 32.529157 12.203164 32.34888 12.21875 32.15625 C 12.250117 31.76859 12.321526 31.40009 12.375 31.03125 L 11.4375 29.40625 z M 11.4375 29.40625 L 9.53125 26.09375 L 7.625 29.40625 L 11.4375 29.40625 z M 7.625 29.40625 L 5.71875 32.71875 L 9.53125 32.71875 L 7.625 29.40625 z M 7.625 29.40625 L 5.71875 26.09375 L 3.8125 29.40625 L 7.625 29.40625 z M 3.8125 29.40625 L 1.90625 32.71875 L 5.71875 32.71875 L 3.8125 29.40625 z M 3.8125 29.40625 L 1.90625 26.09375 L 0 29.34375 L 0 29.40625 L 3.8125 29.40625 z M 1.90625 26.09375 L 0 22.875 L 0 26.09375 L 1.90625 26.09375 z M 1.90625 26.09375 L 5.71875 26.09375 L 3.8125 22.8125 L 1.90625 26.09375 z M 3.8125 22.8125 L 1.90625 19.5 L 0 22.75 L 0 22.8125 L 3.8125 22.8125 z M 3.8125 22.8125 L 7.625 22.8125 L 5.71875 19.5 L 3.8125 22.8125 z M 5.71875 19.5 L 3.8125 16.1875 L 1.90625 19.5 L 5.71875 19.5 z M 1.90625 19.5 L 0 16.25 L 0 19.5 L 1.90625 19.5 z M 3.8125 16.1875 L 1.90625 12.875 L 0 16.125 L 0 16.1875 L 3.8125 16.1875 z M 1.90625 12.875 L 0 9.625 L 0 12.875 L 1.90625 12.875 z M 7.625 22.8125 L 5.71875 26.09375 L 9.53125 26.09375 L 7.625 22.8125 z M 5.71875 32.71875 L 3.8125 36.03125 L 7.625 36.03125 L 5.71875 32.71875 z M 7.625 36.03125 L 11.4375 36.03125 L 9.53125 32.71875 L 7.625 36.03125 z M 7.625 36.03125 L 5.71875 39.34375 L 9.53125 39.34375 L 7.625 36.03125 z M 9.53125 39.34375 L 12.875 39.34375 C 12.749102 38.911563 12.657031 38.456512 12.5625 38 L 11.4375 36.03125 L 9.53125 39.34375 z M 9.53125 39.34375 L 7.625 42.65625 L 11.4375 42.65625 L 9.53125 39.34375 z M 11.4375 42.65625 L 14.25 42.65625 C 13.784545 41.789412 13.356164 40.871485 13.03125 39.875 L 11.4375 42.65625 z M 11.4375 42.65625 L 9.53125 45.9375 L 13.34375 45.9375 L 11.4375 42.65625 z M 13.34375 45.9375 L 16.53125 45.9375 C 15.882397 45.203519 15.288651 44.406981 14.75 43.53125 L 13.34375 45.9375 z M 13.34375 45.9375 L 11.4375 49.25 L 15.25 49.25 L 13.34375 45.9375 z M 15.25 49.25 L 19.0625 49.25 L 18.03125 47.46875 C 17.646956 47.125202 17.26877 46.759421 16.90625 46.375 L 15.25 49.25 z M 15.25 49.25 L 13.34375 52.5625 L 17.15625 52.5625 L 15.25 49.25 z M 17.15625 52.5625 L 20.96875 52.5625 L 19.0625 49.25 L 17.15625 52.5625 z M 17.15625 52.5625 L 15.25 55.875 L 19.0625 55.875 L 17.15625 52.5625 z M 19.0625 55.875 L 22.90625 55.875 L 20.96875 52.5625 L 19.0625 55.875 z M 19.0625 55.875 L 17.15625 59.1875 L 20.96875 59.1875 L 19.0625 55.875 z M 20.96875 59.1875 L 24.78125 59.1875 L 22.90625 55.875 L 20.96875 59.1875 z M 20.96875 59.1875 L 19.0625 62.46875 L 22.90625 62.46875 L 20.96875 59.1875 z M 22.90625 62.46875 L 26.71875 62.46875 L 24.78125 59.1875 L 22.90625 62.46875 z M 22.90625 62.46875 L 22 64 L 23.78125 64 L 22.90625 62.46875 z M 24.78125 59.1875 L 28.625 59.1875 L 26.71875 55.875 L 24.78125 59.1875 z M 26.71875 55.875 L 24.78125 52.5625 L 22.90625 55.875 L 26.71875 55.875 z M 26.71875 55.875 L 30.53125 55.875 L 28.625 52.5625 L 26.71875 55.875 z M 28.625 52.5625 L 28.3125 52 C 27.323382 51.897141 26.353101 51.753254 25.40625 51.5 L 24.78125 52.5625 L 28.625 52.5625 z M 28.625 52.5625 L 32.4375 52.5625 L 32.125 52 C 31.052478 52.106367 29.971138 52.139522 28.90625 52.0625 L 28.625 52.5625 z M 32.4375 52.5625 L 36.25 52.5625 L 35.53125 51.34375 C 34.63311 51.615089 33.734812 51.810786 32.8125 51.9375 L 32.78125 51.9375 L 32.4375 52.5625 z M 32.4375 52.5625 L 30.53125 55.875 L 34.34375 55.875 L 32.4375 52.5625 z M 34.34375 55.875 L 38.15625 55.875 L 36.25 52.5625 L 34.34375 55.875 z M 34.34375 55.875 L 32.4375 59.1875 L 36.25 59.1875 L 34.34375 55.875 z M 36.25 59.1875 L 40.0625 59.1875 L 38.15625 55.875 L 36.25 59.1875 z M 36.25 59.1875 L 34.34375 62.46875 L 38.15625 62.46875 L 36.25 59.1875 z M 38.15625 62.46875 L 42 62.46875 L 40.0625 59.1875 L 38.15625 62.46875 z M 38.15625 62.46875 L 37.28125 64 L 39.03125 64 L 38.15625 62.46875 z M 40.0625 59.1875 L 43.90625 59.1875 L 42 55.875 L 40.0625 59.1875 z M 42 55.875 L 40.0625 52.5625 L 38.15625 55.875 L 42 55.875 z M 42 55.875 L 45.8125 55.875 L 43.90625 52.5625 L 42 55.875 z M 43.90625 52.5625 L 42 49.25 L 40.0625 52.5625 L 43.90625 52.5625 z M 43.90625 52.5625 L 47.71875 52.5625 L 45.8125 49.25 L 43.90625 52.5625 z M 45.8125 49.25 L 43.90625 45.9375 L 42 49.25 L 45.8125 49.25 z M 45.8125 49.25 L 49.625 49.25 L 47.71875 45.9375 L 45.8125 49.25 z M 47.71875 45.9375 L 46 43 C 45.413026 44.053561 44.707027 45.027218 43.90625 45.9375 L 47.71875 45.9375 z M 47.71875 45.9375 L 51.53125 45.9375 L 49.625 42.65625 L 47.71875 45.9375 z M 49.625 42.65625 L 47.71875 39.34375 L 47.25 40.15625 C 46.951517 41.027925 46.608379 41.858552 46.1875 42.65625 L 49.625 42.65625 z M 49.625 42.65625 L 53.4375 42.65625 L 51.53125 39.34375 L 49.625 42.65625 z M 51.53125 39.34375 L 49.625 36.03125 L 47.71875 39.34375 L 51.53125 39.34375 z M 51.53125 39.34375 L 55.34375 39.34375 L 53.4375 36.03125 L 51.53125 39.34375 z M 53.4375 36.03125 L 51.53125 32.71875 L 49.625 36.03125 L 53.4375 36.03125 z M 53.4375 36.03125 L 57.28125 36.03125 L 55.34375 32.71875 L 53.4375 36.03125 z M 55.34375 32.71875 L 53.4375 29.40625 L 51.53125 32.71875 L 55.34375 32.71875 z M 55.34375 32.71875 L 59.1875 32.71875 L 57.28125 29.40625 L 55.34375 32.71875 z M 57.28125 29.40625 L 55.34375 26.09375 L 53.4375 29.40625 L 57.28125 29.40625 z M 57.28125 29.40625 L 61.0625 29.40625 L 59.1875 26.09375 L 57.28125 29.40625 z M 59.1875 26.09375 L 57.28125 22.8125 L 55.34375 26.09375 L 59.1875 26.09375 z M 59.1875 26.09375 L 63 26.09375 L 61.0625 22.8125 L 59.1875 26.09375 z M 61.0625 22.8125 L 59.1875 19.5 L 57.28125 22.8125 L 61.0625 22.8125 z M 61.0625 22.8125 L 64 22.8125 L 64 21.25 L 63 19.5 L 61.0625 22.8125 z M 63 19.5 L 61.0625 16.1875 L 59.1875 19.5 L 63 19.5 z M 63 19.5 L 64 19.5 L 64 17.75 L 63 19.5 z M 59.1875 19.5 L 57.28125 16.1875 L 55.34375 19.5 L 59.1875 19.5 z M 55.34375 19.5 L 53.4375 22.8125 L 57.28125 22.8125 L 55.34375 19.5 z M 55.34375 19.5 L 53.4375 16.1875 L 51.53125 19.5 L 55.34375 19.5 z M 51.53125 19.5 L 49.625 22.8125 L 53.4375 22.8125 L 51.53125 19.5 z M 51.53125 19.5 L 49.625 16.1875 L 47.71875 19.5 L 51.53125 19.5 z M 47.71875 19.5 L 45.8125 22.8125 L 49.625 22.8125 L 47.71875 19.5 z M 47.71875 19.5 L 45.8125 16.1875 L 43.90625 19.5 L 47.71875 19.5 z M 43.90625 19.5 L 42.96875 21.15625 C 43.470348 21.648062 43.935563 22.19577 44.40625 22.8125 L 45.8125 22.8125 L 43.90625 19.5 z M 43.90625 19.5 L 42 16.1875 L 40.34375 19.03125 C 40.564334 19.178097 40.758976 19.347138 40.96875 19.5 L 43.90625 19.5 z M 42 16.1875 L 40.0625 12.875 L 38.15625 16.1875 L 42 16.1875 z M 42 16.1875 L 45.8125 16.1875 L 43.90625 12.875 L 42 16.1875 z M 43.90625 12.875 L 42 9.5625 L 40.0625 12.875 L 43.90625 12.875 z M 43.90625 12.875 L 47.71875 12.875 L 45.8125 9.5625 L 43.90625 12.875 z M 45.8125 9.5625 L 43.90625 6.28125 L 42 9.5625 L 45.8125 9.5625 z M 45.8125 9.5625 L 49.625 9.5625 L 47.71875 6.28125 L 45.8125 9.5625 z M 47.71875 6.28125 L 46.40625 4 L 45.21875 4 L 43.90625 6.28125 L 47.71875 6.28125 z M 47.71875 6.28125 L 51.53125 6.28125 L 50.21875 4 L 49.03125 4 L 47.71875 6.28125 z M 51.53125 6.28125 L 55.34375 6.28125 L 54.03125 4 L 52.84375 4 L 51.53125 6.28125 z M 51.53125 6.28125 L 49.625 9.5625 L 53.4375 9.5625 L 51.53125 6.28125 z M 53.4375 9.5625 L 57.28125 9.5625 L 55.34375 6.28125 L 53.4375 9.5625 z M 53.4375 9.5625 L 51.53125 12.875 L 55.34375 12.875 L 53.4375 9.5625 z M 55.34375 12.875 L 59.1875 12.875 L 57.28125 9.5625 L 55.34375 12.875 z M 55.34375 12.875 L 53.4375 16.1875 L 57.28125 16.1875 L 55.34375 12.875 z M 57.28125 16.1875 L 61.0625 16.1875 L 59.1875 12.875 L 57.28125 16.1875 z M 59.1875 12.875 L 63 12.875 L 61.0625 9.5625 L 59.1875 12.875 z M 61.0625 9.5625 L 59.1875 6.28125 L 57.28125 9.5625 L 61.0625 9.5625 z M 61.0625 9.5625 L 64 9.5625 L 64 8 L 63 6.28125 L 61.0625 9.5625 z M 63 6.28125 L 61.65625 4 L 60.46875 4 L 59.1875 6.28125 L 63 6.28125 z M 63 6.28125 L 64 6.28125 L 64 4.53125 L 63 6.28125 z M 59.1875 6.28125 L 57.875 4 L 56.6875 4 L 55.34375 6.28125 L 59.1875 6.28125 z M 63 12.875 L 64 12.875 L 64 11.125 L 63 12.875 z M 63 12.875 L 61.0625 16.1875 L 64 16.1875 L 64 14.625 L 63 12.875 z M 53.4375 16.1875 L 51.53125 12.875 L 49.625 16.1875 L 53.4375 16.1875 z M 49.625 16.1875 L 47.71875 12.875 L 45.8125 16.1875 L 49.625 16.1875 z M 47.71875 12.875 L 51.53125 12.875 L 49.625 9.5625 L 47.71875 12.875 z M 43.90625 6.28125 L 42.59375 4 L 41.40625 4 L 40.0625 6.28125 L 43.90625 6.28125 z M 40.0625 6.28125 L 38.1875 9.5625 L 42 9.5625 L 40.0625 6.28125 z M 40.0625 6.28125 L 38.78125 4 L 37.59375 4 L 36.25 6.28125 L 40.0625 6.28125 z M 36.25 6.28125 L 34.34375 9.5625 L 38.15625 9.5625 L 38.15625 9.59375 L 36.25 12.875 L 40.0625 12.875 L 38.1875 9.5625 L 36.25 6.28125 z M 36.25 6.28125 L 34.9375 4 L 33.75 4 L 32.4375 6.28125 L 36.25 6.28125 z M 32.4375 6.28125 L 30.53125 9.5625 L 34.34375 9.5625 L 32.4375 6.28125 z M 32.4375 6.28125 L 31.125 4 L 29.9375 4 L 28.625 6.28125 L 32.4375 6.28125 z M 28.625 6.28125 L 26.71875 9.5625 L 30.53125 9.5625 L 28.625 6.28125 z M 28.625 6.28125 L 27.3125 4 L 26.125 4 L 24.78125 6.28125 L 28.625 6.28125 z M 24.78125 6.28125 L 22.90625 9.5625 L 26.71875 9.5625 L 24.78125 6.28125 z M 24.78125 6.28125 L 23.5 4 L 22.3125 4 L 20.96875 6.28125 L 24.78125 6.28125 z M 20.96875 6.28125 L 19.0625 9.5625 L 22.90625 9.5625 L 20.96875 6.28125 z M 20.96875 6.28125 L 19.65625 4 L 18.46875 4 L 17.15625 6.28125 L 20.96875 6.28125 z M 17.15625 6.28125 L 15.25 9.5625 L 19.0625 9.5625 L 17.15625 6.28125 z M 17.15625 6.28125 L 15.84375 4 L 14.65625 4 L 13.34375 6.28125 L 17.15625 6.28125 z M 13.34375 6.28125 L 11.4375 9.5625 L 15.25 9.5625 L 13.34375 6.28125 z M 13.34375 6.28125 L 12.03125 4 L 10.84375 4 L 9.53125 6.28125 L 13.34375 6.28125 z M 9.53125 6.28125 L 7.625 9.5625 L 11.4375 9.5625 L 9.53125 6.28125 z M 9.53125 6.28125 L 8.21875 4 L 7.03125 4 L 5.71875 6.28125 L 9.53125 6.28125 z M 11.4375 9.5625 L 9.53125 12.875 L 13.34375 12.875 L 11.4375 9.5625 z M 13.34375 12.875 L 17.15625 12.875 L 15.25 9.5625 L 13.34375 12.875 z M 13.34375 12.875 L 11.4375 16.1875 L 15.25 16.1875 L 13.34375 12.875 z M 15.25 16.1875 L 19.0625 16.1875 L 17.15625 12.875 L 15.25 16.1875 z M 15.25 16.1875 L 13.34375 19.5 L 17.15625 19.5 L 15.25 16.1875 z M 17.15625 19.5 L 19.53125 19.5 C 19.865442 19.251298 20.201099 19.011267 20.5625 18.78125 L 19.0625 16.1875 L 17.15625 19.5 z M 17.15625 19.5 L 15.25 22.8125 L 16.0625 22.8125 C 16.459455 22.335054 16.880475 21.878839 17.3125 21.4375 C 17.508762 21.236994 17.728586 21.039573 17.9375 20.84375 L 17.15625 19.5 z M 19.0625 16.1875 L 22.90625 16.1875 L 20.96875 12.875 L 19.0625 16.1875 z M 20.96875 12.875 L 19.0625 9.5625 L 17.15625 12.875 L 20.96875 12.875 z M 20.96875 12.875 L 24.78125 12.875 L 22.90625 9.5625 L 20.96875 12.875 z M 24.78125 12.875 L 28.625 12.875 L 26.71875 9.5625 L 24.78125 12.875 z M 24.78125 12.875 L 22.90625 16.1875 L 26.71875 16.1875 L 24.78125 12.875 z M 26.71875 16.1875 L 28.40625 16.1875 C 29.103531 16.126264 29.788295 16.091583 30.4375 16.09375 C 30.448088 16.093785 30.458174 16.093698 30.46875 16.09375 L 28.625 12.875 L 26.71875 16.1875 z M 26.71875 16.1875 L 26.5625 16.4375 C 26.652699 16.420672 26.752489 16.421841 26.84375 16.40625 L 26.71875 16.1875 z M 28.625 12.875 L 32.4375 12.875 L 30.53125 9.5625 L 28.625 12.875 z M 32.4375 12.875 L 36.25 12.875 L 34.34375 9.5625 L 32.4375 12.875 z M 32.4375 12.875 L 30.59375 16.09375 C 31.215706 16.10065 31.82384 16.126816 32.40625 16.1875 L 34.34375 16.1875 L 32.4375 12.875 z M 34.34375 16.1875 L 38.15625 16.1875 L 36.25 12.875 L 34.34375 16.1875 z M 34.34375 16.1875 L 34.1875 16.46875 C 34.314839 16.495048 34.437248 16.533753 34.5625 16.5625 L 34.34375 16.1875 z M 38.15625 16.1875 L 37.40625 17.46875 C 38.155835 17.783278 38.841161 18.142516 39.5 18.53125 L 38.15625 16.1875 z M 22.90625 16.1875 L 21.78125 18.09375 C 22.331979 17.804458 22.921858 17.547998 23.53125 17.3125 L 22.90625 16.1875 z M 45.8125 22.8125 L 45.1875 23.90625 C 45.627829 24.583528 46.036508 25.317741 46.40625 26.09375 L 47.71875 26.09375 L 45.8125 22.8125 z M 47.71875 26.09375 L 51.53125 26.09375 L 49.625 22.8125 L 47.71875 26.09375 z M 47.71875 26.09375 L 46.96875 27.40625 C 47.220748 28.052581 47.439116 28.713274 47.625 29.40625 L 49.625 29.40625 L 47.71875 26.09375 z M 49.625 29.40625 L 53.4375 29.40625 L 51.53125 26.09375 L 49.625 29.40625 z M 49.625 29.40625 L 48.15625 31.96875 C 48.186833 32.216298 48.198178 32.467589 48.21875 32.71875 L 51.53125 32.71875 L 49.625 29.40625 z M 51.53125 26.09375 L 55.34375 26.09375 L 53.4375 22.8125 L 51.53125 26.09375 z M 63 26.09375 L 64 26.09375 L 64 24.375 L 63 26.09375 z M 63 26.09375 L 61.0625 29.40625 L 64 29.40625 L 64 27.84375 L 63 26.09375 z M 61.0625 29.40625 L 59.1875 32.71875 L 63 32.71875 L 61.0625 29.40625 z M 63 32.71875 L 64 32.71875 L 64 30.96875 L 63 32.71875 z M 63 32.71875 L 61.0625 36.03125 L 64 36.03125 L 64 34.46875 L 63 32.71875 z M 61.0625 36.03125 L 59.1875 39.34375 L 63 39.34375 L 61.0625 36.03125 z M 61.0625 36.03125 L 59.1875 32.71875 L 57.28125 36.03125 L 61.0625 36.03125 z M 57.28125 36.03125 L 55.34375 39.34375 L 59.1875 39.34375 L 57.28125 36.03125 z M 59.1875 39.34375 L 57.28125 42.65625 L 61.0625 42.65625 L 59.1875 39.34375 z M 61.0625 42.65625 L 64 42.65625 L 64 41.09375 L 63 39.34375 L 61.0625 42.65625 z M 61.0625 42.65625 L 59.1875 45.9375 L 63 45.9375 L 61.0625 42.65625 z M 63 45.9375 L 64 45.9375 L 64 44.21875 L 63 45.9375 z M 63 45.9375 L 61.0625 49.25 L 64 49.25 L 64 47.6875 L 63 45.9375 z M 61.0625 49.25 L 59.1875 52.5625 L 63 52.5625 L 61.0625 49.25 z M 61.0625 49.25 L 59.1875 45.9375 L 57.28125 49.25 L 61.0625 49.25 z M 57.28125 49.25 L 55.34375 52.5625 L 59.1875 52.5625 L 57.28125 49.25 z M 57.28125 49.25 L 55.34375 45.9375 L 53.4375 49.25 L 57.28125 49.25 z M 53.4375 49.25 L 51.53125 52.5625 L 55.34375 52.5625 L 53.4375 49.25 z M 53.4375 49.25 L 51.53125 45.9375 L 49.625 49.25 L 53.4375 49.25 z M 49.625 49.25 L 47.71875 52.5625 L 51.53125 52.5625 L 49.625 49.25 z M 51.53125 52.5625 L 49.625 55.875 L 53.4375 55.875 L 51.53125 52.5625 z M 53.4375 55.875 L 57.28125 55.875 L 55.34375 52.5625 L 53.4375 55.875 z M 53.4375 55.875 L 51.53125 59.1875 L 55.34375 59.1875 L 53.4375 55.875 z M 55.34375 59.1875 L 59.1875 59.1875 L 57.28125 55.875 L 55.34375 59.1875 z M 55.34375 59.1875 L 53.4375 62.46875 L 57.28125 62.46875 L 55.34375 59.1875 z M 57.28125 62.46875 L 61.0625 62.46875 L 59.1875 59.1875 L 57.28125 62.46875 z M 57.28125 62.46875 L 56.375 64 L 58.15625 64 L 57.28125 62.46875 z M 59.1875 59.1875 L 63 59.1875 L 61.0625 55.875 L 59.1875 59.1875 z M 61.0625 55.875 L 59.1875 52.5625 L 57.28125 55.875 L 61.0625 55.875 z M 61.0625 55.875 L 64 55.875 L 64 54.3125 L 63 52.5625 L 61.0625 55.875 z M 63 52.5625 L 64 52.5625 L 64 50.8125 L 63 52.5625 z M 63 59.1875 L 64 59.1875 L 64 57.4375 L 63 59.1875 z M 63 59.1875 L 61.0625 62.46875 L 63.53125 62.46875 L 64 62 L 64 60.90625 L 63 59.1875 z M 61.0625 62.46875 L 60.1875 64 L 61.96875 64 L 61.0625 62.46875 z M 53.4375 62.46875 L 52.5625 64 L 54.3125 64 L 53.4375 62.46875 z M 53.4375 62.46875 L 51.53125 59.1875 L 49.625 62.46875 L 53.4375 62.46875 z M 49.625 62.46875 L 48.75 64 L 50.5 64 L 49.625 62.46875 z M 49.625 62.46875 L 47.71875 59.1875 L 45.8125 62.46875 L 49.625 62.46875 z M 45.8125 62.46875 L 44.9375 64 L 46.6875 64 L 45.8125 62.46875 z M 45.8125 62.46875 L 43.90625 59.1875 L 42 62.46875 L 45.8125 62.46875 z M 42 62.46875 L 41.09375 64 L 42.875 64 L 42 62.46875 z M 43.90625 59.1875 L 47.71875 59.1875 L 45.8125 55.875 L 43.90625 59.1875 z M 45.8125 55.875 L 49.625 55.875 L 47.71875 52.5625 L 45.8125 55.875 z M 49.625 55.875 L 47.71875 59.1875 L 51.53125 59.1875 L 49.625 55.875 z M 51.53125 45.9375 L 55.34375 45.9375 L 53.4375 42.65625 L 51.53125 45.9375 z M 53.4375 42.65625 L 57.28125 42.65625 L 55.34375 39.34375 L 53.4375 42.65625 z M 57.28125 42.65625 L 55.34375 45.9375 L 59.1875 45.9375 L 57.28125 42.65625 z M 63 39.34375 L 64 39.34375 L 64 37.59375 L 63 39.34375 z M 49.625 36.03125 L 48.25 33.65625 C 48.272944 34.433672 48.240276 35.229218 48.15625 36.03125 L 49.625 36.03125 z M 47.71875 39.34375 L 47.5625 39.09375 C 47.539642 39.176126 47.523902 39.261962 47.5 39.34375 L 47.71875 39.34375 z M 42 49.25 L 41.4375 48.28125 C 40.993859 48.624933 40.515697 48.938497 40.03125 49.25 L 42 49.25 z M 40.0625 52.5625 L 38.625 50.0625 C 38.203646 50.288053 37.77948 50.500656 37.34375 50.6875 L 37.3125 50.6875 L 36.25 52.5625 L 40.0625 52.5625 z M 34.34375 62.46875 L 33.46875 64 L 35.21875 64 L 34.34375 62.46875 z M 34.34375 62.46875 L 32.4375 59.1875 L 30.53125 62.46875 L 34.34375 62.46875 z M 30.53125 62.46875 L 29.65625 64 L 31.40625 64 L 30.53125 62.46875 z M 30.53125 62.46875 L 28.625 59.1875 L 26.71875 62.46875 L 30.53125 62.46875 z M 26.71875 62.46875 L 25.8125 64 L 27.59375 64 L 26.71875 62.46875 z M 28.625 59.1875 L 32.4375 59.1875 L 30.53125 55.875 L 28.625 59.1875 z M 24.78125 52.5625 L 23.90625 51.03125 C 23.34908 50.829502 22.808268 50.566512 22.28125 50.3125 L 20.96875 52.5625 L 24.78125 52.5625 z M 19.0625 62.46875 L 18.1875 64 L 19.9375 64 L 19.0625 62.46875 z M 19.0625 62.46875 L 17.15625 59.1875 L 15.25 62.46875 L 19.0625 62.46875 z M 15.25 62.46875 L 14.375 64 L 16.125 64 L 15.25 62.46875 z M 15.25 62.46875 L 13.34375 59.1875 L 11.4375 62.46875 L 15.25 62.46875 z M 11.4375 62.46875 L 9.53125 59.1875 L 7.625 62.46875 L 5.71875 59.1875 L 3.8125 62.5 L 7.59375 62.5 L 6.75 64 L 8.5 64 L 7.625 62.5 L 11.40625 62.5 L 10.5625 64 L 12.3125 64 L 11.4375 62.5 L 11.4375 62.46875 z M 3.8125 62.5 L 2.9375 64 L 4.6875 64 L 3.8125 62.5 z M 3.8125 62.5 L 1.90625 59.1875 L 0.15625 62.15625 L 0.5 62.5 L 3.8125 62.5 z M 1.90625 59.1875 L 0 55.9375 L 0 59.1875 L 1.90625 59.1875 z M 1.90625 59.1875 L 5.71875 59.1875 L 3.8125 55.875 L 1.90625 59.1875 z M 3.8125 55.875 L 1.90625 52.59375 L 0 55.8125 L 0 55.875 L 3.8125 55.875 z M 3.8125 55.875 L 7.625 55.875 L 5.71875 52.59375 L 3.8125 55.875 z M 5.71875 52.59375 L 3.8125 49.25 L 1.90625 52.59375 L 5.71875 52.59375 z M 5.71875 52.59375 L 9.53125 52.59375 L 9.53125 52.5625 L 7.625 49.25 L 5.71875 52.59375 z M 7.625 49.25 L 5.71875 45.9375 L 3.8125 49.25 L 7.625 49.25 z M 7.625 49.25 L 11.4375 49.25 L 9.53125 45.9375 L 7.625 49.25 z M 9.53125 45.9375 L 7.625 42.65625 L 5.71875 45.9375 L 9.53125 45.9375 z M 5.71875 45.9375 L 3.8125 42.65625 L 1.90625 45.9375 L 5.71875 45.9375 z M 1.90625 45.9375 L 0 49.1875 L 0 49.25 L 3.8125 49.25 L 1.90625 45.9375 z M 1.90625 45.9375 L 0 42.71875 L 0 45.9375 L 1.90625 45.9375 z M 3.8125 42.65625 L 1.90625 39.34375 L 0 42.59375 L 0 42.65625 L 3.8125 42.65625 z M 3.8125 42.65625 L 7.625 42.65625 L 5.71875 39.34375 L 3.8125 42.65625 z M 5.71875 39.34375 L 3.8125 36.03125 L 1.90625 39.34375 L 5.71875 39.34375 z M 1.90625 39.34375 L 0 36.09375 L 0 39.34375 L 1.90625 39.34375 z M 3.8125 36.03125 L 1.90625 32.71875 L 0 35.96875 L 0 36.03125 L 3.8125 36.03125 z M 1.90625 32.71875 L 0 29.46875 L 0 32.71875 L 1.90625 32.71875 z M 11.4375 49.25 L 9.53125 52.5625 L 13.34375 52.5625 L 11.4375 49.25 z M 13.34375 52.5625 L 11.4375 55.875 L 15.25 55.875 L 13.34375 52.5625 z M 15.25 55.875 L 13.34375 59.1875 L 17.15625 59.1875 L 15.25 55.875 z M 13.34375 59.1875 L 11.4375 55.875 L 9.53125 59.1875 L 13.34375 59.1875 z M 9.53125 59.1875 L 7.625 55.875 L 5.71875 59.1875 L 9.53125 59.1875 z M 7.625 55.875 L 11.4375 55.875 L 9.53125 52.59375 L 7.625 55.875 z M 1.90625 52.59375 L 0 49.3125 L 0 52.59375 L 1.90625 52.59375 z M 19.0625 49.25 L 20.40625 49.25 C 20.082687 49.040676 19.75536 48.827805 19.4375 48.59375 L 19.0625 49.25 z M 11.4375 36.03125 L 12.25 36.03125 C 12.207626 35.612483 12.203667 35.186601 12.1875 34.75 L 11.4375 36.03125 z "
     id="path3930" />
  <g
     id="g3022">
    <path
       id="path3973"
       d="m 49.5625,11.6875 c -2.355179,0.0077 -4.858778,0.15625 -7.03125,0.15625 -4.848373,0 -9.604827,-0.154879 -13.8125,0.15625 C 22.217915,12.480673 17.39464,15.319793 14.0625,18.90625 10.658675,22.570043 8,27.760396 8,34.125 c 0,6.634685 2.581785,11.59541 6.0625,15.21875 3.311319,3.446807 8.213552,6.492948 14.375,6.90625 11.363931,0.761611 18.915629,-5.620463 22.25,-13.6875 2.165111,-5.238622 4.799381,-11.51987 7.0625,-17.03125 0.683829,-1.665104 2.024239,-3.785683 2.25,-5.78125 0.449739,-3.977152 -1.683856,-6.253294 -4.375,-7.3125 -1.510655,-0.594595 -3.707321,-0.757734 -6.0625,-0.75 z m 2.3125,2.53125 c 1.501508,0.0633 2.939994,1.144232 2.75,3.125 C 54.39552,19.736555 52.010704,21.429335 50.96875,23 l 3.65625,0 c 0.22011,0.323175 0.22011,1.364474 0,1.6875 -1.838663,-0.18085 -3.880344,-0.16245 -5.90625,-0.15625 -0.862445,-3.162894 4.477514,-5.272346 3.9375,-7.875 -0.254762,-1.22756 -2.005023,-1.26724 -1.6875,0.5625 l -2.09375,0 c -0.03904,-2.093128 1.498492,-3.0633 3,-3 z m -21.4375,1.875 c 5.426344,0.01811 9.340142,2.185421 12.09375,4.65625 3.455581,3.100728 6.659445,9.415931 5.5,16.34375 -0.946622,5.655641 -4.136491,10.126782 -9.3125,12.9375 -5.632441,3.058936 -12.701743,2.61848 -17.75,-0.40625 -4.871722,-2.918988 -9.469969,-8.570797 -8.75,-17.46875 0.382813,-4.731178 2.458526,-8.026713 5.09375,-10.71875 2.455418,-2.508512 5.885083,-4.705358 10.6875,-5.21875 0.837962,-0.08961 1.662308,-0.127587 2.4375,-0.125 z m -6.21875,4.78125 0,3.8125 3.21875,0 c 0.31098,1.098023 0.881391,1.928208 1.125,3.09375 -2.779932,4.744713 -5.951013,9.906687 -8.71875,14.5 -0.358125,0.594297 -0.88792,1.331043 -0.84375,2 l 4.78125,0 c 2.439505,-3.478484 4.523184,-7.308827 7.03125,-10.71875 1.393089,3.961239 3.059842,7.648181 4.375,11.6875 2.667349,-0.667023 5.37824,-1.318341 7.625,-2.40625 C 42.178791,41.786478 42.080412,40.204023 41.40625,39.1875 40.343177,39.627274 39.218488,40.028141 38,40.3125 35.722604,33.666065 32.965045,27.521137 30.6875,20.875 l -6.46875,0 z"
       style="fill:#f5b52c;fill-opacity:1"
       inkscape:connector-curvature="0" />
  </g>
  <path
     style="fill:#79ace2;fill-opacity:1;fill-rule:nonzero"
     d="M 0,3 0,6 2,4 Z"
     id="path4298"
     inkscape:connector-curvature="0"
     sodipodi:nodetypes="cccc" />
  <path
     d="M 64,6 62,4 64,3 Z"
     id="path3028"
     style="fill:#396aae;fill-opacity:1"
     inkscape:connector-curvature="0" />
</svg>
