<svg xmlns="http://www.w3.org/2000/svg" viewBox="0 0 64 64"><g color="#000"><path d="m0 1l5 32-5 29 2 2 30-4 30 4 2-2-5-29 5-32-2-1c-18.867 9.549-38.8 10.114-60 0z" fill="#2370d6"/><path d="m2 0l-2 1 7 11 2-2h46l2 2 7-11-2-1" fill="#62b1ff"/><path d="m0 1v61l7-6v-44" fill="#4a95fa"/><g fill="#2063c0"><path d="m64 1v61l-7-6v-44z"/><path d="m64 62l-2 2h-60l-2-2 7-6 2 2h46l2-2z"/></g><path d="m32.5 20c-1.381 0-2.5 1.119-2.5 2.5 0 1.381 1.119 2.5 2.5 2.5 1.381 0 2.5-1.119 2.5-2.5 0-1.381-1.119-2.5-2.5-2.5m-5.5 8v2h3v12h-3v2h11v-2h-3v-12-2h-5z" fill="#dce6ff"/></g></svg>