<svg xmlns="http://www.w3.org/2000/svg" viewBox="0 0 64 64"><g color="#000"><path d="m0 4v30 28l2 2h30 30l2-2v-28-30h-32-32" fill="#3461d0"/><path d="m2 0l-2 1v3h32 32v-3l-2-1h-30-30" fill="#6c9bff"/></g><path d="m64 6l-2-2 2-1z" fill="#4e7be5"/><path d="m0 3v3l2-2z" fill="#86adff"/><path d="m7 10v1.5 44 1.5h1.5 24 .5v-1.5l.25-44v-1.5h-.75-24zm24 0v1.5 44 1.5h1.5 23 1.5v-1.5-44-1.5h-1.5-23zm-21 3h21v41h-21zm23 0h21v41h-21zm-20 3v2h15.25v-2zm23 0v2h15v-2zm-23 5v2h15.25v-2zm23 0v2h15v-2zm-23 5v2h15.25v-2zm0 5v2h15.25v-2z" color="#000" fill="#cbdeff"/></svg>