<svg xmlns="http://www.w3.org/2000/svg" viewBox="0 0 64 64"><g color="#000"><path d="m0 4v30 28l2 2h30 30l2-2v-28-30h-32-32" fill="#4556c7"/><path d="m32 30l-31.03 32.969 1.031 1.031h60l1.031-1.031-31.03-32.969" fill="#6940c3"/><path d="m2 0l-2 1v3h19.563 19.563 24.875v-3l-2-1h-22.875-19.563-17.563" fill="#7288ef"/></g><path d="m64 6l-2-2 2-1z" fill="#5b6fdb"/><path d="m0 3v3l2-2" fill="#879af1"/><g color="#000"><path d="m30 9h4c0 0 6 8.722 6 22.5 0 13.778-3 20.5-3 20.5h-10c0 0-3-6.722-3-20.5 0-13.778 6-22.5 6-22.5" fill="#e85922"/><path d="m24.625 24c-.017.106-.046.206-.063.313-.085.536-.147 1.067-.219 1.625-.066.514-.109 1.059-.156 1.594-.014.158-.051.309-.063.469h.875v-4h-.375m.375 4v4h2v-4h-2m2 0h3v-4h-3v4m3 0v4h4v-4h-4m4 0h3v-4h-3v4m3 0v4h2v-4h-2m2 0h.875c-.012-.157-.049-.313-.063-.469-.047-.535-.09-1.079-.156-1.594-.072-.558-.134-1.089-.219-1.625-.017-.107-.045-.207-.063-.313h-.375v4m0 4v4h.875c.027-.527.073-1.07.094-1.625.003-.106-.003-.205 0-.313.001-.02-.001-.042 0-.063.018-.645.028-1.32.031-2h-1m-2 0h-3v4h3v-4m-7 0h-3v4h3v-4m-5 0h-1c.004.68.014 1.355.031 2 .023.689.061 1.353.094 2h.875v-4" fill="#eee9e7"/><path d="m25 39c.42 4.565 1.225 8.097 3 13-4 1-5 4-7 7h-2c0-9 2-14 6-20" fill="#b43e1a"/><path d="m39 39c-.42 4.565-1.225 8.097-3 13 4 1 5 4 7 7h2c0-9-2-14-6-20" fill="#e85922"/><path d="m31 59c0-5 0-7 1-20 1 13 1 15 1 20z" fill="#b43e1a"/><path d="m31 59c0-5 0-7 1-20v20z" fill="#e85922"/></g></svg>