<svg xmlns="http://www.w3.org/2000/svg" viewBox="0 0 64 64"><g color="#000"><path d="m24 0h38l2 1v26h-64v-3c0-13.296 10.704-24 24-24" fill="#ffde53"/><path d="m24 4c-13.296 0-24 10.704-24 24v6 28l2 2h60l2-2v-58h-24-8-8" fill="#d89e27"/><path d="m24 9.5c-10.341 0-18.5 8.159-18.5 18.5v6 24.5h53v-49h-18.5-8-8z" fill="none" stroke="#f7f6cf"/></g><path d="m64 6l-2-2 2-1z" fill="#eabb3b"/><path d="m15 22v2.844l7.625 4.688c2.204-2.762 5.584-4.531 9.375-4.531 3.791 0 7.171 1.77 9.375 4.531l7.625-4.688v-2.844h-34m17 6c-4.988 0-9 4.01-9 9 0 4.988 4.01 9 9 9 4.988 0 9-4.01 9-9 0-4.988-4.01-9-9-9m-17 .375v17.625h9.09c-2.506-2.204-4.094-5.417-4.094-9 0-1.761.375-3.428 1.063-4.938l-6.06-3.688m34 0l-6.06 3.688c.687 1.51 1.063 3.177 1.063 4.938 0 3.583-1.588 6.796-4.094 9h9.09v-17.625m-22.16 3.375l5.219 3.469 4.156-2.5 1.563 2.563-5 3-.813.5-.813-.531-6-4 1.688-2.5" fill="#f7f6cf" color="#000"/></svg>