<svg xmlns="http://www.w3.org/2000/svg" viewBox="0 0 64 64"><g color="#000"><path d="m24 0h38l2 1v26h-64v-3c0-13.296 10.704-24 24-24" fill="#6fb7ff"/><path d="m24 4c-13.296 0-24 10.704-24 24v6 28l2 2h60l2-2v-58h-24-8-8" fill="#3477d9"/></g><path d="m64 6l-2-2 2-1z" fill="#4c91e8"/><path d="m18 21l3.406 12.563h2.406l2.938-9.219 2.656 9.219h2.438l3.5-12.563h-2.313l-2.5 9.813-2.719-9.75h-2.219l-2.844 9.719-2.438-9.781h-2.313m20 0v3h8v-3h-8m0 6v3h8v-3h-8m0 6v3h8v-3h-8m-20 6v3h28v-3h-28m0 6v3h28v-3h-28" fill="#d6e4f9"/><path d="m24 9.5c-10.341 0-18.5 8.159-18.5 18.5v6 24.5h53v-49h-18.5-8-8z" fill="none" stroke="#d6e4f9" color="#000"/></svg>