<svg xmlns="http://www.w3.org/2000/svg" viewBox="0 0 64 64"><defs><linearGradient id="0" y1="3" x2="0" y2="4" gradientUnits="userSpaceOnUse"><stop stop-color="#fff"/><stop offset="1" stop-color="#bebebe"/></linearGradient></defs><g color="#000"><path d="m0 4v30 28l2 2h30 30l2-2v-28-30h-32-32" fill="#277084"/><g fill="#2a6586"><path d="m0 4v30 28l1.26 1.26 49.74-29.26-51-30"/><path d="m64 4l-51 30 49.74 29.26 1.26-1.26v-28-30"/></g><path d="m0 4l32 18.824 32-18.824h-64" fill="#2b7d92"/><path d="m32 45.18l-30.74 18.08.74.74h60l.74-.74-30.74-18.08" fill="#27598a"/><path d="m32 22.824l-19 11.176 19 11.176 19-11.176-19-11.176" fill="#2b7d92"/><path d="m2 0l-2 1v3h32 32v-3l-2-1h-30-30" fill="#34b1c2"/><path d="m0 3v3l2-2z" fill="#4bbfcf"/></g><path d="m64 6l-2-2 2-1z" fill="#3097aa"/><g color="#000"><path d="m43.12 15.391c-.031 1.756-.519 2.872-.067 4.66.921 3.636 4.629 7.354 5.03 11.55.368 3.898-.648 6.05-4.194 10.718l-6.158 1.664c16.568-8.762 6.472-18.06 2.796-19.538l-7.356 18.639c-2.488 3.801-5.911 6.391-10.05 6.391-4.141 0-7.689-2.881-7.689-6.391 0-3.509 3.628-6.391 7.689-6.391 4.061 0 6.661 2.641 7.223 4.26l10.451-24.697 2.33-.865" fill="#a3ffc8"/><g transform="translate(-.416-9.745)"><path d="m19.968 16.436c-2.544.681-6.624 8.495-6.624 8.495l4.078 13.12 15.02-2.707-5.525-14.956c0 0-4.402-4.633-6.946-3.952m.432 2.764c1.58-.423 3.055.471 3.293 1.998.238 1.527-.849 3.108-2.43 3.531-1.58.423-3.055-.471-3.293-1.998-.238-1.527.849-3.108 2.43-3.531" fill="#002740" fill-opacity=".149"/><path d="m17.701 15.387c-2.051.566-4.667 7.081-4.667 7.081l4.03 14.612 12.305-3.395-4.03-14.612c0 0-5.587-4.252-7.638-3.686m.636 2.307c1.274-.352 2.592.396 2.944 1.671.352 1.274-.396 2.592-1.671 2.944-1.274.352-2.592-.396-2.944-1.671-.352-1.274.396-2.592 1.671-2.944" fill="#f2c84d"/><path transform="translate(-2.584 9.745)" d="m20.06 0l-.094 9.25a1.0001 1.0001 0 1 0 2 0l.094-9.25h-2" fill="url(#0)"/><path d="m21.19 24.06c.172.31.199.555.459.822.528.543 1.552.819 2.045 1.512.458.645.497 1.123.349 2.298l-.909.913c2.01-3.205-.691-3.812-1.484-3.699l.596 4c-.051.916-.389 1.715-1.113 2.133-.724.418-1.636.272-1.99-.341-.354-.614-.011-1.484.699-1.894.71-.41 1.432-.211 1.693.016l-.666-5.375.32-.387" fill="#b37821"/></g><g transform="translate(-7.456.46)"><path d="m21.484 17.999c-2.469-.659-9.142 4.482-9.142 4.482l-1.782 14.169 14.04 5.106 1.276-16.594c0 0-1.924-6.503-4.393-7.163m-.744 2.769c1.534.41 2.444 1.982 2.033 3.511-.411 1.529-1.988 2.437-3.521 2.027-1.534-.41-2.444-1.982-2.033-3.511.411-1.529 1.988-2.437 3.521-2.027" fill="#002740" fill-opacity=".149"/><path d="m19.456 15.591c-2.055-.551-7.61 3.742-7.61 3.742l-3.923 14.642 12.33 3.304 3.923-14.642c0 0-2.665-6.496-4.72-7.05m-.619 2.312c1.277.342 2.035 1.655 1.692 2.931-.342 1.277-1.655 2.035-2.931 1.692-1.277-.342-2.035-1.655-1.692-2.931.342-1.277 1.655-2.035 2.931-1.692" fill="#f2c84d"/><path transform="translate(4.456-.46)" d="m13 0l-.094 19.469a1.0001 1.0001 0 1 0 2 0l.094-19.469h-2" fill="url(#0)"/><path d="m17.06 24.993c-1.344-.36-1.895.549-2.02 1.141l-.088.51c-.377-.096-.466.964-.187 1 .004.461.151.792.331 1.06-.039.346-.12.575-.216.865-1.082.364-2.686.06-2.754.314-.156.582 1.08 1.39 3.107 1.933 2.027.543 3.501.462 3.657-.12.068-.254-1.473-.793-2.228-1.649.062-.298.106-.537.246-.857.29-.142.583-.355.816-.752.26.107.713-.856.338-.961l.179-.486c.187-.576.164-1.639-1.18-1.999" fill="#b37821"/></g></g></svg>