<?xml version="1.0" encoding="UTF-8" standalone="no"?>
<!-- Created with Inkscape (http://www.inkscape.org/) -->

<svg
   xmlns:dc="http://purl.org/dc/elements/1.1/"
   xmlns:cc="http://creativecommons.org/ns#"
   xmlns:rdf="http://www.w3.org/1999/02/22-rdf-syntax-ns#"
   xmlns:svg="http://www.w3.org/2000/svg"
   xmlns="http://www.w3.org/2000/svg"
   xmlns:sodipodi="http://sodipodi.sourceforge.net/DTD/sodipodi-0.dtd"
   xmlns:inkscape="http://www.inkscape.org/namespaces/inkscape"
   width="64"
   height="64"
   id="svg13094"
   version="1.1"
   inkscape:version="0.48.4 r9939"
   sodipodi:docname="pass.svg">
  <sodipodi:namedview
     id="base"
     pagecolor="#ffffff"
     bordercolor="#666666"
     borderopacity="1.0"
     inkscape:pageopacity="0"
     inkscape:pageshadow="2"
     inkscape:zoom="16.000001"
     inkscape:cx="36.118501"
     inkscape:cy="30.633498"
     inkscape:document-units="px"
     inkscape:current-layer="svg13094"
     showgrid="false"
     inkscape:snap-bbox="true"
     inkscape:bbox-paths="true"
     inkscape:bbox-nodes="true"
     inkscape:snap-bbox-edge-midpoints="true"
     inkscape:snap-bbox-midpoints="true"
     inkscape:object-paths="true"
     inkscape:snap-intersection-paths="true"
     inkscape:object-nodes="true"
     inkscape:snap-smooth-nodes="true"
     inkscape:snap-midpoints="true"
     inkscape:snap-object-midpoints="true"
     inkscape:snap-center="true"
     showguides="true"
     inkscape:guide-bbox="true"
     inkscape:window-width="1920"
     inkscape:window-height="1025"
     inkscape:window-x="-2"
     inkscape:window-y="32"
     inkscape:window-maximized="1"
     inkscape:snap-global="false"
     fit-margin-top="0"
     fit-margin-left="0"
     fit-margin-right="0"
     fit-margin-bottom="0"
     showborder="true"
     inkscape:showpageshadow="false"
     inkscape:snap-page="true">
    <inkscape:grid
       type="xygrid"
       id="grid3075"
       empspacing="5"
       visible="true"
       enabled="true"
       snapvisiblegridlinesonly="true"
       originx="1.6362304e-08px"
       originy="18px" />
  </sodipodi:namedview>
  <defs
     id="defs13096" />
  <metadata
     id="metadata13099">
    <rdf:RDF>
      <cc:Work
         rdf:about="">
        <dc:format>image/svg+xml</dc:format>
        <dc:type
           rdf:resource="http://purl.org/dc/dcmitype/StillImage" />
        <dc:title />
      </cc:Work>
    </rdf:RDF>
  </metadata>
  <path
     inkscape:connector-curvature="0"
     style="color:#000000;fill:#3b577a;fill-opacity:1;fill-rule:nonzero;stroke:none;stroke-width:1;marker:none;visibility:visible;display:inline;overflow:visible;enable-background:accumulate"
     d="m 0,4 0,30 0,28 2,2 30,0 30,0 2,-2 L 64,34 64,4 32,4 0,4 z"
     id="path4095" />
  <path
     inkscape:connector-curvature="0"
     style="color:#000000;fill:#668cbb;fill-opacity:1;fill-rule:nonzero;stroke:none;stroke-width:2.28571415;marker:none;visibility:visible;display:inline;overflow:visible;enable-background:accumulate"
     d="M 2,0 0,1 0,4 32,4 64,4 64,1 62,0 32,0 2,0 z"
     id="path4090" />
  <path
     inkscape:connector-curvature="0"
     style="fill:#729bcd;fill-opacity:1;fill-rule:nonzero;stroke-width:1;stroke-linecap:butt;stroke-linejoin:miter;stroke-miterlimit:4;stroke-opacity:1;stroke-dasharray:none;stroke-dashoffset:0"
     d="M 0,3 0,6 2,4 z"
     id="path4298"
     sodipodi:nodetypes="cccc" />
  <path
     d="M 64,6 62,4 64,3 z"
     id="path3028"
     style="fill:#4f6f97;fill-opacity:1;stroke:none;stroke-width:0.62299293;marker:none"
     inkscape:connector-curvature="0" />
  <g
     id="g3043"
     inkscape:export-filename="folder.png"
     inkscape:export-xdpi="90"
     inkscape:export-ydpi="90"
     transform="translate(-0.62500009,0.082283)" />
  <g
     id="scalable"
     transform="matrix(1.0385892,0,0,1.0385892,1214.7222,1878.8121)"
     inkscape:label="#g3701"
     style="fill:#ffffff" />
  <g
     id="g6316"
     transform="matrix(0.55751259,0.55751259,-0.55751259,0.55751259,30.280721,-4.4958325)">
    <path
       style="fill:#000000;fill-opacity:0.11290325;stroke:none"
       d="m 33.300116,6.6192668 c -0.271189,0.2981007 -0.431862,0.6311374 -0.596621,0.9943684 -0.219677,0.484309 -0.414095,1.051054 -0.596621,1.701476 -0.365052,1.3008428 -0.661331,2.9440138 -0.905981,4.7508728 -0.489298,3.613719 -0.686909,7.881028 -0.220971,11.357903 0.05498,0.417698 0.337219,0.795764 0.729203,0.950175 1.872553,0.740663 4.254473,1.215864 6.938486,1.59099 l 0,16.661203 0.464039,0.198873 0.574524,0.265165 -0.0221,20.439805 2.452776,2.629553 1.149049,0 1.104854,0 2.43068,-2.651651 0,-20.417707 0.994368,-0.464038 0.0221,-10.31934 -0.0221,-0.0221 -10e-7,-6.319766 c 2.702255,-0.376054 5.099826,-0.846252 6.982681,-1.590991 0.391983,-0.15441 0.674225,-0.532476 0.729202,-0.950174 0.174564,-1.302607 0.257982,-2.702911 0.265166,-4.154252 0.01555,-3.142575 -0.291337,-6.478933 -0.7734,-9.170295 C 54.758418,10.753656 54.473434,9.5634572 54.15976,8.6079972 53.846084,7.6525372 53.643213,6.9413059 52.85603,6.3319969 51.628118,5.3815514 50.033835,5.3025272 48.259836,5.1829491 46.485839,5.0633724 44.601677,5.0724658 43.2438,5.0724658 c -1.357877,0 -3.24204,-0.00909 -5.016038,0.1104847 -1.773999,0.1195782 -3.39038,0.2207001 -4.618291,1.1711456 -0.121102,0.093736 -0.218961,0.1658003 -0.30936,0.2651658 z m 7.866564,3.7123102 c 0.05562,-0.06736 0.137028,-0.137283 0.198873,-0.198874 0.179763,-0.1797622 0.371742,-0.3411812 0.596621,-0.4640388 0.225029,-0.122244 0.470988,-0.189507 0.729205,-0.243067 0.0023,-4.95e-4 0.01977,-0.02161 0.0221,-0.0221 0.17386,-0.03558 0.345951,-0.0442 0.530329,-0.0442 0.09219,0 0.175383,-0.0091 0.265166,10e-7 1.346749,0.136769 2.408581,1.2909118 2.408581,2.6737468 0,1.475023 -1.198725,2.673747 -2.673747,2.673747 -0.737511,0 -1.394938,-0.290083 -1.878251,-0.773398 -0.06184,-0.06159 -0.143254,-0.131515 -0.198874,-0.198873 -0.16329,-0.197854 -0.296387,-0.423271 -0.39775,-0.662912 -0.135148,-0.319526 -0.198873,-0.669808 -0.198873,-1.038564 0,-0.368756 0.06372,-0.719036 0.198874,-1.038563 0.101362,-0.239644 0.234462,-0.465056 0.397749,-0.662913 z"
       id="path6291"
       inkscape:connector-curvature="0" />
    <g
       transform="matrix(0,0.23740143,-0.23740143,0,115.2857,6.8055232)"
       id="g6320">
      <path
         inkscape:connector-curvature="0"
         id="path6361"
         d="m 60.875,280.87535 c -13.237371,-0.0655 -27.194491,1.28192 -38.53125,3.3125 -5.668379,1.01529 -10.694092,2.20997 -14.71875,3.53125 -4.0246578,1.32128 -7.02717506,2.09042 -9.59375,5.40625 -4.0035402,5.1723 -4.3713028,11.90243 -4.875,19.375 -0.5036972,7.47257 -0.40625,15.46775 -0.40625,21.1875 0,5.71975 -0.097447,13.71493 0.40625,21.1875 0.5036972,7.47257 0.8714598,14.2027 4.875,19.375 1.5793633,2.04043 3.3349603,2.88716 5.375,3.8125 2.0400397,0.92534 4.4164958,1.73115 7.15625,2.5 5.479508,1.5377 12.389012,2.87572 20,3.90625 15.221976,2.06106 33.198199,2.90016 47.84375,0.9375 1.759457,-0.23158 3.349577,-1.47386 4,-3.125 3.164122,-7.99956 5.191061,-18.15217 6.78125,-29.65625 l 0,-37.875 c -1.590189,-11.50408 -3.617128,-21.65669 -6.78125,-29.65625 -0.650423,-1.65114 -2.240543,-2.89342 -4,-3.125 -5.486939,-0.73531 -11.417804,-1.06349 -17.53125,-1.09375 z M 22,322.43785 c 6.213203,0 11.25,5.0368 11.25,11.25 0,3.1066 -1.245401,5.90165 -3.28125,7.9375 -0.259437,0.26051 -0.528697,0.51578 -0.8125,0.75 -0.833427,0.68781 -1.771801,1.26054 -2.78125,1.6875 -1.345931,0.56928 -2.821699,0.875 -4.375,0.875 -1.553301,0 -3.029069,-0.30572 -4.375,-0.875 -1.009449,-0.42696 -1.947823,-0.99969 -2.78125,-1.6875 -0.283803,-0.23422 -0.553063,-0.48949 -0.8125,-0.75 -0.757206,-0.75721 -1.42,-1.61524 -1.9375,-2.5625 -0.0044,-0.008 0.0044,-0.0231 0,-0.0312 -0.514922,-0.94789 -0.899385,-1.97483 -1.125,-3.0625 -0.002,-0.01 0.002,-0.0213 0,-0.0312 -0.14986,-0.73235 -0.21875,-1.47335 -0.21875,-2.25 0,-0.38833 0.02409,-0.77806 0.0625,-1.15625 0.576112,-5.67288 5.362622,-10.09375 11.1875,-10.09375 z"
         style="fill:#eaf0f4;fill-opacity:1;stroke:none;color:#000000;fill-rule:nonzero;stroke-width:10.00000013999999915;marker:none;visibility:visible;display:inline;overflow:visible;enable-background:accumulate" />
      <path
         inkscape:connector-curvature="0"
         id="path6348"
         d="M 60.84375,285.87535 C 35.095271,285.74789 5.8504225,291.21338 2,296.18785 c -4.6257745,5.97618 -4.25,25.95203 -4.25,37.5 0,11.54797 -0.3757745,31.52382 4.25,37.5 4.7389815,6.12243 47.934159,12.97762 75.75,9.25 2.894248,-7.31726 4.936647,-17.19006 6.5,-28.5 -5.701919,-4.22802 -8.488723,-8.70833 -9.25,-18.25 0.761277,-9.54167 3.548081,-14.02198 9.25,-18.25 -1.563353,-11.30994 -3.605752,-21.18274 -6.5,-28.5 -5.21547,-0.69893 -10.964293,-1.03309 -16.90625,-1.0625 z M 22,322.43785 c 6.213203,0 11.25,5.0368 11.25,11.25 0,6.2132 -5.036797,11.25 -11.25,11.25 -6.213203,0 -11.25,-5.0368 -11.25,-11.25 0,-6.2132 5.036797,-11.25 11.25,-11.25 z"
         style="fill:#b9c4cc;fill-opacity:1;stroke:none" />
      <path
         style="color:#000000;fill:#000000;fill-opacity:0.18996414;fill-rule:nonzero;stroke:none;stroke-width:10;marker:none;visibility:visible;display:inline;overflow:visible;enable-background:accumulate"
         d="m 88.75,314.43785 0,38.53125 70.53125,0 2,-4.25 86.03125,0 11.125,-10.25 0,-9.53125 -11.125,-10.28125 -86.03125,0 -2,-4.21875 z"
         id="rect6235"
         inkscape:connector-curvature="0"
         sodipodi:nodetypes="ccccccccccc" />
      <path
         inkscape:connector-curvature="0"
         id="path6244"
         d="m 115.78125,333.5941 0,19.375 43.5,0 2,-4.25 86.03125,0 11.125,-10.25 0,-4.875 -142.65625,0 z"
         style="color:#000000;fill:#b9c4cc;fill-opacity:1;fill-rule:nonzero;stroke:none;stroke-width:10;marker:none;visibility:visible;display:inline;overflow:visible;enable-background:accumulate" />
      <path
         inkscape:connector-curvature="0"
         id="path6248"
         d="m 115.78125,314.43785 0,19.15625 142.65625,0 0,-4.65625 -11.125,-10.28125 -86.03125,0 -2,-4.21875 -43.5,0 z"
         style="color:#000000;fill:#b9c4cc;fill-opacity:1;fill-rule:nonzero;stroke:none;stroke-width:10;marker:none;visibility:visible;display:inline;overflow:visible;enable-background:accumulate" />
      <path
         style="color:#000000;fill:#eaf0f4;fill-opacity:1;fill-rule:nonzero;stroke:none;stroke-width:10;marker:none;visibility:visible;display:inline;overflow:visible;enable-background:accumulate"
         d="m 88.75,314.43785 0,38.53125 70.53125,0 0.90625,-1.9375 c -38.79361,-0.24759 -50.01559,-14.15625 -36.96875,-14.15625 l 37.125,0 2.125,0 95.8125,0 0,-6.34375 -95.8125,0 -2.125,0 -37.125,0 c -13.04684,0 -1.82486,-13.90866 36.96875,-14.15625 l -0.90625,-1.9375 -70.53125,0 z"
         id="path6252"
         inkscape:connector-curvature="0" />
      <path
         inkscape:connector-curvature="0"
         style="color:#000000;fill:#001e42;fill-opacity:0.13620073;fill-rule:nonzero;stroke:none;stroke-width:1;marker:none;visibility:visible;display:inline;overflow:visible;enable-background:accumulate"
         d="m 44.257971,329.04413 7.733475,0 0,-7.73348 -7.733475,0 0,7.73348 z m 1.546695,15.46695 4.640085,0 0,-4.64008 -4.640085,0 0,4.64008 z m 0,-7.73348 6.18678,0 0,-6.18677 -6.18678,0 0,6.18677 z m 7.733476,7.73348 6.18678,0 0,-6.18678 -6.18678,0 0,6.18678 z m 0,-7.73348 6.18678,0 0,-6.18677 -6.18678,0 0,6.18677 z m 0,-7.73347 6.18678,0 0,-6.18678 -6.18678,0 0,6.18678 z m 7.733475,17.01365 7.733474,0 0,-7.73348 -7.733474,0 0,7.73348 z m 0,-9.28018 6.186781,0 0,-6.18677 -6.186781,0 0,6.18677 z m 1.546695,-9.28017 4.640086,0 0,-4.64008 -4.640086,0 0,4.64008 z"
         id="path6378" />
    </g>
  </g>
</svg>
