<?xml version="1.0" encoding="UTF-8" standalone="no"?>
<!-- Created with Inkscape (http://www.inkscape.org/) -->

<svg
   xmlns:dc="http://purl.org/dc/elements/1.1/"
   xmlns:cc="http://creativecommons.org/ns#"
   xmlns:rdf="http://www.w3.org/1999/02/22-rdf-syntax-ns#"
   xmlns:svg="http://www.w3.org/2000/svg"
   xmlns="http://www.w3.org/2000/svg"
   xmlns:sodipodi="http://sodipodi.sourceforge.net/DTD/sodipodi-0.dtd"
   xmlns:inkscape="http://www.inkscape.org/namespaces/inkscape"
   sodipodi:docname="playonlinux.svg"
   inkscape:version="0.48.4 r9939"
   version="1.1"
   id="svg13094"
   height="64"
   width="64">
  <sodipodi:namedview
     id="base"
     pagecolor="#ffffff"
     bordercolor="#666666"
     borderopacity="1.0"
     inkscape:pageopacity="0"
     inkscape:pageshadow="2"
     inkscape:zoom="11.313709"
     inkscape:cx="47.330259"
     inkscape:cy="29.448374"
     inkscape:document-units="px"
     inkscape:current-layer="g3121"
     showgrid="true"
     inkscape:snap-bbox="true"
     inkscape:bbox-paths="true"
     inkscape:bbox-nodes="true"
     inkscape:snap-bbox-edge-midpoints="true"
     inkscape:snap-bbox-midpoints="true"
     inkscape:object-paths="true"
     inkscape:snap-intersection-paths="true"
     inkscape:object-nodes="true"
     inkscape:snap-smooth-nodes="true"
     inkscape:snap-midpoints="true"
     inkscape:snap-object-midpoints="true"
     inkscape:snap-center="true"
     showguides="true"
     inkscape:guide-bbox="true"
     inkscape:window-width="1920"
     inkscape:window-height="1025"
     inkscape:window-x="-2"
     inkscape:window-y="32"
     inkscape:window-maximized="1"
     inkscape:snap-global="false"
     fit-margin-top="0"
     fit-margin-left="0"
     fit-margin-right="0"
     fit-margin-bottom="0"
     showborder="true"
     inkscape:showpageshadow="false"
     inkscape:snap-page="true">
    <inkscape:grid
       originy="18px"
       originx="1.6362304e-08px"
       snapvisiblegridlinesonly="true"
       enabled="true"
       visible="true"
       empspacing="5"
       id="grid3075"
       type="xygrid" />
  </sodipodi:namedview>
  <defs
     id="defs13096" />
  <metadata
     id="metadata13099">
    <rdf:RDF>
      <cc:Work
         rdf:about="">
        <dc:format>image/svg+xml</dc:format>
        <dc:type
           rdf:resource="http://purl.org/dc/dcmitype/StillImage" />
        <dc:title />
      </cc:Work>
    </rdf:RDF>
  </metadata>
  <path
     sodipodi:nodetypes="ccccccccccc"
     id="path4095"
     d="m 0,4 0,30 0,28 2,2 30,0 30,0 2,-2 0,-28 0,-30 -32,0 z"
     style="color:#000000;fill:#2c6bbe;fill-opacity:1;fill-rule:nonzero;stroke:none;stroke-width:2.28571415000000000;marker:none;visibility:visible;display:inline;overflow:visible;enable-background:accumulate"
     inkscape:connector-curvature="0" />
  <path
     sodipodi:nodetypes="ccccccccc"
     id="path4090"
     d="M 2,0 0,1 0,4 32,4 64,4 64,1 62,0 32,0 z"
     style="color:#000000;fill:#4a9ff7;fill-opacity:1;fill-rule:nonzero;stroke:none;stroke-width:2.28571415000000000;marker:none;visibility:visible;display:inline;overflow:visible;enable-background:accumulate"
     inkscape:connector-curvature="0" />
  <g
     transform="translate(-0.62500009,0.082283)"
     inkscape:export-ydpi="90"
     inkscape:export-xdpi="90"
     inkscape:export-filename="folder.png"
     id="g3043" />
  <g
     style="fill:#ffffff"
     inkscape:label="#g3701"
     transform="matrix(1.0385892,0,0,1.0385892,1214.7222,1878.8121)"
     id="scalable" />
  <path
     sodipodi:nodetypes="cccc"
     inkscape:connector-curvature="0"
     style="fill:#3a82d7;fill-opacity:1"
     id="path3028"
     d="M 64,6 62,4 64,3 z" />
  <g
     inkscape:transform-center-y="-10.413743"
     id="g3005" />
  <g
     transform="matrix(0.81305262,-0.81305262,0.81305262,0.81305262,-16.783158,35.626105)"
     id="g3121">
    <path
       inkscape:connector-curvature="0"
       style="color:#000000;fill:#dc5e36;fill-opacity:1;fill-rule:evenodd;stroke:none;stroke-width:0.86969375999999998;marker:none;visibility:visible;display:inline;overflow:visible;enable-background:accumulate"
       d="M 31,9 C 26.226523,9 20.84467,10.583257 21.375,15.28125 21.90533,19.979243 28.368931,23.129988 31,29 33.631069,23.129988 40.09467,19.979243 40.625,15.28125 41.15533,10.583257 35.773477,9 31,9 z"
       id="path3123" />
    <path
       inkscape:connector-curvature="0"
       style="color:#000000;fill:#69c21f;fill-opacity:1;fill-rule:evenodd;stroke:none;stroke-width:0.86969375999999998;marker:none;visibility:visible;display:inline;overflow:visible;enable-background:accumulate"
       d="M 45.5625,19.34375 C 45.29275,19.33235 45.012375,19.34185 44.71875,19.375 40.020757,19.90533 36.870012,26.368931 31,29 c 5.870012,2.631069 9.020757,9.09467 13.71875,9.625 C 49.416743,39.15533 51,33.773477 51,29 51,24.524865 49.608748,19.51483 45.5625,19.34375 z"
       id="path3125" />
    <path
       inkscape:connector-curvature="0"
       style="color:#000000;fill:#dcbd25;fill-opacity:1;fill-rule:evenodd;stroke:none;stroke-width:0.86969375999999998;marker:none;visibility:visible;display:inline;overflow:visible;enable-background:accumulate"
       d="M 31,29 C 28.368931,34.870012 21.90533,38.020757 21.375,42.71875 20.84467,47.416743 26.226523,49 31,49 35.773477,49 41.15533,47.416743 40.625,42.71875 40.09467,38.020757 33.631069,34.870012 31,29 z"
       id="path3127" />
    <path
       inkscape:connector-curvature="0"
       style="color:#000000;fill:#27b1f9;fill-opacity:1;fill-rule:evenodd;stroke:none;stroke-width:0.86969375999999998;marker:none;visibility:visible;display:inline;overflow:visible;enable-background:accumulate"
       d="M 16.4375,19.34375 C 12.391252,19.51483 11,24.524865 11,29 c 0,4.773477 1.583257,10.15533 6.28125,9.625 C 21.979243,38.09467 25.129988,31.631069 31,29 25.129988,26.368931 21.979243,19.90533 17.28125,19.375 16.987625,19.34185 16.70725,19.33235 16.4375,19.34375 z"
       id="path3129" />
  </g>
  <path
     sodipodi:nodetypes="cccc"
     inkscape:connector-curvature="0"
     id="path4298"
     d="M 1.6362304e-8,3 0,6 2,4 z"
     style="fill:#6ab0f8;fill-opacity:1;fill-rule:nonzero" />
</svg>
