<svg xmlns="http://www.w3.org/2000/svg" viewBox="0 0 64 64"><g color="#000"><path d="m0 4v30 28l2 2h30 30l2-2v-28-30h-32-32" fill="#d26f25"/><path d="m2 0l-2 1v3h32 32v-3l-2-1h-30-30" fill="#ffa939"/></g><path d="m0 3v3l2-2" fill="#ffb24e"/><path d="m64 6l-2-2 2-1z" fill="#e78a2f"/><path d="m45.47 13.906c-4.418 0-8 3.582-8 8 0 4.418 3.582 8 8 8 4.418 0 8-3.582 8-8 0-4.418-3.582-8-8-8m-33.469 1.094v4h1v-3h2v3h-2v6h2v3h-2v-3h-1v4h16v-4h-1v3h-2v-3h2v-6h-2v-3h2v3h1v-4h-16m5 1h2v3h-2v-3m4 0h2v3h-2v-3m24.594.156c.206.081.419.169.625.25.031.147-.144.384-.188.563-.18.333-.059.23.156.219.251.116-.104.347-.219.281-.149-.23-.154-.224-.469-.063-.288.148-.688.121-.813.469-.086.191-.366.374-.406.063-.052-.179-.313-.402-.063-.531.194-.141.089-.436-.125-.5-.119-.122-.512-.191-.219-.344-.117-.007-.429.134-.594.188-.335-.025.188.073.313.063.113.148.202.377.438.406-.23.388-.506-.007-.781-.156-.229-.145-.441.068-.563.281.123-.159.392-.161.438.031.037.284-.327.082-.438-.031-.024.043-.049.081-.063.125-.181.187-.375-.007-.188-.219.174-.131.278-.306.219-.531.075-.219.169.419.25-.031.227-.026.384-.24.625-.25.212-.007.294-.228.531-.188.197.028.128.128.063.188.02-.007.017.018.063 0 .455-.15.93-.243 1.406-.281m2.719 1.031h.031c.157.061.331.137.5.156.236-.007.447.124.125.219-.377-.071-.082.13.063.281.181.022.259-.56.438-.219 1.026.948 1.807 2.231 2 3.625-.221.443-.402-.345-.75-.156-.161-.079-.305-.425-.25-.031-.013.191.268.291.344.438.173-.382.358.028.313.281-.092.223-.333.368-.531.5-.286.205-.451.407.063.25.019.31-.225.586-.313.875-.217.186-.336.425-.438.688-.017.332-.043.676.063 1-.059.211-.355.307-.5.469-.345.119.272.274 0 .406-.281.103-.073.323-.25.469-.159.12-.243.405-.469.375-.231-.068-.362.225-.594.156.01-.35-.055-.678-.188-1-.167-.356-.21-.797-.031-1.156.054-.187-.21-.349-.125-.563.094-.229-.139-.331-.188-.5.09-.203.123-.398-.094-.531-.225.098-.377-.187-.531-.063-.193.286-.273-.125-.438.125-.293.289-.624-.487-.813-.719-.043-.184-.294-.371-.094-.531.246-.171-.102-.27.094-.469.134-.473.533-.825.844-1.188.362-.097.73-.223 1.094-.063.147.125.292.339.438.406.094-.196.355-.211.531-.125.183.054.438.147.594 0 .197-.122.289-.315 0-.375-.387.156-.445-.467-.719-.344-.014.264-.106.425-.281.125-.035-.2-.097-.4-.313-.469-.151.042.332.265.094.438-.247.253-.134-.028-.156-.156-.21-.026-.245-.376-.469-.25-.225-.007-.233.222-.438.281-.036.229-.187.344-.406.406-.134-.184-.367-.08-.281-.375-.076-.236.218-.354.406-.375.294.05.012-.315-.063-.375.208-.014.369-.089.469-.281-.012-.309.448-.084.313-.313.065-.288.115-.057.219.031.217.124.381.007.531-.156.024-.162.451-.375.344-.375-.372.186-.273-.259-.156-.438-.188-.017-.317.166-.406.313.052.144.045.455-.094.5-.192-.036-.287-.397-.469-.156-.17.213-.194-.296-.156-.375.141-.134.467-.161.406-.406.195-.17.441-.23.688-.281m-6.375.156c.22-.017.378.082.281.313-.166.297-.523.405-.781.594 0 .253.214.298.406.375.156.1.088.516.219.125.059-.217.388-.142.313-.406.116-.138.192-.513.406-.281.272.05-.021.408.313.188.254-.05.041.389.25.375.262.069.015.344.281.406-.137.312-.192.174-.219-.094-.197.076-.38.153-.594.125-.145.079-.573.227-.188.188.195.008.554-.068.281.188-.087.253-.478.057-.563.313-.06.245-.427.133-.469.375-.042.231-.199.366-.375.5-.23.116-.133.417-.188.625-.13-.146-.208-.387-.438-.375-.183-.028-.256.194-.5.156-.182.123-.372.254-.344.5-.04.204.057.438.281.438.184-.123.536-.535.406 0-.272.49.401.021.25.438-.052.3.378.548.531.281.163-.109.29-.398.469-.156.158.188.408.166.625.125.168.016.153.303.25.438.229.017.381.136.438.375.289.305.76.399 1.125.625-.025.2.007.415-.156.563-.217.181-.094.478-.094.719-.101.165-.089.456-.344.438-.199-.007-.383.238-.25.406-.091.182-.128.413-.25.563-.263.001-.281.265-.438.406-.041.488-.601.007-.875-.188.015-.206.088-.415.125-.625-.102-.186-.164-.381-.125-.594.072-.263-.128-.439-.313-.594-.263-.165-.358-.488-.5-.75-.168-.179-.106-.356-.031-.563-.09-.182.138-.311.156-.5.05-.15.229-.467-.063-.438-.202.07-.359-.166-.5-.281-.126-.274-.462-.213-.688-.344-.265-.139-.51-.28-.594-.594.157-1.34.727-2.61 1.656-3.594.189-.416.727-.359.813-.781m4.594.5c.221-.065.197.173.281.313.125.209.311.34 0 .5-.299.14-.254-.041-.188-.281.075-.219-.132-.326-.094-.531m-.344.313c.022-.007.031.022.063.031.036.152.196.225-.031.281-.136.119-.184-.264-.031-.313m3.219 2.813c-.134.071-.044.203-.031.313.129.331.407.59.469.969-.084.288.546.475.281.188-.125-.153.126-.344-.156-.469-.19-.332-.266-.737-.563-1m-32.406 4.03h2v3h-2v-3m4 0h2v3h-2v-3m-8 13v16h9l5-5v-11h-14m36 0l-5 12c0-.712-1.469-2-3.375-2-1.906 0-3.625 1.353-3.625 3 0 1.647 1.681 3 3.625 3 1.944 0 3.863-1 4.719-3l2.75-7c1.894 0 6.211 3-.094 7h2c1.472-.981 3-2.392 3-5 0-2.16-2.491-4.472-3-6v-2h-1m-33 3h8v1h-8v-1m0 2h8v1h-8v-1m5 5h5l-5 5v-5" fill="#f4f0db" color="#000"/></svg>