<svg xmlns="http://www.w3.org/2000/svg" viewBox="0 0 64 64"><g color="#000"><path d="m0 4v30 28l2 2h30 30l2-2v-28-30h-32-32" fill="#3a6788"/><path d="m51.963 4l-51.963 30v28l2 2h10.04l51.963-30v-30h-12.04" fill="#2763a1"/><path d="m0 4v30l51.963-30h-19.963-32" fill="#24857f"/><path d="m64 34l-51.963 30h19.963 30l2-2v-28" fill="#474494"/></g><path d="m0 2v.25h.594v2.781h2.219c.087.554.578 1 1.156 1 .639 0 1.156-.517 1.156-1.156 0-.639-.517-1.156-1.156-1.156-.603 0-1.102.442-1.156 1.031h-1.938v-2.75h-.875m2.188 0v1.188h8.25v.531c-.586.057-1.063.555-1.063 1.156 0 .639.517 1.156 1.156 1.156.639 0 1.156-.517 1.156-1.156 0-.58-.412-1.072-.969-1.156v-.813h-8.25v-.906h-.281m18.13 0v1.719c-.571.071-1 .566-1 1.156 0 .639.517 1.156 1.156 1.156.639 0 1.156-.517 1.156-1.156 0-.591-.428-1.086-1-1.156v-1.719h-.313m3.375 0v1.719c-.572.071-1.031.566-1.031 1.156 0 .591.46 1.054 1.031 1.125v.688h-4.688v-3.656h-7v4.375h-4.594v-1.406c.575-.068 1.031-.532 1.031-1.125 0-.639-.517-1.156-1.156-1.156-.639 0-1.156.517-1.156 1.156 0 .588.431 1.051 1 1.125v1.406h-7.125v.313h12.281v-4.406h6.438v3.656h5.25v-.969c.571-.071 1.031-.534 1.031-1.125 0-.591-.46-1.086-1.031-1.156v-1.719h-.281m2.688 0l-1.094 1.063v3.813h9.563v.219h1.844v-.813h-1.844v.313h-9.25v-3.406c.055-.055.75-.75 1.188-1.188h-.406m.594 0v1.719c-.572.071-1.031.566-1.031 1.156 0 .639.517 1.156 1.156 1.156.639 0 1.156-.517 1.156-1.156 0-.591-.428-1.086-1-1.156v-1.719h-.281m3.25 0v1.719c-.572.071-1 .566-1 1.156 0 .639.517 1.156 1.156 1.156.639 0 1.156-.517 1.156-1.156 0-.591-.428-1.086-1-1.156v-1.719h-.313zm28.344 0v2.313h3.094v-2.313h-3.094m-16.188.5v1.063h1.813v-1.063h-1.813m-5.406.031c-.181 0-.356.094-.469.219h-1.656v.813h1.656c.113.125.288.219.469.219.339 0 .594-.286.594-.625 0-.339-.254-.625-.594-.625m9.938 0c-.339 0-.625.286-.625.625 0 .339.286.594.625.594.339 0 .625-.254.625-.594 0-.339-.286-.625-.625-.625m0 .344c.14 0 .25.142.25.281 0 .14-.11.25-.25.25-.14 0-.25-.11-.25-.25 0-.14.11-.281.25-.281m-9.938.031c.14 0 .25.11.25.25 0 .14-.11.25-.25.25-.14 0-.281-.11-.281-.25 0-.14.141-.25.281-.25m-23.06.813c-.639 0-1.156.517-1.156 1.156 0 .586.434 1.049 1 1.125v2.75h19.281l1.813 1.781v.313h1.844v-.844h-1.844v.125l-1.688-1.688h-19.12v-2.438c.577-.065 1.031-.53 1.031-1.125 0-.639-.517-1.156-1.156-1.156m3.25 0c-.639 0-1.156.517-1.156 1.156 0 .595.454 1.06 1.031 1.125v1.594h16.625l1.156 1.156h.031v.219h1.844v-.813h-1.844v.219l-1.094-1.063h-16.438v-1.313c.566-.076 1-.539 1-1.125 0-.639-.517-1.156-1.156-1.156m-13.188.406c.399 0 .719.351.719.75 0 .399-.319.719-.719.719-.399 0-.75-.319-.75-.719 0-.399.351-.75.75-.75m3.313 0c.399 0 .719.351.719.75 0 .399-.319.719-.719.719-.399 0-.719-.319-.719-.719 0-.399.319-.75.719-.75m3.25 0c.399 0 .75.351.75.75 0 .399-.351.719-.75.719-.399 0-.719-.319-.719-.719 0-.399.32-.75.719-.75m3.375 0c.399 0 .719.351.719.75 0 .399-.319.719-.719.719-.399 0-.719-.319-.719-.719 0-.399.32-.75.719-.75m3.25 0c.399 0 .75.351.75.75 0 .399-.351.719-.75.719-.399 0-.719-.319-.719-.719 0-.399.319-.75.719-.75m3.313 0c.399 0 .719.351.719.75 0 .399-.319.719-.719.719-.399 0-.719-.319-.719-.719 0-.399.32-.75.719-.75m3.375 0c.399 0 .719.351.719.75 0 .399-.32.719-.719.719-.399 0-.75-.319-.75-.719 0-.399.351-.75.75-.75m3.25 0c.399 0 .75.351.75.75 0 .399-.351.719-.75.719-.399 0-.719-.319-.719-.719 0-.399.319-.75.719-.75m3.281 0c.399 0 .719.351.719.75 0 .399-.319.719-.719.719-.399 0-.719-.319-.719-.719 0-.399.32-.75.719-.75m4.188.188c-.339 0-.625.254-.625.594 0 .339.286.625.625.625.283 0 .522-.176.594-.438h1.906c.083.088 3.406 3.625 3.406 3.625h1.875v.25h1.813v-.813h-1.813v.281h-1.75c-.083-.088-3.406-3.656-3.406-3.656h-2.031c-.058-.28-.297-.469-.594-.469m7.375 0c-.339 0-.594.254-.594.594 0 .339.254.625.594.625.263 0 .506-.173.594-.406h.094v1.156h-.281v.813h1.813v-.813h-1.25v-1.156h13.781c.077.077 1 1 1 1h3.625l.531.5c0 0 1.048-1.048 1.125-1.125h1.031v-.281h-1.156c0 0-.834.865-1 1.031-.122-.122-.406-.406-.406-.406h-3.656c-.077-.077-.969-1-.969-1h-14.25c-.035-.306-.31-.531-.625-.531m-26.438.094v.781h.281v-.781h-.281zm19.06.25c.14 0 .25.11.25.25 0 .14-.11.25-.25.25-.14 0-.25-.11-.25-.25 0-.14.11-.25.25-.25m7.375 0c.14 0 .281.11.281.25 0 .14-.142.25-.281.25-.14 0-.25-.11-.25-.25 0-.14.11-.25.25-.25m11.594 2.125v3.469h.75v.406c-.28.058-.5.297-.5.594 0 .339.286.625.625.625.339 0 .625-.286.625-.625 0-.283-.208-.522-.469-.594v-.406h1.938v-3.469h-2.969m-7.469.031v3.469h3.25v-1.688h1.156c.083.242.292.406.563.406.339 0 .625-.254.625-.594 0-.339-.286-.625-.625-.625-.309 0-.55.234-.594.531h-1.125v-1.5h-3.25m12.563.563v3.25h1.375v1c-.27.065-.469.304-.469.594 0 .339.286.625.625.625.29 0 .529-.198.594-.469h3.25v-.281h-3.25c-.054-.224-.213-.415-.438-.469v-1h1.375v-3.25h-3.063m-56.25.469c-.29 0-.529.229-.594.5h-1.781v.281h1.781c.065.27.304.469.594.469.339 0 .625-.286.625-.625 0-.339-.286-.625-.625-.625m48.656.281c.14 0 .25.142.25.281 0 .14-.11.25-.25.25-.14 0-.25-.11-.25-.25 0-.14.11-.281.25-.281zm-48.656.094c.14 0 .25.11.25.25 0 .14-.11.25-.25.25-.14 0-.25-.11-.25-.25 0-.14.11-.25.25-.25m8.875 1.063c0 0-.768.768-.844.844h-2.563c-.065-.27-.304-.469-.594-.469-.29 0-.529.198-.594.469h-6.656v.281h6.656c.065.27.304.469.594.469.29 0 .529-.198.594-.469h2.688l.844-.844h15.563v.188c-.27.065-.469.304-.469.594 0 .339.254.594.594.594.292 0 .563-.195.625-.469h5.125c.076.076.875.875.875.875h7.438c.077.092.875 1.063.875 1.063h.344v.281h1.813v-.844h-1.813v.281h-.219c-.077-.092-.875-1.063-.875-1.063h-7.438c-.076-.076-.875-.875-.875-.875h-5.25c-.056-.221-.246-.384-.469-.438v-.469h-15.969m-4 .719c.14 0 .25.11.25.25 0 .14-.11.25-.25.25-.14 0-.25-.11-.25-.25 0-.14.11-.25.25-.25m35.09.063v.813h1.813v-.281h1.063c.046.046.242.242.375.375-.049.089-.094.173-.094.281 0 .339.286.625.625.625.339 0 .594-.286.594-.625 0-.339-.254-.625-.594-.625-.127 0-.245.058-.344.125l-.469-.438h-1.156v-.25h-1.813zm-15.281.031c.14 0 .281.11.281.25 0 .14-.142.25-.281.25-.14 0-.25-.11-.25-.25 0-.14.11-.25.25-.25m-13.906.344v1.594h-.219v-.813h-1.375v1.781h1.375v-.688h.5v-1.594h10.969c.082.086 3.25 3.406 3.25 3.406h1.219l.125-.125h6l.375.375h1.313v-.844h-1.844v.313h-7.06c-.082-.086-3.25-3.406-3.25-3.406h-11.375m34.563.188c-.339 0-.625.286-.625.625 0 .29.198.529.469.594v1.969h-3.406v-.188h-1.813v.188h-1.125c-.047-.048-.268-.237-.406-.375.076-.102.125-.238.125-.375 0-.339-.286-.625-.625-.625-.339 0-.594.286-.594.625 0 .339.254.625.594.625.099 0 .198-.021.281-.063l.5.5h1.25v.313h1.813v-.313h3.688v-2.281c.271-.065.469-.304.469-.594 0-.339-.254-.625-.594-.625m-19.344.188v1.063c-.113-.127-.286-.219-.469-.219-.339 0-.625.286-.625.625 0 .339.286.594.625.594.183 0 .356-.06.469-.188v.813h1.344v-2.688h-1.344m-19.875.063v2.594h1.625v-2.594h-1.625m37.625.125c.14 0 .25.11.25.25 0 .14-.11.25-.25.25-.14 0-.25-.11-.25-.25 0-.14.11-.25.25-.25m1.594 0c.14 0 .25.11.25.25 0 .14-.11.25-.25.25-.14 0-.25-.11-.25-.25 0-.14.11-.25.25-.25m6.688 0c.14 0 .25.11.25.25 0 .14-.11.25-.25.25-.14 0-.25-.11-.25-.25 0-.14.11-.25.25-.25m-40.563.125v2c-.069.069-.525.525-.594.594h-5.813c-.08-.08-1.719-1.688-1.719-1.688h-5.719v.281h5.594c.08.08 1.719 1.688 1.719 1.688h6.03l.781-.75v-1.844h9.688c.083.089 3.344 3.594 3.344 3.594h.844l.281-.281h-1c-.083-.088-3.344-3.594-3.344-3.594h-10.09m17.5.063v1.813h1.375v-1.813h-1.375m-24.09.313c-.339 0-.594.286-.594.625 0 .339.254.625.594.625.339 0 .625-.286.625-.625 0-.339-.286-.625-.625-.625m27.594.25v.813h1.844v-.813h-1.844zm-27.594.125c.14 0 .25.11.25.25 0 .14-.11.25-.25.25-.14 0-.25-.11-.25-.25 0-.14.11-.25.25-.25m9.06.063v3.5h-10.406l-.938-.906h-4.969v.281h4.844l.938.938h10.813v-3.531h4.531v1h-.531v1.938h1.625v-1.094h1.75c.069.233.284.409.531.438v.938h-.938v2.656h1.906l.656.656h.938l.813.781h.125v-.281c-.075-.075-.813-.781-.813-.781h-.938c-.055-.055-.41-.41-.594-.594v-2.438h-.875v-.969c.233-.088.406-.299.406-.563 0-.339-.286-.625-.625-.625-.301 0-.54.214-.594.5h-1.75v-.563h-.813v-1.281h-5.094m43.844.031c.14 0 .25.11.25.25 0 .14-.11.25-.25.25-.14 0-.25-.11-.25-.25 0-.14.11-.25.25-.25m-32.25.031c.14 0 .25.142.25.281 0 .14-.11.25-.25.25-.14 0-.25-.11-.25-.25 0-.14.11-.281.25-.281m-27.906.688v.281h4.531l2 2h7.406l.531-.531c.096.062.19.125.313.125.339 0 .625-.286.625-.625 0-.339-.286-.625-.625-.625-.339 0-.594.286-.594.625 0 .113.009.221.063.313l-.438.438h-7.156l-2-2h-4.656m40.31.125c.14 0 .25.11.25.25 0 .14-.11.25-.25.25-.14 0-.25-.11-.25-.25 0-.14.11-.25.25-.25m-22.906.406v1.938h.563v.781h1.094c.067.267.306.469.594.469.252 0 .467-.158.563-.375h2.531v3.063l.281.281v-3.625h-2.781c-.021-.32-.268-.594-.594-.594-.292 0-.563.226-.625.5h-.781v-.5h.781v-1.938h-1.625m-13.406.031c-.313 0-.556.228-.594.531h-3.406v.281h3.438c.086.236.297.406.563.406.339 0 .625-.254.625-.594 0-.339-.286-.625-.625-.625m0 .344c.14 0 .25.142.25.281 0 .14-.11.25-.25.25-.14 0-.25-.11-.25-.25 0-.14.11-.281.25-.281zm20.563.063c.14 0 .25.11.25.25 0 .14-.11.25-.25.25-.14 0-.25-.11-.25-.25 0-.14.11-.25.25-.25m-9.781.031c.14 0 .25.11.25.25 0 .14-.11.25-.25.25-.14 0-.25-.11-.25-.25 0-.14.11-.25.25-.25m43.719.219l-1.688 1.688h-10.188c-.074-.257-.314-.438-.594-.438-.28 0-.488.181-.563.438h-1.313v-.156h-1.813v.156h-3.75c0 0-.799.799-.875.875h-1.719v.281h1.844l.844-.844h3.656v.344h1.813v-.344h1.281c.055.284.294.5.594.5.3 0 .571-.216.625-.5h10.25l1.719-1.719h5.375v-.281h-5.5m4.969.906c-.599 0-1.094.495-1.094 1.094 0 .599.495 1.063 1.094 1.063.205 0 .368-.057.531-.156v-1.813c-.165-.101-.324-.188-.531-.188m0 .563c.28 0 .5.252.5.531 0 .279-.22.5-.5.5-.28 0-.5-.221-.5-.5 0-.279.22-.531.5-.531m-27.469.063v.813h.688v-.813h-.688m-16.344.094c.14 0 .25.11.25.25 0 .14-.11.25-.25.25-.14 0-.25-.11-.25-.25 0-.14.11-.25.25-.25m26.375 0c.14 0 .25.11.25.25 0 .14-.11.25-.25.25-.14 0-.25-.11-.25-.25 0-.14.11-.25.25-.25m-39.563.438c-.309 0-.582.234-.625.531h-1.375v-.438h-1.063v1.969h1.063v-1.25h1.406c.068.198.232.357.438.406v1.406h-.75v1.938h1.906v-1.938h-.875v-1.406c.271-.065.5-.335.5-.625 0-.339-.286-.594-.625-.594m41.34.063c-.339 0-.625.286-.625.625 0 .119.035.218.094.313-.289.289-1.245 1.276-1.313 1.344h-1.375l.281.281h1.188l1.438-1.406c.093.056.196.094.313.094.279 0 .518-.214.594-.469h5.406c.075.255.315.469.594.469.339 0 .625-.286.625-.625 0-.339-.286-.625-.625-.625-.301 0-.541.214-.594.5h-5.406c-.053-.286-.293-.5-.594-.5m-47.656.031v1.969h.063c-.089.107-.125.257-.125.406 0 .339.254.594.594.594.339 0 .625-.254.625-.594 0-.15-.067-.299-.156-.406h.063v-1.969h-1.063m1.625 0v1.969h1.063v-1.969h-1.063m25.313 0c-.339 0-.594.286-.594.625 0 .339.254.625.594.625.094 0 .201-.025.281-.063l.625.625v-.406c-.173-.173-.303-.303-.406-.406.08-.104.125-.234.125-.375 0-.339-.286-.625-.625-.625m-17.781.125v1.906h.375v.688c-.258.073-.438.313-.438.594 0 .339.286.594.625.594.204 0 .388-.096.5-.25v.563c-.031.032-.125.094-.188.156-.096-.062-.19-.094-.313-.094-.339 0-.625.286-.625.625 0 .339.286.594.625.594.339 0 .594-.254.594-.594 0-.113-.009-.221-.063-.313l.25-.25v-1.063c.075-.075.781-.781.781-.781v-.469h.563v-1.906h-1.031v1.906h.188v.344l-.719.719c-.074-.197-.227-.365-.438-.406v-.656h.375v-1.906h-1.063m3.281 0v1.906h.5v.313c-.065.065-.969.969-1.281 1.281-.105-.084-.231-.156-.375-.156-.339 0-.625.286-.625.625 0 .339.286.625.625.625.339 0 .594-.286.594-.625 0-.091-.027-.172-.063-.25l1.406-1.375v-.438h.281v-1.906h-1.063m1.563 0v1.906h1.063v-1.906h-1.063m-7.688.125c.14 0 .25.11.25.25 0 .14-.11.281-.25.281-.14 0-.25-.142-.25-.281 0-.14.11-.25.25-.25m10.938.094v1.938h.531v1.344h-.281v.375l.563-.563v-1.156h.813v-1.938h-1.625m3.188 0v1.063l.094-.031.719.313.594.594h.219v-1.938h-1.625m27.22 0c.14 0 .25.11.25.25 0 .14-.11.25-.25.25-.14 0-.25-.11-.25-.25 0-.14.11-.25.25-.25m6.594 0c.14 0 .25.11.25.25 0 .14-.11.25-.25.25-.14 0-.25-.11-.25-.25 0-.14.11-.25.25-.25m-27.313.031c.14 0 .25.11.25.25 0 .14-.11.25-.25.25-.14 0-.25-.11-.25-.25 0-.14.11-.25.25-.25m14.813.5c-.339 0-.594.286-.594.625 0 .339.254.594.594.594.173 0 .325-.072.438-.188h.031l.219-.219.719-.313.719.313.125.125v-.719h-1.781c-.113-.135-.279-.219-.469-.219m-5.906.188v.813h.688v-.813h-.688zm5.906.188c.14 0 .25.11.25.25 0 .14-.11.25-.25.25-.14 0-.25-.11-.25-.25 0-.14.11-.25.25-.25m15.656.281c0 0-2.482 2.45-2.563 2.531h-6.125l-1 1h-.469l.281.281h.313l.969-.969h6.156c0 0 2.45-2.482 2.531-2.563h6.344v-.281h-6.438m-6.5.281c-.288 0-.527.201-.594.469h-2.938c0 0-.917.917-1.469 1.469l.219.188 1.375-1.375h2.813c.063.273.301.5.594.5.34 0 .625-.286.625-.625 0-.339-.285-.625-.625-.625m-50.37.281c.14 0 .281.142.281.281 0 .14-.141.25-.281.25-.14 0-.25-.11-.25-.25 0-.14.11-.281.25-.281m50.38.094c.14 0 .25.11.25.25 0 .14-.11.25-.25.25-.14 0-.25-.11-.25-.25 0-.14.11-.25.25-.25m-15.06.063v.281h5.75l.281-.281h-6.03m-32.03.406c-.339 0-.625.254-.625.594 0 .339.286.625.625.625.313 0 .555-.228.594-.531h.156v1.844h3.406c.077.077.969 1 .969 1h2.531c0 0 .707-.706.781-.781h3.844l.25-.219c-.008-.008-.063-.063-.063-.063h-4.156l-.75.781h-2.313c-.077-.077-.969-1-.969-1h-3.25v-1.844h-.469c-.086-.236-.297-.406-.563-.406m32.03.188v.656l.375.156h.313v-.281h.531v.625l.281.125v-1.031h-.813v-.25h-.688zm21.656 0c-.339 0-.594.254-.594.594 0 .166.049.327.156.438-.49.49-2.026 2.026-2.094 2.094h-6.875v.281h7l2.219-2.219c.061.02.12.031.188.031.292 0 .531-.195.594-.469h5.75v-.313h-5.75c-.067-.267-.306-.438-.594-.438m-53.688.156c.14 0 .25.11.25.25 0 .14-.11.281-.25.281-.14 0-.25-.142-.25-.281 0-.14.11-.25.25-.25m5.906.063c.14 0 .25.11.25.25 0 .14-.11.25-.25.25-.14 0-.25-.11-.25-.25 0-.14.11-.25.25-.25m47.781.125c.14 0 .25.11.25.25 0 .14-.11.25-.25.25-.14 0-.25-.11-.25-.25 0-.14.11-.25.25-.25m-34.594.156l.281.281h2.719c.041.041.267.245.5.469l.281-.125c-.269-.26-.656-.625-.656-.625h-3.125m-11.625.5c.14 0 .25.11.25.25 0 .14-.11.25-.25.25-.14 0-.25-.11-.25-.25 0-.14.11-.25.25-.25m-11.438.063v.281h3.844v.281c-.288.051-.5.291-.5.594 0 .339.286.625.625.625.339 0 .625-.286.625-.625 0-.277-.186-.485-.438-.563v-.594h-4.156m37.719.313l.688.281h1.375l.281-.281h-2.344m-35.469.156c-.309 0-.55.234-.594.531h-1.656v.281h1.688c.083.242.292.438.563.438.135 0 .273-.051.375-.125.274.274 1.214 1.214 1.281 1.281v1.313h-.469v2h.5v.594h12.531v-.438c.219-.034.422-.174.5-.375h1.313l-.313-.313h-.969c-.028-.261-.219-.471-.469-.531v-.5h-1.313v-.281h-1.063v1.875h1.063v-1.313h1.031v.219c-.27.065-.469.304-.469.594 0 .272.161.513.406.594v.188h-11.969v-.313h.281v-2h-.281v-1.406l-1.406-1.406c.043-.084.063-.181.063-.281 0-.339-.286-.625-.625-.625m7.625.281c.14 0 .25.11.25.25 0 .14-.11.25-.25.25-.14 0-.25-.11-.25-.25 0-.14.11-.25.25-.25m14.531.031l.219.219.531-.219h-.75m-22.16.063c.14 0 .281.11.281.25 0 .14-.141.25-.281.25-.14 0-.25-.11-.25-.25 0-.14.11-.25.25-.25m1.719.063c.14 0 .25.11.25.25 0 .14-.11.281-.25.281-.14 0-.25-.142-.25-.281 0-.14.11-.25.25-.25m55.781.031c0 0-2.794 2.794-2.875 2.875h-2.719c-.079-.249-.319-.438-.594-.438-.339 0-.594.286-.594.625 0 .339.254.594.594.594.305 0 .576-.208.625-.5h2.813l2.875-2.875h4.125v-.281h-4.25m-54.19.969v1.906h1.906v-.844-1.063h-1.906m1.906 1.063c0 .339.286.625.625.625.339 0 .625-.286.625-.625 0-.339-.286-.594-.625-.594-.339 0-.625.254-.625.594m-7.469-.969v.313h.563v1.875h-.313v2h1.031v-2h-.406v-2.188h-.875m60.19.094c-.599 0-1.094.463-1.094 1.063 0 .599.495 1.094 1.094 1.094.181 0 .35-.046.5-.125l1.063 1.844h2.25v-.281h-2.063c-.062-.106-.765-1.263-1.031-1.719.215-.198.344-.498.344-.813 0-.599-.463-1.063-1.063-1.063m0 .563c.279 0 .5.22.5.5 0 .279-.221.531-.5.531-.28 0-.531-.252-.531-.531 0-.28.252-.5.531-.5m-52.09.063c.14 0 .25.11.25.25 0 .14-.11.25-.25.25-.14 0-.25-.11-.25-.25 0-.14.11-.25.25-.25m45.47 1.031c.14 0 .25.11.25.25 0 .14-.11.25-.25.25-.14 0-.25-.11-.25-.25 0-.14.11-.25.25-.25m-40.469.063v.531h-.5v.344h-.594v-.344h-1.031v1.875h1.031v-1.219h.594v1.219h1.063v-1.875h-.281v-.25h3.03l-.281-.281h-3.03m-11.313.375v2h.469v.719c-.222.061-.39.242-.438.469h-1.813v.281h1.813c.071.261.31.469.594.469.339 0 .625-.286.625-.625 0-.297-.22-.536-.5-.594v-.719h.313v-2h-1.063m7.531.156v.438h-.375l-.813.813h-1.031c-.033-.309-.276-.563-.594-.563-.339 0-.625.285-.625.625 0 .339.286.625.625.625.261 0 .473-.176.563-.406h1.188c0 0 .737-.737.813-.813h.25v1.156h1.063v-1.875h-1.063m37.656.875c-.297 0-.537.219-.594.5l-.188-.188-.219.188c.238.235.625.594.625.594.107.089.225.156.375.156.283 0 .522-.208.594-.469h11.625c.063.063.91.91 1.25 1.25-.08.104-.125.234-.125.375 0 .339.286.594.625.594.339 0 .594-.254.594-.594 0-.339-.254-.625-.594-.625-.094 0-.201.025-.281.063l-1.344-1.344h-11.719c-.058-.28-.328-.5-.625-.5m-40.469.188c.14 0 .25.11.25.25 0 .14-.11.25-.25.25-.14 0-.25-.11-.25-.25 0-.14.11-.25.25-.25m9.875.063c.14 0 .25.11.25.25 0 .14-.11.281-.25.281-.14 0-.25-.142-.25-.281 0-.14.11-.25.25-.25m30.594.125c.14 0 .281.11.281.25 0 .14-.141.25-.281.25-.14 0-.25-.11-.25-.25 0-.14.11-.25.25-.25m-1.875 1l-.063.063.219.5.688.688h8.656c.079.249.288.438.563.438.339 0 .625-.286.625-.625 0-.339-.286-.625-.625-.625-.305 0-.545.24-.594.531h-8.531c-.028-.028-.512-.538-.938-.969m18.5.281v1.656h.406v-1.656h-.406m-61.19.375c.14 0 .25.11.25.25 0 .14-.11.25-.25.25-.14 0-.25-.11-.25-.25 0-.14.11-.25.25-.25m58.53.125c.14 0 .25.11.25.25 0 .14-.11.25-.25.25-.14 0-.281-.11-.281-.25 0-.14.142-.25.281-.25m-5.781.031c.14 0 .25.11.25.25 0 .14-.11.25-.25.25-.14 0-.25-.11-.25-.25 0-.14.11-.25.25-.25m-47.969.094v.844h-7.188v.313h7.469v-.875h7.188v1.25h-.219v1h.844v-1h-.344v-1.531h-7.75m.75.875v.75h-7.938v.281h8.219v-.75h3.125v.375h-.281v2.938h.844v-2.938h-.281v-.656h-3.688m37.906.25l.281.688c.225.222.725.694.75.719h.313v-.094l-1.344-1.313m18.16.219c-.188.106-.313.3-.313.531 0 .013-.001.018 0 .031h-1.125v.656h-.25v1.594l-2.156 2.125v14.75c-.071.071-.679.679-.75.75h-.438v-.313h-2.625v.875h2.625v-.281h.563l.906-.906v-14.75c.072-.072 1.821-1.821 2.188-2.188h.938v-1.656h-.719v-.375h.938c.054.087.13.167.219.219v-1.063m-54.53.188v1.156h-9.469v.281h9.469v1.5h.844v-2.938h-.844m3.188 0v1.344l.344-.344h.5v-1h-.844m3.375 0v1h.844v-1h-.844m1.625 0v.781l.313-.781h-.313m36 .688c-.339 0-.625.286-.625.625 0 .122.032.216.094.313h-.031v3.063h1.094v-3.063h-.031c.062-.096.094-.19.094-.313 0-.339-.254-.625-.594-.625m0 .344c.14 0 .25.141.25.281 0 .14-.11.25-.25.25-.14 0-.25-.11-.25-.25 0-.14.11-.281.25-.281m-1.938.688l.281.281v2.688h.313v-2.969h-.594m3 0v2.969h1.094v-2.969h-1.094m-54.719.281v.281h5.531v1.906h.625v.219h2.656v-.844h-2.656v.344h-.313v-1.906h-5.844m1.531.375c-.29 0-.529.198-.594.469h-.938v.281h.938c.065.27.304.469.594.469.339 0 .625-.254.625-.594 0-.339-.286-.625-.625-.625zm0 .344c.14 0 .25.142.25.281 0 .14-.11.25-.25.25-.14 0-.25-.11-.25-.25 0-.14.11-.281.25-.281m10.469 1.313l-.313.344c-.057-.018-.124-.031-.188-.031-.339 0-.625.286-.625.625 0 .339.286.594.625.594.212 0 .386-.093.5-.25v-.688c-.023-.033-.034-.066-.063-.094l.063-.063v-.438m51.594.219v1.656h.406v-.906-.75h-.406m-52.09.469c.14 0 .25.11.25.25 0 .14-.11.25-.25.25-.14 0-.25-.11-.25-.25 0-.14.11-.25.25-.25m40.5.531v.406c.105.03.188.104.188.219 0 .115-.083.189-.188.219v.375c.312-.029.563-.275.563-.594 0-.32-.25-.594-.563-.625m1.656 0c-.339 0-.625.286-.625.625 0 .275.189.483.438.563v.531c-.087.071-.652.508-.719.563h-.75v.281h.875l.875-.719v-.625c.291-.048.5-.289.5-.594 0-.339-.254-.625-.594-.625m2.688.156v.875h2.625v-.875h-2.625m-50.19.031v.281h-6.156v.281h6.156v.281h2.656v-.844h-2.656m47.5.188c.14 0 .25.11.25.25 0 .14-.11.25-.25.25-.14 0-.25-.11-.25-.25 0-.14.11-.25.25-.25m-41.656.063l-.844.844h-11.156v.281h11.281c0 0 .391-.391.719-.719v-.406m52 .594c-.102.077-.18.187-.219.313h-1.281v.875h-.188v1h-1.313v11.906c-.078.078-1.672 1.672-1.75 1.75h-.281v-.281h-2.625v.875h2.625v-.313h.406l1.906-1.906v-11.75h1.031v.375h1.25v-1.656h-.781v-.563h.969c.028.158.127.282.25.375v-1m-52 .688c-.157.08-.27.229-.313.406h-2.875v-.281h-2.656v.844h2.656v-.281h2.875c.053.222.218.406.438.469l-.125-.125v-1.031m44.34.313v.875h2.625v-.875h-2.625zm-44.875.563c-.27 0-.511.195-.594.438h-5.125l-.906.906h-4.844v.281h4.969l.906-.906h4.969c.043.297.316.531.625.531.339 0 .594-.286.594-.625 0-.339-.254-.625-.594-.625m0 .375c.14 0 .25.11.25.25 0 .14-.11.25-.25.25-.14 0-.25-.11-.25-.25 0-.14.11-.25.25-.25m-5.313.656v.844h2.656v-.188h8.594c.051.276.306.486.594.5l-.25-.625-.188-.406c-.057.07-.1.165-.125.25h-8.625v-.375h-2.656m50.19.25v.875h2.625v-.875h-2.625m-46.625 1.219l-.75.75h-.156v-.281h-2.656v.844h2.656v-.281h.281l.75-.75h8.406l-.125-.281h-8.406m53.875.25v1.656h.406v-1.656h-.406m-63.59.063v.406c.088.04.156.085.156.188 0 .105-.065.18-.156.219v.406c.233-.039.434-.214.5-.438h3.781c.064.218.243.393.469.438v.563h8.313c-.32.021-.594.268-.594.594 0 .339.286.625.625.625.339 0 .625-.286.625-.625 0-.326-.273-.573-.594-.594h5.781l.063-.063-.094-.25h-13.844v-.281c.258-.073.469-.312.469-.594 0-.339-.286-.594-.625-.594-.301 0-.572.214-.625.5h-3.75c-.048-.256-.242-.461-.5-.5m56.34.25v.875h2.625v-.875h-2.625zm-51.47.094c.14 0 .25.11.25.25 0 .14-.11.25-.25.25-.14 0-.25-.11-.25-.25 0-.14.11-.25.25-.25m46.19.656c-.309 0-.55.234-.594.531h-5.344l-.094.188.094.094h5.375c.083.242.292.406.563.406.34 0 .625-.254.625-.594 0-.34-.285-.625-.625-.625m0 .375c.14 0 .25.11.25.25 0 .139-.11.25-.25.25-.14 0-.25-.111-.25-.25 0-.14.11-.25.25-.25m-44.906.531v.844h2.656v-.844h-2.656m50.19.156v.375h-10.594l.281.281h10.313v.219h2.625v-.875h-2.625m7.656 0c-.101.074-.177.193-.219.313h-1v.813h-.469v1h-.563v6.531c-.08.08-2.327 2.327-2.406 2.406h-.375v-.313h-2.625v.875h2.625v-.281h.5l2.563-2.563v-6.375h.281v.375h1.25v-1.656h-.5v-.531h.688c.022.164.125.31.25.406v-1m-50.906.063c.14 0 .25.11.25.25 0 .14-.11.25-.25.25-.14 0-.25-.11-.25-.25 0-.14.11-.25.25-.25m-10.719.563c-.339 0-.625.286-.625.625 0 .34.286.625.625.625.274 0 .515-.189.594-.438h14.219l.281-.281h-14.5c-.048-.291-.289-.531-.594-.531m0 .375c.14 0 .25.11.25.25 0 .14-.11.25-.25.25-.14 0-.25-.11-.25-.25 0-.14.11-.25.25-.25zm3.781.844v.844h2.656v-.344h7.469l.281-.281h-7.75v-.219h-2.656m50.19 0v.344h-8.781l.281.281h8.5v.25h2.625v-.875h-2.625m-45.594 1.406c-.321 0-.598.248-.625.563h-1.313v-.219h-2.656v.844h2.656v-.344h1.344c.092.224.337.375.594.375.339 0 .594-.254.594-.594 0-.34-.254-.625-.594-.625m3.188.031c-.339 0-.625.286-.625.625 0 .157.06.298.156.406-.123.123-.412.412-.469.469h-3.188c0 0-.861.83-.938.906h-.063v-.313h-2.656v.844h2.656v-.25h.188l.938-.906h3.188l.563-.594c.069.026.172.031.25.031.339 0 .594-.254.594-.594 0-.339-.254-.625-.594-.625m-10.844.063c-.31.032-.531.307-.531.625 0 .129.026.245.094.344-.135.135-.357.357-.406.406h-2.25v.281h2.375l.5-.5c.088.048.174.094.281.094.339 0 .625-.286.625-.625 0-.339-.286-.625-.625-.625-.021 0-.042-.002-.063 0zm52.09.125c-.339 0-.594.285-.594.625 0 .339.254.594.594.594.339 0 .625-.254.625-.594 0-.34-.286-.625-.625-.625m-44.44.125c.14 0 .25.141.25.281 0 .14-.11.25-.25.25-.14 0-.281-.11-.281-.25 0-.14.142-.281.281-.281m3.188.063c.14 0 .25.11.25.25 0 .14-.11.25-.25.25-.14 0-.281-.11-.281-.25 0-.14.142-.25.281-.25m42.41.031v.875h2.625v-.875h-2.625m-53.19.031c.14 0 .25.11.25.25 0 .14-.11.25-.25.25-.14 0-.25-.11-.25-.25 0-.14.11-.25.25-.25m52.03.094c.14 0 .281.142.281.281 0 .14-.141.25-.281.25-.14 0-.25-.11-.25-.25 0-.14.11-.281.25-.281m8.406.406v1.656h.406v-1.656h-.406m-38.969 1.094l-.625.594c.002.011-.003.021 0 .031.069.265.308.469.594.469.339 0 .625-.286.625-.625 0-.085-.03-.175-.063-.25l-.531-.219m-8.25.031c-.297 0-.536.189-.594.469h-5.063l-1.719 1.719h-.188v-.281h-2.656v.844h2.656v-.281h.313c0 0 1.639-1.608 1.719-1.688h4.938c.071.261.311.438.594.438.339 0 .625-.286.625-.625 0-.34-.286-.594-.625-.594zm39.969.031v.344h-9.5l-.313.313h9.813v.188h2.625v-.844h-2.625m-17.188.031l-.406.156c.125.015.219.121.219.25 0 .14-.11.25-.25.25-.14 0-.25-.11-.25-.25 0-.059.029-.114.063-.156l-.719.313h.313c.054.235.231.422.469.469v.094h-2.156l-.438.188v.094h2.594v1.813c-.07.07-.586.617-.656.688h-.375v-.313h-1.563v.844h1.563v-.25h.5l.844-.844v-2.344c.258-.073.438-.313.438-.594 0-.16-.085-.302-.188-.406m-14.563.125c.14 0 .281.11.281.25 0 .14-.142.25-.281.25-.14 0-.25-.11-.25-.25 0-.14.11-.25.25-.25m.813.094v2.688h-1.625v1.125h-5.219v1.063h-.969v2.938h.969v2.469l3.625 3.656h23.844l1.094-1.125v-3.156h.281v-2.875h-.781v2.875h.219v3.063c-.074.074-.864.864-.938.938h-23.594c-.081-.081-3.388-3.388-3.469-3.469v-6.094h5.219v-1.125h1.625v-2.844l-.281-.125m-9.03.063c.14 0 .25.11.25.25 0 .14-.11.281-.25.281-.14 0-.25-.141-.25-.281 0-.14.11-.25.25-.25m9.875.313v3.438h-1.656v1.063h-.375v2.938h.969v-2.938h-.313v-.781h1.656v-3.625l-.281-.094m-21.406.063c-.297 0-.567.22-.625.5h-4.219v.281h4.25c.071.261.31.469.594.469.339 0 .594-.285.594-.625 0-.339-.254-.625-.594-.625zm32.719 0l-.375.156h.375v-.156m2.656.094v2.438c-.08.08-2.42 2.452-2.5 2.531h-.156v-.375h-1.563v.531l-.344.344h1.906v-.219h.25l2.688-2.688v-2.281l-.281-.281m23.781.063c-.148.112-.25.3-.25.5h-1.031v.75h-.406v1.656h.375l-1 1v2.906c-.071.071-.617.617-.688.688h-5.281v-1.313h-.813v2.875h.813v-1.25h5.375l.875-.875v-2.906c.067-.067.895-.895 1.125-1.125h.469v-1.656h-.563v-.438h.844c.038.065.098.109.156.156v-.969m-59.16.219c.14 0 .25.11.25.25 0 .14-.11.25-.25.25-.14 0-.25-.11-.25-.25 0-.14.11-.25.25-.25zm8.281.75c-.292 0-.531.195-.594.469h-2.031l-1.5 1.5h-.188v-.281h-2.656v.844h2.656v-.25h.281c0 0 1.452-1.452 1.531-1.531h1.906c.067.267.306.469.594.469.339 0 .625-.254.625-.594 0-.34-.286-.625-.625-.625m22.875.031v.875h1.563v-.875h-1.563m-8.688.031v.875h.688v-.875h-.688m-4.656.031l-.281.281c.006.022.031.038.031.063 0 .14-.11.25-.25.25-.024 0-.039-.025-.063-.031l-.281.281c.102.066.217.125.344.125.339 0 .594-.286.594-.625 0-.127-.031-.244-.094-.344m-4.844.188l-1.5 1.625v1.406h-.375v2.938h.969v-2.938h-.313v-1.281c.07-.075 1.266-1.384 1.344-1.469h1.25l-.281-.281h-1.094m-4.688.063c.14 0 .25.141.25.281 0 .14-.11.25-.25.25-.14 0-.25-.11-.25-.25 0-.14.11-.281.25-.281m14.188 1.563v.875h.688v-.875h-.688m-15.12.281v7.188h-3.906v-5.5h-7.625v4.938c-.23.05-.383.24-.438.469h-.219v.281h.219c.055.228.207.419.438.469v3.719l.313.313v-4.03c.218-.057.385-.249.438-.469h.938v.75h3.188v-.75h.875v1.781h7.719v-8.875h1.375v12.313c-.265 0-12.403-.029-13.844-.031l.281.281 13.844.031v-12.875h-3.594m.281.281h1.375v8.594h-7.125v-1.781h-1.188v-.781h-3.188v.781h-.938c-.053-.22-.219-.38-.438-.438v-4.688h7.03v5.5h4.469v-7.188m-3.094.844v2.938h.344v.719c-.27.065-.5.304-.5.594 0 .34.286.625.625.625.339 0 .625-.285.625-.625 0-.29-.198-.529-.469-.594v-.719h.344v-2.938h-.969m1.625 0v2.938h.344v.719c-.27.065-.469.304-.469.594 0 .34.286.625.625.625.339 0 .594-.285.594-.625 0-.29-.198-.529-.469-.594v-.719h.344v-2.938h-.969m1.719 0v2.938h.344v4.063h-5.531v-4.563h-2v-.813h-3.188v1.813h3.188v-.719h1.719v4.563h6.094v-4.344h.344v-2.938h-.969m1.594 0v2.938h.344v6.688h-9.125v-.875h-3.188v1.781h3.188v-.625h9.406v-6.969h.344v-2.938h-.969m5.063 0v2.938h.281v.906l2.5 2.5h6.844c.083.243.292.406.563.406.339 0 .625-.254.625-.594 0-.339-.286-.625-.625-.625-.309 0-.55.234-.594.531h-6.688c-.079-.079-2.233-2.264-2.313-2.344v-.781h.375v-2.938h-.969m1.563 0v2.938h.344v.656l1.656 1.625h8.594c.066.066.656.656.813.813-.013.05-.031.102-.031.156 0 .339.286.625.625.625.339 0 .625-.286.625-.625 0-.34-.286-.625-.625-.625-.178 0-.356.097-.469.219l-.813-.844h-8.625c-.077-.077-1.392-1.392-1.469-1.469v-.531h.313v-2.938h-.938m1.594 0v2.938h.344v.531l1.063 1.063h9.25c.092.224.337.375.594.375.339 0 .594-.254.594-.594 0-.34-.254-.625-.594-.625-.321 0-.598.248-.625.563h-9.09c-.073-.073-.833-.802-.906-.875v-.438h.344v-2.938h-.969m3.344 0v2.938h.969v-1.063h5.969c.076.076.844.844.844.844h2.781c.071.261.31.469.594.469.34 0 .594-.286.594-.625 0-.34-.254-.625-.594-.625-.297 0-.567.22-.625.5h-2.625c-.059-.059-.447-.447-.656-.656h-4.125l-.188-.188h-1.969v-1.594h-.969m37.719 0v1.688h.406v-1.688h-.406m-18.19.063c-.339 0-.625.285-.625.625 0 .339.286.594.625.594.339 0 .594-.254.594-.594 0-.34-.254-.625-.594-.625m-4.219.063c-.339 0-.625.285-.625.625 0 .339.286.625.625.625.339 0 .625-.286.625-.625 0-.34-.286-.625-.625-.625m9.125.125c-.339 0-.625.254-.625.594 0 .34.286.625.625.625.34 0 .625-.285.625-.625 0-.339-.285-.594-.625-.594m-4.906.188c.14 0 .25.11.25.25 0 .14-.11.25-.25.25-.14 0-.281-.11-.281-.25 0-.14.141-.25.281-.25m-4.219.063c.14 0 .25.11.25.25 0 .14-.11.25-.25.25-.14 0-.25-.11-.25-.25 0-.14.11-.25.25-.25m9.125.094c.14 0 .25.11.25.25 0 .14-.11.281-.25.281-.139 0-.25-.141-.25-.281 0-.14.111-.25.25-.25m-12.03 1.313v2.875h.813v-2.875h-.813m1.688 0v2.875h.781v-2.875h-.781m1.594 0v2.875h.781v-2.875h-.781m1.719 0v2.875h.813v-2.875h-.813m1.531 0v2.875h.781v-2.875h-.781m3.406 0v2.875h.781v-2.875h-.781m1.625 0v2.875h.813v-2.875h-.813m1.625 0v2.875h.281v.875l3.344 3.5h8.688c.05.104.123.188.219.25v-1.031c-.161.106-.274.263-.281.469h-8.5c-.081-.085-3.111-3.233-3.188-3.313v-.75h.25v-2.875h-.813m1.75 0v2.875h.281v.438l1.031 1.031h4.844c0 0 1.546-1.546 1.625-1.625h1.313v.344h1.313v-1.813h-.594v-.438h.75c.036.149.098.29.219.375v-1c-.116.086-.184.199-.219.344h-1.031v.719h-.438v1.188h-1.406c0 0-1.546 1.546-1.625 1.625h-4.625c-.073-.073-.802-.802-.875-.875v-.313h.219v-2.875h-.781m-16.188.406c.14 0 .25.11.25.25 0 .14-.11.25-.25.25-.14 0-.25-.11-.25-.25 0-.14.11-.25.25-.25m-27.19 1.688c.14 0 .25.11.25.25 0 .14-.11.281-.25.281-.14 0-.25-.141-.25-.281 0-.14.11-.25.25-.25m1.656 0c.14 0 .25.11.25.25 0 .14-.11.281-.25.281-.14 0-.25-.141-.25-.281 0-.14.11-.25.25-.25m22.281.031c.14 0 .25.141.25.281 0 .14-.11.25-.25.25-.14 0-.281-.11-.281-.25 0-.14.142-.281.281-.281m14.875 1.563c-.339 0-.625.286-.625.625 0 .34.286.625.625.625.339 0 .625-.285.625-.625 0-.339-.286-.625-.625-.625m-47.844.25c.14 0 .25.141.25.281 0 .14-.11.25-.25.25-.14 0-.25-.11-.25-.25 0-.14.11-.281.25-.281m28.75.063c.14 0 .25.11.25.25 0 .14-.11.25-.25.25-.14 0-.25-.11-.25-.25 0-.14.11-.25.25-.25m3.375.031c.14 0 .25.11.25.25 0 .14-.11.25-.25.25-.14 0-.25-.11-.25-.25 0-.14.11-.25.25-.25m15.719.031c.14 0 .25.11.25.25 0 .14-.11.25-.25.25-.14 0-.25-.11-.25-.25 0-.14.11-.25.25-.25m15.03.219v1.813h.313v-1.813h-.313m-45.656.188c-.339 0-.625.254-.625.594 0 .34.286.625.625.625.04 0 .055.007.094 0l2.313 2.281h27.406c0 0 .644-.644.719-.719h4.969v-.313h-5.063c0 0-.676.675-.75.75h-27.16c-.07-.07-1.727-1.727-2.156-2.156.136-.113.219-.278.219-.469 0-.339-.254-.594-.594-.594m0 .344c.14 0 .25.11.25.25 0 .14-.11.25-.25.25-.14 0-.281-.11-.281-.25 0-.14.142-.25.281-.25m-1.594.625c-.339 0-.625.286-.625.625 0 .34.286.594.625.594.107 0 .194-.015.281-.063l2.188 2.188h32.469c.063.274.302.469.594.469.34 0 .625-.254.625-.594 0-.339-.285-.625-.625-.625-.288 0-.527.201-.594.469h-32.34c-.07-.07-1.667-1.667-2.094-2.094.068-.099.094-.215.094-.344 0-.339-.254-.625-.594-.625m0 .344c.14 0 .25.142.25.281 0 .14-.11.25-.25.25-.14 0-.281-.11-.281-.25 0-.14.142-.281.281-.281m45.875 1.781v1.813h.188l1.125-1.125v-.688h-1.313m-8.75.469c-.339 0-.594.286-.594.625 0 .34.254.594.594.594.339 0 .625-.254.625-.594 0-.339-.286-.625-.625-.625m-1.594.375c.14 0 .281.11.281.25 0 .14-.141.25-.281.25-.14 0-.25-.11-.25-.25 0-.14.11-.25.25-.25m1.594 0c.14 0 .25.11.25.25 0 .14-.11.25-.25.25-.14 0-.25-.11-.25-.25 0-.14.11-.25.25-.25m7.375.656c-.31.032-.563.307-.563.625 0 .065.012.128.031.188h.438c-.051-.046-.094-.114-.094-.188 0-.14.11-.25.25-.25.14 0 .25.11.25.25 0 .074-.043.141-.094.188h.438c.02-.059.031-.122.031-.188 0-.34-.285-.625-.625-.625-.021 0-.042-.002-.063 0" fill="#7ed6f4" fill-opacity=".447"/><path d="m28.55 11l-1.15 1.15v5.247l-3.881 1.617-3.702-3.702-.827-.359-.827.359-4.852 4.852v1.653l3.702 3.702-1.617 3.881h-5.247l-1.15 1.15v6.9l1.15 1.15h5.247l1.617 3.881-3.702 3.702v1.653l4.852 4.852h1.653l3.702-3.702 3.881 1.617v5.247l1.15 1.15h6.9l1.15-1.15v-5.247l3.881-1.617 3.702 3.702h1.653l4.852-4.852v-1.653l-3.702-3.702 1.617-3.881h5.247l1.15-1.15v-6.9l-1.15-1.15h-5.247l-1.617-3.881 3.702-3.702v-1.653l-4.852-4.852-.827-.359-.827.359-3.702 3.702-3.881-1.617v-5.247l-1.15-1.15" fill="#143f6a"/><path d="m2 0l-2 1v3h32 32v-3l-2-1h-30-30" fill="#509ceb" color="#000"/><path d="m64 6l-2-2 2-1" fill="#3a7dc2"/><path d="m2 0l-2 1v3h52v-4h-20-30" color="#000" fill="#34c4bd"/><path d="m0 3v3l2-2" fill="#54d2cb"/><path d="m30.502 23.502l-3.158 3.158 7.361 7.34-7.361 7.34 3.158 3.158 8.93-8.93 1.568-1.568-1.568-1.568-8.93-8.93" fill-opacity=".828" color="#000" fill="#fff"/></svg>