<svg xmlns="http://www.w3.org/2000/svg" viewBox="0 0 64 64"><path d="m0 0v64h64v-64h-59-1-1zm6 6h8v6h-8zm11 0h8v6h-8zm11 0h8v6h-8zm11 0h8v6h-8zm11 0h8v6h-8zm-44 48h8v6h-8zm11 0h8v6h-8zm11 0h8v6h-8zm11 0h8v6h-8zm11 0h8v6h-8z" fill="#225ca6"/><g color="#000"><path d="m0 2h64v-2h-64z" fill="#60a8ff"/><path d="m3 16v4.531 9.344 9.313 9.344 1.469h1.938 5.906 3.938 5.375 4.469 4.844.063 9.281.563 8.75 1.094 8.25 1.594 1.938v-3.531-9.344-9.313-9.344-1.469-1h-1.938-4.906-4.938-4.375-5.469-3.844-6-3.344-6.5-2.813-7.03-2.313-2.594-1.938" fill="#2c8fe4"/><path d="m3 16v34h24.75l13.03-34h-37.781" fill-opacity=".177" fill="#6ce3ff"/><path d="m6 11v2h8v-2zm11 0v2h8v-2zm11 0v2h8v-2zm11 0v2h8v-2zm11 0v2h8v-2zm-44 48v2h8v-2zm11 0v2h8v-2zm11 0v2h8v-2zm11 0v2h8v-2zm11 0v2h8v-2z" fill="#6db2ff"/><path d="m0 1v3l2-2" fill="#fff" fill-opacity=".332"/><g transform="matrix(1.0017 0 0 1.0017-.055-1.059)" stroke-width=".998" fill-rule="evenodd"><path d="m32 22.625c-6.282 0-11.375 5.093-11.375 11.375 0 6.282 5.093 11.375 11.375 11.375 6.282 0 11.375-5.093 11.375-11.375 0-6.282-5.093-11.375-11.375-11.375m0 2.313c5.01 0 9.06 4.049 9.06 9.06 0 5.01-4.049 9.06-9.06 9.06-5.01 0-9.06-4.049-9.06-9.06 0-5.01 4.049-9.06 9.06-9.06" fill="#225ca6"/><g stroke-width=".998"><path transform="matrix(.25 0 0 .25 23.75 25.25)" d="M57 35A24 24 0 0 1 33 59 24 24 0 0 1 9 35 24 24 0 0 1 33 11 24 24 0 0 1 57 35" fill="#4a3366"/><ellipse transform="matrix(.70711-.70711.70711.70711 0 0)" cx="-1.414" cy="49.978" rx="2.983" ry="2.03" fill="#ca6eff"/><ellipse ry="50.552" rx="24" cy="35" cx="33" transform="matrix(.10876-.10876.04186.04186 25.946 34.749)" fill="#93d2ff"/></g></g><g fill="#e72f6a"><path d="m6 19v4h1v-3h3v-1h-3-.334-.666"/><path d="m6 47v-4h1v3h3v1h-3-.334-.666"/><path d="m58 47v-4h-1v3h-3v1h3 .334.666"/></g></g><g transform="matrix(.35396 0 0 .35396 33.519 6.465)" fill="#e72f6a" stroke-width="7.982"><path d="m43.859 40.648h.781q1.148 0 1.695-.383.547-.383.547-1.203 0-.813-.563-1.156-.555-.344-1.727-.344h-.734v3.086m0 1.969v4.383h-2.422v-11.422h3.328q2.328 0 3.445.852 1.117.844 1.117 2.57 0 1.01-.555 1.797-.555.781-1.57 1.227 2.578 3.852 3.359 4.977h-2.688l-2.727-4.383h-1.289"/><path d="m58.58 47h-6.578v-11.422h6.578v1.984h-4.156v2.508h3.867v1.984h-3.867v2.945h4.156v2"/><path d="m65.82 37.43q-1.367 0-2.117 1.031-.75 1.023-.75 2.859 0 3.82 2.867 3.82 1.203 0 2.914-.602v2.031q-1.406.586-3.141.586-2.492 0-3.813-1.508-1.32-1.516-1.32-4.344 0-1.781.648-3.117.648-1.344 1.859-2.055 1.219-.719 2.852-.719 1.664 0 3.344.805l-.781 1.969q-.641-.305-1.289-.531-.648-.227-1.273-.227"/></g><circle r="1.5" cy="21.08" cx="45" color="#000" fill="#e72f6a"/></svg>