<svg xmlns="http://www.w3.org/2000/svg" viewBox="0 0 64 64"><g color="#000"><path d="m0 4v30 28l2 2h30 30l2-2v-28-30h-32-32" fill="#2b7fdd"/><path d="m2 0l-2 1v3h32 32v-3l-2-1h-30-30" fill="#6bbeff"/></g><path d="m0 3v3l2-2" fill="#99d2ff"/><path d="m64 6l-2-2 2-1z" fill="#4da0ef"/><g transform="matrix(2.25372 0 0 2.25372-149.52-51.714)" fill="#dbf2ff" color="#000"><path d="m84.25 28.906c-1.19.033-2.174.182-2.844.5-.428.203-.674.491-1.125 1.313-.429.782-1.054 2.273-1.406 3.375-.071.222-.157.566-.219.75l-.125.313.5-.313c1.447-.886 3.067-1.675 4.969-2.438 2.444-.98 4.805-1.709 7-2.156.444-.09.523-.118.469-.156-.214-.152-1.24-.463-2.188-.688-.316-.075-.648-.144-.906-.188-1.537-.258-2.935-.345-4.125-.313m.938 4.969c-.816.041-2.112.478-3.344 1.094l-.531.25 1.313.375c1.819.521 3.063.978 4.344 1.594.529.254 1.514.754 1.75.906.249.161.243.166.219-.063-.119-1.109-.628-2.206-1.375-2.969-.416-.425-.99-.823-1.563-1.063-.148-.062-.262-.108-.375-.125-.113-.017-.237-.007-.438 0m-1.531 3.281c-.024-.001.072.357.219.813.729 2.263 1.126 4.142 1.281 6.125.029.369.064.739.063.844 0 .105-.01.216 0 .219.03.01.318-.233.531-.438.638-.614 1.085-1.405 1.313-2.25.19-.704.226-1.382.094-2.125-.061-.34-.175-.51-.531-.938-.251-.301-1.073-1.063-1.563-1.406-.437-.307-1.342-.841-1.406-.844m-.438 3.188c-.01 0-.02.009-.031.031-.028.043-.261.394-.5.781-.986 1.602-1.991 2.972-2.969 4.03-.437.474-1.225 1.256-1.438 1.438l-.156.125.188.063c.269.072.928.123 1.344.094.446-.032 1.067-.201 1.438-.344.671-.257 1.37-.735 1.875-1.313.249-.285.262-.361.344-.594.279-.792.269-2.356-.031-4-.045-.246-.037-.319-.063-.313m-2.719 1.594c-.274.06-1.686.243-2.344.313-1.925.203-3.572.208-5.406 0-.145-.017-.268-.039-.281-.031-.037.022.355.615.594.906.439.535 1.076 1.07 1.656 1.344.142.067.457.178.719.25.804.221 1.534.261 1.969.094.462-.178 1.097-.646 1.781-1.281.362-.336 1.461-1.554 1.438-1.594-.01-.012-.062-.016-.125 0"/><path d="m77.906 30.344c-.01 0-.104.02-.219.063-1.156.435-2.194 1.399-2.688 2.5-.251.559-.422 1.433-.375 1.781.102.754.851 2.085 1.969 3.375.207.239.399.41.406.406.01 0 0-.389 0-.844 0-2.562.209-4.258.719-6.375.119-.495.196-.904.188-.906m-5.531 4.625c-.064.019-.279.665-.344 1.063-.244 1.507.148 2.89 1.094 3.969.264.301.377.393.813.563.729.284 2.181.478 3.469.469.258 0 .456-.003.469 0 .012 0-.252-.233-.594-.531-1.453-1.268-2.632-2.492-3.594-3.719-.426-.543-.904-1.238-1.125-1.594-.081-.129-.168-.225-.188-.219" opacity=".514"/></g></svg>