<svg xmlns="http://www.w3.org/2000/svg" viewBox="0 0 64 64"><g color="#000"><path d="m0 4v30 28l2 2h30 30l2-2v-28-30h-32-32" fill="#597faf"/><path d="m2 0l-2 1v3h32 32v-3l-2-1h-30-30" fill="#93b4dd"/></g><path d="m0 3v3l2-2" fill="#a2bfe2"/><path d="m64 6l-2-2 2-1" fill="#7598c5"/><path fill="#833636" color="#000" d="m0 12h64v43h-64z"/><path d="m13.313 20.13l-.844 4.094h-3.531l-.094 1.906h3.281l-.594 3.375h-3.438l-.094 1.938h3.156l-.813 4.469h2.531l.844-4.469h3.531l-.844 4.469h2.594l.875-4.469h2.781l.625-1.938h-3.094l.656-3.375h3.156l.125-1.906h-2.938l.813-4.094h-2.563l-.781 4.094h-3.563l.813-4.094h-2.594m1.406 6h3.563l-.656 3.375h-3.563l.656-3.375m8.281 12.875v3h12v-3h-12" fill="#f6d3d3"/></svg>