<svg xmlns="http://www.w3.org/2000/svg" viewBox="0 0 64 64"><g color="#000"><path d="m0 4v30 28l2 2h30 30l2-2v-28-30h-32-32" fill="#e3583a"/><path d="m2 0l-2 1v3h32 32v-3l-2-1h-30-30" fill="#ff8d55"/></g><path d="m64 6l-2-2 2-1z" fill="#ee7045"/><path d="m0 3v3l2-2" fill="#ffaa80"/><path d="m2 0l-2 1" fill="#1f0700" fill-opacity=".07"/><path d="m41.529 18.797c-1.215 0-2.224 1.01-2.224 2.224 0 1.215 1.01 2.188 2.224 2.188 1.215 0 2.188-.973 2.188-2.188 0-1.215-.973-2.224-2.188-2.224m-2.471 5.929c-.32-.005-.615.016-.953.035-2.024.126-4.082.659-6.106 2.682l-13.09 13.06c-.804.804-1.497 1.251-2.188 1.694-1.629-1.406-3.254-4.409-6.353-9.776h-5.365c4.605 7.976 5.771 10.765 8.541 10.765h5.612c2.511 0 3.406-.935 5.153-2.682l13.06-13.06c2.024-2.024 3.805-2.556 5.859-2.682h-3.176c-.338 0-.668-.03-.988-.035m5.788 2.329c-2.511 0-3.406.935-5.153 2.682l-10.765 10.765c-2.024 2.024-3.805 2.556-5.859 2.682h3.176c.675 0 1.301.038 1.976 0 2.024-.126 4.082-.659 6.106-2.682l10.765-10.765c.804-.804 1.497-1.251 2.188-1.694 1.629 1.406 3.254 4.409 6.353 9.776h5.365c-4.605-7.976-5.771-10.765-8.541-10.765h-5.612" fill="#efefef"/></svg>