<?xml version="1.0" encoding="UTF-8" standalone="no"?>
<!-- Created with Inkscape (http://www.inkscape.org/) -->

<svg
   xmlns:dc="http://purl.org/dc/elements/1.1/"
   xmlns:cc="http://creativecommons.org/ns#"
   xmlns:rdf="http://www.w3.org/1999/02/22-rdf-syntax-ns#"
   xmlns:svg="http://www.w3.org/2000/svg"
   xmlns="http://www.w3.org/2000/svg"
   xmlns:xlink="http://www.w3.org/1999/xlink"
   xmlns:sodipodi="http://sodipodi.sourceforge.net/DTD/sodipodi-0.dtd"
   xmlns:inkscape="http://www.inkscape.org/namespaces/inkscape"
   width="64"
   height="64"
   id="svg13094"
   version="1.1"
   inkscape:version="0.91+devel r"
   sodipodi:docname="webcam-capture.svg">
  <sodipodi:namedview
     id="base"
     pagecolor="#ffffff"
     bordercolor="#666666"
     borderopacity="1.0"
     inkscape:pageopacity="0"
     inkscape:pageshadow="2"
     inkscape:zoom="16.000001"
     inkscape:cx="26.224259"
     inkscape:cy="23.321662"
     inkscape:document-units="px"
     inkscape:current-layer="svg13094"
     showgrid="false"
     inkscape:snap-bbox="true"
     inkscape:bbox-paths="true"
     inkscape:bbox-nodes="true"
     inkscape:snap-bbox-edge-midpoints="true"
     inkscape:snap-bbox-midpoints="true"
     inkscape:object-paths="true"
     inkscape:snap-intersection-paths="true"
     inkscape:object-nodes="true"
     inkscape:snap-smooth-nodes="true"
     inkscape:snap-midpoints="true"
     inkscape:snap-object-midpoints="true"
     inkscape:snap-center="true"
     showguides="true"
     inkscape:guide-bbox="true"
     inkscape:window-width="1920"
     inkscape:window-height="1023"
     inkscape:window-x="-10"
     inkscape:window-y="35"
     inkscape:window-maximized="1"
     inkscape:snap-global="false"
     fit-margin-top="0"
     fit-margin-left="0"
     fit-margin-right="0"
     fit-margin-bottom="0"
     showborder="true"
     inkscape:showpageshadow="false"
     inkscape:snap-page="true">
    <inkscape:grid
       type="xygrid"
       id="grid3075"
       empspacing="5"
       visible="true"
       enabled="true"
       snapvisiblegridlinesonly="true"
       originx="1.6362304e-08px"
       originy="18px" />
  </sodipodi:namedview>
  <defs
     id="defs13096">
    <linearGradient
       inkscape:collect="always"
       id="linearGradient3920">
      <stop
         style="stop-color:#ffffff;stop-opacity:0.3515901"
         offset="0"
         id="stop3922" />
      <stop
         style="stop-color:#ffffff;stop-opacity:0;"
         offset="1"
         id="stop3924" />
    </linearGradient>
    <radialGradient
       inkscape:collect="always"
       xlink:href="#linearGradient3920"
       id="radialGradient3942"
       cx="31.430325"
       cy="16.216105"
       fx="31.430325"
       fy="16.216105"
       r="24"
       gradientTransform="matrix(1.3216015,0,0,2.336646,-10.108039,-36.101999)"
       gradientUnits="userSpaceOnUse" />
  </defs>
  <metadata
     id="metadata13099">
    <rdf:RDF>
      <cc:Work
         rdf:about="">
        <dc:format>image/svg+xml</dc:format>
        <dc:type
           rdf:resource="http://purl.org/dc/dcmitype/StillImage" />
        <dc:title></dc:title>
      </cc:Work>
    </rdf:RDF>
  </metadata>
  <path
     inkscape:connector-curvature="0"
     style="color:#000000;fill:#7899c6;fill-opacity:1;fill-rule:nonzero;stroke:none;stroke-width:2.28571415;marker:none;visibility:visible;display:inline;overflow:visible;enable-background:accumulate"
     d="m 0,4 0,30 0,28 2,2 30,0 30,0 2,-2 L 64,34 64,4 32,4 0,4 z"
     id="path4095" />
  <path
     inkscape:connector-curvature="0"
     style="color:#000000;fill:#a2bfe6;fill-opacity:1;fill-rule:nonzero;stroke:none;stroke-width:2.28571415;marker:none;visibility:visible;display:inline;overflow:visible;enable-background:accumulate"
     d="M 2,0 0,1 0,4 32,4 64,4 64,1 62,0 32,0 2,0 z"
     id="path4090" />
  <path
     d="M 64,6 62,4 64,3 z"
     id="path3028"
     style="fill:#8cabd5;fill-opacity:1"
     inkscape:connector-curvature="0" />
  <g
     id="g3043"
     inkscape:export-filename="folder.png"
     inkscape:export-xdpi="90"
     inkscape:export-ydpi="90"
     transform="translate(-0.62500009,0.082283)" />
  <g
     id="scalable"
     transform="matrix(1.0385892,0,0,1.0385892,1214.7222,1878.8121)"
     inkscape:label="#g3701"
     style="fill:#ffffff" />
  <path
     style="opacity:1;color:#000000;fill:#416087;fill-opacity:1;fill-rule:evenodd;stroke:none;stroke-width:1.3333329;marker:none;visibility:visible;display:inline;overflow:visible;enable-background:accumulate"
     d="M 7.1875 0 C 7.9189346 6.1217259 10.852144 11.559644 15.1875 15.5 C 19.627179 11.464826 25.527913 9 32 9 C 38.472087 9 44.372821 11.464826 48.8125 15.5 C 53.147856 11.559644 56.081065 6.1217259 56.8125 0 L 32 0 L 7.1875 0 z M 32 14.8125 C 21.403036 14.8125 12.8125 23.403036 12.8125 34 C 12.8125 44.596964 21.403036 53.1875 32 53.1875 C 42.596964 53.1875 51.1875 44.596964 51.1875 34 C 51.1875 23.403036 42.596964 14.8125 32 14.8125 z M 1 38 C 0.66318469 38 0.3335794 38.018053 0 38.03125 L 0 62 L 2 64 L 32 64 L 62 64 L 64 62 L 64 38.03125 C 63.666421 38.018053 63.336815 38 63 38 C 60.763236 38 58.594324 38.292725 56.53125 38.84375 C 56.42816 39.368045 56.322971 39.894504 56.1875 40.40625 C 56.134516 40.606851 56.057812 40.801408 56 41 C 55.910646 41.305808 55.819414 41.605488 55.71875 41.90625 C 55.641606 42.137866 55.552432 42.365203 55.46875 42.59375 C 55.329302 42.972384 55.188343 43.349076 55.03125 43.71875 C 54.714496 44.464138 54.354066 45.200319 53.96875 45.90625 C 53.922196 45.991948 53.860023 46.071161 53.8125 46.15625 C 53.807981 46.164301 53.817028 46.179454 53.8125 46.1875 C 53.805624 46.19978 53.788146 46.206483 53.78125 46.21875 C 53.533821 46.656651 53.303935 47.110336 53.03125 47.53125 C 52.946147 47.66328 52.837506 47.775942 52.75 47.90625 C 52.737127 47.925324 52.731674 47.949714 52.71875 47.96875 C 52.269482 48.633754 51.790735 49.288897 51.28125 49.90625 C 51.253172 49.940061 51.215753 49.96634 51.1875 50 C 50.855188 50.398366 50.512313 50.779451 50.15625 51.15625 C 48.743362 52.651419 47.148506 53.951532 45.40625 55.0625 C 41.528465 57.535212 36.939992 59 32 59 C 27.197549 59 22.715158 57.628525 18.90625 55.28125 C 18.607386 55.096659 18.321689 54.915373 18.03125 54.71875 C 18.000381 54.697895 17.968271 54.677239 17.9375 54.65625 C 17.887444 54.622032 17.831046 54.597071 17.78125 54.5625 C 17.098146 54.089312 16.443847 53.568427 15.8125 53.03125 C 15.605593 52.855058 15.388554 52.682712 15.1875 52.5 C 15.11087 52.430352 15.044507 52.351833 14.96875 52.28125 C 14.898766 52.216084 14.819237 52.159703 14.75 52.09375 C 14.471272 51.828007 14.203733 51.559507 13.9375 51.28125 C 13.787824 51.125156 13.645642 50.972414 13.5 50.8125 C 13.380358 50.680864 13.273099 50.540426 13.15625 50.40625 C 13.127121 50.372863 13.091455 50.346042 13.0625 50.3125 C 12.791359 49.997815 12.536685 49.671799 12.28125 49.34375 C 12.021355 49.009973 11.774275 48.659499 11.53125 48.3125 C 11.450049 48.196889 11.360532 48.085783 11.28125 47.96875 C 11.120096 47.730211 10.96554 47.494304 10.8125 47.25 C 10.752284 47.154211 10.683946 47.065405 10.625 46.96875 C 10.533885 46.818794 10.463027 46.652003 10.375 46.5 C 10.260086 46.302185 10.140836 46.107449 10.03125 45.90625 C 9.8679437 45.60563 9.7136728 45.307908 9.5625 45 C 9.5356643 44.945579 9.4951993 44.898394 9.46875 44.84375 C 9.4049569 44.711358 9.3427659 44.571176 9.28125 44.4375 C 9.1713144 44.199492 9.0713239 43.960723 8.96875 43.71875 C 8.8144319 43.353901 8.668495 42.998457 8.53125 42.625 C 8.5277859 42.615616 8.5347031 42.603139 8.53125 42.59375 C 8.3876463 42.20155 8.2492321 41.807371 8.125 41.40625 C 8.0083083 41.030123 7.8803207 40.633504 7.78125 40.25 C 7.7731677 40.218587 7.7579631 40.187711 7.75 40.15625 C 7.7288742 40.073119 7.7077848 39.989712 7.6875 39.90625 C 7.6029932 39.557338 7.5384457 39.198209 7.46875 38.84375 C 5.405676 38.292725 3.2367643 38 1 38 z "
     id="path3086" />
  <path
     style="color:#000000;fill:#324e72;fill-opacity:1;fill-rule:evenodd;stroke:none;stroke-width:1.3333329;marker:none;visibility:visible;display:inline;overflow:visible;enable-background:accumulate"
     d="M 32 22.625 C 25.717761 22.625 20.625 27.717761 20.625 34 C 20.625 40.282239 25.717761 45.375 32 45.375 C 38.282239 45.375 43.375 40.282239 43.375 34 C 43.375 27.717761 38.282239 22.625 32 22.625 z M 32 24.9375 C 37.013034 24.9375 41.0625 28.986966 41.0625 34 C 41.0625 39.013034 37.013034 43.0625 32 43.0625 C 26.986966 43.0625 22.9375 39.013034 22.9375 34 C 22.9375 28.986966 26.986966 24.9375 32 24.9375 z "
     id="path3088-6" />
  <path
     transform="matrix(0.37820421,0,0,0.37820421,19.519261,20.762852)"
     d="M 57,35 A 24,24 0 1 1 9,35 24,24 0 1 1 57,35 z"
     sodipodi:ry="24"
     sodipodi:rx="24"
     sodipodi:cy="35"
     sodipodi:cx="33"
     id="path3824"
     style="color:#000000;fill:#416087;fill-opacity:1;fill-rule:evenodd;stroke:none;stroke-width:1.3333329;marker:none;visibility:visible;display:inline;overflow:visible;enable-background:accumulate"
     sodipodi:type="arc" />
  <path
     transform="matrix(0.24999998,0,0,0.24999998,23.750001,25.25)"
     style="color:#000000;display:inline;overflow:visible;visibility:visible;fill:#333966;fill-opacity:1;fill-rule:evenodd;stroke:none;stroke-width:1.3333329;marker:none;enable-background:accumulate"
     d="M 57,35 A 24,24 0 0 1 33,59 24,24 0 0 1 9,35 24,24 0 0 1 33,11 24,24 0 0 1 57,35 Z"
     id="path4054" />
  <path
     sodipodi:type="arc"
     style="color:#000000;fill:url(#radialGradient3942);fill-opacity:1;fill-rule:evenodd;stroke:none;stroke-width:1.33333290000000004;marker:none;visibility:visible;display:inline;overflow:visible;enable-background:accumulate"
     id="path3928"
     sodipodi:cx="33"
     sodipodi:cy="35"
     sodipodi:rx="24"
     sodipodi:ry="42.432991"
     d="M 57,35 A 24,42.432991 0 1 1 9,35 24,42.432991 0 1 1 57,35 z"
     transform="matrix(-0.09854245,0.09854245,-0.03792554,-0.03792554,34.079297,29.575493)" />
  <ellipse
     transform="rotate(-45)"
     id="path3915"
     style="color:#000000;display:inline;overflow:visible;visibility:visible;fill:#ca6eff;fill-opacity:1;fill-rule:evenodd;stroke:none;stroke-width:0.10280565;marker:none;enable-background:accumulate"
     cx="-1.4142126"
     cy="49.977867"
     rx="2.982878"
     ry="2.0297203" />
  <path
     style="font-size:5px;font-style:normal;font-variant:normal;font-weight:normal;font-stretch:normal;line-height:125%;letter-spacing:1.52999997px;word-spacing:0px;fill:#ffffff;fill-opacity:0.71466905;stroke:none;font-family:Oxygen;-inkscape-font-specification:Oxygen"
     d="M 30.84375 18.125 C 30.49196 18.156805 30.196105 18.287959 30 18.5625 C 29.803771 18.835423 29.7496 19.179921 29.78125 19.59375 C 29.814018 20.022187 29.946301 20.364079 30.1875 20.59375 C 30.430321 20.823292 30.737134 20.93592 31.125 20.90625 C 31.472291 20.879688 31.77289 20.74876 32.03125 20.5625 L 31.9375 20.25 C 31.664916 20.421026 31.407376 20.50965 31.125 20.53125 C 30.868586 20.550862 30.634207 20.500861 30.46875 20.34375 C 30.30479 20.184893 30.21558 19.928104 30.1875 19.625 L 32.03125 19.5 C 32.02945 19.477282 32.03525 19.42693 32.03125 19.375 C 32.02885 19.322945 32.0015 19.30073 32 19.28125 C 31.971077 18.903125 31.868245 18.616936 31.65625 18.40625 C 31.445751 18.193826 31.174813 18.09968 30.84375 18.125 z M 34.78125 18.375 C 34.751457 18.513435 34.563028 19.392575 34.21875 21 L 34.625 21.0625 L 34.9375 19.59375 C 34.986811 19.364623 35.1096 19.187053 35.28125 19.0625 C 35.454831 18.936714 35.652234 18.92081 35.875 18.96875 C 35.929098 18.9804 35.99204 19.00277 36.0625 19.03125 L 36.15625 18.65625 C 36.099429 18.63404 36.04035 18.60916 35.96875 18.59375 C 35.811222 18.55985 35.628291 18.56444 35.46875 18.625 C 35.309206 18.685564 35.185043 18.777793 35.0625 18.90625 L 35.125 18.4375 L 34.78125 18.375 z M 30.84375 18.46875 C 31.051475 18.452865 31.245607 18.491251 31.375 18.625 C 31.505894 18.757006 31.57352 18.954225 31.59375 19.21875 L 30.1875 19.34375 C 30.190732 19.087224 30.254718 18.874864 30.375 18.71875 C 30.495156 18.561018 30.636022 18.48464 30.84375 18.46875 z M 27.15625 18.84375 L 26.75 19 C 26.78208 19.762883 26.79508 20.319828 26.8125 20.6875 C 26.82677 20.979038 26.85996 21.224137 26.875 21.40625 L 26.375 20.875 L 25.21875 19.625 L 24.8125 19.8125 L 26.8125 21.875 L 27.21875 21.71875 L 27.15625 18.84375 z M 42.21875 20.625 L 39.875 23.40625 L 41.40625 24.6875 L 41.65625 24.40625 L 40.46875 23.375 L 42.53125 20.90625 L 42.21875 20.625 z M 22.34375 21.59375 C 22.101428 21.6099 21.873931 21.719419 21.65625 21.90625 C 21.36107 22.159605 21.1892 22.440885 21.1875 22.78125 C 21.185785 23.121619 21.322379 23.465074 21.59375 23.78125 C 21.859823 24.091252 22.162424 24.25906 22.5 24.3125 C 22.838812 24.364885 23.152199 24.276122 23.4375 24.03125 C 23.733915 23.77684 23.874517 23.495559 23.875 23.15625 C 23.874419 22.81571 23.739061 22.471195 23.46875 22.15625 C 23.199496 21.842546 22.926736 21.6781 22.59375 21.625 C 22.510238 21.611419 22.424524 21.588367 22.34375 21.59375 z M 22.5 21.96875 C 22.724415 22.022801 22.943179 22.189255 23.15625 22.4375 C 23.366138 22.682046 23.47972 22.922705 23.5 23.15625 C 23.521514 23.388738 23.45255 23.576154 23.25 23.75 C 23.044978 23.925935 22.825226 23.98978 22.59375 23.9375 C 22.362449 23.882927 22.14421 23.740839 21.9375 23.5 C 21.727611 23.255458 21.61262 23.018154 21.59375 22.78125 C 21.57488 22.54435 21.6412 22.330101 21.84375 22.15625 C 22.052477 21.977144 22.275758 21.91241 22.5 21.96875 z M 45.6875 24.15625 L 45.28125 24.4375 L 45.53125 24.78125 L 45.90625 24.5 L 45.6875 24.15625 z M 44.875 24.71875 L 42.6875 26.25 L 42.90625 26.59375 L 45.125 25.0625 L 44.875 24.71875 z M 19.0625 24.96875 C 18.976381 25.004125 18.90919 25.06259 18.8125 25.15625 C 18.716655 25.248528 18.60292 25.350418 18.53125 25.46875 C 18.328049 25.804266 18.300706 26.140331 18.40625 26.46875 C 18.511249 26.794937 18.738198 27.064005 19.09375 27.28125 C 19.447363 27.495416 19.791757 27.58821 20.125 27.53125 C 20.459086 27.472903 20.73345 27.274407 20.9375 26.9375 C 21.087586 26.689695 21.14307 26.43711 21.125 26.21875 L 20.8125 26.09375 C 20.796123 26.340718 20.733769 26.570412 20.625 26.75 C 20.488404 26.975533 20.29878 27.09304 20.0625 27.125 C 19.825671 27.154723 19.585367 27.102764 19.3125 26.9375 C 19.032675 26.768023 18.83392 26.56964 18.75 26.34375 C 18.666921 26.116471 18.709686 25.877608 18.84375 25.65625 C 18.953364 25.475271 19.094892 25.328516 19.28125 25.21875 L 19.0625 24.96875 z M 46.59375 27.6875 L 44.0625 28.59375 L 44.21875 28.96875 L 45.59375 28.5 C 45.72728 28.452877 45.860498 28.39594 45.96875 28.375 C 46.134779 28.361285 46.264508 28.43283 46.40625 28.53125 C 46.547988 28.629665 46.68013 28.770755 46.75 28.96875 C 46.81659 29.157535 46.79035 29.291231 46.71875 29.40625 C 46.647689 29.5228 46.525208 29.63678 46.3125 29.71875 C 46.240901 29.74574 45.700494 29.923776 44.6875 30.28125 L 44.8125 30.6875 L 46.40625 30.125 C 46.745447 30.005299 46.949092 29.853332 47.0625 29.65625 C 47.17744 29.458625 47.196656 29.197869 47.09375 28.90625 C 47.032544 28.732812 46.942318 28.592082 46.8125 28.46875 C 46.684752 28.34641 46.534525 28.24339 46.375 28.1875 L 46.71875 28.03125 L 46.59375 27.6875 z M 16.96875 29.25 C 16.793129 29.461904 16.6693 29.706845 16.59375 30 C 16.520645 30.283701 16.53327 30.520312 16.625 30.71875 C 16.717137 30.915614 16.859184 31.04136 17.0625 31.09375 C 17.229976 31.13523 17.394571 31.12981 17.53125 31.0625 C 17.668337 30.99362 17.803361 30.863715 17.9375 30.65625 L 18.03125 30.46875 C 18.174945 30.250303 18.28768 30.09615 18.375 30.03125 C 18.462317 29.96636 18.572444 29.97035 18.6875 30 C 18.955745 30.080895 19.0366 30.302931 18.9375 30.6875 C 18.872108 30.941255 18.739353 31.179188 18.53125 31.40625 L 18.84375 31.53125 C 18.927606 31.453694 19.01774 31.357157 19.09375 31.21875 C 19.170162 31.078768 19.23576 30.926526 19.28125 30.75 C 19.35518 30.46315 19.33736 30.202357 19.25 30 C 19.161066 29.79724 19.020007 29.65864 18.78125 29.59375 C 18.584237 29.54299 18.393082 29.57715 18.25 29.65625 C 18.105344 29.734948 17.965034 29.885301 17.8125 30.125 C 17.766976 30.197309 17.71982 30.26536 17.6875 30.3125 C 17.565757 30.497949 17.4773 30.60229 17.40625 30.65625 C 17.335199 30.71021 17.257123 30.74475 17.15625 30.71875 C 17.038044 30.688289 16.94691 30.609645 16.90625 30.5 C 16.86439 30.388376 16.8636 30.259244 16.90625 30.09375 C 16.961084 29.880977 17.086175 29.655805 17.25 29.4375 L 16.96875 29.25 z M 46.0625 32.75 C 45.927416 32.7514 45.827388 32.77231 45.71875 32.8125 C 45.61011 32.852689 45.51005 32.90126 45.4375 32.96875 C 45.366597 33.037847 45.29787 33.12548 45.25 33.21875 C 45.20378 33.313634 45.17633 33.426869 45.15625 33.53125 C 45.13615 33.635629 45.1238 33.726568 45.125 33.84375 C 45.12623 33.962558 45.13403 34.085184 45.15625 34.1875 C 45.178482 34.29144 45.23309 34.40772 45.28125 34.5 C 45.329409 34.592277 45.36521 34.65439 45.4375 34.71875 C 45.511429 34.784722 45.609302 34.83707 45.71875 34.875 C 45.828198 34.91293 45.957038 34.9389 46.09375 34.9375 L 47.875 34.90625 L 47.875 34.5 L 46.09375 34.53125 C 45.87078 34.533557 45.719 34.461596 45.625 34.34375 C 45.531021 34.227527 45.47095 34.055326 45.46875 33.84375 C 45.46768 33.741215 45.4813 33.6737 45.5 33.59375 C 45.51872 33.515426 45.55046 33.43893 45.59375 33.375 C 45.63868 33.312683 45.70023 33.25377 45.78125 33.21875 C 45.862288 33.18536 45.945318 33.15745 46.0625 33.15625 L 47.875 33.15625 L 47.84375 32.75 L 46.0625 32.75 z M 15.15625 33.78125 L 15.15625 34.1875 L 15.625 34.1875 L 15.65625 33.78125 L 15.15625 33.78125 z M 16.125 33.78125 L 16.125 34.1875 L 18.8125 34.1875 L 18.8125 33.78125 L 16.125 33.78125 z M 44.9375 36.8125 L 44.8125 37.25 L 45.59375 38.28125 L 44.34375 38.6875 L 44.21875 39.125 L 45.8125 38.59375 L 46.78125 39.90625 L 46.90625 39.4375 L 46.15625 38.46875 L 47.34375 38.09375 L 47.5 37.625 L 45.9375 38.15625 L 44.9375 36.8125 z M 17.625 36.875 C 17.495186 36.893775 17.358937 36.924878 17.21875 36.96875 C 16.925177 37.060631 16.692864 37.186184 16.5 37.34375 C 16.305589 37.501807 16.14669 37.695715 16.0625 37.90625 C 15.976279 38.115721 15.9333 38.346064 15.9375 38.59375 C 15.940133 38.841924 16.00382 39.118888 16.09375 39.40625 L 16.375 40.34375 L 19.84375 39.28125 L 19.5 38.25 C 19.321592 37.679937 19.051036 37.288567 18.65625 37.0625 C 18.360162 36.892954 18.014442 36.818674 17.625 36.875 z M 18 37.3125 C 18.188682 37.318683 18.347867 37.354646 18.5 37.4375 C 18.802229 37.602144 19.014302 37.921435 19.15625 38.375 L 19.34375 38.96875 L 16.625 39.84375 L 16.4375 39.3125 C 16.288747 38.837188 16.296267 38.442075 16.4375 38.125 C 16.57874 37.807928 16.893476 37.556952 17.375 37.40625 C 17.600231 37.335763 17.811318 37.306317 18 37.3125 z "
     id="path4010" />
  <path
     style="color:#000000;fill:#7093c0;fill-opacity:1;fill-rule:nonzero;stroke:none;stroke-width:2.28571415;marker:none;visibility:visible;display:inline;overflow:visible;enable-background:accumulate"
     d="M 7.1875 0 C 7.3515778 1.3732454 7.6233579 2.70476 8 4 L 32 4 L 56 4 C 56.376642 2.70476 56.648422 1.3732454 56.8125 0 L 32 0 L 7.1875 0 z "
     id="path4082" />
  <path
     sodipodi:type="arc"
     style="color:#000000;fill:#15345b;fill-opacity:0.4391771;fill-rule:evenodd;stroke:none;stroke-width:1.3333329;marker:none;visibility:visible;display:inline;overflow:visible;enable-background:accumulate"
     id="path4104"
     sodipodi:cx="33"
     sodipodi:cy="35"
     sodipodi:rx="24"
     sodipodi:ry="24"
     d="M 57,35 A 24,24 0 1 1 9,35 24,24 0 1 1 57,35 z"
     transform="matrix(0.16666668,0,0,0.16666668,49.499999,49.166666)" />
  <path
     transform="matrix(0.08333335,0,0,0.08333335,52.249999,52.083332)"
     d="M 57,35 A 24,24 0 1 1 9,35 24,24 0 1 1 57,35 z"
     sodipodi:ry="24"
     sodipodi:rx="24"
     sodipodi:cy="35"
     sodipodi:cx="33"
     id="path4110"
     style="color:#000000;fill:#d1ff2a;fill-opacity:1;fill-rule:evenodd;stroke:none;stroke-width:1.3333329;marker:none;visibility:visible;display:inline;overflow:visible;enable-background:accumulate"
     sodipodi:type="arc" />
  <path
     style="fill:#b8ceec;fill-opacity:1;fill-rule:nonzero"
     d="M 0,3 0,6 2,4 Z"
     id="path4298"
     inkscape:connector-curvature="0"
     sodipodi:nodetypes="cccc" />
  <path
     transform="matrix(0.10876194,-0.10876194,0.04185866,0.04185866,25.945806,34.749092)"
     d="M 57,35 A 24,50.551888 0 1 1 9,35 24,50.551888 0 1 1 57,35 z"
     sodipodi:ry="50.551888"
     sodipodi:rx="24"
     sodipodi:cy="35"
     sodipodi:cx="33"
     id="path4050"
     style="color:#000000;fill:#7fc3f3;fill-opacity:1;fill-rule:evenodd;stroke:none;stroke-width:1.3333329;marker:none;visibility:visible;display:inline;overflow:visible;enable-background:accumulate"
     sodipodi:type="arc" />
</svg>
