<?xml version="1.0" encoding="UTF-8" standalone="no"?>
<!-- Created with Inkscape (http://www.inkscape.org/) -->

<svg
   xmlns:dc="http://purl.org/dc/elements/1.1/"
   xmlns:cc="http://creativecommons.org/ns#"
   xmlns:rdf="http://www.w3.org/1999/02/22-rdf-syntax-ns#"
   xmlns:svg="http://www.w3.org/2000/svg"
   xmlns="http://www.w3.org/2000/svg"
   xmlns:sodipodi="http://sodipodi.sourceforge.net/DTD/sodipodi-0.dtd"
   xmlns:inkscape="http://www.inkscape.org/namespaces/inkscape"
   width="64"
   height="64"
   id="svg13094"
   version="1.1"
   inkscape:version="0.91+devel r"
   sodipodi:docname="xmind.svg">
  <sodipodi:namedview
     id="base"
     pagecolor="#ffffff"
     bordercolor="#666666"
     borderopacity="1.0"
     inkscape:pageopacity="0"
     inkscape:pageshadow="2"
     inkscape:zoom="11.313708"
     inkscape:cx="18.475921"
     inkscape:cy="33.964165"
     inkscape:document-units="px"
     inkscape:current-layer="svg13094"
     showgrid="true"
     inkscape:snap-bbox="true"
     inkscape:bbox-paths="true"
     inkscape:bbox-nodes="true"
     inkscape:snap-bbox-edge-midpoints="true"
     inkscape:snap-bbox-midpoints="true"
     inkscape:object-paths="true"
     inkscape:snap-intersection-paths="true"
     inkscape:object-nodes="true"
     inkscape:snap-smooth-nodes="true"
     inkscape:snap-midpoints="true"
     inkscape:snap-object-midpoints="true"
     inkscape:snap-center="true"
     showguides="true"
     inkscape:guide-bbox="true"
     inkscape:window-width="1920"
     inkscape:window-height="1023"
     inkscape:window-x="-10"
     inkscape:window-y="35"
     inkscape:window-maximized="1"
     inkscape:snap-global="false"
     fit-margin-top="0"
     fit-margin-left="0"
     fit-margin-right="0"
     fit-margin-bottom="0"
     showborder="true"
     inkscape:showpageshadow="false"
     inkscape:snap-page="true">
    <inkscape:grid
       type="xygrid"
       id="grid3075"
       empspacing="5"
       visible="true"
       enabled="true"
       snapvisiblegridlinesonly="true"
       originx="1.6362304e-08px"
       originy="18px" />
  </sodipodi:namedview>
  <defs
     id="defs13096" />
  <metadata
     id="metadata13099">
    <rdf:RDF>
      <cc:Work
         rdf:about="">
        <dc:format>image/svg+xml</dc:format>
        <dc:type
           rdf:resource="http://purl.org/dc/dcmitype/StillImage" />
        <dc:title></dc:title>
      </cc:Work>
    </rdf:RDF>
  </metadata>
  <path
     inkscape:connector-curvature="0"
     style="color:#000000;fill:#d5423e;fill-opacity:1;fill-rule:nonzero;stroke:none;stroke-width:2.28571415;marker:none;visibility:visible;display:inline;overflow:visible;enable-background:accumulate"
     d="m 0,4 0,30 0,28 2,2 30,0 30,0 2,-2 L 64,34 64,4 32,4 0,4 z"
     id="path4095" />
  <path
     inkscape:connector-curvature="0"
     style="color:#000000;fill:#ff7c66;fill-opacity:1;fill-rule:nonzero;stroke:none;stroke-width:2.28571415;marker:none;visibility:visible;display:inline;overflow:visible;enable-background:accumulate"
     d="M 2,0 0,1 0,4 32,4 64,4 64,1 62,0 32,0 2,0 z"
     id="path4090" />
  <path
     style="fill:#ff8874;fill-opacity:1;fill-rule:nonzero"
     d="M 0,3 0,6 2,4 Z"
     id="path4298"
     inkscape:connector-curvature="0"
     sodipodi:nodetypes="cccc" />
  <path
     d="M 64,6 62,4 64,3 z"
     id="path3028"
     style="fill:#e95f52;fill-opacity:1"
     inkscape:connector-curvature="0" />
  <g
     id="g3043"
     inkscape:export-filename="folder.png"
     inkscape:export-xdpi="90"
     inkscape:export-ydpi="90"
     transform="translate(-0.62500009,0.082283)" />
  <g
     id="scalable"
     transform="matrix(1.0385892,0,0,1.0385892,1214.7222,1878.8121)"
     inkscape:label="#g3701"
     style="fill:#ffffff" />
  <path
     style="color:#000000;fill:#f1e3e3;fill-opacity:1;fill-rule:nonzero;stroke:none;stroke-width:2.10179186;marker:none;visibility:visible;display:inline;overflow:visible;enable-background:accumulate"
     d="m 14.592447,46.539138 c 0.336867,-0.06409 2.314005,-0.42165 4.393637,-0.794581 2.079633,-0.372932 3.960404,-0.752955 4.17949,-0.844494 0.501914,-0.209713 0.566936,-0.38978 0.724153,-2.005419 0.213783,-2.196936 0.659014,-3.271291 1.780414,-4.296188 1.140338,-1.042205 2.558215,-1.508747 4.596458,-1.512433 3.270161,-0.006 6.322036,1.261579 8.396332,3.487125 0.938005,1.006399 1.59009,2.130907 2.178901,3.757473 0.508491,1.40468 0.797945,1.7565 1.44513,1.7565 0.399474,0 9.522327,-1.577781 10.715593,-1.853243 0.419931,-0.09694 0.683504,-0.233587 0.830611,-0.430623 0.207208,-0.277526 0.208234,-0.321142 0.0267,-1.134404 -0.209966,-0.940624 -0.85999,-2.426129 -1.413941,-3.231274 -0.578143,-0.8403 -1.668815,-1.94634 -2.643638,-2.680892 -1.38458,-1.043313 -2.866056,-1.86827 -5.616936,-3.127785 -2.82382,-1.29291 -3.225566,-1.532709 -3.225566,-1.925326 0,-0.434333 0.448753,-0.671368 2.2358,-1.180976 3.475281,-0.991034 4.949651,-2.042036 5.615054,-4.002676 0.216535,-0.638033 0.240772,-0.901041 0.192968,-2.094168 -0.06577,-1.641661 -0.258129,-2.225731 -0.820964,-2.492814 -0.520653,-0.247066 -1.123407,-0.225838 -3.027088,0.106618 -0.900537,0.157267 -2.836474,0.493444 -4.302083,0.747058 -2.74475,0.474961 -3.237722,0.622873 -3.36,1.008137 -0.03916,0.123366 0.08514,0.80615 0.276211,1.517296 0.400283,1.489807 0.42199,1.894935 0.13534,2.525919 -0.566643,1.247316 -2.36358,1.988914 -4.819257,1.988914 -1.285838,0 -2.124973,-0.199711 -3.326215,-0.79162 -2.168793,-1.068669 -3.697841,-2.963858 -4.703818,-5.830178 -0.437399,-1.246274 -0.640531,-1.640496 -0.923287,-1.79182 -0.263897,-0.141234 -0.317782,-0.133567 -5.629984,0.801142 -5.786968,1.018246 -6.005668,1.0744 -6.374033,1.636598 -0.163377,0.249343 -0.162455,0.341429 0.0105,1.049433 0.527055,2.15745 1.869679,3.925948 4.146221,5.461377 0.919489,0.620157 2.630751,1.415161 4.956035,2.302435 2.52671,0.964134 3.291868,1.356998 3.490037,1.791933 0.121659,0.267012 0.09692,0.32242 -0.295345,0.661506 -0.260549,0.225226 -1.149509,0.668256 -2.27111,1.13185 -3.987679,1.648235 -5.805105,2.685344 -7.25378,4.139347 -1.464567,1.469953 -2.037078,2.806491 -2.037078,4.755608 0,1.504308 0.216896,1.680325 1.718527,1.394645 z"
     id="path3078"
     inkscape:connector-curvature="0" />
</svg>
