<?xml version="1.0" encoding="UTF-8" standalone="no"?>
<!-- Created with Inkscape (http://www.inkscape.org/) -->

<svg
   xmlns:dc="http://purl.org/dc/elements/1.1/"
   xmlns:cc="http://creativecommons.org/ns#"
   xmlns:rdf="http://www.w3.org/1999/02/22-rdf-syntax-ns#"
   xmlns:svg="http://www.w3.org/2000/svg"
   xmlns="http://www.w3.org/2000/svg"
   xmlns:sodipodi="http://sodipodi.sourceforge.net/DTD/sodipodi-0.dtd"
   xmlns:inkscape="http://www.inkscape.org/namespaces/inkscape"
   width="24"
   height="24"
   id="svg27665"
   version="1.1"
   inkscape:version="0.48.3.1 r9886"
   sodipodi:docname="gnome.svg">
  <defs
     id="defs27667" />
  <sodipodi:namedview
     id="base"
     pagecolor="#ffffff"
     bordercolor="#666666"
     borderopacity="1.0"
     inkscape:pageopacity="0.0"
     inkscape:pageshadow="2"
     inkscape:zoom="31.999999"
     inkscape:cx="3.1096296"
     inkscape:cy="10.705297"
     inkscape:document-units="px"
     inkscape:current-layer="layer1"
     showgrid="true"
     inkscape:window-width="1920"
     inkscape:window-height="1033"
     inkscape:window-x="-10"
     inkscape:window-y="25"
     inkscape:window-maximized="1"
     inkscape:snap-bbox="true"
     inkscape:bbox-paths="true"
     inkscape:bbox-nodes="true"
     inkscape:snap-bbox-edge-midpoints="true"
     inkscape:snap-bbox-midpoints="true"
     inkscape:object-paths="true"
     inkscape:snap-intersection-paths="true"
     inkscape:object-nodes="true"
     inkscape:snap-smooth-nodes="true"
     inkscape:snap-midpoints="true"
     inkscape:snap-object-midpoints="true"
     inkscape:snap-center="true"
     inkscape:snap-global="false"
     showguides="false"
     inkscape:guide-bbox="true"
     fit-margin-top="0"
     fit-margin-left="0"
     fit-margin-right="0"
     fit-margin-bottom="0"
     inkscape:showpageshadow="false">
    <sodipodi:guide
       orientation="1,0"
       position="-3201.6232,-603.37575"
       id="guide4181" />
    <inkscape:grid
       type="xygrid"
       id="grid3296"
       empspacing="5"
       visible="true"
       enabled="true"
       snapvisiblegridlinesonly="true"
       originx="-1854.9999px"
       originy="-1853.0001px" />
    <sodipodi:guide
       orientation="1,0"
       position="-1342.9999,-1343"
       id="guide3432" />
    <sodipodi:guide
       orientation="1,0"
       position="-1854.9999,-1343"
       id="guide4416" />
    <sodipodi:guide
       orientation="0,1"
       position="-1854.9999,-1343"
       id="guide3391" />
    <sodipodi:guide
       orientation="0,1"
       position="-1564.9999,-1358"
       id="guide3393" />
    <sodipodi:guide
       orientation="0,1"
       position="-1529.9999,-1840.0001"
       id="guide3395" />
    <sodipodi:guide
       orientation="1,0"
       position="-1357.9999,-1600.0001"
       id="guide3397" />
    <sodipodi:guide
       orientation="1,0"
       position="-1839.9999,-1600.0001"
       id="guide3399" />
    <sodipodi:guide
       orientation="1,0"
       position="-1829.9999,-1600.0001"
       id="guide3401" />
    <sodipodi:guide
       orientation="1,0"
       position="-1367.9999,-1584.0001"
       id="guide3403" />
    <sodipodi:guide
       orientation="0,1"
       position="-1569.9999,-1368"
       id="guide3405" />
    <sodipodi:guide
       orientation="0,1"
       position="-1599.9999,-1830.0001"
       id="guide3407" />
    <sodipodi:guide
       orientation="1,0"
       position="-394.99996,-385.99995"
       id="guide3628" />
    <sodipodi:guide
       orientation="1,0"
       position="-346.99996,-382.99995"
       id="guide3630" />
    <sodipodi:guide
       orientation="0,1"
       position="-378.99996,-346.99995"
       id="guide3632" />
    <sodipodi:guide
       orientation="0,1"
       position="-376.99996,-394.99995"
       id="guide3634" />
    <sodipodi:guide
       orientation="0,1"
       position="-395.99996,-349.99995"
       id="guide3636" />
    <sodipodi:guide
       orientation="1,0"
       position="-349.99996,-344.99995"
       id="guide3638" />
    <sodipodi:guide
       orientation="0,1"
       position="-399.99996,-391.99995"
       id="guide3640" />
    <sodipodi:guide
       orientation="1,0"
       position="-391.99996,-344.99995"
       id="guide3642" />
  </sodipodi:namedview>
  <metadata
     id="metadata27670">
    <rdf:RDF>
      <cc:Work
         rdf:about="">
        <dc:format>image/svg+xml</dc:format>
        <dc:type
           rdf:resource="http://purl.org/dc/dcmitype/StillImage" />
        <dc:title />
      </cc:Work>
    </rdf:RDF>
  </metadata>
  <g
     inkscape:label="Camada 1"
     inkscape:groupmode="layer"
     id="layer1"
     transform="translate(1683.7081,-518.68635)">
    <g
       id="scalable"
       transform="matrix(0.77893781,0,0,0.77893781,-777.42115,1929.5381)"
       inkscape:label="#g3701" />
    <path
       inkscape:connector-curvature="0"
       id="path3005"
       d="m -1665.5138,521.06134 c -3.9925,0 -4.7401,5.68551 -2.4941,5.68551 2.2457,0 6.4867,-5.68551 2.4941,-5.68551 z m -6.362,0.71862 c -2.2469,0.29163 -1.45,4.19639 -0.2536,4.2694 1.1959,0.0731 2.5013,-4.56103 0.2536,-4.2694 z m -3.7622,1.52177 c -0.098,0.0105 -0.2041,0.038 -0.3169,0.0846 -1.8059,0.74522 -0.272,3.82097 0.7397,3.61421 0.9493,-0.19352 1.0552,-3.85561 -0.4228,-3.69876 z m -2.8109,2.40948 c -0.157,-0.006 -0.3265,0.0442 -0.5073,0.16907 -1.4456,0.99887 0.5021,3.41777 1.3527,3.04355 0.7442,-0.3276 0.2537,-3.17564 -0.8454,-3.21262 z m 8.264,1.85993 c -3.0991,-0.0524 -7.1864,1.48521 -7.8836,4.60758 -0.7551,3.37894 3.1127,8.07384 7.1439,8.07384 1.9831,0 4.2641,-1.78963 4.6921,-4.05807 0.3268,-1.72979 -3.8487,-1.0389 -3.6988,0.1057 0.1798,1.37195 -1.0152,2.0469 -2.1769,1.16245 -3.698,-2.81548 6.1426,-4.20622 5.4953,-8.05269 -0.2015,-1.19731 -1.7124,-1.80736 -3.572,-1.83881 z"
       style="fill:#434a55;fill-opacity:0.6745098;fill-rule:nonzero;stroke:none" />
    <path
       style="font-size:medium;font-style:normal;font-variant:normal;font-weight:normal;font-stretch:normal;text-indent:0;text-align:start;text-decoration:none;line-height:normal;letter-spacing:normal;word-spacing:normal;text-transform:none;direction:ltr;block-progression:tb;writing-mode:lr-tb;text-anchor:start;baseline-shift:baseline;color:#000000;fill:#d1d4d6;fill-opacity:0.74329164;fill-rule:nonzero;stroke:none;stroke-width:2;marker:none;visibility:visible;display:inline;overflow:visible;enable-background:accumulate;font-family:Sans;-inkscape-font-specification:Sans"
       d="m -1665.4894,519.87385 c -2.0714,0 -3.3598,1.28776 -4.125,2.71875 -0.039,-0.2541 0.053,-0.49011 -0.062,-0.75 -0.1689,-0.37868 -0.4728,-0.75855 -0.9062,-1 -0.4333,-0.24145 -0.9629,-0.31159 -1.4375,-0.25 -0.9097,0.11807 -1.689,0.72133 -2.0625,1.40625 -0.1306,0.23961 -0.09,0.47271 -0.1563,0.71875 -0.069,-0.0633 -0.1087,-0.13104 -0.1875,-0.1875 l 0,-0.5625 -1.3125,0.125 -0.031,0 c -0.2275,0.0244 -0.4208,0.10312 -0.625,0.1875 -0.776,0.32018 -1.3317,1.02286 -1.5,1.71875 -0.06,0.24663 0.03,0.45345 0.031,0.6875 -0.1764,-0.0657 -0.321,-0.18043 -0.5312,-0.1875 -0.4452,-0.017 -0.8732,0.16754 -1.2188,0.40625 -0.6514,0.45012 -1.0486,1.22986 -1.0625,1.90625 -0.014,0.67639 0.2383,1.23383 0.5313,1.71875 0.2929,0.48492 0.6361,0.9082 1.0937,1.21875 0.2115,0.14354 0.4869,0.26233 0.7813,0.34375 -0.3856,0.56423 -0.8104,1.10331 -0.9688,1.8125 -0.4985,2.23051 0.5053,4.56938 2.0625,6.375 1.5572,1.80562 3.7685,3.15625 6.25,3.15625 2.7051,0 5.3243,-2.11249 5.875,-5.03125 0.083,-0.43808 0.045,-0.9365 -0.1875,-1.34375 -0.2329,-0.40725 -0.6034,-0.68737 -0.9375,-0.84375 -0.6683,-0.31275 -1.3025,-0.31424 -1.9375,-0.25 -0.2959,0.0299 -0.5605,0.17378 -0.8437,0.25 0.7037,-0.43848 1.4242,-0.84746 2.0625,-1.4375 0.9177,-0.84841 1.7151,-2.09853 1.4687,-3.5625 -0.1196,-0.71044 -0.5495,-1.25555 -1.0625,-1.6875 0.4053,-0.20739 0.7948,-0.454 1.1563,-0.75 0.7686,-0.62922 1.465,-1.39954 1.9687,-2.25 0.5037,-0.85046 0.8862,-1.79377 0.625,-2.875 -0.1306,-0.54061 -0.5147,-1.0682 -1.0312,-1.375 -0.5166,-0.3068 -1.0773,-0.40625 -1.7188,-0.40625 z m -0.031,1.1875 c 3.9926,0 -0.2543,5.6875 -2.5,5.6875 -2.246,0 -1.4925,-5.6875 2.5,-5.6875 z m -6.3438,0.71875 c 2.2477,-0.29163 0.9459,4.35435 -0.25,4.28125 -1.1964,-0.073 -1.9969,-3.98962 0.25,-4.28125 z m -3.7812,1.53125 c 1.478,-0.15685 1.3868,3.49398 0.4375,3.6875 -1.0117,0.20676 -2.5559,-2.87978 -0.75,-3.625 0.1128,-0.0466 0.2145,-0.052 0.3125,-0.0625 z m -2.8125,2.40625 c 1.0991,0.037 1.5879,2.89115 0.8437,3.21875 -0.8506,0.37422 -2.7893,-2.06363 -1.3437,-3.0625 0.1808,-0.12487 0.343,-0.16225 0.5,-0.15625 z m 8.2187,0.28125 c 0.022,0.0804 -0.027,0.17065 0,0.25 0.016,0.0471 0.074,0.0781 0.094,0.125 -0.1409,-0.002 -0.2943,0.0282 -0.4375,0.0312 0.1106,-0.13523 0.2549,-0.2604 0.3437,-0.40625 z m -3.25,0.5625 c 0.07,0.0794 0.1045,0.17942 0.1875,0.25 -0.1173,0.0311 -0.227,0.0902 -0.3437,0.125 0.032,-0.0842 0.099,-0.17131 0.125,-0.25 0.013,-0.0407 0.019,-0.084 0.031,-0.125 z m 3.3125,1 c 1.8596,0.0315 3.361,0.64644 3.5625,1.84375 0.6473,3.84647 -9.198,5.24702 -5.5,8.0625 1.1617,0.88445 2.3673,0.2157 2.1875,-1.15625 -0.1499,-1.1446 4.0143,-1.85479 3.6875,-0.125 -0.428,2.26844 -2.7044,4.0625 -4.6875,4.0625 -4.0312,0 -7.9113,-4.68356 -7.1562,-8.0625 0.6972,-3.12237 4.8071,-4.6774 7.9062,-4.625 z m -0.6875,8.03125 c -0.127,0.27433 -0.2942,0.5374 -0.25,0.875 0.013,0.10038 0,0.11926 0,0.15625 -0.045,-0.0185 -0.1171,-0.0239 -0.25,-0.125 -0.282,-0.21472 -0.3021,-0.26818 -0.3125,-0.28125 0.067,-0.0942 0.5376,-0.41258 0.8125,-0.625 z"
       id="path1369"
       inkscape:connector-curvature="0" />
  </g>
</svg>
