<?xml version="1.0" encoding="UTF-8" standalone="no"?>
<!-- Created with Inkscape (http://www.inkscape.org/) -->

<svg
   xmlns:dc="http://purl.org/dc/elements/1.1/"
   xmlns:cc="http://creativecommons.org/ns#"
   xmlns:rdf="http://www.w3.org/1999/02/22-rdf-syntax-ns#"
   xmlns:svg="http://www.w3.org/2000/svg"
   xmlns="http://www.w3.org/2000/svg"
   xmlns:sodipodi="http://sodipodi.sourceforge.net/DTD/sodipodi-0.dtd"
   xmlns:inkscape="http://www.inkscape.org/namespaces/inkscape"
   width="24"
   height="24"
   id="svg27665"
   version="1.1"
   inkscape:version="0.48.3.1 r9886"
   sodipodi:docname="libreoffice-writer.svg">
  <defs
     id="defs27667" />
  <sodipodi:namedview
     id="base"
     pagecolor="#ffffff"
     bordercolor="#666666"
     borderopacity="1.0"
     inkscape:pageopacity="0.0"
     inkscape:pageshadow="2"
     inkscape:zoom="40.960002"
     inkscape:cx="12.997436"
     inkscape:cy="10.383128"
     inkscape:document-units="px"
     inkscape:current-layer="layer1"
     showgrid="true"
     inkscape:window-width="1920"
     inkscape:window-height="1033"
     inkscape:window-x="-10"
     inkscape:window-y="25"
     inkscape:window-maximized="1"
     inkscape:snap-bbox="true"
     inkscape:bbox-paths="true"
     inkscape:bbox-nodes="true"
     inkscape:snap-bbox-edge-midpoints="true"
     inkscape:snap-bbox-midpoints="true"
     inkscape:object-paths="true"
     inkscape:snap-intersection-paths="true"
     inkscape:object-nodes="true"
     inkscape:snap-smooth-nodes="true"
     inkscape:snap-midpoints="true"
     inkscape:snap-object-midpoints="true"
     inkscape:snap-center="true"
     inkscape:snap-global="true"
     showguides="false"
     inkscape:guide-bbox="true"
     fit-margin-top="0"
     fit-margin-left="0"
     fit-margin-right="0"
     fit-margin-bottom="0"
     inkscape:showpageshadow="false"
     showborder="true">
    <sodipodi:guide
       orientation="0,1"
       position="6886.8118,-211.77227"
       id="guide5860" />
    <sodipodi:guide
       orientation="1,0"
       position="6636.8118,-329.45509"
       id="guide5862" />
    <sodipodi:guide
       orientation="1,0"
       position="6886.8119,-211.77228"
       id="guide5866" />
    <inkscape:grid
       type="xygrid"
       id="grid5330"
       empspacing="5"
       visible="true"
       enabled="true"
       snapvisiblegridlinesonly="true"
       originx="-0.00012221875px"
       originy="76.999866px" />
    <sodipodi:guide
       orientation="1,0"
       position="-895.31213,514.03425"
       id="guide4740" />
  </sodipodi:namedview>
  <metadata
     id="metadata27670">
    <rdf:RDF>
      <cc:Work
         rdf:about="">
        <dc:format>image/svg+xml</dc:format>
        <dc:type
           rdf:resource="http://purl.org/dc/dcmitype/StillImage" />
        <dc:title />
      </cc:Work>
    </rdf:RDF>
  </metadata>
  <g
     inkscape:label="Camada 1"
     inkscape:groupmode="layer"
     id="layer1"
     transform="translate(8132.4741,-1091.0071)">
    <path
       sodipodi:nodetypes="ccccccccccccccccccccccccc"
       inkscape:connector-curvature="0"
       id="path2988"
       d="m -8127.4741,1095.0071 0,16 14,0 0,-9.3437 -6.6563,-6.6563 z m 8.75,0 5.25,5.25 -10e-5,-5.2499 z m -5.75,8 8,0 0,1 -8,0 z m 0,2 8,0 0,1 -8,0 z m 0,2 8,0 0,1 -8,0 z"
       style="font-size:medium;font-style:normal;font-variant:normal;font-weight:normal;font-stretch:normal;text-indent:0;text-align:start;text-decoration:none;line-height:normal;letter-spacing:normal;word-spacing:normal;text-transform:none;direction:ltr;block-progression:tb;writing-mode:lr-tb;text-anchor:start;baseline-shift:baseline;color:#000000;fill:#434a55;fill-opacity:0.6745119;stroke:none;stroke-width:51.19525528;marker:none;visibility:visible;display:inline;overflow:visible;enable-background:accumulate;font-family:Sans;-inkscape-font-specification:Sans" />
    <path
       style="font-size:medium;font-style:normal;font-variant:normal;font-weight:normal;font-stretch:normal;text-indent:0;text-align:start;text-decoration:none;line-height:normal;letter-spacing:normal;word-spacing:normal;text-transform:none;direction:ltr;block-progression:tb;writing-mode:lr-tb;text-anchor:start;baseline-shift:baseline;color:#000000;fill:#d1d4d6;fill-opacity:0.74329164;fill-rule:nonzero;stroke:none;stroke-width:2;marker:none;visibility:visible;display:inline;overflow:visible;enable-background:accumulate;font-family:Sans;-inkscape-font-specification:Sans"
       d="m -8128.4741,1094.0071 0,1 0,16 0,1 1,0 14,0 1,0 0,-1 0,-8.3437 0,-1 0,-0.4063 0,-1 0,-5.25 0,-1 -1,0 -5.25,0 -1,0 -0.4063,0 -1,0 -6.3437,0 -1,0 z m 1,1 7.3437,0 6.6563,6.6563 0,9.3437 -14,0 0,-16 z m 8.75,0 5.25,0 0,5.25 -5.25,-5.25 z m -5.75,8 0,1 8,0 0,-1 -8,0 z m 0,2 0,1 8,0 0,-1 -8,0 z m 0,2 0,1 8,0 0,-1 -8,0 z"
       id="path3008"
       inkscape:connector-curvature="0" />
  </g>
</svg>
