<?xml version="1.0" encoding="UTF-8" standalone="no"?>
<!-- Created with Inkscape (http://www.inkscape.org/) -->

<svg
   xmlns:dc="http://purl.org/dc/elements/1.1/"
   xmlns:cc="http://creativecommons.org/ns#"
   xmlns:rdf="http://www.w3.org/1999/02/22-rdf-syntax-ns#"
   xmlns:svg="http://www.w3.org/2000/svg"
   xmlns="http://www.w3.org/2000/svg"
   xmlns:sodipodi="http://sodipodi.sourceforge.net/DTD/sodipodi-0.dtd"
   xmlns:inkscape="http://www.inkscape.org/namespaces/inkscape"
   version="1.1"
   width="24"
   height="24"
   id="svg13094"
   inkscape:version="0.48.3.1 r9886"
   sodipodi:docname="preferences-desktop-wallpaper.svg"
   inkscape:export-filename="folder.png"
   inkscape:export-xdpi="90"
   inkscape:export-ydpi="90">
  <sodipodi:namedview
     pagecolor="#ffffff"
     bordercolor="#666666"
     borderopacity="1"
     objecttolerance="10"
     gridtolerance="10"
     guidetolerance="10"
     inkscape:pageopacity="0"
     inkscape:pageshadow="2"
     inkscape:window-width="1920"
     inkscape:window-height="1027"
     id="namedview6"
     showgrid="true"
     inkscape:snap-bbox="true"
     inkscape:bbox-paths="true"
     inkscape:bbox-nodes="true"
     inkscape:snap-bbox-edge-midpoints="true"
     inkscape:snap-bbox-midpoints="true"
     inkscape:object-paths="true"
     inkscape:snap-intersection-paths="true"
     inkscape:object-nodes="true"
     inkscape:snap-smooth-nodes="true"
     inkscape:snap-midpoints="true"
     inkscape:snap-object-midpoints="true"
     inkscape:snap-center="true"
     inkscape:zoom="29.5"
     inkscape:cx="15.203977"
     inkscape:cy="10.797881"
     inkscape:window-x="-10"
     inkscape:window-y="31"
     inkscape:window-maximized="1"
     inkscape:current-layer="svg13094">
    <inkscape:grid
       type="xygrid"
       id="grid2983"
       empspacing="5"
       visible="true"
       enabled="true"
       snapvisiblegridlinesonly="true" />
  </sodipodi:namedview>
  <defs
     id="defs7" />
  <metadata
     id="metadata13099">
    <rdf:RDF>
      <cc:Work
         rdf:about="">
        <dc:format>image/svg+xml</dc:format>
        <dc:type
           rdf:resource="http://purl.org/dc/dcmitype/StillImage" />
        <dc:title />
      </cc:Work>
    </rdf:RDF>
  </metadata>
  <path
     style="fill:#434a54;fill-opacity:0.6745098;fill-rule:nonzero"
     d="M 3 4 L 3 20 L 11 20 L 11 17 L 6 17 L 6 7 L 18 7 L 18 10 L 21 10 L 21 4 L 3 4 z M 12 11 L 12 16.5625 L 12 17 L 12 20 L 21 11 L 18 11 L 17 11 L 12 11 z "
     id="path2984" />
  <path
     style="font-size:medium;font-style:normal;font-variant:normal;font-weight:normal;font-stretch:normal;text-indent:0;text-align:start;text-decoration:none;line-height:normal;letter-spacing:normal;word-spacing:normal;text-transform:none;direction:ltr;block-progression:tb;writing-mode:lr-tb;text-anchor:start;baseline-shift:baseline;color:#000000;fill:#d1d4d6;fill-opacity:0.74329164;fill-rule:nonzero;stroke:none;stroke-width:2;marker:none;visibility:visible;display:inline;overflow:visible;enable-background:accumulate;font-family:Sans;-inkscape-font-specification:Sans"
     d="M 2 3 L 2 4 L 2 20 L 2 21 L 3 21 L 13 21 L 22 12 L 22 4 L 22 3 L 21 3 L 3 3 L 2 3 z M 3 4 L 21 4 L 21 10 L 18 10 L 18 7 L 6 7 L 6 8 L 6 17 L 7 17 L 11 17 L 11 20 L 3 20 L 3 4 z M 7 8 L 17 8 L 17 10 L 12 10 L 11 10 L 11 16 L 7 16 L 7 8 z M 12 11 L 21 11 L 12 20 L 12 11 z "
     id="path3006-1" />
  <path
     inkscape:connector-curvature="0"
     style="color:#000000;fill:#8a929e;fill-opacity:0.60931899;fill-rule:nonzero;stroke:none;stroke-width:1;marker:none;visibility:visible;display:inline;overflow:visible;enable-background:accumulate"
     d="m 7,8 10,0 0,2 -6,0 0,6 -4,0 z"
     id="rect2994-9"
     sodipodi:nodetypes="ccccccc" />
  <path
     style="color:#000000;fill:#8a929e;fill-opacity:0.60931899000000000;fill-rule:nonzero;stroke:none;stroke-width:1;marker:none;visibility:visible;display:inline;overflow:visible;enable-background:accumulate"
     d="m 21,13 -7,7 7,0 z"
     id="path3010"
     inkscape:connector-curvature="0" />
</svg>
