<?xml version="1.0" encoding="UTF-8" standalone="no"?>
<!-- Created with Inkscape (http://www.inkscape.org/) -->

<svg
   xmlns:dc="http://purl.org/dc/elements/1.1/"
   xmlns:cc="http://creativecommons.org/ns#"
   xmlns:rdf="http://www.w3.org/1999/02/22-rdf-syntax-ns#"
   xmlns:svg="http://www.w3.org/2000/svg"
   xmlns="http://www.w3.org/2000/svg"
   xmlns:sodipodi="http://sodipodi.sourceforge.net/DTD/sodipodi-0.dtd"
   xmlns:inkscape="http://www.inkscape.org/namespaces/inkscape"
   width="24"
   height="24"
   id="svg27665"
   version="1.1"
   inkscape:version="0.48.3.1 r9886"
   sodipodi:docname="steam.svg">
  <defs
     id="defs27667" />
  <sodipodi:namedview
     id="base"
     pagecolor="#ffffff"
     bordercolor="#666666"
     borderopacity="1.0"
     inkscape:pageopacity="0.0"
     inkscape:pageshadow="2"
     inkscape:zoom="31.999999"
     inkscape:cx="12.040403"
     inkscape:cy="12.224012"
     inkscape:document-units="px"
     inkscape:current-layer="layer1"
     showgrid="true"
     inkscape:window-width="1920"
     inkscape:window-height="949"
     inkscape:window-x="-10"
     inkscape:window-y="31"
     inkscape:window-maximized="1"
     inkscape:snap-bbox="true"
     inkscape:bbox-paths="true"
     inkscape:bbox-nodes="true"
     inkscape:snap-bbox-edge-midpoints="true"
     inkscape:snap-bbox-midpoints="true"
     inkscape:object-paths="true"
     inkscape:snap-intersection-paths="true"
     inkscape:object-nodes="true"
     inkscape:snap-smooth-nodes="true"
     inkscape:snap-midpoints="true"
     inkscape:snap-object-midpoints="true"
     inkscape:snap-center="true"
     inkscape:snap-global="false"
     showguides="false"
     inkscape:guide-bbox="true"
     fit-margin-top="0"
     fit-margin-left="0"
     fit-margin-right="0"
     fit-margin-bottom="0"
     inkscape:showpageshadow="false">
    <sodipodi:guide
       orientation="1,0"
       position="-3201.6232,-603.37577"
       id="guide4181" />
    <inkscape:grid
       type="xygrid"
       id="grid3296"
       empspacing="5"
       visible="true"
       enabled="true"
       snapvisiblegridlinesonly="true"
       originx="-1855px"
       originy="-1853px" />
    <sodipodi:guide
       orientation="1,0"
       position="-1343,-1343"
       id="guide3432" />
    <sodipodi:guide
       orientation="1,0"
       position="-1855,-1343"
       id="guide4416" />
    <sodipodi:guide
       orientation="0,1"
       position="-1855,-1343"
       id="guide3391" />
    <sodipodi:guide
       orientation="0,1"
       position="-1565,-1358"
       id="guide3393" />
    <sodipodi:guide
       orientation="0,1"
       position="-1530,-1840"
       id="guide3395" />
    <sodipodi:guide
       orientation="1,0"
       position="-1358,-1600"
       id="guide3397" />
    <sodipodi:guide
       orientation="1,0"
       position="-1840,-1600"
       id="guide3399" />
    <sodipodi:guide
       orientation="1,0"
       position="-1830,-1600"
       id="guide3401" />
    <sodipodi:guide
       orientation="1,0"
       position="-1368,-1584"
       id="guide3403" />
    <sodipodi:guide
       orientation="0,1"
       position="-1570,-1368"
       id="guide3405" />
    <sodipodi:guide
       orientation="0,1"
       position="-1600,-1830"
       id="guide3407" />
    <sodipodi:guide
       orientation="1,0"
       position="-395,-385.99995"
       id="guide3628" />
    <sodipodi:guide
       orientation="1,0"
       position="-347,-382.99995"
       id="guide3630" />
    <sodipodi:guide
       orientation="0,1"
       position="-379,-346.99995"
       id="guide3632" />
    <sodipodi:guide
       orientation="0,1"
       position="-377,-394.99997"
       id="guide3634" />
    <sodipodi:guide
       orientation="0,1"
       position="-396,-349.99995"
       id="guide3636" />
    <sodipodi:guide
       orientation="1,0"
       position="-350,-344.99995"
       id="guide3638" />
    <sodipodi:guide
       orientation="0,1"
       position="-400,-391.99997"
       id="guide3640" />
    <sodipodi:guide
       orientation="1,0"
       position="-392,-344.99995"
       id="guide3642" />
  </sodipodi:namedview>
  <metadata
     id="metadata27670">
    <rdf:RDF>
      <cc:Work
         rdf:about="">
        <dc:format>image/svg+xml</dc:format>
        <dc:type
           rdf:resource="http://purl.org/dc/dcmitype/StillImage" />
        <dc:title />
      </cc:Work>
    </rdf:RDF>
  </metadata>
  <g
     inkscape:label="Camada 1"
     inkscape:groupmode="layer"
     id="layer1"
     transform="translate(1683.7081,-518.68635)">
    <path
       sodipodi:nodetypes="cccscccccsssccsccssssssssss"
       id="path3020"
       d="m -1666.7081,522.68635 c -2.2091,0 -4,1.79086 -4,4 l -4.8438,6.03125 c -0.054,-0.003 -0.1012,-0.0312 -0.1562,-0.0312 -0.7407,0 -1.4142,0.27384 -1.9375,0.71875 l -9.5625,-5.5 c -0.1921,-0.12528 -0.4283,-0.1815 -0.6563,-0.15625 -0.8354,0.10619 -1.0871,1.4794 -0.3437,1.875 l 9.5625,5.53125 c -0.032,0.17623 -0.062,0.3457 -0.062,0.53125 0,1.65685 1.3431,3 3,3 1.6569,0 3,-1.34315 3,-3 0,-0.055 -0.028,-0.10194 -0.031,-0.15625 l 6.0313,-4.84375 c 2.2091,0 4,-1.79086 4,-4 0,-2.20914 -1.7909,-4 -4,-4 z m 0,1.25 c 1.5188,0 2.75,1.23122 2.75,2.75 0,1.51878 -1.2312,2.75 -2.75,2.75 -1.5188,0 -2.75,-1.23122 -2.75,-2.75 0,-1.51878 1.2312,-2.75 2.75,-2.75 z m 0,1.19792 c -0.8572,0 -1.5521,0.69489 -1.5521,1.55208 0,0.85719 0.6949,1.55208 1.5521,1.55208 0.8572,0 1.5521,-0.69489 1.5521,-1.55208 0,-0.85719 -0.6949,-1.55208 -1.5521,-1.55208 z"
       style="color:#000000;fill:#434a55;fill-opacity:0.6745098;fill-rule:nonzero;stroke:none;stroke-width:1.3333329;marker:none;visibility:visible;display:inline;overflow:visible;enable-background:accumulate"
       inkscape:connector-curvature="0" />
    <path
       style="font-size:medium;font-style:normal;font-variant:normal;font-weight:normal;font-stretch:normal;text-indent:0;text-align:start;text-decoration:none;line-height:normal;letter-spacing:normal;word-spacing:normal;text-transform:none;direction:ltr;block-progression:tb;writing-mode:lr-tb;text-anchor:start;baseline-shift:baseline;color:#000000;fill:#d1d4d6;fill-opacity:0.74329164;fill-rule:nonzero;stroke:none;stroke-width:2;marker:none;visibility:visible;display:inline;overflow:visible;enable-background:accumulate;font-family:Sans;-inkscape-font-specification:Sans"
       d="m -1666.7081,521.49885 c -2.6483,0 -4.7537,2.02435 -5.0625,4.59375 l -4.4063,5.5 c -0.5303,0.0634 -1.0188,0.19601 -1.4687,0.4375 l -8.9063,-5.125 c -0.02,-0.013 -0.043,-0.019 -0.062,-0.0312 -0.4176,-0.25416 -0.8868,-0.36657 -1.375,-0.3125 l -0.031,0 c -1.0447,0.13279 -1.6368,1.024 -1.7813,1.8125 -0.1423,0.77606 0.106,1.77767 1,2.28125 l 0.031,0.0312 8.9062,5.125 c 0.072,2.24452 1.8956,4.0625 4.1563,4.0625 2.1396,0 3.8792,-1.64123 4.125,-3.71875 l 5.4687,-4.40625 c 2.5694,-0.30883 4.625,-2.41407 4.625,-5.0625 0,-2.82386 -2.3135,-5.10172 -5.125,-5.15625 -0.013,-2.4e-4 -0.019,-0.0311 -0.031,-0.0312 l -0.062,0 z m 0,1.1875 c 2.2091,0 4,1.79086 4,4 0,2.20914 -1.7909,4 -4,4 l -6.0313,4.84375 c 0,0.0543 0.031,0.10125 0.031,0.15625 0,1.65685 -1.3431,3 -3,3 -1.6569,0 -3,-1.34315 -3,-3 0,-0.18555 0.031,-0.35502 0.062,-0.53125 l -9.5625,-5.53125 c -0.7434,-0.3956 -0.4917,-1.76881 0.3437,-1.875 0.228,-0.0252 0.4642,0.031 0.6563,0.15625 l 9.5625,5.5 c 0.5233,-0.44491 1.1968,-0.71875 1.9375,-0.71875 0.055,0 0.1022,0.0283 0.1562,0.0312 l 4.8438,-6.03125 c 0,-2.20914 1.7909,-4 4,-4 z m 0,1.25 c -1.5188,0 -2.75,1.23122 -2.75,2.75 0,1.51878 1.2312,2.75 2.75,2.75 1.5188,0 2.75,-1.23122 2.75,-2.75 0,-1.51878 -1.2312,-2.75 -2.75,-2.75 z m 0,1.1875 c 0.8572,0 1.5625,0.70531 1.5625,1.5625 0,0.85719 -0.7053,1.5625 -1.5625,1.5625 -0.8572,0 -1.5625,-0.70531 -1.5625,-1.5625 0,-0.85719 0.7053,-1.5625 1.5625,-1.5625 z"
       id="path3005"
       inkscape:connector-curvature="0" />
  </g>
</svg>
