<svg xmlns="http://www.w3.org/2000/svg" viewBox="0 0 64 64"><path d="m0 5.906v51.594l.094.094c-.054.16-.094.333-.094.5v2.813c0 1.706 2.899 3.094 6.5 3.094h51c3.601 0 6.5-1.388 6.5-3.094v-2.813c0-.167-.04-.34-.094-.5l.094-.094v-51.594h-64" fill="#43556a" color="#000"/><path d="m6.5 0c-1.903 0-3.595.387-4.781 1h30.28 30.28c-1.187-.613-2.879-1-4.781-1h-25.5-25.5" fill="#1f0700" fill-opacity=".07"/><g color="#000"><path d="m6.5 0h51c3.601 0 6.5 1.373 6.5 3.079v2.842c0 1.706-2.899 3.079-6.5 3.079h-51c-3.601 0-6.5-1.373-6.5-3.079v-2.842c0-1.706 2.899-3.079 6.5-3.079" fill="#94a7bc"/><path d="m7 2.368h50c1.108 0 2 .423 2 .947v2.368c0 .525-.892.947-2 .947h-50c-1.108 0-2-.423-2-.947v-2.368c0-.525.892-.947 2-.947" fill="#43556a"/><path d="m23 5l-1 1v.631h20v-.631l-1-1h-18" fill="#f77c21"/><path fill="#162f4d" fill-opacity=".352" d="m52 9h2v55h-2z"/><path fill="#779dc9" fill-opacity=".231" d="m10 9h2v55h-2z"/><path d="m21.14 31.23c0 1.362.824 2.528 1.994 3.052v2.769c0 .989.619 1.92 1.362 2.591.008.007.009.02.017.027v.014c0 0 .033.04.033.04 0 0 .029.036.033.04.005.004.014-.002.017 0 .003.002-.003.011 0 .013.011.009.034.015.05.027.005.005.011.009.017.014.018.013 5.515 4.173 5.582 4.224.264.272.455.647.465.985v.856c-1.666.558-2.874 2.126-2.874 3.959 0 2.301 1.891 4.159 4.22 4.159 2.329 0 4.22-1.858 4.22-4.159 0-1.833-1.208-3.4-2.874-3.959v-.829c0 .005 0-.021 0-.027 0-.006.002.003 0-.027v-4.17c.011-.337.199-.685.465-.958.034-.025 1.386-1.057 2.775-2.105.703-.531 1.415-1.058 1.944-1.457.264-.2.476-.369.631-.486.078-.059.141-.103.183-.135.021-.016.039-.019.05-.027.005-.004.011-.02.017-.027.015-.012.039-.018.05-.027.003-.002-.003-.011 0-.014.003-.003.012.005.017 0 .005-.005.033-.054.033-.054 0 0 .033-.027.033-.027v-.014l.017-.014c.003-.003-.003-.011 0-.014.007-.013.017-.027.017-.027.733-.67 1.346-1.585 1.346-2.564v-1.953h1.877v-6.107h-6.458v6.107h1.889c0 .565 0 .567 0 1.993-.01.337-.197.683-.465.958l-4.419 3.347v-14.911h2.915l-4.319-6.315-4.32 6.315h3.03v19.08l-4.419-3.333c-.265-.273-.455-.647-.465-.985 0-1.163 0-1.906 0-2.78 1.197-.514 2.044-1.688 2.044-3.068 0-1.852-1.518-3.367-3.373-3.367-1.855 0-3.356 1.515-3.356 3.367" fill-opacity=".601" fill="#b6cfed"/></g></svg>