<?xml version="1.0" encoding="UTF-8" standalone="no"?>
<!-- Created with Inkscape (http://www.inkscape.org/) -->

<svg
   xmlns:dc="http://purl.org/dc/elements/1.1/"
   xmlns:cc="http://creativecommons.org/ns#"
   xmlns:rdf="http://www.w3.org/1999/02/22-rdf-syntax-ns#"
   xmlns:svg="http://www.w3.org/2000/svg"
   xmlns="http://www.w3.org/2000/svg"
   xmlns:xlink="http://www.w3.org/1999/xlink"
   xmlns:sodipodi="http://sodipodi.sourceforge.net/DTD/sodipodi-0.dtd"
   xmlns:inkscape="http://www.inkscape.org/namespaces/inkscape"
   id="svg13094"
   height="64"
   width="64"
   version="1.1"
   inkscape:version="0.48.4 r9939"
   sodipodi:docname="folder-evolvere-blue-folders-vivid-sunken.svg"
   inkscape:export-filename="folder.png"
   inkscape:export-xdpi="90"
   inkscape:export-ydpi="90">
  <sodipodi:namedview
     pagecolor="#ffffff"
     bordercolor="#666666"
     borderopacity="1"
     objecttolerance="10"
     gridtolerance="10"
     guidetolerance="10"
     inkscape:pageopacity="0"
     inkscape:pageshadow="2"
     inkscape:window-width="1920"
     inkscape:window-height="1022"
     id="namedview46"
     showgrid="true"
     inkscape:snap-bbox="true"
     inkscape:bbox-paths="true"
     inkscape:bbox-nodes="true"
     inkscape:snap-bbox-edge-midpoints="true"
     inkscape:snap-bbox-midpoints="true"
     inkscape:snap-nodes="true"
     inkscape:object-paths="true"
     inkscape:snap-intersection-paths="true"
     inkscape:object-nodes="true"
     inkscape:snap-smooth-nodes="true"
     inkscape:snap-midpoints="true"
     inkscape:snap-object-midpoints="true"
     inkscape:snap-center="true"
     fit-margin-top="0"
     fit-margin-left="0"
     fit-margin-right="0"
     fit-margin-bottom="0"
     inkscape:zoom="10.429825"
     inkscape:cx="47.740147"
     inkscape:cy="30.554132"
     inkscape:window-x="-5"
     inkscape:window-y="23"
     inkscape:window-maximized="1"
     inkscape:current-layer="g3045"
     showguides="true"
     inkscape:guide-bbox="true"
     inkscape:snap-page="true"
     inkscape:snap-global="true">
    <inkscape:grid
       type="xygrid"
       id="grid3023"
       empspacing="5"
       visible="true"
       enabled="true"
       snapvisiblegridlinesonly="true"
       originx="-80px"
       originy="-75px" />
  </sodipodi:namedview>
  <defs
     id="defs11">
    <linearGradient
       id="linearGradient3841-4-6">
      <stop
         style="stop-color:#316bb1;stop-opacity:1;"
         offset="0"
         id="stop3843-9-6" />
      <stop
         style="stop-color:#3279d2;stop-opacity:1;"
         offset="1"
         id="stop3845-3-4" />
    </linearGradient>
    <linearGradient
       inkscape:collect="always"
       xlink:href="#linearGradient3969-2"
       id="linearGradient3918-5"
       gradientUnits="userSpaceOnUse"
       x1="29.875"
       y1="64.082283"
       x2="29.875"
       y2="12.082283" />
    <linearGradient
       id="linearGradient3969-2">
      <stop
         style="stop-color:#2d6db3;stop-opacity:1"
         offset="0"
         id="stop3971-2" />
      <stop
         id="stop3977-6"
         offset="0.08245245"
         style="stop-color:#3681d4;stop-opacity:1" />
      <stop
         style="stop-color:#448ee2;stop-opacity:1"
         offset="1"
         id="stop3973-3" />
    </linearGradient>
    <linearGradient
       y2="32.976402"
       x2="77.278381"
       y1="48.976402"
       x1="77.278381"
       gradientTransform="translate(-33.625,-31.894117)"
       gradientUnits="userSpaceOnUse"
       id="linearGradient4610"
       xlink:href="#linearGradient3841-4-6"
       inkscape:collect="always" />
    <linearGradient
       y2="32.976402"
       x2="77.278381"
       y1="48.976402"
       x1="77.278381"
       gradientTransform="translate(-33.625,-31.894117)"
       gradientUnits="userSpaceOnUse"
       id="linearGradient4159"
       xlink:href="#linearGradient3841-4-7"
       inkscape:collect="always" />
    <linearGradient
       id="linearGradient3841-4-7">
      <stop
         style="stop-color:#cad1d4;stop-opacity:1"
         offset="0"
         id="stop3843-9-7" />
      <stop
         style="stop-color:#dee3e4;stop-opacity:1"
         offset="1"
         id="stop3845-3-9" />
    </linearGradient>
    <linearGradient
       id="linearGradient3841-4-6-9">
      <stop
         style="stop-color:#316bb1;stop-opacity:1;"
         offset="0"
         id="stop3843-9-6-4" />
      <stop
         style="stop-color:#3279d2;stop-opacity:1;"
         offset="1"
         id="stop3845-3-4-9" />
    </linearGradient>
    <linearGradient
       inkscape:collect="always"
       xlink:href="#linearGradient3969-2-1"
       id="linearGradient3918-5-6"
       gradientUnits="userSpaceOnUse"
       x1="29.875"
       y1="64.082283"
       x2="29.875"
       y2="12.082283" />
    <linearGradient
       id="linearGradient3969-2-1">
      <stop
         style="stop-color:#2d6db3;stop-opacity:1"
         offset="0"
         id="stop3971-2-6" />
      <stop
         id="stop3977-6-6"
         offset="0.08245245"
         style="stop-color:#3681d4;stop-opacity:1" />
      <stop
         style="stop-color:#448ee2;stop-opacity:1"
         offset="1"
         id="stop3973-3-3" />
    </linearGradient>
    <linearGradient
       y2="32.976402"
       x2="77.278381"
       y1="48.976402"
       x1="77.278381"
       gradientTransform="translate(-33.625,-31.894117)"
       gradientUnits="userSpaceOnUse"
       id="linearGradient3123"
       xlink:href="#linearGradient3841-4-6-9"
       inkscape:collect="always" />
  </defs>
  <metadata
     id="metadata13099">
    <rdf:RDF>
      <cc:Work
         rdf:about="">
        <dc:format>image/svg+xml</dc:format>
        <dc:type
           rdf:resource="http://purl.org/dc/dcmitype/StillImage" />
        <dc:title />
      </cc:Work>
    </rdf:RDF>
  </metadata>
  <g
     id="g3043"
     inkscape:export-filename="folder.png"
     inkscape:export-xdpi="90"
     inkscape:export-ydpi="90"
     transform="translate(-0.62500009,0.08228278)" />
  <g
     id="g3045"
     inkscape:export-filename="folder.png"
     inkscape:export-xdpi="90"
     inkscape:export-ydpi="90"
     transform="translate(0.625,-0.082283)">
    <path
       style="fill:url(#linearGradient3123);fill-opacity:1;fill-rule:nonzero;stroke:none"
       d="m 2.375,6.082283 -10e-8,58.000001 57.0000001,-10e-7 4,-4 0,-59 -1,-1 -26,0 -5,4.9999999 -28,1e-7 z"
       id="path3833"
       inkscape:connector-curvature="0"
       sodipodi:nodetypes="cccccccccc" />
    <path
       style="color:#000000;fill:#6ac4ff;fill-opacity:0.67204303;fill-rule:nonzero;stroke:none;stroke-width:1;marker:none;visibility:visible;display:inline;overflow:visible;enable-background:accumulate"
       d="m 36.375,0.082283 -5,5 -28,0 -1,1 0,1 1,-1 28,0 5,-5 26,0 1,1 0,-1 -1,-1 -26,0 z"
       id="path3800"
       inkscape:connector-curvature="0" />
    <path
       sodipodi:nodetypes="cccccccc"
       id="path3802"
       d="m 57.375,13.082283 0,51 2,0 4,-4 0,-59 -1,-1 0,18 z"
       inkscape:connector-curvature="0"
       style="fill:#3e4959;fill-opacity:0.43171806" />
    <path
       sodipodi:nodetypes="ccccc"
       d="m 6.375,13.082283 51,0 0,31 -51,0 z"
       id="path3920"
       inkscape:connector-curvature="0"
       style="fill:#ccd5de;fill-opacity:1;fill-rule:nonzero" />
    <path
       inkscape:connector-curvature="0"
       id="path4253"
       d="m 6.375,13.082283 51,0 0,1 -51,0 z"
       style="fill:#ffffff;fill-opacity:1;fill-rule:nonzero"
       sodipodi:nodetypes="ccccc" />
    <path
       style="color:#000000;fill:#3e4959;fill-opacity:0.22968199;fill-rule:nonzero;stroke-width:1;stroke-linecap:butt;stroke-linejoin:miter;stroke-miterlimit:4;stroke-opacity:1;stroke-dasharray:none;stroke-dashoffset:0;marker:none;visibility:visible;display:inline;overflow:visible;enable-background:accumulate"
       d="m 29.375,13.082283 4,4 2,0 -4,-4 z"
       id="path3982"
       inkscape:connector-curvature="0"
       sodipodi:nodetypes="ccccc" />
    <path
       id="path3916"
       d="m -0.625,13.082283 0,50 1,1 59,0 1,-1 0,-45 -1,-1 -26,1e-6 -5,-5 -28,-10e-7 z"
       inkscape:connector-curvature="0"
       style="fill:url(#linearGradient3918-5-6);fill-opacity:1;fill-rule:nonzero"
       sodipodi:nodetypes="ccccccccccc"
       inkscape:export-xdpi="90"
       inkscape:export-ydpi="90" />
    <path
       style="color:#000000;fill:#6ac4ff;fill-opacity:0.67204303;fill-rule:nonzero;stroke:none;stroke-width:1;marker:none;visibility:visible;display:inline;overflow:visible;enable-background:accumulate"
       d="m 0.375,12.082283 -1,1 0,1 1,-1 28,0 5,5 26,0 1,1 0,-1 -1,-1 -26,0 -5,-5 -28,0 z"
       id="path3046"
       inkscape:connector-curvature="0" />
    <path
       sodipodi:nodetypes="ccccccccccccccccccccccccccccccccccccccccccccc"
       style="color:#000000;fill:#003f79;fill-opacity:0.39169694;fill-rule:nonzero;stroke:none;stroke-width:1;marker:none;visibility:visible;display:inline;overflow:visible;enable-background:accumulate"
       d="m 22.375,27.082283 0,8 8,0 0,-8 z m -16,2 0,4 4,0 0,-4 z m 8,0 0,6 6,0 0,-6 z m -8,8 0,6 6,0 0,-6 z m 8,0 0,6 6,0 0,-6 z m 8,0 0,6 6,0 0,-6 z m -18,8 0,8.000004 8,-4e-6 0,-8 z m 10,0 0,6 6,0 0,-6 z m 10,2 0,4 4,0 0,-4 z"
       id="path3070"
       inkscape:connector-curvature="0" />
    <path
       inkscape:connector-curvature="0"
       style="color:#000000;fill:#5eb8ff;fill-opacity:0.43682311;fill-rule:nonzero;stroke:none;stroke-width:1;marker:none;visibility:visible;display:inline;overflow:visible;enable-background:accumulate"
       d="m 30.375,28.082283 0,7 -7,0 0,1 8,0 0,-8 -1,0 z m -20,2 0,3 -3,0 0,1 4,0 0,-4 -1,0 z m 10,0 0,5 -5,0 0,1 6,0 0,-6 -1,0 z m -8,8 0,5 -5,0 0,1 6,0 0,-6 -1,0 z m 8,0 0,5 -5,0 0,1 6,0 0,-6 -1,0 z m 8,0 0,5 -5,0 0,1 6,0 0,-6 -1,0 z m -16,8 0,7 -7,0 0,1 8,0 0,-8 -1,0 z m 8,0 0,5 -5,0 0,1 6,0 0,-6 -1,0 z m 8,2 0,3 -3,0 0,1 4,0 0,-4 -1,0 z"
       id="path3868-2" />
    <path
       sodipodi:nodetypes="cccccc"
       inkscape:connector-curvature="0"
       id="path3954"
       d="m 36.375,0.08228319 26,-1.9e-7 1,1 0,5 -33,0 z"
       style="color:#000000;fill:url(#linearGradient4159);fill-opacity:1;fill-rule:nonzero;stroke:none;stroke-width:1;marker:none;visibility:visible;display:inline;overflow:visible;enable-background:accumulate" />
    <path
       inkscape:connector-curvature="0"
       style="color:#000000;fill:#3e4959;fill-opacity:0.43171806;fill-rule:nonzero;stroke:none;stroke-width:1;marker:none;visibility:visible;display:inline;overflow:visible;enable-background:accumulate"
       d="m 62.375,0.082283 0,6 1,0 0,-5 -1,-1 z"
       id="path3956" />
    <path
       inkscape:connector-curvature="0"
       style="color:#000000;fill:#ffffff;fill-opacity:1;fill-rule:nonzero;stroke:none;stroke-width:1;marker:none;visibility:visible;display:inline;overflow:visible;enable-background:accumulate"
       d="m 36.375,0.082283 -5,5 -1,1 1,0 5,-5 26,0 1,1 0,-1 -1,-1 -26,0 z"
       id="rect3875" />
    <path
       id="path4030"
       d="m 40.375,3.082283 0,1 1,0 0,-1 -1,0 z m 1,1 0,1 1,0 0,-1 -1,0 z m 1,0 1,0 0,-1 -1,0 0,1 z m 1,0 0,1 1,0 0,-1 -1,0 z m 1,0 1,0 0,-1 -1,0 0,1 z m 1,0 0,1 1,0 0,-1 -1,0 z m 1,0 1,0 0,-1 -1,0 0,1 z m 1,0 0,1 1,0 0,-1 -1,0 z m 1,0 1,0 0,-1 -1,0 0,1 z m 1,0 0,1 1,0 0,-1 -1,0 z m 1,0 1,0 0,-1 -1,0 0,1 z m 1,0 0,1 1,0 0,-1 -1,0 z m 1,0 1,0 0,-1 -1,0 0,1 z m 1,0 0,1 1,0 0,-1 -1,0 z m 1,0 1,0 0,-1 -1,0 0,1 z m 1,0 0,1 1,0 0,-1 -1,0 z m 1,0 1,0 0,-1 -1,0 0,1 z m -16,0 -1,0 0,1 1,0 0,-1 z"
       style="color:#000000;fill:#434a54;fill-opacity:0.6745098;fill-rule:nonzero;stroke:none;stroke-width:2;marker:none;visibility:visible;display:inline;overflow:visible;enable-background:accumulate"
       inkscape:connector-curvature="0" />
  </g>
</svg>
