<?xml version="1.0" encoding="UTF-8" standalone="no"?>
<!-- Created with Inkscape (http://www.inkscape.org/) -->

<svg
   xmlns:dc="http://purl.org/dc/elements/1.1/"
   xmlns:cc="http://creativecommons.org/ns#"
   xmlns:rdf="http://www.w3.org/1999/02/22-rdf-syntax-ns#"
   xmlns:svg="http://www.w3.org/2000/svg"
   xmlns="http://www.w3.org/2000/svg"
   xmlns:sodipodi="http://sodipodi.sourceforge.net/DTD/sodipodi-0.dtd"
   xmlns:inkscape="http://www.inkscape.org/namespaces/inkscape"
   version="1.1"
   width="22"
   height="22"
   id="svg13094"
   inkscape:version="0.48.3.1 r9886"
   sodipodi:docname="default-applications.svg"
   inkscape:export-filename="folder.png"
   inkscape:export-xdpi="90"
   inkscape:export-ydpi="90">
  <sodipodi:namedview
     pagecolor="#ffffff"
     bordercolor="#666666"
     borderopacity="1"
     objecttolerance="10"
     gridtolerance="10"
     guidetolerance="10"
     inkscape:pageopacity="0"
     inkscape:pageshadow="2"
     inkscape:window-width="1920"
     inkscape:window-height="1033"
     id="namedview6"
     showgrid="true"
     inkscape:snap-bbox="true"
     inkscape:bbox-paths="true"
     inkscape:bbox-nodes="true"
     inkscape:snap-bbox-edge-midpoints="true"
     inkscape:snap-bbox-midpoints="true"
     inkscape:object-paths="true"
     inkscape:snap-intersection-paths="true"
     inkscape:object-nodes="true"
     inkscape:snap-smooth-nodes="true"
     inkscape:snap-midpoints="true"
     inkscape:snap-object-midpoints="true"
     inkscape:snap-center="true"
     inkscape:zoom="20.85965"
     inkscape:cx="18.338484"
     inkscape:cy="12.623821"
     inkscape:window-x="-10"
     inkscape:window-y="25"
     inkscape:window-maximized="1"
     inkscape:current-layer="svg13094">
    <inkscape:grid
       type="xygrid"
       id="grid2983"
       empspacing="5"
       visible="true"
       enabled="true"
       snapvisiblegridlinesonly="true" />
  </sodipodi:namedview>
  <defs
     id="defs7" />
  <metadata
     id="metadata13099">
    <rdf:RDF>
      <cc:Work
         rdf:about="">
        <dc:format>image/svg+xml</dc:format>
        <dc:type
           rdf:resource="http://purl.org/dc/dcmitype/StillImage" />
        <dc:title />
      </cc:Work>
    </rdf:RDF>
  </metadata>
  <path
     transform="matrix(1.7658796,0,0,1.7658796,-0.34380845,2.2971943)"
     inkscape:transform-center-y="-0.90097669"
     d="M 6.4238855,-8.5783005e-4 C 6.5663756,-8.5783061e-4 7.8783453,3.1131328 7.9936222,3.1968863 8.1088991,3.2806399 11.475901,3.5661215 11.519933,3.7016377 11.563965,3.8371538 9.0078048,6.0471872 8.963773,6.1827033 8.9197411,6.3182194 9.6886928,9.6086474 9.5734159,9.692401 9.458139,9.7761546 6.5663754,8.0280397 6.4238854,8.0280397 c -0.1424901,0 -3.0342539,1.7481147 -3.1495309,1.6643611 C 3.1590776,9.6086472 3.9280296,6.3182195 3.8839977,6.1827033 3.8399659,6.0471872 1.2838058,3.8371535 1.3278377,3.7016374 1.3718696,3.5661213 4.7388716,3.2806399 4.8541485,3.1968864 4.9694254,3.1131328 6.2813954,-8.5782949e-4 6.4238855,-8.5783005e-4 z"
     inkscape:randomized="0"
     inkscape:rounded="0.04"
     inkscape:flatsided="false"
     sodipodi:arg2="-0.9424778"
     sodipodi:arg1="-1.5707963"
     sodipodi:r2="2.6705959"
     sodipodi:r1="5.3583016"
     sodipodi:cy="5.3574438"
     sodipodi:cx="6.4238853"
     sodipodi:sides="5"
     id="path2984"
     style="color:#000000;fill:#434a55;fill-opacity:0.6745119;fill-rule:nonzero;stroke:none;stroke-width:57.8928833;marker:none;visibility:visible;display:inline;overflow:visible;enable-background:accumulate"
     sodipodi:type="star" />
  <path
     style="font-size:medium;font-style:normal;font-variant:normal;font-weight:normal;font-stretch:normal;text-indent:0;text-align:start;text-decoration:none;line-height:normal;letter-spacing:normal;word-spacing:normal;text-transform:none;direction:ltr;block-progression:tb;writing-mode:lr-tb;text-anchor:start;baseline-shift:baseline;color:#000000;fill:#d1d4d6;fill-opacity:0.74329164000000003;fill-rule:nonzero;stroke:none;stroke-width:2;marker:none;visibility:visible;display:inline;overflow:visible;enable-background:accumulate;font-family:Sans;-inkscape-font-specification:Sans"
     d="M 11.03125 1.125 C 11.02925 1.125 10.716304 1.160054 10.625 1.1875 C 10.5337 1.214945 10.464031 1.2814785 10.40625 1.3125 C 10.29069 1.374543 10.239492 1.4227671 10.1875 1.46875 C 10.083517 1.5607156 10.073496 1.5697809 10.03125 1.625 C 9.9467596 1.7354384 9.8694501 1.871064 9.8125 1.96875 C 9.6985997 2.164122 9.6024898 2.3542212 9.46875 2.625 C 9.2012705 3.1665578 8.8506628 3.8628975 8.53125 4.5625 C 8.2118372 5.2621025 7.9010438 5.9743328 7.65625 6.5 C 7.575859 6.6726305 7.5610793 6.8115987 7.5 6.9375 C 7.3607625 6.9567978 7.2530652 6.976701 7.0625 7 C 6.4869152 7.0703726 5.7328155 7.1311594 4.96875 7.21875 C 4.2046844 7.3063407 3.4102077 7.4129625 2.8125 7.5 C 2.5136461 7.5435187 2.252257 7.5457977 2.03125 7.59375 C 1.9207465 7.6177262 1.8186422 7.6725219 1.6875 7.71875 C 1.621929 7.7418639 1.5570974 7.7420251 1.4375 7.8125 C 1.3777014 7.8477374 1.2822167 7.8780175 1.1875 7.96875 C 1.1401417 8.0141161 1.0855663 8.0778963 1.03125 8.15625 C 0.97693363 8.2346036 0.93810747 8.4668805 0.9375 8.46875 C 0.93689254 8.47062 0.8771123 8.7171842 0.875 8.8125 C 0.872888 8.907816 0.8633519 8.9667113 0.875 9.03125 C 0.8982962 9.1603271 0.9098339 9.2488435 0.9375 9.3125 C 0.9928322 9.4398128 1.054288 9.5365086 1.09375 9.59375 C 1.172674 9.7082326 1.2371936 9.7594005 1.3125 9.84375 C 1.4631127 10.012449 1.6588017 10.19538 1.875 10.40625 C 2.3073962 10.827988 2.8395925 11.386281 3.40625 11.90625 C 3.9729075 12.426218 4.5757063 12.885997 5 13.28125 C 5.1178594 13.391043 5.1900066 13.475344 5.28125 13.5625 C 5.256201 13.703768 5.256905 13.866749 5.21875 14.0625 C 5.1078129 14.63166 4.9340557 15.340013 4.78125 16.09375 C 4.6284444 16.847486 4.5081742 17.654651 4.40625 18.25 C 4.355288 18.547675 4.3039395 18.806242 4.28125 19.03125 C 4.269905 19.143754 4.27781 19.204741 4.28125 19.34375 C 4.28297 19.41325 4.251182 19.489478 4.28125 19.625 C 4.296284 19.69276 4.3492275 19.788131 4.40625 19.90625 C 4.434761 19.96531 4.4422656 20.049128 4.5 20.125 C 4.557734 20.20087 4.7796597 20.342596 4.78125 20.34375 C 4.78284 20.34495 4.972502 20.468537 5.0625 20.5 C 5.152498 20.53146 5.2162707 20.55364 5.28125 20.5625 C 5.4112086 20.58023 5.4934097 20.5691 5.5625 20.5625 C 5.7006802 20.54922 5.7771157 20.51984 5.84375 20.5 C 5.9770182 20.46032 6.052758 20.451808 6.15625 20.40625 C 6.363234 20.31514 6.6076424 20.140455 6.875 20 C 7.409715 19.719091 8.0803735 19.409494 8.75 19.03125 C 9.4196265 18.653006 10.117978 18.250137 10.625 17.96875 C 10.788087 17.87824 10.90931 17.815241 11.03125 17.75 C 11.153191 17.81524 11.243163 17.87824 11.40625 17.96875 C 11.913271 18.250137 12.549123 18.653006 13.21875 19.03125 C 13.888376 19.409494 14.559035 19.719091 15.09375 20 C 15.361108 20.140455 15.605516 20.31514 15.8125 20.40625 C 15.915992 20.45181 16.022982 20.460312 16.15625 20.5 C 16.22288 20.51984 16.299319 20.54922 16.4375 20.5625 C 16.50659 20.5691 16.588792 20.58023 16.71875 20.5625 C 16.78373 20.5536 16.847502 20.53146 16.9375 20.5 C 17.0275 20.46854 17.248409 20.344905 17.25 20.34375 C 17.2516 20.34255 17.411016 20.200871 17.46875 20.125 C 17.52648 20.04913 17.565243 19.965309 17.59375 19.90625 C 17.65077 19.788131 17.672462 19.692761 17.6875 19.625 C 17.71757 19.489478 17.74828 19.413255 17.75 19.34375 C 17.7534 19.204741 17.69884 19.143754 17.6875 19.03125 C 17.66481 18.806242 17.644708 18.547675 17.59375 18.25 C 17.491825 17.654651 17.371555 16.847486 17.21875 16.09375 C 17.065944 15.340013 16.860937 14.63166 16.75 14.0625 C 16.71601 13.888133 16.74256 13.757231 16.71875 13.625 C 16.820415 13.52717 16.889819 13.413001 17.03125 13.28125 C 17.455543 12.885997 18.027091 12.426218 18.59375 11.90625 C 19.160408 11.386281 19.692603 10.827988 20.125 10.40625 C 20.341199 10.19538 20.536888 10.012449 20.6875 9.84375 C 20.76281 9.7594 20.827326 9.7082326 20.90625 9.59375 C 20.94571 9.536509 21.007168 9.4398128 21.0625 9.3125 C 21.09017 9.248843 21.10171 9.1603271 21.125 9.03125 C 21.13665 8.966711 21.1271 8.9078158 21.125 8.8125 C 21.1229 8.717184 21.0631 8.4706195 21.0625 8.46875 C 21.061892 8.46688 21.023068 8.2346036 20.96875 8.15625 C 20.91443 8.0778963 20.828609 8.0141161 20.78125 7.96875 C 20.686534 7.8780175 20.622298 7.8477374 20.5625 7.8125 C 20.442902 7.7420251 20.346821 7.7418639 20.28125 7.71875 C 20.150109 7.6725219 20.079253 7.6177262 19.96875 7.59375 C 19.747743 7.5457975 19.486354 7.5435187 19.1875 7.5 C 18.589792 7.4129625 17.795316 7.3063407 17.03125 7.21875 C 16.267184 7.1311594 15.513085 7.0703728 14.9375 7 C 14.746935 6.976701 14.639237 6.9567978 14.5 6.9375 C 14.438921 6.8115987 14.424141 6.6726305 14.34375 6.5 C 14.098956 5.9743328 13.756913 5.2621025 13.4375 4.5625 C 13.118087 3.8628975 12.829979 3.1665578 12.5625 2.625 C 12.42876 2.3542212 12.3014 2.164122 12.1875 1.96875 C 12.13055 1.871064 12.053241 1.7354384 11.96875 1.625 C 11.926505 1.5697809 11.885233 1.5607159 11.78125 1.46875 C 11.729258 1.4227671 11.678061 1.3745431 11.5625 1.3125 C 11.50472 1.281478 11.435053 1.2149455 11.34375 1.1875 C 11.25245 1.160055 11.033216 1.125 11.03125 1.125 z M 11 2.28125 C 11.25162 2.28125 13.577685 7.7896013 13.78125 7.9375 C 13.984815 8.0853987 19.922245 8.6044448 20 8.84375 C 20.077755 9.0830552 15.577755 12.979445 15.5 13.21875 C 15.422245 13.458055 16.766065 19.258351 16.5625 19.40625 C 16.358935 19.554149 11.25162 16.46875 11 16.46875 C 10.74838 16.46875 5.6410651 19.554149 5.4375 19.40625 C 5.2339349 19.258351 6.577755 13.458055 6.5 13.21875 C 6.422245 12.979445 1.922245 9.0830552 2 8.84375 C 2.077755 8.6044448 8.0151849 8.0853987 8.21875 7.9375 C 8.4223151 7.7896013 10.74838 2.28125 11 2.28125 z "
     id="path2983" />
</svg>
