<?xml version="1.0" encoding="UTF-8" standalone="no"?>
<!-- Created with Inkscape (http://www.inkscape.org/) -->

<svg
   xmlns:dc="http://purl.org/dc/elements/1.1/"
   xmlns:cc="http://creativecommons.org/ns#"
   xmlns:rdf="http://www.w3.org/1999/02/22-rdf-syntax-ns#"
   xmlns:svg="http://www.w3.org/2000/svg"
   xmlns="http://www.w3.org/2000/svg"
   xmlns:sodipodi="http://sodipodi.sourceforge.net/DTD/sodipodi-0.dtd"
   xmlns:inkscape="http://www.inkscape.org/namespaces/inkscape"
   width="22"
   height="22"
   id="svg13094"
   version="1.1"
   inkscape:version="0.48.3.1 r9886"
   sodipodi:docname="im-msn.svg">
  <sodipodi:namedview
     id="base"
     pagecolor="#ffffff"
     bordercolor="#666666"
     borderopacity="1.0"
     inkscape:pageopacity="0.0"
     inkscape:pageshadow="2"
     inkscape:zoom="22.627417"
     inkscape:cx="5.5993854"
     inkscape:cy="11.628931"
     inkscape:document-units="px"
     inkscape:current-layer="layer1"
     showgrid="true"
     inkscape:snap-bbox="true"
     inkscape:bbox-paths="true"
     inkscape:bbox-nodes="true"
     inkscape:snap-bbox-edge-midpoints="true"
     inkscape:snap-bbox-midpoints="true"
     inkscape:object-paths="true"
     inkscape:snap-intersection-paths="true"
     inkscape:object-nodes="true"
     inkscape:snap-smooth-nodes="true"
     inkscape:snap-midpoints="true"
     inkscape:snap-object-midpoints="true"
     inkscape:snap-center="true"
     showguides="false"
     inkscape:guide-bbox="true"
     inkscape:window-width="1920"
     inkscape:window-height="1033"
     inkscape:window-x="-10"
     inkscape:window-y="25"
     inkscape:window-maximized="1"
     inkscape:snap-global="true"
     fit-margin-top="0"
     fit-margin-left="0"
     fit-margin-right="0"
     fit-margin-bottom="0"
     showborder="true"
     inkscape:showpageshadow="false">
    <sodipodi:guide
       orientation="0,1"
       position="-20.000165,933.61275"
       id="guide4700" />
    <sodipodi:guide
       orientation="0,1"
       position="581.7187,331.89377"
       id="guide4702" />
    <sodipodi:guide
       orientation="1,0"
       position="581.71882,492.70384"
       id="guide4706" />
    <sodipodi:guide
       orientation="1,0"
       position="59.999836,933.61275"
       id="guide4708" />
    <sodipodi:guide
       orientation="0,1"
       position="-20.000165,853.61285"
       id="guide4710" />
    <sodipodi:guide
       orientation="0,1"
       position="541.7187,411.89369"
       id="guide4712" />
    <sodipodi:guide
       orientation="1,0"
       position="501.7187,411.89369"
       id="guide4714" />
    <inkscape:grid
       type="xygrid"
       id="grid3216"
       empspacing="5"
       visible="true"
       enabled="true"
       snapvisiblegridlinesonly="true"
       originx="-20.000111px"
       originy="-216.00016px" />
    <sodipodi:guide
       orientation="-0.70710664,0.70710692"
       position="8.9998902,-243.00016"
       id="guide3847" />
    <sodipodi:guide
       orientation="0.70710594,0.70710762"
       position="9.9998902,-242.00016"
       id="guide3849" />
    <sodipodi:guide
       orientation="-0.70710681,0.70710676"
       position="11.99989,-209.00016"
       id="guide3851" />
  </sodipodi:namedview>
  <defs
     id="defs13096" />
  <metadata
     id="metadata13099">
    <rdf:RDF>
      <cc:Work
         rdf:about="">
        <dc:format>image/svg+xml</dc:format>
        <dc:type
           rdf:resource="http://purl.org/dc/dcmitype/StillImage" />
        <dc:title />
      </cc:Work>
    </rdf:RDF>
  </metadata>
  <g
     transform="translate(9384.3076,-4840.1987)"
     id="layer1"
     inkscape:groupmode="layer"
     inkscape:label="Camada 1">
    <path
       inkscape:connector-curvature="0"
       style="fill:#434a55;fill-opacity:0.6745098;stroke:none"
       d="m -9382.2763,4843.1989 c 0,6.8569 2.2169,12.5458 5.6043,15.9996 1.4083,-0.8291 2.754,-2.3278 3.3975,-3.4643 0.6435,1.1365 1.9542,2.6352 3.3625,3.4643 3.3874,-3.4538 5.6043,-9.1427 5.6043,-15.9996 -3.3626,0 -6.2065,1.6027 -7.8809,5.7141 0.03,-1.1311 -0.5793,-2.2856 -1.0859,-2.2856 -0.5065,0 -1.1511,1.1545 -1.1209,2.2856 -1.6744,-4.1114 -4.5183,-5.7141 -7.8809,-5.7141 z"
       id="path2994" />
    <path
       style="font-size:medium;font-style:normal;font-variant:normal;font-weight:normal;font-stretch:normal;text-indent:0;text-align:start;text-decoration:none;line-height:normal;letter-spacing:normal;word-spacing:normal;text-transform:none;direction:ltr;block-progression:tb;writing-mode:lr-tb;text-anchor:start;baseline-shift:baseline;color:#000000;fill:#d1d4d6;fill-opacity:0.74329164000000003;fill-rule:nonzero;stroke:none;stroke-width:2;marker:none;visibility:visible;display:inline;overflow:visible;enable-background:accumulate;font-family:Sans;-inkscape-font-specification:Sans"
       d="M 1 2 L 1 6.25 C 1.5809861 11.933952 3.6885687 16.690487 6.78125 19.84375 L 7.4375 20.53125 L 8.25 20.03125 C 9.3627 19.37615 10.26475 18.47335 11.03125 17.53125 C 11.78465 18.46945 12.66685 19.37515 13.78125 20.03125 L 14.59375 20.53125 L 15.25 19.84375 C 18.273955 16.76056 20.35869 12.142068 21 6.625 L 21 2 L 18.1875 2 C 15.920588 2.4401874 13.871045 3.7141733 12.34375 5.90625 C 12.31075 5.87025 12.31625 5.81625 12.28125 5.78125 C 12.02005 5.52415 11.61365 5.25 11.03125 5.25 C 10.44875 5.25 10.0757 5.52855 9.8125 5.78125 C 9.7615 5.83025 9.7325 5.8866 9.6875 5.9375 C 8.1598091 3.733848 6.1123329 2.4450208 3.84375 2 L 1 2 z M 2.03125 3 C 5.39385 3 8.23185 4.60735 9.90625 8.71875 C 9.87605 7.58765 10.52475 6.4375 11.03125 6.4375 C 11.53785 6.4375 12.155 7.58765 12.125 8.71875 C 13.7994 4.60735 16.6374 3 20 3 C 20 9.8569 17.79365 15.5462 14.40625 19 C 12.99795 18.1709 11.67475 16.66775 11.03125 15.53125 C 10.38775 16.66775 9.0333 18.1709 7.625 19 C 4.2376 15.5462 2.03125 9.8569 2.03125 3 z "
       transform="translate(-9384.3076,4840.1987)"
       id="path3012" />
  </g>
</svg>
