<?xml version="1.0" encoding="UTF-8" standalone="no"?>
<!-- Created with Inkscape (http://www.inkscape.org/) -->

<svg
   xmlns:dc="http://purl.org/dc/elements/1.1/"
   xmlns:cc="http://creativecommons.org/ns#"
   xmlns:rdf="http://www.w3.org/1999/02/22-rdf-syntax-ns#"
   xmlns:svg="http://www.w3.org/2000/svg"
   xmlns="http://www.w3.org/2000/svg"
   xmlns:sodipodi="http://sodipodi.sourceforge.net/DTD/sodipodi-0.dtd"
   xmlns:inkscape="http://www.inkscape.org/namespaces/inkscape"
   id="svg13094"
   height="24"
   width="24"
   version="1.1"
   inkscape:version="0.48.3.1 r9886"
   sodipodi:docname="copy-error.svg">
  <defs
     id="defs7" />
  <sodipodi:namedview
     pagecolor="#ffffff"
     bordercolor="#666666"
     borderopacity="1"
     objecttolerance="10"
     gridtolerance="10"
     guidetolerance="10"
     inkscape:pageopacity="0"
     inkscape:pageshadow="2"
     inkscape:window-width="640"
     inkscape:window-height="480"
     id="namedview5"
     showgrid="false"
     inkscape:zoom="9.8333333"
     inkscape:cx="12"
     inkscape:cy="12"
     inkscape:window-x="0"
     inkscape:window-y="36"
     inkscape:window-maximized="0"
     inkscape:current-layer="svg13094" />
  <metadata
     id="metadata13099">
    <rdf:RDF>
      <cc:Work
         rdf:about="">
        <dc:format>image/svg+xml</dc:format>
        <dc:type
           rdf:resource="http://purl.org/dc/dcmitype/StillImage" />
        <dc:title />
      </cc:Work>
    </rdf:RDF>
  </metadata>
  <path
     d="m 19.75,3.0625 -4.96875,7.40625 2.4375,1.0625 L 19.75,3.0625 z M 5.84375,7.96875 2.5,11.34375 2.6875,11.6875 6.125,10.65625 l 2.21875,9.6875 3.0625,-2.09375 9.625,1.78125 V 19.5 L 18,13 16,12.21875 10.1875,16.375 10.15625,16.3125 6.96875,8 5.84375,7.96875 z m 7.21875,2.9375 -3.46875,1.1875 1.21875,2.4375 L 14.875,11.75 13.0625,10.90625 z"
     style="color:#000000;fill:#c17564;fill-opacity:1;fill-rule:nonzero;enable-background:accumulate;stroke:none;stroke-width:2.28571415000000000;marker:none;visibility:visible;display:inline;overflow:visible"
     id="path2984"
     inkscape:connector-curvature="0" />
  <path
     style="color:#000000;fill:#404957;fill-opacity:0.230837;fill-rule:nonzero;stroke:none;stroke-width:1;marker:none;visibility:visible;display:inline;overflow:visible;enable-background:accumulate"
     d="m 19.75,3.0625 -4.96875,7.40625 1.28125,0.5625 2.34375,-3.46875 1.34375,-4.5 z M 5.84375,7.96875 2.5,11.34375 l 0.1875,0.34375 2.09375,-0.625 2.0625,-2.09375 0.5,0 L 6.96875,8 5.84375,7.96875 z m 7.21875,2.9375 -3.46875,1.1875 1.21875,2.4375 0.375,-0.25 -0.59375,-1.1875 3.46875,-1.1875 0.34375,0.15625 L 14.875,11.75 13.0625,10.90625 z M 7.125,11.65625 6.40625,11.875 8.34375,20.34375 9,19.875 7.125,11.65625 z m 8.875,0.5625 -0.5,0.34375 0.375,0.1875 -4.0625,2.78125 -0.125,-0.25 -1.03125,0.75 0.5,1.28125 L 11.1875,17.375 17,13.21875 18.34375,13.75 18,13 16,12.21875 z"
     id="path2995"
     inkscape:connector-curvature="0" />
</svg>
