<?xml version="1.0" encoding="UTF-8" standalone="no"?>
<!-- Created with Inkscape (http://www.inkscape.org/) -->

<svg
   xmlns:dc="http://purl.org/dc/elements/1.1/"
   xmlns:cc="http://creativecommons.org/ns#"
   xmlns:rdf="http://www.w3.org/1999/02/22-rdf-syntax-ns#"
   xmlns:svg="http://www.w3.org/2000/svg"
   xmlns="http://www.w3.org/2000/svg"
   xmlns:xlink="http://www.w3.org/1999/xlink"
   xmlns:sodipodi="http://sodipodi.sourceforge.net/DTD/sodipodi-0.dtd"
   xmlns:inkscape="http://www.inkscape.org/namespaces/inkscape"
   version="1.1"
   width="64"
   height="64"
   id="svg13094"
   inkscape:version="0.48.3.1 r9886"
   sodipodi:docname="cdr.svg">
  <sodipodi:namedview
     pagecolor="#ffffff"
     bordercolor="#666666"
     borderopacity="1"
     objecttolerance="10"
     gridtolerance="10"
     guidetolerance="10"
     inkscape:pageopacity="0"
     inkscape:pageshadow="2"
     inkscape:window-width="1920"
     inkscape:window-height="1033"
     id="namedview49"
     showgrid="false"
     inkscape:zoom="10.429825"
     inkscape:cx="34.895832"
     inkscape:cy="28.860323"
     inkscape:window-x="-10"
     inkscape:window-y="25"
     inkscape:window-maximized="1"
     inkscape:current-layer="svg13094" />
  <defs
     id="defs11">
    <radialGradient
       cx="60.561817"
       cy="21.045019"
       r="2"
       fx="59.603962"
       fy="21.240686"
       id="radialGradient3811-3"
       xlink:href="#radialGradient3996"
       gradientUnits="userSpaceOnUse"
       gradientTransform="matrix(0,19.318815,-3.4300596,0,132.74749,-1136.9636)" />
    <radialGradient
       cx="48.30785"
       cy="47.141338"
       r="14.16129"
       id="radialGradient3996"
       gradientUnits="userSpaceOnUse"
       gradientTransform="matrix(0.93962333,0.77477937,-1.7975241,2.1799696,88.130548,-93.365748)">
      <stop
         id="stop3954"
         style="stop-color:#000000;stop-opacity:0.22264875"
         offset="0" />
      <stop
         id="stop3958"
         style="stop-color:#000000;stop-opacity:0.0678183"
         offset="0.5" />
      <stop
         id="stop3956"
         style="stop-color:#000000;stop-opacity:0.02431222"
         offset="1" />
    </radialGradient>
    <linearGradient
       x1="45"
       y1="52"
       x2="73"
       y2="4"
       id="linearGradient4308"
       gradientUnits="userSpaceOnUse">
      <stop
         id="stop4304"
         style="stop-color:#000000;stop-opacity:0.10677083"
         offset="0" />
      <stop
         id="stop4306"
         style="stop-color:#000000;stop-opacity:0"
         offset="1" />
    </linearGradient>
    <linearGradient
       x1="48.917568"
       y1="46.213669"
       x2="32.669781"
       y2="24"
       id="linearGradient4259"
       gradientUnits="userSpaceOnUse">
      <stop
         id="stop3988"
         style="stop-color:#ffffff;stop-opacity:0.52975047"
         offset="0" />
      <stop
         id="stop3990"
         style="stop-color:#ffffff;stop-opacity:0"
         offset="1" />
    </linearGradient>
    <linearGradient
       x1="31"
       y1="64"
       x2="31"
       y2="2"
       id="linearGradient3984"
       gradientUnits="userSpaceOnUse">
      <stop
         id="stop3099"
         style="stop-color:#829d6b;stop-opacity:1;"
         offset="0" />
      <stop
         id="stop3875"
         style="stop-color:#89a274;stop-opacity:1;"
         offset="0.5" />
      <stop
         id="stop3873"
         style="stop-color:#769060;stop-opacity:1;"
         offset="0.51612902" />
      <stop
         id="stop3101"
         style="stop-color:#849f6e;stop-opacity:1;"
         offset="1" />
    </linearGradient>
    <linearGradient
       x1="48.992088"
       y1="46.124821"
       x2="37"
       y2="36"
       id="linearGradient4280"
       gradientUnits="userSpaceOnUse">
      <stop
         id="stop4293"
         style="stop-color:#70865f;stop-opacity:1;"
         offset="0" />
      <stop
         id="stop4295"
         style="stop-color:#5e704f;stop-opacity:1;"
         offset="0.2098622" />
      <stop
         id="stop4297"
         style="stop-color:#6d825c;stop-opacity:1;"
         offset="1" />
    </linearGradient>
    <radialGradient
       cx="48.30785"
       cy="47.141338"
       r="14.16129"
       id="radialGradient3220"
       xlink:href="#radialGradient3996"
       gradientUnits="userSpaceOnUse"
       gradientTransform="matrix(0.93962333,0.77477937,-1.7975241,2.1799696,88.130548,-93.365748)" />
    <linearGradient
       x1="31"
       y1="64"
       x2="31"
       y2="2"
       id="linearGradient3984-6"
       gradientUnits="userSpaceOnUse">
      <stop
         id="stop3099-1"
         style="stop-color:#e3e3e3;stop-opacity:1;"
         offset="0" />
      <stop
         id="stop3875-2"
         style="stop-color:#ededed;stop-opacity:1;"
         offset="0.5" />
      <stop
         id="stop3873-5"
         style="stop-color:#e4e4e4;stop-opacity:1;"
         offset="0.51612902" />
      <stop
         id="stop3101-0"
         style="stop-color:#e9e9e9;stop-opacity:1;"
         offset="1" />
    </linearGradient>
    <linearGradient
       inkscape:collect="always"
       xlink:href="#linearGradient3984-6"
       id="linearGradient3814"
       x1="-2886.7539"
       y1="632.01532"
       x2="-2886.7539"
       y2="100.56434"
       gradientUnits="userSpaceOnUse" />
    <linearGradient
       inkscape:collect="always"
       xlink:href="#linearGradient3918-7-6"
       id="linearGradient4549-8-1-8"
       gradientUnits="userSpaceOnUse"
       gradientTransform="translate(-3117.6016,-1600.2279)"
       x1="3113.439"
       y1="1664.3622"
       x2="3113.439"
       y2="1602.3622" />
    <linearGradient
       x1="31"
       y1="64"
       x2="31"
       y2="2"
       id="linearGradient3918-7-6"
       gradientUnits="userSpaceOnUse">
      <stop
         id="stop3920-3-1"
         style="stop-color:#d4d4d4;stop-opacity:1"
         offset="0" />
      <stop
         id="stop3922-9-0"
         style="stop-color:#e4e4e4;stop-opacity:1"
         offset="0.50050378" />
      <stop
         id="stop3924-8-2"
         style="stop-color:#d4d4d4;stop-opacity:1"
         offset="0.51612902" />
      <stop
         id="stop3926-0-8"
         style="stop-color:#e4e4e4;stop-opacity:1"
         offset="1" />
    </linearGradient>
    <linearGradient
       inkscape:collect="always"
       xlink:href="#linearGradient3918-5"
       id="linearGradient4549-8-1"
       gradientUnits="userSpaceOnUse"
       gradientTransform="translate(-3117.6016,-1600.2279)"
       x1="3113.439"
       y1="1664.3622"
       x2="3113.439"
       y2="1602.3622" />
    <linearGradient
       x1="31"
       y1="64"
       x2="31"
       y2="2"
       id="linearGradient3918-5"
       gradientUnits="userSpaceOnUse">
      <stop
         id="stop3920-82"
         style="stop-color:#d4d4d4;stop-opacity:1"
         offset="0" />
      <stop
         id="stop3922-01"
         style="stop-color:#e4e4e4;stop-opacity:1"
         offset="0.50050378" />
      <stop
         id="stop3924-5"
         style="stop-color:#d4d4d4;stop-opacity:1"
         offset="0.51612902" />
      <stop
         id="stop3926-5"
         style="stop-color:#e4e4e4;stop-opacity:1"
         offset="1" />
    </linearGradient>
    <linearGradient
       inkscape:collect="always"
       xlink:href="#linearGradient5488-4"
       id="linearGradient5047-0"
       gradientUnits="userSpaceOnUse"
       gradientTransform="translate(-7995.1009,400.06331)"
       x1="8049.2173"
       y1="-335.92902"
       x2="8049.2173"
       y2="-397.92902" />
    <linearGradient
       id="linearGradient5488-4">
      <stop
         id="stop5490-6"
         style="stop-color:#a3c288;stop-opacity:1;"
         offset="0" />
      <stop
         id="stop5492-4"
         style="stop-color:#b5ce9f;stop-opacity:1;"
         offset="0.50050378" />
      <stop
         id="stop5494-5"
         style="stop-color:#a3c288;stop-opacity:1;"
         offset="0.51600277" />
      <stop
         id="stop5496-2"
         style="stop-color:#b5ce9f;stop-opacity:1;"
         offset="1" />
    </linearGradient>
  </defs>
  <metadata
     id="metadata13099">
    <rdf:RDF>
      <cc:Work
         rdf:about="">
        <dc:format>image/svg+xml</dc:format>
        <dc:type
           rdf:resource="http://purl.org/dc/dcmitype/StillImage" />
        <dc:title />
      </cc:Work>
    </rdf:RDF>
  </metadata>
  <path
     d="M 4,0 64,0 64,62 4,62 z"
     id="path3960"
     style="fill:#596a4b;fill-opacity:1;fill-rule:nonzero" />
  <path
     d="m 60,2 4,4 0,31 -4,-4 z"
     id="path3900"
     style="fill:url(#radialGradient3811-3);fill-rule:nonzero" />
  <path
     d="M 63,0 V 61 H 4 v 1 h 59 1 V 61 0 h -1 z"
     id="path4299"
     style="fill:#000000;fill-opacity:0.0715548;fill-rule:nonzero" />
  <path
     d="M 60,2 60,33 35,62 37,62 60.78125,33.65625 61,33.375 61,33 61,3 z"
     id="path3922"
     style="fill:url(#linearGradient4308);fill-rule:nonzero" />
  <path
     d="M 0,2 60,2 60,33 34,64 0,64 z"
     id="path4257"
     style="fill:url(#linearGradient4259);fill-rule:nonzero" />
  <path
     d="M 0,2 60,2 60,33 34,64 0,64 z"
     id="path3982"
     style="fill:url(#linearGradient3984);fill-rule:nonzero" />
  <path
     d="M 0,2 60,2 60,3 0,3 z"
     id="path4253"
     style="fill:#aacc83;fill-opacity:1;fill-rule:nonzero" />
  <path
     d="m 0,63 35,0 -1,1 -34,0 z"
     id="path4255"
     style="fill:#000000;fill-opacity:0.15547707;fill-rule:nonzero" />
  <path
     d="M 4,0 64,0 64,1 4,1 z"
     id="path3878"
     style="fill:#aacc83;fill-opacity:1;fill-rule:nonzero" />
  <g
     id="g3079">
    <path
       d="m 0,2 0,3 0,1 0,4 0,1 0,4 0,1 0,4 0,1 0,4 0,1 0,4 0,1 0,4 0,1 0,4 0,1 0,4 0,1 0,4 0,1 0,4 0,1 0,4 0,1 0,3 1,0 0,-3 4,0 0,3 1,0 0,-3 4,0 0,3 1,0 0,-3 4,0 0,3 1,0 0,-3 4,0 0,3 1,0 0,-3 4,0 0,3 1,0 0,-3 4,0 0,3 1,0 0,-3 4,0 0,1.8125 1,-1.1875 0,-0.625 0.53125,0 0.8125,-1 L 36,60 l 0,-4 4,0 0,0.84375 L 41.5625,55 41,55 41,51 44.90625,51 46,49.6875 46,46 49.09375,46 49.9375,45 46,45 l 0,-4 4,0 0,3.9375 1,-1.21875 L 51,41 53.28125,41 54.125,40 51,40 l 0,-4 4,0 0,2.96875 1,-1.1875 L 56,36 57.46875,36 58.3125,35 56,35 l 0,-4 4,0 0,-1 -4,0 0,-4 4,0 0,-1 -4,0 0,-4 4,0 0,-1 -4,0 0,-4 4,0 0,-1 -4,0 0,-4 4,0 0,-1 -4,0 0,-4 4,0 0,-1 -4,0 0,-3 -1,0 0,3 -4,0 0,-3 -1,0 0,3 -4,0 0,-3 -1,0 0,3 -4,0 0,-3 -1,0 0,3 -4,0 0,-3 -1,0 0,3 -4,0 0,-3 -1,0 0,3 -4,0 0,-3 -1,0 0,3 -4,0 0,-3 -1,0 0,3 -4,0 0,-3 -1,0 0,3 -4,0 0,-3 -1,0 0,3 L 6,5 6,2 5,2 5,5 1,5 1,2 0,2 z m 1,4 4,0 0,4 -4,0 0,-4 z m 5,0 4,0 0,4 -4,0 0,-4 z m 5,0 4,0 0,4 -4,0 0,-4 z m 5,0 4,0 0,4 -4,0 0,-4 z m 5,0 4,0 0,4 -4,0 0,-4 z m 5,0 4,0 0,4 -4,0 0,-4 z m 5,0 4,0 0,4 -4,0 0,-4 z m 5,0 4,0 0,4 -4,0 0,-4 z m 5,0 4,0 0,4 -4,0 0,-4 z m 5,0 4,0 0,4 -4,0 0,-4 z m 5,0 4,0 0,4 -4,0 0,-4 z m -50,5 4,0 0,4 -4,0 0,-4 z m 5,0 4,0 0,4 -4,0 0,-4 z m 5,0 4,0 0,4 -4,0 0,-4 z m 5,0 4,0 0,4 -4,0 0,-4 z m 5,0 4,0 0,4 -4,0 0,-4 z m 5,0 4,0 0,4 -4,0 0,-4 z m 5,0 4,0 0,4 -4,0 0,-4 z m 5,0 4,0 0,4 -4,0 0,-4 z m 5,0 4,0 0,4 -4,0 0,-4 z m 5,0 4,0 0,4 -4,0 0,-4 z m 5,0 4,0 0,4 -4,0 0,-4 z m -50,5 4,0 0,4 -4,0 0,-4 z m 5,0 4,0 0,4 -4,0 0,-4 z m 5,0 4,0 0,4 -4,0 0,-4 z m 5,0 4,0 0,4 -4,0 0,-4 z m 5,0 4,0 0,4 -4,0 0,-4 z m 5,0 4,0 0,4 -4,0 0,-4 z m 5,0 4,0 0,4 -4,0 0,-4 z m 5,0 4,0 0,4 -4,0 0,-4 z m 5,0 4,0 0,4 -4,0 0,-4 z m 5,0 4,0 0,4 -4,0 0,-4 z m 5,0 4,0 0,4 -4,0 0,-4 z m -50,5 4,0 0,4 -4,0 0,-4 z m 5,0 4,0 0,4 -4,0 0,-4 z m 5,0 4,0 0,4 -4,0 0,-4 z m 5,0 4,0 0,4 -4,0 0,-4 z m 5,0 4,0 0,4 -4,0 0,-4 z m 5,0 4,0 0,4 -4,0 0,-4 z m 5,0 4,0 0,4 -4,0 0,-4 z m 5,0 4,0 0,4 -4,0 0,-4 z m 5,0 4,0 0,4 -4,0 0,-4 z m 5,0 4,0 0,4 -4,0 0,-4 z m 5,0 4,0 0,4 -4,0 0,-4 z m -50,5 4,0 0,4 -4,0 0,-4 z m 5,0 4,0 0,4 -4,0 0,-4 z m 5,0 4,0 0,4 -4,0 0,-4 z m 5,0 4,0 0,4 -4,0 0,-4 z m 5,0 4,0 0,4 -4,0 0,-4 z m 5,0 4,0 0,4 -4,0 0,-4 z m 5,0 4,0 0,4 -4,0 0,-4 z m 5,0 4,0 0,4 -4,0 0,-4 z m 5,0 4,0 0,4 -4,0 0,-4 z m 5,0 4,0 0,4 -4,0 0,-4 z m 5,0 4,0 0,4 -4,0 0,-4 z m -50,5 4,0 0,4 -4,0 0,-4 z m 5,0 4,0 0,4 -4,0 0,-4 z m 5,0 4,0 0,4 -4,0 0,-4 z m 5,0 4,0 0,4 -4,0 0,-4 z m 5,0 4,0 0,4 -4,0 0,-4 z m 5,0 4,0 0,4 -4,0 0,-4 z m 5,0 4,0 0,4 -4,0 0,-4 z m 5,0 4,0 0,4 -4,0 0,-4 z m 5,0 4,0 0,4 -4,0 0,-4 z m 5,0 4,0 0,4 -4,0 0,-4 z m 5,0 4,0 0,4 -4,0 0,-4 z m -50,5 4,0 0,4 -4,0 0,-4 z m 5,0 4,0 0,4 -4,0 0,-4 z m 5,0 4,0 0,4 -4,0 0,-4 z m 5,0 4,0 0,4 -4,0 0,-4 z m 5,0 4,0 0,4 -4,0 0,-4 z m 5,0 4,0 0,4 -4,0 0,-4 z m 5,0 4,0 0,4 -4,0 0,-4 z m 5,0 4,0 0,4 -4,0 0,-4 z m 5,0 4,0 0,4 -4,0 0,-4 z m 5,0 4,0 0,4 -4,0 0,-4 z m -45,5 4,0 0,4 -4,0 0,-4 z m 5,0 4,0 0,4 -4,0 0,-4 z m 5,0 4,0 0,4 -4,0 0,-4 z m 5,0 4,0 0,4 -4,0 0,-4 z m 5,0 4,0 0,4 -4,0 0,-4 z m 5,0 4,0 0,4 -4,0 0,-4 z m 5,0 4,0 0,4 -4,0 0,-4 z m 5,0 4,0 0,4 -4,0 0,-4 z m 5,0 4,0 0,4 -4,0 0,-4 z m -40,5 4,0 0,4 -4,0 0,-4 z m 5,0 4,0 0,4 -4,0 0,-4 z m 5,0 4,0 0,4 -4,0 0,-4 z m 5,0 4,0 0,4 -4,0 0,-4 z m 5,0 4,0 0,4 -4,0 0,-4 z m 5,0 4,0 0,4 -4,0 0,-4 z m 5,0 4,0 0,4 -4,0 0,-4 z m 5,0 4,0 0,4 -4,0 0,-4 z m 5,0 4,0 0,4 -4,0 0,-4 z m -40,5 4,0 0,4 -4,0 0,-4 z m 5,0 4,0 0,4 -4,0 0,-4 z m 5,0 4,0 0,4 -4,0 0,-4 z m 5,0 4,0 0,4 -4,0 0,-4 z m 5,0 4,0 0,4 -4,0 0,-4 z m 5,0 4,0 0,4 -4,0 0,-4 z m 5,0 4,0 0,4 -4,0 0,-4 z m 5,0 4,0 0,4 -4,0 0,-4 z m -35,5 4,0 0,4 -4,0 0,-4 z m 5,0 4,0 0,4 -4,0 0,-4 z m 5,0 4,0 0,4 -4,0 0,-4 z m 5,0 4,0 0,4 -4,0 0,-4 z m 5,0 4,0 0,4 -4,0 0,-4 z m 5,0 4,0 0,4 -4,0 0,-4 z m 5,0 4,0 0,4 -4,0 0,-4 z"
       id="path3948"
       style="fill:#ffffff;fill-opacity:0.04151943;fill-rule:nonzero" />
  </g>
  <path
     inkscape:connector-curvature="0"
     style="color:#000000;fill:url(#linearGradient5047-0);fill-opacity:1;fill-rule:nonzero;stroke:none;stroke-width:1;marker:none;visibility:visible;display:inline;overflow:visible;enable-background:accumulate"
     inkscape:transform-center-x="2.1194157"
     inkscape:transform-center-y="-2.3616347"
     d="m 18.67581,15.559336 c -0.01049,1.472093 -0.02097,2.944187 -0.03146,4.41628 0,0 0.223145,-0.0094 0.643556,0.01205 0.420411,0.02149 1.040949,0.077 1.815512,0.255719 0.774562,0.178715 1.706043,0.483377 2.682834,1.007706 0.976792,0.52433 2.00013,1.270217 2.860779,2.300841 0.679813,0.794855 1.265096,1.786071 1.665012,2.917242 0.399917,1.131172 0.613979,2.401751 0.546776,3.696513 -0.05753,1.122119 -0.343928,2.286723 -0.857262,3.366587 -0.513333,1.079864 -1.253361,2.073867 -2.198591,2.833801 -1.462034,1.20714 -3.501548,1.87134 -5.475419,1.74469 -1.943117,-0.123795 -3.895527,-1.085834 -5.049465,-2.602469 -0.946385,-1.210068 -1.399772,-2.828487 -1.274136,-4.331177 0.06535,-0.78238 0.305736,-1.553359 0.677793,-2.226022 0.372056,-0.672662 0.875679,-1.246737 1.470695,-1.658767 0.928697,-0.663182 2.119609,-0.928428 3.182046,-0.803407 0.580304,0.06882 1.139529,0.275924 1.607513,0.572812 0.467985,0.296888 0.844815,0.683559 1.093638,1.120573 0.375741,0.629686 0.460772,1.398924 0.338326,2.046638 -0.07186,0.371291 -0.247758,0.715472 -0.469409,0.973956 -0.22165,0.258484 -0.489406,0.432162 -0.766037,0.512071 -0.165641,0.06479 -0.357131,0.05444 -0.538986,0.01395 -0.181855,-0.04049 -0.354476,-0.111541 -0.502461,-0.187555 -0.166205,-0.103545 -0.291383,-0.198873 -0.330262,-0.306939 -0.07348,-0.117482 -0.01563,-0.270686 0.01849,-0.372257 0.03411,-0.101572 0.05675,-0.163181 0.03543,-0.184499 -0.02132,-0.02132 -0.08917,-0.0069 -0.186454,0.07824 -0.04864,0.04259 -0.103825,0.103983 -0.149434,0.193173 -0.04561,0.08919 -0.08231,0.206411 -0.07397,0.360668 0.03248,0.229129 0.175104,0.477248 0.391274,0.645903 0.155673,0.140149 0.356195,0.277722 0.606003,0.374604 0.249807,0.09688 0.549257,0.153511 0.890463,0.105769 0.421098,-0.07501 0.852132,-0.270036 1.228586,-0.596748 0.376453,-0.326711 0.698687,-0.785997 0.867711,-1.346371 0.266414,-0.856297 0.269457,-1.910731 -0.197758,-2.911219 -0.311983,-0.647519 -0.786886,-1.241149 -1.400175,-1.716729 -0.61329,-0.475579 -1.36508,-0.833052 -2.198859,-0.994569 -1.439093,-0.282441 -3.074943,-0.05833 -4.496099,0.805618 -0.873694,0.542461 -1.633111,1.288361 -2.214839,2.182997 -0.581729,0.894637 -0.985589,1.937766 -1.144243,3.050912 -0.295118,2.057711 0.174646,4.283923 1.437779,6.119799 1.559824,2.224443 4.109675,3.711799 6.87456,4.023632 2.728664,0.308471 5.545821,-0.445887 7.761564,-2.085767 1.389182,-1.047169 2.495989,-2.381113 3.285629,-3.850174 0.78964,-1.469062 1.261819,-3.072127 1.411227,-4.674083 0.168307,-1.805473 -0.0471,-3.57139 -0.541406,-5.172205 -0.494299,-1.600812 -1.266894,-3.03598 -2.203872,-4.241729 -1.194943,-1.512951 -2.58059,-2.621334 -3.913382,-3.411941 -1.332792,-0.790608 -2.613537,-1.266179 -3.692866,-1.556734 -1.07933,-0.290556 -1.959604,-0.399935 -2.560788,-0.451579 -0.601184,-0.05164 -0.925563,-0.0498 -0.925563,-0.0498 z"
     id="path3031" />
  <path
     inkscape:connector-curvature="0"
     style="color:#000000;fill:url(#linearGradient4549-8-1);fill-opacity:1;fill-rule:nonzero;stroke:none;stroke-width:1;marker:none;visibility:visible;display:inline;overflow:visible;enable-background:accumulate"
     d="m 17.0625,7.2812504 c -2.445348,0.063311 -4.81503,0.5024719 -7,1.21875 C 7.1492065,9.4550379 4.5434499,10.903988 2.375,12.65625 1.5015287,13.37297 0.72472293,14.132927 0,14.90625 L 0,29.9375 C 0.044841,29.589712 0.11547511,29.201369 0.1875,28.8125 0.47560032,27.257022 1.0103756,25.387653 2,23.40625 c 0.9896251,-1.981404 2.4460751,-4.06471 4.5,-5.8125 1.5205057,-1.321646 3.3996597,-2.469646 5.5625,-3.25 2.16284,-0.780354 4.60637,-1.21107 7.09375,-1.09375 2.150319,0.100175 4.358802,0.657144 6.4375,1.625 2.078697,0.967856 4.003576,2.35067 5.5,4.15625 2.420602,2.857882 3.78325,6.878658 3.5625,10.8125 -0.213074,3.829696 -2.04446,7.708989 -5.03125,10.09375 -2.457804,2.005894 -5.786445,2.999402 -8.9375,2.78125 C 17.463509,42.496529 14.346957,40.88628 12.5,38.4375 10.950092,36.428735 10.251517,33.796306 10.46875,31.375 c 0.115581,-1.287567 0.50987,-2.536066 1.125,-3.625 0.615129,-1.088934 1.439459,-2.025594 2.40625,-2.6875 1.535346,-1.078269 3.471367,-1.465302 5.1875,-1.25 0.952338,0.120414 1.8686,0.44633 2.625,0.9375 0.7564,0.49117 1.351125,1.131468 1.75,1.84375 0.60672,1.04214 0.740853,2.298375 0.53125,3.34375 -0.125236,0.610915 -0.444088,1.177595 -0.8125,1.59375 -0.368412,0.416155 -0.797634,0.687121 -1.25,0.8125 -0.282128,0.100803 -0.610996,0.07049 -0.90625,0 -0.295253,-0.07049 -0.546664,-0.185382 -0.78125,-0.3125 C 20.074926,31.859932 19.873197,31.683903 19.8125,31.5 19.702068,31.292851 19.783,31.065104 19.84375,30.90625 19.9045,30.747396 19.966691,30.654192 19.9375,30.625 c -0.0292,-0.0292 -0.134077,-0.01131 -0.28125,0.125 -0.07359,0.06817 -0.150282,0.173772 -0.21875,0.3125 -0.06847,0.138729 -0.141363,0.327859 -0.125,0.5625 0.05216,0.34934 0.287635,0.708543 0.625,0.96875 0.245197,0.214424 0.54949,0.415224 0.9375,0.5625 0.388011,0.147276 0.852859,0.23402 1.375,0.15625 0.648753,-0.119105 1.327144,-0.428255 1.90625,-0.9375 0.579106,-0.509245 1.055016,-1.224397 1.3125,-2.09375 0.404202,-1.328669 0.419775,-2.952685 -0.3125,-4.5 -0.484856,-0.99675 -1.23376,-1.922812 -2.1875,-2.65625 -0.953739,-0.733439 -2.139464,-1.285115 -3.4375,-1.53125 -2.224686,-0.426594 -4.763478,-0.07145 -6.96875,1.28125 -1.340957,0.837862 -2.507573,1.985858 -3.40625,3.375 -0.898678,1.389142 -1.5079517,3.042588 -1.75,4.78125 -0.4429654,3.165252 0.2670136,6.607218 2.25,9.46875 1.194302,1.695092 2.767867,3.120271 4.59375,4.1875 1.825882,1.067228 3.918477,1.760677 6.09375,2 4.149539,0.457366 8.504036,-0.646995 12,-3.25 4.139936,-3.132146 6.778639,-8.038591 7.25,-13.21875 0.474356,-5.2165 -1.103613,-10.524411 -4.28125,-14.59375 -1.990221,-2.508771 -4.499222,-4.455076 -7.21875,-5.8437496 -2.719529,-1.3886743 -5.643987,-2.2112141 -8.5625,-2.4375 -0.829902,-0.06417 -1.653634,-0.083604 -2.46875,-0.0625 z"
     id="path3942" />
  <path
     style="font-size:medium;font-style:normal;font-variant:normal;font-weight:normal;font-stretch:normal;text-indent:0;text-align:start;text-decoration:none;line-height:normal;letter-spacing:normal;word-spacing:normal;text-transform:none;direction:ltr;block-progression:tb;writing-mode:lr-tb;text-anchor:start;baseline-shift:baseline;color:#000000;fill:url(#linearGradient4549-8-1-8);fill-opacity:1;fill-rule:nonzero;stroke:none;stroke-width:1;marker:none;visibility:visible;display:inline;overflow:visible;enable-background:accumulate;font-family:Sans;-inkscape-font-specification:Sans"
     d="m 4.7965498,35.147554 c -0.7245503,-0.724549 -1.8974948,-0.74125 -2.6220444,-0.0167 -0.7245496,0.724551 -0.7245496,1.914196 8e-7,2.638746 0.673692,0.673692 1.7415957,0.712723 2.4717352,0.133607 l 4.9601724,4.960172 -0.450925,0.450925 -0.267214,0.267215 0.267215,0.267214 1.6867912,1.686794 0.267215,0.267214 0.267214,-0.267215 0.450925,-0.450924 12.609193,12.609192 c -0.578459,0.730126 -0.539843,1.798286 0.133608,2.471736 0.724549,0.724551 1.914195,0.724551 2.638745,0 0.72455,-0.724549 0.707849,-1.897493 -0.0167,-2.622043 -0.587672,-0.587673 -1.471996,-0.695501 -2.171119,-0.334019 L 12.362066,44.550172 12.81299,44.099247 13.080205,43.832032 12.81299,43.564818 11.126197,41.878025 10.858982,41.610811 10.591768,41.878025 10.140843,42.32895 5.1305691,37.318674 c 0.3638008,-0.699699 0.254678,-1.582422 -0.3340186,-2.171119 z m -0.5344295,0.53443 c 0.3449474,0.344947 0.413969,0.843377 0.2171118,1.252569 l -0.400822,0.400822 0.033399,0.03341 c -0.4332479,0.299558 -1.0162276,0.253041 -1.4028769,-0.133607 -0.4357224,-0.435723 -0.4357239,-1.134163 0,-1.569886 0.4357232,-0.435724 1.1174622,-0.419023 1.5531853,0.0167 z M 26.65805,58.077915 c 0.435724,0.435723 0.452425,1.117462 0.0167,1.553186 -0.435724,0.435723 -1.134163,0.435722 -1.569886,0 -0.435723,-0.435723 -0.435724,-1.134163 0,-1.569887 0.435723,-0.435723 1.117462,-0.419022 1.553184,0.0167 z m -15.799068,-15.398246 1.152364,1.152363 -0.90185,0.901849 -1.1523625,-1.152363 0.9018485,-0.901849 z"
     id="path4178"
     inkscape:connector-curvature="0" />
  <path
     d="m 60,33 4,4 0,25 -28.32258,0 z"
     id="path3934"
     style="fill:url(#radialGradient3220);fill-rule:nonzero" />
  <path
     d="M 34,64 60,33 c -2.328567,2.776369 -4.36141,3 -11,3 H 37 v 15 c 0,6.644068 0.04437,9.370179 -3,13 z"
     id="path4278"
     style="fill:url(#linearGradient4280);fill-rule:nonzero" />
  <path
     d="m 59,32 c -2.328567,2.776369 -4.36141,3 -11,3 H 36 v 15 c 0,6.644068 0.04437,9.370179 -3,13 4,-5 4.000382,-8.356667 4,-13 V 36 h 11 c 5,0 8.041405,-0.381883 11,-4 z"
     id="path4282"
     style="fill:#aacc83;fill-opacity:1;fill-rule:nonzero"
     inkscape:connector-curvature="0" />
</svg>
