<?xml version="1.0" encoding="UTF-8" standalone="no"?>
<!-- Created with Inkscape (http://www.inkscape.org/) -->

<svg
   xmlns:dc="http://purl.org/dc/elements/1.1/"
   xmlns:cc="http://creativecommons.org/ns#"
   xmlns:rdf="http://www.w3.org/1999/02/22-rdf-syntax-ns#"
   xmlns:svg="http://www.w3.org/2000/svg"
   xmlns="http://www.w3.org/2000/svg"
   xmlns:xlink="http://www.w3.org/1999/xlink"
   xmlns:sodipodi="http://sodipodi.sourceforge.net/DTD/sodipodi-0.dtd"
   xmlns:inkscape="http://www.inkscape.org/namespaces/inkscape"
   id="svg13094"
   height="64"
   width="64"
   version="1.1"
   inkscape:version="0.48.4 r9939"
   sodipodi:docname="folder-mega.svg"
   inkscape:export-filename="folder.png"
   inkscape:export-xdpi="90"
   inkscape:export-ydpi="90">
  <sodipodi:namedview
     pagecolor="#ffffff"
     bordercolor="#666666"
     borderopacity="1"
     objecttolerance="10"
     gridtolerance="10"
     guidetolerance="10"
     inkscape:pageopacity="0"
     inkscape:pageshadow="2"
     inkscape:window-width="1920"
     inkscape:window-height="1022"
     id="namedview46"
     showgrid="true"
     inkscape:snap-bbox="true"
     inkscape:bbox-paths="true"
     inkscape:bbox-nodes="true"
     inkscape:snap-bbox-edge-midpoints="true"
     inkscape:snap-bbox-midpoints="true"
     inkscape:snap-nodes="true"
     inkscape:object-paths="true"
     inkscape:snap-intersection-paths="true"
     inkscape:object-nodes="true"
     inkscape:snap-smooth-nodes="true"
     inkscape:snap-midpoints="true"
     inkscape:snap-object-midpoints="true"
     inkscape:snap-center="true"
     fit-margin-top="0"
     fit-margin-left="0"
     fit-margin-right="0"
     fit-margin-bottom="0"
     inkscape:zoom="32.000002"
     inkscape:cx="21.523254"
     inkscape:cy="25.016883"
     inkscape:window-x="-5"
     inkscape:window-y="23"
     inkscape:window-maximized="1"
     inkscape:current-layer="svg13094"
     showguides="true"
     inkscape:guide-bbox="true"
     inkscape:snap-page="true"
     inkscape:snap-global="true">
    <inkscape:grid
       type="xygrid"
       id="grid3023"
       empspacing="5"
       visible="true"
       enabled="true"
       snapvisiblegridlinesonly="true"
       originx="-80px"
       originy="-75px" />
  </sodipodi:namedview>
  <defs
     id="defs11">
    <linearGradient
       id="linearGradient3841-4-4">
      <stop
         style="stop-color:#a17c48;stop-opacity:1;"
         offset="0"
         id="stop3843-9-4" />
      <stop
         style="stop-color:#be965e;stop-opacity:1;"
         offset="1"
         id="stop3845-3-9" />
    </linearGradient>
    <linearGradient
       gradientTransform="translate(0.625,-0.082283)"
       inkscape:collect="always"
       xlink:href="#linearGradient3969-7"
       id="linearGradient3918-1"
       gradientUnits="userSpaceOnUse"
       x1="29.875"
       y1="64.082283"
       x2="29.875"
       y2="12.082283" />
    <linearGradient
       id="linearGradient3969-7">
      <stop
         style="stop-color:#b3915e;stop-opacity:1;"
         offset="0"
         id="stop3971-7" />
      <stop
         id="stop3977-3"
         offset="0.08245245"
         style="stop-color:#caa36b;stop-opacity:1;" />
      <stop
         style="stop-color:#d0a973;stop-opacity:1;"
         offset="0.49040774"
         id="stop3979-6" />
      <stop
         id="stop3981-5"
         offset="0.51108748"
         style="stop-color:#c9a16b;stop-opacity:1;" />
      <stop
         style="stop-color:#c79e65;stop-opacity:1;"
         offset="1"
         id="stop3973-0" />
    </linearGradient>
    <linearGradient
       y2="32.976402"
       x2="77.278381"
       y1="48.976402"
       x1="77.278381"
       gradientTransform="translate(-33,-31.9764)"
       gradientUnits="userSpaceOnUse"
       id="linearGradient3297"
       xlink:href="#linearGradient3841-4-4"
       inkscape:collect="always" />
    <linearGradient
       inkscape:collect="always"
       xlink:href="#linearGradient3051-9-6-9-4-3-9-9"
       id="linearGradient3080-7-5-0"
       gradientUnits="userSpaceOnUse"
       gradientTransform="matrix(1.0067343,0,0,1.0067343,0.58880313,-0.24586967)"
       x1="18.312868"
       y1="13.082284"
       x2="18.312868"
       y2="63.818436" />
    <linearGradient
       id="linearGradient3051-9-6-9-4-3-9-9">
      <stop
         id="stop3053-6-2-5-8-2-0-8"
         style="stop-color:#cdcdcd;stop-opacity:1;"
         offset="0" />
      <stop
         id="stop3059-3-8-6-5-3-1-9"
         style="stop-color:#d3d3d3;stop-opacity:1;"
         offset="0.47965544" />
      <stop
         id="stop3061-4-6-4-9-7-5-1"
         style="stop-color:#dedede;stop-opacity:1;"
         offset="0.50227195" />
      <stop
         id="stop3055-6-3-4-0-7-1-9-7"
         style="stop-color:#e6e6e6;stop-opacity:1;"
         offset="1" />
    </linearGradient>
    <linearGradient
       inkscape:collect="always"
       xlink:href="#linearGradient3051-9-6-9-4-3-9-9"
       id="linearGradient3026"
       gradientUnits="userSpaceOnUse"
       gradientTransform="matrix(1.0067343,0,0,1.0067343,0.58880313,-0.24586967)"
       x1="18.312868"
       y1="13.082284"
       x2="18.312868"
       y2="63.818436" />
    <linearGradient
       inkscape:collect="always"
       xlink:href="#linearGradient3051-9-6-9-4-3-9-9"
       id="linearGradient3825"
       gradientUnits="userSpaceOnUse"
       gradientTransform="matrix(1.0067343,0,0,1.0067343,0.58880313,-0.24586967)"
       x1="18.312868"
       y1="13.082284"
       x2="18.312868"
       y2="63.818436" />
  </defs>
  <metadata
     id="metadata13099">
    <rdf:RDF>
      <cc:Work
         rdf:about="">
        <dc:format>image/svg+xml</dc:format>
        <dc:type
           rdf:resource="http://purl.org/dc/dcmitype/StillImage" />
        <dc:title />
      </cc:Work>
    </rdf:RDF>
  </metadata>
  <path
     style="fill:url(#linearGradient3297);fill-opacity:1;fill-rule:nonzero;stroke:none"
     d="m 3,6 -10e-8,58.000001 L 60,64 64,60 64,1 63,0 37,0 32,4.9999999 4,5 z"
     id="path3833"
     inkscape:connector-curvature="0"
     sodipodi:nodetypes="cccccccccc" />
  <path
     style="color:#000000;fill:#ffd08f;fill-opacity:0.46554775;fill-rule:nonzero;stroke:none;stroke-width:1;marker:none;visibility:visible;display:inline;overflow:visible;enable-background:accumulate"
     d="M 37,0 32,5 4,5 3,6 3,7 4,6 32,6 37,1 63,1 64,2 64,1 63,0 37,0 z"
     id="path3800"
     inkscape:connector-curvature="0" />
  <path
     sodipodi:nodetypes="ccccc"
     d="m 7,13 51,0 0,31 -51,0 z"
     id="path3920"
     inkscape:connector-curvature="0"
     style="fill:#c7c7c7;fill-opacity:1;fill-rule:nonzero" />
  <path
     sodipodi:nodetypes="cccccccc"
     id="path3802"
     d="m 58,13 0,51 2,0 4,-4 0,-59 -1,-1 0,18 z"
     inkscape:connector-curvature="0"
     style="fill:#3e4959;fill-opacity:0.43171806" />
  <path
     inkscape:connector-curvature="0"
     id="path4253"
     d="m 7,13 51,0 0,1 -51,0 z"
     style="fill:#ffffff;fill-opacity:0.60159009;fill-rule:nonzero"
     sodipodi:nodetypes="ccccc" />
  <path
     style="color:#000000;fill:#3e4959;fill-opacity:0.22968199;fill-rule:nonzero;stroke-width:1;stroke-linecap:butt;stroke-linejoin:miter;stroke-miterlimit:4;stroke-opacity:1;stroke-dasharray:none;stroke-dashoffset:0;marker:none;visibility:visible;display:inline;overflow:visible;enable-background:accumulate"
     d="m 30,13 4,4 2,0 -4,-4 z"
     id="path3982"
     inkscape:connector-curvature="0"
     sodipodi:nodetypes="ccccc" />
  <path
     id="path3916"
     d="m 0,13 0,50 1,1 59,0 1,-1 0,-45 -1,-1 -26,1e-6 -5,-5 L 1,12 z"
     inkscape:connector-curvature="0"
     style="fill:url(#linearGradient3918-1);fill-opacity:1;fill-rule:nonzero"
     sodipodi:nodetypes="ccccccccccc"
     inkscape:export-xdpi="90"
     inkscape:export-ydpi="90" />
  <path
     style="fill:#ffd08f;fill-opacity:0.46554775;fill-rule:nonzero"
     d="m 1,12 -1,1 0,1 1,-1 28,0 5,5 26,0 1,1 0,-1 -1,-1 -26,0 -5,-5 -28,0 z"
     id="path3046"
     inkscape:connector-curvature="0" />
  <path
     style="font-size:medium;font-style:normal;font-variant:normal;font-weight:normal;font-stretch:normal;text-indent:0;text-align:start;text-decoration:none;line-height:normal;letter-spacing:normal;word-spacing:normal;text-transform:none;direction:ltr;block-progression:tb;writing-mode:lr-tb;text-anchor:start;baseline-shift:baseline;color:#000000;fill:url(#linearGradient3825);fill-opacity:1;fill-rule:nonzero;stroke:none;stroke-width:1;marker:none;visibility:visible;display:inline;overflow:visible;enable-background:accumulate;font-family:Sans;-inkscape-font-specification:Sans"
     d="M 18.5 27 C 11.056 27 5 33.056001 5 40.5 C 5 47.944 11.056 54 18.5 54 C 25.943999 54 32 47.944 32 40.5 C 32 33.056001 25.943999 27 18.5 27 z M 18.5 29 C 24.863119 29 30 34.136881 30 40.5 C 30 46.863119 24.863119 52 18.5 52 C 12.136881 52 7 46.863119 7 40.5 C 7 34.136881 12.136881 29 18.5 29 z M 12 35 L 12 36 L 12 45 L 14 45 L 14 38.28125 L 17.8125 41.75 L 18.5 42.34375 L 19.1875 41.75 L 23 38.28125 L 23 45 L 25 45 L 25 36 L 25 35 L 23.59375 35 L 23.3125 35.25 L 18.5 39.625 L 13.6875 35.25 L 13.40625 35 L 12 35 z "
     id="path3024" />
</svg>
