<?xml version="1.0" encoding="UTF-8" standalone="no"?>
<!-- Created with Inkscape (http://www.inkscape.org/) -->

<svg
   xmlns:dc="http://purl.org/dc/elements/1.1/"
   xmlns:cc="http://creativecommons.org/ns#"
   xmlns:rdf="http://www.w3.org/1999/02/22-rdf-syntax-ns#"
   xmlns:svg="http://www.w3.org/2000/svg"
   xmlns="http://www.w3.org/2000/svg"
   xmlns:xlink="http://www.w3.org/1999/xlink"
   xmlns:sodipodi="http://sodipodi.sourceforge.net/DTD/sodipodi-0.dtd"
   xmlns:inkscape="http://www.inkscape.org/namespaces/inkscape"
   version="1.1"
   width="22"
   height="22"
   id="svg13094"
   inkscape:version="0.48.4 r9939"
   sodipodi:docname="emblem-mounted.svg">
  <sodipodi:namedview
     pagecolor="#ffffff"
     bordercolor="#666666"
     borderopacity="1"
     objecttolerance="10"
     gridtolerance="10"
     guidetolerance="10"
     inkscape:pageopacity="0"
     inkscape:pageshadow="2"
     inkscape:window-width="1920"
     inkscape:window-height="1017"
     id="namedview6"
     showgrid="true"
     inkscape:snap-bbox="true"
     inkscape:bbox-paths="true"
     inkscape:bbox-nodes="true"
     inkscape:snap-bbox-edge-midpoints="true"
     inkscape:snap-bbox-midpoints="true"
     inkscape:object-paths="true"
     inkscape:snap-intersection-paths="true"
     inkscape:object-nodes="true"
     inkscape:snap-smooth-nodes="true"
     inkscape:snap-midpoints="true"
     inkscape:snap-object-midpoints="true"
     inkscape:snap-center="true"
     inkscape:zoom="29.5"
     inkscape:cx="7.0252113"
     inkscape:cy="10.148759"
     inkscape:window-x="-5"
     inkscape:window-y="26"
     inkscape:window-maximized="1"
     inkscape:current-layer="g4159"
     inkscape:snap-global="true"
     fit-margin-top="0"
     fit-margin-left="0"
     fit-margin-right="0"
     fit-margin-bottom="0">
    <inkscape:grid
       type="xygrid"
       id="grid2983"
       empspacing="5"
       visible="true"
       enabled="true"
       snapvisiblegridlinesonly="true"
       originx="-12px"
       originy="-5.9999999px" />
  </sodipodi:namedview>
  <defs
     id="defs7">
    <linearGradient
       inkscape:collect="always"
       xlink:href="#linearGradient4231"
       id="linearGradient4237"
       x1="3"
       y1="32"
       x2="3"
       y2="-1e-07"
       gradientUnits="userSpaceOnUse" />
    <linearGradient
       inkscape:collect="always"
       id="linearGradient4231">
      <stop
         style="stop-color:#696f77;stop-opacity:1"
         offset="0"
         id="stop4233" />
      <stop
         style="stop-color:#797f89;stop-opacity:1"
         offset="1"
         id="stop4235" />
    </linearGradient>
  </defs>
  <metadata
     id="metadata13099">
    <rdf:RDF>
      <cc:Work
         rdf:about="">
        <dc:format>image/svg+xml</dc:format>
        <dc:type
           rdf:resource="http://purl.org/dc/dcmitype/StillImage" />
        <dc:title />
      </cc:Work>
    </rdf:RDF>
  </metadata>
  <g
     id="g4159"
     transform="scale(0.6875,0.6875)">
    <path
       sodipodi:type="arc"
       style="color:#000000;fill:#ffffff;fill-opacity:1;fill-rule:nonzero;stroke:none;stroke-width:2;marker:none;visibility:visible;display:inline;overflow:visible;enable-background:accumulate"
       id="path2993"
       sodipodi:cx="11"
       sodipodi:cy="11"
       sodipodi:rx="11"
       sodipodi:ry="11"
       d="M 22,11 C 22,17.075132 17.075132,22 11,22 4.9248678,22 0,17.075132 0,11 0,4.9248678 4.9248678,0 11,0 17.075132,0 22,4.9248678 22,11 z"
       transform="scale(1.4545455,1.4545455)" />
    <path
       transform="matrix(2.6181819,0,0,2.6181819,2.9090903,2.9090904)"
       d="M 10,5 C 10,7.7614237 7.7614237,10 5,10 2.2385763,10 0,7.7614237 0,5 0,2.2385763 2.2385763,0 5,0 c 2.7614237,0 5,2.2385763 5,5 z"
       sodipodi:ry="5"
       sodipodi:rx="5"
       sodipodi:cy="5"
       sodipodi:cx="5"
       id="path3002"
       style="color:#000000;fill:#4a97e5;fill-opacity:1;fill-rule:nonzero;stroke:none;stroke-width:1.11111101;marker:none;visibility:visible;display:inline;overflow:visible;enable-background:accumulate"
       sodipodi:type="arc" />
    <path
       sodipodi:nodetypes="cccccccccccccccc"
       inkscape:connector-curvature="0"
       style="color:#000000;fill:#ffffff;fill-opacity:1;fill-rule:nonzero;stroke:none;marker:none;visibility:visible;display:inline;overflow:visible;enable-background:accumulate"
       d="m 17.454545,11.636363 -2.90909,1.454546 -1.454546,1.454545 -5.8181817,0 0,2.909091 5.8181817,0 1.454546,1.454546 2.90909,1.454545 1.454546,0 0,-8.727273 z m 2.909091,1.454546 0,5.818182 2.909091,0 0,-5.818182 z"
       id="path3059" />
    <path
       style="color:#000000;fill:#404957;fill-opacity:0.23137255000000001;fill-rule:nonzero;stroke:none;marker:none;visibility:visible;display:inline;overflow:visible;enable-background:accumulate;stroke-width:1.37499984"
       d="M 13 9 L 13 14 L 12 14 L 10 13 L 11 14 L 13 15 L 14 15 L 14 13 L 14 9 L 13 9 z M 10 13 L 9 12 L 6 12 L 6 13 L 10 13 z M 16 10 L 16 13 L 15 13 L 15 14 L 17 14 L 17 10 L 16 10 z "
       transform="scale(1.4545455,1.4545455)"
       id="path4078-8" />
  </g>
</svg>
