<svg xmlns="http://www.w3.org/2000/svg" viewBox="0 0 64 64"><g color="#000"><path d="m0 4v30 28l2 2h30 30l2-2v-28-30h-32-32" fill="#1280e9"/><path d="m2 0l-2 1v3h32 32v-3l-2-1h-30-30" fill="#4eb6ff"/></g><path d="m0 3v3l2-2z" fill="#6dc3ff"/><path d="m64 6l-2-2 2-1z" fill="#369df4"/><g color="#000"><path d="m33 16l-2 5-3.5 1.438-4.938-2.125-4.25 4.25 2.125 4.938-1.438 3.5-5 2v6l5 2 1.438 3.5-2.125 4.938 4.25 4.25 4.938-2.125 3.5 1.438 2 5h6l2-5 3.5-1.438 4.938 2.125 4.25-4.25-2.125-4.938 1.438-3.5 5-2v-6l-5-2-1.438-3.5 2.125-4.938-4.25-4.25-4.938 2.125-3.5-1.438-2-5h-6m3 15c3.866 0 7 3.134 7 7 0 3.866-3.134 7-7 7-3.866 0-7-3.134-7-7 0-.242.007-.483.031-.719.358-3.53 3.344-6.281 6.969-6.281" fill="#00305e" fill-opacity=".148"/><path d="m29 12l-2 5-3.5 1.438-4.938-2.125-4.25 4.25 2.125 4.938-1.438 3.5-5 2v6l5 2 1.438 3.5-2.125 4.938 4.25 4.25 4.938-2.125 3.5 1.438 2 5h6l2-5 3.5-1.438 4.938 2.125 4.25-4.25-2.125-4.938 1.438-3.5 5-2v-6l-5-2-1.438-3.5 2.125-4.938-4.25-4.25-4.938 2.125-3.5-1.438-2-5h-6m3 15c3.866 0 7 3.134 7 7 0 3.866-3.134 7-7 7-3.866 0-7-3.134-7-7 0-.242.007-.483.031-.719.358-3.53 3.344-6.281 6.969-6.281" fill="#a3bccd"/><g opacity=".267" fill="#fff"><path d="m53 31v6l-6 1-1 2v-12l1 2z"/><path d="m35 55h-6l-1-6-2-1h12l-2 1z"/></g><g fill="#fff"><path d="m29 13h6l1 6 2 1h-12l2-1z"/><path d="m11 37v-6l6-1 1-2v12l-1-2z"/><g opacity=".886"><path d="m26.343 19.858l-2.828-1.414 3.485-1.444z"/><path d="m18 28l-3 1 1.444-3.485z"/></g></g><g opacity=".448" fill="#5393cf"><path d="m17.858 39.657l-1.414 2.828-1.444-3.485z"/><path d="m38 20l-1-3 3.485 1.444z"/></g><g opacity=".169" fill="#53a1cf"><path d="m37.657 48.14l2.828 1.414-3.485 1.444z"/><path d="m46 40l3-1-1.444 3.485z"/></g><g opacity=".545" fill="#fff"><path d="m44.728 17.03l4.243 4.243-3.536 4.95.707 2.121-8.485-8.485 2.121.707z"/><path d="m19.272 50.971l-4.243-4.243 3.536-4.95-.707-2.121 8.485 8.485-2.121-.707z"/></g><g opacity=".198" fill="#539fcf"><path d="m46.14 28.343l1.414-2.828 1.444 3.485z"/><path d="m26 48l1 3-3.485-1.444z"/></g><path d="m26.19 20l-8.188 8.188v11.625l8.188 8.188h11.625l8.188-8.188v-11.625l-8.188-8.188h-11.625m5.813 7c3.866 0 7 3.134 7 7 0 3.866-3.134 7-7 7-3.866 0-7-3.134-7-7 0-3.866 3.134-7 7-7" opacity=".668" fill="#fff"/><path d="m32 25c-4.971 0-9 4.03-9 9 0 4.971 4.03 9 9 9 4.971 0 9-4.03 9-9 0-4.971-4.03-9-9-9m0 2c3.866 0 7 3.134 7 7 0 3.866-3.134 7-7 7-3.866 0-7-3.134-7-7 0-3.866 3.134-7 7-7" fill="#c3c3c3"/><g opacity=".806" fill="#fff"><path d="m14.322 20.565l.707.707 3.536 4.95-.707 2.121-1.414-2.828z"/><path d="m19.272 17.03l-.707-.707 4.95 2.121 2.828 1.414-2.121.707z"/></g><g fill="#fff"><g opacity=".556"><path d="m10 37h1l6 1 1 2-3-1z"/><path d="m35 13v-1l2 5 1 3-2-1z"/></g><g opacity=".327"><path d="m48.971 46.728l-4.243 4.243-4.95-3.536-2.121.707 8.485-8.485-.707 2.121z"/><path d="m18.565 51.678l.707-.707 4.95-3.536 2.121.707-2.828 1.414z"/><path d="m48.971 21.272l.707-.707-2.121 4.95-1.414 2.828-.707-2.121z"/></g><g opacity=".161"><path d="m35 56v-1l1-6 2-1-1 3z"/><path d="m53 37h1l-5 2-3 1 1-2z"/></g><g opacity=".323"><path d="m49.678 47.44l-.707-.707-3.536-4.95.707-2.121 1.414 2.828z"/><path d="m44.728 50.971l.707.707-4.95-2.121-2.828-1.414 2.121-.707z"/></g><g opacity=".484"><path d="m54 31h-1l-6-1-1-2 3 1z"/><path d="m29 55v1l-2-5-1-3 2 1z"/></g><path d="m29 12v1l-1 6-2 1 1-3z"/><path d="m11 31h-1l5-2 3-1-1 2z"/><path d="m45.44 16.322l-.707.707-4.95 3.536-2.121-.707 2.828-1.414z"/><path d="m15.03 46.728l-.707.707 2.121-4.95 1.414-2.828.707 2.121z"/><path d="m15.03 21.272l4.243-4.243 4.95 3.536 2.121-.707-8.485 8.485.707-2.121z"/><path d="m45.44 51.688l4.25-4.25-.717-.71-4.243 4.243z" opacity=".214"/><g opacity=".241"><path d="m54.01 37.01v-6.01l-1.01.005v6z"/><path d="m28.995 56.01h6.01l-.005-1.01h-6z"/></g><g fill-opacity=".417"><path d="m49.688 20.562l-4.25-4.25-.71.717 4.243 4.243z"/><path d="m14.313 47.44l4.25 4.25.71-.717-4.243-4.243z"/></g><g fill-opacity="1"><path d="m35.01 11.991h-6.01l.005 1.01h6z"/><path d="m9.991 30.995v6.01l1.01-.005v-6z"/></g><path d="m18.563 16.313l-4.25 4.25.717.71 4.243-4.243z" fill-opacity="1"/></g><g transform="translate(-19 17)"><path d="m58.53 10.469c1.53 1.757 2.469 4.03 2.469 6.531 0 5.508-4.492 10-10 10-2.504 0-4.774-.939-6.531-2.469 1.836 2.109 4.527 3.469 7.531 3.469 5.508 0 10-4.492 10-10 0-3-1.36-5.696-3.469-7.531" fill-opacity=".132"/><path d="m51 7c-5.508 0-10 4.492-10 10 0 5.508 4.492 10 10 10 5.508 0 10-4.492 10-10 0-5.508-4.492-10-10-10m0 2c4.407 0 8 3.593 8 8 0 4.407-3.593 8-8 8-4.407 0-8-3.593-8-8 0-4.407 3.593-8 8-8" fill="#346b97"/><path d="m51 25c-4.407 0-8-3.593-8-8 0-4.407 3.593-8 8-8 4.407 0 8 3.593 8 8 0 4.407-3.593 8-8 8" fill="#e4bd23"/><path d="m50 12v2h2v-2zm0 4v6h2v-6z" fill="#346b97"/></g></g></svg>