<svg xmlns="http://www.w3.org/2000/svg" viewBox="0 0 64 64"><g color="#000"><path d="m0 2v32 28l2 2h30 30l2-2v-28-32h-32z" fill="#9e6e31"/><path d="m2 0l-2 1v1h32 32v-1l-2-1h-30" fill="#ffbc35"/></g><path d="m64 4l-2-2 2-1" fill="#1f0700" fill-opacity=".138"/><g fill="#fc0" color="#000"><g fill-opacity=".036"><path d="m2 0l-2 1v3 18.5h2v-22.5m2 0v3.5h2v-3.5h-2m4 0v17.5h2v-17.5h-2m4 0v32.5h2v-32.5h-2m8 0v27.5h2v-27.5h-2m16 0v.5h2v-.5h-2zm12 0v19.5h2v-19.5h-2m4 0v33.5h2v-33.5h-2m4 0v14.5h2v-14.5h-2m4 0v30.5h2v-30.5h-2m-20 .5v37h2v-37h-2zm-36 5v37h2v-37h-2m28 0v37h2v-37h-2m-8 1v37h2v-37h-2m-8 3v37h2v-37h-2m12 2v37h2v-37h-2m16 5v37h2v-37h-2m-36 3v37h2v-37h-2m28 0v37h2v-37h-2m12 2v37h2v-37h-2m-48 3v9.5 27.5h2v-37h-2m60 8v31.5h2v-31.5h-2m-8 5v26.5h2v-26.5h-2m4 14v12.5h2v-12.5h-2"/><path d="m2 0l-2 1v3 26h2v-30m2 0v14h2v-14h-2m4 0v33h2v-33h-2zm4 0v19h2v-19h-2m8 0v37h2v-37h-2m20 0v27h2v-27h-2m8 0v32h2v-32h-2m4 0v17h2v-17h-2m4 0v3h2v-3h-2m4 0v22h2v-22h-2m-32 5v37h2v-37h-2m28 0v37h2v-37h-2m-20 1v37h2v-37h-2m8 3v37h2v-37h-2m-12 2v37h2v-37h-2m-16 5v37h2v-37h-2m8 3v37h2v-37h-2m28 0v37h2v-37h-2m-40 2v37h2v-37h-2m48 3v37h2v-37h-2m-60 8v2 28l2 2v-32h-2m8 5v27h2v-27h-2m-4 14v13h2v-13h-2"/><path d="m2 0l-2 1v3 24.5h2v-28.5m2 0v12.5h2v-12.5h-2m4 0v31.5h2v-31.5h-2m4 0v17.5h2v-17.5h-2m8 0v35.5h2v-35.5h-2m20 0v25.5h2v-25.5h-2m8 0v30.5h2v-30.5h-2m4 0v15.5h2v-15.5h-2m4 0v1.5h2v-1.5h-2zm4 0v20.5h2v-20.5h-2m-32 3.5v37h2v-37h-2zm28 0v37h2v-37h-2m-20 1v37h2v-37h-2m8 3v37h2v-37h-2m-12 2v37h2v-37h-2m-16 5v37h2v-37h-2m8 3v37h2v-37h-2m28 0v37h2v-37h-2m-40 2v37h2v-37h-2m48 3v37h2v-37h-2m-60 8v3.5 28l2 2v-33.5h-2m8 5v28.5h2v-28.5h-2m-4 14v14.5h2v-14.5h-2"/><path d="m2 0l-2 1v19h2v-20m2 0v1h2v-1h-2m4 0v15h2v-15h-2zm4 0v30h2v-30h-2m8 0v25h2v-25h-2m20 0v35h2v-35h-2m8 0v17h2v-17h-2m4 0v31h2v-31h-2m4 0v12h2v-12h-2m4 0v28h2v-28h-2m-56 3v37h2v-37h-2m28 0v37h2v-37h-2zm-8 1v37h2v-37h-2m-8 3v37h2v-37h-2m12 2v37h2v-37h-2m16 5v37h2v-37h-2m-36 3v37h2v-37h-2m28 0v37h2v-37h-2m12 2v37h2v-37h-2m-48 3v12 25h2v-37h-2m60 8v34h2v-34h-2zm-8 5v29h2v-29h-2m4 14v15h2v-15h-2"/><path d="m2 0l-2 1v3 29.5h2v-33.5m2 0v14.5h2v-14.5h-2m4 0v28.5h2v-28.5h-2m16 0v9.5h2v-9.5h-2zm8 0v6.5h2v-6.5h-2m4 0v11.5h2v-11.5h-2m12 0v30.5h2v-30.5h-2m8 0v25.5h2v-25.5h-2m-36 1.5v37h2v-37h-2zm40 3v37h2v-37h-2m-48 2v37h2v-37h-2m40 1v37h2v-37h-2m-12 4v37h2v-37h-2m-36 5v37h2v-37h-2m28 0v37h2v-37h-2m-8 1v37h2v-37h-2m-8 3v37h2v-37h-2m12 2v37h2v-37h-2m16 5v36.5h2v-36.5h-2m-36 3v33.5h2v-33.5h-2m28 0v33.5h2v-33.5h-2m12 2v31.5h2v-31.5h-2m-48 3v26.5l2 2v-28.5h-2m60 8v20.5h2v-20.5h-2m-8 5v15.5h2v-15.5h-2m4 14v1.5h2v-1.5h-2"/><path d="m4 0v25h2v-25h-2m8 0v30h2v-30h-2zm12 0v11h2v-11h-2m4 0v6h2v-6h-2m8 0v9h2v-9h-2m16 0v28h2v-28h-2m4 0v14h2v-14h-2m4 0v33h2v-33h-2m-20 1v37h2v-37h-2m-40 3v30 7h2v-37h-2m48 2v37h2v-37h-2zm-40 1v37h2v-37h-2m12 4v37h2v-37h-2zm8 5v37h2v-37h-2m28 0v37h2v-37h-2m-20 1v37h2v-37h-2m8 3v37h2v-37h-2m-12 2v37h2v-37h-2m-16 5v37h2v-37h-2m8 3v34h2v-34h-2m28 0v34h2v-34h-2m-40 2v32h2v-32h-2m48 3v29h2v-29h-2m-60 8v19l2 2v-21h-2m8 5v16h2v-16h-2zm-4 14v2h2v-2h-2"/></g><g transform="translate(2)" fill-opacity=".015"><path d="m2 0l-2 1v3 18.5h2v-22.5m2 0v3.5h2v-3.5h-2m4 0v17.5h2v-17.5h-2m4 0v32.5h2v-32.5h-2m8 0v27.5h2v-27.5h-2m16 0v.5h2v-.5h-2zm12 0v19.5h2v-19.5h-2m4 0v33.5h2v-33.5h-2m4 0v14.5h2v-14.5h-2m4 0v30.5h2v-30.5h-2m-20 .5v37h2v-37h-2zm-36 5v37h2v-37h-2m28 0v37h2v-37h-2m-8 1v37h2v-37h-2m-8 3v37h2v-37h-2m12 2v37h2v-37h-2m16 5v37h2v-37h-2m-36 3v37h2v-37h-2m28 0v37h2v-37h-2m12 2v37h2v-37h-2m-48 3v9.5 27.5h2v-37h-2m60 8v31.5h2v-31.5h-2m-8 5v26.5h2v-26.5h-2m4 14v12.5h2v-12.5h-2"/><path d="m2 0l-2 1v3 26h2v-30m2 0v14h2v-14h-2m4 0v33h2v-33h-2zm4 0v19h2v-19h-2m8 0v37h2v-37h-2m20 0v27h2v-27h-2m8 0v32h2v-32h-2m4 0v17h2v-17h-2m4 0v3h2v-3h-2m4 0v22h2v-22h-2m-32 5v37h2v-37h-2m28 0v37h2v-37h-2m-20 1v37h2v-37h-2m8 3v37h2v-37h-2m-12 2v37h2v-37h-2m-16 5v37h2v-37h-2m8 3v37h2v-37h-2m28 0v37h2v-37h-2m-40 2v37h2v-37h-2m48 3v37h2v-37h-2m-60 8v2 28l2 2v-32h-2m8 5v27h2v-27h-2m-4 14v13h2v-13h-2"/><path d="m2 0l-2 1v3 24.5h2v-28.5m2 0v12.5h2v-12.5h-2m4 0v31.5h2v-31.5h-2m4 0v17.5h2v-17.5h-2m8 0v35.5h2v-35.5h-2m20 0v25.5h2v-25.5h-2m8 0v30.5h2v-30.5h-2m4 0v15.5h2v-15.5h-2m4 0v1.5h2v-1.5h-2zm4 0v20.5h2v-20.5h-2m-32 3.5v37h2v-37h-2zm28 0v37h2v-37h-2m-20 1v37h2v-37h-2m8 3v37h2v-37h-2m-12 2v37h2v-37h-2m-16 5v37h2v-37h-2m8 3v37h2v-37h-2m28 0v37h2v-37h-2m-40 2v37h2v-37h-2m48 3v37h2v-37h-2m-60 8v3.5 28l2 2v-33.5h-2m8 5v28.5h2v-28.5h-2m-4 14v14.5h2v-14.5h-2"/><path d="m2 0l-2 1v19h2v-20m2 0v1h2v-1h-2m4 0v15h2v-15h-2zm4 0v30h2v-30h-2m8 0v25h2v-25h-2m20 0v35h2v-35h-2m8 0v17h2v-17h-2m4 0v31h2v-31h-2m4 0v12h2v-12h-2m4 0v28h2v-28h-2m-56 3v37h2v-37h-2m28 0v37h2v-37h-2zm-8 1v37h2v-37h-2m-8 3v37h2v-37h-2m12 2v37h2v-37h-2m16 5v37h2v-37h-2m-36 3v37h2v-37h-2m28 0v37h2v-37h-2m12 2v37h2v-37h-2m-48 3v12 25h2v-37h-2m60 8v34h2v-34h-2zm-8 5v29h2v-29h-2m4 14v15h2v-15h-2"/><path d="m2 0l-2 1v3 29.5h2v-33.5m2 0v14.5h2v-14.5h-2m4 0v28.5h2v-28.5h-2m16 0v9.5h2v-9.5h-2zm8 0v6.5h2v-6.5h-2m4 0v11.5h2v-11.5h-2m12 0v30.5h2v-30.5h-2m8 0v25.5h2v-25.5h-2m-36 1.5v37h2v-37h-2zm40 3v37h2v-37h-2m-48 2v37h2v-37h-2m40 1v37h2v-37h-2m-12 4v37h2v-37h-2m-36 5v37h2v-37h-2m28 0v37h2v-37h-2m-8 1v37h2v-37h-2m-8 3v37h2v-37h-2m12 2v37h2v-37h-2m16 5v36.5h2v-36.5h-2m-36 3v33.5h2v-33.5h-2m28 0v33.5h2v-33.5h-2m12 2v31.5h2v-31.5h-2m-48 3v26.5l2 2v-28.5h-2m60 8v20.5h2v-20.5h-2m-8 5v15.5h2v-15.5h-2m4 14v1.5h2v-1.5h-2"/><path d="m4 0v25h2v-25h-2m8 0v30h2v-30h-2zm12 0v11h2v-11h-2m4 0v6h2v-6h-2m8 0v9h2v-9h-2m16 0v28h2v-28h-2m4 0v14h2v-14h-2m4 0v33h2v-33h-2m-20 1v37h2v-37h-2m-40 3v30 7h2v-37h-2m48 2v37h2v-37h-2zm-40 1v37h2v-37h-2m12 4v37h2v-37h-2zm8 5v37h2v-37h-2m28 0v37h2v-37h-2m-20 1v37h2v-37h-2m8 3v37h2v-37h-2m-12 2v37h2v-37h-2m-16 5v37h2v-37h-2m8 3v34h2v-34h-2m28 0v34h2v-34h-2m-40 2v32h2v-32h-2m48 3v29h2v-29h-2m-60 8v19l2 2v-21h-2m8 5v16h2v-16h-2zm-4 14v2h2v-2h-2"/></g></g><path d="m0 1v3l2-2" fill="#fff38e" fill-opacity=".552"/><g transform="translate(-1.217-.667)" color="#000"><path d="m45.835526 13.179824a1.0001 1.0001 0 0 0 -.712719 .493421l-14.419 25a1.0001 1.0001 0 0 0 .849781 1.480263h28.893a1.0001 1.0001 0 0 0 .849781 -1.480263l-14.419-25A1.0001 1.0001 0 0 0 45.835526 13.179824M46 16.17l12.719 22.01h-25.439L46 16.17" fill-opacity=".164" fill="#421300"/><path d="m46 18l16.454 28.5h-32.909z" transform="matrix(.87719 0 0 .87719 3.649-3.623)" fill="#f2c02c" stroke="#e1e1e1" stroke-linejoin="round" stroke-linecap="round" stroke-width="2.28"/><path d="m24.22 17.677c-7.168 0-12.99 5.822-12.99 12.99 0 7.168 5.822 12.99 12.99 12.99 7.168 0 12.99-5.822 12.99-12.99 0-7.168-5.822-12.99-12.99-12.99m0 1.98c6.087 0 11.01 4.923 11.01 11.01 0 6.087-4.923 11.01-11.01 11.01-6.087 0-11.01-4.923-11.01-11.01 0-6.087 4.923-11.01 11.01-11.01" fill-opacity=".164" fill="#421300"/><path d="M36 23.5A12.5 12.5 0 0 1 23.5 36 12.5 12.5 0 0 1 11 23.5 12.5 12.5 0 0 1 23.5 11 12.5 12.5 0 0 1 36 23.5" transform="matrix(.96 0 0 .96-.343 6.107)" fill="#3992df" stroke="#e1e1e1" stroke-linejoin="round" stroke-linecap="round" stroke-width="2.083"/><path d="m25.125 33.65625a1.0001 1.0001 0 0 0 -.90625 1v22a1.0001 1.0001 0 0 0 1 1h22a1.0001 1.0001 0 0 0 1 -1v-22a1.0001 1.0001 0 0 0 -1 -1h-22a1.0001 1.0001 0 0 0 -.09375 0m1.094 2h20v20h-20v-20" fill-opacity=".164" fill="#421300"/><path fill="#d95a20" stroke="#e1e1e1" stroke-linejoin="round" stroke-linecap="round" stroke-width="2" d="m23.22 32.667h22v22h-22z"/></g></svg>