<svg xmlns="http://www.w3.org/2000/svg" viewBox="0 0 64 64"><g color="#000"><path d="m0 4v30 28l2 2h30 30l2-2v-28-30h-32-32" fill="#eeb015"/><path d="m2 0l-2 1v3h32 32v-3l-2-1h-30-30" fill="#ffe231"/></g><path d="m64 6l-2-2 2-1" fill="#700" fill-opacity=".108"/><path d="m0 6l2-2-2-1" fill="#fff77d" fill-opacity=".674"/><path d="m29.878 17.1c-4.879.651-9.242 3.541-11.741 7.869-4.415 7.647-1.776 17.443 5.87 21.857 7.647 4.415 17.443 1.776 21.857-5.87 3.932-6.81 2.253-15.334-3.56-20.234l3.122-3.372h-9.742v9.742l3.247-2.998.5-.5c4.613 3.623 5.955 10.132 2.935 15.363-3.311 5.735-10.627 7.683-16.362 4.371-5.735-3.311-7.683-10.627-4.371-16.362 1.8-3.118 4.891-5.213 8.368-5.808v-4.059c-.041.005-.084-.005-.125 0m.125 9.867v11.99h3.997v-11.99z" fill="#700" fill-opacity=".418"/><path d="m29.875 17.09c-4.879.651-9.251 3.547-11.75 7.875-3.832 6.638-2.335 14.893 3.125 19.844-4.628-5.01-5.712-12.631-2.125-18.844 2.348-4.067 6.354-6.856 10.875-7.719v-1.156c-.041.005-.084-.005-.125 0m5.813.25v9.75l1-.938v-7.813h7.813l.938-1h-9.75m7.656 4.344l-.031.031c.142.12.269.251.406.375-.126-.136-.244-.274-.375-.406m-2.344 3.406c3.306 3.744 4.02 9.298 1.375 13.875-3.311 5.735-10.64 7.686-16.375 4.375-.717-.414-1.373-.909-1.969-1.438.833.941 1.819 1.774 2.969 2.438 5.735 3.311 13.06 1.36 16.375-4.375 2.889-5 1.765-11.177-2.375-14.875m-11 1.875v12h1v-11h3v-1h-4" fill="#400000" fill-opacity=".108"/></svg>