<?xml version="1.0" encoding="UTF-8" standalone="no"?>
<!-- Created with Inkscape (http://www.inkscape.org/) -->

<svg
   xmlns:dc="http://purl.org/dc/elements/1.1/"
   xmlns:cc="http://creativecommons.org/ns#"
   xmlns:rdf="http://www.w3.org/1999/02/22-rdf-syntax-ns#"
   xmlns:svg="http://www.w3.org/2000/svg"
   xmlns="http://www.w3.org/2000/svg"
   xmlns:sodipodi="http://sodipodi.sourceforge.net/DTD/sodipodi-0.dtd"
   xmlns:inkscape="http://www.inkscape.org/namespaces/inkscape"
   id="svg27665"
   height="15.99997"
   width="15.99997"
   version="1.1"
   inkscape:version="0.48.3.1 r9886"
   sodipodi:docname="haguichi-disconnected.svg">
  <defs
     id="defs7" />
  <sodipodi:namedview
     pagecolor="#ffffff"
     bordercolor="#666666"
     borderopacity="1"
     objecttolerance="10"
     gridtolerance="10"
     guidetolerance="10"
     inkscape:pageopacity="0"
     inkscape:pageshadow="2"
     inkscape:window-width="640"
     inkscape:window-height="480"
     id="namedview5"
     showgrid="false"
     inkscape:zoom="14.750027"
     inkscape:cx="7.9999851"
     inkscape:cy="7.9999851"
     inkscape:window-x="0"
     inkscape:window-y="26"
     inkscape:window-maximized="0"
     inkscape:current-layer="svg27665" />
  <metadata
     id="metadata27670">
    <rdf:RDF>
      <cc:Work
         rdf:about="">
        <dc:format>image/svg+xml</dc:format>
        <dc:type
           rdf:resource="http://purl.org/dc/dcmitype/StillImage" />
        <dc:title />
      </cc:Work>
    </rdf:RDF>
  </metadata>
  <path
     id="path3770"
     d="m 10.5,1.0000004 c -1.3807,0 -2.5,1.1193 -2.5,2.5 0,0.2643 0.049,0.5109 0.125,0.75 l -2.1875,1.6875 -0.031,0 c -0.399,-0.2696 -0.8884,-0.4375 -1.4062,-0.4375 -1.3807,0 -2.5,1.1193 -2.5,2.5 0,1.3807 1.1193,2.4999996 2.5,2.4999996 0.5178,0 1.0072,-0.1679 1.4062,-0.4375 l 0.031,0 L 8.125,11.75 C 8.049,11.9891 8,12.2357 8,12.5 8,13.8807 9.1193,15 10.5,15 11.8807,15 13,13.8807 13,12.5 13,11.1193 11.8807,10 10.5,10 9.9339,10 9.4191,10.2141 9,10.5313 L 6.8437,8.8750004 c 0.1032,-0.274 0.1563,-0.5649 0.1563,-0.875 0,-0.3101 -0.053,-0.601 -0.1563,-0.875 L 9,5.4688004 c 0.4191,0.3171 0.9339,0.5312 1.5,0.5312 1.3807,0 2.5,-1.1193 2.5,-2.5 0,-1.3807 -1.1193,-2.5 -2.5,-2.5 z"
     style="color:#000000;fill:#8a929e;fill-opacity:0.60931899;fill-rule:nonzero;stroke:none;stroke-width:1;marker:none;visibility:visible;display:inline;overflow:visible;enable-background:accumulate"
     inkscape:connector-curvature="0" />
</svg>
