<?xml version="1.0" encoding="UTF-8" standalone="no"?>
<!-- Created with Inkscape (http://www.inkscape.org/) -->

<svg
   xmlns:dc="http://purl.org/dc/elements/1.1/"
   xmlns:cc="http://creativecommons.org/ns#"
   xmlns:rdf="http://www.w3.org/1999/02/22-rdf-syntax-ns#"
   xmlns:svg="http://www.w3.org/2000/svg"
   xmlns="http://www.w3.org/2000/svg"
   xmlns:sodipodi="http://sodipodi.sourceforge.net/DTD/sodipodi-0.dtd"
   xmlns:inkscape="http://www.inkscape.org/namespaces/inkscape"
   width="16.000031"
   height="16.000029"
   id="svg27665"
   version="1.1"
   inkscape:version="0.48.3.1 r9886"
   sodipodi:docname="gnumeric.svg">
  <defs
     id="defs27667" />
  <sodipodi:namedview
     id="base"
     pagecolor="#ffffff"
     bordercolor="#666666"
     borderopacity="1.0"
     inkscape:pageopacity="0.0"
     inkscape:pageshadow="2"
     inkscape:zoom="31.678384"
     inkscape:cx="8.1545358"
     inkscape:cy="8.1703915"
     inkscape:document-units="px"
     inkscape:current-layer="layer1"
     showgrid="true"
     inkscape:window-width="1920"
     inkscape:window-height="1033"
     inkscape:window-x="-10"
     inkscape:window-y="25"
     inkscape:window-maximized="1"
     inkscape:snap-bbox="true"
     inkscape:bbox-paths="true"
     inkscape:bbox-nodes="true"
     inkscape:snap-bbox-edge-midpoints="true"
     inkscape:snap-bbox-midpoints="true"
     inkscape:object-paths="true"
     inkscape:snap-intersection-paths="true"
     inkscape:object-nodes="true"
     inkscape:snap-smooth-nodes="true"
     inkscape:snap-midpoints="true"
     inkscape:snap-object-midpoints="true"
     inkscape:snap-center="true"
     inkscape:snap-global="true"
     showguides="false"
     inkscape:guide-bbox="true"
     fit-margin-top="0"
     fit-margin-left="0"
     fit-margin-right="0"
     fit-margin-bottom="0"
     inkscape:showpageshadow="false">
    <sodipodi:guide
       orientation="0,1"
       position="-1494.2276,523.03618"
       id="guide4179" />
    <sodipodi:guide
       orientation="1,0"
       position="-1492.0847,520.17904"
       id="guide4181" />
    <inkscape:grid
       type="xygrid"
       id="grid4279"
       empspacing="5"
       visible="true"
       enabled="true"
       snapvisiblegridlinesonly="true"
       originx="6.6056504e-05px"
       originy="592.00001px" />
  </sodipodi:namedview>
  <metadata
     id="metadata27670">
    <rdf:RDF>
      <cc:Work
         rdf:about="">
        <dc:format>image/svg+xml</dc:format>
        <dc:type
           rdf:resource="http://purl.org/dc/dcmitype/StillImage" />
        <dc:title />
      </cc:Work>
    </rdf:RDF>
  </metadata>
  <g
     inkscape:label="Camada 1"
     inkscape:groupmode="layer"
     id="layer1"
     transform="translate(3393.2465,-1650.2411)">
    <rect
       style="opacity:0.00100002;fill:#ffffff;fill-opacity:1;fill-rule:nonzero;stroke:none"
       id="rect4544"
       width="16"
       height="16"
       x="-3393.2466"
       y="1650.2411" />
    <path
       id="path3788"
       d="m -3392.2465,1651.2411 0,2 4,0 0,-2 -4,0 z m 5,0 0,2 4,0 0,-2 -4,0 z m 5,0 0,2 4,0 0,-2 -4,0 z m -10,3 0,2 4,0 0,-2 -4,0 z m 0,3 0,2 4,0 0,-2 -4,0 z m 0,3 0,2 4,0 0,-2 -4,0 z m 0,3 0,2 4,0 0,-2 -4,0 z"
       style="color:#000000;fill:#434a55;fill-opacity:0.6745098;fill-rule:nonzero;stroke:none;stroke-width:1;marker:none;visibility:visible;display:inline;overflow:visible;enable-background:accumulate"
       inkscape:connector-curvature="0" />
    <path
       style="font-size:medium;font-style:normal;font-variant:normal;font-weight:normal;font-stretch:normal;text-indent:0;text-align:start;text-decoration:none;line-height:normal;letter-spacing:normal;word-spacing:normal;text-transform:none;direction:ltr;block-progression:tb;writing-mode:lr-tb;text-anchor:start;baseline-shift:baseline;color:#000000;fill:#d1d4d6;fill-opacity:0.74329164000000003;fill-rule:nonzero;stroke:none;stroke-width:2;marker:none;visibility:visible;display:inline;overflow:visible;enable-background:accumulate;font-family:Sans;-inkscape-font-specification:Sans"
       d="M 0 0 L 0 1 L 0 3 L 0 4 L 0 6 L 0 7 L 0 9 L 0 10 L 0 12 L 0 13 L 0 15 L 0 16 L 1 16 L 5 16 L 6 16 L 6 15 L 6 13 L 6 12 L 6 10 L 6 9 L 6 7 L 6 6 L 6 4 L 10 4 L 11 4 L 15 4 L 16 4 L 16 3 L 16 1 L 16 0 L 15 0 L 11 0 L 10 0 L 6 0 L 5 0 L 1 0 L 0 0 z M 1 1 L 5 1 L 5 3 L 1 3 L 1 1 z M 6 1 L 10 1 L 10 3 L 6 3 L 6 1 z M 11 1 L 15 1 L 15 3 L 11 3 L 11 1 z M 1 4 L 5 4 L 5 6 L 1 6 L 1 4 z M 1 7 L 5 7 L 5 9 L 1 9 L 1 7 z M 1 10 L 5 10 L 5 12 L 1 12 L 1 10 z M 1 13 L 5 13 L 5 15 L 1 15 L 1 13 z "
       transform="translate(-3393.2465,1650.2411)"
       id="rect3018" />
    <path
       style="color:#000000;fill:#8a929e;fill-opacity:0.60931899000000000;fill-rule:nonzero;stroke:none;stroke-width:1;marker:none;visibility:visible;display:inline;overflow:visible;enable-background:accumulate"
       d="M 6 4 L 6 6 L 10 6 L 10 4 L 6 4 z M 11 4 L 11 6 L 15 6 L 15 4 L 11 4 z M 6 7 L 6 9 L 10 9 L 10 7 L 6 7 z M 11 7 L 11 9 L 15 9 L 15 7 L 11 7 z M 6 10 L 6 12 L 10 12 L 10 10 L 6 10 z M 11 10 L 11 12 L 15 12 L 15 10 L 11 10 z M 6 13 L 6 15 L 10 15 L 10 13 L 6 13 z M 11 13 L 11 15 L 15 15 L 15 13 L 11 13 z "
       transform="translate(-3393.2465,1650.2411)"
       id="rect3028" />
    <path
       sodipodi:type="arc"
       style="color:#000000;fill:#434a55;fill-opacity:0.6745098;fill-rule:nonzero;stroke:none;stroke-width:1;marker:none;visibility:visible;display:inline;overflow:visible;enable-background:accumulate"
       id="path3805"
       sodipodi:cx="11.500066"
       sodipodi:cy="11.500019"
       sodipodi:rx="3.5"
       sodipodi:ry="3.5"
       d="m 15.000066,11.500019 a 3.5,3.5 0 1 1 -1.75,-3.0310888 l -1.75,3.0310888 z"
       transform="translate(-3393.2465,1650.2411)"
       sodipodi:start="0"
       sodipodi:end="5.2359878" />
    <path
       style="font-size:medium;font-style:normal;font-variant:normal;font-weight:normal;font-stretch:normal;text-indent:0;text-align:start;text-decoration:none;line-height:normal;letter-spacing:normal;word-spacing:normal;text-transform:none;direction:ltr;block-progression:tb;writing-mode:lr-tb;text-anchor:start;baseline-shift:baseline;color:#000000;fill:#d1d4d6;fill-opacity:0.74329164;fill-rule:nonzero;stroke:none;stroke-width:2;marker:none;visibility:visible;display:inline;overflow:visible;enable-background:accumulate;font-family:Sans;-inkscape-font-specification:Sans"
       d="M 11.5 6.71875 C 8.8658955 6.71875 6.71875 8.8658955 6.71875 11.5 C 6.71875 14.134105 8.8658955 16.28125 11.5 16.28125 C 14.134105 16.28125 16.28125 14.134105 16.28125 11.5 C 16.281249 11.488451 16.281818 11.449035 16.28125 11.4375 C 16.280682 11.425965 16.282383 11.386493 16.28125 11.375 C 16.280117 11.363507 16.282945 11.323924 16.28125 11.3125 C 16.279555 11.301076 16.283504 11.261327 16.28125 11.25 C 16.278996 11.238673 16.252807 11.198702 16.25 11.1875 C 16.247193 11.176298 16.253353 11.136051 16.25 11.125 C 16.246647 11.113949 16.222641 11.073373 16.21875 11.0625 C 16.214859 11.051627 16.19192 11.010669 16.1875 11 C 16.18308 10.989331 16.161188 10.94794 16.15625 10.9375 C 16.151312 10.92706 16.161694 10.885185 16.15625 10.875 C 16.150806 10.864815 16.130938 10.853656 16.125 10.84375 C 16.119062 10.833844 16.068916 10.790852 16.0625 10.78125 C 16.056084 10.771648 16.03813 10.728026 16.03125 10.71875 C 16.02437 10.709474 16.007327 10.696427 16 10.6875 C 15.992673 10.678573 15.976506 10.633557 15.96875 10.625 C 15.960994 10.616443 15.914416 10.601916 15.90625 10.59375 C 15.898084 10.585584 15.883557 10.539006 15.875 10.53125 C 15.866443 10.523494 15.821427 10.507327 15.8125 10.5 C 15.803573 10.492673 15.790526 10.47563 15.78125 10.46875 C 15.771974 10.46187 15.728352 10.443916 15.71875 10.4375 C 15.709148 10.431084 15.666156 10.380938 15.65625 10.375 C 15.646344 10.369062 15.635185 10.349194 15.625 10.34375 C 15.614815 10.338306 15.57294 10.348688 15.5625 10.34375 C 15.55206 10.338812 15.510669 10.31692 15.5 10.3125 C 15.489331 10.30808 15.448373 10.285141 15.4375 10.28125 C 15.426627 10.277359 15.386051 10.253353 15.375 10.25 C 15.363949 10.246647 15.323702 10.252807 15.3125 10.25 C 15.301298 10.247193 15.261327 10.221004 15.25 10.21875 C 15.238673 10.216496 15.198924 10.220445 15.1875 10.21875 C 15.176076 10.217055 15.136493 10.219883 15.125 10.21875 C 15.113507 10.217617 15.074035 10.219318 15.0625 10.21875 C 15.050965 10.218182 15.011549 10.218751 15 10.21875 L 13.75 10.21875 L 14.375 9.125 C 14.380865 9.1149181 14.400892 9.0728602 14.40625 9.0625 C 14.411608 9.0521398 14.432662 9.0106129 14.4375 9 C 14.442338 8.9893871 14.464444 8.9483396 14.46875 8.9375 C 14.473056 8.9266604 14.496236 8.8860396 14.5 8.875 C 14.503764 8.8639604 14.496788 8.8237126 14.5 8.8125 C 14.503212 8.8012874 14.528597 8.761358 14.53125 8.75 C 14.533903 8.738642 14.529163 8.6989755 14.53125 8.6875 C 14.533337 8.6760245 14.529734 8.6365648 14.53125 8.625 C 14.532766 8.6134352 14.561559 8.5741256 14.5625 8.5625 C 14.563441 8.5508744 14.562137 8.511658 14.5625 8.5 C 14.562863 8.488342 14.562715 8.4491617 14.5625 8.4375 C 14.562285 8.4258383 14.563292 8.3866367 14.5625 8.375 C 14.561708 8.3633633 14.532618 8.3240831 14.53125 8.3125 C 14.529882 8.3009169 14.53319 8.2615011 14.53125 8.25 C 14.52931 8.2384989 14.533758 8.1988909 14.53125 8.1875 C 14.528742 8.1761091 14.503069 8.1362527 14.5 8.125 C 14.496931 8.1137473 14.503623 8.0735868 14.5 8.0625 C 14.496377 8.0514132 14.472918 8.0108936 14.46875 8 C 14.464582 7.9891064 14.442202 7.9481738 14.4375 7.9375 C 14.432798 7.9268262 14.411475 7.8854277 14.40625 7.875 C 14.401025 7.8645723 14.380736 7.8539059 14.375 7.84375 C 14.369264 7.8335941 14.349982 7.7911093 14.34375 7.78125 C 14.337518 7.7713907 14.319213 7.7282884 14.3125 7.71875 C 14.305787 7.7092116 14.288427 7.6654441 14.28125 7.65625 C 14.274073 7.6470559 14.257624 7.6338272 14.25 7.625 C 14.242376 7.6161728 14.195552 7.5709386 14.1875 7.5625 C 14.179448 7.5540614 14.16471 7.5392793 14.15625 7.53125 C 14.14779 7.5232207 14.102597 7.4763502 14.09375 7.46875 C 14.084903 7.4611498 14.071713 7.4446525 14.0625 7.4375 C 14.053287 7.4303475 14.009556 7.4129372 14 7.40625 C 13.990444 7.3995628 13.947376 7.3812055 13.9375 7.375 C 13.927624 7.3687945 13.916421 7.3494585 13.90625 7.34375 C 13.175801 6.9219265 12.33925 6.71875 11.5 6.71875 z M 11.5 8 C 12.114378 8 12.717933 8.1615608 13.25 8.46875 L 11.5 11.5 L 15 11.5 C 15 13.432997 13.432997 15 11.5 15 C 9.5670034 15 8 13.432997 8 11.5 C 8 9.5670034 9.5670034 8 11.5 8 z "
       transform="translate(-3393.2465,1650.2411)"
       id="path3803" />
  </g>
</svg>
