<?xml version="1.0" encoding="UTF-8" standalone="no"?>
<!-- Created with Inkscape (http://www.inkscape.org/) -->

<svg
   xmlns:dc="http://purl.org/dc/elements/1.1/"
   xmlns:cc="http://creativecommons.org/ns#"
   xmlns:rdf="http://www.w3.org/1999/02/22-rdf-syntax-ns#"
   xmlns:svg="http://www.w3.org/2000/svg"
   xmlns="http://www.w3.org/2000/svg"
   xmlns:sodipodi="http://sodipodi.sourceforge.net/DTD/sodipodi-0.dtd"
   xmlns:inkscape="http://www.inkscape.org/namespaces/inkscape"
   version="1.1"
   width="16"
   height="16"
   id="svg13094"
   inkscape:version="0.48.3.1 r9886"
   sodipodi:docname="media-playlist-shuffle.svg">
  <sodipodi:namedview
     pagecolor="#ffffff"
     bordercolor="#666666"
     borderopacity="1"
     objecttolerance="10"
     gridtolerance="10"
     guidetolerance="10"
     inkscape:pageopacity="0"
     inkscape:pageshadow="2"
     inkscape:window-width="1920"
     inkscape:window-height="1032"
     id="namedview6"
     showgrid="true"
     inkscape:snap-bbox="true"
     inkscape:bbox-paths="true"
     inkscape:bbox-nodes="true"
     inkscape:snap-bbox-edge-midpoints="true"
     inkscape:snap-bbox-midpoints="true"
     inkscape:object-paths="true"
     inkscape:snap-intersection-paths="true"
     inkscape:object-nodes="true"
     inkscape:snap-smooth-nodes="true"
     inkscape:snap-midpoints="true"
     inkscape:snap-object-midpoints="true"
     inkscape:snap-center="true"
     inkscape:zoom="41.7193"
     inkscape:cx="9.9759933"
     inkscape:cy="8.1680034"
     inkscape:window-x="-7"
     inkscape:window-y="25"
     inkscape:window-maximized="1"
     inkscape:current-layer="svg13094"
     inkscape:snap-global="true">
    <inkscape:grid
       type="xygrid"
       id="grid2983" />
  </sodipodi:namedview>
  <defs
     id="defs7" />
  <metadata
     id="metadata13099">
    <rdf:RDF>
      <cc:Work
         rdf:about="">
        <dc:format>image/svg+xml</dc:format>
        <dc:type
           rdf:resource="http://purl.org/dc/dcmitype/StillImage" />
        <dc:title />
      </cc:Work>
    </rdf:RDF>
  </metadata>
  <path
     sodipodi:nodetypes="ccccccccccccccccccccccccccccccccccccc"
     inkscape:connector-curvature="0"
     id="path3002"
     d="M 12,1 12,3 10,3 9.53125,3 9.21875,3.375 1.53125,11 0,11 0,13 2,13 2.46875,13 2.78125,12.625 10.46875,5 12,5 12,7 15,4 z M 0,3 0,5 1.53125,5 3.8082422,6.8394922 5.2093409,5.4614697 2.78125,3.375 2.46875,3 2,3 z M 8.332212,8.7530225 7.0030225,10.155015 9.21875,12.625 9.53125,13 10,13 l 2,0 0,2 3,-3 -3,-3 0,2 -1.53125,0 z"
     style="font-size:medium;font-style:normal;font-variant:normal;font-weight:normal;font-stretch:normal;text-indent:0;text-align:start;text-decoration:none;line-height:normal;letter-spacing:normal;word-spacing:normal;text-transform:none;direction:ltr;block-progression:tb;writing-mode:lr-tb;text-anchor:start;baseline-shift:baseline;color:#000000;fill:#434a55;fill-opacity:0.6745119;stroke:none;stroke-width:2;marker:none;visibility:visible;display:inline;overflow:visible;enable-background:accumulate;font-family:Sans;-inkscape-font-specification:Sans" />
  <path
     style="font-size:medium;font-style:normal;font-variant:normal;font-weight:normal;font-stretch:normal;text-indent:0;text-align:start;text-decoration:none;line-height:normal;letter-spacing:normal;word-spacing:normal;text-transform:none;direction:ltr;block-progression:tb;writing-mode:lr-tb;text-anchor:start;baseline-shift:baseline;color:#000000;fill:#d1d4d6;fill-opacity:0.74329164000000003;fill-rule:nonzero;stroke:none;stroke-width:2;marker:none;visibility:visible;display:inline;overflow:visible;enable-background:accumulate;font-family:Sans;-inkscape-font-specification:Sans"
     d="M 12 -0.6875 L 12 1 L 15 4 L 12 7 L 12 8 L 12.4375 8 L 12.96875 7.96875 L 15.96875 4.96875 L 16.40625 4 L 15.96875 3.03125 L 12.96875 0.03125 L 12 -0.6875 z M -1 2 L -1 3 L -1 5 L -1 6 L 0 6 L 0.9375 6.25 L 2 7.09375 L 2.90625 6.15625 L 1.53125 5 L 0 5 L 0 3 L 2 3 L 2.46875 3 L 2.78125 3.375 L 4.34375 4.6875 L 5.0625 3.96875 L 3.5625 2.75 L 3.5 2.6875 L 3.4375 2.625 L 3.25 2.375 L 2.9375 2 L 2.46875 2 L 2 2 L 0 2 L -1 2 z M 9.0625 2 L 8.5 2.125 L 8.25 2.40625 L 0.84375 9.75 L 0 10 L -1 10 L -1 11 L -1 13 L -1 14 L 0 14 L 2 14 L 2.46875 14 L 2.9375 14 L 3.5 13.875 L 3.75 13.59375 L 11 6 L 12 6 L 12 5 L 10.46875 5 L 2.78125 12.625 L 2.46875 13 L 2 13 L 0 13 L 0 11 L 1.53125 11 L 9.21875 3.375 L 9.53125 3 L 10 3 L 12 3 L 12 2 L 11 2 L 10 2 L 9.53125 2 L 9.0625 2 z M 9.84375 8.75 L 9.0625 9.53125 L 10.46875 11 L 12 11 L 12 10 L 11 10 L 9.84375 8.75 z M 12 9 L 15 12 L 12 15 L 12 16.6875 L 12.96875 15.96875 L 15.96875 12.96875 L 16.40625 12 L 15.96875 11.03125 L 13.9375 9 L 12 9 z M 7.78125 10.96875 L 6.90625 11.84375 L 8.1875 13.5 L 8.21875 13.53125 L 8.5 13.875 L 9.0625 14 L 9.53125 14 L 10 14 L 11 14 L 12 14 L 12 13 L 10 13 L 9.53125 13 L 9.21875 12.625 L 7.78125 10.96875 z "
     id="path3753" />
</svg>
