<?xml version="1.0" encoding="UTF-8" standalone="no"?>
<!-- Created with Inkscape (http://www.inkscape.org/) -->
<svg xmlns:dc="http://purl.org/dc/elements/1.1/" xmlns:cc="http://creativecommons.org/ns#" xmlns:rdf="http://www.w3.org/1999/02/22-rdf-syntax-ns#" xmlns:svg="http://www.w3.org/2000/svg" xmlns="http://www.w3.org/2000/svg" xmlns:sodipodi="http://sodipodi.sourceforge.net/DTD/sodipodi-0.dtd" xmlns:inkscape="http://www.inkscape.org/namespaces/inkscape" width="18" height="18" id="svg27665" version="1.1" inkscape:version="0.48.3.1 r9886" sodipodi:docname="document-encrypt.svg">
  <defs id="defs27667"/>
  <sodipodi:namedview id="base" pagecolor="#ffffff" bordercolor="#666666" borderopacity="1.0" inkscape:pageopacity="0.0" inkscape:pageshadow="2" inkscape:zoom="64" inkscape:cx="9.7439358" inkscape:cy="8.9091044" inkscape:document-units="px" inkscape:current-layer="layer1" showgrid="true" inkscape:window-width="1920" inkscape:window-height="1023" inkscape:window-x="-10" inkscape:window-y="35" inkscape:window-maximized="1" inkscape:snap-bbox="true" inkscape:bbox-paths="true" inkscape:bbox-nodes="true" inkscape:snap-bbox-edge-midpoints="true" inkscape:snap-bbox-midpoints="true" inkscape:object-paths="true" inkscape:snap-intersection-paths="true" inkscape:object-nodes="true" inkscape:snap-smooth-nodes="true" inkscape:snap-midpoints="true" inkscape:snap-object-midpoints="true" inkscape:snap-center="true" inkscape:snap-global="true" showguides="false" inkscape:guide-bbox="true" fit-margin-top="0" fit-margin-left="0" fit-margin-right="0" fit-margin-bottom="0" inkscape:showpageshadow="false">
    <sodipodi:guide orientation="0,1" position="599.99999,299.99993" id="guide3572"/>
    <sodipodi:guide orientation="1,0" position="294.41949,12.121716" id="guide3574"/>
    <sodipodi:guide orientation="0,1" position="456.04389,599.99992" id="guide3576"/>
    <sodipodi:guide orientation="0,1" position="-2.8882813e-06,-8.4406273e-05" id="guide3578"/>
    <sodipodi:guide orientation="1,0" position="-2.8882813e-06,157.58366" id="guide3580"/>
    <sodipodi:guide orientation="1,0" position="599.99999,121.21821" id="guide3582"/>
    <sodipodi:guide orientation="0,1" position="599.99999,-714.34359" id="guide5928"/>
    <sodipodi:guide orientation="0,1" position="599.99999,-414.34359" id="guide5930"/>
    <sodipodi:guide orientation="0,1" position="599.99999,-1014.3435" id="guide5932"/>
    <sodipodi:guide orientation="0,1" position="451.57029,524.99606" id="guide5294"/>
    <sodipodi:guide orientation="0,1" position="451.57029,75.013516" id="guide5296"/>
    <sodipodi:guide orientation="0,1" position="496.01499,-931.36409" id="guide5413"/>
    <sodipodi:guide orientation="0,1" position="457.34859,-489.34389" id="guide5415"/>
    <inkscape:grid type="xygrid" id="grid3070" empspacing="5" visible="true" enabled="true" snapvisiblegridlinesonly="true" originx="4.3243213e-05px" originy="-2.6947047e-05px"/>
  </sodipodi:namedview>
  <metadata id="metadata27670">
    <rdf:RDF>
      <cc:Work rdf:about="">
        <dc:format>image/svg+xml</dc:format>
        <dc:type rdf:resource="http://purl.org/dc/dcmitype/StillImage"/>
        <dc:title/>
      </cc:Work>
    </rdf:RDF>
  </metadata>
  <g inkscape:label="Camada 1" inkscape:groupmode="layer" id="layer1" transform="translate(3364.4171,-2100.7186)">
    <path style="color:#000000;fill:#EDEFF3;fill-opacity:0.758;fill-rule:nonzero;stroke:none;stroke-width:4;marker:none;visibility:visible;display:inline;overflow:visible;enable-background:accumulate" d="M 8,1 C 5.798,1 4,2.7979 4,5 L 4,7 5,7 5,5 C 5,3.764 6.4478,2.1875 8,2.1875 c 1.5521859,0 3,1.576532 3,2.8125 l 0,2 1,0 0,-2 C 12,2.7979 10.202,1 8,1 z m -4,7 -1,1 0,5 1,1 8,0 1,-1 0,-5 -1,-1 z" id="rect2998" inkscape:connector-curvature="0" sodipodi:nodetypes="ssccsssccssccccccccc" transform="translate(-3363.4171,2101.7186)"/>
    <path style="color:#000000;fill:#485462;fill-opacity:0.7;fill-rule:nonzero;stroke:none;stroke-width:2;marker:none;visibility:visible;display:inline;overflow:visible;enable-background:accumulate" d="M 8 0 C 5 0 3 2 3 5 L 3 6 L 4 6 L 4 5 C 4 4.6519 4.034 4.30785 4.125 3.96875 C 4.6053 2.17615 6.2259 1 8 1 C 9.7740699 0.99622 11.39468 2.1761701 11.875 3.96875 C 11.965865 4.3078635 12 4.6519145 12 5 L 12 6 L 13 6 L 13 5 C 13 2.0000269 11.000043 0 8 0 z M 3 7 L 2 8 L 2 15 L 3 16 L 13 16 L 14 15 L 14 8 L 13 7 L 3 7 z M 3 8 L 13 8 L 13 15 L 3 15 L 3 8 z " transform="translate(-3363.4171,2101.7186)" id="rect3812"/>
  </g>
</svg>
