<?xml version="1.0" encoding="UTF-8" standalone="no"?>
<!-- Created with Inkscape (http://www.inkscape.org/) -->

<svg
   xmlns:dc="http://purl.org/dc/elements/1.1/"
   xmlns:cc="http://creativecommons.org/ns#"
   xmlns:rdf="http://www.w3.org/1999/02/22-rdf-syntax-ns#"
   xmlns:svg="http://www.w3.org/2000/svg"
   xmlns="http://www.w3.org/2000/svg"
   xmlns:sodipodi="http://sodipodi.sourceforge.net/DTD/sodipodi-0.dtd"
   xmlns:inkscape="http://www.inkscape.org/namespaces/inkscape"
   version="1.1"
   width="64"
   height="64"
   id="svg13094"
   inkscape:version="0.48.4 r9939"
   sodipodi:docname="dialog-information.svg">
  <sodipodi:namedview
     pagecolor="#ffffff"
     bordercolor="#000000"
     borderopacity="0.09019608"
     objecttolerance="10"
     gridtolerance="10"
     guidetolerance="10"
     inkscape:pageopacity="0"
     inkscape:pageshadow="2"
     inkscape:window-width="1920"
     inkscape:window-height="1017"
     id="namedview43"
     showgrid="true"
     inkscape:showpageshadow="false"
     showborder="true"
     inkscape:snap-bbox="true"
     inkscape:bbox-paths="true"
     inkscape:bbox-nodes="true"
     inkscape:snap-bbox-edge-midpoints="true"
     inkscape:snap-bbox-midpoints="true"
     inkscape:object-paths="true"
     inkscape:snap-intersection-paths="true"
     inkscape:object-nodes="true"
     inkscape:snap-smooth-nodes="true"
     inkscape:snap-midpoints="true"
     inkscape:snap-object-midpoints="true"
     inkscape:snap-center="true"
     showguides="true"
     inkscape:guide-bbox="true"
     inkscape:zoom="10.429825"
     inkscape:cx="14.531299"
     inkscape:cy="32.313119"
     inkscape:window-x="-5"
     inkscape:window-y="26"
     inkscape:window-maximized="1"
     inkscape:current-layer="svg13094">
    <inkscape:grid
       type="xygrid"
       id="grid3020"
       empspacing="5"
       visible="true"
       enabled="true"
       snapvisiblegridlinesonly="true" />
    <sodipodi:guide
       orientation="1,0"
       position="0,24"
       id="guide3022" />
    <sodipodi:guide
       orientation="1,0"
       position="64,22"
       id="guide3024" />
    <sodipodi:guide
       orientation="0,1"
       position="32,64"
       id="guide3026" />
    <sodipodi:guide
       orientation="0,1"
       position="30,0"
       id="guide3028" />
    <sodipodi:guide
       orientation="0,1"
       position="32,60"
       id="guide3030" />
    <sodipodi:guide
       orientation="0,1"
       position="23,55"
       id="guide3032" />
    <sodipodi:guide
       orientation="1,0"
       position="7,49"
       id="guide3034" />
    <sodipodi:guide
       orientation="1,0"
       position="57,48"
       id="guide3036" />
    <sodipodi:guide
       orientation="0,1"
       position="31,5"
       id="guide3038" />
    <sodipodi:guide
       orientation="1,0"
       position="12,33.491525"
       id="guide3012" />
    <sodipodi:guide
       orientation="1,0"
       position="52,38.372881"
       id="guide3014" />
    <sodipodi:guide
       orientation="0,1"
       position="29.288136,10"
       id="guide3018" />
    <sodipodi:guide
       orientation="1,0"
       position="32,64"
       id="guide3039" />
    <sodipodi:guide
       orientation="0,1"
       position="32,30"
       id="guide3043" />
  </sodipodi:namedview>
  <defs
     id="defs13096" />
  <metadata
     id="metadata13099">
    <rdf:RDF>
      <cc:Work
         rdf:about="">
        <dc:format>image/svg+xml</dc:format>
        <dc:type
           rdf:resource="http://purl.org/dc/dcmitype/StillImage" />
        <dc:title />
      </cc:Work>
    </rdf:RDF>
  </metadata>
  <path
     id="path6538"
     d="m 0,4 0,30 0,28 2,2 30,0 30,0 2,-2 L 64,34 64,4 32,4 0,4 z"
     style="color:#000000;fill:#479bf0;fill-opacity:1;fill-rule:nonzero;stroke:none;stroke-width:2.28571415000000000;marker:none;visibility:visible;display:inline;overflow:visible;enable-background:accumulate"
     inkscape:connector-curvature="0" />
  <path
     id="path3838"
     d="M 0,3 V 6 L 2,4 z"
     inkscape:connector-curvature="0"
     style="color:#000000;fill:#7cccff;fill-opacity:1" />
  <path
     style="color:#000000;fill:#7cccff;fill-opacity:1"
     inkscape:connector-curvature="0"
     d="M 4,3 V 6 L 2,4 z"
     id="path27" />
  <path
     id="path6538-8"
     d="m 0,4 0,30 0,28 2,2 30,0 30,0 2,-2 L 64,34 64,4 32,4 0,4 z"
     style="color:#000000;fill:#2a80e3;fill-opacity:1;fill-rule:nonzero;stroke:none;stroke-width:2.28571415000000000;marker:none;visibility:visible;display:inline;overflow:visible;enable-background:accumulate"
     inkscape:connector-curvature="0" />
  <path
     inkscape:connector-curvature="0"
     style="color:#000000;fill:#66b9ff;fill-opacity:1;fill-rule:nonzero;stroke:none;marker:none;visibility:visible;display:inline;overflow:visible;enable-background:accumulate"
     d="M 2,0 0,1 0,4 19.5625,4 39.125,4 64,4 64,1 62,0 39.125,0 19.5625,0 2,0 z"
     id="path6688-8" />
  <path
     id="path3840"
     d="M 0,3 V 6 L 2,4 z"
     inkscape:connector-curvature="0"
     style="color:#000000;fill:#7cccff;fill-opacity:1" />
  <path
     style="color:#000000;fill:#4397ee;fill-opacity:1"
     inkscape:connector-curvature="0"
     d="M 64,3 V 6 L 62,4 z"
     id="path27-5" />
  <path
     style="font-size:medium;font-style:normal;font-variant:normal;font-weight:normal;font-stretch:normal;text-indent:0;text-align:start;text-decoration:none;line-height:normal;letter-spacing:normal;word-spacing:normal;text-transform:none;direction:ltr;block-progression:tb;writing-mode:lr-tb;text-anchor:start;baseline-shift:baseline;color:#000000;fill:#ffffff;fill-opacity:0.83141762;stroke:none;stroke-width:2;marker:none;visibility:visible;display:inline;overflow:visible;enable-background:accumulate;font-family:Sans;-inkscape-font-specification:Sans"
     d="M 30.625,14.0625 C 24.218927,14.516918 18.135578,18.027753 14.6875,24 9.1705745,33.555595 12.444405,45.795575 22,51.3125 a 1.0001,1.0001 0 1 0 1,-1.71875 C 14.380475,44.617265 11.429765,33.619525 16.40625,25 21.382735,16.380475 32.380475,13.429765 41,18.40625 49.619525,23.382735 52.570235,34.380475 47.59375,43 44.548901,48.273833 39.034023,51.532526 33,51.875 L 33,38 a 1.0001,1.0001 0 1 0 -2,0 l 0,15 a 1.0001,1.0001 0 0 0 1,1 C 39.143709,54 45.740646,50.186633 49.3125,44 54.829425,34.444405 51.555595,22.204425 42,16.6875 38.416652,14.618653 34.468644,13.789849 30.625,14.0625 z M 32,25 c -2.197294,0 -4,1.802706 -4,4 0,2.197294 1.802706,4 4,4 2.197294,0 4,-1.802706 4,-4 0,-2.197294 -1.802706,-4 -4,-4 z m 0,2 c 1.116414,0 2,0.883586 2,2 0,1.116414 -0.883586,2 -2,2 -1.116414,0 -2,-0.883586 -2,-2 0,-1.116414 0.883586,-2 2,-2 z"
     id="path3800"
     inkscape:connector-curvature="0" />
</svg>
