<?xml version="1.0" encoding="UTF-8" standalone="no"?>
<!-- Created with Inkscape (http://www.inkscape.org/) -->

<svg
   xmlns:dc="http://purl.org/dc/elements/1.1/"
   xmlns:cc="http://creativecommons.org/ns#"
   xmlns:rdf="http://www.w3.org/1999/02/22-rdf-syntax-ns#"
   xmlns:svg="http://www.w3.org/2000/svg"
   xmlns="http://www.w3.org/2000/svg"
   xmlns:sodipodi="http://sodipodi.sourceforge.net/DTD/sodipodi-0.dtd"
   xmlns:inkscape="http://www.inkscape.org/namespaces/inkscape"
   width="64"
   height="64"
   id="svg13094"
   version="1.1"
   inkscape:version="0.91+devel r"
   sodipodi:docname="screen-recorder.svg">
  <sodipodi:namedview
     id="base"
     pagecolor="#ffffff"
     bordercolor="#666666"
     borderopacity="1.0"
     inkscape:pageopacity="0"
     inkscape:pageshadow="2"
     inkscape:zoom="8.0000004"
     inkscape:cx="31.98868"
     inkscape:cy="32.966993"
     inkscape:document-units="px"
     inkscape:current-layer="svg13094"
     showgrid="true"
     inkscape:snap-bbox="true"
     inkscape:bbox-paths="true"
     inkscape:bbox-nodes="true"
     inkscape:snap-bbox-edge-midpoints="true"
     inkscape:snap-bbox-midpoints="true"
     inkscape:object-paths="true"
     inkscape:snap-intersection-paths="true"
     inkscape:object-nodes="true"
     inkscape:snap-smooth-nodes="true"
     inkscape:snap-midpoints="true"
     inkscape:snap-object-midpoints="true"
     inkscape:snap-center="true"
     showguides="false"
     inkscape:guide-bbox="true"
     inkscape:window-width="1920"
     inkscape:window-height="1023"
     inkscape:window-x="-10"
     inkscape:window-y="35"
     inkscape:window-maximized="1"
     inkscape:snap-global="true"
     fit-margin-top="0"
     fit-margin-left="0"
     fit-margin-right="0"
     fit-margin-bottom="0"
     showborder="true"
     inkscape:showpageshadow="false"
     inkscape:snap-page="true">
    <inkscape:grid
       type="xygrid"
       id="grid3075"
       empspacing="5"
       visible="true"
       enabled="true"
       snapvisiblegridlinesonly="true"
       originx="1.6362304e-08px"
       originy="18px" />
  </sodipodi:namedview>
  <defs
     id="defs13096" />
  <metadata
     id="metadata13099">
    <rdf:RDF>
      <cc:Work
         rdf:about="">
        <dc:format>image/svg+xml</dc:format>
        <dc:type
           rdf:resource="http://purl.org/dc/dcmitype/StillImage" />
        <dc:title></dc:title>
      </cc:Work>
    </rdf:RDF>
  </metadata>
  <path
     style="fill:#225ca6;fill-opacity:1;fill-rule:nonzero;opacity:1;stroke:none;stroke-width:0.50427212;stroke-linecap:butt;stroke-linejoin:miter;stroke-miterlimit:4;stroke-dasharray:none;stroke-dashoffset:0;stroke-opacity:1;marker:none"
     d="M 0,0 0,64 64,64 64,0 5,0 4,0 3,0 z m 6,6 8,0 0,6 -8,0 z m 11,0 8,0 0,6 -8,0 z m 11,0 8,0 0,6 -8,0 z m 11,0 8,0 0,6 -8,0 z m 11,0 8,0 0,6 -8,0 z m -44,48 8,0 0,6 -8,0 z m 11,0 8,0 0,6 -8,0 z m 11,0 8,0 0,6 -8,0 z m 11,0 8,0 0,6 -8,0 z m 11,0 8,0 0,6 -8,0 z"
     id="path3960"
     inkscape:connector-curvature="0"
     sodipodi:nodetypes="cccccccccccccccccccccccccccccccccccccccccccccccccccccccccc" />
  <g
     id="g3043"
     inkscape:export-filename="folder.png"
     inkscape:export-xdpi="90"
     inkscape:export-ydpi="90"
     transform="translate(-0.62500009,0.082283)" />
  <g
     id="scalable"
     transform="matrix(1.0385892,0,0,1.0385892,1214.7222,1878.8121)"
     inkscape:label="#g3701"
     style="fill:#ffffff" />
  <path
     d="M 1.6362304e-8,2 64,2 64,0 1.6362304e-8,0 z"
     id="path4253"
     style="color:#000000;fill:#60a8ff;fill-opacity:1;fill-rule:nonzero;stroke-width:1;stroke-linecap:butt;stroke-linejoin:miter;stroke-miterlimit:4;stroke-opacity:1;stroke-dasharray:none;stroke-dashoffset:0;marker:none;visibility:visible;display:inline;overflow:visible;enable-background:accumulate"
     inkscape:connector-curvature="0"
     sodipodi:nodetypes="ccccc" />
  <path
     style="color:#000000;display:inline;overflow:visible;visibility:visible;fill:#2c8fe4;fill-opacity:1;fill-rule:nonzero;stroke:none;stroke-width:1.00000002;marker:none;enable-background:accumulate;opacity:1;stroke-linecap:butt;stroke-linejoin:miter;stroke-miterlimit:4;stroke-dasharray:none;stroke-dashoffset:0;stroke-opacity:1"
     d="M 3 16 L 3 20.53125 L 3 29.875 L 3 39.1875 L 3 48.53125 L 3 50 L 4.9375 50 L 10.84375 50 L 14.78125 50 L 20.15625 50 L 24.625 50 L 29.46875 50 L 29.53125 50 L 38.8125 50 L 39.375 50 L 48.125 50 L 49.21875 50 L 57.46875 50 L 59.0625 50 L 61 50 L 61 46.46875 L 61 37.125 L 61 27.8125 L 61 18.46875 L 61 17 L 61 16 L 59.0625 16 L 54.15625 16 L 49.21875 16 L 44.84375 16 L 39.375 16 L 35.53125 16 L 29.53125 16 L 26.1875 16 L 19.6875 16 L 16.875 16 L 9.84375 16 L 7.53125 16 L 4.9375 16 L 3 16 z "
     id="rect3776" />
  <path
     style="color:#000000;fill:#6ce3ff;fill-opacity:0.177102;fill-rule:nonzero;stroke:none;stroke-width:1.00000002;marker:none;visibility:visible;display:inline;overflow:visible;enable-background:accumulate;opacity:1;stroke-linecap:butt;stroke-linejoin:miter;stroke-miterlimit:4;stroke-dasharray:none;stroke-dashoffset:0;stroke-opacity:1"
     d="M 3 16 L 3 50 L 27.75 50 L 40.78125 16 L 3 16 z "
     id="rect3776-4" />
  <path
     style="color:#000000;display:inline;overflow:visible;visibility:visible;fill:#6db2ff;fill-opacity:1;fill-rule:nonzero;stroke:none;stroke-width:1;marker:none;enable-background:accumulate"
     d="m 6,11 0,2 8,0 0,-2 z m 11,0 0,2 8,0 0,-2 z m 11,0 0,2 8,0 0,-2 z m 11,0 0,2 8,0 0,-2 z m 11,0 0,2 8,0 0,-2 z m -44,48 0,2 8,0 0,-2 z m 11,0 0,2 8,0 0,-2 z m 11,0 0,2 8,0 0,-2 z m 11,0 0,2 8,0 0,-2 z m 11,0 0,2 8,0 0,-2 z"
     id="path3913"
     inkscape:connector-curvature="0"
     sodipodi:nodetypes="cccccccccccccccccccccccccccccccccccccccccccccccccc" />
  <path
     style="color:#000000;display:inline;overflow:visible;visibility:visible;fill:#ffffff;fill-opacity:0.33243731;fill-rule:nonzero;stroke:none;stroke-width:1;marker:none;enable-background:accumulate"
     d="M 0,1 1.6362304e-8,4 2,2 Z"
     id="rect4604"
     inkscape:connector-curvature="0"
     sodipodi:nodetypes="cccc" />
  <g
     transform="matrix(1.0017143,0,0,1.0017143,-0.0549897,-1.058774)"
     id="g4164"
     style="stroke-width:0.99828863">
    <path
       inkscape:connector-curvature="0"
       id="path3088-6-3"
       d="m 32,22.625 c -6.282239,0 -11.375,5.092761 -11.375,11.375 0,6.282239 5.092761,11.375 11.375,11.375 6.282239,0 11.375,-5.092761 11.375,-11.375 0,-6.282239 -5.092761,-11.375 -11.375,-11.375 z m 0,2.3125 c 5.013034,0 9.0625,4.049466 9.0625,9.0625 0,5.013034 -4.049466,9.0625 -9.0625,9.0625 -5.013034,0 -9.0625,-4.049466 -9.0625,-9.0625 0,-5.013034 4.049466,-9.0625 9.0625,-9.0625 z"
       style="color:#000000;display:inline;overflow:visible;visibility:visible;fill:#225ca6;fill-opacity:1;fill-rule:evenodd;stroke:none;stroke-width:1.33105111;marker:none;enable-background:accumulate" />
    <g
       transform="matrix(0.99828866,0,0,0.99828866,0.0548958,1.0569613)"
       id="g4930" />
    <g
       id="g4159"
       style="stroke-width:0.99828863">
      <path
         inkscape:connector-curvature="0"
         transform="matrix(0.24999998,0,0,0.24999998,23.750001,25.25)"
         style="color:#000000;display:inline;overflow:visible;visibility:visible;fill:#4a3366;fill-opacity:1;fill-rule:evenodd;stroke:none;stroke-width:1.33105111;marker:none;enable-background:accumulate"
         d="M 57,35 A 24,24 0 0 1 33,59 24,24 0 0 1 9,35 24,24 0 0 1 33,11 24,24 0 0 1 57,35 Z"
         id="path4054" />
      <ellipse
         transform="rotate(-45)"
         id="path3915-1"
         style="color:#000000;display:inline;overflow:visible;visibility:visible;fill:#ca6eff;fill-opacity:1;fill-rule:evenodd;stroke:none;stroke-width:0.10262971;marker:none;enable-background:accumulate"
         cx="-1.4142126"
         cy="49.977867"
         rx="2.982878"
         ry="2.0297203" />
      <ellipse
         ry="50.551888"
         rx="24"
         cy="35"
         cx="33"
         transform="matrix(0.10876194,-0.10876194,0.04185866,0.04185866,25.945806,34.749092)"
         id="path4050"
         style="color:#000000;display:inline;overflow:visible;visibility:visible;fill:#93d2ff;fill-opacity:1;fill-rule:evenodd;stroke:none;stroke-width:1.33105111;marker:none;enable-background:accumulate" />
    </g>
  </g>
  <path
     inkscape:connector-curvature="0"
     style="color:#000000;display:inline;overflow:visible;visibility:visible;opacity:1;fill:#e72f6a;fill-opacity:1;fill-rule:nonzero;stroke:none;stroke-width:0.99999994;stroke-linecap:butt;stroke-linejoin:miter;stroke-miterlimit:4;stroke-dasharray:none;stroke-dashoffset:0;stroke-opacity:1;marker:none;enable-background:accumulate"
     d="m 6,19 0,4 1,0 0,-3 3,0 0,-1 L 7,19 6.6660156,19 6,19 Z"
     id="path4999" />
  <path
     inkscape:connector-curvature="0"
     id="path5001"
     d="m 6,47 0,-4 1,0 0,3 3,0 0,1 L 7,47 6.6660156,47 6,47 Z"
     style="color:#000000;display:inline;overflow:visible;visibility:visible;opacity:1;fill:#e72f6a;fill-opacity:1;fill-rule:nonzero;stroke:none;stroke-width:0.99999994;stroke-linecap:butt;stroke-linejoin:miter;stroke-miterlimit:4;stroke-dasharray:none;stroke-dashoffset:0;stroke-opacity:1;marker:none;enable-background:accumulate" />
  <path
     style="color:#000000;display:inline;overflow:visible;visibility:visible;opacity:1;fill:#e72f6a;fill-opacity:1;fill-rule:nonzero;stroke:none;stroke-width:0.99999994;stroke-linecap:butt;stroke-linejoin:miter;stroke-miterlimit:4;stroke-dasharray:none;stroke-dashoffset:0;stroke-opacity:1;marker:none;enable-background:accumulate"
     d="m 58,47 0,-4 -1,0 0,3 -3,0 0,1 3,0 0.333984,0 L 58,47 Z"
     id="rect4994"
     inkscape:connector-curvature="0" />
  <g
     style="font-style:normal;font-variant:normal;font-weight:bold;font-stretch:normal;font-size:16px;line-height:125%;font-family:'Open Sans';-inkscape-font-specification:'Open Sans Bold';letter-spacing:0px;word-spacing:0px;fill:#e72f6a;fill-opacity:1;stroke:none;stroke-width:2.82518816px;stroke-linecap:butt;stroke-linejoin:miter;stroke-opacity:1"
     id="text5003"
     transform="matrix(0.35395873,0,0,0.35395873,33.518776,6.4648836)">
    <path
       d="m 43.859375,40.648437 0.78125,0 q 1.148437,0 1.695312,-0.382812 0.546875,-0.382813 0.546875,-1.203125 0,-0.8125 -0.5625,-1.15625 Q 45.765625,37.5625 44.59375,37.5625 l -0.734375,0 0,3.085937 z m 0,1.96875 0,4.382813 -2.421875,0 0,-11.421875 3.328125,0 q 2.328125,0 3.445312,0.851562 1.117188,0.84375 1.117188,2.570313 0,1.007812 -0.554688,1.796875 -0.554687,0.78125 -1.570312,1.226562 Q 49.78125,45.875 50.5625,47 l -2.6875,0 -2.726563,-4.382813 -1.289062,0 z"
       id="path5008"
       inkscape:connector-curvature="0"
       style="stroke-width:7.98168802px;fill:#e72f6a;fill-opacity:1" />
    <path
       d="M 58.578125,47 52,47 l 0,-11.421875 6.578125,0 0,1.984375 -4.15625,0 0,2.507812 3.867187,0 0,1.984375 -3.867187,0 0,2.945313 4.15625,0 0,2 z"
       id="path5010"
       inkscape:connector-curvature="0"
       style="stroke-width:7.98168802px;fill:#e72f6a;fill-opacity:1" />
    <path
       d="m 65.820312,37.429687 q -1.367187,0 -2.117187,1.03125 -0.75,1.023438 -0.75,2.859375 0,3.820313 2.867187,3.820313 1.203125,0 2.914063,-0.601563 l 0,2.03125 q -1.40625,0.585938 -3.140625,0.585938 -2.492188,0 -3.8125,-1.507813 -1.320313,-1.515625 -1.320313,-4.34375 0,-1.78125 0.648438,-3.117187 0.648437,-1.34375 1.859375,-2.054688 1.21875,-0.71875 2.851562,-0.71875 1.664063,0 3.34375,0.804688 l -0.78125,1.96875 Q 67.742187,37.882812 67.09375,37.65625 66.445312,37.429687 65.820312,37.429687 Z"
       id="path5012"
       inkscape:connector-curvature="0"
       style="stroke-width:7.98168802px;fill:#e72f6a;fill-opacity:1" />
  </g>
  <circle
     r="1.5"
     cy="21.078125"
     cx="45"
     id="path4886"
     style="color:#000000;display:inline;overflow:visible;visibility:visible;fill:#e72f6a;fill-opacity:1;fill-rule:nonzero;stroke:none;stroke-width:2.82518815px;marker:none;enable-background:accumulate;opacity:1;stroke-linecap:butt;stroke-linejoin:miter;stroke-miterlimit:4;stroke-dasharray:none;stroke-dashoffset:0;stroke-opacity:1" />
</svg>
