<?xml version="1.0" encoding="UTF-8" standalone="no"?>
<!-- Created with Inkscape (http://www.inkscape.org/) -->

<svg
   xmlns:dc="http://purl.org/dc/elements/1.1/"
   xmlns:cc="http://creativecommons.org/ns#"
   xmlns:rdf="http://www.w3.org/1999/02/22-rdf-syntax-ns#"
   xmlns:svg="http://www.w3.org/2000/svg"
   xmlns="http://www.w3.org/2000/svg"
   xmlns:sodipodi="http://sodipodi.sourceforge.net/DTD/sodipodi-0.dtd"
   xmlns:inkscape="http://www.inkscape.org/namespaces/inkscape"
   width="64"
   height="64"
   id="svg13094"
   version="1.1"
   inkscape:version="0.91+devel r"
   sodipodi:docname="viber.svg">
  <sodipodi:namedview
     id="base"
     pagecolor="#ffffff"
     bordercolor="#666666"
     borderopacity="1.0"
     inkscape:pageopacity="0"
     inkscape:pageshadow="2"
     inkscape:zoom="11.313709"
     inkscape:cx="32.163785"
     inkscape:cy="33.623094"
     inkscape:document-units="px"
     inkscape:current-layer="svg13094"
     showgrid="false"
     inkscape:snap-bbox="true"
     inkscape:bbox-paths="true"
     inkscape:bbox-nodes="true"
     inkscape:snap-bbox-edge-midpoints="true"
     inkscape:snap-bbox-midpoints="true"
     inkscape:object-paths="true"
     inkscape:snap-intersection-paths="true"
     inkscape:object-nodes="true"
     inkscape:snap-smooth-nodes="true"
     inkscape:snap-midpoints="true"
     inkscape:snap-object-midpoints="true"
     inkscape:snap-center="true"
     showguides="true"
     inkscape:guide-bbox="true"
     inkscape:window-width="1920"
     inkscape:window-height="1023"
     inkscape:window-x="-10"
     inkscape:window-y="35"
     inkscape:window-maximized="1"
     inkscape:snap-global="false"
     fit-margin-top="0"
     fit-margin-left="0"
     fit-margin-right="0"
     fit-margin-bottom="0"
     showborder="true"
     inkscape:showpageshadow="false"
     inkscape:snap-page="true">
    <inkscape:grid
       type="xygrid"
       id="grid3075"
       empspacing="5"
       visible="true"
       enabled="true"
       snapvisiblegridlinesonly="true"
       originx="0px"
       originy="18px" />
  </sodipodi:namedview>
  <defs
     id="defs13096" />
  <metadata
     id="metadata13099">
    <rdf:RDF>
      <cc:Work
         rdf:about="">
        <dc:format>image/svg+xml</dc:format>
        <dc:type
           rdf:resource="http://purl.org/dc/dcmitype/StillImage" />
        <dc:title></dc:title>
      </cc:Work>
    </rdf:RDF>
  </metadata>
  <path
     inkscape:connector-curvature="0"
     style="color:#000000;fill:#813bb8;fill-opacity:1;fill-rule:nonzero;stroke:none;stroke-width:2.28571415;marker:none;visibility:visible;display:inline;overflow:visible;enable-background:accumulate"
     d="m 0,4 0,30 0,28 2,2 30,0 30,0 2,-2 L 64,34 64,4 32,4 0,4 z"
     id="path3443" />
  <path
     inkscape:connector-curvature="0"
     style="color:#000000;fill:#c174ff;fill-opacity:1;fill-rule:nonzero;stroke:none;stroke-width:2.28571415000000000;marker:none;visibility:visible;display:inline;overflow:visible;enable-background:accumulate"
     d="M 2,0 0,1 0,4 32,4 64,4 64,1 62,0 32,0 2,0 z"
     id="path3447" />
  <path
     style="fill:#ffffff;fill-opacity:0.14487634;fill-rule:nonzero"
     d="M 0,3 0,6 2,4 Z"
     id="path4298"
     inkscape:connector-curvature="0"
     sodipodi:nodetypes="cccc" />
  <path
     d="M 64,6 62,4 64,3 z"
     id="path3028"
     style="fill:#1f0700;fill-opacity:0.13759861"
     inkscape:connector-curvature="0" />
  <g
     id="g3043"
     inkscape:export-filename="folder.png"
     inkscape:export-xdpi="90"
     inkscape:export-ydpi="90"
     transform="translate(-0.625,0.082283)" />
  <g
     id="scalable"
     transform="matrix(1.0385892,0,0,1.0385892,1214.7222,1878.8121)"
     inkscape:label="#g3701"
     style="fill:#ffffff" />
  <path
     style="color:#000000;font-style:normal;font-variant:normal;font-weight:normal;font-stretch:normal;font-size:medium;line-height:normal;font-family:sans-serif;text-indent:0;text-align:start;text-decoration:none;text-decoration-line:none;text-decoration-style:solid;text-decoration-color:#000000;letter-spacing:normal;word-spacing:normal;text-transform:none;direction:ltr;block-progression:tb;writing-mode:lr-tb;baseline-shift:baseline;text-anchor:start;white-space:normal;shape-padding:0;clip-rule:nonzero;display:inline;overflow:visible;visibility:visible;opacity:1;isolation:auto;mix-blend-mode:normal;color-interpolation:sRGB;color-interpolation-filters:linearRGB;solid-color:#000000;solid-opacity:1;fill:#ffffff;fill-opacity:0.82110912;fill-rule:nonzero;stroke:none;stroke-width:1;stroke-linecap:butt;stroke-linejoin:miter;stroke-miterlimit:4;stroke-dasharray:none;stroke-dashoffset:0;stroke-opacity:1;marker:none;color-rendering:auto;image-rendering:auto;shape-rendering:auto;text-rendering:auto;enable-background:accumulate"
     d="m 32.70359,10.744141 c -1.930322,-0.03829 -3.856042,0.01381 -5.408203,0.162109 l -0.002,0 C 20.309016,11.575781 14.822436,13.714374 11.912528,18.226562 9.4103163,22.106332 8.606871,26.707051 8.7250281,33.75 c 0.057243,3.413903 0.2207677,4.944367 0.7500002,7.066406 1.1716967,4.6981 4.0964367,8.406836 8.1283947,10.448888 1.052321,0.532966 1.406506,0.6194 1.553914,0.68831 l 1.691173,8.597944 7.432789,-6.610128 3.726904,-0.02734 c 4.370486,-0.07085 7.026003,-0.390806 10.603516,-1.291015 2.713628,-0.683324 4.655952,-1.487308 6.349609,-2.761719 3.490065,-2.62597 5.370711,-6.839065 5.939453,-11.916016 1.029686,-9.185969 0.112326,-16.755957 -4.171875,-21.595703 -2.871226,-3.243942 -7.333914,-4.532637 -12.591797,-5.230468 -1.568342,-0.207999 -3.503271,-0.33671 -5.433594,-0.375 z m -0.07227,3.517578 c 1.84861,0.03646 3.703328,0.148245 5.044922,0.326172 4.764634,0.632367 8.764383,2.198346 10.43164,4.082031 3.113127,3.516815 4.289167,10.208584 3.316407,18.886719 -0.504903,4.507077 -1.96947,7.552373 -4.56836,9.507812 -1.332698,1.002804 -2.56206,1.52557 -5.097656,2.164063 -3.401016,0.855797 -5.560328,1.11671 -9.806641,1.185546 l -3.167969,0.05273 -3.521484,3.800781 c -1.937647,2.090196 -3.535119,3.798828 -3.548828,3.798828 -0.02917,0 -0.0568,-0.02945 -0.0918,-0.06445 l 0,-0.002 c -0.035,-0.035 -0.06445,-2.005486 -0.06445,-4.378906 0,-3.338597 -0.02872,-4.33674 -0.119141,-4.408203 -0.06709,-0.04959 -0.468179,-0.212659 -0.892578,-0.359375 -3.976798,-1.375866 -6.542683,-4.347351 -7.673828,-8.884766 -0.491776,-1.971773 -0.590191,-2.92008 -0.646484,-6.277344 -0.113758,-6.780742 0.588587,-10.404771 2.628906,-13.568359 2.065402,-3.202673 6.325798,-5.114347 12.773437,-5.732422 1.312717,-0.125424 3.155297,-0.165366 5.003907,-0.128906 z m -0.589844,6.408203 c -0.62473,-0.01594 -0.871383,0.08872 -1.025391,0.365234 -0.128339,0.227513 -0.128339,0.284994 0,0.513672 0.204178,0.360228 0.294622,0.389769 1.59961,0.50586 4.266731,0.380061 7.618734,3.000204 8.855468,6.921874 0.288765,0.912965 0.548829,2.54603 0.548829,3.439454 0,0.487109 0.04267,0.682806 0.197265,0.880859 0.259598,0.329601 0.656015,0.335854 0.957032,0.0293 l 0,-0.01563 C 43.390139,33.080119 43.398619,33.033723 43.33445,32 c -0.122507,-2.022234 -0.573367,-3.761941 -1.376953,-5.318359 -0.581615,-1.125894 -1.172246,-1.888382 -2.275391,-2.929688 -1.8656,-1.76147 -4.126008,-2.755204 -6.878906,-3.027344 -0.30335,-0.0299 -0.553476,-0.04937 -0.761724,-0.05469 z m -8.945313,0.353516 c -0.51657,0.03792 -0.666827,0.104493 -1.515624,0.679687 -2.280081,1.546791 -2.892522,2.472566 -2.591797,3.914063 0.297516,1.427202 1.720912,4.533994 3.052734,6.662109 2.34046,3.739661 5.796403,7.304748 9.431641,9.732422 2.594224,1.732596 6.452794,3.595436 7.46289,3.601562 0.189594,0 0.577433,-0.06776 0.863282,-0.152343 l 0.002,0 c 0.716664,-0.212928 1.380247,-0.665469 2.126953,-1.449219 0.674954,-0.708501 1.091363,-1.274672 1.435547,-1.953125 0.271266,-0.536695 0.287926,-1.340898 0.03125,-1.779297 -0.370729,-0.6382 -3.428819,-2.955979 -4.958985,-3.757813 -0.490902,-0.256681 -0.714885,-0.316698 -1.189453,-0.316406 -0.845003,8.74e-4 -1.191291,0.209858 -1.984375,1.205078 -0.418855,0.525028 -0.792855,0.895184 -0.988281,0.976563 -1.183648,0.493527 -3.752781,-0.848541 -5.867188,-3.064453 -1.379075,-1.444994 -2.303838,-3.208311 -2.310547,-4.40625 0,-0.728915 0.148207,-1.004173 0.892579,-1.595704 0.891089,-0.70908 1.396527,-1.292117 1.472656,-1.697265 0.137092,-0.723663 -0.442073,-1.925169 -1.789063,-3.712891 -1.793848,-2.381586 -2.516198,-2.963431 -3.576172,-2.886718 z m 9.773443,2.597656 c -0.337399,-0.0066 -0.591915,0.03898 -0.712891,0.148437 -0.233346,0.212928 -0.227513,0.727808 0,0.94336 0.113756,0.09917 0.45787,0.201403 0.869141,0.253906 1.836141,0.230429 2.990711,0.755028 4.117188,1.873047 1.242275,1.232942 1.719508,2.292956 1.86914,4.15039 0.07292,0.91559 0.116324,1.082294 0.296875,1.230469 0.280016,0.224595 0.628592,0.218635 0.867188,-0.0293 l 0.0078,0.0078 c 0.157509,-0.157508 0.193359,-0.321338 0.193359,-0.908203 0,-1.367991 -0.422655,-2.883469 -1.130859,-4.050782 -0.491765,-0.810569 -1.6736,-1.975041 -2.488269,-2.453109 -1.119623,-0.656722 -2.876475,-1.146341 -3.888672,-1.166015 z m 0.738281,3.009765 c -0.435268,-0.01285 -0.643853,0.111157 -0.755859,0.404297 -0.110839,0.292556 1.68e-4,0.675269 0.259766,0.802735 0.09334,0.04959 0.413104,0.118331 0.705078,0.15625 0.687496,0.0875 1.226016,0.335874 1.611328,0.742187 0.394063,0.41623 0.583421,0.878425 0.699218,1.699219 0.06709,0.480109 0.14619,0.700254 0.300782,0.824219 0.280016,0.224596 0.561934,0.212742 0.832031,-0.04102 l -0.002,-0.002 c 0.256681,-0.23918 0.289278,-0.638342 0.117187,-1.449219 -0.371021,-1.739302 -1.476482,-2.786936 -3.251953,-3.080078 -0.200604,-0.03354 -0.370535,-0.05236 -0.515625,-0.05664 z"
     id="path4224"
     inkscape:connector-curvature="0"
     sodipodi:nodetypes="scccssscccccccccssccccccccsccscccsccssccccscccccccscccccccccccccccccccccscccsccccsscssccccccccccscccc" />
</svg>
