<?xml version="1.0" encoding="UTF-8" standalone="no"?>
<!-- Created with Inkscape (http://www.inkscape.org/) -->

<svg
   xmlns:dc="http://purl.org/dc/elements/1.1/"
   xmlns:cc="http://creativecommons.org/ns#"
   xmlns:rdf="http://www.w3.org/1999/02/22-rdf-syntax-ns#"
   xmlns:svg="http://www.w3.org/2000/svg"
   xmlns="http://www.w3.org/2000/svg"
   xmlns:xlink="http://www.w3.org/1999/xlink"
   xmlns:sodipodi="http://sodipodi.sourceforge.net/DTD/sodipodi-0.dtd"
   xmlns:inkscape="http://www.inkscape.org/namespaces/inkscape"
   id="svg13094"
   height="64"
   width="64"
   version="1.1"
   inkscape:version="0.48.3.1 r9886"
   sodipodi:docname="folder-activities.svg"
   inkscape:export-filename="folder.png"
   inkscape:export-xdpi="90"
   inkscape:export-ydpi="90">
  <sodipodi:namedview
     pagecolor="#ffffff"
     bordercolor="#666666"
     borderopacity="1"
     objecttolerance="10"
     gridtolerance="10"
     guidetolerance="10"
     inkscape:pageopacity="0"
     inkscape:pageshadow="2"
     inkscape:window-width="1920"
     inkscape:window-height="1023"
     id="namedview46"
     showgrid="false"
     inkscape:snap-bbox="true"
     inkscape:bbox-paths="true"
     inkscape:bbox-nodes="true"
     inkscape:snap-bbox-edge-midpoints="true"
     inkscape:snap-bbox-midpoints="true"
     inkscape:snap-nodes="true"
     inkscape:object-paths="true"
     inkscape:snap-intersection-paths="true"
     inkscape:object-nodes="true"
     inkscape:snap-smooth-nodes="true"
     inkscape:snap-midpoints="true"
     inkscape:snap-object-midpoints="true"
     inkscape:snap-center="true"
     fit-margin-top="0"
     fit-margin-left="0"
     fit-margin-right="0"
     fit-margin-bottom="0"
     inkscape:zoom="10.429825"
     inkscape:cx="30.592292"
     inkscape:cy="27.125209"
     inkscape:window-x="-10"
     inkscape:window-y="35"
     inkscape:window-maximized="1"
     inkscape:current-layer="g3045"
     showguides="true"
     inkscape:guide-bbox="true"
     inkscape:snap-page="true"
     inkscape:snap-global="true"
     showborder="false">
    <inkscape:grid
       type="xygrid"
       id="grid3023"
       empspacing="5"
       visible="true"
       enabled="true"
       snapvisiblegridlinesonly="true"
       originx="-80px"
       originy="-75px" />
  </sodipodi:namedview>
  <defs
     id="defs11">
    <linearGradient
       inkscape:collect="always"
       xlink:href="#linearGradient3969-2"
       id="linearGradient3918-5"
       gradientUnits="userSpaceOnUse"
       x1="29.875"
       y1="64.082283"
       x2="29.875"
       y2="12.082283" />
    <linearGradient
       id="linearGradient3969-2">
      <stop
         style="stop-color:#c1853b;stop-opacity:1"
         offset="0"
         id="stop3971-2" />
      <stop
         id="stop3977-6"
         offset="0.08245245"
         style="stop-color:#d89b45;stop-opacity:1" />
      <stop
         style="stop-color:#e7a953;stop-opacity:1"
         offset="1"
         id="stop3973-3" />
    </linearGradient>
    <linearGradient
       id="linearGradient3841-4-6">
      <stop
         style="stop-color:#c68a35;stop-opacity:1;"
         offset="0"
         id="stop3843-9-6" />
      <stop
         style="stop-color:#d0933d;stop-opacity:1;"
         offset="1"
         id="stop3845-3-4" />
    </linearGradient>
    <linearGradient
       y2="32.976402"
       x2="77.278381"
       y1="48.976402"
       x1="77.278381"
       gradientTransform="translate(-33.625,-31.894117)"
       gradientUnits="userSpaceOnUse"
       id="linearGradient3028"
       xlink:href="#linearGradient3841-4-6"
       inkscape:collect="always" />
  </defs>
  <metadata
     id="metadata13099">
    <rdf:RDF>
      <cc:Work
         rdf:about="">
        <dc:format>image/svg+xml</dc:format>
        <dc:type
           rdf:resource="http://purl.org/dc/dcmitype/StillImage" />
        <dc:title />
      </cc:Work>
    </rdf:RDF>
  </metadata>
  <g
     id="g3043"
     inkscape:export-filename="folder.png"
     inkscape:export-xdpi="90"
     inkscape:export-ydpi="90"
     transform="translate(-0.62500009,0.08228278)" />
  <g
     id="g3045"
     inkscape:export-filename="folder.png"
     inkscape:export-xdpi="90"
     inkscape:export-ydpi="90"
     transform="translate(0.625,-0.082283)">
    <path
       style="fill:url(#linearGradient3028);fill-opacity:1;fill-rule:nonzero;stroke:none"
       d="m 2.375,6.082283 -10e-8,58.000001 57.0000001,-10e-7 4,-4 0,-59 -1,-1 -26,0 -5,4.9999999 -28,1e-7 z"
       id="path3833"
       inkscape:connector-curvature="0"
       sodipodi:nodetypes="cccccccccc" />
    <path
       style="color:#000000;fill:#ffe083;fill-opacity:0.58422941;fill-rule:nonzero;stroke:none;stroke-width:1;marker:none;visibility:visible;display:inline;overflow:visible;enable-background:accumulate"
       d="m 36.375,0.082283 -5,5 -28,0 -1,1 0,1 1,-1 28,0 5,-5 26,0 1,1 0,-1 -1,-1 -26,0 z"
       id="path3800"
       inkscape:connector-curvature="0" />
    <path
       sodipodi:nodetypes="cccccccc"
       id="path3802"
       d="m 57.375,13.082283 0,51 2,0 4,-4 0,-59 -1,-1 0,18 z"
       inkscape:connector-curvature="0"
       style="fill:#3e4959;fill-opacity:0.43171806" />
    <path
       sodipodi:nodetypes="ccccc"
       d="m 6.375,13.082283 51,0 0,31 -51,0 z"
       id="path3920"
       inkscape:connector-curvature="0"
       style="fill:#dcdcdc;fill-opacity:1;fill-rule:nonzero" />
    <path
       inkscape:connector-curvature="0"
       id="path4253"
       d="m 6.375,13.082283 51,0 0,1 -51,0 z"
       style="fill:#ffffff;fill-opacity:0.60159009;fill-rule:nonzero"
       sodipodi:nodetypes="ccccc" />
    <path
       style="color:#000000;fill:#3e4959;fill-opacity:0.22968199;fill-rule:nonzero;stroke-width:1;stroke-linecap:butt;stroke-linejoin:miter;stroke-miterlimit:4;stroke-opacity:1;stroke-dasharray:none;stroke-dashoffset:0;marker:none;visibility:visible;display:inline;overflow:visible;enable-background:accumulate"
       d="m 29.375,13.082283 4,4 2,0 -4,-4 z"
       id="path3982"
       inkscape:connector-curvature="0"
       sodipodi:nodetypes="ccccc" />
    <path
       id="path3916"
       d="m -0.625,13.082283 0,50 1,1 59,0 1,-1 0,-45 -1,-1 -26,1e-6 -5,-5 -28,-10e-7 z"
       inkscape:connector-curvature="0"
       style="fill:url(#linearGradient3918-5);fill-opacity:1;fill-rule:nonzero"
       sodipodi:nodetypes="ccccccccccc"
       inkscape:export-xdpi="90"
       inkscape:export-ydpi="90" />
    <path
       style="fill:#ffe083;fill-opacity:0.58422941;fill-rule:nonzero;color:#000000;stroke:none;stroke-width:1;marker:none;visibility:visible;display:inline;overflow:visible;enable-background:accumulate"
       d="m 0.375,12.082283 -1,1 0,1 1,-1 28,0 5,5 26,0 1,1 0,-1 -1,-1 -26,0 -5,-5 -28,0 z"
       id="path3046"
       inkscape:connector-curvature="0" />
    <path
       id="path3068"
       d="m 28.71875,25.082283 c -2.424645,0 -4.397266,1.853839 -4.625,4.21875 1.072556,0.514267 2.084572,1.209572 2.96875,2.09375 0.884178,0.884178 1.579639,1.89635 2.09375,2.96875 2.365067,-0.227578 4.21875,-2.200355 4.21875,-4.625 0,-2.5774 -2.07885,-4.65625 -4.65625,-4.65625 z m -9.34375,6.21875 c -1.990558,0 -3.981255,0.762505 -5.5,2.28125 -3.037489,3.037489 -3.037489,7.962511 0,11 3.037489,3.037489 7.962511,3.037489 11,0 3.037489,-3.037489 3.037489,-7.962511 0,-11 -1.518745,-1.518745 -3.509442,-2.28125 -5.5,-2.28125 z m -9.78125,12.5 c -2.3649111,0.227733 -4.21875,2.200356 -4.21875,4.625 0,2.5774 2.0788504,4.65625 4.65625,4.65625 2.424645,0 4.397423,-1.853684 4.625,-4.21875 -1.0724,-0.514112 -2.084572,-1.209572 -2.96875,-2.09375 -0.884178,-0.884177 -1.579484,-1.896195 -2.09375,-2.96875 z"
       style="color:#000000;fill:#7a4800;fill-opacity:0.27240142;fill-rule:nonzero;stroke:none;stroke-width:1;marker:none;visibility:visible;display:inline;overflow:visible;enable-background:accumulate"
       inkscape:connector-curvature="0" />
    <path
       style="color:#000000;fill:#181818;fill-opacity:0.09229389000000000;fill-rule:nonzero;stroke:none;stroke-width:1;marker:none;visibility:visible;display:inline;overflow:visible;enable-background:accumulate"
       d="m 28.71875,25.082283 c -2.424645,0 -4.397266,1.853839 -4.625,4.21875 0.365838,0.175411 0.71342,0.375903 1.0625,0.59375 0.400517,-2.16837 2.277969,-3.8125 4.5625,-3.8125 1.037442,0 1.977165,0.335686 2.75,0.90625 -0.846934,-1.147181 -2.210042,-1.90625 -3.75,-1.90625 z m -9.34375,6.21875 c -1.990558,0 -3.981255,0.762505 -5.5,2.28125 -3.037489,3.037489 -3.037489,7.962511 0,11 0.147786,0.147786 0.312463,0.272845 0.46875,0.40625 -2.49169,-3.055017 -2.316396,-7.558604 0.53125,-10.40625 1.518745,-1.518745 3.509442,-2.28125 5.5,-2.28125 1.741738,0 3.480563,0.586611 4.90625,1.75 -0.133405,-0.156287 -0.258464,-0.320964 -0.40625,-0.46875 -1.518745,-1.518745 -3.509442,-2.28125 -5.5,-2.28125 z m 8.3125,0.78125 c 0.59271,0.707955 1.083167,1.47695 1.46875,2.28125 0.136671,-0.01315 0.273253,-0.03794 0.40625,-0.0625 -0.420834,-0.674348 -0.917406,-1.323656 -1.5,-1.90625 -0.116023,-0.116023 -0.254726,-0.202963 -0.375,-0.3125 z M 9.59375,43.801033 c -2.3649111,0.227733 -4.21875,2.200356 -4.21875,4.625 0,1.539958 0.7590693,2.903066 1.90625,3.75 -0.5705641,-0.772835 -0.90625,-1.712558 -0.90625,-2.75 0,-2.28453 1.6441296,-4.161983 3.8125,-4.5625 -0.2178468,-0.349081 -0.4183392,-0.696663 -0.59375,-1.0625 z m 2.78125,3.59375 c 0.109537,0.120274 0.196477,0.258977 0.3125,0.375 0.582594,0.582594 1.231902,1.079166 1.90625,1.5 0.02456,-0.132997 0.04935,-0.269579 0.0625,-0.40625 -0.8043,-0.385584 -1.573295,-0.87604 -2.28125,-1.46875 z"
       id="path3065"
       inkscape:connector-curvature="0" />
    <path
       style="color:#000000;fill:#ffe083;fill-opacity:0.58422940999999995;fill-rule:nonzero;stroke:none;stroke-width:1;marker:none;visibility:visible;display:inline;overflow:visible;enable-background:accumulate;stroke-linecap:butt;stroke-linejoin:miter;stroke-miterlimit:4;stroke-opacity:1;stroke-dasharray:none;stroke-dashoffset:0"
       d="M 33.09375 26.90625 C 33.664314 27.679085 34 28.618808 34 29.65625 C 34 31.940781 32.355985 33.818347 30.1875 34.21875 C 30.405348 34.567831 30.605892 34.915465 30.78125 35.28125 C 33.146317 35.053672 35 33.080895 35 30.65625 C 35 29.116292 34.240931 27.753184 33.09375 26.90625 z M 25.78125 29.8125 C 25.756686 29.94549 25.73191 30.082088 25.71875 30.21875 C 26.523167 30.60445 27.292082 31.094827 28 31.6875 C 27.890459 31.567222 27.803523 31.428523 27.6875 31.3125 C 27.104906 30.729906 26.455597 30.233332 25.78125 29.8125 z M 26.03125 34.09375 C 28.52294 37.148767 28.347646 41.652354 25.5 44.5 C 22.652354 47.347646 18.148767 47.52294 15.09375 45.03125 C 15.227155 45.187537 15.352214 45.352214 15.5 45.5 C 18.537489 48.537489 23.462511 48.537489 26.5 45.5 C 29.537489 42.462511 29.537489 37.537489 26.5 34.5 C 26.352214 34.352214 26.187538 34.227208 26.03125 34.09375 z M 11.21875 44.71875 C 11.082088 44.73191 10.94549 44.756686 10.8125 44.78125 C 11.233332 45.455597 11.729906 46.104907 12.3125 46.6875 C 12.428523 46.803523 12.567222 46.890459 12.6875 47 C 12.094826 46.292082 11.60445 45.523166 11.21875 44.71875 z M 15.21875 49.1875 C 14.818348 51.355984 12.940781 53 10.65625 53 C 9.6188085 53 8.6790845 52.664314 7.90625 52.09375 C 8.7531844 53.240931 10.116292 54 11.65625 54 C 14.080895 54 16.053673 52.146316 16.28125 49.78125 C 15.915465 49.605892 15.567831 49.405348 15.21875 49.1875 z "
       transform="translate(-0.625,0.082283)"
       id="path3773" />
  </g>
</svg>
