<?xml version="1.0" encoding="UTF-8" standalone="no"?>
<!-- Created with Inkscape (http://www.inkscape.org/) -->

<svg
   xmlns:dc="http://purl.org/dc/elements/1.1/"
   xmlns:cc="http://creativecommons.org/ns#"
   xmlns:rdf="http://www.w3.org/1999/02/22-rdf-syntax-ns#"
   xmlns:svg="http://www.w3.org/2000/svg"
   xmlns="http://www.w3.org/2000/svg"
   xmlns:xlink="http://www.w3.org/1999/xlink"
   xmlns:sodipodi="http://sodipodi.sourceforge.net/DTD/sodipodi-0.dtd"
   xmlns:inkscape="http://www.inkscape.org/namespaces/inkscape"
   id="svg13094"
   height="64"
   width="64"
   version="1.1"
   inkscape:version="0.48.3.1 r9886"
   sodipodi:docname="xfce4-workspaces.svg"
   inkscape:export-filename="folder.png"
   inkscape:export-xdpi="90"
   inkscape:export-ydpi="90">
  <sodipodi:namedview
     pagecolor="#ffffff"
     bordercolor="#666666"
     borderopacity="1"
     objecttolerance="10"
     gridtolerance="10"
     guidetolerance="10"
     inkscape:pageopacity="0"
     inkscape:pageshadow="2"
     inkscape:window-width="1920"
     inkscape:window-height="1027"
     id="namedview46"
     showgrid="true"
     inkscape:snap-bbox="true"
     inkscape:bbox-paths="true"
     inkscape:bbox-nodes="true"
     inkscape:snap-bbox-edge-midpoints="true"
     inkscape:snap-bbox-midpoints="true"
     inkscape:snap-nodes="true"
     inkscape:object-paths="true"
     inkscape:snap-intersection-paths="true"
     inkscape:object-nodes="true"
     inkscape:snap-smooth-nodes="true"
     inkscape:snap-midpoints="true"
     inkscape:snap-object-midpoints="true"
     inkscape:snap-center="true"
     fit-margin-top="0"
     fit-margin-left="0"
     fit-margin-right="0"
     fit-margin-bottom="0"
     inkscape:zoom="14.75"
     inkscape:cx="42.473945"
     inkscape:cy="30.078791"
     inkscape:window-x="-10"
     inkscape:window-y="31"
     inkscape:window-maximized="1"
     inkscape:current-layer="svg13094"
     showguides="true"
     inkscape:guide-bbox="true"
     inkscape:snap-page="true"
     inkscape:snap-global="true">
    <inkscape:grid
       type="xygrid"
       id="grid3023"
       empspacing="5"
       visible="true"
       enabled="true"
       snapvisiblegridlinesonly="true"
       originx="-80px"
       originy="-75px" />
  </sodipodi:namedview>
  <defs
     id="defs11">
    <radialGradient
       inkscape:collect="always"
       xlink:href="#linearGradient3889"
       id="radialGradient3895"
       cx="30.956524"
       cy="26.079042"
       fx="30.956524"
       fy="26.079042"
       r="18.34375"
       gradientTransform="matrix(2.2163541,0,0,1.9539255,-29.610619,-31.956505)"
       gradientUnits="userSpaceOnUse" />
    <linearGradient
       inkscape:collect="always"
       id="linearGradient3889">
      <stop
         style="stop-color:#b9f1ff;stop-opacity:0.35573477"
         offset="0"
         id="stop3891" />
      <stop
         style="stop-color:#ffffff;stop-opacity:0;"
         offset="1"
         id="stop3893" />
    </linearGradient>
    <radialGradient
       r="26"
       fy="33.904079"
       fx="58"
       cy="33.904079"
       cx="58"
       gradientTransform="matrix(0,1.7307693,-1.6309173,0,87.29475,-44.384619)"
       gradientUnits="userSpaceOnUse"
       id="radialGradient3817"
       xlink:href="#linearGradient3818-1-1"
       inkscape:collect="always" />
    <linearGradient
       id="linearGradient3818-1-1">
      <stop
         style="stop-color:#72a1e3;stop-opacity:1;"
         offset="0"
         id="stop3820-2-9" />
      <stop
         style="stop-color:#41597d;stop-opacity:1;"
         offset="1"
         id="stop3822-3-9-8" />
    </linearGradient>
    <radialGradient
       inkscape:collect="always"
       xlink:href="#linearGradient3889-2"
       id="radialGradient3895-0"
       cx="30.956524"
       cy="26.079042"
       fx="30.956524"
       fy="26.079042"
       r="18.34375"
       gradientTransform="matrix(2.2163541,0,0,1.9539255,-29.610621,-31.956505)"
       gradientUnits="userSpaceOnUse" />
    <linearGradient
       id="linearGradient3889-2">
      <stop
         style="stop-color:#ffe5b9;stop-opacity:0.29153201;"
         offset="0"
         id="stop3891-3" />
      <stop
         style="stop-color:#ffffff;stop-opacity:0;"
         offset="1"
         id="stop3893-3" />
    </linearGradient>
    <radialGradient
       r="26"
       fy="33.904079"
       fx="58"
       cy="33.904079"
       cx="58"
       gradientTransform="matrix(0,1.7307693,-1.6309173,0,87.29475,-44.384619)"
       gradientUnits="userSpaceOnUse"
       id="radialGradient3817-7"
       xlink:href="#linearGradient3818-1-1-1"
       inkscape:collect="always" />
    <linearGradient
       id="linearGradient3818-1-1-1">
      <stop
         style="stop-color:#e99260;stop-opacity:1;"
         offset="0"
         id="stop3820-2-9-6" />
      <stop
         style="stop-color:#6b3653;stop-opacity:1;"
         offset="1"
         id="stop3822-3-9-6" />
    </linearGradient>
  </defs>
  <metadata
     id="metadata13099">
    <rdf:RDF>
      <cc:Work
         rdf:about="">
        <dc:format>image/svg+xml</dc:format>
        <dc:type
           rdf:resource="http://purl.org/dc/dcmitype/StillImage" />
        <dc:title />
      </cc:Work>
    </rdf:RDF>
  </metadata>
  <path
     sodipodi:nodetypes="ccccccccc"
     inkscape:connector-curvature="0"
     style="color:#000000;fill:#4d5668;fill-opacity:1;fill-rule:nonzero;stroke:none;marker:none;visibility:visible;display:inline;overflow:visible;enable-background:accumulate"
     id="path3812"
     d="M 0,1 2,0 62,0 64,1 64,62 62,64 2,64 0,62 z" />
  <g
     id="g3132">
    <path
       style="color:#000000;fill:url(#radialGradient3817-7);fill-opacity:1;fill-rule:nonzero;stroke:none;stroke-width:1;marker:none;visibility:visible;display:inline;overflow:visible;enable-background:accumulate"
       d="m 6,10 52,0 0,47 -52,0 z"
       id="rect3776"
       inkscape:connector-curvature="0"
       sodipodi:nodetypes="ccccc" />
    <g
       id="g3887"
       transform="matrix(-1.0217841,0.2045926,0.2045926,-1.0217841,57.843243,61.182807)"
       style="opacity:0.64129483">
      <path
         transform="matrix(-1.0195568,-0.20414662,-0.20414662,-1.0195568,71.464733,74.187847)"
         id="path3889"
         d="M 58,26.4375 27.4375,57 35,57 l 7.59375,0 7.5625,0 7.5625,0 L 58,56.71875 58,49.15625 58,41.59375 58,34 58,26.4375 z"
         style="color:#000000;fill:#3b1800;fill-opacity:0.27598566;fill-rule:nonzero;stroke:none;stroke-width:2;marker:none;visibility:visible;display:inline;overflow:visible;enable-background:accumulate"
         inkscape:connector-curvature="0" />
      <path
         id="path3891"
         transform="matrix(-1.0195568,-0.20414662,-0.20414662,-1.0195568,71.464733,74.187847)"
         d="M 44.15625,10 6,48.15625 6,55.71875 6,57 l 6.28125,0 7.5625,0 7.59375,0 L 58,26.4375 58,18.84375 58,11.28125 58,10 l -6.28125,0 -7.5625,0 z"
         style="color:#000000;fill:#2a003b;fill-opacity:0.11917563;fill-rule:nonzero;stroke:none;stroke-width:2;marker:none;visibility:visible;display:inline;overflow:visible;enable-background:accumulate"
         inkscape:connector-curvature="0" />
      <path
         id="path3893"
         transform="matrix(-1.0195568,-0.20414662,-0.20414662,-1.0195568,71.464733,74.187847)"
         d="M 6.28125,10 6,10.28125 6,17.84375 6,25.40625 6,33 6,40.5625 6,48.15625 44.15625,10 36.5625,10 29,10 l -7.59375,0 -7.5625,0 -7.5625,0 z"
         style="color:#000000;fill:#905d71;fill-opacity:0.14695339;fill-rule:nonzero;stroke:none;stroke-width:2;marker:none;visibility:visible;display:inline;overflow:visible;enable-background:accumulate"
         inkscape:connector-curvature="0" />
    </g>
    <g
       style="opacity:0.64129483"
       transform="matrix(-1.0217841,-0.2045926,0.2045926,1.0217841,57.843243,5.8171954)"
       id="g3806">
      <path
         style="color:#000000;fill:#933c00;fill-opacity:0.12903227;fill-rule:nonzero;stroke:none;stroke-width:2;marker:none;visibility:visible;display:inline;overflow:visible;enable-background:accumulate"
         d="M 58,26.4375 27.4375,57 35,57 l 7.59375,0 7.5625,0 7.5625,0 L 58,56.71875 58,49.15625 58,41.59375 58,34 58,26.4375 z"
         id="rect3012"
         transform="matrix(-1.0195568,-0.20414662,-0.20414662,-1.0195568,71.464733,74.187847)"
         inkscape:connector-curvature="0" />
      <path
         style="color:#000000;fill:#271b14;fill-opacity:0.16487457;fill-rule:nonzero;stroke:none;stroke-width:2;marker:none;visibility:visible;display:inline;overflow:visible;enable-background:accumulate"
         d="M 44.15625,10 6,48.15625 6,55.71875 6,57 l 6.28125,0 7.5625,0 7.59375,0 L 58,26.4375 58,18.84375 58,11.28125 58,10 l -6.28125,0 -7.5625,0 z"
         id="rect3020"
         inkscape:connector-curvature="0"
         transform="matrix(-1.0195568,-0.20414662,-0.20414662,-1.0195568,71.464733,74.187847)" />
      <path
         style="color:#000000;fill:#520a1d;fill-opacity:0.24551972;fill-rule:nonzero;stroke:none;stroke-width:2;marker:none;visibility:visible;display:inline;overflow:visible;enable-background:accumulate"
         d="M 6.28125,10 6,10.28125 6,17.84375 6,25.40625 6,33 6,40.5625 6,48.15625 44.15625,10 36.5625,10 29,10 l -7.59375,0 -7.5625,0 -7.5625,0 z"
         transform="matrix(-1.0195568,-0.20414662,-0.20414662,-1.0195568,71.464733,74.187847)"
         id="rect3028"
         inkscape:connector-curvature="0" />
    </g>
  </g>
  <g
     id="g3043"
     inkscape:export-filename="folder.png"
     inkscape:export-xdpi="90"
     inkscape:export-ydpi="90"
     transform="translate(-0.62500009,0.082283)" />
  <path
     d="M 0,1 2,0 62,0 64,1 64,4 0,4 z"
     id="path3029"
     style="color:#000000;fill:#8892a1;fill-opacity:1;fill-rule:nonzero;stroke:none;marker:none;visibility:visible;display:inline;overflow:visible;enable-background:accumulate"
     inkscape:connector-curvature="0"
     sodipodi:nodetypes="ccccccc" />
  <path
     style="fill:#ffffff;fill-opacity:0.04858657;fill-rule:nonzero;stroke:none"
     d="M 0,4 45,4 22,64 0,64 z"
     id="rect5563"
     inkscape:connector-curvature="0"
     sodipodi:nodetypes="ccccc" />
  <path
     style="fill:#000000;fill-opacity:0.0936396;fill-rule:nonzero;stroke:none"
     d="m 5,9 0,47 1,0 0,-46 51,0 0,-1 z"
     id="path3830"
     inkscape:connector-curvature="0"
     sodipodi:nodetypes="ccccccc" />
  <path
     sodipodi:nodetypes="ccccccc"
     inkscape:connector-curvature="0"
     id="path3826"
     d="M 57,56 57,9 56,9 56,55 5,55 5,56 z"
     style="fill:#000000;fill-opacity:0.0715548;fill-rule:nonzero;stroke:none" />
  <path
     sodipodi:nodetypes="ccccccc"
     inkscape:connector-curvature="0"
     id="path3828"
     d="m 6,10 0,47 1,0 0,-46 51,0 0,-1 z"
     style="fill:#ffffff;fill-opacity:0.10954063;fill-rule:nonzero;stroke:none" />
  <path
     style="fill:#ffffff;fill-opacity:0.10954063;fill-rule:nonzero;stroke:none"
     d="m 58,57 0,-47 -1,0 0,46 -51,0 0,1 z"
     id="rect5556"
     inkscape:connector-curvature="0"
     sodipodi:nodetypes="ccccccc" />
  <path
     sodipodi:nodetypes="cccccccccc"
     inkscape:connector-curvature="0"
     id="path3864"
     d="M 2,3 1,4 62,4 64,3 z M 1,4 0,5 0,63.5 1,64 z"
     style="fill:#ffffff;fill-opacity:0.16607773;fill-rule:nonzero" />
  <path
     style="fill:#000000;fill-opacity:0.06978798999999999;fill-rule:nonzero"
     d="M 2,0 0,1 64,1 62,0 z"
     id="path3807"
     inkscape:connector-curvature="0"
     sodipodi:nodetypes="ccccc" />
  <path
     d="M 64,6 62,4 64,3 z"
     id="path3028"
     style="fill:#1f0700;fill-opacity:0.13759861"
     inkscape:connector-curvature="0" />
  <path
     d="M 0,6 2,4 0,3 z"
     id="path3028-6"
     style="fill:#d4e1e5;fill-opacity:0.46643108"
     inkscape:connector-curvature="0" />
  <path
     inkscape:connector-curvature="0"
     style="fill:#000000;fill-opacity:0.19434629;fill-rule:nonzero"
     id="path3800"
     d="M 63,0.5 63,63 1,63 2,64 62,64 64,62 64,1 z" />
  <path
     style="font-size:medium;font-style:normal;font-variant:normal;font-weight:normal;font-stretch:normal;text-indent:0;text-align:start;text-decoration:none;line-height:normal;letter-spacing:normal;word-spacing:normal;text-transform:none;direction:ltr;block-progression:tb;writing-mode:lr-tb;text-anchor:start;baseline-shift:baseline;color:#000000;fill:#efedd4;fill-opacity:0.81272398000000001;stroke:none;stroke-width:0.07376679999999999;marker:none;visibility:visible;display:inline;overflow:visible;enable-background:accumulate;font-family:Sans;-inkscape-font-specification:Sans;fill-rule:nonzero"
     d="M 9 13 L 9 14 L 9 32 L 9 33 L 9 34 L 9 52 L 9 53 L 10 53 L 31 53 L 32 53 L 33 53 L 54 53 L 55 53 L 55 52 L 55 33 L 55 32 L 55 14 L 55 13 L 54 13 L 32 13 L 10 13 L 9 13 z M 11 15 L 31 15 L 31 32 L 11 32 L 11 15 z M 33 15 L 53 15 L 53 32 L 33 32 L 33 15 z M 11 34 L 31 34 L 31 51 L 11 51 L 11 34 z M 33 34 L 53 34 L 53 51 L 33 51 L 33 34 z "
     id="rect3847" />
  <path
     style="color:#000000;fill:url(#radialGradient3895-0);fill-opacity:1;fill-rule:nonzero;stroke:none;stroke-width:1;marker:none;visibility:visible;display:inline;overflow:visible;enable-background:accumulate"
     d="m 6,10 0,47 18.687498,0 18,-47 L 6,10 z"
     id="rect3776-4"
     inkscape:connector-curvature="0" />
</svg>
