<?xml version="1.0" encoding="UTF-8" standalone="no"?>
<!-- Created with Inkscape (http://www.inkscape.org/) -->

<svg
   xmlns:dc="http://purl.org/dc/elements/1.1/"
   xmlns:cc="http://creativecommons.org/ns#"
   xmlns:rdf="http://www.w3.org/1999/02/22-rdf-syntax-ns#"
   xmlns:svg="http://www.w3.org/2000/svg"
   xmlns="http://www.w3.org/2000/svg"
   xmlns:sodipodi="http://sodipodi.sourceforge.net/DTD/sodipodi-0.dtd"
   xmlns:inkscape="http://www.inkscape.org/namespaces/inkscape"
   width="16"
   height="16"
   id="svg27665"
   version="1.1"
   inkscape:version="0.48.4 r9939"
   sodipodi:docname="clementine-panel.svg">
  <defs
     id="defs27667" />
  <sodipodi:namedview
     id="base"
     pagecolor="#ffffff"
     bordercolor="#666666"
     borderopacity="1.0"
     inkscape:pageopacity="0.0"
     inkscape:pageshadow="2"
     inkscape:zoom="44.8"
     inkscape:cx="4.7823311"
     inkscape:cy="8.0062793"
     inkscape:document-units="px"
     inkscape:current-layer="layer1"
     showgrid="true"
     inkscape:window-width="1920"
     inkscape:window-height="1016"
     inkscape:window-x="-5"
     inkscape:window-y="27"
     inkscape:window-maximized="1"
     inkscape:snap-bbox="true"
     inkscape:bbox-paths="true"
     inkscape:bbox-nodes="true"
     inkscape:snap-bbox-edge-midpoints="true"
     inkscape:snap-bbox-midpoints="true"
     inkscape:object-paths="true"
     inkscape:snap-intersection-paths="true"
     inkscape:object-nodes="true"
     inkscape:snap-smooth-nodes="true"
     inkscape:snap-midpoints="true"
     inkscape:snap-object-midpoints="true"
     inkscape:snap-center="true"
     inkscape:snap-global="true"
     showguides="true"
     inkscape:guide-bbox="true"
     fit-margin-top="0"
     fit-margin-left="0"
     fit-margin-right="0"
     fit-margin-bottom="0"
     inkscape:showpageshadow="false"
     inkscape:snap-page="true">
    <inkscape:grid
       type="xygrid"
       id="grid3126"
       empspacing="5"
       visible="true"
       enabled="true"
       snapvisiblegridlinesonly="true"
       originx="1.9507231e-05px"
       originy="25.00001px" />
  </sodipodi:namedview>
  <metadata
     id="metadata27670">
    <rdf:RDF>
      <cc:Work
         rdf:about="">
        <dc:format>image/svg+xml</dc:format>
        <dc:type
           rdf:resource="http://purl.org/dc/dcmitype/StillImage" />
        <dc:title />
      </cc:Work>
    </rdf:RDF>
  </metadata>
  <g
     inkscape:label="Camada 1"
     inkscape:groupmode="layer"
     id="layer1"
     transform="translate(3364.4172,-1859.5163)">
    <path
       style="font-size:medium;font-style:normal;font-variant:normal;font-weight:normal;font-stretch:normal;text-indent:0;text-align:start;text-decoration:none;line-height:normal;letter-spacing:normal;word-spacing:normal;text-transform:none;direction:ltr;block-progression:tb;writing-mode:lr-tb;text-anchor:start;baseline-shift:baseline;color:#000000;fill:#EDEFF3;fill-opacity:0.758;fill-rule:nonzero;stroke:none;stroke-width:1.41430247;marker:none;visibility:visible;display:inline;overflow:visible;enable-background:accumulate;font-family:Sans;-inkscape-font-specification:Sans"
       d="M 3.6875 1.25 C 2.7013 2.0472 1.92415 3.0666 1.46875 4.25 C 0.03905 7.9648 1.94145 12.16405 5.65625 13.59375 C 9.37105 15.02345 13.5703 13.1523 15 9.4375 L 13.375 8.8125 L 8.21875 6.84375 L 11.65625 10.4375 C 11.32405 10.7058 10.48155 11.23405 10.09375 11.40625 L 8.21875 6.84375 L 7.96875 11.71875 C 7.55875 11.67475 6.68415 11.43625 6.28125 11.28125 L 8.21875 6.84375 L 4.4375 9.8125 C 4.1707 9.4814 3.9215 9.011 3.75 8.625 L 8.21875 6.84375 L 3.40625 6.34375 C 3.45025 5.93375 3.595 5.18415 3.75 4.78125 L 8.21875 6.84375 L 5.1875 3.0625 L 4.78125 2.59375 L 3.6875 1.25 z "
       transform="translate(-3364.4172,1859.5163)"
       id="path2997" />
    <path
       style="font-size:medium;font-style:normal;font-variant:normal;font-weight:normal;font-stretch:normal;text-indent:0;text-align:start;text-decoration:none;line-height:normal;letter-spacing:normal;word-spacing:normal;text-transform:none;direction:ltr;block-progression:tb;writing-mode:lr-tb;text-anchor:start;baseline-shift:baseline;color:#000000;fill:#485462;fill-opacity:0.7;fill-rule:nonzero;stroke:none;stroke-width:0.07212036;marker:none;visibility:visible;display:inline;overflow:visible;enable-background:accumulate;font-family:Sans;-inkscape-font-specification:Sans"
       d="M 3.875 -0.65625 L 2.84375 0.1875 C 1.68125 1.1271 0.76215 2.3381 0.21875 3.75 C -1.47625 8.1541 0.75435 13.1809 5.15625 14.875 C 9.56025 16.57 14.5558 14.3394 16.25 9.9375 L 16.75 8.65625 L 15.5 8.1875 L 13.84375 7.5625 L 9.0625 5.71875 L 6.25 2.21875 L 6.21875 2.1875 L 5.84375 1.75 L 5.8125 1.71875 L 4.71875 0.375 L 3.875 -0.65625 z M 3.6875 1.25 L 4.78125 2.59375 L 5.1875 3.0625 L 8.21875 6.84375 L 13.375 8.8125 L 15 9.4375 C 13.5703 13.1523 9.37095 15.02345 5.65625 13.59375 C 1.94145 12.16395 0.03895 7.9648 1.46875 4.25 C 1.92415 3.0665 2.7013 2.0472 3.6875 1.25 z M 8.21875 6.84375 L 10.09375 11.40625 C 10.48145 11.23395 11.32405 10.7059 11.65625 10.4375 L 8.21875 6.84375 z M 8.21875 6.84375 L 6.28125 11.28125 C 6.68405 11.43625 7.55865 11.67445 7.96875 11.71875 L 8.21875 6.84375 z M 8.21875 6.84375 L 3.75 8.625 C 3.9215 9.0111 4.1707 9.4815 4.4375 9.8125 L 8.21875 6.84375 z M 8.21875 6.84375 L 3.75 4.78125 C 3.5949 5.18405 3.45045 5.93365 3.40625 6.34375 L 8.21875 6.84375 z "
       transform="translate(-3364.4172,1859.5163)"
       id="path3004" />
  </g>
</svg>
