<?xml version="1.0" encoding="UTF-8" standalone="no"?>
<!-- Created with Inkscape (http://www.inkscape.org/) -->

<svg
   xmlns:dc="http://purl.org/dc/elements/1.1/"
   xmlns:cc="http://creativecommons.org/ns#"
   xmlns:rdf="http://www.w3.org/1999/02/22-rdf-syntax-ns#"
   xmlns:svg="http://www.w3.org/2000/svg"
   xmlns="http://www.w3.org/2000/svg"
   xmlns:sodipodi="http://sodipodi.sourceforge.net/DTD/sodipodi-0.dtd"
   xmlns:inkscape="http://www.inkscape.org/namespaces/inkscape"
   version="1.1"
   width="24"
   height="24"
   id="svg2"
   inkscape:version="0.48.3.1 r9886"
   sodipodi:docname="blender.svg">
  <sodipodi:namedview
     pagecolor="#ffffff"
     bordercolor="#666666"
     borderopacity="1"
     objecttolerance="10"
     gridtolerance="10"
     guidetolerance="10"
     inkscape:pageopacity="0"
     inkscape:pageshadow="2"
     inkscape:window-width="1920"
     inkscape:window-height="1023"
     id="namedview6"
     showgrid="true"
     inkscape:zoom="29.5"
     inkscape:cx="10.990833"
     inkscape:cy="11.596114"
     inkscape:window-x="-10"
     inkscape:window-y="35"
     inkscape:window-maximized="1"
     inkscape:current-layer="svg2"
     inkscape:snap-global="true"
     showguides="true"
     inkscape:guide-bbox="true"
     inkscape:snap-bbox="true"
     inkscape:bbox-paths="true"
     inkscape:bbox-nodes="true"
     inkscape:snap-bbox-edge-midpoints="true"
     inkscape:snap-bbox-midpoints="true"
     inkscape:object-paths="true"
     inkscape:snap-intersection-paths="true"
     inkscape:object-nodes="true"
     inkscape:snap-smooth-nodes="true"
     inkscape:snap-midpoints="true"
     inkscape:snap-object-midpoints="true"
     inkscape:snap-center="true">
    <inkscape:grid
       type="xygrid"
       id="grid2982"
       empspacing="5"
       visible="true"
       enabled="true"
       snapvisiblegridlinesonly="true" />
  </sodipodi:namedview>
  <defs
     id="defs4" />
  <metadata
     id="metadata7">
    <rdf:RDF>
      <cc:Work
         rdf:about="">
        <dc:format>image/svg+xml</dc:format>
        <dc:type
           rdf:resource="http://purl.org/dc/dcmitype/StillImage" />
        <dc:title />
      </cc:Work>
    </rdf:RDF>
  </metadata>
  <path
     id="path3049"
     d="m 12.59375,3.09375 c -0.255619,0 -0.522882,0.1166314 -0.71875,0.3125 -0.391738,0.3917371 -0.391738,1.0145129 0,1.40625 L 14.0625,7 C 14.041572,6.9998159 14.020971,7 14,7 L 6,7 C 5.446,7 5,7.446 5,8 5,8.554 5.446,9 6,9 l 3.125,0 c -0.02066,0.020158 -0.04209,0.04209 -0.0625,0.0625 -0.1583439,0.1583439 -0.3260941,0.327141 -0.46875,0.5 l -5.1875,5.15625 c -0.3917372,0.391737 -0.3917372,1.014513 0,1.40625 0.3917371,0.391738 1.0145129,0.391738 1.40625,0 L 7,13.9375 c -1.841e-4,0.02093 0,0.04153 0,0.0625 0,3.865993 3.134007,7 7,7 3.865993,0 7,-3.134007 7,-7 0,-2.174621 -1.006769,-4.122347 -2.5625,-5.40625 L 13.28125,3.40625 C 13.085381,3.2103814 12.849369,3.09375 12.59375,3.09375 z M 14,9 c 2.761423,0 5,2.238577 5,5 0,2.761423 -2.238577,5 -5,5 -2.761423,0 -5,-2.238577 -5,-5 0,-2.761423 2.238577,-5 5,-5 z m 0,2 c -1.656854,0 -3,1.343146 -3,3 0,1.656854 1.343146,3 3,3 1.656854,0 3,-1.343146 3,-3 0,-1.656854 -1.343146,-3 -3,-3 z"
     style="color:#000000;fill:#434a55;fill-opacity:0.6745098;fill-rule:nonzero;stroke:none;stroke-width:0.78571427;marker:none;visibility:visible;display:inline;overflow:visible;enable-background:accumulate"
     inkscape:connector-curvature="0" />
  <path
     style="font-size:medium;font-style:normal;font-variant:normal;font-weight:normal;font-stretch:normal;text-indent:0;text-align:start;text-decoration:none;line-height:normal;letter-spacing:normal;word-spacing:normal;text-transform:none;direction:ltr;block-progression:tb;writing-mode:lr-tb;text-anchor:start;baseline-shift:baseline;color:#000000;fill:#d1d4d6;fill-opacity:0.74329164;fill-rule:nonzero;stroke:none;stroke-width:2;marker:none;visibility:visible;display:inline;overflow:visible;enable-background:accumulate;font-family:Sans;-inkscape-font-specification:Sans"
     d="m 12.59375,1.90625 c -0.620635,0 -1.149113,0.2428613 -1.5625,0.65625 -0.841396,0.8413943 -0.841396,2.2523557 0,3.09375 L 11.1875,5.8125 6,5.8125 C 4.8019567,5.8125 3.8125,6.8019567 3.8125,8 c 0,1.1980433 0.9894567,2.1875 2.1875,2.1875 l 0.28125,0 -3.71875,3.6875 c -0.8413953,0.841395 -0.8413953,2.252355 0,3.09375 0.8413943,0.841396 2.2523557,0.841396 3.09375,0 l 0.625,-0.625 C 7.3088844,19.69999 10.315968,22.1875 14,22.1875 c 4.514521,0 8.1875,-3.672979 8.1875,-8.1875 0,-2.497649 -1.144406,-4.7481187 -2.90625,-6.25 L 19.1875,7.65625 14.125,2.5625 C 13.756741,2.1942415 13.214385,1.90625 12.59375,1.90625 z m 0,1.1875 c 0.255619,0 0.491631,0.1166314 0.6875,0.3125 l 5.15625,5.1875 C 19.993231,9.877653 21,11.825379 21,14 c 0,3.865993 -3.134007,7 -7,7 -3.865993,0 -7,-3.134007 -7,-7 0,-0.02097 -1.841e-4,-0.04157 0,-0.0625 L 4.8125,16.125 c -0.3917371,0.391738 -1.0145129,0.391738 -1.40625,0 -0.3917372,-0.391737 -0.3917372,-1.014513 0,-1.40625 L 8.59375,9.5625 C 8.7364059,9.389641 8.9041561,9.2208439 9.0625,9.0625 9.08291,9.04209 9.10434,9.020158 9.125,9 L 6,9 C 5.446,9 5,8.554 5,8 5,7.446 5.446,7 6,7 l 8,0 c 0.02097,0 0.04157,-1.841e-4 0.0625,0 L 11.875,4.8125 c -0.391738,-0.3917371 -0.391738,-1.0145129 0,-1.40625 0.195868,-0.1958686 0.463131,-0.3125 0.71875,-0.3125 z M 14,9.8474576 c -2.293385,0 -4.1525424,1.8591574 -4.1525424,4.1525424 0,2.293385 1.8591574,4.152542 4.1525424,4.152542 2.293385,0 4.152542,-1.859157 4.152542,-4.152542 0,-2.293385 -1.859157,-4.1525424 -4.152542,-4.1525424 z M 14,11 c 1.656854,0 3,1.343146 3,3 0,1.656854 -1.343146,3 -3,3 -1.656854,0 -3,-1.343146 -3,-3 0,-1.656854 1.343146,-3 3,-3 z"
     id="path2986"
     inkscape:connector-curvature="0"
     sodipodi:nodetypes="ssscsssccsscsscccssccssscssccscsssscsssssssssssss" />
</svg>
