<?xml version="1.0" encoding="UTF-8" standalone="no"?>
<!-- Created with Inkscape (http://www.inkscape.org/) -->

<svg
   xmlns:dc="http://purl.org/dc/elements/1.1/"
   xmlns:cc="http://creativecommons.org/ns#"
   xmlns:rdf="http://www.w3.org/1999/02/22-rdf-syntax-ns#"
   xmlns:svg="http://www.w3.org/2000/svg"
   xmlns="http://www.w3.org/2000/svg"
   xmlns:sodipodi="http://sodipodi.sourceforge.net/DTD/sodipodi-0.dtd"
   xmlns:inkscape="http://www.inkscape.org/namespaces/inkscape"
   width="24"
   height="24"
   id="svg27665"
   version="1.1"
   inkscape:version="0.48.3.1 r9886"
   sodipodi:docname="keepass2.svg">
  <defs
     id="defs27667" />
  <sodipodi:namedview
     id="base"
     pagecolor="#ffffff"
     bordercolor="#666666"
     borderopacity="1.0"
     inkscape:pageopacity="0.0"
     inkscape:pageshadow="2"
     inkscape:zoom="32"
     inkscape:cx="9.5164028"
     inkscape:cy="11.390684"
     inkscape:document-units="px"
     inkscape:current-layer="layer1"
     showgrid="true"
     inkscape:window-width="1920"
     inkscape:window-height="1023"
     inkscape:window-x="-10"
     inkscape:window-y="35"
     inkscape:window-maximized="1"
     inkscape:snap-bbox="true"
     inkscape:bbox-paths="true"
     inkscape:bbox-nodes="true"
     inkscape:snap-bbox-edge-midpoints="true"
     inkscape:snap-bbox-midpoints="true"
     inkscape:object-paths="true"
     inkscape:snap-intersection-paths="true"
     inkscape:object-nodes="true"
     inkscape:snap-smooth-nodes="true"
     inkscape:snap-midpoints="true"
     inkscape:snap-object-midpoints="true"
     inkscape:snap-center="true"
     inkscape:snap-global="true"
     showguides="false"
     inkscape:guide-bbox="true"
     fit-margin-top="0"
     fit-margin-left="0"
     fit-margin-right="0"
     fit-margin-bottom="0"
     inkscape:showpageshadow="false">
    <sodipodi:guide
       orientation="0,1"
       position="599.99999,299.99993"
       id="guide3572" />
    <sodipodi:guide
       orientation="1,0"
       position="294.41949,12.121716"
       id="guide3574" />
    <sodipodi:guide
       orientation="0,1"
       position="456.04389,599.99992"
       id="guide3576" />
    <sodipodi:guide
       orientation="0,1"
       position="-2.8882813e-06,-8.4406273e-05"
       id="guide3578" />
    <sodipodi:guide
       orientation="1,0"
       position="-2.8882813e-06,157.58366"
       id="guide3580" />
    <sodipodi:guide
       orientation="1,0"
       position="599.99999,121.21821"
       id="guide3582" />
    <sodipodi:guide
       orientation="0,1"
       position="599.99999,-714.34359"
       id="guide5928" />
    <sodipodi:guide
       orientation="0,1"
       position="599.99999,-414.34359"
       id="guide5930" />
    <sodipodi:guide
       orientation="0,1"
       position="599.99999,-1014.3435"
       id="guide5932" />
    <sodipodi:guide
       orientation="0,1"
       position="451.57029,524.99606"
       id="guide5294" />
    <sodipodi:guide
       orientation="0,1"
       position="451.57029,75.013516"
       id="guide5296" />
    <sodipodi:guide
       orientation="0,1"
       position="496.01499,-931.36409"
       id="guide5413" />
    <sodipodi:guide
       orientation="0,1"
       position="457.34859,-489.34389"
       id="guide5415" />
    <inkscape:grid
       type="xygrid"
       id="grid3070"
       empspacing="5"
       visible="true"
       enabled="true"
       snapvisiblegridlinesonly="true"
       originx="4.3243213e-05px"
       originy="-2.6947047e-05px" />
  </sodipodi:namedview>
  <metadata
     id="metadata27670">
    <rdf:RDF>
      <cc:Work
         rdf:about="">
        <dc:format>image/svg+xml</dc:format>
        <dc:type
           rdf:resource="http://purl.org/dc/dcmitype/StillImage" />
        <dc:title />
      </cc:Work>
    </rdf:RDF>
  </metadata>
  <g
     inkscape:label="Camada 1"
     inkscape:groupmode="layer"
     id="layer1"
     transform="translate(3364.4171,-2092.7186)">
    <path
       style="color:#000000;fill:#434a55;fill-opacity:0.6745098;fill-rule:nonzero;stroke:none;stroke-width:4;marker:none;visibility:visible;display:inline;overflow:visible;enable-background:accumulate"
       d="M 5 10 L 5 12 L 19 12 L 19 10 L 5 10 z M 5 13 L 5 15 L 11 15 L 11 13 L 5 13 z M 13 13 L 13 15 L 19 15 L 19 13 L 13 13 z M 5 16 L 5 18 L 11 18 L 11 16 L 5 16 z M 13 16 L 13 18 L 19 18 L 19 16 L 13 16 z M 5 19 L 5 21 L 19 21 L 19 19 L 5 19 z "
       transform="translate(-3364.4171,2092.7186)"
       id="rect3776" />
    <path
       style="color:#000000;fill:#434a55;fill-opacity:0.6745098;fill-rule:nonzero;stroke:none;stroke-width:4;marker:none;visibility:visible;display:inline;overflow:visible;enable-background:accumulate"
       d="m -3352.4171,2095.7186 c -3.3137,0 -6,2.6863 -6,6 l 2,0 c 0,-2.2091 1.7909,-4 4,-4 2.2091,0 4,1.7909 4,4 l 2,0 c 0,-3.3137 -2.6863,-6 -6,-6 z"
       id="path3771"
       inkscape:connector-curvature="0"
       sodipodi:nodetypes="sccsccs" />
    <path
       style="color:#000000;fill:#d1d4d6;fill-opacity:0.74329164;fill-rule:nonzero;stroke:none;stroke-width:2;marker:none;visibility:visible;display:inline;overflow:visible;enable-background:accumulate"
       d="M 4 9 L 4 10 L 5 10 L 19 10 L 20 10 L 20 9 L 4 9 z M 4 12 L 4 13 L 5 13 L 11 13 L 11 15 L 5 15 L 4 15 L 4 16 L 5 16 L 11 16 L 11 18 L 5 18 L 4 18 L 4 19 L 5 19 L 19 19 L 20 19 L 20 18 L 19 18 L 13 18 L 13 16 L 19 16 L 20 16 L 20 15 L 19 15 L 13 15 L 13 13 L 19 13 L 20 13 L 20 12 L 19 12 L 5 12 L 4 12 z M 4 21 L 4 22 L 20 22 L 20 21 L 19 21 L 5 21 L 4 21 z "
       transform="translate(-3364.4171,2092.7186)"
       id="rect2998" />
    <path
       style="color:#000000;fill:#d1d4d6;fill-opacity:0.74329164;fill-rule:nonzero;stroke:none;stroke-width:2;marker:none;visibility:visible;display:inline;overflow:visible;enable-background:accumulate"
       d="m -3354.5109,2094.7186 c -2.3613,0.7047 -4.2071,2.5746 -4.9062,4.9375 l 0,1.0625 1.0937,0 c 0.473,-2.8414 2.9307,-5 5.9063,-5 2.9756,0 5.4333,2.1586 5.9062,5 l 1.0938,0 0,-1.0625 c -0.6991,-2.3629 -2.5449,-4.2328 -4.9063,-4.9375 z"
       id="path3011"
       inkscape:connector-curvature="0"
       sodipodi:nodetypes="ccccsccccc" />
  </g>
</svg>
