<?xml version="1.0" encoding="UTF-8" standalone="no"?>
<!-- Created with Inkscape (http://www.inkscape.org/) -->

<svg
   xmlns:dc="http://purl.org/dc/elements/1.1/"
   xmlns:cc="http://creativecommons.org/ns#"
   xmlns:rdf="http://www.w3.org/1999/02/22-rdf-syntax-ns#"
   xmlns:svg="http://www.w3.org/2000/svg"
   xmlns="http://www.w3.org/2000/svg"
   xmlns:sodipodi="http://sodipodi.sourceforge.net/DTD/sodipodi-0.dtd"
   xmlns:inkscape="http://www.inkscape.org/namespaces/inkscape"
   width="64"
   height="64"
   id="svg13094"
   version="1.1"
   inkscape:version="0.48.3.1 r9886"
   sodipodi:docname="color-pick.svg">
  <sodipodi:namedview
     id="base"
     pagecolor="#ffffff"
     bordercolor="#666666"
     borderopacity="1.0"
     inkscape:pageopacity="0"
     inkscape:pageshadow="2"
     inkscape:zoom="8.0000004"
     inkscape:cx="33.309091"
     inkscape:cy="33.466041"
     inkscape:document-units="px"
     inkscape:current-layer="svg13094"
     showgrid="true"
     inkscape:snap-bbox="true"
     inkscape:bbox-paths="true"
     inkscape:bbox-nodes="true"
     inkscape:snap-bbox-edge-midpoints="true"
     inkscape:snap-bbox-midpoints="true"
     inkscape:object-paths="true"
     inkscape:snap-intersection-paths="true"
     inkscape:object-nodes="true"
     inkscape:snap-smooth-nodes="true"
     inkscape:snap-midpoints="true"
     inkscape:snap-object-midpoints="true"
     inkscape:snap-center="true"
     showguides="false"
     inkscape:guide-bbox="true"
     inkscape:window-width="1920"
     inkscape:window-height="1023"
     inkscape:window-x="-10"
     inkscape:window-y="35"
     inkscape:window-maximized="1"
     inkscape:snap-global="true"
     fit-margin-top="0"
     fit-margin-left="0"
     fit-margin-right="0"
     fit-margin-bottom="0"
     showborder="true"
     inkscape:showpageshadow="false"
     inkscape:snap-page="true">
    <inkscape:grid
       type="xygrid"
       id="grid3075"
       empspacing="5"
       visible="true"
       enabled="true"
       snapvisiblegridlinesonly="true"
       originx="1.6362304e-08px"
       originy="18px" />
    <sodipodi:guide
       orientation="0,1"
       position="-11,30"
       id="guide9148" />
    <sodipodi:guide
       orientation="1,0"
       position="32,70"
       id="guide9150" />
  </sodipodi:namedview>
  <defs
     id="defs13096" />
  <metadata
     id="metadata13099">
    <rdf:RDF>
      <cc:Work
         rdf:about="">
        <dc:format>image/svg+xml</dc:format>
        <dc:type
           rdf:resource="http://purl.org/dc/dcmitype/StillImage" />
        <dc:title />
      </cc:Work>
    </rdf:RDF>
  </metadata>
  <path
     id="path3866"
     d="m 0,4 0,30 0,28 2,2 30,0 30,0 2,-2 L 64,34 64,4 32,4 0,4 z"
     style="color:#000000;fill:#6c7177;fill-opacity:1;fill-rule:nonzero;stroke:none;stroke-width:2.28571415;marker:none;visibility:visible;display:inline;overflow:visible;enable-background:accumulate"
     inkscape:connector-curvature="0" />
  <path
     inkscape:connector-curvature="0"
     style="color:#000000;fill:#608ec1;fill-opacity:1;fill-rule:nonzero;stroke:none;marker:none;visibility:visible;display:inline;overflow:visible;enable-background:accumulate"
     d="M 2,0 0,1 0,4 32,4 64,4 64,1 62,0 32,0 2,0 z"
     id="path6688" />
  <path
     d="M 64,6 62,4 64,3 z"
     id="path3028"
     style="fill:#1f0700;fill-opacity:0.13759861"
     inkscape:connector-curvature="0" />
  <g
     id="g3043"
     inkscape:export-filename="folder.png"
     inkscape:export-xdpi="90"
     inkscape:export-ydpi="90"
     transform="translate(-0.62500009,0.082283)" />
  <g
     id="scalable"
     transform="matrix(1.0385892,0,0,1.0385892,1214.7222,1878.8121)"
     inkscape:label="#g3701"
     style="fill:#ffffff" />
  <path
     id="path3966"
     d="M 2,0 0,1 0,4 32,4 64,4 64,1 62,0 32,0 2,0 z"
     style="color:#000000;fill:#6c7177;fill-opacity:1;fill-rule:nonzero;stroke:none;stroke-width:2.28571415;marker:none;visibility:visible;display:inline;overflow:visible;enable-background:accumulate"
     inkscape:connector-curvature="0" />
  <path
     inkscape:connector-curvature="0"
     style="color:#000000;fill:#6c7177;fill-opacity:1;fill-rule:nonzero;stroke:none;stroke-width:2.28571415;marker:none;visibility:visible;display:inline;overflow:visible;enable-background:accumulate"
     d="m 0,4 0,30 0,28 2,2 30,0 30,0 2,-2 L 64,34 64,4 32,4 0,4 z"
     id="path3851" />
  <path
     inkscape:connector-curvature="0"
     style="opacity:0.69197585;color:#000000;fill:#d54a2a;fill-opacity:1;fill-rule:nonzero;stroke:none;stroke-width:1;marker:none;visibility:visible;display:inline;overflow:visible;enable-background:accumulate"
     d="M 0,44.125 0,62 l 2,2 30,0 30,0 2,-2 0,-15.84375 C 62.201119,44.878508 60.009096,44.125 57.625,44.125 L 0,44.125 z"
     id="rect3814" />
  <path
     inkscape:connector-curvature="0"
     style="opacity:0.69197585;color:#000000;fill:#e09238;fill-opacity:1;fill-rule:nonzero;stroke:none;stroke-width:1;marker:none;visibility:visible;display:inline;overflow:visible;enable-background:accumulate"
     d="M 0,25.34375 0,34 0,48.15625 55.15625,62.9375 C 58.306944,63.781726 61.475803,63.172625 64,61.53125 L 64,43.0625 C 63.057364,42.454688 61.988147,41.96289 60.84375,41.65625 L 0,25.34375 z"
     id="use3820" />
  <path
     inkscape:connector-curvature="0"
     style="opacity:0.69197585;color:#000000;fill:#efd42b;fill-opacity:1;fill-rule:nonzero;stroke:none;stroke-width:1;marker:none;visibility:visible;display:inline;overflow:visible;enable-background:accumulate"
     d="M 0,4 0,28.25 53.59375,59.1875 C 56.917962,61.106735 60.813093,61.110414 64,59.53125 L 64,39.75 2.09375,4 0,4 z"
     id="use3822" />
  <path
     inkscape:connector-curvature="0"
     style="opacity:0.69197585;color:#000000;fill:#71bc31;fill-opacity:1;fill-rule:nonzero;stroke:none;stroke-width:1;marker:none;visibility:visible;display:inline;overflow:visible;enable-background:accumulate"
     d="M 1.90625,4 53.0625,55.15625 C 56.036135,58.129885 60.249095,59.062561 64,57.9375 l 0,-23 L 33.0625,4 32,4 1.90625,4 z"
     id="use3824" />
  <path
     inkscape:connector-curvature="0"
     style="opacity:0.69197585;color:#000000;fill:#2bd492;fill-opacity:1;fill-rule:nonzero;stroke:none;stroke-width:1;marker:none;visibility:visible;display:inline;overflow:visible;enable-background:accumulate"
     d="m 26.40625,4 27.1875,47.125 C 55.792257,54.932926 59.903936,56.916248 64,56.59375 L 64,34 64,25.09375 51.8125,4 32,4 26.40625,4 z"
     id="use3826" />
  <path
     inkscape:connector-curvature="0"
     style="opacity:0.69197585;color:#000000;fill:#2d84df;fill-opacity:1;fill-rule:nonzero;stroke:none;stroke-width:1;marker:none;visibility:visible;display:inline;overflow:visible;enable-background:accumulate"
     d="m 43.53125,4 11.625,43.375 c 1.158279,4.322756 4.710801,7.319557 8.84375,8 L 64,34 64,4 43.53125,4 z"
     id="use3828" />
  <path
     inkscape:connector-curvature="0"
     style="opacity:0.69197585;color:#000000;fill:#8652d5;fill-opacity:1;fill-rule:nonzero;stroke:none;stroke-width:1;marker:none;visibility:visible;display:inline;overflow:visible;enable-background:accumulate"
     d="m 57.625,4 0,40.125 c 0,4.442754 2.603692,8.255277 6.375,10 L 64,34 64,4 57.625,4 z"
     id="use3818" />
  <path
     inkscape:connector-curvature="0"
     style="color:#000000;fill:#a599ff;fill-opacity:1;fill-rule:nonzero;stroke:none;stroke-width:1;marker:none;visibility:visible;display:inline;overflow:visible;enable-background:accumulate"
     d="m 57.625,0 0,4 L 64,4 64,1 62,0 57.625,0 z"
     id="rect3954" />
  <rect
     transform="scale(-1,1)"
     y="0"
     x="-57.625"
     height="4"
     width="5.8125"
     id="rect3956"
     style="color:#000000;fill:#6bb7ff;fill-opacity:1;fill-rule:nonzero;stroke:none;stroke-width:1;marker:none;visibility:visible;display:inline;overflow:visible;enable-background:accumulate" />
  <rect
     y="0"
     x="43.53125"
     height="4"
     width="8.28125"
     id="rect3958"
     style="color:#000000;fill:#6dcbff;fill-opacity:1;fill-rule:nonzero;stroke:none;stroke-width:1;marker:none;visibility:visible;display:inline;overflow:visible;enable-background:accumulate" />
  <rect
     transform="scale(-1,1)"
     y="0"
     x="-43.53125"
     height="4"
     width="10.46875"
     id="rect3960"
     style="color:#000000;fill:#60ecd0;fill-opacity:1;fill-rule:nonzero;stroke:none;stroke-width:1;marker:none;visibility:visible;display:inline;overflow:visible;enable-background:accumulate" />
  <rect
     y="0"
     x="26.40625"
     height="4"
     width="6.65625"
     id="rect3962"
     style="color:#000000;fill:#76f69c;fill-opacity:1;fill-rule:nonzero;stroke:none;stroke-width:1;marker:none;visibility:visible;display:inline;overflow:visible;enable-background:accumulate" />
  <rect
     transform="scale(-1,1)"
     y="0"
     x="-26.40625"
     height="4"
     width="24.40625"
     id="rect3964"
     style="color:#000000;fill:#8de064;fill-opacity:1;fill-rule:nonzero;stroke:none;stroke-width:1;marker:none;visibility:visible;display:inline;overflow:visible;enable-background:accumulate" />
  <path
     inkscape:connector-curvature="0"
     style="color:#000000;fill:#f4e668;fill-opacity:1;fill-rule:nonzero;stroke:none;stroke-width:1;marker:none;visibility:visible;display:inline;overflow:visible;enable-background:accumulate"
     d="M 2,0 0,1 0,4 2,4 2,0 z"
     id="rect3952" />
  <path
     inkscape:connector-curvature="0"
     style="fill:#ffffff;fill-opacity:0.34408602;fill-rule:nonzero"
     d="M 0,3 0,6 2,4 32,4 62,4 64,3 32,3 0,3 z"
     id="path4298" />
  <path
     inkscape:connector-curvature="0"
     style="fill:#1f0700;fill-opacity:0.06978802;fill-rule:nonzero"
     d="M 2,0 0,1 32,1 64,1 62,0 32,0 2,0 z"
     id="path4444" />
  <path
     inkscape:connector-curvature="0"
     style="fill:#000000;fill-opacity:0.11130587;fill-rule:nonzero"
     d="M 63,0.5 63,34 63,63 64,62 64,34 64,1 63,0.5 z m 0,62.5 -31,0 -31,0 1,1 30,0 30,0 1,-1 z"
     id="path4366" />
  <path
     inkscape:connector-curvature="0"
     style="fill:#ffffff;fill-opacity:0.35070675;fill-rule:nonzero"
     d="M 0,1 0,34 0,62 1,63 1,34 1,5 2,4 1,3.46875 1,1 0,1 z"
     id="path3864" />
  <g
     id="g3011">
    <path
       id="path3805"
       d="M 48.09375 18.90625 C 49.408629 20.702911 49.281587 23.218412 47.65625 24.84375 L 42.46875 30.03125 L 43.46875 31.03125 L 48.65625 25.84375 C 50.453206 24.046793 50.453206 21.140708 48.65625 19.34375 C 48.48463 19.172131 48.28346 19.045088 48.09375 18.90625 z M 43.75 31.3125 L 41.15625 33.90625 L 42.15625 34.90625 L 44.75 32.3125 L 43.75 31.3125 z M 37.90625 33.28125 L 21.0625 50.125 C 21.0625 50.125 18.387088 51.732438 16.4375 50.5625 C 16.554457 50.757397 16.698127 50.948127 16.875 51.125 C 18.821162 53.071163 22.0625 51.125 22.0625 51.125 L 38.90625 34.28125 L 37.90625 33.28125 z "
       style="color:#000000;fill:#ffffff;fill-opacity:0.43369177;fill-rule:nonzero;stroke:none;stroke-width:2.50000000000000000;marker:none;visibility:visible;display:inline;overflow:visible;enable-background:accumulate" />
    <path
       inkscape:connector-curvature="0"
       id="path3800"
       d="m 47.652283,18.347717 c -1.796958,-1.796956 -4.690252,-1.796956 -6.487209,0 l -5.189767,5.189767 -1.297442,-1.297441 -2.594883,2.594883 9.082092,9.082092 2.594883,-2.594883 -1.297441,-1.297442 5.189767,-5.189767 c 1.796956,-1.796957 1.796956,-4.690251 0,-6.487209 z m -14.92058,9.730814 -16.866742,16.866741 c 0,0 -1.946163,3.243605 0,5.189767 1.946162,1.946163 5.189767,0 5.189767,0 L 37.921469,33.268297 32.731703,28.078531 z"
       style="color:#000000;fill:#000000;fill-opacity:0.34498209;fill-rule:nonzero;stroke:none;stroke-width:2.50000000000000000;marker:none;visibility:visible;display:inline;overflow:visible;enable-background:accumulate" />
  </g>
</svg>
