<?xml version="1.0" encoding="UTF-8" standalone="no"?>
<!-- Created with Inkscape (http://www.inkscape.org/) -->

<svg
   xmlns:dc="http://purl.org/dc/elements/1.1/"
   xmlns:cc="http://creativecommons.org/ns#"
   xmlns:rdf="http://www.w3.org/1999/02/22-rdf-syntax-ns#"
   xmlns:svg="http://www.w3.org/2000/svg"
   xmlns="http://www.w3.org/2000/svg"
   xmlns:xlink="http://www.w3.org/1999/xlink"
   xmlns:sodipodi="http://sodipodi.sourceforge.net/DTD/sodipodi-0.dtd"
   xmlns:inkscape="http://www.inkscape.org/namespaces/inkscape"
   width="64"
   height="64"
   id="svg13094"
   version="1.1"
   inkscape:version="0.48.3.1 r9886"
   sodipodi:docname="gwibber.svg">
  <sodipodi:namedview
     id="base"
     pagecolor="#ffffff"
     bordercolor="#666666"
     borderopacity="1.0"
     inkscape:pageopacity="0"
     inkscape:pageshadow="2"
     inkscape:zoom="11.313709"
     inkscape:cx="33.996934"
     inkscape:cy="29.249649"
     inkscape:document-units="px"
     inkscape:current-layer="svg13094"
     showgrid="true"
     inkscape:snap-bbox="true"
     inkscape:bbox-paths="true"
     inkscape:bbox-nodes="true"
     inkscape:snap-bbox-edge-midpoints="true"
     inkscape:snap-bbox-midpoints="true"
     inkscape:object-paths="true"
     inkscape:snap-intersection-paths="true"
     inkscape:object-nodes="true"
     inkscape:snap-smooth-nodes="true"
     inkscape:snap-midpoints="true"
     inkscape:snap-object-midpoints="true"
     inkscape:snap-center="true"
     showguides="true"
     inkscape:guide-bbox="true"
     inkscape:window-width="1920"
     inkscape:window-height="1023"
     inkscape:window-x="-10"
     inkscape:window-y="35"
     inkscape:window-maximized="1"
     inkscape:snap-global="true"
     fit-margin-top="0"
     fit-margin-left="0"
     fit-margin-right="0"
     fit-margin-bottom="0"
     showborder="true"
     inkscape:showpageshadow="false"
     inkscape:snap-page="true">
    <inkscape:grid
       type="xygrid"
       id="grid3075"
       empspacing="5"
       visible="true"
       enabled="true"
       snapvisiblegridlinesonly="true"
       originx="1.6362304e-08px"
       originy="18px" />
  </sodipodi:namedview>
  <defs
     id="defs13096">
    <linearGradient
       id="linearGradient3955">
      <stop
         offset="0"
         style="stop-color:#becad3;stop-opacity:1;"
         id="stop3957" />
      <stop
         offset="1"
         style="stop-color:#92a2b4;stop-opacity:1;"
         id="stop3959" />
    </linearGradient>
    <linearGradient
       id="linearGradient5602">
      <stop
         id="stop5604"
         style="stop-color:#32aee5;stop-opacity:1;"
         offset="0" />
      <stop
         id="stop5606"
         style="stop-color:#1f70af;stop-opacity:1;"
         offset="1" />
    </linearGradient>
    <radialGradient
       inkscape:collect="always"
       xlink:href="#linearGradient5602"
       id="radialGradient3185"
       cx="31.84375"
       cy="15"
       fx="31.84375"
       fy="15"
       r="20.15625"
       gradientUnits="userSpaceOnUse"
       gradientTransform="matrix(0,2.3813953,-2.3813953,0,67.56468,-60.832558)" />
    <radialGradient
       inkscape:collect="always"
       xlink:href="#linearGradient3955"
       id="radialGradient3963"
       gradientUnits="userSpaceOnUse"
       gradientTransform="matrix(0,1.40625,-1.3183594,0,55.730469,-26)"
       cx="32"
       cy="18"
       fx="32"
       fy="18"
       r="32" />
  </defs>
  <metadata
     id="metadata13099">
    <rdf:RDF>
      <cc:Work
         rdf:about="">
        <dc:format>image/svg+xml</dc:format>
        <dc:type
           rdf:resource="http://purl.org/dc/dcmitype/StillImage" />
        <dc:title />
      </cc:Work>
    </rdf:RDF>
  </metadata>
  <path
     id="path3961"
     d="m 0,4 0,30 0,28 2,2 30,0 30,0 2,-2 L 64,34 64,4 32,4 0,4 z"
     style="color:#000000;fill:url(#radialGradient3963);fill-opacity:1;fill-rule:nonzero;stroke:none;stroke-width:2.28571415;marker:none;visibility:visible;display:inline;overflow:visible;enable-background:accumulate"
     inkscape:connector-curvature="0" />
  <path
     style="color:#000000;fill:#e8eef1;fill-opacity:1;fill-rule:nonzero;stroke:none;marker:none;visibility:visible;display:inline;overflow:visible;enable-background:accumulate;stroke-width:2.28571415000000000"
     d="M 2 0 L 0 1 L 0 4 L 32 4 L 64 4 L 64 1 L 62 0 L 32 0 L 2 0 z "
     id="path6502" />
  <g
     id="g4196">
    <path
       id="path3400"
       d="M 21.1875,0.9375 C 20.984131,0.94905413 20.732108,0.95941718 20.46875,1 l -0.5625,0 C 19.85256,1.02209 19.80739,1.040075 19.75,1.0625 c 0.04568,0.016174 0.08451,0.047648 0.09375,0.0625 0.818359,-0.032971 -0.888195,1.01797 -1.65625,1.09375 -2.278133,0.060271 -0.657996,1.5247528 -2.8125,1.8125 0.01576,0.00468 0.01651,0.026495 0.03125,0.03125 0.858863,0.2769753 0.0042,0.670318 -0.96875,0.78125 -0.03392,0.1827045 -0.294502,0.2934672 -0.625,0 -0.0073,-0.00647 -0.0239,0.00687 -0.03125,0 -0.132608,0.2849978 -0.116369,0.4997648 0,0.65625 C 14.171303,5.485718 14.565732,5.43681 15,5.34375 c 0.06278,0.2061764 0.01868,0.3797893 -0.09375,0.5 1.170376,0.00922 2.605005,-0.4859866 1.4375,-0.8125 C 18.553626,4.7552826 16.896461,3.2793624 19.1875,3.21875 19.612462,3.176821 20.330289,2.8213632 20.75,2.53125 20.71744,2.443348 20.603976,2.3606559 20.375,2.28125 20.760893,1.7374712 21.372609,1.3673785 22.09375,1.09375 21.995971,0.96916785 21.708323,0.90791015 21.1875,0.9375 z M 32.15625,1 c -0.08135,0.031755 -0.179596,0.060857 -0.25,0.09375 0.0894,0.1675176 1.452546,0.023698 2.9375,-0.09375 l -2.6875,0 z m -16.75,0.3125 C 14.820773,1.283203 13.821141,1.3817265 13.1875,1.5 12.614387,1.7710444 12.498114,2.075591 13.5,2.34375 13.373076,2.109971 13.623438,1.9344415 14.625,1.90625 14.919864,1.834135 15.097006,1.7760679 15.28125,1.71875 15.23697,1.633267 15.28905,1.4714232 15.40625,1.3125 z M 15.8125,1.375 c -0.04319,0.051637 -0.08704,0.1479105 -0.125,0.1875 0.154407,-0.078557 0.216034,-0.148804 0.125,-0.1875 z m 22.6875,0 c -1.000459,0.556737 1.055055,0.3209372 0,0 z m -0.28125,0.5 C 37.870728,1.87393 37.491809,1.88448 37.09375,1.90625 36.878657,2.0442396 36.826962,2.1830521 37.125,2.25 35.651381,3.0756309 37.491363,4.1041704 36.5,4.40625 35.679625,4.2148363 37.743775,7.3220644 35.46875,6.15625 33.093931,6.0011805 34.726136,7.4535706 35.375,7.9375 35.089173,7.4744605 35.160686,7.0708369 36.46875,7.15625 38.364603,8.127762 37.267597,6.1443043 37.3125,5.5625 37.133985,5.56989 36.939803,5.491746 37.28125,5.28125 c 0.09315,0.045232 0.153896,0.089574 0.1875,0.125 0.01143,0.00141 0.01843,-0.00299 0.03125,0 C 38.290904,5.1652527 37.28508,4.4437161 37.59375,3.75 37.51908,3.8781266 36.936181,3.806409 37.4375,3.5625 37.583255,3.654776 37.618642,3.7072911 37.59375,3.75 37.67198,3.5741733 37.827026,3.4169474 38.125,3.25 36.821581,2.9572145 42.152837,1.7037237 39,1.90625 38.776046,1.882178 38.503703,1.875878 38.21875,1.875 z m 24.625,0 c -0.08353,0.032906 -0.154227,0.027514 -0.25,0.0625 -0.008,0.011817 0.0035,0.021104 0,0.03125 -0.06338,0.1841217 0.536724,0.103164 0.25,-0.09375 z M 63.6875,1.96875 C 63.576759,2.3297834 63.77433,2.4173268 64,2.375 L 64,2 c -0.07098,0.086584 -0.197292,0.080492 -0.28125,-0.03125 -0.0054,-0.00721 -0.02644,0.00817 -0.03125,0 z m -2.125,0.3125 c -1.920966,0.5703907 1.418343,1.627926 0,0 z m 0.875,0 C 61.811995,3.7109846 63.343943,3.0708366 64,2.8125 l 0,-0.15625 c -0.503711,-0.2963165 -1.146448,0.059311 -1.5625,-0.375 z m -24.8125,0.125 c 0.743486,0.072346 -0.344095,0.6378893 0,0 z m 15.15625,0.4375 C 52.363295,3.3305101 51.285194,3.1999267 50.9375,3.375 50.95483,3.394147 50.97979,3.417652 51,3.4375 c 0.255924,-0.026314 0.493148,0.095668 0.75,0.5 0.131345,-0.3144541 0.930685,-0.4799109 1.9375,-0.5 0.20981,-0.1133136 0.271129,-0.20596 0.25,-0.28125 -0.0018,-0.00627 -0.02829,0.00604 -0.03125,0 -0.192393,0.050459 -0.548965,-0.020886 -0.375,-0.1875 -0.280214,-0.0681 -0.61821,-0.109586 -0.75,-0.125 z M 51.75,3.9375 C 51.395033,3.7353829 51.159185,3.5938561 51,3.4375 50.95895,3.44172 50.91564,3.425855 50.875,3.4375 50.86059,3.455162 50.84848,3.477752 50.84375,3.5 50.721208,3.548675 50.630847,3.568205 50.53125,3.59375 50.273673,3.7703165 50.053403,4.0372445 49.84375,4.25 50.349956,4.191037 50.705769,4.168899 50.09375,4.8125 50.199849,6.7136324 51.051685,4.5350068 52,4.4375 51.817818,4.2585557 51.71836,4.093436 51.75,3.96875 51.7443,3.96553 51.7556,3.940708 51.75,3.9375 z m 0.25,0.5 C 52.172239,4.606678 52.409596,4.7770539 52.8125,5 52.74484,4.88303 52.693375,4.7981777 52.625,4.71875 52.58213,4.71746 52.53939,4.704861 52.53125,4.65625 c -0.0046,-0.0045 0.0046,-0.026903 0,-0.03125 C 52.353302,4.4583744 52.175614,4.4194432 52,4.4375 z m 4.125,-1.46875 c -0.954215,0.4447017 1.017277,0.2494079 0,0 z M 52.96875,3 c 0.633706,0.334345 -0.613438,0.4256324 0,0 z m 4.6875,0 c -0.409716,0.5831463 0.808661,0.1099274 0,0 z M 9.4062501,3.125 c -0.021153,0.096738 -0.01256,0.1605597 0,0.21875 0.1795015,0.011618 0.2815888,0.051579 0.3125,0.125 0.1106862,-0.082223 0.1230367,-0.2483161 -0.3125,-0.34375 z m 5.1249999,0 C 14.52265,3.13661 14.50487,3.143966 14.5,3.15625 c 0.0197,-0.00592 0.04308,0.00752 0.0625,0 C 14.55064,3.14833 14.54318,3.132934 14.53125,3.125 z M 49.25,3.34375 c -0.12377,7.7e-5 -0.272055,0.063159 -0.5,0.25 -0.231864,0.5366588 0.04198,0.6720993 0.40625,0.6875 C 49.12682,4.1630006 49.10556,4.0240971 49.09375,3.8125 49.288302,3.6079081 49.349194,3.4669704 49.375,3.375 49.33803,3.362681 49.29181,3.343724 49.25,3.34375 z M 12.71875,3.40625 C 12.551632,3.40169 12.362145,3.425172 12.125,3.46875 11.704624,3.512516 11.474893,3.524544 11.3125,3.5 c 1.594969,0.3303196 -0.05355,1.0810881 1.46875,1 -0.120705,-0.1623162 -0.149197,-0.3863929 0,-0.6875 0.672158,0.6493952 1.107323,-0.3743436 -0.0625,-0.40625 z m 25.90625,0 c -0.344095,0.6378893 0.743486,0.072346 0,0 z M 7.5937501,3.59375 c 0.8934661,1.6566873 2.8441669,0.6956038 0.40625,0.0625 -0.1336498,-0.014492 -0.2673239,-0.090868 -0.40625,-0.0625 z M 54.78125,3.8125 c -0.963124,0.425439 0.880144,0.4950972 0,0 z M 53.96875,4 c -0.613438,0.4256324 0.633706,0.334345 0,0 z M 5.4687501,4.3125 c -0.2510763,0.043045 -0.2220111,0.1847337 -0.1875,0.34375 0.1672542,0.070066 0.2634674,0.1218319 0.375,0.1875 0.2113666,-0.1626393 0.3376602,-0.3611065 0.125,-0.53125 -0.1360383,-0.00417 -0.2383184,-0.012718 -0.3125,0 z M 10.15625,4.34375 c 0.269869,1.0189639 1.161119,-0.1627055 0,0 z M 38.4375,4.5625 c -0.668426,0.3252114 0.583021,0.3691035 0,0 z M 4.1562501,4.65625 c -0.2956895,0.4255196 0.5898506,0.2047753 0,0 z m 3.3125,0.1875 c -0.5986176,0.3474745 0.5977522,0.3780693 0,0 z M 20.4375,4.9375 c -0.278897,0.011671 -0.546463,0.035429 -0.75,0.03125 0.173451,0.049032 0.527724,0.063699 1.15625,0.0625 C 18.847799,6.6843787 21.950297,5.4866229 23.625,6.1875 23.56985,6.134099 23.52907,6.085738 23.46875,6.03125 23.161889,5.1833657 22.23013,4.9712639 21.3125,4.9375 c -0.305877,-0.011255 -0.596104,-0.011671 -0.875,0 z m -7.65625,0.03125 c -0.533085,0.4716818 0.701178,0.2994349 0,0 z m -9.3124999,0.125 C 3.2986607,5.130527 3.1434969,5.188714 3.0000001,5.25 c 0.090596,-0.016026 0.2973003,-0.00705 0.5625,0.03125 0.037422,-0.096525 0.038007,-0.1763442 -0.09375,-0.1875 z M 4.4375001,5.25 c -0.03458,0.03148 -0.042798,0.067775 -0.0625,0.09375 0.065796,-0.00318 0.1249822,0.00942 0.1875,0 C 4.5302551,5.316212 4.5005711,5.281713 4.4375001,5.25 z m 14.8437499,0 c -0.569649,0.3640219 0.595796,0.4136383 0,0 z M 2.9375001,5.28125 c -1.0171877,0.469262 -1.2299698,1.3899013 0.3125,0.40625 0.011435,-0.00411 0.044416,-0.049061 0.0625,-0.0625 C 3.0847854,5.457526 2.9358754,5.3269993 2.9375001,5.28125 z M 53.59375,5.4375 c -0.320047,0.6499472 0.752841,0.022725 0,0 z M 10.6875,5.5 c 0.329135,0.5358723 1.222644,0.9873915 2.1875,1.28125 0.02701,-0.032101 0.03327,-0.060517 0.0625,-0.09375 0.199862,-0.036811 0.322455,0.065013 0.40625,0.21875 0.268298,0.064791 0.524656,0.1222683 0.78125,0.15625 0.032,-0.057487 0.06035,-0.095471 0.09375,-0.15625 0.21271,0.083523 0.416451,0.1472368 0.625,0.21875 0.288929,-7.392e-4 0.552781,-0.027075 0.75,-0.09375 -0.28565,0.00838 -0.466611,-0.1015805 -0.0625,-0.5 0.238306,0.00213 0.369942,0.041565 0.5,0.0625 C 16.04202,6.517834 16.02875,6.4383121 16,6.34375 13.9351,6.7862397 12.46516,6.269438 10.6875,5.5 z M 6.2812501,5.65625 c -0.1220295,1.6883848 -4.0611327,-0.4316368 -1.4375,1.3125 0.3535526,0.049002 0.9648142,-0.01628 1.46875,-0.15625 0.044857,-0.084175 0.096571,-0.1741162 0.125,-0.28125 l -0.09375,0.28125 c 0.7580527,-0.2179282 1.219178,-0.6193329 -0.0625,-1.15625 z m 2.8125,0.03125 c -0.05512,0.065264 -0.087613,0.1318564 -0.125,0.1875 0.9104272,0.092114 -0.086916,0.7855079 0,0 -0.2222418,0.3307704 -0.1462743,0.4738801 0.03125,0.53125 0.076923,-0.019648 0.1320272,-0.044187 0.21875,-0.0625 0.020158,0.031721 0.012848,0.063219 0.03125,0.09375 0.4938298,-0.050051 1.0852369,-0.4862876 -0.15625,-0.75 z m -1.125,0.03125 c -0.3529364,0.6111359 0.7360524,0.00779 0,0 z m -5.1875,0.4375 c -0.2917943,0.6357117 0.7171408,0.00209 0,0 z m 5.5,0 c -0.2678279,0.6933831 0.8391283,0.1520915 0,0 z m 1.9687499,0 c -0.3506752,0.6949758 0.83247,0.01172 0,0 z m 28.03125,0.125 c -0.682893,0.4209921 0.74523,0.3618576 0,0 z M 7.7500001,6.4375 c -0.6242691,0.3740635 0.6264903,0.3003876 0,0 z M 38.71875,6.5625 c -0.582501,0.3617015 0.583756,0.3711865 0,0 z M 11.375,6.59375 c 0.0048,0.051489 0.0048,0.081093 0,0.125 0.04775,-0.033491 0.06732,-0.073136 0,-0.125 z m 40.125,0.125 c -0.528395,0.4431986 0.637305,0.2377911 0,0 z M 34.75,6.875 c 1.176082,0.193649 0.649119,0.6386547 0,0 z M 2.2500001,7.15625 c -0.2672175,0.3897545 -0.6752164,0.5454072 -1.0625,0.5625 -0.52167566,0.8426038 1.1573578,1.491218 1.96875,0.5625 C 3.0407632,8.28769 2.92844,8.295218 2.7812501,8.3125 2.4181748,7.6551235 2.42927,7.331077 2.6562501,7.21875 2.4954224,7.195799 2.3823222,7.1805876 2.2500001,7.15625 z M 12.09375,7.3125 c -1.872816,0.5597223 -0.07263,1.247976 0.25,0.5625 -0.0049,-0.084208 -10e-4,-0.1787891 0.03125,-0.28125 -0.0072,-0.077234 -0.03018,-0.1546449 -0.0625,-0.25 L 12.125,7.3125 l -0.03125,0 z M 64,7.3125 c -0.566458,0.8520888 -0.690662,1.9865594 0,1.90625 L 64,7.3125 z M 10.21875,7.34375 C 9.9698143,7.3963178 9.7651452,7.4376426 9.5937501,7.5 c -0.00256,0.00897 0.003,0.022673 0,0.03125 -0.068495,0.1961209 -0.2800546,0.2621926 -0.5,0.28125 -0.5551133,0.5104039 0.3955194,1.0766056 1.0312499,1 -0.009,-0.3074228 0.01003,-0.6231771 0.15625,-0.90625 0.104637,0.1848944 0.209269,0.3325262 0.3125,0.46875 0.01649,-0.2334162 -0.08063,-0.5680214 -0.375,-1.03125 z m 6.3125,0.1875 C 16.4919,7.570047 16.4665,7.591271 16.4375,7.625 c 0.266751,0.080561 0.522935,0.1627906 0.78125,0.25 0.269743,-0.1463936 0.271337,-0.3351788 -0.6875,-0.34375 z M 34.09375,7.75 c -0.5274,0.5718898 0.718969,0.1395072 0,0 z M 7.3125001,7.875 c -0.057097,0.098534 -0.1384329,0.1824481 -0.21875,0.25 0.09171,0.086363 0.1652015,0.1741986 0.21875,0.25 l -0.0625,-0.28125 0.0625,-0.21875 z M 35.75,7.875 c 0.649119,0.6386547 1.176082,0.193649 0,0 z M 35,8 c -0.693517,0.1087165 -0.492508,0.6714321 -0.03125,0.9375 0.0067,-0.045527 0.0371,-0.092185 0.125,-0.1875 0.359485,0.069754 0.218296,0.2272022 0.0625,0.28125 0.130505,0.047224 0.263954,0.075494 0.40625,0.0625 -2.741664,0.425808 -5.357309,1.164702 -6.71875,3.65625 -0.46545,1.443489 -1.304196,1.548883 -2.09375,1.0625 0.901877,1.326334 2.413554,2.046975 3.09375,-0.0625 1.361441,-2.491548 3.977086,-3.230442 6.71875,-3.65625 C 35.69511,10.172958 34.878766,8.8968739 36.46875,9 36.228808,8.8360729 35.725281,8.4165552 35.4375,8 35.275168,7.99134 35.11229,7.982397 35,8 z m 1.46875,1 c 0.128901,0.088065 0.207337,0.1210793 0.0625,0 -0.02482,-0.00216 -0.03877,0.00154 -0.0625,0 z M 3.5937501,8.28125 c -0.076643,0.072751 -0.096351,0.2021207 -0.0625,0.375 0.4008017,-0.1419821 0.4915478,-0.327774 0.0625,-0.375 z M 13.375,8.59375 c -0.107522,0.3413231 -0.003,0.5817456 0.25,0.75 0.245505,-0.061513 0.486322,0.060349 0.6875,0.25 0.371835,0.088587 0.812917,0.1589402 1.28125,0.21875 0.01371,-0.023055 0.01076,-0.035036 0.03125,-0.0625 0.122772,0.02668 0.188961,0.057654 0.21875,0.09375 0.290604,0.037437 0.556531,0.1070225 0.84375,0.15625 0.450098,0.07714 0.885868,0.162112 1.25,0.3125 -0.263016,-1.0993898 -1.843136,-1.3166205 -3.28125,-1.5 -0.0306,0.034905 -0.06688,0.1048832 -0.09375,0.125 -0.0095,-0.00408 -0.02078,0.00408 -0.03125,0 -0.08292,0.047152 -0.118043,-0.00379 -0.15625,-0.15625 -0.01009,-0.00132 -0.02119,0.00133 -0.03125,0 C 13.989221,8.734537 13.667786,8.6600069 13.375,8.59375 z m 1,0.1875 c 0.0317,0.089699 0.07115,0.090612 0.09375,0 -0.03051,-0.00394 -0.06348,0.00396 -0.09375,0 z M 7.4375001,8.625 C 7.5553764,9.2526947 6.1220508,9.3958038 4.7187501,9.28125 5.2272437,9.3915411 4.5613756,9.8048589 3.5312501,9.8125 3.89983,10.011744 4.5919409,10.162291 5.3437501,10.25 5.7070171,9.2733953 6.7961005,10.085244 8.2500001,10 8.6216958,9.7381026 8.5097837,9.3064356 7.4375001,8.625 z M 11.28125,8.90625 C 11.26551,8.936714 11.26285,8.968717 11.25,9 11.31457,9.044183 11.374148,9.088062 11.4375,9.125 11.38789,9.048523 11.331154,8.9944304 11.28125,8.90625 z m -7.5624999,0.25 c 0.026379,0.052593 0.030418,0.098163 0.0625,0.15625 C 3.9540383,9.292213 4.0894135,9.255534 4.2187501,9.25 4.042964,9.227405 3.8827555,9.186315 3.7187501,9.15625 z m 11.8124999,0 c 0.648675,0.2660451 -0.518897,0.4538499 0,0 z m 26.46875,0 c -0.538165,0.4551607 0.689607,0.2214664 0,0 z M 41.59375,9.4375 c -0.591742,0.3495369 0.566989,0.3450059 0,0 z m -20.9375,0.6875 c 0.0722,0.08792 0.147688,0.154992 0.21875,0.25 0.102876,0.05144 0.135866,0.07994 0.21875,0.125 -0.141724,-0.135138 -0.29187,-0.259566 -0.4375,-0.375 z m -4.21875,0.15625 c -0.145604,0.217922 0.254807,0.18758 0.28125,0.0625 -0.111933,0.01731 -0.214592,-0.03 -0.28125,-0.0625 z m -3.59375,0.0625 c 0.02309,0.04493 0.03998,0.07544 0.0625,0.125 0.0046,-0.02562 0.02633,-0.03788 0.03125,-0.0625 -0.0312,-0.01695 -0.06211,-0.04596 -0.09375,-0.0625 z m 1.84375,0 C 14.684,10.631905 14.481744,10.888227 14.03125,11 c -0.003,0.0083 0.003,0.02277 0,0.03125 -0.04467,0.127757 -0.09467,0.267198 -0.125,0.4375 -0.07439,-0.163693 -0.138369,-0.288881 -0.21875,-0.40625 -0.08222,0.0051 -0.15547,0.0027 -0.25,0 0.717305,1.214456 2.061575,1.524112 0.65625,1.84375 0.06755,0.09345 0.105702,0.199848 0.15625,0.3125 0.03739,-0.01008 0.05061,-0.02092 0.09375,-0.03125 0.273422,0.198538 0.174479,0.300858 0,0.34375 0.03625,0.166702 0.06997,0.321315 0.03125,0.5 1.485856,-0.230124 1.477266,-0.406888 1.09375,-0.78125 0.532325,0.775389 -0.748695,0.489534 -0.03125,-0.0625 -0.274256,-0.258885 -0.682367,-0.587222 -1,-1.125 2.076288,0.05935 1.119334,-1.833976 0.25,-1.71875 z M 57.625,10.625 c -0.190069,0.427196 -1.04214,0.668098 -2,0.03125 -0.198392,1.043675 0.289484,1.467701 0.96875,1.5 -0.0064,-0.150437 -0.0049,-0.309845 0.03125,-0.5 0.3055,0.203116 0.607157,0.296648 0.875,0.34375 0.416626,-0.140518 0.832159,-0.370958 1.15625,-0.65625 C 58.59111,11.079201 58.28498,10.797547 57.625,10.625 z m -41,0.125 c -0.428795,0.574627 0.709347,0.154149 0,0 z M 17.6875,11 c -1.063963,0.483658 0.896647,0.398256 0,0 z m 3.9375,0.09375 c -0.402132,0.138694 -1.700411,0.0105 -1.9375,0.21875 2.120953,2.245008 -0.165595,2.468945 -1.71875,1.4375 -0.667027,0.269564 -1.00268,0.469197 0.53125,0.625 1.471342,1.443331 4.541994,1.429709 2.1875,-1.0625 0.386138,-0.339168 3.568959,0.253344 1.1875,-0.9375 -0.0805,-0.107624 -0.16804,-0.182694 -0.25,-0.28125 z m -9.15625,0.375 c -0.114126,0.03497 -0.09313,0.241708 0.1875,0.71875 -2.780863,0.481393 -2.572449,3.563163 -0.71875,4.6875 -0.801565,-1.381292 -0.430892,-3.315377 1.71875,-3.6875 C 13.61078,13.1102 13.59427,13.063976 13.5625,13 c -0.07094,0.01188 -0.108564,0.01902 -0.1875,0.03125 0.18501,-0.853881 -0.655173,-1.639424 -0.90625,-1.5625 z M 51.8125,11.6875 c -2.079594,-0.110687 -1.147783,4.083519 -2.84375,4.90625 0.209993,0.221867 0.317733,0.575241 0.21875,1.125 1.903798,0.113549 1.792314,-2.389345 2.3125,-3.90625 -0.178288,-0.54378 0.09962,-1.306771 0.84375,-2.03125 C 52.151352,11.72134 51.96863,11.69581 51.8125,11.6875 z M 38.75,12 c -0.126609,-4.4e-5 -0.250073,0.0136 -0.375,0.03125 -0.01736,0.01334 -0.04401,0.01831 -0.0625,0.03125 -0.322754,0.225876 -0.790405,0.367716 -1.125,0.40625 -0.758557,0.444991 -0.933161,1.053085 0.84375,1.03125 0.683988,-0.0048 2.500455,-0.784792 1.09375,-1.46875 C 39.006365,12.01378 38.876609,12.00004 38.75,12 z m -19.40625,0.59375 c 0.580422,0.846374 1.187354,0.131168 0,0 z m 1,1 c 1.187354,0.131168 0.580422,0.846374 0,0 z m 34.1875,0.28125 c -0.868919,1.221536 2.184564,0.659312 0,0 z m -39.1875,0.3125 c -1.590596,0.380952 0.825426,0.599361 0,0 z m 26.8125,0.15625 c -0.804362,1.012358 0.474536,1.165174 0,0 z m 8.4375,0.03125 c 0.764835,0.0229 -0.320732,0.638387 0,0 z m 1.84375,0.15625 c 0.0082,0.203489 0.07749,0.375532 0.1875,0.53125 0.744425,-0.404298 1.711409,-0.470305 1,-0.53125 -0.48189,0.08448 -0.864148,0.06729 -1.1875,0 z m -33.34375,0.25 c 0.115756,0.249044 0.204305,0.546353 0.21875,0.875 0.151975,-0.185695 0.264092,-0.345618 0.40625,-0.4375 -0.181939,-0.184958 -0.399609,-0.336867 -0.625,-0.4375 z m 27.5,0.375 c -0.48769,1.111306 0.691036,0.905359 1.625,1.09375 -0.03941,-0.925543 -0.886856,-1.023543 -1.625,-1.09375 z m -2.40625,0.0625 c -0.811121,0.625286 0.817301,0.479081 0,0 z m 7.40625,0.15625 c -0.006,0.01197 0.005,0.02015 0,0.03125 0.206202,0.07886 0.09881,0.179564 -0.03125,0.21875 0.102284,0.148735 0.633558,-0.231966 0.03125,-0.25 z m -1.5,0.5625 c 0.831713,0.433989 -0.819523,0.667439 0,0 z m -6.5,0.15625 c -0.369914,0.21162 -0.57806,0.469377 -0.6875,0.75 0.625447,1.041922 1.177425,2.223276 0.34375,2.6875 0.03659,0.2344 0.05364,0.457603 0,0.65625 0.375365,-0.311645 0.875242,-0.588976 1.375,-0.875 -0.222849,-0.84079 -0.977138,-1.873992 -1.40625,-2.5625 0.109142,-0.222752 0.419183,-0.367504 0.375,-0.65625 z M 21.5,16.125 c 0.210634,0.33464 0.409388,0.694643 0.5625,0.96875 0.183412,-0.02604 0.287496,-0.03387 0.40625,-0.03125 C 22.188722,16.628151 21.875329,16.254801 21.5,16.125 z m 29.59375,0.8125 c -0.08677,0.07067 -0.118996,0.136198 -0.15625,0.1875 0.0868,-0.05349 0.136367,-0.102415 0.21875,-0.15625 -0.02174,-0.01349 -0.03581,-0.01732 -0.0625,-0.03125 z m -3.21875,0.625 c 0.0029,0.08693 0.0068,0.168195 0,0.25 0.04973,0.02383 0.104798,0.04434 0.15625,0.0625 -0.04839,-0.100226 -0.114422,-0.19555 -0.15625,-0.3125 z m -25.0625,0.09375 c -0.179336,0.336122 -0.430389,0.685737 0.09375,0.59375 2.217029,1.723153 -3.592651,1.200035 -4.03125,2.8125 1.454054,-0.72986 1.477194,-0.404645 1.875,0.21875 0.61813,-0.264738 1.43968,-0.426156 2.15625,-0.59375 -0.180761,-0.305629 -0.01796,-0.663258 0.9375,-0.96875 0.308849,0.158229 -0.617752,0.555082 0.21875,0.4375 0.03761,0.03521 0.0599,0.06036 0.09375,0.09375 0.341855,-0.226274 0.369647,-0.518388 -0.25,-1 -1.08912,0.191141 1.185486,-1.444353 -0.84375,-1.15625 -0.06908,-0.123661 -0.169133,-0.29055 -0.25,-0.4375 z m -8.65625,0.625 c 0.280097,0.548036 0.601645,0.78975 0.90625,0.8125 -0.05833,-0.131744 -0.103065,-0.277379 -0.15625,-0.4375 -0.160407,0.07669 -0.505984,-0.02729 -0.25,-0.375 -0.17521,0.01312 -0.336939,0.014 -0.5,0 z m 0.5625,0 c 0.03864,0.02548 0.06504,0.03919 0.09375,0.0625 -0.0065,-0.02326 -0.02491,-0.03873 -0.03125,-0.0625 -0.02223,0.0025 -0.04045,-0.0021 -0.0625,0 z m 27.15625,0 c -1.445724,1.559823 -0.499871,1.701728 0.125,1.3125 0.27433,-0.269917 0.302702,-0.606202 0.25,-1 -0.08901,-0.104749 -0.198888,-0.207969 -0.375,-0.3125 z m -29.5625,1.625 c -0.608848,0.34227 0.614629,0.347217 0,0 z m 9.21875,0.1875 c 0.740449,0.09712 -0.428409,1.134673 -0.4375,0.03125 0.192941,-0.03318 0.331722,-0.04512 0.4375,-0.03125 z m -8.875,0.59375 c -2.7571093,1.287438 0.630395,0.188569 0.5,1.25 0.151848,-0.07772 0.264676,-0.140115 0.5,-0.25 0.319584,0.130716 0.682072,0.398697 1.03125,0.6875 -0.218365,-0.327438 -0.720086,-0.822909 -1.25,-1.21875 -0.0066,-0.005 -0.0246,0.0049 -0.03125,0 C 13.270757,21.18777 13.045462,21.1371 13.1875,21 12.997364,20.872843 12.826509,20.757139 12.65625,20.6875 z m 12.1875,0.03125 c -0.100021,0.03198 -0.166758,0.0606 -0.25,0.09375 0.0607,0.110597 0.09773,0.208098 0.09375,0.28125 0.06194,-0.106416 0.340372,-0.280671 0.15625,-0.375 z m -2.3125,0.375 c -0.105778,-0.01387 -0.244559,-0.0019 -0.4375,0.03125 0.0091,1.103423 1.177949,0.06587 0.4375,-0.03125 z M 16.5,21.125 c -0.839567,0.342336 0.821155,0.496363 0,0 z m 8.1875,0.03125 c -0.06614,0.196418 -0.420866,0.205452 -0.78125,0.125 -0.527081,0.951717 3.240223,1.825936 1.15625,-0.125 -0.235266,0.03307 -0.346712,0.02786 -0.375,0 z m 31.84375,0.40625 c -0.239187,-0.01802 -0.456537,0.180864 -0.59375,0.6875 -2.047794,-1.899702 -1.998382,2.967989 -4.1875,2.4375 0.235657,0.779018 0.252151,1.101642 0.125,1.125 0.139368,0.178376 0.249011,0.322859 0.375,0.46875 0.245797,0.120976 0.237758,0.204679 0.15625,0.25 0.102281,0.180821 0.171312,0.214402 0.21875,0.15625 0.211811,0.173961 0.351724,0.136503 0.3125,-0.21875 -0.117951,-0.01425 -0.204905,-0.117241 -0.0625,-0.25 -0.03241,-0.152661 -0.05576,-0.30237 -0.125,-0.53125 0.317422,0.07692 0.575531,0.01966 0.8125,-0.09375 -0.112469,-0.646666 0.427515,-1.468128 1.375,-1.71875 0.503213,-0.874586 1.00892,-1.544407 2,-0.625 0.137213,-0.506636 0.354563,-0.705522 0.59375,-0.6875 -0.279021,-0.516688 -0.663493,-0.974645 -1,-1 z m 5.34375,0 c -1.512575,0.247487 -1.488333,0.750413 -0.875,1.96875 -0.418996,1.338958 0.441758,2.534514 1.03125,2.53125 C 61.86638,25.627379 61.82331,25.095886 62,24.53125 c -0.363648,-0.722359 -0.499138,-1.185288 -0.25,-1.5 -0.06439,-0.454874 -0.04474,-0.954653 0.125,-1.46875 z m -40.84375,0.09375 c 0.136108,0.156922 0.302839,0.334157 0.53125,0.5 0.03152,-0.01769 0.03351,-0.01513 0.0625,-0.03125 -0.163848,-0.269703 -0.31102,-0.471317 -0.59375,-0.46875 z m -5.71875,0.0625 c -0.313135,0.610042 0.768468,0.06333 0,0 z m 5.125,0.3125 c -0.658131,0.11314 -2.126337,1.686539 -2.65625,2.21875 -1.190937,1.748085 -3.255018,4.036092 -2.65625,6.59375 0.193858,0.134704 0.393859,0.300205 0.5625,0.5 0.019,-0.03778 0.06014,-0.09952 0.125,-0.15625 0.385152,0.157959 0.131006,0.296383 -0.03125,0.28125 0.08017,0.105156 0.114806,0.221446 0.1875,0.34375 0.0063,-0.0397 0.02853,-0.09396 0.0625,-0.15625 0.02852,0.0035 0.03902,0.02666 0.0625,0.03125 -0.478219,-2.493031 1.521531,-4.726063 2.6875,-6.4375 0.706551,-0.709615 3.079199,-3.261598 2.96875,-1.75 -1.165873,1.149195 3.042186,-1.595203 0.8125,-0.34375 -0.491206,-0.356651 -0.707004,-0.693902 -0.875,-0.96875 -0.637281,0.412323 -1.580099,0.945907 -0.9375,0.3125 0.02761,-0.3779 -0.09312,-0.506463 -0.3125,-0.46875 z M 24.59375,22.25 c -0.557966,0.415862 0.642129,0.364536 0,0 z m 23.75,0.09375 c -0.386864,0.03738 -0.388284,0.558806 0.6875,1.53125 1.326367,1.352666 0.642871,1.365495 -0.1875,0.8125 0.586769,0.90522 1.809254,1.565019 1.9375,1.28125 C 50.657668,25.96465 50.576583,25.91261 50.75,25.78125 50.68003,25.595887 50.46367,25.315994 50.03125,24.875 48.574803,23.55846 49.088836,23.084199 49.875,23.5 49.379815,22.704546 48.697979,22.309521 48.34375,22.34375 z m -35.375,0.0625 c -0.445851,1.744097 -0.100592,0.997885 0.625,0.03125 -0.214822,-0.03352 -0.432035,-0.02589 -0.625,-0.03125 z m 33.40625,0.4375 c -1.75794,-0.124659 -2.566716,3.304962 -4.71875,3.375 -0.100632,-0.04019 -0.193161,-0.08053 -0.28125,-0.125 0.108389,0.334237 0.368838,0.644338 0.8125,0.90625 0.640899,-0.261539 1.342418,-0.425595 2.0625,-0.53125 1.337098,-1.231158 2.189147,-3.44057 3.96875,-2.3125 -0.170509,-0.175227 -0.317718,-0.357856 -0.4375,-0.5625 -0.533278,-0.490532 -1.000572,-0.721233 -1.40625,-0.75 z M 16.25,22.9375 16.03125,23.03125 c -0.177918,0.0819 -0.303106,0.119179 -0.4375,0.1875 0.0072,0.009 -0.0069,0.02244 0,0.03125 0.05661,0.07209 0.08982,0.128724 0.125,0.1875 C 15.923936,23.319915 16.158255,23.178426 16.375,23 16.31622,23.0057 16.261575,22.9964 16.25,22.9375 z m 30.5625,0.5 c 0.755389,0.59223 -0.887801,0.499722 0,0 z m -31.65625,0.03125 c -0.555032,0.341713 -0.29961,0.379538 0.25,0.125 -0.06197,-0.02887 -0.171817,-0.08225 -0.25,-0.125 z M 47.8125,24.4375 c -0.887801,0.499722 0.755389,0.59223 0,0 z m -2.65625,0.15625 0.25,0.125 c -0.412098,0.606176 -1.613365,0.03857 -0.25,-0.125 z m -1,0.5625 c 0.692597,0.159609 -0.496487,0.51788 0,0 z m 3.59375,0.25 c -0.899233,0.877864 0.846624,0.675651 0,0 z m -1.59375,0.1875 c -1.363365,0.163571 -0.162098,0.731176 0.25,0.125 l -0.25,-0.125 z m -1,0.5625 c -0.103435,0.107892 -0.135626,0.177194 -0.125,0.21875 0.115786,-0.01085 0.228368,-0.05383 0.34375,-0.0625 0.02717,-0.05319 -0.01963,-0.110362 -0.21875,-0.15625 z M 56,26.34375 c -0.608696,0.14216 -1.098499,0.128607 -1.46875,0.0625 -0.0158,0.597025 0.47072,1.097515 1.625,1.03125 C 56.17496,27.131032 56.13078,26.773214 56,26.34375 z m 8,0.1875 c -0.05425,0.368578 -0.03592,0.922283 0,1.5 l 0,-1.5 z m -14.3125,0.125 c -0.0998,-0.01351 -0.229451,0.0029 -0.40625,0.03125 0.107408,0.999199 1.104877,0.06334 0.40625,-0.03125 z m 2.125,0.0625 c -0.624351,0.374075 0.626579,0.30039 0,0 z m 3.46875,0 c 1.017277,0.249402 -0.954217,0.444699 0,0 z m -6.5,0.4375 c -0.575991,0.45014 0.684259,0.338818 0,0 z m 5.1875,0 c -0.600214,0.389885 0.619848,0.414901 0,0 z m -6.59375,0.125 c 0.27759,0.337131 0.619642,0.661896 0.96875,0.96875 -0.326551,-0.39906 -0.578589,-0.759417 -0.75,-0.96875 -0.07171,0.0022 -0.146212,-0.0026 -0.21875,0 z m 5.875,0 c -0.506354,0.44513 0.655458,0.322604 0,0 z M 49.4375,27.75 c -0.406298,0.601645 0.761218,0.09363 0,0 z m -0.59375,0.15625 c -0.29602,0.68533 0.720405,0.0238 0,0 z M 53.375,28 c -0.529467,0.13718 0.597306,0.0416 0,0 z m -31.8125,1.03125 c -0.528316,0.443193 0.637206,0.237792 0,0 z m 17,0.125 c -0.5046,0.451341 0.638392,0.276326 0,0 z m -34.9062499,0.1875 c -0.098407,-0.0065 -0.074904,0.269459 0.03125,0.71875 0.027943,0.02536 0.065309,0.03737 0.09375,0.0625 0.2985695,1.618815 3.0368763,4.564543 1.125,1.6875 -0.2455876,-0.772414 -0.335488,-1.198713 -0.3125,-1.375 -0.00441,-0.0066 0.00439,-0.02473 0,-0.03125 -0.4145797,-0.615014 -0.7889031,-1.052728 -0.9375,-1.0625 z M 12.5625,29.375 C 11.45694,29.36163 10.271567,29.89942 9.3125001,30.65625 8.4122052,32.045277 9.0515347,33.734563 10.125,34.1875 9.778718,33.455574 9.7612991,32.506675 10.3125,31.65625 c 1.380832,-1.089659 3.241262,-1.715446 4.625,-0.90625 -0.603083,-0.970443 -1.452711,-1.363844 -2.375,-1.375 z m 48.59375,0.09375 c -0.56915,0.0382 -0.36174,1.258103 0.34375,2.25 0.149601,-0.06445 0.288822,-0.08461 0.4375,-0.125 -0.325286,-1.042281 0.04297,-1.748202 1.5,-0.3125 0.217871,0.177676 0.397237,0.28941 0.5625,0.375 l 0,-1.5 c -0.138444,0.689728 -0.535439,0.962579 -1.5625,0.125 -0.613108,-0.604132 -1.022546,-0.829864 -1.28125,-0.8125 z m -5.4375,0.5 c -0.123426,0.0215 -0.187447,0.205266 -0.1875,0.625 1.099505,2.173844 1.503948,5.072667 3.53125,6.59375 -1.207399,-1.593934 -1.640167,-3.831979 -2.53125,-5.59375 4.1e-5,-0.32646 0.04671,-0.48576 0.125,-0.5625 -0.360892,-0.614182 -0.725052,-1.099511 -0.9375,-1.0625 z m -39.90625,0.5 c 0.633898,0.265317 -0.523956,0.420582 0,0 z m 22.46875,0.4375 c -0.677019,0.463446 0.742125,0.308227 0,0 z m -21.46875,0.5625 c -0.158698,0.127388 -0.119903,0.15863 -0.0625,0.1875 0.08667,0.0045 0.141344,0.01648 0.1875,0.03125 0.0075,0.0024 0.02468,-0.0026 0.03125,0 0.06445,-0.04627 0.06165,-0.127547 -0.15625,-0.21875 z m 21.46875,0 c -0.362782,0.22366 -0.123912,0.302012 0.0625,0.28125 0.03273,-0.06269 0.05914,-0.125729 0.09375,-0.1875 -0.03534,-0.03018 -0.08101,-0.05722 -0.15625,-0.09375 z m -20.875,0.15625 c -0.624265,0.374072 0.626485,0.30039 0,0 z m -1.34375,0.3125 c 0.07443,0.137558 0.153979,0.279261 0.21875,0.4375 -0.05904,-0.153853 -0.117015,-0.285432 -0.15625,-0.4375 -0.02117,0.0039 -0.04341,0.002 -0.0625,0 z m 1.46875,0.25 c -0.548027,0.496443 0.705415,0.217293 0,0 z m -0.5625,0.1875 c -0.07362,0.0438 -0.183289,0.05919 -0.28125,0.03125 0.04942,0.07886 0.238046,0.04957 0.28125,-0.03125 z m 0.0625,0.28125 c -0.319759,0.586276 0.755801,0.09357 0,0 z m 0.75,0 c 0.0041,0.02944 -0.03254,0.04255 -0.0625,0.0625 -0.107735,0.276495 0.161302,0.254964 0.28125,0.15625 -0.01659,-0.02344 -0.0033,-0.07689 0.03125,-0.125 -0.01171,-0.0469 -0.07805,-0.07969 -0.25,-0.09375 z m -0.3125,0.40625 c 0.01768,0.448982 0.406719,0.381532 0.53125,0.25 -0.150221,0.08104 -0.488598,0.0465 -0.1875,-0.21875 -0.08814,-0.01974 -0.19318,-0.02718 -0.34375,-0.03125 z M 64,33.375 c -0.05049,0.152513 -0.102978,0.29667 -0.1875,0.46875 -1.125093,1.490658 -3.196392,2.650551 -4.59375,2.0625 C 60.162567,37.782395 62.432403,37.096607 64,35.6875 L 64,34 64,33.375 z m -48.5625,0.03125 c -1.060176,0.720462 2.336391,1.43318 2.46875,1.03125 -0.06443,-0.04443 -0.102396,-0.100753 -0.09375,-0.1875 -0.141743,-0.138212 -0.460249,-0.304265 -1.03125,-0.5625 -0.08593,-0.04029 -0.161921,-0.08805 -0.25,-0.125 -0.01688,1.47e-4 -0.0448,2.76e-4 -0.0625,0 -0.284424,-0.0044 -0.657242,-0.06047 -1.03125,-0.15625 z M 18.5625,33.5 c -0.737401,0.45921 0.746271,0.323013 0,0 z m 0.5625,0.15625 c -0.497478,0.415695 0.63835,0.230609 0,0 z M 13.40625,34.125 c -0.224011,0.333739 -0.453734,0.595476 -0.6875,0.78125 0.143568,0.387541 0.413531,0.749564 0.96875,0.96875 -0.09904,-0.285003 -0.127411,-0.602314 -0.15625,-0.90625 -0.110495,0.03637 -0.215831,-0.02978 -0.09375,-0.3125 0.0292,9.62e-4 0.0388,-0.0029 0.0625,0 -0.02017,-0.18122 -0.04734,-0.367838 -0.09375,-0.53125 z m -5.9062499,0.3125 c 0.1624691,0.244589 0.3295798,0.461328 0.4375,0.59375 C 9.6586038,36.46383 12.051948,36.558364 13.8125,37.875 12.225259,35.744952 9.5368073,35.734853 7.5000001,34.4375 z M 18.9375,34.96875 c -0.952262,1.305571 3.646515,-0.07326 0,0 z m 2.15625,0.21875 c -0.797015,0.346007 0.735369,0.528951 0,0 z m -4,0.15625 c -0.966319,0.620345 1.088004,0.134454 0,0 z m 4.5625,0.1875 c -0.269715,0.493685 0.268337,0.252576 0.25,0.09375 -0.111466,0.03359 -0.236565,0.02461 -0.1875,-0.09375 -0.02382,-0.0031 -0.03291,0.0013 -0.0625,0 z m -7.21875,0.125 c -0.295955,0.685378 0.720349,0.02374 0,0 z m 7.78125,0 c -0.291801,0.635702 0.71715,0.0021 0,0 z m 0.625,0.15625 c -0.496469,0.517866 0.692508,0.159618 0,0 z m 12.84375,0.28125 c -0.595768,0.434611 0.652894,0.26028 0,0 z m 0.84375,0.125 c -0.513327,0.439525 0.627662,0.25074 0,0 z M 22.84375,36.375 c -0.103431,0.10789 -0.135622,0.177194 -0.125,0.21875 0.03852,0.01862 0.04956,0.04355 0.0625,0.0625 0.0088,0.0018 0.02127,-4.47e-4 0.03125,0 0.166258,0.0074 0.464063,-0.181486 0.03125,-0.28125 z m -8.78125,0.09375 c -0.05755,0.801476 0.437977,1.390004 1.09375,1.65625 -0.107609,-0.318876 -0.132164,-0.706121 0,-1.125 -0.528807,-0.114418 -0.860258,-0.29173 -1.09375,-0.53125 z m 21.90625,0.34375 c -0.55751,0.418459 0.667987,0.282445 0,0 z m 0.5625,0 c -0.489506,0.427562 0.648526,0.262518 0,0 z M 23,36.9375 c -0.786407,1.185587 0.469149,0.669063 0,0 z m 0.53125,0.59375 c -0.414202,0.528369 0.810729,0.171841 0,0 z m 39.875,0.28125 c -0.356626,0.647297 0.732795,0.102979 0,0 z M 22.625,37.96875 c -0.350714,0.694934 0.832572,0.01176 0,0 z m -8.4375,0.21875 c 0.306395,0.279298 0.595549,0.60815 0.84375,1 0.414921,0.0054 0.726338,0.07571 1,0.15625 -0.02093,-0.11187 -0.04861,-0.21381 -0.09375,-0.3125 -0.256904,-0.142063 -0.470246,-0.350968 -0.625,-0.59375 -0.280431,-0.131371 -0.636594,-0.229368 -1.125,-0.25 z m 47.28125,0.15625 c -0.0282,0.0025 -0.06408,0.02743 -0.09375,0.03125 -0.125241,0.674582 -0.628095,1.531206 -1.1875,2.15625 -1.66384,1.110081 -2.360406,2.562288 -2.625,4.1875 0.02584,-0.03758 0.07957,-0.0718 0.15625,-0.125 0.475277,0.250756 -0.09399,0.356967 -0.15625,0.21875 -0.192544,1.265441 -0.152377,2.624436 -0.0625,4 -2.305855,1.485665 -1.441502,4.322515 -3.25,6.375 -1.231014,1.697481 -2.515303,1.850911 -3.53125,1.21875 1.075593,1.53783 2.843043,2.109167 4.53125,-0.21875 1.808498,-2.052485 0.944145,-4.889335 3.25,-6.375 -0.08988,-1.375564 -0.130044,-2.734559 0.0625,-4 0.06226,0.138217 0.631527,0.03201 0.15625,-0.21875 -0.07668,0.0532 -0.130406,0.08742 -0.15625,0.125 0.264594,-1.625212 0.96116,-3.077419 2.625,-4.1875 1.082427,-1.209435 1.947201,-3.335175 0.28125,-3.1875 z M 23.125,38.40625 c -0.49657,0.51784 0.692653,0.15965 0,0 z M 39.84375,39.5 c 0.174564,0.202844 0.349969,0.410513 0.5625,0.59375 1.476201,1.834745 4.681901,0.332253 6.40625,0.9375 C 45.941054,38.622952 41.901082,41.00257 39.84375,39.5 z M 25,40.53125 c 0.272268,0.409789 0.469604,0.874289 0.5,1.4375 -1.190111,1.750599 0.63285,-0.41457 0.28125,0.53125 0.05301,0.176078 0.322741,0.279324 0.6875,0.34375 C 26.37155,41.82734 25.777301,41.110815 25,40.53125 z m 21.34375,0.03125 c 0.748325,0.365802 -0.659349,0.451704 0,0 z m 0.625,1.625 c -0.06846,0.146282 -0.04991,0.19483 0,0.21875 0.003,-0.08156 2.22e-4,-0.142205 0,-0.21875 z m -34.53125,0.25 c -0.35294,0.61113 0.736058,0.0078 0,0 z m 34.125,0.28125 c -0.435289,0.614553 0.719597,0.108217 0,0 z m -34.625,0.4375 c -0.819499,0.667452 0.831697,0.433976 0,0 z m 0.5625,0 c -0.711235,0.507199 0.833747,0.252804 0,0 z m 0.5625,0.125 c -0.534804,0.524706 0.709556,0.211769 0,0 z m 33.28125,0.4375 c -0.607265,0.336011 0.577418,0.347855 0,0 z m 11.4375,0.3125 c 0.747279,0.09256 -0.339128,0.621901 0,0 z m -27,0.46875 c 0.04286,0.101128 0.06732,0.196654 0.09375,0.3125 -1.019558,1.913376 -1.100962,4.560184 -2.28125,6.53125 -3.497305,0.129767 -2.195682,6.11214 -5.78125,5.25 1.702034,2.33637 -3.533328,2.42793 -2.875,5.125 0.601774,1.769133 -0.79777,2.407137 -1.84375,2.15625 0.0042,0.04479 0.02186,0.0829 0.03125,0.125 L 21,64 c 0.116644,-0.333816 0.118313,-0.749684 -0.0625,-1.28125 -0.658328,-2.69707 4.577034,-2.78863 2.875,-5.125 3.585568,0.86214 2.283945,-5.120233 5.78125,-5.25 C 30.774038,50.372684 30.855442,47.725876 31.875,45.8125 31.726529,45.161677 31.322519,44.767081 30.78125,44.5 z m 28,0.53125 c -0.339128,0.621901 0.747279,0.09256 0,0 z m -0.9375,0.28125 c 0.637274,0.237759 -0.528325,0.443233 0,0 z m 5.5625,0.15625 c -0.330494,0.632839 0.73038,0.02981 0,0 z m -4.5625,0.84375 c -0.528325,0.443233 0.637274,0.237759 0,0 z m 0.84375,1.59375 c -0.496422,0.598113 0.719196,0.13307 0,0 z m 2.21875,0.40625 c -0.284274,0.193278 -0.571672,0.532334 -0.84375,0.9375 -0.09237,1.080176 -0.451112,2.147728 -1,3.0625 -0.0435,0.0098 -0.08438,-0.0061 -0.125,0 -0.0097,0.713974 0.310611,1.182629 1.125,1 0.878221,-1.463636 1.26914,-3.326997 0.84375,-5 z m 1.78125,1.46875 c -0.330492,0.632835 0.730379,0.02981 0,0 z M 7.5937501,53.9375 c -0.5313165,0.492066 0.6976396,0.215031 0,0 z m -1.71875,0.28125 c -0.6592714,0.451764 0.7482837,0.365734 0,0 z m 10.5937499,3.1875 c -0.339118,0.621907 0.747205,0.09257 0,0 z"
       style="color:#000000;fill:#404957;fill-opacity:0.230837;fill-rule:nonzero;stroke:none;stroke-width:1;marker:none;visibility:visible;display:inline;overflow:visible;enable-background:accumulate"
       inkscape:connector-curvature="0" />
    <path
       id="path4191"
       d="m 14.34375,0 c -1.642655,0.0672346 -4.28694,0.99345843 -1.25,1.5 0.02465,-0.00499 0.06776,0.00485 0.09375,0 0.536863,-0.2539007 1.429345,-0.4702475 2.15625,-0.5 l 4.5625,0 C 21.025991,0.53928621 21.355622,0.15627751 21,0 l -1.53125,0 -5.125,0 z M 27.75,0 c -1.454817,0.30919433 -3.322344,0.42844637 -4.875,0.84375 0.553726,0.34427 -0.437566,0.3107505 -0.4375,0.125 -0.117838,0.0379705 -0.231289,0.0823278 -0.34375,0.125 0.157717,0.2009497 -0.256085,0.5437496 -1.34375,0.96875 0.04568,0.016174 0.08451,0.047648 0.09375,0.0625 0.365565,-0.014728 0.245105,0.1720263 -0.09375,0.40625 0.248588,0.6711281 -4.371435,1.5066117 -0.90625,1.5 -0.921208,0.7629825 -0.766862,0.9249616 -0.15625,0.9375 -0.908069,-0.256696 3.347592,-1.1118012 1.6875,-1.6875 0.446073,-0.6285807 1.189047,-1.0310497 2.0625,-1.3125 1.9e-5,-0.053831 0.07681,-0.1178253 0.3125,-0.1875 0.0593,0.029925 0.08404,0.037031 0.125,0.0625 C 25.427656,1.4284464 27.295183,1.3091943 28.75,1 l 3.40625,0 c 1.426626,-0.55686926 4.339948,-0.94857537 2.6875,-1 l -1,0 L 32,0 27.75,0 z m -3.875,1.84375 c -0.148317,0.039672 -0.295767,0.07933 -0.4375,0.125 -6.6e-5,0.1857505 0.991226,0.21927 0.4375,-0.125 z m -1.4375,-0.875 C 22.579233,0.9230797 22.726683,0.8834217 22.875,0.84375 22.83404,0.8182813 22.8093,0.8111751 22.75,0.78125 22.514307,0.8509247 22.437519,0.9149188 22.4375,0.96875 z M 37.5,0.375 c -1.000459,0.55673703 1.055055,0.32093718 0,0 z m 24.25,0.4375 c -0.590252,0.4115979 0.648447,0.2880284 0,0 z M 37.21875,0.875 C 36.50862,0.872812 35.664674,0.9350717 34.84375,1 38.542208,0.9410508 34.387677,1.4016261 32.90625,2.09375 33.020848,2.3084903 35.210349,2.00926 37.09375,1.90625 37.819331,1.4407652 40.431914,0.75003307 38,0.90625 37.776046,0.8821784 37.503703,0.8758779 37.21875,0.875 z M 63.25,0.9375 C 63.121538,0.931899 62.937249,0.930587 62.6875,0.96875 62.407688,1.8809822 64.149235,0.976705 63.25,0.9375 z m 0.6875,0.03125 C 63.91915,1.1275346 63.97287,1.132381 64,1.09375 64.01696,1.069606 64.01694,1.027695 64,1 L 63.9375,0.96875 z m -3.375,0.3125 c -1.920966,0.5703907 1.418343,1.627926 0,0 z m 0.875,0 c -0.510291,1.166387 0.43307,0.9503476 1.15625,0.6875 0.0035,-0.010146 -0.008,-0.019433 0,-0.03125 C 62.61763,1.90205 62.67622,1.86395 62.75,1.8125 62.80006,1.834737 62.81447,1.854894 62.84375,1.875 62.95344,1.831785 63.083456,1.776965 63.15625,1.75 62.639453,1.2623564 61.894893,1.75872 61.4375,1.28125 z M 63.75,1.375 c -0.131359,0.2862537 -0.125,0.4875444 -0.0625,0.59375 0.0048,0.00817 0.02583,-0.00721 0.03125,0 C 63.840342,1.951024 63.915521,1.942551 64,1.9375 L 64,1.65625 C 63.95442,1.57483 63.872125,1.4768018 63.75,1.375 z M 10.96875,1.46875 C 10.661764,1.4951218 10.434971,1.7932776 10.3125,2.5 c 1.381262,0.2860609 0.324656,0.8647331 1,0.96875 0.502285,-2.76083577 2.788854,1.253194 4.25,0.6875 C 15.51269,4.122989 15.45685,4.095926 15.40625,4.0625 15.39151,4.05775 15.39076,4.035931 15.375,4.03125 14.889456,3.710476 14.413676,3.3738567 14.5,3.15625 13.403338,3.4860599 11.873455,1.3910307 10.96875,1.46875 z m 40.8125,0.375 C 51.293127,2.412229 49.919487,2.1440265 49.84375,2.5 48.385351,3.0792963 48.661781,1.8463873 47.75,2.59375 47.171026,3.9338108 49.528714,2.8271762 49.375,3.375 49.62951,3.459818 49.841963,3.7705395 50.53125,3.59375 50.637402,3.520983 50.76437,3.4691974 50.875,3.4375 50.88941,3.419838 50.8832,3.388797 50.90625,3.375 50.369151,2.7617598 51.31319,2.4649217 52.6875,2.4375 53.526741,1.9842455 52.082484,1.878982 51.78125,1.84375 z m 3.34375,0.125 c -0.954215,0.4447017 1.017277,0.2494079 0,0 z M 56.65625,2 c -0.409716,0.5831463 0.808661,0.1099274 0,0 z M 8.4062501,2.125 c -0.1692226,0.7739026 0.950262,0.2082194 0,0 z M 16.40625,2.3125 C 15.796763,2.2820015 14.719543,2.3733158 14.09375,2.5 13.835355,2.4569014 13.680451,2.3920484 13.5,2.34375 13.623437,2.5711065 14.108893,2.8441483 14.53125,3.125 14.6256,2.9972868 14.936426,2.9256317 15.625,2.90625 15.919864,2.834135 16.097006,2.7760679 16.28125,2.71875 16.23697,2.633267 16.28905,2.4714232 16.40625,2.3125 z M 16.8125,2.375 c -0.04319,0.051637 -0.08704,0.1479105 -0.125,0.1875 0.154407,-0.078557 0.216034,-0.148804 0.125,-0.1875 z M 6.5937501,2.59375 c 0.8934661,1.6566873 2.844167,0.6956038 0.40625,0.0625 -0.1336498,-0.014492 -0.2673239,-0.090868 -0.40625,-0.0625 z M 53.78125,2.8125 c -0.12039,0.05318 -0.206509,0.1145964 -0.25,0.15625 0.186809,0.0454 0.333503,0.1029407 0.375,0.1875 0.003,0.00604 0.02949,-0.00627 0.03125,0 0.122095,-0.043879 0.1518,-0.170466 -0.15625,-0.34375 z m -49.3124999,0.5 c -0.5192714,0.089025 0.2584304,0.5632709 -0.53125,0.875 0.2525175,-0.059509 1.2914556,-0.5168032 0.84375,-0.875 -0.1360383,-0.00417 -0.2383184,-0.012718 -0.3125,0 z m 4.6875,0.03125 c 0.1855349,0.7005377 0.658404,0.3527939 0.5625,0.125 -0.1006238,0.074749 -0.270634,0.068968 -0.3125,-0.125 -0.073642,-0.00477 -0.1444437,-0.014791 -0.25,0 z m -6,0.3125 c -0.2956895,0.4255196 0.5898506,0.2047753 0,0 z m 3.3125,0.1875 c -0.5986176,0.3474745 0.5977522,0.3780693 0,0 z m 5.3124999,0.125 c -0.533085,0.4716818 0.701178,0.2994349 0,0 z m -9.3124999,0.125 C 1.0258784,4.4057305 0.46376665,5.8266022 2.2500001,4.6875 2.3589329,4.6483332 2.8201028,4.1234988 2.4687501,4.09375 z M 3.4375001,4.25 c -0.4931399,0.4489354 0.6464785,0.3250622 0,0 z m 14.8437499,0 c -0.569649,0.3640219 0.595796,0.4136383 0,0 z m 31.40625,0 c -0.184077,0.021762 -0.364368,0.038305 -0.53125,0.03125 0.116799,0.4692475 0.363628,0.2974144 0.6875,-0.03125 -0.0535,0.00623 -0.100247,-0.00662 -0.15625,0 z M 13.71875,4.40625 C 13.551632,4.40169 13.362145,4.425172 13.125,4.46875 12.974655,4.484403 12.893881,4.494 12.78125,4.5 c 0.174695,0.2349185 0.548761,0.3249741 1,0.34375 0.0073,0.00687 0.02396,-0.00647 0.03125,0 0.204508,0.00673 0.416215,0.023805 0.625,0 0.03293,-0.1773308 -0.153122,-0.4220727 -0.71875,-0.4375 z m 38.875,0.03125 c -0.04001,0.081243 -0.05974,0.142493 -0.0625,0.1875 0.0046,0.00435 -0.0046,0.02675 0,0.03125 0.02584,0.025057 0.06796,0.032546 0.09375,0.0625 0.167298,0.00505 0.470644,-0.2661 -0.03125,-0.28125 z M 9.6875001,4.5 C 10.445589,5.7342632 14.193596,6.6056869 14.90625,5.84375 14.405434,5.8398 13.971699,5.756104 13.78125,5.5 12.316639,5.553626 11.091302,5.1076177 9.6875001,4.5 z m -4.40625,0.15625 C 5.2659964,4.8672981 5.1768727,5.0177153 5.0625001,5.125 5.3200832,4.9777202 5.313016,4.8026173 5.2812501,4.65625 z M 5.0625001,5.125 c -0.018695,0.00611 -0.046486,0.026339 -0.0625,0.03125 -0.024305,0.0115 -0.034297,0.020117 -0.0625,0.03125 -0.1107267,0.065908 -0.2315295,0.1346307 -0.375,0.15625 0.2750916,0.234937 -0.4213531,0.308315 -0.1875,0 -0.2748868,0.013271 -0.5610038,-0.026175 -0.8125,-0.0625 -0.051895,0.1338555 -0.1604137,0.2771758 -0.25,0.34375 0.1396339,0.1026945 0.2819309,0.1780078 0.53125,0.34375 0.8279708,0.1147557 3.1292042,-0.349752 1.8125,-1.125 C 5.467847,4.9887196 5.2245227,5.0720519 5.0625001,5.125 z m 3.03125,-0.4375 c -0.05512,0.065264 -0.087613,0.1318564 -0.125,0.1875 0.9104272,0.092114 -0.086916,0.7855079 0,0 -0.7934241,1.1808811 2.1851749,0.2501152 0.125,-0.1875 z m -1.125,0.03125 c -0.3529364,0.6111359 0.7360524,0.00779 0,0 z m -5.1875,0.4375 c -0.2917943,0.6357117 0.7171408,0.00209 0,0 z m 5.5,0 c -0.2678279,0.6933831 0.8391283,0.1520915 0,0 z m 1.96875,0 c -0.3506753,0.6949758 0.8324699,0.01172 0,0 z M 37.375,5.40625 c -0.05059,0.019947 -0.05689,0.083525 -0.0625,0.15625 0.133887,-0.00554 0.257063,-0.049973 0.15625,-0.15625 -0.03428,-0.00423 -0.07099,-0.00898 -0.09375,0 z M 6.7500001,5.4375 c -0.6242691,0.3740635 0.6264903,0.3003876 0,0 z m 3.21875,0 c -0.9141445,0.5872066 1.4322289,0.3843826 0,0 z M 64,5.46875 C 62.519202,5.9304601 61.796523,9.0848719 63.53125,8 62.718467,7.4509145 63.671565,6.8791022 64,6.21875 l 0,-0.75 z M 37.71875,5.5625 c -0.582501,0.3617015 0.583756,0.3711865 0,0 z M 50.5,5.71875 c -0.528395,0.4431986 0.637305,0.2377911 0,0 z m -49.53125,0.375 c -1.6105647,0.7757893 -0.75124707,1.667811 0.2187501,1.625 0.1246526,-0.2013374 0.3609722,-0.4225573 0.78125,-0.625 0.064027,0.021099 0.1862033,0.045018 0.28125,0.0625 0.048189,-0.070287 0.086536,-0.133691 0.125,-0.21875 C 3.5721662,6.2880177 1.5354617,6.2804991 0.96875,6.09375 z M 23.625,6.1875 c 1.356677,1.3136652 1.209949,2.3209236 1.78125,3.5 -0.954341,1.120049 0.112045,3.366242 1.34375,4.125 -0.678012,-0.99711 -1.015844,-2.336207 -0.34375,-3.125 C 25.811725,9.4604937 26.012933,8.4261428 24.46875,7.03125 24.315319,6.6073079 24.01147,6.3492409 23.625,6.1875 z M 11.09375,6.3125 C 9.0925494,6.9105923 11.270859,7.662751 11.375,6.71875 11.182457,6.8537952 10.35346,6.8327352 10.96875,6.4375 11.197907,6.499001 11.310476,6.5440369 11.375,6.59375 11.3678,6.516516 11.34482,6.4391051 11.3125,6.34375 L 11.125,6.3125 l -0.03125,0 z M 9.0000001,6.40625 c -2.0505674,0.523774 -0.7294994,1.4775814 0.09375,1.40625 0.1087033,-0.099948 0.2580128,-0.191863 0.5,-0.28125 0.003,-0.00858 -0.00256,-0.022278 0,-0.03125 0.062572,-0.2196641 -0.046696,-0.5696455 -0.34375,-1.0625 -0.096111,0.00974 -0.1756688,-0.00723 -0.25,-0.03125 z m 7.0312499,0.1875 c -0.02832,0.1996687 -0.193007,0.3548431 -0.4375,0.4375 0.454552,-0.013337 1.154335,-0.3221133 0.4375,-0.4375 z M 12.875,6.78125 c -0.270794,0.3217935 -0.43052,0.5919398 -0.5,0.8125 0.01134,0.1225087 0.0069,0.2001911 -0.03125,0.28125 0.0231,0.3996793 0.430089,0.5827086 1.03125,0.71875 0.07641,-0.2425625 0.240202,-0.5398776 0.5625,-0.90625 0.549169,-0.1011485 0.602491,0.8081257 0.53125,1.09375 0.06262,0.00809 0.124048,0.023159 0.1875,0.03125 0.15299,-0.174525 0.331515,-0.4859704 0.5625,-0.90625 2.010694,0.7895231 3.842259,0.9542741 5.4375,2.21875 C 19.630728,8.876283 18.457306,8.2931474 17.21875,7.875 16.842349,8.0792785 15.954682,8.1864647 16.4375,7.625 15.917856,7.468064 15.393804,7.3136181 14.84375,7.125 14.622163,7.1255669 14.377815,7.095981 14.125,7.0625 c -0.233529,0.4195335 -0.420709,0.7688453 -0.5625,0.875 -0.0095,-0.00408 -0.02078,0.00408 -0.03125,0 -0.05955,0.033865 -0.091,0.00431 -0.125,-0.0625 C 13.47587,7.819837 13.522663,7.2344993 13.34375,6.90625 13.186199,6.868203 13.030946,6.828745 12.875,6.78125 z M 6.3125001,6.8125 c -0.6658524,1.2494727 -3.0182883,0.090538 -3.65625,0.40625 0.7461447,0.1064788 1.5923577,0.2448035 0.71875,0.71875 -0.063157,0.1396666 -0.1309107,0.2432093 -0.21875,0.34375 0.1849602,-0.010308 0.3272472,-0.012136 0.4375,0 0.4520453,-0.4290878 2.5852982,0.6130732 3.5,-0.15625 -0.1798929,-0.1694048 -0.4039458,-0.3499388 -0.75,-0.5625 l -0.09375,-0.46875 0.09375,-0.28125 c -0.010031,0.00288 -0.021113,-0.00282 -0.03125,0 z M 35.46875,8 c 0.128901,0.088065 0.207337,0.1210793 0.0625,0 -0.02482,-0.00216 -0.03877,0.00154 -0.0625,0 z M 41,8.15625 c -0.538165,0.4551607 0.689607,0.2214664 0,0 z M 52.71875,8.1875 c -2.681578,0.4861914 -3.987752,2.440193 -5.5,4.125 C 47.19424,12.27408 47.14469,12.23198 47,12.21875 c -0.152489,0.248569 -0.05175,0.307435 0.0625,0.28125 -0.360018,0.390938 -0.711846,0.762452 -1.125,1.09375 -0.951089,1.435108 -0.230678,1.478141 0.65625,1.5625 0.07173,-0.163448 0.193359,-0.335573 0.34375,-0.5625 0.413154,-0.331298 0.764982,-0.702812 1.125,-1.09375 -0.114249,0.02618 -0.214989,-0.03268 -0.0625,-0.28125 0.144693,0.01323 0.19424,0.05533 0.21875,0.09375 1.512248,-1.684807 2.818422,-3.6388086 5.5,-4.125 1.123346,0.156923 2.326609,0.938315 3.625,1.375 0.100289,0.01893 0.193495,0.03956 0.28125,0.0625 0.159483,-0.358452 -0.144263,-0.8478417 -1.28125,-1.0625 -1.298391,-0.4366851 -2.501654,-1.218077 -3.625,-1.375 z M 7.3125001,8.375 l 0.03125,0.1875 c 0.03732,0.022923 0.058496,0.040096 0.09375,0.0625 -0.014443,-0.076909 -0.060271,-0.1583719 -0.125,-0.25 z m 3.2812499,0 C 10.57391,8.6558801 10.377016,8.782132 10.125,8.8125 10.127,8.880715 10.1217,8.9337072 10.125,9 9.0666278,8.7047056 8.4011923,10.164895 10,9.375 9.337085,10.168466 9.7741374,10.001727 10.125,9.65625 10.03939,10.029177 9.7260524,10.213155 8.6875001,9.96875 8.5366344,9.998688 8.3939122,9.991562 8.2500001,10 c -0.4787674,0.33734 -1.746962,0.385248 -2.90625,0.25 -0.053607,0.144118 -0.1038052,0.297552 -0.125,0.53125 C 3.9571479,10.343075 0.66611541,8.1885556 0,9.625 l 0,1.59375 c 0.01295799,0.0562 0.01617117,0.09731 0.03125,0.15625 -0.04237165,1.488526 -0.03694729,2.978947 -0.03125,4.46875 0.00569729,1.489803 0.0116675,2.97899 0,4.46875 l 0,3.28125 c 0.25573634,2.056801 1.0612175,4.011654 2.7812501,5.53125 -1.7717444,-2.217818 -2.08110199,-5.072067 -1.78125,-7.8125 0.023335,-2.979521 -0.0534935,-5.960447 0.03125,-8.9375 -1.1138227,-4.3539897 3.6192933,-1.138414 5.1875,-0.59375 0.1790369,-1.9740922 1.5688158,-0.435475 3.46875,-0.8125 C 10.726052,11.213155 11.039393,11.02918 11.125,10.65625 10.774137,11.001727 10.337085,11.168465 11,10.375 9.4011923,11.164895 10.066628,9.7047056 11.125,10 11.1083,9.6671005 11.1169,9.3238925 11.25,9 11.037208,8.8543918 10.816618,8.6690962 10.59375,8.375 z m 30,0.0625 c -0.591742,0.3495369 0.566989,0.3450059 0,0 z m 9.625,0.15625 c -0.528396,0.4431998 0.637305,0.2377933 0,0 z M 3.5312501,8.65625 c -0.2483331,0.087971 -0.5822269,0.1531511 -1,0.15625 0.2611275,0.1411583 0.6954837,0.2535534 1.1875,0.34375 -0.1002938,-0.1999554 -0.1622667,-0.3711331 -0.1875,-0.5 z M 14.34375,8.71875 c 0.0039,0.022801 -0.0047,0.043262 0,0.0625 0.01006,0.00133 0.02116,-0.00132 0.03125,0 -0.0083,-0.0234 -0.02346,-0.022299 -0.03125,-0.0625 z m 20.625,0.21875 c -0.01334,0.091055 0.08364,0.1297819 0.1875,0.09375 C 35.09361,9.008582 35.025039,8.969969 34.96875,8.9375 z m 26.1875,0.09375 c -1.237031,0.544605 0.72964,0.6619395 0,0 z M 11.4375,9.125 c 0.49424,0.7618609 0.969163,0.99028 1.40625,1.21875 C 12.443455,9.5648518 11.966526,9.4334563 11.4375,9.125 z m 13.3125,0 c -0.507162,0.3396737 0.707472,0.1851885 0,0 z M 13.625,9.34375 c -0.284215,0.071212 -0.552956,0.389113 -0.6875,1.0625 0.270833,0.147163 0.519718,0.320004 0.75,0.65625 0.125949,-0.0078 0.244941,-0.0075 0.34375,-0.03125 0.003,-0.0085 -0.003,-0.02295 0,-0.03125 0.159452,-0.438246 0.412412,-0.623931 0.65625,-0.65625 0.0033,-0.270242 -0.162153,-0.5493488 -0.375,-0.75 -0.281986,-0.067181 -0.515168,-0.1353795 -0.6875,-0.25 z m 35.25,0.125 c -0.423903,0.5191728 0.788157,0.1719464 0,0 z m 2.34375,0.125 c 0.637305,0.2377933 -0.528396,0.4432 0,0 z M 64,9.59375 C 62.190108,9.666524 60.02962,11.052601 59.28125,10 c 0.08736,0.482396 -0.189423,0.960319 -0.625,1.34375 C 58.760353,11.766514 58.247003,12.131366 57.5,12 57.188515,12.105057 56.874873,12.169617 56.59375,12.15625 56.6831,14.244578 60.578216,12.639931 60.28125,11 60.895548,11.864026 62.458342,11.100166 64,10.75 L 64,9.59375 z M 48.28125,9.75 c -0.344097,0.609802 0.7835,0.097897 0,0 z m -32.6875,0.0625 c -0.223465,0.375843 0.384098,0.19374 0.25,0.03125 -0.08481,-0.010926 -0.166258,-0.020556 -0.25,-0.03125 z M 16.6875,10 c -0.347834,0.158119 -0.343173,0.23582 -0.25,0.28125 0.02177,-0.03259 0.04313,-0.08072 0.09375,-0.125 0.162169,0.06651 0.197632,0.139572 0.1875,0.1875 C 16.928936,10.31124 17.081298,10.17491 16.6875,10 z m 45.46875,0.03125 c 0.72964,0.66194 -1.237031,0.544605 0,0 z M 25.75,10.125 c 0.707472,0.185189 -0.507162,0.339674 0,0 z m -7.8125,0.1875 c 0.0055,0.02291 0.02696,0.03881 0.03125,0.0625 0.41464,0.19276 0.558023,0.366053 0.5,0.53125 -0.247778,0.08199 -0.205186,0.106742 -0.09375,0.125 -0.577527,0.644883 -3.552696,1.071773 -0.875,1.34375 0.145942,0.143163 0.29773,0.261426 0.46875,0.375 0.497365,-0.200999 1.159562,-0.443291 1.40625,-0.71875 -0.111436,-0.01826 -0.154028,-0.04301 0.09375,-0.125 0.05802,-0.165197 -0.08536,-0.33849 -0.5,-0.53125 -0.09525,-0.525956 -0.494628,-0.840872 -1.03125,-1.0625 z m 31.9375,0.15625 c 0.788157,0.171946 -0.423903,0.519173 0,0 z M 21.15625,10.5625 c 0.159411,0.156323 0.314438,0.345691 0.46875,0.53125 0.214882,-0.07411 0.111389,-0.204765 -0.46875,-0.53125 z m 28.125,0.1875 c 0.7835,0.0979 -0.344097,0.609802 0,0 z m -11.8125,0.28125 c -1.452626,0.160546 -2.828217,1.341979 -0.75,1.4375 -0.334698,0.05144 -1.065461,-0.503304 0.125,-0.3125 0.06635,0.19745 -0.01343,0.295354 -0.125,0.3125 0.111971,0.0051 0.179561,0.03288 0.3125,0.03125 0.04036,-2.83e-4 0.108909,-0.0258 0.15625,-0.03125 0.311867,-0.18295 0.69668,-0.336334 1.125,-0.40625 0.01849,-0.01294 0.04514,-0.01791 0.0625,-0.03125 0.363174,-0.279135 0.453353,-0.658021 -0.25,-1 -0.207363,-0.03054 -0.437551,-0.02417 -0.65625,0 z m -2.0625,0.09375 c -0.712369,0.01864 0.669718,0.722325 0.4375,0.03125 -0.19841,-0.0318 -0.335733,-0.03391 -0.4375,-0.03125 z m -21.9375,1.34375 c -0.09563,0.0293 -0.07056,0.200418 0.09375,0.53125 0.201308,-0.0337 0.389639,-0.06154 0.53125,-0.09375 -0.219207,-0.303246 -0.498253,-0.476332 -0.625,-0.4375 z m 3.0625,0.15625 c -0.562498,0.463481 0.692096,0.220882 0,0 z m 36.03125,0.0625 c -0.556348,0.07621 -0.85877,0.530907 -1.0625,1.125 0.116119,0.354162 0.437554,0.614718 0.9375,0.71875 -0.02033,-0.506357 0.287428,-1.147519 0.90625,-1.75 -0.192398,-0.05991 -0.37512,-0.08544 -0.53125,-0.09375 -0.09052,-0.0048 -0.170522,-0.01089 -0.25,0 z m -36.59375,0.09375 c -0.613429,0.425641 0.633701,0.334337 0,0 z M 14.25,13.21875 c -0.88454,0.238463 -0.244213,0.395581 0.09375,0.3125 -0.02258,-0.103847 -0.05139,-0.218099 -0.09375,-0.3125 z m 26.90625,0.125 c -0.804362,1.012358 0.474536,1.165174 0,0 z M 17.125,13.625 c -0.961164,0.07519 -1.727374,0.907186 -1,2.5 0.290303,1.787008 -0.337751,3.022879 -1.0625,2.96875 0.942518,2.128662 2.487763,0.649024 2.0625,-1.96875 -0.968936,-2.121789 0.703736,-2.908558 1.96875,-2.34375 -0.311069,-0.669254 -0.915017,-1.065446 -1.53125,-1.15625 0.617781,0.217714 -0.584373,0.455756 -0.03125,0 -0.134769,-0.01762 -0.275532,-0.01023 -0.40625,0 z m -0.15625,0.15625 c 0.633701,0.334337 -0.613429,0.425641 0,0 z M 16.4375,14.1875 c 0.655176,0.858749 -0.737446,0.567424 0,0 z m 26.75,0.03125 c -0.811121,0.625286 0.817301,0.479081 0,0 z M 19.5,14.375 c -0.406302,0.601639 0.76122,0.09363 0,0 z m 36.03125,0.5 c -0.868919,1.221536 2.184564,0.659312 0,0 z M 20.1875,15.0625 c -0.137742,0.0071 -0.2888,0.06427 -0.4375,0.15625 0.321525,0.334508 0.536048,0.835695 0.5625,1.4375 0.438679,-0.536013 0.831562,-0.654345 1.1875,-0.53125 -0.359518,-0.571177 -0.791368,-1.089289 -1.3125,-1.0625 z m 32.4375,0 c -0.500258,0.271691 -0.907697,0.704113 -0.625,1.34375 -0.220635,0.162775 -0.532884,0.359356 -0.84375,0.5625 0.571015,0.354353 -0.485369,0.569471 -0.25,0.1875 -0.899121,0.548181 -2.004279,1.026013 -2.875,0.71875 0.105488,0.21849 0.241371,0.384175 0.375,0.53125 0.01641,-0.07219 0.09699,-0.184746 0.25,-0.3125 0.512284,0.314421 0.05169,0.5074 -0.15625,0.4375 1.269248,1.174683 3.477637,-0.370743 4.5,-1.125 -0.703372,-1.59147 2.814481,-1.7731 1.625,-1.875 -1.037282,0.181852 -1.701528,-0.04626 -2,-0.46875 z m -10.03125,0.03125 c -1.462793,0.836832 -0.49783,2.348689 -0.34375,3.5 0.343304,0.404016 0.0989,0.782671 -0.25,1 -0.03986,0.03922 -0.07505,0.08938 -0.125,0.125 0.65055,0.04188 1.091681,-0.02974 1.375,-0.1875 -0.132554,-0.849166 -0.659716,-1.877305 -0.34375,-2.6875 -0.240632,-0.400864 -0.494098,-0.783438 -0.6875,-1.09375 0.109142,-0.222752 0.419183,-0.367504 0.375,-0.65625 z M 20.5,15.375 c 0.76122,0.09363 -0.406302,0.601639 0,0 z m 20.65625,0 c -0.676926,0.463503 0.742067,0.30817 0,0 z m 10.34375,0 c -0.248244,0.25894 -0.08613,0.294784 0.0625,0.25 -0.02517,-0.03659 -0.0209,-0.104047 0.03125,-0.21875 C 51.56429,15.39499 51.54329,15.38498 51.5,15.375 z m -10.34375,0.5625 c -0.676928,0.463502 0.742076,0.308173 0,0 z m 7.0625,0.3125 c 0.0058,0.135843 1.44e-4,0.294386 -0.03125,0.46875 0.30874,0.01841 0.567285,-0.0212 0.78125,-0.125 -0.183217,-0.193576 -0.458094,-0.284869 -0.75,-0.34375 z m -6.0625,0.125 c 0.742067,0.30817 -0.676926,0.463503 0,0 z m 10.34375,0 c 0.692594,0.15961 -0.496487,0.517879 0,0 z m -5.625,0.1875 c 0.04559,1.364035 -1.109852,2.097464 -2.25,2.75 0.227367,0.857838 -0.08278,1.513571 -1.75,1.40625 0.208262,-0.148493 0.319846,-0.326992 0.375,-0.53125 -0.739034,0.613579 -1.040893,1.374078 -0.0625,2.65625 -2.263704,-0.399822 -4.093629,2.098425 -1.8125,3.25 -0.383143,-1.18149 1.094374,-2.553461 2.8125,-2.25 -2.536796,-3.324443 3.450265,-3.158975 3.6875,-6.03125 -0.135752,-0.06504 -0.254588,-0.169809 -0.375,-0.28125 0.207939,0.0699 0.668534,-0.123079 0.15625,-0.4375 -0.153006,0.127754 -0.233594,0.240306 -0.25,0.3125 C 47.206074,17.194898 47.008822,16.936658 46.875,16.5625 z m -31.5625,0.125 c -0.320056,0.649975 0.752831,0.02272 0,0 z m -3.375,0.1875 c 0.431686,0.7439 1.207425,1.319426 2.21875,1.40625 -0.135219,-0.264569 -0.266334,-0.592552 -0.375,-1 -0.724942,0.08271 -1.337324,-0.09908 -1.84375,-0.40625 z m 30.21875,0.0625 c 0.742076,0.308173 -0.676928,0.463502 0,0 z m -19.6875,0.125 c 0.130383,0.202237 0.234565,0.395342 0.34375,0.59375 0.159628,-0.299186 0.219068,-0.581333 -0.34375,-0.59375 z M 48.75,17.25 c -0.533555,0.636818 0.817362,0.09697 0,0 z m -7.875,0.03125 c -2.462249,2.656573 2.071909,1.229773 0,0 z M 16.3125,17.6875 c 0.752831,0.02272 -0.320056,0.649975 0,0 z m -1.625,0.5625 c -0.01112,0.01346 -0.02182,0.01844 -0.03125,0.03125 0.02186,-0.0016 0.04045,0.0021 0.0625,0 C 14.70353,18.27121 14.70436,18.26037 14.6875,18.25 z m 35.0625,0 c 0.817362,0.09697 -0.533555,0.636818 0,0 z m -34.9375,0.09375 c 0.03041,0.109656 0.06102,0.213956 0.09375,0.3125 0.09404,-0.04496 0.105503,-0.150731 -0.09375,-0.3125 z m 0.875,0.90625 c 0.882143,0.542346 -0.525528,0.636054 0,0 z m 8.46875,1 c -0.264399,0.175006 -0.720748,0.313717 -1.25,0.4375 0.163748,0.276864 0.593693,0.503047 1,0.59375 0.08871,-0.160177 0.306745,-0.317119 0.6875,-0.46875 -0.07996,-0.145697 -0.21579,-0.343854 -0.4375,-0.5625 z M 13.3125,20.90625 c -0.0594,0.03339 -0.09707,0.06679 -0.125,0.09375 0.07169,0.04794 0.146795,0.102952 0.21875,0.15625 0.0066,0.0049 0.02461,-0.005 0.03125,0 0.09292,-0.03194 0.105486,-0.119794 -0.125,-0.25 z M 23.59375,21.25 c -0.557966,0.415862 0.642129,0.364536 0,0 z M 20.75,21.28125 c -0.44703,0.191458 -0.782165,0.439952 -0.875,0.78125 0.590175,-0.296237 0.922077,-0.404124 1.15625,-0.40625 -0.120009,-0.138361 -0.204497,-0.254721 -0.28125,-0.375 z m 1.4375,0.53125 c -0.0035,-0.0076 -0.02811,8.99e-4 -0.09375,0.03125 -0.08989,0.04156 -0.2414,0.154876 -0.46875,0.28125 0.01513,0.0249 0.04635,0.03607 0.0625,0.0625 0.280811,-0.181686 0.510418,-0.35217 0.5,-0.375 z m -9.03125,0.125 c -0.75348,0.385629 -0.607989,0.457075 -0.1875,0.46875 0.0073,-0.02874 -0.0078,-0.03241 0,-0.0625 0.111383,-0.17461 0.173213,-0.289949 0.1875,-0.40625 z M 17.5,22.125 c -0.839567,0.342336 0.821155,0.496363 0,0 z m -3.75,0.125 c -0.07065,0.08798 -0.09192,0.101794 -0.15625,0.1875 0.449132,0.07008 0.788066,0.258705 0.375,0.90625 -0.520324,2.018015 -0.09934,1.002899 0.78125,-0.09375 0.176936,0.112393 0.277109,0.148142 0.40625,0.21875 0.107881,-0.06642 0.261197,-0.128837 0.4375,-0.21875 -0.0069,-0.0088 0.0072,-0.02228 0,-0.03125 -0.205675,-0.256125 -0.557072,-0.554947 -0.90625,-0.84375 0.260733,0.390969 0.124115,0.549356 -0.9375,-0.125 z m 43.78125,0.3125 c 0.580393,1.074768 0.719724,2.498918 -0.96875,1.4375 -0.614886,-0.224486 -1.168497,-0.245751 -1.625,-0.125 -0.385775,0.670477 -0.768644,1.428567 -1.375,1.71875 0.06748,0.38802 0.372817,0.706098 0.96875,0.8125 0.02461,-0.929982 1.269141,-2.049571 3.03125,-1.40625 2.500198,1.571689 1.005227,-2.359405 -0.03125,-2.4375 z m 5.34375,0 c -0.615761,0.100751 -0.95394,0.252666 -1.125,0.46875 0.09113,0.643809 0.376112,1.191317 0.71875,1.5 0.191847,1.096625 -0.0838,1.529291 -0.4375,1.53125 0.460677,1.215807 1.814256,1.622342 1.4375,-0.53125 C 62.884027,25.004471 62.46502,23.804227 62.875,22.5625 z m -46.5625,0.15625 c -0.05088,0.09913 -0.07135,0.173671 -0.0625,0.21875 l 0.3125,-0.125 c -0.03102,-0.0387 -0.09483,-0.08096 -0.25,-0.09375 z m 0.25,0.09375 C 16.49517,22.87535 16.443986,22.94321 16.375,23 c 0.111711,-0.01085 0.262716,-0.107976 0.21875,-0.1875 l -0.03125,0 z m -0.84375,0.625 c -0.111432,0.06386 -0.214118,0.110687 -0.3125,0.15625 0.418831,0.195109 0.460432,0.09094 0.3125,-0.15625 z M 49.875,23.5 c 0.04562,0.07329 0.08299,0.138219 0.125,0.21875 0.430194,0.55115 0.996568,1.311456 1.40625,1.75 -0.01327,0.0085 -0.01682,0.02047 -0.03125,0.03125 0.113726,0.230453 0.198524,0.250602 0.25,0.1875 0.07985,0.06558 0.16787,0.121263 0.21875,0.125 C 51.554347,25.441387 51.253877,25.044008 51,24.71875 50.678226,24.101917 50.250215,23.69845 49.875,23.5 z m -32.28125,0.3125 -0.5625,0.21875 c -2.384468,1.097586 -0.696679,0.970547 0.5625,-0.21875 z M 48.25,24.1875 c 0.194183,0.194894 0.389976,0.364294 0.59375,0.5 -0.0205,-0.03163 -0.04366,-0.06155 -0.0625,-0.09375 C 48.603491,24.430239 48.411518,24.293434 48.25,24.1875 z m -1.5,0.21875 c -0.899233,0.877864 0.846624,0.675651 0,0 z m 1.9375,1.25 c -0.0998,-0.01351 -0.229451,0.0029 -0.40625,0.03125 0.107408,0.999199 1.104877,0.06334 0.40625,-0.03125 z m 2.125,0.0625 c -0.03426,0.02053 -0.03891,0.04463 -0.0625,0.0625 0.02904,0.07694 0.04895,0.148342 0.03125,0.1875 0.165918,0.0055 0.370647,-0.08729 0.03125,-0.25 z m -3.03125,0.4375 c -0.575991,0.45014 0.684259,0.338818 0,0 z m 5.1875,0 c -0.04209,0.02734 -0.0683,0.03878 -0.09375,0.0625 0.01973,0.09297 0.05506,0.182571 0.0625,0.25 0.161575,0.01953 0.364418,-0.08949 0.03125,-0.3125 z m -6.375,0.125 c -0.39823,0.0121 -0.802918,10e-6 -1.21875,0.03125 -0.04765,0.09327 -0.318035,0.163065 -0.34375,0.0625 -0.261306,0.02448 -0.521311,0.05561 -0.78125,0.09375 -0.460084,0.423631 -0.961437,0.729422 -1.59375,0.75 C 42.487089,27.1512 42.32163,27.079183 42.1875,27 c -1.319121,0.538309 -2.388966,1.471222 -2.71875,3.15625 -0.403651,0.425828 -0.746661,0.898323 -1.03125,1.40625 0.128742,0.109939 0.0353,0.173126 -0.09375,0.1875 -1.250703,2.395274 -1.142422,5.442744 1.0625,7.34375 0.122054,0.151699 0.262465,0.265709 0.40625,0.375 -2.039799,-2.410031 -1.48141,-6.057393 0.65625,-8.3125 0.649211,-3.317142 4.074893,-3.773188 6.90625,-3.875 -0.339175,-0.411925 -0.605093,-0.78487 -0.78125,-1 z m 5.65625,0 c -0.316471,0.278206 0.0204,0.325534 0.15625,0.25 C 52.39755,26.51586 52.38392,26.51807 52.375,26.5 52.38943,26.48922 52.39298,26.47727 52.40625,26.46875 52.35883,26.41799 52.301235,26.340579 52.25,26.28125 z M 48.4375,26.75 c -0.406298,0.601645 0.761218,0.09363 0,0 z m -0.59375,0.15625 c -0.29602,0.68533 0.720405,0.0238 0,0 z M 52.375,27 c -0.529467,0.13718 0.597306,0.0416 0,0 z M 57,27.34375 c -0.306157,0.0715 -0.599575,0.07973 -0.84375,0.09375 -0.0083,0.136587 -0.02878,0.260405 -0.0625,0.375 0.04261,-0.03303 0.08841,-0.04757 0.1875,-0.09375 0.762958,0.187051 -0.145762,0.339739 -0.25,0.21875 -0.59763,1.437977 -3.332091,0.982359 -4.8125,0.5 -0.899995,1.006135 -1.86936,0.655888 -2.71875,-0.03125 0.983051,1.161793 2.431065,2.470797 3.71875,1.03125 1.879884,0.612519 5.789625,1.217552 4.78125,-2.09375 z m -36.4375,0.6875 c -0.528316,0.443193 0.637206,0.237792 0,0 z m 17,0.125 c -0.5046,0.451341 0.638392,0.276326 0,0 z m -34.7499999,1 c 0.3306822,1.62571 2.99197,4.512743 1.09375,1.65625 -0.1114146,-0.350418 -0.1673889,-0.532616 -0.21875,-0.75 -0.3188094,-0.289306 -0.6184185,-0.588713 -0.875,-0.90625 z m 34.4687499,0.75 c -0.677019,0.463446 0.742125,0.308227 0,0 z m 1.28125,0.15625 c -0.564472,0.495613 0.701542,0.17759 0,0 z m -0.71875,0.125 c -0.528395,0.443201 0.637306,0.237797 0,0 z M 4.6562501,30.34375 c -0.036505,-0.0024 -0.051113,0.0087 -0.0625,0.0625 0.00439,0.0065 -0.00441,0.02469 0,0.03125 0.8061571,1.198525 1.8783765,3.02272 2.34375,3.59375 0.1821325,0.1516 0.3668134,0.281607 0.5625,0.40625 -0.9035844,-1.360299 -2.4724513,-4.069333 -2.84375,-4.09375 z m 32.6249999,0.125 c -0.682883,0.421007 0.745214,0.361846 0,0 z m -20.875,0.15625 c -0.624265,0.374072 0.626485,0.30039 0,0 z M 14.9375,30.75 c 0.119841,0.19284 0.24558,0.385168 0.34375,0.625 C 15.2106,31.190892 15.167499,31.025286 15.125,30.84375 15.0689,30.80477 14.995389,30.78385 14.9375,30.75 z m 41.78125,0.21875 c -0.02743,0.0048 -0.04013,0.04057 -0.0625,0.0625 0.547671,0.932049 1.094032,2.225722 1.1875,2.71875 0.185769,1.222341 0.709876,1.876345 1.375,2.15625 -0.160079,-0.31821 -0.302994,-0.682456 -0.375,-1.15625 -0.155059,-0.817914 -1.590152,-3.874427 -2.125,-3.78125 z m 6.03125,0.0625 c -0.532737,0.433227 0.668909,0.40722 0,0 z M 39.5625,31.0625 c 0.701542,0.17759 -0.564472,0.495613 0,0 z m -23.03125,0.125 c -0.548027,0.496443 0.705415,0.217293 0,0 z m 22.3125,0 c 0.637306,0.237797 -0.528395,0.443201 0,0 z m 23.84375,0.28125 c -0.237858,-0.0019 -0.491608,0.0548 -0.75,0.125 0.112723,0.361186 0.298413,0.753701 0.5625,1.125 C 63.029867,32.490487 63.552187,32.425294 64,32.5 l 0,-0.375 C 63.773347,31.687992 63.277038,31.473542 62.6875,31.46875 z M 16.09375,31.6875 c 0.01594,0.08309 0.0097,0.166346 0.03125,0.25 0.15522,-0.02879 0.310802,-0.183155 -0.03125,-0.25 z m 0.65625,0 c -0.230626,0.493003 0.540195,0.127646 0.21875,0 -0.0066,-0.0026 -0.02374,0.0024 -0.03125,0 -0.06175,0.0327 -0.124993,0.02167 -0.1875,0 z m -0.78125,0.125 c -0.0138,0.08641 0.03489,0.118911 0.09375,0.125 -0.02596,-0.04799 -0.06668,-0.07946 -0.09375,-0.125 z M 63.75,32.03125 c 0.668909,0.40722 -0.532737,0.433227 0,0 z M 16.46875,32.0625 c 0.0085,0.215727 0.103502,0.310881 0.21875,0.34375 -0.02636,-0.04206 -0.0047,-0.105286 0.125,-0.21875 0.137844,0.05653 0.180075,0.112188 0.1875,0.15625 0.118135,-0.101489 0.07065,-0.264965 -0.53125,-0.28125 z m -1.9375,0.25 c -0.812898,0.419877 0.013,0.865 0.90625,1.09375 0.03764,-0.02558 0.04442,-0.06827 0.09375,-0.09375 0.327743,0.01629 0.635358,0.127263 0.9375,0.25 0.0177,2.76e-4 0.04562,1.47e-4 0.0625,0 0.56161,-0.0049 0.643242,-0.244906 -0.75,-0.875 -0.396959,-0.186105 -0.806399,-0.352946 -1.25,-0.375 z M 17.5625,32.5 c -0.496328,0.309084 -0.0026,0.324554 0.15625,0.21875 0.0088,-0.02269 0.01714,-0.03537 0.03125,-0.0625 C 17.73213,32.61335 17.6931,32.55653 17.5625,32.5 z m 0.5625,0.15625 c -0.04664,0.03897 -0.07301,0.06488 -0.09375,0.09375 0.0087,0.03491 0.0077,0.09296 -0.03125,0.125 0.07965,0.112506 0.603762,-0.04579 0.125,-0.21875 z m -0.28125,0.40625 c -0.0074,0.0059 0.0068,0.02551 0,0.03125 0.09057,0.02269 0.155493,0.06174 0.1875,0.09375 -0.02571,-0.0378 -0.07231,-0.08122 -0.1875,-0.125 z m -5.4375,0.0625 c -0.760433,1.132918 -1.602119,1.349052 -2.28125,1.0625 0.471728,0.997077 1.547597,1.550129 2.59375,0.71875 -0.210241,-0.567515 -0.159988,-1.244215 -0.3125,-1.78125 z m 5.53125,0.84375 c -0.08332,0.114237 -0.117435,0.205346 -0.125,0.28125 0.07441,0.07256 0.108194,0.143638 0.09375,0.1875 0.523535,0.361029 2.994043,-0.528274 0.03125,-0.46875 z m 0.90625,0.09375 c 0.70885,0.269435 -0.594255,0.4758 0,0 z m 1.25,0.125 c -0.797015,0.346007 0.735369,0.528951 0,0 z m -4,0.15625 c -0.966319,0.620345 1.088004,0.134454 0,0 z m 4.5625,0.1875 c -0.35962,0.658246 0.729761,0.03235 0,0 z M 13.5,34.65625 c 0.01057,0.095 0.0221,0.184101 0.03125,0.28125 0.143639,-0.05401 0.281168,-0.242662 -0.03125,-0.28125 z m 7.71875,0 c -0.291801,0.635702 0.71715,0.0021 0,0 z m 0.625,0.15625 c -0.496469,0.517866 0.692508,0.159618 0,0 z m 12.84375,0.28125 c -0.595768,0.434611 0.652894,0.26028 0,0 z m 0.84375,0.125 c -0.513327,0.439525 0.627662,0.25074 0,0 z M 21.84375,35.375 c -0.06206,0.06473 -0.108645,0.116796 -0.125,0.15625 0.123086,0.01621 0.182379,0.04939 0.1875,0.09375 0.148621,-0.04478 0.28375,-0.170189 -0.0625,-0.25 z m 13.125,0.4375 c -0.55751,0.418459 0.667987,0.282445 0,0 z m 0.5625,0 c -0.489506,0.427562 0.648526,0.262518 0,0 z M 13.6875,35.875 c 0.07291,0.209819 0.206897,0.421307 0.375,0.59375 C 14.07336,36.317549 14.10394,36.165783 14.15625,36 13.977468,35.96132 13.827615,35.93031 13.6875,35.875 z M 22,35.9375 c -0.786407,1.185587 0.469149,0.669063 0,0 z m 0.53125,0.59375 c -0.3226,0.411518 0.351402,0.281717 0.28125,0.125 -0.01,-4.47e-4 -0.02244,0.0018 -0.03125,0 -0.03034,-0.0063 -0.05591,-0.03674 -0.0625,-0.0625 -0.04473,-0.02163 -0.09954,-0.04386 -0.1875,-0.0625 z M 19.375,36.6875 c -0.4181,0.645541 0.738801,0.05338 0,0 z m 0.5625,0.125 c -0.418629,0.589653 0.792136,0.193636 0,0 z m 42.46875,0 c -0.356626,0.647297 0.732795,0.102979 0,0 z M 21.625,36.96875 c -0.350714,0.694934 0.832572,0.01176 0,0 z M 17.875,37 c -0.511551,1.232522 -1.78274,1.505024 -2.71875,1.125 0.04003,0.118632 0.09084,0.209881 0.15625,0.3125 0.307095,0.143862 0.511554,0.345714 0.625,0.59375 0.944501,0.52229 2.384694,0.30067 2.9375,-1.03125 0.07692,0.320037 0.158851,0.494173 0.25,0.59375 0.0013,-0.03508 -0.0039,-0.05317 0,-0.09375 0.123272,0.06532 0.185424,0.142761 0.21875,0.21875 0.318794,-0.0065 0.82925,-0.41094 1.8125,-0.375 1.160789,0.774633 2.701599,1.335899 3.84375,2.1875 -0.78308,-1.17861 -2.373445,-1.830821 -3.78125,-2.5625 0.01328,0.16543 -0.595222,0.28599 -0.28125,-0.15625 -0.278166,-0.150536 -0.533206,-0.303222 -0.78125,-0.46875 -0.98325,-0.03594 -1.493706,0.368527 -1.8125,0.375 C 18.31042,37.64276 18.24827,37.565323 18.125,37.5 c -0.0039,0.04058 0.0013,0.05867 0,0.09375 C 18.03385,37.49417 17.951919,37.320037 17.875,37 z m 41.1875,0.21875 c 0.406456,0.531741 0.900713,0.998746 1.53125,1.34375 0.307011,-0.108648 0.560562,-0.15909 0.78125,-0.1875 0.151715,-0.817177 -0.254958,-1.352637 -1.78125,-0.8125 -0.192208,-0.105168 -0.3629,-0.218526 -0.53125,-0.34375 z m -36.9375,0.1875 c -0.49657,0.51784 0.692653,0.15965 0,0 z m -1.75,0.28125 c 0.738801,0.05338 -0.4181,0.645541 0,0 z m -6.5625,0.1875 c 0.07439,0.09983 0.149374,0.202972 0.21875,0.3125 0.05789,7.59e-4 0.101304,-0.0023 0.15625,0 -0.123146,-0.112255 -0.244321,-0.214772 -0.375,-0.3125 z m 2.21875,1.46875 c 0.23948,1.27997 -0.966579,3.342071 -0.90625,4.8125 0.376998,3.653432 4.726021,5.22626 3.40625,9.15625 -0.459895,2.966343 -0.93122,5.899705 -1.28125,8.8125 -0.440277,0.961562 0.108296,1.573595 0.84375,1.75 -0.02035,-0.218171 0.0285,-0.470991 0.15625,-0.75 0.35003,-2.912795 0.821355,-5.846157 1.28125,-8.8125 1.319771,-3.92999 -3.029252,-5.502818 -3.40625,-9.15625 -0.08256,-2.012252 2.221668,-5.13105 -0.09375,-5.8125 z m 30.78125,1.6875 c 0.105516,0.2916 0.15226,0.677325 0.15625,1.125 0.537591,0.02821 0.210447,0.290654 0.03125,0.28125 2.043387,2.667644 0.31287,6.505957 1.6875,9.5625 -0.02566,1.748873 0.80683,3.604753 2,4.375 -0.630762,-0.91974 -1.017632,-2.173019 -1,-3.375 -1.380811,-3.070286 0.368097,-6.924733 -1.71875,-9.59375 0.05374,-1.456314 -0.417243,-2.115608 -1.15625,-2.375 z m -0.84375,0.125 c -0.322683,0.620022 0.806386,0.04232 0,0 z M 11.4375,41.4375 c -0.35294,0.61113 0.736058,0.0078 0,0 z m 35.90625,0.125 c 0.748325,0.365802 -0.659349,0.451704 0,0 z m -1.78125,0.15625 c -0.435289,0.614553 0.719597,0.108217 0,0 z m -34.625,0.4375 c -0.819499,0.667452 0.831697,0.433976 0,0 z m 0.5625,0 c -0.711235,0.507199 0.833747,0.252804 0,0 z m 0.5625,0.125 c -0.534804,0.524706 0.709556,0.211769 0,0 z m 33.28125,0.4375 c -0.607265,0.336011 0.577418,0.347855 0,0 z m -18.875,0.125 c 0.0041,0.0432 0.02886,0.0807 0.03125,0.125 -1.190111,1.750599 0.63285,-0.41457 0.28125,0.53125 0.175628,0.583345 2.53294,0.276102 4,1 -0.653631,-1.542096 -3.102324,-1.442502 -4.3125,-1.65625 z m 36.625,0.90625 c -0.312969,0.643306 0.786184,0.02748 0,0 z m -0.6875,0.71875 c -0.330494,0.632839 0.73038,0.02981 0,0 z m -3.71875,2.4375 c -0.496422,0.598113 0.719196,0.13307 0,0 z m 0.46875,0.28125 c -0.595711,0.434648 0.652861,0.260257 0,0 z m 1.75,0.125 c -0.261968,0.178112 -0.499524,0.509967 -0.75,0.875 0.544051,0.216881 -0.227081,0.36139 -0.15625,0.15625 -1.039631,1.611369 -1.693087,4.214957 -0.0625,3.96875 0.01204,-0.885449 0.515364,-2.154658 1.125,-3.0625 0.05542,-0.648106 0.0033,-1.310124 -0.15625,-1.9375 z m -1.3125,0.3125 c -0.504004,0.402762 0.604624,0.236711 0,0 z m 1,1 c 0.604624,0.236711 -0.504004,0.402762 0,0 z m 2.09375,0.15625 c -0.330492,0.632835 0.730379,0.02981 0,0 z M 63.75,50.625 c -0.474761,0.418754 0.212733,0.353022 0.25,0.1875 0.01242,-0.05517 -0.0525,-0.125879 -0.25,-0.1875 z m -0.5625,0.15625 c -0.587537,0.362703 0.644504,0.321724 0,0 z M 6.5937501,52.9375 c -0.5313165,0.492066 0.6976396,0.215031 0,0 z m -1.71875,0.28125 c -0.6592714,0.451764 0.7482837,0.365734 0,0 z m 10.5937499,3.1875 c -0.339118,0.621907 0.747205,0.09257 0,0 z m 1.625,3.90625 c -0.749778,0.722266 0.91923,0.27342 0,0 z m 1,1 c 0.91923,0.27342 -0.749778,0.722266 0,0 z M 16.8125,63 c -0.53131,0.492067 0.697632,0.21503 0,0 z M 16.75,63.75 c -0.08729,0.154477 -0.07719,0.22013 -0.03125,0.25 l 0.1875,0 C 17.049596,63.92421 17.148797,63.755795 16.75,63.75 z"
       style="color:#000000;fill:#ffffff;fill-opacity:0.30653710000000001;fill-rule:nonzero;stroke-width:1;stroke-linecap:butt;stroke-linejoin:miter;stroke-miterlimit:4;stroke-opacity:1;stroke-dasharray:none;stroke-dashoffset:0;marker:none;visibility:visible;display:inline;overflow:visible;enable-background:accumulate"
       inkscape:connector-curvature="0" />
  </g>
  <path
     style="fill:#ffffff;fill-opacity:0.5761649;fill-rule:nonzero"
     d="M 0 3 L 0 6 L 2 4 L 32 4 L 62 4 L 64 3 L 32 3 L 0 3 z "
     id="path4298" />
  <path
     style="fill:#1f0700;fill-opacity:0.06978802;fill-rule:nonzero"
     d="M 2 0 L 0 1 L 32 1 L 64 1 L 62 0 L 32 0 L 2 0 z "
     id="path4444" />
  <path
     d="M 64,6 62,4 64,3 z"
     id="path3028"
     style="fill:#1f0700;fill-opacity:0.13759861"
     inkscape:connector-curvature="0" />
  <path
     style="fill:#000000;fill-opacity:0.11130587;fill-rule:nonzero"
     d="M 63 0.5 L 63 34 L 63 63 L 64 62 L 64 34 L 64 1 L 63 0.5 z M 63 63 L 32 63 L 1 63 L 2 64 L 32 64 L 62 64 L 63 63 z "
     id="path4366" />
  <g
     id="g3043"
     inkscape:export-filename="folder.png"
     inkscape:export-xdpi="90"
     inkscape:export-ydpi="90"
     transform="translate(-0.62500009,0.082283)" />
  <path
     style="fill:#ffffff;fill-opacity:0.35070675;fill-rule:nonzero"
     d="M 0 1 L 0 34 L 0 62 L 1 63 L 1 34 L 1 5 L 2 4 L 1 3.46875 L 1 1 L 0 1 z "
     id="path3864" />
  <g
     id="scalable"
     transform="matrix(1.0385892,0,0,1.0385892,1214.7222,1878.8121)"
     inkscape:label="#g3701"
     style="fill:#ffffff" />
  <path
     inkscape:connector-curvature="0"
     style="color:#000000;fill:url(#radialGradient3185);fill-opacity:1;fill-rule:nonzero;stroke:none;stroke-width:4;marker:none;visibility:visible;display:inline;overflow:visible;enable-background:accumulate"
     d="M 52,14 38.478516,18.535155 C 36.049914,17.391821 33.362101,16.6875 30.5,16.6875 c -10.389966,0 -18.8125,8.422534 -18.8125,18.8125 0,10.389964 8.422534,18.8125 18.8125,18.8125 10.389964,0 18.8125,-8.422536 18.8125,-18.8125 0,-2.862102 -0.704321,-5.549914 -1.847657,-7.978516 L 52,14 z M 27.8125,27.4375 c 5.937065,0 10.75,4.812935 10.75,10.75 0,5.937065 -4.812935,10.75 -10.75,10.75 -5.937063,0 -10.75,-4.812935 -10.75,-10.75 0,-5.937065 4.812937,-10.75 10.75,-10.75 z"
     id="path3417"
     inkscape:transform-center-y="-1.34375"
     inkscape:transform-center-x="-1.34375" />
  <path
     style="color:#000000;fill:#ffffff;fill-opacity:0.40322581;fill-rule:nonzero;stroke:none;stroke-width:4;marker:none;visibility:visible;display:inline;overflow:visible;enable-background:accumulate"
     d="M 51,13 37.46875,17.53125 C 35.040148,16.387916 32.362101,15.6875 29.5,15.6875 c -10.389966,0 -18.8125,8.422534 -18.8125,18.8125 0,5.448565 2.329728,10.345689 6.03125,13.78125 C 13.60298,44.924275 11.6875,40.441399 11.6875,35.5 c 0,-10.389966 8.422534,-18.8125 18.8125,-18.8125 2.862101,0 5.540148,0.700416 7.96875,1.84375 L 50.5,14.5 51,13 z M 34.875,30.125 c 1.654945,1.890808 2.6875,4.352314 2.6875,7.0625 0,5.937065 -4.812935,10.75 -10.75,10.75 -2.710185,0 -5.171692,-1.032555 -7.0625,-2.6875 1.970458,2.251287 4.835622,3.6875 8.0625,3.6875 5.937065,0 10.75,-4.812935 10.75,-10.75 0,-3.226879 -1.436213,-6.092042 -3.6875,-8.0625 z"
     id="path3010"
     inkscape:connector-curvature="0" />
  <path
     style="color:#000000;fill:#000000;fill-opacity:0.12544803;fill-rule:nonzero;stroke:none;stroke-width:4;marker:none;visibility:visible;display:inline;overflow:visible;enable-background:accumulate"
     d="m 52,14 -1.5,0.5 -4.03125,12.03125 c 1.143336,2.428602 1.84375,5.106648 1.84375,7.96875 0,10.389964 -8.422536,18.8125 -18.8125,18.8125 -4.9414,0 -9.424275,-1.91548 -12.78125,-5.03125 3.43556,3.701522 8.332684,6.03125 13.78125,6.03125 10.389964,0 18.8125,-8.422536 18.8125,-18.8125 0,-2.862102 -0.700414,-5.540148 -1.84375,-7.96875 L 52,14 z M 26.8125,26.4375 c -5.937063,0 -10.75,4.812935 -10.75,10.75 0,3.226879 1.436212,6.092042 3.6875,8.0625 -1.654945,-1.890808 -2.6875,-4.352314 -2.6875,-7.0625 0,-5.937065 4.812937,-10.75 10.75,-10.75 2.710186,0 5.171692,1.032555 7.0625,2.6875 -1.970458,-2.251287 -4.835621,-3.6875 -8.0625,-3.6875 z"
     id="path4025"
     inkscape:connector-curvature="0" />
</svg>
