<?xml version="1.0" encoding="UTF-8" standalone="no"?>
<!-- Created with Inkscape (http://www.inkscape.org/) -->

<svg
   xmlns:dc="http://purl.org/dc/elements/1.1/"
   xmlns:cc="http://creativecommons.org/ns#"
   xmlns:rdf="http://www.w3.org/1999/02/22-rdf-syntax-ns#"
   xmlns:svg="http://www.w3.org/2000/svg"
   xmlns="http://www.w3.org/2000/svg"
   xmlns:xlink="http://www.w3.org/1999/xlink"
   xmlns:sodipodi="http://sodipodi.sourceforge.net/DTD/sodipodi-0.dtd"
   xmlns:inkscape="http://www.inkscape.org/namespaces/inkscape"
   id="svg13094"
   height="64"
   width="64"
   version="1.1"
   inkscape:version="0.48.4 r9939"
   sodipodi:docname="folder-tar.svg"
   inkscape:export-filename="folder.png"
   inkscape:export-xdpi="90"
   inkscape:export-ydpi="90">
  <sodipodi:namedview
     pagecolor="#ffffff"
     bordercolor="#666666"
     borderopacity="1"
     objecttolerance="10"
     gridtolerance="10"
     guidetolerance="10"
     inkscape:pageopacity="0"
     inkscape:pageshadow="2"
     inkscape:window-width="1920"
     inkscape:window-height="1022"
     id="namedview46"
     showgrid="true"
     inkscape:snap-bbox="true"
     inkscape:bbox-paths="true"
     inkscape:bbox-nodes="true"
     inkscape:snap-bbox-edge-midpoints="true"
     inkscape:snap-bbox-midpoints="true"
     inkscape:snap-nodes="true"
     inkscape:object-paths="true"
     inkscape:snap-intersection-paths="true"
     inkscape:object-nodes="true"
     inkscape:snap-smooth-nodes="true"
     inkscape:snap-midpoints="true"
     inkscape:snap-object-midpoints="true"
     inkscape:snap-center="true"
     fit-margin-top="0"
     fit-margin-left="0"
     fit-margin-right="0"
     fit-margin-bottom="0"
     inkscape:zoom="10.429825"
     inkscape:cx="55.290858"
     inkscape:cy="32.043647"
     inkscape:window-x="-5"
     inkscape:window-y="23"
     inkscape:window-maximized="1"
     inkscape:current-layer="svg13094"
     showguides="true"
     inkscape:guide-bbox="true"
     inkscape:snap-page="true"
     inkscape:snap-global="true">
    <inkscape:grid
       type="xygrid"
       id="grid3023"
       empspacing="5"
       visible="true"
       enabled="true"
       snapvisiblegridlinesonly="true"
       originx="-80px"
       originy="-75px" />
  </sodipodi:namedview>
  <defs
     id="defs11">
    <linearGradient
       id="linearGradient3841-4-6">
      <stop
         style="stop-color:#316bb1;stop-opacity:1;"
         offset="0"
         id="stop3843-9-6" />
      <stop
         style="stop-color:#3279d2;stop-opacity:1;"
         offset="1"
         id="stop3845-3-4" />
    </linearGradient>
    <linearGradient
       gradientTransform="translate(0.625,-0.082283)"
       inkscape:collect="always"
       xlink:href="#linearGradient3969-2"
       id="linearGradient3918-5"
       gradientUnits="userSpaceOnUse"
       x1="29.875"
       y1="64.082283"
       x2="29.875"
       y2="12.082283" />
    <linearGradient
       id="linearGradient3969-2">
      <stop
         style="stop-color:#2d6db3;stop-opacity:1"
         offset="0"
         id="stop3971-2" />
      <stop
         id="stop3977-6"
         offset="0.08245245"
         style="stop-color:#3681d4;stop-opacity:1" />
      <stop
         style="stop-color:#448ee2;stop-opacity:1"
         offset="1"
         id="stop3973-3" />
    </linearGradient>
    <linearGradient
       y2="32.976402"
       x2="77.278381"
       y1="48.976402"
       x1="77.278381"
       gradientTransform="translate(-33,-31.9764)"
       gradientUnits="userSpaceOnUse"
       id="linearGradient4736"
       xlink:href="#linearGradient3841-4-6"
       inkscape:collect="always" />
  </defs>
  <metadata
     id="metadata13099">
    <rdf:RDF>
      <cc:Work
         rdf:about="">
        <dc:format>image/svg+xml</dc:format>
        <dc:type
           rdf:resource="http://purl.org/dc/dcmitype/StillImage" />
        <dc:title />
      </cc:Work>
    </rdf:RDF>
  </metadata>
  <path
     style="fill:url(#linearGradient4736);fill-opacity:1;fill-rule:nonzero;stroke:none"
     d="m 3,6 -10e-8,58.000001 L 60,64 64,60 64,1 63,0 37,0 32,4.9999999 4,5 z"
     id="path3833"
     inkscape:connector-curvature="0"
     sodipodi:nodetypes="cccccccccc" />
  <path
     style="color:#000000;fill:#6ac4ff;fill-opacity:0.67204303;fill-rule:nonzero;stroke:none;stroke-width:1;marker:none;visibility:visible;display:inline;overflow:visible;enable-background:accumulate"
     d="M 37,0 32,5 4,5 3,6 3,7 4,6 32,6 37,1 63,1 64,2 64,1 63,0 37,0 z"
     id="path3800"
     inkscape:connector-curvature="0" />
  <path
     sodipodi:nodetypes="cccccccc"
     id="path3802"
     d="m 58,13 0,51 2,0 4,-4 0,-59 -1,-1 0,18 z"
     inkscape:connector-curvature="0"
     style="fill:#3e4959;fill-opacity:0.43171806" />
  <path
     sodipodi:nodetypes="ccccc"
     d="m 7,13 51,0 0,31 -51,0 z"
     id="path3920"
     inkscape:connector-curvature="0"
     style="fill:#ccd5de;fill-opacity:1;fill-rule:nonzero" />
  <path
     inkscape:connector-curvature="0"
     id="path4253"
     d="m 7,13 51,0 0,1 -51,0 z"
     style="fill:#ffffff;fill-opacity:1;fill-rule:nonzero"
     sodipodi:nodetypes="ccccc" />
  <path
     style="color:#000000;fill:#3e4959;fill-opacity:0.22968199;fill-rule:nonzero;stroke-width:1;stroke-linecap:butt;stroke-linejoin:miter;stroke-miterlimit:4;stroke-opacity:1;stroke-dasharray:none;stroke-dashoffset:0;marker:none;visibility:visible;display:inline;overflow:visible;enable-background:accumulate"
     d="m 30,13 4,4 2,0 -4,-4 z"
     id="path3982"
     inkscape:connector-curvature="0"
     sodipodi:nodetypes="ccccc" />
  <path
     id="path3916"
     d="m 0,13 0,50 1,1 59,0 1,-1 0,-45 -1,-1 -26,1e-6 -5,-5 L 1,12 z"
     inkscape:connector-curvature="0"
     style="fill:url(#linearGradient3918-5);fill-opacity:1;fill-rule:nonzero"
     sodipodi:nodetypes="ccccccccccc"
     inkscape:export-xdpi="90"
     inkscape:export-ydpi="90" />
  <path
     style="color:#000000;fill:#6ac4ff;fill-opacity:0.67204303;fill-rule:nonzero;stroke:none;stroke-width:1;marker:none;visibility:visible;display:inline;overflow:visible;enable-background:accumulate"
     d="m 1,12 -1,1 0,1 1,-1 28,0 5,5 26,0 1,1 0,-1 -1,-1 -26,0 -5,-5 -28,0 z"
     id="path3046"
     inkscape:connector-curvature="0" />
  <path
     inkscape:connector-curvature="0"
     id="path3061"
     d="m 17,12 0,2 -5,0 -1,0 0,1 0,4 0,1 1,0 5,0 0,2 -5,0 -1,0 0,1 0,4 0,1 1,0 5,0 0,2 -5,0 -1,0 0,1 0,4 0,1 1,0 5,0 0,2 -5,0 -1,0 0,1 0,4 0,1 1,0 1.28125,0 -4.15625,7.5 -0.21875,0.40625 0.15625,0.40625 1,3 L 10.28125,56 11,56 l 8,0 0.71875,0 0.21875,-0.6875 1,-3 0.15625,-0.40625 L 20.875,51.5 l -2.8125,-5.0625 -1.75,0.96875 2.59375,4.71875 -0.625,1.875 -6.5625,0 -0.625,-1.875 L 15.875,43.5 16.6875,42 15,42 l -2,0 0,-2 5,0 1,0 0,-1 0,-4 0,-1 -1,0 -5,0 0,-2 5,0 1,0 0,-1 0,-4 0,-1 -1,0 -5,0 0,-2 5,0 1,0 0,-1 0,-4 0,-1 -1,0 -5,0 0,-2 5,0 1,0 0,-1 0,-3 -2,0 z"
     style="font-size:medium;font-style:normal;font-variant:normal;font-weight:normal;font-stretch:normal;text-indent:0;text-align:start;text-decoration:none;line-height:normal;letter-spacing:normal;word-spacing:normal;text-transform:none;direction:ltr;block-progression:tb;writing-mode:lr-tb;text-anchor:start;baseline-shift:baseline;color:#000000;fill:#003f79;fill-opacity:0.39169694;fill-rule:nonzero;stroke:none;stroke-width:1;marker:none;visibility:visible;display:inline;overflow:visible;enable-background:accumulate;font-family:Sans;-inkscape-font-specification:Sans" />
  <path
     style="font-size:medium;font-style:normal;font-variant:normal;font-weight:normal;font-stretch:normal;text-indent:0;text-align:start;text-decoration:none;line-height:normal;letter-spacing:normal;word-spacing:normal;text-transform:none;direction:ltr;block-progression:tb;writing-mode:lr-tb;text-anchor:start;baseline-shift:baseline;color:#000000;fill:#5eb8ff;fill-opacity:0.43682311000000001;fill-rule:nonzero;stroke:none;stroke-width:1;marker:none;visibility:visible;display:inline;overflow:visible;enable-background:accumulate;font-family:Sans;-inkscape-font-specification:Sans"
     d="M 19 13 L 19 15 L 19 16 L 18 16 L 13 16 L 13 18 L 14 18 L 14 17 L 19 17 L 20 17 L 20 16 L 20 13 L 19 13 z M 19 19 L 19 23 L 19 24 L 18 24 L 13 24 L 13 26 L 14 26 L 14 25 L 19 25 L 20 25 L 20 24 L 20 20 L 20 19 L 19 19 z M 12 20 L 12 21 L 13 21 L 17 21 L 17 20 L 12 20 z M 19 27 L 19 31 L 19 32 L 18 32 L 13 32 L 13 34 L 14 34 L 14 33 L 19 33 L 20 33 L 20 32 L 20 28 L 20 27 L 19 27 z M 12 28 L 12 29 L 13 29 L 17 29 L 17 28 L 12 28 z M 19 35 L 19 39 L 19 40 L 18 40 L 13 40 L 13 42 L 14 42 L 14 41 L 19 41 L 20 41 L 20 40 L 20 36 L 20 35 L 19 35 z M 12 36 L 12 37 L 13 37 L 17 37 L 17 36 L 12 36 z M 16.15625 43 L 15.875 43.5 L 11.09375 52.125 L 11.71875 54 L 12.375 54 L 12.09375 53.125 L 16.875 44.5 L 17.6875 43 L 16.15625 43 z M 12 44 L 12 45 L 12.71875 45 L 13.28125 44 L 12 44 z M 19.0625 47.4375 L 18.71875 47.625 L 20.875 51.5 L 21.09375 51.90625 L 20.9375 52.3125 L 19.9375 55.3125 L 19.71875 56 L 19 56 L 11 56 L 10.96875 56 L 11.0625 56.3125 L 11.28125 57 L 12 57 L 20 57 L 20.71875 57 L 20.9375 56.3125 L 21.9375 53.3125 L 22.09375 52.90625 L 21.875 52.5 L 19.0625 47.4375 z "
     id="path3777" />
</svg>
