<?xml version="1.0" encoding="UTF-8" standalone="no"?>
<!-- Created with Inkscape (http://www.inkscape.org/) -->

<svg
   xmlns:dc="http://purl.org/dc/elements/1.1/"
   xmlns:cc="http://creativecommons.org/ns#"
   xmlns:rdf="http://www.w3.org/1999/02/22-rdf-syntax-ns#"
   xmlns:svg="http://www.w3.org/2000/svg"
   xmlns="http://www.w3.org/2000/svg"
   xmlns:xlink="http://www.w3.org/1999/xlink"
   xmlns:sodipodi="http://sodipodi.sourceforge.net/DTD/sodipodi-0.dtd"
   xmlns:inkscape="http://www.inkscape.org/namespaces/inkscape"
   id="svg13094"
   height="64"
   width="64"
   version="1.1"
   inkscape:version="0.48.4 r9939"
   sodipodi:docname="folder-html.svg"
   inkscape:export-filename="folder.png"
   inkscape:export-xdpi="90"
   inkscape:export-ydpi="90">
  <sodipodi:namedview
     pagecolor="#ffffff"
     bordercolor="#666666"
     borderopacity="1"
     objecttolerance="10"
     gridtolerance="10"
     guidetolerance="10"
     inkscape:pageopacity="0"
     inkscape:pageshadow="2"
     inkscape:window-width="1920"
     inkscape:window-height="1022"
     id="namedview46"
     showgrid="true"
     inkscape:snap-bbox="true"
     inkscape:bbox-paths="true"
     inkscape:bbox-nodes="true"
     inkscape:snap-bbox-edge-midpoints="true"
     inkscape:snap-bbox-midpoints="true"
     inkscape:snap-nodes="true"
     inkscape:object-paths="true"
     inkscape:snap-intersection-paths="true"
     inkscape:object-nodes="true"
     inkscape:snap-smooth-nodes="true"
     inkscape:snap-midpoints="true"
     inkscape:snap-object-midpoints="true"
     inkscape:snap-center="true"
     fit-margin-top="0"
     fit-margin-left="0"
     fit-margin-right="0"
     fit-margin-bottom="0"
     inkscape:zoom="11.313708"
     inkscape:cx="36.429262"
     inkscape:cy="32.305481"
     inkscape:window-x="-5"
     inkscape:window-y="23"
     inkscape:window-maximized="1"
     inkscape:current-layer="svg13094"
     showguides="true"
     inkscape:guide-bbox="true"
     inkscape:snap-page="true"
     inkscape:snap-global="true">
    <inkscape:grid
       type="xygrid"
       id="grid3023"
       empspacing="5"
       visible="true"
       enabled="true"
       snapvisiblegridlinesonly="true"
       originx="-80px"
       originy="-75px" />
  </sodipodi:namedview>
  <defs
     id="defs11">
    <linearGradient
       id="linearGradient3841-4-6">
      <stop
         style="stop-color:#316bb1;stop-opacity:1;"
         offset="0"
         id="stop3843-9-6" />
      <stop
         style="stop-color:#3279d2;stop-opacity:1;"
         offset="1"
         id="stop3845-3-4" />
    </linearGradient>
    <linearGradient
       gradientTransform="translate(0.625,-0.082283)"
       inkscape:collect="always"
       xlink:href="#linearGradient3969-2"
       id="linearGradient3918-5"
       gradientUnits="userSpaceOnUse"
       x1="29.875"
       y1="64.082283"
       x2="29.875"
       y2="12.082283" />
    <linearGradient
       id="linearGradient3969-2">
      <stop
         style="stop-color:#2d6db3;stop-opacity:1"
         offset="0"
         id="stop3971-2" />
      <stop
         id="stop3977-6"
         offset="0.08245245"
         style="stop-color:#3681d4;stop-opacity:1" />
      <stop
         style="stop-color:#448ee2;stop-opacity:1"
         offset="1"
         id="stop3973-3" />
    </linearGradient>
    <linearGradient
       y2="32.976402"
       x2="77.278381"
       y1="48.976402"
       x1="77.278381"
       gradientTransform="translate(-33,-31.9764)"
       gradientUnits="userSpaceOnUse"
       id="linearGradient4457"
       xlink:href="#linearGradient3841-4-6"
       inkscape:collect="always" />
  </defs>
  <metadata
     id="metadata13099">
    <rdf:RDF>
      <cc:Work
         rdf:about="">
        <dc:format>image/svg+xml</dc:format>
        <dc:type
           rdf:resource="http://purl.org/dc/dcmitype/StillImage" />
        <dc:title />
      </cc:Work>
    </rdf:RDF>
  </metadata>
  <path
     style="fill:url(#linearGradient4457);fill-opacity:1;fill-rule:nonzero;stroke:none"
     d="m 3,6 -10e-8,58.000001 L 60,64 64,60 64,1 63,0 37,0 32,4.9999999 4,5 z"
     id="path3833"
     inkscape:connector-curvature="0"
     sodipodi:nodetypes="cccccccccc" />
  <path
     style="color:#000000;fill:#6ac4ff;fill-opacity:0.67204303;fill-rule:nonzero;stroke:none;stroke-width:1;marker:none;visibility:visible;display:inline;overflow:visible;enable-background:accumulate"
     d="M 37,0 32,5 4,5 3,6 3,7 4,6 32,6 37,1 63,1 64,2 64,1 63,0 37,0 z"
     id="path3800"
     inkscape:connector-curvature="0" />
  <path
     sodipodi:nodetypes="cccccccc"
     id="path3802"
     d="m 58,13 0,51 2,0 4,-4 0,-59 -1,-1 0,18 z"
     inkscape:connector-curvature="0"
     style="fill:#3e4959;fill-opacity:0.43171806" />
  <path
     sodipodi:nodetypes="ccccc"
     d="m 7,13 51,0 0,31 -51,0 z"
     id="path3920"
     inkscape:connector-curvature="0"
     style="fill:#ccd5de;fill-opacity:1;fill-rule:nonzero" />
  <path
     inkscape:connector-curvature="0"
     id="path4253"
     d="m 7,13 51,0 0,1 -51,0 z"
     style="fill:#ffffff;fill-opacity:1;fill-rule:nonzero"
     sodipodi:nodetypes="ccccc" />
  <path
     style="color:#000000;fill:#3e4959;fill-opacity:0.22968199;fill-rule:nonzero;stroke-width:1;stroke-linecap:butt;stroke-linejoin:miter;stroke-miterlimit:4;stroke-opacity:1;stroke-dasharray:none;stroke-dashoffset:0;marker:none;visibility:visible;display:inline;overflow:visible;enable-background:accumulate"
     d="m 30,13 4,4 2,0 -4,-4 z"
     id="path3982"
     inkscape:connector-curvature="0"
     sodipodi:nodetypes="ccccc" />
  <path
     id="path3916"
     d="m 0,13 0,50 1,1 59,0 1,-1 0,-45 -1,-1 -26,1e-6 -5,-5 L 1,12 z"
     inkscape:connector-curvature="0"
     style="fill:url(#linearGradient3918-5);fill-opacity:1;fill-rule:nonzero"
     sodipodi:nodetypes="ccccccccccc"
     inkscape:export-xdpi="90"
     inkscape:export-ydpi="90" />
  <path
     style="color:#000000;fill:#6ac4ff;fill-opacity:0.67204303;fill-rule:nonzero;stroke:none;stroke-width:1;marker:none;visibility:visible;display:inline;overflow:visible;enable-background:accumulate"
     d="m 1,12 -1,1 0,1 1,-1 28,0 5,5 26,0 1,1 0,-1 -1,-1 -26,0 -5,-5 -28,0 z"
     id="path3046"
     inkscape:connector-curvature="0" />
  <path
     id="path3061"
     d="m 11.1875,30.40625 -6,8 L 4.75,39 l 0.4375,0.59375 6,8 1.625,-1.1875 L 7.25,39 l 5.5625,-7.40625 -1.625,-1.1875 z m 15.625,0 -1.625,1.1875 L 30.75,39 l -5.5625,7.40625 1.625,1.1875 6,-8 L 33.25,39 l -0.4375,-0.59375 -6,-8 z M 19,33 c -3.301864,0 -6,2.698136 -6,6 0,3.301864 2.698136,6 6,6 3.301864,0 6,-2.698136 6,-6 0,-3.301864 -2.698136,-6 -6,-6 z m 0,2 c 2.220984,0 4,1.779016 4,4 0,2.220984 -1.779016,4 -4,4 -2.220984,0 -4,-1.779016 -4,-4 0,-2.220984 1.779016,-4 4,-4 z"
     style="font-size:medium;font-style:normal;font-variant:normal;font-weight:normal;font-stretch:normal;text-indent:0;text-align:start;text-decoration:none;line-height:normal;letter-spacing:normal;word-spacing:normal;text-transform:none;direction:ltr;block-progression:tb;writing-mode:lr-tb;text-anchor:start;baseline-shift:baseline;color:#000000;fill:#003f79;fill-opacity:0.39169694;fill-rule:nonzero;stroke:none;stroke-width:1;marker:none;visibility:visible;display:inline;overflow:visible;enable-background:accumulate;font-family:Sans;-inkscape-font-specification:Sans"
     inkscape:connector-curvature="0" />
  <path
     style="font-size:medium;font-style:normal;font-variant:normal;font-weight:normal;font-stretch:normal;text-indent:0;text-align:start;text-decoration:none;line-height:normal;letter-spacing:normal;word-spacing:normal;text-transform:none;direction:ltr;block-progression:tb;writing-mode:lr-tb;text-anchor:start;baseline-shift:baseline;color:#000000;fill:#5eb8ff;fill-opacity:0.43682311000000001;fill-rule:nonzero;stroke:none;stroke-width:1;marker:none;visibility:visible;display:inline;overflow:visible;enable-background:accumulate;font-family:Sans;-inkscape-font-specification:Sans"
     d="M 27.8125 31.40625 L 27.65625 31.53125 L 32.8125 38.40625 L 33.25 39 L 32.8125 39.59375 L 26.8125 47.59375 L 26.3125 47.21875 L 26.1875 47.40625 L 27.8125 48.59375 L 33.8125 40.59375 L 34.25 40 L 33.8125 39.40625 L 27.8125 31.40625 z M 12.6875 31.78125 L 7.25 39 L 12.8125 46.40625 L 11.34375 47.46875 L 12.1875 48.59375 L 13.8125 47.40625 L 8.25 40 L 13.8125 32.59375 L 12.6875 31.78125 z M 19 35 C 16.779016 35 15 36.779016 15 39 C 15 40.355899 15.665631 41.527771 16.6875 42.25 C 16.25766 41.611943 16 40.832869 16 40 C 16 37.779016 17.779016 36 20 36 C 20.832869 36 21.611943 36.25766 22.25 36.6875 C 21.527771 35.665631 20.355899 35 19 35 z M 23.71875 35.28125 C 24.527193 36.303844 25 37.601956 25 39 C 25 42.301864 22.301864 45 19 45 C 17.601956 45 16.303844 44.527193 15.28125 43.71875 C 16.382167 45.111293 18.09618 46 20 46 C 23.301864 46 26 43.301864 26 40 C 26 38.09618 25.111293 36.382167 23.71875 35.28125 z "
     id="path2988" />
</svg>
