<?xml version="1.0" encoding="UTF-8" standalone="no"?>
<!-- Created with Inkscape (http://www.inkscape.org/) -->

<svg
   xmlns:dc="http://purl.org/dc/elements/1.1/"
   xmlns:cc="http://creativecommons.org/ns#"
   xmlns:rdf="http://www.w3.org/1999/02/22-rdf-syntax-ns#"
   xmlns:svg="http://www.w3.org/2000/svg"
   xmlns="http://www.w3.org/2000/svg"
   xmlns:xlink="http://www.w3.org/1999/xlink"
   xmlns:sodipodi="http://sodipodi.sourceforge.net/DTD/sodipodi-0.dtd"
   xmlns:inkscape="http://www.inkscape.org/namespaces/inkscape"
   id="svg13094"
   height="64"
   width="64"
   version="1.1"
   inkscape:version="0.48.3.1 r9886"
   sodipodi:docname="folder-new.svg"
   inkscape:export-filename="folder.png"
   inkscape:export-xdpi="90"
   inkscape:export-ydpi="90">
  <sodipodi:namedview
     pagecolor="#ffffff"
     bordercolor="#666666"
     borderopacity="1"
     objecttolerance="10"
     gridtolerance="10"
     guidetolerance="10"
     inkscape:pageopacity="0"
     inkscape:pageshadow="2"
     inkscape:window-width="1920"
     inkscape:window-height="1023"
     id="namedview46"
     showgrid="true"
     inkscape:snap-bbox="true"
     inkscape:bbox-paths="true"
     inkscape:bbox-nodes="true"
     inkscape:snap-bbox-edge-midpoints="true"
     inkscape:snap-bbox-midpoints="true"
     inkscape:snap-nodes="true"
     inkscape:object-paths="true"
     inkscape:snap-intersection-paths="true"
     inkscape:object-nodes="true"
     inkscape:snap-smooth-nodes="true"
     inkscape:snap-midpoints="true"
     inkscape:snap-object-midpoints="true"
     inkscape:snap-center="true"
     fit-margin-top="0"
     fit-margin-left="0"
     fit-margin-right="0"
     fit-margin-bottom="0"
     inkscape:zoom="11.313709"
     inkscape:cx="34.526778"
     inkscape:cy="28.9576"
     inkscape:window-x="-10"
     inkscape:window-y="35"
     inkscape:window-maximized="1"
     inkscape:current-layer="svg13094"
     showguides="true"
     inkscape:guide-bbox="true"
     inkscape:snap-page="true">
    <inkscape:grid
       type="xygrid"
       id="grid3023"
       empspacing="5"
       visible="true"
       enabled="true"
       snapvisiblegridlinesonly="true"
       originx="-80px"
       originy="-74.999999px" />
  </sodipodi:namedview>
  <defs
     id="defs11">
    <linearGradient
       inkscape:collect="always"
       id="linearGradient3843">
      <stop
         style="stop-color:#80a138;stop-opacity:1"
         offset="0"
         id="stop3845" />
      <stop
         style="stop-color:#8eb33e;stop-opacity:1"
         offset="1"
         id="stop3847" />
    </linearGradient>
    <linearGradient
       id="linearGradient3988-5">
      <stop
         id="stop3990-1"
         offset="0"
         style="stop-color:#316bb1;stop-opacity:1" />
      <stop
         id="stop3992-5"
         offset="1"
         style="stop-color:#3279d2;stop-opacity:1" />
    </linearGradient>
    <linearGradient
       inkscape:collect="always"
       xlink:href="#linearGradient3976-5"
       id="linearGradient3077"
       gradientUnits="userSpaceOnUse"
       x1="29.875"
       y1="64.082283"
       x2="29.875"
       y2="12.082283"
       gradientTransform="translate(0.625,-0.082283)" />
    <linearGradient
       id="linearGradient3976-5">
      <stop
         id="stop3978-2"
         offset="0"
         style="stop-color:#2d6db3;stop-opacity:1" />
      <stop
         style="stop-color:#3681d4;stop-opacity:1"
         offset="0.08245245"
         id="stop3980-6" />
      <stop
         id="stop3986-3"
         offset="1"
         style="stop-color:#448ee2;stop-opacity:1" />
    </linearGradient>
    <linearGradient
       y2="32.976402"
       x2="77.278381"
       y1="48.976402"
       x1="77.278381"
       gradientTransform="translate(-33,-31.9764)"
       gradientUnits="userSpaceOnUse"
       id="linearGradient4951"
       xlink:href="#linearGradient3988-5"
       inkscape:collect="always" />
    <linearGradient
       inkscape:collect="always"
       xlink:href="#linearGradient3843"
       id="linearGradient3079"
       gradientUnits="userSpaceOnUse"
       x1="14"
       y1="59"
       x2="14"
       y2="41" />
  </defs>
  <metadata
     id="metadata13099">
    <rdf:RDF>
      <cc:Work
         rdf:about="">
        <dc:format>image/svg+xml</dc:format>
        <dc:type
           rdf:resource="http://purl.org/dc/dcmitype/StillImage" />
        <dc:title />
      </cc:Work>
    </rdf:RDF>
  </metadata>
  <path
     style="color:#000000;fill:url(#linearGradient4951);fill-opacity:1;fill-rule:nonzero;stroke:none;marker:none;visibility:visible;display:inline;overflow:visible;enable-background:accumulate"
     d="m 3,6 -10e-8,58.000001 L 60,64 64,60 64,1 63,0 37,0 32,4.9999999 4,5 z"
     id="path3833"
     inkscape:connector-curvature="0"
     sodipodi:nodetypes="cccccccccc" />
  <path
     style="color:#000000;fill:#6ac4ff;fill-opacity:0.67058824;fill-rule:nonzero;stroke:none;stroke-width:1;marker:none;visibility:visible;display:inline;overflow:visible;enable-background:accumulate"
     d="M 37,0 32,5 4,5 3,6 3,7 4,6 32,6 37,1 63,1 64,2 64,1 63,0 37,0 z"
     id="path3800"
     inkscape:connector-curvature="0" />
  <path
     sodipodi:nodetypes="ccccc"
     d="m 7,13 51,0 0,31 -51,0 z"
     id="path3920"
     inkscape:connector-curvature="0"
     style="fill:#ccd5de;fill-opacity:1;fill-rule:nonzero" />
  <path
     sodipodi:nodetypes="cccccccc"
     id="path3802"
     d="m 58,13 0,51 2,0 4,-4 0,-59 -1,-1 0,18 z"
     inkscape:connector-curvature="0"
     style="fill:#3e4959;fill-opacity:0.43171806" />
  <path
     inkscape:connector-curvature="0"
     id="path4253"
     d="m 7,13 51,0 0,1 -51,0 z"
     style="fill:#ffffff;fill-opacity:1;fill-rule:nonzero"
     sodipodi:nodetypes="ccccc" />
  <path
     style="color:#000000;fill:#3e4959;fill-opacity:0.22968199;fill-rule:nonzero;stroke-width:1;stroke-linecap:butt;stroke-linejoin:miter;stroke-miterlimit:4;stroke-opacity:1;stroke-dasharray:none;stroke-dashoffset:0;marker:none;visibility:visible;display:inline;overflow:visible;enable-background:accumulate"
     d="m 30,13 4,4 2,0 -4,-4 z"
     id="path3982"
     inkscape:connector-curvature="0"
     sodipodi:nodetypes="ccccc" />
  <path
     id="path3916"
     d="m 0,13 0,50 1,1 59,0 1,-1 0,-45 -1,-1 -26,1e-6 -5,-5 L 1,12 z"
     inkscape:connector-curvature="0"
     style="color:#000000;fill:url(#linearGradient3077);fill-opacity:1;fill-rule:nonzero;stroke-width:1;stroke-linecap:butt;stroke-linejoin:miter;stroke-miterlimit:4;stroke-opacity:1;stroke-dasharray:none;stroke-dashoffset:0;marker:none;visibility:visible;display:inline;overflow:visible;enable-background:accumulate"
     sodipodi:nodetypes="ccccccccccc"
     inkscape:export-xdpi="90"
     inkscape:export-ydpi="90" />
  <path
     style="color:#000000;fill:#6ac4ff;fill-opacity:0.67204303;fill-rule:nonzero;stroke-width:1;stroke-linecap:butt;stroke-linejoin:miter;stroke-miterlimit:4;stroke-opacity:1;stroke-dasharray:none;stroke-dashoffset:0;marker:none;visibility:visible;display:inline;overflow:visible;enable-background:accumulate"
     d="m 1,12 -1,1 0,1 1,-1 28,0 5,5 26,0 1,1 0,-1 -1,-1 -26,0 -5,-5 -28,0 z"
     id="path3046"
     inkscape:connector-curvature="0" />
  <g
     id="g3083">
    <path
       inkscape:connector-curvature="0"
       id="path3883"
       d="M 22.25,42.75 C 23.955463,44.687682 25,47.215786 25,50 25,56.075128 20.075132,61 14,61 11.215784,61 8.6876817,59.955463 6.75,58.25 8.7658399,60.540321 11.709084,62 15,62 c 6.075132,0 11,-4.924872 11,-11 0,-3.290914 -1.459679,-6.234159 -3.75,-8.25 z"
       style="color:#000000;fill:#0b0e11;fill-opacity:0.0786219;fill-rule:nonzero;stroke:none;stroke-width:1;marker:none;visibility:visible;display:inline;overflow:visible;enable-background:accumulate" />
    <path
       style="color:#000000;fill:#e6e6e6;fill-opacity:1;fill-rule:nonzero;stroke:none;stroke-width:1;marker:none;visibility:visible;display:inline;overflow:visible;enable-background:accumulate"
       d="M 14,39 C 7.9248674,39 3,43.924872 3,50 3,56.075128 7.9248674,61 14,61 20.075132,61 25,56.075128 25,50 25,43.924872 20.075132,39 14,39 z"
       id="path3851"
       inkscape:connector-curvature="0" />
    <path
       inkscape:connector-curvature="0"
       style="color:#000000;fill:url(#linearGradient3079);fill-opacity:1;fill-rule:nonzero;stroke:none;stroke-width:1;marker:none;visibility:visible;display:inline;overflow:visible;enable-background:accumulate"
       d="m 14,41 c -4.970563,0 -9,4.02944 -9,9 0,4.97056 4.029437,9 9,9 4.970562,0 9,-4.02944 9,-9 0,-4.97056 -4.029438,-9 -9,-9 z"
       id="path3069" />
    <path
       inkscape:connector-curvature="0"
       style="color:#000000;fill:#e6e6e6;fill-opacity:1;fill-rule:nonzero;stroke:none;stroke-width:1;marker:none;visibility:visible;display:inline;overflow:visible;enable-background:accumulate"
       d="m 13,44 2,0 0,5 5,0 0,2 -5,0 0,5 -2,0 0,-5 -5,0 0,-2 5,0 0,-5 z"
       id="path3872" />
    <path
       inkscape:connector-curvature="0"
       id="path3054"
       d="m 15,45 0,4 1,0 0,-4 -1,0 z m 5,5 0,1 -5,0 0,5 -1,0 0,1 2,0 0,-5 5,0 0,-2 -1,0 z m -11,1 0,1 4,0 0,-1 -4,0 z"
       style="color:#000000;fill:#0b0e11;fill-opacity:0.0786219;fill-rule:nonzero;stroke:none;stroke-width:1;marker:none;visibility:visible;display:inline;overflow:visible;enable-background:accumulate" />
  </g>
</svg>
