<?xml version="1.0" encoding="UTF-8" standalone="no"?>
<!-- Created with Inkscape (http://www.inkscape.org/) -->

<svg
   xmlns:dc="http://purl.org/dc/elements/1.1/"
   xmlns:cc="http://creativecommons.org/ns#"
   xmlns:rdf="http://www.w3.org/1999/02/22-rdf-syntax-ns#"
   xmlns:svg="http://www.w3.org/2000/svg"
   xmlns="http://www.w3.org/2000/svg"
   xmlns:sodipodi="http://sodipodi.sourceforge.net/DTD/sodipodi-0.dtd"
   xmlns:inkscape="http://www.inkscape.org/namespaces/inkscape"
   id="svg13094"
   height="36"
   width="36"
   version="1.1"
   inkscape:version="0.48.3.1 r9886"
   sodipodi:docname="emblem-dropbox-syncing.svg">
  <sodipodi:namedview
     pagecolor="#ffffff"
     bordercolor="#666666"
     borderopacity="1"
     objecttolerance="10"
     gridtolerance="10"
     guidetolerance="10"
     inkscape:pageopacity="0"
     inkscape:pageshadow="2"
     inkscape:window-width="1920"
     inkscape:window-height="1023"
     id="namedview19"
     showgrid="true"
     inkscape:snap-bbox="true"
     inkscape:bbox-paths="true"
     inkscape:bbox-nodes="true"
     inkscape:snap-bbox-edge-midpoints="true"
     inkscape:snap-bbox-midpoints="true"
     inkscape:object-paths="true"
     inkscape:snap-intersection-paths="true"
     inkscape:object-nodes="true"
     inkscape:snap-smooth-nodes="true"
     inkscape:snap-midpoints="true"
     inkscape:snap-object-midpoints="true"
     inkscape:snap-center="true"
     inkscape:zoom="29.5"
     inkscape:cx="18.509798"
     inkscape:cy="16.436761"
     inkscape:window-x="-10"
     inkscape:window-y="35"
     inkscape:window-maximized="1"
     inkscape:current-layer="use3028"
     fit-margin-top="0"
     fit-margin-left="0"
     fit-margin-right="0"
     fit-margin-bottom="0">
    <inkscape:grid
       type="xygrid"
       id="grid3766"
       empspacing="5"
       visible="true"
       enabled="true"
       snapvisiblegridlinesonly="true"
       originx="-6.9999986px"
       originy="-6.999997px" />
  </sodipodi:namedview>
  <defs
     id="defs11" />
  <metadata
     id="metadata13099">
    <rdf:RDF>
      <cc:Work
         rdf:about="">
        <dc:format>image/svg+xml</dc:format>
        <dc:type
           rdf:resource="http://purl.org/dc/dcmitype/StillImage" />
        <dc:title />
      </cc:Work>
    </rdf:RDF>
  </metadata>
  <g
     transform="translate(-3.180797e-7,3.9999998)"
     id="use3028">
    <path
       sodipodi:type="arc"
       style="fill:#404957;fill-opacity:0.23137255;fill-rule:nonzero;stroke:none"
       id="path3778"
       sodipodi:cx="33.5"
       sodipodi:cy="32.5"
       sodipodi:rx="23.5"
       sodipodi:ry="23.5"
       d="M 57,32.5 C 57,45.478692 46.478692,56 33.5,56 20.521308,56 10,45.478692 10,32.5 10,19.521308 20.521308,9 33.5,9 46.478692,9 57,19.521308 57,32.5 z"
       transform="matrix(0.33098618,0.33098618,-0.33098618,0.33098618,17.669014,-7.8450881)" />
    <path
       inkscape:connector-curvature="0"
       style="color:#000000;fill:#404957;fill-opacity:0.23137255000000001;fill-rule:nonzero;stroke:none;stroke-width:2;marker:none;visibility:visible;display:inline;overflow:visible;enable-background:accumulate"
       d="m 18.999999,8.000004 c 2.2352,0 4.2168,1.0595 5.5,2.6875 l 1.5,-1.6875 0,5 -4.5,0 1.5937,-1.7813 c -0.8961,-1.3238 -2.3746,-2.2187 -4.0937,-2.2187 -2.4162,0 -4.44,1.7216 -4.9063,4 l -2,0 c 0.4874,-3.39 3.3815,-6 6.9063,-6 z m 6.9062,8 c -0.4873,3.39 -3.3814,6 -6.9062,6 -2.2352,0 -4.2168,-1.0595 -5.5,-2.6875 l -1.5,1.6875 0,-5 4.5,0 -1.5938,1.7812 c 0.8962,1.3239 2.3747,2.2188 4.0938,2.2188 2.4162,0 4.4399,-1.7216 4.9062,-4 l 2,0 z"
       id="path3782" />
    <path
       id="path3795"
       d="m 17.999999,7.000004 c 2.2352,0 4.2168,1.0595 5.5,2.6875 l 1.5,-1.6875 0,5 -4.5,0 1.5937,-1.7813 c -0.8961,-1.3238 -2.3746,-2.2187 -4.0937,-2.2187 -2.4162,0 -4.44,1.7216 -4.9063,4 l -2,0 c 0.4874,-3.39 3.3815,-6 6.9063,-6 z m 6.9062,8 c -0.4873,3.39 -3.3814,6 -6.9062,6 -2.2352,0 -4.2168,-1.0595 -5.5,-2.6875 l -1.5,1.6875 0,-5 4.5,0 -1.5938,1.7812 c 0.8962,1.3239 2.3747,2.2188 4.0938,2.2188 2.4162,0 4.4399,-1.7216 4.9062,-4 l 2,0 z"
       style="color:#000000;fill:#ffffff;fill-opacity:1;fill-rule:nonzero;stroke:none;stroke-width:2;marker:none;visibility:visible;display:inline;overflow:visible;enable-background:accumulate"
       inkscape:connector-curvature="0" />
  </g>
</svg>
