<?xml version="1.0" encoding="UTF-8" standalone="no"?>
<!-- Created with Inkscape (http://www.inkscape.org/) -->

<svg
   xmlns:dc="http://purl.org/dc/elements/1.1/"
   xmlns:cc="http://creativecommons.org/ns#"
   xmlns:rdf="http://www.w3.org/1999/02/22-rdf-syntax-ns#"
   xmlns:svg="http://www.w3.org/2000/svg"
   xmlns="http://www.w3.org/2000/svg"
   xmlns:sodipodi="http://sodipodi.sourceforge.net/DTD/sodipodi-0.dtd"
   xmlns:inkscape="http://www.inkscape.org/namespaces/inkscape"
   width="22"
   height="22"
   id="svg27665"
   version="1.1"
   inkscape:version="0.48.3.1 r9886"
   sodipodi:docname="extra-finder.svg">
  <defs
     id="defs27667" />
  <sodipodi:namedview
     id="base"
     pagecolor="#ffffff"
     bordercolor="#666666"
     borderopacity="1.0"
     inkscape:pageopacity="0.0"
     inkscape:pageshadow="2"
     inkscape:zoom="32"
     inkscape:cx="8.404859"
     inkscape:cy="11.738822"
     inkscape:document-units="px"
     inkscape:current-layer="layer1"
     showgrid="true"
     inkscape:window-width="1920"
     inkscape:window-height="1023"
     inkscape:window-x="-10"
     inkscape:window-y="35"
     inkscape:window-maximized="1"
     inkscape:snap-bbox="true"
     inkscape:bbox-paths="true"
     inkscape:bbox-nodes="true"
     inkscape:snap-bbox-edge-midpoints="true"
     inkscape:snap-bbox-midpoints="true"
     inkscape:object-paths="true"
     inkscape:snap-intersection-paths="true"
     inkscape:object-nodes="true"
     inkscape:snap-smooth-nodes="true"
     inkscape:snap-midpoints="true"
     inkscape:snap-object-midpoints="true"
     inkscape:snap-center="true"
     inkscape:snap-global="true"
     showguides="false"
     inkscape:guide-bbox="true"
     fit-margin-top="0"
     fit-margin-left="0"
     fit-margin-right="0"
     fit-margin-bottom="0"
     inkscape:showpageshadow="false">
    <sodipodi:guide
       orientation="0,1"
       position="599.99999,299.99993"
       id="guide3572" />
    <sodipodi:guide
       orientation="1,0"
       position="294.41949,12.121716"
       id="guide3574" />
    <sodipodi:guide
       orientation="0,1"
       position="456.04389,599.99992"
       id="guide3576" />
    <sodipodi:guide
       orientation="0,1"
       position="-2.8882813e-06,-8.4406273e-05"
       id="guide3578" />
    <sodipodi:guide
       orientation="1,0"
       position="-2.8882813e-06,157.58366"
       id="guide3580" />
    <sodipodi:guide
       orientation="1,0"
       position="599.99999,121.21821"
       id="guide3582" />
    <sodipodi:guide
       orientation="0,1"
       position="599.99999,-714.34359"
       id="guide5928" />
    <sodipodi:guide
       orientation="0,1"
       position="599.99999,-414.34359"
       id="guide5930" />
    <sodipodi:guide
       orientation="0,1"
       position="599.99999,-1014.3435"
       id="guide5932" />
    <sodipodi:guide
       orientation="0,1"
       position="451.57029,524.99606"
       id="guide5294" />
    <sodipodi:guide
       orientation="0,1"
       position="451.57029,75.013516"
       id="guide5296" />
    <sodipodi:guide
       orientation="0,1"
       position="496.01499,-931.36409"
       id="guide5413" />
    <sodipodi:guide
       orientation="0,1"
       position="457.34859,-489.34389"
       id="guide5415" />
    <inkscape:grid
       type="xygrid"
       id="grid3070"
       empspacing="5"
       visible="true"
       enabled="true"
       snapvisiblegridlinesonly="true"
       originx="4.3243213e-05px"
       originy="-2.6947047e-05px" />
  </sodipodi:namedview>
  <metadata
     id="metadata27670">
    <rdf:RDF>
      <cc:Work
         rdf:about="">
        <dc:format>image/svg+xml</dc:format>
        <dc:type
           rdf:resource="http://purl.org/dc/dcmitype/StillImage" />
        <dc:title />
      </cc:Work>
    </rdf:RDF>
  </metadata>
  <g
     inkscape:label="Camada 1"
     inkscape:groupmode="layer"
     id="layer1"
     transform="translate(3364.4171,-2094.7186)">
    <path
       id="path3789"
       d="m -3362.4171,2097.7186 0,16 10,0 c -0.1864,-0.6476 -0.7667,-2.3268 -0.625,-3 -1.9168,0.064 -3.9072,-0.3182 -5.9375,-1.1875 l 0.4062,-0.9062 c 1.9195,0.8218 3.7434,1.185 5.5,1.125 0.014,-0.6912 0.3172,-2.2784 0.6563,-3.0313 l -2.4375,0 -0.5625,0 0,-1 c 0,-2.2753 1.1224,-5.2043 3.0625,-8 z m 11.2812,0 c -1.9358,2.6422 -3.1464,5.8744 -3.2812,8 l 2.25,0 0.7812,0 c 0.092,2.4574 -0.5702,2.5939 -0.5312,3.875 1.1097,-0.1633 2.2189,-0.4524 3.2812,-0.9687 l 0.4375,0.9062 c -1.2268,0.5963 -2.5125,0.9027 -3.8125,1.0625 0,0.7238 0.6063,2.4234 0.8125,3.125 l 6.7813,0 0,-16 z m -6.2812,4 1,0 0,2 -1,0 z m 6,0 1,0 0,2 -1,0 z"
       style="color:#000000;fill:#434a54;fill-opacity:0.6745098;fill-rule:nonzero;stroke:none;stroke-width:2.28571415;marker:none;visibility:visible;display:inline;overflow:visible;enable-background:accumulate"
       inkscape:connector-curvature="0"
       sodipodi:nodetypes="ccccccccccscccccccccccccccccccccccc" />
    <path
       style="font-size:medium;font-style:normal;font-variant:normal;font-weight:normal;font-stretch:normal;text-indent:0;text-align:start;text-decoration:none;line-height:normal;letter-spacing:normal;word-spacing:normal;text-transform:none;direction:ltr;block-progression:tb;writing-mode:lr-tb;text-anchor:start;baseline-shift:baseline;color:#000000;fill:#d1d4d6;fill-opacity:0.74329164;fill-rule:nonzero;stroke:none;stroke-width:2;marker:none;visibility:visible;display:inline;overflow:visible;enable-background:accumulate;font-family:Sans;-inkscape-font-specification:Sans"
       d="m -3363.4171,2096.7186 0,1 0,16 0,1 1,0 10,0 0.4687,0 0.875,0 6.6563,0 1,0 0,-1 0,-16 0,-1 -1,0 -6.0313,0 -1.1875,0 -0.7187,0 -10.0625,0 z m 1,1 10.0625,0 c -1.9401,2.7957 -3.0625,5.7247 -3.0625,8 l 0,1 0.5625,0 2.4375,0 c -0.3391,0.7529 -0.6423,2.3401 -0.6563,3.0313 -1.7566,0.06 -3.5805,-0.3032 -5.5,-1.125 l -0.4062,0.9062 c 2.0303,0.8693 4.0207,1.2515 5.9375,1.1875 -0.1417,0.6732 0.439,2.3524 0.625,3 l -10,0 z m 11.2812,0 6.7188,0 0,16 -6.7813,0 c -0.2062,-0.7016 -0.8125,-2.4012 -0.8125,-3.125 1.3,-0.1598 2.5857,-0.4662 3.8125,-1.0625 l -0.4375,-0.9062 c -1.0623,0.5163 -2.1715,0.8054 -3.2812,0.9687 -0.039,-1.2811 0.6232,-1.4176 0.5312,-3.875 l -0.7812,0 -2.25,0 c 0.1348,-2.1256 1.3454,-5.3578 3.2812,-8 z m -6.2812,4 0,2 1,0 0,-2 z m 6,0 0,2 1,0 0,-2 z"
       id="path3000"
       inkscape:connector-curvature="0"
       sodipodi:nodetypes="cccccccccccccccccccccscccccccccccccccccccccccccccccccc" />
  </g>
</svg>
