<?xml version="1.0" encoding="UTF-8" standalone="no"?>
<!-- Created with Inkscape (http://www.inkscape.org/) -->

<svg
   xmlns:dc="http://purl.org/dc/elements/1.1/"
   xmlns:cc="http://creativecommons.org/ns#"
   xmlns:rdf="http://www.w3.org/1999/02/22-rdf-syntax-ns#"
   xmlns:svg="http://www.w3.org/2000/svg"
   xmlns="http://www.w3.org/2000/svg"
   xmlns:sodipodi="http://sodipodi.sourceforge.net/DTD/sodipodi-0.dtd"
   xmlns:inkscape="http://www.inkscape.org/namespaces/inkscape"
   width="15.999998"
   height="15.999998"
   id="svg13094"
   version="1.1"
   inkscape:version="0.48.4 r9939"
   sodipodi:docname="edit-cut.svg">
  <sodipodi:namedview
     id="base"
     pagecolor="#ffffff"
     bordercolor="#666666"
     borderopacity="1.0"
     inkscape:pageopacity="0.0"
     inkscape:pageshadow="2"
     inkscape:zoom="32"
     inkscape:cx="14.74053"
     inkscape:cy="5.7956075"
     inkscape:document-units="px"
     inkscape:current-layer="layer1"
     showgrid="true"
     inkscape:snap-bbox="true"
     inkscape:bbox-paths="true"
     inkscape:bbox-nodes="true"
     inkscape:snap-bbox-edge-midpoints="true"
     inkscape:snap-bbox-midpoints="true"
     inkscape:object-paths="true"
     inkscape:snap-intersection-paths="true"
     inkscape:object-nodes="true"
     inkscape:snap-smooth-nodes="true"
     inkscape:snap-midpoints="true"
     inkscape:snap-object-midpoints="true"
     inkscape:snap-center="true"
     showguides="false"
     inkscape:guide-bbox="true"
     inkscape:window-width="1920"
     inkscape:window-height="1016"
     inkscape:window-x="-5"
     inkscape:window-y="27"
     inkscape:window-maximized="1"
     inkscape:snap-global="false"
     fit-margin-top="0"
     fit-margin-left="0"
     fit-margin-right="0"
     fit-margin-bottom="0"
     showborder="true"
     inkscape:showpageshadow="false">
    <sodipodi:guide
       orientation="0,1"
       position="-24.999799,930.61278"
       id="guide4700" />
    <sodipodi:guide
       orientation="0,1"
       position="576.71906,328.8938"
       id="guide4702" />
    <sodipodi:guide
       orientation="1,0"
       position="576.71918,489.70387"
       id="guide4706" />
    <sodipodi:guide
       orientation="1,0"
       position="55.000202,930.61278"
       id="guide4708" />
    <sodipodi:guide
       orientation="0,1"
       position="-24.999799,850.61288"
       id="guide4710" />
    <sodipodi:guide
       orientation="0,1"
       position="536.71906,408.89372"
       id="guide4712" />
    <sodipodi:guide
       orientation="1,0"
       position="496.71906,408.89372"
       id="guide4714" />
    <inkscape:grid
       type="xygrid"
       id="grid3216"
       empspacing="5"
       visible="true"
       enabled="true"
       snapvisiblegridlinesonly="true"
       originx="-24.999745px"
       originy="-219.00013px" />
    <sodipodi:guide
       orientation="-0.70710664,0.70710692"
       position="4.0002558,-246.00013"
       id="guide3847" />
    <sodipodi:guide
       orientation="0.70710594,0.70710762"
       position="5.0002558,-245.00013"
       id="guide3849" />
    <sodipodi:guide
       orientation="-0.70710681,0.70710676"
       position="7.0002558,-212.00013"
       id="guide3851" />
  </sodipodi:namedview>
  <defs
     id="defs13096" />
  <metadata
     id="metadata13099">
    <rdf:RDF>
      <cc:Work
         rdf:about="">
        <dc:format>image/svg+xml</dc:format>
        <dc:type
           rdf:resource="http://purl.org/dc/dcmitype/StillImage" />
        <dc:title />
      </cc:Work>
    </rdf:RDF>
  </metadata>
  <g
     transform="translate(9379.308,-4843.1988)"
     id="layer1"
     inkscape:groupmode="layer"
     inkscape:label="Camada 1">
    <path
       style="font-size:medium;font-style:normal;font-variant:normal;font-weight:normal;font-stretch:normal;text-indent:0;text-align:start;text-decoration:none;line-height:normal;letter-spacing:normal;word-spacing:normal;text-transform:none;direction:ltr;block-progression:tb;writing-mode:lr-tb;text-anchor:start;baseline-shift:baseline;color:#000000;fill:#f1f3f5;fill-opacity:0.90288714000000003;fill-rule:nonzero;stroke:none;stroke-width:2;marker:none;visibility:visible;display:inline;overflow:visible;enable-background:accumulate;font-family:Sans;-inkscape-font-specification:Sans"
       d="M 5.5625 -0.09375 L 3.21875 0.125 C 2.605025 4.3890781 4.2293516 7.2220735 5.25 8.6875 L 6.0625 7.71875 L 4.75 5 L 3.9375 1.3125 L 4.84375 0.96875 L 8 6.46875 L 11.15625 0.96875 L 12.0625 1.3125 L 11.25 5 L 9.9375 7.71875 L 10.75 8.6875 C 11.7706 7.2221 13.39495 4.389 12.78125 0.125 L 10.4375 -0.09375 L 10.0625 0.34375 L 8 3.9375 L 5.9375 0.34375 L 5.5625 -0.09375 z M 3.65625 7.875 C 2.7869565 7.8796148 1.6793408 8.2924823 0.96875 9.03125 C 0.21069645 9.8004417 -0.25 10.845565 -0.25 12 C -0.25 14.331364 1.6686359 16.25 4 16.25 C 5.9336661 16.25 7.5049928 14.905925 8 13.125 C 8.495 14.9059 10.0663 16.25 12 16.25 C 14.3314 16.25 16.25 14.3314 16.25 12 C 16.25 10.8456 15.78935 9.80045 15.03125 9.03125 C 13.61005 7.55375 10.59145 7.39705 11.09375 9.15625 L 11.96875 9 C 11.97875 8.9999 11.989 9 12 9 C 13.6569 9 15 10.3431 15 12 C 15 13.6569 13.6569 15 12 15 C 10.3431 15 9 13.6569 9 12 L 8 9.0625 L 7 12 C 7 13.6569 5.6569 15 4 15 C 2.3431 15 1 13.6569 1 12 C 1 10.3431 2.3431 9 4 9 C 4.010653 9 4.020653 8.9998619 4.03125 9 L 4.90625 9.15625 C 5.157383 8.2766346 4.5255435 7.8703852 3.65625 7.875 z M 3 11 L 3 13 L 5 13 L 5 11 L 3 11 z M 11 11 L 11 13 L 13 13 L 13 11 L 11 11 z "
       transform="translate(-9379.308,4843.1988)"
       id="path3771" />
    <path
       sodipodi:nodetypes="cccccssscccsssscccccccccccccccccc"
       inkscape:connector-curvature="0"
       style="fill:#27303a;fill-opacity:0.753280819999999968;fill-rule:nonzero;stroke:none"
       d="m -9374.4643,4844.1678 -0.9062,0.3437 0.8125,3.6875 1.3125,2.75 -1.1563,1.4063 c -0.2899,-0.093 -0.5852,-0.1563 -0.9062,-0.1563 -1.6569,0 -3,1.3431 -3,3 0,1.6569 1.3431,3 3,3 1.6569,0 3,-1.3431 3,-3 l 1,-2.9375 1,2.9063 c -10e-5,0.011 0,0.02 0,0.031 0,1.6569 1.3431,3 3,3 1.6568,0 3,-1.3431 3,-3 0,-1.6569 -1.3432,-3 -3,-3 -0.3003,0 -0.5702,0.074 -0.8438,0.1563 l -1.1875,-1.4063 1.2813,-2.75 0.8437,-3.6875 -0.9062,-0.3437 -3.1875,5.5 -3.1563,-5.5 z m -1.8437,10.0312 2,0 0,2 -2,0 z m 8,0 2,0 0,2 -2,0 z"
       id="path3773" />
  </g>
</svg>
