<?xml version="1.0" encoding="UTF-8" standalone="no"?>
<!-- Created with Inkscape (http://www.inkscape.org/) -->

<svg
   xmlns:dc="http://purl.org/dc/elements/1.1/"
   xmlns:cc="http://creativecommons.org/ns#"
   xmlns:rdf="http://www.w3.org/1999/02/22-rdf-syntax-ns#"
   xmlns:svg="http://www.w3.org/2000/svg"
   xmlns="http://www.w3.org/2000/svg"
   xmlns:sodipodi="http://sodipodi.sourceforge.net/DTD/sodipodi-0.dtd"
   xmlns:inkscape="http://www.inkscape.org/namespaces/inkscape"
   width="22"
   height="22"
   id="svg27665"
   version="1.1"
   inkscape:version="0.48.3.1 r9886"
   sodipodi:docname="atom.svg">
  <defs
     id="defs27667" />
  <sodipodi:namedview
     id="base"
     pagecolor="#ffffff"
     bordercolor="#666666"
     borderopacity="1.0"
     inkscape:pageopacity="0.0"
     inkscape:pageshadow="2"
     inkscape:zoom="32"
     inkscape:cx="13.338096"
     inkscape:cy="11.440895"
     inkscape:document-units="px"
     inkscape:current-layer="layer1"
     showgrid="true"
     inkscape:window-width="1920"
     inkscape:window-height="1023"
     inkscape:window-x="-10"
     inkscape:window-y="35"
     inkscape:window-maximized="1"
     inkscape:snap-bbox="true"
     inkscape:bbox-paths="true"
     inkscape:bbox-nodes="true"
     inkscape:snap-bbox-edge-midpoints="true"
     inkscape:snap-bbox-midpoints="true"
     inkscape:object-paths="true"
     inkscape:snap-intersection-paths="true"
     inkscape:object-nodes="true"
     inkscape:snap-smooth-nodes="true"
     inkscape:snap-midpoints="true"
     inkscape:snap-object-midpoints="true"
     inkscape:snap-center="true"
     inkscape:snap-global="true"
     showguides="false"
     inkscape:guide-bbox="true"
     fit-margin-top="0"
     fit-margin-left="0"
     fit-margin-right="0"
     fit-margin-bottom="0"
     inkscape:showpageshadow="false">
    <sodipodi:guide
       orientation="0,1"
       position="599.99999,299.99993"
       id="guide3572" />
    <sodipodi:guide
       orientation="1,0"
       position="294.41949,12.121716"
       id="guide3574" />
    <sodipodi:guide
       orientation="0,1"
       position="456.04389,599.99992"
       id="guide3576" />
    <sodipodi:guide
       orientation="0,1"
       position="-2.8882813e-06,-8.4406273e-05"
       id="guide3578" />
    <sodipodi:guide
       orientation="1,0"
       position="-2.8882813e-06,157.58366"
       id="guide3580" />
    <sodipodi:guide
       orientation="1,0"
       position="599.99999,121.21821"
       id="guide3582" />
    <sodipodi:guide
       orientation="0,1"
       position="599.99999,-714.34359"
       id="guide5928" />
    <sodipodi:guide
       orientation="0,1"
       position="599.99999,-414.34359"
       id="guide5930" />
    <sodipodi:guide
       orientation="0,1"
       position="599.99999,-1014.3435"
       id="guide5932" />
    <sodipodi:guide
       orientation="0,1"
       position="451.57029,524.99606"
       id="guide5294" />
    <sodipodi:guide
       orientation="0,1"
       position="451.57029,75.013516"
       id="guide5296" />
    <sodipodi:guide
       orientation="0,1"
       position="496.01499,-931.36409"
       id="guide5413" />
    <sodipodi:guide
       orientation="0,1"
       position="457.34859,-489.34389"
       id="guide5415" />
    <inkscape:grid
       type="xygrid"
       id="grid3070"
       empspacing="5"
       visible="true"
       enabled="true"
       snapvisiblegridlinesonly="true"
       originx="4.3243213e-05px"
       originy="-2.6947047e-05px" />
  </sodipodi:namedview>
  <metadata
     id="metadata27670">
    <rdf:RDF>
      <cc:Work
         rdf:about="">
        <dc:format>image/svg+xml</dc:format>
        <dc:type
           rdf:resource="http://purl.org/dc/dcmitype/StillImage" />
        <dc:title />
      </cc:Work>
    </rdf:RDF>
  </metadata>
  <g
     inkscape:label="Camada 1"
     inkscape:groupmode="layer"
     id="layer1"
     transform="translate(3364.4171,-2094.7186)">
    <path
       style="font-size:medium;font-style:normal;font-variant:normal;font-weight:normal;font-stretch:normal;text-indent:0;text-align:start;text-decoration:none;line-height:normal;letter-spacing:normal;word-spacing:normal;text-transform:none;direction:ltr;block-progression:tb;writing-mode:lr-tb;text-anchor:start;baseline-shift:baseline;color:#000000;fill:#d1d4d6;fill-opacity:0.74329164;fill-rule:nonzero;stroke:none;stroke-width:2;marker:none;visibility:visible;display:inline;overflow:visible;enable-background:accumulate;font-family:Sans;-inkscape-font-specification:Sans"
       d="m -3356.9171,2096.2186 c -0.1585,0 -0.305,0.01 -0.4688,0.031 -0.3113,0.04 -0.4747,0.1077 -0.5312,0.125 -1.0835,0.3303 -1.7871,1.22 -2.0938,2.1562 -0.2785,0.8505 -0.3304,1.758 -0.2187,2.7188 0.025,0.2173 0.083,0.4144 0.125,0.625 -1.6713,0.6009 -3.0631,1.4198 -3.5625,2.9375 -0.3379,1.0272 -0.1065,2.0947 0.5,2.9062 0.5586,0.7484 1.3595,1.2909 2.2812,1.7188 l 0.8438,0.375 c -0.1222,0.7643 -0.258,1.5172 -0.1875,2.1875 0.096,0.9138 0.4246,1.8323 1.1562,2.5 0.7673,0.7004 1.8173,0.9716 2.8125,0.7812 0.9206,-0.1762 1.7498,-0.6415 2.5625,-1.25 l 0.5,-0.375 c 0.5433,0.4508 1.0819,0.9328 1.6875,1.2188 0.8351,0.3943 1.8256,0.6229 2.8438,0.3125 1.0834,-0.3304 1.787,-1.22 2.0937,-2.1563 0.2786,-0.8505 0.3305,-1.758 0.2188,-2.7187 -0.02,-0.175 -0.095,-0.3829 -0.125,-0.5625 l 0.5937,-0.25 c 0.7909,-0.3448 1.4944,-0.7467 2.0625,-1.3125 0.5928,-0.5901 1.024,-1.361 1.0625,-2.2813 0.04,-0.9535 -0.3985,-1.7826 -0.9375,-2.375 -0.5309,-0.5834 -1.2055,-1.0375 -2,-1.4062 -0.2214,-0.1028 -0.5153,-0.128 -0.75,-0.2188 l 0.062,-0.5312 c 0.1144,-0.9087 0.1195,-1.781 -0.094,-2.5938 -0.2142,-0.8193 -0.6672,-1.6313 -1.5,-2.125 -0.8425,-0.4996 -1.8188,-0.4911 -2.625,-0.2812 -0.7916,0.2059 -1.5374,0.5994 -2.2813,1.1562 -0.1267,0.095 -0.2192,0.2731 -0.3437,0.375 l -0.6875,-0.5 c -0.8921,-0.6335 -1.8903,-1.1747 -3,-1.1875 z m -0.3125,1.2188 c 0.8306,-0.1057 1.7156,0.2917 2.625,0.9375 l -0.75,1.0625 c -0.8768,-0.6223 -1.5532,-0.7453 -1.8438,-0.6563 -0.2081,0.063 -0.3496,0.1678 -0.4687,0.5313 -0.118,0.3635 -0.1455,0.9406 -0.062,1.6562 0.048,0.4149 0.1524,0.8813 0.2812,1.375 0.6434,-0.1259 1.3196,-0.2162 2,-0.2812 1.0166,-1.4388 2.1334,-2.7032 3.2813,-3.5625 0.6526,-0.4885 1.2818,-0.8145 1.875,-0.9688 0.5931,-0.1544 1.1939,-0.1364 1.6875,0.1563 0.4936,0.2926 0.813,0.8107 0.9687,1.4062 0.156,0.5955 0.1649,1.3115 0.062,2.125 l -1.2812,-0.1562 c 0.088,-0.7 0.065,-1.258 -0.031,-1.625 -0.096,-0.3669 -0.2357,-0.542 -0.375,-0.625 -0.1393,-0.083 -0.3588,-0.1253 -0.7187,-0.031 -0.35,0.091 -0.8036,0.3209 -1.3438,0.7188 l -0.062,0.031 c -0.7621,0.5706 -1.5492,1.4315 -2.3125,2.4063 2.7738,-0.053 5.5485,0.3754 7.5,1.2812 0.6885,0.3196 1.2333,0.6946 1.625,1.125 0.3917,0.4305 0.648,0.9488 0.625,1.5 -0.023,0.5513 -0.3003,1.0835 -0.7187,1.5 -0.4183,0.4166 -0.9769,0.7527 -1.6875,1.0625 l -0.5313,-1.1875 c 0.6071,-0.2647 1.0246,-0.5569 1.2813,-0.8125 0.2567,-0.2556 0.3337,-0.4378 0.3437,-0.5937 0.01,-0.1559 -0.023,-0.3448 -0.25,-0.5938 -0.2266,-0.249 -0.6384,-0.5431 -1.2187,-0.8125 -1.8631,-0.8648 -5.0142,-1.261 -7.9688,-1.0937 -0.5251,0.7928 -1.0094,1.6138 -1.4375,2.4687 0.1044,0.2106 0.1984,0.412 0.3125,0.625 l 0,0.031 c 1.1014,2.0511 2.4537,3.7914 3.6875,4.9375 0.6169,0.573 1.1964,0.9868 1.6875,1.2187 0.4912,0.2315 0.8545,0.2505 1.0625,0.1875 0.208,-0.063 0.3497,-0.1677 0.4688,-0.5312 0.119,-0.3635 0.1455,-0.9407 0.062,-1.6563 -0.1665,-1.4312 -0.8049,-3.3864 -1.9063,-5.4375 l 1.1563,-0.625 c 1.1624,2.1646 1.8678,4.2326 2.0625,5.9063 0.097,0.8369 0.052,1.5834 -0.1563,2.2187 -0.2081,0.6353 -0.6642,1.1773 -1.3125,1.375 -0.6484,0.1977 -1.3343,0.064 -2,-0.25 -0.6657,-0.3143 -1.3451,-0.8315 -2.0312,-1.4687 -1.3115,-1.2182 -2.6503,-2.9582 -3.7813,-5 -0.3146,0.7787 -0.5872,1.5618 -0.75,2.2812 -0.1995,0.8838 -0.2425,1.6026 -0.1875,2.125 0.055,0.5223 0.1988,0.8365 0.3438,0.9688 0.145,0.135 0.3217,0.195 0.6875,0.125 0.3658,-0.07 0.9052,-0.3126 1.5312,-0.7813 l 0.7813,1.0313 c -0.7291,0.5459 -1.4088,0.9061 -2.0625,1.0312 -0.6538,0.1251 -1.3149,-0.043 -1.7813,-0.4687 -0.4665,-0.4257 -0.7052,-1.0272 -0.7812,-1.75 -0.076,-0.7228 0,-1.5803 0.2187,-2.5625 0.258,-1.1406 0.6735,-2.3411 1.2188,-3.5313 -0.3024,-0.6518 -0.5379,-1.2926 -0.75,-1.9062 -0.041,0.011 -0.085,0.019 -0.125,0.031 -1.7951,0.5144 -2.7085,1.3075 -2.8438,1.7188 -0.068,0.2057 -0.044,0.3252 0.1563,0.5937 0.2005,0.2685 0.6337,0.6225 1.3125,0.9375 l -0.5313,1.1875 c -0.804,-0.3732 -1.4198,-0.8176 -1.8125,-1.3437 -0.3927,-0.526 -0.541,-1.2127 -0.3437,-1.8125 0.3947,-1.1995 1.7084,-1.9642 3.6875,-2.5313 0.04,-0.011 0.085,-0.02 0.125,-0.031 -0.1321,-0.5198 -0.2585,-1.0349 -0.3125,-1.5 -0.097,-0.8369 -0.052,-1.5835 0.1562,-2.2188 0.2081,-0.6353 0.6641,-1.1773 1.3125,-1.375 0.1167,-0.036 0.2251,-0.079 0.3438,-0.094 z m 0.6875,2.7187 c 0.1536,0.072 0.2846,0.097 0.5,0.25 l 0.3125,0.2188 c -0.089,0.1157 -0.1934,0.1942 -0.2813,0.3125 -0.1694,0.019 -0.331,0.041 -0.5,0.062 -0.01,-0.045 -0.026,-0.1142 -0.031,-0.1563 -0.042,-0.3646 -0.015,-0.4796 0,-0.6875 z m 6.5,0 c 0.016,0.2152 0.049,0.3633 0,0.75 l 0,0.094 c -0.3344,-0.046 -0.6893,-0.032 -1.0313,-0.062 0.1206,-0.1068 0.262,-0.3204 0.375,-0.4063 0.01,-0.01 0.022,-0.024 0.031,-0.031 l 0.062,-0.031 c 0.2744,-0.2021 0.3904,-0.2288 0.5625,-0.3125 z m -6.3438,3.3438 c -0.226,0.032 -0.4685,0.055 -0.6875,0.094 0.075,0.2115 0.163,0.4377 0.25,0.6563 0.1392,-0.2523 0.2896,-0.5033 0.4375,-0.75 z m 3.4688,1.2187 c 0.8284,0 1.5,0.6716 1.5,1.5 0,0.8284 -0.6716,1.5 -1.5,1.5 -0.8284,0 -1.5,-0.6716 -1.5,-1.5 0,-0.8284 0.6716,-1.5 1.5,-1.5 z m 4.9687,0.5938 c 0.2066,0.072 0.5486,0.1084 0.7188,0.1875 0.2475,0.1148 0.2932,0.1811 0.4375,0.2812 -0.1602,0.1141 -0.2564,0.2103 -0.5625,0.3438 l -0.1875,0.094 c -0.1229,-0.2992 -0.2653,-0.6017 -0.4063,-0.9062 z m -11.0625,0.125 c 0.05,0.1252 0.071,0.2473 0.125,0.375 -0.057,0.1342 -0.071,0.2718 -0.125,0.4062 l -0.3437,-0.1562 c -0.2791,-0.1296 -0.2922,-0.1712 -0.4375,-0.2813 0.1652,-0.1071 0.5237,-0.2271 0.7812,-0.3437 z m 8.125,2.4062 c 0.43,1.1091 0.7571,2.1302 0.8438,2.875 0.044,0.3812 0.017,0.5117 0,0.7188 -0.3232,-0.1661 -0.7645,-0.4575 -1.2813,-0.9375 -0.413,-0.3838 -0.8396,-1.18 -1.2812,-1.7188 0.7045,-0.095 1.2923,-0.4023 1.7187,-0.9375 z m -5.5625,2.25 c 0.2109,0.3009 0.4075,0.6256 0.625,0.9063 l -0.094,0.062 c -0.3159,0.2365 -0.4315,0.2579 -0.625,0.3437 -0.017,-0.2995 -0.01,-0.7652 0.094,-1.3125 z"
       id="path2997-9"
       inkscape:connector-curvature="0" />
    <path
       id="path3803"
       d="m -3357.2296,2097.4374 c -0.1187,0.015 -0.2271,0.058 -0.3438,0.094 -0.6484,0.1977 -1.1044,0.7397 -1.3125,1.375 -0.2081,0.6353 -0.2535,1.3819 -0.1562,2.2188 0.054,0.4651 0.1804,0.9802 0.3125,1.5 -0.04,0.011 -0.085,0.02 -0.125,0.031 -1.9791,0.5671 -3.2928,1.3318 -3.6875,2.5313 -0.1973,0.5998 -0.049,1.2865 0.3437,1.8125 0.3927,0.5261 1.0085,0.9705 1.8125,1.3437 l 0.5313,-1.1875 c -0.6788,-0.315 -1.112,-0.669 -1.3125,-0.9375 -0.2005,-0.2685 -0.2239,-0.388 -0.1563,-0.5937 0.1353,-0.4113 1.0487,-1.2044 2.8438,-1.7188 0.04,-0.012 0.084,-0.02 0.125,-0.031 0.2121,0.6136 0.4476,1.2544 0.75,1.9062 -0.5453,1.1902 -0.9608,2.3907 -1.2188,3.5313 -0.2221,0.9822 -0.2947,1.8397 -0.2187,2.5625 0.076,0.7228 0.3147,1.3243 0.7812,1.75 0.4664,0.4258 1.1275,0.5938 1.7813,0.4687 0.6537,-0.1251 1.3334,-0.4853 2.0625,-1.0312 l -0.7813,-1.0313 c -0.626,0.4687 -1.1654,0.7113 -1.5312,0.7813 -0.3658,0.07 -0.5425,0.01 -0.6875,-0.125 -0.145,-0.1323 -0.2889,-0.4465 -0.3438,-0.9688 -0.055,-0.5224 -0.012,-1.2412 0.1875,-2.125 0.1628,-0.7194 0.4354,-1.5025 0.75,-2.2812 1.131,2.0418 2.4698,3.7818 3.7813,5 0.6861,0.6372 1.3655,1.1544 2.0312,1.4687 0.6657,0.3144 1.3516,0.4477 2,0.25 0.6483,-0.1977 1.1044,-0.7397 1.3125,-1.375 0.2081,-0.6353 0.2536,-1.3818 0.1563,-2.2187 -0.1947,-1.6737 -0.9001,-3.7417 -2.0625,-5.9063 l -1.1563,0.625 c 1.1014,2.0511 1.7398,4.0063 1.9063,5.4375 0.083,0.7156 0.057,1.2928 -0.062,1.6563 -0.1191,0.3635 -0.2608,0.4678 -0.4688,0.5312 -0.208,0.063 -0.5713,0.044 -1.0625,-0.1875 -0.4911,-0.2319 -1.0706,-0.6457 -1.6875,-1.2187 -1.2338,-1.1461 -2.5861,-2.8864 -3.6875,-4.9375 l 0,-0.031 c -0.1141,-0.213 -0.2081,-0.4144 -0.3125,-0.625 0.4281,-0.8549 0.9124,-1.6759 1.4375,-2.4687 2.9546,-0.1673 6.1057,0.2289 7.9688,1.0937 0.5803,0.2694 0.9921,0.5635 1.2187,0.8125 0.2266,0.249 0.2565,0.4379 0.25,0.5938 -0.01,0.1559 -0.087,0.3381 -0.3437,0.5937 -0.2567,0.2556 -0.6742,0.5478 -1.2813,0.8125 l 0.5313,1.1875 c 0.7106,-0.3098 1.2692,-0.6459 1.6875,-1.0625 0.4184,-0.4165 0.6956,-0.9487 0.7187,-1.5 0.023,-0.5512 -0.2333,-1.0695 -0.625,-1.5 -0.3917,-0.4304 -0.9365,-0.8054 -1.625,-1.125 -1.9515,-0.9058 -4.7262,-1.3339 -7.5,-1.2812 0.7633,-0.9748 1.5504,-1.8357 2.3125,-2.4063 l 0.062,-0.031 c 0.5402,-0.3979 0.9938,-0.6277 1.3438,-0.7188 0.3599,-0.094 0.5794,-0.052 0.7187,0.031 0.1393,0.083 0.2791,0.2581 0.375,0.625 0.096,0.367 0.1191,0.925 0.031,1.625 l 1.2812,0.1562 c 0.1024,-0.8135 0.094,-1.5295 -0.062,-2.125 -0.1557,-0.5955 -0.4751,-1.1136 -0.9687,-1.4062 -0.4936,-0.2927 -1.0944,-0.3107 -1.6875,-0.1563 -0.5932,0.1543 -1.2224,0.4803 -1.875,0.9688 -1.1479,0.8593 -2.2647,2.1237 -3.2813,3.5625 -0.6804,0.065 -1.3566,0.1553 -2,0.2812 -0.1288,-0.4937 -0.2329,-0.9601 -0.2812,-1.375 -0.083,-0.7156 -0.056,-1.2927 0.062,-1.6562 0.1191,-0.3635 0.2606,-0.4679 0.4687,-0.5313 0.2906,-0.089 0.967,0.034 1.8438,0.6563 l 0.75,-1.0625 c -0.9094,-0.6458 -1.7944,-1.0432 -2.625,-0.9375 z m 0.8437,6.0625 c -0.1479,0.2467 -0.2983,0.4977 -0.4375,0.75 -0.087,-0.2186 -0.1749,-0.4448 -0.25,-0.6563 0.219,-0.039 0.4615,-0.062 0.6875,-0.094 z m 3.4688,1.2187 c -0.8284,0 -1.5,0.6716 -1.5,1.5 0,0.8284 0.6716,1.5 1.5,1.5 0.8284,0 1.5,-0.6716 1.5,-1.5 0,-0.8284 -0.6716,-1.5 -1.5,-1.5 z"
       style="font-size:medium;font-style:normal;font-variant:normal;font-weight:normal;font-stretch:normal;text-indent:0;text-align:start;text-decoration:none;line-height:normal;letter-spacing:normal;word-spacing:normal;text-transform:none;direction:ltr;block-progression:tb;writing-mode:lr-tb;text-anchor:start;baseline-shift:baseline;color:#000000;fill:#434a55;fill-opacity:0.6745098;stroke:none;stroke-width:4.2881875;marker:none;visibility:visible;display:inline;overflow:visible;enable-background:accumulate;font-family:Sans;-inkscape-font-specification:Sans"
       inkscape:connector-curvature="0" />
  </g>
</svg>
