<?xml version="1.0" encoding="UTF-8" standalone="no"?>
<!-- Created with Inkscape (http://www.inkscape.org/) -->

<svg
   xmlns:dc="http://purl.org/dc/elements/1.1/"
   xmlns:cc="http://creativecommons.org/ns#"
   xmlns:rdf="http://www.w3.org/1999/02/22-rdf-syntax-ns#"
   xmlns:svg="http://www.w3.org/2000/svg"
   xmlns="http://www.w3.org/2000/svg"
   xmlns:sodipodi="http://sodipodi.sourceforge.net/DTD/sodipodi-0.dtd"
   xmlns:inkscape="http://www.inkscape.org/namespaces/inkscape"
   width="22"
   height="22"
   id="svg27665"
   version="1.1"
   inkscape:version="0.48.3.1 r9886"
   sodipodi:docname="kdevelop.svg">
  <defs
     id="defs27667" />
  <sodipodi:namedview
     id="base"
     pagecolor="#ffffff"
     bordercolor="#666666"
     borderopacity="1.0"
     inkscape:pageopacity="0.0"
     inkscape:pageshadow="2"
     inkscape:zoom="22.627417"
     inkscape:cx="16.112032"
     inkscape:cy="12.043077"
     inkscape:document-units="px"
     inkscape:current-layer="layer1"
     showgrid="true"
     inkscape:window-width="1920"
     inkscape:window-height="1023"
     inkscape:window-x="-10"
     inkscape:window-y="35"
     inkscape:window-maximized="1"
     inkscape:snap-bbox="true"
     inkscape:bbox-paths="true"
     inkscape:bbox-nodes="true"
     inkscape:snap-bbox-edge-midpoints="true"
     inkscape:snap-bbox-midpoints="true"
     inkscape:object-paths="true"
     inkscape:snap-intersection-paths="true"
     inkscape:object-nodes="true"
     inkscape:snap-smooth-nodes="true"
     inkscape:snap-midpoints="true"
     inkscape:snap-object-midpoints="true"
     inkscape:snap-center="true"
     inkscape:snap-global="true"
     showguides="false"
     inkscape:guide-bbox="true"
     fit-margin-top="0"
     fit-margin-left="0"
     fit-margin-right="0"
     fit-margin-bottom="0"
     inkscape:showpageshadow="false">
    <sodipodi:guide
       orientation="0,1"
       position="599.99999,299.99993"
       id="guide3572" />
    <sodipodi:guide
       orientation="1,0"
       position="294.41949,12.121716"
       id="guide3574" />
    <sodipodi:guide
       orientation="0,1"
       position="456.04389,599.99992"
       id="guide3576" />
    <sodipodi:guide
       orientation="0,1"
       position="-2.8882813e-06,-8.4406273e-05"
       id="guide3578" />
    <sodipodi:guide
       orientation="1,0"
       position="-2.8882813e-06,157.58366"
       id="guide3580" />
    <sodipodi:guide
       orientation="1,0"
       position="599.99999,121.21821"
       id="guide3582" />
    <sodipodi:guide
       orientation="0,1"
       position="599.99999,-714.34359"
       id="guide5928" />
    <sodipodi:guide
       orientation="0,1"
       position="599.99999,-414.34359"
       id="guide5930" />
    <sodipodi:guide
       orientation="0,1"
       position="599.99999,-1014.3435"
       id="guide5932" />
    <sodipodi:guide
       orientation="0,1"
       position="451.57029,524.99606"
       id="guide5294" />
    <sodipodi:guide
       orientation="0,1"
       position="451.57029,75.013516"
       id="guide5296" />
    <sodipodi:guide
       orientation="0,1"
       position="496.01499,-931.36409"
       id="guide5413" />
    <sodipodi:guide
       orientation="0,1"
       position="457.34859,-489.34389"
       id="guide5415" />
    <inkscape:grid
       type="xygrid"
       id="grid3070"
       empspacing="5"
       visible="true"
       enabled="true"
       snapvisiblegridlinesonly="true"
       originx="4.3243213e-05px"
       originy="-2.6947047e-05px" />
  </sodipodi:namedview>
  <metadata
     id="metadata27670">
    <rdf:RDF>
      <cc:Work
         rdf:about="">
        <dc:format>image/svg+xml</dc:format>
        <dc:type
           rdf:resource="http://purl.org/dc/dcmitype/StillImage" />
        <dc:title />
      </cc:Work>
    </rdf:RDF>
  </metadata>
  <g
     inkscape:label="Camada 1"
     inkscape:groupmode="layer"
     id="layer1"
     transform="translate(3364.4171,-2094.7186)">
    <path
       id="path3979"
       d="m -3358.7921,2096.9374 -1.4063,1.4062 2.2813,3.4063 c -0.1935,0.3611 -0.3476,0.7552 -0.4688,1.1562 l -4.0312,0.8125 0,2 4.0312,0.8125 c 0.1207,0.3974 0.2733,0.7923 0.4688,1.1563 l -2.2813,3.4062 1.4063,1.4063 3.4062,-2.2813 c 0.3599,0.1937 0.7509,0.346 1.1563,0.4688 l 0.8125,4.0312 2,0 0.8125,-4.0312 c 0.3974,-0.1207 0.7923,-0.2733 1.1562,-0.4688 l 3.4063,2.2813 1.4062,-1.4063 -2.2812,-3.4062 c 0.2248,-0.4177 0.4031,-0.8654 0.5312,-1.3438 l -1.0625,-1.0625 c -0.1421,1.2458 -0.7393,2.3583 -1.625,3.1563 -0.8856,0.7979 -2.0599,1.2812 -3.3437,1.2812 -1.3807,0 -2.6264,-0.5639 -3.5313,-1.4687 -0.9048,-0.9049 -1.4687,-2.1506 -1.4687,-3.5313 0,-1.2838 0.4833,-2.4581 1.2812,-3.3437 0.798,-0.8857 1.9105,-1.4829 3.1563,-1.625 l -1.0625,-1.0625 c -0.4707,0.1261 -0.9256,0.3072 -1.3438,0.5312 l -3.4062,-2.2812 z m 6.375,3.9687 c -2.1056,0 -3.8125,1.7069 -3.8125,3.8125 0,2.1056 1.7069,3.8125 3.8125,3.8125 2.1056,0 3.8125,-1.7069 3.8125,-3.8125 0,-2.1056 -1.7069,-3.8125 -3.8125,-3.8125 z m -2,1.8125 1,0 0,1 1,0 0,2 -1,0 0,1 -1,0 0,-1 0,-1 0,-1 0,-1 z"
       style="color:#000000;fill:#434a54;fill-opacity:0.6745098;fill-rule:nonzero;stroke:none;stroke-width:2.28571415;marker:none;visibility:visible;display:inline;overflow:visible;enable-background:accumulate"
       inkscape:connector-curvature="0" />
    <path
       style="font-size:medium;font-style:normal;font-variant:normal;font-weight:normal;font-stretch:normal;text-indent:0;text-align:start;text-decoration:none;line-height:normal;letter-spacing:normal;word-spacing:normal;text-transform:none;direction:ltr;block-progression:tb;writing-mode:lr-tb;text-anchor:start;baseline-shift:baseline;color:#000000;fill:#d1d4d6;fill-opacity:0.74329164;fill-rule:nonzero;stroke:none;stroke-width:2;marker:none;visibility:visible;display:inline;overflow:visible;enable-background:accumulate;font-family:Sans;-inkscape-font-specification:Sans"
       d="m -3358.9484,2095.4061 -0.6875,0.6875 -1.4062,1.4063 -0.6875,0.6875 0.5312,0.8125 1.9063,2.8437 -3.375,0.6875 -0.75,0.1875 0,4 0.75,0.1875 3.375,0.6875 -1.9063,2.8438 -0.5312,0.8125 0.6875,0.6875 1.4062,1.4062 0.6875,0.6875 0.8125,-0.5312 2.8438,-1.9063 0.6875,3.375 0.1875,0.75 4,0 0.1875,-0.75 0.6875,-3.375 2.8437,1.9063 0.8125,0.5312 0.6875,-0.6875 1.4063,-1.4062 0.6875,-0.6875 -0.5313,-0.8125 -1.9375,-2.9063 c 0.1195,-0.2917 0.2605,-0.564 0.3438,-0.875 l 0.1875,-0.6562 -0.5,-0.5 -1.0625,-1.0625 -1.0625,-1.0625 c -0.4767,-1.6537 -1.7526,-2.9296 -3.4063,-3.4063 l -1.0625,-1.0625 -1.0625,-1.0625 -0.5,-0.5 -0.6562,0.1875 c -0.3083,0.083 -0.5832,0.2243 -0.875,0.3438 l -2.9063,-1.9375 -0.8125,-0.5313 z m 0.1563,1.5313 3.4062,2.2812 c 0.4182,-0.224 0.8731,-0.4051 1.3438,-0.5312 l 1.0625,1.0625 c -1.2458,0.1421 -2.3583,0.7393 -3.1563,1.625 -0.7979,0.8856 -1.2812,2.0599 -1.2812,3.3437 0,1.3807 0.5639,2.6264 1.4687,3.5313 0.9049,0.9048 2.1506,1.4687 3.5313,1.4687 1.2838,0 2.4581,-0.4833 3.3437,-1.2812 0.8857,-0.798 1.4829,-1.9105 1.625,-3.1563 l 1.0625,1.0625 c -0.1281,0.4784 -0.3064,0.9261 -0.5312,1.3438 l 2.2812,3.4062 -1.4062,1.4063 -3.4063,-2.2813 c -0.3639,0.1955 -0.7588,0.3481 -1.1562,0.4688 l -0.8125,4.0312 -2,0 -0.8125,-4.0312 c -0.4054,-0.1228 -0.7964,-0.2751 -1.1563,-0.4688 l -3.4062,2.2813 -1.4063,-1.4063 2.2813,-3.4062 c -0.1955,-0.364 -0.3481,-0.7589 -0.4688,-1.1563 l -4.0312,-0.8125 0,-2 4.0312,-0.8125 c 0.1212,-0.401 0.2753,-0.7951 0.4688,-1.1562 l -2.2813,-3.4063 1.4063,-1.4062 z m 6.375,3.9687 c 2.1056,0 3.8125,1.7069 3.8125,3.8125 0,2.1056 -1.7069,3.8125 -3.8125,3.8125 -2.1056,0 -3.8125,-1.7069 -3.8125,-3.8125 0,-2.1056 1.7069,-3.8125 3.8125,-3.8125 z m -2,1.8125 0,1 0,1 0,1 0,1 1,0 0,-1 1,0 0,-2 -1,0 0,-1 -1,0 z"
       id="path3944"
       inkscape:connector-curvature="0" />
  </g>
</svg>
