<?xml version="1.0" encoding="UTF-8" standalone="no"?>
<!-- Created with Inkscape (http://www.inkscape.org/) -->

<svg
   xmlns:dc="http://purl.org/dc/elements/1.1/"
   xmlns:cc="http://creativecommons.org/ns#"
   xmlns:rdf="http://www.w3.org/1999/02/22-rdf-syntax-ns#"
   xmlns:svg="http://www.w3.org/2000/svg"
   xmlns="http://www.w3.org/2000/svg"
   xmlns:sodipodi="http://sodipodi.sourceforge.net/DTD/sodipodi-0.dtd"
   xmlns:inkscape="http://www.inkscape.org/namespaces/inkscape"
   version="1.1"
   width="22"
   height="22"
   id="svg13094"
   inkscape:version="0.48.4 r9939"
   sodipodi:docname="application-x-bytecode.svg">
  <sodipodi:namedview
     pagecolor="#ffffff"
     bordercolor="#666666"
     borderopacity="1"
     objecttolerance="10"
     gridtolerance="10"
     guidetolerance="10"
     inkscape:pageopacity="0"
     inkscape:pageshadow="2"
     inkscape:window-width="1366"
     inkscape:window-height="707"
     id="namedview68"
     showgrid="true"
     inkscape:zoom="20.85965"
     inkscape:cx="14.718081"
     inkscape:cy="11.995173"
     inkscape:window-x="-5"
     inkscape:window-y="26"
     inkscape:window-maximized="1"
     inkscape:current-layer="svg13094"
     inkscape:snap-bbox="true"
     inkscape:bbox-paths="true"
     inkscape:bbox-nodes="true"
     inkscape:snap-bbox-edge-midpoints="true"
     inkscape:snap-bbox-midpoints="true"
     inkscape:object-paths="true"
     inkscape:snap-intersection-paths="true"
     inkscape:object-nodes="true"
     inkscape:snap-smooth-nodes="true"
     inkscape:snap-midpoints="true"
     inkscape:snap-object-midpoints="true"
     inkscape:snap-center="true"
     inkscape:snap-global="true"
     fit-margin-top="0"
     fit-margin-left="0"
     fit-margin-right="0"
     fit-margin-bottom="0">
    <inkscape:grid
       type="xygrid"
       id="grid3142"
       empspacing="5"
       visible="true"
       enabled="true"
       snapvisiblegridlinesonly="true"
       originx="-4.0000003px"
       originy="-23px" />
  </sodipodi:namedview>
  <defs
     id="defs11" />
  <metadata
     id="metadata13099">
    <rdf:RDF>
      <cc:Work
         rdf:about="">
        <dc:format>image/svg+xml</dc:format>
        <dc:type
           rdf:resource="http://purl.org/dc/dcmitype/StillImage" />
        <dc:title />
      </cc:Work>
    </rdf:RDF>
  </metadata>
  <path
     style="color:#000000;fill:#434a54;fill-opacity:0.6745098;fill-rule:nonzero;stroke:none;stroke-width:1;marker:none;visibility:visible;display:inline;overflow:visible;enable-background:accumulate"
     d="m 3,3 0,4 0,4 0,4 0,4 1,0 3,0 4,0 4,0 4,0 0,-4 0,-4 0,-4 0,-3 0,-1 -1,0 -3,0 -4,0 -4,0 -4,0 z m 4,1 4,0 0,3 4,0 0,-3 3,0 0,3 -3,0 0,4 3,0 0,4 -3,0 0,3 -4,0 0,-3 -4,0 0,3 -3,0 0,-3 3,0 0,-4 -3,0 0,-4 3,0 0,-3 z m 0,3 0,4 4,0 0,-4 -4,0 z m 4,4 0,4 4,0 0,-4 -4,0 z"
     id="path3164"
     inkscape:connector-curvature="0" />
  <path
     style="color:#000000;fill:#8a929e;fill-opacity:0.60931899;fill-rule:nonzero;stroke:none;stroke-width:1;marker:none;visibility:visible;display:inline;overflow:visible;enable-background:accumulate"
     d="m 7,4 0,3 4,0 0,-3 -4,0 z m 4,3 0,4 4,0 0,-4 -4,0 z m 4,0 3,0 0,-3 -3,0 0,3 z m 0,4 0,4 3,0 0,-4 -3,0 z m 0,4 -4,0 0,3 4,0 0,-3 z m -4,0 0,-4 -4,0 0,4 4,0 z m -4,0 -3,0 0,3 3,0 0,-3 z m 0,-4 0,-4 -3,0 0,4 3,0 z"
     id="rect3001"
     inkscape:connector-curvature="0" />
</svg>
