<?xml version="1.0" encoding="UTF-8" standalone="no"?>
<!-- Created with Inkscape (http://www.inkscape.org/) -->
<svg xmlns:dc="http://purl.org/dc/elements/1.1/" xmlns:cc="http://creativecommons.org/ns#" xmlns:rdf="http://www.w3.org/1999/02/22-rdf-syntax-ns#" xmlns:svg="http://www.w3.org/2000/svg" xmlns="http://www.w3.org/2000/svg" xmlns:sodipodi="http://sodipodi.sourceforge.net/DTD/sodipodi-0.dtd" xmlns:inkscape="http://www.inkscape.org/namespaces/inkscape" version="1.1" width="18" height="18" id="svg13094" inkscape:version="0.48.4 r9939" sodipodi:docname="applications-development.svg">
  <sodipodi:namedview pagecolor="#ffffff" bordercolor="#666666" borderopacity="1" objecttolerance="10" gridtolerance="10" guidetolerance="10" inkscape:pageopacity="0" inkscape:pageshadow="2" inkscape:window-width="1920" inkscape:window-height="1016" id="namedview68" showgrid="true" inkscape:zoom="45.254834" inkscape:cx="8.8441927" inkscape:cy="7.910049" inkscape:window-x="-5" inkscape:window-y="27" inkscape:window-maximized="1" inkscape:current-layer="svg13094" inkscape:snap-bbox="true" inkscape:bbox-paths="true" inkscape:bbox-nodes="true" inkscape:snap-bbox-edge-midpoints="true" inkscape:snap-bbox-midpoints="true" inkscape:object-paths="true" inkscape:snap-intersection-paths="true" inkscape:object-nodes="true" inkscape:snap-smooth-nodes="true" inkscape:snap-midpoints="true" inkscape:snap-object-midpoints="true" inkscape:snap-center="true" inkscape:snap-global="false" fit-margin-top="0" fit-margin-left="0" fit-margin-right="0" fit-margin-bottom="0">
    <inkscape:grid type="xygrid" id="grid3142" empspacing="5" visible="true" enabled="true" snapvisiblegridlinesonly="true" originx="-4.0000003px" originy="-23px"/>
  </sodipodi:namedview>
  <defs id="defs11"/>
  <metadata id="metadata13099">
    <rdf:RDF>
      <cc:Work rdf:about="">
        <dc:format>image/svg+xml</dc:format>
        <dc:type rdf:resource="http://purl.org/dc/dcmitype/StillImage"/>
        <dc:title/>
      </cc:Work>
    </rdf:RDF>
  </metadata>
  <path style="color:#000000;fill:#27303a;fill-opacity:0.753280819999999968;fill-rule:nonzero;stroke:none;stroke-width:1;marker:none;visibility:visible;display:inline;overflow:visible;enable-background:accumulate" d="M 7.1875 1.75 C 6.0040191 1.7445905 4.7302916 2.0222269 3.75 2.75 C 5.7500003 2.75 8 3 8 4 L 8 6 L 7 7 L 5.5 7 L 1 11.5 L 1 13 L 2 14 L 3.5 14 L 8 9.5 L 8 8 L 9 7 L 12 7 L 12 8.5 L 12.5 9 L 15 6.5 L 14.5 6 L 13 6 L 12.40625 4.03125 L 10.03125 2.4375 C 9.4703188 2.0533067 8.3709809 1.7554095 7.1875 1.75 z " id="path3001" transform="translate(1,1)"/>
  <path style="font-size:medium;font-style:normal;font-variant:normal;font-weight:normal;font-stretch:normal;text-indent:0;text-align:start;text-decoration:none;line-height:normal;letter-spacing:normal;word-spacing:normal;text-transform:none;direction:ltr;block-progression:tb;writing-mode:lr-tb;text-anchor:start;baseline-shift:baseline;color:#000000;fill:#f1f3f5;fill-opacity:0.90288714000000003;fill-rule:nonzero;stroke:none;stroke-width:2;marker:none;visibility:visible;display:inline;overflow:visible;enable-background:accumulate;font-family:Sans;-inkscape-font-specification:Sans" d="M 6.0625 0.75 C 5.123357 0.84203675 4.2491394 1.1795494 3.03125 1.78125 L 2.71875 3.5625 L 4.3125 3.03125 C 5.3054255 3.0727363 6.6365481 3.5503173 7 4 L 7.03125 6.375 L 3.8125 7 L 3.65625 7.15625 L 0.15625 10.65625 L 0 10.8125 L 0 13.6875 L 0.15625 13.84375 L 1.15625 14.84375 L 1.3125 15 L 4.1875 15 L 4.34375 14.84375 L 7.84375 11.34375 L 8 11.1875 L 8.75 8 L 11.75 7.25 L 11 9.1875 L 11.15625 9.34375 L 11.65625 9.84375 L 12.5 9.9375 L 13.34375 9.84375 L 15.84375 7.34375 L 15.9375 6.5 L 15.84375 5.65625 L 15.34375 5.15625 L 15 4.8125 L 14.5 4.8125 L 13.03125 5.03125 L 13.5625 3.6875 L 13.46875 3.40625 L 13.25 3.1875 L 10.875 1.5625 L 10.78125 1.5 L 10.71875 1.4375 C 9.8324147 0.79775018 8.405298 0.8347676 7.03125 0.75 C 6.687738 0.728808 6.3755477 0.71932108 6.0625 0.75 z M 6.90625 1.78125 C 8.166312 1.797364 9.2581087 1.8707585 10 2.40625 L 12.40625 4.03125 L 13 6 L 14.5 6 L 15 6.5 L 12.5 9 L 12 8.5 L 12 7 L 9 7 L 8 8 L 8 9.5 L 3.5 14 L 2 14 L 1 13 L 1 11.5 L 5.5 7 L 7 7 L 8 6 L 8 4 C 8 3 5.75 2.75 3.75 2.75 C 4.6015486 2.1325825 5.491081 1.8884088 6.375 1.8125 C 6.55915 1.796686 6.726241 1.778948 6.90625 1.78125 z " id="path3003" transform="translate(1,1)"/>
</svg>
