<?xml version="1.0" encoding="UTF-8" standalone="no"?>
<!-- Created with Inkscape (http://www.inkscape.org/) -->
<svg xmlns:dc="http://purl.org/dc/elements/1.1/" xmlns:cc="http://creativecommons.org/ns#" xmlns:rdf="http://www.w3.org/1999/02/22-rdf-syntax-ns#" xmlns:svg="http://www.w3.org/2000/svg" xmlns="http://www.w3.org/2000/svg" xmlns:sodipodi="http://sodipodi.sourceforge.net/DTD/sodipodi-0.dtd" xmlns:inkscape="http://www.inkscape.org/namespaces/inkscape" width="18" height="18" id="svg13094" version="1.1" inkscape:version="0.48.4 r9939" sodipodi:docname="ubuntustudio-publishing.svg">
  <sodipodi:namedview id="base" pagecolor="#ffffff" bordercolor="#666666" borderopacity="1.0" inkscape:pageopacity="0.0" inkscape:pageshadow="2" inkscape:zoom="32" inkscape:cx="9.1304791" inkscape:cy="7.091091" inkscape:document-units="px" inkscape:current-layer="layer1" showgrid="true" inkscape:snap-bbox="true" inkscape:bbox-paths="true" inkscape:bbox-nodes="true" inkscape:snap-bbox-edge-midpoints="true" inkscape:snap-bbox-midpoints="true" inkscape:object-paths="true" inkscape:snap-intersection-paths="true" inkscape:object-nodes="true" inkscape:snap-smooth-nodes="true" inkscape:snap-midpoints="true" inkscape:snap-object-midpoints="true" inkscape:snap-center="true" showguides="false" inkscape:guide-bbox="true" inkscape:window-width="1920" inkscape:window-height="1022" inkscape:window-x="-5" inkscape:window-y="23" inkscape:window-maximized="1" inkscape:snap-global="true" fit-margin-top="0" fit-margin-left="0" fit-margin-right="0" fit-margin-bottom="0" showborder="true" inkscape:showpageshadow="false">
    <sodipodi:guide orientation="0,1" position="-25.000005,930.61286" id="guide4700"/>
    <sodipodi:guide orientation="0,1" position="576.71887,328.89388" id="guide4702"/>
    <sodipodi:guide orientation="1,0" position="576.71899,489.70395" id="guide4706"/>
    <sodipodi:guide orientation="1,0" position="54.999996,930.61286" id="guide4708"/>
    <sodipodi:guide orientation="0,1" position="-25.000005,850.61296" id="guide4710"/>
    <sodipodi:guide orientation="0,1" position="536.71887,408.8938" id="guide4712"/>
    <sodipodi:guide orientation="1,0" position="496.71887,408.8938" id="guide4714"/>
    <inkscape:grid type="xygrid" id="grid3216" empspacing="5" visible="true" enabled="true" snapvisiblegridlinesonly="true" originx="-24.999951px" originy="-219.00005px"/>
    <sodipodi:guide orientation="-0.70710664,0.70710692" position="4.0000502,-246.00005" id="guide3847"/>
    <sodipodi:guide orientation="0.70710594,0.70710762" position="5.0000502,-245.00005" id="guide3849"/>
    <sodipodi:guide orientation="-0.70710681,0.70710676" position="7.0000502,-212.00005" id="guide3851"/>
  </sodipodi:namedview>
  <defs id="defs13096"/>
  <metadata id="metadata13099">
    <rdf:RDF>
      <cc:Work rdf:about="">
        <dc:format>image/svg+xml</dc:format>
        <dc:type rdf:resource="http://purl.org/dc/dcmitype/StillImage"/>
        <dc:title/>
      </cc:Work>
    </rdf:RDF>
  </metadata>
  <g transform="translate(9379.308,-4843.1988)" id="layer1" inkscape:groupmode="layer" inkscape:label="Camada 1">
    <path style="color:#000000;fill:#27303a;fill-opacity:0.75328081999999996;fill-rule:nonzero;stroke:none;stroke-width:1;marker:none;visibility:visible;display:inline;overflow:visible;enable-background:accumulate" d="M 5 1 C 4 3 3 5 1 7 C 2 8 3 10 3 12 L 3 15 L 7 15 L 7 12 C 7 10 8 8 9 7 C 7 5 6 3 5 1 z M 8 1 L 8 2 L 14 2 L 14 14 L 10 14 L 10 15 L 15 15 L 15 1 L 8 1 z M 4 5 L 5 5 L 6 5 L 6 8 L 5 8 L 4 8 L 4 5 z M 4 13 L 6 13 L 6 14 L 4 14 L 4 13 z " transform="translate(-9378.308,4844.1988)" id="path3927"/>
    <path style="font-size:medium;font-style:normal;font-variant:normal;font-weight:normal;font-stretch:normal;text-indent:0;text-align:start;text-decoration:none;line-height:normal;letter-spacing:normal;word-spacing:normal;text-transform:none;direction:ltr;block-progression:tb;writing-mode:lr-tb;text-anchor:start;baseline-shift:baseline;color:#000000;fill:#f1f3f5;fill-opacity:0.90288714000000003;fill-rule:nonzero;stroke:none;stroke-width:2;marker:none;visibility:visible;display:inline;overflow:visible;enable-background:accumulate;font-family:Sans;-inkscape-font-specification:Sans" d="M 5 -1.25 L 4.09375 0.5625 C 3.09375 2.5625 2.16345 4.39915 0.28125 6.28125 L -0.40625 7 L 0.28125 7.71875 C 1.04555 8.48305 2 10.3333 2 12 L 2 16 L 3 16 L 3 12 C 2.9999755 10 2 8 1 7 C 3 5 4 3 5 1 C 6 3 7 5 9 7 C 8 8 7 10 7 12 L 7 16 L 8 16 L 8 12 C 8 10.3333 8.95455 8.48305 9.71875 7.71875 L 10.40625 7 L 9.71875 6.28125 C 7.83665 4.39915 6.90625 2.5625 5.90625 0.5625 L 5 -1.25 z M 9 0 L 9 1 L 15 1 L 15 15 L 10 15 L 10 16 L 16 16 L 16 0 L 9 0 z M 4 5 L 4 8 L 6 8 L 6 5 L 4 5 z M 4 13 L 4 14 L 6 14 L 6 13 L 4 13 z " transform="translate(-9378.308,4844.1988)" id="path3896"/>
    <g id="g3876"/>
  </g>
</svg>
