<?xml version="1.0" encoding="UTF-8" standalone="no"?>
<!-- Created with Inkscape (http://www.inkscape.org/) -->

<svg
   xmlns:dc="http://purl.org/dc/elements/1.1/"
   xmlns:cc="http://creativecommons.org/ns#"
   xmlns:rdf="http://www.w3.org/1999/02/22-rdf-syntax-ns#"
   xmlns:svg="http://www.w3.org/2000/svg"
   xmlns="http://www.w3.org/2000/svg"
   xmlns:sodipodi="http://sodipodi.sourceforge.net/DTD/sodipodi-0.dtd"
   xmlns:inkscape="http://www.inkscape.org/namespaces/inkscape"
   width="16"
   height="16"
   id="svg13094"
   version="1.1"
   inkscape:version="0.48.4 r9939"
   sodipodi:docname="goa-account-live.svg">
  <sodipodi:namedview
     id="base"
     pagecolor="#ffffff"
     bordercolor="#666666"
     borderopacity="1.0"
     inkscape:pageopacity="0.0"
     inkscape:pageshadow="2"
     inkscape:zoom="32"
     inkscape:cx="12.748879"
     inkscape:cy="7.8984371"
     inkscape:document-units="px"
     inkscape:current-layer="layer1"
     showgrid="true"
     inkscape:snap-bbox="true"
     inkscape:bbox-paths="true"
     inkscape:bbox-nodes="true"
     inkscape:snap-bbox-edge-midpoints="true"
     inkscape:snap-bbox-midpoints="true"
     inkscape:object-paths="true"
     inkscape:snap-intersection-paths="true"
     inkscape:object-nodes="true"
     inkscape:snap-smooth-nodes="true"
     inkscape:snap-midpoints="true"
     inkscape:snap-object-midpoints="true"
     inkscape:snap-center="true"
     showguides="false"
     inkscape:guide-bbox="true"
     inkscape:window-width="1920"
     inkscape:window-height="1025"
     inkscape:window-x="-2"
     inkscape:window-y="32"
     inkscape:window-maximized="1"
     inkscape:snap-global="true"
     fit-margin-top="0"
     fit-margin-left="0"
     fit-margin-right="0"
     fit-margin-bottom="0"
     showborder="true"
     inkscape:showpageshadow="false">
    <sodipodi:guide
       orientation="0,1"
       position="-20.000165,933.61275"
       id="guide4700" />
    <sodipodi:guide
       orientation="0,1"
       position="581.7187,331.89377"
       id="guide4702" />
    <sodipodi:guide
       orientation="1,0"
       position="581.71882,492.70384"
       id="guide4706" />
    <sodipodi:guide
       orientation="1,0"
       position="59.999836,933.61275"
       id="guide4708" />
    <sodipodi:guide
       orientation="0,1"
       position="-20.000165,853.61285"
       id="guide4710" />
    <sodipodi:guide
       orientation="0,1"
       position="541.7187,411.89369"
       id="guide4712" />
    <sodipodi:guide
       orientation="1,0"
       position="501.7187,411.89369"
       id="guide4714" />
    <inkscape:grid
       type="xygrid"
       id="grid3216"
       empspacing="5"
       visible="true"
       enabled="true"
       snapvisiblegridlinesonly="true"
       originx="-20.000111px"
       originy="-216.00016px" />
    <sodipodi:guide
       orientation="-0.70710664,0.70710692"
       position="8.9998902,-243.00016"
       id="guide3847" />
    <sodipodi:guide
       orientation="0.70710594,0.70710762"
       position="9.9998902,-242.00016"
       id="guide3849" />
    <sodipodi:guide
       orientation="-0.70710681,0.70710676"
       position="11.99989,-209.00016"
       id="guide3851" />
  </sodipodi:namedview>
  <defs
     id="defs13096" />
  <metadata
     id="metadata13099">
    <rdf:RDF>
      <cc:Work
         rdf:about="">
        <dc:format>image/svg+xml</dc:format>
        <dc:type
           rdf:resource="http://purl.org/dc/dcmitype/StillImage" />
        <dc:title />
      </cc:Work>
    </rdf:RDF>
  </metadata>
  <g
     transform="translate(9384.3076,-4846.1987)"
     id="layer1"
     inkscape:groupmode="layer"
     inkscape:label="Camada 1">
    <path
       id="path2998"
       d="m -9383.3077,4848.1989 c 0,6 2.25,9 4.2188,12.0313 0.7812,-1.0313 2.2071,-2.0369 2.7812,-3.0313 0.5741,0.9944 2,2 2.75,3.0313 2,-3.0313 4.25,-6.0313 4.25,-12.0313 -3,0 -4,1 -5.9999,3.9998 l -0.5001,-1.9998 -1,0 -0.4687,1.9998 c -2.0313,-2.9998 -3.0313,-3.9998 -6.0313,-3.9998 z"
       style="fill:#27303a;fill-opacity:0.753280819999999968;stroke:none"
       inkscape:connector-curvature="0"
       sodipodi:nodetypes="cccccccccc" />
    <path
       style="font-size:medium;font-style:normal;font-variant:normal;font-weight:normal;font-stretch:normal;text-indent:0;text-align:start;text-decoration:none;line-height:normal;letter-spacing:normal;word-spacing:normal;text-transform:none;direction:ltr;block-progression:tb;writing-mode:lr-tb;text-anchor:start;baseline-shift:baseline;color:#000000;fill:#f1f3f5;fill-opacity:0.90288714000000003;fill-rule:nonzero;stroke:none;stroke-width:2;marker:none;visibility:visible;display:inline;overflow:visible;enable-background:accumulate;font-family:Sans;-inkscape-font-specification:Sans"
       d="M -0.09375 0.90625 L -0.09375 2 C -0.09375 8.275 2.3716 11.66795 4.3125 14.65625 L 5.15625 15.96875 L 6.09375 14.71875 C 6.50865 14.17115 7.29715 13.4837 8.03125 12.6875 C 8.21955 12.8813 8.3736 13.1299 8.5625 13.3125 C 9.0932 13.8255 9.595 14.3025 9.875 14.6875 L 10.8125 15.96875 L 11.6875 14.65625 C 13.6624 11.66295 16.09385 8.275 16.09375 2 L 16.09375 0.90625 L 15 0.90625 C 13.3778 0.90615 12.0847 1.2253 11 2 C 10.463 2.3836 10.0208 3.1297 9.5625 3.6875 L 9.375 2.90625 L 8.5 2.90625 L 7.5 2.90625 L 6.625 2.90625 L 6.46875 3.65625 C 6.01135 3.10725 5.56365 2.3786 5.03125 2 C 3.94405 1.227 2.6222 0.90615 1 0.90625 L -0.09375 0.90625 z M 1 2 C 4 2 4.99995 3.0002 7.03125 6 L 7.5 4 L 8.5 4 L 9 6 C 10.9999 3.0002 12 2 15 2 C 15 8 12.75 10.99995 10.75 14.03125 C 10 12.99995 8.5741 11.9944 8 11 C 7.4259 11.9944 5.99995 12.99995 5.21875 14.03125 C 3.24995 10.99995 1 8 1 2 z "
       transform="translate(-9384.3076,4846.1987)"
       id="path2997" />
  </g>
</svg>
