<?xml version="1.0" encoding="UTF-8" standalone="no"?>
<!-- Created with Inkscape (http://www.inkscape.org/) -->

<svg
   xmlns:dc="http://purl.org/dc/elements/1.1/"
   xmlns:cc="http://creativecommons.org/ns#"
   xmlns:rdf="http://www.w3.org/1999/02/22-rdf-syntax-ns#"
   xmlns:svg="http://www.w3.org/2000/svg"
   xmlns="http://www.w3.org/2000/svg"
   xmlns:sodipodi="http://sodipodi.sourceforge.net/DTD/sodipodi-0.dtd"
   xmlns:inkscape="http://www.inkscape.org/namespaces/inkscape"
   width="16"
   height="16"
   id="svg27665"
   version="1.1"
   inkscape:version="0.48.3.1 r9886"
   sodipodi:docname="keepassx.svg"
   inkscape:export-filename="keepassx.png"
   inkscape:export-xdpi="90"
   inkscape:export-ydpi="90">
  <defs
     id="defs27667" />
  <sodipodi:namedview
     id="base"
     pagecolor="#ffffff"
     bordercolor="#666666"
     borderopacity="1.0"
     inkscape:pageopacity="0.0"
     inkscape:pageshadow="2"
     inkscape:zoom="32"
     inkscape:cx="0.896089"
     inkscape:cy="8.8114102"
     inkscape:document-units="px"
     inkscape:current-layer="layer1"
     showgrid="true"
     inkscape:window-width="1920"
     inkscape:window-height="1033"
     inkscape:window-x="-10"
     inkscape:window-y="25"
     inkscape:window-maximized="1"
     inkscape:snap-bbox="true"
     inkscape:bbox-paths="true"
     inkscape:bbox-nodes="true"
     inkscape:snap-bbox-edge-midpoints="true"
     inkscape:snap-bbox-midpoints="true"
     inkscape:object-paths="true"
     inkscape:snap-intersection-paths="true"
     inkscape:object-nodes="true"
     inkscape:snap-smooth-nodes="true"
     inkscape:snap-midpoints="true"
     inkscape:snap-object-midpoints="true"
     inkscape:snap-center="true"
     inkscape:snap-global="true"
     showguides="false"
     inkscape:guide-bbox="true"
     fit-margin-top="0"
     fit-margin-left="0"
     fit-margin-right="0"
     fit-margin-bottom="0"
     inkscape:showpageshadow="false">
    <sodipodi:guide
       orientation="0,1"
       position="599.99999,299.99993"
       id="guide3572" />
    <sodipodi:guide
       orientation="1,0"
       position="294.41949,12.121716"
       id="guide3574" />
    <sodipodi:guide
       orientation="0,1"
       position="456.04389,599.99992"
       id="guide3576" />
    <sodipodi:guide
       orientation="0,1"
       position="-2.8882813e-06,-8.4406273e-05"
       id="guide3578" />
    <sodipodi:guide
       orientation="1,0"
       position="-2.8882813e-06,157.58366"
       id="guide3580" />
    <sodipodi:guide
       orientation="1,0"
       position="599.99999,121.21821"
       id="guide3582" />
    <sodipodi:guide
       orientation="0,1"
       position="599.99999,-714.34359"
       id="guide5928" />
    <sodipodi:guide
       orientation="0,1"
       position="599.99999,-414.34359"
       id="guide5930" />
    <sodipodi:guide
       orientation="0,1"
       position="599.99999,-1014.3435"
       id="guide5932" />
    <sodipodi:guide
       orientation="0,1"
       position="451.57029,524.99606"
       id="guide5294" />
    <sodipodi:guide
       orientation="0,1"
       position="451.57029,75.013516"
       id="guide5296" />
    <sodipodi:guide
       orientation="0,1"
       position="496.01499,-931.36409"
       id="guide5413" />
    <sodipodi:guide
       orientation="0,1"
       position="457.34859,-489.34389"
       id="guide5415" />
    <inkscape:grid
       type="xygrid"
       id="grid3070"
       empspacing="5"
       visible="true"
       enabled="true"
       snapvisiblegridlinesonly="true"
       originx="4.3243213e-05px"
       originy="-2.6947047e-05px" />
  </sodipodi:namedview>
  <metadata
     id="metadata27670">
    <rdf:RDF>
      <cc:Work
         rdf:about="">
        <dc:format>image/svg+xml</dc:format>
        <dc:type
           rdf:resource="http://purl.org/dc/dcmitype/StillImage" />
        <dc:title />
      </cc:Work>
    </rdf:RDF>
  </metadata>
  <g
     inkscape:label="Camada 1"
     inkscape:groupmode="layer"
     id="layer1"
     transform="translate(3364.4171,-2100.7186)">
    <path
       sodipodi:nodetypes="ssccccccccccccccccccssssssss"
       inkscape:connector-curvature="0"
       id="path2997"
       d="m -3352.9171,2101.7186 c -1.933,0 -3.5,1.567 -3.5,3.5 0,0.5291 0.1544,1.0087 0.3646,1.4583 l -1.3646,1.6042 -4.5625,-4.5625 -1.4375,0 0,1.4375 4.5625,4.5625 -4.5625,4.5625 0,1.4375 1.4375,0 1,-1 2.5625,0 0,-2.5625 1,-1 4.5625,4.5625 1.4375,0 0,-1.4375 -4.5625,-4.5625 1.6042,-1.3646 c 0.4496,0.2102 0.9292,0.3646 1.4583,0.3646 1.933,0 3.5,-1.567 3.5,-3.5 0,-1.933 -1.567,-3.5 -3.5,-3.5 z m 1,1 c 0.8284,0 1.5,0.6716 1.5,1.5 0,0.8284 -0.6716,1.5 -1.5,1.5 -0.8284,0 -1.5,-0.6716 -1.5,-1.5 0,-0.8284 0.6716,-1.5 1.5,-1.5 z"
       style="font-size:medium;font-style:normal;font-variant:normal;font-weight:normal;font-stretch:normal;text-indent:0;text-align:start;text-decoration:none;line-height:normal;letter-spacing:normal;word-spacing:normal;text-transform:none;direction:ltr;block-progression:tb;writing-mode:lr-tb;text-anchor:start;baseline-shift:baseline;color:#000000;fill:#434a54;fill-opacity:0.6745098;fill-rule:nonzero;stroke:none;stroke-width:2.28571415;marker:none;visibility:visible;display:inline;overflow:visible;enable-background:accumulate;font-family:Sans;-inkscape-font-specification:Sans" />
    <path
       style="font-size:medium;font-style:normal;font-variant:normal;font-weight:normal;font-stretch:normal;text-indent:0;text-align:start;text-decoration:none;line-height:normal;letter-spacing:normal;word-spacing:normal;text-transform:none;direction:ltr;block-progression:tb;writing-mode:lr-tb;text-anchor:start;baseline-shift:baseline;color:#000000;fill:#d1d4d6;fill-opacity:0.74329164000000003;fill-rule:nonzero;stroke:none;stroke-width:2;marker:none;visibility:visible;display:inline;overflow:visible;enable-background:accumulate;font-family:Sans;-inkscape-font-specification:Sans"
       d="M 11.5 -0.1875 C 8.9185 -0.1875 6.8125 1.9185 6.8125 4.5 C 6.8125 4.9342 6.9531 5.2596 7.0625 5.625 L 6.9375 5.8125 L 3.28125 2.15625 L 3.125 2 L -0.1875 2 L -0.1875 3 L -0.1875 4.4375 L -0.1875 4.9375 L 0.15625 5.28125 L 3.875 9 L 0.15625 12.71875 L -0.1875 13.0625 L -0.1875 13.5625 L -0.1875 15 L -0.1875 16.1875 L 1 16.1875 L 2.4375 16.1875 L 2.9375 16.1875 L 3.28125 15.84375 L 3.9375 15.1875 L 6 15.1875 L 7 15.1875 L 7 13 L 7.1875 13 L 7.1875 12.3125 L 7.875 13 L 8 13 L 8 13.125 L 10.71875 15.84375 L 11.0625 16.1875 L 11.5625 16.1875 L 13 16.1875 L 14.1875 16.1875 L 14.1875 16 L 14 16 L 14 13 L 14.125 13 L 13.84375 12.71875 L 10.1875 9.0625 L 10.375 8.9375 C 10.7404 9.0469 11.0658 9.1875 11.5 9.1875 C 14.0815 9.1875 16.1875 7.0815 16.1875 4.5 C 16.1875 1.9185 14.0815 -0.1875 11.5 -0.1875 z M 11.5 1 C 13.433 1 15 2.567 15 4.5 C 15 6.433 13.433 8 11.5 8 C 10.9709 8 10.48085 7.8352 10.03125 7.625 L 8.4375 9 L 13 13.5625 L 13 15 L 11.5625 15 L 7 10.4375 L 6 11.4375 L 6 14 L 3.4375 14 L 2.4375 15 L 1 15 L 1 13.5625 L 5.5625 9 L 1 4.4375 L 1 3 L 2.4375 3 L 7 7.5625 L 8.375 5.96875 C 8.1648 5.51915 8 5.0291 8 4.5 C 8 2.567 9.567 1 11.5 1 z M 12.5 2 C 11.6716 2 11 2.6716 11 3.5 C 11 4.3284 11.6716 5 12.5 5 C 13.3284 5 14 4.3284 14 3.5 C 14 2.6716 13.3284 2 12.5 2 z M 12.5 3.1875 C 12.6799 3.1875 12.8125 3.3201 12.8125 3.5 C 12.8125 3.6799 12.6799 3.8125 12.5 3.8125 C 12.3201 3.8125 12.1875 3.6799 12.1875 3.5 C 12.1875 3.3201 12.3201 3.1875 12.5 3.1875 z "
       transform="translate(-3364.4171,2100.7186)"
       id="path3014" />
  </g>
</svg>
