<?xml version="1.0" encoding="UTF-8" standalone="no"?>
<!-- Created with Inkscape (http://www.inkscape.org/) -->

<svg
   xmlns:dc="http://purl.org/dc/elements/1.1/"
   xmlns:cc="http://creativecommons.org/ns#"
   xmlns:rdf="http://www.w3.org/1999/02/22-rdf-syntax-ns#"
   xmlns:svg="http://www.w3.org/2000/svg"
   xmlns="http://www.w3.org/2000/svg"
   xmlns:sodipodi="http://sodipodi.sourceforge.net/DTD/sodipodi-0.dtd"
   xmlns:inkscape="http://www.inkscape.org/namespaces/inkscape"
   width="16.000031"
   height="16.000029"
   id="svg27665"
   version="1.1"
   inkscape:version="0.48.3.1 r9886"
   sodipodi:docname="mugshot.svg">
  <defs
     id="defs27667" />
  <sodipodi:namedview
     id="base"
     pagecolor="#ffffff"
     bordercolor="#666666"
     borderopacity="1.0"
     inkscape:pageopacity="0.0"
     inkscape:pageshadow="2"
     inkscape:zoom="44.8"
     inkscape:cx="8.3172916"
     inkscape:cy="7.5467505"
     inkscape:document-units="px"
     inkscape:current-layer="layer1"
     showgrid="true"
     inkscape:window-width="1920"
     inkscape:window-height="1033"
     inkscape:window-x="-10"
     inkscape:window-y="25"
     inkscape:window-maximized="1"
     inkscape:snap-bbox="true"
     inkscape:bbox-paths="true"
     inkscape:bbox-nodes="true"
     inkscape:snap-bbox-edge-midpoints="true"
     inkscape:snap-bbox-midpoints="true"
     inkscape:object-paths="true"
     inkscape:snap-intersection-paths="true"
     inkscape:object-nodes="true"
     inkscape:snap-smooth-nodes="true"
     inkscape:snap-midpoints="true"
     inkscape:snap-object-midpoints="true"
     inkscape:snap-center="true"
     inkscape:snap-global="true"
     showguides="false"
     inkscape:guide-bbox="true"
     fit-margin-top="0"
     fit-margin-left="0"
     fit-margin-right="0"
     fit-margin-bottom="0"
     inkscape:showpageshadow="false">
    <sodipodi:guide
       orientation="0,1"
       position="-1494.2276,523.03618"
       id="guide4179" />
    <sodipodi:guide
       orientation="1,0"
       position="-1492.0847,520.17904"
       id="guide4181" />
    <inkscape:grid
       type="xygrid"
       id="grid4279"
       empspacing="5"
       visible="true"
       enabled="true"
       snapvisiblegridlinesonly="true"
       originx="6.6056504e-05px"
       originy="592.00001px" />
  </sodipodi:namedview>
  <metadata
     id="metadata27670">
    <rdf:RDF>
      <cc:Work
         rdf:about="">
        <dc:format>image/svg+xml</dc:format>
        <dc:type
           rdf:resource="http://purl.org/dc/dcmitype/StillImage" />
        <dc:title />
      </cc:Work>
    </rdf:RDF>
  </metadata>
  <g
     inkscape:label="Camada 1"
     inkscape:groupmode="layer"
     id="layer1"
     transform="translate(3393.2465,-1650.2411)">
    <path
       id="path2992"
       d="m -3386.2465,1651.2411 c -2.7819,0 -3.3749,2.0409 -3.3125,3.25 l 0.094,1.0313 c -0.7782,0.01 -0.4014,2.1028 0.1563,2.0312 0.2455,0.8888 0.7004,1.4509 1.1875,1.875 0.1039,0.6889 0.066,1.1727 0.031,1.7813 -1.2607,0.8366 -3.0488,1.2108 -4.1562,1.5312 l 0,1.625 c 1.1688,0.5959 3.2917,1 6,1 4.1958,0 7,-0.9202 7,-2.125 0,-0.5257 -3.2549,-0.7693 -5.1563,-2.0312 -0.034,-0.6086 -0.073,-1.0925 0.031,-1.7813 0.487,-0.4241 0.9419,-0.9862 1.1875,-1.875 0.5577,0.072 0.9345,-2.0212 0.1562,-2.0312 l 0.094,-1.0313 c 0.062,-1.2091 -0.5306,-3.25 -3.3125,-3.25 z"
       style="color:#000000;fill:#434a55;fill-opacity:0.6745119;fill-rule:nonzero;stroke:none;stroke-width:1;marker:none;visibility:visible;display:inline;overflow:visible;enable-background:accumulate"
       inkscape:connector-curvature="0" />
    <path
       style="font-size:medium;font-style:normal;font-variant:normal;font-weight:normal;font-stretch:normal;text-indent:0;text-align:start;text-decoration:none;line-height:normal;letter-spacing:normal;word-spacing:normal;text-transform:none;direction:ltr;block-progression:tb;writing-mode:lr-tb;text-anchor:start;baseline-shift:baseline;color:#000000;fill:#d1d4d6;fill-opacity:0.74329164000000003;fill-rule:nonzero;stroke:none;stroke-width:2;marker:none;visibility:visible;display:inline;overflow:visible;enable-background:accumulate;font-family:Sans;-inkscape-font-specification:Sans"
       d="M 7 -0.1875 C 5.3156 -0.1875 4.0179 0.51305 3.3125 1.46875 C 2.6071 2.42435 2.4569 3.4778 2.5 4.3125 L 2.5 4.34375 L 2.53125 4.78125 C 2.42825 4.93435 2.2973 5.07675 2.25 5.21875 C 2.0941 5.68715 2.10675 6.08355 2.15625 6.46875 C 2.20625 6.85385 2.2968 7.22115 2.5 7.59375 C 2.6016 7.77995 2.72955 7.9935 2.96875 8.1875 C 2.98275 8.1985 3.01625 8.20775 3.03125 8.21875 C 3.27945 8.79835 3.5891 9.27925 3.9375 9.65625 C 3.9525 9.82005 3.97075 10.00235 3.96875 10.15625 C 2.99125 10.65155 1.68995 11.04465 0.65625 11.34375 L -0.1875 11.59375 L -0.1875 12.5 L -0.1875 14.125 L -0.1875 14.875 L 0.46875 15.1875 C 1.96585 15.9507 4.1723 16.3125 7 16.3125 C 9.1856 16.3125 11.0337 16.09225 12.4375 15.65625 C 13.1394 15.43815 13.71445 15.17385 14.21875 14.78125 C 14.72315 14.38855 15.1875 13.7667 15.1875 13 C 15.1875 12.3151 14.7405 11.9667 14.5 11.8125 C 14.2595 11.6583 14.05455 11.5733 13.84375 11.5 C 13.42235 11.3534 12.9537 11.23335 12.4375 11.09375 C 12.342329 11.068003 12.251405 11.027961 12.15625 11 L 11 11 L 11 10.59375 C 10.665468 10.46172 10.327557 10.337551 10.03125 10.1875 C 10.03125 10.0232 10.0465 9.83005 10.0625 9.65625 C 10.4109 9.27935 10.72065 8.79825 10.96875 8.21875 C 10.97775 8.21215 10.985888 8.193596 11 8.1875 L 11 1.96875 C 10.908573 1.7970338 10.811049 1.6361448 10.6875 1.46875 C 9.9822 0.51305 8.6844 -0.1875 7 -0.1875 z M 7 1 C 9.7819 1 10.3745 3.0409 10.3125 4.25 L 10.21875 5.28125 C 10.99705 5.29125 10.6202 7.3845 10.0625 7.3125 C 9.8169 8.2013 9.362 8.7634 8.875 9.1875 C 8.771 9.8763 8.80975 10.36015 8.84375 10.96875 C 10.74515 12.23065 14 12.4743 14 13 C 14 14.2048 11.1958 15.125 7 15.125 C 4.2917 15.125 2.1688 14.7209 1 14.125 L 1 12.5 C 2.1074 12.1796 3.89555 11.80535 5.15625 10.96875 C 5.19125 10.36015 5.2289 9.8764 5.125 9.1875 C 4.6379 8.7634 4.183 8.2013 3.9375 7.3125 C 3.3798 7.3841 3.00305 5.29125 3.78125 5.28125 L 3.6875 4.25 C 3.6251 3.0409 4.2181 1 7 1 z "
       transform="translate(-3393.2465,1650.2411)"
       id="rect2991" />
    <path
       id="path3775"
       d="m -3380.2465,1651.2411 0,2 2,0 0,-2 -2,0 z m 0,3 0,5 2,0 0,-5 -2,0 z"
       style="color:#000000;fill:#434a55;fill-opacity:0.6745119;fill-rule:nonzero;stroke:none;stroke-width:1;marker:none;visibility:visible;display:inline;overflow:visible;enable-background:accumulate"
       inkscape:connector-curvature="0" />
    <path
       style="color:#000000;fill:#d1d4d6;fill-opacity:0.74329164;fill-rule:nonzero;stroke:none;stroke-width:2;marker:none;visibility:visible;display:inline;overflow:visible;enable-background:accumulate"
       d="M 12 0 L 12 10 L 16 10 L 16 0 L 12 0 z M 13 1 L 15 1 L 15 3 L 13 3 L 13 1 z M 13 4 L 15 4 L 15 9 L 13 9 L 13 4 z "
       transform="translate(-3393.2465,1650.2411)"
       id="rect3777" />
  </g>
</svg>
