<?xml version="1.0" encoding="UTF-8" standalone="no"?>
<!-- Created with Inkscape (http://www.inkscape.org/) -->

<svg
   xmlns:dc="http://purl.org/dc/elements/1.1/"
   xmlns:cc="http://creativecommons.org/ns#"
   xmlns:rdf="http://www.w3.org/1999/02/22-rdf-syntax-ns#"
   xmlns:svg="http://www.w3.org/2000/svg"
   xmlns="http://www.w3.org/2000/svg"
   xmlns:sodipodi="http://sodipodi.sourceforge.net/DTD/sodipodi-0.dtd"
   xmlns:inkscape="http://www.inkscape.org/namespaces/inkscape"
   width="16.000031"
   height="16.000029"
   id="svg27665"
   version="1.1"
   inkscape:version="0.91+devel r"
   sodipodi:docname="urserver.svg">
  <defs
     id="defs27667" />
  <sodipodi:namedview
     id="base"
     pagecolor="#ffffff"
     bordercolor="#666666"
     borderopacity="1.0"
     inkscape:pageopacity="0.0"
     inkscape:pageshadow="2"
     inkscape:zoom="15.839192"
     inkscape:cx="-4.1503243"
     inkscape:cy="5.5604061"
     inkscape:document-units="px"
     inkscape:current-layer="layer1"
     showgrid="false"
     inkscape:window-width="1920"
     inkscape:window-height="1033"
     inkscape:window-x="-10"
     inkscape:window-y="25"
     inkscape:window-maximized="1"
     inkscape:snap-bbox="true"
     inkscape:bbox-paths="true"
     inkscape:bbox-nodes="true"
     inkscape:snap-bbox-edge-midpoints="true"
     inkscape:snap-bbox-midpoints="true"
     inkscape:object-paths="true"
     inkscape:snap-intersection-paths="true"
     inkscape:object-nodes="true"
     inkscape:snap-smooth-nodes="true"
     inkscape:snap-midpoints="true"
     inkscape:snap-object-midpoints="true"
     inkscape:snap-center="true"
     inkscape:snap-global="true"
     showguides="false"
     inkscape:guide-bbox="true"
     fit-margin-top="0"
     fit-margin-left="0"
     fit-margin-right="0"
     fit-margin-bottom="0"
     inkscape:showpageshadow="false"
     inkscape:snap-nodes="true">
    <sodipodi:guide
       orientation="0,1"
       position="-1494.2276,523.03618"
       id="guide4179" />
    <sodipodi:guide
       orientation="1,0"
       position="-1492.0847,520.17904"
       id="guide4181" />
    <inkscape:grid
       type="xygrid"
       id="grid4279"
       empspacing="5"
       visible="true"
       enabled="true"
       snapvisiblegridlinesonly="true"
       originx="6.6056504e-05px"
       originy="592.00001px" />
  </sodipodi:namedview>
  <metadata
     id="metadata27670">
    <rdf:RDF>
      <cc:Work
         rdf:about="">
        <dc:format>image/svg+xml</dc:format>
        <dc:type
           rdf:resource="http://purl.org/dc/dcmitype/StillImage" />
        <dc:title></dc:title>
      </cc:Work>
    </rdf:RDF>
  </metadata>
  <g
     inkscape:label="Camada 1"
     inkscape:groupmode="layer"
     id="layer1"
     transform="translate(3393.2465,-1650.2411)">
    <path
       id="path4196"
       d="m -3383.0063,1651.2411 a 12.99997,12.99997 0 0 1 4.7598,4.7676 l 0,-3.7246 a 14.49997,14.49997 0 0 0 -1.0449,-1.043 l -3.7149,0 z m -6.2402,0.5 a 10.49997,10.49997 0 0 0 -3,0.4414 l 0,1.918 a 8.9999704,8.9999704 0 0 1 2.5,-0.3594 8.9999704,8.9999704 0 0 1 9,9 8.9999704,8.9999704 0 0 1 -0.3613,2.5 l 1.916,0 a 10.49997,10.49997 0 0 0 0.4453,-3 10.49997,10.49997 0 0 0 -10.5,-10.5 z m -0.25,4.25 a 6.4999704,6.4999704 0 0 0 -2.75,0.6191 l 0,1.918 a 5,5 0 0 1 2.25,-0.5371 5,5 0 0 1 5,5 5,5 0 0 1 -0.541,2.25 l 1.9238,0 a 6.4999704,6.4999704 0 0 0 0.6172,-2.75 6.4999704,6.4999704 0 0 0 -6.5,-6.5 z m -0.25,4.25 a 2.4999521,2.4999521 0 0 0 -2.5,2.5 2.4999521,2.4999521 0 0 0 2.5,2.5 2.4999521,2.4999521 0 0 0 2.5,-2.5 2.4999521,2.4999521 0 0 0 -2.5,-2.5 z"
       style="color:#000000;display:inline;overflow:visible;visibility:visible;opacity:1;fill:#27303a;fill-opacity:0.753280819999999968;fill-rule:nonzero;stroke:none;stroke-width:1;stroke-linecap:butt;stroke-linejoin:miter;stroke-miterlimit:4;stroke-dasharray:none;stroke-dashoffset:0;stroke-opacity:1;marker:none;enable-background:accumulate"
       inkscape:connector-curvature="0" />
    <path
       style="color:#000000;font-style:normal;font-variant:normal;font-weight:normal;font-stretch:normal;font-size:medium;line-height:normal;font-family:sans-serif;text-indent:0;text-align:start;text-decoration:none;text-decoration-line:none;text-decoration-style:solid;text-decoration-color:#000000;letter-spacing:normal;word-spacing:normal;text-transform:none;direction:ltr;block-progression:tb;writing-mode:lr-tb;baseline-shift:baseline;text-anchor:start;white-space:normal;shape-padding:0;clip-rule:nonzero;display:inline;overflow:visible;visibility:visible;opacity:1;isolation:auto;mix-blend-mode:normal;color-interpolation:sRGB;color-interpolation-filters:linearRGB;solid-color:#000000;solid-opacity:1;fill:#f1f3f5;fill-opacity:0.90288714000000003;fill-rule:nonzero;stroke:none;stroke-width:2;stroke-linecap:butt;stroke-linejoin:miter;stroke-miterlimit:4;stroke-dasharray:none;stroke-dashoffset:0;stroke-opacity:1;marker:none;color-rendering:auto;image-rendering:auto;shape-rendering:auto;text-rendering:auto;enable-background:accumulate"
       d="m 13.000066,1.861023e-5 -2,0 L 13.955078,1 C 14.188306,1.078925 14.921118,1.8097265 15,2.0429688 l 1.000066,2.9570498 0,-2 c 0,-1.9836741 -1.028695,-2.99999998977 -3,-2.99999998977 z M 3.9980469,0.40039062 c -1.1225,0 -2.9979808,0.59962798 -3.997980843496,1.59962798 L 1,1.9414062 C 1.9733748,1.6498896 2.98391,1.5012041 4,1.5 9.7989967,1.4999834 14.500017,6.2010033 14.5,12 c -0.0025,1.016281 -0.207095,2.026839 -0.499934,3.000019 l 0,1 c 1,-1 1.596843,-2.875366 1.599543,-3.998066 C 15.599609,5.6084531 10.3935,0.40234375 4,0.40234375 Z M 3.7460938,4.6503906 C 2.070987,4.7147851 1.0000661,5.0000186 6.6056504e-5,6.0000186 l 1.000000043496,0 C 2.3348198,5.7435124 2.79908,5.7527377 3.75,5.75 c 3.5898576,-1.63e-5 6.500016,2.9101424 6.5,6.5 -0.0021,0.950774 -0.03561,1.524844 -0.249934,2.750019 l 0.16009,1.462872 c 0.83991,-1.462872 1.175683,-2.909053 1.189453,-4.210938 C 11.349609,8.0676531 7.9343,4.6523438 3.75,4.6523438 Z M 3.5,8.9003906 c -1.9752,0 -3.59960937,1.6244094 -3.59960937,3.5996094 0,1.9752 1.62440937,3.599609 3.59960937,3.599609 1.9752,0 3.5996094,-1.624409 3.5996094,-3.599609 C 7.0996094,10.5248 5.4752,8.9003906 3.5,8.9003906 Z M 3.5,10 C 4.8807228,9.9999735 6.0000265,11.119277 6,12.5 6.0000265,13.880723 4.8807228,15.000026 3.5,15 2.1192772,15.000026 0.99997354,13.880723 1,12.5 0.99997354,11.119277 2.1192772,9.9999735 3.5,10 Z"
       transform="translate(-3393.2465,1650.2411)"
       id="circle4184"
       inkscape:connector-curvature="0"
       sodipodi:nodetypes="cczzcccccccccccccccccccccccsssssccccc" />
    <circle
       r="2.4999521"
       cy="1661.9377"
       cx="-3418.1223"
       id="circle4169"
       style="color:#000000;display:inline;overflow:visible;visibility:visible;opacity:1;fill:#27303a;fill-opacity:0.753280819999999968;fill-rule:nonzero;stroke:none;stroke-width:1.24997604;stroke-linecap:butt;stroke-linejoin:miter;stroke-miterlimit:4;stroke-dasharray:none;stroke-dashoffset:0;stroke-opacity:1;marker:none;enable-background:accumulate" />
    <path
       style="color:#000000;display:inline;overflow:visible;visibility:visible;opacity:1;fill:#27303a;fill-opacity:0.753280819999999968;fill-rule:nonzero;stroke:none;stroke-width:1.24997604;stroke-linecap:butt;stroke-linejoin:miter;stroke-miterlimit:4;stroke-dasharray:none;stroke-dashoffset:0;stroke-opacity:1;marker:none;enable-background:accumulate"
       d="m -3417.8726,1655.1878 a 6.4999704,6.4999704 0 0 0 -6.5,6.5 6.4999704,6.4999704 0 0 0 6.5,6.5 6.4999704,6.4999704 0 0 0 6.5,-6.5 6.4999704,6.4999704 0 0 0 -6.5,-6.5 z m -0.5,2 a 5,5 0 0 1 5,5 5,5 0 0 1 -5,5 5,5 0 0 1 -5,-5 5,5 0 0 1 5,-5 z"
       id="circle4173"
       inkscape:connector-curvature="0" />
    <path
       style="color:#000000;display:inline;overflow:visible;visibility:visible;opacity:1;fill:#27303a;fill-opacity:0.753280819999999968;fill-rule:nonzero;stroke:none;stroke-width:1.24997604;stroke-linecap:butt;stroke-linejoin:miter;stroke-miterlimit:4;stroke-dasharray:none;stroke-dashoffset:0;stroke-opacity:1;marker:none;enable-background:accumulate"
       d="m -3417.6226,1650.9378 a 10.49997,10.49997 0 0 0 -10.5,10.5 10.49997,10.49997 0 0 0 10.5,10.5 10.49997,10.49997 0 0 0 10.5,-10.5 10.49997,10.49997 0 0 0 -10.5,-10.5 z m -0.5,2 a 8.9999704,8.9999704 0 0 1 9,9 8.9999704,8.9999704 0 0 1 -9,9 8.9999704,8.9999704 0 0 1 -9,-9 8.9999704,8.9999704 0 0 1 9,-9 z"
       id="circle4177"
       inkscape:connector-curvature="0" />
    <path
       style="color:#000000;display:inline;overflow:visible;visibility:visible;opacity:1;fill:#27303a;fill-opacity:0.753280819999999968;fill-rule:nonzero;stroke:none;stroke-width:1.24997604;stroke-linecap:butt;stroke-linejoin:miter;stroke-miterlimit:4;stroke-dasharray:none;stroke-dashoffset:0;stroke-opacity:1;marker:none;enable-background:accumulate"
       d="m -3417.3726,1646.6878 a 14.49997,14.49997 0 0 0 -14.5,14.5 14.49997,14.49997 0 0 0 14.5,14.5 14.49997,14.49997 0 0 0 14.5,-14.5 14.49997,14.49997 0 0 0 -14.5,-14.5 z m -0.5,2 a 12.99997,12.99997 0 0 1 13,13 12.99997,12.99997 0 0 1 -13,13 12.99997,12.99997 0 0 1 -13,-13 12.99997,12.99997 0 0 1 13,-13 z"
       id="path4153"
       inkscape:connector-curvature="0" />
  </g>
</svg>
