<?xml version="1.0" encoding="UTF-8" standalone="no"?>
<!-- Created with Inkscape (http://www.inkscape.org/) -->

<svg
   xmlns:dc="http://purl.org/dc/elements/1.1/"
   xmlns:cc="http://creativecommons.org/ns#"
   xmlns:rdf="http://www.w3.org/1999/02/22-rdf-syntax-ns#"
   xmlns:svg="http://www.w3.org/2000/svg"
   xmlns="http://www.w3.org/2000/svg"
   xmlns:sodipodi="http://sodipodi.sourceforge.net/DTD/sodipodi-0.dtd"
   xmlns:inkscape="http://www.inkscape.org/namespaces/inkscape"
   width="16"
   height="16"
   id="svg27665"
   version="1.1"
   inkscape:version="0.48.3.1 r9886"
   sodipodi:docname="kdevelop.svg">
  <defs
     id="defs27667" />
  <sodipodi:namedview
     id="base"
     pagecolor="#ffffff"
     bordercolor="#666666"
     borderopacity="1.0"
     inkscape:pageopacity="0.0"
     inkscape:pageshadow="2"
     inkscape:zoom="32"
     inkscape:cx="0.92179244"
     inkscape:cy="9.0640504"
     inkscape:document-units="px"
     inkscape:current-layer="layer1"
     showgrid="true"
     inkscape:window-width="1920"
     inkscape:window-height="1023"
     inkscape:window-x="-10"
     inkscape:window-y="35"
     inkscape:window-maximized="1"
     inkscape:snap-bbox="true"
     inkscape:bbox-paths="true"
     inkscape:bbox-nodes="true"
     inkscape:snap-bbox-edge-midpoints="true"
     inkscape:snap-bbox-midpoints="true"
     inkscape:object-paths="true"
     inkscape:snap-intersection-paths="true"
     inkscape:object-nodes="true"
     inkscape:snap-smooth-nodes="true"
     inkscape:snap-midpoints="true"
     inkscape:snap-object-midpoints="true"
     inkscape:snap-center="true"
     inkscape:snap-global="true"
     showguides="false"
     inkscape:guide-bbox="true"
     fit-margin-top="0"
     fit-margin-left="0"
     fit-margin-right="0"
     fit-margin-bottom="0"
     inkscape:showpageshadow="false">
    <sodipodi:guide
       orientation="0,1"
       position="599.99999,299.99993"
       id="guide3572" />
    <sodipodi:guide
       orientation="1,0"
       position="294.41949,12.121716"
       id="guide3574" />
    <sodipodi:guide
       orientation="0,1"
       position="456.04389,599.99992"
       id="guide3576" />
    <sodipodi:guide
       orientation="0,1"
       position="-2.8882813e-06,-8.4406273e-05"
       id="guide3578" />
    <sodipodi:guide
       orientation="1,0"
       position="-2.8882813e-06,157.58366"
       id="guide3580" />
    <sodipodi:guide
       orientation="1,0"
       position="599.99999,121.21821"
       id="guide3582" />
    <sodipodi:guide
       orientation="0,1"
       position="599.99999,-714.34359"
       id="guide5928" />
    <sodipodi:guide
       orientation="0,1"
       position="599.99999,-414.34359"
       id="guide5930" />
    <sodipodi:guide
       orientation="0,1"
       position="599.99999,-1014.3435"
       id="guide5932" />
    <sodipodi:guide
       orientation="0,1"
       position="451.57029,524.99606"
       id="guide5294" />
    <sodipodi:guide
       orientation="0,1"
       position="451.57029,75.013516"
       id="guide5296" />
    <sodipodi:guide
       orientation="0,1"
       position="496.01499,-931.36409"
       id="guide5413" />
    <sodipodi:guide
       orientation="0,1"
       position="457.34859,-489.34389"
       id="guide5415" />
    <inkscape:grid
       type="xygrid"
       id="grid3070"
       empspacing="5"
       visible="true"
       enabled="true"
       snapvisiblegridlinesonly="true"
       originx="4.3243213e-05px"
       originy="-2.6947047e-05px" />
  </sodipodi:namedview>
  <metadata
     id="metadata27670">
    <rdf:RDF>
      <cc:Work
         rdf:about="">
        <dc:format>image/svg+xml</dc:format>
        <dc:type
           rdf:resource="http://purl.org/dc/dcmitype/StillImage" />
        <dc:title />
      </cc:Work>
    </rdf:RDF>
  </metadata>
  <g
     inkscape:label="Camada 1"
     inkscape:groupmode="layer"
     id="layer1"
     transform="translate(3364.4171,-2100.7186)">
    <path
       id="path3943"
       d="m -3360.3546,2101.3436 -1.4375,1.4375 1.7812,2.9688 c -0.018,0.043 -0.045,0.082 -0.062,0.125 l -3.3437,0.8437 0,2 3.375,0.8438 c 0.013,0.031 0.018,0.063 0.031,0.094 l -1.7812,3 1.4375,1.4375 2.9375,-1.7812 c 0.054,0.024 0.1008,0.041 0.1562,0.062 l 0.8438,3.3437 2,0 0.8437,-3.375 c 0.031,-0.013 0.063,-0.018 0.094,-0.031 l 3,1.7812 1.4375,-1.4375 -1.7813,-2.9375 c 0.101,-0.2304 0.183,-0.4687 0.25,-0.7187 l -0.875,-0.875 c -0.102,1.0089 -0.5735,1.9162 -1.2812,2.5625 -0.7077,0.6462 -1.6517,1.0312 -2.6875,1.0312 -1.0315,0 -1.9781,-0.3901 -2.6875,-1.0312 -0.1005,-0.091 -0.1904,-0.1808 -0.2813,-0.2813 -0.6411,-0.7094 -1.0312,-1.656 -1.0312,-2.6875 0,-1.0358 0.385,-1.9798 1.0312,-2.6875 0.6463,-0.7077 1.5536,-1.1792 2.5625,-1.2812 l -0.875,-0.875 c -0.2386,0.064 -0.4637,0.1526 -0.6875,0.25 l -2.9687,-1.7813 z m 4.9375,3.375 c -1.6569,0 -3,1.3431 -3,3 0,1.6569 1.3431,3 3,3 1.6569,0 3,-1.3431 3,-3 0,-1.6569 -1.3431,-3 -3,-3 z m -1,2 2,1 -2,1 0,-2 z"
       style="color:#000000;fill:#434a54;fill-opacity:0.6745098;fill-rule:nonzero;stroke:none;stroke-width:2.28571415;marker:none;visibility:visible;display:inline;overflow:visible;enable-background:accumulate"
       inkscape:connector-curvature="0" />
    <path
       style="font-size:medium;font-style:normal;font-variant:normal;font-weight:normal;font-stretch:normal;text-indent:0;text-align:start;text-decoration:none;line-height:normal;letter-spacing:normal;word-spacing:normal;text-transform:none;direction:ltr;block-progression:tb;writing-mode:lr-tb;text-anchor:start;baseline-shift:baseline;color:#000000;fill:#d1d4d6;fill-opacity:0.74329164000000003;fill-rule:nonzero;stroke:none;stroke-width:2;marker:none;visibility:visible;display:inline;overflow:visible;enable-background:accumulate;font-family:Sans;-inkscape-font-specification:Sans"
       d="M 3.875 -0.875 L 3.21875 -0.21875 L 1.78125 1.21875 L 1.125 1.875 L 1.59375 2.6875 L 2.59375 4.375 L 0.71875 4.84375 L 0 5.03125 L 0 8.96875 L 0.71875 9.15625 L 2.59375 9.625 L 1.59375 11.3125 L 1.125 12.125 L 1.78125 12.78125 L 3.21875 14.21875 L 3.875 14.875 L 4.6875 14.40625 L 6.375 13.375 L 6.84375 15.28125 L 7.03125 16 L 10.96875 16 L 11.15625 15.28125 L 11.625 13.40625 L 13.3125 14.40625 L 14.125 14.875 L 14.78125 14.21875 L 16.21875 12.78125 L 16.875 12.125 L 16.40625 11.3125 L 14.90625 8.84375 C 14.93325 8.75775 14.977 8.68065 15 8.59375 L 15.1875 7.9375 L 14.6875 7.4375 L 13.8125 6.5625 L 12.9375 5.6875 C 12.5175 4.4478 11.5522 3.4825 10.3125 3.0625 L 9.4375 2.1875 L 8.5625 1.3125 L 8.0625 0.8125 L 7.40625 1 C 7.32025 1.023 7.2675 1.06775 7.1875 1.09375 L 4.6875 -0.40625 L 3.875 -0.875 z M 4.0625 0.625 L 7.03125 2.40625 C 7.25505 2.30885 7.48015 2.22025 7.71875 2.15625 L 8.59375 3.03125 C 7.58485 3.13325 6.67755 3.6048 6.03125 4.3125 C 5.38505 5.0202 5 5.9642 5 7 C 5 8.0315 5.39015 8.9781 6.03125 9.6875 C 6.12215 9.788 6.212 9.87775 6.3125 9.96875 C 7.0219 10.60985 7.9685 11 9 11 C 10.0358 11 10.9798 10.61495 11.6875 9.96875 C 12.3952 9.32245 12.86675 8.41515 12.96875 7.40625 L 13.84375 8.28125 C 13.77675 8.53125 13.69475 8.7696 13.59375 9 L 15.375 11.9375 L 13.9375 13.375 L 10.9375 11.59375 C 10.9065 11.60675 10.87475 11.612 10.84375 11.625 L 10 15 L 8 15 L 7.15625 11.65625 C 7.10085 11.63525 7.054 11.61775 7 11.59375 L 4.0625 13.375 L 2.625 11.9375 L 4.40625 8.9375 C 4.39325 8.9065 4.388 8.87475 4.375 8.84375 L 1 8 L 1 6 L 4.34375 5.15625 C 4.36075 5.11325 4.38825 5.07425 4.40625 5.03125 L 2.625 2.0625 L 4.0625 0.625 z M 9 4 C 10.6569 4 12 5.3431 12 7 C 12 8.6569 10.6569 10 9 10 C 7.3431 10 6 8.6569 6 7 C 6 5.3431 7.3431 4 9 4 z M 8 6 L 8 8 L 10 7 L 8 6 z "
       transform="translate(-3364.4171,2100.7186)"
       id="path3085" />
  </g>
</svg>
