<?xml version="1.0" encoding="UTF-8" standalone="no"?>
<!-- Created with Inkscape (http://www.inkscape.org/) -->

<svg
   xmlns:dc="http://purl.org/dc/elements/1.1/"
   xmlns:cc="http://creativecommons.org/ns#"
   xmlns:rdf="http://www.w3.org/1999/02/22-rdf-syntax-ns#"
   xmlns:svg="http://www.w3.org/2000/svg"
   xmlns="http://www.w3.org/2000/svg"
   xmlns:sodipodi="http://sodipodi.sourceforge.net/DTD/sodipodi-0.dtd"
   xmlns:inkscape="http://www.inkscape.org/namespaces/inkscape"
   width="16"
   height="16"
   id="svg13094"
   version="1.1"
   inkscape:version="0.48.3.1 r9886"
   sodipodi:docname="preferences-desktop-theme.svg">
  <sodipodi:namedview
     id="base"
     pagecolor="#ffffff"
     bordercolor="#666666"
     borderopacity="1.0"
     inkscape:pageopacity="0.0"
     inkscape:pageshadow="2"
     inkscape:zoom="45.254834"
     inkscape:cx="5.8434404"
     inkscape:cy="7.6796429"
     inkscape:document-units="px"
     inkscape:current-layer="layer1"
     showgrid="true"
     inkscape:snap-bbox="true"
     inkscape:bbox-paths="true"
     inkscape:bbox-nodes="true"
     inkscape:snap-bbox-edge-midpoints="true"
     inkscape:snap-bbox-midpoints="true"
     inkscape:object-paths="true"
     inkscape:snap-intersection-paths="true"
     inkscape:object-nodes="true"
     inkscape:snap-smooth-nodes="true"
     inkscape:snap-midpoints="true"
     inkscape:snap-object-midpoints="true"
     inkscape:snap-center="true"
     showguides="false"
     inkscape:guide-bbox="true"
     inkscape:window-width="1920"
     inkscape:window-height="1027"
     inkscape:window-x="-10"
     inkscape:window-y="31"
     inkscape:window-maximized="1"
     inkscape:snap-global="true"
     fit-margin-top="0"
     fit-margin-left="0"
     fit-margin-right="0"
     fit-margin-bottom="0"
     showborder="true"
     inkscape:showpageshadow="false">
    <sodipodi:guide
       orientation="0,1"
       position="-20.000165,933.61275"
       id="guide4700" />
    <sodipodi:guide
       orientation="0,1"
       position="581.7187,331.89377"
       id="guide4702" />
    <sodipodi:guide
       orientation="1,0"
       position="581.71882,492.70384"
       id="guide4706" />
    <sodipodi:guide
       orientation="1,0"
       position="59.999836,933.61275"
       id="guide4708" />
    <sodipodi:guide
       orientation="0,1"
       position="-20.000165,853.61285"
       id="guide4710" />
    <sodipodi:guide
       orientation="0,1"
       position="541.7187,411.89369"
       id="guide4712" />
    <sodipodi:guide
       orientation="1,0"
       position="501.7187,411.89369"
       id="guide4714" />
    <inkscape:grid
       type="xygrid"
       id="grid3216"
       empspacing="5"
       visible="true"
       enabled="true"
       snapvisiblegridlinesonly="true"
       originx="-20.000111px"
       originy="-216.00016px" />
    <sodipodi:guide
       orientation="-0.70710664,0.70710692"
       position="8.9998902,-243.00016"
       id="guide3847" />
    <sodipodi:guide
       orientation="0.70710594,0.70710762"
       position="9.9998902,-242.00016"
       id="guide3849" />
    <sodipodi:guide
       orientation="-0.70710681,0.70710676"
       position="11.99989,-209.00016"
       id="guide3851" />
  </sodipodi:namedview>
  <defs
     id="defs13096" />
  <metadata
     id="metadata13099">
    <rdf:RDF>
      <cc:Work
         rdf:about="">
        <dc:format>image/svg+xml</dc:format>
        <dc:type
           rdf:resource="http://purl.org/dc/dcmitype/StillImage" />
        <dc:title />
      </cc:Work>
    </rdf:RDF>
  </metadata>
  <g
     transform="translate(9384.3076,-4846.1987)"
     id="layer1"
     inkscape:groupmode="layer"
     inkscape:label="Camada 1">
    <path
       style="color:#000000;fill:#434a55;fill-opacity:0.67450980000000005;fill-rule:nonzero;stroke:none;stroke-width:2;marker:none;visibility:visible;display:inline;overflow:visible;enable-background:accumulate"
       d="M 7 1.09375 C 3.9382 1.53395 1.53395 3.9382 1.09375 7 L 7 7 L 7 1.09375 z M 9 1.09375 L 9 2 L 10 2 L 10 1.3125 C 9.6780494 1.2169882 9.3399499 1.1426251 9 1.09375 z M 10 2 L 10 3 L 11 3 L 11 2 L 10 2 z M 11 2 L 11.53125 2 C 11.356781 1.8973962 11.183869 1.8062177 11 1.71875 L 11 2 z M 11 3 L 11 4 L 12 4 L 12 3 L 11 3 z M 12 3 L 12.875 3 C 12.605891 2.7375527 12.308856 2.4976305 12 2.28125 L 12 3 z M 12 4 L 12 5 L 13 5 L 13 4 L 12 4 z M 13 4 L 13.71875 4 C 13.502375 3.6911422 13.262444 3.3941124 13 3.125 L 13 4 z M 13 5 L 13 6 L 14 6 L 14 5 L 13 5 z M 14 5 L 14.28125 5 C 14.193786 4.816131 14.1026 4.6432197 14 4.46875 L 14 5 z M 14 6 L 14 7 L 14.90625 7 C 14.857386 6.6600501 14.783003 6.3219508 14.6875 6 L 14 6 z M 13 6 L 12 6 L 12 7 L 13 7 L 13 6 z M 12 6 L 12 5 L 11 5 L 11 6 L 12 6 z M 11 6 L 10 6 L 10 7 L 11 7 L 11 6 z M 10 6 L 10 5 L 9 5 L 9 6 L 10 6 z M 10 5 L 11 5 L 11 4 L 10 4 L 10 5 z M 10 4 L 10 3 L 9 3 L 9 4 L 10 4 z M 1.09375 9 C 1.1426251 9.3399499 1.2169882 9.6780494 1.3125 10 L 2 10 L 2 9 L 1.09375 9 z M 2 10 L 2 11 L 3 11 L 3 10 L 2 10 z M 3 10 L 4 10 L 4 9 L 3 9 L 3 10 z M 4 10 L 4 11 L 5 11 L 5 10 L 4 10 z M 5 10 L 6 10 L 6 9 L 5 9 L 5 10 z M 6 10 L 6 11 L 7 11 L 7 10 L 6 10 z M 6 11 L 5 11 L 5 12 L 6 12 L 6 11 z M 6 12 L 6 13 L 7 13 L 7 12 L 6 12 z M 6 13 L 5 13 L 5 14 L 6 14 L 6 13 z M 6 14 L 6 14.6875 C 6.3219508 14.783003 6.6600501 14.857386 7 14.90625 L 7 14 L 6 14 z M 5 14 L 4.46875 14 C 4.6432197 14.1026 4.816131 14.193786 5 14.28125 L 5 14 z M 5 13 L 5 12 L 4 12 L 4 13 L 5 13 z M 4 13 L 3.125 13 C 3.3941124 13.262444 3.6911422 13.502375 4 13.71875 L 4 13 z M 4 12 L 4 11 L 3 11 L 3 12 L 4 12 z M 3 12 L 2.28125 12 C 2.4976305 12.308856 2.7375527 12.605891 3 12.875 L 3 12 z M 2 11 L 1.71875 11 C 1.8062177 11.183869 1.8973962 11.356781 2 11.53125 L 2 11 z M 9 9 L 9 14.90625 C 12.0618 14.46615 14.46615 12.0618 14.90625 9 L 9 9 z "
       transform="translate(-9384.3076,4846.1987)"
       id="path3003" />
    <path
       style="font-size:medium;font-style:normal;font-variant:normal;font-weight:normal;font-stretch:normal;text-indent:0;text-align:start;text-decoration:none;line-height:normal;letter-spacing:normal;word-spacing:normal;text-transform:none;direction:ltr;block-progression:tb;writing-mode:lr-tb;text-anchor:start;baseline-shift:baseline;color:#000000;fill:#d1d4d6;fill-opacity:0.74329164000000003;fill-rule:nonzero;stroke:none;stroke-width:2;marker:none;visibility:visible;display:inline;overflow:visible;enable-background:accumulate;font-family:Sans;-inkscape-font-specification:Sans"
       d="M 7.8125 -0.28125 L 7.8125 -0.21875 L 6.84375 -0.09375 C 3.26035 0.42135 0.42135 3.26035 -0.09375 6.84375 L -0.21875 7.8125 L -0.28125 7.8125 L -0.25 8 L 7 8 L 8 8 L 8 -0.25 L 7.8125 -0.28125 z M 8 8 L 8 9 L 8 16.25 L 8.1875 16.28125 L 8.1875 16.21875 L 9.15625 16.09375 C 12.73975 15.57875 15.57875 12.73975 16.09375 9.15625 L 16.21875 8.1875 L 16.28125 8.1875 L 16.25 8 L 9 8 L 8 8 z M 9 -0.125 L 9 1.09375 C 9.3399499 1.1426251 9.6780483 1.2169893 10 1.3125 L 10 2 L 11 2 L 11 1.71875 C 11.18387 1.8062165 11.35678 1.8973976 11.53125 2 L 11 2 L 11 3 L 12 3 L 12 2.28125 C 12.308859 2.4976275 12.605888 2.7375559 12.875 3 L 12 3 L 12 4 L 13 4 L 13 3.125 C 13.262447 3.3941092 13.502372 3.6911451 13.71875 4 L 13 4 L 13 5 L 14 5 L 14 4.46875 C 14.102602 4.6432182 14.193785 4.8161323 14.28125 5 L 14 5 L 14 6 L 14.6875 6 C 14.783004 6.3219497 14.857386 6.6600501 14.90625 7 L 16.125 7 L 16.09375 6.84375 C 15.57875 3.26035 12.73975 0.42135 9.15625 -0.09375 L 9 -0.125 z M 14 6 L 13 6 L 13 7 L 14 7 L 14 6 z M 13 6 L 13 5 L 12 5 L 12 6 L 13 6 z M 12 6 L 11 6 L 11 7 L 12 7 L 12 6 z M 11 6 L 11 5 L 10 5 L 10 6 L 11 6 z M 10 6 L 9 6 L 9 7 L 10 7 L 10 6 z M 10 5 L 10 4 L 9 4 L 9 5 L 10 5 z M 10 4 L 11 4 L 11 3 L 10 3 L 10 4 z M 10 3 L 10 2 L 9 2 L 9 3 L 10 3 z M 11 4 L 11 5 L 12 5 L 12 4 L 11 4 z M 7 1.09375 L 7 7 L 1.09375 7 C 1.53395 3.9382 3.9382 1.53395 7 1.09375 z M -0.125 9 L -0.09375 9.15625 C 0.42135 12.73975 3.26035 15.57875 6.84375 16.09375 L 7 16.125 L 7 14.90625 C 6.6600501 14.857386 6.3219497 14.783004 6 14.6875 L 6 14 L 5 14 L 5 14.28125 C 4.8161323 14.193785 4.6432182 14.102602 4.46875 14 L 5 14 L 5 13 L 4 13 L 4 13.71875 C 3.6911451 13.502372 3.3941092 13.262447 3.125 13 L 4 13 L 4 12 L 3 12 L 3 12.875 C 2.7375559 12.605888 2.4976275 12.308859 2.28125 12 L 3 12 L 3 11 L 2 11 L 2 11.53125 C 1.8973976 11.35678 1.8062165 11.18387 1.71875 11 L 2 11 L 2 10 L 1.3125 10 C 1.2169893 9.6780483 1.1426251 9.3399499 1.09375 9 L -0.125 9 z M 2 10 L 3 10 L 3 9 L 2 9 L 2 10 z M 3 10 L 3 11 L 4 11 L 4 10 L 3 10 z M 4 10 L 5 10 L 5 9 L 4 9 L 4 10 z M 5 10 L 5 11 L 6 11 L 6 10 L 5 10 z M 6 10 L 7 10 L 7 9 L 6 9 L 6 10 z M 6 11 L 6 12 L 7 12 L 7 11 L 6 11 z M 6 12 L 5 12 L 5 13 L 6 13 L 6 12 z M 6 13 L 6 14 L 7 14 L 7 13 L 6 13 z M 5 12 L 5 11 L 4 11 L 4 12 L 5 12 z M 9 9 L 14.90625 9 C 14.46615 12.0618 12.0618 14.46615 9 14.90625 L 9 9 z "
       transform="translate(-9384.3076,4846.1987)"
       id="path2995" />
  </g>
</svg>
