<?xml version="1.0" encoding="UTF-8" standalone="no"?>
<!-- Created with Inkscape (http://www.inkscape.org/) -->

<svg
   xmlns:dc="http://purl.org/dc/elements/1.1/"
   xmlns:cc="http://creativecommons.org/ns#"
   xmlns:rdf="http://www.w3.org/1999/02/22-rdf-syntax-ns#"
   xmlns:svg="http://www.w3.org/2000/svg"
   xmlns="http://www.w3.org/2000/svg"
   xmlns:xlink="http://www.w3.org/1999/xlink"
   xmlns:sodipodi="http://sodipodi.sourceforge.net/DTD/sodipodi-0.dtd"
   xmlns:inkscape="http://www.inkscape.org/namespaces/inkscape"
   width="64"
   height="64"
   id="svg13094"
   version="1.1"
   inkscape:version="0.48.3.1 r9886"
   sodipodi:docname="maps.svg">
  <sodipodi:namedview
     id="base"
     pagecolor="#cbcdd6"
     bordercolor="#666666"
     borderopacity="1.0"
     inkscape:pageopacity="1"
     inkscape:pageshadow="2"
     inkscape:zoom="11.313709"
     inkscape:cx="30.379729"
     inkscape:cy="30.719584"
     inkscape:document-units="px"
     inkscape:current-layer="svg13094"
     showgrid="true"
     inkscape:snap-bbox="true"
     inkscape:bbox-paths="true"
     inkscape:bbox-nodes="true"
     inkscape:snap-bbox-edge-midpoints="true"
     inkscape:snap-bbox-midpoints="true"
     inkscape:object-paths="true"
     inkscape:snap-intersection-paths="true"
     inkscape:object-nodes="true"
     inkscape:snap-smooth-nodes="true"
     inkscape:snap-midpoints="true"
     inkscape:snap-object-midpoints="true"
     inkscape:snap-center="true"
     showguides="true"
     inkscape:guide-bbox="true"
     inkscape:window-width="1920"
     inkscape:window-height="1023"
     inkscape:window-x="-10"
     inkscape:window-y="35"
     inkscape:window-maximized="1"
     inkscape:snap-global="true"
     fit-margin-top="0"
     fit-margin-left="0"
     fit-margin-right="0"
     fit-margin-bottom="0"
     showborder="true"
     inkscape:showpageshadow="false"
     inkscape:snap-page="true">
    <inkscape:grid
       originy="18px"
       originx="1.6362304e-08px"
       snapvisiblegridlinesonly="true"
       enabled="true"
       visible="true"
       empspacing="5"
       id="grid3075"
       type="xygrid" />
  </sodipodi:namedview>
  <defs
     id="defs13096">
    <linearGradient
       id="linearGradient4217"
       inkscape:collect="always">
      <stop
         id="stop4219"
         offset="0"
         style="stop-color:#ff8c7f;stop-opacity:0.31810036" />
      <stop
         id="stop4221"
         offset="1"
         style="stop-color:#b14c41;stop-opacity:1" />
    </linearGradient>
    <linearGradient
       inkscape:collect="always"
       id="linearGradient4198">
      <stop
         style="stop-color:#cc5346;stop-opacity:1"
         offset="0"
         id="stop4200" />
      <stop
         style="stop-color:#b14c41;stop-opacity:1"
         offset="1"
         id="stop4202" />
    </linearGradient>
    <linearGradient
       id="linearGradient4059">
      <stop
         style="stop-color:#856c44;stop-opacity:1;"
         offset="0"
         id="stop4061" />
      <stop
         style="stop-color:#5d4b3b;stop-opacity:1;"
         offset="1"
         id="stop4063" />
    </linearGradient>
    <radialGradient
       gradientUnits="userSpaceOnUse"
       gradientTransform="matrix(1.78125,0,0,1.6699219,-25,-14.964844)"
       r="32"
       fy="23.333334"
       fx="32"
       cy="23.333334"
       cx="32"
       id="radialGradient3943"
       xlink:href="#linearGradient4059"
       inkscape:collect="always" />
    <linearGradient
       gradientTransform="matrix(0.82258065,0,0,0.82258065,6.354839,8.5887097)"
       gradientUnits="userSpaceOnUse"
       id="linearGradient3984-8-7-3"
       y2="2"
       x2="31"
       y1="64"
       x1="31">
      <stop
         offset="0"
         style="stop-color:#b6b6b6;stop-opacity:1;"
         id="stop3099-1-3-0" />
      <stop
         offset="0.5"
         style="stop-color:#d5d5d5;stop-opacity:1;"
         id="stop3875-7-3-2" />
      <stop
         offset="0.51612902"
         style="stop-color:#c0c0c0;stop-opacity:1;"
         id="stop3873-1-0-8" />
      <stop
         offset="1"
         style="stop-color:#d7d7d7;stop-opacity:1;"
         id="stop3101-06-4-6" />
    </linearGradient>
    <linearGradient
       inkscape:collect="always"
       xlink:href="#linearGradient3984-8-7-3"
       id="linearGradient3234"
       gradientUnits="userSpaceOnUse"
       gradientTransform="matrix(0.82258065,0,0,0.82258065,2.645161,10.354839)"
       x1="32.039215"
       y1="61.568626"
       x2="32.039215"
       y2="0.78431338" />
    <radialGradient
       inkscape:collect="always"
       xlink:href="#linearGradient4198"
       id="radialGradient4208"
       gradientUnits="userSpaceOnUse"
       gradientTransform="matrix(7.8496594e-8,5.1666666,-5.4166668,8.229482e-8,133.56251,-154.33333)"
       cx="32"
       cy="18.750002"
       fx="32"
       fy="18.750002"
       r="12" />
    <radialGradient
       inkscape:collect="always"
       xlink:href="#linearGradient4217"
       id="radialGradient4215"
       gradientUnits="userSpaceOnUse"
       gradientTransform="matrix(7.8496594e-8,5.1666666,-5.4166668,8.229482e-8,133.56251,-154.33333)"
       cx="32"
       cy="18.750002"
       fx="32"
       fy="18.750002"
       r="12" />
  </defs>
  <metadata
     id="metadata13099">
    <rdf:RDF>
      <cc:Work
         rdf:about="">
        <dc:format>image/svg+xml</dc:format>
        <dc:type
           rdf:resource="http://purl.org/dc/dcmitype/StillImage" />
        <dc:title />
      </cc:Work>
    </rdf:RDF>
  </metadata>
  <path
     sodipodi:nodetypes="ccccccccccc"
     id="path4095"
     d="m 0,2 0,32 0,28 2,2 30,0 30,0 2,-2 0,-28 0,-32 -32,0 z"
     style="color:#000000;fill:url(#radialGradient3943);fill-opacity:1;fill-rule:nonzero;stroke:none;stroke-width:2.28571415;marker:none;visibility:visible;display:inline;overflow:visible;enable-background:accumulate"
     inkscape:connector-curvature="0" />
  <path
     sodipodi:nodetypes="ccccccccc"
     id="path4090"
     d="M 2,0 0,1 0,2 32,2 64,2 64,1 62,0 32,0 z"
     style="color:#000000;fill:#cda75a;fill-opacity:1;fill-rule:nonzero;stroke:none;stroke-width:2.28571415000000000;marker:none;visibility:visible;display:inline;overflow:visible;enable-background:accumulate"
     inkscape:connector-curvature="0" />
  <path
     sodipodi:nodetypes="cccccccc"
     inkscape:connector-curvature="0"
     id="path4298"
     d="M 0,1 0,4 2,2 32,2 62,2 64,1 32,1 z"
     style="fill:#ffffff;fill-opacity:0.14487634;fill-rule:nonzero" />
  <path
     sodipodi:nodetypes="cccc"
     inkscape:connector-curvature="0"
     style="fill:#1f0700;fill-opacity:0.13759861"
     id="path3028"
     d="M 64,4 62,2 64,1 z" />
  <path
     sodipodi:nodetypes="cccccccccccccc"
     inkscape:connector-curvature="0"
     id="path4366"
     d="m 63,0.5 0,33.5 0,29 1,-1 0,-28 0,-33 z m 0,62.5 -31,0 -31,0 1,1 30,0 30,0 z"
     style="fill:#000000;fill-opacity:0.11130587;fill-rule:nonzero" />
  <g
     transform="translate(-0.62500009,0.082283)"
     inkscape:export-ydpi="90"
     inkscape:export-xdpi="90"
     inkscape:export-filename="folder.png"
     id="g3043" />
  <path
     sodipodi:nodetypes="cccccccccc"
     inkscape:connector-curvature="0"
     id="path3864"
     d="M 0,1 0,34 0,62 1,63 1,34 1,3 2,2 1,1.46875 1,1 z"
     style="fill:#ffffff;fill-opacity:0.35070675;fill-rule:nonzero" />
  <g
     style="fill:#ffffff"
     inkscape:label="#g3701"
     transform="matrix(1.0385892,0,0,1.0385892,1214.7222,1878.8121)"
     id="scalable" />
  <g
     id="g3933">
    <g
       transform="translate(0,-14.5)"
       id="g3863">
      <path
         transform="translate(0,14.5)"
         id="path3865"
         d="M 2,0 0,1 0,4 0,22.5 2,22.5 2,0 z M 4,0 4,3.5 6,3.5 6,0 4,0 z m 4,0 0,17.5 2,0 L 10,0 8,0 z m 4,0 0,32.5 2,0 L 14,0 12,0 z m 8,0 0,27.5 2,0 L 22,0 20,0 z m 16,0 0,0.5 2,0 0,-0.5 -2,0 z m 12,0 0,19.5 2,0 L 50,0 48,0 z m 4,0 0,33.5 2,0 L 54,0 52,0 z m 4,0 0,14.5 2,0 L 58,0 56,0 z m 4,0 0,30.5 2,0 L 62,0 60,0 z m -20,0.5 0,37 2,0 0,-37 -2,0 z m -36,5 0,37 2,0 0,-37 -2,0 z m 28,0 0,37 2,0 0,-37 -2,0 z m -8,1 0,37 2,0 0,-37 -2,0 z m -8,3 0,37 2,0 0,-37 -2,0 z m 12,2 0,37 2,0 0,-37 -2,0 z m 16,5 0,37 2,0 0,-37 -2,0 z m -36,3 0,37 2,0 0,-37 -2,0 z m 28,0 0,37 2,0 0,-37 -2,0 z m 12,2 0,37 2,0 0,-37 -2,0 z m -48,3 0,9.5 0,27.5 2,0 0,-37 -2,0 z m 60,8 0,31.5 2,0 0,-31.5 -2,0 z m -8,5 0,26.5 2,0 0,-26.5 -2,0 z m 4,14 0,12.5 2,0 0,-12.5 -2,0 z"
         style="color:#000000;fill:#ffc346;fill-opacity:0.0362191;fill-rule:nonzero;stroke:none;stroke-width:1;marker:none;visibility:visible;display:inline;overflow:visible;enable-background:accumulate"
         inkscape:connector-curvature="0" />
      <path
         transform="translate(0,14.5)"
         id="path3867"
         d="M 2,0 0,1 0,4 0,30 2,30 2,0 z M 4,0 4,14 6,14 6,0 4,0 z m 4,0 0,33 2,0 0,-33 -2,0 z m 4,0 0,19 2,0 0,-19 -2,0 z m 8,0 0,37 2,0 0,-37 -2,0 z m 20,0 0,27 2,0 0,-27 -2,0 z m 8,0 0,32 2,0 0,-32 -2,0 z m 4,0 0,17 2,0 0,-17 -2,0 z m 4,0 0,3 2,0 0,-3 -2,0 z m 4,0 0,22 2,0 0,-22 -2,0 z m -32,5 0,37 2,0 0,-37 -2,0 z m 28,0 0,37 2,0 0,-37 -2,0 z m -20,1 0,37 2,0 0,-37 -2,0 z m 8,3 0,37 2,0 0,-37 -2,0 z m -12,2 0,37 2,0 0,-37 -2,0 z m -16,5 0,37 2,0 0,-37 -2,0 z m 8,3 0,37 2,0 0,-37 -2,0 z m 28,0 0,37 2,0 0,-37 -2,0 z m -40,2 0,37 2,0 0,-37 -2,0 z m 48,3 0,37 2,0 0,-37 -2,0 z m -60,8 0,2 0,28 2,2 0,-32 -2,0 z m 8,5 0,27 2,0 0,-27 -2,0 z M 4,51 4,64 6,64 6,51 4,51 z"
         style="color:#000000;fill:#ffc346;fill-opacity:0.0362191;fill-rule:nonzero;stroke:none;stroke-width:1;marker:none;visibility:visible;display:inline;overflow:visible;enable-background:accumulate"
         inkscape:connector-curvature="0" />
      <path
         transform="translate(0,14.5)"
         id="path3869"
         d="M 2,0 0,1 0,4 0,28.5 2,28.5 2,0 z m 2,0 0,12.5 2,0 L 6,0 4,0 z m 4,0 0,31.5 2,0 L 10,0 8,0 z m 4,0 0,17.5 2,0 L 14,0 12,0 z m 8,0 0,35.5 2,0 L 22,0 20,0 z m 20,0 0,25.5 2,0 L 42,0 40,0 z m 8,0 0,30.5 2,0 L 50,0 48,0 z m 4,0 0,15.5 2,0 L 54,0 52,0 z m 4,0 0,1.5 2,0 0,-1.5 -2,0 z m 4,0 0,20.5 2,0 L 62,0 60,0 z m -32,3.5 0,37 2,0 0,-37 -2,0 z m 28,0 0,37 2,0 0,-37 -2,0 z m -20,1 0,37 2,0 0,-37 -2,0 z m 8,3 0,37 2,0 0,-37 -2,0 z m -12,2 0,37 2,0 0,-37 -2,0 z m -16,5 0,37 2,0 0,-37 -2,0 z m 8,3 0,37 2,0 0,-37 -2,0 z m 28,0 0,37 2,0 0,-37 -2,0 z m -40,2 0,37 2,0 0,-37 -2,0 z m 48,3 0,37 2,0 0,-37 -2,0 z m -60,8 0,3.5 0,28 2,2 0,-33.5 -2,0 z m 8,5 0,28.5 2,0 0,-28.5 -2,0 z m -4,14 0,14.5 2,0 0,-14.5 -2,0 z"
         style="color:#000000;fill:#ffc346;fill-opacity:0.0362191;fill-rule:nonzero;stroke:none;stroke-width:1;marker:none;visibility:visible;display:inline;overflow:visible;enable-background:accumulate"
         inkscape:connector-curvature="0" />
      <path
         transform="translate(0,14.5)"
         id="path3871"
         d="M 2,0 0,1 0,20 2,20 2,0 z M 4,0 4,1 6,1 6,0 4,0 z m 4,0 0,15 2,0 0,-15 -2,0 z m 4,0 0,30 2,0 0,-30 -2,0 z m 8,0 0,25 2,0 0,-25 -2,0 z m 20,0 0,35 2,0 0,-35 -2,0 z m 8,0 0,17 2,0 0,-17 -2,0 z m 4,0 0,31 2,0 0,-31 -2,0 z m 4,0 0,12 2,0 0,-12 -2,0 z m 4,0 0,28 2,0 0,-28 -2,0 z M 4,3 4,40 6,40 6,3 4,3 z m 28,0 0,37 2,0 0,-37 -2,0 z m -8,1 0,37 2,0 0,-37 -2,0 z m -8,3 0,37 2,0 0,-37 -2,0 z m 12,2 0,37 2,0 0,-37 -2,0 z m 16,5 0,37 2,0 0,-37 -2,0 z m -36,3 0,37 2,0 0,-37 -2,0 z m 28,0 0,37 2,0 0,-37 -2,0 z m 12,2 0,37 2,0 0,-37 -2,0 z M 0,22 0,34 0,59 2,59 2,22 0,22 z m 60,8 0,34 2,0 0,-34 -2,0 z m -8,5 0,29 2,0 0,-29 -2,0 z m 4,14 0,15 2,0 0,-15 -2,0 z"
         style="color:#000000;fill:#ffc346;fill-opacity:0.0362191;fill-rule:nonzero;stroke:none;stroke-width:1;marker:none;visibility:visible;display:inline;overflow:visible;enable-background:accumulate"
         inkscape:connector-curvature="0" />
      <path
         transform="translate(0,14.5)"
         id="path3873"
         d="M 2,0 0,1 0,4 0,33.5 2,33.5 2,0 z m 2,0 0,14.5 2,0 L 6,0 4,0 z m 4,0 0,28.5 2,0 L 10,0 8,0 z m 16,0 0,9.5 2,0 0,-9.5 -2,0 z m 8,0 0,6.5 2,0 0,-6.5 -2,0 z m 4,0 0,11.5 2,0 L 38,0 36,0 z m 12,0 0,30.5 2,0 L 50,0 48,0 z m 8,0 0,25.5 2,0 L 58,0 56,0 z m -36,1.5 0,37 2,0 0,-37 -2,0 z m 40,3 0,37 2,0 0,-37 -2,0 z m -48,2 0,37 2,0 0,-37 -2,0 z m 40,1 0,37 2,0 0,-37 -2,0 z m -12,4 0,37 2,0 0,-37 -2,0 z m -36,5 0,37 2,0 0,-37 -2,0 z m 28,0 0,37 2,0 0,-37 -2,0 z m -8,1 0,37 2,0 0,-37 -2,0 z m -8,3 0,37 2,0 0,-37 -2,0 z m 12,2 0,37 2,0 0,-37 -2,0 z m 16,5 0,36.5 2,0 0,-36.5 -2,0 z m -36,3 0,33.5 2,0 0,-33.5 -2,0 z m 28,0 0,33.5 2,0 0,-33.5 -2,0 z m 12,2 0,31.5 2,0 0,-31.5 -2,0 z m -48,3 0,26.5 2,2 0,-28.5 -2,0 z m 60,8 0,20.5 2,0 0,-20.5 -2,0 z m -8,5 0,15.5 2,0 0,-15.5 -2,0 z m 4,14 0,1.5 2,0 0,-1.5 -2,0 z"
         style="color:#000000;fill:#ffc346;fill-opacity:0.0362191;fill-rule:nonzero;stroke:none;stroke-width:1;marker:none;visibility:visible;display:inline;overflow:visible;enable-background:accumulate"
         inkscape:connector-curvature="0" />
      <path
         transform="translate(0,14.5)"
         id="path3875"
         d="M 4,0 4,25 6,25 6,0 4,0 z m 8,0 0,30 2,0 0,-30 -2,0 z m 12,0 0,11 2,0 0,-11 -2,0 z m 4,0 0,6 2,0 0,-6 -2,0 z m 8,0 0,9 2,0 0,-9 -2,0 z m 16,0 0,28 2,0 0,-28 -2,0 z m 4,0 0,14 2,0 0,-14 -2,0 z m 4,0 0,33 2,0 0,-33 -2,0 z m -20,1 0,37 2,0 0,-37 -2,0 z M 0,4 0,34 0,41 2,41 2,4 0,4 z m 48,2 0,37 2,0 0,-37 -2,0 z M 8,7 8,44 10,44 10,7 8,7 z m 12,4 0,37 2,0 0,-37 -2,0 z m 8,5 0,37 2,0 0,-37 -2,0 z m 28,0 0,37 2,0 0,-37 -2,0 z m -20,1 0,37 2,0 0,-37 -2,0 z m 8,3 0,37 2,0 0,-37 -2,0 z m -12,2 0,37 2,0 0,-37 -2,0 z m -16,5 0,37 2,0 0,-37 -2,0 z m 8,3 0,34 2,0 0,-34 -2,0 z m 28,0 0,34 2,0 0,-34 -2,0 z m -40,2 0,32 2,0 0,-32 -2,0 z m 48,3 0,29 2,0 0,-29 -2,0 z M 0,43 0,62 2,64 2,43 0,43 z m 8,5 0,16 2,0 0,-16 -2,0 z m -4,14 0,2 2,0 0,-2 -2,0 z"
         style="color:#000000;fill:#ffc346;fill-opacity:0.0362191;fill-rule:nonzero;stroke:none;stroke-width:1;marker:none;visibility:visible;display:inline;overflow:visible;enable-background:accumulate"
         inkscape:connector-curvature="0" />
    </g>
    <g
       id="g3995"
       transform="translate(2,-14.5)">
      <path
         inkscape:connector-curvature="0"
         style="color:#000000;fill:#ffc346;fill-opacity:0.01501764;fill-rule:nonzero;stroke:none;stroke-width:1;marker:none;visibility:visible;display:inline;overflow:visible;enable-background:accumulate"
         d="M 2,0 0,1 0,4 0,22.5 2,22.5 2,0 z M 4,0 4,3.5 6,3.5 6,0 4,0 z m 4,0 0,17.5 2,0 L 10,0 8,0 z m 4,0 0,32.5 2,0 L 14,0 12,0 z m 8,0 0,27.5 2,0 L 22,0 20,0 z m 16,0 0,0.5 2,0 0,-0.5 -2,0 z m 12,0 0,19.5 2,0 L 50,0 48,0 z m 4,0 0,33.5 2,0 L 54,0 52,0 z m 4,0 0,14.5 2,0 L 58,0 56,0 z m 4,0 0,30.5 2,0 L 62,0 60,0 z m -20,0.5 0,37 2,0 0,-37 -2,0 z m -36,5 0,37 2,0 0,-37 -2,0 z m 28,0 0,37 2,0 0,-37 -2,0 z m -8,1 0,37 2,0 0,-37 -2,0 z m -8,3 0,37 2,0 0,-37 -2,0 z m 12,2 0,37 2,0 0,-37 -2,0 z m 16,5 0,37 2,0 0,-37 -2,0 z m -36,3 0,37 2,0 0,-37 -2,0 z m 28,0 0,37 2,0 0,-37 -2,0 z m 12,2 0,37 2,0 0,-37 -2,0 z m -48,3 0,9.5 0,27.5 2,0 0,-37 -2,0 z m 60,8 0,31.5 2,0 0,-31.5 -2,0 z m -8,5 0,26.5 2,0 0,-26.5 -2,0 z m 4,14 0,12.5 2,0 0,-12.5 -2,0 z"
         id="path4002"
         transform="translate(0,14.5)" />
      <path
         inkscape:connector-curvature="0"
         style="color:#000000;fill:#ffc346;fill-opacity:0.01501764;fill-rule:nonzero;stroke:none;stroke-width:1;marker:none;visibility:visible;display:inline;overflow:visible;enable-background:accumulate"
         d="M 2,0 0,1 0,4 0,30 2,30 2,0 z M 4,0 4,14 6,14 6,0 4,0 z m 4,0 0,33 2,0 0,-33 -2,0 z m 4,0 0,19 2,0 0,-19 -2,0 z m 8,0 0,37 2,0 0,-37 -2,0 z m 20,0 0,27 2,0 0,-27 -2,0 z m 8,0 0,32 2,0 0,-32 -2,0 z m 4,0 0,17 2,0 0,-17 -2,0 z m 4,0 0,3 2,0 0,-3 -2,0 z m 4,0 0,22 2,0 0,-22 -2,0 z m -32,5 0,37 2,0 0,-37 -2,0 z m 28,0 0,37 2,0 0,-37 -2,0 z m -20,1 0,37 2,0 0,-37 -2,0 z m 8,3 0,37 2,0 0,-37 -2,0 z m -12,2 0,37 2,0 0,-37 -2,0 z m -16,5 0,37 2,0 0,-37 -2,0 z m 8,3 0,37 2,0 0,-37 -2,0 z m 28,0 0,37 2,0 0,-37 -2,0 z m -40,2 0,37 2,0 0,-37 -2,0 z m 48,3 0,37 2,0 0,-37 -2,0 z m -60,8 0,2 0,28 2,2 0,-32 -2,0 z m 8,5 0,27 2,0 0,-27 -2,0 z M 4,51 4,64 6,64 6,51 4,51 z"
         id="path3998"
         transform="translate(0,14.5)" />
      <path
         inkscape:connector-curvature="0"
         style="color:#000000;fill:#ffc346;fill-opacity:0.01501764;fill-rule:nonzero;stroke:none;stroke-width:1;marker:none;visibility:visible;display:inline;overflow:visible;enable-background:accumulate"
         d="M 2,0 0,1 0,4 0,28.5 2,28.5 2,0 z m 2,0 0,12.5 2,0 L 6,0 4,0 z m 4,0 0,31.5 2,0 L 10,0 8,0 z m 4,0 0,17.5 2,0 L 14,0 12,0 z m 8,0 0,35.5 2,0 L 22,0 20,0 z m 20,0 0,25.5 2,0 L 42,0 40,0 z m 8,0 0,30.5 2,0 L 50,0 48,0 z m 4,0 0,15.5 2,0 L 54,0 52,0 z m 4,0 0,1.5 2,0 0,-1.5 -2,0 z m 4,0 0,20.5 2,0 L 62,0 60,0 z m -32,3.5 0,37 2,0 0,-37 -2,0 z m 28,0 0,37 2,0 0,-37 -2,0 z m -20,1 0,37 2,0 0,-37 -2,0 z m 8,3 0,37 2,0 0,-37 -2,0 z m -12,2 0,37 2,0 0,-37 -2,0 z m -16,5 0,37 2,0 0,-37 -2,0 z m 8,3 0,37 2,0 0,-37 -2,0 z m 28,0 0,37 2,0 0,-37 -2,0 z m -40,2 0,37 2,0 0,-37 -2,0 z m 48,3 0,37 2,0 0,-37 -2,0 z m -60,8 0,3.5 0,28 2,2 0,-33.5 -2,0 z m 8,5 0,28.5 2,0 0,-28.5 -2,0 z m -4,14 0,14.5 2,0 0,-14.5 -2,0 z"
         id="path4004"
         transform="translate(0,14.5)" />
      <path
         inkscape:connector-curvature="0"
         style="color:#000000;fill:#ffc346;fill-opacity:0.01501764;fill-rule:nonzero;stroke:none;stroke-width:1;marker:none;visibility:visible;display:inline;overflow:visible;enable-background:accumulate"
         d="M 2,0 0,1 0,20 2,20 2,0 z M 4,0 4,1 6,1 6,0 4,0 z m 4,0 0,15 2,0 0,-15 -2,0 z m 4,0 0,30 2,0 0,-30 -2,0 z m 8,0 0,25 2,0 0,-25 -2,0 z m 20,0 0,35 2,0 0,-35 -2,0 z m 8,0 0,17 2,0 0,-17 -2,0 z m 4,0 0,31 2,0 0,-31 -2,0 z m 4,0 0,12 2,0 0,-12 -2,0 z m 4,0 0,28 2,0 0,-28 -2,0 z M 4,3 4,40 6,40 6,3 4,3 z m 28,0 0,37 2,0 0,-37 -2,0 z m -8,1 0,37 2,0 0,-37 -2,0 z m -8,3 0,37 2,0 0,-37 -2,0 z m 12,2 0,37 2,0 0,-37 -2,0 z m 16,5 0,37 2,0 0,-37 -2,0 z m -36,3 0,37 2,0 0,-37 -2,0 z m 28,0 0,37 2,0 0,-37 -2,0 z m 12,2 0,37 2,0 0,-37 -2,0 z M 0,22 0,34 0,59 2,59 2,22 0,22 z m 60,8 0,34 2,0 0,-34 -2,0 z m -8,5 0,29 2,0 0,-29 -2,0 z m 4,14 0,15 2,0 0,-15 -2,0 z"
         id="path4000"
         transform="translate(0,14.5)" />
      <path
         inkscape:connector-curvature="0"
         style="color:#000000;fill:#ffc346;fill-opacity:0.01501764;fill-rule:nonzero;stroke:none;stroke-width:1;marker:none;visibility:visible;display:inline;overflow:visible;enable-background:accumulate"
         d="M 2,0 0,1 0,4 0,33.5 2,33.5 2,0 z m 2,0 0,14.5 2,0 L 6,0 4,0 z m 4,0 0,28.5 2,0 L 10,0 8,0 z m 16,0 0,9.5 2,0 0,-9.5 -2,0 z m 8,0 0,6.5 2,0 0,-6.5 -2,0 z m 4,0 0,11.5 2,0 L 38,0 36,0 z m 12,0 0,30.5 2,0 L 50,0 48,0 z m 8,0 0,25.5 2,0 L 58,0 56,0 z m -36,1.5 0,37 2,0 0,-37 -2,0 z m 40,3 0,37 2,0 0,-37 -2,0 z m -48,2 0,37 2,0 0,-37 -2,0 z m 40,1 0,37 2,0 0,-37 -2,0 z m -12,4 0,37 2,0 0,-37 -2,0 z m -36,5 0,37 2,0 0,-37 -2,0 z m 28,0 0,37 2,0 0,-37 -2,0 z m -8,1 0,37 2,0 0,-37 -2,0 z m -8,3 0,37 2,0 0,-37 -2,0 z m 12,2 0,37 2,0 0,-37 -2,0 z m 16,5 0,36.5 2,0 0,-36.5 -2,0 z m -36,3 0,33.5 2,0 0,-33.5 -2,0 z m 28,0 0,33.5 2,0 0,-33.5 -2,0 z m 12,2 0,31.5 2,0 0,-31.5 -2,0 z m -48,3 0,26.5 2,2 0,-28.5 -2,0 z m 60,8 0,20.5 2,0 0,-20.5 -2,0 z m -8,5 0,15.5 2,0 0,-15.5 -2,0 z m 4,14 0,1.5 2,0 0,-1.5 -2,0 z"
         id="path4006"
         transform="translate(0,14.5)" />
      <path
         inkscape:connector-curvature="0"
         style="color:#000000;fill:#ffc346;fill-opacity:0.01501764;fill-rule:nonzero;stroke:none;stroke-width:1;marker:none;visibility:visible;display:inline;overflow:visible;enable-background:accumulate"
         d="M 4,0 4,25 6,25 6,0 4,0 z m 8,0 0,30 2,0 0,-30 -2,0 z m 12,0 0,11 2,0 0,-11 -2,0 z m 4,0 0,6 2,0 0,-6 -2,0 z m 8,0 0,9 2,0 0,-9 -2,0 z m 16,0 0,28 2,0 0,-28 -2,0 z m 4,0 0,14 2,0 0,-14 -2,0 z m 4,0 0,33 2,0 0,-33 -2,0 z m -20,1 0,37 2,0 0,-37 -2,0 z M 0,4 0,34 0,41 2,41 2,4 0,4 z m 48,2 0,37 2,0 0,-37 -2,0 z M 8,7 8,44 10,44 10,7 8,7 z m 12,4 0,37 2,0 0,-37 -2,0 z m 8,5 0,37 2,0 0,-37 -2,0 z m 28,0 0,37 2,0 0,-37 -2,0 z m -20,1 0,37 2,0 0,-37 -2,0 z m 8,3 0,37 2,0 0,-37 -2,0 z m -12,2 0,37 2,0 0,-37 -2,0 z m -16,5 0,37 2,0 0,-37 -2,0 z m 8,3 0,34 2,0 0,-34 -2,0 z m 28,0 0,34 2,0 0,-34 -2,0 z m -40,2 0,32 2,0 0,-32 -2,0 z m 48,3 0,29 2,0 0,-29 -2,0 z M 0,43 0,62 2,64 2,43 0,43 z m 8,5 0,16 2,0 0,-16 -2,0 z m -4,14 0,2 2,0 0,-2 -2,0 z"
         id="path3988"
         transform="translate(0,14.5)" />
    </g>
  </g>
  <path
     style="color:#000000;fill:#000000;fill-opacity:0.25448028000000000;fill-rule:nonzero;stroke:none;stroke-width:1;marker:none;visibility:visible;display:inline;overflow:visible;enable-background:accumulate;stroke-linecap:butt;stroke-linejoin:miter;stroke-miterlimit:4;stroke-opacity:1;stroke-dasharray:none;stroke-dashoffset:0"
     d="M 5,6 23,9 41,6 62,9 62,62 41,59 26,62 5,59 z"
     id="rect4152"
     inkscape:connector-curvature="0"
     sodipodi:nodetypes="ccccccccc" />
  <path
     inkscape:connector-curvature="0"
     id="path3239"
     d="M 59,7 41,6 41,59 59,60 z"
     style="color:#000000;fill:#dbdbdb;fill-opacity:1;fill-rule:nonzero;stroke:none;stroke-width:0.50000000000000000;marker:none;visibility:visible;display:inline;overflow:visible;enable-background:accumulate"
     sodipodi:nodetypes="ccccc" />
  <path
     inkscape:connector-curvature="0"
     id="path3241"
     d="M 23,7 41,6 41,59 23,60 z"
     style="color:#000000;fill:#bdbdbd;fill-opacity:1;fill-rule:nonzero;stroke:none;stroke-width:0.50000000000000000;marker:none;visibility:visible;display:inline;overflow:visible;enable-background:accumulate"
     sodipodi:nodetypes="ccccc" />
  <path
     style="color:#000000;fill:#dbdbdb;fill-opacity:1;fill-rule:nonzero;stroke:none;stroke-width:0.50000000000000000;marker:none;visibility:visible;display:inline;overflow:visible;enable-background:accumulate"
     d="M 23,7 5,6 5,59 23,60 z"
     id="rect3236"
     inkscape:connector-curvature="0"
     sodipodi:nodetypes="ccccc" />
  <path
     style="color:#000000;fill:#c2c2c2;fill-opacity:1;fill-rule:nonzero;stroke:none;stroke-width:0.5;marker:none;visibility:visible;display:inline;overflow:visible;enable-background:accumulate"
     d="M 6,5 34,63"
     id="path3266"
     inkscape:connector-curvature="0" />
  <path
     style="color:#000000;fill:#7d9e59;fill-opacity:1;fill-rule:nonzero;stroke:none;stroke-width:0.23135306999999999;marker:none;visibility:visible;display:inline;overflow:visible;enable-background:accumulate"
     d="M 59,52.625 59,7.1875 41,17.625 41,20.90625 59,52.625 z"
     id="path4050"
     inkscape:connector-curvature="0" />
  <path
     style="color:#000000;fill:#647e47;fill-opacity:1;fill-rule:nonzero;stroke:none;stroke-width:4;marker:none;visibility:visible;display:inline;overflow:visible;enable-background:accumulate"
     d="M 23,35.75 36.0625,28.0625 24.125,6.9375 23,7 23,35.75 z"
     id="path4071"
     inkscape:connector-curvature="0" />
  <path
     style="color:#000000;fill:#7d9e59;fill-opacity:1;fill-rule:nonzero;stroke:none;stroke-width:0.23135306999999999;marker:none;visibility:visible;display:inline;overflow:visible;enable-background:accumulate"
     d="M 5,46.375 23,35.75 23,7 5,6 5,46.375 z"
     id="path4048"
     inkscape:connector-curvature="0" />
  <path
     style="font-size:medium;font-style:normal;font-variant:normal;font-weight:normal;font-stretch:normal;text-indent:0;text-align:start;text-decoration:none;line-height:normal;letter-spacing:normal;word-spacing:normal;text-transform:none;direction:ltr;block-progression:tb;writing-mode:lr-tb;text-anchor:start;baseline-shift:baseline;color:#000000;fill:#d5c153;fill-opacity:1;stroke:none;stroke-width:4;marker:none;visibility:visible;display:inline;overflow:visible;enable-background:accumulate;font-family:Sans;-inkscape-font-specification:Sans"
     d="M 56.84375,59.875 41,32.4375 41,40.46875 44.375,46.3125 41,48.25 l 0,4.625 5.375,-3.09375 5.6875,9.84375 4.78125,0.25 z M 59,56.96875 59,48.9375 41.9375,19.375 59,9.53125 59,7 55.6875,6.8125 41,15.28125 41,25.75 59,56.96875 z"
     id="path4122"
     inkscape:connector-curvature="0" />
  <path
     style="font-size:medium;font-style:normal;font-variant:normal;font-weight:normal;font-stretch:normal;text-indent:0;text-align:start;text-decoration:none;line-height:normal;letter-spacing:normal;word-spacing:normal;text-transform:none;direction:ltr;block-progression:tb;writing-mode:lr-tb;text-anchor:start;baseline-shift:baseline;color:#000000;fill:#c19c2f;fill-opacity:1;stroke:none;stroke-width:4;marker:none;visibility:visible;display:inline;overflow:visible;enable-background:accumulate;font-family:Sans;-inkscape-font-specification:Sans"
     d="M 23,60 29.25,59.65625 41,52.875 41,48.25 23,58.625 23,60 z M 41,40.46875 41,32.4375 26.21875,6.8125 23,7 23,9.28125 33.4375,27.375 23,33.40625 l 0,4.625 12.4375,-7.1875 5.5625,9.625 z M 41,25.75 41,15.28125 39.9375,15.90625 34.4375,6.375 29.96875,6.625 41,25.75 z"
     id="path4085"
     inkscape:connector-curvature="0" />
  <path
     style="font-size:medium;font-style:normal;font-variant:normal;font-weight:normal;font-stretch:normal;text-indent:0;text-align:start;text-decoration:none;line-height:normal;letter-spacing:normal;word-spacing:normal;text-transform:none;direction:ltr;block-progression:tb;writing-mode:lr-tb;text-anchor:start;baseline-shift:baseline;color:#000000;fill:#d5c153;fill-opacity:1;stroke:none;stroke-width:4;marker:none;visibility:visible;display:inline;overflow:visible;enable-background:accumulate;font-family:Sans;-inkscape-font-specification:Sans"
     d="m 23,60 0,-1.375 -2.15625,1.25 L 23,60 z M 5,48.40625 l 18,-10.375 0,-4.625 -18,10.375 0,4.625 z M 23,9.28125 23,7 21.625,6.9375 23,9.28125 z"
     id="path4044"
     inkscape:connector-curvature="0" />
  <path
     style="fill:#5c88bf;fill-opacity:1;stroke:none"
     d="m 15.9375,30.40625 c 0.83539,0.01076 1.65362,-0.10806 2.375,-0.46875 0.360998,-0.180499 0.886486,-0.573987 1.125,-0.8125 0.596635,-0.596636 0.794766,-3.159063 0.1875,-3.96875 -0.987687,-1.316917 -1.656445,-2.385546 -3,-3.28125 -0.479569,-0.319712 -0.652483,-0.669992 -1.25,-0.96875 -0.567284,-0.283642 -1.203507,-1.453507 -1.59375,-1.84375 -0.04086,-0.04086 0.02668,-0.227883 0,-0.28125 -0.508711,-1.017421 -0.190835,-2.776248 0.375,-3.625 0.08554,-0.128308 -0.112554,-0.206215 0.09375,-0.34375 0.04903,-0.03269 0.114584,0.04167 0.15625,0 0.124706,-0.124706 0.01296,-0.557223 0.09375,-0.71875 0.138238,-0.276477 0.300647,-0.507543 0.4375,-0.78125 0.05893,-0.117851 -0.05892,-0.319649 0,-0.4375 C 15.74938,11.251242 15.538053,9.263607 14.78125,7.75 14.74509,7.67767 14.444733,7.483217 14.40625,7.40625 14.34019,7.274123 14.36016,7.017975 14.3125,6.875 14.27294,6.756313 14.192019,6.625949 14.125,6.5 L 5,6 5,29.375 c 1.736455,-0.205841 3.552565,-0.07512 5.15625,0.28125 0.529739,0.117719 1.149007,-0.01395 1.6875,0.09375 1.231514,0.246302 2.701433,0.638313 4.09375,0.65625 z"
     id="path4046"
     inkscape:connector-curvature="0" />
  <path
     inkscape:connector-curvature="0"
     d="m 47,27 c -6.627416,0 -12,5.372584 -12,12 0,0.414214 0.02154,0.846596 0.0625,1.249999 0.0017,0.02064 -0.0019,0.04184 0,0.0625 0.0408,0.382112 0.111679,0.754471 0.187498,1.124999 C 36.2831,47.60298 41.030306,53.877634 47,59 52.969694,53.877634 57.7169,47.60298 58.75,41.437499 c 0.07581,-0.370527 0.1467,-0.742887 0.187499,-1.124999 0.0019,-0.02066 -0.0017,-0.04186 0,-0.0625 0.04097,-0.403404 0.0625,-0.835786 0.0625,-1.25 0,-6.627416 -5.372584,-12 -12,-12 z m 0,7.124999 c 2.681994,0 4.875,2.193005 4.875,4.875001 0,2.681994 -2.193006,4.875 -4.875,4.875 -2.681996,0 -4.875,-2.193006 -4.875,-4.875 0,-2.681996 2.193004,-4.875001 4.875,-4.875001 z"
     id="path2987"
     style="fill:#000000;fill-opacity:0.25448028000000000;fill-rule:nonzero;stroke:none;color:#000000;stroke-width:1;marker:none;visibility:visible;display:inline;overflow:visible;enable-background:accumulate;stroke-linecap:butt;stroke-linejoin:miter;stroke-miterlimit:4;stroke-opacity:1;stroke-dasharray:none;stroke-dashoffset:0" />
  <path
     inkscape:connector-curvature="0"
     d="m 46,26 c -6.627416,0 -12,5.372584 -12,12 0,0.414214 0.02154,0.846596 0.0625,1.249999 0.0017,0.02064 -0.0019,0.04184 0,0.0625 0.0408,0.382112 0.111679,0.754471 0.187498,1.124999 C 35.2831,46.60298 40.030306,52.877634 46,58 51.969694,52.877634 56.7169,46.60298 57.75,40.437499 c 0.07581,-0.370527 0.1467,-0.742887 0.187499,-1.124999 0.0019,-0.02066 -0.0017,-0.04186 0,-0.0625 0.04097,-0.403404 0.0625,-0.835786 0.0625,-1.25 0,-6.627416 -5.372584,-12 -12,-12 z m 0,7.124999 c 2.681994,0 4.875,2.193005 4.875,4.875001 0,2.681994 -2.193006,4.875 -4.875,4.875 -2.681996,0 -4.875,-2.193006 -4.875,-4.875 0,-2.681996 2.193004,-4.875001 4.875,-4.875001 z"
     id="path4206"
     style="fill:url(#radialGradient4208);fill-opacity:1;fill-rule:nonzero;stroke:none" />
  <path
     style="fill:url(#radialGradient4215);fill-opacity:1;fill-rule:nonzero;stroke:none"
     d="m 46,26 c -6.627416,0 -12,5.372584 -12,12 0,0.414214 0.02154,0.846597 0.0625,1.25 0.0017,0.02064 -0.0019,0.04184 0,0.0625 0.0408,0.382112 0.111681,0.754472 0.1875,1.125 0.837913,5.000608 4.136241,10.06005 8.53125,14.53125 C 38.879207,50.753998 36.024827,46.061611 35.25,41.4375 c -0.07582,-0.370528 -0.1467,-0.742888 -0.1875,-1.125 -0.0019,-0.02066 0.0017,-0.04186 0,-0.0625 C 35.02154,39.846597 35,39.414214 35,39 c 0,-6.627416 5.372584,-12 12,-12 3.059089,0 5.849315,1.14687 7.96875,3.03125 C 52.770682,27.558998 49.568327,26 46,26 z m 3.875,9.125 c 0.604846,0.812065 1,1.790148 1,2.875 0,2.681994 -2.193006,4.875 -4.875,4.875 -1.084852,0 -2.062936,-0.395154 -2.875,-1 0.890467,1.19554 2.277856,2 3.875,2 2.681994,0 4.875,-2.193006 4.875,-4.875 0,-1.597144 -0.80446,-2.984533 -2,-3.875 z"
     id="path4162"
     inkscape:connector-curvature="0" />
</svg>
