<?xml version="1.0" encoding="UTF-8" standalone="no"?>
<!-- Created with Inkscape (http://www.inkscape.org/) -->

<svg
   xmlns:dc="http://purl.org/dc/elements/1.1/"
   xmlns:cc="http://creativecommons.org/ns#"
   xmlns:rdf="http://www.w3.org/1999/02/22-rdf-syntax-ns#"
   xmlns:svg="http://www.w3.org/2000/svg"
   xmlns="http://www.w3.org/2000/svg"
   xmlns:sodipodi="http://sodipodi.sourceforge.net/DTD/sodipodi-0.dtd"
   xmlns:inkscape="http://www.inkscape.org/namespaces/inkscape"
   width="64"
   height="64"
   id="svg13094"
   version="1.1"
   inkscape:version="0.91+devel r"
   sodipodi:docname="handbrake.svg">
  <sodipodi:namedview
     id="base"
     pagecolor="#ffffff"
     bordercolor="#666666"
     borderopacity="1.0"
     inkscape:pageopacity="0"
     inkscape:pageshadow="2"
     inkscape:zoom="11.313709"
     inkscape:cx="25.25072"
     inkscape:cy="36.560224"
     inkscape:document-units="px"
     inkscape:current-layer="svg13094"
     showgrid="true"
     inkscape:snap-bbox="true"
     inkscape:bbox-paths="true"
     inkscape:bbox-nodes="true"
     inkscape:snap-bbox-edge-midpoints="true"
     inkscape:snap-bbox-midpoints="true"
     inkscape:object-paths="true"
     inkscape:snap-intersection-paths="true"
     inkscape:object-nodes="true"
     inkscape:snap-smooth-nodes="true"
     inkscape:snap-midpoints="true"
     inkscape:snap-object-midpoints="true"
     inkscape:snap-center="true"
     showguides="true"
     inkscape:guide-bbox="true"
     inkscape:window-width="1920"
     inkscape:window-height="1023"
     inkscape:window-x="-10"
     inkscape:window-y="35"
     inkscape:window-maximized="1"
     inkscape:snap-global="false"
     fit-margin-top="0"
     fit-margin-left="0"
     fit-margin-right="0"
     fit-margin-bottom="0"
     showborder="true"
     inkscape:showpageshadow="false"
     inkscape:snap-page="true">
    <inkscape:grid
       type="xygrid"
       id="grid3075"
       empspacing="5"
       visible="true"
       enabled="true"
       snapvisiblegridlinesonly="true"
       originx="1.6362304e-08px"
       originy="18px" />
  </sodipodi:namedview>
  <defs
     id="defs13096" />
  <metadata
     id="metadata13099">
    <rdf:RDF>
      <cc:Work
         rdf:about="">
        <dc:format>image/svg+xml</dc:format>
        <dc:type
           rdf:resource="http://purl.org/dc/dcmitype/StillImage" />
        <dc:title></dc:title>
      </cc:Work>
    </rdf:RDF>
  </metadata>
  <path
     id="path3983"
     d="m 0,4 0,30 0,28 2,2 30,0 30,0 2,-2 L 64,34 64,4 32,4 0,4 z"
     style="color:#000000;fill:#c37819;fill-opacity:1;fill-rule:nonzero;stroke:none;stroke-width:2.28571415;marker:none;visibility:visible;display:inline;overflow:visible;enable-background:accumulate"
     inkscape:connector-curvature="0" />
  <path
     style="color:#000000;fill:#e89731;fill-opacity:1;fill-rule:nonzero;stroke:none;marker:none;visibility:visible;display:inline;overflow:visible;enable-background:accumulate"
     d="M 2 0 L 0 1 L 0 4 L 32 4 L 64 4 L 64 1 L 62 0 L 32 0 L 2 0 z "
     id="path6502" />
  <g
     id="g3043"
     inkscape:export-filename="folder.png"
     inkscape:export-xdpi="90"
     inkscape:export-ydpi="90"
     transform="translate(-0.62500009,0.082283)" />
  <g
     id="scalable"
     transform="matrix(1.0385892,0,0,1.0385892,1214.7222,1878.8121)"
     inkscape:label="#g3701"
     style="fill:#ffffff" />
  <path
     inkscape:connector-curvature="0"
     id="path3211"
     d="M 2,0 0,1 0,2.125 c 0.2333074,0.3311124 0.98211657,0.8541291 1.53125,1 0.071546,0.019005 0.295778,0 0.375,0 C 3.0767993,3.1250004 3.979222,2.7711579 5,2.5 5.8292785,2.2797119 6.8333054,2.6801041 7.71875,2.5625 7.954683,2.5311636 9.577523,2.2439732 9.625,2.21875 9.8238715,2.1130939 9.806304,1.8582964 9.71875,1.71875 9.592008,1.5167446 9.3532698,1.4145945 9.25,1.25 8.9919455,0.83870481 8.5798381,0.42359671 8.21875,0 L 2,0 z m 18.25,0 c 0.0064,0.06883721 0.01465,0.13420258 0.03125,0.15625 1.542319,0.36496096 2.036411,1.2005729 3.28125,1.53125 0.506579,0.134567 1.442221,-0.1883681 1.90625,-0.25 0.890021,-0.1182119 1.875549,-0.3869939 2.5,-0.71875 C 28.17817,0.6074898 28.244051,0.44175815 28.40625,0.3125 28.576193,0.1770694 28.898889,0.10027157 29.125,0 L 20.25,0 z M 31.125,0 C 30.962105,0.07532418 30.812155,0.1359217 30.65625,0.21875 30.362923,0.37458815 30.308286,0.57903268 30.09375,0.75 29.951248,0.86356222 29.839704,0.96718436 29.75,1.0625 c -0.06699,0.071179 -0.223038,0.062823 -0.28125,0.09375 -0.05208,0.02767 0,0.054618 0,0.09375 0.366222,0.3619277 1.016778,0.5513513 1.59375,0.78125 0.695152,0.2769887 1.370872,0.5184245 2.125,0.71875 0.440477,0.1170075 1.021335,0.1449193 1.40625,0.28125 0.340791,0.120703 1.339046,-0.1688092 1.59375,-0.25 0.175254,-0.055865 0.420449,-0.055947 0.59375,-0.125 C 37.966351,2.1840376 39.567742,1.3063952 38.75,0.4375 38.609232,0.28792686 38.413153,0.1449949 38.21875,0 L 32,0 31.125,0 z m 10.40625,0 c -0.147065,0.19495943 -0.271977,0.3866228 -0.4375,0.5625 -0.236606,0.25140607 -0.6875,0.6633083 -0.6875,0.9375 0.936115,0.2935861 1.920106,0.4586206 2.9375,0.59375 0.52073,0.069163 1.008779,0.088262 1.5,0.21875 0.255875,0.06797 0.857582,0.076912 1.15625,0.15625 0.263402,0.06997 0.572325,0.1556056 0.75,0.25 0.07911,0.042032 0.08148,0.151037 0.21875,0.1875 C 47.38834,3.0177092 48.180822,3.0538377 48.6875,3 49.204874,2.945026 50.434463,2.6755353 50.875,2.5 51.578712,2.2196007 52.326359,1.2112575 52.5,0.75 52.553396,0.60816002 52.426579,0.31362386 52.25,0 L 41.53125,0 z M 54.1875,0 c -0.06675,0.05867314 -0.14443,0.12169263 -0.21875,0.1875 0.09529,0.40559142 -0.628221,1.3649658 -0.40625,1.71875 0.0789,0.1257446 0.213009,0.2067863 0.3125,0.3125 0.123219,0.1309277 1.694785,0.4594615 2,0.5 0.142039,0.018866 0.244629,0.039412 0.375,0.0625 0.351022,0.062163 0.871244,0.04099 1.1875,0.125 0.420519,0.1117058 2.445831,0.3194537 2.96875,0.25 C 60.575328,3.133793 60.698136,3.0607586 60.8125,3 c 0.147757,-0.0785 0.472715,-0.1065948 0.625,-0.1875 0.769329,-0.4087268 1.487691,-0.9425667 1.75,-1.5 0.04853,-0.103125 -0.04853,-0.2406251 0,-0.34375 C 63.2386,0.86014811 63.24064,0.74658623 63.21875,0.625 L 62,0 54.1875,0 z m -38.875,0.625 c -0.468029,-0.0123888 -1.040792,0.03125 -1.4375,0.03125 -0.186213,0 -0.61455,-0.0442819 -0.78125,0 C 12.718484,0.7559351 12.026955,0.99055339 11.65625,1.1875 11.484993,1.278485 10.997097,1.274149 10.875,1.46875 10.79231,1.6005398 12.352046,3.095477 12.5625,3.375 12.5649,3.5393914 12.740147,3.765259 12.96875,4 l 6.84375,0 c 0.003,-0.00467 -0.0029,-0.026585 0,-0.03125 0.256996,-0.4096084 2.416794,-1.3680434 1.9375,-1.75 C 21.619341,2.1146259 21.475547,2.0443359 21.375,1.9375 21.31728,1.8761726 21.29329,1.6333518 21.21875,1.59375 20.173194,1.0382702 17.316639,0.93922374 15.71875,0.65625 15.594383,0.63422544 15.46851,0.62912961 15.3125,0.625 z M 26.5,2 C 26.254997,1.9985503 26.03416,2.0131016 26,2.03125 24.717238,2.7127518 22.868156,3.0292151 22.21875,4 L 32,4 32.90625,4 C 32.877337,3.9581068 32.915748,3.8870437 32.875,3.84375 32.790468,3.7539277 32.590171,3.65641 32.53125,3.5625 32.40532,3.3617886 32.254646,2.9050474 31.90625,2.8125 31.530352,2.712647 30.413525,2.7037663 29.96875,2.625 29.361184,2.5174049 28.69113,2.2263657 28.03125,2.15625 c -0.363832,-0.038659 -0.750694,-0.058775 -1,-0.125 C 26.98476,2.0189004 26.745003,2.0014497 26.5,2 z M 40.78125,2.65625 C 39.964103,2.677347 39.163048,2.7631136 38.53125,2.875 38.030105,2.963749 37.604582,3.1787581 37.21875,3.28125 37.057867,3.323987 36.504777,3.4578089 36.40625,3.5625 36.257922,3.7201059 36.159185,3.8544831 36.03125,4 l 9.65625,0 c -0.0037,-0.00395 0.0037,-0.027339 0,-0.03125 C 45.460889,3.7279632 45.058026,3.1150284 44.625,3 43.580948,2.7226598 42.143162,2.6210886 40.78125,2.65625 z M 53,2.90625 C 52.770324,2.9117786 52.533199,2.941374 52.3125,3 50.887723,3.3784757 49.861691,3.7982108 48.25,4 l 9.78125,0 C 57.585556,3.8218751 57.134165,3.6764303 56.84375,3.625 56.576765,3.5777191 56.263444,3.4259896 56.03125,3.34375 55.751902,3.2448093 55.370612,3.2420642 55.0625,3.1875 54.404094,3.0709015 53.689027,2.8896643 53,2.90625 z M 64,2.9375 C 63.012752,3.26235 61.742796,3.8474951 61.6875,3.90625 61.655871,3.9398576 61.644078,3.9654769 61.625,4 L 64,4 64,2.9375 z M 6.65625,3.125 C 6.0418177,3.1192 5.2296529,3.5455913 4.78125,3.625 4.3657999,3.698573 4.1617802,3.8759678 3.8125,3.96875 c -0.079057,0.021 -0.202193,-0.021 -0.28125,0 C 3.52247,3.97108 3.53271,3.995 3.53125,4 L 9.9375,4 C 9.0108042,3.6556479 7.9699327,3.438805 6.90625,3.15625 6.8280185,3.1354687 6.744026,3.1258288 6.65625,3.125 z"
     style="opacity:1;color:#000000;fill:#ffbc6b;fill-opacity:1;fill-rule:nonzero;stroke:none;stroke-width:5;marker:none;visibility:visible;display:inline;overflow:visible;enable-background:accumulate" />
  <path
     inkscape:connector-curvature="0"
     id="path4234"
     d="m 3.53125,4 c -0.00732,0.047063 0.043921,0.1342897 0,0.15625 -0.8765057,0.4382529 -1.9088681,1.0052361 -2.375,1.9375 -0.16499161,0.3299831 0.1649915,0.9200168 0,1.25 C 0.90152622,7.8531975 0.875,8.8745172 0.875,9.46875 0.9633883,9.5866011 1.0804576,9.6861794 1.15625,9.8125 c 0.4265916,0.710986 0.9026189,1.453491 1.40625,2.125 0.2820098,0.376013 1.1415322,0.751815 1.25,0.96875 0.054206,0.108412 0.2135252,0.419263 0.4375,0.53125 0.6641033,0.332052 1.1717131,0.734213 1.59375,1.15625 C 6.0517409,14.801741 6.9904087,14.5 7.15625,14.5 c 1.4670872,0 3.780151,-0.622802 4.4375,-1.9375 0.253561,-0.507122 0.283932,-1.226795 0.5,-1.875 C 12.490031,9.4986575 13,8.7065404 13,7.34375 13,7.245892 13.215638,6.5296952 13.09375,6.46875 12.482544,6.16315 11.752864,5.4091148 11.21875,4.875 11.114004,4.7702546 10.845938,4.7521883 10.78125,4.6875 10.514996,4.4212465 10.230369,4.2048413 9.9375,4 L 3.53125,4 z m 9.4375,0 c 0.512504,0.9905662 1.372706,2.1227052 1.71875,2.46875 0.113446,0.1134459 0.352525,0.071275 0.4375,0.15625 0.116528,0.1165278 0.941891,0 1.125,0 0.475535,0 1.462076,0.3504243 1.875,-0.0625 C 18.729129,5.9583707 19.487329,4.952987 19.8125,4 l -6.84375,0 z m 9.25,0 C 22.21075,4.022592 22.19516,4.03953 22.1875,4.0625 22.061624,4.4401282 21.75,4.8251549 21.75,5.21875 21.75,5.6661139 21.426763,6.5839743 21.21875,7 21.0136,7.4103009 21.024365,8.5100636 20.9375,9.03125 c 0.04889,0.053196 0.110843,0.1652861 0.4375,0.4375 0.635699,0.5297492 1.375092,0.687683 1.78125,1.5 0.350243,0.700487 1.000555,2.515902 1.59375,2.8125 0.652857,0.326428 4.319164,0.743336 4.875,0.1875 0.397383,-0.397382 0.891795,-0.81328 1.40625,-1.15625 1.261418,-0.840946 3.325556,-1.713611 3.96875,-3 0.259517,-0.5190328 -0.08462,-0.9855824 -0.1875,-1.5 -0.278701,-1.3935063 -0.557513,-2.7762624 -1.5,-3.71875 -0.100747,-0.1007466 -0.09307,-0.4680722 -0.15625,-0.53125 -0.04167,-0.041667 -0.134795,0.026352 -0.1875,0 C 32.941587,4.0489182 32.915888,4.0262846 32.90625,4 L 32,4 22.21875,4 z m 13.8125,0 c -0.06303,0.1349496 -0.109081,0.2547178 -0.21875,0.4375 0.448796,0.8885204 0.52426,2.2395143 1.03125,3 0.08546,0.1281836 0.445339,0.2969276 0.46875,0.34375 0.03438,0.068762 0.06796,0.2996048 0.15625,0.34375 0.623952,0.311976 1.533393,0.7521434 2.125,1.34375 0.07366,0.073657 0.270093,0.020093 0.34375,0.09375 0.05893,0.058925 0.03482,0.1910744 0.09375,0.25 0.163168,0.1631682 1.389502,0.492749 1.5,0.4375 0.481341,-0.240671 2.751076,-1.3760761 3.03125,-1.65625 0.01301,-0.013014 0.140478,-0.273364 0.15625,-0.28125 0.662725,-0.3313627 1.428048,-0.7216416 1.6875,-1.5 C 46.720614,5.8694119 46.057713,4.737027 45.6875,4 L 36.03125,4 z M 48.25,4 C 48.16517,4.01999 48.08827,4.044846 48,4.0625 c 0.04008,0.9886056 0.147192,2.0756339 0.53125,2.84375 0.08213,0.1642617 -0.05858,0.4492635 0,0.625 0.07103,0.213107 0.25,0.276979 0.25,0.53125 0,0.7374849 1.09849,1.8844804 1.34375,2.375 0.03966,0.07933 0.400987,0.234211 0.4375,0.34375 0.465414,1.396243 2.730231,2.089923 4.5,1.5 0.251152,-0.08372 0.475036,0.08747 0.625,-0.0625 0.189833,-0.189834 1.044008,0.0185 1.25,-0.1875 0.198525,-0.198525 0.554513,-0.424421 0.875,-0.53125 0.125358,-0.04179 0.105676,-0.230676 0.15625,-0.28125 0.936846,-0.936845 0.68437,-0.521861 1.15625,-1.9375 C 59.373782,8.5349047 60.654762,6.5610121 59.84375,5.75 59.615265,5.5215151 59.324519,5.3305293 59.125,5.03125 58.916942,4.7191631 58.476944,4.335277 58.03125,4 L 48.25,4 z m 13.375,0 c -0.145083,0.4941609 0.04319,1.0305532 0.34375,1.40625 -0.294945,0.7998272 -1.688117,3.561265 -1.4375,4.0625 0.351382,0.702765 2.32386,1.1814 3.46875,1.5 L 64,4 61.625,4 z M 17.09375,8.34375 c -0.05135,0.00487 -0.09479,0.032285 -0.125,0.0625 -0.689141,0.6891408 -2.593658,1.4685667 -3,2.28125 -0.646089,1.292179 -0.856773,2.221365 -1.15625,3.71875 0.19709,0.96089 1.242367,1.695853 1.5,2.46875 0.05208,0.156254 0.386921,0.273841 0.4375,0.375 0.375539,0.751077 1.994951,2.786299 2.9375,1.84375 0.109346,-0.109345 0.436701,-0.154653 0.53125,-0.34375 0.233307,-0.466615 0.570958,-0.793936 0.875,-1.25 0.08954,-0.134311 0.183342,-0.591671 0.25,-0.625 0.89678,-0.44839 1.714114,-1.682864 2.5,-2.46875 C 22.202041,14.047959 22.978379,13.456759 22.625,12.75 22.181757,11.863514 21.658102,11.360301 20.875,10.96875 20.634745,10.848622 20.490254,10.557627 20.25,10.4375 20.068916,10.346958 19.758077,10.226827 19.625,10.09375 19.507242,9.9759921 18.96119,9.3087201 18.90625,9.28125 18.783305,9.219778 18.376496,9.1279926 18.28125,8.9375 18.232141,8.8392813 17.453214,8.3096403 17.09375,8.34375 z m 21.0625,1.5 c -0.380098,-0.041631 -1.291883,0.427516 -1.375,0.59375 -0.178505,0.35701 -1.873906,1.103802 -2.3125,1.25 -0.211911,0.07064 -0.306368,0.36254 -0.53125,0.4375 -0.767005,0.255669 -2.077308,1.248367 -2.375,1.84375 -0.120242,0.240484 -0.168839,0.593971 -0.28125,0.875 0.10919,0.593498 0.347689,1.132878 0.53125,1.5 0.09224,0.184479 0.07373,0.511236 0.1875,0.625 0.392346,0.392346 0.831342,0.768842 1.21875,1.15625 0.10312,0.103119 0.36563,0.08438 0.46875,0.1875 0.248245,0.248245 1.2362,-0.28125 1.5,-0.28125 1.000333,0 2.319011,-1.006511 3,-1.6875 0.113765,-0.113765 0.440521,-0.06401 0.625,-0.15625 0.176511,-0.08826 0.493781,-0.525032 0.59375,-0.625 0.103297,-0.103297 0.419478,-0.138228 0.53125,-0.25 0.539276,-0.539276 1.192852,-1.358943 0.90625,-2.21875 -0.433918,-1.301754 -1.162557,-2.068807 -2.03125,-2.9375 -0.146393,-0.146393 -0.414554,-0.133304 -0.53125,-0.25 -0.02857,-0.028571 -0.0707,-0.056553 -0.125,-0.0625 z m 9,0.0625 c -1.343895,-0.1337424 -2.833731,1.364981 -3.59375,2.125 -0.07528,0.07528 -0.257412,0.488081 -0.34375,0.53125 -0.0527,0.02635 -0.145833,-0.04167 -0.1875,0 -0.267435,0.267435 -0.622193,2.545283 -0.53125,3 0.349112,0.500783 0.646956,1.053206 1,1.40625 0.125367,0.125367 0.419428,0.169428 0.53125,0.28125 0.475872,0.475872 0.803963,1.245731 1.3125,1.5 0.426161,0.21308 0.881468,0.506468 1.15625,0.78125 0.100686,0.100686 1.045083,0.454917 1.21875,0.28125 0.154863,-0.154863 1.339661,-0.527161 1.4375,-0.625 0.198344,-0.198345 0.616345,-0.605048 0.96875,-0.78125 0.209644,-0.104822 0.619141,-0.212891 0.78125,-0.375 0.29134,-0.29134 0.636689,-0.82419 0.96875,-1.15625 0.104611,-0.104611 -0.34375,-0.86317 -0.34375,-0.96875 0,-0.510722 -1.914773,-4.15341 -2.3125,-4.75 -0.199654,-0.299481 -0.521112,-0.494931 -0.78125,-0.625 -0.238515,-0.119258 -0.481516,-0.318883 -0.71875,-0.4375 -0.183673,-0.09184 -0.370515,-0.1683939 -0.5625,-0.1875 z M 61.0625,11.875 c -0.156543,2.04e-4 -0.301648,0.01722 -0.4375,0.0625 -1.236667,0.412222 -2.615669,0.455223 -3.875,0.875 -0.973629,0.324543 -2.40521,1.100209 -3.375,0.90625 0.04794,0.57331 -0.166885,3.228728 -0.0625,3.4375 0.207581,0.415162 1.43443,1.248465 1.75,1.40625 0.09703,0.04852 0.45745,0.1137 0.53125,0.1875 0.48942,0.48942 1.253621,0.83454 1.9375,1.0625 0.673813,0.224605 1.35586,0.89668 1.875,1.15625 1.198363,0.599181 2.794219,-0.560729 3.6875,-1.15625 C 63.337218,19.650189 63.672829,19.515159 64,19.375 l 0,-6.4375 c -0.03858,-0.07772 -0.179976,-0.367476 -0.1875,-0.375 -0.28192,-0.28192 -0.943939,-0.53125 -1.3125,-0.53125 -0.412262,0 -0.967872,-0.156862 -1.4375,-0.15625 z M 0,12.125 0,22.8125 C 0.15561535,22.71578 0.30279245,22.603459 0.4375,22.46875 0.4922252,22.41403 0.73239665,22.37896 0.78125,22.28125 0.97245263,21.898844 1.1172448,21.351505 1.5,20.96875 1.55123,20.91752 1.7925202,20.83248 1.84375,20.78125 2.3577405,20.267259 3.96875,18.095398 3.96875,17.25 3.96875,14.989099 1.5217339,12.885867 0,12.125 z m 25.5,3.5 C 24.255514,15.6267 23.01378,15.766995 22,16 c -0.02656,0.237412 -0.04467,0.484953 -0.09375,0.71875 -0.05451,0.259653 -0.462045,0.417385 -0.53125,0.625 -0.09814,0.294418 -0.936306,1.702529 -1.03125,1.75 -0.05271,0.02635 -0.145833,-0.04167 -0.1875,0 -0.145749,0.14575 -0.162959,0.53796 -0.34375,0.71875 -0.431522,0.431522 -0.801179,0.873643 -1.15625,1.40625 -0.104774,0.15716 -0.603365,1.084134 -0.375,1.3125 0.201648,0.201647 0.588723,0.552447 0.71875,0.8125 0.02668,0.05337 -0.04086,0.209141 0,0.25 0.04167,0.04167 0.161147,-0.0527 0.1875,0 0.08939,0.178773 0.280996,1.093496 0.4375,1.25 1.263938,1.263937 2.285872,2.971061 3.96875,3.8125 1.37147,0.685735 6.114944,-1.776222 7,-2.21875 0.230269,-0.115135 0.431899,-0.450324 0.59375,-0.53125 0.0753,-0.03765 0.307149,-0.0259 0.375,-0.09375 2.112765,-2.112766 0.360891,-4.761078 -0.375,-6.96875 -0.146239,-0.438714 -0.61424,-0.728481 -0.78125,-1.0625 C 30.171307,17.311364 29.625582,16.302277 29,16.09375 28.000346,15.760531 26.744486,15.623326 25.5,15.625 z M 9.9375,16.3125 c -0.7538254,0.01692 -1.4636658,0.05742 -1.53125,0.125 -0.5949027,0.594903 -1.5995108,1.142282 -1.875,1.96875 -0.039447,0.118341 -0.39587,0.26049 -0.4375,0.34375 -0.1927452,0.38549 -0.5916452,1.216645 -0.875,1.5 -0.280816,0.280816 -1.5087881,1.419924 -1.15625,2.125 0.1288829,0.257766 0.7760117,1.932262 0.875,2.03125 0.2907493,0.290749 0.6298386,0.790928 0.8125,1.15625 0.2147279,0.429456 2.0633388,1.792226 2.5625,2.125 0.2255958,0.150397 0.9538694,0.56994 1.21875,0.4375 0.715624,-0.357812 1.593213,-0.811963 2.125,-1.34375 0.529818,-0.529817 2.411872,-1.002811 3.03125,-1.3125 0.112863,-0.05643 0.666131,-0.582261 0.78125,-0.8125 0.0825,-0.164992 -0.0825,-0.428759 0,-0.59375 0.508856,-1.017716 0.780861,-2.062889 -0.09375,-2.9375 -0.08819,-0.08819 -0.27862,-0.119733 -0.34375,-0.25 -0.238014,-0.476029 -0.602,-0.883249 -0.96875,-1.25 -0.682532,-0.682532 -0.767194,-1.548444 -1.5,-2.28125 -0.166575,-0.166575 -0.385114,-0.452682 -0.59375,-0.6875 -0.0062,-0.0877 -0.239578,-0.215273 -0.3125,-0.3125 C 11.468767,16.29688 10.691325,16.29558 9.9375,16.3125 z m 29.84375,0.8125 c -2.117275,0.204926 -4.973762,2.287515 -5.84375,3.375 0.349458,1.698809 1.29933,3.682589 0.4375,5.40625 -0.234517,0.469034 1.254101,0.820702 1.5,1.3125 0.148713,0.297427 0.671658,0.577908 0.90625,0.8125 0.404449,0.404449 1.027553,0.777552 1.40625,1.15625 0.04086,0.04086 0.196633,-0.02668 0.25,0 1.051354,0.525677 3.584308,0.504721 4.59375,0 0.08089,-0.04045 0.315028,0.05997 0.375,0 0.328901,-0.328901 0.672747,-0.564245 0.96875,-1.15625 0.325552,-0.651105 0.495119,-1.115239 0.78125,-1.6875 0.172281,-0.344564 -0.07512,-0.912262 0.09375,-1.25 0.276583,-0.553166 1.097905,-2.772939 0.71875,-3.53125 C 45.634398,20.893796 44.864651,20.302152 44.375,19.8125 44.29002,19.72753 44.050946,19.738447 43.9375,19.625 43.727563,19.415064 43.489302,19.020552 43.21875,18.75 43.059748,18.590998 42.708357,18.475702 42.5,18.40625 c -0.175555,-0.05852 -0.439151,-0.503302 -0.5,-0.625 -0.03953,-0.07906 -0.202193,0.03953 -0.28125,0 -0.200368,-0.100184 -0.354822,-0.302411 -0.625,-0.4375 -0.376131,-0.188066 -0.823898,-0.266041 -1.3125,-0.21875 z M 51.25,19.40625 c -0.09266,0.0064 -0.179334,-0.0041 -0.25,0.03125 -0.431863,0.215931 -1.049072,0.699382 -1.59375,1.0625 -1.344091,0.896061 -1.047723,0.806807 -1.6875,2.40625 -0.593633,1.892244 -1.65625,3.336724 -1.65625,5.46875 0,0.546976 2.764713,2.226107 3.25,2.46875 0.292853,0.146427 0.844844,0.219844 1.0625,0.4375 0.186753,0.186753 0.598612,0.254862 0.8125,0.46875 0.175744,0.175743 0.437418,0.609333 0.78125,0.78125 0.395731,0.197865 1.533502,0.353416 2.03125,0.1875 0.476723,-0.158907 1.283326,-0.918051 1.78125,-1.25 0.791539,-0.527693 0.864675,-1.583425 1.40625,-2.125 0.338069,-0.338068 0.09635,-1.132792 0.25,-1.59375 l 1,-3 c 0.640539,-1.921617 -2.108112,-3.475931 -3.46875,-4.15625 -0.506025,-0.253012 -1.37342,-0.06092 -1.75,-0.4375 -0.220873,-0.220873 -1.320143,-0.79478 -1.96875,-0.75 z M 64,21.75 c -1.437184,0.314149 -2.667416,1.323216 -3.8125,1.78125 -0.277454,0.741672 -0.40243,1.621181 -0.96875,2.1875 -0.02336,0.02336 -0.613988,2.248213 -0.71875,2.5625 -0.101093,0.303278 0.214293,1.285707 0,1.5 -0.06628,0.06628 -0.391501,1.20225 -0.15625,1.4375 0.262017,0.262017 0.332437,0.477375 0.53125,0.875 0.195781,0.391563 2.552824,1.573287 3.09375,1.84375 0.222008,0.111004 0.555711,0.07473 0.78125,0.1875 0.223507,0.111753 0.709489,0.297092 1.25,0.46875 L 64,34 64,21.75 z M 1.5625,25.1875 C 1.427587,25.193696 1.3203665,25.210884 1.25,25.28125 0.96504913,25.566201 0.41949072,25.809561 0,26.1875 l 0,6.125 c 0.28308326,0.407963 0.64984113,0.830932 0.875,1.28125 0.2114022,0.422804 0.9370181,1.895672 1.34375,2.03125 0.1228092,0.04094 0.655293,0.06298 0.78125,0 C 3.6847,35.28265 5.3857339,34.239266 5.9375,33.6875 6.2819436,33.343057 7.8109734,32.971803 8.125,32.34375 8.3538344,31.886081 7.6609584,29.636724 7.96875,29 7.6242212,28.931094 6.1090474,28.077142 6,27.75 5.9401474,27.570442 5.7881684,27.194419 5.65625,27.0625 5.1526941,26.558944 4.2017398,25.879746 3.4375,25.625 3.2255244,25.554341 2.9368147,25.56216 2.75,25.46875 2.5661638,25.376832 1.9672391,25.168913 1.5625,25.1875 z m 16.46875,0.96875 c -0.857375,0.514425 -1.679488,0.714744 -2.5625,1.15625 -0.237498,0.118749 -0.545131,0.467587 -0.78125,0.625 -0.356007,0.237338 -1.57049,0.664241 -1.78125,0.875 -0.31501,0.31501 -1.094219,0.765859 -1.5,0.96875 -0.460658,0.230329 -0.908581,0.848411 -1.15625,1.34375 -0.3274254,0.654851 1.772953,5.045905 2.125,5.75 0.216982,0.433965 0.671441,0.483941 0.96875,0.78125 1.184102,1.184102 2.996834,0.719806 4.59375,0.1875 0.55742,-0.185806 1.462127,-0.118377 1.875,-0.53125 0.489615,-0.489615 0.968066,-0.749316 1.5625,-1.34375 0.06124,-0.06124 0.03251,-0.37626 0.09375,-0.4375 0.636091,-0.636091 0.566614,-1.664477 0.96875,-2.46875 0.04714,-0.09428 -0.04714,-0.24947 0,-0.34375 0.183396,-0.366791 0.952653,-1.313444 0.71875,-1.78125 -0.305141,-0.610281 -0.91748,-0.88623 -1.25,-1.21875 -0.107165,-0.107167 -0.44082,-0.09708 -0.53125,-0.1875 -0.316696,-0.316696 -0.531805,-0.823102 -0.96875,-0.96875 -0.195064,-0.06502 -1.826235,-2.526417 -2.375,-2.40625 z M 32,27.84375 c -2.599827,0 -4.112477,1.92804 -6.53125,2.5625 -0.06879,0.343961 0.03856,1.648943 -0.1875,1.875 -0.44435,0.44435 -1.3125,0.938848 -1.3125,1.9375 0,0.418053 1.140698,2.507922 1.40625,2.90625 0.07895,0.118417 0.08698,0.392709 0.15625,0.53125 0.271144,0.542288 1.052767,1.163422 1.59375,1.34375 0.223662,0.07455 0.632056,0.69103 0.8125,0.78125 0.750775,0.375387 7.12371,-2.247418 7.40625,-2.8125 0.311699,-0.623396 1.578411,-5.030678 1.25,-5.6875 C 35.901331,29.896411 33.749131,27.84375 32,27.84375 z M 42.96875,30.75 c -1.380808,-0.01521 -2.789648,0.17043 -3.8125,0.375 -0.35147,0.600097 -0.67569,1.169785 -1.0625,1.75 -0.09897,0.148449 -0.02308,0.389906 -0.09375,0.53125 -0.205785,0.41157 -1.128769,3.371231 -0.6875,3.8125 0.348871,0.348871 0.671736,0.952985 0.96875,1.25 0.057,0.05701 0.761938,0.324438 0.875,0.4375 0.04167,0.04167 -0.02635,0.103545 0,0.15625 0.03158,0.06315 0.926314,0.582563 1.0625,0.71875 0.05794,0.05794 0.359727,0.109723 0.4375,0.1875 0.04167,0.04167 -0.04167,0.114584 0,0.15625 1.001785,1.001785 2.730308,1.569064 4.25,1.0625 0.452482,-0.150827 1.251481,-0.188981 1.59375,-0.53125 0.130279,-0.130279 0.514538,-0.404075 0.625,-0.625 0.482613,-0.965227 2.490635,-5.424981 2.03125,-6.34375 l -0.625,-1.25 c -0.18928,-0.378559 -1.613367,-0.658911 -1.9375,-0.875 -0.878537,-0.585691 -2.244192,-0.797295 -3.625,-0.8125 z m 10.9375,3.46875 c -1.018819,0.01065 -2.070922,0.03967 -2.125,0.09375 -0.151206,0.151206 0.0042,0.07247 0.0625,0.0625 -0.02654,0.04172 -0.139908,0.180676 -0.5,0.46875 -1.12662,0.777677 -1.222735,1.886953 -1.59375,3 -0.248944,0.74683 -1.582376,2.991498 -1.21875,3.71875 0.08005,0.16011 1.086062,0.742313 1.3125,0.96875 0.273269,0.27327 0.31809,0.75559 0.53125,0.96875 0.631198,0.631198 1.346007,1.313629 2.21875,1.75 0.63927,0.319635 1.671961,0.203039 2.125,-0.25 0.07936,-0.07936 1.41902,-0.379256 1.59375,-0.4375 1.600205,-0.533401 2.827886,-1.983657 3.34375,-3.53125 0.129943,-0.389829 0.128185,-1.584194 0,-1.96875 -0.08074,-0.242228 -1.195158,-4.132658 -1.21875,-4.15625 -0.146058,-0.146059 -2.137271,-0.56659 -2.5,-0.6875 -0.0249,-0.0083 -1.012431,-0.01065 -2.03125,0 z M 6.625,35.875 C 6.541221,35.85744 6.458421,35.88533 6.4375,35.90625 6.2240497,36.1197 5.7006509,36.36185 5.46875,36.59375 5.445427,36.61707 5.1255991,36.6863 5.125,36.6875 c -0.4789568,0.957913 -1.4066771,1.626282 -1.78125,2.75 -0.294828,0.884484 1.216641,3.743673 1.53125,4.6875 0.082939,0.248818 0.1630232,1.038022 0.34375,1.21875 0.041667,0.04167 0.145833,-0.04167 0.1875,0 0.2057948,0.205795 0.3752937,0.656544 0.59375,0.875 0.2191716,0.219172 2.4853331,0.02296 2.84375,-0.15625 0.3782567,-0.189126 1.0264862,0.0024 1.40625,-0.1875 0.46201,-0.231005 2.628756,-0.503755 2.90625,-0.78125 0.173581,-0.17358 0.582517,-0.446284 0.71875,-0.71875 0.107004,-0.214009 0.149327,-0.493077 0.28125,-0.625 0.07289,-0.07289 0.0076,-0.515205 0.0625,-0.625 1.111587,-2.223173 -0.509208,-3.613979 -2.28125,-4.5 -0.787292,-0.393646 -1.386805,-1.258174 -2.3125,-1.65625 -0.5055257,0 -2.4135458,-0.970821 -3,-1.09375 z M 64,36.71875 c -0.856773,0.353523 -1.860725,-0.239816 -2.9375,0.40625 -0.362542,1.089434 0.529378,4.09749 0.09375,4.96875 -0.161635,0.32327 -0.450891,1.348217 -0.25,1.75 0.157039,0.314078 2.101697,1.069727 3.09375,1.4375 l 0,-8.5625 z m -41.71875,0.5 c -1.155368,1.33681 -2.865048,1.557524 -4.5,2.375 -0.631187,0.315594 -0.816395,1.271467 -1.15625,1.78125 -0.660964,0.991446 -1.583212,2.896075 -0.90625,4.25 0.155157,0.310313 0.560782,0.279532 0.8125,0.53125 0.207263,0.207263 0.281401,0.718901 0.53125,0.96875 l 1.6875,1.6875 c 0.269143,0.269143 0.855857,0.512107 1.125,0.78125 0.48217,0.482169 2.946103,-0.566801 3.375,-0.78125 0.292967,-0.146483 4.150016,-1.862533 4.15625,-1.875 0.426438,-0.852878 0.245678,-1.705786 0.53125,-2.5625 0.09063,-0.271901 -0.127646,-0.713458 0,-0.96875 0.157622,-0.315245 0.338302,-1.786696 0.09375,-2.03125 -0.310854,-0.310854 -1.546054,-0.639805 -1.96875,-1.0625 -0.292756,-0.292757 -0.761941,-0.53722 -1.125,-0.71875 -0.198169,-0.09908 -0.491624,-0.518041 -0.53125,-0.53125 -0.109237,-0.03641 -0.339372,-0.05812 -0.4375,-0.15625 -0.535994,-0.535993 -0.878916,-1.202349 -1.6875,-1.6875 z M 0,37.4375 0,44.75 c 0.77396009,-0.204923 1.5492034,-0.330454 2.125,-0.90625 0.39342,-0.39342 0.71875,-0.06038 0.71875,-0.78125 0,-0.76522 -1.6145227,-3.492141 -1.875,-4.53125 C 0.80597874,38.327786 0.56172493,37.874225 0.4375,37.75 0.37576919,37.688269 0.19610243,37.578421 0,37.4375 z m 35.78125,1.4375 c -0.812396,0.06811 -2.653842,1.051281 -3.25,1.25 -0.85268,0.284227 -1.557637,0.66601 -2.46875,1.25 -0.181743,0.454356 -0.426307,1.020057 -0.71875,1.3125 -0.295218,0.295219 -0.759614,4.137021 -0.4375,4.78125 0.05114,0.102278 0.46378,0.84127 0.53125,0.875 0.98482,0.49241 4.434765,3.016993 5.84375,2.3125 0.427515,-0.213757 0.946737,-0.207743 1.40625,-0.4375 0.425139,-0.212569 0.862273,-0.474924 1.3125,-0.625 0.443623,-0.147874 0.813687,-1.969937 1.0625,-2.21875 0.404204,-0.404204 0.674527,-1.067804 0.96875,-1.65625 0.180965,-0.36193 1.002604,-1.838541 0.8125,-2.21875 -0.185904,-0.371808 -0.13703,-0.824531 -0.375,-1.0625 C 38.986332,40.955082 38.117023,39.933512 36.0625,38.90625 35.99543,38.87271 35.897307,38.86527 35.78125,38.875 z m 11.46875,3.5 c -0.125788,-0.0012 -0.274449,0.129888 -0.40625,0.15625 -1.769122,0.102184 -4.275798,1.046144 -4.78125,2.5625 -0.288659,0.865977 -0.578719,2.078719 -1.21875,2.71875 -0.04419,0.04419 0.04419,0.237056 0,0.28125 -0.11711,0.11711 -0.545556,0.73042 -0.625,0.96875 -0.04499,0.134974 -0.484097,1.015903 -0.4375,1.0625 0.499798,0.499798 1.213124,1.644998 1.5,2.21875 0.07875,0.157501 0.773294,0.335795 0.875,0.4375 0.87891,0.87891 3.180932,2.220939 4.78125,1.6875 C 47.271147,54.357534 47.644751,54.118416 48,54 c 0.421884,-0.140628 0.785159,-0.253909 1.0625,-0.53125 0.405923,-0.405923 1.954539,-0.47158 2.28125,-1.125 0.188343,-0.376687 1.675959,-5.417791 1.15625,-5.9375 -0.996567,-0.996567 -2.032378,-1.501128 -3.09375,-2.5625 -0.0859,-0.0859 -0.289424,0.0149 -0.34375,-0.09375 -0.186124,-0.372247 -1.476942,-0.914442 -1.6875,-1.125 -0.04167,-0.04167 0.04167,-0.145833 0,-0.1875 -0.03168,-0.03168 -0.08307,-0.0621 -0.125,-0.0625 z m 10.53125,2.6875 c -0.06407,0.0018 -0.115583,0.01092 -0.15625,0.03125 -0.134743,0.06737 -0.140074,0.233824 -0.25,0.34375 -0.180966,0.180965 -0.730703,0.168203 -0.90625,0.34375 -0.746728,0.746728 -1.304437,0.757394 -2.03125,1.96875 -0.350998,0.295683 -0.404787,2.373537 -0.59375,2.5625 -0.190569,0.190569 -1.280194,2.814613 -1.0625,3.25 0.315377,0.630754 1.343611,1.062223 1.65625,1.6875 0.379006,0.758012 0.712702,1.306452 1.25,1.84375 0.111822,0.111822 0.124633,0.405884 0.25,0.53125 0.119344,0.119345 0.63717,0.193586 0.8125,0.28125 0.330561,0.165281 2.184174,-0.342087 2.5625,-0.53125 0.243483,-0.121741 0.61999,-0.102494 0.875,-0.1875 C 61.112955,56.879014 62.990579,56.353547 64,55.625 l 0,-7.59375 C 63.670697,47.876931 63.316864,47.72166 62.9375,47.46875 62.175883,46.961006 58.742268,45.034841 57.78125,45.0625 z M 0,47.15625 0,57.09375 C 0.44868631,57.08174 0.93299535,57.04913 0.96875,57.03125 1.0418363,56.99471 1.2606728,56.82279 1.40625,56.75 1.6232626,56.64149 2.0014525,56.7649 2.21875,56.65625 2.6319235,56.449664 3.1828657,56.647378 3.625,56.5 4.4136801,56.237106 5.4825509,56.227475 6.1875,55.875 7.1301648,55.403668 6.235441,51.401103 5.9375,50.65625 5.6369125,49.904781 5.3650322,49.114749 5.125,48.34375 4.6074328,48.136723 3.5135153,47.888515 3.09375,47.46875 2.9379248,47.31292 2.2516283,47.44846 2.03125,47.375 1.5134448,47.202398 0.76702233,47.12156 0,47.15625 z M 15.21875,47.625 c -0.03254,6.86e-4 -0.05494,0.0093 -0.09375,0.03125 0,0.117852 0.02858,0.229417 0,0.34375 -0.03676,0.14704 -0.747232,0.09375 -0.90625,0.09375 -1.118281,0 -2.46284,-0.173352 -3.53125,0.09375 -2.5693703,0.642343 -2.254958,1.827374 -2.90625,3.78125 -0.1703309,0.510993 0.022897,1.818692 0.1875,2.3125 0.1851956,0.555587 -0.00666,1.330422 0.25,1.84375 0.098559,0.197119 0.1874148,0.218665 0.34375,0.375 0.2183396,0.218339 0.36524,0.850913 0.71875,0.96875 0.2035391,0.06785 0.5495597,0.259155 0.71875,0.34375 0.503702,0.251851 1.662291,0.35618 2.1875,0.53125 0.485477,0.161826 1.454894,0.910869 2.03125,0.71875 1.012439,-0.33748 1.64709,-1.64709 2.40625,-2.40625 0.291655,-0.291655 1.58005,-1.041953 1.65625,-1.15625 0.214874,-0.32231 1.343504,-2.000492 1.0625,-2.5625 -0.07801,-0.156017 -0.4337,-1.21495 -0.4375,-1.21875 C 18.459577,51.272077 18.019325,50.788651 17.6875,50.125 17.444116,49.638234 16.894327,49.601154 16.625,49.0625 16.523232,48.858964 16.285285,48.816535 16.09375,48.625 c -0.526158,-0.526158 -0.647219,-1.004804 -0.875,-1 z M 27.75,48.4375 c -0.670176,0.837719 -1.758744,1.238747 -2.65625,1.6875 -0.605987,0.302993 -4.069811,3.48337 -4.3125,3.96875 -0.143461,0.286921 0.143488,1.924737 0.34375,2.125 0.06785,0.06785 0.26845,0.0561 0.34375,0.09375 0.0527,0.02635 -0.02635,0.13479 0,0.1875 0.104182,0.208365 0.613851,0.395102 0.8125,0.59375 0.307507,0.307507 0.513675,0.727866 0.875,0.96875 0.6145,0.409667 0.765086,1.507543 1.5,1.875 0.5535,0.27675 1.590947,-0.196983 2.03125,-0.34375 0.171794,-0.05726 0.463392,0.0808 0.625,0 0.315306,-0.157653 3.775795,-2.364091 3.96875,-2.75 0.170229,-0.340459 0.455426,-0.629602 0.625,-0.96875 0.126932,-0.253867 -0.09375,-0.810876 -0.09375,-1.15625 0,-1.991317 0.250089,-2.843705 -1.5,-3.71875 -0.787514,-0.393756 -1.973028,-1.462254 -2.5625,-2.5625 z m 9.9375,3.15625 c -1.263005,0.006 -3.183325,0.683325 -3.84375,1.34375 -0.06341,0.06341 -0.43859,1.940758 -0.53125,2.21875 -0.0646,0.193788 -0.34075,0.431495 -0.4375,0.625 -0.257965,0.515848 -0.805107,2.351144 -0.25,2.90625 0.04742,0.04742 -0.053,0.3485 0,0.375 0.276961,0.13848 0.45197,0.615456 0.6875,0.96875 0.306949,0.460423 0.798943,1.524472 1.25,1.75 1.465012,0.732506 4.916849,0.416576 6.4375,-0.34375 0.316219,-0.158109 0.599169,-0.62771 0.90625,-0.78125 0.07138,-0.03569 0.228301,-1.2066 0.34375,-1.4375 0.14134,-0.282673 -0.04277,-0.695713 0.09375,-0.96875 0.92398,-1.847962 -0.565405,-3.034155 -1.6875,-4.15625 -0.830696,-0.830696 -1.277722,-2.002527 -2.46875,-2.46875 -0.148419,-0.02968 -0.319571,-0.03211 -0.5,-0.03125 z m 11.8125,3.125 c -0.145045,0.0082 -0.256754,0.05025 -0.34375,0.09375 -0.966657,0.483329 -3.801638,1.760595 -4.6875,1.40625 -0.199161,1.284956 -0.4375,2.552118 -0.4375,3.90625 0,1.30941 -0.19897,2.644781 0.59375,3.4375 0.205055,0.205056 0.496547,0.312302 0.78125,0.4375 l 8.53125,0 c 0.622651,-0.728481 0.544194,-1.869638 0.9375,-2.65625 0.08968,-0.179355 0,-0.662804 0,-0.875 0,-0.447417 0.127091,-1.214572 -0.0625,-1.59375 -0.176584,-0.353168 -0.54721,-0.62567 -0.71875,-0.96875 -0.13857,-0.27714 -0.412693,-0.756443 -0.625,-0.96875 -0.06512,-0.06512 -0.276873,-0.241246 -0.34375,-0.375 -0.330633,-0.661264 -0.772779,-1.272779 -1.25,-1.75 -0.120599,-0.120599 -0.876557,0 -1.0625,0 -0.275602,0 -0.877365,-0.118218 -1.3125,-0.09375 z m -30.15625,2.125 c -1.216444,0.973156 -2.746142,1.339892 -3.6875,2.28125 -0.264953,0.264953 -0.339483,0.388492 -0.625,0.53125 -0.01651,0.0083 -1.024675,1.743424 -1.25,1.96875 -0.342947,0.342946 -0.830184,0.754119 -1.0625,1.21875 -0.137161,0.274323 -0.02915,0.690163 0.1875,1.15625 l 9.90625,0 c 0.004,-0.146805 0,-0.291538 0,-0.4375 0,-0.152512 -0.07151,-0.575724 0,-0.71875 0.700314,-1.400629 -0.0016,-1.940787 -0.4375,-2.8125 -0.07286,-0.145722 -0.18162,-0.43161 -0.28125,-0.53125 -0.871271,-0.871271 -1.508056,-1.933415 -2.75,-2.65625 z M 64,57.90625 c -0.487985,0.194461 -0.971198,0.36299 -1.34375,0.4375 -1.058472,0.211694 -2.299417,0.540333 -3.15625,0.96875 -0.726076,0.363038 -2.788802,0.796354 -3.1875,1.59375 -0.06468,0.129353 -0.03174,0.313481 -0.09375,0.4375 C 56.036617,61.708015 55.677852,62.921669 55.5,64 l 6.5,0 2,-2 0,-4.09375 z m -56.84375,0.625 c -1.2674917,0.506996 -3.1328337,0.15625 -4.5,0.15625 -0.4037428,0 -0.7076044,0.35045 -0.96875,0.4375 C 1.4057588,59.21891 1.0455374,59.274106 0.78125,59.40625 0.54834511,59.522703 0.26758746,59.854712 0,60.28125 L 0,62 l 2,2 9.40625,0 c -0.01877,-0.299808 -0.04328,-0.579364 -0.09375,-0.78125 -0.08328,-0.33312 -0.26195,-0.672782 -0.34375,-1 -0.15985,-0.639399 0.03223,-1.967767 -0.375,-2.375 -0.145227,-0.145227 -2.9112727,-1.3069 -3.4375,-1.3125 z m 23.25,0.96875 c -0.441729,0.881783 -2.216063,2.301188 -3,2.5625 C 26.373176,62.406859 25.236893,62.866649 24.875,64 L 32,64 33.6875,64 C 33.65989,63.94103 33.61073,63.863434 33.59375,63.8125 33.18569,62.588321 32.739303,61.301803 31.90625,60.46875 31.74781,60.31031 31.302875,60.302875 31.1875,60.1875 30.905175,59.905174 30.868486,59.777342 30.40625,59.5 z"
     style="color:#000000;fill:#e69a3c;fill-opacity:1;fill-rule:nonzero;stroke:none;stroke-width:5;marker:none;visibility:visible;display:inline;overflow:visible;enable-background:accumulate" />
  <path
     inkscape:connector-curvature="0"
     id="path4108"
     d="m 22.185474,20.866488 c 0.334333,-0.06676 1.230315,0.449064 1.502602,0.176777 0.08839,-0.08839 0.08839,-0.265165 0.176777,-0.353553 0.209881,-0.209881 0.675746,0.296526 0.795495,0.176776 0.525713,-0.525713 0.474462,-1.567643 0.883883,-2.386485 0.02269,-0.04539 0.252027,-1.06066 0.265165,-1.06066 0.20624,0 0.09223,0.434252 0,0.618718 -0.210646,0.421292 -0.06593,1.171503 0.176777,1.414214 0.244971,0.244971 1.478232,0.466312 1.767767,0.176776 0.151669,-0.151669 0.770387,-0.328445 0.618718,-0.176776 -0.435263,0.435263 -1.153755,0.967565 -0.53033,1.59099 0.229299,0.229299 1.0702,-0.07885 1.325825,0.176777 0.09192,0.09192 -1.616606,0.290781 -1.679378,0.353553 -0.17516,0.17516 0.117592,0.677125 0.176777,0.795495 0.07501,0.150026 0.249185,0.144817 0.353553,0.353553 0.197457,0.394915 0.289757,0.996864 0.618718,1.325826 0.03566,0.03566 0.377703,0.429867 0.353554,0.441941 -0.560471,0.280236 -2.161933,-0.958734 -3.181981,-0.618718 -0.326472,0.108824 -0.648005,0.971743 -0.795495,1.414213 -0.05732,0.17197 -0.176776,0.425389 -0.176776,0.618719 0,0.05893 0,0.235702 0,0.176777 0,-0.694018 0.121667,-2.193069 -0.441942,-2.474874 -0.339284,-0.169642 -1.203648,-0.387342 -1.59099,0 -0.155711,0.155711 -0.824021,0.382079 -0.795495,0.353553 0.08516,-0.08516 0.992813,-0.275436 1.149048,-0.353553 0.166023,-0.08301 0.109557,-0.395891 0.176777,-0.53033 0.579881,-1.159762 -0.786206,-1.484024 -1.149049,-2.209709 z"
     style="color:#000000;fill:#ffc378;fill-opacity:1;fill-rule:nonzero;stroke:none;stroke-width:5;marker:none;visibility:visible;display:inline;overflow:visible;enable-background:accumulate" />
  <path
     style="color:#000000;fill:#ffc378;fill-opacity:1;fill-rule:nonzero;stroke:none;stroke-width:5;marker:none;visibility:visible;display:inline;overflow:visible;enable-background:accumulate"
     d="m 36.239221,22.36909 c 0.334333,-0.06676 1.230315,0.449064 1.502602,0.176777 0.08839,-0.08839 0.08839,-0.265165 0.176777,-0.353553 0.209881,-0.209881 0.675746,0.296526 0.795495,0.176776 0.525713,-0.525713 0.474462,-1.567643 0.883883,-2.386485 0.02269,-0.04539 0.252027,-1.06066 0.265165,-1.06066 0.20624,0 0.09223,0.434252 0,0.618718 -0.210646,0.421292 -0.06593,1.171503 0.176777,1.414214 0.244971,0.244971 1.478232,0.466312 1.767767,0.176776 0.151669,-0.151669 0.770387,-0.328445 0.618718,-0.176776 -0.435263,0.435263 -1.153755,0.967565 -0.53033,1.59099 0.229299,0.229299 1.0702,-0.07885 1.325825,0.176777 0.09192,0.09192 -1.616606,0.290781 -1.679378,0.353553 -0.17516,0.17516 0.117592,0.677125 0.176777,0.795495 0.07501,0.150026 0.249185,0.144817 0.353553,0.353553 0.197457,0.394915 0.289757,0.996864 0.618718,1.325826 0.03566,0.03566 0.377703,0.429867 0.353554,0.441941 -0.560471,0.280236 -2.161933,-0.958734 -3.181981,-0.618718 -0.326472,0.108824 -0.648005,0.971743 -0.795495,1.414213 -0.05732,0.17197 -0.176776,0.425389 -0.176776,0.618719 0,0.05893 0,0.235702 0,0.176777 0,-0.694018 0.121667,-2.193069 -0.441942,-2.474874 -0.339284,-0.169642 -1.203648,-0.387342 -1.59099,0 -0.155711,0.155711 -0.824021,0.382079 -0.795495,0.353553 0.08516,-0.08516 0.992813,-0.275436 1.149048,-0.353553 0.166023,-0.08301 0.109557,-0.395891 0.176777,-0.53033 0.579881,-1.159762 -0.786206,-1.484024 -1.149049,-2.209709 z"
     id="path4461"
     inkscape:connector-curvature="0" />
  <path
     style="color:#000000;fill:#ffc378;fill-opacity:1;fill-rule:nonzero;stroke:none;stroke-width:5;marker:none;visibility:visible;display:inline;overflow:visible;enable-background:accumulate"
     d="m 48.525201,24.843963 c 0.334333,-0.06676 1.230315,0.449064 1.502602,0.176777 0.08839,-0.08839 0.08839,-0.265165 0.176777,-0.353553 0.209881,-0.209881 0.675746,0.296526 0.795495,0.176776 0.525713,-0.525713 0.474462,-1.567643 0.883883,-2.386485 0.02269,-0.04539 0.252027,-1.06066 0.265165,-1.06066 0.20624,0 0.09223,0.434252 0,0.618718 -0.210646,0.421292 -0.06593,1.171503 0.176777,1.414214 0.244971,0.244971 1.478232,0.466312 1.767767,0.176776 0.151669,-0.151669 0.770387,-0.328445 0.618718,-0.176776 -0.435263,0.435263 -1.153755,0.967565 -0.53033,1.59099 0.229299,0.229299 1.0702,-0.07885 1.325825,0.176777 0.09192,0.09192 -1.616606,0.290781 -1.679378,0.353553 -0.17516,0.17516 0.117592,0.677125 0.176777,0.795495 0.07501,0.150026 0.249185,0.144817 0.353553,0.353553 0.197457,0.394915 0.289757,0.996864 0.618718,1.325826 0.03566,0.03566 0.377703,0.429867 0.353554,0.441941 -0.560471,0.280236 -2.161933,-0.958734 -3.181981,-0.618718 -0.326472,0.108824 -0.648005,0.971743 -0.795495,1.414213 -0.05732,0.17197 -0.176776,0.425389 -0.176776,0.618719 0,0.05893 0,0.235702 0,0.176777 0,-0.694018 0.121667,-2.193069 -0.441942,-2.474874 -0.339284,-0.169642 -1.203648,-0.387342 -1.59099,0 -0.155711,0.155711 -0.824021,0.382079 -0.795495,0.353553 0.08516,-0.08516 0.992813,-0.275436 1.149048,-0.353553 0.166023,-0.08301 0.109557,-0.395891 0.176777,-0.53033 0.579881,-1.159762 -0.786206,-1.484024 -1.149049,-2.209709 z"
     id="path4455"
     inkscape:connector-curvature="0" />
  <path
     style="color:#000000;fill:#ffc378;fill-opacity:1;fill-rule:nonzero;stroke:none;stroke-width:5;marker:none;visibility:visible;display:inline;overflow:visible;enable-background:accumulate"
     d="m 40.272435,38.220361 c 0.09772,-0.326629 0.973301,-0.876366 0.860382,-1.244509 -0.03666,-0.119507 -0.192814,-0.202356 -0.229469,-0.32186 -0.08704,-0.283768 0.578644,-0.457964 0.528983,-0.61987 -0.218016,-0.710786 -1.16245,-1.153833 -1.693911,-1.89927 -0.02946,-0.04132 -0.818842,-0.719732 -0.812685,-0.731338 0.09666,-0.182187 0.426833,0.122047 0.54656,0.289974 0.273435,0.383525 1.003976,0.607287 1.332129,0.506637 0.331212,-0.101591 1.104729,-1.087286 0.984657,-1.47875 -0.0629,-0.205063 0.07092,-0.834472 0.133814,-0.629409 0.180506,0.588495 0.313993,1.472665 1.15689,1.214127 0.310022,-0.09509 0.431916,-0.982341 0.777533,-1.088349 0.12428,-0.03812 -0.500784,1.564348 -0.474752,1.649218 0.07264,0.236824 0.653266,0.21347 0.785569,0.216663 0.167684,0.0041 0.244713,-0.152252 0.478019,-0.14662 0.4414,0.01066 1.016404,0.211235 1.461174,0.07481 0.04821,-0.01479 0.556751,-0.132188 0.556099,-0.105197 -0.01512,0.626444 -1.860151,1.460467 -2.037854,2.520906 -0.05688,0.339399 0.554712,1.027856 0.876455,1.365517 0.12505,0.131232 0.292928,0.355526 0.463711,0.446134 0.05206,0.02762 0.208213,0.110466 0.15616,0.08285 -0.613077,-0.325264 -1.880279,-1.1353 -2.393364,-0.769496 -0.308869,0.220209 -0.90628,0.881737 -0.745647,1.40544 0.06457,0.210528 -0.04867,0.906987 -0.0605,0.868418 -0.03532,-0.11514 0.221987,-1.006113 0.226203,-1.180738 0.0045,-0.185565 -0.298374,-0.282321 -0.38563,-0.404709 -0.752731,-1.055796 -1.679418,-0.001 -2.490522,-0.02058 z"
     id="path4449"
     inkscape:connector-curvature="0" />
  <path
     style="color:#000000;fill:#ffc378;fill-opacity:1;fill-rule:nonzero;stroke:none;stroke-width:5;marker:none;visibility:visible;display:inline;overflow:visible;enable-background:accumulate"
     d="m 29.488484,29.834074 c 0.22024,0.26025 0.202525,1.293954 0.572583,1.400433 0.120128,0.03457 0.274817,-0.051 0.394943,-0.01643 0.285243,0.08207 0.06759,0.734842 0.230336,0.781669 0.714482,0.205582 1.601431,-0.343569 2.516132,-0.381627 0.0507,-0.0021 1.050128,-0.29283 1.056487,-0.281334 0.09982,0.180473 -0.335358,0.290889 -0.541417,0.299466 -0.470612,0.01958 -1.05705,0.509325 -1.151965,0.839183 -0.0958,0.332934 0.307426,1.519246 0.700926,1.632469 0.206129,0.05931 0.660284,0.515166 0.454155,0.455856 -0.591553,-0.170211 -1.405108,-0.541298 -1.648901,0.305982 -0.08967,0.311633 0.586986,0.898328 0.487021,1.245741 -0.03595,0.124926 -1.036904,-1.273891 -1.122216,-1.298438 -0.238055,-0.0685 -0.535611,0.430635 -0.610546,0.539718 -0.09498,0.138253 -0.0061,0.288145 -0.138258,0.480504 -0.250004,0.36393 -0.732074,0.736047 -0.860716,1.183129 -0.01394,0.04847 -0.193349,0.538574 -0.215603,0.523286 -0.516497,-0.354811 -0.207443,-2.355863 -0.998691,-3.083899 -0.253243,-0.233011 -1.163977,-0.09671 -1.622552,-0.01161 -0.178228,0.03308 -0.457803,0.0512 -0.626979,0.144775 -0.05157,0.02852 -0.206254,0.114082 -0.154691,0.08556 0.607309,-0.335911 1.977961,-0.955 1.951766,-1.584589 -0.01577,-0.379003 -0.243628,-1.240745 -0.770054,-1.392216 -0.211623,-0.06089 -0.733177,-0.536141 -0.694408,-0.524986 0.115738,0.0333 0.721554,0.735461 0.865531,0.834367 0.152995,0.105103 0.399456,-0.09575 0.549634,-0.101994 1.295532,-0.0539 0.918083,-1.406261 1.377483,-2.07501 z"
     id="path4443"
     inkscape:connector-curvature="0" />
  <path
     style="color:#000000;fill:#ffc378;fill-opacity:1;fill-rule:nonzero;stroke:none;stroke-width:5;marker:none;visibility:visible;display:inline;overflow:visible;enable-background:accumulate"
     d="m 19.447004,30.36344 c -0.139743,0.310978 -1.079905,0.741039 -1.016282,1.120818 0.02065,0.123285 0.164586,0.225913 0.18524,0.349193 0.04904,0.292738 -0.633747,0.378055 -0.605765,0.545079 0.122839,0.733252 1.000952,1.296423 1.429977,2.105167 0.02378,0.04483 0.717293,0.820979 0.709666,0.831676 -0.119734,0.167925 -0.407121,-0.177013 -0.503772,-0.359201 -0.220732,-0.416097 -0.915584,-0.733807 -1.254109,-0.677098 -0.34168,0.05724 -1.237879,0.932884 -1.170225,1.336721 0.03544,0.211545 -0.179828,0.817946 -0.215267,0.606401 -0.101705,-0.607095 -0.117989,-1.501136 -0.987528,-1.355466 -0.319821,0.05358 -0.557111,0.917154 -0.913653,0.976883 -0.128208,0.02148 0.701773,-1.485087 0.687106,-1.57264 -0.04093,-0.244309 -0.619597,-0.297364 -0.750336,-0.317895 -0.165702,-0.02602 -0.26258,0.118816 -0.493128,0.08261 -0.436183,-0.0685 -0.979886,-0.342812 -1.438714,-0.265947 -0.04974,0.0083 -0.569285,0.05797 -0.565096,0.0313 0.09721,-0.61904 2.035747,-1.203687 2.351096,-2.231629 0.100929,-0.328998 -0.415008,-1.091771 -0.689649,-1.468739 -0.106744,-0.14651 -0.243731,-0.390898 -0.401144,-0.503137 -0.04798,-0.03421 -0.191914,-0.136838 -0.143936,-0.102629 0.565083,0.402917 1.715005,1.372266 2.271663,1.076969 0.3351,-0.177764 1.014168,-0.755159 0.923661,-1.295414 -0.03638,-0.217182 0.167296,-0.892753 0.173961,-0.852966 0.0199,0.11878 -0.352119,0.968274 -0.379219,1.140835 -0.0288,0.183371 0.258738,0.319041 0.329176,0.451823 0.607646,1.145458 1.664759,0.221417 2.466277,0.347285 z"
     id="path4437"
     inkscape:connector-curvature="0" />
  <path
     style="color:#000000;fill:#ffc378;fill-opacity:1;fill-rule:nonzero;stroke:none;stroke-width:5;marker:none;visibility:visible;display:inline;overflow:visible;enable-background:accumulate"
     d="m 20.300564,40.042075 c 0.264522,0.215089 0.438057,1.234277 0.821415,1.270567 0.124446,0.01178 0.260669,-0.100882 0.385111,-0.0891 0.295496,0.02797 0.202164,0.709711 0.370762,0.725671 0.740162,0.07007 1.510408,-0.633472 2.402339,-0.839837 0.04944,-0.01144 0.977965,-0.481769 0.986339,-0.471645 0.131441,0.158928 -0.275854,0.34783 -0.476784,0.394322 -0.458896,0.106174 -0.944777,0.695817 -0.977128,1.037531 -0.03265,0.3449 0.582769,1.436314 0.990412,1.474902 0.213537,0.02022 0.744082,0.384335 0.530545,0.364121 -0.612816,-0.05801 -1.480917,-0.272433 -1.564005,0.605299 -0.03056,0.322834 0.742822,0.774442 0.708751,1.134343 -0.01225,0.129416 -1.254372,-1.060434 -1.34275,-1.0688 -0.246611,-0.02334 -0.446848,0.522162 -0.500344,0.643209 -0.0678,0.153418 0.04722,0.284317 -0.04712,0.497774 -0.178478,0.403848 -0.583514,0.858609 -0.627358,1.32176 -0.0048,0.05021 -0.09054,0.565021 -0.115232,0.554106 -0.57315,-0.253298 -0.639046,-2.277003 -1.551159,-2.846352 -0.291927,-0.182223 -1.161811,0.11996 -1.596776,0.2883 -0.169051,0.06543 -0.440468,0.134886 -0.589447,0.258099 -0.04541,0.03756 -0.181632,0.150218 -0.136225,0.112663 0.53481,-0.442312 1.767517,-1.303931 1.625476,-1.917848 -0.08551,-0.369568 -0.468624,-1.17439 -1.01397,-1.226015 -0.219229,-0.02075 -0.819596,-0.391482 -0.779433,-0.38768 0.119898,0.01135 0.844991,0.589519 1.004759,0.660128 0.169778,0.07503 0.374896,-0.167885 0.521335,-0.201766 1.263282,-0.292285 0.642522,-1.551649 0.970487,-2.293749 z"
     id="path4431"
     inkscape:connector-curvature="0" />
  <path
     style="color:#000000;fill:#ffc378;fill-opacity:1;fill-rule:nonzero;stroke:none;stroke-width:5;marker:none;visibility:visible;display:inline;overflow:visible;enable-background:accumulate"
     d="m 31.024309,43.405516 c 0.334333,-0.06676 1.230315,0.449064 1.502602,0.176777 0.08839,-0.08839 0.08839,-0.265165 0.176777,-0.353553 0.209881,-0.209881 0.675746,0.296526 0.795495,0.176776 0.525713,-0.525713 0.474462,-1.567643 0.883883,-2.386485 0.02269,-0.04539 0.252027,-1.06066 0.265165,-1.06066 0.20624,0 0.09223,0.434252 0,0.618718 -0.210646,0.421292 -0.06593,1.171503 0.176777,1.414214 0.244971,0.244971 1.478232,0.466312 1.767767,0.176776 0.151669,-0.151669 0.770387,-0.328445 0.618718,-0.176776 -0.435263,0.435263 -1.153755,0.967565 -0.53033,1.59099 0.229299,0.229299 1.0702,-0.07885 1.325825,0.176777 0.09192,0.09192 -1.616606,0.290781 -1.679378,0.353553 -0.17516,0.17516 0.117592,0.677125 0.176777,0.795495 0.07501,0.150026 0.249185,0.144817 0.353553,0.353553 0.197457,0.394915 0.289757,0.996864 0.618718,1.325826 0.03566,0.03566 0.377703,0.429867 0.353554,0.441941 -0.560471,0.280236 -2.161933,-0.958734 -3.181981,-0.618718 -0.326472,0.108824 -0.648005,0.971743 -0.795495,1.414213 -0.05732,0.17197 -0.176776,0.425389 -0.176776,0.618719 0,0.05893 0,0.235702 0,0.176777 0,-0.694018 0.121667,-2.193069 -0.441942,-2.474874 -0.339284,-0.169642 -1.203648,-0.387342 -1.59099,0 -0.155711,0.155711 -0.824021,0.382079 -0.795495,0.353553 0.08516,-0.08516 0.992813,-0.275436 1.149048,-0.353553 0.166023,-0.08301 0.109557,-0.395891 0.176777,-0.53033 0.579881,-1.159762 -0.786206,-1.484024 -1.149049,-2.209709 z"
     id="path4425"
     inkscape:connector-curvature="0" />
  <path
     style="color:#000000;fill:#ffc378;fill-opacity:1;fill-rule:nonzero;stroke:none;stroke-width:5;marker:none;visibility:visible;display:inline;overflow:visible;enable-background:accumulate"
     d="m 42.603182,47.382991 c 0.334333,-0.06676 1.230315,0.449064 1.502602,0.176777 0.08839,-0.08839 0.08839,-0.265165 0.176777,-0.353553 0.209881,-0.209881 0.675746,0.296526 0.795495,0.176776 0.525713,-0.525713 0.474462,-1.567643 0.883883,-2.386485 0.02269,-0.04539 0.252027,-1.06066 0.265165,-1.06066 0.20624,0 0.09223,0.434252 0,0.618718 -0.210646,0.421292 -0.06593,1.171503 0.176777,1.414214 0.244971,0.244971 1.478232,0.466312 1.767767,0.176776 0.151669,-0.151669 0.770387,-0.328445 0.618718,-0.176776 -0.435263,0.435263 -1.153755,0.967565 -0.53033,1.59099 0.229299,0.229299 1.0702,-0.07885 1.325825,0.176777 0.09192,0.09192 -1.616606,0.290781 -1.679378,0.353553 -0.17516,0.17516 0.117592,0.677125 0.176777,0.795495 0.07501,0.150026 0.249185,0.144817 0.353553,0.353553 0.197457,0.394915 0.289757,0.996864 0.618718,1.325826 0.03566,0.03566 0.377703,0.429867 0.353554,0.441941 -0.560471,0.280236 -2.161933,-0.958734 -3.181981,-0.618718 -0.326472,0.108824 -0.648005,0.971743 -0.795495,1.414213 -0.05732,0.17197 -0.176776,0.425389 -0.176776,0.618719 0,0.05893 0,0.235702 0,0.176777 0,-0.694018 0.121667,-2.193069 -0.441942,-2.474874 -0.339284,-0.169642 -1.203648,-0.387342 -1.59099,0 -0.155711,0.155711 -0.824021,0.382079 -0.795495,0.353553 0.08516,-0.08516 0.992813,-0.275436 1.149048,-0.353553 0.166023,-0.08301 0.109557,-0.395891 0.176777,-0.53033 0.579881,-1.159762 -0.786206,-1.484024 -1.149049,-2.209709 z"
     id="path4419"
     inkscape:connector-curvature="0" />
  <path
     style="color:#000000;fill:#ffc378;fill-opacity:1;fill-rule:nonzero;stroke:none;stroke-width:5;marker:none;visibility:visible;display:inline;overflow:visible;enable-background:accumulate"
     d="m 55.684657,50.918525 c 0.334333,-0.06676 1.230315,0.449064 1.502602,0.176777 0.08839,-0.08839 0.08839,-0.265165 0.176777,-0.353553 0.209881,-0.209881 0.675746,0.296526 0.795495,0.176776 0.525713,-0.525713 0.474462,-1.567643 0.883883,-2.386485 0.02269,-0.04539 0.252027,-1.06066 0.265165,-1.06066 0.20624,0 0.09223,0.434252 0,0.618718 -0.210646,0.421292 -0.06593,1.171503 0.176777,1.414214 0.244971,0.244971 1.478232,0.466312 1.767767,0.176776 0.151669,-0.151669 0.770387,-0.328445 0.618718,-0.176776 -0.435263,0.435263 -1.153755,0.967565 -0.53033,1.59099 0.229299,0.229299 1.0702,-0.07885 1.325825,0.176777 0.09192,0.09192 -1.616606,0.290781 -1.679378,0.353553 -0.17516,0.17516 0.117592,0.677125 0.176777,0.795495 0.07501,0.150026 0.249185,0.144817 0.353553,0.353553 0.197457,0.394915 0.289757,0.996864 0.618718,1.325826 0.03566,0.03566 0.377703,0.429867 0.353554,0.441941 -0.560471,0.280236 -2.161933,-0.958734 -3.181981,-0.618718 -0.326472,0.108824 -0.648005,0.971743 -0.795495,1.414213 -0.05732,0.17197 -0.176776,0.425389 -0.176776,0.618719 0,0.05893 0,0.235702 0,0.176777 0,-0.694018 0.121667,-2.193069 -0.441942,-2.474874 -0.339284,-0.169642 -1.203648,-0.387342 -1.59099,0 -0.155711,0.155711 -0.824021,0.382079 -0.795495,0.353553 0.08516,-0.08516 0.992813,-0.275436 1.149048,-0.353553 0.166023,-0.08301 0.109557,-0.395891 0.176777,-0.53033 0.579881,-1.159762 -0.786206,-1.484024 -1.149049,-2.209709 z"
     id="path4413"
     inkscape:connector-curvature="0" />
  <path
     style="color:#000000;fill:#ffc378;fill-opacity:1;fill-rule:nonzero;stroke:none;stroke-width:5;marker:none;visibility:visible;display:inline;overflow:visible;enable-background:accumulate"
     d="m 50.734909,38.89771 c 0.334333,-0.06676 1.230315,0.449064 1.502602,0.176777 0.08839,-0.08839 0.08839,-0.265165 0.176777,-0.353553 0.209881,-0.209881 0.675746,0.296526 0.795495,0.176776 0.525713,-0.525713 0.474462,-1.567643 0.883883,-2.386485 0.02269,-0.04539 0.252027,-1.06066 0.265165,-1.06066 0.20624,0 0.09223,0.434252 0,0.618718 -0.210646,0.421292 -0.06593,1.171503 0.176777,1.414214 0.244971,0.244971 1.478232,0.466312 1.767767,0.176776 0.151669,-0.151669 0.770387,-0.328445 0.618718,-0.176776 -0.435263,0.435263 -1.153755,0.967565 -0.53033,1.59099 0.229299,0.229299 1.0702,-0.07885 1.325825,0.176777 0.09192,0.09192 -1.616606,0.290781 -1.679378,0.353553 -0.17516,0.17516 0.117592,0.677125 0.176777,0.795495 0.07501,0.150026 0.249185,0.144817 0.353553,0.353553 0.197457,0.394915 0.289757,0.996864 0.618718,1.325826 0.03566,0.03566 0.377703,0.429867 0.353554,0.441941 -0.560471,0.280236 -2.161933,-0.958734 -3.181981,-0.618718 -0.326472,0.108824 -0.648005,0.971743 -0.795495,1.414213 -0.05732,0.17197 -0.176776,0.425389 -0.176776,0.618719 0,0.05893 0,0.235702 0,0.176777 0,-0.694018 0.121667,-2.193069 -0.441942,-2.474874 -0.339284,-0.169642 -1.203648,-0.387342 -1.59099,0 -0.155711,0.155711 -0.824021,0.382079 -0.795495,0.353553 0.08516,-0.08516 0.992813,-0.275436 1.149048,-0.353553 0.166023,-0.08301 0.109557,-0.395891 0.176777,-0.53033 0.579881,-1.159762 -0.786206,-1.484024 -1.149049,-2.209709 z"
     id="path4407"
     inkscape:connector-curvature="0" />
  <path
     style="color:#000000;fill:#ffc378;fill-opacity:1;fill-rule:nonzero;stroke:none;stroke-width:5;marker:none;visibility:visible;display:inline;overflow:visible;enable-background:accumulate"
     d="M 62.3125 24.65625 C 62.261214 24.761809 62.219465 25.163967 62.28125 25.3125 C 62.438507 25.690563 61.757373 26.741948 61.4375 26.875 C 61.120579 27.006821 60.37164 26.855375 60.0625 26.5 C 59.92714 26.344404 59.57864 26.059343 59.5 26.25 C 59.49499 26.262146 60.34169 26.86797 60.375 26.90625 C 60.975858 27.596972 61.964468 27.938546 62.25 28.625 C 62.315041 28.781364 61.667257 29.038446 61.78125 29.3125 C 61.829257 29.427913 61.98324 29.478334 62.03125 29.59375 C 62.179139 29.949292 61.37827 30.60297 61.3125 30.9375 C 62.121714 30.878784 62.930229 29.740449 63.78125 30.71875 C 63.82337 30.76717 63.920194 30.79942 64 30.84375 L 64 26.3125 C 63.992037 26.301741 63.973971 26.293802 63.96875 26.28125 C 63.965715 26.273953 63.995851 26.154922 64 26.125 L 64 25.03125 C 63.887878 25.332055 63.805708 25.674834 63.625 25.75 C 62.810957 26.088602 62.580156 25.224599 62.34375 24.65625 C 62.3386 24.643872 62.317537 24.662398 62.3125 24.65625 z "
     id="path4401" />
  <path
     style="color:#000000;fill:#ffc378;fill-opacity:1;fill-rule:nonzero;stroke:none;stroke-width:5;marker:none;visibility:visible;display:inline;overflow:visible;enable-background:accumulate"
     d="m 52.56231,3.0957466 c 0.264522,0.215089 0.438057,1.2342769 0.821415,1.2705668 0.124446,0.01178 0.260669,-0.1008819 0.385111,-0.089103 0.295496,0.027972 0.202164,0.7097111 0.370762,0.7256704 0.740162,0.070066 1.510408,-0.6334714 2.402339,-0.8398371 0.04944,-0.011443 0.977965,-0.4817688 0.986339,-0.4716447 0.131441,0.1589283 -0.275854,0.3478301 -0.476784,0.3943218 -0.458896,0.1061745 -0.944777,0.6958175 -0.977128,1.0375319 -0.03265,0.3448994 0.582769,1.436314 0.990412,1.474902 0.213537,0.020214 0.744082,0.3843344 0.530545,0.3641203 -0.612816,-0.058011 -1.480917,-0.272433 -1.564005,0.6052991 -0.03056,0.3228346 0.742822,0.7744421 0.708751,1.1343427 -0.01225,0.129416 -1.254372,-1.0604338 -1.34275,-1.0687999 -0.246611,-0.023345 -0.446848,0.522162 -0.500344,0.6432095 -0.0678,0.1534173 0.04721,0.2843165 -0.04712,0.4977742 -0.178478,0.4038476 -0.583514,0.8586083 -0.627358,1.3217599 -0.0048,0.05021 -0.09054,0.56502 -0.115232,0.554106 -0.57315,-0.253298 -0.639046,-2.2770038 -1.551159,-2.8463522 -0.291927,-0.1822231 -1.161811,0.11996 -1.596776,0.2882997 -0.169051,0.065429 -0.440468,0.1348858 -0.589447,0.258099 -0.04541,0.037557 -0.181632,0.1502178 -0.136225,0.1126637 0.53481,-0.442312 1.767517,-1.3039318 1.625476,-1.9178483 -0.08551,-0.3695681 -0.468624,-1.1743906 -1.01397,-1.2260148 -0.219229,-0.020753 -0.819596,-0.3914827 -0.779433,-0.3876808 0.119898,0.01135 0.844991,0.5895193 1.004759,0.6601283 0.169778,0.075033 0.374896,-0.1678851 0.521335,-0.2017662 1.263282,-0.2922847 0.642522,-1.5516485 0.970487,-2.2937488 z"
     id="path4280"
     inkscape:connector-curvature="0" />
  <path
     style="color:#000000;fill:#ffc378;fill-opacity:1;fill-rule:nonzero;stroke:none;stroke-width:5;marker:none;visibility:visible;display:inline;overflow:visible;enable-background:accumulate"
     d="m 38.312317,4.4893981 c 0.243583,-0.048639 0.896364,0.327172 1.094742,0.1287934 0.0644,-0.064398 0.0644,-0.1931898 0.128794,-0.2575861 0.152912,-0.1529118 0.492324,0.2160382 0.579569,0.1287927 0.383016,-0.3830158 0.345676,-1.1421288 0.643966,-1.7387079 0.01653,-0.03307 0.183618,-0.7727591 0.19319,-0.7727591 0.150259,0 0.06719,0.3163806 0,0.4507759 -0.15347,0.3069383 -0.04804,0.8535153 0.128793,1.0303459 0.178477,0.1784771 1.076987,0.3397383 1.287932,0.1287927 0.110501,-0.1105006 0.561276,-0.2392933 0.450776,-0.1287927 -0.317117,0.3171171 -0.840585,0.7049334 -0.38638,1.1591386 0.167059,0.1670591 0.77971,-0.057447 0.965949,0.1287934 0.06697,0.06697 -1.177801,0.2118527 -1.223535,0.2575861 -0.127615,0.1276153 0.08567,0.4933291 0.128794,0.5795693 0.05465,0.1093036 0.181547,0.1055085 0.257586,0.2575861 0.14386,0.287721 0.211106,0.7262796 0.450776,0.9659495 0.02598,0.025981 0.275181,0.3131858 0.257586,0.3219825 -0.408339,0.20417 -1.575107,-0.6984994 -2.318277,-0.4507759 -0.237856,0.079285 -0.472114,0.7079773 -0.57957,1.0303452 -0.04176,0.1252912 -0.128792,0.3099232 -0.128792,0.4507766 0,0.042934 0,0.1717241 0,0.1287934 0,-0.5056368 0.08864,-1.5977919 -0.321984,-1.8031049 -0.24719,-0.1235951 -0.876935,-0.2822036 -1.159138,0 -0.113446,0.1134454 -0.600352,0.2783691 -0.579569,0.2575861 0.06204,-0.062045 0.723328,-0.2006729 0.837155,-0.2575861 0.120958,-0.060478 0.07982,-0.2884321 0.128793,-0.3863796 C 39.571954,5.254352 38.576672,5.0181063 38.312317,4.4893981 z"
     id="path4286"
     inkscape:connector-curvature="0" />
  <path
     style="color:#000000;fill:#ffc378;fill-opacity:1;fill-rule:nonzero;stroke:none;stroke-width:5;marker:none;visibility:visible;display:inline;overflow:visible;enable-background:accumulate"
     d="m 23.962008,6.7691198 c 0.350833,-0.070055 1.291034,0.4712262 1.576758,0.1855013 0.09275,-0.092752 0.09275,-0.2782514 0.185502,-0.3710015 0.220239,-0.220239 0.709095,0.3111601 0.834754,0.1855002 0.551658,-0.5516579 0.497877,-1.6450091 0.927504,-2.5042625 0.02381,-0.04763 0.264465,-1.1130056 0.278252,-1.1130056 0.216418,0 0.09678,0.4556831 0,0.6492529 -0.221042,0.4420835 -0.06918,1.2293189 0.185501,1.4840081 0.257061,0.2570608 1.551185,0.4893254 1.85501,0.1855003 0.159154,-0.1591542 0.808407,-0.3446544 0.649252,-0.1855003 -0.456744,0.4567441 -1.210695,1.0153162 -0.556502,1.6695084 0.240615,0.2406154 1.123016,-0.082741 1.391257,0.1855013 0.09646,0.096456 -1.696389,0.3051316 -1.762259,0.3710015 -0.183804,0.1838045 0.123395,0.7105424 0.185501,0.8347542 0.07871,0.1574301 0.261483,0.151964 0.371002,0.3710015 0.207202,0.4144048 0.304057,1.0460611 0.649253,1.3912584 0.03742,0.03742 0.396343,0.451081 0.371002,0.463751 -0.588131,0.294066 -2.268628,-1.0060491 -3.339017,-0.6492526 -0.342584,0.1141946 -0.679986,1.0197006 -0.834755,1.4840066 -0.06015,0.180458 -0.1855,0.446383 -0.1855,0.649254 0,0.06184 0,0.247335 0,0.185502 0,-0.728269 0.127672,-2.3013014 -0.463753,-2.597014 -0.356028,-0.1780142 -1.26305,-0.4064581 -1.669508,0 -0.163396,0.1633956 -0.864688,0.400935 -0.834754,0.371001 0.08936,-0.089362 1.04181,-0.2890288 1.205756,-0.371001 0.174216,-0.087107 0.114963,-0.415429 0.185501,-0.5565028 0.608499,-1.2169985 -0.825007,-1.5572634 -1.205757,-2.3187624 z"
     id="path4292"
     inkscape:connector-curvature="0" />
  <path
     style="color:#000000;fill:#ffc378;fill-opacity:1;fill-rule:nonzero;stroke:none;stroke-width:5;marker:none;visibility:visible;display:inline;overflow:visible;enable-background:accumulate"
     d="M 2.7488053,7.3878378 C 3.0996383,7.3177831 4.0398387,7.859064 4.3255636,7.5733391 4.4183158,7.4805869 4.4183158,7.2950877 4.5110648,7.2023376 4.7313039,6.9820986 5.2201602,7.5134977 5.345819,7.3878378 5.897477,6.8361799 5.8436966,5.7428287 6.2733233,4.8835753 c 0.02381,-0.04763 0.264465,-1.1130056 0.2782514,-1.1130056 0.2164184,0 0.096782,0.4556831 0,0.6492529 C 6.330533,4.8619061 6.482391,5.6491415 6.737076,5.9038307 6.9941368,6.1608915 8.2882616,6.3931561 8.5920857,6.089331 8.7512398,5.9301768 9.4004927,5.7446766 9.2413386,5.9038307 8.7845945,6.3605748 8.0306436,6.9191469 8.6848358,7.5733391 8.9254511,7.8139545 9.8078522,7.4905977 10.076093,7.7588404 10.172549,7.8552968 8.3797042,8.063972 8.3138343,8.1298419 8.1300298,8.3136464 8.4372297,8.8403843 8.4993356,8.9645961 c 0.078712,0.1574301 0.2614827,0.151964 0.3710015,0.3710015 0.2072018,0.4144048 0.304057,1.0460614 0.6492529,1.3912584 0.03742,0.03742 0.3963433,0.451081 0.3710025,0.463751 -0.5881313,0.294066 -2.2686285,-1.006049 -3.3390178,-0.649253 -0.342584,0.114195 -0.6799852,1.019701 -0.8347542,1.484007 -0.060149,0.180458 -0.1855002,0.446383 -0.1855002,0.649254 0,0.06184 0,0.247335 0,0.185502 0,-0.728269 0.1276715,-2.301301 -0.4637527,-2.597014 -0.3560283,-0.178014 -1.2630503,-0.4064581 -1.6695083,0 -0.1633957,0.163396 -0.864688,0.400935 -0.8347542,0.371001 0.089363,-0.08936 1.0418102,-0.289029 1.2057557,-0.371001 C 3.9432773,10.175996 3.8840246,9.847674 3.954562,9.7066002 4.5630613,8.4896017 3.1295553,8.1493368 2.7488053,7.3878378 z"
     id="path4299"
     inkscape:connector-curvature="0" />
  <path
     style="color:#000000;fill:#ffc378;fill-opacity:1;fill-rule:nonzero;stroke:none;stroke-width:5;marker:none;visibility:visible;display:inline;overflow:visible;enable-background:accumulate"
     d="m 6.5188167,21.06393 c 0.293083,-0.05852 1.0785188,0.393658 1.3172111,0.154966 0.077484,-0.07748 0.077484,-0.232449 0.1549663,-0.309932 0.1839859,-0.183986 0.5923725,0.259941 0.6973469,0.154966 0.4608506,-0.460851 0.4159229,-1.374228 0.7748296,-2.092041 0.019891,-0.03979 0.2209319,-0.929796 0.232449,-0.929796 0.1807941,0 0.080851,0.380674 0,0.542381 -0.1846566,0.369313 -0.057796,1.026963 0.1549662,1.239728 0.2147462,0.214747 1.2958482,0.408779 1.5496602,0.154965 0.132956,-0.132956 0.675337,-0.287921 0.542381,-0.154965 -0.381561,0.38156 -1.011405,0.848187 -0.464898,1.394694 0.201008,0.201008 0.938158,-0.06912 1.162244,0.154966 0.08058,0.08058 -1.417149,0.254905 -1.472176,0.309932 -0.153549,0.153549 0.103083,0.593581 0.154966,0.697347 0.06576,0.131516 0.218441,0.126949 0.309932,0.309931 0.173095,0.346191 0.254007,0.873871 0.542381,1.162246 0.03126,0.03126 0.331102,0.37683 0.309932,0.387415 -0.49132,0.24566 -1.895194,-0.840446 -2.7893884,-0.542381 -0.286192,0.0954 -0.5680543,0.851849 -0.697347,1.239727 -0.050248,0.150753 -0.1549654,0.372905 -0.1549654,0.542382 0,0.05166 0,0.206621 0,0.154966 0,-0.60839 0.1066558,-1.922488 -0.3874152,-2.169524 -0.2974232,-0.148712 -1.055142,-0.339552 -1.3946938,0 -0.1364994,0.136499 -0.7223534,0.334938 -0.6973469,0.309932 0.074653,-0.07465 0.8703198,-0.241453 1.0072785,-0.309932 0.1455391,-0.07277 0.09604,-0.347046 0.1549663,-0.464898 C 8.0344315,21.984334 6.8368921,21.70008 6.5188167,21.06393 z"
     id="path4395"
     inkscape:connector-curvature="0" />
  <path
     style="color:#000000;fill:#ffc378;fill-opacity:1;fill-rule:nonzero;stroke:none;stroke-width:5;marker:none;visibility:visible;display:inline;overflow:visible;enable-background:accumulate"
     d="M 2.8125 26.53125 C 2.8009829 26.53125 2.582391 27.42896 2.5625 27.46875 C 2.2035933 28.186564 2.2421006 29.101649 1.78125 29.5625 C 1.6762756 29.667475 1.2777359 29.222264 1.09375 29.40625 C 1.0162681 29.483732 1.0149844 29.64127 0.9375 29.71875 C 0.77256097 29.88369 0.34421982 29.723373 0 29.625 L 0 29.96875 C 0.44716782 30.364729 1.0062515 30.737497 0.625 31.5 C 0.59207056 31.565858 0.61191829 31.680157 0.59375 31.78125 C 0.94789419 31.737273 1.3580216 31.835261 1.5625 31.9375 C 2.0248998 32.1687 1.9475769 33.3215 1.9375 33.96875 C 1.9375 33.799273 2.043502 33.588252 2.09375 33.4375 C 2.2230427 33.049622 2.526308 32.2829 2.8125 32.1875 C 3.7066946 31.889435 5.1024298 32.96441 5.59375 32.71875 C 5.6149195 32.708166 5.31251 32.37501 5.28125 32.34375 C 4.9928762 32.055375 4.9230948 31.53369 4.75 31.1875 C 4.6585089 31.004518 4.503255 31.006516 4.4375 30.875 C 4.3856173 30.771235 4.1277012 30.309799 4.28125 30.15625 C 4.3362772 30.101223 5.830579 29.92433 5.75 29.84375 C 5.525914 29.619663 4.7947581 29.919758 4.59375 29.71875 C 4.0472431 29.172243 4.6809397 28.694061 5.0625 28.3125 C 5.1954561 28.179544 4.6329561 28.335794 4.5 28.46875 C 4.2461878 28.722563 3.1834965 28.527247 2.96875 28.3125 C 2.7559878 28.099735 2.6278434 27.431813 2.8125 27.0625 C 2.893351 26.900793 2.9932941 26.53125 2.8125 26.53125 z M 0.59375 31.78125 C 0.43277537 31.80124 0.26235993 31.83139 0.15625 31.9375 C 0.12932581 31.964424 0.053753609 32.001696 0 32.03125 L 0 32.0625 C 0.19674085 32.010799 0.40877603 31.967487 0.46875 31.9375 C 0.53295843 31.905396 0.57940661 31.86106 0.59375 31.78125 z "
     id="path4389" />
  <path
     style="color:#000000;fill:#ffc378;fill-opacity:1;fill-rule:nonzero;stroke:none;stroke-width:5;marker:none;visibility:visible;display:inline;overflow:visible;enable-background:accumulate"
     d="M 5.8685313,43.423141 C 5.9603883,43.138739 6.7382242,42.673605 6.6462667,42.34881 6.6164154,42.243375 6.4811328,42.167793 6.4512817,42.062361 6.3804002,41.812007 6.967129,41.672008 6.9266863,41.529166 6.7491412,40.902074 5.9298584,40.495809 5.4782654,39.832383 5.4532306,39.795612 4.7743182,39.186016 4.7799355,39.175962 c 0.08818,-0.157832 0.3717588,0.115086 0.4734935,0.264539 0.2323434,0.34133 0.8683408,0.551341 1.1578546,0.469375 0.2922114,-0.08273 0.9888916,-0.931887 0.8911084,-1.277257 -0.051222,-0.180917 0.078033,-0.729993 0.1292551,-0.549076 0.1469981,0.5192 0.2471612,1.296639 0.990808,1.086094 0.2735172,-0.07744 0.3972313,-0.852717 0.7021528,-0.939047 0.1096459,-0.03104 -0.4686653,1.361485 -0.4474658,1.436362 0.059156,0.208938 0.5684689,0.19952 0.6843603,0.204837 0.1468834,0.0067 0.2173672,-0.128779 0.4217325,-0.119402 0.3866461,0.01774 0.8867701,0.204472 1.2791691,0.09338 0.04254,-0.01204 0.490459,-0.105256 0.489374,-0.08161 -0.02518,0.548735 -1.6580554,1.244572 -1.8339783,2.170573 -0.056305,0.296371 0.4665963,0.911384 0.7421503,1.213437 0.107098,0.117393 0.24996,0.317162 0.397912,0.399822 0.0451,0.0252 0.180378,0.100777 0.135284,0.07558 -0.531119,-0.296734 -1.6262955,-1.030776 -2.0829318,-0.719945 -0.2748879,0.187116 -0.8110565,0.755518 -0.6802423,1.217556 0.052587,0.185738 -0.05992,0.793969 -0.069554,0.759942 -0.02876,-0.101582 0.2137002,-0.877547 0.2207184,-1.03051 0.00746,-0.162546 -0.2561261,-0.253109 -0.3302692,-0.362032 -0.6396112,-0.939639 -1.4718459,-0.03284 -2.1823362,-0.06544 z"
     id="path4383"
     inkscape:connector-curvature="0" />
  <path
     style="color:#000000;fill:#ffc378;fill-opacity:1;fill-rule:nonzero;stroke:none;stroke-width:5;marker:none;visibility:visible;display:inline;overflow:visible;enable-background:accumulate"
     d="m 9.280776,51.890797 c 0.334333,-0.06676 1.230315,0.449064 1.502602,0.176777 0.08839,-0.08839 0.08839,-0.265165 0.176777,-0.353553 0.209881,-0.209881 0.675746,0.296526 0.795495,0.176776 0.525713,-0.525713 0.474462,-1.567643 0.883883,-2.386485 0.02269,-0.04539 0.252027,-1.06066 0.265165,-1.06066 0.20624,0 0.09223,0.434252 0,0.618718 -0.210646,0.421292 -0.06593,1.171503 0.176777,1.414214 0.244971,0.244971 1.478232,0.466312 1.767767,0.176776 0.151669,-0.151669 0.770387,-0.328445 0.618718,-0.176776 -0.435263,0.435263 -1.153755,0.967565 -0.53033,1.59099 0.229299,0.229299 1.0702,-0.07885 1.325825,0.176777 0.09192,0.09192 -1.616606,0.290781 -1.679378,0.353553 -0.17516,0.17516 0.117592,0.677125 0.176777,0.795495 0.07501,0.150026 0.249185,0.144817 0.353553,0.353553 0.197457,0.394915 0.289757,0.996864 0.618718,1.325826 0.03566,0.03566 0.377703,0.429867 0.353554,0.441941 -0.560471,0.280236 -2.161933,-0.958734 -3.181981,-0.618718 -0.326472,0.108824 -0.648005,0.971743 -0.795495,1.414213 -0.05732,0.17197 -0.176776,0.425389 -0.176776,0.618719 0,0.05893 0,0.235702 0,0.176777 0,-0.694018 0.121667,-2.193069 -0.441942,-2.474874 -0.339284,-0.169642 -1.203648,-0.387342 -1.59099,0 -0.155711,0.155711 -0.824021,0.382079 -0.795495,0.353553 0.08516,-0.08516 0.992813,-0.275436 1.149048,-0.353553 0.166023,-0.08301 0.109557,-0.395891 0.176777,-0.53033 0.579881,-1.159762 -0.786206,-1.484024 -1.149049,-2.209709 z"
     id="path4377"
     inkscape:connector-curvature="0" />
  <path
     style="color:#000000;fill:#ffc378;fill-opacity:1;fill-rule:nonzero;stroke:none;stroke-width:5;marker:none;visibility:visible;display:inline;overflow:visible;enable-background:accumulate"
     d="M 0.875 47.75 C 0.861862 47.75 0.64769 48.76711 0.625 48.8125 C 0.30513984 49.45222 0.25229981 50.221734 0 50.78125 L 0 55.8125 C 0.027766267 55.737617 0.073490345 55.654533 0.09375 55.59375 C 0.24124 55.15128 0.548528 54.296324 0.875 54.1875 C 1.895048 53.847484 3.502029 55.092736 4.0625 54.8125 C 4.086649 54.800426 3.75441 54.41066 3.71875 54.375 C 3.389789 54.046038 3.291207 53.426165 3.09375 53.03125 C 2.989382 52.822514 2.82501 52.837526 2.75 52.6875 C 2.690815 52.56913 2.38734 52.08141 2.5625 51.90625 C 2.625272 51.843478 4.34192 51.62317 4.25 51.53125 C 3.994375 51.275623 3.135549 51.604299 2.90625 51.375 C 2.282825 50.751575 3.002237 50.216513 3.4375 49.78125 C 3.589169 49.629581 2.995419 49.785831 2.84375 49.9375 C 2.554215 50.227036 1.307471 50.026221 1.0625 49.78125 C 0.819793 49.538539 0.664354 48.765042 0.875 48.34375 C 0.96723 48.159284 1.08124 47.75 0.875 47.75 z "
     id="path4371" />
  <path
     style="color:#000000;fill:#ffc378;fill-opacity:1;fill-rule:nonzero;stroke:none;stroke-width:5;marker:none;visibility:visible;display:inline;overflow:visible;enable-background:accumulate"
     d="M 5.46875 59.21875 C 5.455612 59.21875 5.24144 60.23586 5.21875 60.28125 C 4.809329 61.100092 4.869463 62.161787 4.34375 62.6875 C 4.224001 62.80725 3.741131 62.290119 3.53125 62.5 C 3.442863 62.588388 3.43214 62.75536 3.34375 62.84375 C 3.071463 63.116037 2.178083 62.62074 1.84375 62.6875 C 2.0911004 63.1822 2.8170051 63.486541 3.0625 64 L 7.25 64 C 7.1509055 63.800674 7.02488 63.50637 7.15625 63.375 C 7.219022 63.312228 8.93567 63.12317 8.84375 63.03125 C 8.588125 62.775623 7.729299 63.073049 7.5 62.84375 C 6.876575 62.220325 7.595987 61.685263 8.03125 61.25 C 8.182919 61.098331 7.589169 61.285831 7.4375 61.4375 C 7.147965 61.727036 5.901221 61.494971 5.65625 61.25 C 5.413543 61.007289 5.258104 60.265042 5.46875 59.84375 C 5.56098 59.659284 5.67499 59.21875 5.46875 59.21875 z "
     id="path4365" />
  <path
     style="color:#000000;fill:#ffc378;fill-opacity:1;fill-rule:nonzero;stroke:none;stroke-width:5;marker:none;visibility:visible;display:inline;overflow:visible;enable-background:accumulate"
     d="M 18.125 59.3125 C 18.111862 59.3125 17.86644 60.32961 17.84375 60.375 C 17.434329 61.193842 17.494463 62.224287 16.96875 62.75 C 16.849001 62.86975 16.397381 62.383869 16.1875 62.59375 C 16.099113 62.682138 16.08839 62.84911 16 62.9375 C 15.727713 63.209787 14.834333 62.68324 14.5 62.75 C 14.730985 63.21197 15.341726 63.544281 15.625 64 L 19.875 64 C 19.783032 63.802751 19.694863 63.586387 19.8125 63.46875 C 19.875272 63.405978 21.56067 63.21692 21.46875 63.125 C 21.213125 62.869373 20.385549 63.166799 20.15625 62.9375 C 19.532825 62.314075 20.252237 61.779013 20.6875 61.34375 C 20.839169 61.192081 20.214169 61.379581 20.0625 61.53125 C 19.772965 61.820786 18.526221 61.588721 18.28125 61.34375 C 18.038543 61.101039 17.914354 60.358792 18.125 59.9375 C 18.21723 59.753034 18.33124 59.3125 18.125 59.3125 z "
     id="path4359" />
  <path
     style="color:#000000;fill:#ffc378;fill-opacity:1;fill-rule:nonzero;stroke:none;stroke-width:5;marker:none;visibility:visible;display:inline;overflow:visible;enable-background:accumulate"
     d="M 29.53125 61.34375 C 29.518112 61.34375 29.27269 62.36086 29.25 62.40625 C 28.997294 62.911662 28.926947 63.498452 28.78125 64 L 31.5 64 C 31.662746 63.771415 31.902234 63.566516 32.09375 63.375 C 32.245419 63.223331 31.620419 63.410831 31.46875 63.5625 C 31.179215 63.852036 29.932471 63.619971 29.6875 63.375 C 29.444793 63.132289 29.320604 62.390042 29.53125 61.96875 C 29.62348 61.784284 29.73749 61.34375 29.53125 61.34375 z "
     id="path4353" />
  <path
     style="color:#000000;fill:#ffc378;fill-opacity:1;fill-rule:nonzero;stroke:none;stroke-width:5;marker:none;visibility:visible;display:inline;overflow:visible;enable-background:accumulate"
     d="M 49.40625 55.78125 C 49.393112 55.78125 49.17894 56.79836 49.15625 56.84375 C 48.746829 57.662592 48.775713 58.693037 48.25 59.21875 C 48.130251 59.3385 47.678631 58.852619 47.46875 59.0625 C 47.380363 59.150888 47.36964 59.31786 47.28125 59.40625 C 47.008963 59.678537 46.115583 59.15199 45.78125 59.21875 C 46.144093 59.944435 47.517381 60.277738 46.9375 61.4375 C 46.897427 61.517646 46.900503 61.660778 46.875 61.78125 C 47.282235 61.725233 47.763621 61.85056 48 61.96875 C 48.464977 62.201239 48.452243 63.246076 48.4375 64 L 48.5 64 C 48.539863 63.869574 48.590828 63.758771 48.625 63.65625 C 48.77249 63.21378 49.079778 62.327574 49.40625 62.21875 C 50.426298 61.878734 52.033279 63.123986 52.59375 62.84375 C 52.617899 62.831676 52.28566 62.44191 52.25 62.40625 C 51.921039 62.077288 51.822457 61.488665 51.625 61.09375 C 51.520632 60.885014 51.32501 60.868776 51.25 60.71875 C 51.190815 60.60038 50.91859 60.11266 51.09375 59.9375 C 51.156522 59.874728 52.87317 59.68567 52.78125 59.59375 C 52.525625 59.338123 51.666799 59.635549 51.4375 59.40625 C 50.814075 58.782825 51.533487 58.247763 51.96875 57.8125 C 52.120419 57.660831 51.495419 57.848331 51.34375 58 C 51.054215 58.289536 49.838721 58.057471 49.59375 57.8125 C 49.351043 57.569789 49.195604 56.827542 49.40625 56.40625 C 49.49848 56.221784 49.61249 55.78125 49.40625 55.78125 z M 46.875 61.78125 C 46.697716 61.805636 46.523731 61.851269 46.40625 61.96875 C 46.328395 62.046605 46.120476 62.14626 45.9375 62.21875 C 46.243631 62.129059 46.641441 62.023029 46.75 61.96875 C 46.817048 61.935227 46.857724 61.86286 46.875 61.78125 z "
     id="path4347" />
  <path
     style="color:#000000;fill:#ffc378;fill-opacity:1;fill-rule:nonzero;stroke:none;stroke-width:5;marker:none;visibility:visible;display:inline;overflow:visible;enable-background:accumulate"
     d="M 61.34375 59.125 C 61.330612 59.125 61.08519 60.14211 61.0625 60.1875 C 60.653079 61.006342 60.713213 62.068037 60.1875 62.59375 C 60.067751 62.7135 59.616131 62.196369 59.40625 62.40625 C 59.317863 62.494638 59.30714 62.66161 59.21875 62.75 C 58.946463 63.022287 58.053083 62.52699 57.71875 62.59375 C 57.980595 63.11744 58.73909 63.429555 58.9375 64 L 62 64 L 63.3125 62.6875 C 62.80932 62.094622 63.487629 61.574871 63.90625 61.15625 C 63.915729 61.146771 63.902487 61.132 63.90625 61.125 C 63.789111 61.117842 63.395002 61.229998 63.28125 61.34375 C 62.991715 61.633286 61.776221 61.401221 61.53125 61.15625 C 61.288543 60.913539 61.133104 60.171292 61.34375 59.75 C 61.43598 59.565534 61.54999 59.125 61.34375 59.125 z "
     id="path4341" />
  <path
     style="color:#000000;fill:#ffc378;fill-opacity:1;fill-rule:nonzero;stroke:none;stroke-width:5;marker:none;visibility:visible;display:inline;overflow:visible;enable-background:accumulate"
     d="m 33.764347,56.221826 c 0.334333,-0.06676 1.230315,0.449064 1.502602,0.176777 0.08839,-0.08839 0.08839,-0.265165 0.176777,-0.353553 0.209881,-0.209881 0.675746,0.296526 0.795495,0.176776 0.525713,-0.525713 0.474462,-1.567643 0.883883,-2.386485 0.02269,-0.04539 0.252027,-1.06066 0.265165,-1.06066 0.20624,0 0.09223,0.434252 0,0.618718 -0.210646,0.421292 -0.06593,1.171503 0.176777,1.414214 0.244971,0.244971 1.478232,0.466312 1.767767,0.176776 0.151669,-0.151669 0.770387,-0.328445 0.618718,-0.176776 -0.435263,0.435263 -1.153755,0.967565 -0.53033,1.59099 0.229299,0.229299 1.0702,-0.07885 1.325825,0.176777 0.09192,0.09192 -1.616606,0.290781 -1.679378,0.353553 -0.17516,0.17516 0.117592,0.677125 0.176777,0.795495 0.07501,0.150026 0.249185,0.144817 0.353553,0.353553 0.197457,0.394915 0.289757,0.996864 0.618718,1.325826 0.03566,0.03566 0.377703,0.429867 0.353554,0.441941 -0.560471,0.280236 -2.161933,-0.958734 -3.181981,-0.618718 -0.326472,0.108824 -0.648005,0.971743 -0.795495,1.414213 -0.05732,0.17197 -0.176776,0.425389 -0.176776,0.618719 0,0.05893 0,0.235702 0,0.176777 0,-0.694018 0.121667,-2.193069 -0.441942,-2.474874 -0.339284,-0.169642 -1.203648,-0.387342 -1.59099,0 -0.155711,0.155711 -0.824021,0.382079 -0.795495,0.353553 0.08516,-0.08516 0.992813,-0.275436 1.149048,-0.353553 0.166023,-0.08301 0.109557,-0.395891 0.176777,-0.53033 0.579881,-1.159762 -0.786206,-1.484024 -1.149049,-2.209709 z"
     id="path4335"
     inkscape:connector-curvature="0" />
  <path
     style="color:#000000;fill:#ffc378;fill-opacity:1;fill-rule:nonzero;stroke:none;stroke-width:5;marker:none;visibility:visible;display:inline;overflow:visible;enable-background:accumulate"
     d="m 22.804193,53.923729 c 0.334333,-0.06676 1.230315,0.449064 1.502602,0.176777 0.08839,-0.08839 0.08839,-0.265165 0.176777,-0.353553 0.209881,-0.209881 0.675746,0.296526 0.795495,0.176776 0.525713,-0.525713 0.474462,-1.567643 0.883883,-2.386485 0.02269,-0.04539 0.252027,-1.06066 0.265165,-1.06066 0.20624,0 0.09223,0.434252 0,0.618718 -0.210646,0.421292 -0.06593,1.171503 0.176777,1.414214 0.244971,0.244971 1.478232,0.466312 1.767767,0.176776 0.151669,-0.151669 0.770387,-0.328445 0.618718,-0.176776 -0.435263,0.435263 -1.153755,0.967565 -0.53033,1.59099 0.229299,0.229299 1.0702,-0.07885 1.325825,0.176777 0.09192,0.09192 -1.616606,0.290781 -1.679378,0.353553 -0.17516,0.17516 0.117592,0.677125 0.176777,0.795495 0.07501,0.150026 0.249185,0.144817 0.353553,0.353553 0.197457,0.394915 0.289757,0.996864 0.618718,1.325826 0.03566,0.03566 0.377703,0.429867 0.353554,0.441941 -0.560471,0.280236 -2.161933,-0.958734 -3.181981,-0.618718 -0.326472,0.108824 -0.648005,0.971743 -0.795495,1.414213 -0.05732,0.17197 -0.176776,0.425389 -0.176776,0.618719 0,0.05893 0,0.235702 0,0.176777 0,-0.694018 0.121667,-2.193069 -0.441942,-2.474874 -0.339284,-0.169642 -1.203648,-0.387342 -1.59099,0 -0.155711,0.155711 -0.824021,0.382079 -0.795495,0.353553 0.08516,-0.08516 0.992813,-0.275436 1.149048,-0.353553 0.166023,-0.08301 0.109557,-0.395891 0.176777,-0.53033 0.579881,-1.159762 -0.786206,-1.484024 -1.149049,-2.209709 z"
     id="path4329"
     inkscape:connector-curvature="0" />
  <path
     style="color:#000000;fill:#ffc378;fill-opacity:1;fill-rule:nonzero;stroke:none;stroke-width:5;marker:none;visibility:visible;display:inline;overflow:visible;enable-background:accumulate"
     d="m 56.533467,15.649285 c 0.268333,-0.05358 0.987442,0.360415 1.205977,0.14188 0.07094,-0.07094 0.07094,-0.21282 0.14188,-0.283759 0.168449,-0.168449 0.542348,0.237989 0.638458,0.141879 0.421933,-0.421933 0.380799,-1.258178 0.709398,-1.915375 0.01821,-0.03643 0.202274,-0.851277 0.212819,-0.851277 0.165527,0 0.07402,0.348527 0,0.496578 -0.169063,0.338126 -0.05292,0.940239 0.14188,1.135037 0.196612,0.196612 1.186417,0.374259 1.418796,0.141879 0.121728,-0.121728 0.618307,-0.263607 0.496578,-0.141879 -0.349339,0.349339 -0.925995,0.776561 -0.425639,1.276917 0.184034,0.184033 0.858935,-0.06328 1.064097,0.141879 0.07377,0.07377 -1.297475,0.233379 -1.347855,0.283759 -0.140583,0.140582 0.09438,0.543456 0.141879,0.638458 0.0602,0.12041 0.199994,0.116229 0.283759,0.283759 0.158478,0.316956 0.232557,0.800076 0.496579,1.064098 0.02862,0.02862 0.303141,0.345008 0.283759,0.354698 -0.449829,0.224916 -1.73515,-0.769472 -2.553833,-0.496578 -0.262024,0.08734 -0.520084,0.779914 -0.638458,1.135037 -0.04601,0.138021 -0.141879,0.341413 -0.141879,0.496579 0,0.0473 0,0.189172 0,0.141879 0,-0.557013 0.09765,-1.76014 -0.354699,-1.986314 -0.272307,-0.136154 -0.966039,-0.310878 -1.276917,0 -0.124972,0.124972 -0.661353,0.306653 -0.638458,0.283759 0.06835,-0.06835 0.796824,-0.221063 0.922217,-0.283759 0.133249,-0.06662 0.08793,-0.317739 0.14188,-0.425639 0.465408,-0.930816 -0.631003,-1.191066 -0.922218,-1.773495 z"
     id="path4323"
     inkscape:connector-curvature="0" />
  <path
     style="color:#000000;fill:#ffc378;fill-opacity:1;fill-rule:nonzero;stroke:none;stroke-width:5;marker:none;visibility:visible;display:inline;overflow:visible;enable-background:accumulate"
     d="m 44.574737,14.277547 c 0.218833,-0.0437 0.805286,0.293929 0.983508,0.115707 0.05785,-0.05785 0.05785,-0.17356 0.115707,-0.231413 0.137374,-0.137375 0.4423,0.194087 0.52068,0.115706 0.344098,-0.344098 0.310553,-1.026079 0.578534,-1.562041 0.01485,-0.02971 0.164961,-0.694241 0.17356,-0.694241 0.134992,0 0.06037,0.284234 0,0.404973 -0.137876,0.275751 -0.04315,0.766792 0.115707,0.925655 0.160342,0.160342 0.967557,0.305218 1.157068,0.115706 0.09927,-0.09927 0.504246,-0.214979 0.404973,-0.115706 -0.284895,0.284896 -0.755174,0.633307 -0.34712,1.041361 0.150085,0.150084 0.700485,-0.05161 0.867801,0.115707 0.06016,0.06017 -1.058128,0.190327 -1.099214,0.231413 -0.114649,0.114649 0.07697,0.443203 0.115707,0.520681 0.0491,0.0982 0.1631,0.09479 0.231413,0.231413 0.129243,0.258486 0.189656,0.652484 0.404973,0.867801 0.02334,0.02334 0.247221,0.281364 0.231414,0.289267 -0.366848,0.183425 -1.415064,-0.627526 -2.082722,-0.404974 -0.213688,0.07123 -0.424143,0.636042 -0.520681,0.925654 -0.03752,0.112561 -0.115706,0.278433 -0.115706,0.404975 0,0.03857 0,0.154275 0,0.115706 0,-0.45426 0.07964,-1.435443 -0.289267,-1.619895 -0.222074,-0.111037 -0.787831,-0.253529 -1.041361,0 -0.101918,0.101919 -0.539352,0.250085 -0.52068,0.231414 0.05574,-0.05574 0.649832,-0.180283 0.752093,-0.231414 0.108668,-0.05433 0.07171,-0.259125 0.115707,-0.34712 0.379554,-0.759106 -0.5146,-0.971348 -0.752094,-1.446335 z"
     id="path4317"
     inkscape:connector-curvature="0" />
  <path
     style="color:#000000;fill:#ffc378;fill-opacity:1;fill-rule:nonzero;stroke:none;stroke-width:5;marker:none;visibility:visible;display:inline;overflow:visible;enable-background:accumulate"
     d="m 33.791359,13.482052 c 0.218833,-0.0437 0.805286,0.293929 0.983508,0.115707 0.05785,-0.05785 0.05785,-0.17356 0.115707,-0.231413 0.137374,-0.137375 0.4423,0.194087 0.52068,0.115706 0.344098,-0.344098 0.310553,-1.02608 0.578534,-1.562041 0.01485,-0.02971 0.164961,-0.694241 0.17356,-0.694241 0.134992,0 0.06037,0.284234 0,0.404973 -0.137876,0.275751 -0.04315,0.766792 0.115707,0.925655 0.160342,0.160342 0.967557,0.305218 1.157068,0.115706 0.09927,-0.09927 0.504246,-0.214979 0.404973,-0.115706 -0.284895,0.284895 -0.755174,0.633306 -0.34712,1.041361 0.150085,0.150084 0.700485,-0.05161 0.867801,0.115707 0.06017,0.06016 -1.058128,0.190327 -1.099214,0.231413 -0.114649,0.114649 0.07697,0.443203 0.115707,0.520681 0.0491,0.0982 0.1631,0.09479 0.231413,0.231413 0.129243,0.258486 0.189656,0.652484 0.404973,0.867801 0.02334,0.02334 0.247221,0.281364 0.231414,0.289267 -0.366848,0.183425 -1.415064,-0.627526 -2.082722,-0.404974 -0.213688,0.07123 -0.424143,0.636042 -0.520681,0.925654 -0.03752,0.112561 -0.115706,0.278433 -0.115706,0.404974 0,0.03857 0,0.154276 0,0.115707 0,-0.45426 0.07964,-1.435443 -0.289267,-1.619895 -0.222074,-0.111037 -0.787831,-0.253529 -1.041361,0 -0.101918,0.101919 -0.539352,0.250085 -0.52068,0.231414 0.05574,-0.05574 0.649832,-0.180283 0.752093,-0.231414 0.108668,-0.05433 0.07171,-0.259125 0.115707,-0.34712 0.379554,-0.759107 -0.5146,-0.971348 -0.752094,-1.446335 z"
     id="path4311"
     inkscape:connector-curvature="0" />
  <path
     style="color:#000000;fill:#ffc378;fill-opacity:1;fill-rule:nonzero;stroke:none;stroke-width:5;marker:none;visibility:visible;display:inline;overflow:visible;enable-background:accumulate"
     d="m 14.717013,12.776091 c 0.251833,-0.05029 0.926723,0.338253 1.13182,0.133155 0.06658,-0.06658 0.06658,-0.199733 0.133156,-0.26631 0.158091,-0.158091 0.508999,0.223355 0.599199,0.133155 0.395988,-0.395989 0.357384,-1.180812 0.665776,-1.797597 0.01709,-0.03419 0.189837,-0.798932 0.199733,-0.798932 0.155348,0 0.06947,0.327096 0,0.466043 -0.158667,0.317335 -0.04966,0.882424 0.133156,1.065243 0.184522,0.184522 1.113463,0.351245 1.331553,0.133155 0.114243,-0.114243 0.580286,-0.247398 0.466043,-0.133155 -0.327857,0.327858 -0.869055,0.728809 -0.399466,1.198398 0.172718,0.172718 0.806118,-0.05939 0.998665,0.133156 0.06924,0.06924 -1.217693,0.219028 -1.264975,0.26631 -0.131938,0.131938 0.08857,0.510038 0.133155,0.599199 0.0565,0.113006 0.187697,0.109082 0.266311,0.26631 0.148732,0.297466 0.218256,0.750879 0.466043,0.998666 0.02686,0.02686 0.284501,0.323793 0.266311,0.332888 -0.422169,0.211085 -1.628455,-0.722157 -2.396796,-0.466044 -0.245912,0.08197 -0.488104,0.731956 -0.599199,1.065243 -0.04318,0.129534 -0.133155,0.32042 -0.133155,0.466044 0,0.04439 0,0.17754 0,0.133155 0,-0.522762 0.09164,-1.651908 -0.332888,-1.864174 -0.255563,-0.127782 -0.906636,-0.291762 -1.198398,0 -0.117288,0.117287 -0.620686,0.287797 -0.599199,0.26631 0.06415,-0.06415 0.747827,-0.20747 0.865509,-0.26631 0.125055,-0.06253 0.08252,-0.298202 0.133156,-0.399466 0.43679,-0.87358 -0.592202,-1.117827 -0.86551,-1.664442 z"
     id="path4305"
     inkscape:connector-curvature="0" />
  <path
     style="fill:#edad5c;fill-opacity:1;fill-rule:nonzero"
     d="M 0,3 0,6 2,4 Z"
     id="path4298"
     inkscape:connector-curvature="0"
     sodipodi:nodetypes="cccc" />
  <path
     d="M 64,6 62,4 64,3 z"
     id="path3028"
     style="fill:#f4ad57;fill-opacity:1"
     inkscape:connector-curvature="0" />
</svg>
