<?xml version="1.0" encoding="UTF-8" standalone="no"?>
<!-- Created with Inkscape (http://www.inkscape.org/) -->

<svg
   xmlns:dc="http://purl.org/dc/elements/1.1/"
   xmlns:cc="http://creativecommons.org/ns#"
   xmlns:rdf="http://www.w3.org/1999/02/22-rdf-syntax-ns#"
   xmlns:svg="http://www.w3.org/2000/svg"
   xmlns="http://www.w3.org/2000/svg"
   xmlns:xlink="http://www.w3.org/1999/xlink"
   xmlns:sodipodi="http://sodipodi.sourceforge.net/DTD/sodipodi-0.dtd"
   xmlns:inkscape="http://www.inkscape.org/namespaces/inkscape"
   id="svg13094"
   height="64"
   width="64"
   version="1.1"
   inkscape:version="0.48.4 r9939"
   sodipodi:docname="user-home.svg"
   inkscape:export-filename="folder.png"
   inkscape:export-xdpi="90"
   inkscape:export-ydpi="90">
  <sodipodi:namedview
     pagecolor="#ffffff"
     bordercolor="#666666"
     borderopacity="1"
     objecttolerance="10"
     gridtolerance="10"
     guidetolerance="10"
     inkscape:pageopacity="0"
     inkscape:pageshadow="2"
     inkscape:window-width="1920"
     inkscape:window-height="1022"
     id="namedview46"
     showgrid="true"
     inkscape:snap-bbox="true"
     inkscape:bbox-paths="true"
     inkscape:bbox-nodes="true"
     inkscape:snap-bbox-edge-midpoints="true"
     inkscape:snap-bbox-midpoints="true"
     inkscape:snap-nodes="true"
     inkscape:object-paths="true"
     inkscape:snap-intersection-paths="true"
     inkscape:object-nodes="true"
     inkscape:snap-smooth-nodes="true"
     inkscape:snap-midpoints="true"
     inkscape:snap-object-midpoints="true"
     inkscape:snap-center="true"
     fit-margin-top="0"
     fit-margin-left="0"
     fit-margin-right="0"
     fit-margin-bottom="0"
     inkscape:zoom="10.429825"
     inkscape:cx="66.876457"
     inkscape:cy="32.432876"
     inkscape:window-x="-5"
     inkscape:window-y="23"
     inkscape:window-maximized="1"
     inkscape:current-layer="svg13094"
     showguides="true"
     inkscape:guide-bbox="true"
     inkscape:snap-page="true"
     inkscape:snap-global="true">
    <inkscape:grid
       type="xygrid"
       id="grid3023"
       empspacing="5"
       visible="true"
       enabled="true"
       snapvisiblegridlinesonly="true"
       originx="-80px"
       originy="-75px" />
  </sodipodi:namedview>
  <defs
     id="defs11">
    <linearGradient
       id="linearGradient3841-4-6-2">
      <stop
         style="stop-color:#c68a35;stop-opacity:1;"
         offset="0"
         id="stop3843-9-6-6" />
      <stop
         style="stop-color:#d0933d;stop-opacity:1;"
         offset="1"
         id="stop3845-3-4-3" />
    </linearGradient>
    <linearGradient
       gradientTransform="translate(0.625,-0.082283)"
       inkscape:collect="always"
       xlink:href="#linearGradient3969-2-2"
       id="linearGradient3918-5-0"
       gradientUnits="userSpaceOnUse"
       x1="29.875"
       y1="64.082283"
       x2="29.875"
       y2="12.082283" />
    <linearGradient
       id="linearGradient3969-2-2">
      <stop
         style="stop-color:#c1853b;stop-opacity:1"
         offset="0"
         id="stop3971-2-8" />
      <stop
         id="stop3977-6-5"
         offset="0.08245245"
         style="stop-color:#d89b45;stop-opacity:1" />
      <stop
         style="stop-color:#e7a953;stop-opacity:1"
         offset="1"
         id="stop3973-3-4" />
    </linearGradient>
    <linearGradient
       y2="32.976402"
       x2="77.278381"
       y1="48.976402"
       x1="77.278381"
       gradientTransform="translate(-33,-31.9764)"
       gradientUnits="userSpaceOnUse"
       id="linearGradient3433"
       xlink:href="#linearGradient3841-4-6-2"
       inkscape:collect="always" />
  </defs>
  <metadata
     id="metadata13099">
    <rdf:RDF>
      <cc:Work
         rdf:about="">
        <dc:format>image/svg+xml</dc:format>
        <dc:type
           rdf:resource="http://purl.org/dc/dcmitype/StillImage" />
        <dc:title />
      </cc:Work>
    </rdf:RDF>
  </metadata>
  <path
     style="fill:url(#linearGradient3433);fill-opacity:1;fill-rule:nonzero;stroke:none"
     d="m 3,6 -10e-8,58.000001 L 60,64 64,60 64,1 63,0 37,0 32,4.9999999 4,5 z"
     id="path3833"
     inkscape:connector-curvature="0"
     sodipodi:nodetypes="cccccccccc" />
  <path
     style="color:#000000;fill:#ffe083;fill-opacity:0.58422941;fill-rule:nonzero;stroke:none;stroke-width:1;marker:none;visibility:visible;display:inline;overflow:visible;enable-background:accumulate"
     d="M 37,0 32,5 4,5 3,6 3,7 4,6 32,6 37,1 63,1 64,2 64,1 63,0 37,0 z"
     id="path3800"
     inkscape:connector-curvature="0" />
  <path
     sodipodi:nodetypes="cccccccc"
     id="path3802"
     d="m 58,13 0,51 2,0 4,-4 0,-59 -1,-1 0,18 z"
     inkscape:connector-curvature="0"
     style="fill:#3e4959;fill-opacity:0.43171806" />
  <path
     sodipodi:nodetypes="ccccc"
     d="m 7,13 51,0 0,31 -51,0 z"
     id="path3920"
     inkscape:connector-curvature="0"
     style="fill:#dcdcdc;fill-opacity:1;fill-rule:nonzero" />
  <path
     inkscape:connector-curvature="0"
     id="path4253"
     d="m 7,13 51,0 0,1 -51,0 z"
     style="fill:#ffffff;fill-opacity:0.60159009;fill-rule:nonzero"
     sodipodi:nodetypes="ccccc" />
  <path
     style="color:#000000;fill:#3e4959;fill-opacity:0.22968199;fill-rule:nonzero;stroke-width:1;stroke-linecap:butt;stroke-linejoin:miter;stroke-miterlimit:4;stroke-opacity:1;stroke-dasharray:none;stroke-dashoffset:0;marker:none;visibility:visible;display:inline;overflow:visible;enable-background:accumulate"
     d="m 30,13 4,4 2,0 -4,-4 z"
     id="path3982"
     inkscape:connector-curvature="0"
     sodipodi:nodetypes="ccccc" />
  <path
     id="path3916"
     d="m 0,13 0,50 1,1 59,0 1,-1 0,-45 -1,-1 -26,1e-6 -5,-5 L 1,12 z"
     inkscape:connector-curvature="0"
     style="fill:url(#linearGradient3918-5-0);fill-opacity:1;fill-rule:nonzero"
     sodipodi:nodetypes="ccccccccccc"
     inkscape:export-xdpi="90"
     inkscape:export-ydpi="90" />
  <path
     style="color:#000000;fill:#ffe083;fill-opacity:0.58422941;fill-rule:nonzero;stroke:none;stroke-width:1;marker:none;visibility:visible;display:inline;overflow:visible;enable-background:accumulate"
     d="m 1,12 -1,1 0,1 1,-1 28,0 5,5 26,0 1,1 0,-1 -1,-1 -26,0 -5,-5 -28,0 z"
     id="path3046"
     inkscape:connector-curvature="0" />
  <path
     id="path3061"
     d="m 19,25.59375 -0.71875,0.6875 -13,13 L 4.59375,40 5.28125,40.71875 7,42.4375 7,51 0,51 0,53 7,53 8,53 9,53 9,52 9,42 9,41.59375 8.71875,41.28125 7.4375,40 19,28.4375 30.5625,40 29.28125,41.28125 29,41.59375 29,42 l 0,9 -12,0 0,-9 4,0 0,6 0,1 2,0 0,-1 0,-7 0,-1 -1,0 -6,0 -1,0 0,1 0,11 0,1 1,0 14,0 1,0 0,-1 0,-9.5625 1.71875,-1.71875 0.6875,-0.71875 -0.6875,-0.71875 -13,-13 L 19,25.59375 z"
     style="font-size:medium;font-style:normal;font-variant:normal;font-weight:normal;font-stretch:normal;text-indent:0;text-align:start;text-decoration:none;line-height:normal;letter-spacing:normal;word-spacing:normal;text-transform:none;direction:ltr;block-progression:tb;writing-mode:lr-tb;text-anchor:start;baseline-shift:baseline;color:#000000;fill:#7a3600;fill-opacity:0.38086643999999997;fill-rule:nonzero;stroke:none;stroke-width:1;marker:none;visibility:visible;display:inline;overflow:visible;enable-background:accumulate;font-family:Sans;-inkscape-font-specification:Sans"
     inkscape:connector-curvature="0" />
  <path
     style="font-size:medium;font-style:normal;font-variant:normal;font-weight:normal;font-stretch:normal;text-indent:0;text-align:start;text-decoration:none;line-height:normal;letter-spacing:normal;word-spacing:normal;text-transform:none;direction:ltr;block-progression:tb;writing-mode:lr-tb;text-anchor:start;baseline-shift:baseline;color:#000000;fill:#ffe083;fill-opacity:0.34205776999999998;fill-rule:nonzero;stroke:none;stroke-width:1;marker:none;visibility:visible;display:inline;overflow:visible;enable-background:accumulate;font-family:Sans;-inkscape-font-specification:Sans"
     d="M 19 28.4375 L 7.4375 40 L 8.4375 41 L 20 29.4375 L 19 28.4375 z M 33.40625 40 L 32.71875 40.71875 L 31 42.4375 L 31 52 L 31 53 L 30 53 L 16 53 L 16 54 L 17 54 L 31 54 L 32 54 L 32 53 L 32 43.4375 L 33.71875 41.71875 L 34.40625 41 L 33.71875 40.28125 L 33.40625 40 z M 23 41 L 23 48 L 23 49 L 22 49 L 22 50 L 24 50 L 24 49 L 24 42 L 24 41 L 23 41 z M 9 41.59375 L 9 42 L 9 52 L 9 53 L 8 53 L 7 53 L 1 53 L 1 54 L 8 54 L 9 54 L 10 54 L 10 53 L 10 43 L 10 42.59375 L 9.71875 42.28125 L 9 41.59375 z M 17 42 L 17 51 L 18 51 L 18 43 L 21 43 L 21 42 L 17 42 z "
     id="path3774" />
</svg>
