<?xml version="1.0" encoding="UTF-8" standalone="no"?>
<!-- Created with Inkscape (http://www.inkscape.org/) -->

<svg
   xmlns:dc="http://purl.org/dc/elements/1.1/"
   xmlns:cc="http://creativecommons.org/ns#"
   xmlns:rdf="http://www.w3.org/1999/02/22-rdf-syntax-ns#"
   xmlns:svg="http://www.w3.org/2000/svg"
   xmlns="http://www.w3.org/2000/svg"
   xmlns:sodipodi="http://sodipodi.sourceforge.net/DTD/sodipodi-0.dtd"
   xmlns:inkscape="http://www.inkscape.org/namespaces/inkscape"
   version="1.1"
   width="22"
   height="22"
   id="svg2"
   inkscape:version="0.48.3.1 r9886"
   sodipodi:docname="syncthing.svg">
  <sodipodi:namedview
     pagecolor="#ffffff"
     bordercolor="#666666"
     borderopacity="1"
     objecttolerance="10"
     gridtolerance="10"
     guidetolerance="10"
     inkscape:pageopacity="0"
     inkscape:pageshadow="2"
     inkscape:window-width="1920"
     inkscape:window-height="1023"
     id="namedview6"
     showgrid="true"
     inkscape:zoom="29.5"
     inkscape:cx="15.007346"
     inkscape:cy="10.802849"
     inkscape:window-x="-10"
     inkscape:window-y="35"
     inkscape:window-maximized="1"
     inkscape:current-layer="svg2"
     inkscape:snap-global="false"
     inkscape:snap-bbox="true"
     inkscape:bbox-paths="true"
     inkscape:bbox-nodes="true"
     inkscape:snap-bbox-edge-midpoints="true"
     inkscape:snap-bbox-midpoints="true"
     inkscape:object-paths="true"
     inkscape:snap-intersection-paths="true"
     inkscape:object-nodes="true"
     inkscape:snap-smooth-nodes="true"
     inkscape:snap-midpoints="true"
     inkscape:snap-object-midpoints="true"
     inkscape:snap-center="true">
    <inkscape:grid
       type="xygrid"
       id="grid2982"
       empspacing="5"
       visible="true"
       enabled="true"
       snapvisiblegridlinesonly="true" />
  </sodipodi:namedview>
  <defs
     id="defs4" />
  <metadata
     id="metadata7">
    <rdf:RDF>
      <cc:Work
         rdf:about="">
        <dc:format>image/svg+xml</dc:format>
        <dc:type
           rdf:resource="http://purl.org/dc/dcmitype/StillImage" />
        <dc:title />
      </cc:Work>
    </rdf:RDF>
  </metadata>
  <path
     id="path3775"
     d="M 11,2 C 6.0294374,2 2,6.0294376 2,11 2,11.128396 1.99468,11.247913 2,11.375 1.45329,11.718609 1.09375,12.310555 1.09375,13 c 0,1.032066 0.8239111,1.885667 1.84375,1.9375 C 4.4010113,17.926687 7.4474051,20 11,20 c 1.503207,0 2.910612,-0.379613 4.15625,-1.03125 0.270268,0.149646 0.5734,0.25 0.90625,0.25 1.065121,0 1.9375,-0.872379 1.9375,-1.9375 C 18,17.091525 17.95777,16.922023 17.90625,16.75 19.207011,15.18939 20,13.190458 20,11 20,10.255982 19.888956,9.535238 19.71875,8.84375 20.040725,8.497402 20.25,8.038206 20.25,7.53125 c 0,-1.0651206 -0.872379,-1.9375 -1.9375,-1.9375 -0.04407,0 -0.08174,-0.00294 -0.125,0 C 16.544977,3.414657 13.939014,2 11,2 z m 0,1.71875 c 2.304191,0 4.35243,1.080168 5.6875,2.75 -0.190493,0.3024548 -0.28125,0.6776705 -0.28125,1.0625 0,0.1664251 0.02286,0.3146966 0.0625,0.46875 L 13.875,9.96875 c -0.280844,-0.159686 -0.591336,-0.25 -0.9375,-0.25 -0.88871,0 -1.651501,0.588426 -1.875,1.40625 l -6.40625,0.84375 c -0.2182503,-0.348252 -0.553066,-0.598074 -0.9375,-0.75 -0.00215,-0.0727 0,-0.145527 0,-0.21875 0,-4.0237882 3.2574617,-7.28125 7.28125,-7.28125 z m 6.375,5.46875 c 0.220926,0.126618 0.459392,0.212231 0.71875,0.25 0.110672,0.504831 0.1875,1.024447 0.1875,1.5625 0,1.703785 -0.582627,3.259203 -1.5625,4.5 -0.207435,-0.07404 -0.423255,-0.125 -0.65625,-0.125 -0.05509,0 -0.102328,-0.0045 -0.15625,0 l -1.4375,-2.5625 c 0.246925,-0.324111 0.375,-0.748597 0.375,-1.1875 0,-0.167078 -0.02256,-0.314151 -0.0625,-0.46875 L 17.375,9.1875 z m -6.09375,3.4375 c 0.336749,0.563151 0.952388,0.9375 1.65625,0.9375 0.06611,0 0.123101,0.0065 0.1875,0 l 1.4375,2.5625 c -0.254458,0.326781 -0.40625,0.710001 -0.40625,1.15625 0,0.100085 0.01691,0.185133 0.03125,0.28125 -0.961953,0.468146 -2.04575,0.71875 -3.1875,0.71875 -2.8418005,0 -5.2989138,-1.626671 -6.5,-4 0.1978373,-0.227361 0.3297323,-0.5151 0.40625,-0.8125 l 6.375,-0.84375 z"
     style="color:#000000;fill:#434a55;fill-opacity:0.6745098;fill-rule:nonzero;stroke:none;stroke-width:1;marker:none;visibility:visible;display:inline;overflow:visible;enable-background:accumulate"
     inkscape:connector-curvature="0" />
</svg>
