<?xml version="1.0" encoding="UTF-8" standalone="no"?>
<!-- Created with Inkscape (http://www.inkscape.org/) -->

<svg
   xmlns:dc="http://purl.org/dc/elements/1.1/"
   xmlns:cc="http://creativecommons.org/ns#"
   xmlns:rdf="http://www.w3.org/1999/02/22-rdf-syntax-ns#"
   xmlns:svg="http://www.w3.org/2000/svg"
   xmlns="http://www.w3.org/2000/svg"
   xmlns:xlink="http://www.w3.org/1999/xlink"
   xmlns:sodipodi="http://sodipodi.sourceforge.net/DTD/sodipodi-0.dtd"
   xmlns:inkscape="http://www.inkscape.org/namespaces/inkscape"
   width="64"
   height="64"
   id="svg13094"
   version="1.1"
   inkscape:version="0.48.3.1 r9886"
   sodipodi:docname="lazarus.svg">
  <sodipodi:namedview
     id="base"
     pagecolor="#ffffff"
     bordercolor="#666666"
     borderopacity="1.0"
     inkscape:pageopacity="0"
     inkscape:pageshadow="2"
     inkscape:zoom="11.313709"
     inkscape:cx="32.924737"
     inkscape:cy="31.894493"
     inkscape:document-units="px"
     inkscape:current-layer="svg13094"
     showgrid="true"
     inkscape:snap-bbox="true"
     inkscape:bbox-paths="true"
     inkscape:bbox-nodes="true"
     inkscape:snap-bbox-edge-midpoints="true"
     inkscape:snap-bbox-midpoints="true"
     inkscape:object-paths="true"
     inkscape:snap-intersection-paths="true"
     inkscape:object-nodes="true"
     inkscape:snap-smooth-nodes="true"
     inkscape:snap-midpoints="true"
     inkscape:snap-object-midpoints="true"
     inkscape:snap-center="true"
     showguides="false"
     inkscape:guide-bbox="true"
     inkscape:window-width="1920"
     inkscape:window-height="1023"
     inkscape:window-x="-10"
     inkscape:window-y="35"
     inkscape:window-maximized="1"
     inkscape:snap-global="false"
     fit-margin-top="0"
     fit-margin-left="0"
     fit-margin-right="0"
     fit-margin-bottom="0"
     showborder="true"
     inkscape:showpageshadow="false"
     inkscape:snap-page="true">
    <inkscape:grid
       type="xygrid"
       id="grid3075"
       empspacing="5"
       visible="true"
       enabled="true"
       snapvisiblegridlinesonly="true"
       originx="1.6362304e-08px"
       originy="18px" />
    <sodipodi:guide
       orientation="0,1"
       position="-11,30"
       id="guide9148" />
    <sodipodi:guide
       orientation="1,0"
       position="32,70"
       id="guide9150" />
  </sodipodi:namedview>
  <defs
     id="defs13096">
    <linearGradient
       id="linearGradient3094">
      <stop
         offset="0"
         style="stop-color:#e5ba08;stop-opacity:1;"
         id="stop3096" />
      <stop
         offset="1"
         style="stop-color:#c59911;stop-opacity:1;"
         id="stop3104" />
    </linearGradient>
    <radialGradient
       inkscape:collect="always"
       xlink:href="#linearGradient3094"
       id="radialGradient3886"
       cx="30.739782"
       cy="17.037395"
       fx="30.739782"
       fy="17.037395"
       r="32"
       gradientTransform="matrix(6.8856667e-8,1.5625001,-1.4375,6.3348129e-8,57.491254,-34.030912)"
       gradientUnits="userSpaceOnUse" />
  </defs>
  <metadata
     id="metadata13099">
    <rdf:RDF>
      <cc:Work
         rdf:about="">
        <dc:format>image/svg+xml</dc:format>
        <dc:type
           rdf:resource="http://purl.org/dc/dcmitype/StillImage" />
        <dc:title />
      </cc:Work>
    </rdf:RDF>
  </metadata>
  <path
     id="path6538"
     d="m 0,4 0,30 0,28 2,2 30,0 30,0 2,-2 L 64,34 64,4 32,4 0,4 z"
     style="color:#000000;fill:url(#radialGradient3886);fill-opacity:1;fill-rule:nonzero;stroke:none;stroke-width:2.28571415000000000;marker:none;visibility:visible;display:inline;overflow:visible;enable-background:accumulate"
     inkscape:connector-curvature="0" />
  <path
     style="color:#000000;fill:#ffdb50;fill-opacity:1;fill-rule:nonzero;stroke:none;marker:none;visibility:visible;display:inline;overflow:visible;enable-background:accumulate"
     d="M 2 0 L 0 1 L 0 4 L 19.5625 4 L 39.125 4 L 64 4 L 64 1 L 62 0 L 39.125 0 L 19.5625 0 L 2 0 z "
     id="path6688" />
  <path
     d="M 64,6 62,4 64,3 z"
     id="path3028"
     style="fill:#000000;fill-opacity:0.10215054"
     inkscape:connector-curvature="0" />
  <g
     id="g3043"
     inkscape:export-filename="folder.png"
     inkscape:export-xdpi="90"
     inkscape:export-ydpi="90"
     transform="translate(-0.62500009,0.082283)" />
  <g
     id="scalable"
     transform="matrix(1.0385892,0,0,1.0385892,1214.7222,1878.8121)"
     inkscape:label="#g3701"
     style="fill:#ffffff" />
  <path
     style="fill:#ffffff;fill-opacity:0.43906811;fill-rule:nonzero"
     d="M 0 3 L 0 6 L 2 4 L 32 4 L 62 4 L 64 3 L 32 3 L 0 3 z "
     id="path4298" />
  <path
     style="fill:#000000;fill-opacity:0.10215054;fill-rule:nonzero"
     d="M 2 0 L 0 1 L 32 1 L 64 1 L 62 0 L 32 0 L 2 0 z "
     id="path4444" />
  <path
     style="fill:#000000;fill-opacity:0.10215054;fill-rule:nonzero"
     d="M 63 0.5 L 63 34 L 63 63 L 64 62 L 64 34 L 64 1 L 63 0.5 z M 63 63 L 32 63 L 1 63 L 2 64 L 32 64 L 62 64 L 63 63 z "
     id="path4366" />
  <path
     style="fill:#ffffff;fill-opacity:0.30107528;fill-rule:nonzero"
     d="M 0 1 L 0 34 L 0 62 L 1 63 L 1 34 L 1 5 L 2 4 L 1 3.46875 L 1 1 L 0 1 z "
     id="path3864" />
  <path
     style="fill:#000000;fill-opacity:0.33154121;stroke:none"
     d="m 32.029347,12.301365 c 0.31314,1.535942 0.655809,2.805818 0.737637,4.320446 -0.262623,0.02929 -0.519575,0.06404 -0.790326,0.131722 -4.318189,1.079546 -0.838488,3.069501 -0.210753,4.952707 1.178449,3.535344 -1.636805,4.388015 2.845172,6.111852 8.125955,0.423294 5.891692,-9.40766 0.342475,-11.011871 -0.761486,-2.085 -1.268568,-3.437565 -2.924205,-4.504856 z m -10.932839,2.976893 c -0.877482,1.649785 -0.712672,3.026492 -0.395163,5.03174 -2.587332,3.825202 -1.873987,10.933698 4.109694,10.089824 1.989979,-0.31173 3.632545,-1.308348 4.21507,-3.055925 0.508917,-1.52675 -1.918899,-3.394175 -2.634419,-4.109694 -0.945674,-0.945674 0.445655,-3.359983 -1.053767,-4.109693 -1.1612,-0.5806 -2.166731,-0.595195 -3.003238,-0.237098 -0.508388,-1.170306 -0.825154,-2.311998 -1.238177,-3.609154 z m 27.47699,5.505936 c 0.26027,1.276612 0.5215,2.35877 0.658604,3.556465 -0.292527,0.02383 -0.58676,0.153996 -0.922046,0.263442 -2.897915,0.94595 -2.01699,2.947332 -4.304454,6.023548 -1.957332,2.63225 1.347229,4.582153 3.514129,5.304454 6.292883,2.097628 6.489716,-6.99253 3.951628,-10.379611 l 0.131721,0 c -0.823559,-2.25302 -1.298833,-3.652585 -3.029582,-4.768298 z m -38.409829,9.826382 c -0.476561,2.665156 0.437097,4.160143 1.765062,5.321527 -0.86231,6.491143 8.345734,9.741507 11.354344,4.583889 0.497601,-3.736741 -7.936834,-9.820239 -10.590363,-6.665081 -1.550458,-0.625487 -2.08336,-1.911808 -2.529043,-3.240335 z m 26.159781,4.531201 c -0.517066,0.03702 -1.085922,0.163001 -1.712373,0.368818 -1.369462,1.027097 -4.779057,1.112392 -5.426903,3.055927 -0.550763,1.652288 0.06624,3.819147 -0.684948,5.321526 -0.677058,1.354115 -4.822952,3.157373 -3.740876,5.321526 4.058445,8.116889 19.040765,2.982979 23.920525,-1.896782 0.877667,-0.877667 1.512613,-3.808911 0.526883,-4.794642 -1.618444,-1.618443 -4.767583,-1.237462 -6.375294,-2.845172 -1.981886,-1.981888 -3.21926,-4.457662 -6.006475,-4.531201 -0.160801,-0.0042 -0.328184,-0.01234 -0.500539,0 z"
     id="path3828"
     inkscape:connector-curvature="0"
     sodipodi:nodetypes="cccsccccccsssccccsssccccccccscsssssscs" />
  <g
     id="g3833">
    <path
       inkscape:connector-curvature="0"
       id="path3823"
       d="m 32.03125,12.3125 c 0.31314,1.535942 0.668172,2.797872 0.75,4.3125 -0.262623,0.02929 -0.541749,0.05732 -0.8125,0.125 -4.318189,1.079546 -0.815235,3.085544 -0.1875,4.96875 1.178449,3.535344 -1.638227,4.369913 2.84375,6.09375 0.132718,0.0069 0.247779,0.02973 0.375,0.03125 0.08531,-0.775373 0.243091,-1.739478 -0.21875,-3.125 -0.627735,-1.883206 -4.130689,-3.889204 0.1875,-4.96875 0.270751,-0.06768 0.549877,-0.09571 0.8125,-0.125 -0.05103,-0.944592 -0.22275,-1.80939 -0.40625,-2.6875 -0.136328,-0.05095 -0.265545,-0.08432 -0.40625,-0.125 -0.761486,-2.085 -1.281863,-3.432709 -2.9375,-4.5 z m -10.9375,2.96875 c -0.877482,1.649785 -0.723759,3.026002 -0.40625,5.03125 -2.226329,3.291483 -1.978786,9.004834 1.9375,10 -0.704144,-2.181576 -0.277434,-5.018995 1.0625,-7 -0.290481,-1.834552 -0.42759,-3.152209 0.21875,-4.625 -0.572185,-0.06721 -1.094004,-0.01306 -1.5625,0.1875 -0.508388,-1.170306 -0.836977,-2.296594 -1.25,-3.59375 z m 16.1875,2.84375 c 0.221315,0.506975 0.458342,1.060049 0.6875,1.6875 0.346826,0.100263 0.680792,0.214977 1,0.375 -0.435926,-0.778619 -1.005356,-1.475659 -1.6875,-2.0625 z M 24.25,18.75 c 0.343011,1.099734 0.650201,2.103952 1.09375,3.125 0.218202,-0.09341 0.446533,-0.148239 0.6875,-0.1875 0.04728,-0.996262 0.240291,-2.098605 -0.6875,-2.5625 C 24.961061,18.933656 24.598396,18.825314 24.25,18.75 z m 24.3125,2.03125 c 0.26027,1.276612 0.519146,2.364805 0.65625,3.5625 -0.292527,0.02383 -0.570964,0.140554 -0.90625,0.25 C 45.414585,25.5397 46.287464,27.548784 44,30.625 c -1.649751,2.218611 0.442945,3.921113 2.4375,4.84375 C 46.36909,34.9045 46.51067,34.283062 47,33.625 c 2.287464,-3.076216 1.414585,-5.0853 4.3125,-6.03125 0.335286,-0.109446 0.613723,-0.22617 0.90625,-0.25 -0.02444,-0.213515 -0.06213,-0.417072 -0.09375,-0.625 -0.193894,-0.428809 -0.405923,-0.822189 -0.65625,-1.15625 l 0.125,0 C 50.770191,23.30948 50.293249,21.896963 48.5625,20.78125 z M 10.15625,30.625 c -0.476561,2.665156 0.453285,4.151116 1.78125,5.3125 -0.389652,2.933156 1.278332,5.179551 3.5,6.3125 -0.451967,-0.964112 -0.663894,-2.078769 -0.5,-3.3125 -1.327965,-1.161384 -2.257811,-2.647344 -1.78125,-5.3125 0.445683,1.328527 0.980792,2.593263 2.53125,3.21875 1.374949,-1.634873 4.286447,-0.776814 6.71875,0.9375 -2.154844,-3.257765 -7.66347,-6.381315 -9.71875,-3.9375 -1.550458,-0.625487 -2.085567,-1.890223 -2.53125,-3.21875 z m 26.15625,4.53125 c -0.517066,0.03702 -1.061049,0.137933 -1.6875,0.34375 -1.369462,1.027097 -4.789654,1.118965 -5.4375,3.0625 -0.550763,1.652288 0.06369,3.810121 -0.6875,5.3125 -0.677058,1.354115 -4.832076,3.179597 -3.75,5.34375 0.715721,1.431442 1.782625,2.443702 3.0625,3.125 -0.02205,-0.04214 -0.04106,-0.08212 -0.0625,-0.125 -1.082076,-2.164153 3.072942,-3.989635 3.75,-5.34375 0.751188,-1.502379 0.136737,-3.660212 0.6875,-5.3125 0.647846,-1.943535 4.068038,-2.035403 5.4375,-3.0625 0.626451,-0.205817 1.170434,-0.30673 1.6875,-0.34375 0.172355,-0.01234 0.339199,-0.0042 0.5,0 0.892162,0.02354 1.63143,0.297935 2.28125,0.71875 -1.588792,-1.792825 -2.857202,-3.654793 -5.28125,-3.71875 -0.160801,-0.0042 -0.327645,-0.01234 -0.5,0 z m 7.375,5.125 c 0.687103,0.754848 1.378494,1.628493 2.15625,2.40625 0.962628,0.962627 2.4666,1.200963 3.875,1.59375 0.01821,-0.717875 -0.125034,-1.375034 -0.5,-1.75 -1.367206,-1.367206 -3.831374,-1.332256 -5.53125,-2.25 z"
       style="fill:#000000;fill-opacity:0.11290322;stroke:none" />
    <path
       inkscape:connector-curvature="0"
       id="path3818"
       d="m 32.03125,12.3125 c 0.31314,1.535942 0.668172,2.797872 0.75,4.3125 -0.262623,0.02929 -0.541749,0.05732 -0.8125,0.125 -4.318189,1.079546 -0.815235,3.085544 -0.1875,4.96875 1.113431,3.340291 -1.350133,4.264375 2.15625,5.8125 -0.0377,-0.886084 0.454852,-1.979197 -0.15625,-3.8125 -0.627735,-1.883206 -4.130689,-3.889204 0.1875,-4.96875 0.270751,-0.06768 0.549877,-0.09571 0.8125,-0.125 C 34.70772,17.263931 34.409091,16.08646 34.125,14.75 33.645016,13.750903 33.066023,12.979557 32.03125,12.3125 z m -10.9375,2.96875 c -0.877482,1.649785 -0.723759,3.026002 -0.40625,5.03125 -2.08321,3.07989 -2.005654,8.309021 1.21875,9.78125 -1.109964,-2.235478 -0.721459,-5.559592 0.78125,-7.78125 -0.215287,-1.359659 -0.327438,-2.437221 -0.125,-3.5 -0.07205,0.02455 -0.149041,0.03266 -0.21875,0.0625 -0.508388,-1.170306 -0.836977,-2.296594 -1.25,-3.59375 z M 36.4375,17.5 c 0.164773,0.406466 0.356639,0.834403 0.53125,1.3125 0.583799,0.168769 1.122783,0.420645 1.625,0.75 C 38.024587,18.730787 37.293858,18.030718 36.4375,17.5 z m -12.90625,1.15625 c 0.239252,0.757365 0.493467,1.484339 0.8125,2.21875 0.518739,-0.222065 1.104448,-0.266926 1.75,-0.15625 0.0033,-0.67176 -0.118855,-1.278178 -0.75,-1.59375 -0.656188,-0.328094 -1.258142,-0.467259 -1.8125,-0.46875 z m 25.03125,2.125 c 0.26027,1.276612 0.519146,2.364805 0.65625,3.5625 -0.292527,0.02383 -0.570964,0.140554 -0.90625,0.25 C 45.414585,25.5397 46.287464,27.548784 44,30.625 42.587279,32.524848 43.93042,34.047329 45.59375,35.03125 45.304121,34.320553 45.34104,33.51118 46,32.625 c 2.287464,-3.076216 1.414585,-5.0853 4.3125,-6.03125 0.335286,-0.109446 0.613723,-0.22617 0.90625,-0.25 C 51.094583,25.259064 50.859868,24.250422 50.625,23.125 50.153769,22.180253 49.563031,21.426234 48.5625,20.78125 z M 10.15625,30.625 c -0.476561,2.665156 0.453285,4.151116 1.78125,5.3125 -0.348951,2.626775 0.941413,4.714555 2.8125,5.9375 -0.682148,-1.093152 -1.012749,-2.430099 -0.8125,-3.9375 -1.167448,-1.021002 -2.011032,-2.301192 -1.875,-4.40625 -1.072947,-0.688527 -1.527946,-1.778573 -1.90625,-2.90625 z m 4.53125,2.34375 c -0.807022,0.01837 -1.502463,0.283408 -2,0.875 -0.02306,-0.0093 -0.03989,-0.02166 -0.0625,-0.03125 0.406701,0.861551 0.98878,1.598089 2.0625,2.03125 1.485887,-1.766782 4.784627,-0.649038 7.3125,1.34375 -1.76953,-2.245161 -4.987227,-4.271673 -7.3125,-4.21875 z m 21.625,2.1875 c -0.517066,0.03702 -1.061049,0.137933 -1.6875,0.34375 -1.369462,1.027097 -4.789654,1.118965 -5.4375,3.0625 -0.550763,1.652288 0.06369,3.810121 -0.6875,5.3125 -0.677058,1.354115 -4.832076,3.179597 -3.75,5.34375 0.589445,1.17889 1.420359,2.05752 2.40625,2.71875 -0.14752,-0.228184 -0.279424,-0.465097 -0.40625,-0.71875 -1.082076,-2.164153 3.072942,-3.989635 3.75,-5.34375 0.751188,-1.502379 0.136737,-3.660212 0.6875,-5.3125 0.647846,-1.943535 4.068038,-2.035403 5.4375,-3.0625 0.626451,-0.205817 1.170434,-0.30673 1.6875,-0.34375 0.172355,-0.01234 0.339199,-0.0042 0.5,0 1.019105,0.02689 1.845638,0.378622 2.5625,0.90625 -1.292792,-1.50919 -2.502921,-2.851909 -4.5625,-2.90625 -0.160801,-0.0042 -0.327645,-0.01234 -0.5,0 z M 43.5,40.1875 c 0.420612,0.491349 0.869277,1.025526 1.34375,1.5 1.183454,1.183453 3.183945,1.287244 4.8125,1.90625 -0.06319,-0.439457 -0.185513,-0.810512 -0.4375,-1.0625 C 47.802612,41.115112 45.201933,41.213745 43.5,40.1875 z"
       style="fill:#000000;fill-opacity:0.11290322;stroke:none" />
    <path
       inkscape:connector-curvature="0"
       id="path3813"
       d="m 32.03125,12.3125 c 0.31314,1.535942 0.668172,2.797872 0.75,4.3125 -0.262623,0.02929 -0.541749,0.05732 -0.8125,0.125 -4.318189,1.079546 -0.815235,3.085544 -0.1875,4.96875 1.005081,3.015241 -0.887325,4.057781 1.3125,5.375 -0.411029,-0.989802 0.433902,-2.135797 -0.3125,-4.375 -0.627735,-1.883206 -4.130689,-3.889204 0.1875,-4.96875 0.270751,-0.06768 0.549877,-0.09571 0.8125,-0.125 -0.08183,-1.514628 -0.43686,-2.776558 -0.75,-4.3125 0.139789,0.09011 0.250742,0.1868 0.375,0.28125 -0.36265,-0.475634 -0.782379,-0.899223 -1.375,-1.28125 z m -10.9375,2.96875 c -0.877482,1.649785 -0.723759,3.026002 -0.40625,5.03125 -1.940499,2.868901 -2.009963,7.583688 0.59375,9.40625 -1.541206,-2.196744 -1.242385,-5.96885 0.40625,-8.40625 -0.257026,-1.623266 -0.383759,-2.847219 0.03125,-4.125 -0.202599,-0.61483 -0.410779,-1.23346 -0.625,-1.90625 z M 35.6875,17.0625 c 0.09328,0.246781 0.182475,0.479548 0.28125,0.75 0.813962,0.235306 1.538416,0.656517 2.1875,1.1875 -0.676094,-0.816845 -1.498909,-1.510608 -2.46875,-1.9375 z m -11.96875,1.59375 c -0.286791,-0.01801 -0.552611,0.0082 -0.8125,0.0625 0.136291,0.386287 0.269858,0.77034 0.4375,1.15625 C 24.09636,19.552818 24.983476,19.578028 26,20 c -0.08931,-0.371404 -0.261132,-0.677441 -0.65625,-0.875 -0.5806,-0.2903 -1.123904,-0.437288 -1.625,-0.46875 z m 24.84375,2.125 c 0.26027,1.276612 0.519146,2.364805 0.65625,3.5625 -0.292527,0.02383 -0.570964,0.140554 -0.90625,0.25 C 45.414585,25.5397 46.287464,27.548784 44,30.625 42.79405,32.246781 43.582821,33.617536 44.875,34.59375 44.29558,33.762833 44.167193,32.744972 45,31.625 c 2.287464,-3.076216 1.414585,-5.0853 4.3125,-6.03125 0.335286,-0.109446 0.613723,-0.22617 0.90625,-0.25 -0.137104,-1.197695 -0.39598,-2.285888 -0.65625,-3.5625 0.157694,0.101656 0.299438,0.2057 0.4375,0.3125 -0.368743,-0.49005 -0.826138,-0.918391 -1.4375,-1.3125 z M 10.15625,30.625 c -0.476561,2.665156 0.453285,4.151116 1.78125,5.3125 -0.311946,2.34821 0.696428,4.244641 2.25,5.5 -0.952468,-1.188725 -1.487772,-2.71014 -1.25,-4.5 -1.161969,-1.016211 -2.001223,-2.287526 -1.875,-4.375 -0.41069,-0.581534 -0.674187,-1.24575 -0.90625,-1.9375 z m 4.53125,2.34375 c -0.807022,0.01837 -1.502463,0.283408 -2,0.875 C 12.428217,33.73915 12.20672,33.638668 12,33.5 c 0.382743,0.565832 0.912271,1.031007 1.6875,1.34375 1.604504,-1.907823 5.327225,-0.442853 7.90625,1.84375 -1.824055,-2.036038 -4.754192,-3.767731 -6.90625,-3.71875 z m 21.625,2.1875 c -0.517066,0.03702 -1.061049,0.137933 -1.6875,0.34375 -1.369462,1.027097 -4.789654,1.118965 -5.4375,3.0625 -0.550763,1.652288 0.06369,3.810121 -0.6875,5.3125 -0.677058,1.354115 -4.832076,3.179597 -3.75,5.34375 0.481817,0.963634 1.120436,1.731041 1.875,2.34375 -0.323057,-0.398783 -0.62808,-0.84991 -0.875,-1.34375 -1.082076,-2.164153 3.072942,-3.989635 3.75,-5.34375 0.751188,-1.502379 0.136737,-3.660212 0.6875,-5.3125 0.647846,-1.943535 4.068038,-2.035403 5.4375,-3.0625 0.626451,-0.205817 1.170434,-0.30673 1.6875,-0.34375 0.172355,-0.01234 0.339199,-0.0042 0.5,0 1.21549,0.03207 2.152469,0.513165 2.96875,1.21875 -1.091341,-1.215647 -2.226741,-2.172788 -3.96875,-2.21875 -0.160801,-0.0042 -0.327645,-0.01234 -0.5,0 z m 6.84375,4.78125 c 0.220005,0.246629 0.450069,0.512568 0.6875,0.75 1.397078,1.397077 3.947131,1.270627 5.65625,2.28125 -0.07526,-0.176203 -0.158034,-0.314284 -0.28125,-0.4375 -1.517291,-1.51729 -4.385885,-1.304967 -6.0625,-2.59375 z"
       style="fill:#000000;fill-opacity:0.11290322;stroke:none" />
  </g>
  <path
     style="fill:#ffdb50;fill-opacity:1;stroke:none"
     d="M 33.40625 13.59375 C 34.056756 14.446921 34.479831 15.473807 34.96875 16.8125 C 35.217782 16.884492 35.452457 16.959042 35.6875 17.0625 C 35.122398 15.567403 34.562784 14.472847 33.40625 13.59375 z M 22.09375 16.28125 C 21.926597 16.595519 21.816409 16.886817 21.71875 17.1875 C 21.906767 17.758078 22.099045 18.311691 22.34375 18.875 C 22.522626 18.798426 22.712047 18.759351 22.90625 18.71875 C 22.629226 17.933586 22.370578 17.150667 22.09375 16.28125 z M 38.15625 19 C 40.967458 22.396454 40.881582 28.138415 34.625 27.8125 C 33.965632 27.558897 33.473201 27.320959 33.09375 27.09375 C 33.33167 27.666687 33.981801 28.1805 35.625 28.8125 C 42.559036 29.173705 41.932324 22.089012 38.15625 19 z M 26 20 C 26.249617 21.038025 25.709774 22.522274 26.40625 23.21875 C 26.596299 23.408799 26.905466 23.706639 27.25 24.03125 C 26.618154 22.984049 27.749458 20.827853 26.34375 20.125 C 26.227288 20.066769 26.113316 20.047039 26 20 z M 50 22.09375 C 50.675159 22.991019 51.061101 24.105326 51.59375 25.5625 L 51.46875 25.5625 C 54.006838 28.949581 53.824133 38.035128 47.53125 35.9375 C 46.718662 35.666637 45.732578 35.212372 44.9375 34.625 C 45.732353 35.72181 47.304555 36.528601 48.53125 36.9375 C 54.824133 39.035128 55.006838 29.949581 52.46875 26.5625 L 52.59375 26.5625 C 51.845228 24.51476 51.37722 23.159117 50 22.09375 z M 27.5625 24.375 C 28.439346 25.246552 29.363225 26.347825 29.03125 27.34375 C 28.448725 29.091327 26.802479 30.09452 24.8125 30.40625 C 23.31658 30.617218 22.149154 30.32627 21.28125 29.71875 C 22.158779 30.969528 23.641591 31.712412 25.8125 31.40625 C 27.802479 31.09452 29.448725 30.091327 30.03125 28.34375 C 30.514213 26.894863 28.395798 25.161845 27.5625 24.375 z M 11.15625 31.625 C 11.09668 31.958144 11.080532 32.264289 11.0625 32.5625 C 11.300657 32.899729 11.600749 33.214982 11.96875 33.46875 C 11.599771 32.911282 11.374378 32.275212 11.15625 31.625 z M 21.6875 36.78125 C 22.77549 38.026395 23.432654 39.394278 23.28125 40.53125 C 21.361023 43.823068 16.928456 43.652322 14.1875 41.4375 C 16.689273 44.55983 22.10223 45.266713 24.28125 41.53125 C 24.474174 40.082488 23.322395 38.260341 21.6875 36.78125 z M 40.84375 37.4375 C 41.478408 38.150011 42.122466 38.966216 42.84375 39.6875 C 42.933203 39.776953 43.026532 39.828423 43.125 39.90625 C 42.343316 39.027047 41.637043 38.13962 40.84375 37.4375 z M 49.5 43 C 50.007685 44.240072 49.450058 46.549942 48.6875 47.3125 C 44.395714 51.604287 32.272488 56.096584 26.65625 51.59375 C 31.664183 57.699962 45.112725 52.887276 49.6875 48.3125 C 50.565167 47.434833 51.20448 44.516981 50.21875 43.53125 C 50.009868 43.322368 49.753273 43.150846 49.5 43 z "
     id="path3024" />
</svg>
