<?xml version="1.0" encoding="UTF-8" standalone="no"?>
<!-- Created with Inkscape (http://www.inkscape.org/) -->

<svg
   xmlns:dc="http://purl.org/dc/elements/1.1/"
   xmlns:cc="http://creativecommons.org/ns#"
   xmlns:rdf="http://www.w3.org/1999/02/22-rdf-syntax-ns#"
   xmlns:svg="http://www.w3.org/2000/svg"
   xmlns="http://www.w3.org/2000/svg"
   xmlns:sodipodi="http://sodipodi.sourceforge.net/DTD/sodipodi-0.dtd"
   xmlns:inkscape="http://www.inkscape.org/namespaces/inkscape"
   version="1.1"
   width="22"
   height="22"
   id="svg13094"
   inkscape:version="0.48.3.1 r9886"
   sodipodi:docname="user-away.svg">
  <sodipodi:namedview
     pagecolor="#ffffff"
     bordercolor="#666666"
     borderopacity="1"
     objecttolerance="10"
     gridtolerance="10"
     guidetolerance="10"
     inkscape:pageopacity="0"
     inkscape:pageshadow="2"
     inkscape:window-width="1920"
     inkscape:window-height="1033"
     id="namedview6"
     showgrid="true"
     inkscape:snap-bbox="true"
     inkscape:bbox-paths="true"
     inkscape:bbox-nodes="true"
     inkscape:snap-bbox-edge-midpoints="true"
     inkscape:snap-bbox-midpoints="true"
     inkscape:object-paths="true"
     inkscape:snap-intersection-paths="true"
     inkscape:object-nodes="true"
     inkscape:snap-smooth-nodes="true"
     inkscape:snap-midpoints="true"
     inkscape:snap-object-midpoints="true"
     inkscape:snap-center="true"
     inkscape:zoom="20.85965"
     inkscape:cx="15.38931"
     inkscape:cy="14.379958"
     inkscape:window-x="-10"
     inkscape:window-y="25"
     inkscape:window-maximized="1"
     inkscape:current-layer="svg13094"
     inkscape:snap-global="true">
    <inkscape:grid
       type="xygrid"
       id="grid2983"
       empspacing="5"
       visible="true"
       enabled="true"
       snapvisiblegridlinesonly="true" />
  </sodipodi:namedview>
  <defs
     id="defs7" />
  <metadata
     id="metadata13099">
    <rdf:RDF>
      <cc:Work
         rdf:about="">
        <dc:format>image/svg+xml</dc:format>
        <dc:type
           rdf:resource="http://purl.org/dc/dcmitype/StillImage" />
        <dc:title />
      </cc:Work>
    </rdf:RDF>
  </metadata>
  <path
     style="fill:#434a54;fill-opacity:0.6745098;fill-rule:nonzero;stroke:none"
     d="m 11,3 c -4.4182781,0 -8,3.5817223 -8,8 0,2.209139 0.9094275,4.195142 2.3571429,5.642857 L 3,19 l 8,0 c 4.418278,0 8,-3.581722 8,-8 0,-4.4182777 -3.581722,-8 -8,-8 z m -1,4 2,0 0,3 3,0 0,2 -5,0 z"
     id="path2984"
     inkscape:connector-curvature="0"
     sodipodi:nodetypes="ssccsssccccccc" />
  <path
     inkscape:connector-curvature="0"
     style="font-size:medium;font-style:normal;font-variant:normal;font-weight:normal;font-stretch:normal;text-indent:0;text-align:start;text-decoration:none;line-height:normal;letter-spacing:normal;word-spacing:normal;text-transform:none;direction:ltr;block-progression:tb;writing-mode:lr-tb;text-anchor:start;baseline-shift:baseline;color:#000000;fill:#d1d4d6;fill-opacity:0.74329164;fill-rule:nonzero;stroke:none;stroke-width:2;marker:none;visibility:visible;display:inline;overflow:visible;enable-background:accumulate;font-family:Sans;-inkscape-font-specification:Sans"
     d="m 11,1.8125 c -5.0668062,0 -9.1875,4.1206938 -9.1875,9.1875 0,2.09569 0.8146417,3.950248 2,5.5 L 2.15625,18.15625 0.28125,20 12.84375,20 C 17.026841,19.142001 20.1875,15.433455 20.1875,11 20.1875,5.9331938 16.066806,1.8125 11,1.8125 z M 11,3 c 4.418278,0 8,3.581722 8,8 0,4.418278 -3.581722,8 -8,8 L 3,19 5.34375,16.65625 C 3.8960347,15.208535 3,13.209139 3,11 3,6.581722 6.581722,3 11,3 z"
     id="path2983" />
  <path
     style="color:#000000;fill:#d1d4d5;fill-opacity:0.74509804;fill-rule:nonzero;stroke:none;stroke-width:1;marker:none;visibility:visible;display:inline;overflow:visible;enable-background:accumulate"
     d="m 10,7 0,5 2,0 3,0 0,-2 -3,0 0,-3 -2,0 z"
     id="rect2991"
     inkscape:connector-curvature="0" />
</svg>
